<?xml version="1.0" encoding="UTF-8" standalone="no"?>
<!DOCTYPE svg PUBLIC "-//W3C//DTD SVG 1.1//EN"
 "http://www.w3.org/Graphics/SVG/1.1/DTD/svg11.dtd">
<!-- Generated by graphviz version 2.36.0 (20140111.2315)
 -->
<!-- Title: be/src/scheduling/admission&#45;controller.h Pages: 1 -->
<svg width="2120pt" height="448pt"
 viewBox="0.00 0.00 2120.00 448.00" xmlns="http://www.w3.org/2000/svg" xmlns:xlink="http://www.w3.org/1999/xlink">
<g id="graph0" class="graph" transform="scale(1 1) rotate(0) translate(4 444)">
<title>be/src/scheduling/admission&#45;controller.h</title>
<polygon fill="white" stroke="none" points="-4,4 -4,-444 2116,-444 2116,4 -4,4"/>
<!-- Node1 -->
<g id="node1" class="node"><title>Node1</title>
<polygon fill="#bfbfbf" stroke="black" points="1683,-409 1683,-439 1823,-439 1823,-409 1683,-409"/>
<text text-anchor="start" x="1691" y="-427" font-family="Helvetica,sans-Serif" font-size="10.00">be/src/scheduling/admission</text>
<text text-anchor="middle" x="1753" y="-416" font-family="Helvetica,sans-Serif" font-size="10.00">&#45;controller.h</text>
</g>
<!-- Node2 -->
<g id="node2" class="node"><title>Node2</title>
<g id="a_node2"><a xlink:href="admission-controller_8cc.html" target="_top" xlink:title="be/src/scheduling/admission\l&#45;controller.cc">
<polygon fill="white" stroke="black" points="1435,-273 1435,-303 1575,-303 1575,-273 1435,-273"/>
<text text-anchor="start" x="1443" y="-291" font-family="Helvetica,sans-Serif" font-size="10.00">be/src/scheduling/admission</text>
<text text-anchor="middle" x="1505" y="-280" font-family="Helvetica,sans-Serif" font-size="10.00">&#45;controller.cc</text>
</a>
</g>
</g>
<!-- Node1&#45;&gt;Node2 -->
<g id="edge1" class="edge"><title>Node1&#45;&gt;Node2</title>
<path fill="none" stroke="midnightblue" d="M1718.03,-404.106C1667.7,-376.908 1575.95,-327.336 1531.09,-303.099"/>
<polygon fill="midnightblue" stroke="midnightblue" points="1716.47,-407.238 1726.93,-408.913 1719.79,-401.08 1716.47,-407.238"/>
</g>
<!-- Node3 -->
<g id="node3" class="node"><title>Node3</title>
<g id="a_node3"><a xlink:href="simple-scheduler_8h.html" target="_top" xlink:title="be/src/statestore/simple\l&#45;scheduler.h">
<polygon fill="white" stroke="black" points="1789,-341 1789,-371 1911,-371 1911,-341 1789,-341"/>
<text text-anchor="start" x="1797" y="-359" font-family="Helvetica,sans-Serif" font-size="10.00">be/src/statestore/simple</text>
<text text-anchor="middle" x="1850" y="-348" font-family="Helvetica,sans-Serif" font-size="10.00">&#45;scheduler.h</text>
</a>
</g>
</g>
<!-- Node1&#45;&gt;Node3 -->
<g id="edge2" class="edge"><title>Node1&#45;&gt;Node3</title>
<path fill="none" stroke="midnightblue" d="M1782.56,-402.888C1797.68,-392.6 1815.71,-380.329 1829.33,-371.066"/>
<polygon fill="midnightblue" stroke="midnightblue" points="1780.35,-400.16 1774.05,-408.679 1784.28,-405.947 1780.35,-400.16"/>
</g>
<!-- Node3&#45;&gt;Node2 -->
<g id="edge40" class="edge"><title>Node3&#45;&gt;Node2</title>
<path fill="none" stroke="midnightblue" d="M1778.63,-341.347C1719.02,-329.944 1634.5,-313.775 1575.22,-302.433"/>
<polygon fill="midnightblue" stroke="midnightblue" points="1778.24,-344.835 1788.72,-343.277 1779.55,-337.96 1778.24,-344.835"/>
</g>
<!-- Node4 -->
<g id="node4" class="node"><title>Node4</title>
<g id="a_node4"><a xlink:href="coordinator_8h.html" target="_top" xlink:title="be/src/runtime/coordinator.h">
<polygon fill="white" stroke="black" points="1733,-278.5 1733,-297.5 1871,-297.5 1871,-278.5 1733,-278.5"/>
<text text-anchor="middle" x="1802" y="-285.5" font-family="Helvetica,sans-Serif" font-size="10.00">be/src/runtime/coordinator.h</text>
</a>
</g>
</g>
<!-- Node3&#45;&gt;Node4 -->
<g id="edge3" class="edge"><title>Node3&#45;&gt;Node4</title>
<path fill="none" stroke="midnightblue" d="M1833.62,-332.475C1824.96,-320.576 1814.84,-306.65 1808.42,-297.828"/>
<polygon fill="midnightblue" stroke="midnightblue" points="1830.87,-334.65 1839.58,-340.679 1836.53,-330.533 1830.87,-334.65"/>
</g>
<!-- Node14 -->
<g id="node14" class="node"><title>Node14</title>
<g id="a_node14"><a xlink:href="impala-beeswax-server_8cc.html" target="_top" xlink:title="be/src/service/impala\l&#45;beeswax&#45;server.cc">
<polygon fill="white" stroke="black" points="1545,-1 1545,-31 1655,-31 1655,-1 1545,-1"/>
<text text-anchor="start" x="1553" y="-19" font-family="Helvetica,sans-Serif" font-size="10.00">be/src/service/impala</text>
<text text-anchor="middle" x="1600" y="-8" font-family="Helvetica,sans-Serif" font-size="10.00">&#45;beeswax&#45;server.cc</text>
</a>
</g>
</g>
<!-- Node3&#45;&gt;Node14 -->
<g id="edge41" class="edge"><title>Node3&#45;&gt;Node14</title>
<path fill="none" stroke="midnightblue" d="M1876.58,-334.237C1904.06,-310.216 1943,-267.908 1943,-221 1943,-221 1943,-221 1943,-151 1943,-103.029 1915.37,-92.2773 1874,-68 1855.38,-57.0725 1729.51,-36.5886 1655.01,-25.1877"/>
<polygon fill="midnightblue" stroke="midnightblue" points="1874.19,-331.67 1868.82,-340.802 1878.71,-337.013 1874.19,-331.67"/>
</g>
<!-- Node17 -->
<g id="node17" class="node"><title>Node17</title>
<g id="a_node17"><a xlink:href="impala-server_8cc.html" target="_top" xlink:title="be/src/service/impala\l&#45;server.cc">
<polygon fill="white" stroke="black" points="1714,-1 1714,-31 1824,-31 1824,-1 1714,-1"/>
<text text-anchor="start" x="1722" y="-19" font-family="Helvetica,sans-Serif" font-size="10.00">be/src/service/impala</text>
<text text-anchor="middle" x="1769" y="-8" font-family="Helvetica,sans-Serif" font-size="10.00">&#45;server.cc</text>
</a>
</g>
</g>
<!-- Node3&#45;&gt;Node17 -->
<g id="edge42" class="edge"><title>Node3&#45;&gt;Node17</title>
<path fill="none" stroke="midnightblue" d="M1909.94,-337.001C1927.18,-329.269 1944.64,-318.562 1957,-304 1981.85,-274.723 1981,-259.4 1981,-221 1981,-221 1981,-221 1981,-151 1981,-112.6 1984.38,-94.927 1957,-68 1921.92,-33.4957 1865.99,-21.7385 1824.23,-18.0172"/>
<polygon fill="midnightblue" stroke="midnightblue" points="1908.28,-333.9 1900.42,-340.997 1910.99,-340.355 1908.28,-333.9"/>
</g>
<!-- Node25 -->
<g id="node25" class="node"><title>Node25</title>
<g id="a_node25"><a xlink:href="simple-scheduler_8cc.html" target="_top" xlink:title="be/src/statestore/simple\l&#45;scheduler.cc">
<polygon fill="white" stroke="black" points="1793,-137 1793,-167 1915,-167 1915,-137 1793,-137"/>
<text text-anchor="start" x="1801" y="-155" font-family="Helvetica,sans-Serif" font-size="10.00">be/src/statestore/simple</text>
<text text-anchor="middle" x="1854" y="-144" font-family="Helvetica,sans-Serif" font-size="10.00">&#45;scheduler.cc</text>
</a>
</g>
</g>
<!-- Node3&#45;&gt;Node25 -->
<g id="edge44" class="edge"><title>Node3&#45;&gt;Node25</title>
<path fill="none" stroke="midnightblue" d="M1866.86,-332.276C1872.15,-323.837 1877.3,-313.899 1880,-304 1893.42,-254.72 1872.08,-194.423 1860.58,-167.354"/>
<polygon fill="midnightblue" stroke="midnightblue" points="1863.82,-330.514 1861.18,-340.773 1869.64,-334.405 1863.82,-330.514"/>
</g>
<!-- Node28 -->
<g id="node28" class="node"><title>Node28</title>
<g id="a_node28"><a xlink:href="exec-env_8cc.html" target="_top" xlink:title="be/src/runtime/exec\l&#45;env.cc">
<polygon fill="white" stroke="black" points="2009.5,-273 2009.5,-303 2112.5,-303 2112.5,-273 2009.5,-273"/>
<text text-anchor="start" x="2017.5" y="-291" font-family="Helvetica,sans-Serif" font-size="10.00">be/src/runtime/exec</text>
<text text-anchor="middle" x="2061" y="-280" font-family="Helvetica,sans-Serif" font-size="10.00">&#45;env.cc</text>
</a>
</g>
</g>
<!-- Node3&#45;&gt;Node28 -->
<g id="edge39" class="edge"><title>Node3&#45;&gt;Node28</title>
<path fill="none" stroke="midnightblue" d="M1904.95,-337.813C1939.52,-326.998 1983.58,-313.216 2016.06,-303.056"/>
<polygon fill="midnightblue" stroke="midnightblue" points="1903.51,-334.597 1895.01,-340.922 1905.59,-341.277 1903.51,-334.597"/>
</g>
<!-- Node29 -->
<g id="node29" class="node"><title>Node29</title>
<g id="a_node29"><a xlink:href="simple-scheduler-test_8cc.html" target="_top" xlink:title="be/src/statestore/simple\l&#45;scheduler&#45;test.cc">
<polygon fill="white" stroke="black" points="1593,-273 1593,-303 1715,-303 1715,-273 1593,-273"/>
<text text-anchor="start" x="1601" y="-291" font-family="Helvetica,sans-Serif" font-size="10.00">be/src/statestore/simple</text>
<text text-anchor="middle" x="1654" y="-280" font-family="Helvetica,sans-Serif" font-size="10.00">&#45;scheduler&#45;test.cc</text>
</a>
</g>
</g>
<!-- Node3&#45;&gt;Node29 -->
<g id="edge43" class="edge"><title>Node3&#45;&gt;Node29</title>
<path fill="none" stroke="midnightblue" d="M1798.3,-337.592C1766.25,-326.798 1725.62,-313.116 1695.64,-303.022"/>
<polygon fill="midnightblue" stroke="midnightblue" points="1797.36,-340.967 1807.95,-340.841 1799.59,-334.333 1797.36,-340.967"/>
</g>
<!-- Node5 -->
<g id="node5" class="node"><title>Node5</title>
<g id="a_node5"><a xlink:href="coordinator_8cc.html" target="_top" xlink:title="be/src/runtime/coordinator.cc">
<polygon fill="white" stroke="black" points="1682.5,-210.5 1682.5,-229.5 1825.5,-229.5 1825.5,-210.5 1682.5,-210.5"/>
<text text-anchor="middle" x="1754" y="-217.5" font-family="Helvetica,sans-Serif" font-size="10.00">be/src/runtime/coordinator.cc</text>
</a>
</g>
</g>
<!-- Node4&#45;&gt;Node5 -->
<g id="edge4" class="edge"><title>Node4&#45;&gt;Node5</title>
<path fill="none" stroke="midnightblue" d="M1789.59,-269.938C1780.26,-257.112 1767.86,-240.059 1760.43,-229.841"/>
<polygon fill="midnightblue" stroke="midnightblue" points="1787.01,-272.343 1795.72,-278.372 1792.67,-268.226 1787.01,-272.343"/>
</g>
<!-- Node6 -->
<g id="node6" class="node"><title>Node6</title>
<g id="a_node6"><a xlink:href="impala-server_8h.html" target="_top" xlink:title="be/src/service/impala\l&#45;server.h">
<polygon fill="white" stroke="black" points="1145,-205 1145,-235 1255,-235 1255,-205 1145,-205"/>
<text text-anchor="start" x="1153" y="-223" font-family="Helvetica,sans-Serif" font-size="10.00">be/src/service/impala</text>
<text text-anchor="middle" x="1200" y="-212" font-family="Helvetica,sans-Serif" font-size="10.00">&#45;server.h</text>
</a>
</g>
</g>
<!-- Node4&#45;&gt;Node6 -->
<g id="edge5" class="edge"><title>Node4&#45;&gt;Node6</title>
<path fill="none" stroke="midnightblue" d="M1751.8,-276.635C1742.58,-274.934 1733.02,-273.303 1724,-272 1553.93,-247.425 1351.05,-231.44 1255.28,-224.682"/>
<polygon fill="midnightblue" stroke="midnightblue" points="1751.16,-280.075 1761.64,-278.497 1752.46,-273.197 1751.16,-280.075"/>
</g>
<!-- Node23 -->
<g id="node23" class="node"><title>Node23</title>
<g id="a_node23"><a xlink:href="impalad-main_8cc.html" target="_top" xlink:title="be/src/service/impalad\l&#45;main.cc">
<polygon fill="white" stroke="black" points="-0.5,-137 -0.5,-167 114.5,-167 114.5,-137 -0.5,-137"/>
<text text-anchor="start" x="7.5" y="-155" font-family="Helvetica,sans-Serif" font-size="10.00">be/src/service/impalad</text>
<text text-anchor="middle" x="57" y="-144" font-family="Helvetica,sans-Serif" font-size="10.00">&#45;main.cc</text>
</a>
</g>
</g>
<!-- Node4&#45;&gt;Node23 -->
<g id="edge37" class="edge"><title>Node4&#45;&gt;Node23</title>
<path fill="none" stroke="midnightblue" d="M1752.76,-276.535C1743.25,-274.797 1733.34,-273.179 1724,-272 1464.24,-239.21 1397.28,-252.82 1136,-236 688.352,-207.183 573.408,-229.001 129,-168 124.32,-167.358 119.488,-166.587 114.647,-165.74"/>
<polygon fill="midnightblue" stroke="midnightblue" points="1752.4,-280.029 1762.88,-278.454 1753.7,-273.152 1752.4,-280.029"/>
</g>
<!-- Node4&#45;&gt;Node25 -->
<g id="edge38" class="edge"><title>Node4&#45;&gt;Node25</title>
<path fill="none" stroke="midnightblue" d="M1814.45,-270.247C1821.08,-260.643 1828.9,-248.119 1834,-236 1843.72,-212.912 1849.32,-184.136 1852.01,-167.243"/>
<polygon fill="midnightblue" stroke="midnightblue" points="1811.56,-268.281 1808.59,-278.452 1817.25,-272.352 1811.56,-268.281"/>
</g>
<!-- Node7 -->
<g id="node7" class="node"><title>Node7</title>
<g id="a_node7"><a xlink:href="catalog-op-executor_8cc.html" target="_top" xlink:title="be/src/exec/catalog\l&#45;op&#45;executor.cc">
<polygon fill="white" stroke="black" points="1149,-137 1149,-167 1251,-167 1251,-137 1149,-137"/>
<text text-anchor="start" x="1157" y="-155" font-family="Helvetica,sans-Serif" font-size="10.00">be/src/exec/catalog</text>
<text text-anchor="middle" x="1200" y="-144" font-family="Helvetica,sans-Serif" font-size="10.00">&#45;op&#45;executor.cc</text>
</a>
</g>
</g>
<!-- Node6&#45;&gt;Node7 -->
<g id="edge6" class="edge"><title>Node6&#45;&gt;Node7</title>
<path fill="none" stroke="midnightblue" d="M1200,-194.532C1200,-185.361 1200,-175.245 1200,-167.293"/>
<polygon fill="midnightblue" stroke="midnightblue" points="1196.5,-194.679 1200,-204.679 1203.5,-194.679 1196.5,-194.679"/>
</g>
<!-- Node8 -->
<g id="node8" class="node"><title>Node8</title>
<g id="a_node8"><a xlink:href="expr-benchmark_8cc.html" target="_top" xlink:title="be/src/exprs/expr&#45;benchmark.cc">
<polygon fill="white" stroke="black" points="1541.5,-142.5 1541.5,-161.5 1698.5,-161.5 1698.5,-142.5 1541.5,-142.5"/>
<text text-anchor="middle" x="1620" y="-149.5" font-family="Helvetica,sans-Serif" font-size="10.00">be/src/exprs/expr&#45;benchmark.cc</text>
</a>
</g>
</g>
<!-- Node6&#45;&gt;Node8 -->
<g id="edge7" class="edge"><title>Node6&#45;&gt;Node8</title>
<path fill="none" stroke="midnightblue" d="M1265.52,-208.883C1331.55,-198.664 1436.37,-182.376 1527,-168 1540.08,-165.925 1554.2,-163.661 1567.38,-161.536"/>
<polygon fill="midnightblue" stroke="midnightblue" points="1264.62,-205.482 1255.27,-210.47 1265.69,-212.4 1264.62,-205.482"/>
</g>
<!-- Node9 -->
<g id="node9" class="node"><title>Node9</title>
<g id="a_node9"><a xlink:href="expr-test_8cc.html" target="_top" xlink:title="be/src/exprs/expr&#45;test.cc">
<polygon fill="white" stroke="black" points="835.5,-142.5 835.5,-161.5 960.5,-161.5 960.5,-142.5 835.5,-142.5"/>
<text text-anchor="middle" x="898" y="-149.5" font-family="Helvetica,sans-Serif" font-size="10.00">be/src/exprs/expr&#45;test.cc</text>
</a>
</g>
</g>
<!-- Node6&#45;&gt;Node9 -->
<g id="edge8" class="edge"><title>Node6&#45;&gt;Node9</title>
<path fill="none" stroke="midnightblue" d="M1135.18,-204.834C1075.04,-191.69 987.474,-172.554 937.282,-161.585"/>
<polygon fill="midnightblue" stroke="midnightblue" points="1134.44,-208.256 1144.96,-206.971 1135.94,-201.417 1134.44,-208.256"/>
</g>
<!-- Node10 -->
<g id="node10" class="node"><title>Node10</title>
<g id="a_node10"><a xlink:href="thrift-server-test_8cc.html" target="_top" xlink:title="be/src/rpc/thrift&#45;server\l&#45;test.cc">
<polygon fill="white" stroke="black" points="1017.5,-137 1017.5,-167 1130.5,-167 1130.5,-137 1017.5,-137"/>
<text text-anchor="start" x="1025.5" y="-155" font-family="Helvetica,sans-Serif" font-size="10.00">be/src/rpc/thrift&#45;server</text>
<text text-anchor="middle" x="1074" y="-144" font-family="Helvetica,sans-Serif" font-size="10.00">&#45;test.cc</text>
</a>
</g>
</g>
<!-- Node6&#45;&gt;Node10 -->
<g id="edge9" class="edge"><title>Node6&#45;&gt;Node10</title>
<path fill="none" stroke="midnightblue" d="M1164.1,-200.197C1144.03,-189.68 1119.41,-176.787 1100.99,-167.135"/>
<polygon fill="midnightblue" stroke="midnightblue" points="1162.49,-203.302 1172.97,-204.841 1165.74,-197.101 1162.49,-203.302"/>
</g>
<!-- Node11 -->
<g id="node11" class="node"><title>Node11</title>
<g id="a_node11"><a xlink:href="child-query_8h.html" target="_top" xlink:title="be/src/service/child\l&#45;query.h">
<polygon fill="white" stroke="black" points="1269.5,-137 1269.5,-167 1370.5,-167 1370.5,-137 1269.5,-137"/>
<text text-anchor="start" x="1277.5" y="-155" font-family="Helvetica,sans-Serif" font-size="10.00">be/src/service/child</text>
<text text-anchor="middle" x="1320" y="-144" font-family="Helvetica,sans-Serif" font-size="10.00">&#45;query.h</text>
</a>
</g>
</g>
<!-- Node6&#45;&gt;Node11 -->
<g id="edge10" class="edge"><title>Node6&#45;&gt;Node11</title>
<path fill="none" stroke="midnightblue" d="M1234.71,-199.912C1253.73,-189.448 1276.91,-176.7 1294.3,-167.135"/>
<polygon fill="midnightblue" stroke="midnightblue" points="1232.82,-196.955 1225.74,-204.841 1236.19,-203.089 1232.82,-196.955"/>
</g>
<!-- Node13 -->
<g id="node13" class="node"><title>Node13</title>
<g id="a_node13"><a xlink:href="query-exec-state_8h.html" target="_top" xlink:title="be/src/service/query\l&#45;exec&#45;state.h">
<polygon fill="white" stroke="black" points="1341.5,-69 1341.5,-99 1446.5,-99 1446.5,-69 1341.5,-69"/>
<text text-anchor="start" x="1349.5" y="-87" font-family="Helvetica,sans-Serif" font-size="10.00">be/src/service/query</text>
<text text-anchor="middle" x="1394" y="-76" font-family="Helvetica,sans-Serif" font-size="10.00">&#45;exec&#45;state.h</text>
</a>
</g>
</g>
<!-- Node6&#45;&gt;Node13 -->
<g id="edge32" class="edge"><title>Node6&#45;&gt;Node13</title>
<path fill="none" stroke="midnightblue" d="M1265.18,-212.2C1320.87,-204.886 1394.79,-191.081 1413,-168 1428.84,-147.921 1414.59,-117.076 1403.69,-99.185"/>
<polygon fill="midnightblue" stroke="midnightblue" points="1264.49,-208.759 1255.02,-213.491 1265.38,-215.703 1264.49,-208.759"/>
</g>
<!-- Node6&#45;&gt;Node14 -->
<g id="edge20" class="edge"><title>Node6&#45;&gt;Node14</title>
<path fill="none" stroke="midnightblue" d="M1265.4,-216.933C1319.7,-212.748 1397.42,-200.88 1457,-168 1519.59,-133.46 1570.9,-62.0201 1590.94,-31.4218"/>
<polygon fill="midnightblue" stroke="midnightblue" points="1264.93,-213.457 1255.2,-217.65 1265.42,-220.44 1264.93,-213.457"/>
</g>
<!-- Node15 -->
<g id="node15" class="node"><title>Node15</title>
<g id="a_node15"><a xlink:href="impala-hs2-server_8cc.html" target="_top" xlink:title="be/src/service/impala\l&#45;hs2&#45;server.cc">
<polygon fill="white" stroke="black" points="990,-1 990,-31 1100,-31 1100,-1 990,-1"/>
<text text-anchor="start" x="998" y="-19" font-family="Helvetica,sans-Serif" font-size="10.00">be/src/service/impala</text>
<text text-anchor="middle" x="1045" y="-8" font-family="Helvetica,sans-Serif" font-size="10.00">&#45;hs2&#45;server.cc</text>
</a>
</g>
</g>
<!-- Node6&#45;&gt;Node15 -->
<g id="edge21" class="edge"><title>Node6&#45;&gt;Node15</title>
<path fill="none" stroke="midnightblue" d="M1134.62,-216.385C908.146,-207.252 170.424,-176.848 162,-168 44.1703,-44.2389 779.267,-21.6864 989.811,-17.781"/>
<polygon fill="midnightblue" stroke="midnightblue" points="1134.57,-219.886 1144.7,-216.791 1134.85,-212.891 1134.57,-219.886"/>
</g>
<!-- Node16 -->
<g id="node16" class="node"><title>Node16</title>
<g id="a_node16"><a xlink:href="impala-server-callbacks_8cc.html" target="_top" xlink:title="be/src/service/impala\l&#45;server&#45;callbacks.cc">
<polygon fill="white" stroke="black" points="1293,-1 1293,-31 1403,-31 1403,-1 1293,-1"/>
<text text-anchor="start" x="1301" y="-19" font-family="Helvetica,sans-Serif" font-size="10.00">be/src/service/impala</text>
<text text-anchor="middle" x="1348" y="-8" font-family="Helvetica,sans-Serif" font-size="10.00">&#45;server&#45;callbacks.cc</text>
</a>
</g>
</g>
<!-- Node6&#45;&gt;Node16 -->
<g id="edge25" class="edge"><title>Node6&#45;&gt;Node16</title>
<path fill="none" stroke="midnightblue" d="M1265.1,-208.854C1310.37,-200.315 1365.02,-186.522 1379,-168 1387.57,-156.649 1385.3,-148.753 1379,-136 1367.35,-112.406 1343.65,-123.594 1332,-100 1320.96,-77.63 1331.64,-48.3689 1340.06,-31.2336"/>
<polygon fill="midnightblue" stroke="midnightblue" points="1264.22,-205.458 1255.01,-210.701 1265.48,-212.343 1264.22,-205.458"/>
</g>
<!-- Node6&#45;&gt;Node17 -->
<g id="edge26" class="edge"><title>Node6&#45;&gt;Node17</title>
<path fill="none" stroke="midnightblue" d="M1265.4,-216.202C1394.48,-210.137 1672.53,-194.18 1707,-168 1744.99,-139.145 1727.52,-111.981 1746,-68 1751.27,-55.4635 1757.65,-41.3861 1762.36,-31.2025"/>
<polygon fill="midnightblue" stroke="midnightblue" points="1265.08,-212.713 1255.25,-216.673 1265.4,-219.705 1265.08,-212.713"/>
</g>
<!-- Node18 -->
<g id="node18" class="node"><title>Node18</title>
<g id="a_node18"><a xlink:href="query-exec-state_8cc.html" target="_top" xlink:title="be/src/service/query\l&#45;exec&#45;state.cc">
<polygon fill="white" stroke="black" points="1421.5,-1 1421.5,-31 1526.5,-31 1526.5,-1 1421.5,-1"/>
<text text-anchor="start" x="1429.5" y="-19" font-family="Helvetica,sans-Serif" font-size="10.00">be/src/service/query</text>
<text text-anchor="middle" x="1474" y="-8" font-family="Helvetica,sans-Serif" font-size="10.00">&#45;exec&#45;state.cc</text>
</a>
</g>
</g>
<!-- Node6&#45;&gt;Node18 -->
<g id="edge31" class="edge"><title>Node6&#45;&gt;Node18</title>
<path fill="none" stroke="midnightblue" d="M1265.11,-211.733C1324.54,-203.864 1406.72,-189.483 1431,-168 1471.42,-132.235 1475.04,-61.4649 1474.6,-31.2331"/>
<polygon fill="midnightblue" stroke="midnightblue" points="1264.5,-208.282 1255.03,-213.034 1265.4,-215.224 1264.5,-208.282"/>
</g>
<!-- Node19 -->
<g id="node19" class="node"><title>Node19</title>
<g id="a_node19"><a xlink:href="fe-support_8cc.html" target="_top" xlink:title="be/src/service/fe&#45;support.cc">
<polygon fill="white" stroke="black" points="171,-142.5 171,-161.5 309,-161.5 309,-142.5 171,-142.5"/>
<text text-anchor="middle" x="240" y="-149.5" font-family="Helvetica,sans-Serif" font-size="10.00">be/src/service/fe&#45;support.cc</text>
</a>
</g>
</g>
<!-- Node6&#45;&gt;Node19 -->
<g id="edge19" class="edge"><title>Node6&#45;&gt;Node19</title>
<path fill="none" stroke="midnightblue" d="M1134.64,-218.172C987.987,-215.669 621.779,-205.824 318,-168 305.274,-166.415 291.5,-164.003 279.119,-161.572"/>
<polygon fill="midnightblue" stroke="midnightblue" points="1134.76,-221.674 1144.81,-218.34 1134.87,-214.675 1134.76,-221.674"/>
</g>
<!-- Node20 -->
<g id="node20" class="node"><title>Node20</title>
<g id="a_node20"><a xlink:href="impala-internal-service-proxy_8h.html" target="_top" xlink:title="be/src/service/impala\l&#45;internal&#45;service&#45;proxy.h">
<polygon fill="white" stroke="black" points="327.5,-137 327.5,-167 448.5,-167 448.5,-137 327.5,-137"/>
<text text-anchor="start" x="335.5" y="-155" font-family="Helvetica,sans-Serif" font-size="10.00">be/src/service/impala</text>
<text text-anchor="middle" x="388" y="-144" font-family="Helvetica,sans-Serif" font-size="10.00">&#45;internal&#45;service&#45;proxy.h</text>
</a>
</g>
</g>
<!-- Node6&#45;&gt;Node20 -->
<g id="edge22" class="edge"><title>Node6&#45;&gt;Node20</title>
<path fill="none" stroke="midnightblue" d="M1134.55,-217.703C1004.72,-214.426 705.642,-203.368 457,-168 454.33,-167.62 451.609,-167.195 448.866,-166.735"/>
<polygon fill="midnightblue" stroke="midnightblue" points="1134.64,-221.206 1144.72,-217.952 1134.81,-214.208 1134.64,-221.206"/>
</g>
<!-- Node21 -->
<g id="node21" class="node"><title>Node21</title>
<g id="a_node21"><a xlink:href="impala-internal-service_8h.html" target="_top" xlink:title="be/src/service/impala\l&#45;internal&#45;service.h">
<polygon fill="white" stroke="black" points="1755,-69 1755,-99 1865,-99 1865,-69 1755,-69"/>
<text text-anchor="start" x="1763" y="-87" font-family="Helvetica,sans-Serif" font-size="10.00">be/src/service/impala</text>
<text text-anchor="middle" x="1810" y="-76" font-family="Helvetica,sans-Serif" font-size="10.00">&#45;internal&#45;service.h</text>
</a>
</g>
</g>
<!-- Node6&#45;&gt;Node21 -->
<g id="edge23" class="edge"><title>Node6&#45;&gt;Node21</title>
<path fill="none" stroke="midnightblue" d="M1265.5,-218.991C1390.99,-217.981 1660.05,-210.723 1741,-168 1770.5,-152.431 1792.33,-118.386 1802.9,-99.0845"/>
<polygon fill="midnightblue" stroke="midnightblue" points="1265.24,-215.493 1255.26,-219.062 1265.29,-222.493 1265.24,-215.493"/>
</g>
<!-- Node22 -->
<g id="node22" class="node"><title>Node22</title>
<g id="a_node22"><a xlink:href="impala-server_8inline_8h.html" target="_top" xlink:title="be/src/service/impala\l&#45;server.inline.h">
<polygon fill="white" stroke="black" points="990,-69 990,-99 1100,-99 1100,-69 990,-69"/>
<text text-anchor="start" x="998" y="-87" font-family="Helvetica,sans-Serif" font-size="10.00">be/src/service/impala</text>
<text text-anchor="middle" x="1045" y="-76" font-family="Helvetica,sans-Serif" font-size="10.00">&#45;server.inline.h</text>
</a>
</g>
</g>
<!-- Node6&#45;&gt;Node22 -->
<g id="edge27" class="edge"><title>Node6&#45;&gt;Node22</title>
<path fill="none" stroke="midnightblue" d="M1134.91,-210.277C1085.54,-202.169 1023.59,-188.27 1008,-168 991.554,-146.615 1013.59,-116.766 1030.03,-99.3017"/>
<polygon fill="midnightblue" stroke="midnightblue" points="1134.49,-213.754 1144.91,-211.87 1135.59,-206.841 1134.49,-213.754"/>
</g>
<!-- Node6&#45;&gt;Node23 -->
<g id="edge30" class="edge"><title>Node6&#45;&gt;Node23</title>
<path fill="none" stroke="midnightblue" d="M1134.89,-217.248C933.94,-211.629 325.253,-192.957 129,-168 124.313,-167.404 119.478,-166.667 114.633,-165.842"/>
<polygon fill="midnightblue" stroke="midnightblue" points="1134.9,-220.75 1145,-217.53 1135.1,-213.753 1134.9,-220.75"/>
</g>
<!-- Node24 -->
<g id="node24" class="node"><title>Node24</title>
<g id="a_node24"><a xlink:href="session-expiry-test_8cc.html" target="_top" xlink:title="be/src/service/session\l&#45;expiry&#45;test.cc">
<polygon fill="white" stroke="black" points="466.5,-137 466.5,-167 581.5,-167 581.5,-137 466.5,-137"/>
<text text-anchor="start" x="474.5" y="-155" font-family="Helvetica,sans-Serif" font-size="10.00">be/src/service/session</text>
<text text-anchor="middle" x="524" y="-144" font-family="Helvetica,sans-Serif" font-size="10.00">&#45;expiry&#45;test.cc</text>
</a>
</g>
</g>
<!-- Node6&#45;&gt;Node24 -->
<g id="edge33" class="edge"><title>Node6&#45;&gt;Node24</title>
<path fill="none" stroke="midnightblue" d="M1134.47,-216.533C1022.36,-211.643 786.814,-198.439 590,-168 587.213,-167.569 584.368,-167.087 581.502,-166.567"/>
<polygon fill="midnightblue" stroke="midnightblue" points="1134.46,-220.036 1144.6,-216.967 1134.76,-213.043 1134.46,-220.036"/>
</g>
<!-- Node6&#45;&gt;Node25 -->
<g id="edge34" class="edge"><title>Node6&#45;&gt;Node25</title>
<path fill="none" stroke="midnightblue" d="M1265.36,-215.582C1372.9,-209.435 1593.7,-194.61 1779,-168 1783.47,-167.358 1788.07,-166.622 1792.7,-165.829"/>
<polygon fill="midnightblue" stroke="midnightblue" points="1265.1,-212.091 1255.32,-216.15 1265.5,-219.08 1265.1,-212.091"/>
</g>
<!-- Node26 -->
<g id="node26" class="node"><title>Node26</title>
<g id="a_node26"><a xlink:href="in-process-servers_8cc.html" target="_top" xlink:title="be/src/testutil/in\l&#45;process&#45;servers.cc">
<polygon fill="white" stroke="black" points="599.5,-137 599.5,-167 702.5,-167 702.5,-137 599.5,-137"/>
<text text-anchor="start" x="607.5" y="-155" font-family="Helvetica,sans-Serif" font-size="10.00">be/src/testutil/in</text>
<text text-anchor="middle" x="651" y="-144" font-family="Helvetica,sans-Serif" font-size="10.00">&#45;process&#45;servers.cc</text>
</a>
</g>
</g>
<!-- Node6&#45;&gt;Node26 -->
<g id="edge35" class="edge"><title>Node6&#45;&gt;Node26</title>
<path fill="none" stroke="midnightblue" d="M1134.41,-215.11C1040.19,-208.854 861.298,-194.489 711,-168 708.251,-167.515 705.441,-166.975 702.611,-166.394"/>
<polygon fill="midnightblue" stroke="midnightblue" points="1134.44,-218.619 1144.65,-215.779 1134.9,-211.634 1134.44,-218.619"/>
</g>
<!-- Node27 -->
<g id="node27" class="node"><title>Node27</title>
<g id="a_node27"><a xlink:href="mini-impala-cluster_8cc.html" target="_top" xlink:title="be/src/testutil/mini\l&#45;impala&#45;cluster.cc">
<polygon fill="white" stroke="black" points="720.5,-137 720.5,-167 817.5,-167 817.5,-137 720.5,-137"/>
<text text-anchor="start" x="728.5" y="-155" font-family="Helvetica,sans-Serif" font-size="10.00">be/src/testutil/mini</text>
<text text-anchor="middle" x="769" y="-144" font-family="Helvetica,sans-Serif" font-size="10.00">&#45;impala&#45;cluster.cc</text>
</a>
</g>
</g>
<!-- Node6&#45;&gt;Node27 -->
<g id="edge36" class="edge"><title>Node6&#45;&gt;Node27</title>
<path fill="none" stroke="midnightblue" d="M1134.6,-212.524C1059.64,-204.536 933.269,-189.346 826,-168 823.29,-167.461 820.518,-166.868 817.727,-166.24"/>
<polygon fill="midnightblue" stroke="midnightblue" points="1134.52,-216.034 1144.83,-213.603 1135.26,-209.073 1134.52,-216.034"/>
</g>
<!-- Node12 -->
<g id="node12" class="node"><title>Node12</title>
<g id="a_node12"><a xlink:href="child-query_8cc.html" target="_top" xlink:title="be/src/service/child\l&#45;query.cc">
<polygon fill="white" stroke="black" points="1173.5,-1 1173.5,-31 1274.5,-31 1274.5,-1 1173.5,-1"/>
<text text-anchor="start" x="1181.5" y="-19" font-family="Helvetica,sans-Serif" font-size="10.00">be/src/service/child</text>
<text text-anchor="middle" x="1224" y="-8" font-family="Helvetica,sans-Serif" font-size="10.00">&#45;query.cc</text>
</a>
</g>
</g>
<!-- Node11&#45;&gt;Node12 -->
<g id="edge11" class="edge"><title>Node11&#45;&gt;Node12</title>
<path fill="none" stroke="midnightblue" d="M1303.77,-128.351C1283.9,-100.607 1250.82,-54.442 1234.2,-31.2372"/>
<polygon fill="midnightblue" stroke="midnightblue" points="1301.06,-130.569 1309.73,-136.66 1306.75,-126.492 1301.06,-130.569"/>
</g>
<!-- Node11&#45;&gt;Node13 -->
<g id="edge12" class="edge"><title>Node11&#45;&gt;Node13</title>
<path fill="none" stroke="midnightblue" d="M1343.52,-130.018C1354.85,-119.915 1368.13,-108.07 1378.23,-99.0663"/>
<polygon fill="midnightblue" stroke="midnightblue" points="1341.19,-127.411 1336.06,-136.679 1345.85,-132.635 1341.19,-127.411"/>
</g>
<!-- Node13&#45;&gt;Node12 -->
<g id="edge13" class="edge"><title>Node13&#45;&gt;Node12</title>
<path fill="none" stroke="midnightblue" d="M1348.08,-65.1715C1320.45,-54.4451 1285.78,-40.9852 1260.12,-31.0218"/>
<polygon fill="midnightblue" stroke="midnightblue" points="1346.94,-68.4849 1357.53,-68.8413 1349.48,-61.9594 1346.94,-68.4849"/>
</g>
<!-- Node13&#45;&gt;Node14 -->
<g id="edge14" class="edge"><title>Node13&#45;&gt;Node14</title>
<path fill="none" stroke="midnightblue" d="M1447.65,-65.8127C1481.4,-54.9979 1524.42,-41.2157 1556.13,-31.0561"/>
<polygon fill="midnightblue" stroke="midnightblue" points="1446.39,-62.538 1437.94,-68.9223 1448.53,-69.2042 1446.39,-62.538"/>
</g>
<!-- Node13&#45;&gt;Node15 -->
<g id="edge15" class="edge"><title>Node13&#45;&gt;Node15</title>
<path fill="none" stroke="midnightblue" d="M1331.54,-71.1872C1265.69,-58.7358 1162.98,-39.312 1100.07,-27.4153"/>
<polygon fill="midnightblue" stroke="midnightblue" points="1330.9,-74.6285 1341.37,-73.0477 1332.2,-67.7504 1330.9,-74.6285"/>
</g>
<!-- Node13&#45;&gt;Node16 -->
<g id="edge16" class="edge"><title>Node13&#45;&gt;Node16</title>
<path fill="none" stroke="midnightblue" d="M1378.19,-60.3137C1371.48,-50.6892 1363.87,-39.7635 1357.96,-31.2931"/>
<polygon fill="midnightblue" stroke="midnightblue" points="1375.43,-62.4763 1384.02,-68.679 1381.17,-58.4737 1375.43,-62.4763"/>
</g>
<!-- Node13&#45;&gt;Node17 -->
<g id="edge17" class="edge"><title>Node13&#45;&gt;Node17</title>
<path fill="none" stroke="midnightblue" d="M1456.8,-71.9464C1528.67,-59.2982 1645.24,-38.7818 1713.77,-26.7205"/>
<polygon fill="midnightblue" stroke="midnightblue" points="1455.78,-68.573 1446.54,-73.7535 1456.99,-75.4671 1455.78,-68.573"/>
</g>
<!-- Node13&#45;&gt;Node18 -->
<g id="edge18" class="edge"><title>Node13&#45;&gt;Node18</title>
<path fill="none" stroke="midnightblue" d="M1419.08,-62.3094C1431.4,-52.1426 1445.93,-40.1562 1456.95,-31.0663"/>
<polygon fill="midnightblue" stroke="midnightblue" points="1416.85,-59.6153 1411.36,-68.679 1421.3,-65.0149 1416.85,-59.6153"/>
</g>
<!-- Node21&#45;&gt;Node17 -->
<g id="edge24" class="edge"><title>Node21&#45;&gt;Node17</title>
<path fill="none" stroke="midnightblue" d="M1795.72,-60.0187C1789.79,-50.4665 1783.09,-39.677 1777.88,-31.2931"/>
<polygon fill="midnightblue" stroke="midnightblue" points="1792.85,-62.0315 1801.1,-68.679 1798.8,-58.3376 1792.85,-62.0315"/>
</g>
<!-- Node22&#45;&gt;Node12 -->
<g id="edge28" class="edge"><title>Node22&#45;&gt;Node12</title>
<path fill="none" stroke="midnightblue" d="M1092.97,-65.3119C1122.13,-54.5627 1158.83,-41.0287 1185.97,-31.0218"/>
<polygon fill="midnightblue" stroke="midnightblue" points="1091.57,-62.0979 1083.4,-68.8413 1093.99,-68.6657 1091.57,-62.0979"/>
</g>
<!-- Node22&#45;&gt;Node15 -->
<g id="edge29" class="edge"><title>Node22&#45;&gt;Node15</title>
<path fill="none" stroke="midnightblue" d="M1045,-58.5322C1045,-49.3606 1045,-39.2449 1045,-31.2931"/>
<polygon fill="midnightblue" stroke="midnightblue" points="1041.5,-58.6789 1045,-68.679 1048.5,-58.679 1041.5,-58.6789"/>
</g>
</g>
</svg>
