<?xml version="1.0" encoding="UTF-8" standalone="no"?>
<!DOCTYPE svg PUBLIC "-//W3C//DTD SVG 1.1//EN"
 "http://www.w3.org/Graphics/SVG/1.1/DTD/svg11.dtd">
<!-- Generated by graphviz version 2.36.0 (20140111.2315)
 -->
<!-- Title: be/src/exprs/agg&#45;fn&#45;evaluator.cc Pages: 1 -->
<svg width="3464pt" height="444pt"
 viewBox="0.00 0.00 3464.36 444.00" xmlns="http://www.w3.org/2000/svg" xmlns:xlink="http://www.w3.org/1999/xlink">
<g id="graph0" class="graph" transform="scale(1 1) rotate(0) translate(4 440)">
<title>be/src/exprs/agg&#45;fn&#45;evaluator.cc</title>
<polygon fill="white" stroke="none" points="-4,4 -4,-440 3460.36,-440 3460.36,4 -4,4"/>
<!-- Node1 -->
<g id="node1" class="node"><title>Node1</title>
<polygon fill="#bfbfbf" stroke="black" points="1775.69,-405 1775.69,-435 1876.69,-435 1876.69,-405 1775.69,-405"/>
<text text-anchor="start" x="1783.69" y="-423" font-family="Helvetica,sans-Serif" font-size="10.00">be/src/exprs/agg&#45;fn</text>
<text text-anchor="middle" x="1826.19" y="-412" font-family="Helvetica,sans-Serif" font-size="10.00">&#45;evaluator.cc</text>
</g>
<!-- Node2 -->
<g id="node2" class="node"><title>Node2</title>
<g id="a_node2"><a xlink:href="agg-fn-evaluator_8h.html" target="_top" xlink:title="exprs/agg&#45;fn&#45;evaluator.h">
<polygon fill="white" stroke="black" points="1044.19,-292.5 1044.19,-311.5 1166.19,-311.5 1166.19,-292.5 1044.19,-292.5"/>
<text text-anchor="middle" x="1105.19" y="-299.5" font-family="Helvetica,sans-Serif" font-size="10.00">exprs/agg&#45;fn&#45;evaluator.h</text>
</a>
</g>
</g>
<!-- Node1&#45;&gt;Node2 -->
<g id="edge1" class="edge"><title>Node1&#45;&gt;Node2</title>
<path fill="none" stroke="midnightblue" d="M1775.49,-410.843C1647.12,-390.19 1309.47,-335.866 1168.47,-313.181"/>
<polygon fill="midnightblue" stroke="midnightblue" points="1168.69,-309.671 1158.26,-311.538 1167.58,-316.582 1168.69,-309.671"/>
</g>
<!-- Node7 -->
<g id="node7" class="node"><title>Node7</title>
<g id="a_node7"><a xlink:href="logging_8h.html" target="_top" xlink:title="common/logging.h">
<polygon fill="white" stroke="black" points="1335.19,-56.5 1335.19,-75.5 1431.19,-75.5 1431.19,-56.5 1335.19,-56.5"/>
<text text-anchor="middle" x="1383.19" y="-63.5" font-family="Helvetica,sans-Serif" font-size="10.00">common/logging.h</text>
</a>
</g>
</g>
<!-- Node1&#45;&gt;Node7 -->
<g id="edge87" class="edge"><title>Node1&#45;&gt;Node7</title>
<path fill="none" stroke="midnightblue" d="M1775.4,-418.197C1578.33,-414.42 875.192,-394.532 875.192,-303 875.192,-303 875.192,-303 875.192,-177 875.192,-146.048 875.519,-130.689 900.192,-112 933.378,-86.8625 1203.46,-73.7101 1324.68,-69.0255"/>
<polygon fill="midnightblue" stroke="midnightblue" points="1325.03,-72.5148 1334.89,-68.6374 1324.77,-65.5199 1325.03,-72.5148"/>
</g>
<!-- Node13 -->
<g id="node13" class="node"><title>Node13</title>
<g id="a_node13"><a xlink:href="lib-cache_8h.html" target="_top" xlink:title="runtime/lib&#45;cache.h">
<polygon fill="white" stroke="red" points="1955.69,-168.5 1955.69,-187.5 2054.69,-187.5 2054.69,-168.5 1955.69,-168.5"/>
<text text-anchor="middle" x="2005.19" y="-175.5" font-family="Helvetica,sans-Serif" font-size="10.00">runtime/lib&#45;cache.h</text>
</a>
</g>
</g>
<!-- Node1&#45;&gt;Node13 -->
<g id="edge121" class="edge"><title>Node1&#45;&gt;Node13</title>
<path fill="none" stroke="midnightblue" d="M1876.7,-417.844C1981.64,-414.74 2219.45,-403.851 2291.19,-368 2352.23,-337.498 2371.1,-319.451 2396.19,-256 2401.42,-242.774 2405.66,-234.616 2396.19,-224 2374.55,-199.721 2168.79,-186.664 2064.78,-181.567"/>
<polygon fill="midnightblue" stroke="midnightblue" points="2064.89,-178.069 2054.74,-181.084 2064.56,-185.06 2064.89,-178.069"/>
</g>
<!-- Node21 -->
<g id="node21" class="node"><title>Node21</title>
<g id="a_node21"><a xlink:href="udf-internal_8h.html" target="_top" xlink:title="udf/udf&#45;internal.h">
<polygon fill="white" stroke="red" points="2187.69,-230.5 2187.69,-249.5 2276.69,-249.5 2276.69,-230.5 2187.69,-230.5"/>
<text text-anchor="middle" x="2232.19" y="-237.5" font-family="Helvetica,sans-Serif" font-size="10.00">udf/udf&#45;internal.h</text>
</a>
</g>
</g>
<!-- Node1&#45;&gt;Node21 -->
<g id="edge131" class="edge"><title>Node1&#45;&gt;Node21</title>
<path fill="none" stroke="midnightblue" d="M1876.99,-405.484C1909.33,-396.277 1951.82,-383.055 1988.19,-368 2072.29,-333.191 2166.4,-279.822 2209.01,-254.82"/>
<polygon fill="midnightblue" stroke="midnightblue" points="2210.93,-257.75 2217.77,-249.655 2207.38,-251.721 2210.93,-257.75"/>
</g>
<!-- Node25 -->
<g id="node25" class="node"><title>Node25</title>
<polygon fill="white" stroke="#bfbfbf" points="321.192,-168.5 321.192,-187.5 373.192,-187.5 373.192,-168.5 321.192,-168.5"/>
<text text-anchor="middle" x="347.192" y="-175.5" font-family="Helvetica,sans-Serif" font-size="10.00">sstream</text>
</g>
<!-- Node1&#45;&gt;Node25 -->
<g id="edge47" class="edge"><title>Node1&#45;&gt;Node25</title>
<path fill="none" stroke="midnightblue" d="M1775.41,-417.937C1580.04,-413.67 876.81,-396.62 655.192,-368 422.02,-337.888 285.793,-439.001 138.192,-256 129.263,-244.93 129.218,-235.034 138.192,-224 185.811,-165.452 230.969,-202.368 310.946,-187.755"/>
<polygon fill="midnightblue" stroke="midnightblue" points="311.788,-191.155 320.875,-185.708 310.374,-184.3 311.788,-191.155"/>
</g>
<!-- Node26 -->
<g id="node26" class="node"><title>Node26</title>
<g id="a_node26"><a xlink:href="llvm-codegen_8h.html" target="_top" xlink:title="codegen/llvm&#45;codegen.h">
<polygon fill="white" stroke="black" points="2408.19,-348.5 2408.19,-367.5 2530.19,-367.5 2530.19,-348.5 2408.19,-348.5"/>
<text text-anchor="middle" x="2469.19" y="-355.5" font-family="Helvetica,sans-Serif" font-size="10.00">codegen/llvm&#45;codegen.h</text>
</a>
</g>
</g>
<!-- Node1&#45;&gt;Node26 -->
<g id="edge48" class="edge"><title>Node1&#45;&gt;Node26</title>
<path fill="none" stroke="midnightblue" d="M1876.92,-414.267C1990.67,-403.652 2266.45,-377.918 2397.6,-365.68"/>
<polygon fill="midnightblue" stroke="midnightblue" points="2398.3,-369.13 2407.93,-364.716 2397.65,-362.161 2398.3,-369.13"/>
</g>
<!-- Node39 -->
<g id="node39" class="node"><title>Node39</title>
<g id="a_node39"><a xlink:href="aggregation-node_8h.html" target="_top" xlink:title="exec/aggregation&#45;node.h">
<polygon fill="white" stroke="black" points="685.692,-292.5 685.692,-311.5 808.692,-311.5 808.692,-292.5 685.692,-292.5"/>
<text text-anchor="middle" x="747.192" y="-299.5" font-family="Helvetica,sans-Serif" font-size="10.00">exec/aggregation&#45;node.h</text>
</a>
</g>
</g>
<!-- Node1&#45;&gt;Node39 -->
<g id="edge88" class="edge"><title>Node1&#45;&gt;Node39</title>
<path fill="none" stroke="midnightblue" d="M1775.61,-419.391C1602.52,-420.254 1035.05,-419.03 861.192,-368 825.04,-357.389 788.022,-333.362 766.344,-317.681"/>
<polygon fill="midnightblue" stroke="midnightblue" points="768.16,-314.67 758.04,-311.534 763.996,-320.297 768.16,-314.67"/>
</g>
<!-- Node43 -->
<g id="node43" class="node"><title>Node43</title>
<g id="a_node43"><a xlink:href="aggregate-functions_8h.html" target="_top" xlink:title="exprs/aggregate&#45;functions.h">
<polygon fill="white" stroke="black" points="2145.69,-348.5 2145.69,-367.5 2282.69,-367.5 2282.69,-348.5 2145.69,-348.5"/>
<text text-anchor="middle" x="2214.19" y="-355.5" font-family="Helvetica,sans-Serif" font-size="10.00">exprs/aggregate&#45;functions.h</text>
</a>
</g>
</g>
<!-- Node1&#45;&gt;Node43 -->
<g id="edge107" class="edge"><title>Node1&#45;&gt;Node43</title>
<path fill="none" stroke="midnightblue" d="M1876.92,-411.156C1946.7,-400.364 2072.38,-380.929 2149.05,-369.073"/>
<polygon fill="midnightblue" stroke="midnightblue" points="2149.72,-372.511 2159.07,-367.524 2148.65,-365.593 2149.72,-372.511"/>
</g>
<!-- Node44 -->
<g id="node44" class="node"><title>Node44</title>
<g id="a_node44"><a xlink:href="expr-context_8h.html" target="_top" xlink:title="exprs/expr&#45;context.h">
<polygon fill="white" stroke="black" points="1652.19,-348.5 1652.19,-367.5 1758.19,-367.5 1758.19,-348.5 1652.19,-348.5"/>
<text text-anchor="middle" x="1705.19" y="-355.5" font-family="Helvetica,sans-Serif" font-size="10.00">exprs/expr&#45;context.h</text>
</a>
</g>
</g>
<!-- Node1&#45;&gt;Node44 -->
<g id="edge109" class="edge"><title>Node1&#45;&gt;Node44</title>
<path fill="none" stroke="midnightblue" d="M1797.82,-404.933C1777.77,-394.991 1751.09,-381.76 1731.51,-372.053"/>
<polygon fill="midnightblue" stroke="midnightblue" points="1733.05,-368.907 1722.53,-367.6 1729.94,-375.178 1733.05,-368.907"/>
</g>
<!-- Node46 -->
<g id="node46" class="node"><title>Node46</title>
<g id="a_node46"><a xlink:href="anyval-util_8h.html" target="_top" xlink:title="exprs/anyval&#45;util.h">
<polygon fill="white" stroke="black" points="1976.19,-292.5 1976.19,-311.5 2072.19,-311.5 2072.19,-292.5 1976.19,-292.5"/>
<text text-anchor="middle" x="2024.19" y="-299.5" font-family="Helvetica,sans-Serif" font-size="10.00">exprs/anyval&#45;util.h</text>
</a>
</g>
</g>
<!-- Node1&#45;&gt;Node46 -->
<g id="edge116" class="edge"><title>Node1&#45;&gt;Node46</title>
<path fill="none" stroke="midnightblue" d="M1876.89,-405.953C1903.64,-397.641 1936.21,-385.168 1962.19,-368 1982.02,-354.9 2000.21,-334.366 2011.69,-319.889"/>
<polygon fill="midnightblue" stroke="midnightblue" points="2014.6,-321.84 2017.92,-311.779 2009.05,-317.575 2014.6,-321.84"/>
</g>
<!-- Node47 -->
<g id="node47" class="node"><title>Node47</title>
<g id="a_node47"><a xlink:href="names_8h.html" target="_top" xlink:title="common/names.h">
<polygon fill="white" stroke="red" points="1885.69,-230.5 1885.69,-249.5 1980.69,-249.5 1980.69,-230.5 1885.69,-230.5"/>
<text text-anchor="middle" x="1933.19" y="-237.5" font-family="Helvetica,sans-Serif" font-size="10.00">common/names.h</text>
</a>
</g>
</g>
<!-- Node1&#45;&gt;Node47 -->
<g id="edge138" class="edge"><title>Node1&#45;&gt;Node47</title>
<path fill="none" stroke="midnightblue" d="M1846.6,-404.722C1870.91,-386.4 1910.46,-352.145 1928.19,-312 1935.51,-295.426 1936.09,-274.546 1935.24,-259.73"/>
<polygon fill="midnightblue" stroke="midnightblue" points="1938.73,-259.427 1934.41,-249.754 1931.75,-260.011 1938.73,-259.427"/>
</g>
<!-- Node48 -->
<g id="node48" class="node"><title>Node48</title>
<g id="a_node48"><a xlink:href="runtime-state_8h.html" target="_top" xlink:title="runtime/runtime&#45;state.h">
<polygon fill="white" stroke="red" points="440.692,-230.5 440.692,-249.5 557.692,-249.5 557.692,-230.5 440.692,-230.5"/>
<text text-anchor="middle" x="499.192" y="-237.5" font-family="Helvetica,sans-Serif" font-size="10.00">runtime/runtime&#45;state.h</text>
</a>
</g>
</g>
<!-- Node1&#45;&gt;Node48 -->
<g id="edge122" class="edge"><title>Node1&#45;&gt;Node48</title>
<path fill="none" stroke="midnightblue" d="M1775.4,-418.695C1596.74,-417.273 997.972,-409.451 811.192,-368 699.092,-343.122 575.413,-281.698 523.86,-254.422"/>
<polygon fill="midnightblue" stroke="midnightblue" points="525.283,-251.214 514.813,-249.593 521.987,-257.39 525.283,-251.214"/>
</g>
<!-- Node49 -->
<g id="node49" class="node"><title>Node49</title>
<g id="a_node49"><a xlink:href="debug-util_8h.html" target="_top" xlink:title="util/debug&#45;util.h">
<polygon fill="white" stroke="red" points="339.692,-230.5 339.692,-249.5 422.692,-249.5 422.692,-230.5 339.692,-230.5"/>
<text text-anchor="middle" x="381.192" y="-237.5" font-family="Helvetica,sans-Serif" font-size="10.00">util/debug&#45;util.h</text>
</a>
</g>
</g>
<!-- Node1&#45;&gt;Node49 -->
<g id="edge132" class="edge"><title>Node1&#45;&gt;Node49</title>
<path fill="none" stroke="midnightblue" d="M1775.4,-418.599C1588.69,-416.819 940.66,-407.844 738.192,-368 610.667,-342.904 467.346,-280.901 408.565,-253.906"/>
<polygon fill="midnightblue" stroke="midnightblue" points="409.777,-250.61 399.232,-249.586 406.837,-256.963 409.777,-250.61"/>
</g>
<!-- Node50 -->
<g id="node50" class="node"><title>Node50</title>
<polygon fill="white" stroke="#bfbfbf" points="2548.69,-348.5 2548.69,-367.5 2703.69,-367.5 2703.69,-348.5 2548.69,-348.5"/>
<text text-anchor="middle" x="2626.19" y="-355.5" font-family="Helvetica,sans-Serif" font-size="10.00">thrift/protocol/TDebugProtocol.h</text>
</g>
<!-- Node1&#45;&gt;Node50 -->
<g id="edge137" class="edge"><title>Node1&#45;&gt;Node50</title>
<path fill="none" stroke="midnightblue" d="M1876.81,-415.932C1992.07,-408.827 2283.2,-390.207 2538.21,-368.059"/>
<polygon fill="midnightblue" stroke="midnightblue" points="2538.76,-371.525 2548.42,-367.169 2538.15,-364.551 2538.76,-371.525"/>
</g>
<!-- Node3 -->
<g id="node3" class="node"><title>Node3</title>
<polygon fill="white" stroke="#bfbfbf" points="1770.69,-56.5 1770.69,-75.5 1811.69,-75.5 1811.69,-56.5 1770.69,-56.5"/>
<text text-anchor="middle" x="1791.19" y="-63.5" font-family="Helvetica,sans-Serif" font-size="10.00">string</text>
</g>
<!-- Node2&#45;&gt;Node3 -->
<g id="edge2" class="edge"><title>Node2&#45;&gt;Node3</title>
<path fill="none" stroke="midnightblue" d="M1166.5,-300.609C1283.22,-299.042 1532.66,-291.504 1610.19,-256 1628.77,-247.494 1625.41,-234.052 1643.19,-224 1697.63,-193.237 1732.5,-229.586 1779.19,-188 1805.45,-164.612 1805.03,-146.955 1801.19,-112 1800.22,-103.14 1798.2,-93.4716 1796.23,-85.3755"/>
<polygon fill="midnightblue" stroke="midnightblue" points="1799.57,-84.333 1793.67,-75.5332 1792.8,-86.0919 1799.57,-84.333"/>
</g>
<!-- Node4 -->
<g id="node4" class="node"><title>Node4</title>
<polygon fill="white" stroke="#bfbfbf" points="125.192,-56.5 125.192,-75.5 235.192,-75.5 235.192,-56.5 125.192,-56.5"/>
<text text-anchor="middle" x="180.192" y="-63.5" font-family="Helvetica,sans-Serif" font-size="10.00">boost/scoped_ptr.hpp</text>
</g>
<!-- Node2&#45;&gt;Node4 -->
<g id="edge3" class="edge"><title>Node2&#45;&gt;Node4</title>
<path fill="none" stroke="midnightblue" d="M1043.94,-298.935C854.02,-292.383 285.627,-271.569 249.192,-256 230.109,-247.846 231.263,-237.127 215.192,-224 193.703,-206.449 176.956,-212.634 164.192,-188 146.876,-154.581 161.292,-109.285 171.742,-84.6825"/>
<polygon fill="midnightblue" stroke="midnightblue" points="174.962,-86.0559 175.873,-75.5004 168.578,-83.1835 174.962,-86.0559"/>
</g>
<!-- Node5 -->
<g id="node5" class="node"><title>Node5</title>
<g id="a_node5"><a xlink:href="status_8h.html" target="_top" xlink:title="common/status.h">
<polygon fill="white" stroke="red" points="1456.19,-112.5 1456.19,-131.5 1548.19,-131.5 1548.19,-112.5 1456.19,-112.5"/>
<text text-anchor="middle" x="1502.19" y="-119.5" font-family="Helvetica,sans-Serif" font-size="10.00">common/status.h</text>
</a>
</g>
</g>
<!-- Node2&#45;&gt;Node5 -->
<g id="edge4" class="edge"><title>Node2&#45;&gt;Node5</title>
<path fill="none" stroke="midnightblue" d="M1166.61,-296.086C1213.14,-290.64 1277.78,-279.316 1330.19,-256 1351.96,-246.317 1352.5,-235.798 1373.19,-224 1409.19,-203.479 1427.27,-214.42 1459.19,-188 1474.62,-175.226 1486.59,-155.485 1493.94,-141.109"/>
<polygon fill="midnightblue" stroke="midnightblue" points="1497.25,-142.292 1498.45,-131.766 1490.95,-139.246 1497.25,-142.292"/>
</g>
<!-- Node10 -->
<g id="node10" class="node"><title>Node10</title>
<g id="a_node10"><a xlink:href="descriptors_8h.html" target="_top" xlink:title="runtime/descriptors.h">
<polygon fill="white" stroke="red" points="701.192,-168.5 701.192,-187.5 809.192,-187.5 809.192,-168.5 701.192,-168.5"/>
<text text-anchor="middle" x="755.192" y="-175.5" font-family="Helvetica,sans-Serif" font-size="10.00">runtime/descriptors.h</text>
</a>
</g>
</g>
<!-- Node2&#45;&gt;Node10 -->
<g id="edge10" class="edge"><title>Node2&#45;&gt;Node10</title>
<path fill="none" stroke="midnightblue" d="M1045.81,-292.494C1003.97,-285.433 947.109,-273.657 899.192,-256 853.504,-239.165 804.305,-210.261 776.87,-193.06"/>
<polygon fill="midnightblue" stroke="midnightblue" points="778.434,-189.907 768.115,-187.502 774.682,-195.817 778.434,-189.907"/>
</g>
<!-- Node11 -->
<g id="node11" class="node"><title>Node11</title>
<g id="a_node11"><a xlink:href="types_8h.html" target="_top" xlink:title="runtime/types.h">
<polygon fill="white" stroke="red" points="909.192,-112.5 909.192,-131.5 993.192,-131.5 993.192,-112.5 909.192,-112.5"/>
<text text-anchor="middle" x="951.192" y="-119.5" font-family="Helvetica,sans-Serif" font-size="10.00">runtime/types.h</text>
</a>
</g>
</g>
<!-- Node2&#45;&gt;Node11 -->
<g id="edge37" class="edge"><title>Node2&#45;&gt;Node11</title>
<path fill="none" stroke="midnightblue" d="M1054.62,-292.456C1028.6,-285.988 997.712,-274.862 975.192,-256 948.65,-233.77 945.918,-221.503 937.192,-188 933.105,-172.31 937.717,-154.271 942.712,-141.183"/>
<polygon fill="midnightblue" stroke="midnightblue" points="945.972,-142.461 946.642,-131.888 939.524,-139.736 945.972,-142.461"/>
</g>
<!-- Node12 -->
<g id="node12" class="node"><title>Node12</title>
<polygon fill="white" stroke="#bfbfbf" points="398.692,-56.5 398.692,-75.5 517.692,-75.5 517.692,-56.5 398.692,-56.5"/>
<text text-anchor="middle" x="458.192" y="-63.5" font-family="Helvetica,sans-Serif" font-size="10.00">gen&#45;cpp/Types_types.h</text>
</g>
<!-- Node2&#45;&gt;Node12 -->
<g id="edge46" class="edge"><title>Node2&#45;&gt;Node12</title>
<path fill="none" stroke="midnightblue" d="M1044.11,-298.7C860.213,-291.635 322.229,-269.89 287.192,-256 266.666,-247.863 267.672,-236.082 249.192,-224 218.913,-204.205 195.294,-218.72 176.192,-188 124.922,-105.552 289.558,-79.1706 388.684,-70.8129"/>
<polygon fill="midnightblue" stroke="midnightblue" points="388.965,-74.3016 398.654,-70.014 388.406,-67.324 388.965,-74.3016"/>
</g>
<!-- Node2&#45;&gt;Node13 -->
<g id="edge19" class="edge"><title>Node2&#45;&gt;Node13</title>
<path fill="none" stroke="midnightblue" d="M1166.56,-299.64C1272.3,-296.533 1495.38,-286.624 1681.19,-256 1738.2,-246.605 1751.02,-237.515 1807.19,-224 1858.06,-211.762 1916.5,-198.588 1956.63,-189.678"/>
<polygon fill="midnightblue" stroke="midnightblue" points="1957.42,-193.088 1966.43,-187.507 1955.9,-186.254 1957.42,-193.088"/>
</g>
<!-- Node17 -->
<g id="node17" class="node"><title>Node17</title>
<g id="a_node17"><a xlink:href="tuple-row_8h.html" target="_top" xlink:title="runtime/tuple&#45;row.h">
<polygon fill="white" stroke="red" points="1055.19,-230.5 1055.19,-249.5 1155.19,-249.5 1155.19,-230.5 1055.19,-230.5"/>
<text text-anchor="middle" x="1105.19" y="-237.5" font-family="Helvetica,sans-Serif" font-size="10.00">runtime/tuple&#45;row.h</text>
</a>
</g>
</g>
<!-- Node2&#45;&gt;Node17 -->
<g id="edge26" class="edge"><title>Node2&#45;&gt;Node17</title>
<path fill="none" stroke="midnightblue" d="M1105.19,-292.403C1105.19,-283.938 1105.19,-270.728 1105.19,-259.82"/>
<polygon fill="midnightblue" stroke="midnightblue" points="1108.69,-259.581 1105.19,-249.581 1101.69,-259.581 1108.69,-259.581"/>
</g>
<!-- Node20 -->
<g id="node20" class="node"><title>Node20</title>
<g id="a_node20"><a xlink:href="udf_8h.html" target="_top" xlink:title="udf/udf.h">
<polygon fill="white" stroke="red" points="1843.69,-168.5 1843.69,-187.5 1898.69,-187.5 1898.69,-168.5 1843.69,-168.5"/>
<text text-anchor="middle" x="1871.19" y="-175.5" font-family="Helvetica,sans-Serif" font-size="10.00">udf/udf.h</text>
</a>
</g>
</g>
<!-- Node2&#45;&gt;Node20 -->
<g id="edge38" class="edge"><title>Node2&#45;&gt;Node20</title>
<path fill="none" stroke="midnightblue" d="M1166.64,-299.706C1288.55,-296.511 1556.69,-286.185 1643.19,-256 1667.4,-247.553 1667.74,-234.373 1691.19,-224 1704.19,-218.252 1784.78,-199.049 1833.61,-187.67"/>
<polygon fill="midnightblue" stroke="midnightblue" points="1834.57,-191.042 1843.52,-185.368 1832.98,-184.223 1834.57,-191.042"/>
</g>
<!-- Node2&#45;&gt;Node21 -->
<g id="edge39" class="edge"><title>Node2&#45;&gt;Node21</title>
<path fill="none" stroke="midnightblue" d="M1166.45,-300.273C1363.73,-297.644 1981.13,-287.081 2178.19,-256 2184.1,-255.068 2190.29,-253.718 2196.28,-252.204"/>
<polygon fill="midnightblue" stroke="midnightblue" points="2197.35,-255.54 2206.09,-249.549 2195.52,-248.783 2197.35,-255.54"/>
</g>
<!-- Node23 -->
<g id="node23" class="node"><title>Node23</title>
<polygon fill="white" stroke="#bfbfbf" points="185.692,-168.5 185.692,-187.5 302.692,-187.5 302.692,-168.5 185.692,-168.5"/>
<text text-anchor="middle" x="244.192" y="-175.5" font-family="Helvetica,sans-Serif" font-size="10.00">gen&#45;cpp/Exprs_types.h</text>
</g>
<!-- Node2&#45;&gt;Node23 -->
<g id="edge44" class="edge"><title>Node2&#45;&gt;Node23</title>
<path fill="none" stroke="midnightblue" d="M1044.18,-298.557C867.02,-291.317 362.974,-269.634 330.192,-256 313.938,-249.24 279.492,-215.496 259.477,-194.987"/>
<polygon fill="midnightblue" stroke="midnightblue" points="261.813,-192.368 252.345,-187.613 256.781,-197.235 261.813,-192.368"/>
</g>
<!-- Node24 -->
<g id="node24" class="node"><title>Node24</title>
<polygon fill="white" stroke="#bfbfbf" points="505.192,-168.5 505.192,-187.5 645.192,-187.5 645.192,-168.5 505.192,-168.5"/>
<text text-anchor="middle" x="575.192" y="-175.5" font-family="Helvetica,sans-Serif" font-size="10.00">gen&#45;cpp/PlanNodes_types.h</text>
</g>
<!-- Node2&#45;&gt;Node24 -->
<g id="edge45" class="edge"><title>Node2&#45;&gt;Node24</title>
<path fill="none" stroke="midnightblue" d="M1044.09,-298.275C922.582,-292.426 659.256,-277.434 624.192,-256 602.267,-242.598 588.456,-215.275 581.278,-197.048"/>
<polygon fill="midnightblue" stroke="midnightblue" points="584.524,-195.733 577.807,-187.54 577.949,-198.134 584.524,-195.733"/>
</g>
<!-- Node5&#45;&gt;Node3 -->
<g id="edge5" class="edge"><title>Node5&#45;&gt;Node3</title>
<path fill="none" stroke="midnightblue" d="M1547.98,-112.444C1607.42,-101.338 1709.54,-82.2573 1760.45,-72.7433"/>
<polygon fill="midnightblue" stroke="midnightblue" points="1761.32,-76.1418 1770.51,-70.8646 1760.04,-69.2609 1761.32,-76.1418"/>
</g>
<!-- Node6 -->
<g id="node6" class="node"><title>Node6</title>
<polygon fill="white" stroke="#bfbfbf" points="1013.19,-56.5 1013.19,-75.5 1057.19,-75.5 1057.19,-56.5 1013.19,-56.5"/>
<text text-anchor="middle" x="1035.19" y="-63.5" font-family="Helvetica,sans-Serif" font-size="10.00">vector</text>
</g>
<!-- Node5&#45;&gt;Node6 -->
<g id="edge6" class="edge"><title>Node5&#45;&gt;Node6</title>
<path fill="none" stroke="midnightblue" d="M1456.14,-115.674C1361.88,-104.776 1149.02,-80.1622 1067.65,-70.7537"/>
<polygon fill="midnightblue" stroke="midnightblue" points="1067.85,-67.2529 1057.51,-69.5809 1067.04,-74.2065 1067.85,-67.2529"/>
</g>
<!-- Node5&#45;&gt;Node7 -->
<g id="edge7" class="edge"><title>Node5&#45;&gt;Node7</title>
<path fill="none" stroke="midnightblue" d="M1483.34,-112.444C1463.93,-103.636 1433.46,-89.8116 1411.23,-79.722"/>
<polygon fill="midnightblue" stroke="midnightblue" points="1412.51,-76.4615 1401.96,-75.5164 1409.62,-82.836 1412.51,-76.4615"/>
</g>
<!-- Node8 -->
<g id="node8" class="node"><title>Node8</title>
<polygon fill="white" stroke="#bfbfbf" points="1344.69,-0.5 1344.69,-19.5 1421.69,-19.5 1421.69,-0.5 1344.69,-0.5"/>
<text text-anchor="middle" x="1383.19" y="-7.5" font-family="Helvetica,sans-Serif" font-size="10.00">glog/logging.h</text>
</g>
<!-- Node7&#45;&gt;Node8 -->
<g id="edge8" class="edge"><title>Node7&#45;&gt;Node8</title>
<path fill="none" stroke="midnightblue" d="M1383.19,-56.083C1383.19,-49.0059 1383.19,-38.8611 1383.19,-29.9865"/>
<polygon fill="midnightblue" stroke="midnightblue" points="1386.69,-29.751 1383.19,-19.7511 1379.69,-29.7511 1386.69,-29.751"/>
</g>
<!-- Node9 -->
<g id="node9" class="node"><title>Node9</title>
<polygon fill="white" stroke="#bfbfbf" points="1779.19,-0.5 1779.19,-19.5 1859.19,-19.5 1859.19,-0.5 1779.19,-0.5"/>
<text text-anchor="middle" x="1819.19" y="-7.5" font-family="Helvetica,sans-Serif" font-size="10.00">gflags/gflags.h</text>
</g>
<!-- Node7&#45;&gt;Node9 -->
<g id="edge9" class="edge"><title>Node7&#45;&gt;Node9</title>
<path fill="none" stroke="midnightblue" d="M1431.52,-59.0147C1514.74,-48.7077 1684.29,-27.7083 1768.87,-17.2328"/>
<polygon fill="midnightblue" stroke="midnightblue" points="1769.5,-20.6812 1778.99,-15.9785 1768.64,-13.7343 1769.5,-20.6812"/>
</g>
<!-- Node10&#45;&gt;Node4 -->
<g id="edge12" class="edge"><title>Node10&#45;&gt;Node4</title>
<path fill="none" stroke="midnightblue" d="M710.551,-168.46C606.432,-148.542 347.789,-99.0621 234.643,-77.4167"/>
<polygon fill="midnightblue" stroke="midnightblue" points="235.284,-73.9759 224.804,-75.5345 233.968,-80.8513 235.284,-73.9759"/>
</g>
<!-- Node10&#45;&gt;Node5 -->
<g id="edge13" class="edge"><title>Node10&#45;&gt;Node5</title>
<path fill="none" stroke="midnightblue" d="M809.214,-173.095C946.208,-163.192 1306.17,-137.17 1445.75,-127.08"/>
<polygon fill="midnightblue" stroke="midnightblue" points="1446.08,-130.565 1455.81,-126.353 1445.58,-123.583 1446.08,-130.565"/>
</g>
<!-- Node10&#45;&gt;Node6 -->
<g id="edge11" class="edge"><title>Node10&#45;&gt;Node6</title>
<path fill="none" stroke="midnightblue" d="M761.639,-168.261C772.606,-154.073 796.332,-126.189 823.192,-112 881.617,-81.1358 959.65,-71.4404 1002.89,-68.3949"/>
<polygon fill="midnightblue" stroke="midnightblue" points="1003.34,-71.8736 1013.11,-67.755 1002.91,-64.8873 1003.34,-71.8736"/>
</g>
<!-- Node10&#45;&gt;Node11 -->
<g id="edge14" class="edge"><title>Node10&#45;&gt;Node11</title>
<path fill="none" stroke="midnightblue" d="M786.248,-168.444C819.795,-159.201 873.388,-144.436 910.332,-134.257"/>
<polygon fill="midnightblue" stroke="midnightblue" points="911.569,-137.547 920.28,-131.516 909.71,-130.798 911.569,-137.547"/>
</g>
<!-- Node10&#45;&gt;Node12 -->
<g id="edge18" class="edge"><title>Node10&#45;&gt;Node12</title>
<path fill="none" stroke="midnightblue" d="M731.886,-168.368C679.295,-148.89 551.285,-101.479 490.832,-79.089"/>
<polygon fill="midnightblue" stroke="midnightblue" points="491.982,-75.7825 481.388,-75.5914 489.55,-82.3468 491.982,-75.7825"/>
</g>
<!-- Node11&#45;&gt;Node3 -->
<g id="edge15" class="edge"><title>Node11&#45;&gt;Node3</title>
<path fill="none" stroke="midnightblue" d="M993.589,-118.685C1105.82,-112.491 1419.97,-94.7356 1681.19,-76 1707.96,-74.0798 1738.37,-71.5664 1760.42,-69.6838"/>
<polygon fill="midnightblue" stroke="midnightblue" points="1760.86,-73.1592 1770.52,-68.8157 1760.26,-66.185 1760.86,-73.1592"/>
</g>
<!-- Node11&#45;&gt;Node7 -->
<g id="edge16" class="edge"><title>Node11&#45;&gt;Node7</title>
<path fill="none" stroke="midnightblue" d="M993.4,-115.724C1071.01,-106.023 1236.47,-85.3399 1324.79,-74.2996"/>
<polygon fill="midnightblue" stroke="midnightblue" points="1325.42,-77.7483 1334.91,-73.0349 1324.56,-70.8023 1325.42,-77.7483"/>
</g>
<!-- Node11&#45;&gt;Node12 -->
<g id="edge17" class="edge"><title>Node11&#45;&gt;Node12</title>
<path fill="none" stroke="midnightblue" d="M909.159,-116.396C824.314,-107.103 631.837,-86.02 527.891,-74.6344"/>
<polygon fill="midnightblue" stroke="midnightblue" points="528.13,-71.1398 517.808,-73.53 527.368,-78.0981 528.13,-71.1398"/>
</g>
<!-- Node13&#45;&gt;Node3 -->
<g id="edge20" class="edge"><title>Node13&#45;&gt;Node3</title>
<path fill="none" stroke="midnightblue" d="M1988.4,-168.368C1951.13,-149.211 1861.3,-103.036 1816.9,-80.2172"/>
<polygon fill="midnightblue" stroke="midnightblue" points="1818.4,-77.0502 1807.91,-75.5914 1815.2,-83.2759 1818.4,-77.0502"/>
</g>
<!-- Node13&#45;&gt;Node4 -->
<g id="edge21" class="edge"><title>Node13&#45;&gt;Node4</title>
<path fill="none" stroke="midnightblue" d="M1958.64,-168.467C1877.45,-153.987 1704.58,-124.921 1557.19,-112 1039.82,-66.6411 908.195,-95.1723 389.192,-76 341.179,-74.2264 286.978,-71.8825 245.805,-70.0313"/>
<polygon fill="midnightblue" stroke="midnightblue" points="245.777,-66.5266 235.629,-69.572 245.461,-73.5195 245.777,-66.5266"/>
</g>
<!-- Node13&#45;&gt;Node5 -->
<g id="edge25" class="edge"><title>Node13&#45;&gt;Node5</title>
<path fill="none" stroke="midnightblue" d="M1955.59,-171.674C1861.51,-161.575 1657.74,-139.699 1558.62,-129.058"/>
<polygon fill="midnightblue" stroke="midnightblue" points="1558.81,-125.559 1548.5,-127.971 1558.07,-132.519 1558.81,-125.559"/>
</g>
<!-- Node14 -->
<g id="node14" class="node"><title>Node14</title>
<polygon fill="white" stroke="#bfbfbf" points="1543.69,-56.5 1543.69,-75.5 1672.69,-75.5 1672.69,-56.5 1543.69,-56.5"/>
<text text-anchor="middle" x="1608.19" y="-63.5" font-family="Helvetica,sans-Serif" font-size="10.00">boost/unordered_map.hpp</text>
</g>
<!-- Node13&#45;&gt;Node14 -->
<g id="edge22" class="edge"><title>Node13&#45;&gt;Node14</title>
<path fill="none" stroke="midnightblue" d="M1974.37,-168.46C1903.35,-148.782 1728.2,-100.252 1648.66,-78.2128"/>
<polygon fill="midnightblue" stroke="midnightblue" points="1649.57,-74.8319 1638.99,-75.5345 1647.7,-81.5777 1649.57,-74.8319"/>
</g>
<!-- Node15 -->
<g id="node15" class="node"><title>Node15</title>
<polygon fill="white" stroke="#bfbfbf" points="1969.19,-112.5 1969.19,-131.5 2093.19,-131.5 2093.19,-112.5 1969.19,-112.5"/>
<text text-anchor="middle" x="2031.19" y="-119.5" font-family="Helvetica,sans-Serif" font-size="10.00">boost/unordered_set.hpp</text>
</g>
<!-- Node13&#45;&gt;Node15 -->
<g id="edge23" class="edge"><title>Node13&#45;&gt;Node15</title>
<path fill="none" stroke="midnightblue" d="M2009.48,-168.083C2013.04,-160.691 2018.21,-149.953 2022.62,-140.811"/>
<polygon fill="midnightblue" stroke="midnightblue" points="2025.79,-142.279 2026.98,-131.751 2019.49,-139.243 2025.79,-142.279"/>
</g>
<!-- Node16 -->
<g id="node16" class="node"><title>Node16</title>
<polygon fill="white" stroke="#bfbfbf" points="1843.69,-56.5 1843.69,-75.5 1962.69,-75.5 1962.69,-56.5 1843.69,-56.5"/>
<text text-anchor="middle" x="1903.19" y="-63.5" font-family="Helvetica,sans-Serif" font-size="10.00">boost/thread/mutex.hpp</text>
</g>
<!-- Node13&#45;&gt;Node16 -->
<g id="edge24" class="edge"><title>Node13&#45;&gt;Node16</title>
<path fill="none" stroke="midnightblue" d="M1996.05,-168.205C1986.83,-159.255 1972.28,-144.902 1960.19,-132 1945.04,-115.825 1928.41,-96.6845 1917.04,-83.3809"/>
<polygon fill="midnightblue" stroke="midnightblue" points="1919.54,-80.9219 1910.4,-75.5712 1914.21,-85.4566 1919.54,-80.9219"/>
</g>
<!-- Node17&#45;&gt;Node10 -->
<g id="edge27" class="edge"><title>Node17&#45;&gt;Node10</title>
<path fill="none" stroke="midnightblue" d="M1070.75,-230.433C1061.21,-228.195 1050.82,-225.884 1041.19,-224 965.456,-209.188 877.694,-195.957 819.572,-187.738"/>
<polygon fill="midnightblue" stroke="midnightblue" points="819.822,-184.239 809.432,-186.312 818.847,-191.171 819.822,-184.239"/>
</g>
<!-- Node18 -->
<g id="node18" class="node"><title>Node18</title>
<g id="a_node18"><a xlink:href="mem-pool_8h.html" target="_top" xlink:title="runtime/mem&#45;pool.h">
<polygon fill="white" stroke="red" points="1169.69,-168.5 1169.69,-187.5 1272.69,-187.5 1272.69,-168.5 1169.69,-168.5"/>
<text text-anchor="middle" x="1221.19" y="-175.5" font-family="Helvetica,sans-Serif" font-size="10.00">runtime/mem&#45;pool.h</text>
</a>
</g>
</g>
<!-- Node17&#45;&gt;Node18 -->
<g id="edge28" class="edge"><title>Node17&#45;&gt;Node18</title>
<path fill="none" stroke="midnightblue" d="M1121.81,-230.403C1141.11,-220.423 1173.15,-203.849 1195.62,-192.225"/>
<polygon fill="midnightblue" stroke="midnightblue" points="1197.33,-195.284 1204.6,-187.581 1194.11,-189.066 1197.33,-195.284"/>
</g>
<!-- Node18&#45;&gt;Node3 -->
<g id="edge30" class="edge"><title>Node18&#45;&gt;Node3</title>
<path fill="none" stroke="midnightblue" d="M1234.2,-168.335C1258.66,-152.215 1310.84,-118.644 1331.19,-112 1351.64,-105.324 1660.59,-78.2581 1760.37,-69.6455"/>
<polygon fill="midnightblue" stroke="midnightblue" points="1760.76,-73.1251 1770.42,-68.7794 1760.16,-66.151 1760.76,-73.1251"/>
</g>
<!-- Node18&#45;&gt;Node6 -->
<g id="edge29" class="edge"><title>Node18&#45;&gt;Node6</title>
<path fill="none" stroke="midnightblue" d="M1206.6,-168.368C1174.54,-149.412 1097.76,-104.001 1058.77,-80.9424"/>
<polygon fill="midnightblue" stroke="midnightblue" points="1060.11,-77.6693 1049.72,-75.5914 1056.54,-83.6945 1060.11,-77.6693"/>
</g>
<!-- Node18&#45;&gt;Node7 -->
<g id="edge31" class="edge"><title>Node18&#45;&gt;Node7</title>
<path fill="none" stroke="midnightblue" d="M1205.23,-168.386C1184.22,-155.948 1151.76,-132.23 1168.19,-112 1187.6,-88.1059 1268.04,-76.4519 1324.82,-71.1028"/>
<polygon fill="midnightblue" stroke="midnightblue" points="1325.47,-74.5577 1335.12,-70.1758 1324.85,-67.5859 1325.47,-74.5577"/>
</g>
<!-- Node19 -->
<g id="node19" class="node"><title>Node19</title>
<g id="a_node19"><a xlink:href="runtime-profile_8h.html" target="_top" xlink:title="util/runtime&#45;profile.h">
<polygon fill="white" stroke="red" points="1177.19,-112.5 1177.19,-131.5 1279.19,-131.5 1279.19,-112.5 1177.19,-112.5"/>
<text text-anchor="middle" x="1228.19" y="-119.5" font-family="Helvetica,sans-Serif" font-size="10.00">util/runtime&#45;profile.h</text>
</a>
</g>
</g>
<!-- Node18&#45;&gt;Node19 -->
<g id="edge32" class="edge"><title>Node18&#45;&gt;Node19</title>
<path fill="none" stroke="midnightblue" d="M1222.35,-168.083C1223.28,-160.927 1224.61,-150.635 1225.77,-141.691"/>
<polygon fill="midnightblue" stroke="midnightblue" points="1229.24,-142.118 1227.06,-131.751 1222.3,-141.218 1229.24,-142.118"/>
</g>
<!-- Node19&#45;&gt;Node4 -->
<g id="edge33" class="edge"><title>Node19&#45;&gt;Node4</title>
<path fill="none" stroke="midnightblue" d="M1176.93,-118.359C1003.43,-109.419 438.318,-80.3004 245.415,-70.3607"/>
<polygon fill="midnightblue" stroke="midnightblue" points="245.589,-66.8652 235.422,-69.8459 245.229,-73.8559 245.589,-66.8652"/>
</g>
<!-- Node19&#45;&gt;Node7 -->
<g id="edge36" class="edge"><title>Node19&#45;&gt;Node7</title>
<path fill="none" stroke="midnightblue" d="M1252.75,-112.444C1278.71,-103.399 1319.86,-89.064 1348.99,-78.9158"/>
<polygon fill="midnightblue" stroke="midnightblue" points="1350.45,-82.1116 1358.75,-75.5164 1348.15,-75.5013 1350.45,-82.1116"/>
</g>
<!-- Node19&#45;&gt;Node14 -->
<g id="edge35" class="edge"><title>Node19&#45;&gt;Node14</title>
<path fill="none" stroke="midnightblue" d="M1279.44,-113.717C1346.1,-104.245 1462.85,-87.6544 1537.78,-77.0059"/>
<polygon fill="midnightblue" stroke="midnightblue" points="1538.66,-80.4163 1548.07,-75.5441 1537.67,-73.4859 1538.66,-80.4163"/>
</g>
<!-- Node19&#45;&gt;Node16 -->
<g id="edge34" class="edge"><title>Node19&#45;&gt;Node16</title>
<path fill="none" stroke="midnightblue" d="M1279.31,-117.67C1381.93,-110.862 1620.3,-94.4297 1820.19,-76 1824.41,-75.6108 1828.75,-75.193 1833.13,-74.7583"/>
<polygon fill="midnightblue" stroke="midnightblue" points="1833.78,-78.2108 1843.37,-73.7186 1833.07,-71.2466 1833.78,-78.2108"/>
</g>
<!-- Node21&#45;&gt;Node3 -->
<g id="edge41" class="edge"><title>Node21&#45;&gt;Node3</title>
<path fill="none" stroke="midnightblue" d="M2228.53,-230.298C2218.02,-206.57 2185.31,-140.613 2135.19,-112 2018.19,-45.1968 1967.14,-97.8215 1834.19,-76 1830.24,-75.3515 1826.1,-74.5904 1822.02,-73.7903"/>
<polygon fill="midnightblue" stroke="midnightblue" points="1822.62,-70.3407 1812.12,-71.7626 1821.21,-77.1983 1822.62,-70.3407"/>
</g>
<!-- Node21&#45;&gt;Node6 -->
<g id="edge42" class="edge"><title>Node21&#45;&gt;Node6</title>
<path fill="none" stroke="midnightblue" d="M2203.76,-230.431C2195.56,-228.142 2186.56,-225.805 2178.19,-224 2076.19,-201.999 2045.44,-220.218 1946.19,-188 1927.66,-181.985 1925.71,-174.058 1907.19,-168 1746.07,-115.276 1206.43,-77.9119 1067.85,-69.0301"/>
<polygon fill="midnightblue" stroke="midnightblue" points="1067.69,-65.513 1057.49,-68.3714 1067.25,-72.4989 1067.69,-65.513"/>
</g>
<!-- Node21&#45;&gt;Node20 -->
<g id="edge43" class="edge"><title>Node21&#45;&gt;Node20</title>
<path fill="none" stroke="midnightblue" d="M2204.34,-230.485C2195.99,-228.143 2186.77,-225.765 2178.19,-224 2061.77,-200.039 2030.28,-208.467 1913.19,-188 1911.72,-187.743 1910.23,-187.472 1908.72,-187.189"/>
<polygon fill="midnightblue" stroke="midnightblue" points="1909.18,-183.714 1898.7,-185.207 1907.83,-190.581 1909.18,-183.714"/>
</g>
<!-- Node22 -->
<g id="node22" class="node"><title>Node22</title>
<polygon fill="white" stroke="#bfbfbf" points="2344.69,-168.5 2344.69,-187.5 2379.69,-187.5 2379.69,-168.5 2344.69,-168.5"/>
<text text-anchor="middle" x="2362.19" y="-175.5" font-family="Helvetica,sans-Serif" font-size="10.00">map</text>
</g>
<!-- Node21&#45;&gt;Node22 -->
<g id="edge40" class="edge"><title>Node21&#45;&gt;Node22</title>
<path fill="none" stroke="midnightblue" d="M2250.82,-230.403C2272.88,-220.22 2309.82,-203.17 2335.06,-191.52"/>
<polygon fill="midnightblue" stroke="midnightblue" points="2336.82,-194.564 2344.43,-187.195 2333.89,-188.208 2336.82,-194.564"/>
</g>
<!-- Node26&#45;&gt;Node3 -->
<g id="edge51" class="edge"><title>Node26&#45;&gt;Node3</title>
<path fill="none" stroke="midnightblue" d="M2530.35,-348.92C2533.68,-348.583 2536.97,-348.273 2540.19,-348 2632.95,-340.14 3297.59,-360.261 3377.19,-312 3408.35,-293.108 3418.19,-277.439 3418.19,-241 3418.19,-241 3418.19,-241 3418.19,-177 3418.19,-88.8213 1921.57,-87.868 1834.19,-76 1830.22,-75.4611 1826.08,-74.7647 1821.99,-73.9981"/>
<polygon fill="midnightblue" stroke="midnightblue" points="1822.58,-70.5471 1812.08,-71.9975 1821.19,-77.4085 1822.58,-70.5471"/>
</g>
<!-- Node26&#45;&gt;Node4 -->
<g id="edge53" class="edge"><title>Node26&#45;&gt;Node4</title>
<path fill="none" stroke="midnightblue" d="M2407.84,-353.47C2373.54,-351.604 2330,-349.413 2291.19,-348 2169.5,-343.568 193.971,-334.872 101.192,-256 52.3349,-214.467 54.4788,-163.863 92.1916,-112 103.327,-96.6863 121.212,-86.2135 137.96,-79.2536"/>
<polygon fill="midnightblue" stroke="midnightblue" points="139.542,-82.3957 147.63,-75.5516 137.039,-75.8584 139.542,-82.3957"/>
</g>
<!-- Node26&#45;&gt;Node5 -->
<g id="edge49" class="edge"><title>Node26&#45;&gt;Node5</title>
<path fill="none" stroke="midnightblue" d="M2408.08,-353.849C2242.12,-345.216 1791.02,-321.215 1724.19,-312 1607.95,-295.971 1539.84,-347.346 1466.19,-256 1457.27,-244.928 1460.75,-237.14 1466.19,-224 1474.85,-203.095 1493.53,-208.905 1502.19,-188 1508.26,-173.339 1507.67,-155.171 1505.89,-141.773"/>
<polygon fill="midnightblue" stroke="midnightblue" points="1509.33,-141.118 1504.25,-131.823 1502.43,-142.26 1509.33,-141.118"/>
</g>
<!-- Node26&#45;&gt;Node6 -->
<g id="edge52" class="edge"><title>Node26&#45;&gt;Node6</title>
<path fill="none" stroke="midnightblue" d="M2407.83,-353.566C2373.53,-351.73 2329.99,-349.537 2291.19,-348 2012.18,-336.949 1309.58,-363.768 1035.19,-312 943.326,-294.668 837.192,-334.487 837.192,-241 837.192,-241 837.192,-241 837.192,-177 837.192,-146.205 838.348,-132.653 861.192,-112 900.542,-76.4229 964.37,-68.2533 1002.81,-66.7789"/>
<polygon fill="midnightblue" stroke="midnightblue" points="1003.03,-70.2746 1012.93,-66.5233 1002.85,-63.2768 1003.03,-70.2746"/>
</g>
<!-- Node26&#45;&gt;Node11 -->
<g id="edge85" class="edge"><title>Node26&#45;&gt;Node11</title>
<path fill="none" stroke="midnightblue" d="M2407.82,-353.822C2373.52,-352.065 2329.98,-349.865 2291.19,-348 2152.64,-341.337 1165.42,-326.884 1046.19,-256 1000.79,-229.009 971.187,-170.953 958.411,-141.277"/>
<polygon fill="midnightblue" stroke="midnightblue" points="961.523,-139.642 954.467,-131.738 955.054,-142.317 961.523,-139.642"/>
</g>
<!-- Node26&#45;&gt;Node15 -->
<g id="edge55" class="edge"><title>Node26&#45;&gt;Node15</title>
<path fill="none" stroke="midnightblue" d="M2530.35,-348.923C2533.68,-348.585 2536.97,-348.274 2540.19,-348 2585.68,-344.126 3329.62,-344.982 3361.19,-312 3367.34,-305.578 3367.01,-298.721 3361.19,-292 3278.05,-195.933 2369.31,-140.803 2103.7,-126.66"/>
<polygon fill="midnightblue" stroke="midnightblue" points="2103.57,-123.149 2093.4,-126.115 2103.2,-130.139 2103.57,-123.149"/>
</g>
<!-- Node26&#45;&gt;Node16 -->
<g id="edge54" class="edge"><title>Node26&#45;&gt;Node16</title>
<path fill="none" stroke="midnightblue" d="M2530.35,-348.91C2533.67,-348.575 2536.97,-348.269 2540.19,-348 2589.62,-343.878 3392.49,-341.721 3432.19,-312 3458.86,-292.039 3456.19,-274.31 3456.19,-241 3456.19,-241 3456.19,-241 3456.19,-177 3456.19,-146.205 3457.2,-129.975 3432.19,-112 3372.29,-68.9392 2264.08,-66.7289 1972.83,-66.8948"/>
<polygon fill="midnightblue" stroke="midnightblue" points="1972.81,-63.3947 1962.81,-66.9016 1972.82,-70.3947 1972.81,-63.3947"/>
</g>
<!-- Node26&#45;&gt;Node19 -->
<g id="edge86" class="edge"><title>Node26&#45;&gt;Node19</title>
<path fill="none" stroke="midnightblue" d="M2464.44,-348.345C2459.86,-339.504 2453.19,-325.234 2450.19,-312 2441.55,-273.813 2462.31,-259.682 2446.19,-224 2431.44,-191.343 2421.15,-182.054 2388.19,-168 2291.94,-126.961 1551.74,-136.148 1447.19,-132 1394.04,-129.891 1333.63,-127.402 1289.74,-125.576"/>
<polygon fill="midnightblue" stroke="midnightblue" points="1289.66,-122.07 1279.52,-125.15 1289.36,-129.064 1289.66,-122.07"/>
</g>
<!-- Node26&#45;&gt;Node22 -->
<g id="edge50" class="edge"><title>Node26&#45;&gt;Node22</title>
<path fill="none" stroke="midnightblue" d="M2452.86,-348.387C2440.24,-340.72 2423.69,-328.213 2416.19,-312 2399.56,-276.059 2448.94,-258.885 2430.19,-224 2421.51,-207.838 2404.19,-196.506 2389.2,-189.257"/>
<polygon fill="midnightblue" stroke="midnightblue" points="2390.36,-185.943 2379.8,-185.073 2387.51,-192.338 2390.36,-185.943"/>
</g>
<!-- Node27 -->
<g id="node27" class="node"><title>Node27</title>
<polygon fill="white" stroke="#bfbfbf" points="2978.69,-292.5 2978.69,-311.5 3095.69,-311.5 3095.69,-292.5 2978.69,-292.5"/>
<text text-anchor="middle" x="3037.19" y="-299.5" font-family="Helvetica,sans-Serif" font-size="10.00">llvm/Analysis/Verifier.h</text>
</g>
<!-- Node26&#45;&gt;Node27 -->
<g id="edge56" class="edge"><title>Node26&#45;&gt;Node27</title>
<path fill="none" stroke="midnightblue" d="M2530.36,-349.079C2533.69,-348.701 2536.98,-348.338 2540.19,-348 2727.22,-328.307 2777.26,-332.409 2968.5,-312.021"/>
<polygon fill="midnightblue" stroke="midnightblue" points="2969.04,-315.483 2978.61,-310.935 2968.29,-308.523 2969.04,-315.483"/>
</g>
<!-- Node28 -->
<g id="node28" class="node"><title>Node28</title>
<polygon fill="white" stroke="#bfbfbf" points="3114.19,-292.5 3114.19,-311.5 3234.19,-311.5 3234.19,-292.5 3114.19,-292.5"/>
<text text-anchor="middle" x="3174.19" y="-299.5" font-family="Helvetica,sans-Serif" font-size="10.00">llvm/IR/DerivedTypes.h</text>
</g>
<!-- Node26&#45;&gt;Node28 -->
<g id="edge57" class="edge"><title>Node26&#45;&gt;Node28</title>
<path fill="none" stroke="midnightblue" d="M2530.36,-349.001C2533.68,-348.643 2536.98,-348.306 2540.19,-348 2786.94,-324.509 2852.45,-335.722 3103.72,-311.973"/>
<polygon fill="midnightblue" stroke="midnightblue" points="3104.27,-315.437 3113.89,-311.002 3103.6,-308.468 3104.27,-315.437"/>
</g>
<!-- Node29 -->
<g id="node29" class="node"><title>Node29</title>
<polygon fill="white" stroke="#bfbfbf" points="3252.19,-292.5 3252.19,-311.5 3352.19,-311.5 3352.19,-292.5 3252.19,-292.5"/>
<text text-anchor="middle" x="3302.19" y="-299.5" font-family="Helvetica,sans-Serif" font-size="10.00">llvm/IR/IRBuilder.h</text>
</g>
<!-- Node26&#45;&gt;Node29 -->
<g id="edge58" class="edge"><title>Node26&#45;&gt;Node29</title>
<path fill="none" stroke="midnightblue" d="M2530.35,-348.952C2533.68,-348.607 2536.97,-348.286 2540.19,-348 2851.37,-320.337 2931.34,-343.209 3242.19,-312 3242.29,-311.99 3242.39,-311.98 3242.5,-311.969"/>
<polygon fill="midnightblue" stroke="midnightblue" points="3242.6,-315.48 3252.15,-310.88 3241.82,-308.524 3242.6,-315.48"/>
</g>
<!-- Node30 -->
<g id="node30" class="node"><title>Node30</title>
<polygon fill="white" stroke="#bfbfbf" points="2458.69,-292.5 2458.69,-311.5 2557.69,-311.5 2557.69,-292.5 2458.69,-292.5"/>
<text text-anchor="middle" x="2508.19" y="-299.5" font-family="Helvetica,sans-Serif" font-size="10.00">llvm/IR/Intrinsics.h</text>
</g>
<!-- Node26&#45;&gt;Node30 -->
<g id="edge59" class="edge"><title>Node26&#45;&gt;Node30</title>
<path fill="none" stroke="midnightblue" d="M2475.63,-348.083C2481.14,-340.455 2489.22,-329.264 2495.96,-319.941"/>
<polygon fill="midnightblue" stroke="midnightblue" points="2498.85,-321.907 2501.87,-311.751 2493.18,-317.809 2498.85,-321.907"/>
</g>
<!-- Node31 -->
<g id="node31" class="node"><title>Node31</title>
<polygon fill="white" stroke="#bfbfbf" points="2575.69,-292.5 2575.69,-311.5 2694.69,-311.5 2694.69,-292.5 2575.69,-292.5"/>
<text text-anchor="middle" x="2635.19" y="-299.5" font-family="Helvetica,sans-Serif" font-size="10.00">llvm/IR/LLVMContext.h</text>
</g>
<!-- Node26&#45;&gt;Node31 -->
<g id="edge60" class="edge"><title>Node26&#45;&gt;Node31</title>
<path fill="none" stroke="midnightblue" d="M2495.49,-348.444C2523.54,-339.32 2568.14,-324.813 2599.38,-314.651"/>
<polygon fill="midnightblue" stroke="midnightblue" points="2600.58,-317.938 2609.01,-311.516 2598.42,-311.282 2600.58,-317.938"/>
</g>
<!-- Node32 -->
<g id="node32" class="node"><title>Node32</title>
<polygon fill="white" stroke="#bfbfbf" points="2712.69,-292.5 2712.69,-311.5 2803.69,-311.5 2803.69,-292.5 2712.69,-292.5"/>
<text text-anchor="middle" x="2758.19" y="-299.5" font-family="Helvetica,sans-Serif" font-size="10.00">llvm/IR/Module.h</text>
</g>
<!-- Node26&#45;&gt;Node32 -->
<g id="edge61" class="edge"><title>Node26&#45;&gt;Node32</title>
<path fill="none" stroke="midnightblue" d="M2514.98,-348.444C2565.93,-338.925 2648.23,-323.547 2702.77,-313.356"/>
<polygon fill="midnightblue" stroke="midnightblue" points="2703.43,-316.794 2712.61,-311.516 2702.14,-309.913 2703.43,-316.794"/>
</g>
<!-- Node33 -->
<g id="node33" class="node"><title>Node33</title>
<polygon fill="white" stroke="#bfbfbf" points="2821.69,-292.5 2821.69,-311.5 2960.69,-311.5 2960.69,-292.5 2821.69,-292.5"/>
<text text-anchor="middle" x="2891.19" y="-299.5" font-family="Helvetica,sans-Serif" font-size="10.00">llvm/Support/raw_ostream.h</text>
</g>
<!-- Node26&#45;&gt;Node33 -->
<g id="edge62" class="edge"><title>Node26&#45;&gt;Node33</title>
<path fill="none" stroke="midnightblue" d="M2530.55,-349.148C2605.64,-339.54 2732.8,-323.268 2814.33,-312.836"/>
<polygon fill="midnightblue" stroke="midnightblue" points="2815.05,-316.271 2824.53,-311.53 2814.17,-309.328 2815.05,-316.271"/>
</g>
<!-- Node34 -->
<g id="node34" class="node"><title>Node34</title>
<g id="a_node34"><a xlink:href="expr_8h.html" target="_top" xlink:title="exprs/expr.h">
<polygon fill="white" stroke="red" points="1733.69,-292.5 1733.69,-311.5 1804.69,-311.5 1804.69,-292.5 1733.69,-292.5"/>
<text text-anchor="middle" x="1769.19" y="-299.5" font-family="Helvetica,sans-Serif" font-size="10.00">exprs/expr.h</text>
</a>
</g>
</g>
<!-- Node26&#45;&gt;Node34 -->
<g id="edge63" class="edge"><title>Node26&#45;&gt;Node34</title>
<path fill="none" stroke="midnightblue" d="M2408.15,-353.857C2271.83,-346.671 1945,-328.487 1815.24,-312.088"/>
<polygon fill="midnightblue" stroke="midnightblue" points="1815.51,-308.594 1805.14,-310.76 1814.6,-315.534 1815.51,-308.594"/>
</g>
<!-- Node35 -->
<g id="node35" class="node"><title>Node35</title>
<polygon fill="white" stroke="#bfbfbf" points="2294.69,-225 2294.69,-255 2387.69,-255 2387.69,-225 2294.69,-225"/>
<text text-anchor="start" x="2302.69" y="-243" font-family="Helvetica,sans-Serif" font-size="10.00">impala&#45;ir/impala&#45;ir</text>
<text text-anchor="middle" x="2341.19" y="-232" font-family="Helvetica,sans-Serif" font-size="10.00">&#45;functions.h</text>
</g>
<!-- Node26&#45;&gt;Node35 -->
<g id="edge84" class="edge"><title>Node26&#45;&gt;Node35</title>
<path fill="none" stroke="midnightblue" d="M2441.35,-348.441C2421.75,-341.271 2395.95,-329.385 2378.19,-312 2364.8,-298.885 2355.24,-279.881 2349.21,-264.834"/>
<polygon fill="midnightblue" stroke="midnightblue" points="2352.37,-263.305 2345.58,-255.171 2345.82,-265.763 2352.37,-263.305"/>
</g>
<!-- Node34&#45;&gt;Node3 -->
<g id="edge64" class="edge"><title>Node34&#45;&gt;Node3</title>
<path fill="none" stroke="midnightblue" d="M1784.61,-292.459C1799.57,-283.927 1822.65,-270.088 1841.19,-256 1857.98,-243.251 1857.36,-233.459 1876.19,-224 1951.83,-186.015 1992.51,-234.552 2063.19,-188 2094.73,-167.229 2126.05,-140.432 2101.19,-112 2061.79,-66.9256 1893.2,-86.1392 1834.19,-76 1830.16,-75.3077 1825.94,-74.5109 1821.77,-73.6836"/>
<polygon fill="midnightblue" stroke="midnightblue" points="1822.19,-70.1972 1811.69,-71.6065 1820.78,-77.0531 1822.19,-70.1972"/>
</g>
<!-- Node34&#45;&gt;Node5 -->
<g id="edge66" class="edge"><title>Node34&#45;&gt;Node5</title>
<path fill="none" stroke="midnightblue" d="M1733.52,-300.918C1663.95,-299.918 1514.16,-293.368 1482.19,-256 1429.64,-194.562 1553.55,-227.469 1581.19,-188 1596.78,-165.747 1565.53,-146.881 1537.86,-135.298"/>
<polygon fill="midnightblue" stroke="midnightblue" points="1538.88,-131.941 1528.3,-131.512 1536.31,-138.449 1538.88,-131.941"/>
</g>
<!-- Node34&#45;&gt;Node6 -->
<g id="edge65" class="edge"><title>Node34&#45;&gt;Node6</title>
<path fill="none" stroke="midnightblue" d="M1733.55,-301.255C1624.65,-301.555 1297.86,-298.778 1202.19,-256 1193.08,-251.926 1078.34,-139.865 1072.19,-132 1060.72,-117.323 1050.49,-98.6875 1043.71,-85.1366"/>
<polygon fill="midnightblue" stroke="midnightblue" points="1046.75,-83.3827 1039.23,-75.9151 1040.45,-86.4397 1046.75,-83.3827"/>
</g>
<!-- Node34&#45;&gt;Node10 -->
<g id="edge68" class="edge"><title>Node34&#45;&gt;Node10</title>
<path fill="none" stroke="midnightblue" d="M1733.56,-301.248C1627.92,-301.457 1307.53,-298.286 1046.19,-256 952.169,-240.786 844.53,-208.208 790.317,-190.701"/>
<polygon fill="midnightblue" stroke="midnightblue" points="791.111,-187.278 780.519,-187.512 788.945,-193.935 791.111,-187.278"/>
</g>
<!-- Node34&#45;&gt;Node13 -->
<g id="edge69" class="edge"><title>Node34&#45;&gt;Node13</title>
<path fill="none" stroke="midnightblue" d="M1776.44,-292.382C1791.78,-274.324 1827.43,-233.407 1843.19,-224 1874.29,-205.439 1913.3,-194.299 1945.24,-187.747"/>
<polygon fill="midnightblue" stroke="midnightblue" points="1946.2,-191.126 1955.35,-185.777 1944.86,-184.255 1946.2,-191.126"/>
</g>
<!-- Node34&#45;&gt;Node17 -->
<g id="edge70" class="edge"><title>Node34&#45;&gt;Node17</title>
<path fill="none" stroke="midnightblue" d="M1733.47,-300.254C1640.16,-297.888 1381.62,-288.658 1169.19,-256 1161.98,-254.891 1154.38,-253.401 1147.03,-251.788"/>
<polygon fill="midnightblue" stroke="midnightblue" points="1147.76,-248.365 1137.23,-249.538 1146.19,-255.187 1147.76,-248.365"/>
</g>
<!-- Node34&#45;&gt;Node20 -->
<g id="edge83" class="edge"><title>Node34&#45;&gt;Node20</title>
<path fill="none" stroke="midnightblue" d="M1771.66,-292.061C1776.23,-276.753 1787.22,-245.132 1805.19,-224 1816.04,-211.25 1831.33,-200.519 1844.46,-192.738"/>
<polygon fill="midnightblue" stroke="midnightblue" points="1846.56,-195.571 1853.55,-187.606 1843.12,-189.476 1846.56,-195.571"/>
</g>
<!-- Node34&#45;&gt;Node35 -->
<g id="edge67" class="edge"><title>Node34&#45;&gt;Node35</title>
<path fill="none" stroke="midnightblue" d="M1805.15,-293.262C1807.86,-292.796 1810.57,-292.367 1813.19,-292 2018.3,-263.317 2076,-290.493 2284.54,-255.874"/>
<polygon fill="midnightblue" stroke="midnightblue" points="2285.31,-259.294 2294.58,-254.178 2284.14,-252.391 2285.31,-259.294"/>
</g>
<!-- Node36 -->
<g id="node36" class="node"><title>Node36</title>
<g id="a_node36"><a xlink:href="string-value_8h.html" target="_top" xlink:title="runtime/string&#45;value.h">
<polygon fill="white" stroke="red" points="1491.19,-230.5 1491.19,-249.5 1601.19,-249.5 1601.19,-230.5 1491.19,-230.5"/>
<text text-anchor="middle" x="1546.19" y="-237.5" font-family="Helvetica,sans-Serif" font-size="10.00">runtime/string&#45;value.h</text>
</a>
</g>
</g>
<!-- Node34&#45;&gt;Node36 -->
<g id="edge71" class="edge"><title>Node34&#45;&gt;Node36</title>
<path fill="none" stroke="midnightblue" d="M1737.24,-292.403C1697.91,-281.822 1631.03,-263.827 1587.74,-252.18"/>
<polygon fill="midnightblue" stroke="midnightblue" points="1588.65,-248.799 1578.08,-249.581 1586.83,-255.559 1588.65,-248.799"/>
</g>
<!-- Node38 -->
<g id="node38" class="node"><title>Node38</title>
<g id="a_node38"><a xlink:href="timestamp-value_8h.html" target="_top" xlink:title="runtime/timestamp&#45;value.h">
<polygon fill="white" stroke="red" points="2037.19,-230.5 2037.19,-249.5 2169.19,-249.5 2169.19,-230.5 2037.19,-230.5"/>
<text text-anchor="middle" x="2103.19" y="-237.5" font-family="Helvetica,sans-Serif" font-size="10.00">runtime/timestamp&#45;value.h</text>
</a>
</g>
</g>
<!-- Node34&#45;&gt;Node38 -->
<g id="edge78" class="edge"><title>Node34&#45;&gt;Node38</title>
<path fill="none" stroke="midnightblue" d="M1804.72,-293.646C1807.58,-293.079 1810.43,-292.524 1813.19,-292 1892.07,-277 1983.33,-261.208 2042.08,-251.242"/>
<polygon fill="midnightblue" stroke="midnightblue" points="2043.02,-254.632 2052.3,-249.512 2041.86,-247.73 2043.02,-254.632"/>
</g>
<!-- Node36&#45;&gt;Node3 -->
<g id="edge72" class="edge"><title>Node36&#45;&gt;Node3</title>
<path fill="none" stroke="midnightblue" d="M1583.7,-230.438C1643.49,-216.723 1754.03,-191.049 1757.19,-188 1785.25,-160.958 1790.71,-112.766 1791.44,-86.0888"/>
<polygon fill="midnightblue" stroke="midnightblue" points="1794.94,-85.8223 1791.52,-75.7972 1787.94,-85.7716 1794.94,-85.8223"/>
</g>
<!-- Node36&#45;&gt;Node7 -->
<g id="edge73" class="edge"><title>Node36&#45;&gt;Node7</title>
<path fill="none" stroke="midnightblue" d="M1567.71,-230.466C1593.47,-218.81 1631.68,-196.112 1619.19,-168 1589.56,-101.298 1501.25,-78.6038 1441.47,-70.9094"/>
<polygon fill="midnightblue" stroke="midnightblue" points="1441.74,-67.417 1431.4,-69.719 1440.92,-74.3686 1441.74,-67.417"/>
</g>
<!-- Node36&#45;&gt;Node11 -->
<g id="edge77" class="edge"><title>Node36&#45;&gt;Node11</title>
<path fill="none" stroke="midnightblue" d="M1491.03,-234.685C1415.65,-228.115 1276.55,-213.586 1160.19,-188 1096.56,-174.007 1024.4,-149.598 983.691,-135.004"/>
<polygon fill="midnightblue" stroke="midnightblue" points="984.636,-131.624 974.042,-131.517 982.257,-138.208 984.636,-131.624"/>
</g>
<!-- Node36&#45;&gt;Node20 -->
<g id="edge74" class="edge"><title>Node36&#45;&gt;Node20</title>
<path fill="none" stroke="midnightblue" d="M1592.41,-230.467C1657.05,-218.534 1773.24,-197.083 1833.16,-186.021"/>
<polygon fill="midnightblue" stroke="midnightblue" points="1834.12,-189.403 1843.32,-184.145 1832.85,-182.519 1834.12,-189.403"/>
</g>
<!-- Node37 -->
<g id="node37" class="node"><title>Node37</title>
<g id="a_node37"><a xlink:href="hash-util_8h.html" target="_top" xlink:title="util/hash&#45;util.h">
<polygon fill="white" stroke="red" points="1671.69,-168.5 1671.69,-187.5 1748.69,-187.5 1748.69,-168.5 1671.69,-168.5"/>
<text text-anchor="middle" x="1710.19" y="-175.5" font-family="Helvetica,sans-Serif" font-size="10.00">util/hash&#45;util.h</text>
</a>
</g>
</g>
<!-- Node36&#45;&gt;Node37 -->
<g id="edge75" class="edge"><title>Node36&#45;&gt;Node37</title>
<path fill="none" stroke="midnightblue" d="M1569.69,-230.403C1597.82,-220.111 1645.12,-202.806 1676.98,-191.15"/>
<polygon fill="midnightblue" stroke="midnightblue" points="1678.55,-194.303 1686.74,-187.581 1676.14,-187.73 1678.55,-194.303"/>
</g>
<!-- Node37&#45;&gt;Node7 -->
<g id="edge76" class="edge"><title>Node37&#45;&gt;Node7</title>
<path fill="none" stroke="midnightblue" d="M1698.77,-168.408C1679.62,-154.431 1639.39,-126.844 1601.19,-112 1549.06,-91.7416 1486.2,-80.0065 1441.4,-73.6324"/>
<polygon fill="midnightblue" stroke="midnightblue" points="1441.66,-70.135 1431.27,-72.239 1440.7,-77.0696 1441.66,-70.135"/>
</g>
<!-- Node38&#45;&gt;Node3 -->
<g id="edge79" class="edge"><title>Node38&#45;&gt;Node3</title>
<path fill="none" stroke="midnightblue" d="M2100.54,-230.247C2095.6,-215.361 2083.59,-185.074 2063.19,-168 2026.01,-136.871 2005.48,-149.333 1960.19,-132 1938.61,-123.739 1933.69,-120.474 1912.19,-112 1881.4,-99.8657 1845.88,-86.7586 1821.32,-77.8377"/>
<polygon fill="midnightblue" stroke="midnightblue" points="1822.43,-74.5174 1811.84,-74.4023 1820.05,-81.0989 1822.43,-74.5174"/>
</g>
<!-- Node38&#45;&gt;Node9 -->
<g id="edge80" class="edge"><title>Node38&#45;&gt;Node9</title>
<path fill="none" stroke="midnightblue" d="M2108.04,-230.351C2119.63,-208.377 2146.15,-149.492 2120.19,-112 2064.15,-31.0729 1939.82,-13.9038 1869.75,-10.9206"/>
<polygon fill="midnightblue" stroke="midnightblue" points="1869.52,-7.41066 1859.4,-10.5666 1869.28,-14.4066 1869.52,-7.41066"/>
</g>
<!-- Node38&#45;&gt;Node20 -->
<g id="edge81" class="edge"><title>Node38&#45;&gt;Node20</title>
<path fill="none" stroke="midnightblue" d="M2069.95,-230.403C2027.29,-219.371 1953.47,-200.28 1908.8,-188.727"/>
<polygon fill="midnightblue" stroke="midnightblue" points="1909.48,-185.287 1898.92,-186.172 1907.73,-192.064 1909.48,-185.287"/>
</g>
<!-- Node38&#45;&gt;Node37 -->
<g id="edge82" class="edge"><title>Node38&#45;&gt;Node37</title>
<path fill="none" stroke="midnightblue" d="M2059.66,-230.489C2047.84,-228.275 2035.04,-225.962 2023.19,-224 1930.01,-208.573 1820.7,-193.557 1759.03,-185.367"/>
<polygon fill="midnightblue" stroke="midnightblue" points="1759.19,-181.858 1748.82,-184.016 1758.28,-188.797 1759.19,-181.858"/>
</g>
<!-- Node39&#45;&gt;Node4 -->
<g id="edge90" class="edge"><title>Node39&#45;&gt;Node4</title>
<path fill="none" stroke="midnightblue" d="M685.684,-299.904C540.003,-296.821 182.735,-286.237 138.192,-256 83.8666,-219.123 72.8414,-169.137 105.192,-112 113.538,-97.2584 128.854,-86.8192 143.479,-79.7321"/>
<polygon fill="midnightblue" stroke="midnightblue" points="145.189,-82.8025 152.91,-75.5474 142.35,-76.4041 145.189,-82.8025"/>
</g>
<!-- Node39&#45;&gt;Node10 -->
<g id="edge104" class="edge"><title>Node39&#45;&gt;Node10</title>
<path fill="none" stroke="midnightblue" d="M747.767,-292.226C749.058,-272.53 752.212,-224.437 753.965,-197.7"/>
<polygon fill="midnightblue" stroke="midnightblue" points="757.46,-197.902 754.621,-187.694 750.475,-197.444 757.46,-197.902"/>
</g>
<!-- Node39&#45;&gt;Node18 -->
<g id="edge105" class="edge"><title>Node39&#45;&gt;Node18</title>
<path fill="none" stroke="midnightblue" d="M780.375,-292.45C835.547,-278.236 949.635,-248.847 1046.19,-224 1091.12,-212.437 1142.55,-199.215 1177.97,-190.11"/>
<polygon fill="midnightblue" stroke="midnightblue" points="1179.15,-193.419 1187.97,-187.54 1177.41,-186.639 1179.15,-193.419"/>
</g>
<!-- Node39&#45;&gt;Node36 -->
<g id="edge106" class="edge"><title>Node39&#45;&gt;Node36</title>
<path fill="none" stroke="midnightblue" d="M808.892,-296.367C956.671,-285.269 1329.83,-257.248 1481.04,-245.892"/>
<polygon fill="midnightblue" stroke="midnightblue" points="1481.4,-249.375 1491.11,-245.136 1480.88,-242.395 1481.4,-249.375"/>
</g>
<!-- Node40 -->
<g id="node40" class="node"><title>Node40</title>
<polygon fill="white" stroke="#bfbfbf" points="147.692,-230.5 147.692,-249.5 206.692,-249.5 206.692,-230.5 147.692,-230.5"/>
<text text-anchor="middle" x="177.192" y="-237.5" font-family="Helvetica,sans-Serif" font-size="10.00">functional</text>
</g>
<!-- Node39&#45;&gt;Node40 -->
<g id="edge89" class="edge"><title>Node39&#45;&gt;Node40</title>
<path fill="none" stroke="midnightblue" d="M685.343,-300.554C586.303,-298.76 386.459,-290.699 221.192,-256 217.015,-255.123 212.687,-253.969 208.448,-252.689"/>
<polygon fill="midnightblue" stroke="midnightblue" points="209.424,-249.325 198.832,-249.545 207.249,-255.979 209.424,-249.325"/>
</g>
<!-- Node41 -->
<g id="node41" class="node"><title>Node41</title>
<g id="a_node41"><a xlink:href="exec-node_8h.html" target="_top" xlink:title="exec/exec&#45;node.h">
<polygon fill="white" stroke="red" points="633.192,-230.5 633.192,-249.5 727.192,-249.5 727.192,-230.5 633.192,-230.5"/>
<text text-anchor="middle" x="680.192" y="-237.5" font-family="Helvetica,sans-Serif" font-size="10.00">exec/exec&#45;node.h</text>
</a>
</g>
</g>
<!-- Node39&#45;&gt;Node41 -->
<g id="edge91" class="edge"><title>Node39&#45;&gt;Node41</title>
<path fill="none" stroke="midnightblue" d="M737.592,-292.403C727.144,-283.047 710.224,-267.895 697.455,-256.46"/>
<polygon fill="midnightblue" stroke="midnightblue" points="699.558,-253.644 689.773,-249.581 694.888,-258.859 699.558,-253.644"/>
</g>
<!-- Node42 -->
<g id="node42" class="node"><title>Node42</title>
<g id="a_node42"><a xlink:href="old-hash-table_8h.html" target="_top" xlink:title="exec/old&#45;hash&#45;table.h">
<polygon fill="white" stroke="red" points="1211.19,-230.5 1211.19,-249.5 1321.19,-249.5 1321.19,-230.5 1211.19,-230.5"/>
<text text-anchor="middle" x="1266.19" y="-237.5" font-family="Helvetica,sans-Serif" font-size="10.00">exec/old&#45;hash&#45;table.h</text>
</a>
</g>
</g>
<!-- Node39&#45;&gt;Node42 -->
<g id="edge98" class="edge"><title>Node39&#45;&gt;Node42</title>
<path fill="none" stroke="midnightblue" d="M808.749,-295.105C890.184,-287.136 1038.15,-272.063 1164.19,-256 1176.12,-254.48 1188.81,-252.724 1201.05,-250.962"/>
<polygon fill="midnightblue" stroke="midnightblue" points="1201.8,-254.389 1211.19,-249.485 1200.79,-247.462 1201.8,-254.389"/>
</g>
<!-- Node41&#45;&gt;Node5 -->
<g id="edge94" class="edge"><title>Node41&#45;&gt;Node5</title>
<path fill="none" stroke="midnightblue" d="M727.235,-236.638C886.42,-228.536 1396.77,-201.623 1429.19,-188 1454.01,-177.574 1476.1,-155.112 1489.31,-139.533"/>
<polygon fill="midnightblue" stroke="midnightblue" points="1492.09,-141.667 1495.7,-131.707 1486.67,-137.24 1492.09,-141.667"/>
</g>
<!-- Node41&#45;&gt;Node6 -->
<g id="edge92" class="edge"><title>Node41&#45;&gt;Node6</title>
<path fill="none" stroke="midnightblue" d="M679.388,-230.241C678.532,-215.875 678.797,-187.007 692.192,-168 721.534,-126.361 744.285,-129.314 792.192,-112 864.967,-85.6984 955.814,-74.121 1003.14,-69.5757"/>
<polygon fill="midnightblue" stroke="midnightblue" points="1003.47,-73.0605 1013.11,-68.6617 1002.83,-66.0897 1003.47,-73.0605"/>
</g>
<!-- Node41&#45;&gt;Node10 -->
<g id="edge95" class="edge"><title>Node41&#45;&gt;Node10</title>
<path fill="none" stroke="midnightblue" d="M690.937,-230.403C702.744,-220.958 721.935,-205.606 736.274,-194.134"/>
<polygon fill="midnightblue" stroke="midnightblue" points="738.844,-196.561 744.466,-187.581 734.471,-191.095 738.844,-196.561"/>
</g>
<!-- Node41&#45;&gt;Node19 -->
<g id="edge96" class="edge"><title>Node41&#45;&gt;Node19</title>
<path fill="none" stroke="midnightblue" d="M727.341,-233.428C790.555,-225.531 906.075,-209.607 1003.19,-188 1071.13,-172.886 1148.8,-148.924 1192.82,-134.703"/>
<polygon fill="midnightblue" stroke="midnightblue" points="1194.05,-137.986 1202.48,-131.566 1191.89,-131.328 1194.05,-137.986"/>
</g>
<!-- Node41&#45;&gt;Node24 -->
<g id="edge97" class="edge"><title>Node41&#45;&gt;Node24</title>
<path fill="none" stroke="midnightblue" d="M665.148,-230.403C647.916,-220.557 619.452,-204.291 599.158,-192.695"/>
<polygon fill="midnightblue" stroke="midnightblue" points="600.627,-189.503 590.208,-187.581 597.154,-195.581 600.627,-189.503"/>
</g>
<!-- Node41&#45;&gt;Node25 -->
<g id="edge93" class="edge"><title>Node41&#45;&gt;Node25</title>
<path fill="none" stroke="midnightblue" d="M633.187,-230.531C565.905,-218.408 443.6,-196.371 383.083,-185.467"/>
<polygon fill="midnightblue" stroke="midnightblue" points="383.685,-182.019 373.223,-183.69 382.444,-188.908 383.685,-182.019"/>
</g>
<!-- Node42&#45;&gt;Node6 -->
<g id="edge99" class="edge"><title>Node42&#45;&gt;Node6</title>
<path fill="none" stroke="midnightblue" d="M1243.12,-230.413C1220.84,-221.555 1186.66,-206.453 1160.19,-188 1114.98,-156.48 1070.71,-108.414 1049.01,-83.4064"/>
<polygon fill="midnightblue" stroke="midnightblue" points="1051.48,-80.9052 1042.31,-75.5876 1046.16,-85.4592 1051.48,-80.9052"/>
</g>
<!-- Node42&#45;&gt;Node7 -->
<g id="edge100" class="edge"><title>Node42&#45;&gt;Node7</title>
<path fill="none" stroke="midnightblue" d="M1272.15,-230.234C1290.62,-203.086 1347.09,-120.067 1371.62,-84.0117"/>
<polygon fill="midnightblue" stroke="midnightblue" points="1374.65,-85.7811 1377.38,-75.5442 1368.86,-81.844 1374.65,-85.7811"/>
</g>
<!-- Node42&#45;&gt;Node18 -->
<g id="edge101" class="edge"><title>Node42&#45;&gt;Node18</title>
<path fill="none" stroke="midnightblue" d="M1259.74,-230.403C1252.99,-221.403 1242.22,-207.041 1233.78,-195.782"/>
<polygon fill="midnightblue" stroke="midnightblue" points="1236.43,-193.481 1227.63,-187.581 1230.83,-197.681 1236.43,-193.481"/>
</g>
<!-- Node42&#45;&gt;Node19 -->
<g id="edge103" class="edge"><title>Node42&#45;&gt;Node19</title>
<path fill="none" stroke="midnightblue" d="M1271.39,-230.303C1278.92,-216.512 1290.93,-189.038 1281.19,-168 1275.27,-155.207 1263.72,-144.722 1252.91,-137.1"/>
<polygon fill="midnightblue" stroke="midnightblue" points="1254.81,-134.158 1244.53,-131.613 1250.98,-140.016 1254.81,-134.158"/>
</g>
<!-- Node42&#45;&gt;Node37 -->
<g id="edge102" class="edge"><title>Node42&#45;&gt;Node37</title>
<path fill="none" stroke="midnightblue" d="M1321.53,-231.522C1409.12,-219.686 1578.28,-196.827 1661.51,-185.578"/>
<polygon fill="midnightblue" stroke="midnightblue" points="1662.03,-189.041 1671.47,-184.233 1661.09,-182.104 1662.03,-189.041"/>
</g>
<!-- Node43&#45;&gt;Node21 -->
<g id="edge108" class="edge"><title>Node43&#45;&gt;Node21</title>
<path fill="none" stroke="midnightblue" d="M2215.54,-348.281C2218.45,-329.547 2225.35,-285.098 2229.29,-259.682"/>
<polygon fill="midnightblue" stroke="midnightblue" points="2232.8,-259.923 2230.87,-249.505 2225.88,-258.85 2232.8,-259.923"/>
</g>
<!-- Node44&#45;&gt;Node4 -->
<g id="edge110" class="edge"><title>Node44&#45;&gt;Node4</title>
<path fill="none" stroke="midnightblue" d="M1651.92,-356.84C1424.57,-355.925 534.57,-349.946 257.192,-312 153.809,-297.857 93.5766,-338.113 29.1916,-256 -10.2989,-205.636 -9.05877,-163.312 29.1916,-112 48.9596,-85.4817 83.74,-73.9748 114.942,-69.2147"/>
<polygon fill="midnightblue" stroke="midnightblue" points="115.467,-72.6758 124.923,-67.8959 114.55,-65.7361 115.467,-72.6758"/>
</g>
<!-- Node44&#45;&gt;Node5 -->
<g id="edge111" class="edge"><title>Node44&#45;&gt;Node5</title>
<path fill="none" stroke="midnightblue" d="M1652.11,-356.805C1576,-355.27 1441.63,-347.455 1411.19,-312 1385.71,-282.326 1390.72,-257.328 1411.19,-224 1429.71,-193.852 1459.4,-215.06 1482.19,-188 1493.23,-174.889 1498.19,-155.743 1500.4,-141.624"/>
<polygon fill="midnightblue" stroke="midnightblue" points="1503.89,-141.947 1501.66,-131.59 1496.94,-141.078 1503.89,-141.947"/>
</g>
<!-- Node44&#45;&gt;Node20 -->
<g id="edge115" class="edge"><title>Node44&#45;&gt;Node20</title>
<path fill="none" stroke="midnightblue" d="M1706.56,-348.138C1708.83,-335.19 1714.13,-310.619 1724.19,-292 1743.07,-257.051 1750.97,-248.554 1782.19,-224 1799.3,-210.545 1821.07,-199.453 1838.8,-191.647"/>
<polygon fill="midnightblue" stroke="midnightblue" points="1840.34,-194.793 1848.17,-187.655 1837.6,-188.352 1840.34,-194.793"/>
</g>
<!-- Node45 -->
<g id="node45" class="node"><title>Node45</title>
<g id="a_node45"><a xlink:href="expr-value_8h.html" target="_top" xlink:title="exprs/expr&#45;value.h">
<polygon fill="white" stroke="red" points="1822.69,-292.5 1822.69,-311.5 1919.69,-311.5 1919.69,-292.5 1822.69,-292.5"/>
<text text-anchor="middle" x="1871.19" y="-299.5" font-family="Helvetica,sans-Serif" font-size="10.00">exprs/expr&#45;value.h</text>
</a>
</g>
</g>
<!-- Node44&#45;&gt;Node45 -->
<g id="edge112" class="edge"><title>Node44&#45;&gt;Node45</title>
<path fill="none" stroke="midnightblue" d="M1731.49,-348.444C1759.54,-339.32 1804.14,-324.813 1835.38,-314.651"/>
<polygon fill="midnightblue" stroke="midnightblue" points="1836.58,-317.938 1845.01,-311.516 1834.42,-311.282 1836.58,-317.938"/>
</g>
<!-- Node45&#45;&gt;Node36 -->
<g id="edge113" class="edge"><title>Node45&#45;&gt;Node36</title>
<path fill="none" stroke="midnightblue" d="M1824.97,-292.467C1766.37,-281.649 1665.41,-263.009 1602.41,-251.378"/>
<polygon fill="midnightblue" stroke="midnightblue" points="1602.72,-247.877 1592.25,-249.503 1601.45,-254.761 1602.72,-247.877"/>
</g>
<!-- Node45&#45;&gt;Node38 -->
<g id="edge114" class="edge"><title>Node45&#45;&gt;Node38</title>
<path fill="none" stroke="midnightblue" d="M1904.43,-292.403C1945.43,-281.799 2015.22,-263.751 2060.25,-252.107"/>
<polygon fill="midnightblue" stroke="midnightblue" points="2061.21,-255.473 2070.01,-249.581 2059.46,-248.696 2061.21,-255.473"/>
</g>
<!-- Node46&#45;&gt;Node21 -->
<g id="edge118" class="edge"><title>Node46&#45;&gt;Node21</title>
<path fill="none" stroke="midnightblue" d="M2053.99,-292.403C2090.44,-281.889 2152.27,-264.054 2192.67,-252.402"/>
<polygon fill="midnightblue" stroke="midnightblue" points="2193.81,-255.715 2202.45,-249.581 2191.87,-248.989 2193.81,-255.715"/>
</g>
<!-- Node46&#45;&gt;Node37 -->
<g id="edge119" class="edge"><title>Node46&#45;&gt;Node37</title>
<path fill="none" stroke="midnightblue" d="M2022.92,-292.177C2020.08,-275.867 2011.6,-241.108 1989.19,-224 1971.2,-210.262 1834.13,-192.943 1759.03,-184.347"/>
<polygon fill="midnightblue" stroke="midnightblue" points="1759.2,-180.843 1748.87,-183.193 1758.41,-187.798 1759.2,-180.843"/>
</g>
<!-- Node46&#45;&gt;Node38 -->
<g id="edge117" class="edge"><title>Node46&#45;&gt;Node38</title>
<path fill="none" stroke="midnightblue" d="M2035.51,-292.403C2048.06,-282.869 2068.54,-267.315 2083.69,-255.811"/>
<polygon fill="midnightblue" stroke="midnightblue" points="2086.05,-258.416 2091.89,-249.581 2081.81,-252.842 2086.05,-258.416"/>
</g>
<!-- Node46&#45;&gt;Node47 -->
<g id="edge120" class="edge"><title>Node46&#45;&gt;Node47</title>
<path fill="none" stroke="midnightblue" d="M2011.15,-292.403C1996.42,-282.691 1972.22,-266.732 1954.68,-255.17"/>
<polygon fill="midnightblue" stroke="midnightblue" points="1956.48,-252.163 1946.21,-249.581 1952.63,-258.007 1956.48,-252.163"/>
</g>
<!-- Node48&#45;&gt;Node3 -->
<g id="edge125" class="edge"><title>Node48&#45;&gt;Node3</title>
<path fill="none" stroke="midnightblue" d="M557.925,-231.092C578.813,-228.507 602.521,-225.833 624.192,-224 785.812,-210.329 1201.66,-245.84 1353.19,-188 1403.38,-168.842 1397.81,-133.168 1447.19,-112 1475.68,-99.7889 1680.72,-78.1254 1760,-70.1017"/>
<polygon fill="midnightblue" stroke="midnightblue" points="1760.73,-73.5467 1770.33,-69.0625 1760.03,-66.5819 1760.73,-73.5467"/>
</g>
<!-- Node48&#45;&gt;Node4 -->
<g id="edge123" class="edge"><title>Node48&#45;&gt;Node4</title>
<path fill="none" stroke="midnightblue" d="M485.715,-230.326C464.161,-216.566 420.463,-189.134 382.192,-168 320.965,-134.19 246.985,-98.4584 207.754,-79.8994"/>
<polygon fill="midnightblue" stroke="midnightblue" points="209.095,-76.6622 198.557,-75.5626 206.109,-82.9936 209.095,-76.6622"/>
</g>
<!-- Node48&#45;&gt;Node6 -->
<g id="edge124" class="edge"><title>Node48&#45;&gt;Node6</title>
<path fill="none" stroke="midnightblue" d="M495.628,-230.487C490.178,-215.965 481.826,-186.21 496.192,-168 559.544,-87.6976 896.268,-71.0436 1002.83,-67.765"/>
<polygon fill="midnightblue" stroke="midnightblue" points="1003.08,-71.2594 1012.97,-67.4726 1002.88,-64.2623 1003.08,-71.2594"/>
</g>
<!-- Node48&#45;&gt;Node10 -->
<g id="edge127" class="edge"><title>Node48&#45;&gt;Node10</title>
<path fill="none" stroke="midnightblue" d="M535.598,-230.467C581.186,-219.783 659.325,-201.469 709.056,-189.813"/>
<polygon fill="midnightblue" stroke="midnightblue" points="709.973,-193.193 718.91,-187.503 708.376,-186.378 709.973,-193.193"/>
</g>
<!-- Node48&#45;&gt;Node12 -->
<g id="edge129" class="edge"><title>Node48&#45;&gt;Node12</title>
<path fill="none" stroke="midnightblue" d="M490.803,-230.494C482.081,-221.025 468.917,-204.827 463.192,-188 451.381,-153.291 453.341,-109.723 455.791,-85.4706"/>
<polygon fill="midnightblue" stroke="midnightblue" points="459.27,-85.8485 456.939,-75.5133 452.316,-85.0465 459.27,-85.8485"/>
</g>
<!-- Node48&#45;&gt;Node19 -->
<g id="edge130" class="edge"><title>Node48&#45;&gt;Node19</title>
<path fill="none" stroke="midnightblue" d="M552.797,-230.47C685.122,-209.414 1026.68,-155.064 1166.82,-132.766"/>
<polygon fill="midnightblue" stroke="midnightblue" points="1167.63,-136.182 1176.95,-131.153 1166.53,-129.268 1167.63,-136.182"/>
</g>
<!-- Node48&#45;&gt;Node24 -->
<g id="edge128" class="edge"><title>Node48&#45;&gt;Node24</title>
<path fill="none" stroke="midnightblue" d="M510.081,-230.403C522.158,-220.869 541.859,-205.315 556.432,-193.811"/>
<polygon fill="midnightblue" stroke="midnightblue" points="558.643,-196.524 564.323,-187.581 554.305,-191.03 558.643,-196.524"/>
</g>
<!-- Node48&#45;&gt;Node25 -->
<g id="edge126" class="edge"><title>Node48&#45;&gt;Node25</title>
<path fill="none" stroke="midnightblue" d="M477.414,-230.403C451.453,-220.156 407.88,-202.956 378.357,-191.302"/>
<polygon fill="midnightblue" stroke="midnightblue" points="379.516,-187.997 368.929,-187.581 376.946,-194.508 379.516,-187.997"/>
</g>
<!-- Node49&#45;&gt;Node3 -->
<g id="edge133" class="edge"><title>Node49&#45;&gt;Node3</title>
<path fill="none" stroke="midnightblue" d="M405.317,-230.44C413.436,-227.916 422.612,-225.445 431.192,-224 617.623,-192.594 1099.62,-240.677 1281.19,-188 1346.21,-169.138 1348.94,-133.324 1413.19,-112 1445.9,-101.143 1676.3,-78.0998 1760.49,-69.9396"/>
<polygon fill="midnightblue" stroke="midnightblue" points="1761.07,-73.3998 1770.68,-68.9546 1760.39,-66.4323 1761.07,-73.3998"/>
</g>
<!-- Node49&#45;&gt;Node23 -->
<g id="edge135" class="edge"><title>Node49&#45;&gt;Node23</title>
<path fill="none" stroke="midnightblue" d="M361.563,-230.403C338.368,-220.245 299.573,-203.255 272.978,-191.607"/>
<polygon fill="midnightblue" stroke="midnightblue" points="274.348,-188.386 263.784,-187.581 271.54,-194.798 274.348,-188.386"/>
</g>
<!-- Node49&#45;&gt;Node24 -->
<g id="edge136" class="edge"><title>Node49&#45;&gt;Node24</title>
<path fill="none" stroke="midnightblue" d="M408.987,-230.403C442.841,-219.933 500.162,-202.205 537.846,-190.55"/>
<polygon fill="midnightblue" stroke="midnightblue" points="538.928,-193.879 547.448,-187.581 536.86,-187.192 538.928,-193.879"/>
</g>
<!-- Node49&#45;&gt;Node25 -->
<g id="edge134" class="edge"><title>Node49&#45;&gt;Node25</title>
<path fill="none" stroke="midnightblue" d="M376.32,-230.403C371.321,-221.582 363.403,-207.608 357.083,-196.455"/>
<polygon fill="midnightblue" stroke="midnightblue" points="360.029,-194.555 352.054,-187.581 353.939,-198.006 360.029,-194.555"/>
</g>
</g>
</svg>
