<?xml version="1.0" encoding="UTF-8" standalone="no"?>
<!DOCTYPE svg PUBLIC "-//W3C//DTD SVG 1.1//EN"
 "http://www.w3.org/Graphics/SVG/1.1/DTD/svg11.dtd">
<!-- Generated by graphviz version 2.36.0 (20140111.2315)
 -->
<!-- Title: be/src/exec/aggregation&#45;node.h Pages: 1 -->
<svg width="533pt" height="108pt"
 viewBox="0.00 0.00 533.00 108.00" xmlns="http://www.w3.org/2000/svg" xmlns:xlink="http://www.w3.org/1999/xlink">
<g id="graph0" class="graph" transform="scale(1 1) rotate(0) translate(4 104)">
<title>be/src/exec/aggregation&#45;node.h</title>
<polygon fill="white" stroke="none" points="-4,4 -4,-104 529,-104 529,4 -4,4"/>
<!-- Node1 -->
<g id="node1" class="node"><title>Node1</title>
<polygon fill="#bfbfbf" stroke="black" points="209.5,-69 209.5,-99 330.5,-99 330.5,-69 209.5,-69"/>
<text text-anchor="start" x="217.5" y="-87" font-family="Helvetica,sans-Serif" font-size="10.00">be/src/exec/aggregation</text>
<text text-anchor="middle" x="270" y="-76" font-family="Helvetica,sans-Serif" font-size="10.00">&#45;node.h</text>
</g>
<!-- Node2 -->
<g id="node2" class="node"><title>Node2</title>
<g id="a_node2"><a xlink:href="aggregation-node-ir_8cc.html" target="_top" xlink:title="be/src/exec/aggregation\l&#45;node&#45;ir.cc">
<polygon fill="white" stroke="black" points="-0.5,-1 -0.5,-31 120.5,-31 120.5,-1 -0.5,-1"/>
<text text-anchor="start" x="7.5" y="-19" font-family="Helvetica,sans-Serif" font-size="10.00">be/src/exec/aggregation</text>
<text text-anchor="middle" x="60" y="-8" font-family="Helvetica,sans-Serif" font-size="10.00">&#45;node&#45;ir.cc</text>
</a>
</g>
</g>
<!-- Node1&#45;&gt;Node2 -->
<g id="edge1" class="edge"><title>Node1&#45;&gt;Node2</title>
<path fill="none" stroke="midnightblue" d="M215.313,-65.8127C180.902,-54.9979 137.05,-41.2157 104.724,-31.0561"/>
<polygon fill="midnightblue" stroke="midnightblue" points="214.618,-69.2629 225.207,-68.9223 216.717,-62.585 214.618,-69.2629"/>
</g>
<!-- Node3 -->
<g id="node3" class="node"><title>Node3</title>
<g id="a_node3"><a xlink:href="aggregation-node_8cc.html" target="_top" xlink:title="be/src/exec/aggregation\l&#45;node.cc">
<polygon fill="white" stroke="black" points="138.5,-1 138.5,-31 259.5,-31 259.5,-1 138.5,-1"/>
<text text-anchor="start" x="146.5" y="-19" font-family="Helvetica,sans-Serif" font-size="10.00">be/src/exec/aggregation</text>
<text text-anchor="middle" x="199" y="-8" font-family="Helvetica,sans-Serif" font-size="10.00">&#45;node.cc</text>
</a>
</g>
</g>
<!-- Node1&#45;&gt;Node3 -->
<g id="edge2" class="edge"><title>Node1&#45;&gt;Node3</title>
<path fill="none" stroke="midnightblue" d="M247.168,-61.7762C236.448,-51.8105 223.953,-40.1956 214.376,-31.2931"/>
<polygon fill="midnightblue" stroke="midnightblue" points="244.887,-64.434 254.594,-68.679 249.653,-59.307 244.887,-64.434"/>
</g>
<!-- Node4 -->
<g id="node4" class="node"><title>Node4</title>
<g id="a_node4"><a xlink:href="exec-node_8cc.html" target="_top" xlink:title="be/src/exec/exec&#45;node.cc">
<polygon fill="white" stroke="black" points="277.5,-6.5 277.5,-25.5 406.5,-25.5 406.5,-6.5 277.5,-6.5"/>
<text text-anchor="middle" x="342" y="-13.5" font-family="Helvetica,sans-Serif" font-size="10.00">be/src/exec/exec&#45;node.cc</text>
</a>
</g>
</g>
<!-- Node1&#45;&gt;Node4 -->
<g id="edge3" class="edge"><title>Node1&#45;&gt;Node4</title>
<path fill="none" stroke="midnightblue" d="M293.071,-61.8517C306.365,-49.6656 322.371,-34.9929 332.369,-25.8283"/>
<polygon fill="midnightblue" stroke="midnightblue" points="290.629,-59.3417 285.623,-68.679 295.36,-64.5018 290.629,-59.3417"/>
</g>
<!-- Node5 -->
<g id="node5" class="node"><title>Node5</title>
<g id="a_node5"><a xlink:href="agg-fn-evaluator_8cc.html" target="_top" xlink:title="be/src/exprs/agg&#45;fn\l&#45;evaluator.cc">
<polygon fill="white" stroke="black" points="424.5,-1 424.5,-31 525.5,-31 525.5,-1 424.5,-1"/>
<text text-anchor="start" x="432.5" y="-19" font-family="Helvetica,sans-Serif" font-size="10.00">be/src/exprs/agg&#45;fn</text>
<text text-anchor="middle" x="475" y="-8" font-family="Helvetica,sans-Serif" font-size="10.00">&#45;evaluator.cc</text>
</a>
</g>
</g>
<!-- Node1&#45;&gt;Node5 -->
<g id="edge4" class="edge"><title>Node1&#45;&gt;Node5</title>
<path fill="none" stroke="midnightblue" d="M323.385,-65.8127C356.976,-54.9979 399.784,-41.2157 431.341,-31.0561"/>
<polygon fill="midnightblue" stroke="midnightblue" points="322.172,-62.526 313.726,-68.9223 324.318,-69.1892 322.172,-62.526"/>
</g>
</g>
</svg>
