<?xml version="1.0" encoding="UTF-8" standalone="no"?>
<!DOCTYPE svg PUBLIC "-//W3C//DTD SVG 1.1//EN"
 "http://www.w3.org/Graphics/SVG/1.1/DTD/svg11.dtd">
<!-- Generated by graphviz version 2.36.0 (20140111.2315)
 -->
<!-- Title: be/src/exec/base&#45;sequence&#45;scanner.h Pages: 1 -->
<svg width="688pt" height="176pt"
 viewBox="0.00 0.00 688.00 176.00" xmlns="http://www.w3.org/2000/svg" xmlns:xlink="http://www.w3.org/1999/xlink">
<g id="graph0" class="graph" transform="scale(1 1) rotate(0) translate(4 172)">
<title>be/src/exec/base&#45;sequence&#45;scanner.h</title>
<polygon fill="white" stroke="none" points="-4,4 -4,-172 684,-172 684,4 -4,4"/>
<!-- Node1 -->
<g id="node1" class="node"><title>Node1</title>
<polygon fill="#bfbfbf" stroke="black" points="225.5,-137 225.5,-167 362.5,-167 362.5,-137 225.5,-137"/>
<text text-anchor="start" x="233.5" y="-155" font-family="Helvetica,sans-Serif" font-size="10.00">be/src/exec/base&#45;sequence</text>
<text text-anchor="middle" x="294" y="-144" font-family="Helvetica,sans-Serif" font-size="10.00">&#45;scanner.h</text>
</g>
<!-- Node2 -->
<g id="node2" class="node"><title>Node2</title>
<g id="a_node2"><a xlink:href="base-sequence-scanner_8cc.html" target="_top" xlink:title="be/src/exec/base&#45;sequence\l&#45;scanner.cc">
<polygon fill="white" stroke="black" points="-0.5,-69 -0.5,-99 136.5,-99 136.5,-69 -0.5,-69"/>
<text text-anchor="start" x="7.5" y="-87" font-family="Helvetica,sans-Serif" font-size="10.00">be/src/exec/base&#45;sequence</text>
<text text-anchor="middle" x="68" y="-76" font-family="Helvetica,sans-Serif" font-size="10.00">&#45;scanner.cc</text>
</a>
</g>
</g>
<!-- Node1&#45;&gt;Node2 -->
<g id="edge1" class="edge"><title>Node1&#45;&gt;Node2</title>
<path fill="none" stroke="midnightblue" d="M236.098,-134.091C198.925,-123.235 151.219,-109.303 116.131,-99.0561"/>
<polygon fill="midnightblue" stroke="midnightblue" points="235.214,-137.479 245.795,-136.922 237.177,-130.759 235.214,-137.479"/>
</g>
<!-- Node3 -->
<g id="node3" class="node"><title>Node3</title>
<g id="a_node3"><a xlink:href="hdfs-avro-scanner_8h.html" target="_top" xlink:title="be/src/exec/hdfs&#45;avro\l&#45;scanner.h">
<polygon fill="white" stroke="black" points="154.5,-69 154.5,-99 265.5,-99 265.5,-69 154.5,-69"/>
<text text-anchor="start" x="162.5" y="-87" font-family="Helvetica,sans-Serif" font-size="10.00">be/src/exec/hdfs&#45;avro</text>
<text text-anchor="middle" x="210" y="-76" font-family="Helvetica,sans-Serif" font-size="10.00">&#45;scanner.h</text>
</a>
</g>
</g>
<!-- Node1&#45;&gt;Node3 -->
<g id="edge2" class="edge"><title>Node1&#45;&gt;Node3</title>
<path fill="none" stroke="midnightblue" d="M267.667,-130.309C254.727,-120.143 239.472,-108.156 227.903,-99.0663"/>
<polygon fill="midnightblue" stroke="midnightblue" points="265.748,-133.253 275.773,-136.679 270.072,-127.749 265.748,-133.253"/>
</g>
<!-- Node6 -->
<g id="node6" class="node"><title>Node6</title>
<g id="a_node6"><a xlink:href="hdfs-scan-node_8cc.html" target="_top" xlink:title="be/src/exec/hdfs&#45;scan\l&#45;node.cc">
<polygon fill="white" stroke="black" points="283.5,-1 283.5,-31 396.5,-31 396.5,-1 283.5,-1"/>
<text text-anchor="start" x="291.5" y="-19" font-family="Helvetica,sans-Serif" font-size="10.00">be/src/exec/hdfs&#45;scan</text>
<text text-anchor="middle" x="340" y="-8" font-family="Helvetica,sans-Serif" font-size="10.00">&#45;node.cc</text>
</a>
</g>
</g>
<!-- Node1&#45;&gt;Node6 -->
<g id="edge9" class="edge"><title>Node1&#45;&gt;Node6</title>
<path fill="none" stroke="midnightblue" d="M298.266,-126.813C301.604,-110.014 306.878,-87.2745 314,-68 318.754,-55.1352 325.938,-41.3203 331.55,-31.3179"/>
<polygon fill="midnightblue" stroke="midnightblue" points="294.778,-126.421 296.351,-136.899 301.655,-127.727 294.778,-126.421"/>
</g>
<!-- Node7 -->
<g id="node7" class="node"><title>Node7</title>
<g id="a_node7"><a xlink:href="hdfs-rcfile-scanner_8h.html" target="_top" xlink:title="be/src/exec/hdfs&#45;rcfile\l&#45;scanner.h">
<polygon fill="white" stroke="black" points="322.5,-69 322.5,-99 435.5,-99 435.5,-69 322.5,-69"/>
<text text-anchor="start" x="330.5" y="-87" font-family="Helvetica,sans-Serif" font-size="10.00">be/src/exec/hdfs&#45;rcfile</text>
<text text-anchor="middle" x="379" y="-76" font-family="Helvetica,sans-Serif" font-size="10.00">&#45;scanner.h</text>
</a>
</g>
</g>
<!-- Node1&#45;&gt;Node7 -->
<g id="edge6" class="edge"><title>Node1&#45;&gt;Node7</title>
<path fill="none" stroke="midnightblue" d="M320.647,-130.309C333.741,-120.143 349.178,-108.156 360.884,-99.0663"/>
<polygon fill="midnightblue" stroke="midnightblue" points="318.196,-127.781 312.444,-136.679 322.489,-133.31 318.196,-127.781"/>
</g>
<!-- Node9 -->
<g id="node9" class="node"><title>Node9</title>
<g id="a_node9"><a xlink:href="hdfs-sequence-scanner_8h.html" target="_top" xlink:title="be/src/exec/hdfs&#45;sequence\l&#45;scanner.h">
<polygon fill="white" stroke="black" points="454,-69 454,-99 588,-99 588,-69 454,-69"/>
<text text-anchor="start" x="462" y="-87" font-family="Helvetica,sans-Serif" font-size="10.00">be/src/exec/hdfs&#45;sequence</text>
<text text-anchor="middle" x="521" y="-76" font-family="Helvetica,sans-Serif" font-size="10.00">&#45;scanner.h</text>
</a>
</g>
</g>
<!-- Node1&#45;&gt;Node9 -->
<g id="edge10" class="edge"><title>Node1&#45;&gt;Node9</title>
<path fill="none" stroke="midnightblue" d="M352.158,-134.091C389.496,-123.235 437.413,-109.303 472.656,-99.0561"/>
<polygon fill="midnightblue" stroke="midnightblue" points="351.044,-130.77 342.419,-136.922 352.998,-137.491 351.044,-130.77"/>
</g>
<!-- Node4 -->
<g id="node4" class="node"><title>Node4</title>
<g id="a_node4"><a xlink:href="hdfs-avro-scanner-ir_8cc.html" target="_top" xlink:title="be/src/exec/hdfs&#45;avro\l&#45;scanner&#45;ir.cc">
<polygon fill="white" stroke="black" points="154.5,-1 154.5,-31 265.5,-31 265.5,-1 154.5,-1"/>
<text text-anchor="start" x="162.5" y="-19" font-family="Helvetica,sans-Serif" font-size="10.00">be/src/exec/hdfs&#45;avro</text>
<text text-anchor="middle" x="210" y="-8" font-family="Helvetica,sans-Serif" font-size="10.00">&#45;scanner&#45;ir.cc</text>
</a>
</g>
</g>
<!-- Node3&#45;&gt;Node4 -->
<g id="edge3" class="edge"><title>Node3&#45;&gt;Node4</title>
<path fill="none" stroke="midnightblue" d="M210,-58.5322C210,-49.3606 210,-39.2449 210,-31.2931"/>
<polygon fill="midnightblue" stroke="midnightblue" points="206.5,-58.6789 210,-68.679 213.5,-58.679 206.5,-58.6789"/>
</g>
<!-- Node5 -->
<g id="node5" class="node"><title>Node5</title>
<g id="a_node5"><a xlink:href="hdfs-avro-scanner_8cc.html" target="_top" xlink:title="be/src/exec/hdfs&#45;avro\l&#45;scanner.cc">
<polygon fill="white" stroke="black" points="25.5,-1 25.5,-31 136.5,-31 136.5,-1 25.5,-1"/>
<text text-anchor="start" x="33.5" y="-19" font-family="Helvetica,sans-Serif" font-size="10.00">be/src/exec/hdfs&#45;avro</text>
<text text-anchor="middle" x="81" y="-8" font-family="Helvetica,sans-Serif" font-size="10.00">&#45;scanner.cc</text>
</a>
</g>
</g>
<!-- Node3&#45;&gt;Node5 -->
<g id="edge4" class="edge"><title>Node3&#45;&gt;Node5</title>
<path fill="none" stroke="midnightblue" d="M173.248,-64.1968C152.693,-53.6802 127.492,-40.7868 108.628,-31.1352"/>
<polygon fill="midnightblue" stroke="midnightblue" points="171.83,-67.4024 182.326,-68.8413 175.018,-61.1707 171.83,-67.4024"/>
</g>
<!-- Node3&#45;&gt;Node6 -->
<g id="edge5" class="edge"><title>Node3&#45;&gt;Node6</title>
<path fill="none" stroke="midnightblue" d="M247.037,-64.1968C267.751,-53.6802 293.147,-40.7868 312.158,-31.1352"/>
<polygon fill="midnightblue" stroke="midnightblue" points="245.22,-61.1935 237.888,-68.8413 248.389,-67.4352 245.22,-61.1935"/>
</g>
<!-- Node7&#45;&gt;Node6 -->
<g id="edge8" class="edge"><title>Node7&#45;&gt;Node6</title>
<path fill="none" stroke="midnightblue" d="M365.42,-60.0187C359.776,-50.4665 353.4,-39.677 348.446,-31.2931"/>
<polygon fill="midnightblue" stroke="midnightblue" points="362.437,-61.8503 370.538,-68.679 368.463,-58.2891 362.437,-61.8503"/>
</g>
<!-- Node8 -->
<g id="node8" class="node"><title>Node8</title>
<g id="a_node8"><a xlink:href="hdfs-rcfile-scanner_8cc.html" target="_top" xlink:title="be/src/exec/hdfs&#45;rcfile\l&#45;scanner.cc">
<polygon fill="white" stroke="black" points="414.5,-1 414.5,-31 527.5,-31 527.5,-1 414.5,-1"/>
<text text-anchor="start" x="422.5" y="-19" font-family="Helvetica,sans-Serif" font-size="10.00">be/src/exec/hdfs&#45;rcfile</text>
<text text-anchor="middle" x="471" y="-8" font-family="Helvetica,sans-Serif" font-size="10.00">&#45;scanner.cc</text>
</a>
</g>
</g>
<!-- Node7&#45;&gt;Node8 -->
<g id="edge7" class="edge"><title>Node7&#45;&gt;Node8</title>
<path fill="none" stroke="midnightblue" d="M407.437,-62.5994C421.695,-52.3712 438.601,-40.2428 451.392,-31.0663"/>
<polygon fill="midnightblue" stroke="midnightblue" points="405.048,-60.006 398.963,-68.679 409.128,-65.6938 405.048,-60.006"/>
</g>
<!-- Node9&#45;&gt;Node6 -->
<g id="edge12" class="edge"><title>Node9&#45;&gt;Node6</title>
<path fill="none" stroke="midnightblue" d="M472.492,-65.3119C443.013,-54.5627 405.897,-41.0287 378.454,-31.0218"/>
<polygon fill="midnightblue" stroke="midnightblue" points="471.577,-68.7037 482.171,-68.8413 473.975,-62.1273 471.577,-68.7037"/>
</g>
<!-- Node9&#45;&gt;Node8 -->
<g id="edge11" class="edge"><title>Node9&#45;&gt;Node8</title>
<path fill="none" stroke="midnightblue" d="M504.036,-60.608C496.691,-50.9125 488.311,-39.8499 481.828,-31.2931"/>
<polygon fill="midnightblue" stroke="midnightblue" points="501.322,-62.8216 510.151,-68.679 506.902,-58.5945 501.322,-62.8216"/>
</g>
<!-- Node10 -->
<g id="node10" class="node"><title>Node10</title>
<g id="a_node10"><a xlink:href="hdfs-sequence-scanner_8cc.html" target="_top" xlink:title="be/src/exec/hdfs&#45;sequence\l&#45;scanner.cc">
<polygon fill="white" stroke="black" points="546,-1 546,-31 680,-31 680,-1 546,-1"/>
<text text-anchor="start" x="554" y="-19" font-family="Helvetica,sans-Serif" font-size="10.00">be/src/exec/hdfs&#45;sequence</text>
<text text-anchor="middle" x="613" y="-8" font-family="Helvetica,sans-Serif" font-size="10.00">&#45;scanner.cc</text>
</a>
</g>
</g>
<!-- Node9&#45;&gt;Node10 -->
<g id="edge13" class="edge"><title>Node9&#45;&gt;Node10</title>
<path fill="none" stroke="midnightblue" d="M549.437,-62.5994C563.695,-52.3712 580.601,-40.2428 593.392,-31.0663"/>
<polygon fill="midnightblue" stroke="midnightblue" points="547.048,-60.006 540.963,-68.679 551.128,-65.6938 547.048,-60.006"/>
</g>
</g>
</svg>
