<?xml version="1.0" encoding="UTF-8" standalone="no"?>
<!DOCTYPE svg PUBLIC "-//W3C//DTD SVG 1.1//EN"
 "http://www.w3.org/Graphics/SVG/1.1/DTD/svg11.dtd">
<!-- Generated by graphviz version 2.36.0 (20140111.2315)
 -->
<!-- Title: be/src/util/benchmark.cc Pages: 1 -->
<svg width="1825pt" height="208pt"
 viewBox="0.00 0.00 1825.00 208.00" xmlns="http://www.w3.org/2000/svg" xmlns:xlink="http://www.w3.org/1999/xlink">
<g id="graph0" class="graph" transform="scale(1 1) rotate(0) translate(4 204)">
<title>be/src/util/benchmark.cc</title>
<polygon fill="white" stroke="none" points="-4,4 -4,-204 1821,-204 1821,4 -4,4"/>
<!-- Node1 -->
<g id="node1" class="node"><title>Node1</title>
<polygon fill="#bfbfbf" stroke="black" points="272,-180.5 272,-199.5 396,-199.5 396,-180.5 272,-180.5"/>
<text text-anchor="middle" x="334" y="-187.5" font-family="Helvetica,sans-Serif" font-size="10.00">be/src/util/benchmark.cc</text>
</g>
<!-- Node2 -->
<g id="node2" class="node"><title>Node2</title>
<polygon fill="white" stroke="#bfbfbf" points="0,-124.5 0,-143.5 50,-143.5 50,-124.5 0,-124.5"/>
<text text-anchor="middle" x="25" y="-131.5" font-family="Helvetica,sans-Serif" font-size="10.00">iomanip</text>
</g>
<!-- Node1&#45;&gt;Node2 -->
<g id="edge1" class="edge"><title>Node1&#45;&gt;Node2</title>
<path fill="none" stroke="midnightblue" d="M271.972,-180.597C218.32,-172.931 138.497,-160.581 60.219,-144.095"/>
<polygon fill="midnightblue" stroke="midnightblue" points="60.6957,-140.618 50.1858,-141.957 59.2368,-147.464 60.6957,-140.618"/>
</g>
<!-- Node3 -->
<g id="node3" class="node"><title>Node3</title>
<polygon fill="white" stroke="#bfbfbf" points="68,-124.5 68,-143.5 122,-143.5 122,-124.5 68,-124.5"/>
<text text-anchor="middle" x="95" y="-131.5" font-family="Helvetica,sans-Serif" font-size="10.00">iostream</text>
</g>
<!-- Node1&#45;&gt;Node3 -->
<g id="edge2" class="edge"><title>Node1&#45;&gt;Node3</title>
<path fill="none" stroke="midnightblue" d="M293.87,-180.436C254.949,-172.057 193.978,-158.736 132.052,-144.202"/>
<polygon fill="midnightblue" stroke="midnightblue" points="132.644,-140.746 122.108,-141.86 131.039,-147.559 132.644,-140.746"/>
</g>
<!-- Node4 -->
<g id="node4" class="node"><title>Node4</title>
<polygon fill="white" stroke="#bfbfbf" points="485,-62.5 485,-81.5 537,-81.5 537,-62.5 485,-62.5"/>
<text text-anchor="middle" x="511" y="-69.5" font-family="Helvetica,sans-Serif" font-size="10.00">sstream</text>
</g>
<!-- Node1&#45;&gt;Node4 -->
<g id="edge3" class="edge"><title>Node1&#45;&gt;Node4</title>
<path fill="none" stroke="midnightblue" d="M359.975,-180.356C381.371,-172.592 411.984,-159.967 436,-144 459.432,-128.421 482.321,-105.26 496.526,-89.6681"/>
<polygon fill="midnightblue" stroke="midnightblue" points="499.428,-91.6731 503.473,-81.8809 494.204,-87.0132 499.428,-91.6731"/>
</g>
<!-- Node5 -->
<g id="node5" class="node"><title>Node5</title>
<g id="a_node5"><a xlink:href="benchmark_8h.html" target="_top" xlink:title="util/benchmark.h">
<polygon fill="white" stroke="black" points="140.5,-124.5 140.5,-143.5 229.5,-143.5 229.5,-124.5 140.5,-124.5"/>
<text text-anchor="middle" x="185" y="-131.5" font-family="Helvetica,sans-Serif" font-size="10.00">util/benchmark.h</text>
</a>
</g>
</g>
<!-- Node1&#45;&gt;Node5 -->
<g id="edge4" class="edge"><title>Node1&#45;&gt;Node5</title>
<path fill="none" stroke="midnightblue" d="M310.391,-180.444C285.542,-171.438 246.226,-157.189 218.246,-147.049"/>
<polygon fill="midnightblue" stroke="midnightblue" points="219.093,-143.633 208.499,-143.516 216.708,-150.214 219.093,-143.633"/>
</g>
<!-- Node8 -->
<g id="node8" class="node"><title>Node8</title>
<g id="a_node8"><a xlink:href="cpu-info_8h.html" target="_top" xlink:title="util/cpu&#45;info.h">
<polygon fill="white" stroke="black" points="247.5,-124.5 247.5,-143.5 322.5,-143.5 322.5,-124.5 247.5,-124.5"/>
<text text-anchor="middle" x="285" y="-131.5" font-family="Helvetica,sans-Serif" font-size="10.00">util/cpu&#45;info.h</text>
</a>
</g>
</g>
<!-- Node1&#45;&gt;Node8 -->
<g id="edge7" class="edge"><title>Node1&#45;&gt;Node8</title>
<path fill="none" stroke="midnightblue" d="M325.909,-180.083C318.845,-172.298 308.412,-160.801 299.851,-151.367"/>
<polygon fill="midnightblue" stroke="midnightblue" points="302.253,-148.805 292.941,-143.751 297.069,-153.509 302.253,-148.805"/>
</g>
<!-- Node13 -->
<g id="node13" class="node"><title>Node13</title>
<g id="a_node13"><a xlink:href="debug-util_8h.html" target="_top" xlink:title="util/debug&#45;util.h">
<polygon fill="white" stroke="black" points="941.5,-124.5 941.5,-143.5 1024.5,-143.5 1024.5,-124.5 941.5,-124.5"/>
<text text-anchor="middle" x="983" y="-131.5" font-family="Helvetica,sans-Serif" font-size="10.00">util/debug&#45;util.h</text>
</a>
</g>
</g>
<!-- Node1&#45;&gt;Node13 -->
<g id="edge13" class="edge"><title>Node1&#45;&gt;Node13</title>
<path fill="none" stroke="midnightblue" d="M396.229,-183.822C523.728,-173.214 812.573,-149.18 930.933,-139.332"/>
<polygon fill="midnightblue" stroke="midnightblue" points="931.499,-142.797 941.174,-138.48 930.918,-135.821 931.499,-142.797"/>
</g>
<!-- Node23 -->
<g id="node23" class="node"><title>Node23</title>
<g id="a_node23"><a xlink:href="stopwatch_8h.html" target="_top" xlink:title="util/stopwatch.h">
<polygon fill="white" stroke="black" points="341,-124.5 341,-143.5 427,-143.5 427,-124.5 341,-124.5"/>
<text text-anchor="middle" x="384" y="-131.5" font-family="Helvetica,sans-Serif" font-size="10.00">util/stopwatch.h</text>
</a>
</g>
</g>
<!-- Node1&#45;&gt;Node23 -->
<g id="edge25" class="edge"><title>Node1&#45;&gt;Node23</title>
<path fill="none" stroke="midnightblue" d="M342.256,-180.083C349.465,-172.298 360.11,-160.801 368.846,-151.367"/>
<polygon fill="midnightblue" stroke="midnightblue" points="371.671,-153.467 375.897,-143.751 366.535,-148.711 371.671,-153.467"/>
</g>
<!-- Node26 -->
<g id="node26" class="node"><title>Node26</title>
<g id="a_node26"><a xlink:href="names_8h.html" target="_top" xlink:title="common/names.h">
<polygon fill="white" stroke="black" points="1419.5,-124.5 1419.5,-143.5 1514.5,-143.5 1514.5,-124.5 1419.5,-124.5"/>
<text text-anchor="middle" x="1467" y="-131.5" font-family="Helvetica,sans-Serif" font-size="10.00">common/names.h</text>
</a>
</g>
</g>
<!-- Node1&#45;&gt;Node26 -->
<g id="edge30" class="edge"><title>Node1&#45;&gt;Node26</title>
<path fill="none" stroke="midnightblue" d="M396.124,-186.039C595.301,-176.546 1216.16,-146.955 1409.16,-137.757"/>
<polygon fill="midnightblue" stroke="midnightblue" points="1409.55,-141.242 1419.37,-137.27 1409.21,-134.25 1409.55,-141.242"/>
</g>
<!-- Node6 -->
<g id="node6" class="node"><title>Node6</title>
<polygon fill="white" stroke="#bfbfbf" points="121.5,-62.5 121.5,-81.5 162.5,-81.5 162.5,-62.5 121.5,-62.5"/>
<text text-anchor="middle" x="142" y="-69.5" font-family="Helvetica,sans-Serif" font-size="10.00">string</text>
</g>
<!-- Node5&#45;&gt;Node6 -->
<g id="edge5" class="edge"><title>Node5&#45;&gt;Node6</title>
<path fill="none" stroke="midnightblue" d="M178.839,-124.403C172.389,-115.403 162.096,-101.041 154.027,-89.7824"/>
<polygon fill="midnightblue" stroke="midnightblue" points="156.82,-87.6699 148.149,-81.5806 151.13,-91.7476 156.82,-87.6699"/>
</g>
<!-- Node7 -->
<g id="node7" class="node"><title>Node7</title>
<polygon fill="white" stroke="#bfbfbf" points="59,-62.5 59,-81.5 103,-81.5 103,-62.5 59,-62.5"/>
<text text-anchor="middle" x="81" y="-69.5" font-family="Helvetica,sans-Serif" font-size="10.00">vector</text>
</g>
<!-- Node5&#45;&gt;Node7 -->
<g id="edge6" class="edge"><title>Node5&#45;&gt;Node7</title>
<path fill="none" stroke="midnightblue" d="M170.099,-124.403C153.032,-114.557 124.839,-98.2915 104.738,-86.6949"/>
<polygon fill="midnightblue" stroke="midnightblue" points="106.284,-83.5462 95.873,-81.5806 102.786,-89.6095 106.284,-83.5462"/>
</g>
<!-- Node8&#45;&gt;Node6 -->
<g id="edge8" class="edge"><title>Node8&#45;&gt;Node6</title>
<path fill="none" stroke="midnightblue" d="M261.821,-124.428C238.809,-115.765 202.639,-101.731 172,-88 170.605,-87.3749 169.181,-86.7202 167.748,-86.0487"/>
<polygon fill="midnightblue" stroke="midnightblue" points="168.91,-82.7222 158.385,-81.5059 165.854,-89.0201 168.91,-82.7222"/>
</g>
<!-- Node9 -->
<g id="node9" class="node"><title>Node9</title>
<polygon fill="white" stroke="#bfbfbf" points="295,-62.5 295,-81.5 387,-81.5 387,-62.5 295,-62.5"/>
<text text-anchor="middle" x="341" y="-69.5" font-family="Helvetica,sans-Serif" font-size="10.00">boost/cstdint.hpp</text>
</g>
<!-- Node8&#45;&gt;Node9 -->
<g id="edge9" class="edge"><title>Node8&#45;&gt;Node9</title>
<path fill="none" stroke="midnightblue" d="M293.023,-124.403C301.59,-115.225 315.361,-100.47 325.957,-89.1173"/>
<polygon fill="midnightblue" stroke="midnightblue" points="328.727,-91.2793 332.991,-81.5806 323.61,-86.503 328.727,-91.2793"/>
</g>
<!-- Node10 -->
<g id="node10" class="node"><title>Node10</title>
<g id="a_node10"><a xlink:href="logging_8h.html" target="_top" xlink:title="common/logging.h">
<polygon fill="white" stroke="black" points="181,-62.5 181,-81.5 277,-81.5 277,-62.5 181,-62.5"/>
<text text-anchor="middle" x="229" y="-69.5" font-family="Helvetica,sans-Serif" font-size="10.00">common/logging.h</text>
</a>
</g>
</g>
<!-- Node8&#45;&gt;Node10 -->
<g id="edge10" class="edge"><title>Node8&#45;&gt;Node10</title>
<path fill="none" stroke="midnightblue" d="M276.977,-124.403C268.41,-115.225 254.639,-100.47 244.043,-89.1173"/>
<polygon fill="midnightblue" stroke="midnightblue" points="246.39,-86.503 237.009,-81.5806 241.273,-91.2793 246.39,-86.503"/>
</g>
<!-- Node11 -->
<g id="node11" class="node"><title>Node11</title>
<polygon fill="white" stroke="#bfbfbf" points="142.5,-0.5 142.5,-19.5 219.5,-19.5 219.5,-0.5 142.5,-0.5"/>
<text text-anchor="middle" x="181" y="-7.5" font-family="Helvetica,sans-Serif" font-size="10.00">glog/logging.h</text>
</g>
<!-- Node10&#45;&gt;Node11 -->
<g id="edge11" class="edge"><title>Node10&#45;&gt;Node11</title>
<path fill="none" stroke="midnightblue" d="M222.123,-62.4035C214.851,-53.3143 203.205,-38.7559 194.159,-27.4489"/>
<polygon fill="midnightblue" stroke="midnightblue" points="196.845,-25.2029 187.864,-19.5806 191.378,-29.5757 196.845,-25.2029"/>
</g>
<!-- Node12 -->
<g id="node12" class="node"><title>Node12</title>
<polygon fill="white" stroke="#bfbfbf" points="238,-0.5 238,-19.5 318,-19.5 318,-0.5 238,-0.5"/>
<text text-anchor="middle" x="278" y="-7.5" font-family="Helvetica,sans-Serif" font-size="10.00">gflags/gflags.h</text>
</g>
<!-- Node10&#45;&gt;Node12 -->
<g id="edge12" class="edge"><title>Node10&#45;&gt;Node12</title>
<path fill="none" stroke="midnightblue" d="M236.021,-62.4035C243.443,-53.3143 255.333,-38.7559 264.567,-27.4489"/>
<polygon fill="midnightblue" stroke="midnightblue" points="267.378,-29.5398 270.993,-19.5806 261.956,-25.1121 267.378,-29.5398"/>
</g>
<!-- Node13&#45;&gt;Node4 -->
<g id="edge16" class="edge"><title>Node13&#45;&gt;Node4</title>
<path fill="none" stroke="midnightblue" d="M941.296,-132.861C862.686,-131.693 687.748,-124.761 546,-88 543.18,-87.2687 540.294,-86.3448 537.449,-85.3163"/>
<polygon fill="midnightblue" stroke="midnightblue" points="538.666,-82.0333 528.082,-81.5439 536.051,-88.5264 538.666,-82.0333"/>
</g>
<!-- Node13&#45;&gt;Node6 -->
<g id="edge15" class="edge"><title>Node13&#45;&gt;Node6</title>
<path fill="none" stroke="midnightblue" d="M941.322,-132.913C797.015,-132.268 319.451,-127.152 172,-88 169.805,-87.4172 167.583,-86.6638 165.392,-85.8054"/>
<polygon fill="midnightblue" stroke="midnightblue" points="166.724,-82.5659 156.176,-81.5727 163.803,-88.927 166.724,-82.5659"/>
</g>
<!-- Node14 -->
<g id="node14" class="node"><title>Node14</title>
<polygon fill="white" stroke="#bfbfbf" points="1411,-62.5 1411,-81.5 1463,-81.5 1463,-62.5 1411,-62.5"/>
<text text-anchor="middle" x="1437" y="-69.5" font-family="Helvetica,sans-Serif" font-size="10.00">ostream</text>
</g>
<!-- Node13&#45;&gt;Node14 -->
<g id="edge14" class="edge"><title>Node13&#45;&gt;Node14</title>
<path fill="none" stroke="midnightblue" d="M1024.64,-132.453C1100.61,-130.592 1266.31,-122.537 1401,-88 1403.99,-87.2343 1407.05,-86.2664 1410.07,-85.1926"/>
<polygon fill="midnightblue" stroke="midnightblue" points="1411.38,-88.4373 1419.4,-81.5188 1408.82,-81.9234 1411.38,-88.4373"/>
</g>
<!-- Node15 -->
<g id="node15" class="node"><title>Node15</title>
<polygon fill="white" stroke="#bfbfbf" points="1481.5,-57 1481.5,-87 1582.5,-87 1582.5,-57 1481.5,-57"/>
<text text-anchor="start" x="1489.5" y="-75" font-family="Helvetica,sans-Serif" font-size="10.00">gen&#45;cpp/JniCatalog</text>
<text text-anchor="middle" x="1532" y="-64" font-family="Helvetica,sans-Serif" font-size="10.00">_types.h</text>
</g>
<!-- Node13&#45;&gt;Node15 -->
<g id="edge17" class="edge"><title>Node13&#45;&gt;Node15</title>
<path fill="none" stroke="midnightblue" d="M1024.82,-131.313C1108.04,-127.49 1300.39,-116.331 1471.44,-87.9101"/>
<polygon fill="midnightblue" stroke="midnightblue" points="1472.1,-91.3487 1481.38,-86.2353 1470.93,-84.446 1472.1,-91.3487"/>
</g>
<!-- Node16 -->
<g id="node16" class="node"><title>Node16</title>
<polygon fill="white" stroke="#bfbfbf" points="1601,-57 1601,-87 1705,-87 1705,-57 1601,-57"/>
<text text-anchor="start" x="1609" y="-75" font-family="Helvetica,sans-Serif" font-size="10.00">gen&#45;cpp/Descriptors</text>
<text text-anchor="middle" x="1653" y="-64" font-family="Helvetica,sans-Serif" font-size="10.00">_types.h</text>
</g>
<!-- Node13&#45;&gt;Node16 -->
<g id="edge18" class="edge"><title>Node13&#45;&gt;Node16</title>
<path fill="none" stroke="midnightblue" d="M1024.55,-132.262C1121.84,-130.033 1372.05,-121.406 1590.64,-87.8566"/>
<polygon fill="midnightblue" stroke="midnightblue" points="1591.35,-91.2879 1600.69,-86.2919 1590.27,-84.3712 1591.35,-91.2879"/>
</g>
<!-- Node17 -->
<g id="node17" class="node"><title>Node17</title>
<polygon fill="white" stroke="#bfbfbf" points="555.5,-62.5 555.5,-81.5 672.5,-81.5 672.5,-62.5 555.5,-62.5"/>
<text text-anchor="middle" x="614" y="-69.5" font-family="Helvetica,sans-Serif" font-size="10.00">gen&#45;cpp/Exprs_types.h</text>
</g>
<!-- Node13&#45;&gt;Node17 -->
<g id="edge19" class="edge"><title>Node13&#45;&gt;Node17</title>
<path fill="none" stroke="midnightblue" d="M941.465,-127.709C883.265,-120.087 774.225,-105.045 682,-88 675.131,-86.7305 667.898,-85.2699 660.817,-83.7691"/>
<polygon fill="midnightblue" stroke="midnightblue" points="661.123,-80.2543 650.608,-81.5592 659.642,-87.0959 661.123,-80.2543"/>
</g>
<!-- Node18 -->
<g id="node18" class="node"><title>Node18</title>
<polygon fill="white" stroke="#bfbfbf" points="691,-62.5 691,-81.5 821,-81.5 821,-62.5 691,-62.5"/>
<text text-anchor="middle" x="756" y="-69.5" font-family="Helvetica,sans-Serif" font-size="10.00">gen&#45;cpp/Frontend_types.h</text>
</g>
<!-- Node13&#45;&gt;Node18 -->
<g id="edge20" class="edge"><title>Node13&#45;&gt;Node18</title>
<path fill="none" stroke="midnightblue" d="M950.476,-124.403C910.442,-113.822 842.362,-95.8269 798.298,-84.1802"/>
<polygon fill="midnightblue" stroke="midnightblue" points="799.026,-80.7523 788.463,-81.5806 797.237,-87.5199 799.026,-80.7523"/>
</g>
<!-- Node19 -->
<g id="node19" class="node"><title>Node19</title>
<polygon fill="white" stroke="#bfbfbf" points="839,-62.5 839,-81.5 979,-81.5 979,-62.5 839,-62.5"/>
<text text-anchor="middle" x="909" y="-69.5" font-family="Helvetica,sans-Serif" font-size="10.00">gen&#45;cpp/PlanNodes_types.h</text>
</g>
<!-- Node13&#45;&gt;Node19 -->
<g id="edge21" class="edge"><title>Node13&#45;&gt;Node19</title>
<path fill="none" stroke="midnightblue" d="M972.398,-124.403C960.748,-114.958 941.814,-99.6056 927.665,-88.1342"/>
<polygon fill="midnightblue" stroke="midnightblue" points="929.555,-85.16 919.583,-81.5806 925.146,-90.5973 929.555,-85.16"/>
</g>
<!-- Node20 -->
<g id="node20" class="node"><title>Node20</title>
<polygon fill="white" stroke="#bfbfbf" points="997.5,-57 997.5,-87 1116.5,-87 1116.5,-57 997.5,-57"/>
<text text-anchor="start" x="1005.5" y="-75" font-family="Helvetica,sans-Serif" font-size="10.00">gen&#45;cpp/RuntimeProfile</text>
<text text-anchor="middle" x="1057" y="-64" font-family="Helvetica,sans-Serif" font-size="10.00">_types.h</text>
</g>
<!-- Node13&#45;&gt;Node20 -->
<g id="edge22" class="edge"><title>Node13&#45;&gt;Node20</title>
<path fill="none" stroke="midnightblue" d="M993.602,-124.403C1003.53,-116.353 1018.75,-104.013 1031.79,-93.4406"/>
<polygon fill="midnightblue" stroke="midnightblue" points="1034,-96.1575 1039.56,-87.1408 1029.59,-90.7202 1034,-96.1575"/>
</g>
<!-- Node21 -->
<g id="node21" class="node"><title>Node21</title>
<polygon fill="white" stroke="#bfbfbf" points="1135,-57 1135,-87 1251,-87 1251,-57 1135,-57"/>
<text text-anchor="start" x="1143" y="-75" font-family="Helvetica,sans-Serif" font-size="10.00">gen&#45;cpp/ImpalaService</text>
<text text-anchor="middle" x="1193" y="-64" font-family="Helvetica,sans-Serif" font-size="10.00">_types.h</text>
</g>
<!-- Node13&#45;&gt;Node21 -->
<g id="edge23" class="edge"><title>Node13&#45;&gt;Node21</title>
<path fill="none" stroke="midnightblue" d="M1013.09,-124.403C1044.56,-115.412 1094.76,-101.068 1134.15,-89.8147"/>
<polygon fill="midnightblue" stroke="midnightblue" points="1135.26,-93.1379 1143.91,-87.0253 1133.33,-86.4073 1135.26,-93.1379"/>
</g>
<!-- Node22 -->
<g id="node22" class="node"><title>Node22</title>
<polygon fill="white" stroke="#bfbfbf" points="1269,-62.5 1269,-81.5 1393,-81.5 1393,-62.5 1269,-62.5"/>
<text text-anchor="middle" x="1331" y="-69.5" font-family="Helvetica,sans-Serif" font-size="10.00">gen&#45;cpp/parquet_types.h</text>
</g>
<!-- Node13&#45;&gt;Node22 -->
<g id="edge24" class="edge"><title>Node13&#45;&gt;Node22</title>
<path fill="none" stroke="midnightblue" d="M1024.71,-126.781C1078.85,-118.577 1176.18,-103.371 1259,-88 1266.33,-86.6391 1274.07,-85.1185 1281.64,-83.5817"/>
<polygon fill="midnightblue" stroke="midnightblue" points="1282.36,-87.0067 1291.45,-81.5644 1280.95,-80.1501 1282.36,-87.0067"/>
</g>
<!-- Node23&#45;&gt;Node9 -->
<g id="edge26" class="edge"><title>Node23&#45;&gt;Node9</title>
<path fill="none" stroke="midnightblue" d="M377.839,-124.403C371.389,-115.403 361.096,-101.041 353.027,-89.7824"/>
<polygon fill="midnightblue" stroke="midnightblue" points="355.82,-87.6699 347.149,-81.5806 350.13,-91.7476 355.82,-87.6699"/>
</g>
<!-- Node24 -->
<g id="node24" class="node"><title>Node24</title>
<g id="a_node24"><a xlink:href="time_8h.html" target="_top" xlink:title="time.h">
<polygon fill="white" stroke="black" points="405,-62.5 405,-81.5 449,-81.5 449,-62.5 405,-62.5"/>
<text text-anchor="middle" x="427" y="-69.5" font-family="Helvetica,sans-Serif" font-size="10.00">time.h</text>
</a>
</g>
</g>
<!-- Node23&#45;&gt;Node24 -->
<g id="edge27" class="edge"><title>Node23&#45;&gt;Node24</title>
<path fill="none" stroke="midnightblue" d="M390.161,-124.403C396.611,-115.403 406.904,-101.041 414.973,-89.7824"/>
<polygon fill="midnightblue" stroke="midnightblue" points="417.87,-91.7476 420.851,-81.5806 412.18,-87.6699 417.87,-91.7476"/>
</g>
<!-- Node24&#45;&gt;Node24 -->
<g id="edge29" class="edge"><title>Node24&#45;&gt;Node24</title>
<path fill="none" stroke="midnightblue" d="M440.59,-81.556C452.859,-86.2049 466,-83.0195 466,-72 466,-63.9936 459.063,-60.1229 450.563,-60.3877"/>
<polygon fill="midnightblue" stroke="midnightblue" points="449.677,-56.9967 440.59,-62.444 451.091,-63.8525 449.677,-56.9967"/>
</g>
<!-- Node25 -->
<g id="node25" class="node"><title>Node25</title>
<polygon fill="white" stroke="#bfbfbf" points="402.5,-0.5 402.5,-19.5 451.5,-19.5 451.5,-0.5 402.5,-0.5"/>
<text text-anchor="middle" x="427" y="-7.5" font-family="Helvetica,sans-Serif" font-size="10.00">stdint.h</text>
</g>
<!-- Node24&#45;&gt;Node25 -->
<g id="edge28" class="edge"><title>Node24&#45;&gt;Node25</title>
<path fill="none" stroke="midnightblue" d="M427,-62.4035C427,-53.9381 427,-40.7283 427,-29.8199"/>
<polygon fill="midnightblue" stroke="midnightblue" points="430.5,-29.5806 427,-19.5806 423.5,-29.5806 430.5,-29.5806"/>
</g>
<!-- Node27 -->
<g id="node27" class="node"><title>Node27</title>
<polygon fill="white" stroke="#bfbfbf" points="1723,-62.5 1723,-81.5 1817,-81.5 1817,-62.5 1723,-62.5"/>
<text text-anchor="middle" x="1770" y="-69.5" font-family="Helvetica,sans-Serif" font-size="10.00">boost/version.hpp</text>
</g>
<!-- Node26&#45;&gt;Node27 -->
<g id="edge31" class="edge"><title>Node26&#45;&gt;Node27</title>
<path fill="none" stroke="midnightblue" d="M1514.58,-125.514C1564.49,-117.385 1645.1,-103.476 1714,-88 1719.15,-86.844 1724.53,-85.5326 1729.84,-84.178"/>
<polygon fill="midnightblue" stroke="midnightblue" points="1731.1,-87.4678 1739.89,-81.5492 1729.33,-80.696 1731.1,-87.4678"/>
</g>
</g>
</svg>
