<?xml version="1.0" encoding="UTF-8" standalone="no"?>
<!DOCTYPE svg PUBLIC "-//W3C//DTD SVG 1.1//EN"
 "http://www.w3.org/Graphics/SVG/1.1/DTD/svg11.dtd">
<!-- Generated by graphviz version 2.36.0 (20140111.2315)
 -->
<!-- Title: be/src/util/benchmark.h Pages: 1 -->
<!--zoomable 96 -->
<svg id="main" version="1.1" xmlns="http://www.w3.org/2000/svg" xmlns:xlink="http://www.w3.org/1999/xlink" xml:space="preserve" onload="init(evt)">
<style type="text/css"><![CDATA[
.edge:hover path { stroke: red; }
.edge:hover polygon { stroke: red; fill: red; }
]]></style>
<script type="text/javascript"><![CDATA[
var edges = document.getElementsByTagName('g');
if (edges && edges.length) {
  for (var i=0;i<edges.length;i++) {
    if (edges[i].id.substr(0,4)=='edge') {
      edges[i].setAttribute('class','edge');
    }
  }
}
]]></script>
        <defs>
                <circle id="rim" cx="0" cy="0" r="7"/>
                <circle id="rim2" cx="0" cy="0" r="3.5"/>
                <g id="zoomPlus">
                        <use xlink:href="#rim" fill="#404040">
                                <set attributeName="fill" to="#808080" begin="zoomplus.mouseover" end="zoomplus.mouseout"/>
                        </use>
                        <path d="M-4,0h8M0,-4v8" fill="none" stroke="white" stroke-width="1.5" pointer-events="none"/>
                </g>
                <g id="zoomMin">
                        <use xlink:href="#rim" fill="#404040">
                                <set attributeName="fill" to="#808080" begin="zoomminus.mouseover" end="zoomminus.mouseout"/>
                        </use>
                        <path d="M-4,0h8" fill="none" stroke="white" stroke-width="1.5" pointer-events="none"/>
                </g>
                <g id="dirArrow">
                        <path fill="none" stroke="white" stroke-width="1.5" d="M0,-3.0v7 M-2.5,-0.5L0,-3.0L2.5,-0.5"/>
                </g>
               <g id="resetDef">
                       <use xlink:href="#rim2" fill="#404040">
                               <set attributeName="fill" to="#808080" begin="reset.mouseover" end="reset.mouseout"/>
                       </use>
               </g>
        </defs>

<script type="text/javascript">
var viewWidth = 2750;
var viewHeight = 96;
var sectionId = 'dynsection-1';
</script>
<script xlink:href="svgpan.js"/>
<svg id="graph" class="graph">
<g id="viewport">
<title>be/src/util/benchmark.h</title>
<polygon fill="white" stroke="none" points="-4,4 -4,-92 2746,-92 2746,4 -4,4"/>
<!-- Node1 -->
<g id="node1" class="node"><title>Node1</title>
<polygon fill="#bfbfbf" stroke="black" points="1298.5,-68.5 1298.5,-87.5 1417.5,-87.5 1417.5,-68.5 1298.5,-68.5"/>
<text text-anchor="middle" x="1358" y="-75.5" font-family="Helvetica,sans-Serif" font-size="10.00">be/src/util/benchmark.h</text>
</g>
<!-- Node2 -->
<g id="node2" class="node"><title>Node2</title>
<g id="a_node2"><a xlink:href="atod-benchmark_8cc.html" target="_top" xlink:title="be/src/benchmarks/atod\l&#45;benchmark.cc">
<polygon fill="white" stroke="black" points="0,-1 0,-31 122,-31 122,-1 0,-1"/>
<text text-anchor="start" x="8" y="-19" font-family="Helvetica,sans-Serif" font-size="10.00">be/src/benchmarks/atod</text>
<text text-anchor="middle" x="61" y="-8" font-family="Helvetica,sans-Serif" font-size="10.00">&#45;benchmark.cc</text>
</a>
</g>
</g>
<!-- Node1&#45;&gt;Node2 -->
<g id="edge1" class="edge"><title>Node1&#45;&gt;Node2</title>
<path fill="none" stroke="midnightblue" d="M1288.3,-76.0434C1063.24,-72.7028 357.427,-60.1932 131,-32 128.163,-31.6468 125.271,-31.236 122.357,-30.7808"/>
<polygon fill="midnightblue" stroke="midnightblue" points="1288.28,-79.5434 1298.33,-76.1909 1288.39,-72.5441 1288.28,-79.5434"/>
</g>
<!-- Node3 -->
<g id="node3" class="node"><title>Node3</title>
<g id="a_node3"><a xlink:href="atof-benchmark_8cc.html" target="_top" xlink:title="be/src/benchmarks/atof\l&#45;benchmark.cc">
<polygon fill="white" stroke="black" points="140.5,-1 140.5,-31 259.5,-31 259.5,-1 140.5,-1"/>
<text text-anchor="start" x="148.5" y="-19" font-family="Helvetica,sans-Serif" font-size="10.00">be/src/benchmarks/atof</text>
<text text-anchor="middle" x="200" y="-8" font-family="Helvetica,sans-Serif" font-size="10.00">&#45;benchmark.cc</text>
</a>
</g>
</g>
<!-- Node1&#45;&gt;Node3 -->
<g id="edge2" class="edge"><title>Node1&#45;&gt;Node3</title>
<path fill="none" stroke="midnightblue" d="M1288.08,-75.7214C1079.92,-71.6603 466.438,-57.779 268,-32 265.243,-31.6418 262.432,-31.2269 259.599,-30.7683"/>
<polygon fill="midnightblue" stroke="midnightblue" points="1288.21,-79.2244 1298.27,-75.9187 1288.34,-72.2257 1288.21,-79.2244"/>
</g>
<!-- Node4 -->
<g id="node4" class="node"><title>Node4</title>
<g id="a_node4"><a xlink:href="atoi-benchmark_8cc.html" target="_top" xlink:title="be/src/benchmarks/atoi\l&#45;benchmark.cc">
<polygon fill="white" stroke="black" points="277.5,-1 277.5,-31 396.5,-31 396.5,-1 277.5,-1"/>
<text text-anchor="start" x="285.5" y="-19" font-family="Helvetica,sans-Serif" font-size="10.00">be/src/benchmarks/atoi</text>
<text text-anchor="middle" x="337" y="-8" font-family="Helvetica,sans-Serif" font-size="10.00">&#45;benchmark.cc</text>
</a>
</g>
</g>
<!-- Node1&#45;&gt;Node4 -->
<g id="edge3" class="edge"><title>Node1&#45;&gt;Node4</title>
<path fill="none" stroke="midnightblue" d="M1288.25,-77.7484C1130.27,-78.562 733.357,-75.646 405,-32 402.244,-31.6336 399.434,-31.212 396.602,-30.748"/>
<polygon fill="midnightblue" stroke="midnightblue" points="1288.32,-81.2481 1298.3,-77.6898 1288.28,-74.2482 1288.32,-81.2481"/>
</g>
<!-- Node5 -->
<g id="node5" class="node"><title>Node5</title>
<g id="a_node5"><a xlink:href="deserialize-benchmark_8cc.html" target="_top" xlink:title="be/src/benchmarks/deserialize\l&#45;benchmark.cc">
<polygon fill="white" stroke="black" points="414.5,-1 414.5,-31 563.5,-31 563.5,-1 414.5,-1"/>
<text text-anchor="start" x="422.5" y="-19" font-family="Helvetica,sans-Serif" font-size="10.00">be/src/benchmarks/deserialize</text>
<text text-anchor="middle" x="489" y="-8" font-family="Helvetica,sans-Serif" font-size="10.00">&#45;benchmark.cc</text>
</a>
</g>
</g>
<!-- Node1&#45;&gt;Node5 -->
<g id="edge4" class="edge"><title>Node1&#45;&gt;Node5</title>
<path fill="none" stroke="midnightblue" d="M1287.73,-75.8394C1149.96,-72.9322 834.917,-63.1666 572,-32 569.237,-31.6725 566.427,-31.311 563.592,-30.9223"/>
<polygon fill="midnightblue" stroke="midnightblue" points="1288.06,-79.3469 1298.13,-76.0529 1288.2,-72.3483 1288.06,-79.3469"/>
</g>
<!-- Node6 -->
<g id="node6" class="node"><title>Node6</title>
<g id="a_node6"><a xlink:href="hash-benchmark_8cc.html" target="_top" xlink:title="be/src/benchmarks/hash\l&#45;benchmark.cc">
<polygon fill="white" stroke="black" points="581,-1 581,-31 705,-31 705,-1 581,-1"/>
<text text-anchor="start" x="589" y="-19" font-family="Helvetica,sans-Serif" font-size="10.00">be/src/benchmarks/hash</text>
<text text-anchor="middle" x="643" y="-8" font-family="Helvetica,sans-Serif" font-size="10.00">&#45;benchmark.cc</text>
</a>
</g>
</g>
<!-- Node1&#45;&gt;Node6 -->
<g id="edge5" class="edge"><title>Node1&#45;&gt;Node6</title>
<path fill="none" stroke="midnightblue" d="M1288.19,-75.2857C1169.65,-71.6687 921.619,-61.043 714,-32 711.13,-31.5986 708.203,-31.1482 705.252,-30.6609"/>
<polygon fill="midnightblue" stroke="midnightblue" points="1288.13,-78.7852 1298.23,-75.5844 1288.33,-71.7883 1288.13,-78.7852"/>
</g>
<!-- Node7 -->
<g id="node7" class="node"><title>Node7</title>
<g id="a_node7"><a xlink:href="lock-benchmark_8cc.html" target="_top" xlink:title="be/src/benchmarks/lock\l&#45;benchmark.cc">
<polygon fill="white" stroke="black" points="723.5,-1 723.5,-31 844.5,-31 844.5,-1 723.5,-1"/>
<text text-anchor="start" x="731.5" y="-19" font-family="Helvetica,sans-Serif" font-size="10.00">be/src/benchmarks/lock</text>
<text text-anchor="middle" x="784" y="-8" font-family="Helvetica,sans-Serif" font-size="10.00">&#45;benchmark.cc</text>
</a>
</g>
</g>
<!-- Node1&#45;&gt;Node7 -->
<g id="edge6" class="edge"><title>Node1&#45;&gt;Node7</title>
<path fill="none" stroke="midnightblue" d="M1288.33,-73.4745C1190.79,-67.9267 1008.15,-55.3089 854,-32 850.928,-31.5355 847.788,-31.0186 844.623,-30.464"/>
<polygon fill="midnightblue" stroke="midnightblue" points="1288.18,-76.9716 1298.36,-74.0371 1288.58,-69.9825 1288.18,-76.9716"/>
</g>
<!-- Node8 -->
<g id="node8" class="node"><title>Node8</title>
<g id="a_node8"><a xlink:href="multiint-benchmark_8cc.html" target="_top" xlink:title="be/src/benchmarks/multiint\l&#45;benchmark.cc">
<polygon fill="white" stroke="black" points="863,-1 863,-31 997,-31 997,-1 863,-1"/>
<text text-anchor="start" x="871" y="-19" font-family="Helvetica,sans-Serif" font-size="10.00">be/src/benchmarks/multiint</text>
<text text-anchor="middle" x="930" y="-8" font-family="Helvetica,sans-Serif" font-size="10.00">&#45;benchmark.cc</text>
</a>
</g>
</g>
<!-- Node1&#45;&gt;Node8 -->
<g id="edge7" class="edge"><title>Node1&#45;&gt;Node8</title>
<path fill="none" stroke="midnightblue" d="M1288.16,-69.4828C1216.99,-61.4919 1103.52,-47.8385 1006,-32 1003.08,-31.5257 1000.1,-31.0221 997.092,-30.4978"/>
<polygon fill="midnightblue" stroke="midnightblue" points="1288.02,-72.9889 1298.34,-70.6203 1288.79,-66.0321 1288.02,-72.9889"/>
</g>
<!-- Node9 -->
<g id="node9" class="node"><title>Node9</title>
<g id="a_node9"><a xlink:href="parse-timestamp-benchmark_8cc.html" target="_top" xlink:title="be/src/benchmarks/parse\l&#45;timestamp&#45;benchmark.cc">
<polygon fill="white" stroke="black" points="1015,-1 1015,-31 1145,-31 1145,-1 1015,-1"/>
<text text-anchor="start" x="1023" y="-19" font-family="Helvetica,sans-Serif" font-size="10.00">be/src/benchmarks/parse</text>
<text text-anchor="middle" x="1080" y="-8" font-family="Helvetica,sans-Serif" font-size="10.00">&#45;timestamp&#45;benchmark.cc</text>
</a>
</g>
</g>
<!-- Node1&#45;&gt;Node9 -->
<g id="edge8" class="edge"><title>Node1&#45;&gt;Node9</title>
<path fill="none" stroke="midnightblue" d="M1308.53,-66.3228C1262.97,-56.4903 1195.08,-41.8374 1145.13,-31.0565"/>
<polygon fill="midnightblue" stroke="midnightblue" points="1307.95,-69.7786 1318.46,-68.4672 1309.43,-62.9362 1307.95,-69.7786"/>
</g>
<!-- Node10 -->
<g id="node10" class="node"><title>Node10</title>
<g id="a_node10"><a xlink:href="rle-benchmark_8cc.html" target="_top" xlink:title="be/src/benchmarks/rle\l&#45;benchmark.cc">
<polygon fill="white" stroke="black" points="1163.5,-1 1163.5,-31 1276.5,-31 1276.5,-1 1163.5,-1"/>
<text text-anchor="start" x="1171.5" y="-19" font-family="Helvetica,sans-Serif" font-size="10.00">be/src/benchmarks/rle</text>
<text text-anchor="middle" x="1220" y="-8" font-family="Helvetica,sans-Serif" font-size="10.00">&#45;benchmark.cc</text>
</a>
</g>
</g>
<!-- Node1&#45;&gt;Node10 -->
<g id="edge9" class="edge"><title>Node1&#45;&gt;Node10</title>
<path fill="none" stroke="midnightblue" d="M1328.88,-64.3408C1306.45,-54.5862 1275.45,-41.1068 1252.26,-31.0253"/>
<polygon fill="midnightblue" stroke="midnightblue" points="1327.66,-67.6259 1338.23,-68.4035 1330.45,-61.2064 1327.66,-67.6259"/>
</g>
<!-- Node11 -->
<g id="node11" class="node"><title>Node11</title>
<g id="a_node11"><a xlink:href="string-benchmark_8cc.html" target="_top" xlink:title="be/src/benchmarks/string\l&#45;benchmark.cc">
<polygon fill="white" stroke="black" points="1294.5,-1 1294.5,-31 1421.5,-31 1421.5,-1 1294.5,-1"/>
<text text-anchor="start" x="1302.5" y="-19" font-family="Helvetica,sans-Serif" font-size="10.00">be/src/benchmarks/string</text>
<text text-anchor="middle" x="1358" y="-8" font-family="Helvetica,sans-Serif" font-size="10.00">&#45;benchmark.cc</text>
</a>
</g>
</g>
<!-- Node1&#45;&gt;Node11 -->
<g id="edge10" class="edge"><title>Node1&#45;&gt;Node11</title>
<path fill="none" stroke="midnightblue" d="M1358,-58.3707C1358,-49.5849 1358,-39.2721 1358,-31.1408"/>
<polygon fill="midnightblue" stroke="midnightblue" points="1354.5,-58.4034 1358,-68.4035 1361.5,-58.4035 1354.5,-58.4034"/>
</g>
<!-- Node12 -->
<g id="node12" class="node"><title>Node12</title>
<g id="a_node12"><a xlink:href="string-compare-benchmark_8cc.html" target="_top" xlink:title="be/src/benchmarks/string\l&#45;compare&#45;benchmark.cc">
<polygon fill="white" stroke="black" points="1439.5,-1 1439.5,-31 1566.5,-31 1566.5,-1 1439.5,-1"/>
<text text-anchor="start" x="1447.5" y="-19" font-family="Helvetica,sans-Serif" font-size="10.00">be/src/benchmarks/string</text>
<text text-anchor="middle" x="1503" y="-8" font-family="Helvetica,sans-Serif" font-size="10.00">&#45;compare&#45;benchmark.cc</text>
</a>
</g>
</g>
<!-- Node1&#45;&gt;Node12 -->
<g id="edge11" class="edge"><title>Node1&#45;&gt;Node12</title>
<path fill="none" stroke="midnightblue" d="M1388.28,-64.4718C1411.87,-54.7072 1444.63,-41.152 1469.11,-31.0253"/>
<polygon fill="midnightblue" stroke="midnightblue" points="1386.68,-61.3458 1378.77,-68.4035 1389.35,-67.8139 1386.68,-61.3458"/>
</g>
<!-- Node13 -->
<g id="node13" class="node"><title>Node13</title>
<g id="a_node13"><a xlink:href="string-search-benchmark_8cc.html" target="_top" xlink:title="be/src/benchmarks/string\l&#45;search&#45;benchmark.cc">
<polygon fill="white" stroke="black" points="1584.5,-1 1584.5,-31 1711.5,-31 1711.5,-1 1584.5,-1"/>
<text text-anchor="start" x="1592.5" y="-19" font-family="Helvetica,sans-Serif" font-size="10.00">be/src/benchmarks/string</text>
<text text-anchor="middle" x="1648" y="-8" font-family="Helvetica,sans-Serif" font-size="10.00">&#45;search&#45;benchmark.cc</text>
</a>
</g>
</g>
<!-- Node1&#45;&gt;Node13 -->
<g id="edge12" class="edge"><title>Node1&#45;&gt;Node13</title>
<path fill="none" stroke="midnightblue" d="M1409.28,-66.3906C1458.16,-56.2773 1531.9,-41.02 1584.48,-30.1416"/>
<polygon fill="midnightblue" stroke="midnightblue" points="1408.33,-63.0136 1399.24,-68.4672 1409.74,-69.8685 1408.33,-63.0136"/>
</g>
<!-- Node14 -->
<g id="node14" class="node"><title>Node14</title>
<g id="a_node14"><a xlink:href="threading-benchmark_8cc.html" target="_top" xlink:title="be/src/benchmarks/threading\l&#45;benchmark.cc">
<polygon fill="white" stroke="black" points="1729.5,-1 1729.5,-31 1872.5,-31 1872.5,-1 1729.5,-1"/>
<text text-anchor="start" x="1737.5" y="-19" font-family="Helvetica,sans-Serif" font-size="10.00">be/src/benchmarks/threading</text>
<text text-anchor="middle" x="1801" y="-8" font-family="Helvetica,sans-Serif" font-size="10.00">&#45;benchmark.cc</text>
</a>
</g>
</g>
<!-- Node1&#45;&gt;Node14 -->
<g id="edge13" class="edge"><title>Node1&#45;&gt;Node14</title>
<path fill="none" stroke="midnightblue" d="M1427.72,-69.5775C1500.74,-61.5127 1618.68,-47.6648 1720,-32 1723.11,-31.5193 1726.28,-31.0104 1729.49,-30.4817"/>
<polygon fill="midnightblue" stroke="midnightblue" points="1427.28,-66.1049 1417.72,-70.6767 1428.05,-73.0629 1427.28,-66.1049"/>
</g>
<!-- Node15 -->
<g id="node15" class="node"><title>Node15</title>
<g id="a_node15"><a xlink:href="tuple-layout-benchmark_8cc.html" target="_top" xlink:title="be/src/benchmarks/tuple\l&#45;layout&#45;benchmark.cc">
<polygon fill="white" stroke="black" points="1891,-1 1891,-31 2015,-31 2015,-1 1891,-1"/>
<text text-anchor="start" x="1899" y="-19" font-family="Helvetica,sans-Serif" font-size="10.00">be/src/benchmarks/tuple</text>
<text text-anchor="middle" x="1953" y="-8" font-family="Helvetica,sans-Serif" font-size="10.00">&#45;layout&#45;benchmark.cc</text>
</a>
</g>
</g>
<!-- Node1&#45;&gt;Node15 -->
<g id="edge14" class="edge"><title>Node1&#45;&gt;Node15</title>
<path fill="none" stroke="midnightblue" d="M1427.92,-73.6469C1528.51,-68.2198 1719.72,-55.6512 1881,-32 1884.16,-31.5368 1887.39,-31.0211 1890.64,-30.4674"/>
<polygon fill="midnightblue" stroke="midnightblue" points="1427.68,-70.1546 1417.88,-74.181 1428.05,-77.1447 1427.68,-70.1546"/>
</g>
<!-- Node16 -->
<g id="node16" class="node"><title>Node16</title>
<g id="a_node16"><a xlink:href="uuid-benchmark_8cc.html" target="_top" xlink:title="be/src/benchmarks/uuid\l&#45;benchmark.cc">
<polygon fill="white" stroke="black" points="2033.5,-1 2033.5,-31 2154.5,-31 2154.5,-1 2033.5,-1"/>
<text text-anchor="start" x="2041.5" y="-19" font-family="Helvetica,sans-Serif" font-size="10.00">be/src/benchmarks/uuid</text>
<text text-anchor="middle" x="2094" y="-8" font-family="Helvetica,sans-Serif" font-size="10.00">&#45;benchmark.cc</text>
</a>
</g>
</g>
<!-- Node1&#45;&gt;Node16 -->
<g id="edge15" class="edge"><title>Node1&#45;&gt;Node16</title>
<path fill="none" stroke="midnightblue" d="M1428.18,-75.4919C1549.83,-72.1561 1807.5,-61.9046 2023,-32 2026.37,-31.5325 2029.82,-30.9967 2033.29,-30.4123"/>
<polygon fill="midnightblue" stroke="midnightblue" points="1427.8,-72.0008 1417.9,-75.7663 1427.99,-78.9983 1427.8,-72.0008"/>
</g>
<!-- Node17 -->
<g id="node17" class="node"><title>Node17</title>
<g id="a_node17"><a xlink:href="expr-benchmark_8cc.html" target="_top" xlink:title="be/src/exprs/expr&#45;benchmark.cc">
<polygon fill="white" stroke="black" points="2172.5,-6.5 2172.5,-25.5 2329.5,-25.5 2329.5,-6.5 2172.5,-6.5"/>
<text text-anchor="middle" x="2251" y="-13.5" font-family="Helvetica,sans-Serif" font-size="10.00">be/src/exprs/expr&#45;benchmark.cc</text>
</a>
</g>
</g>
<!-- Node1&#45;&gt;Node17 -->
<g id="edge16" class="edge"><title>Node1&#45;&gt;Node17</title>
<path fill="none" stroke="midnightblue" d="M1427.67,-75.7527C1567.5,-72.6659 1892.11,-62.5591 2163,-32 2177.32,-30.3843 2192.85,-27.9629 2206.82,-25.5344"/>
<polygon fill="midnightblue" stroke="midnightblue" points="1427.45,-72.2566 1417.53,-75.9715 1427.6,-79.255 1427.45,-72.2566"/>
</g>
<!-- Node18 -->
<g id="node18" class="node"><title>Node18</title>
<g id="a_node18"><a xlink:href="in-predicate-benchmark_8cc.html" target="_top" xlink:title="be/src/exprs/in&#45;predicate\l&#45;benchmark.cc">
<polygon fill="white" stroke="black" points="2348,-1 2348,-31 2472,-31 2472,-1 2348,-1"/>
<text text-anchor="start" x="2356" y="-19" font-family="Helvetica,sans-Serif" font-size="10.00">be/src/exprs/in&#45;predicate</text>
<text text-anchor="middle" x="2410" y="-8" font-family="Helvetica,sans-Serif" font-size="10.00">&#45;benchmark.cc</text>
</a>
</g>
</g>
<!-- Node1&#45;&gt;Node18 -->
<g id="edge17" class="edge"><title>Node1&#45;&gt;Node18</title>
<path fill="none" stroke="midnightblue" d="M1427.91,-77.6039C1589.07,-78.1649 1998.84,-74.8385 2338,-32 2341.17,-31.6 2344.4,-31.1351 2347.66,-30.6217"/>
<polygon fill="midnightblue" stroke="midnightblue" points="1427.68,-74.103 1417.66,-77.5617 1427.65,-81.103 1427.68,-74.103"/>
</g>
<!-- Node19 -->
<g id="node19" class="node"><title>Node19</title>
<g id="a_node19"><a xlink:href="benchmark-test_8cc.html" target="_top" xlink:title="be/src/util/benchmark\l&#45;test.cc">
<polygon fill="white" stroke="black" points="2490,-1 2490,-31 2600,-31 2600,-1 2490,-1"/>
<text text-anchor="start" x="2498" y="-19" font-family="Helvetica,sans-Serif" font-size="10.00">be/src/util/benchmark</text>
<text text-anchor="middle" x="2545" y="-8" font-family="Helvetica,sans-Serif" font-size="10.00">&#45;test.cc</text>
</a>
</g>
</g>
<!-- Node1&#45;&gt;Node19 -->
<g id="edge18" class="edge"><title>Node1&#45;&gt;Node19</title>
<path fill="none" stroke="midnightblue" d="M1427.81,-75.9069C1639.97,-72.3148 2275.17,-59.497 2480,-32 2483.21,-31.5686 2486.5,-31.0521 2489.81,-30.4743"/>
<polygon fill="midnightblue" stroke="midnightblue" points="1427.67,-72.4086 1417.73,-76.076 1427.79,-79.4077 1427.67,-72.4086"/>
</g>
<!-- Node20 -->
<g id="node20" class="node"><title>Node20</title>
<g id="a_node20"><a xlink:href="benchmark_8cc.html" target="_top" xlink:title="be/src/util/benchmark.cc">
<polygon fill="white" stroke="black" points="2618,-6.5 2618,-25.5 2742,-25.5 2742,-6.5 2618,-6.5"/>
<text text-anchor="middle" x="2680" y="-13.5" font-family="Helvetica,sans-Serif" font-size="10.00">be/src/util/benchmark.cc</text>
</a>
</g>
</g>
<!-- Node1&#45;&gt;Node20 -->
<g id="edge19" class="edge"><title>Node1&#45;&gt;Node20</title>
<path fill="none" stroke="midnightblue" d="M1427.88,-76.0714C1656.02,-72.7902 2377.7,-60.3784 2609,-32 2621,-30.5272 2633.99,-28.0496 2645.53,-25.5279"/>
<polygon fill="midnightblue" stroke="midnightblue" points="1427.66,-72.574 1417.71,-76.2162 1427.76,-79.5733 1427.66,-72.574"/>
</g>
</g>
</svg>
        <g id="navigator" transform="translate(0 0)" fill="#404254">
                <rect fill="#f2f5e9" fill-opacity="0.5" stroke="#606060" stroke-width=".5" x="0" y="0" width="60" height="60"/>
                <use id="zoomplus" xlink:href="#zoomPlus" x="17" y="9" onmousedown="handleZoom(evt,'in')"/>
                <use id="zoomminus" xlink:href="#zoomMin" x="42" y="9" onmousedown="handleZoom(evt,'out')"/>
                <use id="reset" xlink:href="#resetDef" x="30" y="36" onmousedown="handleReset()"/>
                <g id="arrowUp" xlink:href="#dirArrow" transform="translate(30 24)" onmousedown="handlePan(0,-1)">
                  <use xlink:href="#rim" fill="#404040">
                        <set attributeName="fill" to="#808080" begin="arrowUp.mouseover" end="arrowUp.mouseout"/>
                  </use>
                  <path fill="none" stroke="white" stroke-width="1.5" d="M0,-3.0v7 M-2.5,-0.5L0,-3.0L2.5,-0.5"/>
                </g>
                <g id="arrowRight" xlink:href="#dirArrow" transform="rotate(90) translate(36 -43)" onmousedown="handlePan(1,0)">
                  <use xlink:href="#rim" fill="#404040">
                        <set attributeName="fill" to="#808080" begin="arrowRight.mouseover" end="arrowRight.mouseout"/>
                  </use>
                  <path fill="none" stroke="white" stroke-width="1.5" d="M0,-3.0v7 M-2.5,-0.5L0,-3.0L2.5,-0.5"/>
                </g>
                <g id="arrowDown" xlink:href="#dirArrow" transform="rotate(180) translate(-30 -48)" onmousedown="handlePan(0,1)">
                  <use xlink:href="#rim" fill="#404040">
                        <set attributeName="fill" to="#808080" begin="arrowDown.mouseover" end="arrowDown.mouseout"/>
                  </use>
                  <path fill="none" stroke="white" stroke-width="1.5" d="M0,-3.0v7 M-2.5,-0.5L0,-3.0L2.5,-0.5"/>
                </g>
                <g id="arrowLeft" xlink:href="#dirArrow" transform="rotate(270) translate(-36 17)" onmousedown="handlePan(-1,0)">
                  <use xlink:href="#rim" fill="#404040">
                        <set attributeName="fill" to="#808080" begin="arrowLeft.mouseover" end="arrowLeft.mouseout"/>
                  </use>
                  <path fill="none" stroke="white" stroke-width="1.5" d="M0,-3.0v7 M-2.5,-0.5L0,-3.0L2.5,-0.5"/>
                </g>
        </g>
        <svg viewBox="0 0 15 15" width="100%" height="30px" preserveAspectRatio="xMaxYMin meet">
         <g id="arrow_out" transform="scale(0.3 0.3)">
          <a xlink:href="benchmark_8h__dep__incl_org.svg" target="_base">
           <rect id="button" ry="5" rx="5" y="6" x="6" height="38" width="38"
                fill="#f2f5e9" fill-opacity="0.5" stroke="#606060" stroke-width="1.0"/>
           <path id="arrow"
             d="M 11.500037,31.436501 C 11.940474,20.09759 22.043105,11.32322 32.158766,21.979434 L 37.068811,17.246167 C 37.068811,17.246167 37.088388,32 37.088388,32 L 22.160133,31.978069 C 22.160133,31.978069 26.997745,27.140456 26.997745,27.140456 C 18.528582,18.264221 13.291696,25.230495 11.500037,31.436501 z"
             style="fill:#404040;"/>
          </a>
         </g>
        </svg>
</svg>
