<?xml version="1.0" encoding="UTF-8" standalone="no"?>
<!DOCTYPE svg PUBLIC "-//W3C//DTD SVG 1.1//EN"
 "http://www.w3.org/Graphics/SVG/1.1/DTD/svg11.dtd">
<!-- Generated by graphviz version 2.36.0 (20140111.2315)
 -->
<!-- Title: be/src/util/bit&#45;stream&#45;utils.inline.h Pages: 1 -->
<svg width="502pt" height="244pt"
 viewBox="0.00 0.00 502.00 244.00" xmlns="http://www.w3.org/2000/svg" xmlns:xlink="http://www.w3.org/1999/xlink">
<g id="graph0" class="graph" transform="scale(1 1) rotate(0) translate(4 240)">
<title>be/src/util/bit&#45;stream&#45;utils.inline.h</title>
<polygon fill="white" stroke="none" points="-4,4 -4,-240 498,-240 498,4 -4,4"/>
<!-- Node1 -->
<g id="node1" class="node"><title>Node1</title>
<polygon fill="#bfbfbf" stroke="black" points="248,-205 248,-235 354,-235 354,-205 248,-205"/>
<text text-anchor="start" x="256" y="-223" font-family="Helvetica,sans-Serif" font-size="10.00">be/src/util/bit&#45;stream</text>
<text text-anchor="middle" x="301" y="-212" font-family="Helvetica,sans-Serif" font-size="10.00">&#45;utils.inline.h</text>
</g>
<!-- Node2 -->
<g id="node2" class="node"><title>Node2</title>
<g id="a_node2"><a xlink:href="rle-benchmark_8cc.html" target="_top" xlink:title="be/src/benchmarks/rle\l&#45;benchmark.cc">
<polygon fill="white" stroke="black" points="108.5,-137 108.5,-167 221.5,-167 221.5,-137 108.5,-137"/>
<text text-anchor="start" x="116.5" y="-155" font-family="Helvetica,sans-Serif" font-size="10.00">be/src/benchmarks/rle</text>
<text text-anchor="middle" x="165" y="-144" font-family="Helvetica,sans-Serif" font-size="10.00">&#45;benchmark.cc</text>
</a>
</g>
</g>
<!-- Node1&#45;&gt;Node2 -->
<g id="edge1" class="edge"><title>Node1&#45;&gt;Node2</title>
<path fill="none" stroke="midnightblue" d="M262.547,-200.339C240.823,-189.796 214.105,-176.83 194.127,-167.135"/>
<polygon fill="midnightblue" stroke="midnightblue" points="261.3,-203.624 271.825,-204.841 264.356,-197.327 261.3,-203.624"/>
</g>
<!-- Node3 -->
<g id="node3" class="node"><title>Node3</title>
<g id="a_node3"><a xlink:href="rle-encoding_8h.html" target="_top" xlink:title="be/src/util/rle&#45;encoding.h">
<polygon fill="white" stroke="black" points="239.5,-142.5 239.5,-161.5 362.5,-161.5 362.5,-142.5 239.5,-142.5"/>
<text text-anchor="middle" x="301" y="-149.5" font-family="Helvetica,sans-Serif" font-size="10.00">be/src/util/rle&#45;encoding.h</text>
</a>
</g>
</g>
<!-- Node1&#45;&gt;Node3 -->
<g id="edge2" class="edge"><title>Node1&#45;&gt;Node3</title>
<path fill="none" stroke="midnightblue" d="M301,-194.376C301,-182.971 301,-170.136 301,-161.828"/>
<polygon fill="midnightblue" stroke="midnightblue" points="297.5,-194.679 301,-204.679 304.5,-194.679 297.5,-194.679"/>
</g>
<!-- Node9 -->
<g id="node9" class="node"><title>Node9</title>
<g id="a_node9"><a xlink:href="rle-test_8cc.html" target="_top" xlink:title="be/src/util/rle&#45;test.cc">
<polygon fill="white" stroke="black" points="388,-74.5 388,-93.5 494,-93.5 494,-74.5 388,-74.5"/>
<text text-anchor="middle" x="441" y="-81.5" font-family="Helvetica,sans-Serif" font-size="10.00">be/src/util/rle&#45;test.cc</text>
</a>
</g>
</g>
<!-- Node1&#45;&gt;Node9 -->
<g id="edge11" class="edge"><title>Node1&#45;&gt;Node9</title>
<path fill="none" stroke="midnightblue" d="M331.633,-199.081C344.354,-190.212 358.931,-179.241 371,-168 397.346,-143.461 423.345,-109.336 434.849,-93.5894"/>
<polygon fill="midnightblue" stroke="midnightblue" points="329.456,-196.329 323.177,-204.862 333.407,-202.108 329.456,-196.329"/>
</g>
<!-- Node4 -->
<g id="node4" class="node"><title>Node4</title>
<g id="a_node4"><a xlink:href="hdfs-parquet-scanner_8cc.html" target="_top" xlink:title="be/src/exec/hdfs&#45;parquet\l&#45;scanner.cc">
<polygon fill="white" stroke="black" points="284.5,-1 284.5,-31 409.5,-31 409.5,-1 284.5,-1"/>
<text text-anchor="start" x="292.5" y="-19" font-family="Helvetica,sans-Serif" font-size="10.00">be/src/exec/hdfs&#45;parquet</text>
<text text-anchor="middle" x="347" y="-8" font-family="Helvetica,sans-Serif" font-size="10.00">&#45;scanner.cc</text>
</a>
</g>
</g>
<!-- Node3&#45;&gt;Node4 -->
<g id="edge3" class="edge"><title>Node3&#45;&gt;Node4</title>
<path fill="none" stroke="midnightblue" d="M317.184,-134.881C325.521,-125.521 334.969,-113.028 340,-100 348.855,-77.0668 349.036,-47.9905 348.159,-31.0429"/>
<polygon fill="midnightblue" stroke="midnightblue" points="314.573,-132.548 310.282,-142.235 319.678,-137.338 314.573,-132.548"/>
</g>
<!-- Node5 -->
<g id="node5" class="node"><title>Node5</title>
<g id="a_node5"><a xlink:href="hdfs-parquet-table-writer_8cc.html" target="_top" xlink:title="be/src/exec/hdfs&#45;parquet\l&#45;table&#45;writer.cc">
<polygon fill="white" stroke="black" points="-0.5,-1 -0.5,-31 124.5,-31 124.5,-1 -0.5,-1"/>
<text text-anchor="start" x="7.5" y="-19" font-family="Helvetica,sans-Serif" font-size="10.00">be/src/exec/hdfs&#45;parquet</text>
<text text-anchor="middle" x="62" y="-8" font-family="Helvetica,sans-Serif" font-size="10.00">&#45;table&#45;writer.cc</text>
</a>
</g>
</g>
<!-- Node3&#45;&gt;Node5 -->
<g id="edge4" class="edge"><title>Node3&#45;&gt;Node5</title>
<path fill="none" stroke="midnightblue" d="M251.985,-140.312C188.094,-126.283 84.0632,-103.072 81,-100 62.7329,-81.6825 60.5616,-49.6225 61.0164,-31.1684"/>
<polygon fill="midnightblue" stroke="midnightblue" points="251.356,-143.757 261.873,-142.48 252.855,-136.919 251.356,-143.757"/>
</g>
<!-- Node6 -->
<g id="node6" class="node"><title>Node6</title>
<g id="a_node6"><a xlink:href="dict-encoding_8h.html" target="_top" xlink:title="be/src/util/dict&#45;encoding.h">
<polygon fill="white" stroke="black" points="90,-74.5 90,-93.5 218,-93.5 218,-74.5 90,-74.5"/>
<text text-anchor="middle" x="154" y="-81.5" font-family="Helvetica,sans-Serif" font-size="10.00">be/src/util/dict&#45;encoding.h</text>
</a>
</g>
</g>
<!-- Node3&#45;&gt;Node6 -->
<g id="edge5" class="edge"><title>Node3&#45;&gt;Node6</title>
<path fill="none" stroke="midnightblue" d="M272.505,-138.206C243.252,-125.072 198.536,-104.996 173.222,-93.6305"/>
<polygon fill="midnightblue" stroke="midnightblue" points="271.226,-141.469 281.782,-142.372 274.093,-135.083 271.226,-141.469"/>
</g>
<!-- Node8 -->
<g id="node8" class="node"><title>Node8</title>
<g id="a_node8"><a xlink:href="parquet-reader_8cc.html" target="_top" xlink:title="be/src/util/parquet\l&#45;reader.cc">
<polygon fill="white" stroke="black" points="236.5,-69 236.5,-99 331.5,-99 331.5,-69 236.5,-69"/>
<text text-anchor="start" x="244.5" y="-87" font-family="Helvetica,sans-Serif" font-size="10.00">be/src/util/parquet</text>
<text text-anchor="middle" x="284" y="-76" font-family="Helvetica,sans-Serif" font-size="10.00">&#45;reader.cc</text>
</a>
</g>
</g>
<!-- Node3&#45;&gt;Node8 -->
<g id="edge9" class="edge"><title>Node3&#45;&gt;Node8</title>
<path fill="none" stroke="midnightblue" d="M296.237,-132.508C293.518,-121.952 290.162,-108.923 287.653,-99.1815"/>
<polygon fill="midnightblue" stroke="midnightblue" points="292.894,-133.561 298.778,-142.372 299.673,-131.815 292.894,-133.561"/>
</g>
<!-- Node3&#45;&gt;Node9 -->
<g id="edge10" class="edge"><title>Node3&#45;&gt;Node9</title>
<path fill="none" stroke="midnightblue" d="M328.502,-138.035C356.368,-124.898 398.69,-104.946 422.693,-93.6305"/>
<polygon fill="midnightblue" stroke="midnightblue" points="326.855,-134.942 319.303,-142.372 329.84,-141.273 326.855,-134.942"/>
</g>
<!-- Node6&#45;&gt;Node4 -->
<g id="edge6" class="edge"><title>Node6&#45;&gt;Node4</title>
<path fill="none" stroke="midnightblue" d="M188.88,-71.0723C221.778,-59.8221 271.102,-42.9549 305.896,-31.0562"/>
<polygon fill="midnightblue" stroke="midnightblue" points="187.561,-67.8242 179.231,-74.3717 189.826,-74.4476 187.561,-67.8242"/>
</g>
<!-- Node6&#45;&gt;Node5 -->
<g id="edge7" class="edge"><title>Node6&#45;&gt;Node5</title>
<path fill="none" stroke="midnightblue" d="M133.618,-68.378C118.17,-57.2959 97.0631,-42.154 81.7681,-31.1815"/>
<polygon fill="midnightblue" stroke="midnightblue" points="131.807,-71.3864 141.973,-74.3717 135.887,-65.6986 131.807,-71.3864"/>
</g>
<!-- Node7 -->
<g id="node7" class="node"><title>Node7</title>
<g id="a_node7"><a xlink:href="dict-test_8cc.html" target="_top" xlink:title="be/src/util/dict&#45;test.cc">
<polygon fill="white" stroke="black" points="142.5,-6.5 142.5,-25.5 253.5,-25.5 253.5,-6.5 142.5,-6.5"/>
<text text-anchor="middle" x="198" y="-13.5" font-family="Helvetica,sans-Serif" font-size="10.00">be/src/util/dict&#45;test.cc</text>
</a>
</g>
</g>
<!-- Node6&#45;&gt;Node7 -->
<g id="edge8" class="edge"><title>Node6&#45;&gt;Node7</title>
<path fill="none" stroke="midnightblue" d="M165.375,-65.9377C173.925,-53.112 185.294,-36.0591 192.106,-25.8411"/>
<polygon fill="midnightblue" stroke="midnightblue" points="162.387,-64.1097 159.752,-74.3717 168.211,-67.9926 162.387,-64.1097"/>
</g>
</g>
</svg>
