<?xml version="1.0" encoding="UTF-8" standalone="no"?>
<!DOCTYPE svg PUBLIC "-//W3C//DTD SVG 1.1//EN"
 "http://www.w3.org/Graphics/SVG/1.1/DTD/svg11.dtd">
<!-- Generated by graphviz version 2.36.0 (20140111.2315)
 -->
<!-- Title: be/src/util/bitmap.cc Pages: 1 -->
<svg width="443pt" height="308pt"
 viewBox="0.00 0.00 443.00 308.00" xmlns="http://www.w3.org/2000/svg" xmlns:xlink="http://www.w3.org/1999/xlink">
<g id="graph0" class="graph" transform="scale(1 1) rotate(0) translate(4 304)">
<title>be/src/util/bitmap.cc</title>
<polygon fill="white" stroke="none" points="-4,4 -4,-304 439,-304 439,4 -4,4"/>
<!-- Node1 -->
<g id="node1" class="node"><title>Node1</title>
<polygon fill="#bfbfbf" stroke="black" points="213.5,-280.5 213.5,-299.5 318.5,-299.5 318.5,-280.5 213.5,-280.5"/>
<text text-anchor="middle" x="266" y="-287.5" font-family="Helvetica,sans-Serif" font-size="10.00">be/src/util/bitmap.cc</text>
</g>
<!-- Node2 -->
<g id="node2" class="node"><title>Node2</title>
<g id="a_node2"><a xlink:href="bitmap_8h.html" target="_top" xlink:title="util/bitmap.h">
<polygon fill="white" stroke="black" points="152,-224.5 152,-243.5 222,-243.5 222,-224.5 152,-224.5"/>
<text text-anchor="middle" x="187" y="-231.5" font-family="Helvetica,sans-Serif" font-size="10.00">util/bitmap.h</text>
</a>
</g>
</g>
<!-- Node1&#45;&gt;Node2 -->
<g id="edge1" class="edge"><title>Node1&#45;&gt;Node2</title>
<path fill="none" stroke="midnightblue" d="M253.307,-280.324C241.099,-271.979 222.422,-259.212 207.997,-249.352"/>
<polygon fill="midnightblue" stroke="midnightblue" points="209.892,-246.408 199.661,-243.655 205.942,-252.187 209.892,-246.408"/>
</g>
<!-- Node14 -->
<g id="node14" class="node"><title>Node14</title>
<polygon fill="white" stroke="#bfbfbf" points="240,-224.5 240,-243.5 292,-243.5 292,-224.5 240,-224.5"/>
<text text-anchor="middle" x="266" y="-231.5" font-family="Helvetica,sans-Serif" font-size="10.00">sstream</text>
</g>
<!-- Node1&#45;&gt;Node14 -->
<g id="edge13" class="edge"><title>Node1&#45;&gt;Node14</title>
<path fill="none" stroke="midnightblue" d="M266,-280.083C266,-273.006 266,-262.861 266,-253.986"/>
<polygon fill="midnightblue" stroke="midnightblue" points="269.5,-253.751 266,-243.751 262.5,-253.751 269.5,-253.751"/>
</g>
<!-- Node15 -->
<g id="node15" class="node"><title>Node15</title>
<g id="a_node15"><a xlink:href="names_8h.html" target="_top" xlink:title="common/names.h">
<polygon fill="white" stroke="black" points="310.5,-224.5 310.5,-243.5 405.5,-243.5 405.5,-224.5 310.5,-224.5"/>
<text text-anchor="middle" x="358" y="-231.5" font-family="Helvetica,sans-Serif" font-size="10.00">common/names.h</text>
</a>
</g>
</g>
<!-- Node1&#45;&gt;Node15 -->
<g id="edge14" class="edge"><title>Node1&#45;&gt;Node15</title>
<path fill="none" stroke="midnightblue" d="M280.781,-280.324C295.267,-271.822 317.573,-258.729 334.493,-248.797"/>
<polygon fill="midnightblue" stroke="midnightblue" points="336.403,-251.735 343.255,-243.655 332.859,-245.698 336.403,-251.735"/>
</g>
<!-- Node3 -->
<g id="node3" class="node"><title>Node3</title>
<g id="a_node3"><a xlink:href="bit-util_8h.html" target="_top" xlink:title="util/bit&#45;util.h">
<polygon fill="white" stroke="black" points="153.5,-168.5 153.5,-187.5 220.5,-187.5 220.5,-168.5 153.5,-168.5"/>
<text text-anchor="middle" x="187" y="-175.5" font-family="Helvetica,sans-Serif" font-size="10.00">util/bit&#45;util.h</text>
</a>
</g>
</g>
<!-- Node2&#45;&gt;Node3 -->
<g id="edge2" class="edge"><title>Node2&#45;&gt;Node3</title>
<path fill="none" stroke="midnightblue" d="M187,-224.083C187,-217.006 187,-206.861 187,-197.986"/>
<polygon fill="midnightblue" stroke="midnightblue" points="190.5,-197.751 187,-187.751 183.5,-197.751 190.5,-197.751"/>
</g>
<!-- Node4 -->
<g id="node4" class="node"><title>Node4</title>
<polygon fill="white" stroke="#bfbfbf" points="-0.5,-112.5 -0.5,-131.5 52.5,-131.5 52.5,-112.5 -0.5,-112.5"/>
<text text-anchor="middle" x="26" y="-119.5" font-family="Helvetica,sans-Serif" font-size="10.00">endian.h</text>
</g>
<!-- Node3&#45;&gt;Node4 -->
<g id="edge3" class="edge"><title>Node3&#45;&gt;Node4</title>
<path fill="none" stroke="midnightblue" d="M161.489,-168.444C134.404,-159.359 91.41,-144.939 61.1312,-134.783"/>
<polygon fill="midnightblue" stroke="midnightblue" points="61.9855,-131.378 51.3916,-131.516 59.7595,-138.015 61.9855,-131.378"/>
</g>
<!-- Node5 -->
<g id="node5" class="node"><title>Node5</title>
<g id="a_node5"><a xlink:href="compiler-util_8h.html" target="_top" xlink:title="common/compiler&#45;util.h">
<polygon fill="white" stroke="black" points="71,-112.5 71,-131.5 189,-131.5 189,-112.5 71,-112.5"/>
<text text-anchor="middle" x="130" y="-119.5" font-family="Helvetica,sans-Serif" font-size="10.00">common/compiler&#45;util.h</text>
</a>
</g>
</g>
<!-- Node3&#45;&gt;Node5 -->
<g id="edge4" class="edge"><title>Node3&#45;&gt;Node5</title>
<path fill="none" stroke="midnightblue" d="M177.842,-168.324C169.499,-160.42 156.968,-148.548 146.823,-138.938"/>
<polygon fill="midnightblue" stroke="midnightblue" points="148.991,-136.171 139.325,-131.834 144.177,-141.252 148.991,-136.171"/>
</g>
<!-- Node6 -->
<g id="node6" class="node"><title>Node6</title>
<g id="a_node6"><a xlink:href="cpu-info_8h.html" target="_top" xlink:title="util/cpu&#45;info.h">
<polygon fill="white" stroke="black" points="207.5,-112.5 207.5,-131.5 282.5,-131.5 282.5,-112.5 207.5,-112.5"/>
<text text-anchor="middle" x="245" y="-119.5" font-family="Helvetica,sans-Serif" font-size="10.00">util/cpu&#45;info.h</text>
</a>
</g>
</g>
<!-- Node3&#45;&gt;Node6 -->
<g id="edge5" class="edge"><title>Node3&#45;&gt;Node6</title>
<path fill="none" stroke="midnightblue" d="M196.319,-168.324C204.893,-160.341 217.812,-148.313 228.188,-138.653"/>
<polygon fill="midnightblue" stroke="midnightblue" points="230.578,-141.21 235.512,-131.834 225.808,-136.086 230.578,-141.21"/>
</g>
<!-- Node12 -->
<g id="node12" class="node"><title>Node12</title>
<g id="a_node12"><a xlink:href="sse-util_8h.html" target="_top" xlink:title="util/sse&#45;util.h">
<polygon fill="white" stroke="black" points="361,-112.5 361,-131.5 433,-131.5 433,-112.5 361,-112.5"/>
<text text-anchor="middle" x="397" y="-119.5" font-family="Helvetica,sans-Serif" font-size="10.00">util/sse&#45;util.h</text>
</a>
</g>
</g>
<!-- Node3&#45;&gt;Node12 -->
<g id="edge11" class="edge"><title>Node3&#45;&gt;Node12</title>
<path fill="none" stroke="midnightblue" d="M220.275,-168.444C256.448,-159.142 314.377,-144.246 353.981,-134.062"/>
<polygon fill="midnightblue" stroke="midnightblue" points="355.067,-137.397 363.881,-131.516 353.324,-130.617 355.067,-137.397"/>
</g>
<!-- Node7 -->
<g id="node7" class="node"><title>Node7</title>
<polygon fill="white" stroke="#bfbfbf" points="83.5,-56.5 83.5,-75.5 124.5,-75.5 124.5,-56.5 83.5,-56.5"/>
<text text-anchor="middle" x="104" y="-63.5" font-family="Helvetica,sans-Serif" font-size="10.00">string</text>
</g>
<!-- Node6&#45;&gt;Node7 -->
<g id="edge6" class="edge"><title>Node6&#45;&gt;Node7</title>
<path fill="none" stroke="midnightblue" d="M222.658,-112.444C198.834,-103.319 160.955,-88.8125 134.42,-78.6501"/>
<polygon fill="midnightblue" stroke="midnightblue" points="135.449,-75.2963 124.858,-74.9883 132.945,-81.8333 135.449,-75.2963"/>
</g>
<!-- Node8 -->
<g id="node8" class="node"><title>Node8</title>
<polygon fill="white" stroke="#bfbfbf" points="143,-56.5 143,-75.5 235,-75.5 235,-56.5 143,-56.5"/>
<text text-anchor="middle" x="189" y="-63.5" font-family="Helvetica,sans-Serif" font-size="10.00">boost/cstdint.hpp</text>
</g>
<!-- Node6&#45;&gt;Node8 -->
<g id="edge7" class="edge"><title>Node6&#45;&gt;Node8</title>
<path fill="none" stroke="midnightblue" d="M236.003,-112.324C227.806,-104.42 215.494,-92.5482 205.528,-82.9377"/>
<polygon fill="midnightblue" stroke="midnightblue" points="207.789,-80.2558 198.161,-75.8339 202.93,-85.2947 207.789,-80.2558"/>
</g>
<!-- Node9 -->
<g id="node9" class="node"><title>Node9</title>
<g id="a_node9"><a xlink:href="logging_8h.html" target="_top" xlink:title="common/logging.h">
<polygon fill="white" stroke="black" points="253,-56.5 253,-75.5 349,-75.5 349,-56.5 253,-56.5"/>
<text text-anchor="middle" x="301" y="-63.5" font-family="Helvetica,sans-Serif" font-size="10.00">common/logging.h</text>
</a>
</g>
</g>
<!-- Node6&#45;&gt;Node9 -->
<g id="edge8" class="edge"><title>Node6&#45;&gt;Node9</title>
<path fill="none" stroke="midnightblue" d="M253.997,-112.324C262.194,-104.42 274.506,-92.5482 284.472,-82.9377"/>
<polygon fill="midnightblue" stroke="midnightblue" points="287.07,-85.2947 291.839,-75.8339 282.211,-80.2558 287.07,-85.2947"/>
</g>
<!-- Node10 -->
<g id="node10" class="node"><title>Node10</title>
<polygon fill="white" stroke="#bfbfbf" points="213.5,-0.5 213.5,-19.5 290.5,-19.5 290.5,-0.5 213.5,-0.5"/>
<text text-anchor="middle" x="252" y="-7.5" font-family="Helvetica,sans-Serif" font-size="10.00">glog/logging.h</text>
</g>
<!-- Node9&#45;&gt;Node10 -->
<g id="edge9" class="edge"><title>Node9&#45;&gt;Node10</title>
<path fill="none" stroke="midnightblue" d="M292.909,-56.083C285.845,-48.2982 275.412,-36.8015 266.851,-27.3665"/>
<polygon fill="midnightblue" stroke="midnightblue" points="269.253,-24.8047 259.941,-19.7511 264.069,-29.5087 269.253,-24.8047"/>
</g>
<!-- Node11 -->
<g id="node11" class="node"><title>Node11</title>
<polygon fill="white" stroke="#bfbfbf" points="309,-0.5 309,-19.5 389,-19.5 389,-0.5 309,-0.5"/>
<text text-anchor="middle" x="349" y="-7.5" font-family="Helvetica,sans-Serif" font-size="10.00">gflags/gflags.h</text>
</g>
<!-- Node9&#45;&gt;Node11 -->
<g id="edge10" class="edge"><title>Node9&#45;&gt;Node11</title>
<path fill="none" stroke="midnightblue" d="M308.926,-56.083C315.846,-48.2982 326.065,-36.8015 334.452,-27.3665"/>
<polygon fill="midnightblue" stroke="midnightblue" points="337.194,-29.5505 341.221,-19.7511 331.962,-24.8999 337.194,-29.5505"/>
</g>
<!-- Node13 -->
<g id="node13" class="node"><title>Node13</title>
<polygon fill="white" stroke="#bfbfbf" points="367,-56.5 367,-75.5 435,-75.5 435,-56.5 367,-56.5"/>
<text text-anchor="middle" x="401" y="-63.5" font-family="Helvetica,sans-Serif" font-size="10.00">emmintrin.h</text>
</g>
<!-- Node12&#45;&gt;Node13 -->
<g id="edge12" class="edge"><title>Node12&#45;&gt;Node13</title>
<path fill="none" stroke="midnightblue" d="M397.661,-112.083C398.185,-105.006 398.936,-94.8611 399.594,-85.9865"/>
<polygon fill="midnightblue" stroke="midnightblue" points="403.103,-85.9823 400.352,-75.7511 396.123,-85.4652 403.103,-85.9823"/>
</g>
<!-- Node16 -->
<g id="node16" class="node"><title>Node16</title>
<polygon fill="white" stroke="#bfbfbf" points="311,-168.5 311,-187.5 405,-187.5 405,-168.5 311,-168.5"/>
<text text-anchor="middle" x="358" y="-175.5" font-family="Helvetica,sans-Serif" font-size="10.00">boost/version.hpp</text>
</g>
<!-- Node15&#45;&gt;Node16 -->
<g id="edge15" class="edge"><title>Node15&#45;&gt;Node16</title>
<path fill="none" stroke="midnightblue" d="M358,-224.083C358,-217.006 358,-206.861 358,-197.986"/>
<polygon fill="midnightblue" stroke="midnightblue" points="361.5,-197.751 358,-187.751 354.5,-197.751 361.5,-197.751"/>
</g>
</g>
</svg>
