<?xml version="1.0" encoding="UTF-8" standalone="no"?>
<!DOCTYPE svg PUBLIC "-//W3C//DTD SVG 1.1//EN"
 "http://www.w3.org/Graphics/SVG/1.1/DTD/svg11.dtd">
<!-- Generated by graphviz version 2.36.0 (20140111.2315)
 -->
<!-- Title: be/src/util/blocking&#45;queue.h Pages: 1 -->
<svg width="518pt" height="220pt"
 viewBox="0.00 0.00 518.00 220.00" xmlns="http://www.w3.org/2000/svg" xmlns:xlink="http://www.w3.org/1999/xlink">
<g id="graph0" class="graph" transform="scale(1 1) rotate(0) translate(4 216)">
<title>be/src/util/blocking&#45;queue.h</title>
<polygon fill="white" stroke="none" points="-4,4 -4,-216 514,-216 514,4 -4,4"/>
<!-- Node1 -->
<g id="node1" class="node"><title>Node1</title>
<polygon fill="#bfbfbf" stroke="black" points="233,-181 233,-211 331,-211 331,-181 233,-181"/>
<text text-anchor="start" x="241" y="-199" font-family="Helvetica,sans-Serif" font-size="10.00">be/src/util/blocking</text>
<text text-anchor="middle" x="282" y="-188" font-family="Helvetica,sans-Serif" font-size="10.00">&#45;queue.h</text>
</g>
<!-- Node2 -->
<g id="node2" class="node"><title>Node2</title>
<polygon fill="white" stroke="#bfbfbf" points="-0.5,-113 -0.5,-143 112.5,-143 112.5,-113 -0.5,-113"/>
<text text-anchor="start" x="7.5" y="-131" font-family="Helvetica,sans-Serif" font-size="10.00">boost/thread/condition</text>
<text text-anchor="middle" x="56" y="-120" font-family="Helvetica,sans-Serif" font-size="10.00">_variable.hpp</text>
</g>
<!-- Node1&#45;&gt;Node2 -->
<g id="edge1" class="edge"><title>Node1&#45;&gt;Node2</title>
<path fill="none" stroke="midnightblue" d="M233.795,-180.922C198.689,-170.67 150.982,-156.738 113.824,-145.887"/>
<polygon fill="midnightblue" stroke="midnightblue" points="114.712,-142.5 104.131,-143.056 112.749,-149.219 114.712,-142.5"/>
</g>
<!-- Node3 -->
<g id="node3" class="node"><title>Node3</title>
<polygon fill="white" stroke="#bfbfbf" points="130.5,-118.5 130.5,-137.5 249.5,-137.5 249.5,-118.5 130.5,-118.5"/>
<text text-anchor="middle" x="190" y="-125.5" font-family="Helvetica,sans-Serif" font-size="10.00">boost/thread/mutex.hpp</text>
</g>
<!-- Node1&#45;&gt;Node3 -->
<g id="edge2" class="edge"><title>Node1&#45;&gt;Node3</title>
<path fill="none" stroke="midnightblue" d="M262.037,-180.679C246.752,-169.713 225.748,-154.645 210.363,-143.609"/>
<polygon fill="midnightblue" stroke="midnightblue" points="212.206,-140.623 202.041,-137.638 208.126,-146.311 212.206,-140.623"/>
</g>
<!-- Node4 -->
<g id="node4" class="node"><title>Node4</title>
<polygon fill="white" stroke="#bfbfbf" points="267.5,-118.5 267.5,-137.5 296.5,-137.5 296.5,-118.5 267.5,-118.5"/>
<text text-anchor="middle" x="282" y="-125.5" font-family="Helvetica,sans-Serif" font-size="10.00">list</text>
</g>
<!-- Node1&#45;&gt;Node4 -->
<g id="edge3" class="edge"><title>Node1&#45;&gt;Node4</title>
<path fill="none" stroke="midnightblue" d="M282,-180.679C282,-171.101 282,-158.394 282,-147.977"/>
<polygon fill="midnightblue" stroke="midnightblue" points="285.5,-147.828 282,-137.828 278.5,-147.828 285.5,-147.828"/>
</g>
<!-- Node5 -->
<g id="node5" class="node"><title>Node5</title>
<polygon fill="white" stroke="#bfbfbf" points="314.5,-118.5 314.5,-137.5 365.5,-137.5 365.5,-118.5 314.5,-118.5"/>
<text text-anchor="middle" x="340" y="-125.5" font-family="Helvetica,sans-Serif" font-size="10.00">unistd.h</text>
</g>
<!-- Node1&#45;&gt;Node5 -->
<g id="edge4" class="edge"><title>Node1&#45;&gt;Node5</title>
<path fill="none" stroke="midnightblue" d="M294.585,-180.679C303.718,-170.286 316.09,-156.208 325.614,-145.37"/>
<polygon fill="midnightblue" stroke="midnightblue" points="328.27,-147.65 332.242,-137.828 323.012,-143.03 328.27,-147.65"/>
</g>
<!-- Node6 -->
<g id="node6" class="node"><title>Node6</title>
<g id="a_node6"><a xlink:href="stopwatch_8h.html" target="_top" xlink:title="util/stopwatch.h">
<polygon fill="white" stroke="black" points="384,-118.5 384,-137.5 470,-137.5 470,-118.5 384,-118.5"/>
<text text-anchor="middle" x="427" y="-125.5" font-family="Helvetica,sans-Serif" font-size="10.00">util/stopwatch.h</text>
</a>
</g>
</g>
<!-- Node1&#45;&gt;Node6 -->
<g id="edge5" class="edge"><title>Node1&#45;&gt;Node6</title>
<path fill="none" stroke="midnightblue" d="M313.106,-180.841C338.524,-169.272 374.151,-153.055 398.759,-141.855"/>
<polygon fill="midnightblue" stroke="midnightblue" points="400.275,-145.01 407.926,-137.682 397.375,-138.639 400.275,-145.01"/>
</g>
<!-- Node7 -->
<g id="node7" class="node"><title>Node7</title>
<polygon fill="white" stroke="#bfbfbf" points="338,-56.5 338,-75.5 430,-75.5 430,-56.5 338,-56.5"/>
<text text-anchor="middle" x="384" y="-63.5" font-family="Helvetica,sans-Serif" font-size="10.00">boost/cstdint.hpp</text>
</g>
<!-- Node6&#45;&gt;Node7 -->
<g id="edge6" class="edge"><title>Node6&#45;&gt;Node7</title>
<path fill="none" stroke="midnightblue" d="M420.839,-118.403C414.389,-109.403 404.096,-95.0408 396.027,-83.7824"/>
<polygon fill="midnightblue" stroke="midnightblue" points="398.82,-81.6699 390.149,-75.5806 393.13,-85.7476 398.82,-81.6699"/>
</g>
<!-- Node8 -->
<g id="node8" class="node"><title>Node8</title>
<g id="a_node8"><a xlink:href="time_8h.html" target="_top" xlink:title="time.h">
<polygon fill="white" stroke="black" points="448,-56.5 448,-75.5 492,-75.5 492,-56.5 448,-56.5"/>
<text text-anchor="middle" x="470" y="-63.5" font-family="Helvetica,sans-Serif" font-size="10.00">time.h</text>
</a>
</g>
</g>
<!-- Node6&#45;&gt;Node8 -->
<g id="edge7" class="edge"><title>Node6&#45;&gt;Node8</title>
<path fill="none" stroke="midnightblue" d="M433.161,-118.403C439.611,-109.403 449.904,-95.0408 457.973,-83.7824"/>
<polygon fill="midnightblue" stroke="midnightblue" points="460.87,-85.7476 463.851,-75.5806 455.18,-81.6699 460.87,-85.7476"/>
</g>
<!-- Node8&#45;&gt;Node8 -->
<g id="edge9" class="edge"><title>Node8&#45;&gt;Node8</title>
<path fill="none" stroke="midnightblue" d="M486.837,-75.5746C498.068,-78.2697 509,-75.0781 509,-66 509,-59.7588 503.833,-56.2999 496.954,-55.6234"/>
<polygon fill="midnightblue" stroke="midnightblue" points="496.529,-52.146 486.837,-56.4254 497.082,-59.1241 496.529,-52.146"/>
</g>
<!-- Node9 -->
<g id="node9" class="node"><title>Node9</title>
<polygon fill="white" stroke="#bfbfbf" points="445.5,-0.5 445.5,-19.5 494.5,-19.5 494.5,-0.5 445.5,-0.5"/>
<text text-anchor="middle" x="470" y="-7.5" font-family="Helvetica,sans-Serif" font-size="10.00">stdint.h</text>
</g>
<!-- Node8&#45;&gt;Node9 -->
<g id="edge8" class="edge"><title>Node8&#45;&gt;Node9</title>
<path fill="none" stroke="midnightblue" d="M470,-56.083C470,-49.0059 470,-38.8611 470,-29.9865"/>
<polygon fill="midnightblue" stroke="midnightblue" points="473.5,-29.751 470,-19.7511 466.5,-29.7511 473.5,-29.751"/>
</g>
</g>
</svg>
