<?xml version="1.0" encoding="UTF-8" standalone="no"?>
<!DOCTYPE svg PUBLIC "-//W3C//DTD SVG 1.1//EN"
 "http://www.w3.org/Graphics/SVG/1.1/DTD/svg11.dtd">
<!-- Generated by graphviz version 2.36.0 (20140111.2315)
 -->
<!-- Title: be/src/runtime/buffered&#45;tuple&#45;stream.h Pages: 1 -->
<!--zoomable 380 -->
<svg id="main" version="1.1" xmlns="http://www.w3.org/2000/svg" xmlns:xlink="http://www.w3.org/1999/xlink" xml:space="preserve" onload="init(evt)">
<style type="text/css"><![CDATA[
.edge:hover path { stroke: red; }
.edge:hover polygon { stroke: red; fill: red; }
]]></style>
<script type="text/javascript"><![CDATA[
var edges = document.getElementsByTagName('g');
if (edges && edges.length) {
  for (var i=0;i<edges.length;i++) {
    if (edges[i].id.substr(0,4)=='edge') {
      edges[i].setAttribute('class','edge');
    }
  }
}
]]></script>
        <defs>
                <circle id="rim" cx="0" cy="0" r="7"/>
                <circle id="rim2" cx="0" cy="0" r="3.5"/>
                <g id="zoomPlus">
                        <use xlink:href="#rim" fill="#404040">
                                <set attributeName="fill" to="#808080" begin="zoomplus.mouseover" end="zoomplus.mouseout"/>
                        </use>
                        <path d="M-4,0h8M0,-4v8" fill="none" stroke="white" stroke-width="1.5" pointer-events="none"/>
                </g>
                <g id="zoomMin">
                        <use xlink:href="#rim" fill="#404040">
                                <set attributeName="fill" to="#808080" begin="zoomminus.mouseover" end="zoomminus.mouseout"/>
                        </use>
                        <path d="M-4,0h8" fill="none" stroke="white" stroke-width="1.5" pointer-events="none"/>
                </g>
                <g id="dirArrow">
                        <path fill="none" stroke="white" stroke-width="1.5" d="M0,-3.0v7 M-2.5,-0.5L0,-3.0L2.5,-0.5"/>
                </g>
               <g id="resetDef">
                       <use xlink:href="#rim2" fill="#404040">
                               <set attributeName="fill" to="#808080" begin="reset.mouseover" end="reset.mouseout"/>
                       </use>
               </g>
        </defs>

<script type="text/javascript">
var viewWidth = 1905;
var viewHeight = 380;
var sectionId = 'dynsection-1';
</script>
<script xlink:href="svgpan.js"/>
<svg id="graph" class="graph">
<g id="viewport">
<title>be/src/runtime/buffered&#45;tuple&#45;stream.h</title>
<polygon fill="white" stroke="none" points="-4,4 -4,-376 1901,-376 1901,4 -4,4"/>
<!-- Node1 -->
<g id="node1" class="node"><title>Node1</title>
<polygon fill="#bfbfbf" stroke="black" points="531.5,-341 531.5,-371 648.5,-371 648.5,-341 531.5,-341"/>
<text text-anchor="start" x="539.5" y="-359" font-family="Helvetica,sans-Serif" font-size="10.00">be/src/runtime/buffered</text>
<text text-anchor="middle" x="590" y="-348" font-family="Helvetica,sans-Serif" font-size="10.00">&#45;tuple&#45;stream.h</text>
</g>
<!-- Node2 -->
<g id="node2" class="node"><title>Node2</title>
<g id="a_node2"><a xlink:href="analytic-eval-node_8h.html" target="_top" xlink:title="be/src/exec/analytic\l&#45;eval&#45;node.h">
<polygon fill="white" stroke="black" points="0,-273 0,-303 104,-303 104,-273 0,-273"/>
<text text-anchor="start" x="8" y="-291" font-family="Helvetica,sans-Serif" font-size="10.00">be/src/exec/analytic</text>
<text text-anchor="middle" x="52" y="-280" font-family="Helvetica,sans-Serif" font-size="10.00">&#45;eval&#45;node.h</text>
</a>
</g>
</g>
<!-- Node1&#45;&gt;Node2 -->
<g id="edge1" class="edge"><title>Node1&#45;&gt;Node2</title>
<path fill="none" stroke="midnightblue" d="M521.159,-350.075C428.945,-342.906 260.414,-327.795 118,-304 113.48,-303.245 108.805,-302.372 104.128,-301.434"/>
<polygon fill="midnightblue" stroke="midnightblue" points="520.964,-353.571 531.203,-350.848 521.501,-346.591 520.964,-353.571"/>
</g>
<!-- Node5 -->
<g id="node5" class="node"><title>Node5</title>
<g id="a_node5"><a xlink:href="hash-table_8h.html" target="_top" xlink:title="be/src/exec/hash&#45;table.h">
<polygon fill="white" stroke="black" points="963,-210.5 963,-229.5 1087,-229.5 1087,-210.5 963,-210.5"/>
<text text-anchor="middle" x="1025" y="-217.5" font-family="Helvetica,sans-Serif" font-size="10.00">be/src/exec/hash&#45;table.h</text>
</a>
</g>
</g>
<!-- Node1&#45;&gt;Node5 -->
<g id="edge4" class="edge"><title>Node1&#45;&gt;Node5</title>
<path fill="none" stroke="midnightblue" d="M616.987,-334.811C629.274,-325.528 643.955,-314.311 657,-304 674.59,-290.096 675.465,-281.002 696,-272 801.633,-225.693 839.37,-255.773 953,-236 963.818,-234.118 975.493,-231.807 986.229,-229.569"/>
<polygon fill="midnightblue" stroke="midnightblue" points="614.795,-332.08 608.913,-340.893 619.006,-337.672 614.795,-332.08"/>
</g>
<!-- Node17 -->
<g id="node17" class="node"><title>Node17</title>
<g id="a_node17"><a xlink:href="partitioned-aggregation-node_8h.html" target="_top" xlink:title="be/src/exec/partitioned\l&#45;aggregation&#45;node.h">
<polygon fill="white" stroke="black" points="617,-137 617,-167 733,-167 733,-137 617,-137"/>
<text text-anchor="start" x="625" y="-155" font-family="Helvetica,sans-Serif" font-size="10.00">be/src/exec/partitioned</text>
<text text-anchor="middle" x="675" y="-144" font-family="Helvetica,sans-Serif" font-size="10.00">&#45;aggregation&#45;node.h</text>
</a>
</g>
</g>
<!-- Node1&#45;&gt;Node17 -->
<g id="edge25" class="edge"><title>Node1&#45;&gt;Node17</title>
<path fill="none" stroke="midnightblue" d="M521.321,-353.924C369.496,-349.342 27.3965,-325.618 140,-204 175.357,-165.812 555.519,-175.624 607,-168 610.229,-167.522 613.533,-166.978 616.861,-166.387"/>
<polygon fill="midnightblue" stroke="midnightblue" points="521.382,-357.427 531.477,-354.211 521.58,-350.43 521.382,-357.427"/>
</g>
<!-- Node20 -->
<g id="node20" class="node"><title>Node20</title>
<g id="a_node20"><a xlink:href="buffered-tuple-stream_8cc.html" target="_top" xlink:title="be/src/runtime/buffered\l&#45;tuple&#45;stream.cc">
<polygon fill="white" stroke="black" points="531.5,-273 531.5,-303 648.5,-303 648.5,-273 531.5,-273"/>
<text text-anchor="start" x="539.5" y="-291" font-family="Helvetica,sans-Serif" font-size="10.00">be/src/runtime/buffered</text>
<text text-anchor="middle" x="590" y="-280" font-family="Helvetica,sans-Serif" font-size="10.00">&#45;tuple&#45;stream.cc</text>
</a>
</g>
</g>
<!-- Node1&#45;&gt;Node20 -->
<g id="edge26" class="edge"><title>Node1&#45;&gt;Node20</title>
<path fill="none" stroke="midnightblue" d="M590,-330.532C590,-321.361 590,-311.245 590,-303.293"/>
<polygon fill="midnightblue" stroke="midnightblue" points="586.5,-330.679 590,-340.679 593.5,-330.679 586.5,-330.679"/>
</g>
<!-- Node21 -->
<g id="node21" class="node"><title>Node21</title>
<g id="a_node21"><a xlink:href="buffered-tuple-stream_8inline_8h.html" target="_top" xlink:title="be/src/runtime/buffered\l&#45;tuple&#45;stream.inline.h">
<polygon fill="white" stroke="black" points="396.5,-273 396.5,-303 513.5,-303 513.5,-273 396.5,-273"/>
<text text-anchor="start" x="404.5" y="-291" font-family="Helvetica,sans-Serif" font-size="10.00">be/src/runtime/buffered</text>
<text text-anchor="middle" x="455" y="-280" font-family="Helvetica,sans-Serif" font-size="10.00">&#45;tuple&#45;stream.inline.h</text>
</a>
</g>
</g>
<!-- Node1&#45;&gt;Node21 -->
<g id="edge27" class="edge"><title>Node1&#45;&gt;Node21</title>
<path fill="none" stroke="midnightblue" d="M551.829,-336.339C530.265,-325.796 503.744,-312.83 483.913,-303.135"/>
<polygon fill="midnightblue" stroke="midnightblue" points="550.518,-339.594 561.039,-340.841 553.593,-333.305 550.518,-339.594"/>
</g>
<!-- Node24 -->
<g id="node24" class="node"><title>Node24</title>
<g id="a_node24"><a xlink:href="row-batch_8cc.html" target="_top" xlink:title="be/src/runtime/row\l&#45;batch.cc">
<polygon fill="white" stroke="black" points="705,-273 705,-303 803,-303 803,-273 705,-273"/>
<text text-anchor="start" x="713" y="-291" font-family="Helvetica,sans-Serif" font-size="10.00">be/src/runtime/row</text>
<text text-anchor="middle" x="754" y="-280" font-family="Helvetica,sans-Serif" font-size="10.00">&#45;batch.cc</text>
</a>
</g>
</g>
<!-- Node1&#45;&gt;Node24 -->
<g id="edge36" class="edge"><title>Node1&#45;&gt;Node24</title>
<path fill="none" stroke="midnightblue" d="M634.651,-337.031C661.247,-326.328 694.509,-312.942 719.158,-303.022"/>
<polygon fill="midnightblue" stroke="midnightblue" points="633.152,-333.861 625.182,-340.841 635.766,-340.355 633.152,-333.861"/>
</g>
<!-- Node25 -->
<g id="node25" class="node"><title>Node25</title>
<g id="a_node25"><a xlink:href="static-asserts_8cc.html" target="_top" xlink:title="be/src/util/static\l&#45;asserts.cc">
<polygon fill="white" stroke="black" points="821,-273 821,-303 907,-303 907,-273 821,-273"/>
<text text-anchor="start" x="829" y="-291" font-family="Helvetica,sans-Serif" font-size="10.00">be/src/util/static</text>
<text text-anchor="middle" x="864" y="-280" font-family="Helvetica,sans-Serif" font-size="10.00">&#45;asserts.cc</text>
</a>
</g>
</g>
<!-- Node1&#45;&gt;Node25 -->
<g id="edge37" class="edge"><title>Node1&#45;&gt;Node25</title>
<path fill="none" stroke="midnightblue" d="M658.771,-340.041C702.492,-330.306 760.225,-317.036 811,-304 814.242,-303.168 817.588,-302.283 820.949,-301.375"/>
<polygon fill="midnightblue" stroke="midnightblue" points="657.822,-336.666 648.818,-342.25 659.339,-343.5 657.822,-336.666"/>
</g>
<!-- Node3 -->
<g id="node3" class="node"><title>Node3</title>
<g id="a_node3"><a xlink:href="analytic-eval-node_8cc.html" target="_top" xlink:title="be/src/exec/analytic\l&#45;eval&#45;node.cc">
<polygon fill="white" stroke="black" points="149,-205 149,-235 253,-235 253,-205 149,-205"/>
<text text-anchor="start" x="157" y="-223" font-family="Helvetica,sans-Serif" font-size="10.00">be/src/exec/analytic</text>
<text text-anchor="middle" x="201" y="-212" font-family="Helvetica,sans-Serif" font-size="10.00">&#45;eval&#45;node.cc</text>
</a>
</g>
</g>
<!-- Node2&#45;&gt;Node3 -->
<g id="edge2" class="edge"><title>Node2&#45;&gt;Node3</title>
<path fill="none" stroke="midnightblue" d="M93.204,-268.749C117.26,-258.093 147.146,-244.855 169.345,-235.022"/>
<polygon fill="midnightblue" stroke="midnightblue" points="91.6899,-265.591 83.9642,-272.841 94.5249,-271.991 91.6899,-265.591"/>
</g>
<!-- Node4 -->
<g id="node4" class="node"><title>Node4</title>
<g id="a_node4"><a xlink:href="exec-node_8cc.html" target="_top" xlink:title="be/src/exec/exec&#45;node.cc">
<polygon fill="white" stroke="black" points="524.5,-74.5 524.5,-93.5 653.5,-93.5 653.5,-74.5 524.5,-74.5"/>
<text text-anchor="middle" x="589" y="-81.5" font-family="Helvetica,sans-Serif" font-size="10.00">be/src/exec/exec&#45;node.cc</text>
</a>
</g>
</g>
<!-- Node2&#45;&gt;Node4 -->
<g id="edge3" class="edge"><title>Node2&#45;&gt;Node4</title>
<path fill="none" stroke="midnightblue" d="M64.2403,-264.006C75.4882,-245.087 93.9,-219.026 117,-204 153.793,-180.068 441.714,-116.609 548.94,-93.5379"/>
<polygon fill="midnightblue" stroke="midnightblue" points="61.0836,-262.476 59.1647,-272.895 67.1625,-265.946 61.0836,-262.476"/>
</g>
<!-- Node6 -->
<g id="node6" class="node"><title>Node6</title>
<g id="a_node6"><a xlink:href="hash-table_8inline_8h.html" target="_top" xlink:title="be/src/exec/hash&#45;table.inline.h">
<polygon fill="white" stroke="black" points="1218.5,-142.5 1218.5,-161.5 1367.5,-161.5 1367.5,-142.5 1218.5,-142.5"/>
<text text-anchor="middle" x="1293" y="-149.5" font-family="Helvetica,sans-Serif" font-size="10.00">be/src/exec/hash&#45;table.inline.h</text>
</a>
</g>
</g>
<!-- Node5&#45;&gt;Node6 -->
<g id="edge5" class="edge"><title>Node5&#45;&gt;Node6</title>
<path fill="none" stroke="midnightblue" d="M1069.57,-208.024C1122.61,-194.963 1210.03,-173.432 1258.3,-161.546"/>
<polygon fill="midnightblue" stroke="midnightblue" points="1068.63,-204.65 1059.76,-210.439 1070.31,-211.446 1068.63,-204.65"/>
</g>
<!-- Node5&#45;&gt;Node17 -->
<g id="edge16" class="edge"><title>Node5&#45;&gt;Node17</title>
<path fill="none" stroke="midnightblue" d="M975.091,-208.441C967.69,-206.922 960.15,-205.4 953,-204 877.157,-189.145 789.41,-173.264 733.114,-163.243"/>
<polygon fill="midnightblue" stroke="midnightblue" points="974.545,-211.902 985.046,-210.499 975.962,-205.047 974.545,-211.902"/>
</g>
<!-- Node18 -->
<g id="node18" class="node"><title>Node18</title>
<g id="a_node18"><a xlink:href="partitioned-hash-join-node_8h.html" target="_top" xlink:title="be/src/exec/partitioned\l&#45;hash&#45;join&#45;node.h">
<polygon fill="white" stroke="black" points="483,-137 483,-167 599,-167 599,-137 483,-137"/>
<text text-anchor="start" x="491" y="-155" font-family="Helvetica,sans-Serif" font-size="10.00">be/src/exec/partitioned</text>
<text text-anchor="middle" x="541" y="-144" font-family="Helvetica,sans-Serif" font-size="10.00">&#45;hash&#45;join&#45;node.h</text>
</a>
</g>
</g>
<!-- Node5&#45;&gt;Node18 -->
<g id="edge20" class="edge"><title>Node5&#45;&gt;Node18</title>
<path fill="none" stroke="midnightblue" d="M977.869,-208.467C969.607,-206.825 961.072,-205.259 953,-204 800.675,-180.248 760.145,-192.883 608,-168 605.059,-167.519 602.054,-166.989 599.024,-166.424"/>
<polygon fill="midnightblue" stroke="midnightblue" points="977.264,-211.916 987.762,-210.492 978.667,-205.058 977.264,-211.916"/>
</g>
<!-- Node7 -->
<g id="node7" class="node"><title>Node7</title>
<g id="a_node7"><a xlink:href="hash-join-node_8cc_8BACKUP_832326_8cc.html" target="_top" xlink:title="be/src/exec/hash&#45;join\l&#45;node.cc.BACKUP.32326.cc">
<polygon fill="white" stroke="black" points="1222,-69 1222,-99 1364,-99 1364,-69 1222,-69"/>
<text text-anchor="start" x="1230" y="-87" font-family="Helvetica,sans-Serif" font-size="10.00">be/src/exec/hash&#45;join</text>
<text text-anchor="middle" x="1293" y="-76" font-family="Helvetica,sans-Serif" font-size="10.00">&#45;node.cc.BACKUP.32326.cc</text>
</a>
</g>
</g>
<!-- Node6&#45;&gt;Node7 -->
<g id="edge6" class="edge"><title>Node6&#45;&gt;Node7</title>
<path fill="none" stroke="midnightblue" d="M1293,-132.174C1293,-121.678 1293,-108.821 1293,-99.1815"/>
<polygon fill="midnightblue" stroke="midnightblue" points="1289.5,-132.372 1293,-142.372 1296.5,-132.372 1289.5,-132.372"/>
</g>
<!-- Node8 -->
<g id="node8" class="node"><title>Node8</title>
<g id="a_node8"><a xlink:href="hash-join-node_8cc_8BASE_832326_8cc.html" target="_top" xlink:title="be/src/exec/hash&#45;join\l&#45;node.cc.BASE.32326.cc">
<polygon fill="white" stroke="black" points="1420.5,-69 1420.5,-99 1547.5,-99 1547.5,-69 1420.5,-69"/>
<text text-anchor="start" x="1428.5" y="-87" font-family="Helvetica,sans-Serif" font-size="10.00">be/src/exec/hash&#45;join</text>
<text text-anchor="middle" x="1484" y="-76" font-family="Helvetica,sans-Serif" font-size="10.00">&#45;node.cc.BASE.32326.cc</text>
</a>
</g>
</g>
<!-- Node6&#45;&gt;Node8 -->
<g id="edge7" class="edge"><title>Node6&#45;&gt;Node8</title>
<path fill="none" stroke="midnightblue" d="M1327.52,-139.072C1360.08,-127.822 1408.89,-110.955 1443.32,-99.0562"/>
<polygon fill="midnightblue" stroke="midnightblue" points="1326.28,-135.798 1317.97,-142.372 1328.56,-142.414 1326.28,-135.798"/>
</g>
<!-- Node9 -->
<g id="node9" class="node"><title>Node9</title>
<g id="a_node9"><a xlink:href="hash-join-node_8cc_8LOCAL_832326_8cc.html" target="_top" xlink:title="be/src/exec/hash&#45;join\l&#45;node.cc.LOCAL.32326.cc">
<polygon fill="white" stroke="black" points="1566,-69 1566,-99 1698,-99 1698,-69 1566,-69"/>
<text text-anchor="start" x="1574" y="-87" font-family="Helvetica,sans-Serif" font-size="10.00">be/src/exec/hash&#45;join</text>
<text text-anchor="middle" x="1632" y="-76" font-family="Helvetica,sans-Serif" font-size="10.00">&#45;node.cc.LOCAL.32326.cc</text>
</a>
</g>
</g>
<!-- Node6&#45;&gt;Node9 -->
<g id="edge8" class="edge"><title>Node6&#45;&gt;Node9</title>
<path fill="none" stroke="midnightblue" d="M1347.11,-140.562C1400.29,-130.29 1483.75,-114.136 1556,-100 1559.17,-99.3803 1562.41,-98.7449 1565.68,-98.1023"/>
<polygon fill="midnightblue" stroke="midnightblue" points="1346.37,-137.14 1337.22,-142.472 1347.7,-144.013 1346.37,-137.14"/>
</g>
<!-- Node10 -->
<g id="node10" class="node"><title>Node10</title>
<g id="a_node10"><a xlink:href="hash-join-node_8cc_8REMOTE_832326_8cc.html" target="_top" xlink:title="be/src/exec/hash&#45;join\l&#45;node.cc.REMOTE.32326.cc">
<polygon fill="white" stroke="black" points="1754.5,-69 1754.5,-99 1897.5,-99 1897.5,-69 1754.5,-69"/>
<text text-anchor="start" x="1762.5" y="-87" font-family="Helvetica,sans-Serif" font-size="10.00">be/src/exec/hash&#45;join</text>
<text text-anchor="middle" x="1826" y="-76" font-family="Helvetica,sans-Serif" font-size="10.00">&#45;node.cc.REMOTE.32326.cc</text>
</a>
</g>
</g>
<!-- Node6&#45;&gt;Node10 -->
<g id="edge9" class="edge"><title>Node6&#45;&gt;Node10</title>
<path fill="none" stroke="midnightblue" d="M1377.67,-142.844C1467.71,-133.819 1614.2,-118.132 1740,-100 1744.65,-99.3298 1749.44,-98.6019 1754.25,-97.8402"/>
<polygon fill="midnightblue" stroke="midnightblue" points="1377.12,-139.381 1367.52,-143.857 1377.82,-146.347 1377.12,-139.381"/>
</g>
<!-- Node11 -->
<g id="node11" class="node"><title>Node11</title>
<g id="a_node11"><a xlink:href="hash-table-test_8cc.html" target="_top" xlink:title="be/src/exec/hash&#45;table\l&#45;test.cc">
<polygon fill="white" stroke="black" points="940,-69 940,-99 1056,-99 1056,-69 940,-69"/>
<text text-anchor="start" x="948" y="-87" font-family="Helvetica,sans-Serif" font-size="10.00">be/src/exec/hash&#45;table</text>
<text text-anchor="middle" x="998" y="-76" font-family="Helvetica,sans-Serif" font-size="10.00">&#45;test.cc</text>
</a>
</g>
</g>
<!-- Node6&#45;&gt;Node11 -->
<g id="edge10" class="edge"><title>Node6&#45;&gt;Node11</title>
<path fill="none" stroke="midnightblue" d="M1244.84,-140.226C1193.27,-128.688 1111.43,-110.378 1056.27,-98.0359"/>
<polygon fill="midnightblue" stroke="midnightblue" points="1244.21,-143.671 1254.74,-142.439 1245.74,-136.84 1244.21,-143.671"/>
</g>
<!-- Node12 -->
<g id="node12" class="node"><title>Node12</title>
<g id="a_node12"><a xlink:href="hash-table_8cc.html" target="_top" xlink:title="be/src/exec/hash&#45;table.cc">
<polygon fill="white" stroke="black" points="1074.5,-74.5 1074.5,-93.5 1203.5,-93.5 1203.5,-74.5 1074.5,-74.5"/>
<text text-anchor="middle" x="1139" y="-81.5" font-family="Helvetica,sans-Serif" font-size="10.00">be/src/exec/hash&#45;table.cc</text>
</a>
</g>
</g>
<!-- Node6&#45;&gt;Node12 -->
<g id="edge11" class="edge"><title>Node6&#45;&gt;Node12</title>
<path fill="none" stroke="midnightblue" d="M1263.55,-138.377C1232.91,-125.247 1185.77,-105.045 1159.14,-93.6305"/>
<polygon fill="midnightblue" stroke="midnightblue" points="1262.3,-141.649 1272.87,-142.372 1265.05,-135.215 1262.3,-141.649"/>
</g>
<!-- Node13 -->
<g id="node13" class="node"><title>Node13</title>
<g id="a_node13"><a xlink:href="partitioned-aggregation-node-ir_8cc.html" target="_top" xlink:title="be/src/exec/partitioned\l&#45;aggregation&#45;node&#45;ir.cc">
<polygon fill="white" stroke="black" points="672,-69 672,-99 788,-99 788,-69 672,-69"/>
<text text-anchor="start" x="680" y="-87" font-family="Helvetica,sans-Serif" font-size="10.00">be/src/exec/partitioned</text>
<text text-anchor="middle" x="730" y="-76" font-family="Helvetica,sans-Serif" font-size="10.00">&#45;aggregation&#45;node&#45;ir.cc</text>
</a>
</g>
</g>
<!-- Node6&#45;&gt;Node13 -->
<g id="edge12" class="edge"><title>Node6&#45;&gt;Node13</title>
<path fill="none" stroke="midnightblue" d="M1208.02,-145.322C1108.91,-137.994 940.379,-123.338 797,-100 794.059,-99.5212 791.053,-98.993 788.023,-98.4294"/>
<polygon fill="midnightblue" stroke="midnightblue" points="1208.04,-148.833 1218.27,-146.072 1208.55,-141.852 1208.04,-148.833"/>
</g>
<!-- Node14 -->
<g id="node14" class="node"><title>Node14</title>
<g id="a_node14"><a xlink:href="partitioned-aggregation-node_8cc.html" target="_top" xlink:title="be/src/exec/partitioned\l&#45;aggregation&#45;node.cc">
<polygon fill="white" stroke="black" points="806,-69 806,-99 922,-99 922,-69 806,-69"/>
<text text-anchor="start" x="814" y="-87" font-family="Helvetica,sans-Serif" font-size="10.00">be/src/exec/partitioned</text>
<text text-anchor="middle" x="864" y="-76" font-family="Helvetica,sans-Serif" font-size="10.00">&#45;aggregation&#45;node.cc</text>
</a>
</g>
</g>
<!-- Node6&#45;&gt;Node14 -->
<g id="edge13" class="edge"><title>Node6&#45;&gt;Node14</title>
<path fill="none" stroke="midnightblue" d="M1210.13,-141.247C1136.56,-132.132 1026.27,-117.346 931,-100 928.068,-99.4662 925.07,-98.8936 922.047,-98.2949"/>
<polygon fill="midnightblue" stroke="midnightblue" points="1209.91,-144.746 1220.27,-142.495 1210.77,-137.799 1209.91,-144.746"/>
</g>
<!-- Node15 -->
<g id="node15" class="node"><title>Node15</title>
<g id="a_node15"><a xlink:href="partitioned-hash-join-node-ir_8cc.html" target="_top" xlink:title="be/src/exec/partitioned\l&#45;hash&#45;join&#45;node&#45;ir.cc">
<polygon fill="white" stroke="black" points="1096,-1 1096,-31 1212,-31 1212,-1 1096,-1"/>
<text text-anchor="start" x="1104" y="-19" font-family="Helvetica,sans-Serif" font-size="10.00">be/src/exec/partitioned</text>
<text text-anchor="middle" x="1154" y="-8" font-family="Helvetica,sans-Serif" font-size="10.00">&#45;hash&#45;join&#45;node&#45;ir.cc</text>
</a>
</g>
</g>
<!-- Node6&#45;&gt;Node15 -->
<g id="edge14" class="edge"><title>Node6&#45;&gt;Node15</title>
<path fill="none" stroke="midnightblue" d="M1377.76,-146.477C1492.52,-139.471 1685.58,-124.223 1707,-100 1716.42,-89.3463 1716.58,-78.5083 1707,-68 1674.11,-31.9363 1347.24,-21.0155 1212.05,-18.026"/>
<polygon fill="midnightblue" stroke="midnightblue" points="1377.36,-142.994 1367.59,-147.088 1377.78,-149.982 1377.36,-142.994"/>
</g>
<!-- Node16 -->
<g id="node16" class="node"><title>Node16</title>
<g id="a_node16"><a xlink:href="partitioned-hash-join-node_8cc.html" target="_top" xlink:title="be/src/exec/partitioned\l&#45;hash&#45;join&#45;node.cc">
<polygon fill="white" stroke="black" points="390,-1 390,-31 506,-31 506,-1 390,-1"/>
<text text-anchor="start" x="398" y="-19" font-family="Helvetica,sans-Serif" font-size="10.00">be/src/exec/partitioned</text>
<text text-anchor="middle" x="448" y="-8" font-family="Helvetica,sans-Serif" font-size="10.00">&#45;hash&#45;join&#45;node.cc</text>
</a>
</g>
</g>
<!-- Node6&#45;&gt;Node16 -->
<g id="edge15" class="edge"><title>Node6&#45;&gt;Node16</title>
<path fill="none" stroke="midnightblue" d="M1321.73,-137.667C1353.24,-121.33 1396.44,-92.7657 1373,-68 1343.13,-36.4416 704.413,-21.8192 506.161,-18.0296"/>
<polygon fill="midnightblue" stroke="midnightblue" points="1319.79,-134.724 1312.41,-142.327 1322.92,-140.985 1319.79,-134.724"/>
</g>
<!-- Node17&#45;&gt;Node4 -->
<g id="edge17" class="edge"><title>Node17&#45;&gt;Node4</title>
<path fill="none" stroke="midnightblue" d="M648.33,-130.532C632.281,-118.216 612.668,-103.164 600.504,-93.8283"/>
<polygon fill="midnightblue" stroke="midnightblue" points="646.275,-133.367 656.339,-136.679 650.537,-127.814 646.275,-133.367"/>
</g>
<!-- Node17&#45;&gt;Node13 -->
<g id="edge18" class="edge"><title>Node17&#45;&gt;Node13</title>
<path fill="none" stroke="midnightblue" d="M693.416,-128.901C701.553,-119.136 710.886,-107.936 718.089,-99.2931"/>
<polygon fill="midnightblue" stroke="midnightblue" points="690.647,-126.756 686.934,-136.679 696.025,-131.237 690.647,-126.756"/>
</g>
<!-- Node17&#45;&gt;Node14 -->
<g id="edge19" class="edge"><title>Node17&#45;&gt;Node14</title>
<path fill="none" stroke="midnightblue" d="M725.251,-133.452C756.097,-122.68 795.066,-109.072 823.847,-99.0218"/>
<polygon fill="midnightblue" stroke="midnightblue" points="723.832,-130.24 715.545,-136.841 726.14,-136.849 723.832,-130.24"/>
</g>
<!-- Node18&#45;&gt;Node4 -->
<g id="edge21" class="edge"><title>Node18&#45;&gt;Node4</title>
<path fill="none" stroke="midnightblue" d="M557.382,-128.475C566.035,-116.576 576.163,-102.65 582.579,-93.8283"/>
<polygon fill="midnightblue" stroke="midnightblue" points="554.466,-126.533 551.415,-136.679 560.128,-130.65 554.466,-126.533"/>
</g>
<!-- Node19 -->
<g id="node19" class="node"><title>Node19</title>
<g id="a_node19"><a xlink:href="partitioned-hash-join-node_8inline_8h.html" target="_top" xlink:title="be/src/exec/partitioned\l&#45;hash&#45;join&#45;node.inline.h">
<polygon fill="white" stroke="black" points="390,-69 390,-99 506,-99 506,-69 390,-69"/>
<text text-anchor="start" x="398" y="-87" font-family="Helvetica,sans-Serif" font-size="10.00">be/src/exec/partitioned</text>
<text text-anchor="middle" x="448" y="-76" font-family="Helvetica,sans-Serif" font-size="10.00">&#45;hash&#45;join&#45;node.inline.h</text>
</a>
</g>
</g>
<!-- Node18&#45;&gt;Node19 -->
<g id="edge22" class="edge"><title>Node18&#45;&gt;Node19</title>
<path fill="none" stroke="midnightblue" d="M512.661,-130.888C498.164,-120.6 480.873,-108.329 467.821,-99.0663"/>
<polygon fill="midnightblue" stroke="midnightblue" points="510.64,-133.746 520.82,-136.679 514.691,-128.037 510.64,-133.746"/>
</g>
<!-- Node19&#45;&gt;Node15 -->
<g id="edge23" class="edge"><title>Node19&#45;&gt;Node15</title>
<path fill="none" stroke="midnightblue" d="M516.098,-67.9764C735.364,-35.49 985.088,-23.1226 1095.97,-18.8995"/>
<polygon fill="midnightblue" stroke="midnightblue" points="515.381,-64.5447 506.01,-69.4886 516.419,-71.4674 515.381,-64.5447"/>
</g>
<!-- Node19&#45;&gt;Node16 -->
<g id="edge24" class="edge"><title>Node19&#45;&gt;Node16</title>
<path fill="none" stroke="midnightblue" d="M448,-58.5322C448,-49.3606 448,-39.2449 448,-31.2931"/>
<polygon fill="midnightblue" stroke="midnightblue" points="444.5,-58.6789 448,-68.679 451.5,-58.679 444.5,-58.6789"/>
</g>
<!-- Node21&#45;&gt;Node3 -->
<g id="edge28" class="edge"><title>Node21&#45;&gt;Node3</title>
<path fill="none" stroke="midnightblue" d="M391.12,-270.401C348.56,-259.342 293.316,-244.988 253.356,-234.604"/>
<polygon fill="midnightblue" stroke="midnightblue" points="390.263,-273.795 400.822,-272.922 392.024,-267.02 390.263,-273.795"/>
</g>
<!-- Node21&#45;&gt;Node5 -->
<g id="edge29" class="edge"><title>Node21&#45;&gt;Node5</title>
<path fill="none" stroke="midnightblue" d="M523.777,-271.856C713.788,-243.628 766.028,-263.181 953,-236 964.498,-234.328 976.92,-231.95 988.155,-229.578"/>
<polygon fill="midnightblue" stroke="midnightblue" points="523.105,-268.417 513.74,-273.372 524.15,-275.339 523.105,-268.417"/>
</g>
<!-- Node21&#45;&gt;Node13 -->
<g id="edge30" class="edge"><title>Node21&#45;&gt;Node13</title>
<path fill="none" stroke="midnightblue" d="M516.633,-270.059C592.664,-247.77 715.082,-206.857 741,-168 754.873,-147.201 745.139,-116.883 737.257,-99.2264"/>
<polygon fill="midnightblue" stroke="midnightblue" points="515.313,-266.798 506.686,-272.947 517.265,-273.52 515.313,-266.798"/>
</g>
<!-- Node21&#45;&gt;Node14 -->
<g id="edge31" class="edge"><title>Node21&#45;&gt;Node14</title>
<path fill="none" stroke="midnightblue" d="M523.624,-271.618C584.593,-257.835 665.131,-239.294 672,-236 747.711,-199.695 821.162,-129.22 850.558,-99.1499"/>
<polygon fill="midnightblue" stroke="midnightblue" points="522.623,-268.256 513.639,-273.872 524.165,-275.084 522.623,-268.256"/>
</g>
<!-- Node21&#45;&gt;Node16 -->
<g id="edge32" class="edge"><title>Node21&#45;&gt;Node16</title>
<path fill="none" stroke="midnightblue" d="M442.21,-263.261C424.327,-228.582 392.725,-161.495 381,-100 378.336,-86.0295 374.685,-80.7433 381,-68 388.919,-52.02 404.507,-39.6883 418.655,-31.1568"/>
<polygon fill="midnightblue" stroke="midnightblue" points="439.333,-265.311 447.073,-272.547 445.534,-262.064 439.333,-265.311"/>
</g>
<!-- Node21&#45;&gt;Node19 -->
<g id="edge33" class="edge"><title>Node21&#45;&gt;Node19</title>
<path fill="none" stroke="midnightblue" d="M454.16,-262.75C452.684,-220.18 449.673,-133.291 448.492,-99.1886"/>
<polygon fill="midnightblue" stroke="midnightblue" points="450.663,-262.923 454.508,-272.796 457.659,-262.681 450.663,-262.923"/>
</g>
<!-- Node22 -->
<g id="node22" class="node"><title>Node22</title>
<g id="a_node22"><a xlink:href="buffered-tuple-stream-ir_8cc.html" target="_top" xlink:title="be/src/runtime/buffered\l&#45;tuple&#45;stream&#45;ir.cc">
<polygon fill="white" stroke="black" points="827.5,-205 827.5,-235 944.5,-235 944.5,-205 827.5,-205"/>
<text text-anchor="start" x="835.5" y="-223" font-family="Helvetica,sans-Serif" font-size="10.00">be/src/runtime/buffered</text>
<text text-anchor="middle" x="886" y="-212" font-family="Helvetica,sans-Serif" font-size="10.00">&#45;tuple&#45;stream&#45;ir.cc</text>
</a>
</g>
</g>
<!-- Node21&#45;&gt;Node22 -->
<g id="edge34" class="edge"><title>Node21&#45;&gt;Node22</title>
<path fill="none" stroke="midnightblue" d="M523.975,-271.754C652.191,-250.095 687.671,-256.595 813,-236 817.596,-235.245 822.343,-234.405 827.108,-233.52"/>
<polygon fill="midnightblue" stroke="midnightblue" points="523.026,-268.366 513.762,-273.505 524.209,-275.265 523.026,-268.366"/>
</g>
<!-- Node23 -->
<g id="node23" class="node"><title>Node23</title>
<g id="a_node23"><a xlink:href="buffered-tuple-stream-test_8cc.html" target="_top" xlink:title="be/src/runtime/buffered\l&#45;tuple&#45;stream&#45;test.cc">
<polygon fill="white" stroke="black" points="271.5,-205 271.5,-235 388.5,-235 388.5,-205 271.5,-205"/>
<text text-anchor="start" x="279.5" y="-223" font-family="Helvetica,sans-Serif" font-size="10.00">be/src/runtime/buffered</text>
<text text-anchor="middle" x="330" y="-212" font-family="Helvetica,sans-Serif" font-size="10.00">&#45;tuple&#45;stream&#45;test.cc</text>
</a>
</g>
</g>
<!-- Node21&#45;&gt;Node23 -->
<g id="edge35" class="edge"><title>Node21&#45;&gt;Node23</title>
<path fill="none" stroke="midnightblue" d="M419.118,-268.055C399.25,-257.564 374.968,-244.743 356.771,-235.135"/>
<polygon fill="midnightblue" stroke="midnightblue" points="417.707,-271.267 428.184,-272.841 420.976,-265.077 417.707,-271.267"/>
</g>
</g>
</svg>
        <g id="navigator" transform="translate(0 0)" fill="#404254">
                <rect fill="#f2f5e9" fill-opacity="0.5" stroke="#606060" stroke-width=".5" x="0" y="0" width="60" height="60"/>
                <use id="zoomplus" xlink:href="#zoomPlus" x="17" y="9" onmousedown="handleZoom(evt,'in')"/>
                <use id="zoomminus" xlink:href="#zoomMin" x="42" y="9" onmousedown="handleZoom(evt,'out')"/>
                <use id="reset" xlink:href="#resetDef" x="30" y="36" onmousedown="handleReset()"/>
                <g id="arrowUp" xlink:href="#dirArrow" transform="translate(30 24)" onmousedown="handlePan(0,-1)">
                  <use xlink:href="#rim" fill="#404040">
                        <set attributeName="fill" to="#808080" begin="arrowUp.mouseover" end="arrowUp.mouseout"/>
                  </use>
                  <path fill="none" stroke="white" stroke-width="1.5" d="M0,-3.0v7 M-2.5,-0.5L0,-3.0L2.5,-0.5"/>
                </g>
                <g id="arrowRight" xlink:href="#dirArrow" transform="rotate(90) translate(36 -43)" onmousedown="handlePan(1,0)">
                  <use xlink:href="#rim" fill="#404040">
                        <set attributeName="fill" to="#808080" begin="arrowRight.mouseover" end="arrowRight.mouseout"/>
                  </use>
                  <path fill="none" stroke="white" stroke-width="1.5" d="M0,-3.0v7 M-2.5,-0.5L0,-3.0L2.5,-0.5"/>
                </g>
                <g id="arrowDown" xlink:href="#dirArrow" transform="rotate(180) translate(-30 -48)" onmousedown="handlePan(0,1)">
                  <use xlink:href="#rim" fill="#404040">
                        <set attributeName="fill" to="#808080" begin="arrowDown.mouseover" end="arrowDown.mouseout"/>
                  </use>
                  <path fill="none" stroke="white" stroke-width="1.5" d="M0,-3.0v7 M-2.5,-0.5L0,-3.0L2.5,-0.5"/>
                </g>
                <g id="arrowLeft" xlink:href="#dirArrow" transform="rotate(270) translate(-36 17)" onmousedown="handlePan(-1,0)">
                  <use xlink:href="#rim" fill="#404040">
                        <set attributeName="fill" to="#808080" begin="arrowLeft.mouseover" end="arrowLeft.mouseout"/>
                  </use>
                  <path fill="none" stroke="white" stroke-width="1.5" d="M0,-3.0v7 M-2.5,-0.5L0,-3.0L2.5,-0.5"/>
                </g>
        </g>
        <svg viewBox="0 0 15 15" width="100%" height="30px" preserveAspectRatio="xMaxYMin meet">
         <g id="arrow_out" transform="scale(0.3 0.3)">
          <a xlink:href="buffered-tuple-stream_8h__dep__incl_org.svg" target="_base">
           <rect id="button" ry="5" rx="5" y="6" x="6" height="38" width="38"
                fill="#f2f5e9" fill-opacity="0.5" stroke="#606060" stroke-width="1.0"/>
           <path id="arrow"
             d="M 11.500037,31.436501 C 11.940474,20.09759 22.043105,11.32322 32.158766,21.979434 L 37.068811,17.246167 C 37.068811,17.246167 37.088388,32 37.088388,32 L 22.160133,31.978069 C 22.160133,31.978069 26.997745,27.140456 26.997745,27.140456 C 18.528582,18.264221 13.291696,25.230495 11.500037,31.436501 z"
             style="fill:#404040;"/>
          </a>
         </g>
        </svg>
</svg>
