<?xml version="1.0" encoding="UTF-8" standalone="no"?>
<!DOCTYPE svg PUBLIC "-//W3C//DTD SVG 1.1//EN"
 "http://www.w3.org/Graphics/SVG/1.1/DTD/svg11.dtd">
<!-- Generated by graphviz version 2.36.0 (20140111.2315)
 -->
<!-- Title: be/src/exprs/case&#45;expr.h Pages: 1 -->
<svg width="387pt" height="96pt"
 viewBox="0.00 0.00 387.00 96.00" xmlns="http://www.w3.org/2000/svg" xmlns:xlink="http://www.w3.org/1999/xlink">
<g id="graph0" class="graph" transform="scale(1 1) rotate(0) translate(4 92)">
<title>be/src/exprs/case&#45;expr.h</title>
<polygon fill="white" stroke="none" points="-4,4 -4,-92 383,-92 383,4 -4,4"/>
<!-- Node1 -->
<g id="node1" class="node"><title>Node1</title>
<polygon fill="#bfbfbf" stroke="black" points="139.5,-68.5 139.5,-87.5 264.5,-87.5 264.5,-68.5 139.5,-68.5"/>
<text text-anchor="middle" x="202" y="-75.5" font-family="Helvetica,sans-Serif" font-size="10.00">be/src/exprs/case&#45;expr.h</text>
</g>
<!-- Node2 -->
<g id="node2" class="node"><title>Node2</title>
<g id="a_node2"><a xlink:href="case-expr_8cc.html" target="_top" xlink:title="be/src/exprs/case&#45;expr.cc">
<polygon fill="white" stroke="black" points="0,-6.5 0,-25.5 130,-25.5 130,-6.5 0,-6.5"/>
<text text-anchor="middle" x="65" y="-13.5" font-family="Helvetica,sans-Serif" font-size="10.00">be/src/exprs/case&#45;expr.cc</text>
</a>
</g>
</g>
<!-- Node1&#45;&gt;Node2 -->
<g id="edge1" class="edge"><title>Node1&#45;&gt;Node2</title>
<path fill="none" stroke="midnightblue" d="M173.171,-64.3743C146.564,-52.7215 107.771,-35.7319 84.5923,-25.5806"/>
<polygon fill="midnightblue" stroke="midnightblue" points="171.807,-67.5977 182.371,-68.4035 174.615,-61.1857 171.807,-67.5977"/>
</g>
<!-- Node3 -->
<g id="node3" class="node"><title>Node3</title>
<g id="a_node3"><a xlink:href="decimal-operators_8cc.html" target="_top" xlink:title="be/src/exprs/decimal\l&#45;operators.cc">
<polygon fill="white" stroke="black" points="148.5,-1 148.5,-31 255.5,-31 255.5,-1 148.5,-1"/>
<text text-anchor="start" x="156.5" y="-19" font-family="Helvetica,sans-Serif" font-size="10.00">be/src/exprs/decimal</text>
<text text-anchor="middle" x="202" y="-8" font-family="Helvetica,sans-Serif" font-size="10.00">&#45;operators.cc</text>
</a>
</g>
</g>
<!-- Node1&#45;&gt;Node3 -->
<g id="edge2" class="edge"><title>Node1&#45;&gt;Node3</title>
<path fill="none" stroke="midnightblue" d="M202,-58.3707C202,-49.5849 202,-39.2721 202,-31.1408"/>
<polygon fill="midnightblue" stroke="midnightblue" points="198.5,-58.4034 202,-68.4035 205.5,-58.4035 198.5,-58.4034"/>
</g>
<!-- Node4 -->
<g id="node4" class="node"><title>Node4</title>
<g id="a_node4"><a xlink:href="expr_8cc.html" target="_top" xlink:title="be/src/exprs/expr.cc">
<polygon fill="white" stroke="black" points="273,-6.5 273,-25.5 379,-25.5 379,-6.5 273,-6.5"/>
<text text-anchor="middle" x="326" y="-13.5" font-family="Helvetica,sans-Serif" font-size="10.00">be/src/exprs/expr.cc</text>
</a>
</g>
</g>
<!-- Node1&#45;&gt;Node4 -->
<g id="edge3" class="edge"><title>Node1&#45;&gt;Node4</title>
<path fill="none" stroke="midnightblue" d="M229.049,-63.9116C253.097,-52.2756 287.563,-35.5983 308.267,-25.5806"/>
<polygon fill="midnightblue" stroke="midnightblue" points="227.243,-60.8972 219.766,-68.4035 230.292,-67.1984 227.243,-60.8972"/>
</g>
</g>
</svg>
