<?xml version="1.0" encoding="UTF-8" standalone="no"?>
<!DOCTYPE svg PUBLIC "-//W3C//DTD SVG 1.1//EN"
 "http://www.w3.org/Graphics/SVG/1.1/DTD/svg11.dtd">
<!-- Generated by graphviz version 2.36.0 (20140111.2315)
 -->
<!-- Title: be/src/catalog/catalog&#45;util.cc Pages: 1 -->
<!--zoomable 232 -->
<svg id="main" version="1.1" xmlns="http://www.w3.org/2000/svg" xmlns:xlink="http://www.w3.org/1999/xlink" xml:space="preserve" onload="init(evt)">
<style type="text/css"><![CDATA[
.edge:hover path { stroke: red; }
.edge:hover polygon { stroke: red; fill: red; }
]]></style>
<script type="text/javascript"><![CDATA[
var edges = document.getElementsByTagName('g');
if (edges && edges.length) {
  for (var i=0;i<edges.length;i++) {
    if (edges[i].id.substr(0,4)=='edge') {
      edges[i].setAttribute('class','edge');
    }
  }
}
]]></script>
        <defs>
                <circle id="rim" cx="0" cy="0" r="7"/>
                <circle id="rim2" cx="0" cy="0" r="3.5"/>
                <g id="zoomPlus">
                        <use xlink:href="#rim" fill="#404040">
                                <set attributeName="fill" to="#808080" begin="zoomplus.mouseover" end="zoomplus.mouseout"/>
                        </use>
                        <path d="M-4,0h8M0,-4v8" fill="none" stroke="white" stroke-width="1.5" pointer-events="none"/>
                </g>
                <g id="zoomMin">
                        <use xlink:href="#rim" fill="#404040">
                                <set attributeName="fill" to="#808080" begin="zoomminus.mouseover" end="zoomminus.mouseout"/>
                        </use>
                        <path d="M-4,0h8" fill="none" stroke="white" stroke-width="1.5" pointer-events="none"/>
                </g>
                <g id="dirArrow">
                        <path fill="none" stroke="white" stroke-width="1.5" d="M0,-3.0v7 M-2.5,-0.5L0,-3.0L2.5,-0.5"/>
                </g>
               <g id="resetDef">
                       <use xlink:href="#rim2" fill="#404040">
                               <set attributeName="fill" to="#808080" begin="reset.mouseover" end="reset.mouseout"/>
                       </use>
               </g>
        </defs>

<script type="text/javascript">
var viewWidth = 2419;
var viewHeight = 232;
var sectionId = 'dynsection-0';
</script>
<script xlink:href="svgpan.js"/>
<svg id="graph" class="graph">
<g id="viewport">
<title>be/src/catalog/catalog&#45;util.cc</title>
<polygon fill="white" stroke="none" points="-4,4 -4,-228 2415,-228 2415,4 -4,4"/>
<!-- Node1 -->
<g id="node1" class="node"><title>Node1</title>
<polygon fill="#bfbfbf" stroke="black" points="817.5,-193 817.5,-223 930.5,-223 930.5,-193 817.5,-193"/>
<text text-anchor="start" x="825.5" y="-211" font-family="Helvetica,sans-Serif" font-size="10.00">be/src/catalog/catalog</text>
<text text-anchor="middle" x="874" y="-200" font-family="Helvetica,sans-Serif" font-size="10.00">&#45;util.cc</text>
</g>
<!-- Node2 -->
<g id="node2" class="node"><title>Node2</title>
<polygon fill="white" stroke="#bfbfbf" points="504.5,-136.5 504.5,-155.5 633.5,-155.5 633.5,-136.5 504.5,-136.5"/>
<text text-anchor="middle" x="569" y="-143.5" font-family="Helvetica,sans-Serif" font-size="10.00">boost/algorithm/string.hpp</text>
</g>
<!-- Node1&#45;&gt;Node2 -->
<g id="edge1" class="edge"><title>Node1&#45;&gt;Node2</title>
<path fill="none" stroke="midnightblue" d="M817.347,-195.855C761.557,-184.88 676.987,-168.243 622.364,-157.498"/>
<polygon fill="midnightblue" stroke="midnightblue" points="623.014,-154.059 612.527,-155.563 621.663,-160.927 623.014,-154.059"/>
</g>
<!-- Node3 -->
<g id="node3" class="node"><title>Node3</title>
<polygon fill="white" stroke="#bfbfbf" points="927,-74.5 927,-93.5 979,-93.5 979,-74.5 927,-74.5"/>
<text text-anchor="middle" x="953" y="-81.5" font-family="Helvetica,sans-Serif" font-size="10.00">sstream</text>
</g>
<!-- Node1&#45;&gt;Node3 -->
<g id="edge2" class="edge"><title>Node1&#45;&gt;Node3</title>
<path fill="none" stroke="midnightblue" d="M883.373,-192.526C898.022,-169.903 926.282,-126.26 941.918,-102.113"/>
<polygon fill="midnightblue" stroke="midnightblue" points="944.919,-103.919 947.416,-93.6228 939.043,-100.114 944.919,-103.919"/>
</g>
<!-- Node4 -->
<g id="node4" class="node"><title>Node4</title>
<g id="a_node4"><a xlink:href="catalog-util_8h.html" target="_top" xlink:title="catalog/catalog&#45;util.h">
<polygon fill="white" stroke="black" points="651.5,-136.5 651.5,-155.5 758.5,-155.5 758.5,-136.5 651.5,-136.5"/>
<text text-anchor="middle" x="705" y="-143.5" font-family="Helvetica,sans-Serif" font-size="10.00">catalog/catalog&#45;util.h</text>
</a>
</g>
</g>
<!-- Node1&#45;&gt;Node4 -->
<g id="edge3" class="edge"><title>Node1&#45;&gt;Node4</title>
<path fill="none" stroke="midnightblue" d="M834.377,-192.933C805.356,-182.629 766.385,-168.794 738.822,-159.008"/>
<polygon fill="midnightblue" stroke="midnightblue" points="739.818,-155.647 729.223,-155.6 737.476,-162.244 739.818,-155.647"/>
</g>
<!-- Node6 -->
<g id="node6" class="node"><title>Node6</title>
<g id="a_node6"><a xlink:href="status_8h.html" target="_top" xlink:title="common/status.h">
<polygon fill="white" stroke="black" points="777,-136.5 777,-155.5 869,-155.5 869,-136.5 777,-136.5"/>
<text text-anchor="middle" x="823" y="-143.5" font-family="Helvetica,sans-Serif" font-size="10.00">common/status.h</text>
</a>
</g>
</g>
<!-- Node1&#45;&gt;Node6 -->
<g id="edge5" class="edge"><title>Node1&#45;&gt;Node6</title>
<path fill="none" stroke="midnightblue" d="M861.914,-192.781C854.426,-183.972 844.782,-172.626 836.968,-163.433"/>
<polygon fill="midnightblue" stroke="midnightblue" points="839.564,-161.083 830.421,-155.731 834.231,-165.617 839.564,-161.083"/>
</g>
<!-- Node22 -->
<g id="node22" class="node"><title>Node22</title>
<g id="a_node22"><a xlink:href="debug-util_8h.html" target="_top" xlink:title="util/debug&#45;util.h">
<polygon fill="white" stroke="black" points="1479.5,-136.5 1479.5,-155.5 1562.5,-155.5 1562.5,-136.5 1479.5,-136.5"/>
<text text-anchor="middle" x="1521" y="-143.5" font-family="Helvetica,sans-Serif" font-size="10.00">util/debug&#45;util.h</text>
</a>
</g>
</g>
<!-- Node1&#45;&gt;Node22 -->
<g id="edge26" class="edge"><title>Node1&#45;&gt;Node22</title>
<path fill="none" stroke="midnightblue" d="M930.567,-201.754C1054.73,-190.24 1349.56,-162.899 1469.21,-151.803"/>
<polygon fill="midnightblue" stroke="midnightblue" points="1469.58,-155.284 1479.21,-150.875 1468.93,-148.314 1469.58,-155.284"/>
</g>
<!-- Node32 -->
<g id="node32" class="node"><title>Node32</title>
<g id="a_node32"><a xlink:href="names_8h.html" target="_top" xlink:title="common/names.h">
<polygon fill="white" stroke="black" points="1948.5,-136.5 1948.5,-155.5 2043.5,-155.5 2043.5,-136.5 1948.5,-136.5"/>
<text text-anchor="middle" x="1996" y="-143.5" font-family="Helvetica,sans-Serif" font-size="10.00">common/names.h</text>
</a>
</g>
</g>
<!-- Node1&#45;&gt;Node32 -->
<g id="edge38" class="edge"><title>Node1&#45;&gt;Node32</title>
<path fill="none" stroke="midnightblue" d="M930.795,-203.963C1122.5,-193.711 1744.44,-160.452 1937.97,-150.103"/>
<polygon fill="midnightblue" stroke="midnightblue" points="1938.42,-153.584 1948.22,-149.555 1938.04,-146.594 1938.42,-153.584"/>
</g>
<!-- Node5 -->
<g id="node5" class="node"><title>Node5</title>
<polygon fill="white" stroke="#bfbfbf" points="0,-1 0,-31 122,-31 122,-1 0,-1"/>
<text text-anchor="start" x="8" y="-19" font-family="Helvetica,sans-Serif" font-size="10.00">gen&#45;cpp/CatalogObjects</text>
<text text-anchor="middle" x="61" y="-8" font-family="Helvetica,sans-Serif" font-size="10.00">_types.h</text>
</g>
<!-- Node4&#45;&gt;Node5 -->
<g id="edge4" class="edge"><title>Node4&#45;&gt;Node5</title>
<path fill="none" stroke="midnightblue" d="M651.406,-137.175C648.225,-136.763 645.072,-136.368 642,-136 477.073,-116.249 431.453,-139.04 270,-100 207.511,-84.8897 138.935,-54.8756 97.9601,-35.3838"/>
<polygon fill="midnightblue" stroke="midnightblue" points="99.4326,-32.2083 88.9032,-31.0324 96.4012,-38.5178 99.4326,-32.2083"/>
</g>
<!-- Node7 -->
<g id="node7" class="node"><title>Node7</title>
<polygon fill="white" stroke="#bfbfbf" points="995.5,-6.5 995.5,-25.5 1036.5,-25.5 1036.5,-6.5 995.5,-6.5"/>
<text text-anchor="middle" x="1016" y="-13.5" font-family="Helvetica,sans-Serif" font-size="10.00">string</text>
</g>
<!-- Node6&#45;&gt;Node7 -->
<g id="edge6" class="edge"><title>Node6&#45;&gt;Node7</title>
<path fill="none" stroke="midnightblue" d="M835.217,-136.37C847.532,-127.549 866.96,-113.295 883,-100 899.228,-86.5499 900.727,-80.0787 918,-68 924.439,-63.497 962.793,-43.8605 989.562,-30.3108"/>
<polygon fill="midnightblue" stroke="midnightblue" points="991.473,-33.2669 998.82,-25.6335 988.317,-27.019 991.473,-33.2669"/>
</g>
<!-- Node8 -->
<g id="node8" class="node"><title>Node8</title>
<polygon fill="white" stroke="#bfbfbf" points="801,-6.5 801,-25.5 845,-25.5 845,-6.5 801,-6.5"/>
<text text-anchor="middle" x="823" y="-13.5" font-family="Helvetica,sans-Serif" font-size="10.00">vector</text>
</g>
<!-- Node6&#45;&gt;Node8 -->
<g id="edge7" class="edge"><title>Node6&#45;&gt;Node8</title>
<path fill="none" stroke="midnightblue" d="M823,-136.202C823,-115.551 823,-63.6064 823,-35.5937"/>
<polygon fill="midnightblue" stroke="midnightblue" points="826.5,-35.5224 823,-25.5224 819.5,-35.5225 826.5,-35.5224"/>
</g>
<!-- Node9 -->
<g id="node9" class="node"><title>Node9</title>
<polygon fill="white" stroke="#bfbfbf" points="863,-6.5 863,-25.5 977,-25.5 977,-6.5 863,-6.5"/>
<text text-anchor="middle" x="920" y="-13.5" font-family="Helvetica,sans-Serif" font-size="10.00">boost/lexical_cast.hpp</text>
</g>
<!-- Node6&#45;&gt;Node9 -->
<g id="edge8" class="edge"><title>Node6&#45;&gt;Node9</title>
<path fill="none" stroke="midnightblue" d="M829.667,-136.202C845.665,-115.092 886.442,-61.2823 907.297,-33.7623"/>
<polygon fill="midnightblue" stroke="midnightblue" points="910.291,-35.6064 913.542,-25.5224 904.712,-31.3785 910.291,-35.6064"/>
</g>
<!-- Node10 -->
<g id="node10" class="node"><title>Node10</title>
<g id="a_node10"><a xlink:href="logging_8h.html" target="_top" xlink:title="common/logging.h">
<polygon fill="white" stroke="black" points="1035,-74.5 1035,-93.5 1131,-93.5 1131,-74.5 1035,-74.5"/>
<text text-anchor="middle" x="1083" y="-81.5" font-family="Helvetica,sans-Serif" font-size="10.00">common/logging.h</text>
</a>
</g>
</g>
<!-- Node6&#45;&gt;Node10 -->
<g id="edge9" class="edge"><title>Node6&#45;&gt;Node10</title>
<path fill="none" stroke="midnightblue" d="M859.976,-136.467C906.276,-125.783 985.635,-107.469 1036.14,-95.8129"/>
<polygon fill="midnightblue" stroke="midnightblue" points="1037.2,-99.1624 1046.15,-93.5034 1035.62,-92.3417 1037.2,-99.1624"/>
</g>
<!-- Node13 -->
<g id="node13" class="node"><title>Node13</title>
<g id="a_node13"><a xlink:href="compiler-util_8h.html" target="_top" xlink:title="common/compiler&#45;util.h">
<polygon fill="white" stroke="black" points="279,-74.5 279,-93.5 397,-93.5 397,-74.5 279,-74.5"/>
<text text-anchor="middle" x="338" y="-81.5" font-family="Helvetica,sans-Serif" font-size="10.00">common/compiler&#45;util.h</text>
</a>
</g>
</g>
<!-- Node6&#45;&gt;Node13 -->
<g id="edge12" class="edge"><title>Node6&#45;&gt;Node13</title>
<path fill="none" stroke="midnightblue" d="M776.887,-137.364C773.544,-136.88 770.222,-136.419 767,-136 607.107,-115.198 565.225,-125.41 406,-100 398.446,-98.7945 390.472,-97.2686 382.748,-95.6543"/>
<polygon fill="midnightblue" stroke="midnightblue" points="383.306,-92.1943 372.792,-93.5007 381.826,-99.036 383.306,-92.1943"/>
</g>
<!-- Node14 -->
<g id="node14" class="node"><title>Node14</title>
<polygon fill="white" stroke="#bfbfbf" points="415,-74.5 415,-93.5 535,-93.5 535,-74.5 415,-74.5"/>
<text text-anchor="middle" x="475" y="-81.5" font-family="Helvetica,sans-Serif" font-size="10.00">gen&#45;cpp/Status_types.h</text>
</g>
<!-- Node6&#45;&gt;Node14 -->
<g id="edge13" class="edge"><title>Node6&#45;&gt;Node14</title>
<path fill="none" stroke="midnightblue" d="M776.816,-137.511C704.616,-125.79 570.959,-104.027 549,-100 541.385,-98.6034 533.345,-97.0527 525.481,-95.4935"/>
<polygon fill="midnightblue" stroke="midnightblue" points="526.152,-92.0586 515.659,-93.5249 524.777,-98.9221 526.152,-92.0586"/>
</g>
<!-- Node15 -->
<g id="node15" class="node"><title>Node15</title>
<polygon fill="white" stroke="#bfbfbf" points="140,-1 140,-31 244,-31 244,-1 140,-1"/>
<text text-anchor="start" x="148" y="-19" font-family="Helvetica,sans-Serif" font-size="10.00">gen&#45;cpp/ErrorCodes</text>
<text text-anchor="middle" x="192" y="-8" font-family="Helvetica,sans-Serif" font-size="10.00">_types.h</text>
</g>
<!-- Node6&#45;&gt;Node15 -->
<g id="edge14" class="edge"><title>Node6&#45;&gt;Node15</title>
<path fill="none" stroke="midnightblue" d="M776.986,-137.015C709.534,-125.224 590.802,-104.099 582,-100 561.675,-90.5339 563.605,-76.8409 543,-68 426.675,-18.0882 382.955,-53.6371 254.38,-32.0584"/>
<polygon fill="midnightblue" stroke="midnightblue" points="254.612,-28.5453 244.156,-30.2531 253.395,-35.4387 254.612,-28.5453"/>
</g>
<!-- Node16 -->
<g id="node16" class="node"><title>Node16</title>
<polygon fill="white" stroke="#bfbfbf" points="591.5,-69 591.5,-99 700.5,-99 700.5,-69 591.5,-69"/>
<text text-anchor="start" x="599.5" y="-87" font-family="Helvetica,sans-Serif" font-size="10.00">gen&#45;cpp/TCLIService</text>
<text text-anchor="middle" x="646" y="-76" font-family="Helvetica,sans-Serif" font-size="10.00">_types.h</text>
</g>
<!-- Node6&#45;&gt;Node16 -->
<g id="edge15" class="edge"><title>Node6&#45;&gt;Node16</title>
<path fill="none" stroke="midnightblue" d="M797.64,-136.403C771.453,-127.526 729.875,-113.432 696.874,-102.245"/>
<polygon fill="midnightblue" stroke="midnightblue" points="697.969,-98.921 687.375,-99.0253 695.722,-105.551 697.969,-98.921"/>
</g>
<!-- Node17 -->
<g id="node17" class="node"><title>Node17</title>
<g id="a_node17"><a xlink:href="error-util_8h.html" target="_top" xlink:title="util/error&#45;util.h">
<polygon fill="white" stroke="black" points="719,-74.5 719,-93.5 795,-93.5 795,-74.5 719,-74.5"/>
<text text-anchor="middle" x="757" y="-81.5" font-family="Helvetica,sans-Serif" font-size="10.00">util/error&#45;util.h</text>
</a>
</g>
</g>
<!-- Node6&#45;&gt;Node17 -->
<g id="edge16" class="edge"><title>Node6&#45;&gt;Node17</title>
<path fill="none" stroke="midnightblue" d="M813.544,-136.403C803.252,-127.047 786.584,-111.895 774.006,-100.46"/>
<polygon fill="midnightblue" stroke="midnightblue" points="776.192,-97.7176 766.439,-93.5806 771.484,-102.897 776.192,-97.7176"/>
</g>
<!-- Node11 -->
<g id="node11" class="node"><title>Node11</title>
<polygon fill="white" stroke="#bfbfbf" points="1153.5,-6.5 1153.5,-25.5 1230.5,-25.5 1230.5,-6.5 1153.5,-6.5"/>
<text text-anchor="middle" x="1192" y="-13.5" font-family="Helvetica,sans-Serif" font-size="10.00">glog/logging.h</text>
</g>
<!-- Node10&#45;&gt;Node11 -->
<g id="edge10" class="edge"><title>Node10&#45;&gt;Node11</title>
<path fill="none" stroke="midnightblue" d="M1097.25,-74.3717C1115.53,-63.3039 1147.45,-43.9724 1169.15,-30.838"/>
<polygon fill="midnightblue" stroke="midnightblue" points="1171.01,-33.804 1177.75,-25.6305 1167.38,-27.8161 1171.01,-33.804"/>
</g>
<!-- Node12 -->
<g id="node12" class="node"><title>Node12</title>
<polygon fill="white" stroke="#bfbfbf" points="1055,-6.5 1055,-25.5 1135,-25.5 1135,-6.5 1055,-6.5"/>
<text text-anchor="middle" x="1095" y="-13.5" font-family="Helvetica,sans-Serif" font-size="10.00">gflags/gflags.h</text>
</g>
<!-- Node10&#45;&gt;Node12 -->
<g id="edge11" class="edge"><title>Node10&#45;&gt;Node12</title>
<path fill="none" stroke="midnightblue" d="M1084.57,-74.3717C1086.34,-64.6426 1089.27,-48.528 1091.57,-35.8504"/>
<polygon fill="midnightblue" stroke="midnightblue" points="1095.05,-36.3059 1093.39,-25.8411 1088.16,-35.0537 1095.05,-36.3059"/>
</g>
<!-- Node17&#45;&gt;Node5 -->
<g id="edge21" class="edge"><title>Node17&#45;&gt;Node5</title>
<path fill="none" stroke="midnightblue" d="M733.358,-74.3718C725.686,-71.9079 717.071,-69.4898 709,-68 459.103,-21.8693 387.792,-65.9145 132.316,-32.0367"/>
<polygon fill="midnightblue" stroke="midnightblue" points="132.748,-28.5633 122.369,-30.6908 131.809,-35.5001 132.748,-28.5633"/>
</g>
<!-- Node17&#45;&gt;Node7 -->
<g id="edge17" class="edge"><title>Node17&#45;&gt;Node7</title>
<path fill="none" stroke="midnightblue" d="M795.077,-77.449C841.178,-70.0655 920.753,-55.1822 986,-32 987.852,-31.342 989.737,-30.5968 991.614,-29.7988"/>
<polygon fill="midnightblue" stroke="midnightblue" points="993.17,-32.9351 1000.75,-25.5285 990.205,-26.5942 993.17,-32.9351"/>
</g>
<!-- Node17&#45;&gt;Node8 -->
<g id="edge18" class="edge"><title>Node17&#45;&gt;Node8</title>
<path fill="none" stroke="midnightblue" d="M765.628,-74.3717C776.045,-63.9547 793.783,-46.2173 806.784,-33.2162"/>
<polygon fill="midnightblue" stroke="midnightblue" points="809.563,-35.3871 814.159,-25.8411 804.613,-30.4373 809.563,-35.3871"/>
</g>
<!-- Node17&#45;&gt;Node9 -->
<g id="edge20" class="edge"><title>Node17&#45;&gt;Node9</title>
<path fill="none" stroke="midnightblue" d="M778.309,-74.3717C806.698,-62.877 857.1,-42.4687 889.508,-29.3465"/>
<polygon fill="midnightblue" stroke="midnightblue" points="890.988,-32.5232 898.944,-25.5259 888.361,-26.0349 890.988,-32.5232"/>
</g>
<!-- Node17&#45;&gt;Node15 -->
<g id="edge22" class="edge"><title>Node17&#45;&gt;Node15</title>
<path fill="none" stroke="midnightblue" d="M733.343,-74.4521C725.67,-71.9926 717.058,-69.5567 709,-68 512.61,-30.0603 455.534,-63.2722 254.141,-31.9979"/>
<polygon fill="midnightblue" stroke="midnightblue" points="254.554,-28.5197 244.129,-30.4088 253.457,-35.4331 254.554,-28.5197"/>
</g>
<!-- Node18 -->
<g id="node18" class="node"><title>Node18</title>
<polygon fill="white" stroke="#bfbfbf" points="691,-6.5 691,-25.5 783,-25.5 783,-6.5 691,-6.5"/>
<text text-anchor="middle" x="737" y="-13.5" font-family="Helvetica,sans-Serif" font-size="10.00">boost/cstdint.hpp</text>
</g>
<!-- Node17&#45;&gt;Node18 -->
<g id="edge19" class="edge"><title>Node17&#45;&gt;Node18</title>
<path fill="none" stroke="midnightblue" d="M754.385,-74.3717C751.407,-64.5443 746.455,-48.2018 742.596,-35.4673"/>
<polygon fill="midnightblue" stroke="midnightblue" points="745.929,-34.3963 739.679,-25.8411 739.23,-36.4264 745.929,-34.3963"/>
</g>
<!-- Node19 -->
<g id="node19" class="node"><title>Node19</title>
<polygon fill="white" stroke="#bfbfbf" points="262,-1 262,-31 366,-31 366,-1 262,-1"/>
<text text-anchor="start" x="270" y="-19" font-family="Helvetica,sans-Serif" font-size="10.00">gen&#45;cpp/ErrorCodes</text>
<text text-anchor="middle" x="314" y="-8" font-family="Helvetica,sans-Serif" font-size="10.00">_constants.h</text>
</g>
<!-- Node17&#45;&gt;Node19 -->
<g id="edge23" class="edge"><title>Node17&#45;&gt;Node19</title>
<path fill="none" stroke="midnightblue" d="M732.824,-74.4338C725.275,-72.0335 716.864,-69.6361 709,-68 565.966,-38.2413 523.844,-57.0352 376.037,-32.0212"/>
<polygon fill="midnightblue" stroke="midnightblue" points="376.596,-28.5661 366.146,-30.3092 375.402,-35.4635 376.596,-28.5661"/>
</g>
<!-- Node20 -->
<g id="node20" class="node"><title>Node20</title>
<polygon fill="white" stroke="#bfbfbf" points="384.5,-1 384.5,-31 533.5,-31 533.5,-1 384.5,-1"/>
<text text-anchor="start" x="392.5" y="-19" font-family="Helvetica,sans-Serif" font-size="10.00">gen&#45;cpp/ImpalaInternalService</text>
<text text-anchor="middle" x="459" y="-8" font-family="Helvetica,sans-Serif" font-size="10.00">_types.h</text>
</g>
<!-- Node17&#45;&gt;Node20 -->
<g id="edge24" class="edge"><title>Node17&#45;&gt;Node20</title>
<path fill="none" stroke="midnightblue" d="M731.48,-74.4965C724.256,-72.2336 716.356,-69.8944 709,-68 677.914,-59.9942 601.898,-44.707 541.788,-32.949"/>
<polygon fill="midnightblue" stroke="midnightblue" points="542.393,-29.501 531.908,-31.0199 541.052,-36.3713 542.393,-29.501"/>
</g>
<!-- Node21 -->
<g id="node21" class="node"><title>Node21</title>
<polygon fill="white" stroke="#bfbfbf" points="551.5,-6.5 551.5,-25.5 672.5,-25.5 672.5,-6.5 551.5,-6.5"/>
<text text-anchor="middle" x="612" y="-13.5" font-family="Helvetica,sans-Serif" font-size="10.00">gutil/strings/substitute.h</text>
</g>
<!-- Node17&#45;&gt;Node21 -->
<g id="edge25" class="edge"><title>Node17&#45;&gt;Node21</title>
<path fill="none" stroke="midnightblue" d="M738.044,-74.3717C713.077,-63.0075 668.969,-42.9309 640.113,-29.7961"/>
<polygon fill="midnightblue" stroke="midnightblue" points="641.512,-26.5877 630.961,-25.6305 638.612,-32.9588 641.512,-26.5877"/>
</g>
<!-- Node22&#45;&gt;Node3 -->
<g id="edge29" class="edge"><title>Node22&#45;&gt;Node3</title>
<path fill="none" stroke="midnightblue" d="M1479.34,-145.29C1389.37,-145.085 1170.69,-140.089 993,-100 989.493,-99.2089 985.881,-98.1796 982.328,-97.0308"/>
<polygon fill="midnightblue" stroke="midnightblue" points="983.206,-93.6283 972.611,-93.5747 980.86,-100.224 983.206,-93.6283"/>
</g>
<!-- Node22&#45;&gt;Node7 -->
<g id="edge28" class="edge"><title>Node22&#45;&gt;Node7</title>
<path fill="none" stroke="midnightblue" d="M1479.12,-144.154C1365.59,-141.455 1058.23,-131.299 1026,-100 1009.11,-83.5941 1009.61,-54.6449 1012.24,-35.6414"/>
<polygon fill="midnightblue" stroke="midnightblue" points="1015.74,-35.9804 1013.97,-25.5333 1008.84,-34.7993 1015.74,-35.9804"/>
</g>
<!-- Node23 -->
<g id="node23" class="node"><title>Node23</title>
<polygon fill="white" stroke="#bfbfbf" points="2247,-74.5 2247,-93.5 2299,-93.5 2299,-74.5 2247,-74.5"/>
<text text-anchor="middle" x="2273" y="-81.5" font-family="Helvetica,sans-Serif" font-size="10.00">ostream</text>
</g>
<!-- Node22&#45;&gt;Node23 -->
<g id="edge27" class="edge"><title>Node22&#45;&gt;Node23</title>
<path fill="none" stroke="midnightblue" d="M1562.94,-144.184C1696,-141.311 2107.51,-130.153 2237,-100 2240.07,-99.286 2243.21,-98.3364 2246.29,-97.2605"/>
<polygon fill="midnightblue" stroke="midnightblue" points="2247.78,-100.437 2255.81,-93.5264 2245.22,-93.9209 2247.78,-100.437"/>
</g>
<!-- Node24 -->
<g id="node24" class="node"><title>Node24</title>
<polygon fill="white" stroke="#bfbfbf" points="1149.5,-69 1149.5,-99 1250.5,-99 1250.5,-69 1149.5,-69"/>
<text text-anchor="start" x="1157.5" y="-87" font-family="Helvetica,sans-Serif" font-size="10.00">gen&#45;cpp/JniCatalog</text>
<text text-anchor="middle" x="1200" y="-76" font-family="Helvetica,sans-Serif" font-size="10.00">_types.h</text>
</g>
<!-- Node22&#45;&gt;Node24 -->
<g id="edge30" class="edge"><title>Node22&#45;&gt;Node24</title>
<path fill="none" stroke="midnightblue" d="M1479.23,-138.778C1429.51,-131.155 1343.78,-117.33 1260.55,-100.022"/>
<polygon fill="midnightblue" stroke="midnightblue" points="1261.18,-96.5793 1250.68,-97.9504 1259.75,-103.43 1261.18,-96.5793"/>
</g>
<!-- Node25 -->
<g id="node25" class="node"><title>Node25</title>
<polygon fill="white" stroke="#bfbfbf" points="1269,-69 1269,-99 1373,-99 1373,-69 1269,-69"/>
<text text-anchor="start" x="1277" y="-87" font-family="Helvetica,sans-Serif" font-size="10.00">gen&#45;cpp/Descriptors</text>
<text text-anchor="middle" x="1321" y="-76" font-family="Helvetica,sans-Serif" font-size="10.00">_types.h</text>
</g>
<!-- Node22&#45;&gt;Node25 -->
<g id="edge31" class="edge"><title>Node22&#45;&gt;Node25</title>
<path fill="none" stroke="midnightblue" d="M1492.34,-136.403C1462.5,-127.45 1414.97,-113.19 1377.53,-101.958"/>
<polygon fill="midnightblue" stroke="midnightblue" points="1378.34,-98.5465 1367.75,-99.0253 1376.32,-105.251 1378.34,-98.5465"/>
</g>
<!-- Node26 -->
<g id="node26" class="node"><title>Node26</title>
<polygon fill="white" stroke="#bfbfbf" points="1391.5,-74.5 1391.5,-93.5 1508.5,-93.5 1508.5,-74.5 1391.5,-74.5"/>
<text text-anchor="middle" x="1450" y="-81.5" font-family="Helvetica,sans-Serif" font-size="10.00">gen&#45;cpp/Exprs_types.h</text>
</g>
<!-- Node22&#45;&gt;Node26 -->
<g id="edge32" class="edge"><title>Node22&#45;&gt;Node26</title>
<path fill="none" stroke="midnightblue" d="M1510.83,-136.403C1499.65,-126.958 1481.48,-111.606 1467.91,-100.134"/>
<polygon fill="midnightblue" stroke="midnightblue" points="1470.05,-97.3619 1460.15,-93.5806 1465.53,-102.709 1470.05,-97.3619"/>
</g>
<!-- Node27 -->
<g id="node27" class="node"><title>Node27</title>
<polygon fill="white" stroke="#bfbfbf" points="1527,-74.5 1527,-93.5 1657,-93.5 1657,-74.5 1527,-74.5"/>
<text text-anchor="middle" x="1592" y="-81.5" font-family="Helvetica,sans-Serif" font-size="10.00">gen&#45;cpp/Frontend_types.h</text>
</g>
<!-- Node22&#45;&gt;Node27 -->
<g id="edge33" class="edge"><title>Node22&#45;&gt;Node27</title>
<path fill="none" stroke="midnightblue" d="M1531.17,-136.403C1542.35,-126.958 1560.52,-111.606 1574.09,-100.134"/>
<polygon fill="midnightblue" stroke="midnightblue" points="1576.47,-102.709 1581.85,-93.5806 1571.95,-97.3619 1576.47,-102.709"/>
</g>
<!-- Node28 -->
<g id="node28" class="node"><title>Node28</title>
<polygon fill="white" stroke="#bfbfbf" points="1675,-74.5 1675,-93.5 1815,-93.5 1815,-74.5 1675,-74.5"/>
<text text-anchor="middle" x="1745" y="-81.5" font-family="Helvetica,sans-Serif" font-size="10.00">gen&#45;cpp/PlanNodes_types.h</text>
</g>
<!-- Node22&#45;&gt;Node28 -->
<g id="edge34" class="edge"><title>Node22&#45;&gt;Node28</title>
<path fill="none" stroke="midnightblue" d="M1553.09,-136.403C1592.6,-125.822 1659.78,-107.827 1703.26,-96.1802"/>
<polygon fill="midnightblue" stroke="midnightblue" points="1704.21,-99.5488 1712.97,-93.5806 1702.4,-92.7872 1704.21,-99.5488"/>
</g>
<!-- Node29 -->
<g id="node29" class="node"><title>Node29</title>
<polygon fill="white" stroke="#bfbfbf" points="1833.5,-69 1833.5,-99 1952.5,-99 1952.5,-69 1833.5,-69"/>
<text text-anchor="start" x="1841.5" y="-87" font-family="Helvetica,sans-Serif" font-size="10.00">gen&#45;cpp/RuntimeProfile</text>
<text text-anchor="middle" x="1893" y="-76" font-family="Helvetica,sans-Serif" font-size="10.00">_types.h</text>
</g>
<!-- Node22&#45;&gt;Node29 -->
<g id="edge35" class="edge"><title>Node22&#45;&gt;Node29</title>
<path fill="none" stroke="midnightblue" d="M1562.81,-139.688C1619.5,-132.287 1724.12,-117.933 1823.32,-100.051"/>
<polygon fill="midnightblue" stroke="midnightblue" points="1824,-103.485 1833.21,-98.253 1822.74,-96.5982 1824,-103.485"/>
</g>
<!-- Node30 -->
<g id="node30" class="node"><title>Node30</title>
<polygon fill="white" stroke="#bfbfbf" points="1971,-69 1971,-99 2087,-99 2087,-69 1971,-69"/>
<text text-anchor="start" x="1979" y="-87" font-family="Helvetica,sans-Serif" font-size="10.00">gen&#45;cpp/ImpalaService</text>
<text text-anchor="middle" x="2029" y="-76" font-family="Helvetica,sans-Serif" font-size="10.00">_types.h</text>
</g>
<!-- Node22&#45;&gt;Node30 -->
<g id="edge36" class="edge"><title>Node22&#45;&gt;Node30</title>
<path fill="none" stroke="midnightblue" d="M1562.76,-142.339C1639.49,-137.101 1808.18,-123.968 1960.82,-99.8917"/>
<polygon fill="midnightblue" stroke="midnightblue" points="1961.52,-103.323 1970.85,-98.29 1960.42,-96.4109 1961.52,-103.323"/>
</g>
<!-- Node31 -->
<g id="node31" class="node"><title>Node31</title>
<polygon fill="white" stroke="#bfbfbf" points="2105,-74.5 2105,-93.5 2229,-93.5 2229,-74.5 2105,-74.5"/>
<text text-anchor="middle" x="2167" y="-81.5" font-family="Helvetica,sans-Serif" font-size="10.00">gen&#45;cpp/parquet_types.h</text>
</g>
<!-- Node22&#45;&gt;Node31 -->
<g id="edge37" class="edge"><title>Node22&#45;&gt;Node31</title>
<path fill="none" stroke="midnightblue" d="M1562.62,-143.552C1657.47,-139.857 1896.84,-128.292 2095,-100 2103.36,-98.8066 2112.2,-97.229 2120.72,-95.5452"/>
<polygon fill="midnightblue" stroke="midnightblue" points="2121.44,-98.972 2130.53,-93.5364 2120.03,-92.1144 2121.44,-98.972"/>
</g>
<!-- Node33 -->
<g id="node33" class="node"><title>Node33</title>
<polygon fill="white" stroke="#bfbfbf" points="2317,-74.5 2317,-93.5 2411,-93.5 2411,-74.5 2317,-74.5"/>
<text text-anchor="middle" x="2364" y="-81.5" font-family="Helvetica,sans-Serif" font-size="10.00">boost/version.hpp</text>
</g>
<!-- Node32&#45;&gt;Node33 -->
<g id="edge39" class="edge"><title>Node32&#45;&gt;Node33</title>
<path fill="none" stroke="midnightblue" d="M2043.61,-139.911C2105.06,-132.937 2215.12,-119.067 2308,-100 2313.48,-98.8741 2319.23,-97.5293 2324.86,-96.1139"/>
<polygon fill="midnightblue" stroke="midnightblue" points="2326.01,-99.4322 2334.8,-93.5219 2324.24,-92.6587 2326.01,-99.4322"/>
</g>
</g>
</svg>
        <g id="navigator" transform="translate(0 0)" fill="#404254">
                <rect fill="#f2f5e9" fill-opacity="0.5" stroke="#606060" stroke-width=".5" x="0" y="0" width="60" height="60"/>
                <use id="zoomplus" xlink:href="#zoomPlus" x="17" y="9" onmousedown="handleZoom(evt,'in')"/>
                <use id="zoomminus" xlink:href="#zoomMin" x="42" y="9" onmousedown="handleZoom(evt,'out')"/>
                <use id="reset" xlink:href="#resetDef" x="30" y="36" onmousedown="handleReset()"/>
                <g id="arrowUp" xlink:href="#dirArrow" transform="translate(30 24)" onmousedown="handlePan(0,-1)">
                  <use xlink:href="#rim" fill="#404040">
                        <set attributeName="fill" to="#808080" begin="arrowUp.mouseover" end="arrowUp.mouseout"/>
                  </use>
                  <path fill="none" stroke="white" stroke-width="1.5" d="M0,-3.0v7 M-2.5,-0.5L0,-3.0L2.5,-0.5"/>
                </g>
                <g id="arrowRight" xlink:href="#dirArrow" transform="rotate(90) translate(36 -43)" onmousedown="handlePan(1,0)">
                  <use xlink:href="#rim" fill="#404040">
                        <set attributeName="fill" to="#808080" begin="arrowRight.mouseover" end="arrowRight.mouseout"/>
                  </use>
                  <path fill="none" stroke="white" stroke-width="1.5" d="M0,-3.0v7 M-2.5,-0.5L0,-3.0L2.5,-0.5"/>
                </g>
                <g id="arrowDown" xlink:href="#dirArrow" transform="rotate(180) translate(-30 -48)" onmousedown="handlePan(0,1)">
                  <use xlink:href="#rim" fill="#404040">
                        <set attributeName="fill" to="#808080" begin="arrowDown.mouseover" end="arrowDown.mouseout"/>
                  </use>
                  <path fill="none" stroke="white" stroke-width="1.5" d="M0,-3.0v7 M-2.5,-0.5L0,-3.0L2.5,-0.5"/>
                </g>
                <g id="arrowLeft" xlink:href="#dirArrow" transform="rotate(270) translate(-36 17)" onmousedown="handlePan(-1,0)">
                  <use xlink:href="#rim" fill="#404040">
                        <set attributeName="fill" to="#808080" begin="arrowLeft.mouseover" end="arrowLeft.mouseout"/>
                  </use>
                  <path fill="none" stroke="white" stroke-width="1.5" d="M0,-3.0v7 M-2.5,-0.5L0,-3.0L2.5,-0.5"/>
                </g>
        </g>
        <svg viewBox="0 0 15 15" width="100%" height="30px" preserveAspectRatio="xMaxYMin meet">
         <g id="arrow_out" transform="scale(0.3 0.3)">
          <a xlink:href="catalog-util_8cc__incl_org.svg" target="_base">
           <rect id="button" ry="5" rx="5" y="6" x="6" height="38" width="38"
                fill="#f2f5e9" fill-opacity="0.5" stroke="#606060" stroke-width="1.0"/>
           <path id="arrow"
             d="M 11.500037,31.436501 C 11.940474,20.09759 22.043105,11.32322 32.158766,21.979434 L 37.068811,17.246167 C 37.068811,17.246167 37.088388,32 37.088388,32 L 22.160133,31.978069 C 22.160133,31.978069 26.997745,27.140456 26.997745,27.140456 C 18.528582,18.264221 13.291696,25.230495 11.500037,31.436501 z"
             style="fill:#404040;"/>
          </a>
         </g>
        </svg>
</svg>
