<?xml version="1.0" encoding="UTF-8" standalone="no"?>
<!DOCTYPE svg PUBLIC "-//W3C//DTD SVG 1.1//EN"
 "http://www.w3.org/Graphics/SVG/1.1/DTD/svg11.dtd">
<!-- Generated by graphviz version 2.36.0 (20140111.2315)
 -->
<!-- Title: be/src/exec/catalog&#45;op&#45;executor.h Pages: 1 -->
<svg width="394pt" height="108pt"
 viewBox="0.00 0.00 394.00 108.00" xmlns="http://www.w3.org/2000/svg" xmlns:xlink="http://www.w3.org/1999/xlink">
<g id="graph0" class="graph" transform="scale(1 1) rotate(0) translate(4 104)">
<title>be/src/exec/catalog&#45;op&#45;executor.h</title>
<polygon fill="white" stroke="none" points="-4,4 -4,-104 390,-104 390,4 -4,4"/>
<!-- Node1 -->
<g id="node1" class="node"><title>Node1</title>
<polygon fill="#bfbfbf" stroke="black" points="132,-69 132,-99 234,-99 234,-69 132,-69"/>
<text text-anchor="start" x="140" y="-87" font-family="Helvetica,sans-Serif" font-size="10.00">be/src/exec/catalog</text>
<text text-anchor="middle" x="183" y="-76" font-family="Helvetica,sans-Serif" font-size="10.00">&#45;op&#45;executor.h</text>
</g>
<!-- Node2 -->
<g id="node2" class="node"><title>Node2</title>
<polygon fill="white" stroke="#bfbfbf" points="0,-6.5 0,-25.5 110,-25.5 110,-6.5 0,-6.5"/>
<text text-anchor="middle" x="55" y="-13.5" font-family="Helvetica,sans-Serif" font-size="10.00">boost/scoped_ptr.hpp</text>
</g>
<!-- Node1&#45;&gt;Node2 -->
<g id="edge1" class="edge"><title>Node1&#45;&gt;Node2</title>
<path fill="none" stroke="midnightblue" d="M155.541,-68.8413C133.401,-57.4253 102.486,-41.4852 80.8004,-30.3033"/>
<polygon fill="midnightblue" stroke="midnightblue" points="82.3297,-27.154 71.8376,-25.6819 79.1216,-33.3756 82.3297,-27.154"/>
</g>
<!-- Node3 -->
<g id="node3" class="node"><title>Node3</title>
<polygon fill="white" stroke="#bfbfbf" points="128.5,-1 128.5,-31 237.5,-31 237.5,-1 128.5,-1"/>
<text text-anchor="start" x="136.5" y="-19" font-family="Helvetica,sans-Serif" font-size="10.00">gen&#45;cpp/TCLIService</text>
<text text-anchor="middle" x="183" y="-8" font-family="Helvetica,sans-Serif" font-size="10.00">_types.h</text>
</g>
<!-- Node1&#45;&gt;Node3 -->
<g id="edge2" class="edge"><title>Node1&#45;&gt;Node3</title>
<path fill="none" stroke="midnightblue" d="M183,-68.679C183,-60.7221 183,-50.605 183,-41.4356"/>
<polygon fill="midnightblue" stroke="midnightblue" points="186.5,-41.293 183,-31.2931 179.5,-41.2931 186.5,-41.293"/>
</g>
<!-- Node4 -->
<g id="node4" class="node"><title>Node4</title>
<polygon fill="white" stroke="#bfbfbf" points="256,-6.5 256,-25.5 386,-25.5 386,-6.5 256,-6.5"/>
<text text-anchor="middle" x="321" y="-13.5" font-family="Helvetica,sans-Serif" font-size="10.00">gen&#45;cpp/Frontend_types.h</text>
</g>
<!-- Node1&#45;&gt;Node4 -->
<g id="edge3" class="edge"><title>Node1&#45;&gt;Node4</title>
<path fill="none" stroke="midnightblue" d="M212.604,-68.8413C236.688,-57.3229 270.402,-41.1989 293.811,-30.0036"/>
<polygon fill="midnightblue" stroke="midnightblue" points="295.336,-33.154 302.847,-25.6819 292.316,-26.839 295.336,-33.154"/>
</g>
</g>
</svg>
