<?xml version="1.0" encoding="UTF-8" standalone="no"?>
<!DOCTYPE svg PUBLIC "-//W3C//DTD SVG 1.1//EN"
 "http://www.w3.org/Graphics/SVG/1.1/DTD/svg11.dtd">
<!-- Generated by graphviz version 2.36.0 (20140111.2315)
 -->
<!-- Title: be/src/catalog/catalog&#45;util.h Pages: 1 -->
<svg width="508pt" height="108pt"
 viewBox="0.00 0.00 508.00 108.00" xmlns="http://www.w3.org/2000/svg" xmlns:xlink="http://www.w3.org/1999/xlink">
<g id="graph0" class="graph" transform="scale(1 1) rotate(0) translate(4 104)">
<title>be/src/catalog/catalog&#45;util.h</title>
<polygon fill="white" stroke="none" points="-4,4 -4,-104 504,-104 504,4 -4,4"/>
<!-- Node1 -->
<g id="node1" class="node"><title>Node1</title>
<polygon fill="#bfbfbf" stroke="black" points="195.5,-69 195.5,-99 308.5,-99 308.5,-69 195.5,-69"/>
<text text-anchor="start" x="203.5" y="-87" font-family="Helvetica,sans-Serif" font-size="10.00">be/src/catalog/catalog</text>
<text text-anchor="middle" x="252" y="-76" font-family="Helvetica,sans-Serif" font-size="10.00">&#45;util.h</text>
</g>
<!-- Node2 -->
<g id="node2" class="node"><title>Node2</title>
<g id="a_node2"><a xlink:href="catalog-server_8cc.html" target="_top" xlink:title="be/src/catalog/catalog\l&#45;server.cc">
<polygon fill="white" stroke="black" points="-0.5,-1 -0.5,-31 112.5,-31 112.5,-1 -0.5,-1"/>
<text text-anchor="start" x="7.5" y="-19" font-family="Helvetica,sans-Serif" font-size="10.00">be/src/catalog/catalog</text>
<text text-anchor="middle" x="56" y="-8" font-family="Helvetica,sans-Serif" font-size="10.00">&#45;server.cc</text>
</a>
</g>
</g>
<!-- Node1&#45;&gt;Node2 -->
<g id="edge1" class="edge"><title>Node1&#45;&gt;Node2</title>
<path fill="none" stroke="midnightblue" d="M200.302,-65.5916C168.25,-54.7984 127.616,-41.1157 97.6406,-31.0218"/>
<polygon fill="midnightblue" stroke="midnightblue" points="199.359,-68.967 209.953,-68.8413 201.593,-62.333 199.359,-68.967"/>
</g>
<!-- Node3 -->
<g id="node3" class="node"><title>Node3</title>
<g id="a_node3"><a xlink:href="catalog-util_8cc.html" target="_top" xlink:title="be/src/catalog/catalog\l&#45;util.cc">
<polygon fill="white" stroke="black" points="130.5,-1 130.5,-31 243.5,-31 243.5,-1 130.5,-1"/>
<text text-anchor="start" x="138.5" y="-19" font-family="Helvetica,sans-Serif" font-size="10.00">be/src/catalog/catalog</text>
<text text-anchor="middle" x="187" y="-8" font-family="Helvetica,sans-Serif" font-size="10.00">&#45;util.cc</text>
</a>
</g>
</g>
<!-- Node1&#45;&gt;Node3 -->
<g id="edge2" class="edge"><title>Node1&#45;&gt;Node3</title>
<path fill="none" stroke="midnightblue" d="M230.811,-61.4855C221.061,-51.5852 209.759,-40.1092 201.077,-31.2931"/>
<polygon fill="midnightblue" stroke="midnightblue" points="228.385,-64.01 237.896,-68.679 233.373,-59.0982 228.385,-64.01"/>
</g>
<!-- Node4 -->
<g id="node4" class="node"><title>Node4</title>
<g id="a_node4"><a xlink:href="impala-server-callbacks_8cc.html" target="_top" xlink:title="be/src/service/impala\l&#45;server&#45;callbacks.cc">
<polygon fill="white" stroke="black" points="262,-1 262,-31 372,-31 372,-1 262,-1"/>
<text text-anchor="start" x="270" y="-19" font-family="Helvetica,sans-Serif" font-size="10.00">be/src/service/impala</text>
<text text-anchor="middle" x="317" y="-8" font-family="Helvetica,sans-Serif" font-size="10.00">&#45;server&#45;callbacks.cc</text>
</a>
</g>
</g>
<!-- Node1&#45;&gt;Node4 -->
<g id="edge3" class="edge"><title>Node1&#45;&gt;Node4</title>
<path fill="none" stroke="midnightblue" d="M273.189,-61.4855C282.939,-51.5852 294.241,-40.1092 302.923,-31.2931"/>
<polygon fill="midnightblue" stroke="midnightblue" points="270.627,-59.0982 266.104,-68.679 275.615,-64.01 270.627,-59.0982"/>
</g>
<!-- Node5 -->
<g id="node5" class="node"><title>Node5</title>
<g id="a_node5"><a xlink:href="impala-server_8cc.html" target="_top" xlink:title="be/src/service/impala\l&#45;server.cc">
<polygon fill="white" stroke="black" points="390,-1 390,-31 500,-31 500,-1 390,-1"/>
<text text-anchor="start" x="398" y="-19" font-family="Helvetica,sans-Serif" font-size="10.00">be/src/service/impala</text>
<text text-anchor="middle" x="445" y="-8" font-family="Helvetica,sans-Serif" font-size="10.00">&#45;server.cc</text>
</a>
</g>
</g>
<!-- Node1&#45;&gt;Node5 -->
<g id="edge4" class="edge"><title>Node1&#45;&gt;Node5</title>
<path fill="none" stroke="midnightblue" d="M302.906,-65.5916C334.468,-54.7984 374.48,-41.1157 403.997,-31.0218"/>
<polygon fill="midnightblue" stroke="midnightblue" points="301.733,-62.2938 293.403,-68.8413 303.998,-68.9173 301.733,-62.2938"/>
</g>
</g>
</svg>
