<?xml version="1.0" encoding="UTF-8" standalone="no"?>
<!DOCTYPE svg PUBLIC "-//W3C//DTD SVG 1.1//EN"
 "http://www.w3.org/Graphics/SVG/1.1/DTD/svg11.dtd">
<!-- Generated by graphviz version 2.36.0 (20140111.2315)
 -->
<!-- Title: com.cloudera.impala.util.MaxRowsProcessedVisitor Pages: 1 -->
<svg width="260pt" height="206pt"
 viewBox="0.00 0.00 260.00 206.00" xmlns="http://www.w3.org/2000/svg" xmlns:xlink="http://www.w3.org/1999/xlink">
<g id="graph0" class="graph" transform="scale(1 1) rotate(0) translate(4 202)">
<title>com.cloudera.impala.util.MaxRowsProcessedVisitor</title>
<polygon fill="white" stroke="none" points="-4,4 -4,-202 256,-202 256,4 -4,4"/>
<!-- Node1 -->
<g id="node1" class="node"><title>Node1</title>
<polygon fill="#bfbfbf" stroke="black" points="98.5,-0.5 98.5,-79.5 233.5,-79.5 233.5,-0.5 98.5,-0.5"/>
<text text-anchor="start" x="106.5" y="-67.5" font-family="Helvetica,sans-Serif" font-size="10.00">com.cloudera.impala.util.</text>
<text text-anchor="middle" x="166" y="-56.5" font-family="Helvetica,sans-Serif" font-size="10.00">MaxRowsProcessedVisitor</text>
<polyline fill="none" stroke="black" points="98.5,-49.5 233.5,-49.5 "/>
<text text-anchor="middle" x="166" y="-37.5" font-family="Helvetica,sans-Serif" font-size="10.00"> </text>
<polyline fill="none" stroke="black" points="98.5,-30.5 233.5,-30.5 "/>
<text text-anchor="start" x="106.5" y="-18.5" font-family="Helvetica,sans-Serif" font-size="10.00">+ visit()</text>
<text text-anchor="start" x="106.5" y="-7.5" font-family="Helvetica,sans-Serif" font-size="10.00">+ get()</text>
</g>
<!-- Node2 -->
<g id="node2" class="node"><title>Node2</title>
<polygon fill="white" stroke="#bfbfbf" points="0,-129 0,-197 130,-197 130,-129 0,-129"/>
<text text-anchor="start" x="8" y="-185" font-family="Helvetica,sans-Serif" font-size="10.00">com::cloudera::impala</text>
<text text-anchor="middle" x="65" y="-174" font-family="Helvetica,sans-Serif" font-size="10.00">::util::Visitor&lt; PlanNode &gt;</text>
<polyline fill="none" stroke="#bfbfbf" points="0,-167 130,-167 "/>
<text text-anchor="middle" x="65" y="-155" font-family="Helvetica,sans-Serif" font-size="10.00"> </text>
<polyline fill="none" stroke="#bfbfbf" points="0,-148 130,-148 "/>
<text text-anchor="middle" x="65" y="-136" font-family="Helvetica,sans-Serif" font-size="10.00"> </text>
</g>
<!-- Node2&#45;&gt;Node1 -->
<g id="edge1" class="edge"><title>Node2&#45;&gt;Node1</title>
<path fill="none" stroke="midnightblue" d="M99.0451,-121.213C110.266,-107.771 122.703,-92.8709 133.783,-79.597"/>
<polygon fill="none" stroke="midnightblue" points="96.3199,-119.016 92.5987,-128.936 101.694,-123.502 96.3199,-119.016"/>
</g>
<!-- Node3 -->
<g id="node3" class="node"><title>Node3</title>
<polygon fill="white" stroke="#bfbfbf" points="148.5,-134.5 148.5,-191.5 183.5,-191.5 183.5,-134.5 148.5,-134.5"/>
<text text-anchor="middle" x="166" y="-179.5" font-family="Helvetica,sans-Serif" font-size="10.00">long</text>
<polyline fill="none" stroke="#bfbfbf" points="148.5,-172.5 183.5,-172.5 "/>
<text text-anchor="middle" x="166" y="-160.5" font-family="Helvetica,sans-Serif" font-size="10.00"> </text>
<polyline fill="none" stroke="#bfbfbf" points="148.5,-153.5 183.5,-153.5 "/>
<text text-anchor="middle" x="166" y="-141.5" font-family="Helvetica,sans-Serif" font-size="10.00"> </text>
</g>
<!-- Node3&#45;&gt;Node1 -->
<g id="edge2" class="edge"><title>Node3&#45;&gt;Node1</title>
<path fill="none" stroke="#404040" d="M166,-134.24C166,-121.72 166,-106.524 166,-92.0646"/>
<polygon fill="none" stroke="#404040" points="166,-91.6334 162,-85.6335 166,-79.6334 170,-85.6334 166,-91.6334"/>
<text text-anchor="middle" x="184" y="-101.5" font-family="Helvetica,sans-Serif" font-size="10.00"> &#45;result_</text>
</g>
<!-- Node4 -->
<g id="node4" class="node"><title>Node4</title>
<polygon fill="white" stroke="#bfbfbf" points="202,-134.5 202,-191.5 252,-191.5 252,-134.5 202,-134.5"/>
<text text-anchor="middle" x="227" y="-179.5" font-family="Helvetica,sans-Serif" font-size="10.00">boolean</text>
<polyline fill="none" stroke="#bfbfbf" points="202,-172.5 252,-172.5 "/>
<text text-anchor="middle" x="227" y="-160.5" font-family="Helvetica,sans-Serif" font-size="10.00"> </text>
<polyline fill="none" stroke="#bfbfbf" points="202,-153.5 252,-153.5 "/>
<text text-anchor="middle" x="227" y="-141.5" font-family="Helvetica,sans-Serif" font-size="10.00"> </text>
</g>
<!-- Node4&#45;&gt;Node1 -->
<g id="edge3" class="edge"><title>Node4&#45;&gt;Node1</title>
<path fill="none" stroke="#404040" d="M219.256,-134.247C215.591,-122.745 210.749,-109.444 205,-98 203.706,-95.4236 202.31,-92.8282 200.844,-90.2402"/>
<polygon fill="none" stroke="#404040" points="200.692,-89.988 194.169,-86.9136 194.498,-79.71 201.021,-82.7843 200.692,-89.988"/>
<text text-anchor="middle" x="228" y="-101.5" font-family="Helvetica,sans-Serif" font-size="10.00"> &#45;abort_</text>
</g>
</g>
</svg>
