<?xml version="1.0" encoding="UTF-8" standalone="no"?>
<!DOCTYPE svg PUBLIC "-//W3C//DTD SVG 1.1//EN"
 "http://www.w3.org/Graphics/SVG/1.1/DTD/svg11.dtd">
<!-- Generated by graphviz version 2.36.0 (20140111.2315)
 -->
<!-- Title: com.cloudera.impala.analysis.SetStmt Pages: 1 -->
<svg width="369pt" height="454pt"
 viewBox="0.00 0.00 369.00 454.00" xmlns="http://www.w3.org/2000/svg" xmlns:xlink="http://www.w3.org/1999/xlink">
<g id="graph0" class="graph" transform="scale(1 1) rotate(0) translate(4 450)">
<title>com.cloudera.impala.analysis.SetStmt</title>
<polygon fill="white" stroke="none" points="-4,4 -4,-450 365,-450 365,4 -4,4"/>
<!-- Node1 -->
<g id="node1" class="node"><title>Node1</title>
<polygon fill="#bfbfbf" stroke="black" points="141.5,-1 141.5,-113 290.5,-113 290.5,-1 141.5,-1"/>
<text text-anchor="start" x="149.5" y="-101" font-family="Helvetica,sans-Serif" font-size="10.00">com.cloudera.impala.analysis.</text>
<text text-anchor="middle" x="216" y="-90" font-family="Helvetica,sans-Serif" font-size="10.00">SetStmt</text>
<polyline fill="none" stroke="black" points="141.5,-83 290.5,-83 "/>
<text text-anchor="middle" x="216" y="-71" font-family="Helvetica,sans-Serif" font-size="10.00"> </text>
<polyline fill="none" stroke="black" points="141.5,-64 290.5,-64 "/>
<text text-anchor="start" x="149.5" y="-52" font-family="Helvetica,sans-Serif" font-size="10.00">+ SetStmt()</text>
<text text-anchor="start" x="149.5" y="-41" font-family="Helvetica,sans-Serif" font-size="10.00">+ toSql()</text>
<text text-anchor="start" x="149.5" y="-30" font-family="Helvetica,sans-Serif" font-size="10.00">+ analyze()</text>
<text text-anchor="start" x="149.5" y="-19" font-family="Helvetica,sans-Serif" font-size="10.00">+ toThrift()</text>
<text text-anchor="start" x="149.5" y="-8" font-family="Helvetica,sans-Serif" font-size="10.00">&#45; resolveThriftKey()</text>
</g>
<!-- Node2 -->
<g id="node2" class="node"><title>Node2</title>
<g id="a_node2"><a xlink:href="classcom_1_1cloudera_1_1impala_1_1analysis_1_1StatementBase.html" target="_top" xlink:title="{com.cloudera.impala.analysis.\lStatementBase\n||+ analyze()\l+ toSql()\l+ setIsExplain()\l+ isExplain()\l}">
<polygon fill="white" stroke="black" points="57.5,-216.5 57.5,-317.5 206.5,-317.5 206.5,-216.5 57.5,-216.5"/>
<text text-anchor="start" x="65.5" y="-305.5" font-family="Helvetica,sans-Serif" font-size="10.00">com.cloudera.impala.analysis.</text>
<text text-anchor="middle" x="132" y="-294.5" font-family="Helvetica,sans-Serif" font-size="10.00">StatementBase</text>
<polyline fill="none" stroke="black" points="57.5,-287.5 206.5,-287.5 "/>
<text text-anchor="middle" x="132" y="-275.5" font-family="Helvetica,sans-Serif" font-size="10.00"> </text>
<polyline fill="none" stroke="black" points="57.5,-268.5 206.5,-268.5 "/>
<text text-anchor="start" x="65.5" y="-256.5" font-family="Helvetica,sans-Serif" font-size="10.00">+ analyze()</text>
<text text-anchor="start" x="65.5" y="-245.5" font-family="Helvetica,sans-Serif" font-size="10.00">+ toSql()</text>
<text text-anchor="start" x="65.5" y="-234.5" font-family="Helvetica,sans-Serif" font-size="10.00">+ setIsExplain()</text>
<text text-anchor="start" x="65.5" y="-223.5" font-family="Helvetica,sans-Serif" font-size="10.00">+ isExplain()</text>
</a>
</g>
</g>
<!-- Node2&#45;&gt;Node1 -->
<g id="edge1" class="edge"><title>Node2&#45;&gt;Node1</title>
<path fill="none" stroke="midnightblue" d="M155.794,-207.082C167.72,-177.551 182.075,-142.006 193.776,-113.032"/>
<polygon fill="none" stroke="midnightblue" points="152.513,-205.86 152.013,-216.443 159.003,-208.481 152.513,-205.86"/>
</g>
<!-- Node3 -->
<g id="node3" class="node"><title>Node3</title>
<g id="a_node3"><a xlink:href="interfacecom_1_1cloudera_1_1impala_1_1analysis_1_1ParseNode.html" target="_top" xlink:title="{com.cloudera.impala.analysis.\lParseNode\n||+ analyze()\l+ toSql()\l}">
<polygon fill="white" stroke="black" points="-0.5,-366.5 -0.5,-445.5 148.5,-445.5 148.5,-366.5 -0.5,-366.5"/>
<text text-anchor="start" x="7.5" y="-433.5" font-family="Helvetica,sans-Serif" font-size="10.00">com.cloudera.impala.analysis.</text>
<text text-anchor="middle" x="74" y="-422.5" font-family="Helvetica,sans-Serif" font-size="10.00">ParseNode</text>
<polyline fill="none" stroke="black" points="-0.5,-415.5 148.5,-415.5 "/>
<text text-anchor="middle" x="74" y="-403.5" font-family="Helvetica,sans-Serif" font-size="10.00"> </text>
<polyline fill="none" stroke="black" points="-0.5,-396.5 148.5,-396.5 "/>
<text text-anchor="start" x="7.5" y="-384.5" font-family="Helvetica,sans-Serif" font-size="10.00">+ analyze()</text>
<text text-anchor="start" x="7.5" y="-373.5" font-family="Helvetica,sans-Serif" font-size="10.00">+ toSql()</text>
</a>
</g>
</g>
<!-- Node3&#45;&gt;Node2 -->
<g id="edge2" class="edge"><title>Node3&#45;&gt;Node2</title>
<path fill="none" stroke="midnightblue" d="M94.3451,-356.943C99.7521,-344.172 105.601,-330.356 111.04,-317.509"/>
<polygon fill="none" stroke="midnightblue" points="90.9862,-355.9 90.3106,-366.473 97.4323,-358.629 90.9862,-355.9"/>
</g>
<!-- Node4 -->
<g id="node4" class="node"><title>Node4</title>
<polygon fill="white" stroke="#bfbfbf" points="166,-377.5 166,-434.5 216,-434.5 216,-377.5 166,-377.5"/>
<text text-anchor="middle" x="191" y="-422.5" font-family="Helvetica,sans-Serif" font-size="10.00">boolean</text>
<polyline fill="none" stroke="#bfbfbf" points="166,-415.5 216,-415.5 "/>
<text text-anchor="middle" x="191" y="-403.5" font-family="Helvetica,sans-Serif" font-size="10.00"> </text>
<polyline fill="none" stroke="#bfbfbf" points="166,-396.5 216,-396.5 "/>
<text text-anchor="middle" x="191" y="-384.5" font-family="Helvetica,sans-Serif" font-size="10.00"> </text>
</g>
<!-- Node4&#45;&gt;Node2 -->
<g id="edge3" class="edge"><title>Node4&#45;&gt;Node2</title>
<path fill="none" stroke="#404040" d="M179.06,-377.276C173.011,-363.23 165.413,-345.587 158.098,-328.601"/>
<polygon fill="none" stroke="#404040" points="158.098,-328.6 152.051,-324.671 153.351,-317.578 159.398,-321.507 158.098,-328.6"/>
<text text-anchor="middle" x="193" y="-339.5" font-family="Helvetica,sans-Serif" font-size="10.00"> #isExplain_</text>
</g>
<!-- Node5 -->
<g id="node5" class="node"><title>Node5</title>
<polygon fill="white" stroke="#bfbfbf" points="224,-238.5 224,-295.5 266,-295.5 266,-238.5 224,-238.5"/>
<text text-anchor="middle" x="245" y="-283.5" font-family="Helvetica,sans-Serif" font-size="10.00">String</text>
<polyline fill="none" stroke="#bfbfbf" points="224,-276.5 266,-276.5 "/>
<text text-anchor="middle" x="245" y="-264.5" font-family="Helvetica,sans-Serif" font-size="10.00"> </text>
<polyline fill="none" stroke="#bfbfbf" points="224,-257.5 266,-257.5 "/>
<text text-anchor="middle" x="245" y="-245.5" font-family="Helvetica,sans-Serif" font-size="10.00"> </text>
</g>
<!-- Node5&#45;&gt;Node1 -->
<g id="edge4" class="edge"><title>Node5&#45;&gt;Node1</title>
<path fill="none" stroke="#404040" d="M241.149,-238.379C237.145,-209.661 230.727,-163.625 225.376,-125.25"/>
<polygon fill="none" stroke="#404040" points="225.338,-124.977 220.548,-119.587 223.681,-113.092 228.471,-118.482 225.338,-124.977"/>
<text text-anchor="start" x="234" y="-190" font-family="Helvetica,sans-Serif" font-size="10.00"> &#45;COMPRESSION_CODEC</text>
<text text-anchor="middle" x="297.5" y="-179" font-family="Helvetica,sans-Serif" font-size="10.00">_KEY</text>
<text text-anchor="start" x="234" y="-168" font-family="Helvetica,sans-Serif" font-size="10.00">&#45;DEPRECATED_PARQUET</text>
<text text-anchor="middle" x="297.5" y="-157" font-family="Helvetica,sans-Serif" font-size="10.00">_CODEC_KEY</text>
<text text-anchor="middle" x="297.5" y="-146" font-family="Helvetica,sans-Serif" font-size="10.00">&#45;key_</text>
<text text-anchor="middle" x="297.5" y="-135" font-family="Helvetica,sans-Serif" font-size="10.00">&#45;value_</text>
</g>
</g>
</svg>
