<?xml version="1.0" encoding="UTF-8" standalone="no"?>
<!DOCTYPE svg PUBLIC "-//W3C//DTD SVG 1.1//EN"
 "http://www.w3.org/Graphics/SVG/1.1/DTD/svg11.dtd">
<!-- Generated by graphviz version 2.36.0 (20140111.2315)
 -->
<!-- Title: impala::TimestampFunctions Pages: 1 -->
<svg width="154pt" height="348pt"
 viewBox="0.00 0.00 154.00 348.00" xmlns="http://www.w3.org/2000/svg" xmlns:xlink="http://www.w3.org/1999/xlink">
<g id="graph0" class="graph" transform="scale(1 1) rotate(0) translate(4 344)">
<title>impala::TimestampFunctions</title>
<polygon fill="white" stroke="none" points="-4,4 -4,-344 150,-344 150,4 -4,4"/>
<!-- Node1 -->
<g id="node1" class="node"><title>Node1</title>
<polygon fill="#bfbfbf" stroke="black" points="0,-0.5 0,-167.5 146,-167.5 146,-0.5 0,-0.5"/>
<text text-anchor="middle" x="73" y="-155.5" font-family="Helvetica,sans-Serif" font-size="10.00">impala::TimestampFunctions</text>
<polyline fill="none" stroke="black" points="0,-148.5 146,-148.5 "/>
<text text-anchor="middle" x="73" y="-136.5" font-family="Helvetica,sans-Serif" font-size="10.00"> </text>
<polyline fill="none" stroke="black" points="0,-129.5 146,-129.5 "/>
<text text-anchor="start" x="8" y="-117.5" font-family="Helvetica,sans-Serif" font-size="10.00">+ UnixAndFromUnixPrepare()</text>
<text text-anchor="start" x="8" y="-106.5" font-family="Helvetica,sans-Serif" font-size="10.00">+ UnixAndFromUnixClose()</text>
<text text-anchor="start" x="8" y="-95.5" font-family="Helvetica,sans-Serif" font-size="10.00">+ Unix()</text>
<text text-anchor="start" x="8" y="-84.5" font-family="Helvetica,sans-Serif" font-size="10.00">+ Unix()</text>
<text text-anchor="start" x="8" y="-73.5" font-family="Helvetica,sans-Serif" font-size="10.00">+ Unix()</text>
<text text-anchor="start" x="8" y="-62.5" font-family="Helvetica,sans-Serif" font-size="10.00">+ UnixFromString()</text>
<text text-anchor="start" x="8" y="-51.5" font-family="Helvetica,sans-Serif" font-size="10.00">+ FromUnix()</text>
<text text-anchor="start" x="8" y="-40.5" font-family="Helvetica,sans-Serif" font-size="10.00">+ FromUnix()</text>
<text text-anchor="start" x="8" y="-29.5" font-family="Helvetica,sans-Serif" font-size="10.00">+ FromUtc()</text>
<text text-anchor="start" x="8" y="-18.5" font-family="Helvetica,sans-Serif" font-size="10.00">+ ToUtc()</text>
<text text-anchor="start" x="8" y="-7.5" font-family="Helvetica,sans-Serif" font-size="10.00">and 17 more...</text>
</g>
<!-- Node2 -->
<g id="node2" class="node"><title>Node2</title>
<polygon fill="white" stroke="#bfbfbf" points="55.5,-282.5 55.5,-339.5 90.5,-339.5 90.5,-282.5 55.5,-282.5"/>
<text text-anchor="middle" x="73" y="-327.5" font-family="Helvetica,sans-Serif" font-size="10.00">char</text>
<polyline fill="none" stroke="#bfbfbf" points="55.5,-320.5 90.5,-320.5 "/>
<text text-anchor="middle" x="73" y="-308.5" font-family="Helvetica,sans-Serif" font-size="10.00"> </text>
<polyline fill="none" stroke="#bfbfbf" points="55.5,-301.5 90.5,-301.5 "/>
<text text-anchor="middle" x="73" y="-289.5" font-family="Helvetica,sans-Serif" font-size="10.00"> </text>
</g>
<!-- Node2&#45;&gt;Node1 -->
<g id="edge1" class="edge"><title>Node2&#45;&gt;Node1</title>
<path fill="none" stroke="#404040" d="M73,-282.411C73,-256.791 73,-217.127 73,-180.053"/>
<polygon fill="none" stroke="#404040" points="73.0001,-179.604 69,-173.604 73,-167.604 77,-173.604 73.0001,-179.604"/>
<text text-anchor="middle" x="108" y="-255.5" font-family="Helvetica,sans-Serif" font-size="10.00"> &#45;TUESDAY</text>
<text text-anchor="middle" x="108" y="-244.5" font-family="Helvetica,sans-Serif" font-size="10.00">&#45;SATURDAY</text>
<text text-anchor="middle" x="108" y="-233.5" font-family="Helvetica,sans-Serif" font-size="10.00">&#45;WEDNESDAY</text>
<text text-anchor="middle" x="108" y="-222.5" font-family="Helvetica,sans-Serif" font-size="10.00">&#45;THURSDAY</text>
<text text-anchor="middle" x="108" y="-211.5" font-family="Helvetica,sans-Serif" font-size="10.00">&#45;FRIDAY</text>
<text text-anchor="middle" x="108" y="-200.5" font-family="Helvetica,sans-Serif" font-size="10.00">&#45;SUNDAY</text>
<text text-anchor="middle" x="108" y="-189.5" font-family="Helvetica,sans-Serif" font-size="10.00">&#45;MONDAY</text>
</g>
</g>
</svg>
