<?xml version="1.0" encoding="UTF-8" standalone="no"?>
<!DOCTYPE svg PUBLIC "-//W3C//DTD SVG 1.1//EN"
 "http://www.w3.org/Graphics/SVG/1.1/DTD/svg11.dtd">
<!-- Generated by graphviz version 2.36.0 (20140111.2315)
 -->
<!-- Title: com.cloudera.impala.planner.TableSink Pages: 1 -->
<svg width="335pt" height="432pt"
 viewBox="0.00 0.00 335.00 432.00" xmlns="http://www.w3.org/2000/svg" xmlns:xlink="http://www.w3.org/1999/xlink">
<g id="graph0" class="graph" transform="scale(1 1) rotate(0) translate(4 428)">
<title>com.cloudera.impala.planner.TableSink</title>
<polygon fill="white" stroke="none" points="-4,4 -4,-428 331,-428 331,4 -4,4"/>
<!-- Node1 -->
<g id="node1" class="node"><title>Node1</title>
<polygon fill="#bfbfbf" stroke="black" points="86,-173 86,-241 230,-241 230,-173 86,-173"/>
<text text-anchor="start" x="94" y="-229" font-family="Helvetica,sans-Serif" font-size="10.00">com.cloudera.impala.planner.</text>
<text text-anchor="middle" x="158" y="-218" font-family="Helvetica,sans-Serif" font-size="10.00">TableSink</text>
<polyline fill="none" stroke="black" points="86,-211 230,-211 "/>
<text text-anchor="start" x="94" y="-199" font-family="Helvetica,sans-Serif" font-size="10.00"># targetTable_</text>
<polyline fill="none" stroke="black" points="86,-192 230,-192 "/>
<text text-anchor="start" x="94" y="-180" font-family="Helvetica,sans-Serif" font-size="10.00">+ TableSink()</text>
</g>
<!-- Node3 -->
<g id="node3" class="node"><title>Node3</title>
<g id="a_node3"><a xlink:href="classcom_1_1cloudera_1_1impala_1_1planner_1_1HBaseTableSink.html" target="_top" xlink:title="{com.cloudera.impala.planner.\lHBaseTableSink\n||+ HBaseTableSink()\l+ getExplainString()\l# toThrift()\l}">
<polygon fill="white" stroke="black" points="0,-23 0,-113 144,-113 144,-23 0,-23"/>
<text text-anchor="start" x="8" y="-101" font-family="Helvetica,sans-Serif" font-size="10.00">com.cloudera.impala.planner.</text>
<text text-anchor="middle" x="72" y="-90" font-family="Helvetica,sans-Serif" font-size="10.00">HBaseTableSink</text>
<polyline fill="none" stroke="black" points="0,-83 144,-83 "/>
<text text-anchor="middle" x="72" y="-71" font-family="Helvetica,sans-Serif" font-size="10.00"> </text>
<polyline fill="none" stroke="black" points="0,-64 144,-64 "/>
<text text-anchor="start" x="8" y="-52" font-family="Helvetica,sans-Serif" font-size="10.00">+ HBaseTableSink()</text>
<text text-anchor="start" x="8" y="-41" font-family="Helvetica,sans-Serif" font-size="10.00">+ getExplainString()</text>
<text text-anchor="start" x="8" y="-30" font-family="Helvetica,sans-Serif" font-size="10.00"># toThrift()</text>
</a>
</g>
</g>
<!-- Node1&#45;&gt;Node3 -->
<g id="edge2" class="edge"><title>Node1&#45;&gt;Node3</title>
<path fill="none" stroke="midnightblue" d="M131.73,-164.151C121.612,-148.034 110.032,-129.585 99.777,-113.249"/>
<polygon fill="none" stroke="midnightblue" points="128.901,-166.227 137.182,-172.836 134.829,-162.506 128.901,-166.227"/>
</g>
<!-- Node4 -->
<g id="node4" class="node"><title>Node4</title>
<g id="a_node4"><a xlink:href="classcom_1_1cloudera_1_1impala_1_1planner_1_1HdfsTableSink.html" target="_top" xlink:title="{com.cloudera.impala.planner.\lHdfsTableSink\n|# DEFAULT_NUM_PARTITIONS\l# partitionKeyExprs_\l# overwrite_\l|+ HdfsTableSink()\l+ computeCosts()\l+ getExplainString()\l# toThrift()\l&#45; getPerPartitionMemReq()\l}">
<polygon fill="white" stroke="black" points="162.5,-1 162.5,-135 327.5,-135 327.5,-1 162.5,-1"/>
<text text-anchor="start" x="170.5" y="-123" font-family="Helvetica,sans-Serif" font-size="10.00">com.cloudera.impala.planner.</text>
<text text-anchor="middle" x="245" y="-112" font-family="Helvetica,sans-Serif" font-size="10.00">HdfsTableSink</text>
<polyline fill="none" stroke="black" points="162.5,-105 327.5,-105 "/>
<text text-anchor="start" x="170.5" y="-93" font-family="Helvetica,sans-Serif" font-size="10.00"># DEFAULT_NUM_PARTITIONS</text>
<text text-anchor="start" x="170.5" y="-82" font-family="Helvetica,sans-Serif" font-size="10.00"># partitionKeyExprs_</text>
<text text-anchor="start" x="170.5" y="-71" font-family="Helvetica,sans-Serif" font-size="10.00"># overwrite_</text>
<polyline fill="none" stroke="black" points="162.5,-64 327.5,-64 "/>
<text text-anchor="start" x="170.5" y="-52" font-family="Helvetica,sans-Serif" font-size="10.00">+ HdfsTableSink()</text>
<text text-anchor="start" x="170.5" y="-41" font-family="Helvetica,sans-Serif" font-size="10.00">+ computeCosts()</text>
<text text-anchor="start" x="170.5" y="-30" font-family="Helvetica,sans-Serif" font-size="10.00">+ getExplainString()</text>
<text text-anchor="start" x="170.5" y="-19" font-family="Helvetica,sans-Serif" font-size="10.00"># toThrift()</text>
<text text-anchor="start" x="170.5" y="-8" font-family="Helvetica,sans-Serif" font-size="10.00">&#45; getPerPartitionMemReq()</text>
</a>
</g>
</g>
<!-- Node1&#45;&gt;Node4 -->
<g id="edge3" class="edge"><title>Node1&#45;&gt;Node4</title>
<path fill="none" stroke="midnightblue" d="M184.506,-164.261C190.359,-155.044 196.699,-145.06 202.997,-135.142"/>
<polygon fill="none" stroke="midnightblue" points="181.467,-162.518 179.06,-172.836 187.376,-166.271 181.467,-162.518"/>
</g>
<!-- Node2 -->
<g id="node2" class="node"><title>Node2</title>
<g id="a_node2"><a xlink:href="classcom_1_1cloudera_1_1impala_1_1planner_1_1DataSink.html" target="_top" xlink:title="{com.cloudera.impala.planner.\lDataSink\n|# perHostMemCost_\l# fragment_\l|+ getExplainString()\l+ setFragment()\l+ getFragment()\l+ getPerHostMemCost()\l+ computeCosts()\l+ createDataSink()\l# toThrift()\l}">
<polygon fill="white" stroke="black" points="86,-278.5 86,-423.5 230,-423.5 230,-278.5 86,-278.5"/>
<text text-anchor="start" x="94" y="-411.5" font-family="Helvetica,sans-Serif" font-size="10.00">com.cloudera.impala.planner.</text>
<text text-anchor="middle" x="158" y="-400.5" font-family="Helvetica,sans-Serif" font-size="10.00">DataSink</text>
<polyline fill="none" stroke="black" points="86,-393.5 230,-393.5 "/>
<text text-anchor="start" x="94" y="-381.5" font-family="Helvetica,sans-Serif" font-size="10.00"># perHostMemCost_</text>
<text text-anchor="start" x="94" y="-370.5" font-family="Helvetica,sans-Serif" font-size="10.00"># fragment_</text>
<polyline fill="none" stroke="black" points="86,-363.5 230,-363.5 "/>
<text text-anchor="start" x="94" y="-351.5" font-family="Helvetica,sans-Serif" font-size="10.00">+ getExplainString()</text>
<text text-anchor="start" x="94" y="-340.5" font-family="Helvetica,sans-Serif" font-size="10.00">+ setFragment()</text>
<text text-anchor="start" x="94" y="-329.5" font-family="Helvetica,sans-Serif" font-size="10.00">+ getFragment()</text>
<text text-anchor="start" x="94" y="-318.5" font-family="Helvetica,sans-Serif" font-size="10.00">+ getPerHostMemCost()</text>
<text text-anchor="start" x="94" y="-307.5" font-family="Helvetica,sans-Serif" font-size="10.00">+ computeCosts()</text>
<text text-anchor="start" x="94" y="-296.5" font-family="Helvetica,sans-Serif" font-size="10.00">+ createDataSink()</text>
<text text-anchor="start" x="94" y="-285.5" font-family="Helvetica,sans-Serif" font-size="10.00"># toThrift()</text>
</a>
</g>
</g>
<!-- Node2&#45;&gt;Node1 -->
<g id="edge1" class="edge"><title>Node2&#45;&gt;Node1</title>
<path fill="none" stroke="midnightblue" d="M158,-267.902C158,-258.508 158,-249.38 158,-241.197"/>
<polygon fill="none" stroke="midnightblue" points="154.5,-268.168 158,-278.168 161.5,-268.168 154.5,-268.168"/>
</g>
</g>
</svg>
