<?xml version="1.0" encoding="UTF-8" standalone="no"?>
<!DOCTYPE svg PUBLIC "-//W3C//DTD SVG 1.1//EN"
 "http://www.w3.org/Graphics/SVG/1.1/DTD/svg11.dtd">
<!-- Generated by graphviz version 2.36.0 (20140111.2315)
 -->
<!-- Title: impala::ExecNode::RowBatchQueue Pages: 1 -->
<!--zoomable 444 -->
<svg id="main" version="1.1" xmlns="http://www.w3.org/2000/svg" xmlns:xlink="http://www.w3.org/1999/xlink" xml:space="preserve" onload="init(evt)">
<style type="text/css"><![CDATA[
.edge:hover path { stroke: red; }
.edge:hover polygon { stroke: red; fill: red; }
]]></style>
<script type="text/javascript"><![CDATA[
var edges = document.getElementsByTagName('g');
if (edges && edges.length) {
  for (var i=0;i<edges.length;i++) {
    if (edges[i].id.substr(0,4)=='edge') {
      edges[i].setAttribute('class','edge');
    }
  }
}
]]></script>
        <defs>
                <circle id="rim" cx="0" cy="0" r="7"/>
                <circle id="rim2" cx="0" cy="0" r="3.5"/>
                <g id="zoomPlus">
                        <use xlink:href="#rim" fill="#404040">
                                <set attributeName="fill" to="#808080" begin="zoomplus.mouseover" end="zoomplus.mouseout"/>
                        </use>
                        <path d="M-4,0h8M0,-4v8" fill="none" stroke="white" stroke-width="1.5" pointer-events="none"/>
                </g>
                <g id="zoomMin">
                        <use xlink:href="#rim" fill="#404040">
                                <set attributeName="fill" to="#808080" begin="zoomminus.mouseover" end="zoomminus.mouseout"/>
                        </use>
                        <path d="M-4,0h8" fill="none" stroke="white" stroke-width="1.5" pointer-events="none"/>
                </g>
                <g id="dirArrow">
                        <path fill="none" stroke="white" stroke-width="1.5" d="M0,-3.0v7 M-2.5,-0.5L0,-3.0L2.5,-0.5"/>
                </g>
               <g id="resetDef">
                       <use xlink:href="#rim2" fill="#404040">
                               <set attributeName="fill" to="#808080" begin="reset.mouseover" end="reset.mouseout"/>
                       </use>
               </g>
        </defs>

<script type="text/javascript">
var viewWidth = 677;
var viewHeight = 444;
var sectionId = 'dynsection-1';
</script>
<script xlink:href="svgpan.js"/>
<svg id="graph" class="graph">
<g id="viewport">
<title>impala::ExecNode::RowBatchQueue</title>
<polygon fill="white" stroke="none" points="-4,4 -4,-440 673,-440 673,4 -4,4"/>
<!-- Node1 -->
<g id="node1" class="node"><title>Node1</title>
<polygon fill="#bfbfbf" stroke="black" points="364.5,-1 364.5,-113 513.5,-113 513.5,-1 364.5,-1"/>
<text text-anchor="start" x="372.5" y="-101" font-family="Helvetica,sans-Serif" font-size="10.00">impala::ExecNode::RowBatch</text>
<text text-anchor="middle" x="439" y="-90" font-family="Helvetica,sans-Serif" font-size="10.00">Queue</text>
<polyline fill="none" stroke="black" points="364.5,-83 513.5,-83 "/>
<text text-anchor="middle" x="439" y="-71" font-family="Helvetica,sans-Serif" font-size="10.00"> </text>
<polyline fill="none" stroke="black" points="364.5,-64 513.5,-64 "/>
<text text-anchor="start" x="372.5" y="-52" font-family="Helvetica,sans-Serif" font-size="10.00">+ RowBatchQueue()</text>
<text text-anchor="start" x="372.5" y="-41" font-family="Helvetica,sans-Serif" font-size="10.00">+ ~RowBatchQueue()</text>
<text text-anchor="start" x="372.5" y="-30" font-family="Helvetica,sans-Serif" font-size="10.00">+ AddBatch()</text>
<text text-anchor="start" x="372.5" y="-19" font-family="Helvetica,sans-Serif" font-size="10.00">+ GetBatch()</text>
<text text-anchor="start" x="372.5" y="-8" font-family="Helvetica,sans-Serif" font-size="10.00">+ Cleanup()</text>
</g>
<!-- Node2 -->
<g id="node2" class="node"><title>Node2</title>
<g id="a_node2"><a xlink:href="classimpala_1_1BlockingQueue.html" target="_top" xlink:title="{impala::BlockingQueue\l\&lt; RowBatch * \&gt;\n||+ BlockingQueue()\l+ BlockingGet()\l+ BlockingPut()\l+ Shutdown()\l+ GetSize()\l+ total_get_wait_time()\l+ total_put_wait_time()\l}">
<polygon fill="white" stroke="black" points="239.5,-163 239.5,-297 356.5,-297 356.5,-163 239.5,-163"/>
<text text-anchor="start" x="247.5" y="-285" font-family="Helvetica,sans-Serif" font-size="10.00">impala::BlockingQueue</text>
<text text-anchor="middle" x="298" y="-274" font-family="Helvetica,sans-Serif" font-size="10.00">&lt; RowBatch * &gt;</text>
<polyline fill="none" stroke="black" points="239.5,-267 356.5,-267 "/>
<text text-anchor="middle" x="298" y="-255" font-family="Helvetica,sans-Serif" font-size="10.00"> </text>
<polyline fill="none" stroke="black" points="239.5,-248 356.5,-248 "/>
<text text-anchor="start" x="247.5" y="-236" font-family="Helvetica,sans-Serif" font-size="10.00">+ BlockingQueue()</text>
<text text-anchor="start" x="247.5" y="-225" font-family="Helvetica,sans-Serif" font-size="10.00">+ BlockingGet()</text>
<text text-anchor="start" x="247.5" y="-214" font-family="Helvetica,sans-Serif" font-size="10.00">+ BlockingPut()</text>
<text text-anchor="start" x="247.5" y="-203" font-family="Helvetica,sans-Serif" font-size="10.00">+ Shutdown()</text>
<text text-anchor="start" x="247.5" y="-192" font-family="Helvetica,sans-Serif" font-size="10.00">+ GetSize()</text>
<text text-anchor="start" x="247.5" y="-181" font-family="Helvetica,sans-Serif" font-size="10.00">+ total_get_wait_time()</text>
<text text-anchor="start" x="247.5" y="-170" font-family="Helvetica,sans-Serif" font-size="10.00">+ total_put_wait_time()</text>
</a>
</g>
</g>
<!-- Node2&#45;&gt;Node1 -->
<g id="edge1" class="edge"><title>Node2&#45;&gt;Node1</title>
<path fill="none" stroke="midnightblue" d="M358.924,-155.113C370.542,-141.024 382.513,-126.505 393.544,-113.127"/>
<polygon fill="none" stroke="midnightblue" points="356.176,-152.945 352.514,-162.887 361.577,-157.398 356.176,-152.945"/>
</g>
<!-- Node3 -->
<g id="node3" class="node"><title>Node3</title>
<g id="a_node3"><a xlink:href="classuint64__t.html" target="_top" xlink:title="{uint64_t\n||}">
<polygon fill="white" stroke="black" points="-0.5,-378.5 -0.5,-435.5 50.5,-435.5 50.5,-378.5 -0.5,-378.5"/>
<text text-anchor="middle" x="25" y="-423.5" font-family="Helvetica,sans-Serif" font-size="10.00">uint64_t</text>
<polyline fill="none" stroke="black" points="-0.5,-416.5 50.5,-416.5 "/>
<text text-anchor="middle" x="25" y="-404.5" font-family="Helvetica,sans-Serif" font-size="10.00"> </text>
<polyline fill="none" stroke="black" points="-0.5,-397.5 50.5,-397.5 "/>
<text text-anchor="middle" x="25" y="-385.5" font-family="Helvetica,sans-Serif" font-size="10.00"> </text>
</a>
</g>
</g>
<!-- Node3&#45;&gt;Node2 -->
<g id="edge2" class="edge"><title>Node3&#45;&gt;Node2</title>
<path fill="none" stroke="#404040" d="M27.4404,-378.274C30.5704,-358.543 37.7115,-332.676 54,-316 99.8964,-269.012 173.116,-247.968 227.386,-238.561"/>
<polygon fill="none" stroke="#404040" points="227.51,-238.541 232.792,-233.633 239.355,-236.621 234.073,-241.529 227.51,-238.541"/>
<text text-anchor="start" x="54" y="-352" font-family="Helvetica,sans-Serif" font-size="10.00"> &#45;total_put_wait_time</text>
<text text-anchor="middle" x="99.5" y="-341" font-family="Helvetica,sans-Serif" font-size="10.00">_</text>
<text text-anchor="start" x="54" y="-330" font-family="Helvetica,sans-Serif" font-size="10.00">&#45;total_get_wait</text>
<text text-anchor="middle" x="99.5" y="-319" font-family="Helvetica,sans-Serif" font-size="10.00">_time_</text>
</g>
<!-- Node4 -->
<g id="node4" class="node"><title>Node4</title>
<polygon fill="white" stroke="#bfbfbf" points="113,-378.5 113,-435.5 157,-435.5 157,-378.5 113,-378.5"/>
<text text-anchor="middle" x="135" y="-423.5" font-family="Helvetica,sans-Serif" font-size="10.00">mutex</text>
<polyline fill="none" stroke="#bfbfbf" points="113,-416.5 157,-416.5 "/>
<text text-anchor="middle" x="135" y="-404.5" font-family="Helvetica,sans-Serif" font-size="10.00"> </text>
<polyline fill="none" stroke="#bfbfbf" points="113,-397.5 157,-397.5 "/>
<text text-anchor="middle" x="135" y="-385.5" font-family="Helvetica,sans-Serif" font-size="10.00"> </text>
</g>
<!-- Node4&#45;&gt;Node2 -->
<g id="edge3" class="edge"><title>Node4&#45;&gt;Node2</title>
<path fill="none" stroke="#404040" d="M141.826,-378.194C147.534,-359.174 157.167,-334.205 172,-316 187.613,-296.837 208.671,-280.318 229.098,-267.072"/>
<polygon fill="none" stroke="#404040" points="229.197,-267.01 232.16,-260.436 239.368,-260.642 236.405,-267.217 229.197,-267.01"/>
<text text-anchor="middle" x="187" y="-335.5" font-family="Helvetica,sans-Serif" font-size="10.00"> &#45;lock_</text>
</g>
<!-- Node5 -->
<g id="node5" class="node"><title>Node5</title>
<g id="a_node5"><a xlink:href="classconst_01int.html" target="_top" xlink:title="{const int\n||}">
<polygon fill="white" stroke="black" points="175,-378.5 175,-435.5 229,-435.5 229,-378.5 175,-378.5"/>
<text text-anchor="middle" x="202" y="-423.5" font-family="Helvetica,sans-Serif" font-size="10.00">const int</text>
<polyline fill="none" stroke="black" points="175,-416.5 229,-416.5 "/>
<text text-anchor="middle" x="202" y="-404.5" font-family="Helvetica,sans-Serif" font-size="10.00"> </text>
<polyline fill="none" stroke="black" points="175,-397.5 229,-397.5 "/>
<text text-anchor="middle" x="202" y="-385.5" font-family="Helvetica,sans-Serif" font-size="10.00"> </text>
</a>
</g>
</g>
<!-- Node5&#45;&gt;Node2 -->
<g id="edge4" class="edge"><title>Node5&#45;&gt;Node2</title>
<path fill="none" stroke="#404040" d="M202.831,-378.332C204.344,-359.838 208.24,-335.428 218,-316 221.728,-308.578 226.313,-301.354 231.385,-294.455"/>
<polygon fill="none" stroke="#404040" points="231.714,-294.036 232.27,-286.846 239.121,-284.594 238.565,-291.784 231.714,-294.036"/>
<text text-anchor="middle" x="256" y="-335.5" font-family="Helvetica,sans-Serif" font-size="10.00"> &#45;max_elements_</text>
</g>
<!-- Node6 -->
<g id="node6" class="node"><title>Node6</title>
<polygon fill="white" stroke="#bfbfbf" points="250.5,-378.5 250.5,-435.5 345.5,-435.5 345.5,-378.5 250.5,-378.5"/>
<text text-anchor="middle" x="298" y="-423.5" font-family="Helvetica,sans-Serif" font-size="10.00">condition_variable</text>
<polyline fill="none" stroke="#bfbfbf" points="250.5,-416.5 345.5,-416.5 "/>
<text text-anchor="middle" x="298" y="-404.5" font-family="Helvetica,sans-Serif" font-size="10.00"> </text>
<polyline fill="none" stroke="#bfbfbf" points="250.5,-397.5 345.5,-397.5 "/>
<text text-anchor="middle" x="298" y="-385.5" font-family="Helvetica,sans-Serif" font-size="10.00"> </text>
</g>
<!-- Node6&#45;&gt;Node2 -->
<g id="edge5" class="edge"><title>Node6&#45;&gt;Node2</title>
<path fill="none" stroke="#404040" d="M298,-378.271C298,-359.552 298,-333.844 298,-309.141"/>
<polygon fill="none" stroke="#404040" points="298,-309.131 294,-303.131 298,-297.131 302,-303.131 298,-309.131"/>
<text text-anchor="middle" x="318.5" y="-341" font-family="Helvetica,sans-Serif" font-size="10.00"> &#45;get_cv_</text>
<text text-anchor="middle" x="318.5" y="-330" font-family="Helvetica,sans-Serif" font-size="10.00">&#45;put_cv_</text>
</g>
<!-- Node7 -->
<g id="node7" class="node"><title>Node7</title>
<g id="a_node7"><a xlink:href="classbool.html" target="_top" xlink:title="{bool\n||}">
<polygon fill="white" stroke="black" points="381.5,-378.5 381.5,-435.5 416.5,-435.5 416.5,-378.5 381.5,-378.5"/>
<text text-anchor="middle" x="399" y="-423.5" font-family="Helvetica,sans-Serif" font-size="10.00">bool</text>
<polyline fill="none" stroke="black" points="381.5,-416.5 416.5,-416.5 "/>
<text text-anchor="middle" x="399" y="-404.5" font-family="Helvetica,sans-Serif" font-size="10.00"> </text>
<polyline fill="none" stroke="black" points="381.5,-397.5 416.5,-397.5 "/>
<text text-anchor="middle" x="399" y="-385.5" font-family="Helvetica,sans-Serif" font-size="10.00"> </text>
</a>
</g>
</g>
<!-- Node7&#45;&gt;Node2 -->
<g id="edge6" class="edge"><title>Node7&#45;&gt;Node2</title>
<path fill="none" stroke="#404040" d="M381.262,-388.233C373.759,-380.091 365.313,-370.032 359,-360 347.655,-341.972 348.943,-335.333 340,-316 338.805,-313.416 337.579,-310.793 336.333,-308.148"/>
<polygon fill="none" stroke="#404040" points="336.277,-308.031 330.086,-304.334 331.118,-297.197 337.309,-300.894 336.277,-308.031"/>
<text text-anchor="middle" x="386" y="-335.5" font-family="Helvetica,sans-Serif" font-size="10.00"> &#45;shutdown_</text>
</g>
<!-- Node9 -->
<g id="node9" class="node"><title>Node9</title>
<g id="a_node9"><a xlink:href="classimpala_1_1SpinLock.html" target="_top" xlink:title="Lightweight spinlock. ">
<polygon fill="white" stroke="black" points="389.5,-174 389.5,-286 488.5,-286 488.5,-174 389.5,-174"/>
<text text-anchor="middle" x="439" y="-274" font-family="Helvetica,sans-Serif" font-size="10.00">impala::SpinLock</text>
<polyline fill="none" stroke="black" points="389.5,-267 488.5,-267 "/>
<text text-anchor="middle" x="439" y="-255" font-family="Helvetica,sans-Serif" font-size="10.00"> </text>
<polyline fill="none" stroke="black" points="389.5,-248 488.5,-248 "/>
<text text-anchor="start" x="397.5" y="-236" font-family="Helvetica,sans-Serif" font-size="10.00">+ SpinLock()</text>
<text text-anchor="start" x="397.5" y="-225" font-family="Helvetica,sans-Serif" font-size="10.00">+ lock()</text>
<text text-anchor="start" x="397.5" y="-214" font-family="Helvetica,sans-Serif" font-size="10.00">+ unlock()</text>
<text text-anchor="start" x="397.5" y="-203" font-family="Helvetica,sans-Serif" font-size="10.00">+ try_lock()</text>
<text text-anchor="start" x="397.5" y="-192" font-family="Helvetica,sans-Serif" font-size="10.00">+ DCheckLocked()</text>
<text text-anchor="start" x="397.5" y="-181" font-family="Helvetica,sans-Serif" font-size="10.00">&#45; SlowAcquire()</text>
</a>
</g>
</g>
<!-- Node7&#45;&gt;Node9 -->
<g id="edge10" class="edge"><title>Node7&#45;&gt;Node9</title>
<path fill="none" stroke="#404040" d="M410.968,-378.089C413.201,-372.191 415.347,-365.949 417,-360 422.515,-340.147 426.883,-318.171 430.225,-298.067"/>
<polygon fill="none" stroke="#404040" points="430.235,-298.004 427.23,-291.449 432.125,-286.154 435.13,-292.709 430.235,-298.004"/>
<text text-anchor="middle" x="447" y="-335.5" font-family="Helvetica,sans-Serif" font-size="10.00"> &#45;locked_</text>
</g>
<!-- Node8 -->
<g id="node8" class="node"><title>Node8</title>
<g id="a_node8"><a xlink:href="classstd_1_1list_3_01RowBatch_01_5_01_4.html" target="_top" xlink:title="{list\&lt; RowBatch * \&gt;\n||}">
<polygon fill="white" stroke="black" points="452,-378.5 452,-435.5 552,-435.5 552,-378.5 452,-378.5"/>
<text text-anchor="middle" x="502" y="-423.5" font-family="Helvetica,sans-Serif" font-size="10.00">list&lt; RowBatch * &gt;</text>
<polyline fill="none" stroke="black" points="452,-416.5 552,-416.5 "/>
<text text-anchor="middle" x="502" y="-404.5" font-family="Helvetica,sans-Serif" font-size="10.00"> </text>
<polyline fill="none" stroke="black" points="452,-397.5 552,-397.5 "/>
<text text-anchor="middle" x="502" y="-385.5" font-family="Helvetica,sans-Serif" font-size="10.00"> </text>
</a>
</g>
</g>
<!-- Node8&#45;&gt;Node2 -->
<g id="edge7" class="edge"><title>Node8&#45;&gt;Node2</title>
<path fill="none" stroke="#404040" d="M499.69,-378.375C496.502,-358.163 488.935,-331.641 471,-316 439.928,-288.902 417.298,-315.567 380,-298 375.634,-295.944 371.302,-293.605 367.041,-291.063"/>
<polygon fill="none" stroke="#404040" points="366.719,-290.856 359.509,-290.979 356.622,-284.37 363.832,-284.247 366.719,-290.856"/>
<text text-anchor="middle" x="508.5" y="-335.5" font-family="Helvetica,sans-Serif" font-size="10.00"> &#45;list_</text>
</g>
<!-- Node9&#45;&gt;Node1 -->
<g id="edge8" class="edge"><title>Node9&#45;&gt;Node1</title>
<path fill="none" stroke="#404040" d="M439,-173.953C439,-158.471 439,-141.455 439,-125.342"/>
<polygon fill="none" stroke="#404040" points="439,-125.237 435,-119.237 439,-113.237 443,-119.237 439,-125.237"/>
<text text-anchor="middle" x="454" y="-135.5" font-family="Helvetica,sans-Serif" font-size="10.00"> &#45;lock_</text>
</g>
<!-- Node10 -->
<g id="node10" class="node"><title>Node10</title>
<polygon fill="white" stroke="#bfbfbf" points="570.5,-378.5 570.5,-435.5 599.5,-435.5 599.5,-378.5 570.5,-378.5"/>
<text text-anchor="middle" x="585" y="-423.5" font-family="Helvetica,sans-Serif" font-size="10.00">int</text>
<polyline fill="none" stroke="#bfbfbf" points="570.5,-416.5 599.5,-416.5 "/>
<text text-anchor="middle" x="585" y="-404.5" font-family="Helvetica,sans-Serif" font-size="10.00"> </text>
<polyline fill="none" stroke="#bfbfbf" points="570.5,-397.5 599.5,-397.5 "/>
<text text-anchor="middle" x="585" y="-385.5" font-family="Helvetica,sans-Serif" font-size="10.00"> </text>
</g>
<!-- Node10&#45;&gt;Node9 -->
<g id="edge9" class="edge"><title>Node10&#45;&gt;Node9</title>
<path fill="none" stroke="#404040" d="M573.123,-378.19C563.83,-358.925 549.405,-333.664 531,-316 518.947,-304.432 511.053,-308.428 498,-298 496.562,-296.851 495.131,-295.665 493.708,-294.447"/>
<polygon fill="none" stroke="#404040" points="493.335,-294.106 486.207,-293.012 484.476,-286.012 491.603,-287.106 493.335,-294.106"/>
<text text-anchor="middle" x="616.5" y="-335.5" font-family="Helvetica,sans-Serif" font-size="10.00"> &#45;NUM_SPIN_CYCLES</text>
</g>
<!-- Node11 -->
<g id="node11" class="node"><title>Node11</title>
<polygon fill="white" stroke="#bfbfbf" points="507,-201.5 507,-258.5 641,-258.5 641,-201.5 507,-201.5"/>
<text text-anchor="middle" x="574" y="-246.5" font-family="Helvetica,sans-Serif" font-size="10.00">list&lt; impala::RowBatch * &gt;</text>
<polyline fill="none" stroke="#bfbfbf" points="507,-239.5 641,-239.5 "/>
<text text-anchor="middle" x="574" y="-227.5" font-family="Helvetica,sans-Serif" font-size="10.00"> </text>
<polyline fill="none" stroke="#bfbfbf" points="507,-220.5 641,-220.5 "/>
<text text-anchor="middle" x="574" y="-208.5" font-family="Helvetica,sans-Serif" font-size="10.00"> </text>
</g>
<!-- Node11&#45;&gt;Node1 -->
<g id="edge11" class="edge"><title>Node11&#45;&gt;Node1</title>
<path fill="none" stroke="#404040" d="M552.009,-201.145C535.234,-179.896 511.439,-149.756 490.007,-122.609"/>
<polygon fill="none" stroke="#404040" points="489.976,-122.569 483.118,-120.339 482.54,-113.151 489.398,-115.382 489.976,-122.569"/>
<text text-anchor="middle" x="545.5" y="-135.5" font-family="Helvetica,sans-Serif" font-size="10.00"> &#45;cleanup_queue_</text>
</g>
</g>
</svg>
        <g id="navigator" transform="translate(0 0)" fill="#404254">
                <rect fill="#f2f5e9" fill-opacity="0.5" stroke="#606060" stroke-width=".5" x="0" y="0" width="60" height="60"/>
                <use id="zoomplus" xlink:href="#zoomPlus" x="17" y="9" onmousedown="handleZoom(evt,'in')"/>
                <use id="zoomminus" xlink:href="#zoomMin" x="42" y="9" onmousedown="handleZoom(evt,'out')"/>
                <use id="reset" xlink:href="#resetDef" x="30" y="36" onmousedown="handleReset()"/>
                <g id="arrowUp" xlink:href="#dirArrow" transform="translate(30 24)" onmousedown="handlePan(0,-1)">
                  <use xlink:href="#rim" fill="#404040">
                        <set attributeName="fill" to="#808080" begin="arrowUp.mouseover" end="arrowUp.mouseout"/>
                  </use>
                  <path fill="none" stroke="white" stroke-width="1.5" d="M0,-3.0v7 M-2.5,-0.5L0,-3.0L2.5,-0.5"/>
                </g>
                <g id="arrowRight" xlink:href="#dirArrow" transform="rotate(90) translate(36 -43)" onmousedown="handlePan(1,0)">
                  <use xlink:href="#rim" fill="#404040">
                        <set attributeName="fill" to="#808080" begin="arrowRight.mouseover" end="arrowRight.mouseout"/>
                  </use>
                  <path fill="none" stroke="white" stroke-width="1.5" d="M0,-3.0v7 M-2.5,-0.5L0,-3.0L2.5,-0.5"/>
                </g>
                <g id="arrowDown" xlink:href="#dirArrow" transform="rotate(180) translate(-30 -48)" onmousedown="handlePan(0,1)">
                  <use xlink:href="#rim" fill="#404040">
                        <set attributeName="fill" to="#808080" begin="arrowDown.mouseover" end="arrowDown.mouseout"/>
                  </use>
                  <path fill="none" stroke="white" stroke-width="1.5" d="M0,-3.0v7 M-2.5,-0.5L0,-3.0L2.5,-0.5"/>
                </g>
                <g id="arrowLeft" xlink:href="#dirArrow" transform="rotate(270) translate(-36 17)" onmousedown="handlePan(-1,0)">
                  <use xlink:href="#rim" fill="#404040">
                        <set attributeName="fill" to="#808080" begin="arrowLeft.mouseover" end="arrowLeft.mouseout"/>
                  </use>
                  <path fill="none" stroke="white" stroke-width="1.5" d="M0,-3.0v7 M-2.5,-0.5L0,-3.0L2.5,-0.5"/>
                </g>
        </g>
        <svg viewBox="0 0 15 15" width="100%" height="30px" preserveAspectRatio="xMaxYMin meet">
         <g id="arrow_out" transform="scale(0.3 0.3)">
          <a xlink:href="classimpala_1_1ExecNode_1_1RowBatchQueue__coll__graph_org.svg" target="_base">
           <rect id="button" ry="5" rx="5" y="6" x="6" height="38" width="38"
                fill="#f2f5e9" fill-opacity="0.5" stroke="#606060" stroke-width="1.0"/>
           <path id="arrow"
             d="M 11.500037,31.436501 C 11.940474,20.09759 22.043105,11.32322 32.158766,21.979434 L 37.068811,17.246167 C 37.068811,17.246167 37.088388,32 37.088388,32 L 22.160133,31.978069 C 22.160133,31.978069 26.997745,27.140456 26.997745,27.140456 C 18.528582,18.264221 13.291696,25.230495 11.500037,31.436501 z"
             style="fill:#404040;"/>
          </a>
         </g>
        </svg>
</svg>
