<?xml version="1.0" encoding="UTF-8" standalone="no"?>
<!DOCTYPE svg PUBLIC "-//W3C//DTD SVG 1.1//EN"
 "http://www.w3.org/Graphics/SVG/1.1/DTD/svg11.dtd">
<!-- Generated by graphviz version 2.36.0 (20140111.2315)
 -->
<!-- Title: impala::DiskIoMgrTest Pages: 1 -->
<svg width="424pt" height="272pt"
 viewBox="0.00 0.00 424.00 272.00" xmlns="http://www.w3.org/2000/svg" xmlns:xlink="http://www.w3.org/1999/xlink">
<g id="graph0" class="graph" transform="scale(1 1) rotate(0) translate(4 268)">
<title>impala::DiskIoMgrTest</title>
<polygon fill="white" stroke="none" points="-4,4 -4,-268 420,-268 420,4 -4,4"/>
<!-- Node1 -->
<g id="node1" class="node"><title>Node1</title>
<polygon fill="#bfbfbf" stroke="black" points="106.5,-0.5 106.5,-145.5 243.5,-145.5 243.5,-0.5 106.5,-0.5"/>
<text text-anchor="middle" x="175" y="-133.5" font-family="Helvetica,sans-Serif" font-size="10.00">impala::DiskIoMgrTest</text>
<polyline fill="none" stroke="black" points="106.5,-126.5 243.5,-126.5 "/>
<text text-anchor="middle" x="175" y="-114.5" font-family="Helvetica,sans-Serif" font-size="10.00"> </text>
<polyline fill="none" stroke="black" points="106.5,-107.5 243.5,-107.5 "/>
<text text-anchor="start" x="114.5" y="-95.5" font-family="Helvetica,sans-Serif" font-size="10.00">+ WriteValidateCallback()</text>
<text text-anchor="start" x="114.5" y="-84.5" font-family="Helvetica,sans-Serif" font-size="10.00">+ WriteCompleteCallback()</text>
<text text-anchor="start" x="114.5" y="-73.5" font-family="Helvetica,sans-Serif" font-size="10.00"># CreateTempFile()</text>
<text text-anchor="start" x="114.5" y="-62.5" font-family="Helvetica,sans-Serif" font-size="10.00"># CreateTempFile()</text>
<text text-anchor="start" x="114.5" y="-51.5" font-family="Helvetica,sans-Serif" font-size="10.00"># InitRange()</text>
<text text-anchor="start" x="114.5" y="-40.5" font-family="Helvetica,sans-Serif" font-size="10.00"># ValidateEmptyOrCorrect()</text>
<text text-anchor="start" x="114.5" y="-29.5" font-family="Helvetica,sans-Serif" font-size="10.00"># ValidateSyncRead()</text>
<text text-anchor="start" x="114.5" y="-18.5" font-family="Helvetica,sans-Serif" font-size="10.00"># ValidateScanRange()</text>
<text text-anchor="start" x="114.5" y="-7.5" font-family="Helvetica,sans-Serif" font-size="10.00"># ScanRangeThread()</text>
</g>
<!-- Node2 -->
<g id="node2" class="node"><title>Node2</title>
<polygon fill="white" stroke="#bfbfbf" points="0,-200.5 0,-257.5 36,-257.5 36,-200.5 0,-200.5"/>
<text text-anchor="middle" x="18" y="-245.5" font-family="Helvetica,sans-Serif" font-size="10.00">Test</text>
<polyline fill="none" stroke="#bfbfbf" points="0,-238.5 36,-238.5 "/>
<text text-anchor="middle" x="18" y="-226.5" font-family="Helvetica,sans-Serif" font-size="10.00"> </text>
<polyline fill="none" stroke="#bfbfbf" points="0,-219.5 36,-219.5 "/>
<text text-anchor="middle" x="18" y="-207.5" font-family="Helvetica,sans-Serif" font-size="10.00"> </text>
</g>
<!-- Node2&#45;&gt;Node1 -->
<g id="edge1" class="edge"><title>Node2&#45;&gt;Node1</title>
<path fill="none" stroke="midnightblue" d="M42.7647,-196.453C43.5104,-195.62 44.2564,-194.801 45,-194 64.0166,-173.516 85.9401,-152.432 106.301,-133.762"/>
<polygon fill="none" stroke="midnightblue" points="39.9805,-194.324 36.1323,-204.195 45.2964,-198.878 39.9805,-194.324"/>
</g>
<!-- Node3 -->
<g id="node3" class="node"><title>Node3</title>
<polygon fill="white" stroke="#bfbfbf" points="54,-200.5 54,-257.5 98,-257.5 98,-200.5 54,-200.5"/>
<text text-anchor="middle" x="76" y="-245.5" font-family="Helvetica,sans-Serif" font-size="10.00">mutex</text>
<polyline fill="none" stroke="#bfbfbf" points="54,-238.5 98,-238.5 "/>
<text text-anchor="middle" x="76" y="-226.5" font-family="Helvetica,sans-Serif" font-size="10.00"> </text>
<polyline fill="none" stroke="#bfbfbf" points="54,-219.5 98,-219.5 "/>
<text text-anchor="middle" x="76" y="-207.5" font-family="Helvetica,sans-Serif" font-size="10.00"> </text>
</g>
<!-- Node3&#45;&gt;Node1 -->
<g id="edge2" class="edge"><title>Node3&#45;&gt;Node1</title>
<path fill="none" stroke="#404040" d="M79.7725,-200.43C82.1513,-188.705 85.9613,-175.187 92,-164 94.2638,-159.806 96.7677,-155.657 99.4524,-151.576"/>
<polygon fill="none" stroke="#404040" points="99.5696,-151.409 99.7429,-144.2 106.464,-141.587 106.291,-148.796 99.5696,-151.409"/>
<text text-anchor="middle" x="130" y="-167.5" font-family="Helvetica,sans-Serif" font-size="10.00"> #written_mutex_</text>
</g>
<!-- Node4 -->
<g id="node4" class="node"><title>Node4</title>
<polygon fill="white" stroke="#bfbfbf" points="120,-195 120,-263 222,-263 222,-195 120,-195"/>
<text text-anchor="start" x="128" y="-251" font-family="Helvetica,sans-Serif" font-size="10.00">scoped_ptr&lt; impala</text>
<text text-anchor="middle" x="171" y="-240" font-family="Helvetica,sans-Serif" font-size="10.00">::ObjectPool &gt;</text>
<polyline fill="none" stroke="#bfbfbf" points="120,-233 222,-233 "/>
<text text-anchor="middle" x="171" y="-221" font-family="Helvetica,sans-Serif" font-size="10.00"> </text>
<polyline fill="none" stroke="#bfbfbf" points="120,-214 222,-214 "/>
<text text-anchor="middle" x="171" y="-202" font-family="Helvetica,sans-Serif" font-size="10.00"> </text>
</g>
<!-- Node4&#45;&gt;Node1 -->
<g id="edge3" class="edge"><title>Node4&#45;&gt;Node1</title>
<path fill="none" stroke="#404040" d="M171.858,-194.963C172.146,-183.866 172.482,-170.937 172.825,-157.741"/>
<polygon fill="none" stroke="#404040" points="172.829,-157.589 168.986,-151.488 173.14,-145.593 176.983,-151.695 172.829,-157.589"/>
<text text-anchor="middle" x="188" y="-167.5" font-family="Helvetica,sans-Serif" font-size="10.00"> #pool_</text>
</g>
<!-- Node5 -->
<g id="node5" class="node"><title>Node5</title>
<polygon fill="white" stroke="#bfbfbf" points="239.5,-200.5 239.5,-257.5 268.5,-257.5 268.5,-200.5 239.5,-200.5"/>
<text text-anchor="middle" x="254" y="-245.5" font-family="Helvetica,sans-Serif" font-size="10.00">int</text>
<polyline fill="none" stroke="#bfbfbf" points="239.5,-238.5 268.5,-238.5 "/>
<text text-anchor="middle" x="254" y="-226.5" font-family="Helvetica,sans-Serif" font-size="10.00"> </text>
<polyline fill="none" stroke="#bfbfbf" points="239.5,-219.5 268.5,-219.5 "/>
<text text-anchor="middle" x="254" y="-207.5" font-family="Helvetica,sans-Serif" font-size="10.00"> </text>
</g>
<!-- Node5&#45;&gt;Node1 -->
<g id="edge4" class="edge"><title>Node5&#45;&gt;Node1</title>
<path fill="none" stroke="#404040" d="M239.876,-200.468C233.458,-187.956 225.489,-172.421 217.358,-156.57"/>
<polygon fill="none" stroke="#404040" points="217.197,-156.256 210.899,-152.744 211.719,-145.579 218.017,-149.092 217.197,-156.256"/>
<text text-anchor="middle" x="277" y="-167.5" font-family="Helvetica,sans-Serif" font-size="10.00"> #num_ranges_written_</text>
</g>
<!-- Node6 -->
<g id="node6" class="node"><title>Node6</title>
<polygon fill="white" stroke="#bfbfbf" points="321.5,-200.5 321.5,-257.5 416.5,-257.5 416.5,-200.5 321.5,-200.5"/>
<text text-anchor="middle" x="369" y="-245.5" font-family="Helvetica,sans-Serif" font-size="10.00">condition_variable</text>
<polyline fill="none" stroke="#bfbfbf" points="321.5,-238.5 416.5,-238.5 "/>
<text text-anchor="middle" x="369" y="-226.5" font-family="Helvetica,sans-Serif" font-size="10.00"> </text>
<polyline fill="none" stroke="#bfbfbf" points="321.5,-219.5 416.5,-219.5 "/>
<text text-anchor="middle" x="369" y="-207.5" font-family="Helvetica,sans-Serif" font-size="10.00"> </text>
</g>
<!-- Node6&#45;&gt;Node1 -->
<g id="edge5" class="edge"><title>Node6&#45;&gt;Node1</title>
<path fill="none" stroke="#404040" d="M357.044,-200.303C350.836,-188.148 342.365,-174.327 332,-164 309.896,-141.977 281.312,-123.495 254.604,-109.123"/>
<polygon fill="none" stroke="#404040" points="254.327,-108.978 247.157,-109.743 243.693,-103.418 250.864,-102.653 254.327,-108.978"/>
<text text-anchor="middle" x="374.5" y="-167.5" font-family="Helvetica,sans-Serif" font-size="10.00"> #writes_done_</text>
</g>
</g>
</svg>
