<?xml version="1.0" encoding="UTF-8" standalone="no"?>
<!DOCTYPE svg PUBLIC "-//W3C//DTD SVG 1.1//EN"
 "http://www.w3.org/Graphics/SVG/1.1/DTD/svg11.dtd">
<!-- Generated by graphviz version 2.36.0 (20140111.2315)
 -->
<!-- Title: impala::HBaseTableFactory Pages: 1 -->
<svg width="287pt" height="204pt"
 viewBox="0.00 0.00 287.00 204.00" xmlns="http://www.w3.org/2000/svg" xmlns:xlink="http://www.w3.org/1999/xlink">
<g id="graph0" class="graph" transform="scale(1 1) rotate(0) translate(4 200)">
<title>impala::HBaseTableFactory</title>
<polygon fill="white" stroke="none" points="-4,4 -4,-200 283,-200 283,4 -4,4"/>
<!-- Node1 -->
<g id="node1" class="node"><title>Node1</title>
<polygon fill="#bfbfbf" stroke="black" points="25,-0.5 25,-79.5 163,-79.5 163,-0.5 25,-0.5"/>
<text text-anchor="middle" x="94" y="-67.5" font-family="Helvetica,sans-Serif" font-size="10.00">impala::HBaseTableFactory</text>
<polyline fill="none" stroke="black" points="25,-60.5 163,-60.5 "/>
<text text-anchor="middle" x="94" y="-48.5" font-family="Helvetica,sans-Serif" font-size="10.00"> </text>
<polyline fill="none" stroke="black" points="25,-41.5 163,-41.5 "/>
<text text-anchor="start" x="33" y="-29.5" font-family="Helvetica,sans-Serif" font-size="10.00">+ ~HBaseTableFactory()</text>
<text text-anchor="start" x="33" y="-18.5" font-family="Helvetica,sans-Serif" font-size="10.00">+ GetTable()</text>
<text text-anchor="start" x="33" y="-7.5" font-family="Helvetica,sans-Serif" font-size="10.00">+ Init()</text>
</g>
<!-- Node2 -->
<g id="node2" class="node"><title>Node2</title>
<polygon fill="white" stroke="#bfbfbf" points="-0.5,-138.5 -0.5,-195.5 44.5,-195.5 44.5,-138.5 -0.5,-138.5"/>
<text text-anchor="middle" x="22" y="-183.5" font-family="Helvetica,sans-Serif" font-size="10.00">jobject</text>
<polyline fill="none" stroke="#bfbfbf" points="-0.5,-176.5 44.5,-176.5 "/>
<text text-anchor="middle" x="22" y="-164.5" font-family="Helvetica,sans-Serif" font-size="10.00"> </text>
<polyline fill="none" stroke="#bfbfbf" points="-0.5,-157.5 44.5,-157.5 "/>
<text text-anchor="middle" x="22" y="-145.5" font-family="Helvetica,sans-Serif" font-size="10.00"> </text>
</g>
<!-- Node2&#45;&gt;Node1 -->
<g id="edge1" class="edge"><title>Node2&#45;&gt;Node1</title>
<path fill="none" stroke="#404040" d="M26.5957,-138.362C29.4965,-125.529 34.0492,-110.404 41,-98 42.672,-95.0161 44.5316,-92.0651 46.5252,-89.1695"/>
<polygon fill="none" stroke="#404040" points="46.5305,-89.1624 46.9394,-81.9629 53.7424,-79.5713 53.3334,-86.7709 46.5305,-89.1624"/>
<text text-anchor="middle" x="65.5" y="-112" font-family="Helvetica,sans-Serif" font-size="10.00"> &#45;executor_</text>
<text text-anchor="middle" x="65.5" y="-101" font-family="Helvetica,sans-Serif" font-size="10.00">&#45;conf_</text>
</g>
<!-- Node3 -->
<g id="node3" class="node"><title>Node3</title>
<polygon fill="white" stroke="#bfbfbf" points="63,-138.5 63,-195.5 125,-195.5 125,-138.5 63,-138.5"/>
<text text-anchor="middle" x="94" y="-183.5" font-family="Helvetica,sans-Serif" font-size="10.00">jmethodID</text>
<polyline fill="none" stroke="#bfbfbf" points="63,-176.5 125,-176.5 "/>
<text text-anchor="middle" x="94" y="-164.5" font-family="Helvetica,sans-Serif" font-size="10.00"> </text>
<polyline fill="none" stroke="#bfbfbf" points="63,-157.5 125,-157.5 "/>
<text text-anchor="middle" x="94" y="-145.5" font-family="Helvetica,sans-Serif" font-size="10.00"> </text>
</g>
<!-- Node3&#45;&gt;Node1 -->
<g id="edge2" class="edge"><title>Node3&#45;&gt;Node1</title>
<path fill="none" stroke="#404040" d="M94,-138.258C94,-124.637 94,-107.787 94,-91.9595"/>
<polygon fill="none" stroke="#404040" points="94.0001,-91.5667 90,-85.5668 94,-79.5667 98,-85.5667 94.0001,-91.5667"/>
<text text-anchor="middle" x="148.5" y="-106.5" font-family="Helvetica,sans-Serif" font-size="10.00"> &#45;executor_shutdown_id_</text>
</g>
<!-- Node4 -->
<g id="node4" class="node"><title>Node4</title>
<polygon fill="white" stroke="#bfbfbf" points="205,-138.5 205,-195.5 247,-195.5 247,-138.5 205,-138.5"/>
<text text-anchor="middle" x="226" y="-183.5" font-family="Helvetica,sans-Serif" font-size="10.00">jclass</text>
<polyline fill="none" stroke="#bfbfbf" points="205,-176.5 247,-176.5 "/>
<text text-anchor="middle" x="226" y="-164.5" font-family="Helvetica,sans-Serif" font-size="10.00"> </text>
<polyline fill="none" stroke="#bfbfbf" points="205,-157.5 247,-157.5 "/>
<text text-anchor="middle" x="226" y="-145.5" font-family="Helvetica,sans-Serif" font-size="10.00"> </text>
</g>
<!-- Node4&#45;&gt;Node1 -->
<g id="edge3" class="edge"><title>Node4&#45;&gt;Node1</title>
<path fill="none" stroke="#404040" d="M222.119,-138.436C219.06,-125.013 213.624,-109.361 204,-98 195.538,-88.0105 184.881,-79.549 173.552,-72.4536"/>
<polygon fill="none" stroke="#404040" points="173.375,-72.3507 166.178,-72.7913 163.003,-66.3168 170.2,-65.8762 173.375,-72.3507"/>
<text text-anchor="middle" x="248" y="-106.5" font-family="Helvetica,sans-Serif" font-size="10.00"> &#45;executor_cl_</text>
</g>
</g>
</svg>
