<?xml version="1.0" encoding="UTF-8" standalone="no"?>
<!DOCTYPE svg PUBLIC "-//W3C//DTD SVG 1.1//EN"
 "http://www.w3.org/Graphics/SVG/1.1/DTD/svg11.dtd">
<!-- Generated by graphviz version 2.36.0 (20140111.2315)
 -->
<!-- Title: com.cloudera.impala.catalog.HdfsCachePool Pages: 1 -->
<svg width="357pt" height="328pt"
 viewBox="0.00 0.00 357.00 328.00" xmlns="http://www.w3.org/2000/svg" xmlns:xlink="http://www.w3.org/1999/xlink">
<g id="graph0" class="graph" transform="scale(1 1) rotate(0) translate(4 324)">
<title>com.cloudera.impala.catalog.HdfsCachePool</title>
<polygon fill="white" stroke="none" points="-4,4 -4,-324 353,-324 353,4 -4,4"/>
<!-- Node1 -->
<g id="node1" class="node"><title>Node1</title>
<polygon fill="#bfbfbf" stroke="black" points="136,-1 136,-157 280,-157 280,-1 136,-1"/>
<text text-anchor="start" x="144" y="-145" font-family="Helvetica,sans-Serif" font-size="10.00">com.cloudera.impala.catalog.</text>
<text text-anchor="middle" x="208" y="-134" font-family="Helvetica,sans-Serif" font-size="10.00">HdfsCachePool</text>
<polyline fill="none" stroke="black" points="136,-127 280,-127 "/>
<text text-anchor="middle" x="208" y="-115" font-family="Helvetica,sans-Serif" font-size="10.00"> </text>
<polyline fill="none" stroke="black" points="136,-108 280,-108 "/>
<text text-anchor="start" x="144" y="-96" font-family="Helvetica,sans-Serif" font-size="10.00">+ HdfsCachePool()</text>
<text text-anchor="start" x="144" y="-85" font-family="Helvetica,sans-Serif" font-size="10.00">+ HdfsCachePool()</text>
<text text-anchor="start" x="144" y="-74" font-family="Helvetica,sans-Serif" font-size="10.00">+ getCatalogObjectType()</text>
<text text-anchor="start" x="144" y="-63" font-family="Helvetica,sans-Serif" font-size="10.00">+ toThrift()</text>
<text text-anchor="start" x="144" y="-52" font-family="Helvetica,sans-Serif" font-size="10.00">+ getName()</text>
<text text-anchor="start" x="144" y="-41" font-family="Helvetica,sans-Serif" font-size="10.00">+ getCatalogVersion()</text>
<text text-anchor="start" x="144" y="-30" font-family="Helvetica,sans-Serif" font-size="10.00">+ setCatalogVersion()</text>
<text text-anchor="start" x="144" y="-19" font-family="Helvetica,sans-Serif" font-size="10.00">+ isLoaded()</text>
<text text-anchor="start" x="144" y="-8" font-family="Helvetica,sans-Serif" font-size="10.00">+ fromThrift()</text>
</g>
<!-- Node2 -->
<g id="node2" class="node"><title>Node2</title>
<g id="a_node2"><a xlink:href="interfacecom_1_1cloudera_1_1impala_1_1catalog_1_1CatalogObject.html" target="_top" xlink:title="{com.cloudera.impala.catalog.\lCatalogObject\n||+ getCatalogObjectType()\l+ getName()\l+ getCatalogVersion()\l+ setCatalogVersion()\l+ isLoaded()\l}">
<polygon fill="white" stroke="black" points="0,-207 0,-319 144,-319 144,-207 0,-207"/>
<text text-anchor="start" x="8" y="-307" font-family="Helvetica,sans-Serif" font-size="10.00">com.cloudera.impala.catalog.</text>
<text text-anchor="middle" x="72" y="-296" font-family="Helvetica,sans-Serif" font-size="10.00">CatalogObject</text>
<polyline fill="none" stroke="black" points="0,-289 144,-289 "/>
<text text-anchor="middle" x="72" y="-277" font-family="Helvetica,sans-Serif" font-size="10.00"> </text>
<polyline fill="none" stroke="black" points="0,-270 144,-270 "/>
<text text-anchor="start" x="8" y="-258" font-family="Helvetica,sans-Serif" font-size="10.00">+ getCatalogObjectType()</text>
<text text-anchor="start" x="8" y="-247" font-family="Helvetica,sans-Serif" font-size="10.00">+ getName()</text>
<text text-anchor="start" x="8" y="-236" font-family="Helvetica,sans-Serif" font-size="10.00">+ getCatalogVersion()</text>
<text text-anchor="start" x="8" y="-225" font-family="Helvetica,sans-Serif" font-size="10.00">+ setCatalogVersion()</text>
<text text-anchor="start" x="8" y="-214" font-family="Helvetica,sans-Serif" font-size="10.00">+ isLoaded()</text>
</a>
</g>
</g>
<!-- Node2&#45;&gt;Node1 -->
<g id="edge1" class="edge"><title>Node2&#45;&gt;Node1</title>
<path fill="none" stroke="midnightblue" d="M119.324,-198.67C129.353,-185.248 140.046,-170.938 150.408,-157.071"/>
<polygon fill="none" stroke="midnightblue" points="116.356,-196.794 113.174,-206.9 121.963,-200.985 116.356,-196.794"/>
</g>
<!-- Node3 -->
<g id="node3" class="node"><title>Node3</title>
<polygon fill="white" stroke="#bfbfbf" points="162,-234.5 162,-291.5 254,-291.5 254,-234.5 162,-234.5"/>
<text text-anchor="middle" x="208" y="-279.5" font-family="Helvetica,sans-Serif" font-size="10.00">THdfsCachePool</text>
<polyline fill="none" stroke="#bfbfbf" points="162,-272.5 254,-272.5 "/>
<text text-anchor="middle" x="208" y="-260.5" font-family="Helvetica,sans-Serif" font-size="10.00"> </text>
<polyline fill="none" stroke="#bfbfbf" points="162,-253.5 254,-253.5 "/>
<text text-anchor="middle" x="208" y="-241.5" font-family="Helvetica,sans-Serif" font-size="10.00"> </text>
</g>
<!-- Node3&#45;&gt;Node1 -->
<g id="edge2" class="edge"><title>Node3&#45;&gt;Node1</title>
<path fill="none" stroke="#404040" d="M208,-234.358C208,-216.829 208,-193.074 208,-169.457"/>
<polygon fill="none" stroke="#404040" points="208,-169.153 204,-163.153 208,-157.153 212,-163.153 208,-169.153"/>
<text text-anchor="middle" x="237" y="-179.5" font-family="Helvetica,sans-Serif" font-size="10.00"> &#45;cachePool_</text>
</g>
<!-- Node4 -->
<g id="node4" class="node"><title>Node4</title>
<polygon fill="white" stroke="#bfbfbf" points="272.5,-234.5 272.5,-291.5 307.5,-291.5 307.5,-234.5 272.5,-234.5"/>
<text text-anchor="middle" x="290" y="-279.5" font-family="Helvetica,sans-Serif" font-size="10.00">long</text>
<polyline fill="none" stroke="#bfbfbf" points="272.5,-272.5 307.5,-272.5 "/>
<text text-anchor="middle" x="290" y="-260.5" font-family="Helvetica,sans-Serif" font-size="10.00"> </text>
<polyline fill="none" stroke="#bfbfbf" points="272.5,-253.5 307.5,-253.5 "/>
<text text-anchor="middle" x="290" y="-241.5" font-family="Helvetica,sans-Serif" font-size="10.00"> </text>
</g>
<!-- Node4&#45;&gt;Node1 -->
<g id="edge3" class="edge"><title>Node4&#45;&gt;Node1</title>
<path fill="none" stroke="#404040" d="M285.151,-234.178C281.605,-216.981 276.007,-194.701 268,-176 266.874,-173.37 265.682,-170.729 264.436,-168.087"/>
<polygon fill="none" stroke="#404040" points="264.383,-167.98 258.127,-164.394 259.031,-157.24 265.287,-160.826 264.383,-167.98"/>
<text text-anchor="middle" x="311" y="-179.5" font-family="Helvetica,sans-Serif" font-size="10.00"> &#45;catalogVersion_</text>
</g>
</g>
</svg>
