<?xml version="1.0" encoding="UTF-8" standalone="no"?>
<!DOCTYPE svg PUBLIC "-//W3C//DTD SVG 1.1//EN"
 "http://www.w3.org/Graphics/SVG/1.1/DTD/svg11.dtd">
<!-- Generated by graphviz version 2.36.0 (20140111.2315)
 -->
<!-- Title: com.cloudera.impala.util.SentryProxy.PolicyReader Pages: 1 -->
<svg width="140pt" height="172pt"
 viewBox="0.00 0.00 140.00 172.00" xmlns="http://www.w3.org/2000/svg" xmlns:xlink="http://www.w3.org/1999/xlink">
<g id="graph0" class="graph" transform="scale(1 1) rotate(0) translate(4 168)">
<title>com.cloudera.impala.util.SentryProxy.PolicyReader</title>
<polygon fill="white" stroke="none" points="-4,4 -4,-168 136,-168 136,4 -4,4"/>
<!-- Node1 -->
<g id="node1" class="node"><title>Node1</title>
<polygon fill="#bfbfbf" stroke="black" points="0,-1 0,-69 132,-69 132,-1 0,-1"/>
<text text-anchor="start" x="8" y="-57" font-family="Helvetica,sans-Serif" font-size="10.00">com.cloudera.impala.util.</text>
<text text-anchor="middle" x="66" y="-46" font-family="Helvetica,sans-Serif" font-size="10.00">SentryProxy.PolicyReader</text>
<polyline fill="none" stroke="black" points="0,-39 132,-39 "/>
<text text-anchor="middle" x="66" y="-27" font-family="Helvetica,sans-Serif" font-size="10.00"> </text>
<polyline fill="none" stroke="black" points="0,-20 132,-20 "/>
<text text-anchor="start" x="8" y="-8" font-family="Helvetica,sans-Serif" font-size="10.00">+ run()</text>
</g>
<!-- Node2 -->
<g id="node2" class="node"><title>Node2</title>
<g id="a_node2"><a xlink:href="classRunnable.html" target="_top" xlink:title="{Runnable\n||}">
<polygon fill="white" stroke="black" points="37,-106.5 37,-163.5 95,-163.5 95,-106.5 37,-106.5"/>
<text text-anchor="middle" x="66" y="-151.5" font-family="Helvetica,sans-Serif" font-size="10.00">Runnable</text>
<polyline fill="none" stroke="black" points="37,-144.5 95,-144.5 "/>
<text text-anchor="middle" x="66" y="-132.5" font-family="Helvetica,sans-Serif" font-size="10.00"> </text>
<polyline fill="none" stroke="black" points="37,-125.5 95,-125.5 "/>
<text text-anchor="middle" x="66" y="-113.5" font-family="Helvetica,sans-Serif" font-size="10.00"> </text>
</a>
</g>
</g>
<!-- Node2&#45;&gt;Node1 -->
<g id="edge1" class="edge"><title>Node2&#45;&gt;Node1</title>
<path fill="none" stroke="midnightblue" d="M66,-96.3023C66,-87.3951 66,-77.9608 66,-69.2659"/>
<polygon fill="none" stroke="midnightblue" points="62.5001,-96.4407 66,-106.441 69.5001,-96.4408 62.5001,-96.4407"/>
</g>
</g>
</svg>
