<?xml version="1.0" encoding="UTF-8" standalone="no"?>
<!DOCTYPE svg PUBLIC "-//W3C//DTD SVG 1.1//EN"
 "http://www.w3.org/Graphics/SVG/1.1/DTD/svg11.dtd">
<!-- Generated by graphviz version 2.36.0 (20140111.2315)
 -->
<!-- Title: impala::HdfsPartitionDescriptor Pages: 1 -->
<!--zoomable 672 -->
<svg id="main" version="1.1" xmlns="http://www.w3.org/2000/svg" xmlns:xlink="http://www.w3.org/1999/xlink" xml:space="preserve" onload="init(evt)">
<style type="text/css"><![CDATA[
.edge:hover path { stroke: red; }
.edge:hover polygon { stroke: red; fill: red; }
]]></style>
<script type="text/javascript"><![CDATA[
var edges = document.getElementsByTagName('g');
if (edges && edges.length) {
  for (var i=0;i<edges.length;i++) {
    if (edges[i].id.substr(0,4)=='edge') {
      edges[i].setAttribute('class','edge');
    }
  }
}
]]></script>
        <defs>
                <circle id="rim" cx="0" cy="0" r="7"/>
                <circle id="rim2" cx="0" cy="0" r="3.5"/>
                <g id="zoomPlus">
                        <use xlink:href="#rim" fill="#404040">
                                <set attributeName="fill" to="#808080" begin="zoomplus.mouseover" end="zoomplus.mouseout"/>
                        </use>
                        <path d="M-4,0h8M0,-4v8" fill="none" stroke="white" stroke-width="1.5" pointer-events="none"/>
                </g>
                <g id="zoomMin">
                        <use xlink:href="#rim" fill="#404040">
                                <set attributeName="fill" to="#808080" begin="zoomminus.mouseover" end="zoomminus.mouseout"/>
                        </use>
                        <path d="M-4,0h8" fill="none" stroke="white" stroke-width="1.5" pointer-events="none"/>
                </g>
                <g id="dirArrow">
                        <path fill="none" stroke="white" stroke-width="1.5" d="M0,-3.0v7 M-2.5,-0.5L0,-3.0L2.5,-0.5"/>
                </g>
               <g id="resetDef">
                       <use xlink:href="#rim2" fill="#404040">
                               <set attributeName="fill" to="#808080" begin="reset.mouseover" end="reset.mouseout"/>
                       </use>
               </g>
        </defs>

<script type="text/javascript">
var viewWidth = 784;
var viewHeight = 672;
var sectionId = 'dynsection-0';
</script>
<script xlink:href="svgpan.js"/>
<svg id="graph" class="graph">
<g id="viewport">
<title>impala::HdfsPartitionDescriptor</title>
<polygon fill="white" stroke="none" points="-4,4 -4,-668 780,-668 780,4 -4,4"/>
<!-- Node1 -->
<g id="node1" class="node"><title>Node1</title>
<polygon fill="#bfbfbf" stroke="black" points="352.5,-1 352.5,-201 505.5,-201 505.5,-1 352.5,-1"/>
<text text-anchor="middle" x="429" y="-189" font-family="Helvetica,sans-Serif" font-size="10.00">impala::HdfsPartitionDescriptor</text>
<polyline fill="none" stroke="black" points="352.5,-182 505.5,-182 "/>
<text text-anchor="middle" x="429" y="-170" font-family="Helvetica,sans-Serif" font-size="10.00"> </text>
<polyline fill="none" stroke="black" points="352.5,-163 505.5,-163 "/>
<text text-anchor="start" x="360.5" y="-151" font-family="Helvetica,sans-Serif" font-size="10.00">+ HdfsPartitionDescriptor()</text>
<text text-anchor="start" x="360.5" y="-140" font-family="Helvetica,sans-Serif" font-size="10.00">+ line_delim()</text>
<text text-anchor="start" x="360.5" y="-129" font-family="Helvetica,sans-Serif" font-size="10.00">+ field_delim()</text>
<text text-anchor="start" x="360.5" y="-118" font-family="Helvetica,sans-Serif" font-size="10.00">+ collection_delim()</text>
<text text-anchor="start" x="360.5" y="-107" font-family="Helvetica,sans-Serif" font-size="10.00">+ escape_char()</text>
<text text-anchor="start" x="360.5" y="-96" font-family="Helvetica,sans-Serif" font-size="10.00">+ file_format()</text>
<text text-anchor="start" x="360.5" y="-85" font-family="Helvetica,sans-Serif" font-size="10.00">+ partition_key_value_ctxs()</text>
<text text-anchor="start" x="360.5" y="-74" font-family="Helvetica,sans-Serif" font-size="10.00">+ block_size()</text>
<text text-anchor="start" x="360.5" y="-63" font-family="Helvetica,sans-Serif" font-size="10.00">+ location()</text>
<text text-anchor="start" x="360.5" y="-52" font-family="Helvetica,sans-Serif" font-size="10.00">+ id()</text>
<text text-anchor="start" x="360.5" y="-41" font-family="Helvetica,sans-Serif" font-size="10.00">+ PrepareExprs()</text>
<text text-anchor="start" x="360.5" y="-30" font-family="Helvetica,sans-Serif" font-size="10.00">+ OpenExprs()</text>
<text text-anchor="start" x="360.5" y="-19" font-family="Helvetica,sans-Serif" font-size="10.00">+ CloseExprs()</text>
<text text-anchor="start" x="360.5" y="-8" font-family="Helvetica,sans-Serif" font-size="10.00">+ DebugString()</text>
</g>
<!-- Node2 -->
<g id="node2" class="node"><title>Node2</title>
<polygon fill="white" stroke="#bfbfbf" points="-0.5,-305.5 -0.5,-362.5 34.5,-362.5 34.5,-305.5 -0.5,-305.5"/>
<text text-anchor="middle" x="17" y="-350.5" font-family="Helvetica,sans-Serif" font-size="10.00">char</text>
<polyline fill="none" stroke="#bfbfbf" points="-0.5,-343.5 34.5,-343.5 "/>
<text text-anchor="middle" x="17" y="-331.5" font-family="Helvetica,sans-Serif" font-size="10.00"> </text>
<polyline fill="none" stroke="#bfbfbf" points="-0.5,-324.5 34.5,-324.5 "/>
<text text-anchor="middle" x="17" y="-312.5" font-family="Helvetica,sans-Serif" font-size="10.00"> </text>
</g>
<!-- Node2&#45;&gt;Node1 -->
<g id="edge1" class="edge"><title>Node2&#45;&gt;Node1</title>
<path fill="none" stroke="#404040" d="M11.1104,-305.164C7.51497,-280.1 6.75476,-243.667 26,-220 65.5822,-171.323 234.107,-134.761 340.298,-116.026"/>
<polygon fill="none" stroke="#404040" points="340.465,-115.997 345.69,-111.028 352.287,-113.94 347.062,-118.91 340.465,-115.997"/>
<text text-anchor="middle" x="62.5" y="-267.5" font-family="Helvetica,sans-Serif" font-size="10.00"> &#45;line_delim_</text>
<text text-anchor="start" x="26" y="-256.5" font-family="Helvetica,sans-Serif" font-size="10.00">&#45;collection_delim</text>
<text text-anchor="middle" x="62.5" y="-245.5" font-family="Helvetica,sans-Serif" font-size="10.00">_</text>
<text text-anchor="middle" x="62.5" y="-234.5" font-family="Helvetica,sans-Serif" font-size="10.00">&#45;escape_char_</text>
<text text-anchor="middle" x="62.5" y="-223.5" font-family="Helvetica,sans-Serif" font-size="10.00">&#45;field_delim_</text>
</g>
<!-- Node3 -->
<g id="node3" class="node"><title>Node3</title>
<polygon fill="white" stroke="#bfbfbf" points="81,-305.5 81,-362.5 127,-362.5 127,-305.5 81,-305.5"/>
<text text-anchor="middle" x="104" y="-350.5" font-family="Helvetica,sans-Serif" font-size="10.00">int64_t</text>
<polyline fill="none" stroke="#bfbfbf" points="81,-343.5 127,-343.5 "/>
<text text-anchor="middle" x="104" y="-331.5" font-family="Helvetica,sans-Serif" font-size="10.00"> </text>
<polyline fill="none" stroke="#bfbfbf" points="81,-324.5 127,-324.5 "/>
<text text-anchor="middle" x="104" y="-312.5" font-family="Helvetica,sans-Serif" font-size="10.00"> </text>
</g>
<!-- Node3&#45;&gt;Node1 -->
<g id="edge2" class="edge"><title>Node3&#45;&gt;Node1</title>
<path fill="none" stroke="#404040" d="M101.143,-305.284C100.107,-280.303 102.617,-243.925 122,-220 175.431,-154.048 270.323,-124.902 340.51,-112.055"/>
<polygon fill="none" stroke="#404040" points="340.608,-112.038 345.835,-107.07 352.431,-109.985 347.204,-114.953 340.608,-112.038"/>
<text text-anchor="middle" x="131.5" y="-245.5" font-family="Helvetica,sans-Serif" font-size="10.00"> &#45;id_</text>
</g>
<!-- Node4 -->
<g id="node4" class="node"><title>Node4</title>
<g id="a_node4"><a xlink:href="classimpala_1_1ObjectPool.html" target="_top" xlink:title="{impala::ObjectPool\n||+ ObjectPool()\l+ ~ObjectPool()\l+ Add()\l}">
<polygon fill="white" stroke="black" points="339.5,-294.5 339.5,-373.5 438.5,-373.5 438.5,-294.5 339.5,-294.5"/>
<text text-anchor="middle" x="389" y="-361.5" font-family="Helvetica,sans-Serif" font-size="10.00">impala::ObjectPool</text>
<polyline fill="none" stroke="black" points="339.5,-354.5 438.5,-354.5 "/>
<text text-anchor="middle" x="389" y="-342.5" font-family="Helvetica,sans-Serif" font-size="10.00"> </text>
<polyline fill="none" stroke="black" points="339.5,-335.5 438.5,-335.5 "/>
<text text-anchor="start" x="347.5" y="-323.5" font-family="Helvetica,sans-Serif" font-size="10.00">+ ObjectPool()</text>
<text text-anchor="start" x="347.5" y="-312.5" font-family="Helvetica,sans-Serif" font-size="10.00">+ ~ObjectPool()</text>
<text text-anchor="start" x="347.5" y="-301.5" font-family="Helvetica,sans-Serif" font-size="10.00">+ Add()</text>
</a>
</g>
</g>
<!-- Node4&#45;&gt;Node1 -->
<g id="edge3" class="edge"><title>Node4&#45;&gt;Node1</title>
<path fill="none" stroke="#404040" d="M387.392,-294.306C387.137,-272.366 387.918,-244.488 392,-220 392.368,-217.793 392.767,-215.57 393.195,-213.336"/>
<polygon fill="none" stroke="#404040" points="393.254,-213.055 390.579,-206.359 395.732,-201.314 398.407,-208.011 393.254,-213.055"/>
<text text-anchor="middle" x="422.5" y="-245.5" font-family="Helvetica,sans-Serif" font-size="10.00"> &#45;object_pool_</text>
</g>
<!-- Node5 -->
<g id="node5" class="node"><title>Node5</title>
<g id="a_node5"><a xlink:href="classimpala_1_1SpinLock.html" target="_top" xlink:title="Lightweight spinlock. ">
<polygon fill="white" stroke="black" points="339.5,-445 339.5,-557 438.5,-557 438.5,-445 339.5,-445"/>
<text text-anchor="middle" x="389" y="-545" font-family="Helvetica,sans-Serif" font-size="10.00">impala::SpinLock</text>
<polyline fill="none" stroke="black" points="339.5,-538 438.5,-538 "/>
<text text-anchor="middle" x="389" y="-526" font-family="Helvetica,sans-Serif" font-size="10.00"> </text>
<polyline fill="none" stroke="black" points="339.5,-519 438.5,-519 "/>
<text text-anchor="start" x="347.5" y="-507" font-family="Helvetica,sans-Serif" font-size="10.00">+ SpinLock()</text>
<text text-anchor="start" x="347.5" y="-496" font-family="Helvetica,sans-Serif" font-size="10.00">+ lock()</text>
<text text-anchor="start" x="347.5" y="-485" font-family="Helvetica,sans-Serif" font-size="10.00">+ unlock()</text>
<text text-anchor="start" x="347.5" y="-474" font-family="Helvetica,sans-Serif" font-size="10.00">+ try_lock()</text>
<text text-anchor="start" x="347.5" y="-463" font-family="Helvetica,sans-Serif" font-size="10.00">+ DCheckLocked()</text>
<text text-anchor="start" x="347.5" y="-452" font-family="Helvetica,sans-Serif" font-size="10.00">&#45; SlowAcquire()</text>
</a>
</g>
</g>
<!-- Node5&#45;&gt;Node4 -->
<g id="edge4" class="edge"><title>Node5&#45;&gt;Node4</title>
<path fill="none" stroke="#404040" d="M389,-444.598C389,-425.567 389,-404.37 389,-385.728"/>
<polygon fill="none" stroke="#404040" points="389,-385.593 385,-379.593 389,-373.593 393,-379.593 389,-385.593"/>
<text text-anchor="middle" x="404" y="-406.5" font-family="Helvetica,sans-Serif" font-size="10.00"> &#45;lock_</text>
</g>
<!-- Node6 -->
<g id="node6" class="node"><title>Node6</title>
<polygon fill="white" stroke="#bfbfbf" points="181.5,-606.5 181.5,-663.5 210.5,-663.5 210.5,-606.5 181.5,-606.5"/>
<text text-anchor="middle" x="196" y="-651.5" font-family="Helvetica,sans-Serif" font-size="10.00">int</text>
<polyline fill="none" stroke="#bfbfbf" points="181.5,-644.5 210.5,-644.5 "/>
<text text-anchor="middle" x="196" y="-632.5" font-family="Helvetica,sans-Serif" font-size="10.00"> </text>
<polyline fill="none" stroke="#bfbfbf" points="181.5,-625.5 210.5,-625.5 "/>
<text text-anchor="middle" x="196" y="-613.5" font-family="Helvetica,sans-Serif" font-size="10.00"> </text>
</g>
<!-- Node6&#45;&gt;Node1 -->
<g id="edge9" class="edge"><title>Node6&#45;&gt;Node1</title>
<path fill="none" stroke="#404040" d="M185.506,-606.184C172.896,-568.474 155.597,-499.47 174,-444 207.467,-343.126 283.539,-247.88 343.936,-183.649"/>
<polygon fill="none" stroke="#404040" points="344.083,-183.494 345.316,-176.389 352.348,-174.794 351.116,-181.899 344.083,-183.494"/>
<text text-anchor="middle" x="223" y="-406.5" font-family="Helvetica,sans-Serif" font-size="10.00"> &#45;block_size_</text>
</g>
<!-- Node6&#45;&gt;Node5 -->
<g id="edge5" class="edge"><title>Node6&#45;&gt;Node5</title>
<path fill="none" stroke="#404040" d="M210.889,-625.824C239.434,-610.114 300.993,-576.063 329.288,-557.649"/>
<polygon fill="none" stroke="#404040" points="329.311,-557.633 331.975,-550.932 339.185,-550.814 336.522,-557.515 329.311,-557.633"/>
<text text-anchor="middle" x="351.5" y="-579.5" font-family="Helvetica,sans-Serif" font-size="10.00"> &#45;NUM_SPIN_CYCLES</text>
</g>
<!-- Node7 -->
<g id="node7" class="node"><title>Node7</title>
<g id="a_node7"><a xlink:href="classbool.html" target="_top" xlink:title="{bool\n||}">
<polygon fill="white" stroke="black" points="415.5,-606.5 415.5,-663.5 450.5,-663.5 450.5,-606.5 415.5,-606.5"/>
<text text-anchor="middle" x="433" y="-651.5" font-family="Helvetica,sans-Serif" font-size="10.00">bool</text>
<polyline fill="none" stroke="black" points="415.5,-644.5 450.5,-644.5 "/>
<text text-anchor="middle" x="433" y="-632.5" font-family="Helvetica,sans-Serif" font-size="10.00"> </text>
<polyline fill="none" stroke="black" points="415.5,-625.5 450.5,-625.5 "/>
<text text-anchor="middle" x="433" y="-613.5" font-family="Helvetica,sans-Serif" font-size="10.00"> </text>
</a>
</g>
</g>
<!-- Node7&#45;&gt;Node1 -->
<g id="edge10" class="edge"><title>Node7&#45;&gt;Node1</title>
<path fill="none" stroke="#404040" d="M447.165,-606.383C449.583,-600.463 451.723,-594.139 453,-588 486.305,-427.871 469.381,-382.733 453,-220 452.778,-217.795 452.533,-215.57 452.268,-213.331"/>
<polygon fill="none" stroke="#404040" points="452.244,-213.146 447.49,-207.724 450.667,-201.25 455.421,-206.672 452.244,-213.146"/>
<text text-anchor="middle" x="511" y="-417.5" font-family="Helvetica,sans-Serif" font-size="10.00"> &#45;exprs_closed_</text>
<text text-anchor="middle" x="511" y="-406.5" font-family="Helvetica,sans-Serif" font-size="10.00">&#45;exprs_prepared_</text>
<text text-anchor="middle" x="511" y="-395.5" font-family="Helvetica,sans-Serif" font-size="10.00">&#45;exprs_opened_</text>
</g>
<!-- Node7&#45;&gt;Node5 -->
<g id="edge6" class="edge"><title>Node7&#45;&gt;Node5</title>
<path fill="none" stroke="#404040" d="M420.107,-606.027C417.597,-600.132 415.098,-593.909 413,-588 410.828,-581.883 408.725,-575.466 406.726,-569.011"/>
<polygon fill="none" stroke="#404040" points="406.693,-568.902 401.139,-564.303 403.247,-557.407 408.802,-562.006 406.693,-568.902"/>
<text text-anchor="middle" x="433" y="-579.5" font-family="Helvetica,sans-Serif" font-size="10.00"> &#45;locked_</text>
</g>
<!-- Node8 -->
<g id="node8" class="node"><title>Node8</title>
<polygon fill="white" stroke="#bfbfbf" points="183,-472.5 183,-529.5 321,-529.5 321,-472.5 183,-472.5"/>
<text text-anchor="middle" x="252" y="-517.5" font-family="Helvetica,sans-Serif" font-size="10.00">vector&lt; GenericElement * &gt;</text>
<polyline fill="none" stroke="#bfbfbf" points="183,-510.5 321,-510.5 "/>
<text text-anchor="middle" x="252" y="-498.5" font-family="Helvetica,sans-Serif" font-size="10.00"> </text>
<polyline fill="none" stroke="#bfbfbf" points="183,-491.5 321,-491.5 "/>
<text text-anchor="middle" x="252" y="-479.5" font-family="Helvetica,sans-Serif" font-size="10.00"> </text>
</g>
<!-- Node8&#45;&gt;Node4 -->
<g id="edge7" class="edge"><title>Node8&#45;&gt;Node4</title>
<path fill="none" stroke="#404040" d="M274.931,-472.383C295.12,-448.068 324.973,-412.112 349.076,-383.084"/>
<polygon fill="none" stroke="#404040" points="349.342,-382.764 350.097,-375.592 357.007,-373.531 356.252,-380.703 349.342,-382.764"/>
<text text-anchor="middle" x="362.5" y="-406.5" font-family="Helvetica,sans-Serif" font-size="10.00"> &#45;objects_</text>
</g>
<!-- Node9 -->
<g id="node9" class="node"><title>Node9</title>
<polygon fill="white" stroke="#bfbfbf" points="495.5,-305.5 495.5,-362.5 530.5,-362.5 530.5,-305.5 495.5,-305.5"/>
<text text-anchor="middle" x="513" y="-350.5" font-family="Helvetica,sans-Serif" font-size="10.00">type</text>
<polyline fill="none" stroke="#bfbfbf" points="495.5,-343.5 530.5,-343.5 "/>
<text text-anchor="middle" x="513" y="-331.5" font-family="Helvetica,sans-Serif" font-size="10.00"> </text>
<polyline fill="none" stroke="#bfbfbf" points="495.5,-324.5 530.5,-324.5 "/>
<text text-anchor="middle" x="513" y="-312.5" font-family="Helvetica,sans-Serif" font-size="10.00"> </text>
</g>
<!-- Node9&#45;&gt;Node1 -->
<g id="edge8" class="edge"><title>Node9&#45;&gt;Node1</title>
<path fill="none" stroke="#404040" d="M505.222,-305.362C498.555,-282.336 488.406,-248.777 478,-220 477.096,-217.5 476.169,-214.976 475.224,-212.434"/>
<polygon fill="none" stroke="#404040" points="475.223,-212.431 469.357,-208.237 470.972,-201.209 476.838,-205.403 475.223,-212.431"/>
<text text-anchor="middle" x="526" y="-245.5" font-family="Helvetica,sans-Serif" font-size="10.00"> &#45;file_format_</text>
</g>
<!-- Node10 -->
<g id="node10" class="node"><title>Node10</title>
<polygon fill="white" stroke="#bfbfbf" points="560.5,-305.5 560.5,-362.5 601.5,-362.5 601.5,-305.5 560.5,-305.5"/>
<text text-anchor="middle" x="581" y="-350.5" font-family="Helvetica,sans-Serif" font-size="10.00">string</text>
<polyline fill="none" stroke="#bfbfbf" points="560.5,-343.5 601.5,-343.5 "/>
<text text-anchor="middle" x="581" y="-331.5" font-family="Helvetica,sans-Serif" font-size="10.00"> </text>
<polyline fill="none" stroke="#bfbfbf" points="560.5,-324.5 601.5,-324.5 "/>
<text text-anchor="middle" x="581" y="-312.5" font-family="Helvetica,sans-Serif" font-size="10.00"> </text>
</g>
<!-- Node10&#45;&gt;Node1 -->
<g id="edge11" class="edge"><title>Node10&#45;&gt;Node1</title>
<path fill="none" stroke="#404040" d="M580.44,-305.309C578.871,-281.343 573.91,-246.469 559,-220 547.662,-199.873 531.643,-181.321 514.709,-165.175"/>
<polygon fill="none" stroke="#404040" points="514.614,-165.088 507.491,-163.964 505.79,-156.956 512.913,-158.081 514.614,-165.088"/>
<text text-anchor="middle" x="600" y="-245.5" font-family="Helvetica,sans-Serif" font-size="10.00"> &#45;location_</text>
</g>
<!-- Node11 -->
<g id="node11" class="node"><title>Node11</title>
<polygon fill="white" stroke="#bfbfbf" points="619,-305.5 619,-362.5 777,-362.5 777,-305.5 619,-305.5"/>
<text text-anchor="middle" x="698" y="-350.5" font-family="Helvetica,sans-Serif" font-size="10.00">vector&lt; impala::ExprContext * &gt;</text>
<polyline fill="none" stroke="#bfbfbf" points="619,-343.5 777,-343.5 "/>
<text text-anchor="middle" x="698" y="-331.5" font-family="Helvetica,sans-Serif" font-size="10.00"> </text>
<polyline fill="none" stroke="#bfbfbf" points="619,-324.5 777,-324.5 "/>
<text text-anchor="middle" x="698" y="-312.5" font-family="Helvetica,sans-Serif" font-size="10.00"> </text>
</g>
<!-- Node11&#45;&gt;Node1 -->
<g id="edge12" class="edge"><title>Node11&#45;&gt;Node1</title>
<path fill="none" stroke="#404040" d="M685.324,-305.352C673.034,-280.759 652.525,-244.931 627,-220 595.083,-188.825 553.41,-162.423 516.533,-142.549"/>
<polygon fill="none" stroke="#404040" points="516.375,-142.465 509.201,-143.197 505.767,-136.856 512.941,-136.125 516.375,-142.465"/>
<text text-anchor="start" x="669" y="-251" font-family="Helvetica,sans-Serif" font-size="10.00"> &#45;partition_key_value</text>
<text text-anchor="middle" x="714.5" y="-240" font-family="Helvetica,sans-Serif" font-size="10.00">_ctxs_</text>
</g>
</g>
</svg>
        <g id="navigator" transform="translate(0 0)" fill="#404254">
                <rect fill="#f2f5e9" fill-opacity="0.5" stroke="#606060" stroke-width=".5" x="0" y="0" width="60" height="60"/>
                <use id="zoomplus" xlink:href="#zoomPlus" x="17" y="9" onmousedown="handleZoom(evt,'in')"/>
                <use id="zoomminus" xlink:href="#zoomMin" x="42" y="9" onmousedown="handleZoom(evt,'out')"/>
                <use id="reset" xlink:href="#resetDef" x="30" y="36" onmousedown="handleReset()"/>
                <g id="arrowUp" xlink:href="#dirArrow" transform="translate(30 24)" onmousedown="handlePan(0,-1)">
                  <use xlink:href="#rim" fill="#404040">
                        <set attributeName="fill" to="#808080" begin="arrowUp.mouseover" end="arrowUp.mouseout"/>
                  </use>
                  <path fill="none" stroke="white" stroke-width="1.5" d="M0,-3.0v7 M-2.5,-0.5L0,-3.0L2.5,-0.5"/>
                </g>
                <g id="arrowRight" xlink:href="#dirArrow" transform="rotate(90) translate(36 -43)" onmousedown="handlePan(1,0)">
                  <use xlink:href="#rim" fill="#404040">
                        <set attributeName="fill" to="#808080" begin="arrowRight.mouseover" end="arrowRight.mouseout"/>
                  </use>
                  <path fill="none" stroke="white" stroke-width="1.5" d="M0,-3.0v7 M-2.5,-0.5L0,-3.0L2.5,-0.5"/>
                </g>
                <g id="arrowDown" xlink:href="#dirArrow" transform="rotate(180) translate(-30 -48)" onmousedown="handlePan(0,1)">
                  <use xlink:href="#rim" fill="#404040">
                        <set attributeName="fill" to="#808080" begin="arrowDown.mouseover" end="arrowDown.mouseout"/>
                  </use>
                  <path fill="none" stroke="white" stroke-width="1.5" d="M0,-3.0v7 M-2.5,-0.5L0,-3.0L2.5,-0.5"/>
                </g>
                <g id="arrowLeft" xlink:href="#dirArrow" transform="rotate(270) translate(-36 17)" onmousedown="handlePan(-1,0)">
                  <use xlink:href="#rim" fill="#404040">
                        <set attributeName="fill" to="#808080" begin="arrowLeft.mouseover" end="arrowLeft.mouseout"/>
                  </use>
                  <path fill="none" stroke="white" stroke-width="1.5" d="M0,-3.0v7 M-2.5,-0.5L0,-3.0L2.5,-0.5"/>
                </g>
        </g>
        <svg viewBox="0 0 15 15" width="100%" height="30px" preserveAspectRatio="xMaxYMin meet">
         <g id="arrow_out" transform="scale(0.3 0.3)">
          <a xlink:href="classimpala_1_1HdfsPartitionDescriptor__coll__graph_org.svg" target="_base">
           <rect id="button" ry="5" rx="5" y="6" x="6" height="38" width="38"
                fill="#f2f5e9" fill-opacity="0.5" stroke="#606060" stroke-width="1.0"/>
           <path id="arrow"
             d="M 11.500037,31.436501 C 11.940474,20.09759 22.043105,11.32322 32.158766,21.979434 L 37.068811,17.246167 C 37.068811,17.246167 37.088388,32 37.088388,32 L 22.160133,31.978069 C 22.160133,31.978069 26.997745,27.140456 26.997745,27.140456 C 18.528582,18.264221 13.291696,25.230495 11.500037,31.436501 z"
             style="fill:#404040;"/>
          </a>
         </g>
        </svg>
</svg>
