<?xml version="1.0" encoding="UTF-8" standalone="no"?>
<!DOCTYPE svg PUBLIC "-//W3C//DTD SVG 1.1//EN"
 "http://www.w3.org/Graphics/SVG/1.1/DTD/svg11.dtd">
<!-- Generated by graphviz version 2.36.0 (20140111.2315)
 -->
<!-- Title: com.cloudera.impala.catalog.HdfsPartition.FileBlock Pages: 1 -->
<svg width="165pt" height="304pt"
 viewBox="0.00 0.00 165.00 304.00" xmlns="http://www.w3.org/2000/svg" xmlns:xlink="http://www.w3.org/1999/xlink">
<g id="graph0" class="graph" transform="scale(1 1) rotate(0) translate(4 300)">
<title>com.cloudera.impala.catalog.HdfsPartition.FileBlock</title>
<polygon fill="white" stroke="none" points="-4,4 -4,-300 161,-300 161,4 -4,4"/>
<!-- Node1 -->
<g id="node1" class="node"><title>Node1</title>
<polygon fill="#bfbfbf" stroke="black" points="0,-0.5 0,-189.5 144,-189.5 144,-0.5 0,-0.5"/>
<text text-anchor="start" x="8" y="-177.5" font-family="Helvetica,sans-Serif" font-size="10.00">com.cloudera.impala.catalog.</text>
<text text-anchor="middle" x="72" y="-166.5" font-family="Helvetica,sans-Serif" font-size="10.00">HdfsPartition.FileBlock</text>
<polyline fill="none" stroke="black" points="0,-159.5 144,-159.5 "/>
<text text-anchor="middle" x="72" y="-147.5" font-family="Helvetica,sans-Serif" font-size="10.00"> </text>
<polyline fill="none" stroke="black" points="0,-140.5 144,-140.5 "/>
<text text-anchor="start" x="8" y="-128.5" font-family="Helvetica,sans-Serif" font-size="10.00">+ FileBlock()</text>
<text text-anchor="start" x="8" y="-117.5" font-family="Helvetica,sans-Serif" font-size="10.00">+ getOffset()</text>
<text text-anchor="start" x="8" y="-106.5" font-family="Helvetica,sans-Serif" font-size="10.00">+ getLength()</text>
<text text-anchor="start" x="8" y="-95.5" font-family="Helvetica,sans-Serif" font-size="10.00">+ isCached()</text>
<text text-anchor="start" x="8" y="-84.5" font-family="Helvetica,sans-Serif" font-size="10.00">+ getReplicaHostIdxs()</text>
<text text-anchor="start" x="8" y="-73.5" font-family="Helvetica,sans-Serif" font-size="10.00">+ getDiskId()</text>
<text text-anchor="start" x="8" y="-62.5" font-family="Helvetica,sans-Serif" font-size="10.00">+ isCached()</text>
<text text-anchor="start" x="8" y="-51.5" font-family="Helvetica,sans-Serif" font-size="10.00">+ toThrift()</text>
<text text-anchor="start" x="8" y="-40.5" font-family="Helvetica,sans-Serif" font-size="10.00">+ toString()</text>
<text text-anchor="start" x="8" y="-29.5" font-family="Helvetica,sans-Serif" font-size="10.00">+ setDiskIds()</text>
<text text-anchor="start" x="8" y="-18.5" font-family="Helvetica,sans-Serif" font-size="10.00">+ fromThrift()</text>
<text text-anchor="start" x="8" y="-7.5" font-family="Helvetica,sans-Serif" font-size="10.00">&#45; FileBlock()</text>
</g>
<!-- Node2 -->
<g id="node2" class="node"><title>Node2</title>
<polygon fill="white" stroke="#bfbfbf" points="5,-238.5 5,-295.5 55,-295.5 55,-238.5 5,-238.5"/>
<text text-anchor="middle" x="30" y="-283.5" font-family="Helvetica,sans-Serif" font-size="10.00">boolean</text>
<polyline fill="none" stroke="#bfbfbf" points="5,-276.5 55,-276.5 "/>
<text text-anchor="middle" x="30" y="-264.5" font-family="Helvetica,sans-Serif" font-size="10.00"> </text>
<polyline fill="none" stroke="#bfbfbf" points="5,-257.5 55,-257.5 "/>
<text text-anchor="middle" x="30" y="-245.5" font-family="Helvetica,sans-Serif" font-size="10.00"> </text>
</g>
<!-- Node2&#45;&gt;Node1 -->
<g id="edge1" class="edge"><title>Node2&#45;&gt;Node1</title>
<path fill="none" stroke="#404040" d="M34.129,-238.441C35.7421,-228.77 37.7479,-217.862 40,-208 40.4935,-205.839 41.0034,-203.658 41.5274,-201.462"/>
<polygon fill="none" stroke="#404040" points="41.5763,-201.263 39.1301,-194.48 44.4509,-189.613 46.8972,-196.396 41.5763,-201.263"/>
<text text-anchor="middle" x="66.5" y="-211.5" font-family="Helvetica,sans-Serif" font-size="10.00"> &#45;isCached_</text>
</g>
<!-- Node3 -->
<g id="node3" class="node"><title>Node3</title>
<polygon fill="white" stroke="#bfbfbf" points="73,-238.5 73,-295.5 157,-295.5 157,-238.5 73,-238.5"/>
<text text-anchor="middle" x="115" y="-283.5" font-family="Helvetica,sans-Serif" font-size="10.00">THdfsFileBlock</text>
<polyline fill="none" stroke="#bfbfbf" points="73,-276.5 157,-276.5 "/>
<text text-anchor="middle" x="115" y="-264.5" font-family="Helvetica,sans-Serif" font-size="10.00"> </text>
<polyline fill="none" stroke="#bfbfbf" points="73,-257.5 157,-257.5 "/>
<text text-anchor="middle" x="115" y="-245.5" font-family="Helvetica,sans-Serif" font-size="10.00"> </text>
</g>
<!-- Node3&#45;&gt;Node1 -->
<g id="edge2" class="edge"><title>Node3&#45;&gt;Node1</title>
<path fill="none" stroke="#404040" d="M107.996,-238.308C105.327,-227.757 102.1,-215 98.6878,-201.51"/>
<polygon fill="none" stroke="#404040" points="98.5936,-201.137 93.2444,-196.301 95.6509,-189.504 101,-194.34 98.5936,-201.137"/>
<text text-anchor="middle" x="126.5" y="-211.5" font-family="Helvetica,sans-Serif" font-size="10.00"> &#45;fileBlock_</text>
</g>
</g>
</svg>
