<?xml version="1.0" encoding="UTF-8" standalone="no"?>
<!DOCTYPE svg PUBLIC "-//W3C//DTD SVG 1.1//EN"
 "http://www.w3.org/Graphics/SVG/1.1/DTD/svg11.dtd">
<!-- Generated by graphviz version 2.36.0 (20140111.2315)
 -->
<!-- Title: com.cloudera.impala.catalog.HdfsPartition.BlockReplica Pages: 1 -->
<svg width="155pt" height="216pt"
 viewBox="0.00 0.00 155.00 216.00" xmlns="http://www.w3.org/2000/svg" xmlns:xlink="http://www.w3.org/1999/xlink">
<g id="graph0" class="graph" transform="scale(1 1) rotate(0) translate(4 212)">
<title>com.cloudera.impala.catalog.HdfsPartition.BlockReplica</title>
<polygon fill="white" stroke="none" points="-4,4 -4,-212 151,-212 151,4 -4,4"/>
<!-- Node1 -->
<g id="node1" class="node"><title>Node1</title>
<polygon fill="#bfbfbf" stroke="black" points="0,-0.5 0,-101.5 144,-101.5 144,-0.5 0,-0.5"/>
<text text-anchor="start" x="8" y="-89.5" font-family="Helvetica,sans-Serif" font-size="10.00">com.cloudera.impala.catalog.</text>
<text text-anchor="middle" x="72" y="-78.5" font-family="Helvetica,sans-Serif" font-size="10.00">HdfsPartition.BlockReplica</text>
<polyline fill="none" stroke="black" points="0,-71.5 144,-71.5 "/>
<text text-anchor="middle" x="72" y="-59.5" font-family="Helvetica,sans-Serif" font-size="10.00"> </text>
<polyline fill="none" stroke="black" points="0,-52.5 144,-52.5 "/>
<text text-anchor="start" x="8" y="-40.5" font-family="Helvetica,sans-Serif" font-size="10.00">+ BlockReplica()</text>
<text text-anchor="start" x="8" y="-29.5" font-family="Helvetica,sans-Serif" font-size="10.00">+ isCached()</text>
<text text-anchor="start" x="8" y="-18.5" font-family="Helvetica,sans-Serif" font-size="10.00">+ getHostIdx()</text>
<text text-anchor="start" x="8" y="-7.5" font-family="Helvetica,sans-Serif" font-size="10.00">+ parseLocation()</text>
</g>
<!-- Node2 -->
<g id="node2" class="node"><title>Node2</title>
<polygon fill="white" stroke="#bfbfbf" points="24.5,-150.5 24.5,-207.5 53.5,-207.5 53.5,-150.5 24.5,-150.5"/>
<text text-anchor="middle" x="39" y="-195.5" font-family="Helvetica,sans-Serif" font-size="10.00">int</text>
<polyline fill="none" stroke="#bfbfbf" points="24.5,-188.5 53.5,-188.5 "/>
<text text-anchor="middle" x="39" y="-176.5" font-family="Helvetica,sans-Serif" font-size="10.00"> </text>
<polyline fill="none" stroke="#bfbfbf" points="24.5,-169.5 53.5,-169.5 "/>
<text text-anchor="middle" x="39" y="-157.5" font-family="Helvetica,sans-Serif" font-size="10.00"> </text>
</g>
<!-- Node2&#45;&gt;Node1 -->
<g id="edge1" class="edge"><title>Node2&#45;&gt;Node1</title>
<path fill="none" stroke="#404040" d="M37.1183,-150.27C37.0799,-140.585 37.7412,-129.711 40,-120 40.5321,-117.713 41.1475,-115.411 41.832,-113.107"/>
<polygon fill="none" stroke="#404040" points="41.8705,-112.995 40.0331,-106.022 45.7632,-101.644 47.6005,-108.617 41.8705,-112.995"/>
<text text-anchor="middle" x="62" y="-123.5" font-family="Helvetica,sans-Serif" font-size="10.00"> &#45;hostIdx_</text>
</g>
<!-- Node3 -->
<g id="node3" class="node"><title>Node3</title>
<polygon fill="white" stroke="#bfbfbf" points="81,-150.5 81,-207.5 131,-207.5 131,-150.5 81,-150.5"/>
<text text-anchor="middle" x="106" y="-195.5" font-family="Helvetica,sans-Serif" font-size="10.00">boolean</text>
<polyline fill="none" stroke="#bfbfbf" points="81,-188.5 131,-188.5 "/>
<text text-anchor="middle" x="106" y="-176.5" font-family="Helvetica,sans-Serif" font-size="10.00"> </text>
<polyline fill="none" stroke="#bfbfbf" points="81,-169.5 131,-169.5 "/>
<text text-anchor="middle" x="106" y="-157.5" font-family="Helvetica,sans-Serif" font-size="10.00"> </text>
</g>
<!-- Node3&#45;&gt;Node1 -->
<g id="edge2" class="edge"><title>Node3&#45;&gt;Node1</title>
<path fill="none" stroke="#404040" d="M98.5386,-150.349C95.5902,-139.423 92.0759,-126.399 88.5849,-113.462"/>
<polygon fill="none" stroke="#404040" points="88.5288,-113.253 83.1037,-108.503 85.4024,-101.668 90.8275,-106.419 88.5288,-113.253"/>
<text text-anchor="middle" x="120.5" y="-123.5" font-family="Helvetica,sans-Serif" font-size="10.00"> &#45;isCached_</text>
</g>
</g>
</svg>
