<?xml version="1.0" encoding="UTF-8" standalone="no"?>
<!DOCTYPE svg PUBLIC "-//W3C//DTD SVG 1.1//EN"
 "http://www.w3.org/Graphics/SVG/1.1/DTD/svg11.dtd">
<!-- Generated by graphviz version 2.36.0 (20140111.2315)
 -->
<!-- Title: impala::ErrorMsg Pages: 1 -->
<svg width="239pt" height="294pt"
 viewBox="0.00 0.00 239.00 294.00" xmlns="http://www.w3.org/2000/svg" xmlns:xlink="http://www.w3.org/1999/xlink">
<g id="graph0" class="graph" transform="scale(1 1) rotate(0) translate(4 290)">
<title>impala::ErrorMsg</title>
<polygon fill="white" stroke="none" points="-4,4 -4,-290 235,-290 235,4 -4,4"/>
<!-- Node1 -->
<g id="node1" class="node"><title>Node1</title>
<polygon fill="#bfbfbf" stroke="black" points="94.5,-1 94.5,-179 185.5,-179 185.5,-1 94.5,-1"/>
<text text-anchor="middle" x="140" y="-167" font-family="Helvetica,sans-Serif" font-size="10.00">impala::ErrorMsg</text>
<polyline fill="none" stroke="black" points="94.5,-160 185.5,-160 "/>
<text text-anchor="middle" x="140" y="-148" font-family="Helvetica,sans-Serif" font-size="10.00"> </text>
<polyline fill="none" stroke="black" points="94.5,-141 185.5,-141 "/>
<text text-anchor="start" x="102.5" y="-129" font-family="Helvetica,sans-Serif" font-size="10.00">+ ErrorMsg()</text>
<text text-anchor="start" x="102.5" y="-118" font-family="Helvetica,sans-Serif" font-size="10.00">+ ErrorMsg()</text>
<text text-anchor="start" x="102.5" y="-107" font-family="Helvetica,sans-Serif" font-size="10.00">+ ErrorMsg()</text>
<text text-anchor="start" x="102.5" y="-96" font-family="Helvetica,sans-Serif" font-size="10.00">+ ErrorMsg()</text>
<text text-anchor="start" x="102.5" y="-85" font-family="Helvetica,sans-Serif" font-size="10.00">+ ErrorMsg()</text>
<text text-anchor="start" x="102.5" y="-74" font-family="Helvetica,sans-Serif" font-size="10.00">+ ErrorMsg()</text>
<text text-anchor="start" x="102.5" y="-63" font-family="Helvetica,sans-Serif" font-size="10.00">+ ErrorMsg()</text>
<text text-anchor="start" x="102.5" y="-52" font-family="Helvetica,sans-Serif" font-size="10.00">+ ErrorMsg()</text>
<text text-anchor="start" x="102.5" y="-41" font-family="Helvetica,sans-Serif" font-size="10.00">+ ErrorMsg()</text>
<text text-anchor="start" x="102.5" y="-30" font-family="Helvetica,sans-Serif" font-size="10.00">+ ErrorMsg()</text>
<text text-anchor="start" x="102.5" y="-19" font-family="Helvetica,sans-Serif" font-size="10.00">and 9 more...</text>
<text text-anchor="start" x="102.5" y="-8" font-family="Helvetica,sans-Serif" font-size="10.00">+ Init()</text>
</g>
<!-- Node2 -->
<g id="node2" class="node"><title>Node2</title>
<polygon fill="white" stroke="#bfbfbf" points="-0.5,-228.5 -0.5,-285.5 104.5,-285.5 104.5,-228.5 -0.5,-228.5"/>
<text text-anchor="middle" x="52" y="-273.5" font-family="Helvetica,sans-Serif" font-size="10.00">vector&lt; std::string &gt;</text>
<polyline fill="none" stroke="#bfbfbf" points="-0.5,-266.5 104.5,-266.5 "/>
<text text-anchor="middle" x="52" y="-254.5" font-family="Helvetica,sans-Serif" font-size="10.00"> </text>
<polyline fill="none" stroke="#bfbfbf" points="-0.5,-247.5 104.5,-247.5 "/>
<text text-anchor="middle" x="52" y="-235.5" font-family="Helvetica,sans-Serif" font-size="10.00"> </text>
</g>
<!-- Node2&#45;&gt;Node1 -->
<g id="edge1" class="edge"><title>Node2&#45;&gt;Node1</title>
<path fill="none" stroke="#404040" d="M66.7292,-228.383C72.95,-216.719 80.5995,-202.376 88.5844,-187.404"/>
<polygon fill="none" stroke="#404040" points="88.7952,-187.009 88.0894,-179.832 94.4423,-176.421 95.1482,-183.597 88.7952,-187.009"/>
<text text-anchor="middle" x="100" y="-201.5" font-family="Helvetica,sans-Serif" font-size="10.00"> &#45;details_</text>
</g>
<!-- Node3 -->
<g id="node3" class="node"><title>Node3</title>
<polygon fill="white" stroke="#bfbfbf" points="122.5,-228.5 122.5,-285.5 157.5,-285.5 157.5,-228.5 122.5,-228.5"/>
<text text-anchor="middle" x="140" y="-273.5" font-family="Helvetica,sans-Serif" font-size="10.00">type</text>
<polyline fill="none" stroke="#bfbfbf" points="122.5,-266.5 157.5,-266.5 "/>
<text text-anchor="middle" x="140" y="-254.5" font-family="Helvetica,sans-Serif" font-size="10.00"> </text>
<polyline fill="none" stroke="#bfbfbf" points="122.5,-247.5 157.5,-247.5 "/>
<text text-anchor="middle" x="140" y="-235.5" font-family="Helvetica,sans-Serif" font-size="10.00"> </text>
</g>
<!-- Node3&#45;&gt;Node1 -->
<g id="edge2" class="edge"><title>Node3&#45;&gt;Node1</title>
<path fill="none" stroke="#404040" d="M140,-228.383C140,-217.739 140,-204.866 140,-191.319"/>
<polygon fill="none" stroke="#404040" points="140,-191.28 136,-185.28 140,-179.28 144,-185.28 140,-191.28"/>
<text text-anchor="middle" x="155.5" y="-201.5" font-family="Helvetica,sans-Serif" font-size="10.00"> &#45;error_</text>
</g>
<!-- Node4 -->
<g id="node4" class="node"><title>Node4</title>
<polygon fill="white" stroke="#bfbfbf" points="175.5,-228.5 175.5,-285.5 216.5,-285.5 216.5,-228.5 175.5,-228.5"/>
<text text-anchor="middle" x="196" y="-273.5" font-family="Helvetica,sans-Serif" font-size="10.00">string</text>
<polyline fill="none" stroke="#bfbfbf" points="175.5,-266.5 216.5,-266.5 "/>
<text text-anchor="middle" x="196" y="-254.5" font-family="Helvetica,sans-Serif" font-size="10.00"> </text>
<polyline fill="none" stroke="#bfbfbf" points="175.5,-247.5 216.5,-247.5 "/>
<text text-anchor="middle" x="196" y="-235.5" font-family="Helvetica,sans-Serif" font-size="10.00"> </text>
</g>
<!-- Node4&#45;&gt;Node1 -->
<g id="edge3" class="edge"><title>Node4&#45;&gt;Node1</title>
<path fill="none" stroke="#404040" d="M186.627,-228.383C182.978,-217.632 178.557,-204.605 173.908,-190.908"/>
<polygon fill="none" stroke="#404040" points="173.818,-190.643 168.102,-186.247 169.962,-179.28 175.678,-183.676 173.818,-190.643"/>
<text text-anchor="middle" x="205" y="-201.5" font-family="Helvetica,sans-Serif" font-size="10.00"> &#45;message_</text>
</g>
</g>
</svg>
