<?xml version="1.0" encoding="UTF-8" standalone="no"?>
<!DOCTYPE svg PUBLIC "-//W3C//DTD SVG 1.1//EN"
 "http://www.w3.org/Graphics/SVG/1.1/DTD/svg11.dtd">
<!-- Generated by graphviz version 2.36.0 (20140111.2315)
 -->
<!-- Title: impala::SimpleSchedulerTest Pages: 1 -->
<svg width="152pt" height="194pt"
 viewBox="0.00 0.00 152.00 194.00" xmlns="http://www.w3.org/2000/svg" xmlns:xlink="http://www.w3.org/1999/xlink">
<g id="graph0" class="graph" transform="scale(1 1) rotate(0) translate(4 190)">
<title>impala::SimpleSchedulerTest</title>
<polygon fill="white" stroke="none" points="-4,4 -4,-190 148,-190 148,4 -4,4"/>
<!-- Node1 -->
<g id="node1" class="node"><title>Node1</title>
<polygon fill="#bfbfbf" stroke="black" points="0,-1 0,-91 144,-91 144,-1 0,-1"/>
<text text-anchor="middle" x="72" y="-79" font-family="Helvetica,sans-Serif" font-size="10.00">impala::SimpleSchedulerTest</text>
<polyline fill="none" stroke="black" points="0,-72 144,-72 "/>
<text text-anchor="start" x="8" y="-60" font-family="Helvetica,sans-Serif" font-size="10.00"># base_port_</text>
<text text-anchor="start" x="8" y="-49" font-family="Helvetica,sans-Serif" font-size="10.00"># num_backends_</text>
<text text-anchor="start" x="8" y="-38" font-family="Helvetica,sans-Serif" font-size="10.00"># hostname_scheduler_</text>
<text text-anchor="start" x="8" y="-27" font-family="Helvetica,sans-Serif" font-size="10.00"># local_remote_scheduler_</text>
<polyline fill="none" stroke="black" points="0,-20 144,-20 "/>
<text text-anchor="start" x="8" y="-8" font-family="Helvetica,sans-Serif" font-size="10.00"># SimpleSchedulerTest()</text>
</g>
<!-- Node2 -->
<g id="node2" class="node"><title>Node2</title>
<polygon fill="white" stroke="#bfbfbf" points="54,-128.5 54,-185.5 90,-185.5 90,-128.5 54,-128.5"/>
<text text-anchor="middle" x="72" y="-173.5" font-family="Helvetica,sans-Serif" font-size="10.00">Test</text>
<polyline fill="none" stroke="#bfbfbf" points="54,-166.5 90,-166.5 "/>
<text text-anchor="middle" x="72" y="-154.5" font-family="Helvetica,sans-Serif" font-size="10.00"> </text>
<polyline fill="none" stroke="#bfbfbf" points="54,-147.5 90,-147.5 "/>
<text text-anchor="middle" x="72" y="-135.5" font-family="Helvetica,sans-Serif" font-size="10.00"> </text>
</g>
<!-- Node2&#45;&gt;Node1 -->
<g id="edge1" class="edge"><title>Node2&#45;&gt;Node1</title>
<path fill="none" stroke="midnightblue" d="M72,-118.484C72,-109.643 72,-100.139 72,-91.0399"/>
<polygon fill="none" stroke="midnightblue" points="68.5001,-118.495 72,-128.495 75.5001,-118.495 68.5001,-118.495"/>
</g>
</g>
</svg>
