<?xml version="1.0" encoding="UTF-8" standalone="no"?>
<!DOCTYPE svg PUBLIC "-//W3C//DTD SVG 1.1//EN"
 "http://www.w3.org/Graphics/SVG/1.1/DTD/svg11.dtd">
<!-- Generated by graphviz version 2.36.0 (20140111.2315)
 -->
<!-- Title: com.cloudera.impala.hive.executor.ImpalaBytesWritable Pages: 1 -->
<!--zoomable 486 -->
<svg id="main" version="1.1" xmlns="http://www.w3.org/2000/svg" xmlns:xlink="http://www.w3.org/1999/xlink" xml:space="preserve" onload="init(evt)">
<style type="text/css"><![CDATA[
.edge:hover path { stroke: red; }
.edge:hover polygon { stroke: red; fill: red; }
]]></style>
<script type="text/javascript"><![CDATA[
var edges = document.getElementsByTagName('g');
if (edges && edges.length) {
  for (var i=0;i<edges.length;i++) {
    if (edges[i].id.substr(0,4)=='edge') {
      edges[i].setAttribute('class','edge');
    }
  }
}
]]></script>
        <defs>
                <circle id="rim" cx="0" cy="0" r="7"/>
                <circle id="rim2" cx="0" cy="0" r="3.5"/>
                <g id="zoomPlus">
                        <use xlink:href="#rim" fill="#404040">
                                <set attributeName="fill" to="#808080" begin="zoomplus.mouseover" end="zoomplus.mouseout"/>
                        </use>
                        <path d="M-4,0h8M0,-4v8" fill="none" stroke="white" stroke-width="1.5" pointer-events="none"/>
                </g>
                <g id="zoomMin">
                        <use xlink:href="#rim" fill="#404040">
                                <set attributeName="fill" to="#808080" begin="zoomminus.mouseover" end="zoomminus.mouseout"/>
                        </use>
                        <path d="M-4,0h8" fill="none" stroke="white" stroke-width="1.5" pointer-events="none"/>
                </g>
                <g id="dirArrow">
                        <path fill="none" stroke="white" stroke-width="1.5" d="M0,-3.0v7 M-2.5,-0.5L0,-3.0L2.5,-0.5"/>
                </g>
               <g id="resetDef">
                       <use xlink:href="#rim2" fill="#404040">
                               <set attributeName="fill" to="#808080" begin="reset.mouseover" end="reset.mouseout"/>
                       </use>
               </g>
        </defs>

<script type="text/javascript">
var viewWidth = 424;
var viewHeight = 486;
var sectionId = 'dynsection-1';
</script>
<script xlink:href="svgpan.js"/>
<svg id="graph" class="graph">
<g id="viewport">
<title>com.cloudera.impala.hive.executor.ImpalaBytesWritable</title>
<polygon fill="white" stroke="none" points="-4,4 -4,-482 420,-482 420,4 -4,4"/>
<!-- Node1 -->
<g id="node1" class="node"><title>Node1</title>
<polygon fill="#bfbfbf" stroke="black" points="-0.5,-0.5 -0.5,-167.5 170.5,-167.5 170.5,-0.5 -0.5,-0.5"/>
<text text-anchor="start" x="7.5" y="-155.5" font-family="Helvetica,sans-Serif" font-size="10.00">com.cloudera.impala.hive.executor.</text>
<text text-anchor="middle" x="85" y="-144.5" font-family="Helvetica,sans-Serif" font-size="10.00">ImpalaBytesWritable</text>
<polyline fill="none" stroke="black" points="-0.5,-137.5 170.5,-137.5 "/>
<text text-anchor="middle" x="85" y="-125.5" font-family="Helvetica,sans-Serif" font-size="10.00"> </text>
<polyline fill="none" stroke="black" points="-0.5,-118.5 170.5,-118.5 "/>
<text text-anchor="start" x="7.5" y="-106.5" font-family="Helvetica,sans-Serif" font-size="10.00">+ ImpalaBytesWritable()</text>
<text text-anchor="start" x="7.5" y="-95.5" font-family="Helvetica,sans-Serif" font-size="10.00">+ copyBytes()</text>
<text text-anchor="start" x="7.5" y="-84.5" font-family="Helvetica,sans-Serif" font-size="10.00">+ get()</text>
<text text-anchor="start" x="7.5" y="-73.5" font-family="Helvetica,sans-Serif" font-size="10.00">+ getBytes()</text>
<text text-anchor="start" x="7.5" y="-62.5" font-family="Helvetica,sans-Serif" font-size="10.00">+ getCapacity()</text>
<text text-anchor="start" x="7.5" y="-51.5" font-family="Helvetica,sans-Serif" font-size="10.00">+ getLength()</text>
<text text-anchor="start" x="7.5" y="-40.5" font-family="Helvetica,sans-Serif" font-size="10.00">+ getStringWritable()</text>
<text text-anchor="start" x="7.5" y="-29.5" font-family="Helvetica,sans-Serif" font-size="10.00">+ set()</text>
<text text-anchor="start" x="7.5" y="-18.5" font-family="Helvetica,sans-Serif" font-size="10.00">+ setCapacity()</text>
<text text-anchor="start" x="7.5" y="-7.5" font-family="Helvetica,sans-Serif" font-size="10.00">+ setSize()</text>
</g>
<!-- Node2 -->
<g id="node2" class="node"><title>Node2</title>
<polygon fill="white" stroke="#bfbfbf" points="2,-260.5 2,-317.5 80,-317.5 80,-260.5 2,-260.5"/>
<text text-anchor="middle" x="41" y="-305.5" font-family="Helvetica,sans-Serif" font-size="10.00">BytesWritable</text>
<polyline fill="none" stroke="#bfbfbf" points="2,-298.5 80,-298.5 "/>
<text text-anchor="middle" x="41" y="-286.5" font-family="Helvetica,sans-Serif" font-size="10.00"> </text>
<polyline fill="none" stroke="#bfbfbf" points="2,-279.5 80,-279.5 "/>
<text text-anchor="middle" x="41" y="-267.5" font-family="Helvetica,sans-Serif" font-size="10.00"> </text>
</g>
<!-- Node2&#45;&gt;Node1 -->
<g id="edge1" class="edge"><title>Node2&#45;&gt;Node1</title>
<path fill="none" stroke="midnightblue" d="M49.1491,-250.403C54.1891,-227.15 60.8639,-196.355 67.0867,-167.646"/>
<polygon fill="none" stroke="midnightblue" points="45.7236,-249.685 47.0258,-260.199 52.5647,-251.168 45.7236,-249.685"/>
</g>
<!-- Node3 -->
<g id="node3" class="node"><title>Node3</title>
<g id="a_node3"><a xlink:href="classcom_1_1cloudera_1_1impala_1_1hive_1_1executor_1_1ImpalaStringWritable.html" target="_top" xlink:title="{com.cloudera.impala.hive.executor.\lImpalaStringWritable\n||+ ImpalaStringWritable()\l+ getBytes()\l+ getCapacity()\l+ setCapacity()\l+ getLength()\l+ setSize()\l+ set()\l# finalize()\l}">
<polygon fill="white" stroke="black" points="98.5,-216.5 98.5,-361.5 269.5,-361.5 269.5,-216.5 98.5,-216.5"/>
<text text-anchor="start" x="106.5" y="-349.5" font-family="Helvetica,sans-Serif" font-size="10.00">com.cloudera.impala.hive.executor.</text>
<text text-anchor="middle" x="184" y="-338.5" font-family="Helvetica,sans-Serif" font-size="10.00">ImpalaStringWritable</text>
<polyline fill="none" stroke="black" points="98.5,-331.5 269.5,-331.5 "/>
<text text-anchor="middle" x="184" y="-319.5" font-family="Helvetica,sans-Serif" font-size="10.00"> </text>
<polyline fill="none" stroke="black" points="98.5,-312.5 269.5,-312.5 "/>
<text text-anchor="start" x="106.5" y="-300.5" font-family="Helvetica,sans-Serif" font-size="10.00">+ ImpalaStringWritable()</text>
<text text-anchor="start" x="106.5" y="-289.5" font-family="Helvetica,sans-Serif" font-size="10.00">+ getBytes()</text>
<text text-anchor="start" x="106.5" y="-278.5" font-family="Helvetica,sans-Serif" font-size="10.00">+ getCapacity()</text>
<text text-anchor="start" x="106.5" y="-267.5" font-family="Helvetica,sans-Serif" font-size="10.00">+ setCapacity()</text>
<text text-anchor="start" x="106.5" y="-256.5" font-family="Helvetica,sans-Serif" font-size="10.00">+ getLength()</text>
<text text-anchor="start" x="106.5" y="-245.5" font-family="Helvetica,sans-Serif" font-size="10.00">+ setSize()</text>
<text text-anchor="start" x="106.5" y="-234.5" font-family="Helvetica,sans-Serif" font-size="10.00">+ set()</text>
<text text-anchor="start" x="106.5" y="-223.5" font-family="Helvetica,sans-Serif" font-size="10.00"># finalize()</text>
</a>
</g>
</g>
<!-- Node3&#45;&gt;Node1 -->
<g id="edge2" class="edge"><title>Node3&#45;&gt;Node1</title>
<path fill="none" stroke="#404040" d="M149.096,-216.43C143.154,-204.246 136.904,-191.43 130.733,-178.776"/>
<polygon fill="none" stroke="#404040" points="130.6,-178.502 124.374,-174.863 125.34,-167.717 131.565,-171.356 130.6,-178.502"/>
<text text-anchor="middle" x="156" y="-189.5" font-family="Helvetica,sans-Serif" font-size="10.00"> &#45;string_</text>
</g>
<!-- Node4 -->
<g id="node4" class="node"><title>Node4</title>
<polygon fill="white" stroke="#bfbfbf" points="88.5,-420.5 88.5,-477.5 151.5,-477.5 151.5,-420.5 88.5,-420.5"/>
<text text-anchor="middle" x="120" y="-465.5" font-family="Helvetica,sans-Serif" font-size="10.00">ByteBuffer</text>
<polyline fill="none" stroke="#bfbfbf" points="88.5,-458.5 151.5,-458.5 "/>
<text text-anchor="middle" x="120" y="-446.5" font-family="Helvetica,sans-Serif" font-size="10.00"> </text>
<polyline fill="none" stroke="#bfbfbf" points="88.5,-439.5 151.5,-439.5 "/>
<text text-anchor="middle" x="120" y="-427.5" font-family="Helvetica,sans-Serif" font-size="10.00"> </text>
</g>
<!-- Node4&#45;&gt;Node3 -->
<g id="edge3" class="edge"><title>Node4&#45;&gt;Node3</title>
<path fill="none" stroke="#404040" d="M130.286,-420.455C134.981,-408.053 140.671,-393.251 146,-380 146.939,-377.664 147.898,-375.297 148.869,-372.909"/>
<polygon fill="none" stroke="#404040" points="148.941,-372.734 147.517,-365.664 153.495,-361.631 154.919,-368.7 148.941,-372.734"/>
<text text-anchor="middle" x="163" y="-388.5" font-family="Helvetica,sans-Serif" font-size="10.00"> &#45;array_</text>
</g>
<!-- Node5 -->
<g id="node5" class="node"><title>Node5</title>
<polygon fill="white" stroke="#bfbfbf" points="169.5,-420.5 169.5,-477.5 198.5,-477.5 198.5,-420.5 169.5,-420.5"/>
<text text-anchor="middle" x="184" y="-465.5" font-family="Helvetica,sans-Serif" font-size="10.00">int</text>
<polyline fill="none" stroke="#bfbfbf" points="169.5,-458.5 198.5,-458.5 "/>
<text text-anchor="middle" x="184" y="-446.5" font-family="Helvetica,sans-Serif" font-size="10.00"> </text>
<polyline fill="none" stroke="#bfbfbf" points="169.5,-439.5 198.5,-439.5 "/>
<text text-anchor="middle" x="184" y="-427.5" font-family="Helvetica,sans-Serif" font-size="10.00"> </text>
</g>
<!-- Node5&#45;&gt;Node3 -->
<g id="edge4" class="edge"><title>Node5&#45;&gt;Node3</title>
<path fill="none" stroke="#404040" d="M184,-420.479C184,-407.317 184,-390.778 184,-373.939"/>
<polygon fill="none" stroke="#404040" points="184,-373.668 180,-367.668 184,-361.668 188,-367.668 184,-373.668"/>
<text text-anchor="middle" x="261.5" y="-394" font-family="Helvetica,sans-Serif" font-size="10.00"> +STRING_VALUE_LEN_OFFSET</text>
<text text-anchor="middle" x="261.5" y="-383" font-family="Helvetica,sans-Serif" font-size="10.00">&#45;bufferCapacity_</text>
</g>
<!-- Node6 -->
<g id="node6" class="node"><title>Node6</title>
<polygon fill="white" stroke="#bfbfbf" points="344.5,-420.5 344.5,-477.5 379.5,-477.5 379.5,-420.5 344.5,-420.5"/>
<text text-anchor="middle" x="362" y="-465.5" font-family="Helvetica,sans-Serif" font-size="10.00">long</text>
<polyline fill="none" stroke="#bfbfbf" points="344.5,-458.5 379.5,-458.5 "/>
<text text-anchor="middle" x="362" y="-446.5" font-family="Helvetica,sans-Serif" font-size="10.00"> </text>
<polyline fill="none" stroke="#bfbfbf" points="344.5,-439.5 379.5,-439.5 "/>
<text text-anchor="middle" x="362" y="-427.5" font-family="Helvetica,sans-Serif" font-size="10.00"> </text>
</g>
<!-- Node6&#45;&gt;Node3 -->
<g id="edge5" class="edge"><title>Node6&#45;&gt;Node3</title>
<path fill="none" stroke="#404040" d="M357.821,-420.283C354.694,-406.98 349.287,-391.479 340,-380 323.957,-360.169 302.296,-343.838 280.228,-330.789"/>
<polygon fill="none" stroke="#404040" points="280.171,-330.757 272.979,-331.275 269.733,-324.836 276.926,-324.317 280.171,-330.757"/>
<text text-anchor="middle" x="384.5" y="-394" font-family="Helvetica,sans-Serif" font-size="10.00"> &#45;stringValPtr_</text>
<text text-anchor="middle" x="384.5" y="-383" font-family="Helvetica,sans-Serif" font-size="10.00">&#45;bufferPtr_</text>
</g>
</g>
</svg>
        <g id="navigator" transform="translate(0 0)" fill="#404254">
                <rect fill="#f2f5e9" fill-opacity="0.5" stroke="#606060" stroke-width=".5" x="0" y="0" width="60" height="60"/>
                <use id="zoomplus" xlink:href="#zoomPlus" x="17" y="9" onmousedown="handleZoom(evt,'in')"/>
                <use id="zoomminus" xlink:href="#zoomMin" x="42" y="9" onmousedown="handleZoom(evt,'out')"/>
                <use id="reset" xlink:href="#resetDef" x="30" y="36" onmousedown="handleReset()"/>
                <g id="arrowUp" xlink:href="#dirArrow" transform="translate(30 24)" onmousedown="handlePan(0,-1)">
                  <use xlink:href="#rim" fill="#404040">
                        <set attributeName="fill" to="#808080" begin="arrowUp.mouseover" end="arrowUp.mouseout"/>
                  </use>
                  <path fill="none" stroke="white" stroke-width="1.5" d="M0,-3.0v7 M-2.5,-0.5L0,-3.0L2.5,-0.5"/>
                </g>
                <g id="arrowRight" xlink:href="#dirArrow" transform="rotate(90) translate(36 -43)" onmousedown="handlePan(1,0)">
                  <use xlink:href="#rim" fill="#404040">
                        <set attributeName="fill" to="#808080" begin="arrowRight.mouseover" end="arrowRight.mouseout"/>
                  </use>
                  <path fill="none" stroke="white" stroke-width="1.5" d="M0,-3.0v7 M-2.5,-0.5L0,-3.0L2.5,-0.5"/>
                </g>
                <g id="arrowDown" xlink:href="#dirArrow" transform="rotate(180) translate(-30 -48)" onmousedown="handlePan(0,1)">
                  <use xlink:href="#rim" fill="#404040">
                        <set attributeName="fill" to="#808080" begin="arrowDown.mouseover" end="arrowDown.mouseout"/>
                  </use>
                  <path fill="none" stroke="white" stroke-width="1.5" d="M0,-3.0v7 M-2.5,-0.5L0,-3.0L2.5,-0.5"/>
                </g>
                <g id="arrowLeft" xlink:href="#dirArrow" transform="rotate(270) translate(-36 17)" onmousedown="handlePan(-1,0)">
                  <use xlink:href="#rim" fill="#404040">
                        <set attributeName="fill" to="#808080" begin="arrowLeft.mouseover" end="arrowLeft.mouseout"/>
                  </use>
                  <path fill="none" stroke="white" stroke-width="1.5" d="M0,-3.0v7 M-2.5,-0.5L0,-3.0L2.5,-0.5"/>
                </g>
        </g>
        <svg viewBox="0 0 15 15" width="100%" height="30px" preserveAspectRatio="xMaxYMin meet">
         <g id="arrow_out" transform="scale(0.3 0.3)">
          <a xlink:href="classcom_1_1cloudera_1_1impala_1_1hive_1_1executor_1_1ImpalaBytesWritable__coll__graph_org.svg" target="_base">
           <rect id="button" ry="5" rx="5" y="6" x="6" height="38" width="38"
                fill="#f2f5e9" fill-opacity="0.5" stroke="#606060" stroke-width="1.0"/>
           <path id="arrow"
             d="M 11.500037,31.436501 C 11.940474,20.09759 22.043105,11.32322 32.158766,21.979434 L 37.068811,17.246167 C 37.068811,17.246167 37.088388,32 37.088388,32 L 22.160133,31.978069 C 22.160133,31.978069 26.997745,27.140456 26.997745,27.140456 C 18.528582,18.264221 13.291696,25.230495 11.500037,31.436501 z"
             style="fill:#404040;"/>
          </a>
         </g>
        </svg>
</svg>
