<?xml version="1.0" encoding="UTF-8" standalone="no"?>
<!DOCTYPE svg PUBLIC "-//W3C//DTD SVG 1.1//EN"
 "http://www.w3.org/Graphics/SVG/1.1/DTD/svg11.dtd">
<!-- Generated by graphviz version 2.36.0 (20140111.2315)
 -->
<!-- Title: TestServer Pages: 1 -->
<svg width="118pt" height="194pt"
 viewBox="0.00 0.00 118.00 194.00" xmlns="http://www.w3.org/2000/svg" xmlns:xlink="http://www.w3.org/1999/xlink">
<g id="graph0" class="graph" transform="scale(1 1) rotate(0) translate(4 190)">
<title>TestServer</title>
<polygon fill="white" stroke="none" points="-4,4 -4,-190 114,-190 114,4 -4,4"/>
<!-- Node1 -->
<g id="node1" class="node"><title>Node1</title>
<polygon fill="#bfbfbf" stroke="black" points="12,-1 12,-91 98,-91 98,-1 12,-1"/>
<text text-anchor="middle" x="55" y="-79" font-family="Helvetica,sans-Serif" font-size="10.00">TestServer</text>
<polyline fill="none" stroke="black" points="12,-72 98,-72 "/>
<text text-anchor="middle" x="55" y="-60" font-family="Helvetica,sans-Serif" font-size="10.00"> </text>
<polyline fill="none" stroke="black" points="12,-53 98,-53 "/>
<text text-anchor="start" x="20" y="-41" font-family="Helvetica,sans-Serif" font-size="10.00">+ TestServer()</text>
<text text-anchor="start" x="20" y="-30" font-family="Helvetica,sans-Serif" font-size="10.00">+ ~TestServer()</text>
<text text-anchor="start" x="20" y="-19" font-family="Helvetica,sans-Serif" font-size="10.00">+ Send()</text>
<text text-anchor="start" x="20" y="-8" font-family="Helvetica,sans-Serif" font-size="10.00">+ Server()</text>
</g>
<!-- Node2 -->
<g id="node2" class="node"><title>Node2</title>
<g id="a_node2"><a xlink:href="classNetworkTestServiceIf.html" target="_top" xlink:title="{NetworkTestServiceIf\n||}">
<polygon fill="white" stroke="black" points="-1,-128.5 -1,-185.5 111,-185.5 111,-128.5 -1,-128.5"/>
<text text-anchor="middle" x="55" y="-173.5" font-family="Helvetica,sans-Serif" font-size="10.00">NetworkTestServiceIf</text>
<polyline fill="none" stroke="black" points="-1,-166.5 111,-166.5 "/>
<text text-anchor="middle" x="55" y="-154.5" font-family="Helvetica,sans-Serif" font-size="10.00"> </text>
<polyline fill="none" stroke="black" points="-1,-147.5 111,-147.5 "/>
<text text-anchor="middle" x="55" y="-135.5" font-family="Helvetica,sans-Serif" font-size="10.00"> </text>
</a>
</g>
</g>
<!-- Node2&#45;&gt;Node1 -->
<g id="edge1" class="edge"><title>Node2&#45;&gt;Node1</title>
<path fill="none" stroke="midnightblue" d="M55,-118.484C55,-109.643 55,-100.139 55,-91.0399"/>
<polygon fill="none" stroke="midnightblue" points="51.5001,-118.495 55,-128.495 58.5001,-118.495 51.5001,-118.495"/>
</g>
</g>
</svg>
