<?xml version="1.0" encoding="UTF-8" standalone="no"?>
<!DOCTYPE svg PUBLIC "-//W3C//DTD SVG 1.1//EN"
 "http://www.w3.org/Graphics/SVG/1.1/DTD/svg11.dtd">
<!-- Generated by graphviz version 2.36.0 (20140111.2315)
 -->
<!-- Title: sasl::SaslException Pages: 1 -->
<svg width="325pt" height="254pt"
 viewBox="0.00 0.00 325.00 254.00" xmlns="http://www.w3.org/2000/svg" xmlns:xlink="http://www.w3.org/1999/xlink">
<g id="graph0" class="graph" transform="scale(1 1) rotate(0) translate(4 250)">
<title>sasl::SaslException</title>
<polygon fill="white" stroke="none" points="-4,4 -4,-250 321,-250 321,4 -4,4"/>
<!-- Node1 -->
<g id="node1" class="node"><title>Node1</title>
<polygon fill="#bfbfbf" stroke="black" points="106,-94.5 106,-151.5 210,-151.5 210,-94.5 106,-94.5"/>
<text text-anchor="middle" x="158" y="-139.5" font-family="Helvetica,sans-Serif" font-size="10.00">sasl::SaslException</text>
<polyline fill="none" stroke="black" points="106,-132.5 210,-132.5 "/>
<text text-anchor="middle" x="158" y="-120.5" font-family="Helvetica,sans-Serif" font-size="10.00"> </text>
<polyline fill="none" stroke="black" points="106,-113.5 210,-113.5 "/>
<text text-anchor="start" x="114" y="-101.5" font-family="Helvetica,sans-Serif" font-size="10.00">+ SaslException()</text>
</g>
<!-- Node3 -->
<g id="node3" class="node"><title>Node3</title>
<g id="a_node3"><a xlink:href="classsasl_1_1SaslClientImplException.html" target="_top" xlink:title="{sasl::SaslClientImplException\n||+ SaslClientImplException()\l}">
<polygon fill="white" stroke="black" points="0,-0.5 0,-57.5 148,-57.5 148,-0.5 0,-0.5"/>
<text text-anchor="middle" x="74" y="-45.5" font-family="Helvetica,sans-Serif" font-size="10.00">sasl::SaslClientImplException</text>
<polyline fill="none" stroke="black" points="0,-38.5 148,-38.5 "/>
<text text-anchor="middle" x="74" y="-26.5" font-family="Helvetica,sans-Serif" font-size="10.00"> </text>
<polyline fill="none" stroke="black" points="0,-19.5 148,-19.5 "/>
<text text-anchor="start" x="8" y="-7.5" font-family="Helvetica,sans-Serif" font-size="10.00">+ SaslClientImplException()</text>
</a>
</g>
</g>
<!-- Node1&#45;&gt;Node3 -->
<g id="edge2" class="edge"><title>Node1&#45;&gt;Node3</title>
<path fill="none" stroke="midnightblue" d="M125.872,-86.8124C117.032,-77.1299 107.572,-66.7699 99.185,-57.5836"/>
<polygon fill="none" stroke="midnightblue" points="123.47,-89.372 132.797,-94.397 128.639,-84.6521 123.47,-89.372"/>
</g>
<!-- Node4 -->
<g id="node4" class="node"><title>Node4</title>
<g id="a_node4"><a xlink:href="classsasl_1_1SaslServerImplException.html" target="_top" xlink:title="{sasl::SaslServerImplException\n||+ SaslServerImplException()\l}">
<polygon fill="white" stroke="black" points="166.5,-0.5 166.5,-57.5 317.5,-57.5 317.5,-0.5 166.5,-0.5"/>
<text text-anchor="middle" x="242" y="-45.5" font-family="Helvetica,sans-Serif" font-size="10.00">sasl::SaslServerImplException</text>
<polyline fill="none" stroke="black" points="166.5,-38.5 317.5,-38.5 "/>
<text text-anchor="middle" x="242" y="-26.5" font-family="Helvetica,sans-Serif" font-size="10.00"> </text>
<polyline fill="none" stroke="black" points="166.5,-19.5 317.5,-19.5 "/>
<text text-anchor="start" x="174.5" y="-7.5" font-family="Helvetica,sans-Serif" font-size="10.00">+ SaslServerImplException()</text>
</a>
</g>
</g>
<!-- Node1&#45;&gt;Node4 -->
<g id="edge3" class="edge"><title>Node1&#45;&gt;Node4</title>
<path fill="none" stroke="midnightblue" d="M190.128,-86.8124C198.968,-77.1299 208.428,-66.7699 216.815,-57.5836"/>
<polygon fill="none" stroke="midnightblue" points="187.361,-84.6521 183.203,-94.397 192.53,-89.372 187.361,-84.6521"/>
</g>
<!-- Node2 -->
<g id="node2" class="node"><title>Node2</title>
<g id="a_node2"><a xlink:href="classTTransportException.html" target="_top" xlink:title="{TTransportException\n||}">
<polygon fill="white" stroke="black" points="104.5,-188.5 104.5,-245.5 211.5,-245.5 211.5,-188.5 104.5,-188.5"/>
<text text-anchor="middle" x="158" y="-233.5" font-family="Helvetica,sans-Serif" font-size="10.00">TTransportException</text>
<polyline fill="none" stroke="black" points="104.5,-226.5 211.5,-226.5 "/>
<text text-anchor="middle" x="158" y="-214.5" font-family="Helvetica,sans-Serif" font-size="10.00"> </text>
<polyline fill="none" stroke="black" points="104.5,-207.5 211.5,-207.5 "/>
<text text-anchor="middle" x="158" y="-195.5" font-family="Helvetica,sans-Serif" font-size="10.00"> </text>
</a>
</g>
</g>
<!-- Node2&#45;&gt;Node1 -->
<g id="edge1" class="edge"><title>Node2&#45;&gt;Node1</title>
<path fill="none" stroke="midnightblue" d="M158,-178.209C158,-169.293 158,-159.951 158,-151.584"/>
<polygon fill="none" stroke="midnightblue" points="154.5,-178.397 158,-188.397 161.5,-178.397 154.5,-178.397"/>
</g>
</g>
</svg>
