<?xml version="1.0" encoding="UTF-8" standalone="no"?>
<!DOCTYPE svg PUBLIC "-//W3C//DTD SVG 1.1//EN"
 "http://www.w3.org/Graphics/SVG/1.1/DTD/svg11.dtd">
<!-- Generated by graphviz version 2.36.0 (20140111.2315)
 -->
<!-- Title: com.cloudera.impala.planner.DataStreamSink Pages: 1 -->
<svg width="152pt" height="304pt"
 viewBox="0.00 0.00 152.00 304.00" xmlns="http://www.w3.org/2000/svg" xmlns:xlink="http://www.w3.org/1999/xlink">
<g id="graph0" class="graph" transform="scale(1 1) rotate(0) translate(4 300)">
<title>com.cloudera.impala.planner.DataStreamSink</title>
<polygon fill="white" stroke="none" points="-4,4 -4,-300 148,-300 148,4 -4,4"/>
<!-- Node1 -->
<g id="node1" class="node"><title>Node1</title>
<polygon fill="#bfbfbf" stroke="black" points="0,-1 0,-113 144,-113 144,-1 0,-1"/>
<text text-anchor="start" x="8" y="-101" font-family="Helvetica,sans-Serif" font-size="10.00">com.cloudera.impala.planner.</text>
<text text-anchor="middle" x="72" y="-90" font-family="Helvetica,sans-Serif" font-size="10.00">DataStreamSink</text>
<polyline fill="none" stroke="black" points="0,-83 144,-83 "/>
<text text-anchor="start" x="8" y="-71" font-family="Helvetica,sans-Serif" font-size="10.00">&#45; exchNode_</text>
<text text-anchor="start" x="8" y="-60" font-family="Helvetica,sans-Serif" font-size="10.00">&#45; outputPartition_</text>
<polyline fill="none" stroke="black" points="0,-53 144,-53 "/>
<text text-anchor="start" x="8" y="-41" font-family="Helvetica,sans-Serif" font-size="10.00">+ DataStreamSink()</text>
<text text-anchor="start" x="8" y="-30" font-family="Helvetica,sans-Serif" font-size="10.00">+ getExplainString()</text>
<text text-anchor="start" x="8" y="-19" font-family="Helvetica,sans-Serif" font-size="10.00">+ getOutputPartition()</text>
<text text-anchor="start" x="8" y="-8" font-family="Helvetica,sans-Serif" font-size="10.00"># toThrift()</text>
</g>
<!-- Node2 -->
<g id="node2" class="node"><title>Node2</title>
<g id="a_node2"><a xlink:href="classcom_1_1cloudera_1_1impala_1_1planner_1_1DataSink.html" target="_top" xlink:title="{com.cloudera.impala.planner.\lDataSink\n|# perHostMemCost_\l# fragment_\l|+ getExplainString()\l+ setFragment()\l+ getFragment()\l+ getPerHostMemCost()\l+ computeCosts()\l+ createDataSink()\l# toThrift()\l}">
<polygon fill="white" stroke="black" points="0,-150.5 0,-295.5 144,-295.5 144,-150.5 0,-150.5"/>
<text text-anchor="start" x="8" y="-283.5" font-family="Helvetica,sans-Serif" font-size="10.00">com.cloudera.impala.planner.</text>
<text text-anchor="middle" x="72" y="-272.5" font-family="Helvetica,sans-Serif" font-size="10.00">DataSink</text>
<polyline fill="none" stroke="black" points="0,-265.5 144,-265.5 "/>
<text text-anchor="start" x="8" y="-253.5" font-family="Helvetica,sans-Serif" font-size="10.00"># perHostMemCost_</text>
<text text-anchor="start" x="8" y="-242.5" font-family="Helvetica,sans-Serif" font-size="10.00"># fragment_</text>
<polyline fill="none" stroke="black" points="0,-235.5 144,-235.5 "/>
<text text-anchor="start" x="8" y="-223.5" font-family="Helvetica,sans-Serif" font-size="10.00">+ getExplainString()</text>
<text text-anchor="start" x="8" y="-212.5" font-family="Helvetica,sans-Serif" font-size="10.00">+ setFragment()</text>
<text text-anchor="start" x="8" y="-201.5" font-family="Helvetica,sans-Serif" font-size="10.00">+ getFragment()</text>
<text text-anchor="start" x="8" y="-190.5" font-family="Helvetica,sans-Serif" font-size="10.00">+ getPerHostMemCost()</text>
<text text-anchor="start" x="8" y="-179.5" font-family="Helvetica,sans-Serif" font-size="10.00">+ computeCosts()</text>
<text text-anchor="start" x="8" y="-168.5" font-family="Helvetica,sans-Serif" font-size="10.00">+ createDataSink()</text>
<text text-anchor="start" x="8" y="-157.5" font-family="Helvetica,sans-Serif" font-size="10.00"># toThrift()</text>
</a>
</g>
</g>
<!-- Node2&#45;&gt;Node1 -->
<g id="edge1" class="edge"><title>Node2&#45;&gt;Node1</title>
<path fill="none" stroke="midnightblue" d="M72,-139.855C72,-130.789 72,-121.726 72,-113.109"/>
<polygon fill="none" stroke="midnightblue" points="68.5001,-140.067 72,-150.067 75.5001,-140.067 68.5001,-140.067"/>
</g>
</g>
</svg>
