<?xml version="1.0" encoding="UTF-8" standalone="no"?>
<!DOCTYPE svg PUBLIC "-//W3C//DTD SVG 1.1//EN"
 "http://www.w3.org/Graphics/SVG/1.1/DTD/svg11.dtd">
<!-- Generated by graphviz version 2.36.0 (20140111.2315)
 -->
<!-- Title: impala::ClientCache&lt; T &gt; Pages: 1 -->
<svg width="914pt" height="510pt"
 viewBox="0.00 0.00 914.00 510.00" xmlns="http://www.w3.org/2000/svg" xmlns:xlink="http://www.w3.org/1999/xlink">
<g id="graph0" class="graph" transform="scale(1 1) rotate(0) translate(4 506)">
<title>impala::ClientCache&lt; T &gt;</title>
<polygon fill="white" stroke="none" points="-4,4 -4,-506 910,-506 910,4 -4,4"/>
<!-- Node1 -->
<g id="node1" class="node"><title>Node1</title>
<polygon fill="#bfbfbf" stroke="black" points="277.5,-1 277.5,-157 406.5,-157 406.5,-1 277.5,-1"/>
<text text-anchor="middle" x="342" y="-145" font-family="Helvetica,sans-Serif" font-size="10.00">impala::ClientCache&lt; T &gt;</text>
<polyline fill="none" stroke="black" points="277.5,-138 406.5,-138 "/>
<text text-anchor="middle" x="342" y="-126" font-family="Helvetica,sans-Serif" font-size="10.00"> </text>
<polyline fill="none" stroke="black" points="277.5,-119 406.5,-119 "/>
<text text-anchor="start" x="285.5" y="-107" font-family="Helvetica,sans-Serif" font-size="10.00">+ ClientCache()</text>
<text text-anchor="start" x="285.5" y="-96" font-family="Helvetica,sans-Serif" font-size="10.00">+ ClientCache()</text>
<text text-anchor="start" x="285.5" y="-85" font-family="Helvetica,sans-Serif" font-size="10.00">+ CloseConnections()</text>
<text text-anchor="start" x="285.5" y="-74" font-family="Helvetica,sans-Serif" font-size="10.00">+ DebugString()</text>
<text text-anchor="start" x="285.5" y="-63" font-family="Helvetica,sans-Serif" font-size="10.00">+ TestShutdown()</text>
<text text-anchor="start" x="285.5" y="-52" font-family="Helvetica,sans-Serif" font-size="10.00">+ InitMetrics()</text>
<text text-anchor="start" x="285.5" y="-41" font-family="Helvetica,sans-Serif" font-size="10.00">&#45; GetClient()</text>
<text text-anchor="start" x="285.5" y="-30" font-family="Helvetica,sans-Serif" font-size="10.00">&#45; ReopenClient()</text>
<text text-anchor="start" x="285.5" y="-19" font-family="Helvetica,sans-Serif" font-size="10.00">&#45; ReleaseClient()</text>
<text text-anchor="start" x="285.5" y="-8" font-family="Helvetica,sans-Serif" font-size="10.00">&#45; MakeClient()</text>
</g>
<!-- Node2 -->
<g id="node2" class="node"><title>Node2</title>
<polygon fill="white" stroke="#bfbfbf" points="192,-239.5 192,-318.5 362,-318.5 362,-239.5 192,-239.5"/>
<text text-anchor="start" x="200" y="-306.5" font-family="Helvetica,sans-Serif" font-size="10.00">function&lt; ThriftClientImpl</text>
<text text-anchor="start" x="200" y="-295.5" font-family="Helvetica,sans-Serif" font-size="10.00"> *(const TNetworkAddress</text>
<text text-anchor="middle" x="277" y="-284.5" font-family="Helvetica,sans-Serif" font-size="10.00"> &amp;address, ClientKey *client_key)&gt;</text>
<polyline fill="none" stroke="#bfbfbf" points="192,-277.5 362,-277.5 "/>
<text text-anchor="middle" x="277" y="-265.5" font-family="Helvetica,sans-Serif" font-size="10.00"> </text>
<polyline fill="none" stroke="#bfbfbf" points="192,-258.5 362,-258.5 "/>
<text text-anchor="middle" x="277" y="-246.5" font-family="Helvetica,sans-Serif" font-size="10.00"> </text>
</g>
<!-- Node2&#45;&gt;Node1 -->
<g id="edge1" class="edge"><title>Node2&#45;&gt;Node1</title>
<path fill="none" stroke="#404040" d="M289.687,-239.354C296.321,-219.145 304.736,-193.511 312.867,-168.743"/>
<polygon fill="none" stroke="#404040" points="312.958,-168.467 311.029,-161.519 316.701,-157.066 318.63,-164.014 312.958,-168.467"/>
<text text-anchor="middle" x="345" y="-179.5" font-family="Helvetica,sans-Serif" font-size="10.00"> &#45;client_factory_</text>
</g>
<!-- Node3 -->
<g id="node3" class="node"><title>Node3</title>
<g id="a_node3"><a xlink:href="classimpala_1_1ClientCacheHelper.html" target="_top" xlink:title="This class is thread&#45;safe. ">
<polygon fill="white" stroke="black" points="380,-206.5 380,-351.5 514,-351.5 514,-206.5 380,-206.5"/>
<text text-anchor="middle" x="447" y="-339.5" font-family="Helvetica,sans-Serif" font-size="10.00">impala::ClientCacheHelper</text>
<polyline fill="none" stroke="black" points="380,-332.5 514,-332.5 "/>
<text text-anchor="middle" x="447" y="-320.5" font-family="Helvetica,sans-Serif" font-size="10.00"> </text>
<polyline fill="none" stroke="black" points="380,-313.5 514,-313.5 "/>
<text text-anchor="start" x="388" y="-301.5" font-family="Helvetica,sans-Serif" font-size="10.00">+ GetClient()</text>
<text text-anchor="start" x="388" y="-290.5" font-family="Helvetica,sans-Serif" font-size="10.00">+ ReopenClient()</text>
<text text-anchor="start" x="388" y="-279.5" font-family="Helvetica,sans-Serif" font-size="10.00">+ ReleaseClient()</text>
<text text-anchor="start" x="388" y="-268.5" font-family="Helvetica,sans-Serif" font-size="10.00">+ CloseConnections()</text>
<text text-anchor="start" x="388" y="-257.5" font-family="Helvetica,sans-Serif" font-size="10.00">+ DebugString()</text>
<text text-anchor="start" x="388" y="-246.5" font-family="Helvetica,sans-Serif" font-size="10.00">+ TestShutdown()</text>
<text text-anchor="start" x="388" y="-235.5" font-family="Helvetica,sans-Serif" font-size="10.00">+ InitMetrics()</text>
<text text-anchor="start" x="388" y="-224.5" font-family="Helvetica,sans-Serif" font-size="10.00">&#45; ClientCacheHelper()</text>
<text text-anchor="start" x="388" y="-213.5" font-family="Helvetica,sans-Serif" font-size="10.00">&#45; CreateClient()</text>
</a>
</g>
</g>
<!-- Node3&#45;&gt;Node1 -->
<g id="edge2" class="edge"><title>Node3&#45;&gt;Node1</title>
<path fill="none" stroke="#404040" d="M408.944,-206.238C402.342,-193.787 395.408,-180.713 388.609,-167.891"/>
<polygon fill="none" stroke="#404040" points="388.561,-167.8 382.216,-164.374 382.939,-157.199 389.284,-160.625 388.561,-167.8"/>
<text text-anchor="middle" x="447" y="-179.5" font-family="Helvetica,sans-Serif" font-size="10.00"> &#45;client_cache_helper_</text>
</g>
<!-- Node4 -->
<g id="node4" class="node"><title>Node4</title>
<polygon fill="white" stroke="#bfbfbf" points="0,-433 0,-501 162,-501 162,-433 0,-433"/>
<text text-anchor="start" x="8" y="-489" font-family="Helvetica,sans-Serif" font-size="10.00">map&lt; ClientKey, boost</text>
<text text-anchor="middle" x="81" y="-478" font-family="Helvetica,sans-Serif" font-size="10.00">::shared_ptr&lt; ThriftClientImpl &gt; &gt;</text>
<polyline fill="none" stroke="#bfbfbf" points="0,-471 162,-471 "/>
<text text-anchor="middle" x="81" y="-459" font-family="Helvetica,sans-Serif" font-size="10.00"> </text>
<polyline fill="none" stroke="#bfbfbf" points="0,-452 162,-452 "/>
<text text-anchor="middle" x="81" y="-440" font-family="Helvetica,sans-Serif" font-size="10.00"> </text>
</g>
<!-- Node4&#45;&gt;Node3 -->
<g id="edge3" class="edge"><title>Node4&#45;&gt;Node3</title>
<path fill="none" stroke="#404040" d="M93.0496,-432.567C102.748,-410.847 118.649,-384.048 142,-370 183.007,-345.33 307.401,-369.325 368.494,-351.652"/>
<polygon fill="none" stroke="#404040" points="368.547,-351.633 372.82,-345.825 379.826,-347.535 375.552,-353.344 368.547,-351.633"/>
<text text-anchor="middle" x="171.5" y="-389.5" font-family="Helvetica,sans-Serif" font-size="10.00"> &#45;client_map_</text>
</g>
<!-- Node5 -->
<g id="node5" class="node"><title>Node5</title>
<g id="a_node5"><a xlink:href="classuint64__t.html" target="_top" xlink:title="{uint64_t\n||}">
<polygon fill="white" stroke="black" points="180.5,-438.5 180.5,-495.5 231.5,-495.5 231.5,-438.5 180.5,-438.5"/>
<text text-anchor="middle" x="206" y="-483.5" font-family="Helvetica,sans-Serif" font-size="10.00">uint64_t</text>
<polyline fill="none" stroke="black" points="180.5,-476.5 231.5,-476.5 "/>
<text text-anchor="middle" x="206" y="-464.5" font-family="Helvetica,sans-Serif" font-size="10.00"> </text>
<polyline fill="none" stroke="black" points="180.5,-457.5 231.5,-457.5 "/>
<text text-anchor="middle" x="206" y="-445.5" font-family="Helvetica,sans-Serif" font-size="10.00"> </text>
</a>
</g>
</g>
<!-- Node5&#45;&gt;Node3 -->
<g id="edge4" class="edge"><title>Node5&#45;&gt;Node3</title>
<path fill="none" stroke="#404040" d="M202.813,-438.356C201.973,-416.621 204.813,-387.227 223,-370 244.94,-349.219 325.043,-363.105 368.343,-351.492"/>
<polygon fill="none" stroke="#404040" points="368.464,-351.449 372.748,-345.648 379.75,-347.371 375.467,-353.172 368.464,-351.449"/>
<text text-anchor="middle" x="247.5" y="-389.5" font-family="Helvetica,sans-Serif" font-size="10.00"> &#45;wait_ms_</text>
</g>
<!-- Node6 -->
<g id="node6" class="node"><title>Node6</title>
<polygon fill="white" stroke="#bfbfbf" points="255,-438.5 255,-495.5 301,-495.5 301,-438.5 255,-438.5"/>
<text text-anchor="middle" x="278" y="-483.5" font-family="Helvetica,sans-Serif" font-size="10.00">int32_t</text>
<polyline fill="none" stroke="#bfbfbf" points="255,-476.5 301,-476.5 "/>
<text text-anchor="middle" x="278" y="-464.5" font-family="Helvetica,sans-Serif" font-size="10.00"> </text>
<polyline fill="none" stroke="#bfbfbf" points="255,-457.5 301,-457.5 "/>
<text text-anchor="middle" x="278" y="-445.5" font-family="Helvetica,sans-Serif" font-size="10.00"> </text>
</g>
<!-- Node6&#45;&gt;Node3 -->
<g id="edge5" class="edge"><title>Node6&#45;&gt;Node3</title>
<path fill="none" stroke="#404040" d="M274.654,-438.482C273.668,-417.112 276.106,-388.152 293,-370 314.871,-346.499 335.257,-364.453 368.343,-352.127"/>
<polygon fill="none" stroke="#404040" points="368.648,-351.987 372.426,-345.845 379.549,-346.97 375.77,-353.112 368.648,-351.987"/>
<text text-anchor="middle" x="337.5" y="-395" font-family="Helvetica,sans-Serif" font-size="10.00"> &#45;send_timeout_ms_</text>
<text text-anchor="middle" x="337.5" y="-384" font-family="Helvetica,sans-Serif" font-size="10.00">&#45;recv_timeout_ms_</text>
</g>
<!-- Node7 -->
<g id="node7" class="node"><title>Node7</title>
<polygon fill="white" stroke="#bfbfbf" points="358.5,-438.5 358.5,-495.5 421.5,-495.5 421.5,-438.5 358.5,-438.5"/>
<text text-anchor="middle" x="390" y="-483.5" font-family="Helvetica,sans-Serif" font-size="10.00">IntGauge *</text>
<polyline fill="none" stroke="#bfbfbf" points="358.5,-476.5 421.5,-476.5 "/>
<text text-anchor="middle" x="390" y="-464.5" font-family="Helvetica,sans-Serif" font-size="10.00"> </text>
<polyline fill="none" stroke="#bfbfbf" points="358.5,-457.5 421.5,-457.5 "/>
<text text-anchor="middle" x="390" y="-445.5" font-family="Helvetica,sans-Serif" font-size="10.00"> </text>
</g>
<!-- Node7&#45;&gt;Node3 -->
<g id="edge6" class="edge"><title>Node7&#45;&gt;Node3</title>
<path fill="none" stroke="#404040" d="M386.375,-438.11C384.781,-418.634 384.519,-392.243 391,-370 391.704,-367.584 392.492,-365.17 393.354,-362.764"/>
<polygon fill="none" stroke="#404040" points="393.376,-362.709 391.922,-355.646 397.882,-351.588 399.336,-358.651 393.376,-362.709"/>
<text text-anchor="start" x="391" y="-406" font-family="Helvetica,sans-Serif" font-size="10.00"> &#45;total_clients_metric</text>
<text text-anchor="middle" x="436.5" y="-395" font-family="Helvetica,sans-Serif" font-size="10.00">_</text>
<text text-anchor="start" x="391" y="-384" font-family="Helvetica,sans-Serif" font-size="10.00">&#45;clients_in_use</text>
<text text-anchor="middle" x="436.5" y="-373" font-family="Helvetica,sans-Serif" font-size="10.00">_metric_</text>
</g>
<!-- Node8 -->
<g id="node8" class="node"><title>Node8</title>
<polygon fill="white" stroke="#bfbfbf" points="478.5,-438.5 478.5,-495.5 529.5,-495.5 529.5,-438.5 478.5,-438.5"/>
<text text-anchor="middle" x="504" y="-483.5" font-family="Helvetica,sans-Serif" font-size="10.00">uint32_t</text>
<polyline fill="none" stroke="#bfbfbf" points="478.5,-476.5 529.5,-476.5 "/>
<text text-anchor="middle" x="504" y="-464.5" font-family="Helvetica,sans-Serif" font-size="10.00"> </text>
<polyline fill="none" stroke="#bfbfbf" points="478.5,-457.5 529.5,-457.5 "/>
<text text-anchor="middle" x="504" y="-445.5" font-family="Helvetica,sans-Serif" font-size="10.00"> </text>
</g>
<!-- Node8&#45;&gt;Node3 -->
<g id="edge7" class="edge"><title>Node8&#45;&gt;Node3</title>
<path fill="none" stroke="#404040" d="M498.788,-438.409C494.866,-419.069 488.98,-392.719 482,-370 481.317,-367.776 480.605,-365.53 479.869,-363.268"/>
<polygon fill="none" stroke="#404040" points="479.864,-363.252 474.152,-358.851 476.018,-351.885 481.73,-356.287 479.864,-363.252"/>
<text text-anchor="middle" x="521.5" y="-389.5" font-family="Helvetica,sans-Serif" font-size="10.00"> &#45;num_tries_</text>
</g>
<!-- Node9 -->
<g id="node9" class="node"><title>Node9</title>
<polygon fill="white" stroke="#bfbfbf" points="560,-438.5 560,-495.5 604,-495.5 604,-438.5 560,-438.5"/>
<text text-anchor="middle" x="582" y="-483.5" font-family="Helvetica,sans-Serif" font-size="10.00">mutex</text>
<polyline fill="none" stroke="#bfbfbf" points="560,-476.5 604,-476.5 "/>
<text text-anchor="middle" x="582" y="-464.5" font-family="Helvetica,sans-Serif" font-size="10.00"> </text>
<polyline fill="none" stroke="#bfbfbf" points="560,-457.5 604,-457.5 "/>
<text text-anchor="middle" x="582" y="-445.5" font-family="Helvetica,sans-Serif" font-size="10.00"> </text>
</g>
<!-- Node9&#45;&gt;Node3 -->
<g id="edge8" class="edge"><title>Node9&#45;&gt;Node3</title>
<path fill="none" stroke="#404040" d="M577.931,-438.145C573.992,-417.954 566.551,-390.678 553,-370 544.804,-357.493 534.368,-345.769 523.257,-335.182"/>
<polygon fill="none" stroke="#404040" points="523.093,-335.033 515.965,-333.941 514.231,-326.942 521.359,-328.033 523.093,-335.033"/>
<text text-anchor="middle" x="611.5" y="-395" font-family="Helvetica,sans-Serif" font-size="10.00"> &#45;cache_lock_</text>
<text text-anchor="middle" x="611.5" y="-384" font-family="Helvetica,sans-Serif" font-size="10.00">&#45;client_map_lock_</text>
</g>
<!-- Node10 -->
<g id="node10" class="node"><title>Node10</title>
<g id="a_node10"><a xlink:href="classbool.html" target="_top" xlink:title="{bool\n||}">
<polygon fill="white" stroke="black" points="666.5,-438.5 666.5,-495.5 701.5,-495.5 701.5,-438.5 666.5,-438.5"/>
<text text-anchor="middle" x="684" y="-483.5" font-family="Helvetica,sans-Serif" font-size="10.00">bool</text>
<polyline fill="none" stroke="black" points="666.5,-476.5 701.5,-476.5 "/>
<text text-anchor="middle" x="684" y="-464.5" font-family="Helvetica,sans-Serif" font-size="10.00"> </text>
<polyline fill="none" stroke="black" points="666.5,-457.5 701.5,-457.5 "/>
<text text-anchor="middle" x="684" y="-445.5" font-family="Helvetica,sans-Serif" font-size="10.00"> </text>
</a>
</g>
</g>
<!-- Node10&#45;&gt;Node3 -->
<g id="edge9" class="edge"><title>Node10&#45;&gt;Node3</title>
<path fill="none" stroke="#404040" d="M681.845,-438.136C678.869,-417.143 671.796,-388.847 655,-370 621.55,-332.463 569.668,-309.976 526.09,-296.866"/>
<polygon fill="none" stroke="#404040" points="525.869,-296.803 518.998,-298.992 514.334,-293.492 521.205,-291.303 525.869,-296.803"/>
<text text-anchor="middle" x="718.5" y="-389.5" font-family="Helvetica,sans-Serif" font-size="10.00"> &#45;metrics_enabled_</text>
</g>
<!-- Node11 -->
<g id="node11" class="node"><title>Node11</title>
<polygon fill="white" stroke="#bfbfbf" points="719.5,-433 719.5,-501 906.5,-501 906.5,-433 719.5,-433"/>
<text text-anchor="start" x="727.5" y="-489" font-family="Helvetica,sans-Serif" font-size="10.00">unordered_map&lt; TNetworkAddress,</text>
<text text-anchor="middle" x="813" y="-478" font-family="Helvetica,sans-Serif" font-size="10.00"> boost::shared_ptr&lt; PerHostCache &gt; &gt;</text>
<polyline fill="none" stroke="#bfbfbf" points="719.5,-471 906.5,-471 "/>
<text text-anchor="middle" x="813" y="-459" font-family="Helvetica,sans-Serif" font-size="10.00"> </text>
<polyline fill="none" stroke="#bfbfbf" points="719.5,-452 906.5,-452 "/>
<text text-anchor="middle" x="813" y="-440" font-family="Helvetica,sans-Serif" font-size="10.00"> </text>
</g>
<!-- Node11&#45;&gt;Node3 -->
<g id="edge10" class="edge"><title>Node11&#45;&gt;Node3</title>
<path fill="none" stroke="#404040" d="M803.59,-432.681C796.078,-411.856 783.519,-386.036 764,-370 696.236,-314.328 595.959,-293.059 526.406,-284.953"/>
<polygon fill="none" stroke="#404040" points="526.154,-284.925 519.757,-288.255 514.224,-283.63 520.621,-280.301 526.154,-284.925"/>
<text text-anchor="middle" x="838" y="-389.5" font-family="Helvetica,sans-Serif" font-size="10.00"> &#45;per_host_caches_</text>
</g>
</g>
</svg>
