<?xml version="1.0" encoding="UTF-8" standalone="no"?>
<!DOCTYPE svg PUBLIC "-//W3C//DTD SVG 1.1//EN"
 "http://www.w3.org/Graphics/SVG/1.1/DTD/svg11.dtd">
<!-- Generated by graphviz version 2.36.0 (20140111.2315)
 -->
<!-- Title: impala::TcmallocMetric Pages: 1 -->
<svg width="190pt" height="226pt"
 viewBox="0.00 0.00 190.00 226.00" xmlns="http://www.w3.org/2000/svg" xmlns:xlink="http://www.w3.org/1999/xlink">
<g id="graph0" class="graph" transform="scale(1 1) rotate(0) translate(4 222)">
<title>impala::TcmallocMetric</title>
<polygon fill="white" stroke="none" points="-4,4 -4,-222 186,-222 186,4 -4,4"/>
<!-- Node1 -->
<g id="node1" class="node"><title>Node1</title>
<polygon fill="#bfbfbf" stroke="black" points="0,-0.5 0,-123.5 182,-123.5 182,-0.5 0,-0.5"/>
<text text-anchor="middle" x="91" y="-111.5" font-family="Helvetica,sans-Serif" font-size="10.00">impala::TcmallocMetric</text>
<polyline fill="none" stroke="black" points="0,-104.5 182,-104.5 "/>
<text text-anchor="start" x="8" y="-92.5" font-family="Helvetica,sans-Serif" font-size="10.00">+ BYTES_IN_USE</text>
<text text-anchor="start" x="8" y="-81.5" font-family="Helvetica,sans-Serif" font-size="10.00">+ TOTAL_BYTES_RESERVED</text>
<text text-anchor="start" x="8" y="-70.5" font-family="Helvetica,sans-Serif" font-size="10.00">+ PAGEHEAP_FREE_BYTES</text>
<text text-anchor="start" x="8" y="-59.5" font-family="Helvetica,sans-Serif" font-size="10.00">+ PAGEHEAP_UNMAPPED_BYTES</text>
<text text-anchor="start" x="8" y="-48.5" font-family="Helvetica,sans-Serif" font-size="10.00">+ PHYSICAL_BYTES_RESERVED</text>
<text text-anchor="start" x="8" y="-37.5" font-family="Helvetica,sans-Serif" font-size="10.00">&#45; tcmalloc_var_</text>
<polyline fill="none" stroke="black" points="0,-30.5 182,-30.5 "/>
<text text-anchor="start" x="8" y="-18.5" font-family="Helvetica,sans-Serif" font-size="10.00">+ TcmallocMetric()</text>
<text text-anchor="start" x="8" y="-7.5" font-family="Helvetica,sans-Serif" font-size="10.00">&#45; CalculateValue()</text>
</g>
<!-- Node2 -->
<g id="node2" class="node"><title>Node2</title>
<g id="a_node2"><a xlink:href="classUIntGauge.html" target="_top" xlink:title="{UIntGauge\n||}">
<polygon fill="white" stroke="black" points="59,-160.5 59,-217.5 123,-217.5 123,-160.5 59,-160.5"/>
<text text-anchor="middle" x="91" y="-205.5" font-family="Helvetica,sans-Serif" font-size="10.00">UIntGauge</text>
<polyline fill="none" stroke="black" points="59,-198.5 123,-198.5 "/>
<text text-anchor="middle" x="91" y="-186.5" font-family="Helvetica,sans-Serif" font-size="10.00"> </text>
<polyline fill="none" stroke="black" points="59,-179.5 123,-179.5 "/>
<text text-anchor="middle" x="91" y="-167.5" font-family="Helvetica,sans-Serif" font-size="10.00"> </text>
</a>
</g>
</g>
<!-- Node2&#45;&gt;Node1 -->
<g id="edge1" class="edge"><title>Node2&#45;&gt;Node1</title>
<path fill="none" stroke="midnightblue" d="M91,-150.099C91,-141.739 91,-132.68 91,-123.672"/>
<polygon fill="none" stroke="midnightblue" points="87.5001,-150.258 91,-160.258 94.5001,-150.258 87.5001,-150.258"/>
</g>
</g>
</svg>
