<?xml version="1.0" encoding="UTF-8" standalone="no"?>
<!DOCTYPE svg PUBLIC "-//W3C//DTD SVG 1.1//EN"
 "http://www.w3.org/Graphics/SVG/1.1/DTD/svg11.dtd">
<!-- Generated by graphviz version 2.36.0 (20140111.2315)
 -->
<!-- Title: com.cloudera.impala.analysis.FunctionArgs Pages: 1 -->
<!--zoomable 282 -->
<svg id="main" version="1.1" xmlns="http://www.w3.org/2000/svg" xmlns:xlink="http://www.w3.org/1999/xlink" xml:space="preserve" onload="init(evt)">
<style type="text/css"><![CDATA[
.edge:hover path { stroke: red; }
.edge:hover polygon { stroke: red; fill: red; }
]]></style>
<script type="text/javascript"><![CDATA[
var edges = document.getElementsByTagName('g');
if (edges && edges.length) {
  for (var i=0;i<edges.length;i++) {
    if (edges[i].id.substr(0,4)=='edge') {
      edges[i].setAttribute('class','edge');
    }
  }
}
]]></script>
        <defs>
                <circle id="rim" cx="0" cy="0" r="7"/>
                <circle id="rim2" cx="0" cy="0" r="3.5"/>
                <g id="zoomPlus">
                        <use xlink:href="#rim" fill="#404040">
                                <set attributeName="fill" to="#808080" begin="zoomplus.mouseover" end="zoomplus.mouseout"/>
                        </use>
                        <path d="M-4,0h8M0,-4v8" fill="none" stroke="white" stroke-width="1.5" pointer-events="none"/>
                </g>
                <g id="zoomMin">
                        <use xlink:href="#rim" fill="#404040">
                                <set attributeName="fill" to="#808080" begin="zoomminus.mouseover" end="zoomminus.mouseout"/>
                        </use>
                        <path d="M-4,0h8" fill="none" stroke="white" stroke-width="1.5" pointer-events="none"/>
                </g>
                <g id="dirArrow">
                        <path fill="none" stroke="white" stroke-width="1.5" d="M0,-3.0v7 M-2.5,-0.5L0,-3.0L2.5,-0.5"/>
                </g>
               <g id="resetDef">
                       <use xlink:href="#rim2" fill="#404040">
                               <set attributeName="fill" to="#808080" begin="reset.mouseover" end="reset.mouseout"/>
                       </use>
               </g>
        </defs>

<script type="text/javascript">
var viewWidth = 650;
var viewHeight = 282;
var sectionId = 'dynsection-1';
</script>
<script xlink:href="svgpan.js"/>
<svg id="graph" class="graph">
<g id="viewport">
<title>com.cloudera.impala.analysis.FunctionArgs</title>
<polygon fill="white" stroke="none" points="-4,4 -4,-278 646,-278 646,4 -4,4"/>
<!-- Node1 -->
<g id="node1" class="node"><title>Node1</title>
<polygon fill="#bfbfbf" stroke="black" points="257.5,-0.5 257.5,-145.5 406.5,-145.5 406.5,-0.5 257.5,-0.5"/>
<text text-anchor="start" x="265.5" y="-133.5" font-family="Helvetica,sans-Serif" font-size="10.00">com.cloudera.impala.analysis.</text>
<text text-anchor="middle" x="332" y="-122.5" font-family="Helvetica,sans-Serif" font-size="10.00">FunctionArgs</text>
<polyline fill="none" stroke="black" points="257.5,-115.5 406.5,-115.5 "/>
<text text-anchor="middle" x="332" y="-103.5" font-family="Helvetica,sans-Serif" font-size="10.00"> </text>
<polyline fill="none" stroke="black" points="257.5,-96.5 406.5,-96.5 "/>
<text text-anchor="start" x="265.5" y="-84.5" font-family="Helvetica,sans-Serif" font-size="10.00">+ FunctionArgs()</text>
<text text-anchor="start" x="265.5" y="-73.5" font-family="Helvetica,sans-Serif" font-size="10.00">+ FunctionArgs()</text>
<text text-anchor="start" x="265.5" y="-62.5" font-family="Helvetica,sans-Serif" font-size="10.00">+ setHasVarArgs()</text>
<text text-anchor="start" x="265.5" y="-51.5" font-family="Helvetica,sans-Serif" font-size="10.00">+ analyze()</text>
<text text-anchor="start" x="265.5" y="-40.5" font-family="Helvetica,sans-Serif" font-size="10.00">+ getArgTypeDefs()</text>
<text text-anchor="start" x="265.5" y="-29.5" font-family="Helvetica,sans-Serif" font-size="10.00">+ getArgTypes()</text>
<text text-anchor="start" x="265.5" y="-18.5" font-family="Helvetica,sans-Serif" font-size="10.00">+ hasVarArgs()</text>
<text text-anchor="start" x="265.5" y="-7.5" font-family="Helvetica,sans-Serif" font-size="10.00">+ toSql()</text>
</g>
<!-- Node2 -->
<g id="node2" class="node"><title>Node2</title>
<g id="a_node2"><a xlink:href="interfacecom_1_1cloudera_1_1impala_1_1analysis_1_1ParseNode.html" target="_top" xlink:title="{com.cloudera.impala.analysis.\lParseNode\n||+ analyze()\l+ toSql()\l}">
<polygon fill="white" stroke="black" points="-0.5,-194.5 -0.5,-273.5 148.5,-273.5 148.5,-194.5 -0.5,-194.5"/>
<text text-anchor="start" x="7.5" y="-261.5" font-family="Helvetica,sans-Serif" font-size="10.00">com.cloudera.impala.analysis.</text>
<text text-anchor="middle" x="74" y="-250.5" font-family="Helvetica,sans-Serif" font-size="10.00">ParseNode</text>
<polyline fill="none" stroke="black" points="-0.5,-243.5 148.5,-243.5 "/>
<text text-anchor="middle" x="74" y="-231.5" font-family="Helvetica,sans-Serif" font-size="10.00"> </text>
<polyline fill="none" stroke="black" points="-0.5,-224.5 148.5,-224.5 "/>
<text text-anchor="start" x="7.5" y="-212.5" font-family="Helvetica,sans-Serif" font-size="10.00">+ analyze()</text>
<text text-anchor="start" x="7.5" y="-201.5" font-family="Helvetica,sans-Serif" font-size="10.00">+ toSql()</text>
</a>
</g>
</g>
<!-- Node2&#45;&gt;Node1 -->
<g id="edge1" class="edge"><title>Node2&#45;&gt;Node1</title>
<path fill="none" stroke="midnightblue" d="M145.482,-188.947C180.325,-167.474 222.207,-141.663 257.449,-119.944"/>
<polygon fill="none" stroke="midnightblue" points="143.461,-186.081 136.784,-194.308 147.133,-192.041 143.461,-186.081"/>
</g>
<!-- Node3 -->
<g id="node3" class="node"><title>Node3</title>
<polygon fill="white" stroke="#bfbfbf" points="167,-200 167,-268 359,-268 359,-200 167,-200"/>
<text text-anchor="start" x="175" y="-256" font-family="Helvetica,sans-Serif" font-size="10.00">ArrayList&lt; com.cloudera.impala.catalog.</text>
<text text-anchor="middle" x="263" y="-245" font-family="Helvetica,sans-Serif" font-size="10.00">Type &gt;</text>
<polyline fill="none" stroke="#bfbfbf" points="167,-238 359,-238 "/>
<text text-anchor="middle" x="263" y="-226" font-family="Helvetica,sans-Serif" font-size="10.00"> </text>
<polyline fill="none" stroke="#bfbfbf" points="167,-219 359,-219 "/>
<text text-anchor="middle" x="263" y="-207" font-family="Helvetica,sans-Serif" font-size="10.00"> </text>
</g>
<!-- Node3&#45;&gt;Node1 -->
<g id="edge2" class="edge"><title>Node3&#45;&gt;Node1</title>
<path fill="none" stroke="#404040" d="M277.465,-199.668C282.966,-186.992 289.507,-171.918 296.117,-156.688"/>
<polygon fill="none" stroke="#404040" points="296.15,-156.611 294.869,-149.514 300.927,-145.603 302.208,-152.699 296.15,-156.611"/>
<text text-anchor="middle" x="318" y="-167.5" font-family="Helvetica,sans-Serif" font-size="10.00"> &#45;argTypes_</text>
</g>
<!-- Node4 -->
<g id="node4" class="node"><title>Node4</title>
<polygon fill="white" stroke="#bfbfbf" points="377,-205.5 377,-262.5 427,-262.5 427,-205.5 377,-205.5"/>
<text text-anchor="middle" x="402" y="-250.5" font-family="Helvetica,sans-Serif" font-size="10.00">boolean</text>
<polyline fill="none" stroke="#bfbfbf" points="377,-243.5 427,-243.5 "/>
<text text-anchor="middle" x="402" y="-231.5" font-family="Helvetica,sans-Serif" font-size="10.00"> </text>
<polyline fill="none" stroke="#bfbfbf" points="377,-224.5 427,-224.5 "/>
<text text-anchor="middle" x="402" y="-212.5" font-family="Helvetica,sans-Serif" font-size="10.00"> </text>
</g>
<!-- Node4&#45;&gt;Node1 -->
<g id="edge3" class="edge"><title>Node4&#45;&gt;Node1</title>
<path fill="none" stroke="#404040" d="M389.807,-205.304C383.83,-191.729 376.282,-174.584 368.63,-157.202"/>
<polygon fill="none" stroke="#404040" points="368.437,-156.764 362.358,-152.884 363.602,-145.781 369.68,-149.661 368.437,-156.764"/>
<text text-anchor="middle" x="407.5" y="-167.5" font-family="Helvetica,sans-Serif" font-size="10.00"> &#45;hasVarArgs_</text>
</g>
<!-- Node5 -->
<g id="node5" class="node"><title>Node5</title>
<polygon fill="white" stroke="#bfbfbf" points="445.5,-200 445.5,-268 642.5,-268 642.5,-200 445.5,-200"/>
<text text-anchor="start" x="453.5" y="-256" font-family="Helvetica,sans-Serif" font-size="10.00">ArrayList&lt; com.cloudera.impala.analysis.</text>
<text text-anchor="middle" x="544" y="-245" font-family="Helvetica,sans-Serif" font-size="10.00">TypeDef &gt;</text>
<polyline fill="none" stroke="#bfbfbf" points="445.5,-238 642.5,-238 "/>
<text text-anchor="middle" x="544" y="-226" font-family="Helvetica,sans-Serif" font-size="10.00"> </text>
<polyline fill="none" stroke="#bfbfbf" points="445.5,-219 642.5,-219 "/>
<text text-anchor="middle" x="544" y="-207" font-family="Helvetica,sans-Serif" font-size="10.00"> </text>
</g>
<!-- Node5&#45;&gt;Node1 -->
<g id="edge4" class="edge"><title>Node5&#45;&gt;Node1</title>
<path fill="none" stroke="#404040" d="M499.816,-199.862C475.612,-181.709 444.799,-158.599 416.199,-137.149"/>
<polygon fill="none" stroke="#404040" points="416.198,-137.148 408.998,-136.748 406.598,-129.948 413.798,-130.348 416.198,-137.148"/>
<text text-anchor="middle" x="498" y="-167.5" font-family="Helvetica,sans-Serif" font-size="10.00"> &#45;argTypeDefs_</text>
</g>
</g>
</svg>
        <g id="navigator" transform="translate(0 0)" fill="#404254">
                <rect fill="#f2f5e9" fill-opacity="0.5" stroke="#606060" stroke-width=".5" x="0" y="0" width="60" height="60"/>
                <use id="zoomplus" xlink:href="#zoomPlus" x="17" y="9" onmousedown="handleZoom(evt,'in')"/>
                <use id="zoomminus" xlink:href="#zoomMin" x="42" y="9" onmousedown="handleZoom(evt,'out')"/>
                <use id="reset" xlink:href="#resetDef" x="30" y="36" onmousedown="handleReset()"/>
                <g id="arrowUp" xlink:href="#dirArrow" transform="translate(30 24)" onmousedown="handlePan(0,-1)">
                  <use xlink:href="#rim" fill="#404040">
                        <set attributeName="fill" to="#808080" begin="arrowUp.mouseover" end="arrowUp.mouseout"/>
                  </use>
                  <path fill="none" stroke="white" stroke-width="1.5" d="M0,-3.0v7 M-2.5,-0.5L0,-3.0L2.5,-0.5"/>
                </g>
                <g id="arrowRight" xlink:href="#dirArrow" transform="rotate(90) translate(36 -43)" onmousedown="handlePan(1,0)">
                  <use xlink:href="#rim" fill="#404040">
                        <set attributeName="fill" to="#808080" begin="arrowRight.mouseover" end="arrowRight.mouseout"/>
                  </use>
                  <path fill="none" stroke="white" stroke-width="1.5" d="M0,-3.0v7 M-2.5,-0.5L0,-3.0L2.5,-0.5"/>
                </g>
                <g id="arrowDown" xlink:href="#dirArrow" transform="rotate(180) translate(-30 -48)" onmousedown="handlePan(0,1)">
                  <use xlink:href="#rim" fill="#404040">
                        <set attributeName="fill" to="#808080" begin="arrowDown.mouseover" end="arrowDown.mouseout"/>
                  </use>
                  <path fill="none" stroke="white" stroke-width="1.5" d="M0,-3.0v7 M-2.5,-0.5L0,-3.0L2.5,-0.5"/>
                </g>
                <g id="arrowLeft" xlink:href="#dirArrow" transform="rotate(270) translate(-36 17)" onmousedown="handlePan(-1,0)">
                  <use xlink:href="#rim" fill="#404040">
                        <set attributeName="fill" to="#808080" begin="arrowLeft.mouseover" end="arrowLeft.mouseout"/>
                  </use>
                  <path fill="none" stroke="white" stroke-width="1.5" d="M0,-3.0v7 M-2.5,-0.5L0,-3.0L2.5,-0.5"/>
                </g>
        </g>
        <svg viewBox="0 0 15 15" width="100%" height="30px" preserveAspectRatio="xMaxYMin meet">
         <g id="arrow_out" transform="scale(0.3 0.3)">
          <a xlink:href="classcom_1_1cloudera_1_1impala_1_1analysis_1_1FunctionArgs__coll__graph_org.svg" target="_base">
           <rect id="button" ry="5" rx="5" y="6" x="6" height="38" width="38"
                fill="#f2f5e9" fill-opacity="0.5" stroke="#606060" stroke-width="1.0"/>
           <path id="arrow"
             d="M 11.500037,31.436501 C 11.940474,20.09759 22.043105,11.32322 32.158766,21.979434 L 37.068811,17.246167 C 37.068811,17.246167 37.088388,32 37.088388,32 L 22.160133,31.978069 C 22.160133,31.978069 26.997745,27.140456 26.997745,27.140456 C 18.528582,18.264221 13.291696,25.230495 11.500037,31.436501 z"
             style="fill:#404040;"/>
          </a>
         </g>
        </svg>
</svg>
