<?xml version="1.0" encoding="UTF-8" standalone="no"?>
<!DOCTYPE svg PUBLIC "-//W3C//DTD SVG 1.1//EN"
 "http://www.w3.org/Graphics/SVG/1.1/DTD/svg11.dtd">
<!-- Generated by graphviz version 2.36.0 (20140111.2315)
 -->
<!-- Title: com.cloudera.impala.analysis.ShowFunctionsStmt Pages: 1 -->
<svg width="401pt" height="442pt"
 viewBox="0.00 0.00 401.00 442.00" xmlns="http://www.w3.org/2000/svg" xmlns:xlink="http://www.w3.org/1999/xlink">
<g id="graph0" class="graph" transform="scale(1 1) rotate(0) translate(4 438)">
<title>com.cloudera.impala.analysis.ShowFunctionsStmt</title>
<polygon fill="white" stroke="none" points="-4,4 -4,-438 397,-438 397,4 -4,4"/>
<!-- Node1 -->
<g id="node1" class="node"><title>Node1</title>
<polygon fill="#bfbfbf" stroke="black" points="170.5,-0.5 170.5,-123.5 319.5,-123.5 319.5,-0.5 170.5,-0.5"/>
<text text-anchor="start" x="178.5" y="-111.5" font-family="Helvetica,sans-Serif" font-size="10.00">com.cloudera.impala.analysis.</text>
<text text-anchor="middle" x="245" y="-100.5" font-family="Helvetica,sans-Serif" font-size="10.00">ShowFunctionsStmt</text>
<polyline fill="none" stroke="black" points="170.5,-93.5 319.5,-93.5 "/>
<text text-anchor="middle" x="245" y="-81.5" font-family="Helvetica,sans-Serif" font-size="10.00"> </text>
<polyline fill="none" stroke="black" points="170.5,-74.5 319.5,-74.5 "/>
<text text-anchor="start" x="178.5" y="-62.5" font-family="Helvetica,sans-Serif" font-size="10.00">+ ShowFunctionsStmt()</text>
<text text-anchor="start" x="178.5" y="-51.5" font-family="Helvetica,sans-Serif" font-size="10.00">+ getDb()</text>
<text text-anchor="start" x="178.5" y="-40.5" font-family="Helvetica,sans-Serif" font-size="10.00">+ getPattern()</text>
<text text-anchor="start" x="178.5" y="-29.5" font-family="Helvetica,sans-Serif" font-size="10.00">+ toSql()</text>
<text text-anchor="start" x="178.5" y="-18.5" font-family="Helvetica,sans-Serif" font-size="10.00">+ analyze()</text>
<text text-anchor="start" x="178.5" y="-7.5" font-family="Helvetica,sans-Serif" font-size="10.00">+ toThrift()</text>
</g>
<!-- Node2 -->
<g id="node2" class="node"><title>Node2</title>
<g id="a_node2"><a xlink:href="classcom_1_1cloudera_1_1impala_1_1analysis_1_1StatementBase.html" target="_top" xlink:title="{com.cloudera.impala.analysis.\lStatementBase\n||+ analyze()\l+ toSql()\l+ setIsExplain()\l+ isExplain()\l}">
<polygon fill="white" stroke="black" points="57.5,-204.5 57.5,-305.5 206.5,-305.5 206.5,-204.5 57.5,-204.5"/>
<text text-anchor="start" x="65.5" y="-293.5" font-family="Helvetica,sans-Serif" font-size="10.00">com.cloudera.impala.analysis.</text>
<text text-anchor="middle" x="132" y="-282.5" font-family="Helvetica,sans-Serif" font-size="10.00">StatementBase</text>
<polyline fill="none" stroke="black" points="57.5,-275.5 206.5,-275.5 "/>
<text text-anchor="middle" x="132" y="-263.5" font-family="Helvetica,sans-Serif" font-size="10.00"> </text>
<polyline fill="none" stroke="black" points="57.5,-256.5 206.5,-256.5 "/>
<text text-anchor="start" x="65.5" y="-244.5" font-family="Helvetica,sans-Serif" font-size="10.00">+ analyze()</text>
<text text-anchor="start" x="65.5" y="-233.5" font-family="Helvetica,sans-Serif" font-size="10.00">+ toSql()</text>
<text text-anchor="start" x="65.5" y="-222.5" font-family="Helvetica,sans-Serif" font-size="10.00">+ setIsExplain()</text>
<text text-anchor="start" x="65.5" y="-211.5" font-family="Helvetica,sans-Serif" font-size="10.00">+ isExplain()</text>
</a>
</g>
</g>
<!-- Node2&#45;&gt;Node1 -->
<g id="edge1" class="edge"><title>Node2&#45;&gt;Node1</title>
<path fill="none" stroke="midnightblue" d="M166.642,-195.445C180.103,-172.694 195.519,-146.635 209.098,-123.685"/>
<polygon fill="none" stroke="midnightblue" points="163.474,-193.927 161.394,-204.316 169.499,-197.491 163.474,-193.927"/>
</g>
<!-- Node3 -->
<g id="node3" class="node"><title>Node3</title>
<g id="a_node3"><a xlink:href="interfacecom_1_1cloudera_1_1impala_1_1analysis_1_1ParseNode.html" target="_top" xlink:title="{com.cloudera.impala.analysis.\lParseNode\n||+ analyze()\l+ toSql()\l}">
<polygon fill="white" stroke="black" points="-0.5,-354.5 -0.5,-433.5 148.5,-433.5 148.5,-354.5 -0.5,-354.5"/>
<text text-anchor="start" x="7.5" y="-421.5" font-family="Helvetica,sans-Serif" font-size="10.00">com.cloudera.impala.analysis.</text>
<text text-anchor="middle" x="74" y="-410.5" font-family="Helvetica,sans-Serif" font-size="10.00">ParseNode</text>
<polyline fill="none" stroke="black" points="-0.5,-403.5 148.5,-403.5 "/>
<text text-anchor="middle" x="74" y="-391.5" font-family="Helvetica,sans-Serif" font-size="10.00"> </text>
<polyline fill="none" stroke="black" points="-0.5,-384.5 148.5,-384.5 "/>
<text text-anchor="start" x="7.5" y="-372.5" font-family="Helvetica,sans-Serif" font-size="10.00">+ analyze()</text>
<text text-anchor="start" x="7.5" y="-361.5" font-family="Helvetica,sans-Serif" font-size="10.00">+ toSql()</text>
</a>
</g>
</g>
<!-- Node3&#45;&gt;Node2 -->
<g id="edge2" class="edge"><title>Node3&#45;&gt;Node2</title>
<path fill="none" stroke="midnightblue" d="M94.3451,-344.943C99.7521,-332.172 105.601,-318.356 111.04,-305.509"/>
<polygon fill="none" stroke="midnightblue" points="90.9862,-343.9 90.3106,-354.473 97.4323,-346.629 90.9862,-343.9"/>
</g>
<!-- Node4 -->
<g id="node4" class="node"><title>Node4</title>
<polygon fill="white" stroke="#bfbfbf" points="166,-365.5 166,-422.5 216,-422.5 216,-365.5 166,-365.5"/>
<text text-anchor="middle" x="191" y="-410.5" font-family="Helvetica,sans-Serif" font-size="10.00">boolean</text>
<polyline fill="none" stroke="#bfbfbf" points="166,-403.5 216,-403.5 "/>
<text text-anchor="middle" x="191" y="-391.5" font-family="Helvetica,sans-Serif" font-size="10.00"> </text>
<polyline fill="none" stroke="#bfbfbf" points="166,-384.5 216,-384.5 "/>
<text text-anchor="middle" x="191" y="-372.5" font-family="Helvetica,sans-Serif" font-size="10.00"> </text>
</g>
<!-- Node4&#45;&gt;Node2 -->
<g id="edge3" class="edge"><title>Node4&#45;&gt;Node2</title>
<path fill="none" stroke="#404040" d="M179.06,-365.276C173.011,-351.23 165.413,-333.587 158.098,-316.601"/>
<polygon fill="none" stroke="#404040" points="158.098,-316.6 152.051,-312.671 153.351,-305.578 159.398,-309.507 158.098,-316.6"/>
<text text-anchor="middle" x="193" y="-327.5" font-family="Helvetica,sans-Serif" font-size="10.00"> #isExplain_</text>
</g>
<!-- Node5 -->
<g id="node5" class="node"><title>Node5</title>
<polygon fill="white" stroke="#bfbfbf" points="224,-226.5 224,-283.5 266,-283.5 266,-226.5 224,-226.5"/>
<text text-anchor="middle" x="245" y="-271.5" font-family="Helvetica,sans-Serif" font-size="10.00">String</text>
<polyline fill="none" stroke="#bfbfbf" points="224,-264.5 266,-264.5 "/>
<text text-anchor="middle" x="245" y="-252.5" font-family="Helvetica,sans-Serif" font-size="10.00"> </text>
<polyline fill="none" stroke="#bfbfbf" points="224,-245.5 266,-245.5 "/>
<text text-anchor="middle" x="245" y="-233.5" font-family="Helvetica,sans-Serif" font-size="10.00"> </text>
</g>
<!-- Node5&#45;&gt;Node1 -->
<g id="edge4" class="edge"><title>Node5&#45;&gt;Node1</title>
<path fill="none" stroke="#404040" d="M245,-226.227C245,-202.57 245,-167.49 245,-135.907"/>
<polygon fill="none" stroke="#404040" points="245,-135.549 241,-129.549 245,-123.549 249,-129.549 245,-135.549"/>
<text text-anchor="middle" x="281.5" y="-178" font-family="Helvetica,sans-Serif" font-size="10.00"> &#45;parsedDb_</text>
<text text-anchor="start" x="245" y="-167" font-family="Helvetica,sans-Serif" font-size="10.00">&#45;postAnalysisDb</text>
<text text-anchor="middle" x="281.5" y="-156" font-family="Helvetica,sans-Serif" font-size="10.00">_</text>
<text text-anchor="middle" x="281.5" y="-145" font-family="Helvetica,sans-Serif" font-size="10.00">&#45;pattern_</text>
</g>
<!-- Node6 -->
<g id="node6" class="node"><title>Node6</title>
<polygon fill="white" stroke="#bfbfbf" points="291,-226.5 291,-283.5 391,-283.5 391,-226.5 291,-226.5"/>
<text text-anchor="middle" x="341" y="-271.5" font-family="Helvetica,sans-Serif" font-size="10.00">TFunctionCategory</text>
<polyline fill="none" stroke="#bfbfbf" points="291,-264.5 391,-264.5 "/>
<text text-anchor="middle" x="341" y="-252.5" font-family="Helvetica,sans-Serif" font-size="10.00"> </text>
<polyline fill="none" stroke="#bfbfbf" points="291,-245.5 391,-245.5 "/>
<text text-anchor="middle" x="341" y="-233.5" font-family="Helvetica,sans-Serif" font-size="10.00"> </text>
</g>
<!-- Node6&#45;&gt;Node1 -->
<g id="edge5" class="edge"><title>Node6&#45;&gt;Node1</title>
<path fill="none" stroke="#404040" d="M339.817,-226.372C337.844,-202.813 332.64,-168.632 319,-142 317.613,-139.292 316.106,-136.611 314.499,-133.964"/>
<polygon fill="none" stroke="#404040" points="314.483,-133.94 307.833,-131.15 307.85,-123.939 314.5,-126.729 314.483,-133.94"/>
<text text-anchor="middle" x="363" y="-161.5" font-family="Helvetica,sans-Serif" font-size="10.00"> &#45;fnCategory_</text>
</g>
</g>
</svg>
