<?xml version="1.0" encoding="UTF-8" standalone="no"?>
<!DOCTYPE svg PUBLIC "-//W3C//DTD SVG 1.1//EN"
 "http://www.w3.org/Graphics/SVG/1.1/DTD/svg11.dtd">
<!-- Generated by graphviz version 2.36.0 (20140111.2315)
 -->
<!-- Title: com.cloudera.impala.analysis.ResetMetadataStmt Pages: 1 -->
<!--zoomable 520 -->
<svg id="main" version="1.1" xmlns="http://www.w3.org/2000/svg" xmlns:xlink="http://www.w3.org/1999/xlink" xml:space="preserve" onload="init(evt)">
<style type="text/css"><![CDATA[
.edge:hover path { stroke: red; }
.edge:hover polygon { stroke: red; fill: red; }
]]></style>
<script type="text/javascript"><![CDATA[
var edges = document.getElementsByTagName('g');
if (edges && edges.length) {
  for (var i=0;i<edges.length;i++) {
    if (edges[i].id.substr(0,4)=='edge') {
      edges[i].setAttribute('class','edge');
    }
  }
}
]]></script>
        <defs>
                <circle id="rim" cx="0" cy="0" r="7"/>
                <circle id="rim2" cx="0" cy="0" r="3.5"/>
                <g id="zoomPlus">
                        <use xlink:href="#rim" fill="#404040">
                                <set attributeName="fill" to="#808080" begin="zoomplus.mouseover" end="zoomplus.mouseout"/>
                        </use>
                        <path d="M-4,0h8M0,-4v8" fill="none" stroke="white" stroke-width="1.5" pointer-events="none"/>
                </g>
                <g id="zoomMin">
                        <use xlink:href="#rim" fill="#404040">
                                <set attributeName="fill" to="#808080" begin="zoomminus.mouseover" end="zoomminus.mouseout"/>
                        </use>
                        <path d="M-4,0h8" fill="none" stroke="white" stroke-width="1.5" pointer-events="none"/>
                </g>
                <g id="dirArrow">
                        <path fill="none" stroke="white" stroke-width="1.5" d="M0,-3.0v7 M-2.5,-0.5L0,-3.0L2.5,-0.5"/>
                </g>
               <g id="resetDef">
                       <use xlink:href="#rim2" fill="#404040">
                               <set attributeName="fill" to="#808080" begin="reset.mouseover" end="reset.mouseout"/>
                       </use>
               </g>
        </defs>

<script type="text/javascript">
var viewWidth = 420;
var viewHeight = 520;
var sectionId = 'dynsection-1';
</script>
<script xlink:href="svgpan.js"/>
<svg id="graph" class="graph">
<g id="viewport">
<title>com.cloudera.impala.analysis.ResetMetadataStmt</title>
<polygon fill="white" stroke="none" points="-4,4 -4,-516 416,-516 416,4 -4,4"/>
<!-- Node1 -->
<g id="node1" class="node"><title>Node1</title>
<polygon fill="#bfbfbf" stroke="black" points="116.5,-0.5 116.5,-123.5 265.5,-123.5 265.5,-0.5 116.5,-0.5"/>
<text text-anchor="start" x="124.5" y="-111.5" font-family="Helvetica,sans-Serif" font-size="10.00">com.cloudera.impala.analysis.</text>
<text text-anchor="middle" x="191" y="-100.5" font-family="Helvetica,sans-Serif" font-size="10.00">ResetMetadataStmt</text>
<polyline fill="none" stroke="black" points="116.5,-93.5 265.5,-93.5 "/>
<text text-anchor="middle" x="191" y="-81.5" font-family="Helvetica,sans-Serif" font-size="10.00"> </text>
<polyline fill="none" stroke="black" points="116.5,-74.5 265.5,-74.5 "/>
<text text-anchor="start" x="124.5" y="-62.5" font-family="Helvetica,sans-Serif" font-size="10.00">+ ResetMetadataStmt()</text>
<text text-anchor="start" x="124.5" y="-51.5" font-family="Helvetica,sans-Serif" font-size="10.00">+ getTableName()</text>
<text text-anchor="start" x="124.5" y="-40.5" font-family="Helvetica,sans-Serif" font-size="10.00">+ isRefresh()</text>
<text text-anchor="start" x="124.5" y="-29.5" font-family="Helvetica,sans-Serif" font-size="10.00">+ analyze()</text>
<text text-anchor="start" x="124.5" y="-18.5" font-family="Helvetica,sans-Serif" font-size="10.00">+ toSql()</text>
<text text-anchor="start" x="124.5" y="-7.5" font-family="Helvetica,sans-Serif" font-size="10.00">+ toThrift()</text>
</g>
<!-- Node2 -->
<g id="node2" class="node"><title>Node2</title>
<g id="a_node2"><a xlink:href="classcom_1_1cloudera_1_1impala_1_1analysis_1_1StatementBase.html" target="_top" xlink:title="{com.cloudera.impala.analysis.\lStatementBase\n||+ analyze()\l+ toSql()\l+ setIsExplain()\l+ isExplain()\l}">
<polygon fill="white" stroke="black" points="6.5,-222.5 6.5,-323.5 155.5,-323.5 155.5,-222.5 6.5,-222.5"/>
<text text-anchor="start" x="14.5" y="-311.5" font-family="Helvetica,sans-Serif" font-size="10.00">com.cloudera.impala.analysis.</text>
<text text-anchor="middle" x="81" y="-300.5" font-family="Helvetica,sans-Serif" font-size="10.00">StatementBase</text>
<polyline fill="none" stroke="black" points="6.5,-293.5 155.5,-293.5 "/>
<text text-anchor="middle" x="81" y="-281.5" font-family="Helvetica,sans-Serif" font-size="10.00"> </text>
<polyline fill="none" stroke="black" points="6.5,-274.5 155.5,-274.5 "/>
<text text-anchor="start" x="14.5" y="-262.5" font-family="Helvetica,sans-Serif" font-size="10.00">+ analyze()</text>
<text text-anchor="start" x="14.5" y="-251.5" font-family="Helvetica,sans-Serif" font-size="10.00">+ toSql()</text>
<text text-anchor="start" x="14.5" y="-240.5" font-family="Helvetica,sans-Serif" font-size="10.00">+ setIsExplain()</text>
<text text-anchor="start" x="14.5" y="-229.5" font-family="Helvetica,sans-Serif" font-size="10.00">+ isExplain()</text>
</a>
</g>
</g>
<!-- Node2&#45;&gt;Node1 -->
<g id="edge1" class="edge"><title>Node2&#45;&gt;Node1</title>
<path fill="none" stroke="midnightblue" d="M111.745,-213.584C126.486,-185.577 144.133,-152.047 159.03,-123.743"/>
<polygon fill="none" stroke="midnightblue" points="108.629,-211.991 107.068,-222.47 114.823,-215.251 108.629,-211.991"/>
</g>
<!-- Node3 -->
<g id="node3" class="node"><title>Node3</title>
<g id="a_node3"><a xlink:href="interfacecom_1_1cloudera_1_1impala_1_1analysis_1_1ParseNode.html" target="_top" xlink:title="{com.cloudera.impala.analysis.\lParseNode\n||+ analyze()\l+ toSql()\l}">
<polygon fill="white" stroke="black" points="-0.5,-432.5 -0.5,-511.5 148.5,-511.5 148.5,-432.5 -0.5,-432.5"/>
<text text-anchor="start" x="7.5" y="-499.5" font-family="Helvetica,sans-Serif" font-size="10.00">com.cloudera.impala.analysis.</text>
<text text-anchor="middle" x="74" y="-488.5" font-family="Helvetica,sans-Serif" font-size="10.00">ParseNode</text>
<polyline fill="none" stroke="black" points="-0.5,-481.5 148.5,-481.5 "/>
<text text-anchor="middle" x="74" y="-469.5" font-family="Helvetica,sans-Serif" font-size="10.00"> </text>
<polyline fill="none" stroke="black" points="-0.5,-462.5 148.5,-462.5 "/>
<text text-anchor="start" x="7.5" y="-450.5" font-family="Helvetica,sans-Serif" font-size="10.00">+ analyze()</text>
<text text-anchor="start" x="7.5" y="-439.5" font-family="Helvetica,sans-Serif" font-size="10.00">+ toSql()</text>
</a>
</g>
</g>
<!-- Node3&#45;&gt;Node2 -->
<g id="edge2" class="edge"><title>Node3&#45;&gt;Node2</title>
<path fill="none" stroke="midnightblue" d="M75.7462,-421.856C76.8104,-391.909 78.1661,-353.754 79.2338,-323.705"/>
<polygon fill="none" stroke="midnightblue" points="72.2404,-421.961 75.383,-432.079 79.236,-422.21 72.2404,-421.961"/>
</g>
<!-- Node4 -->
<g id="node4" class="node"><title>Node4</title>
<polygon fill="white" stroke="#bfbfbf" points="166,-443.5 166,-500.5 216,-500.5 216,-443.5 166,-443.5"/>
<text text-anchor="middle" x="191" y="-488.5" font-family="Helvetica,sans-Serif" font-size="10.00">boolean</text>
<polyline fill="none" stroke="#bfbfbf" points="166,-481.5 216,-481.5 "/>
<text text-anchor="middle" x="191" y="-469.5" font-family="Helvetica,sans-Serif" font-size="10.00"> </text>
<polyline fill="none" stroke="#bfbfbf" points="166,-462.5 216,-462.5 "/>
<text text-anchor="middle" x="191" y="-450.5" font-family="Helvetica,sans-Serif" font-size="10.00"> </text>
</g>
<!-- Node4&#45;&gt;Node1 -->
<g id="edge6" class="edge"><title>Node4&#45;&gt;Node1</title>
<path fill="none" stroke="#404040" d="M191,-443.277C191,-380.861 191,-227.61 191,-135.84"/>
<polygon fill="none" stroke="#404040" points="191,-135.59 187,-129.59 191,-123.59 195,-129.59 191,-135.59"/>
<text text-anchor="middle" x="218" y="-270.5" font-family="Helvetica,sans-Serif" font-size="10.00"> &#45;isRefresh_</text>
</g>
<!-- Node4&#45;&gt;Node2 -->
<g id="edge3" class="edge"><title>Node4&#45;&gt;Node2</title>
<path fill="none" stroke="#404040" d="M169.154,-443.311C165.335,-439.269 161.223,-435.348 157,-432 143.602,-421.378 133.853,-427.212 123,-414 104.772,-391.81 94.4521,-361.88 88.6108,-335.389"/>
<polygon fill="none" stroke="#404040" points="88.5863,-335.266 83.486,-330.169 86.2298,-323.5 91.3302,-328.598 88.5863,-335.266"/>
<text text-anchor="middle" x="150" y="-400.5" font-family="Helvetica,sans-Serif" font-size="10.00"> #isExplain_</text>
</g>
<!-- Node5 -->
<g id="node5" class="node"><title>Node5</title>
<g id="a_node5"><a xlink:href="classcom_1_1cloudera_1_1impala_1_1analysis_1_1TableName.html" target="_top" xlink:title="{com.cloudera.impala.analysis.\lTableName\n||+ TableName()\l+ getDb()\l+ getTbl()\l+ isEmpty()\l+ analyze()\l+ isFullyQualified()\l+ toSql()\l+ toString()\l+ toPath()\l+ toThrift()\l+ equals()\l+ hashCode()\l+ fromThrift()\l}">
<polygon fill="white" stroke="black" points="263.5,-173 263.5,-373 412.5,-373 412.5,-173 263.5,-173"/>
<text text-anchor="start" x="271.5" y="-361" font-family="Helvetica,sans-Serif" font-size="10.00">com.cloudera.impala.analysis.</text>
<text text-anchor="middle" x="338" y="-350" font-family="Helvetica,sans-Serif" font-size="10.00">TableName</text>
<polyline fill="none" stroke="black" points="263.5,-343 412.5,-343 "/>
<text text-anchor="middle" x="338" y="-331" font-family="Helvetica,sans-Serif" font-size="10.00"> </text>
<polyline fill="none" stroke="black" points="263.5,-324 412.5,-324 "/>
<text text-anchor="start" x="271.5" y="-312" font-family="Helvetica,sans-Serif" font-size="10.00">+ TableName()</text>
<text text-anchor="start" x="271.5" y="-301" font-family="Helvetica,sans-Serif" font-size="10.00">+ getDb()</text>
<text text-anchor="start" x="271.5" y="-290" font-family="Helvetica,sans-Serif" font-size="10.00">+ getTbl()</text>
<text text-anchor="start" x="271.5" y="-279" font-family="Helvetica,sans-Serif" font-size="10.00">+ isEmpty()</text>
<text text-anchor="start" x="271.5" y="-268" font-family="Helvetica,sans-Serif" font-size="10.00">+ analyze()</text>
<text text-anchor="start" x="271.5" y="-257" font-family="Helvetica,sans-Serif" font-size="10.00">+ isFullyQualified()</text>
<text text-anchor="start" x="271.5" y="-246" font-family="Helvetica,sans-Serif" font-size="10.00">+ toSql()</text>
<text text-anchor="start" x="271.5" y="-235" font-family="Helvetica,sans-Serif" font-size="10.00">+ toString()</text>
<text text-anchor="start" x="271.5" y="-224" font-family="Helvetica,sans-Serif" font-size="10.00">+ toPath()</text>
<text text-anchor="start" x="271.5" y="-213" font-family="Helvetica,sans-Serif" font-size="10.00">+ toThrift()</text>
<text text-anchor="start" x="271.5" y="-202" font-family="Helvetica,sans-Serif" font-size="10.00">+ equals()</text>
<text text-anchor="start" x="271.5" y="-191" font-family="Helvetica,sans-Serif" font-size="10.00">+ hashCode()</text>
<text text-anchor="start" x="271.5" y="-180" font-family="Helvetica,sans-Serif" font-size="10.00">+ fromThrift()</text>
</a>
</g>
</g>
<!-- Node5&#45;&gt;Node1 -->
<g id="edge4" class="edge"><title>Node5&#45;&gt;Node1</title>
<path fill="none" stroke="#404040" d="M268.159,-172.703C258.865,-159.489 249.493,-146.164 240.639,-133.575"/>
<polygon fill="none" stroke="#404040" points="240.564,-133.469 233.841,-130.863 233.661,-123.654 240.384,-126.26 240.564,-133.469"/>
<text text-anchor="middle" x="281.5" y="-145.5" font-family="Helvetica,sans-Serif" font-size="10.00"> &#45;tableName_</text>
</g>
<!-- Node6 -->
<g id="node6" class="node"><title>Node6</title>
<polygon fill="white" stroke="#bfbfbf" points="317,-443.5 317,-500.5 359,-500.5 359,-443.5 317,-443.5"/>
<text text-anchor="middle" x="338" y="-488.5" font-family="Helvetica,sans-Serif" font-size="10.00">String</text>
<polyline fill="none" stroke="#bfbfbf" points="317,-481.5 359,-481.5 "/>
<text text-anchor="middle" x="338" y="-469.5" font-family="Helvetica,sans-Serif" font-size="10.00"> </text>
<polyline fill="none" stroke="#bfbfbf" points="317,-462.5 359,-462.5 "/>
<text text-anchor="middle" x="338" y="-450.5" font-family="Helvetica,sans-Serif" font-size="10.00"> </text>
</g>
<!-- Node6&#45;&gt;Node5 -->
<g id="edge5" class="edge"><title>Node6&#45;&gt;Node5</title>
<path fill="none" stroke="#404040" d="M338,-443.193C338,-427.532 338,-406.833 338,-385.303"/>
<polygon fill="none" stroke="#404040" points="338,-385.283 334,-379.283 338,-373.283 342,-379.283 338,-385.283"/>
<text text-anchor="middle" x="349" y="-406" font-family="Helvetica,sans-Serif" font-size="10.00"> &#45;db_</text>
<text text-anchor="middle" x="349" y="-395" font-family="Helvetica,sans-Serif" font-size="10.00">&#45;tbl_</text>
</g>
</g>
</svg>
        <g id="navigator" transform="translate(0 0)" fill="#404254">
                <rect fill="#f2f5e9" fill-opacity="0.5" stroke="#606060" stroke-width=".5" x="0" y="0" width="60" height="60"/>
                <use id="zoomplus" xlink:href="#zoomPlus" x="17" y="9" onmousedown="handleZoom(evt,'in')"/>
                <use id="zoomminus" xlink:href="#zoomMin" x="42" y="9" onmousedown="handleZoom(evt,'out')"/>
                <use id="reset" xlink:href="#resetDef" x="30" y="36" onmousedown="handleReset()"/>
                <g id="arrowUp" xlink:href="#dirArrow" transform="translate(30 24)" onmousedown="handlePan(0,-1)">
                  <use xlink:href="#rim" fill="#404040">
                        <set attributeName="fill" to="#808080" begin="arrowUp.mouseover" end="arrowUp.mouseout"/>
                  </use>
                  <path fill="none" stroke="white" stroke-width="1.5" d="M0,-3.0v7 M-2.5,-0.5L0,-3.0L2.5,-0.5"/>
                </g>
                <g id="arrowRight" xlink:href="#dirArrow" transform="rotate(90) translate(36 -43)" onmousedown="handlePan(1,0)">
                  <use xlink:href="#rim" fill="#404040">
                        <set attributeName="fill" to="#808080" begin="arrowRight.mouseover" end="arrowRight.mouseout"/>
                  </use>
                  <path fill="none" stroke="white" stroke-width="1.5" d="M0,-3.0v7 M-2.5,-0.5L0,-3.0L2.5,-0.5"/>
                </g>
                <g id="arrowDown" xlink:href="#dirArrow" transform="rotate(180) translate(-30 -48)" onmousedown="handlePan(0,1)">
                  <use xlink:href="#rim" fill="#404040">
                        <set attributeName="fill" to="#808080" begin="arrowDown.mouseover" end="arrowDown.mouseout"/>
                  </use>
                  <path fill="none" stroke="white" stroke-width="1.5" d="M0,-3.0v7 M-2.5,-0.5L0,-3.0L2.5,-0.5"/>
                </g>
                <g id="arrowLeft" xlink:href="#dirArrow" transform="rotate(270) translate(-36 17)" onmousedown="handlePan(-1,0)">
                  <use xlink:href="#rim" fill="#404040">
                        <set attributeName="fill" to="#808080" begin="arrowLeft.mouseover" end="arrowLeft.mouseout"/>
                  </use>
                  <path fill="none" stroke="white" stroke-width="1.5" d="M0,-3.0v7 M-2.5,-0.5L0,-3.0L2.5,-0.5"/>
                </g>
        </g>
        <svg viewBox="0 0 15 15" width="100%" height="30px" preserveAspectRatio="xMaxYMin meet">
         <g id="arrow_out" transform="scale(0.3 0.3)">
          <a xlink:href="classcom_1_1cloudera_1_1impala_1_1analysis_1_1ResetMetadataStmt__coll__graph_org.svg" target="_base">
           <rect id="button" ry="5" rx="5" y="6" x="6" height="38" width="38"
                fill="#f2f5e9" fill-opacity="0.5" stroke="#606060" stroke-width="1.0"/>
           <path id="arrow"
             d="M 11.500037,31.436501 C 11.940474,20.09759 22.043105,11.32322 32.158766,21.979434 L 37.068811,17.246167 C 37.068811,17.246167 37.088388,32 37.088388,32 L 22.160133,31.978069 C 22.160133,31.978069 26.997745,27.140456 26.997745,27.140456 C 18.528582,18.264221 13.291696,25.230495 11.500037,31.436501 z"
             style="fill:#404040;"/>
          </a>
         </g>
        </svg>
</svg>
