<?xml version="1.0" encoding="UTF-8" standalone="no"?>
<!DOCTYPE svg PUBLIC "-//W3C//DTD SVG 1.1//EN"
 "http://www.w3.org/Graphics/SVG/1.1/DTD/svg11.dtd">
<!-- Generated by graphviz version 2.36.0 (20140111.2315)
 -->
<!-- Title: com.cloudera.impala.common.AliasGenerator Pages: 1 -->
<svg width="363pt" height="206pt"
 viewBox="0.00 0.00 363.00 206.00" xmlns="http://www.w3.org/2000/svg" xmlns:xlink="http://www.w3.org/1999/xlink">
<g id="graph0" class="graph" transform="scale(1 1) rotate(0) translate(4 202)">
<title>com.cloudera.impala.common.AliasGenerator</title>
<polygon fill="white" stroke="none" points="-4,4 -4,-202 359,-202 359,4 -4,4"/>
<!-- Node1 -->
<g id="node1" class="node"><title>Node1</title>
<polygon fill="#bfbfbf" stroke="black" points="103,-107 103,-197 253,-197 253,-107 103,-107"/>
<text text-anchor="start" x="111" y="-185" font-family="Helvetica,sans-Serif" font-size="10.00">com.cloudera.impala.common.</text>
<text text-anchor="middle" x="178" y="-174" font-family="Helvetica,sans-Serif" font-size="10.00">AliasGenerator</text>
<polyline fill="none" stroke="black" points="103,-167 253,-167 "/>
<text text-anchor="start" x="111" y="-155" font-family="Helvetica,sans-Serif" font-size="10.00"># aliasPrefix_</text>
<text text-anchor="start" x="111" y="-144" font-family="Helvetica,sans-Serif" font-size="10.00"># usedAliases_</text>
<text text-anchor="start" x="111" y="-133" font-family="Helvetica,sans-Serif" font-size="10.00">&#45; numGeneratedAliases_</text>
<polyline fill="none" stroke="black" points="103,-126 253,-126 "/>
<text text-anchor="start" x="111" y="-114" font-family="Helvetica,sans-Serif" font-size="10.00">+ getNextAlias()</text>
</g>
<!-- Node2 -->
<g id="node2" class="node"><title>Node2</title>
<g id="a_node2"><a xlink:href="classcom_1_1cloudera_1_1impala_1_1common_1_1ColumnAliasGenerator.html" target="_top" xlink:title="{com.cloudera.impala.common.\lColumnAliasGenerator\n|&#45; DEFAULT_COL_ALIAS_PREFIX\l|+ ColumnAliasGenerator()\l}">
<polygon fill="white" stroke="black" points="0,-1 0,-69 170,-69 170,-1 0,-1"/>
<text text-anchor="start" x="8" y="-57" font-family="Helvetica,sans-Serif" font-size="10.00">com.cloudera.impala.common.</text>
<text text-anchor="middle" x="85" y="-46" font-family="Helvetica,sans-Serif" font-size="10.00">ColumnAliasGenerator</text>
<polyline fill="none" stroke="black" points="0,-39 170,-39 "/>
<text text-anchor="start" x="8" y="-27" font-family="Helvetica,sans-Serif" font-size="10.00">&#45; DEFAULT_COL_ALIAS_PREFIX</text>
<polyline fill="none" stroke="black" points="0,-20 170,-20 "/>
<text text-anchor="start" x="8" y="-8" font-family="Helvetica,sans-Serif" font-size="10.00">+ ColumnAliasGenerator()</text>
</a>
</g>
</g>
<!-- Node1&#45;&gt;Node2 -->
<g id="edge1" class="edge"><title>Node1&#45;&gt;Node2</title>
<path fill="none" stroke="midnightblue" d="M135.814,-98.8347C127.642,-88.7299 119.291,-78.4035 111.782,-69.1181"/>
<polygon fill="none" stroke="midnightblue" points="133.3,-101.292 142.31,-106.867 138.743,-96.8904 133.3,-101.292"/>
</g>
<!-- Node3 -->
<g id="node3" class="node"><title>Node3</title>
<g id="a_node3"><a xlink:href="classcom_1_1cloudera_1_1impala_1_1common_1_1TableAliasGenerator.html" target="_top" xlink:title="{com.cloudera.impala.common.\lTableAliasGenerator\n|&#45; DEFAULT_TBL_ALIAS_PREFIX\l|+ TableAliasGenerator()\l}">
<polygon fill="white" stroke="black" points="188.5,-1 188.5,-69 355.5,-69 355.5,-1 188.5,-1"/>
<text text-anchor="start" x="196.5" y="-57" font-family="Helvetica,sans-Serif" font-size="10.00">com.cloudera.impala.common.</text>
<text text-anchor="middle" x="272" y="-46" font-family="Helvetica,sans-Serif" font-size="10.00">TableAliasGenerator</text>
<polyline fill="none" stroke="black" points="188.5,-39 355.5,-39 "/>
<text text-anchor="start" x="196.5" y="-27" font-family="Helvetica,sans-Serif" font-size="10.00">&#45; DEFAULT_TBL_ALIAS_PREFIX</text>
<polyline fill="none" stroke="black" points="188.5,-20 355.5,-20 "/>
<text text-anchor="start" x="196.5" y="-8" font-family="Helvetica,sans-Serif" font-size="10.00">+ TableAliasGenerator()</text>
</a>
</g>
</g>
<!-- Node1&#45;&gt;Node3 -->
<g id="edge2" class="edge"><title>Node1&#45;&gt;Node3</title>
<path fill="none" stroke="midnightblue" d="M220.639,-98.8347C228.899,-88.7299 237.34,-78.4035 244.93,-69.1181"/>
<polygon fill="none" stroke="midnightblue" points="217.693,-96.9092 214.074,-106.867 223.113,-101.339 217.693,-96.9092"/>
</g>
</g>
</svg>
