<?xml version="1.0" encoding="UTF-8" standalone="no"?>
<!DOCTYPE svg PUBLIC "-//W3C//DTD SVG 1.1//EN"
 "http://www.w3.org/Graphics/SVG/1.1/DTD/svg11.dtd">
<!-- Generated by graphviz version 2.36.0 (20140111.2315)
 -->
<!-- Title: com.cloudera.impala.catalog.Role Pages: 1 -->
<!--zoomable 360 -->
<svg id="main" version="1.1" xmlns="http://www.w3.org/2000/svg" xmlns:xlink="http://www.w3.org/1999/xlink" xml:space="preserve" onload="init(evt)">
<style type="text/css"><![CDATA[
.edge:hover path { stroke: red; }
.edge:hover polygon { stroke: red; fill: red; }
]]></style>
<script type="text/javascript"><![CDATA[
var edges = document.getElementsByTagName('g');
if (edges && edges.length) {
  for (var i=0;i<edges.length;i++) {
    if (edges[i].id.substr(0,4)=='edge') {
      edges[i].setAttribute('class','edge');
    }
  }
}
]]></script>
        <defs>
                <circle id="rim" cx="0" cy="0" r="7"/>
                <circle id="rim2" cx="0" cy="0" r="3.5"/>
                <g id="zoomPlus">
                        <use xlink:href="#rim" fill="#404040">
                                <set attributeName="fill" to="#808080" begin="zoomplus.mouseover" end="zoomplus.mouseout"/>
                        </use>
                        <path d="M-4,0h8M0,-4v8" fill="none" stroke="white" stroke-width="1.5" pointer-events="none"/>
                </g>
                <g id="zoomMin">
                        <use xlink:href="#rim" fill="#404040">
                                <set attributeName="fill" to="#808080" begin="zoomminus.mouseover" end="zoomminus.mouseout"/>
                        </use>
                        <path d="M-4,0h8" fill="none" stroke="white" stroke-width="1.5" pointer-events="none"/>
                </g>
                <g id="dirArrow">
                        <path fill="none" stroke="white" stroke-width="1.5" d="M0,-3.0v7 M-2.5,-0.5L0,-3.0L2.5,-0.5"/>
                </g>
               <g id="resetDef">
                       <use xlink:href="#rim2" fill="#404040">
                               <set attributeName="fill" to="#808080" begin="reset.mouseover" end="reset.mouseout"/>
                       </use>
               </g>
        </defs>

<script type="text/javascript">
var viewWidth = 546;
var viewHeight = 360;
var sectionId = 'dynsection-1';
</script>
<script xlink:href="svgpan.js"/>
<svg id="graph" class="graph">
<g id="viewport">
<title>com.cloudera.impala.catalog.Role</title>
<polygon fill="white" stroke="none" points="-4,4 -4,-356 542,-356 542,4 -4,4"/>
<!-- Node1 -->
<g id="node1" class="node"><title>Node1</title>
<polygon fill="#bfbfbf" stroke="black" points="197,-0.5 197,-189.5 361,-189.5 361,-0.5 197,-0.5"/>
<text text-anchor="middle" x="279" y="-177.5" font-family="Helvetica,sans-Serif" font-size="10.00">com.cloudera.impala.catalog.Role</text>
<polyline fill="none" stroke="black" points="197,-170.5 361,-170.5 "/>
<text text-anchor="middle" x="279" y="-158.5" font-family="Helvetica,sans-Serif" font-size="10.00"> </text>
<polyline fill="none" stroke="black" points="197,-151.5 361,-151.5 "/>
<text text-anchor="start" x="205" y="-139.5" font-family="Helvetica,sans-Serif" font-size="10.00">+ Role()</text>
<text text-anchor="start" x="205" y="-128.5" font-family="Helvetica,sans-Serif" font-size="10.00">+ addPrivilege()</text>
<text text-anchor="start" x="205" y="-117.5" font-family="Helvetica,sans-Serif" font-size="10.00">+ getPrivileges()</text>
<text text-anchor="start" x="205" y="-106.5" font-family="Helvetica,sans-Serif" font-size="10.00">+ getPrivilegeNames()</text>
<text text-anchor="start" x="205" y="-95.5" font-family="Helvetica,sans-Serif" font-size="10.00">+ getPrivilege()</text>
<text text-anchor="start" x="205" y="-84.5" font-family="Helvetica,sans-Serif" font-size="10.00">+ removePrivilege()</text>
<text text-anchor="start" x="205" y="-73.5" font-family="Helvetica,sans-Serif" font-size="10.00">+ addGrantGroup()</text>
<text text-anchor="start" x="205" y="-62.5" font-family="Helvetica,sans-Serif" font-size="10.00">+ removeGrantGroup()</text>
<text text-anchor="start" x="205" y="-51.5" font-family="Helvetica,sans-Serif" font-size="10.00">+ toThrift()</text>
<text text-anchor="start" x="205" y="-40.5" font-family="Helvetica,sans-Serif" font-size="10.00">+ getGrantGroups()</text>
<text text-anchor="start" x="205" y="-29.5" font-family="Helvetica,sans-Serif" font-size="10.00">and 6 more...</text>
<text text-anchor="start" x="205" y="-18.5" font-family="Helvetica,sans-Serif" font-size="10.00">+ fromThrift()</text>
<text text-anchor="start" x="205" y="-7.5" font-family="Helvetica,sans-Serif" font-size="10.00">&#45; Role()</text>
</g>
<!-- Node2 -->
<g id="node2" class="node"><title>Node2</title>
<g id="a_node2"><a xlink:href="interfacecom_1_1cloudera_1_1impala_1_1catalog_1_1CatalogObject.html" target="_top" xlink:title="{com.cloudera.impala.catalog.\lCatalogObject\n||+ getCatalogObjectType()\l+ getName()\l+ getCatalogVersion()\l+ setCatalogVersion()\l+ isLoaded()\l}">
<polygon fill="white" stroke="black" points="0,-239 0,-351 144,-351 144,-239 0,-239"/>
<text text-anchor="start" x="8" y="-339" font-family="Helvetica,sans-Serif" font-size="10.00">com.cloudera.impala.catalog.</text>
<text text-anchor="middle" x="72" y="-328" font-family="Helvetica,sans-Serif" font-size="10.00">CatalogObject</text>
<polyline fill="none" stroke="black" points="0,-321 144,-321 "/>
<text text-anchor="middle" x="72" y="-309" font-family="Helvetica,sans-Serif" font-size="10.00"> </text>
<polyline fill="none" stroke="black" points="0,-302 144,-302 "/>
<text text-anchor="start" x="8" y="-290" font-family="Helvetica,sans-Serif" font-size="10.00">+ getCatalogObjectType()</text>
<text text-anchor="start" x="8" y="-279" font-family="Helvetica,sans-Serif" font-size="10.00">+ getName()</text>
<text text-anchor="start" x="8" y="-268" font-family="Helvetica,sans-Serif" font-size="10.00">+ getCatalogVersion()</text>
<text text-anchor="start" x="8" y="-257" font-family="Helvetica,sans-Serif" font-size="10.00">+ setCatalogVersion()</text>
<text text-anchor="start" x="8" y="-246" font-family="Helvetica,sans-Serif" font-size="10.00">+ isLoaded()</text>
</a>
</g>
</g>
<!-- Node2&#45;&gt;Node1 -->
<g id="edge1" class="edge"><title>Node2&#45;&gt;Node1</title>
<path fill="none" stroke="midnightblue" d="M137.099,-231.731C156.062,-213.593 177.029,-193.538 196.895,-174.535"/>
<polygon fill="none" stroke="midnightblue" points="134.468,-229.404 129.661,-238.846 139.307,-234.463 134.468,-229.404"/>
</g>
<!-- Node3 -->
<g id="node3" class="node"><title>Node3</title>
<polygon fill="white" stroke="#bfbfbf" points="162.5,-266.5 162.5,-323.5 239.5,-323.5 239.5,-266.5 162.5,-266.5"/>
<text text-anchor="middle" x="201" y="-311.5" font-family="Helvetica,sans-Serif" font-size="10.00">AtomicInteger</text>
<polyline fill="none" stroke="#bfbfbf" points="162.5,-304.5 239.5,-304.5 "/>
<text text-anchor="middle" x="201" y="-292.5" font-family="Helvetica,sans-Serif" font-size="10.00"> </text>
<polyline fill="none" stroke="#bfbfbf" points="162.5,-285.5 239.5,-285.5 "/>
<text text-anchor="middle" x="201" y="-273.5" font-family="Helvetica,sans-Serif" font-size="10.00"> </text>
</g>
<!-- Node3&#45;&gt;Node1 -->
<g id="edge2" class="edge"><title>Node3&#45;&gt;Node1</title>
<path fill="none" stroke="#404040" d="M211.846,-266.469C218.743,-248.961 228.155,-225.068 237.75,-200.712"/>
<polygon fill="none" stroke="#404040" points="237.764,-200.675 236.242,-193.626 242.163,-189.51 243.685,-196.558 237.764,-200.675"/>
<text text-anchor="middle" x="252" y="-211.5" font-family="Helvetica,sans-Serif" font-size="10.00"> &#45;roleId_</text>
</g>
<!-- Node4 -->
<g id="node4" class="node"><title>Node4</title>
<polygon fill="white" stroke="#bfbfbf" points="257.5,-266.5 257.5,-323.5 300.5,-323.5 300.5,-266.5 257.5,-266.5"/>
<text text-anchor="middle" x="279" y="-311.5" font-family="Helvetica,sans-Serif" font-size="10.00">TRole</text>
<polyline fill="none" stroke="#bfbfbf" points="257.5,-304.5 300.5,-304.5 "/>
<text text-anchor="middle" x="279" y="-292.5" font-family="Helvetica,sans-Serif" font-size="10.00"> </text>
<polyline fill="none" stroke="#bfbfbf" points="257.5,-285.5 300.5,-285.5 "/>
<text text-anchor="middle" x="279" y="-273.5" font-family="Helvetica,sans-Serif" font-size="10.00"> </text>
</g>
<!-- Node4&#45;&gt;Node1 -->
<g id="edge3" class="edge"><title>Node4&#45;&gt;Node1</title>
<path fill="none" stroke="#404040" d="M279,-266.469C279,-249.198 279,-225.712 279,-201.699"/>
<polygon fill="none" stroke="#404040" points="279,-201.51 275,-195.51 279,-189.51 283,-195.51 279,-201.51"/>
<text text-anchor="middle" x="293" y="-211.5" font-family="Helvetica,sans-Serif" font-size="10.00"> &#45;role_</text>
</g>
<!-- Node5 -->
<g id="node5" class="node"><title>Node5</title>
<polygon fill="white" stroke="#bfbfbf" points="318.5,-255.5 318.5,-334.5 471.5,-334.5 471.5,-255.5 318.5,-255.5"/>
<text text-anchor="start" x="326.5" y="-322.5" font-family="Helvetica,sans-Serif" font-size="10.00">final CatalogObjectCache</text>
<text text-anchor="start" x="326.5" y="-311.5" font-family="Helvetica,sans-Serif" font-size="10.00">&lt; com.cloudera.impala.catalog.</text>
<text text-anchor="middle" x="395" y="-300.5" font-family="Helvetica,sans-Serif" font-size="10.00">RolePrivilege &gt;</text>
<polyline fill="none" stroke="#bfbfbf" points="318.5,-293.5 471.5,-293.5 "/>
<text text-anchor="middle" x="395" y="-281.5" font-family="Helvetica,sans-Serif" font-size="10.00"> </text>
<polyline fill="none" stroke="#bfbfbf" points="318.5,-274.5 471.5,-274.5 "/>
<text text-anchor="middle" x="395" y="-262.5" font-family="Helvetica,sans-Serif" font-size="10.00"> </text>
</g>
<!-- Node5&#45;&gt;Node1 -->
<g id="edge4" class="edge"><title>Node5&#45;&gt;Node1</title>
<path fill="none" stroke="#404040" d="M372.359,-255.354C362.926,-239.253 351.476,-219.709 339.872,-199.902"/>
<polygon fill="none" stroke="#404040" points="339.865,-199.891 333.381,-196.736 333.799,-189.537 340.284,-192.692 339.865,-199.891"/>
<text text-anchor="middle" x="386" y="-211.5" font-family="Helvetica,sans-Serif" font-size="10.00"> &#45;rolePrivileges_</text>
</g>
<!-- Node6 -->
<g id="node6" class="node"><title>Node6</title>
<polygon fill="white" stroke="#bfbfbf" points="489.5,-266.5 489.5,-323.5 524.5,-323.5 524.5,-266.5 489.5,-266.5"/>
<text text-anchor="middle" x="507" y="-311.5" font-family="Helvetica,sans-Serif" font-size="10.00">long</text>
<polyline fill="none" stroke="#bfbfbf" points="489.5,-304.5 524.5,-304.5 "/>
<text text-anchor="middle" x="507" y="-292.5" font-family="Helvetica,sans-Serif" font-size="10.00"> </text>
<polyline fill="none" stroke="#bfbfbf" points="489.5,-285.5 524.5,-285.5 "/>
<text text-anchor="middle" x="507" y="-273.5" font-family="Helvetica,sans-Serif" font-size="10.00"> </text>
</g>
<!-- Node6&#45;&gt;Node1 -->
<g id="edge5" class="edge"><title>Node6&#45;&gt;Node1</title>
<path fill="none" stroke="#404040" d="M497.038,-266.422C492.732,-256.792 487.044,-246.32 480,-238 449.846,-202.381 408.83,-171.305 371.712,-147.381"/>
<polygon fill="none" stroke="#404040" points="371.497,-147.245 364.288,-147.415 361.359,-140.825 368.568,-140.656 371.497,-147.245"/>
<text text-anchor="middle" x="500" y="-211.5" font-family="Helvetica,sans-Serif" font-size="10.00"> &#45;catalogVersion_</text>
</g>
</g>
</svg>
        <g id="navigator" transform="translate(0 0)" fill="#404254">
                <rect fill="#f2f5e9" fill-opacity="0.5" stroke="#606060" stroke-width=".5" x="0" y="0" width="60" height="60"/>
                <use id="zoomplus" xlink:href="#zoomPlus" x="17" y="9" onmousedown="handleZoom(evt,'in')"/>
                <use id="zoomminus" xlink:href="#zoomMin" x="42" y="9" onmousedown="handleZoom(evt,'out')"/>
                <use id="reset" xlink:href="#resetDef" x="30" y="36" onmousedown="handleReset()"/>
                <g id="arrowUp" xlink:href="#dirArrow" transform="translate(30 24)" onmousedown="handlePan(0,-1)">
                  <use xlink:href="#rim" fill="#404040">
                        <set attributeName="fill" to="#808080" begin="arrowUp.mouseover" end="arrowUp.mouseout"/>
                  </use>
                  <path fill="none" stroke="white" stroke-width="1.5" d="M0,-3.0v7 M-2.5,-0.5L0,-3.0L2.5,-0.5"/>
                </g>
                <g id="arrowRight" xlink:href="#dirArrow" transform="rotate(90) translate(36 -43)" onmousedown="handlePan(1,0)">
                  <use xlink:href="#rim" fill="#404040">
                        <set attributeName="fill" to="#808080" begin="arrowRight.mouseover" end="arrowRight.mouseout"/>
                  </use>
                  <path fill="none" stroke="white" stroke-width="1.5" d="M0,-3.0v7 M-2.5,-0.5L0,-3.0L2.5,-0.5"/>
                </g>
                <g id="arrowDown" xlink:href="#dirArrow" transform="rotate(180) translate(-30 -48)" onmousedown="handlePan(0,1)">
                  <use xlink:href="#rim" fill="#404040">
                        <set attributeName="fill" to="#808080" begin="arrowDown.mouseover" end="arrowDown.mouseout"/>
                  </use>
                  <path fill="none" stroke="white" stroke-width="1.5" d="M0,-3.0v7 M-2.5,-0.5L0,-3.0L2.5,-0.5"/>
                </g>
                <g id="arrowLeft" xlink:href="#dirArrow" transform="rotate(270) translate(-36 17)" onmousedown="handlePan(-1,0)">
                  <use xlink:href="#rim" fill="#404040">
                        <set attributeName="fill" to="#808080" begin="arrowLeft.mouseover" end="arrowLeft.mouseout"/>
                  </use>
                  <path fill="none" stroke="white" stroke-width="1.5" d="M0,-3.0v7 M-2.5,-0.5L0,-3.0L2.5,-0.5"/>
                </g>
        </g>
        <svg viewBox="0 0 15 15" width="100%" height="30px" preserveAspectRatio="xMaxYMin meet">
         <g id="arrow_out" transform="scale(0.3 0.3)">
          <a xlink:href="classcom_1_1cloudera_1_1impala_1_1catalog_1_1Role__coll__graph_org.svg" target="_base">
           <rect id="button" ry="5" rx="5" y="6" x="6" height="38" width="38"
                fill="#f2f5e9" fill-opacity="0.5" stroke="#606060" stroke-width="1.0"/>
           <path id="arrow"
             d="M 11.500037,31.436501 C 11.940474,20.09759 22.043105,11.32322 32.158766,21.979434 L 37.068811,17.246167 C 37.068811,17.246167 37.088388,32 37.088388,32 L 22.160133,31.978069 C 22.160133,31.978069 26.997745,27.140456 26.997745,27.140456 C 18.528582,18.264221 13.291696,25.230495 11.500037,31.436501 z"
             style="fill:#404040;"/>
          </a>
         </g>
        </svg>
</svg>
