<?xml version="1.0" encoding="UTF-8" standalone="no"?>
<!DOCTYPE svg PUBLIC "-//W3C//DTD SVG 1.1//EN"
 "http://www.w3.org/Graphics/SVG/1.1/DTD/svg11.dtd">
<!-- Generated by graphviz version 2.36.0 (20140111.2315)
 -->
<!-- Title: impala::RuntimeProfile::AveragedCounter Pages: 1 -->
<svg width="122pt" height="348pt"
 viewBox="0.00 0.00 122.00 348.00" xmlns="http://www.w3.org/2000/svg" xmlns:xlink="http://www.w3.org/1999/xlink">
<g id="graph0" class="graph" transform="scale(1 1) rotate(0) translate(4 344)">
<title>impala::RuntimeProfile::AveragedCounter</title>
<polygon fill="white" stroke="none" points="-4,4 -4,-344 118,-344 118,4 -4,4"/>
<!-- Node1 -->
<g id="node1" class="node"><title>Node1</title>
<polygon fill="#bfbfbf" stroke="black" points="-1,-1 -1,-135 115,-135 115,-1 -1,-1"/>
<text text-anchor="start" x="7" y="-123" font-family="Helvetica,sans-Serif" font-size="10.00">impala::RuntimeProfile</text>
<text text-anchor="middle" x="57" y="-112" font-family="Helvetica,sans-Serif" font-size="10.00">::AveragedCounter</text>
<polyline fill="none" stroke="black" points="-1,-105 115,-105 "/>
<text text-anchor="start" x="7" y="-93" font-family="Helvetica,sans-Serif" font-size="10.00">&#45; counter_value_map_</text>
<text text-anchor="start" x="7" y="-82" font-family="Helvetica,sans-Serif" font-size="10.00">&#45; current_double_sum_</text>
<text text-anchor="start" x="7" y="-71" font-family="Helvetica,sans-Serif" font-size="10.00">&#45; current_int_sum_</text>
<polyline fill="none" stroke="black" points="-1,-64 115,-64 "/>
<text text-anchor="start" x="7" y="-52" font-family="Helvetica,sans-Serif" font-size="10.00">+ AveragedCounter()</text>
<text text-anchor="start" x="7" y="-41" font-family="Helvetica,sans-Serif" font-size="10.00">+ UpdateCounter()</text>
<text text-anchor="start" x="7" y="-30" font-family="Helvetica,sans-Serif" font-size="10.00">+ Set()</text>
<text text-anchor="start" x="7" y="-19" font-family="Helvetica,sans-Serif" font-size="10.00">+ Set()</text>
<text text-anchor="start" x="7" y="-8" font-family="Helvetica,sans-Serif" font-size="10.00">+ Add()</text>
</g>
<!-- Node2 -->
<g id="node2" class="node"><title>Node2</title>
<g id="a_node2"><a xlink:href="classimpala_1_1RuntimeProfile_1_1Counter.html" target="_top" xlink:title="{impala::RuntimeProfile\l::Counter\n|# value_\l# unit_\l|+ Counter()\l+ ~Counter()\l+ Add()\l+ BitOr()\l+ Set()\l+ Set()\l+ value()\l+ double_value()\l+ unit()\l}">
<polygon fill="white" stroke="black" points="-1,-172.5 -1,-339.5 115,-339.5 115,-172.5 -1,-172.5"/>
<text text-anchor="start" x="7" y="-327.5" font-family="Helvetica,sans-Serif" font-size="10.00">impala::RuntimeProfile</text>
<text text-anchor="middle" x="57" y="-316.5" font-family="Helvetica,sans-Serif" font-size="10.00">::Counter</text>
<polyline fill="none" stroke="black" points="-1,-309.5 115,-309.5 "/>
<text text-anchor="start" x="7" y="-297.5" font-family="Helvetica,sans-Serif" font-size="10.00"># value_</text>
<text text-anchor="start" x="7" y="-286.5" font-family="Helvetica,sans-Serif" font-size="10.00"># unit_</text>
<polyline fill="none" stroke="black" points="-1,-279.5 115,-279.5 "/>
<text text-anchor="start" x="7" y="-267.5" font-family="Helvetica,sans-Serif" font-size="10.00">+ Counter()</text>
<text text-anchor="start" x="7" y="-256.5" font-family="Helvetica,sans-Serif" font-size="10.00">+ ~Counter()</text>
<text text-anchor="start" x="7" y="-245.5" font-family="Helvetica,sans-Serif" font-size="10.00">+ Add()</text>
<text text-anchor="start" x="7" y="-234.5" font-family="Helvetica,sans-Serif" font-size="10.00">+ BitOr()</text>
<text text-anchor="start" x="7" y="-223.5" font-family="Helvetica,sans-Serif" font-size="10.00">+ Set()</text>
<text text-anchor="start" x="7" y="-212.5" font-family="Helvetica,sans-Serif" font-size="10.00">+ Set()</text>
<text text-anchor="start" x="7" y="-201.5" font-family="Helvetica,sans-Serif" font-size="10.00">+ value()</text>
<text text-anchor="start" x="7" y="-190.5" font-family="Helvetica,sans-Serif" font-size="10.00">+ double_value()</text>
<text text-anchor="start" x="7" y="-179.5" font-family="Helvetica,sans-Serif" font-size="10.00">+ unit()</text>
</a>
</g>
</g>
<!-- Node2&#45;&gt;Node1 -->
<g id="edge1" class="edge"><title>Node2&#45;&gt;Node1</title>
<path fill="none" stroke="midnightblue" d="M57,-162.11C57,-153.036 57,-143.962 57,-135.231"/>
<polygon fill="none" stroke="midnightblue" points="53.5001,-162.334 57,-172.335 60.5001,-162.335 53.5001,-162.334"/>
</g>
</g>
</svg>
