<?xml version="1.0" encoding="UTF-8" standalone="no"?>
<!DOCTYPE svg PUBLIC "-//W3C//DTD SVG 1.1//EN"
 "http://www.w3.org/Graphics/SVG/1.1/DTD/svg11.dtd">
<!-- Generated by graphviz version 2.36.0 (20140111.2315)
 -->
<!-- Title: com.cloudera.impala.catalog.AuthorizationException Pages: 1 -->
<svg width="260pt" height="430pt"
 viewBox="0.00 0.00 260.00 430.00" xmlns="http://www.w3.org/2000/svg" xmlns:xlink="http://www.w3.org/1999/xlink">
<g id="graph0" class="graph" transform="scale(1 1) rotate(0) translate(4 426)">
<title>com.cloudera.impala.catalog.AuthorizationException</title>
<polygon fill="white" stroke="none" points="-4,4 -4,-426 256,-426 256,4 -4,4"/>
<!-- Node1 -->
<g id="node1" class="node"><title>Node1</title>
<polygon fill="#bfbfbf" stroke="black" points="85,-0.5 85,-79.5 229,-79.5 229,-0.5 85,-0.5"/>
<text text-anchor="start" x="93" y="-67.5" font-family="Helvetica,sans-Serif" font-size="10.00">com.cloudera.impala.catalog.</text>
<text text-anchor="middle" x="157" y="-56.5" font-family="Helvetica,sans-Serif" font-size="10.00">AuthorizationException</text>
<polyline fill="none" stroke="black" points="85,-49.5 229,-49.5 "/>
<text text-anchor="middle" x="157" y="-37.5" font-family="Helvetica,sans-Serif" font-size="10.00"> </text>
<polyline fill="none" stroke="black" points="85,-30.5 229,-30.5 "/>
<text text-anchor="start" x="93" y="-18.5" font-family="Helvetica,sans-Serif" font-size="10.00">+ AuthorizationException()</text>
<text text-anchor="start" x="93" y="-7.5" font-family="Helvetica,sans-Serif" font-size="10.00">+ AuthorizationException()</text>
</g>
<!-- Node2 -->
<g id="node2" class="node"><title>Node2</title>
<g id="a_node2"><a xlink:href="classcom_1_1cloudera_1_1impala_1_1catalog_1_1CatalogException.html" target="_top" xlink:title="{com.cloudera.impala.catalog.\lCatalogException\n||+ CatalogException()\l+ CatalogException()\l}">
<polygon fill="white" stroke="black" points="85,-118.5 85,-197.5 229,-197.5 229,-118.5 85,-118.5"/>
<text text-anchor="start" x="93" y="-185.5" font-family="Helvetica,sans-Serif" font-size="10.00">com.cloudera.impala.catalog.</text>
<text text-anchor="middle" x="157" y="-174.5" font-family="Helvetica,sans-Serif" font-size="10.00">CatalogException</text>
<polyline fill="none" stroke="black" points="85,-167.5 229,-167.5 "/>
<text text-anchor="middle" x="157" y="-155.5" font-family="Helvetica,sans-Serif" font-size="10.00"> </text>
<polyline fill="none" stroke="black" points="85,-148.5 229,-148.5 "/>
<text text-anchor="start" x="93" y="-136.5" font-family="Helvetica,sans-Serif" font-size="10.00">+ CatalogException()</text>
<text text-anchor="start" x="93" y="-125.5" font-family="Helvetica,sans-Serif" font-size="10.00">+ CatalogException()</text>
</a>
</g>
</g>
<!-- Node2&#45;&gt;Node1 -->
<g id="edge1" class="edge"><title>Node2&#45;&gt;Node1</title>
<path fill="none" stroke="midnightblue" d="M157,-108.268C157,-98.7855 157,-88.9643 157,-79.8532"/>
<polygon fill="none" stroke="midnightblue" points="153.5,-108.374 157,-118.374 160.5,-108.374 153.5,-108.374"/>
</g>
<!-- Node3 -->
<g id="node3" class="node"><title>Node3</title>
<g id="a_node3"><a xlink:href="classcom_1_1cloudera_1_1impala_1_1common_1_1ImpalaException.html" target="_top" xlink:title="{com.cloudera.impala.common.\lImpalaException\n||+ ImpalaException()\l# ImpalaException()\l}">
<polygon fill="white" stroke="black" points="0,-246.5 0,-325.5 150,-325.5 150,-246.5 0,-246.5"/>
<text text-anchor="start" x="8" y="-313.5" font-family="Helvetica,sans-Serif" font-size="10.00">com.cloudera.impala.common.</text>
<text text-anchor="middle" x="75" y="-302.5" font-family="Helvetica,sans-Serif" font-size="10.00">ImpalaException</text>
<polyline fill="none" stroke="black" points="0,-295.5 150,-295.5 "/>
<text text-anchor="middle" x="75" y="-283.5" font-family="Helvetica,sans-Serif" font-size="10.00"> </text>
<polyline fill="none" stroke="black" points="0,-276.5 150,-276.5 "/>
<text text-anchor="start" x="8" y="-264.5" font-family="Helvetica,sans-Serif" font-size="10.00">+ ImpalaException()</text>
<text text-anchor="start" x="8" y="-253.5" font-family="Helvetica,sans-Serif" font-size="10.00"># ImpalaException()</text>
</a>
</g>
</g>
<!-- Node3&#45;&gt;Node2 -->
<g id="edge2" class="edge"><title>Node3&#45;&gt;Node2</title>
<path fill="none" stroke="midnightblue" d="M105.774,-237.712C114.312,-224.593 123.482,-210.503 131.67,-197.921"/>
<polygon fill="none" stroke="midnightblue" points="102.793,-235.877 100.272,-246.168 108.66,-239.695 102.793,-235.877"/>
</g>
<!-- Node4 -->
<g id="node4" class="node"><title>Node4</title>
<polygon fill="white" stroke="#bfbfbf" points="21,-364.5 21,-421.5 129,-421.5 129,-364.5 21,-364.5"/>
<text text-anchor="middle" x="75" y="-409.5" font-family="Helvetica,sans-Serif" font-size="10.00">java::lang::Exception</text>
<polyline fill="none" stroke="#bfbfbf" points="21,-402.5 129,-402.5 "/>
<text text-anchor="middle" x="75" y="-390.5" font-family="Helvetica,sans-Serif" font-size="10.00"> </text>
<polyline fill="none" stroke="#bfbfbf" points="21,-383.5 129,-383.5 "/>
<text text-anchor="middle" x="75" y="-371.5" font-family="Helvetica,sans-Serif" font-size="10.00"> </text>
</g>
<!-- Node4&#45;&gt;Node3 -->
<g id="edge3" class="edge"><title>Node4&#45;&gt;Node3</title>
<path fill="none" stroke="midnightblue" d="M75,-354.322C75,-345.073 75,-335.155 75,-325.851"/>
<polygon fill="none" stroke="midnightblue" points="71.5001,-354.412 75,-364.412 78.5001,-354.413 71.5001,-354.412"/>
</g>
<!-- Node5 -->
<g id="node5" class="node"><title>Node5</title>
<polygon fill="white" stroke="#bfbfbf" points="167.5,-257.5 167.5,-314.5 202.5,-314.5 202.5,-257.5 167.5,-257.5"/>
<text text-anchor="middle" x="185" y="-302.5" font-family="Helvetica,sans-Serif" font-size="10.00">long</text>
<polyline fill="none" stroke="#bfbfbf" points="167.5,-295.5 202.5,-295.5 "/>
<text text-anchor="middle" x="185" y="-283.5" font-family="Helvetica,sans-Serif" font-size="10.00"> </text>
<polyline fill="none" stroke="#bfbfbf" points="167.5,-276.5 202.5,-276.5 "/>
<text text-anchor="middle" x="185" y="-264.5" font-family="Helvetica,sans-Serif" font-size="10.00"> </text>
</g>
<!-- Node5&#45;&gt;Node2 -->
<g id="edge4" class="edge"><title>Node5&#45;&gt;Node2</title>
<path fill="none" stroke="#404040" d="M178.855,-257.349C175.751,-243.379 171.885,-225.98 168.271,-209.718"/>
<polygon fill="none" stroke="#404040" points="168.176,-209.293 162.97,-204.303 165.573,-197.579 170.779,-202.568 168.176,-209.293"/>
<text text-anchor="middle" x="211.5" y="-219.5" font-family="Helvetica,sans-Serif" font-size="10.00"> &#45;serialVersionUID</text>
</g>
</g>
</svg>
