<?xml version="1.0" encoding="UTF-8" standalone="no"?>
<!DOCTYPE svg PUBLIC "-//W3C//DTD SVG 1.1//EN"
 "http://www.w3.org/Graphics/SVG/1.1/DTD/svg11.dtd">
<!-- Generated by graphviz version 2.36.0 (20140111.2315)
 -->
<!-- Title: impala::ThreadPool&lt; T &gt; Pages: 1 -->
<!--zoomable 696 -->
<svg id="main" version="1.1" xmlns="http://www.w3.org/2000/svg" xmlns:xlink="http://www.w3.org/1999/xlink" xml:space="preserve" onload="init(evt)">
<style type="text/css"><![CDATA[
.edge:hover path { stroke: red; }
.edge:hover polygon { stroke: red; fill: red; }
]]></style>
<script type="text/javascript"><![CDATA[
var edges = document.getElementsByTagName('g');
if (edges && edges.length) {
  for (var i=0;i<edges.length;i++) {
    if (edges[i].id.substr(0,4)=='edge') {
      edges[i].setAttribute('class','edge');
    }
  }
}
]]></script>
        <defs>
                <circle id="rim" cx="0" cy="0" r="7"/>
                <circle id="rim2" cx="0" cy="0" r="3.5"/>
                <g id="zoomPlus">
                        <use xlink:href="#rim" fill="#404040">
                                <set attributeName="fill" to="#808080" begin="zoomplus.mouseover" end="zoomplus.mouseout"/>
                        </use>
                        <path d="M-4,0h8M0,-4v8" fill="none" stroke="white" stroke-width="1.5" pointer-events="none"/>
                </g>
                <g id="zoomMin">
                        <use xlink:href="#rim" fill="#404040">
                                <set attributeName="fill" to="#808080" begin="zoomminus.mouseover" end="zoomminus.mouseout"/>
                        </use>
                        <path d="M-4,0h8" fill="none" stroke="white" stroke-width="1.5" pointer-events="none"/>
                </g>
                <g id="dirArrow">
                        <path fill="none" stroke="white" stroke-width="1.5" d="M0,-3.0v7 M-2.5,-0.5L0,-3.0L2.5,-0.5"/>
                </g>
               <g id="resetDef">
                       <use xlink:href="#rim2" fill="#404040">
                               <set attributeName="fill" to="#808080" begin="reset.mouseover" end="reset.mouseout"/>
                       </use>
               </g>
        </defs>

<script type="text/javascript">
var viewWidth = 917;
var viewHeight = 696;
var sectionId = 'dynsection-0';
</script>
<script xlink:href="svgpan.js"/>
<svg id="graph" class="graph">
<g id="viewport">
<title>impala::ThreadPool&lt; T &gt;</title>
<polygon fill="white" stroke="none" points="-4,4 -4,-692 913,-692 913,4 -4,4"/>
<!-- Node1 -->
<g id="node1" class="node"><title>Node1</title>
<polygon fill="#bfbfbf" stroke="black" points="570.5,-1 570.5,-157 695.5,-157 695.5,-1 570.5,-1"/>
<text text-anchor="middle" x="633" y="-145" font-family="Helvetica,sans-Serif" font-size="10.00">impala::ThreadPool&lt; T &gt;</text>
<polyline fill="none" stroke="black" points="570.5,-138 695.5,-138 "/>
<text text-anchor="middle" x="633" y="-126" font-family="Helvetica,sans-Serif" font-size="10.00"> </text>
<polyline fill="none" stroke="black" points="570.5,-119 695.5,-119 "/>
<text text-anchor="start" x="578.5" y="-107" font-family="Helvetica,sans-Serif" font-size="10.00">+ ThreadPool()</text>
<text text-anchor="start" x="578.5" y="-96" font-family="Helvetica,sans-Serif" font-size="10.00">+ ~ThreadPool()</text>
<text text-anchor="start" x="578.5" y="-85" font-family="Helvetica,sans-Serif" font-size="10.00">+ Offer()</text>
<text text-anchor="start" x="578.5" y="-74" font-family="Helvetica,sans-Serif" font-size="10.00">+ Shutdown()</text>
<text text-anchor="start" x="578.5" y="-63" font-family="Helvetica,sans-Serif" font-size="10.00">+ Join()</text>
<text text-anchor="start" x="578.5" y="-52" font-family="Helvetica,sans-Serif" font-size="10.00">+ GetQueueSize()</text>
<text text-anchor="start" x="578.5" y="-41" font-family="Helvetica,sans-Serif" font-size="10.00">+ DrainAndShutdown()</text>
<text text-anchor="start" x="578.5" y="-30" font-family="Helvetica,sans-Serif" font-size="10.00">+ AssignToCgroup()</text>
<text text-anchor="start" x="578.5" y="-19" font-family="Helvetica,sans-Serif" font-size="10.00">&#45; WorkerThread()</text>
<text text-anchor="start" x="578.5" y="-8" font-family="Helvetica,sans-Serif" font-size="10.00">&#45; IsShutdown()</text>
</g>
<!-- Node2 -->
<g id="node2" class="node"><title>Node2</title>
<g id="a_node2"><a xlink:href="classimpala_1_1ThreadGroup.html" target="_top" xlink:title="{impala::ThreadGroup\n||+ ThreadGroup()\l+ ThreadGroup()\l+ AddThread()\l+ JoinAll()\l+ SetCgroup()\l+ SetCgroupsMgr()\l}">
<polygon fill="white" stroke="black" points="229.5,-207 229.5,-319 336.5,-319 336.5,-207 229.5,-207"/>
<text text-anchor="middle" x="283" y="-307" font-family="Helvetica,sans-Serif" font-size="10.00">impala::ThreadGroup</text>
<polyline fill="none" stroke="black" points="229.5,-300 336.5,-300 "/>
<text text-anchor="middle" x="283" y="-288" font-family="Helvetica,sans-Serif" font-size="10.00"> </text>
<polyline fill="none" stroke="black" points="229.5,-281 336.5,-281 "/>
<text text-anchor="start" x="237.5" y="-269" font-family="Helvetica,sans-Serif" font-size="10.00">+ ThreadGroup()</text>
<text text-anchor="start" x="237.5" y="-258" font-family="Helvetica,sans-Serif" font-size="10.00">+ ThreadGroup()</text>
<text text-anchor="start" x="237.5" y="-247" font-family="Helvetica,sans-Serif" font-size="10.00">+ AddThread()</text>
<text text-anchor="start" x="237.5" y="-236" font-family="Helvetica,sans-Serif" font-size="10.00">+ JoinAll()</text>
<text text-anchor="start" x="237.5" y="-225" font-family="Helvetica,sans-Serif" font-size="10.00">+ SetCgroup()</text>
<text text-anchor="start" x="237.5" y="-214" font-family="Helvetica,sans-Serif" font-size="10.00">+ SetCgroupsMgr()</text>
</a>
</g>
</g>
<!-- Node2&#45;&gt;Node1 -->
<g id="edge1" class="edge"><title>Node2&#45;&gt;Node1</title>
<path fill="none" stroke="#404040" d="M336.67,-230.249C365.3,-213.614 401.281,-193.184 434,-176 474.954,-154.491 521.484,-131.943 559.248,-114.108"/>
<polygon fill="none" stroke="#404040" points="559.305,-114.082 563.029,-107.907 570.161,-108.97 566.437,-115.145 559.305,-114.082"/>
<text text-anchor="middle" x="456" y="-179.5" font-family="Helvetica,sans-Serif" font-size="10.00"> &#45;threads_</text>
</g>
<!-- Node3 -->
<g id="node3" class="node"><title>Node3</title>
<polygon fill="white" stroke="#bfbfbf" points="-0.5,-624.5 -0.5,-681.5 40.5,-681.5 40.5,-624.5 -0.5,-624.5"/>
<text text-anchor="middle" x="20" y="-669.5" font-family="Helvetica,sans-Serif" font-size="10.00">string</text>
<polyline fill="none" stroke="#bfbfbf" points="-0.5,-662.5 40.5,-662.5 "/>
<text text-anchor="middle" x="20" y="-650.5" font-family="Helvetica,sans-Serif" font-size="10.00"> </text>
<polyline fill="none" stroke="#bfbfbf" points="-0.5,-643.5 40.5,-643.5 "/>
<text text-anchor="middle" x="20" y="-631.5" font-family="Helvetica,sans-Serif" font-size="10.00"> </text>
</g>
<!-- Node3&#45;&gt;Node2 -->
<g id="edge2" class="edge"><title>Node3&#45;&gt;Node2</title>
<path fill="none" stroke="#404040" d="M15.0674,-624.198C6.9657,-569.384 -3.04431,-445.939 54,-368 92.6398,-315.207 164.492,-288.586 217.445,-275.586"/>
<polygon fill="none" stroke="#404040" points="217.763,-275.512 222.699,-270.255 229.45,-272.79 224.514,-278.046 217.763,-275.512"/>
<text text-anchor="middle" x="86.5" y="-455.5" font-family="Helvetica,sans-Serif" font-size="10.00"> &#45;cgroup_path_</text>
</g>
<!-- Node4 -->
<g id="node4" class="node"><title>Node4</title>
<g id="a_node4"><a xlink:href="classimpala_1_1CgroupsMgr.html" target="_top" xlink:title="{impala::CgroupsMgr\n||+ CgroupsMgr()\l+ Init()\l+ UniqueIdToCgroup()\l+ VirtualCoresToCpuShares()\l+ RegisterFragment()\l+ UnregisterFragment()\l+ CreateCgroup()\l+ DropCgroup()\l+ SetCpuShares()\l+ AssignThreadToCgroup()\l+ RelocateThreads()\l&#45; GetCgroupPaths()\l}">
<polygon fill="white" stroke="black" points="128,-369 128,-547 274,-547 274,-369 128,-369"/>
<text text-anchor="middle" x="201" y="-535" font-family="Helvetica,sans-Serif" font-size="10.00">impala::CgroupsMgr</text>
<polyline fill="none" stroke="black" points="128,-528 274,-528 "/>
<text text-anchor="middle" x="201" y="-516" font-family="Helvetica,sans-Serif" font-size="10.00"> </text>
<polyline fill="none" stroke="black" points="128,-509 274,-509 "/>
<text text-anchor="start" x="136" y="-497" font-family="Helvetica,sans-Serif" font-size="10.00">+ CgroupsMgr()</text>
<text text-anchor="start" x="136" y="-486" font-family="Helvetica,sans-Serif" font-size="10.00">+ Init()</text>
<text text-anchor="start" x="136" y="-475" font-family="Helvetica,sans-Serif" font-size="10.00">+ UniqueIdToCgroup()</text>
<text text-anchor="start" x="136" y="-464" font-family="Helvetica,sans-Serif" font-size="10.00">+ VirtualCoresToCpuShares()</text>
<text text-anchor="start" x="136" y="-453" font-family="Helvetica,sans-Serif" font-size="10.00">+ RegisterFragment()</text>
<text text-anchor="start" x="136" y="-442" font-family="Helvetica,sans-Serif" font-size="10.00">+ UnregisterFragment()</text>
<text text-anchor="start" x="136" y="-431" font-family="Helvetica,sans-Serif" font-size="10.00">+ CreateCgroup()</text>
<text text-anchor="start" x="136" y="-420" font-family="Helvetica,sans-Serif" font-size="10.00">+ DropCgroup()</text>
<text text-anchor="start" x="136" y="-409" font-family="Helvetica,sans-Serif" font-size="10.00">+ SetCpuShares()</text>
<text text-anchor="start" x="136" y="-398" font-family="Helvetica,sans-Serif" font-size="10.00">+ AssignThreadToCgroup()</text>
<text text-anchor="start" x="136" y="-387" font-family="Helvetica,sans-Serif" font-size="10.00">+ RelocateThreads()</text>
<text text-anchor="start" x="136" y="-376" font-family="Helvetica,sans-Serif" font-size="10.00">&#45; GetCgroupPaths()</text>
</a>
</g>
</g>
<!-- Node3&#45;&gt;Node4 -->
<g id="edge7" class="edge"><title>Node3&#45;&gt;Node4</title>
<path fill="none" stroke="#404040" d="M25.8349,-624.377C30.6423,-606.415 38.8518,-583.22 52,-566 57.4063,-558.92 86.5505,-537.588 117.65,-515.815"/>
<polygon fill="none" stroke="#404040" points="117.943,-515.611 120.578,-508.898 127.788,-508.748 125.153,-515.461 117.943,-515.611"/>
<text text-anchor="middle" x="93.5" y="-591.5" font-family="Helvetica,sans-Serif" font-size="10.00"> &#45;staging_cgroup_</text>
<text text-anchor="start" x="52" y="-580.5" font-family="Helvetica,sans-Serif" font-size="10.00">&#45;cgroups_hierarchy</text>
<text text-anchor="middle" x="93.5" y="-569.5" font-family="Helvetica,sans-Serif" font-size="10.00">_path_</text>
</g>
<!-- Node4&#45;&gt;Node2 -->
<g id="edge3" class="edge"><title>Node4&#45;&gt;Node2</title>
<path fill="none" stroke="#404040" d="M222.975,-368.842C226.545,-358.278 230.552,-347.779 235,-338 236.248,-335.256 237.588,-332.496 238.999,-329.739"/>
<polygon fill="none" stroke="#404040" points="239.016,-329.706 238.364,-322.525 244.742,-319.161 245.395,-326.342 239.016,-329.706"/>
<text text-anchor="middle" x="269" y="-341.5" font-family="Helvetica,sans-Serif" font-size="10.00"> &#45;cgroups_mgr_</text>
</g>
<!-- Node5 -->
<g id="node5" class="node"><title>Node5</title>
<polygon fill="white" stroke="#bfbfbf" points="86,-619 86,-687 192,-687 192,-619 86,-619"/>
<text text-anchor="start" x="94" y="-675" font-family="Helvetica,sans-Serif" font-size="10.00">unordered_map&lt; std</text>
<text text-anchor="middle" x="139" y="-664" font-family="Helvetica,sans-Serif" font-size="10.00">::string, int32_t &gt;</text>
<polyline fill="none" stroke="#bfbfbf" points="86,-657 192,-657 "/>
<text text-anchor="middle" x="139" y="-645" font-family="Helvetica,sans-Serif" font-size="10.00"> </text>
<polyline fill="none" stroke="#bfbfbf" points="86,-638 192,-638 "/>
<text text-anchor="middle" x="139" y="-626" font-family="Helvetica,sans-Serif" font-size="10.00"> </text>
</g>
<!-- Node5&#45;&gt;Node4 -->
<g id="edge4" class="edge"><title>Node5&#45;&gt;Node4</title>
<path fill="none" stroke="#404040" d="M137.633,-618.783C137.794,-602.59 139.229,-582.991 144,-566 144.689,-563.546 145.441,-561.085 146.247,-558.623"/>
<polygon fill="none" stroke="#404040" points="146.325,-558.405 144.596,-551.404 150.393,-547.115 152.122,-554.116 146.325,-558.405"/>
<text text-anchor="middle" x="183" y="-580.5" font-family="Helvetica,sans-Serif" font-size="10.00"> &#45;active_cgroups_</text>
</g>
<!-- Node6 -->
<g id="node6" class="node"><title>Node6</title>
<polygon fill="white" stroke="#bfbfbf" points="210.5,-624.5 210.5,-681.5 279.5,-681.5 279.5,-624.5 210.5,-624.5"/>
<text text-anchor="middle" x="245" y="-669.5" font-family="Helvetica,sans-Serif" font-size="10.00">IntCounter *</text>
<polyline fill="none" stroke="#bfbfbf" points="210.5,-662.5 279.5,-662.5 "/>
<text text-anchor="middle" x="245" y="-650.5" font-family="Helvetica,sans-Serif" font-size="10.00"> </text>
<polyline fill="none" stroke="#bfbfbf" points="210.5,-643.5 279.5,-643.5 "/>
<text text-anchor="middle" x="245" y="-631.5" font-family="Helvetica,sans-Serif" font-size="10.00"> </text>
</g>
<!-- Node6&#45;&gt;Node4 -->
<g id="edge5" class="edge"><title>Node6&#45;&gt;Node4</title>
<path fill="none" stroke="#404040" d="M238.696,-624.348C234.714,-606.881 229.3,-583.135 223.819,-559.091"/>
<polygon fill="none" stroke="#404040" points="223.796,-558.99 218.562,-554.029 221.128,-547.29 226.362,-552.251 223.796,-558.99"/>
<text text-anchor="middle" x="287" y="-580.5" font-family="Helvetica,sans-Serif" font-size="10.00"> &#45;active_cgroups_metric_</text>
</g>
<!-- Node7 -->
<g id="node7" class="node"><title>Node7</title>
<polygon fill="white" stroke="#bfbfbf" points="412,-624.5 412,-681.5 456,-681.5 456,-624.5 412,-624.5"/>
<text text-anchor="middle" x="434" y="-669.5" font-family="Helvetica,sans-Serif" font-size="10.00">mutex</text>
<polyline fill="none" stroke="#bfbfbf" points="412,-662.5 456,-662.5 "/>
<text text-anchor="middle" x="434" y="-650.5" font-family="Helvetica,sans-Serif" font-size="10.00"> </text>
<polyline fill="none" stroke="#bfbfbf" points="412,-643.5 456,-643.5 "/>
<text text-anchor="middle" x="434" y="-631.5" font-family="Helvetica,sans-Serif" font-size="10.00"> </text>
</g>
<!-- Node7&#45;&gt;Node1 -->
<g id="edge10" class="edge"><title>Node7&#45;&gt;Node1</title>
<path fill="none" stroke="#404040" d="M456.211,-631.786C464.515,-622.897 473.11,-611.799 478,-600 545.281,-437.666 438.319,-365.989 511,-206 522.684,-180.282 541.921,-156.656 561.703,-136.985"/>
<polygon fill="none" stroke="#404040" points="561.853,-136.84 563.401,-129.797 570.498,-128.517 568.95,-135.56 561.853,-136.84"/>
<text text-anchor="middle" x="501" y="-341.5" font-family="Helvetica,sans-Serif" font-size="10.00"> &#45;lock_</text>
</g>
<!-- Node7&#45;&gt;Node4 -->
<g id="edge6" class="edge"><title>Node7&#45;&gt;Node4</title>
<path fill="none" stroke="#404040" d="M411.909,-632.704C401.159,-623.1 388.175,-611.178 377,-600 362.542,-585.538 363.381,-576.774 346,-566 324.053,-552.395 310.985,-560.778 284.756,-547.999"/>
<polygon fill="none" stroke="#404040" points="284.48,-547.844 277.29,-548.398 274.013,-541.975 281.202,-541.42 284.48,-547.844"/>
<text text-anchor="middle" x="427.5" y="-580.5" font-family="Helvetica,sans-Serif" font-size="10.00"> &#45;active_cgroups_lock_</text>
</g>
<!-- Node8 -->
<g id="node8" class="node"><title>Node8</title>
<polygon fill="white" stroke="#bfbfbf" points="292,-424 292,-492 390,-492 390,-424 292,-424"/>
<text text-anchor="start" x="300" y="-480" font-family="Helvetica,sans-Serif" font-size="10.00">ptr_vector&lt; impala</text>
<text text-anchor="middle" x="341" y="-469" font-family="Helvetica,sans-Serif" font-size="10.00">::Thread &gt;</text>
<polyline fill="none" stroke="#bfbfbf" points="292,-462 390,-462 "/>
<text text-anchor="middle" x="341" y="-450" font-family="Helvetica,sans-Serif" font-size="10.00"> </text>
<polyline fill="none" stroke="#bfbfbf" points="292,-443 390,-443 "/>
<text text-anchor="middle" x="341" y="-431" font-family="Helvetica,sans-Serif" font-size="10.00"> </text>
</g>
<!-- Node8&#45;&gt;Node2 -->
<g id="edge8" class="edge"><title>Node8&#45;&gt;Node2</title>
<path fill="none" stroke="#404040" d="M331.029,-423.822C323.39,-398.401 312.596,-362.484 303.176,-331.136"/>
<polygon fill="none" stroke="#404040" points="303.095,-330.869 297.538,-326.274 299.642,-319.377 305.199,-323.972 303.095,-330.869"/>
<text text-anchor="middle" x="331" y="-341.5" font-family="Helvetica,sans-Serif" font-size="10.00"> &#45;threads_</text>
</g>
<!-- Node9 -->
<g id="node9" class="node"><title>Node9</title>
<polygon fill="white" stroke="#bfbfbf" points="520.5,-234.5 520.5,-291.5 627.5,-291.5 627.5,-234.5 520.5,-234.5"/>
<text text-anchor="middle" x="574" y="-279.5" font-family="Helvetica,sans-Serif" font-size="10.00">BlockingQueue&lt; T &gt;</text>
<polyline fill="none" stroke="#bfbfbf" points="520.5,-272.5 627.5,-272.5 "/>
<text text-anchor="middle" x="574" y="-260.5" font-family="Helvetica,sans-Serif" font-size="10.00"> </text>
<polyline fill="none" stroke="#bfbfbf" points="520.5,-253.5 627.5,-253.5 "/>
<text text-anchor="middle" x="574" y="-241.5" font-family="Helvetica,sans-Serif" font-size="10.00"> </text>
</g>
<!-- Node9&#45;&gt;Node1 -->
<g id="edge9" class="edge"><title>Node9&#45;&gt;Node1</title>
<path fill="none" stroke="#404040" d="M582.961,-234.358C588.695,-216.668 596.486,-192.638 604.211,-168.807"/>
<polygon fill="none" stroke="#404040" points="604.288,-168.569 602.333,-161.628 607.989,-157.153 609.943,-164.095 604.288,-168.569"/>
<text text-anchor="middle" x="634" y="-179.5" font-family="Helvetica,sans-Serif" font-size="10.00"> &#45;work_queue_</text>
</g>
<!-- Node10 -->
<g id="node10" class="node"><title>Node10</title>
<polygon fill="white" stroke="#bfbfbf" points="645.5,-234.5 645.5,-291.5 740.5,-291.5 740.5,-234.5 645.5,-234.5"/>
<text text-anchor="middle" x="693" y="-279.5" font-family="Helvetica,sans-Serif" font-size="10.00">condition_variable</text>
<polyline fill="none" stroke="#bfbfbf" points="645.5,-272.5 740.5,-272.5 "/>
<text text-anchor="middle" x="693" y="-260.5" font-family="Helvetica,sans-Serif" font-size="10.00"> </text>
<polyline fill="none" stroke="#bfbfbf" points="645.5,-253.5 740.5,-253.5 "/>
<text text-anchor="middle" x="693" y="-241.5" font-family="Helvetica,sans-Serif" font-size="10.00"> </text>
</g>
<!-- Node10&#45;&gt;Node1 -->
<g id="edge11" class="edge"><title>Node10&#45;&gt;Node1</title>
<path fill="none" stroke="#404040" d="M686.385,-234.282C682.141,-217.321 676.265,-195.253 670,-176 669.18,-173.481 668.332,-170.933 667.46,-168.365"/>
<polygon fill="none" stroke="#404040" points="667.458,-168.36 661.706,-164.011 663.509,-157.029 669.261,-161.378 667.458,-168.36"/>
<text text-anchor="middle" x="701.5" y="-179.5" font-family="Helvetica,sans-Serif" font-size="10.00"> &#45;empty_cv_</text>
</g>
<!-- Node11 -->
<g id="node11" class="node"><title>Node11</title>
<g id="a_node11"><a xlink:href="classbool.html" target="_top" xlink:title="{bool\n||}">
<polygon fill="white" stroke="black" points="758.5,-234.5 758.5,-291.5 793.5,-291.5 793.5,-234.5 758.5,-234.5"/>
<text text-anchor="middle" x="776" y="-279.5" font-family="Helvetica,sans-Serif" font-size="10.00">bool</text>
<polyline fill="none" stroke="black" points="758.5,-272.5 793.5,-272.5 "/>
<text text-anchor="middle" x="776" y="-260.5" font-family="Helvetica,sans-Serif" font-size="10.00"> </text>
<polyline fill="none" stroke="black" points="758.5,-253.5 793.5,-253.5 "/>
<text text-anchor="middle" x="776" y="-241.5" font-family="Helvetica,sans-Serif" font-size="10.00"> </text>
</a>
</g>
</g>
<!-- Node11&#45;&gt;Node1 -->
<g id="edge12" class="edge"><title>Node11&#45;&gt;Node1</title>
<path fill="none" stroke="#404040" d="M762.901,-234.261C758.555,-225.213 753.64,-215.144 749,-206 742.162,-192.525 742.12,-188.049 733,-176 724.433,-164.681 714.505,-153.482 704.298,-142.948"/>
<polygon fill="none" stroke="#404040" points="704.136,-142.784 697.07,-141.344 695.683,-134.268 702.748,-135.708 704.136,-142.784"/>
<text text-anchor="middle" x="768" y="-179.5" font-family="Helvetica,sans-Serif" font-size="10.00"> &#45;shutdown_</text>
</g>
<!-- Node12 -->
<g id="node12" class="node"><title>Node12</title>
<polygon fill="white" stroke="#bfbfbf" points="812,-223.5 812,-302.5 910,-302.5 910,-223.5 812,-223.5"/>
<text text-anchor="start" x="820" y="-290.5" font-family="Helvetica,sans-Serif" font-size="10.00">function&lt; void(int</text>
<text text-anchor="start" x="820" y="-279.5" font-family="Helvetica,sans-Serif" font-size="10.00"> thread_id, const T</text>
<text text-anchor="middle" x="861" y="-268.5" font-family="Helvetica,sans-Serif" font-size="10.00"> &amp;workitem)&gt;</text>
<polyline fill="none" stroke="#bfbfbf" points="812,-261.5 910,-261.5 "/>
<text text-anchor="middle" x="861" y="-249.5" font-family="Helvetica,sans-Serif" font-size="10.00"> </text>
<polyline fill="none" stroke="#bfbfbf" points="812,-242.5 910,-242.5 "/>
<text text-anchor="middle" x="861" y="-230.5" font-family="Helvetica,sans-Serif" font-size="10.00"> </text>
</g>
<!-- Node12&#45;&gt;Node1 -->
<g id="edge13" class="edge"><title>Node12&#45;&gt;Node1</title>
<path fill="none" stroke="#404040" d="M838.157,-223.241C827.575,-207.369 814.016,-189.581 799,-176 771.841,-151.438 737.376,-130.26 706.896,-114.093"/>
<polygon fill="none" stroke="#404040" points="706.518,-113.896 699.35,-114.681 695.868,-108.366 703.037,-107.581 706.518,-113.896"/>
<text text-anchor="middle" x="846.5" y="-179.5" font-family="Helvetica,sans-Serif" font-size="10.00"> &#45;work_function_</text>
</g>
</g>
</svg>
        <g id="navigator" transform="translate(0 0)" fill="#404254">
                <rect fill="#f2f5e9" fill-opacity="0.5" stroke="#606060" stroke-width=".5" x="0" y="0" width="60" height="60"/>
                <use id="zoomplus" xlink:href="#zoomPlus" x="17" y="9" onmousedown="handleZoom(evt,'in')"/>
                <use id="zoomminus" xlink:href="#zoomMin" x="42" y="9" onmousedown="handleZoom(evt,'out')"/>
                <use id="reset" xlink:href="#resetDef" x="30" y="36" onmousedown="handleReset()"/>
                <g id="arrowUp" xlink:href="#dirArrow" transform="translate(30 24)" onmousedown="handlePan(0,-1)">
                  <use xlink:href="#rim" fill="#404040">
                        <set attributeName="fill" to="#808080" begin="arrowUp.mouseover" end="arrowUp.mouseout"/>
                  </use>
                  <path fill="none" stroke="white" stroke-width="1.5" d="M0,-3.0v7 M-2.5,-0.5L0,-3.0L2.5,-0.5"/>
                </g>
                <g id="arrowRight" xlink:href="#dirArrow" transform="rotate(90) translate(36 -43)" onmousedown="handlePan(1,0)">
                  <use xlink:href="#rim" fill="#404040">
                        <set attributeName="fill" to="#808080" begin="arrowRight.mouseover" end="arrowRight.mouseout"/>
                  </use>
                  <path fill="none" stroke="white" stroke-width="1.5" d="M0,-3.0v7 M-2.5,-0.5L0,-3.0L2.5,-0.5"/>
                </g>
                <g id="arrowDown" xlink:href="#dirArrow" transform="rotate(180) translate(-30 -48)" onmousedown="handlePan(0,1)">
                  <use xlink:href="#rim" fill="#404040">
                        <set attributeName="fill" to="#808080" begin="arrowDown.mouseover" end="arrowDown.mouseout"/>
                  </use>
                  <path fill="none" stroke="white" stroke-width="1.5" d="M0,-3.0v7 M-2.5,-0.5L0,-3.0L2.5,-0.5"/>
                </g>
                <g id="arrowLeft" xlink:href="#dirArrow" transform="rotate(270) translate(-36 17)" onmousedown="handlePan(-1,0)">
                  <use xlink:href="#rim" fill="#404040">
                        <set attributeName="fill" to="#808080" begin="arrowLeft.mouseover" end="arrowLeft.mouseout"/>
                  </use>
                  <path fill="none" stroke="white" stroke-width="1.5" d="M0,-3.0v7 M-2.5,-0.5L0,-3.0L2.5,-0.5"/>
                </g>
        </g>
        <svg viewBox="0 0 15 15" width="100%" height="30px" preserveAspectRatio="xMaxYMin meet">
         <g id="arrow_out" transform="scale(0.3 0.3)">
          <a xlink:href="classimpala_1_1ThreadPool__coll__graph_org.svg" target="_base">
           <rect id="button" ry="5" rx="5" y="6" x="6" height="38" width="38"
                fill="#f2f5e9" fill-opacity="0.5" stroke="#606060" stroke-width="1.0"/>
           <path id="arrow"
             d="M 11.500037,31.436501 C 11.940474,20.09759 22.043105,11.32322 32.158766,21.979434 L 37.068811,17.246167 C 37.068811,17.246167 37.088388,32 37.088388,32 L 22.160133,31.978069 C 22.160133,31.978069 26.997745,27.140456 26.997745,27.140456 C 18.528582,18.264221 13.291696,25.230495 11.500037,31.436501 z"
             style="fill:#404040;"/>
          </a>
         </g>
        </svg>
</svg>
