<?xml version="1.0" encoding="UTF-8" standalone="no"?>
<!DOCTYPE svg PUBLIC "-//W3C//DTD SVG 1.1//EN"
 "http://www.w3.org/Graphics/SVG/1.1/DTD/svg11.dtd">
<!-- Generated by graphviz version 2.36.0 (20140111.2315)
 -->
<!-- Title: impala::HBaseTable Pages: 1 -->
<svg width="365pt" height="292pt"
 viewBox="0.00 0.00 365.00 292.00" xmlns="http://www.w3.org/2000/svg" xmlns:xlink="http://www.w3.org/1999/xlink">
<g id="graph0" class="graph" transform="scale(1 1) rotate(0) translate(4 288)">
<title>impala::HBaseTable</title>
<polygon fill="white" stroke="none" points="-4,4 -4,-288 361,-288 361,4 -4,4"/>
<!-- Node1 -->
<g id="node1" class="node"><title>Node1</title>
<polygon fill="#bfbfbf" stroke="black" points="80,-0.5 80,-123.5 192,-123.5 192,-0.5 80,-0.5"/>
<text text-anchor="middle" x="136" y="-111.5" font-family="Helvetica,sans-Serif" font-size="10.00">impala::HBaseTable</text>
<polyline fill="none" stroke="black" points="80,-104.5 192,-104.5 "/>
<text text-anchor="middle" x="136" y="-92.5" font-family="Helvetica,sans-Serif" font-size="10.00"> </text>
<polyline fill="none" stroke="black" points="80,-85.5 192,-85.5 "/>
<text text-anchor="start" x="88" y="-73.5" font-family="Helvetica,sans-Serif" font-size="10.00">+ HBaseTable()</text>
<text text-anchor="start" x="88" y="-62.5" font-family="Helvetica,sans-Serif" font-size="10.00">+ ~HBaseTable()</text>
<text text-anchor="start" x="88" y="-51.5" font-family="Helvetica,sans-Serif" font-size="10.00">+ Close()</text>
<text text-anchor="start" x="88" y="-40.5" font-family="Helvetica,sans-Serif" font-size="10.00">+ Init()</text>
<text text-anchor="start" x="88" y="-29.5" font-family="Helvetica,sans-Serif" font-size="10.00">+ GetResultScanner()</text>
<text text-anchor="start" x="88" y="-18.5" font-family="Helvetica,sans-Serif" font-size="10.00">+ Put()</text>
<text text-anchor="start" x="88" y="-7.5" font-family="Helvetica,sans-Serif" font-size="10.00">+ InitJNI()</text>
</g>
<!-- Node2 -->
<g id="node2" class="node"><title>Node2</title>
<polygon fill="white" stroke="#bfbfbf" points="-0.5,-226.5 -0.5,-283.5 44.5,-283.5 44.5,-226.5 -0.5,-226.5"/>
<text text-anchor="middle" x="22" y="-271.5" font-family="Helvetica,sans-Serif" font-size="10.00">jobject</text>
<polyline fill="none" stroke="#bfbfbf" points="-0.5,-264.5 44.5,-264.5 "/>
<text text-anchor="middle" x="22" y="-252.5" font-family="Helvetica,sans-Serif" font-size="10.00"> </text>
<polyline fill="none" stroke="#bfbfbf" points="-0.5,-245.5 44.5,-245.5 "/>
<text text-anchor="middle" x="22" y="-233.5" font-family="Helvetica,sans-Serif" font-size="10.00"> </text>
</g>
<!-- Node2&#45;&gt;Node1 -->
<g id="edge1" class="edge"><title>Node2&#45;&gt;Node1</title>
<path fill="none" stroke="#404040" d="M20.1408,-226.413C19.7742,-202.568 22.3074,-167.949 37,-142 45.2824,-127.372 57.4462,-114.436 70.4348,-103.486"/>
<polygon fill="none" stroke="#404040" points="70.6101,-103.346 72.8094,-96.4789 79.9946,-95.8676 77.7953,-102.735 70.6101,-103.346"/>
<text text-anchor="middle" x="61.5" y="-183.5" font-family="Helvetica,sans-Serif" font-size="10.00"> &#45;executor_</text>
<text text-anchor="middle" x="61.5" y="-172.5" font-family="Helvetica,sans-Serif" font-size="10.00">&#45;htable_</text>
<text text-anchor="middle" x="61.5" y="-161.5" font-family="Helvetica,sans-Serif" font-size="10.00">&#45;conf_</text>
</g>
<!-- Node3 -->
<g id="node3" class="node"><title>Node3</title>
<polygon fill="white" stroke="#bfbfbf" points="73.5,-226.5 73.5,-283.5 114.5,-283.5 114.5,-226.5 73.5,-226.5"/>
<text text-anchor="middle" x="94" y="-271.5" font-family="Helvetica,sans-Serif" font-size="10.00">string</text>
<polyline fill="none" stroke="#bfbfbf" points="73.5,-264.5 114.5,-264.5 "/>
<text text-anchor="middle" x="94" y="-252.5" font-family="Helvetica,sans-Serif" font-size="10.00"> </text>
<polyline fill="none" stroke="#bfbfbf" points="73.5,-245.5 114.5,-245.5 "/>
<text text-anchor="middle" x="94" y="-233.5" font-family="Helvetica,sans-Serif" font-size="10.00"> </text>
</g>
<!-- Node3&#45;&gt;Node1 -->
<g id="edge2" class="edge"><title>Node3&#45;&gt;Node1</title>
<path fill="none" stroke="#404040" d="M90.7122,-226.393C88.8142,-203.445 88.0054,-170.116 95,-142 95.5736,-139.694 96.2261,-137.381 96.9461,-135.069"/>
<polygon fill="none" stroke="#404040" points="97.0198,-134.862 95.27,-127.866 101.055,-123.561 102.804,-130.556 97.0198,-134.862"/>
<text text-anchor="middle" x="126" y="-172.5" font-family="Helvetica,sans-Serif" font-size="10.00"> &#45;table_name_</text>
</g>
<!-- Node4 -->
<g id="node4" class="node"><title>Node4</title>
<polygon fill="white" stroke="#bfbfbf" points="148,-226.5 148,-283.5 210,-283.5 210,-226.5 148,-226.5"/>
<text text-anchor="middle" x="179" y="-271.5" font-family="Helvetica,sans-Serif" font-size="10.00">jmethodID</text>
<polyline fill="none" stroke="#bfbfbf" points="148,-264.5 210,-264.5 "/>
<text text-anchor="middle" x="179" y="-252.5" font-family="Helvetica,sans-Serif" font-size="10.00"> </text>
<polyline fill="none" stroke="#bfbfbf" points="148,-245.5 210,-245.5 "/>
<text text-anchor="middle" x="179" y="-233.5" font-family="Helvetica,sans-Serif" font-size="10.00"> </text>
</g>
<!-- Node4&#45;&gt;Node1 -->
<g id="edge3" class="edge"><title>Node4&#45;&gt;Node1</title>
<path fill="none" stroke="#404040" d="M174.08,-226.276C169.919,-203.545 163.597,-170.576 157,-142 156.507,-139.863 155.996,-137.696 155.473,-135.511"/>
<polygon fill="none" stroke="#404040" points="155.437,-135.366 150.12,-130.495 152.571,-123.713 157.888,-128.584 155.437,-135.366"/>
<text text-anchor="middle" x="224" y="-200" font-family="Helvetica,sans-Serif" font-size="10.00"> &#45;htable_put_id_</text>
<text text-anchor="middle" x="224" y="-189" font-family="Helvetica,sans-Serif" font-size="10.00">&#45;htable_close_id_</text>
<text text-anchor="start" x="171" y="-178" font-family="Helvetica,sans-Serif" font-size="10.00">&#45;bytes_to_bytes_id</text>
<text text-anchor="middle" x="224" y="-167" font-family="Helvetica,sans-Serif" font-size="10.00">_</text>
<text text-anchor="middle" x="224" y="-156" font-family="Helvetica,sans-Serif" font-size="10.00">&#45;htable_ctor_</text>
<text text-anchor="middle" x="224" y="-145" font-family="Helvetica,sans-Serif" font-size="10.00">&#45;htable_get_scanner_id_</text>
</g>
<!-- Node5 -->
<g id="node5" class="node"><title>Node5</title>
<polygon fill="white" stroke="#bfbfbf" points="287,-226.5 287,-283.5 329,-283.5 329,-226.5 287,-226.5"/>
<text text-anchor="middle" x="308" y="-271.5" font-family="Helvetica,sans-Serif" font-size="10.00">jclass</text>
<polyline fill="none" stroke="#bfbfbf" points="287,-264.5 329,-264.5 "/>
<text text-anchor="middle" x="308" y="-252.5" font-family="Helvetica,sans-Serif" font-size="10.00"> </text>
<polyline fill="none" stroke="#bfbfbf" points="287,-245.5 329,-245.5 "/>
<text text-anchor="middle" x="308" y="-233.5" font-family="Helvetica,sans-Serif" font-size="10.00"> </text>
</g>
<!-- Node5&#45;&gt;Node1 -->
<g id="edge4" class="edge"><title>Node5&#45;&gt;Node1</title>
<path fill="none" stroke="#404040" d="M307.484,-226.468C305.708,-202.007 299.745,-166.442 281,-142 261.45,-116.509 231.232,-98.1969 203.431,-85.6636"/>
<polygon fill="none" stroke="#404040" points="203.14,-85.5389 196.049,-86.8499 192.112,-80.8086 199.203,-79.4977 203.14,-85.5389"/>
<text text-anchor="middle" x="331.5" y="-178" font-family="Helvetica,sans-Serif" font-size="10.00"> &#45;htable_cl_</text>
<text text-anchor="middle" x="331.5" y="-167" font-family="Helvetica,sans-Serif" font-size="10.00">&#45;bytes_cl_</text>
</g>
</g>
</svg>
