<?xml version="1.0" encoding="UTF-8" standalone="no"?>
<!DOCTYPE svg PUBLIC "-//W3C//DTD SVG 1.1//EN"
 "http://www.w3.org/Graphics/SVG/1.1/DTD/svg11.dtd">
<!-- Generated by graphviz version 2.36.0 (20140111.2315)
 -->
<!-- Title: impala::RuntimeProfile::EventSequence Pages: 1 -->
<svg width="331pt" height="400pt"
 viewBox="0.00 0.00 331.00 400.00" xmlns="http://www.w3.org/2000/svg" xmlns:xlink="http://www.w3.org/1999/xlink">
<g id="graph0" class="graph" transform="scale(1 1) rotate(0) translate(4 396)">
<title>impala::RuntimeProfile::EventSequence</title>
<polygon fill="white" stroke="none" points="-4,4 -4,-396 327,-396 327,4 -4,4"/>
<!-- Node1 -->
<g id="node1" class="node"><title>Node1</title>
<polygon fill="#bfbfbf" stroke="black" points="69,-1 69,-135 185,-135 185,-1 69,-1"/>
<text text-anchor="start" x="77" y="-123" font-family="Helvetica,sans-Serif" font-size="10.00">impala::RuntimeProfile</text>
<text text-anchor="middle" x="127" y="-112" font-family="Helvetica,sans-Serif" font-size="10.00">::EventSequence</text>
<polyline fill="none" stroke="black" points="69,-105 185,-105 "/>
<text text-anchor="middle" x="127" y="-93" font-family="Helvetica,sans-Serif" font-size="10.00"> </text>
<polyline fill="none" stroke="black" points="69,-86 185,-86 "/>
<text text-anchor="start" x="77" y="-74" font-family="Helvetica,sans-Serif" font-size="10.00">+ EventSequence()</text>
<text text-anchor="start" x="77" y="-63" font-family="Helvetica,sans-Serif" font-size="10.00">+ EventSequence()</text>
<text text-anchor="start" x="77" y="-52" font-family="Helvetica,sans-Serif" font-size="10.00">+ Start()</text>
<text text-anchor="start" x="77" y="-41" font-family="Helvetica,sans-Serif" font-size="10.00">+ MarkEvent()</text>
<text text-anchor="start" x="77" y="-30" font-family="Helvetica,sans-Serif" font-size="10.00">+ ElapsedTime()</text>
<text text-anchor="start" x="77" y="-19" font-family="Helvetica,sans-Serif" font-size="10.00">+ GetEvents()</text>
<text text-anchor="start" x="77" y="-8" font-family="Helvetica,sans-Serif" font-size="10.00">+ ToThrift()</text>
</g>
<!-- Node2 -->
<g id="node2" class="node"><title>Node2</title>
<polygon fill="white" stroke="#bfbfbf" points="-0.5,-206.5 -0.5,-263.5 86.5,-263.5 86.5,-206.5 -0.5,-206.5"/>
<text text-anchor="middle" x="43" y="-251.5" font-family="Helvetica,sans-Serif" font-size="10.00">vector&lt; Event &gt;</text>
<polyline fill="none" stroke="#bfbfbf" points="-0.5,-244.5 86.5,-244.5 "/>
<text text-anchor="middle" x="43" y="-232.5" font-family="Helvetica,sans-Serif" font-size="10.00"> </text>
<polyline fill="none" stroke="#bfbfbf" points="-0.5,-225.5 86.5,-225.5 "/>
<text text-anchor="middle" x="43" y="-213.5" font-family="Helvetica,sans-Serif" font-size="10.00"> </text>
</g>
<!-- Node2&#45;&gt;Node1 -->
<g id="edge1" class="edge"><title>Node2&#45;&gt;Node1</title>
<path fill="none" stroke="#404040" d="M56.1325,-206.489C63.593,-191.007 73.1786,-171.356 82,-154 83.3086,-151.425 84.6459,-148.811 86.0018,-146.173"/>
<polygon fill="none" stroke="#404040" points="86.1421,-145.902 85.3468,-138.735 91.6568,-135.244 92.452,-142.411 86.1421,-145.902"/>
<text text-anchor="middle" x="102.5" y="-157.5" font-family="Helvetica,sans-Serif" font-size="10.00"> &#45;events_</text>
</g>
<!-- Node3 -->
<g id="node3" class="node"><title>Node3</title>
<polygon fill="white" stroke="#bfbfbf" points="105,-206.5 105,-263.5 149,-263.5 149,-206.5 105,-206.5"/>
<text text-anchor="middle" x="127" y="-251.5" font-family="Helvetica,sans-Serif" font-size="10.00">mutex</text>
<polyline fill="none" stroke="#bfbfbf" points="105,-244.5 149,-244.5 "/>
<text text-anchor="middle" x="127" y="-232.5" font-family="Helvetica,sans-Serif" font-size="10.00"> </text>
<polyline fill="none" stroke="#bfbfbf" points="105,-225.5 149,-225.5 "/>
<text text-anchor="middle" x="127" y="-213.5" font-family="Helvetica,sans-Serif" font-size="10.00"> </text>
</g>
<!-- Node3&#45;&gt;Node1 -->
<g id="edge2" class="edge"><title>Node3&#45;&gt;Node1</title>
<path fill="none" stroke="#404040" d="M127,-206.383C127,-190.048 127,-168.461 127,-147.249"/>
<polygon fill="none" stroke="#404040" points="127,-147.194 123,-141.195 127,-135.194 131,-141.194 127,-147.194"/>
<text text-anchor="middle" x="142" y="-157.5" font-family="Helvetica,sans-Serif" font-size="10.00"> &#45;lock_</text>
</g>
<!-- Node4 -->
<g id="node4" class="node"><title>Node4</title>
<g id="a_node4"><a xlink:href="classimpala_1_1MonotonicStopWatch.html" target="_top" xlink:title="{impala::MonotonicStopWatch\n||+ MonotonicStopWatch()\l+ Start()\l+ Stop()\l+ Reset()\l+ ElapsedTime()\l}">
<polygon fill="white" stroke="black" points="167.5,-184.5 167.5,-285.5 312.5,-285.5 312.5,-184.5 167.5,-184.5"/>
<text text-anchor="middle" x="240" y="-273.5" font-family="Helvetica,sans-Serif" font-size="10.00">impala::MonotonicStopWatch</text>
<polyline fill="none" stroke="black" points="167.5,-266.5 312.5,-266.5 "/>
<text text-anchor="middle" x="240" y="-254.5" font-family="Helvetica,sans-Serif" font-size="10.00"> </text>
<polyline fill="none" stroke="black" points="167.5,-247.5 312.5,-247.5 "/>
<text text-anchor="start" x="175.5" y="-235.5" font-family="Helvetica,sans-Serif" font-size="10.00">+ MonotonicStopWatch()</text>
<text text-anchor="start" x="175.5" y="-224.5" font-family="Helvetica,sans-Serif" font-size="10.00">+ Start()</text>
<text text-anchor="start" x="175.5" y="-213.5" font-family="Helvetica,sans-Serif" font-size="10.00">+ Stop()</text>
<text text-anchor="start" x="175.5" y="-202.5" font-family="Helvetica,sans-Serif" font-size="10.00">+ Reset()</text>
<text text-anchor="start" x="175.5" y="-191.5" font-family="Helvetica,sans-Serif" font-size="10.00">+ ElapsedTime()</text>
</a>
</g>
</g>
<!-- Node4&#45;&gt;Node1 -->
<g id="edge3" class="edge"><title>Node4&#45;&gt;Node1</title>
<path fill="none" stroke="#404040" d="M206.096,-184.495C197.652,-172.165 188.402,-158.658 179.298,-145.364"/>
<polygon fill="none" stroke="#404040" points="179.161,-145.164 172.47,-142.474 172.38,-135.263 179.071,-137.953 179.161,-145.164"/>
<text text-anchor="middle" x="203.5" y="-157.5" font-family="Helvetica,sans-Serif" font-size="10.00"> &#45;sw_</text>
</g>
<!-- Node5 -->
<g id="node5" class="node"><title>Node5</title>
<g id="a_node5"><a xlink:href="classuint64__t.html" target="_top" xlink:title="{uint64_t\n||}">
<polygon fill="white" stroke="black" points="136.5,-334.5 136.5,-391.5 187.5,-391.5 187.5,-334.5 136.5,-334.5"/>
<text text-anchor="middle" x="162" y="-379.5" font-family="Helvetica,sans-Serif" font-size="10.00">uint64_t</text>
<polyline fill="none" stroke="black" points="136.5,-372.5 187.5,-372.5 "/>
<text text-anchor="middle" x="162" y="-360.5" font-family="Helvetica,sans-Serif" font-size="10.00"> </text>
<polyline fill="none" stroke="black" points="136.5,-353.5 187.5,-353.5 "/>
<text text-anchor="middle" x="162" y="-341.5" font-family="Helvetica,sans-Serif" font-size="10.00"> </text>
</a>
</g>
</g>
<!-- Node5&#45;&gt;Node4 -->
<g id="edge4" class="edge"><title>Node5&#45;&gt;Node4</title>
<path fill="none" stroke="#404040" d="M168.569,-334.494C171.572,-324.52 175.671,-313.403 181,-304 182.606,-301.166 184.342,-298.342 186.176,-295.546"/>
<polygon fill="none" stroke="#404040" points="186.285,-295.392 186.464,-288.183 193.187,-285.575 193.008,-292.784 186.285,-295.392"/>
<text text-anchor="middle" x="208.5" y="-307.5" font-family="Helvetica,sans-Serif" font-size="10.00"> &#45;total_time_</text>
</g>
<!-- Node6 -->
<g id="node6" class="node"><title>Node6</title>
<polygon fill="white" stroke="#bfbfbf" points="212,-334.5 212,-391.5 268,-391.5 268,-334.5 212,-334.5"/>
<text text-anchor="middle" x="240" y="-379.5" font-family="Helvetica,sans-Serif" font-size="10.00">timespec</text>
<polyline fill="none" stroke="#bfbfbf" points="212,-372.5 268,-372.5 "/>
<text text-anchor="middle" x="240" y="-360.5" font-family="Helvetica,sans-Serif" font-size="10.00"> </text>
<polyline fill="none" stroke="#bfbfbf" points="212,-353.5 268,-353.5 "/>
<text text-anchor="middle" x="240" y="-341.5" font-family="Helvetica,sans-Serif" font-size="10.00"> </text>
</g>
<!-- Node6&#45;&gt;Node4 -->
<g id="edge5" class="edge"><title>Node6&#45;&gt;Node4</title>
<path fill="none" stroke="#404040" d="M240,-334.349C240,-323.534 240,-310.664 240,-297.858"/>
<polygon fill="none" stroke="#404040" points="240,-297.668 236,-291.668 240,-285.668 244,-291.668 240,-297.668"/>
<text text-anchor="middle" x="255.5" y="-307.5" font-family="Helvetica,sans-Serif" font-size="10.00"> &#45;start_</text>
</g>
<!-- Node7 -->
<g id="node7" class="node"><title>Node7</title>
<g id="a_node7"><a xlink:href="classbool.html" target="_top" xlink:title="{bool\n||}">
<polygon fill="white" stroke="black" points="286.5,-334.5 286.5,-391.5 321.5,-391.5 321.5,-334.5 286.5,-334.5"/>
<text text-anchor="middle" x="304" y="-379.5" font-family="Helvetica,sans-Serif" font-size="10.00">bool</text>
<polyline fill="none" stroke="black" points="286.5,-372.5 321.5,-372.5 "/>
<text text-anchor="middle" x="304" y="-360.5" font-family="Helvetica,sans-Serif" font-size="10.00"> </text>
<polyline fill="none" stroke="black" points="286.5,-353.5 321.5,-353.5 "/>
<text text-anchor="middle" x="304" y="-341.5" font-family="Helvetica,sans-Serif" font-size="10.00"> </text>
</a>
</g>
</g>
<!-- Node7&#45;&gt;Node4 -->
<g id="edge6" class="edge"><title>Node7&#45;&gt;Node4</title>
<path fill="none" stroke="#404040" d="M290.2,-334.235C285.411,-324.645 279.992,-313.839 275,-304 273.78,-301.595 272.533,-299.143 271.271,-296.668"/>
<polygon fill="none" stroke="#404040" points="271.142,-296.416 264.85,-292.893 265.681,-285.73 271.974,-289.253 271.142,-296.416"/>
<text text-anchor="middle" x="301.5" y="-307.5" font-family="Helvetica,sans-Serif" font-size="10.00"> &#45;running_</text>
</g>
</g>
</svg>
