<?xml version="1.0" encoding="UTF-8" standalone="no"?>
<!DOCTYPE svg PUBLIC "-//W3C//DTD SVG 1.1//EN"
 "http://www.w3.org/Graphics/SVG/1.1/DTD/svg11.dtd">
<!-- Generated by graphviz version 2.36.0 (20140111.2315)
 -->
<!-- Title: com.cloudera.impala.catalog.Catalog Pages: 1 -->
<svg width="1945pt" height="880pt"
 viewBox="0.00 0.00 1945.00 880.00" xmlns="http://www.w3.org/2000/svg" xmlns:xlink="http://www.w3.org/1999/xlink">
<g id="graph0" class="graph" transform="scale(1 1) rotate(0) translate(4 876)">
<title>com.cloudera.impala.catalog.Catalog</title>
<polygon fill="white" stroke="none" points="-4,4 -4,-876 1941,-876 1941,4 -4,4"/>
<!-- Node1 -->
<g id="node1" class="node"><title>Node1</title>
<polygon fill="#bfbfbf" stroke="black" points="857.998,-239 857.998,-439 1002,-439 1002,-239 857.998,-239"/>
<text text-anchor="start" x="865.998" y="-427" font-family="Helvetica,sans-Serif" font-size="10.00">com.cloudera.impala.catalog.</text>
<text text-anchor="middle" x="929.998" y="-416" font-family="Helvetica,sans-Serif" font-size="10.00">Catalog</text>
<polyline fill="none" stroke="black" points="857.998,-409 1002,-409 "/>
<text text-anchor="middle" x="929.998" y="-397" font-family="Helvetica,sans-Serif" font-size="10.00"> </text>
<polyline fill="none" stroke="black" points="857.998,-390 1002,-390 "/>
<text text-anchor="start" x="865.998" y="-378" font-family="Helvetica,sans-Serif" font-size="10.00">+ Catalog()</text>
<text text-anchor="start" x="865.998" y="-367" font-family="Helvetica,sans-Serif" font-size="10.00">+ getBuiltinsDb()</text>
<text text-anchor="start" x="865.998" y="-356" font-family="Helvetica,sans-Serif" font-size="10.00">+ addDb()</text>
<text text-anchor="start" x="865.998" y="-345" font-family="Helvetica,sans-Serif" font-size="10.00">+ getDb()</text>
<text text-anchor="start" x="865.998" y="-334" font-family="Helvetica,sans-Serif" font-size="10.00">+ removeDb()</text>
<text text-anchor="start" x="865.998" y="-323" font-family="Helvetica,sans-Serif" font-size="10.00">+ getDbNames()</text>
<text text-anchor="start" x="865.998" y="-312" font-family="Helvetica,sans-Serif" font-size="10.00">+ getTable()</text>
<text text-anchor="start" x="865.998" y="-301" font-family="Helvetica,sans-Serif" font-size="10.00">+ removeTable()</text>
<text text-anchor="start" x="865.998" y="-290" font-family="Helvetica,sans-Serif" font-size="10.00">+ getTableNames()</text>
<text text-anchor="start" x="865.998" y="-279" font-family="Helvetica,sans-Serif" font-size="10.00">+ containsTable()</text>
<text text-anchor="start" x="865.998" y="-268" font-family="Helvetica,sans-Serif" font-size="10.00">and 17 more...</text>
<text text-anchor="start" x="865.998" y="-257" font-family="Helvetica,sans-Serif" font-size="10.00">+ getBuiltin()</text>
<text text-anchor="start" x="865.998" y="-246" font-family="Helvetica,sans-Serif" font-size="10.00">&#45; filterStringsByPattern()</text>
</g>
<!-- Node17 -->
<g id="node17" class="node"><title>Node17</title>
<g id="a_node17"><a xlink:href="classcom_1_1cloudera_1_1impala_1_1catalog_1_1Db.html" target="_top" xlink:title="{com.cloudera.impala.catalog.Db\n||+ Db()\l+ setIsSystemDb()\l+ isSystemDb()\l+ toThrift()\l+ getName()\l+ getCatalogObjectType()\l+ addTable()\l+ getAllTableNames()\l+ containsTable()\l+ getTable()\land 16 more...\l+ fromTDatabase()\l# getAllFunctions()\l}">
<polygon fill="white" stroke="black" points="1347.5,-0.5 1347.5,-189.5 1504.5,-189.5 1504.5,-0.5 1347.5,-0.5"/>
<text text-anchor="middle" x="1426" y="-177.5" font-family="Helvetica,sans-Serif" font-size="10.00">com.cloudera.impala.catalog.Db</text>
<polyline fill="none" stroke="black" points="1347.5,-170.5 1504.5,-170.5 "/>
<text text-anchor="middle" x="1426" y="-158.5" font-family="Helvetica,sans-Serif" font-size="10.00"> </text>
<polyline fill="none" stroke="black" points="1347.5,-151.5 1504.5,-151.5 "/>
<text text-anchor="start" x="1355.5" y="-139.5" font-family="Helvetica,sans-Serif" font-size="10.00">+ Db()</text>
<text text-anchor="start" x="1355.5" y="-128.5" font-family="Helvetica,sans-Serif" font-size="10.00">+ setIsSystemDb()</text>
<text text-anchor="start" x="1355.5" y="-117.5" font-family="Helvetica,sans-Serif" font-size="10.00">+ isSystemDb()</text>
<text text-anchor="start" x="1355.5" y="-106.5" font-family="Helvetica,sans-Serif" font-size="10.00">+ toThrift()</text>
<text text-anchor="start" x="1355.5" y="-95.5" font-family="Helvetica,sans-Serif" font-size="10.00">+ getName()</text>
<text text-anchor="start" x="1355.5" y="-84.5" font-family="Helvetica,sans-Serif" font-size="10.00">+ getCatalogObjectType()</text>
<text text-anchor="start" x="1355.5" y="-73.5" font-family="Helvetica,sans-Serif" font-size="10.00">+ addTable()</text>
<text text-anchor="start" x="1355.5" y="-62.5" font-family="Helvetica,sans-Serif" font-size="10.00">+ getAllTableNames()</text>
<text text-anchor="start" x="1355.5" y="-51.5" font-family="Helvetica,sans-Serif" font-size="10.00">+ containsTable()</text>
<text text-anchor="start" x="1355.5" y="-40.5" font-family="Helvetica,sans-Serif" font-size="10.00">+ getTable()</text>
<text text-anchor="start" x="1355.5" y="-29.5" font-family="Helvetica,sans-Serif" font-size="10.00">and 16 more...</text>
<text text-anchor="start" x="1355.5" y="-18.5" font-family="Helvetica,sans-Serif" font-size="10.00">+ fromTDatabase()</text>
<text text-anchor="start" x="1355.5" y="-7.5" font-family="Helvetica,sans-Serif" font-size="10.00"># getAllFunctions()</text>
</a>
</g>
</g>
<!-- Node1&#45;&gt;Node17 -->
<g id="edge25" class="edge"><title>Node1&#45;&gt;Node17</title>
<path fill="none" stroke="#404040" d="M1002.13,-260.84C1023.2,-241.543 1047.25,-222.295 1072,-208 1155.01,-160.045 1261.04,-130.009 1335.33,-113.256"/>
<polygon fill="none" stroke="#404040" points="1335.72,-113.171 1340.71,-107.97 1347.44,-110.581 1342.44,-115.782 1335.72,-113.171"/>
<text text-anchor="middle" x="1108.5" y="-211.5" font-family="Helvetica,sans-Serif" font-size="10.00"> &#45;parentCatalog_</text>
</g>
<!-- Node2 -->
<g id="node2" class="node"><title>Node2</title>
<polygon fill="white" stroke="#bfbfbf" points="160.498,-560.5 160.498,-639.5 313.498,-639.5 313.498,-560.5 160.498,-560.5"/>
<text text-anchor="start" x="168.498" y="-627.5" font-family="Helvetica,sans-Serif" font-size="10.00">final CatalogObjectCache</text>
<text text-anchor="start" x="168.498" y="-616.5" font-family="Helvetica,sans-Serif" font-size="10.00">&lt; com.cloudera.impala.catalog.</text>
<text text-anchor="middle" x="236.998" y="-605.5" font-family="Helvetica,sans-Serif" font-size="10.00">HdfsCachePool &gt;</text>
<polyline fill="none" stroke="#bfbfbf" points="160.498,-598.5 313.498,-598.5 "/>
<text text-anchor="middle" x="236.998" y="-586.5" font-family="Helvetica,sans-Serif" font-size="10.00"> </text>
<polyline fill="none" stroke="#bfbfbf" points="160.498,-579.5 313.498,-579.5 "/>
<text text-anchor="middle" x="236.998" y="-567.5" font-family="Helvetica,sans-Serif" font-size="10.00"> </text>
</g>
<!-- Node2&#45;&gt;Node1 -->
<g id="edge1" class="edge"><title>Node2&#45;&gt;Node1</title>
<path fill="none" stroke="#404040" d="M257.747,-560.237C272.593,-536.06 294.741,-506.187 321.998,-488 485.322,-379.025 721.073,-350.154 845.583,-342.597"/>
<polygon fill="none" stroke="#404040" points="845.664,-342.593 851.427,-338.258 857.645,-341.911 851.882,-346.246 845.664,-342.593"/>
<text text-anchor="middle" x="408.998" y="-461.5" font-family="Helvetica,sans-Serif" font-size="10.00"> #hdfsCachePools_</text>
</g>
<!-- Node3 -->
<g id="node3" class="node"><title>Node3</title>
<polygon fill="white" stroke="#bfbfbf" points="910.998,-803.5 910.998,-860.5 952.998,-860.5 952.998,-803.5 910.998,-803.5"/>
<text text-anchor="middle" x="931.998" y="-848.5" font-family="Helvetica,sans-Serif" font-size="10.00">String</text>
<polyline fill="none" stroke="#bfbfbf" points="910.998,-841.5 952.998,-841.5 "/>
<text text-anchor="middle" x="931.998" y="-829.5" font-family="Helvetica,sans-Serif" font-size="10.00"> </text>
<polyline fill="none" stroke="#bfbfbf" points="910.998,-822.5 952.998,-822.5 "/>
<text text-anchor="middle" x="931.998" y="-810.5" font-family="Helvetica,sans-Serif" font-size="10.00"> </text>
</g>
<!-- Node3&#45;&gt;Node1 -->
<g id="edge2" class="edge"><title>Node3&#45;&gt;Node1</title>
<path fill="none" stroke="#404040" d="M953.082,-814.73C964.597,-804.459 977.752,-790.112 983.998,-774 991.065,-755.766 994.616,-746.422 983.998,-730 973.412,-713.629 954.889,-728.169 943.998,-712 916.282,-670.854 916.773,-545.276 921.608,-451.329"/>
<polygon fill="none" stroke="#404040" points="921.617,-451.15 917.948,-444.942 922.267,-439.168 925.936,-445.375 921.617,-451.15"/>
<text text-anchor="middle" x="981.498" y="-603" font-family="Helvetica,sans-Serif" font-size="10.00"> +BUILTINS_DB</text>
<text text-anchor="middle" x="981.498" y="-592" font-family="Helvetica,sans-Serif" font-size="10.00">+DEFAULT_DB</text>
</g>
<!-- Node13 -->
<g id="node13" class="node"><title>Node13</title>
<g id="a_node13"><a xlink:href="classcom_1_1cloudera_1_1impala_1_1catalog_1_1MetaStoreClientPool.html" target="_top" xlink:title="{com.cloudera.impala.catalog.\lMetaStoreClientPool\n||+ MetaStoreClientPool()\l+ MetaStoreClientPool()\l+ addClients()\l+ getClient()\l+ close()\l}">
<polygon fill="white" stroke="black" points="747.998,-544 747.998,-656 891.998,-656 891.998,-544 747.998,-544"/>
<text text-anchor="start" x="755.998" y="-644" font-family="Helvetica,sans-Serif" font-size="10.00">com.cloudera.impala.catalog.</text>
<text text-anchor="middle" x="819.998" y="-633" font-family="Helvetica,sans-Serif" font-size="10.00">MetaStoreClientPool</text>
<polyline fill="none" stroke="black" points="747.998,-626 891.998,-626 "/>
<text text-anchor="middle" x="819.998" y="-614" font-family="Helvetica,sans-Serif" font-size="10.00"> </text>
<polyline fill="none" stroke="black" points="747.998,-607 891.998,-607 "/>
<text text-anchor="start" x="755.998" y="-595" font-family="Helvetica,sans-Serif" font-size="10.00">+ MetaStoreClientPool()</text>
<text text-anchor="start" x="755.998" y="-584" font-family="Helvetica,sans-Serif" font-size="10.00">+ MetaStoreClientPool()</text>
<text text-anchor="start" x="755.998" y="-573" font-family="Helvetica,sans-Serif" font-size="10.00">+ addClients()</text>
<text text-anchor="start" x="755.998" y="-562" font-family="Helvetica,sans-Serif" font-size="10.00">+ getClient()</text>
<text text-anchor="start" x="755.998" y="-551" font-family="Helvetica,sans-Serif" font-size="10.00">+ close()</text>
</a>
</g>
</g>
<!-- Node3&#45;&gt;Node13 -->
<g id="edge14" class="edge"><title>Node3&#45;&gt;Node13</title>
<path fill="none" stroke="#404040" d="M910.874,-819.669C895.152,-811.459 873.037,-800.376 852.998,-792 830.433,-782.568 815.183,-793.922 800.998,-774 779.441,-743.726 782.984,-702.608 792.485,-668.053"/>
<polygon fill="none" stroke="#404040" points="792.613,-667.627 790.507,-660.73 796.063,-656.133 798.169,-663.03 792.613,-667.627"/>
<text text-anchor="start" x="800.998" y="-755" font-family="Helvetica,sans-Serif" font-size="10.00"> &#45;HIVE_METASTORE_CNXN</text>
<text text-anchor="middle" x="867.498" y="-744" font-family="Helvetica,sans-Serif" font-size="10.00">_DELAY_MS_CONF</text>
</g>
<!-- Node4 -->
<g id="node4" class="node"><title>Node4</title>
<polygon fill="white" stroke="#bfbfbf" points="331.498,-560.5 331.498,-639.5 484.498,-639.5 484.498,-560.5 331.498,-560.5"/>
<text text-anchor="start" x="339.498" y="-627.5" font-family="Helvetica,sans-Serif" font-size="10.00">final CatalogObjectCache</text>
<text text-anchor="start" x="339.498" y="-616.5" font-family="Helvetica,sans-Serif" font-size="10.00">&lt; com.cloudera.impala.catalog.</text>
<text text-anchor="middle" x="407.998" y="-605.5" font-family="Helvetica,sans-Serif" font-size="10.00">DataSource &gt;</text>
<polyline fill="none" stroke="#bfbfbf" points="331.498,-598.5 484.498,-598.5 "/>
<text text-anchor="middle" x="407.998" y="-586.5" font-family="Helvetica,sans-Serif" font-size="10.00"> </text>
<polyline fill="none" stroke="#bfbfbf" points="331.498,-579.5 484.498,-579.5 "/>
<text text-anchor="middle" x="407.998" y="-567.5" font-family="Helvetica,sans-Serif" font-size="10.00"> </text>
</g>
<!-- Node4&#45;&gt;Node1 -->
<g id="edge3" class="edge"><title>Node4&#45;&gt;Node1</title>
<path fill="none" stroke="#404040" d="M429.5,-560.31C444.513,-536.473 466.563,-506.949 492.998,-488 601.053,-410.546 752.685,-371.314 845.969,-353.3"/>
<polygon fill="none" stroke="#404040" points="846.099,-353.275 851.253,-348.233 857.891,-351.052 852.736,-356.094 846.099,-353.275"/>
<text text-anchor="middle" x="569.498" y="-461.5" font-family="Helvetica,sans-Serif" font-size="10.00"> #dataSources_</text>
</g>
<!-- Node5 -->
<g id="node5" class="node"><title>Node5</title>
<polygon fill="white" stroke="#bfbfbf" points="1018,-803.5 1018,-860.5 1064,-860.5 1064,-803.5 1018,-803.5"/>
<text text-anchor="middle" x="1041" y="-848.5" font-family="Helvetica,sans-Serif" font-size="10.00">Logger</text>
<polyline fill="none" stroke="#bfbfbf" points="1018,-841.5 1064,-841.5 "/>
<text text-anchor="middle" x="1041" y="-829.5" font-family="Helvetica,sans-Serif" font-size="10.00"> </text>
<polyline fill="none" stroke="#bfbfbf" points="1018,-822.5 1064,-822.5 "/>
<text text-anchor="middle" x="1041" y="-810.5" font-family="Helvetica,sans-Serif" font-size="10.00"> </text>
</g>
<!-- Node5&#45;&gt;Node1 -->
<g id="edge4" class="edge"><title>Node5&#45;&gt;Node1</title>
<path fill="none" stroke="#404040" d="M1042.89,-803.346C1047.28,-730.938 1055.2,-537.946 1019,-488 1006.36,-470.559 988.811,-485.638 973.998,-470 968.262,-463.945 963.272,-457.115 958.931,-449.836"/>
<polygon fill="none" stroke="#404040" points="958.929,-449.832 952.555,-446.46 953.217,-439.279 959.591,-442.651 958.929,-449.832"/>
<text text-anchor="middle" x="1060.5" y="-597.5" font-family="Helvetica,sans-Serif" font-size="10.00"> &#45;LOG</text>
</g>
<!-- Node7 -->
<g id="node7" class="node"><title>Node7</title>
<g id="a_node7"><a xlink:href="classcom_1_1cloudera_1_1impala_1_1catalog_1_1AuthorizationPolicy.html" target="_top" xlink:title="{com.cloudera.impala.catalog.\lAuthorizationPolicy\n||+ addRole()\l+ addPrivilege()\l+ removePrivilege()\l+ getAllRoles()\l+ getAllRoleNames()\l+ getRole()\l+ getRole()\l+ getPrivilege()\l+ getGrantedRoles()\l+ removeRole()\l+ addGrantGroup()\l+ removeGrantGroup()\l+ listPrivileges()\l+ close()\l+ getRolePrivileges()\l}">
<polygon fill="white" stroke="black" points="1224,-489 1224,-711 1368,-711 1368,-489 1224,-489"/>
<text text-anchor="start" x="1232" y="-699" font-family="Helvetica,sans-Serif" font-size="10.00">com.cloudera.impala.catalog.</text>
<text text-anchor="middle" x="1296" y="-688" font-family="Helvetica,sans-Serif" font-size="10.00">AuthorizationPolicy</text>
<polyline fill="none" stroke="black" points="1224,-681 1368,-681 "/>
<text text-anchor="middle" x="1296" y="-669" font-family="Helvetica,sans-Serif" font-size="10.00"> </text>
<polyline fill="none" stroke="black" points="1224,-662 1368,-662 "/>
<text text-anchor="start" x="1232" y="-650" font-family="Helvetica,sans-Serif" font-size="10.00">+ addRole()</text>
<text text-anchor="start" x="1232" y="-639" font-family="Helvetica,sans-Serif" font-size="10.00">+ addPrivilege()</text>
<text text-anchor="start" x="1232" y="-628" font-family="Helvetica,sans-Serif" font-size="10.00">+ removePrivilege()</text>
<text text-anchor="start" x="1232" y="-617" font-family="Helvetica,sans-Serif" font-size="10.00">+ getAllRoles()</text>
<text text-anchor="start" x="1232" y="-606" font-family="Helvetica,sans-Serif" font-size="10.00">+ getAllRoleNames()</text>
<text text-anchor="start" x="1232" y="-595" font-family="Helvetica,sans-Serif" font-size="10.00">+ getRole()</text>
<text text-anchor="start" x="1232" y="-584" font-family="Helvetica,sans-Serif" font-size="10.00">+ getRole()</text>
<text text-anchor="start" x="1232" y="-573" font-family="Helvetica,sans-Serif" font-size="10.00">+ getPrivilege()</text>
<text text-anchor="start" x="1232" y="-562" font-family="Helvetica,sans-Serif" font-size="10.00">+ getGrantedRoles()</text>
<text text-anchor="start" x="1232" y="-551" font-family="Helvetica,sans-Serif" font-size="10.00">+ removeRole()</text>
<text text-anchor="start" x="1232" y="-540" font-family="Helvetica,sans-Serif" font-size="10.00">+ addGrantGroup()</text>
<text text-anchor="start" x="1232" y="-529" font-family="Helvetica,sans-Serif" font-size="10.00">+ removeGrantGroup()</text>
<text text-anchor="start" x="1232" y="-518" font-family="Helvetica,sans-Serif" font-size="10.00">+ listPrivileges()</text>
<text text-anchor="start" x="1232" y="-507" font-family="Helvetica,sans-Serif" font-size="10.00">+ close()</text>
<text text-anchor="start" x="1232" y="-496" font-family="Helvetica,sans-Serif" font-size="10.00">+ getRolePrivileges()</text>
</a>
</g>
</g>
<!-- Node5&#45;&gt;Node7 -->
<g id="edge8" class="edge"><title>Node5&#45;&gt;Node7</title>
<path fill="none" stroke="#404040" d="M1059.49,-803.299C1063.48,-798.956 1068.02,-794.94 1073,-792 1110.75,-769.699 1135.72,-801.342 1170,-774 1186.65,-760.717 1177.86,-748.159 1189,-730 1197.12,-716.756 1206.51,-703.425 1216.28,-690.62"/>
<polygon fill="none" stroke="#404040" points="1216.44,-690.41 1216.97,-683.219 1223.81,-680.941 1223.28,-688.132 1216.44,-690.41"/>
<text text-anchor="middle" x="1202.5" y="-749.5" font-family="Helvetica,sans-Serif" font-size="10.00"> &#45;LOG</text>
</g>
<!-- Node5&#45;&gt;Node13 -->
<g id="edge15" class="edge"><title>Node5&#45;&gt;Node13</title>
<path fill="none" stroke="#404040" d="M1017.72,-807.057C996.651,-785.878 964.362,-754.608 933.998,-730 923.078,-721.151 918.252,-721.611 907.998,-712 893.287,-698.213 878.973,-681.872 866.311,-666.027"/>
<polygon fill="none" stroke="#404040" points="866.053,-665.698 859.203,-663.443 858.651,-656.253 865.5,-658.508 866.053,-665.698"/>
<text text-anchor="middle" x="996.498" y="-749.5" font-family="Helvetica,sans-Serif" font-size="10.00"> &#45;LOG</text>
</g>
<!-- Node5&#45;&gt;Node17 -->
<g id="edge23" class="edge"><title>Node5&#45;&gt;Node17</title>
<path fill="none" stroke="#404040" d="M1063.57,-803.252C1090.7,-769.774 1132.89,-717.288 1135,-712 1213.36,-515.52 1063.74,-416.017 1178,-238 1214.1,-181.751 1280.89,-145.378 1336.06,-123.54"/>
<polygon fill="none" stroke="#404040" points="1336.08,-123.532 1340.25,-117.648 1347.29,-119.232 1343.12,-125.117 1336.08,-123.532"/>
<text text-anchor="middle" x="1157.5" y="-461.5" font-family="Helvetica,sans-Serif" font-size="10.00"> &#45;LOG</text>
</g>
<!-- Node6 -->
<g id="node6" class="node"><title>Node6</title>
<polygon fill="white" stroke="#bfbfbf" points="502.498,-560.5 502.498,-639.5 729.498,-639.5 729.498,-560.5 502.498,-560.5"/>
<text text-anchor="start" x="510.498" y="-627.5" font-family="Helvetica,sans-Serif" font-size="10.00">AtomicReference&lt; Concurrent</text>
<text text-anchor="start" x="510.498" y="-616.5" font-family="Helvetica,sans-Serif" font-size="10.00">HashMap&lt; String, com.cloudera.impala.catalog.</text>
<text text-anchor="middle" x="615.998" y="-605.5" font-family="Helvetica,sans-Serif" font-size="10.00">Db &gt; &gt;</text>
<polyline fill="none" stroke="#bfbfbf" points="502.498,-598.5 729.498,-598.5 "/>
<text text-anchor="middle" x="615.998" y="-586.5" font-family="Helvetica,sans-Serif" font-size="10.00"> </text>
<polyline fill="none" stroke="#bfbfbf" points="502.498,-579.5 729.498,-579.5 "/>
<text text-anchor="middle" x="615.998" y="-567.5" font-family="Helvetica,sans-Serif" font-size="10.00"> </text>
</g>
<!-- Node6&#45;&gt;Node1 -->
<g id="edge5" class="edge"><title>Node6&#45;&gt;Node1</title>
<path fill="none" stroke="#404040" d="M649.157,-560.262C675.505,-530.603 714.103,-489.559 751.998,-458 781.562,-433.379 816.405,-409.33 847.39,-389.434"/>
<polygon fill="none" stroke="#404040" points="847.613,-389.293 850.528,-382.697 857.737,-382.851 854.822,-389.447 847.613,-389.293"/>
<text text-anchor="middle" x="778.498" y="-461.5" font-family="Helvetica,sans-Serif" font-size="10.00"> #dbCache_</text>
</g>
<!-- Node7&#45;&gt;Node1 -->
<g id="edge6" class="edge"><title>Node7&#45;&gt;Node1</title>
<path fill="none" stroke="#404040" d="M1223.75,-490.649C1213.26,-478.8 1201.94,-467.582 1190,-458 1137.58,-415.953 1067.78,-385.349 1013.7,-365.86"/>
<polygon fill="none" stroke="#404040" points="1013.37,-365.746 1006.38,-367.519 1002.06,-361.749 1009.05,-359.976 1013.37,-365.746"/>
<text text-anchor="middle" x="1231" y="-461.5" font-family="Helvetica,sans-Serif" font-size="10.00"> #authPolicy_</text>
</g>
<!-- Node8 -->
<g id="node8" class="node"><title>Node8</title>
<polygon fill="white" stroke="#bfbfbf" points="1414.5,-803.5 1414.5,-860.5 1497.5,-860.5 1497.5,-803.5 1414.5,-803.5"/>
<text text-anchor="middle" x="1456" y="-848.5" font-family="Helvetica,sans-Serif" font-size="10.00">PrivilegeCache</text>
<polyline fill="none" stroke="#bfbfbf" points="1414.5,-841.5 1497.5,-841.5 "/>
<text text-anchor="middle" x="1456" y="-829.5" font-family="Helvetica,sans-Serif" font-size="10.00"> </text>
<polyline fill="none" stroke="#bfbfbf" points="1414.5,-822.5 1497.5,-822.5 "/>
<text text-anchor="middle" x="1456" y="-810.5" font-family="Helvetica,sans-Serif" font-size="10.00"> </text>
</g>
<!-- Node8&#45;&gt;Node7 -->
<g id="edge7" class="edge"><title>Node8&#45;&gt;Node7</title>
<path fill="none" stroke="midnightblue" d="M1438.86,-793.902C1429.25,-774.333 1416.49,-750.25 1403,-730 1392.43,-714.141 1380.26,-697.952 1368.01,-682.641"/>
<polygon fill="none" stroke="midnightblue" points="1435.81,-795.633 1443.31,-803.11 1442.11,-792.584 1435.81,-795.633"/>
</g>
<!-- Node9 -->
<g id="node9" class="node"><title>Node9</title>
<polygon fill="white" stroke="#bfbfbf" points="1515.5,-803.5 1515.5,-860.5 1630.5,-860.5 1630.5,-803.5 1515.5,-803.5"/>
<text text-anchor="middle" x="1573" y="-848.5" font-family="Helvetica,sans-Serif" font-size="10.00">Map&lt; Integer, String &gt;</text>
<polyline fill="none" stroke="#bfbfbf" points="1515.5,-841.5 1630.5,-841.5 "/>
<text text-anchor="middle" x="1573" y="-829.5" font-family="Helvetica,sans-Serif" font-size="10.00"> </text>
<polyline fill="none" stroke="#bfbfbf" points="1515.5,-822.5 1630.5,-822.5 "/>
<text text-anchor="middle" x="1573" y="-810.5" font-family="Helvetica,sans-Serif" font-size="10.00"> </text>
</g>
<!-- Node9&#45;&gt;Node7 -->
<g id="edge9" class="edge"><title>Node9&#45;&gt;Node7</title>
<path fill="none" stroke="#404040" d="M1539.86,-803.485C1499.95,-770.346 1431.51,-713.522 1377.28,-668.49"/>
<polygon fill="none" stroke="#404040" points="1377.25,-668.466 1370.08,-667.71 1368.02,-660.8 1375.19,-661.556 1377.25,-668.466"/>
<text text-anchor="middle" x="1520" y="-749.5" font-family="Helvetica,sans-Serif" font-size="10.00"> ~roleIds_</text>
</g>
<!-- Node10 -->
<g id="node10" class="node"><title>Node10</title>
<polygon fill="white" stroke="#bfbfbf" points="1082.5,-792.5 1082.5,-871.5 1235.5,-871.5 1235.5,-792.5 1082.5,-792.5"/>
<text text-anchor="start" x="1090.5" y="-859.5" font-family="Helvetica,sans-Serif" font-size="10.00">final CatalogObjectCache</text>
<text text-anchor="start" x="1090.5" y="-848.5" font-family="Helvetica,sans-Serif" font-size="10.00">&lt; com.cloudera.impala.catalog.</text>
<text text-anchor="middle" x="1159" y="-837.5" font-family="Helvetica,sans-Serif" font-size="10.00">Role &gt;</text>
<polyline fill="none" stroke="#bfbfbf" points="1082.5,-830.5 1235.5,-830.5 "/>
<text text-anchor="middle" x="1159" y="-818.5" font-family="Helvetica,sans-Serif" font-size="10.00"> </text>
<polyline fill="none" stroke="#bfbfbf" points="1082.5,-811.5 1235.5,-811.5 "/>
<text text-anchor="middle" x="1159" y="-799.5" font-family="Helvetica,sans-Serif" font-size="10.00"> </text>
</g>
<!-- Node10&#45;&gt;Node7 -->
<g id="edge10" class="edge"><title>Node10&#45;&gt;Node7</title>
<path fill="none" stroke="#404040" d="M1204.55,-792.466C1210.14,-786.613 1215.47,-780.386 1220,-774 1231.28,-758.078 1241.43,-740.214 1250.35,-722.17"/>
<polygon fill="none" stroke="#404040" points="1250.41,-722.05 1249.4,-714.909 1255.61,-711.234 1256.61,-718.375 1250.41,-722.05"/>
<text text-anchor="middle" x="1273" y="-749.5" font-family="Helvetica,sans-Serif" font-size="10.00"> &#45;roleCache_</text>
</g>
<!-- Node11 -->
<g id="node11" class="node"><title>Node11</title>
<polygon fill="white" stroke="#bfbfbf" points="1253.5,-803.5 1253.5,-860.5 1396.5,-860.5 1396.5,-803.5 1253.5,-803.5"/>
<text text-anchor="middle" x="1325" y="-848.5" font-family="Helvetica,sans-Serif" font-size="10.00">Map&lt; String, Set&lt; String &gt; &gt;</text>
<polyline fill="none" stroke="#bfbfbf" points="1253.5,-841.5 1396.5,-841.5 "/>
<text text-anchor="middle" x="1325" y="-829.5" font-family="Helvetica,sans-Serif" font-size="10.00"> </text>
<polyline fill="none" stroke="#bfbfbf" points="1253.5,-822.5 1396.5,-822.5 "/>
<text text-anchor="middle" x="1325" y="-810.5" font-family="Helvetica,sans-Serif" font-size="10.00"> </text>
</g>
<!-- Node11&#45;&gt;Node7 -->
<g id="edge11" class="edge"><title>Node11&#45;&gt;Node7</title>
<path fill="none" stroke="#404040" d="M1321.5,-803.257C1318.91,-782.741 1315.19,-753.238 1311.39,-723.084"/>
<polygon fill="none" stroke="#404040" points="1311.38,-722.966 1306.66,-717.513 1309.87,-711.06 1314.59,-716.513 1311.38,-722.966"/>
<text text-anchor="middle" x="1358.5" y="-749.5" font-family="Helvetica,sans-Serif" font-size="10.00"> ~groupsToRoles_</text>
</g>
<!-- Node12 -->
<g id="node12" class="node"><title>Node12</title>
<polygon fill="white" stroke="#bfbfbf" points="95.4975,-803.5 95.4975,-860.5 124.498,-860.5 124.498,-803.5 95.4975,-803.5"/>
<text text-anchor="middle" x="109.998" y="-848.5" font-family="Helvetica,sans-Serif" font-size="10.00">int</text>
<polyline fill="none" stroke="#bfbfbf" points="95.4975,-841.5 124.498,-841.5 "/>
<text text-anchor="middle" x="109.998" y="-829.5" font-family="Helvetica,sans-Serif" font-size="10.00"> </text>
<polyline fill="none" stroke="#bfbfbf" points="95.4975,-822.5 124.498,-822.5 "/>
<text text-anchor="middle" x="109.998" y="-810.5" font-family="Helvetica,sans-Serif" font-size="10.00"> </text>
</g>
<!-- Node12&#45;&gt;Node1 -->
<g id="edge12" class="edge"><title>Node12&#45;&gt;Node1</title>
<path fill="none" stroke="#404040" d="M95.35,-814.347C77.2859,-792.588 47.5546,-752.47 35.9975,-712 8.6604,-616.271 -28.394,-563.928 35.9975,-488 139.578,-365.862 643.832,-344.386 845.956,-340.712"/>
<polygon fill="none" stroke="#404040" points="845.961,-340.712 851.892,-336.611 857.959,-340.508 852.028,-344.61 845.961,-340.712"/>
<text text-anchor="start" x="35.9975" y="-603" font-family="Helvetica,sans-Serif" font-size="10.00"> &#45;META_STORE_CLIENT</text>
<text text-anchor="middle" x="93.4975" y="-592" font-family="Helvetica,sans-Serif" font-size="10.00">_POOL_SIZE</text>
</g>
<!-- Node12&#45;&gt;Node13 -->
<g id="edge17" class="edge"><title>Node12&#45;&gt;Node13</title>
<path fill="none" stroke="#404040" d="M124.705,-824.066C166.113,-804.927 287.653,-751.369 394.998,-730 469.856,-715.098 670.777,-748.156 737.998,-712 757.312,-701.611 773.298,-684.461 785.866,-666.712"/>
<polygon fill="none" stroke="#404040" points="786.199,-666.214 786.21,-659.002 792.87,-656.239 792.86,-663.45 786.199,-666.214"/>
<text text-anchor="start" x="394.998" y="-766" font-family="Helvetica,sans-Serif" font-size="10.00"> &#45;clientCreationDelayMs</text>
<text text-anchor="middle" x="467.998" y="-755" font-family="Helvetica,sans-Serif" font-size="10.00">_</text>
<text text-anchor="start" x="394.998" y="-744" font-family="Helvetica,sans-Serif" font-size="10.00">&#45;DEFAULT_HIVE_METASTORE</text>
<text text-anchor="middle" x="467.998" y="-733" font-family="Helvetica,sans-Serif" font-size="10.00">_CNXN_DELAY_MS_CONF</text>
</g>
<!-- Node13&#45;&gt;Node1 -->
<g id="edge13" class="edge"><title>Node13&#45;&gt;Node1</title>
<path fill="none" stroke="#404040" d="M805.93,-543.897C801.768,-517.047 800.879,-484.843 811.998,-458 820.37,-437.787 834.071,-419.231 849.228,-403.114"/>
<polygon fill="none" stroke="#404040" points="849.364,-402.976 850.715,-395.892 857.773,-394.416 856.422,-401.499 849.364,-402.976"/>
<text text-anchor="middle" x="863.998" y="-461.5" font-family="Helvetica,sans-Serif" font-size="10.00"> #metaStoreClientPool_</text>
</g>
<!-- Node14 -->
<g id="node14" class="node"><title>Node14</title>
<polygon fill="white" stroke="#bfbfbf" points="507.998,-803.5 507.998,-860.5 565.998,-860.5 565.998,-803.5 507.998,-803.5"/>
<text text-anchor="middle" x="536.998" y="-848.5" font-family="Helvetica,sans-Serif" font-size="10.00">HiveConf</text>
<polyline fill="none" stroke="#bfbfbf" points="507.998,-841.5 565.998,-841.5 "/>
<text text-anchor="middle" x="536.998" y="-829.5" font-family="Helvetica,sans-Serif" font-size="10.00"> </text>
<polyline fill="none" stroke="#bfbfbf" points="507.998,-822.5 565.998,-822.5 "/>
<text text-anchor="middle" x="536.998" y="-810.5" font-family="Helvetica,sans-Serif" font-size="10.00"> </text>
</g>
<!-- Node14&#45;&gt;Node13 -->
<g id="edge16" class="edge"><title>Node14&#45;&gt;Node13</title>
<path fill="none" stroke="#404040" d="M538.417,-803.256C541.197,-779.916 549.072,-747.611 570.998,-730 629.198,-683.25 673.248,-749.155 737.998,-712 756.845,-701.184 772.631,-684.1 785.158,-666.545"/>
<polygon fill="none" stroke="#404040" points="785.433,-666.139 785.481,-658.928 792.156,-656.199 792.108,-663.41 785.433,-666.139"/>
<text text-anchor="middle" x="596.498" y="-749.5" font-family="Helvetica,sans-Serif" font-size="10.00"> &#45;hiveConf_</text>
</g>
<!-- Node15 -->
<g id="node15" class="node"><title>Node15</title>
<polygon fill="white" stroke="#bfbfbf" points="584.998,-803.5 584.998,-860.5 636.998,-860.5 636.998,-803.5 584.998,-803.5"/>
<text text-anchor="middle" x="610.998" y="-848.5" font-family="Helvetica,sans-Serif" font-size="10.00">Boolean</text>
<polyline fill="none" stroke="#bfbfbf" points="584.998,-841.5 636.998,-841.5 "/>
<text text-anchor="middle" x="610.998" y="-829.5" font-family="Helvetica,sans-Serif" font-size="10.00"> </text>
<polyline fill="none" stroke="#bfbfbf" points="584.998,-822.5 636.998,-822.5 "/>
<text text-anchor="middle" x="610.998" y="-810.5" font-family="Helvetica,sans-Serif" font-size="10.00"> </text>
</g>
<!-- Node15&#45;&gt;Node13 -->
<g id="edge18" class="edge"><title>Node15&#45;&gt;Node13</title>
<path fill="none" stroke="#404040" d="M615.86,-803.206C621.369,-780.16 632.664,-748.311 654.998,-730 684.187,-706.068 706.302,-732.498 737.998,-712 755.909,-700.417 771.279,-683.466 783.71,-666.281"/>
<polygon fill="none" stroke="#404040" points="783.869,-666.051 783.986,-658.841 790.686,-656.175 790.569,-663.385 783.869,-666.051"/>
<text text-anchor="middle" x="685.498" y="-749.5" font-family="Helvetica,sans-Serif" font-size="10.00"> &#45;poolClosed_</text>
</g>
<!-- Node16 -->
<g id="node16" class="node"><title>Node16</title>
<polygon fill="white" stroke="#bfbfbf" points="655.498,-792.5 655.498,-871.5 844.498,-871.5 844.498,-792.5 655.498,-792.5"/>
<text text-anchor="start" x="663.498" y="-859.5" font-family="Helvetica,sans-Serif" font-size="10.00">ConcurrentLinkedQueue</text>
<text text-anchor="start" x="663.498" y="-848.5" font-family="Helvetica,sans-Serif" font-size="10.00">&lt; com.cloudera.impala.catalog.</text>
<text text-anchor="middle" x="749.998" y="-837.5" font-family="Helvetica,sans-Serif" font-size="10.00">MetaStoreClientPool.MetaStoreClient &gt;</text>
<polyline fill="none" stroke="#bfbfbf" points="655.498,-830.5 844.498,-830.5 "/>
<text text-anchor="middle" x="749.998" y="-818.5" font-family="Helvetica,sans-Serif" font-size="10.00"> </text>
<polyline fill="none" stroke="#bfbfbf" points="655.498,-811.5 844.498,-811.5 "/>
<text text-anchor="middle" x="749.998" y="-799.5" font-family="Helvetica,sans-Serif" font-size="10.00"> </text>
</g>
<!-- Node16&#45;&gt;Node13 -->
<g id="edge19" class="edge"><title>Node16&#45;&gt;Node13</title>
<path fill="none" stroke="#404040" d="M728.563,-792.15C720.873,-773.17 715.706,-750.138 722.998,-730 726.543,-720.208 731.568,-720.191 737.998,-712 749.526,-697.313 761.634,-681.282 772.901,-666.086"/>
<polygon fill="none" stroke="#404040" points="773.041,-665.897 773.387,-658.694 780.169,-656.243 779.823,-663.446 773.041,-665.897"/>
<text text-anchor="middle" x="750.498" y="-749.5" font-family="Helvetica,sans-Serif" font-size="10.00"> &#45;clientPool_</text>
</g>
<!-- Node17&#45;&gt;Node1 -->
<g id="edge20" class="edge"><title>Node17&#45;&gt;Node1</title>
<path fill="none" stroke="#404040" d="M1347.17,-105.211C1229.7,-120.518 1016.73,-154.867 962.998,-208 957.101,-213.83 952.207,-220.554 948.15,-227.809"/>
<polygon fill="none" stroke="#404040" points="948.058,-227.998 949.015,-235.145 942.786,-238.778 941.828,-231.631 948.058,-227.998"/>
<text text-anchor="middle" x="990.498" y="-211.5" font-family="Helvetica,sans-Serif" font-size="10.00"> &#45;builtinsDb_</text>
</g>
<!-- Node18 -->
<g id="node18" class="node"><title>Node18</title>
<g id="a_node18"><a xlink:href="interfacecom_1_1cloudera_1_1impala_1_1catalog_1_1CatalogObject.html" target="_top" xlink:title="{com.cloudera.impala.catalog.\lCatalogObject\n||+ getCatalogObjectType()\l+ getName()\l+ getCatalogVersion()\l+ setCatalogVersion()\l+ isLoaded()\l}">
<polygon fill="white" stroke="black" points="1187,-283 1187,-395 1331,-395 1331,-283 1187,-283"/>
<text text-anchor="start" x="1195" y="-383" font-family="Helvetica,sans-Serif" font-size="10.00">com.cloudera.impala.catalog.</text>
<text text-anchor="middle" x="1259" y="-372" font-family="Helvetica,sans-Serif" font-size="10.00">CatalogObject</text>
<polyline fill="none" stroke="black" points="1187,-365 1331,-365 "/>
<text text-anchor="middle" x="1259" y="-353" font-family="Helvetica,sans-Serif" font-size="10.00"> </text>
<polyline fill="none" stroke="black" points="1187,-346 1331,-346 "/>
<text text-anchor="start" x="1195" y="-334" font-family="Helvetica,sans-Serif" font-size="10.00">+ getCatalogObjectType()</text>
<text text-anchor="start" x="1195" y="-323" font-family="Helvetica,sans-Serif" font-size="10.00">+ getName()</text>
<text text-anchor="start" x="1195" y="-312" font-family="Helvetica,sans-Serif" font-size="10.00">+ getCatalogVersion()</text>
<text text-anchor="start" x="1195" y="-301" font-family="Helvetica,sans-Serif" font-size="10.00">+ setCatalogVersion()</text>
<text text-anchor="start" x="1195" y="-290" font-family="Helvetica,sans-Serif" font-size="10.00">+ isLoaded()</text>
</a>
</g>
</g>
<!-- Node18&#45;&gt;Node17 -->
<g id="edge21" class="edge"><title>Node18&#45;&gt;Node17</title>
<path fill="none" stroke="midnightblue" d="M1303.01,-274.219C1320.81,-248.425 1341.72,-218.126 1361.2,-189.9"/>
<polygon fill="none" stroke="midnightblue" points="1299.9,-272.565 1297.1,-282.784 1305.66,-276.541 1299.9,-272.565"/>
</g>
<!-- Node19 -->
<g id="node19" class="node"><title>Node19</title>
<polygon fill="white" stroke="#bfbfbf" points="1349.5,-299.5 1349.5,-378.5 1502.5,-378.5 1502.5,-299.5 1349.5,-299.5"/>
<text text-anchor="start" x="1357.5" y="-366.5" font-family="Helvetica,sans-Serif" font-size="10.00">HashMap&lt; String, List</text>
<text text-anchor="start" x="1357.5" y="-355.5" font-family="Helvetica,sans-Serif" font-size="10.00">&lt; com.cloudera.impala.catalog.</text>
<text text-anchor="middle" x="1426" y="-344.5" font-family="Helvetica,sans-Serif" font-size="10.00">Function &gt; &gt;</text>
<polyline fill="none" stroke="#bfbfbf" points="1349.5,-337.5 1502.5,-337.5 "/>
<text text-anchor="middle" x="1426" y="-325.5" font-family="Helvetica,sans-Serif" font-size="10.00"> </text>
<polyline fill="none" stroke="#bfbfbf" points="1349.5,-318.5 1502.5,-318.5 "/>
<text text-anchor="middle" x="1426" y="-306.5" font-family="Helvetica,sans-Serif" font-size="10.00"> </text>
</g>
<!-- Node19&#45;&gt;Node17 -->
<g id="edge22" class="edge"><title>Node19&#45;&gt;Node17</title>
<path fill="none" stroke="#404040" d="M1426,-299.387C1426,-272.946 1426,-236.511 1426,-201.776"/>
<polygon fill="none" stroke="#404040" points="1426,-201.58 1422,-195.58 1426,-189.58 1430,-195.58 1426,-201.58"/>
<text text-anchor="middle" x="1452" y="-211.5" font-family="Helvetica,sans-Serif" font-size="10.00"> &#45;functions_</text>
</g>
<!-- Node20 -->
<g id="node20" class="node"><title>Node20</title>
<polygon fill="white" stroke="#bfbfbf" points="1520.5,-310.5 1520.5,-367.5 1585.5,-367.5 1585.5,-310.5 1520.5,-310.5"/>
<text text-anchor="middle" x="1553" y="-355.5" font-family="Helvetica,sans-Serif" font-size="10.00">TDatabase</text>
<polyline fill="none" stroke="#bfbfbf" points="1520.5,-348.5 1585.5,-348.5 "/>
<text text-anchor="middle" x="1553" y="-336.5" font-family="Helvetica,sans-Serif" font-size="10.00"> </text>
<polyline fill="none" stroke="#bfbfbf" points="1520.5,-329.5 1585.5,-329.5 "/>
<text text-anchor="middle" x="1553" y="-317.5" font-family="Helvetica,sans-Serif" font-size="10.00"> </text>
</g>
<!-- Node20&#45;&gt;Node17 -->
<g id="edge24" class="edge"><title>Node20&#45;&gt;Node17</title>
<path fill="none" stroke="#404040" d="M1542.61,-310.364C1534.67,-290.016 1523.07,-261.858 1511,-238 1504.71,-225.583 1497.76,-212.781 1490.63,-200.184"/>
<polygon fill="none" stroke="#404040" points="1490.56,-200.075 1484.11,-196.859 1484.6,-189.664 1491.05,-192.881 1490.56,-200.075"/>
<text text-anchor="middle" x="1522" y="-211.5" font-family="Helvetica,sans-Serif" font-size="10.00"> &#45;thriftDb_</text>
</g>
<!-- Node21 -->
<g id="node21" class="node"><title>Node21</title>
<polygon fill="white" stroke="#bfbfbf" points="1091.5,-571.5 1091.5,-628.5 1126.5,-628.5 1126.5,-571.5 1091.5,-571.5"/>
<text text-anchor="middle" x="1109" y="-616.5" font-family="Helvetica,sans-Serif" font-size="10.00">long</text>
<polyline fill="none" stroke="#bfbfbf" points="1091.5,-609.5 1126.5,-609.5 "/>
<text text-anchor="middle" x="1109" y="-597.5" font-family="Helvetica,sans-Serif" font-size="10.00"> </text>
<polyline fill="none" stroke="#bfbfbf" points="1091.5,-590.5 1126.5,-590.5 "/>
<text text-anchor="middle" x="1109" y="-578.5" font-family="Helvetica,sans-Serif" font-size="10.00"> </text>
</g>
<!-- Node21&#45;&gt;Node1 -->
<g id="edge29" class="edge"><title>Node21&#45;&gt;Node1</title>
<path fill="none" stroke="#404040" d="M1107.27,-571.108C1104.16,-545.752 1095.58,-509.163 1072,-488 1043.9,-462.791 1018.37,-493.71 988.998,-470 981.607,-464.034 975.108,-456.941 969.397,-449.193"/>
<polygon fill="none" stroke="#404040" points="969.28,-449.018 962.611,-446.274 962.579,-439.063 969.248,-441.807 969.28,-449.018"/>
<text text-anchor="middle" x="1063" y="-461.5" font-family="Helvetica,sans-Serif" font-size="10.00"> +INITIAL_CATALOG_VERSION</text>
</g>
<!-- Node21&#45;&gt;Node17 -->
<g id="edge26" class="edge"><title>Node21&#45;&gt;Node17</title>
<path fill="none" stroke="#404040" d="M1126.83,-571.487C1145.44,-545.28 1177.17,-507.082 1215,-488 1290.79,-449.764 1537.87,-503.69 1594,-440 1653.36,-372.647 1631.79,-319.434 1594,-238 1577.1,-201.585 1545.75,-171.132 1514.67,-147.885"/>
<polygon fill="none" stroke="#404040" points="1514.32,-147.634 1507.11,-147.352 1504.6,-140.592 1511.81,-140.874 1514.32,-147.634"/>
<text text-anchor="middle" x="1668" y="-336.5" font-family="Helvetica,sans-Serif" font-size="10.00"> &#45;catalogVersion_</text>
</g>
<!-- Node22 -->
<g id="node22" class="node"><title>Node22</title>
<polygon fill="white" stroke="#bfbfbf" points="1716,-310.5 1716,-367.5 1766,-367.5 1766,-310.5 1716,-310.5"/>
<text text-anchor="middle" x="1741" y="-355.5" font-family="Helvetica,sans-Serif" font-size="10.00">boolean</text>
<polyline fill="none" stroke="#bfbfbf" points="1716,-348.5 1766,-348.5 "/>
<text text-anchor="middle" x="1741" y="-336.5" font-family="Helvetica,sans-Serif" font-size="10.00"> </text>
<polyline fill="none" stroke="#bfbfbf" points="1716,-329.5 1766,-329.5 "/>
<text text-anchor="middle" x="1741" y="-317.5" font-family="Helvetica,sans-Serif" font-size="10.00"> </text>
</g>
<!-- Node22&#45;&gt;Node17 -->
<g id="edge27" class="edge"><title>Node22&#45;&gt;Node17</title>
<path fill="none" stroke="#404040" d="M1735.78,-310.116C1730.48,-288.297 1720.34,-258.344 1702,-238 1652.16,-182.732 1575.78,-145.77 1515.99,-123.447"/>
<polygon fill="none" stroke="#404040" points="1515.92,-123.422 1508.91,-125.125 1504.65,-119.312 1511.65,-117.609 1515.92,-123.422"/>
<text text-anchor="middle" x="1711" y="-211.5" font-family="Helvetica,sans-Serif" font-size="10.00"> &#45;isSystemDb_</text>
</g>
<!-- Node23 -->
<g id="node23" class="node"><title>Node23</title>
<polygon fill="white" stroke="#bfbfbf" points="1784.5,-299.5 1784.5,-378.5 1937.5,-378.5 1937.5,-299.5 1784.5,-299.5"/>
<text text-anchor="start" x="1792.5" y="-366.5" font-family="Helvetica,sans-Serif" font-size="10.00">final CatalogObjectCache</text>
<text text-anchor="start" x="1792.5" y="-355.5" font-family="Helvetica,sans-Serif" font-size="10.00">&lt; com.cloudera.impala.catalog.</text>
<text text-anchor="middle" x="1861" y="-344.5" font-family="Helvetica,sans-Serif" font-size="10.00">Table &gt;</text>
<polyline fill="none" stroke="#bfbfbf" points="1784.5,-337.5 1937.5,-337.5 "/>
<text text-anchor="middle" x="1861" y="-325.5" font-family="Helvetica,sans-Serif" font-size="10.00"> </text>
<polyline fill="none" stroke="#bfbfbf" points="1784.5,-318.5 1937.5,-318.5 "/>
<text text-anchor="middle" x="1861" y="-306.5" font-family="Helvetica,sans-Serif" font-size="10.00"> </text>
</g>
<!-- Node23&#45;&gt;Node17 -->
<g id="edge28" class="edge"><title>Node23&#45;&gt;Node17</title>
<path fill="none" stroke="#404040" d="M1836.06,-299.405C1815.57,-270.512 1784.12,-231.993 1748,-208 1677.19,-160.962 1584.48,-131.45 1516.73,-114.605"/>
<polygon fill="none" stroke="#404040" points="1516.47,-114.542 1509.69,-117.011 1504.81,-111.707 1511.58,-109.237 1516.47,-114.542"/>
<text text-anchor="middle" x="1793.5" y="-211.5" font-family="Helvetica,sans-Serif" font-size="10.00"> &#45;tableCache_</text>
</g>
</g>
</svg>
