<?xml version="1.0" encoding="UTF-8" standalone="no"?>
<!DOCTYPE svg PUBLIC "-//W3C//DTD SVG 1.1//EN"
 "http://www.w3.org/Graphics/SVG/1.1/DTD/svg11.dtd">
<!-- Generated by graphviz version 2.36.0 (20140111.2315)
 -->
<!-- Title: impala::ReadWriteUtil Pages: 1 -->
<svg width="161pt" height="338pt"
 viewBox="0.00 0.00 161.00 338.00" xmlns="http://www.w3.org/2000/svg" xmlns:xlink="http://www.w3.org/1999/xlink">
<g id="graph0" class="graph" transform="scale(1 1) rotate(0) translate(4 334)">
<title>impala::ReadWriteUtil</title>
<polygon fill="white" stroke="none" points="-4,4 -4,-334 157,-334 157,4 -4,4"/>
<!-- Node1 -->
<g id="node1" class="node"><title>Node1</title>
<polygon fill="#bfbfbf" stroke="black" points="-1,-1 -1,-201 123,-201 123,-1 -1,-1"/>
<text text-anchor="middle" x="61" y="-189" font-family="Helvetica,sans-Serif" font-size="10.00">impala::ReadWriteUtil</text>
<polyline fill="none" stroke="black" points="-1,-182 123,-182 "/>
<text text-anchor="middle" x="61" y="-170" font-family="Helvetica,sans-Serif" font-size="10.00"> </text>
<polyline fill="none" stroke="black" points="-1,-163 123,-163 "/>
<text text-anchor="start" x="7" y="-151" font-family="Helvetica,sans-Serif" font-size="10.00">+ GetInt()</text>
<text text-anchor="start" x="7" y="-140" font-family="Helvetica,sans-Serif" font-size="10.00">+ GetInt()</text>
<text text-anchor="start" x="7" y="-129" font-family="Helvetica,sans-Serif" font-size="10.00">+ GetInt()</text>
<text text-anchor="start" x="7" y="-118" font-family="Helvetica,sans-Serif" font-size="10.00">+ PutZInt()</text>
<text text-anchor="start" x="7" y="-107" font-family="Helvetica,sans-Serif" font-size="10.00">+ PutZLong()</text>
<text text-anchor="start" x="7" y="-96" font-family="Helvetica,sans-Serif" font-size="10.00">+ GetInt()</text>
<text text-anchor="start" x="7" y="-85" font-family="Helvetica,sans-Serif" font-size="10.00">+ GetVLong()</text>
<text text-anchor="start" x="7" y="-74" font-family="Helvetica,sans-Serif" font-size="10.00">+ GetVInt()</text>
<text text-anchor="start" x="7" y="-63" font-family="Helvetica,sans-Serif" font-size="10.00">+ PutVLong()</text>
<text text-anchor="start" x="7" y="-52" font-family="Helvetica,sans-Serif" font-size="10.00">+ PutVInt()</text>
<text text-anchor="start" x="7" y="-41" font-family="Helvetica,sans-Serif" font-size="10.00">+ VLongRequiredBytes()</text>
<text text-anchor="start" x="7" y="-30" font-family="Helvetica,sans-Serif" font-size="10.00">+ GetVLong()</text>
<text text-anchor="start" x="7" y="-19" font-family="Helvetica,sans-Serif" font-size="10.00">+ PutInt()</text>
<text text-anchor="start" x="7" y="-8" font-family="Helvetica,sans-Serif" font-size="10.00">and 10 more...</text>
</g>
<!-- Node2 -->
<g id="node2" class="node"><title>Node2</title>
<polygon fill="white" stroke="#bfbfbf" points="46.5,-272.5 46.5,-329.5 75.5,-329.5 75.5,-272.5 46.5,-272.5"/>
<text text-anchor="middle" x="61" y="-317.5" font-family="Helvetica,sans-Serif" font-size="10.00">int</text>
<polyline fill="none" stroke="#bfbfbf" points="46.5,-310.5 75.5,-310.5 "/>
<text text-anchor="middle" x="61" y="-298.5" font-family="Helvetica,sans-Serif" font-size="10.00"> </text>
<polyline fill="none" stroke="#bfbfbf" points="46.5,-291.5 75.5,-291.5 "/>
<text text-anchor="middle" x="61" y="-279.5" font-family="Helvetica,sans-Serif" font-size="10.00"> </text>
</g>
<!-- Node2&#45;&gt;Node1 -->
<g id="edge1" class="edge"><title>Node2&#45;&gt;Node1</title>
<path fill="none" stroke="#404040" d="M61,-272.469C61,-256.6 61,-235.484 61,-213.534"/>
<polygon fill="none" stroke="#404040" points="61.0001,-213.281 57,-207.281 61,-201.281 65,-207.281 61.0001,-213.281"/>
<text text-anchor="middle" x="107" y="-245.5" font-family="Helvetica,sans-Serif" font-size="10.00"> +MAX_ZINT_LEN</text>
<text text-anchor="middle" x="107" y="-234.5" font-family="Helvetica,sans-Serif" font-size="10.00">+MAX_ZLONG_LEN</text>
<text text-anchor="middle" x="107" y="-223.5" font-family="Helvetica,sans-Serif" font-size="10.00">+MAX_VINT_LEN</text>
</g>
</g>
</svg>
