<?xml version="1.0" encoding="UTF-8" standalone="no"?>
<!DOCTYPE svg PUBLIC "-//W3C//DTD SVG 1.1//EN"
 "http://www.w3.org/Graphics/SVG/1.1/DTD/svg11.dtd">
<!-- Generated by graphviz version 2.36.0 (20140111.2315)
 -->
<!-- Title: com.cloudera.impala.catalog.CatalogDeltaLog Pages: 1 -->
<svg width="197pt" height="228pt"
 viewBox="0.00 0.00 197.00 228.00" xmlns="http://www.w3.org/2000/svg" xmlns:xlink="http://www.w3.org/1999/xlink">
<g id="graph0" class="graph" transform="scale(1 1) rotate(0) translate(4 224)">
<title>com.cloudera.impala.catalog.CatalogDeltaLog</title>
<polygon fill="white" stroke="none" points="-4,4 -4,-224 193,-224 193,4 -4,4"/>
<!-- Node1 -->
<g id="node1" class="node"><title>Node1</title>
<polygon fill="#bfbfbf" stroke="black" points="0,-0.5 0,-101.5 144,-101.5 144,-0.5 0,-0.5"/>
<text text-anchor="start" x="8" y="-89.5" font-family="Helvetica,sans-Serif" font-size="10.00">com.cloudera.impala.catalog.</text>
<text text-anchor="middle" x="72" y="-78.5" font-family="Helvetica,sans-Serif" font-size="10.00">CatalogDeltaLog</text>
<polyline fill="none" stroke="black" points="0,-71.5 144,-71.5 "/>
<text text-anchor="middle" x="72" y="-59.5" font-family="Helvetica,sans-Serif" font-size="10.00"> </text>
<polyline fill="none" stroke="black" points="0,-52.5 144,-52.5 "/>
<text text-anchor="start" x="8" y="-40.5" font-family="Helvetica,sans-Serif" font-size="10.00">+ addRemovedObject()</text>
<text text-anchor="start" x="8" y="-29.5" font-family="Helvetica,sans-Serif" font-size="10.00">+ garbageCollect()</text>
<text text-anchor="start" x="8" y="-18.5" font-family="Helvetica,sans-Serif" font-size="10.00">+ wasObjectRemovedAfter()</text>
<text text-anchor="start" x="8" y="-7.5" font-family="Helvetica,sans-Serif" font-size="10.00">&#45; objectNamesMatch()</text>
</g>
<!-- Node2 -->
<g id="node2" class="node"><title>Node2</title>
<polygon fill="white" stroke="#bfbfbf" points="2,-151 2,-219 142,-219 142,-151 2,-151"/>
<text text-anchor="start" x="10" y="-207" font-family="Helvetica,sans-Serif" font-size="10.00">SortedMap&lt; Long, TCatalog</text>
<text text-anchor="middle" x="72" y="-196" font-family="Helvetica,sans-Serif" font-size="10.00">Object &gt;</text>
<polyline fill="none" stroke="#bfbfbf" points="2,-189 142,-189 "/>
<text text-anchor="middle" x="72" y="-177" font-family="Helvetica,sans-Serif" font-size="10.00"> </text>
<polyline fill="none" stroke="#bfbfbf" points="2,-170 142,-170 "/>
<text text-anchor="middle" x="72" y="-158" font-family="Helvetica,sans-Serif" font-size="10.00"> </text>
</g>
<!-- Node2&#45;&gt;Node1 -->
<g id="edge1" class="edge"><title>Node2&#45;&gt;Node1</title>
<path fill="none" stroke="#404040" d="M72,-150.691C72,-139.405 72,-126.412 72,-113.639"/>
<polygon fill="none" stroke="#404040" points="72.0001,-113.522 68,-107.522 72,-101.522 76,-107.522 72.0001,-113.522"/>
<text text-anchor="middle" x="130.5" y="-123.5" font-family="Helvetica,sans-Serif" font-size="10.00"> &#45;removedCatalogObjects_</text>
</g>
</g>
</svg>
