<?xml version="1.0" encoding="UTF-8" standalone="no"?>
<!DOCTYPE svg PUBLIC "-//W3C//DTD SVG 1.1//EN"
 "http://www.w3.org/Graphics/SVG/1.1/DTD/svg11.dtd">
<!-- Generated by graphviz version 2.36.0 (20140111.2315)
 -->
<!-- Title: com.cloudera.impala.catalog.HdfsStorageDescriptor Pages: 1 -->
<!--zoomable 698 -->
<svg id="main" version="1.1" xmlns="http://www.w3.org/2000/svg" xmlns:xlink="http://www.w3.org/1999/xlink" xml:space="preserve" onload="init(evt)">
<style type="text/css"><![CDATA[
.edge:hover path { stroke: red; }
.edge:hover polygon { stroke: red; fill: red; }
]]></style>
<script type="text/javascript"><![CDATA[
var edges = document.getElementsByTagName('g');
if (edges && edges.length) {
  for (var i=0;i<edges.length;i++) {
    if (edges[i].id.substr(0,4)=='edge') {
      edges[i].setAttribute('class','edge');
    }
  }
}
]]></script>
        <defs>
                <circle id="rim" cx="0" cy="0" r="7"/>
                <circle id="rim2" cx="0" cy="0" r="3.5"/>
                <g id="zoomPlus">
                        <use xlink:href="#rim" fill="#404040">
                                <set attributeName="fill" to="#808080" begin="zoomplus.mouseover" end="zoomplus.mouseout"/>
                        </use>
                        <path d="M-4,0h8M0,-4v8" fill="none" stroke="white" stroke-width="1.5" pointer-events="none"/>
                </g>
                <g id="zoomMin">
                        <use xlink:href="#rim" fill="#404040">
                                <set attributeName="fill" to="#808080" begin="zoomminus.mouseover" end="zoomminus.mouseout"/>
                        </use>
                        <path d="M-4,0h8" fill="none" stroke="white" stroke-width="1.5" pointer-events="none"/>
                </g>
                <g id="dirArrow">
                        <path fill="none" stroke="white" stroke-width="1.5" d="M0,-3.0v7 M-2.5,-0.5L0,-3.0L2.5,-0.5"/>
                </g>
               <g id="resetDef">
                       <use xlink:href="#rim2" fill="#404040">
                               <set attributeName="fill" to="#808080" begin="reset.mouseover" end="reset.mouseout"/>
                       </use>
               </g>
        </defs>

<script type="text/javascript">
var viewWidth = 853;
var viewHeight = 698;
var sectionId = 'dynsection-0';
</script>
<script xlink:href="svgpan.js"/>
<svg id="graph" class="graph">
<g id="viewport">
<title>com.cloudera.impala.catalog.HdfsStorageDescriptor</title>
<polygon fill="white" stroke="none" points="-4,4 -4,-694 849.366,-694 849.366,4 -4,4"/>
<!-- Node1 -->
<g id="node1" class="node"><title>Node1</title>
<polygon fill="#bfbfbf" stroke="black" points="321.366,-1 321.366,-201 465.366,-201 465.366,-1 321.366,-1"/>
<text text-anchor="start" x="329.366" y="-189" font-family="Helvetica,sans-Serif" font-size="10.00">com.cloudera.impala.catalog.</text>
<text text-anchor="middle" x="393.366" y="-178" font-family="Helvetica,sans-Serif" font-size="10.00">HdfsStorageDescriptor</text>
<polyline fill="none" stroke="black" points="321.366,-171 465.366,-171 "/>
<text text-anchor="middle" x="393.366" y="-159" font-family="Helvetica,sans-Serif" font-size="10.00"> </text>
<polyline fill="none" stroke="black" points="321.366,-152 465.366,-152 "/>
<text text-anchor="start" x="329.366" y="-140" font-family="Helvetica,sans-Serif" font-size="10.00">+ setFileFormat()</text>
<text text-anchor="start" x="329.366" y="-129" font-family="Helvetica,sans-Serif" font-size="10.00">+ HdfsStorageDescriptor()</text>
<text text-anchor="start" x="329.366" y="-118" font-family="Helvetica,sans-Serif" font-size="10.00">+ getLineDelim()</text>
<text text-anchor="start" x="329.366" y="-107" font-family="Helvetica,sans-Serif" font-size="10.00">+ getFieldDelim()</text>
<text text-anchor="start" x="329.366" y="-96" font-family="Helvetica,sans-Serif" font-size="10.00">+ getCollectionDelim()</text>
<text text-anchor="start" x="329.366" y="-85" font-family="Helvetica,sans-Serif" font-size="10.00">+ getMapKeyDelim()</text>
<text text-anchor="start" x="329.366" y="-74" font-family="Helvetica,sans-Serif" font-size="10.00">+ getEscapeChar()</text>
<text text-anchor="start" x="329.366" y="-63" font-family="Helvetica,sans-Serif" font-size="10.00">+ getQuoteChar()</text>
<text text-anchor="start" x="329.366" y="-52" font-family="Helvetica,sans-Serif" font-size="10.00">+ getFileFormat()</text>
<text text-anchor="start" x="329.366" y="-41" font-family="Helvetica,sans-Serif" font-size="10.00">+ getBlockSize()</text>
<text text-anchor="start" x="329.366" y="-30" font-family="Helvetica,sans-Serif" font-size="10.00">+ parseDelim()</text>
<text text-anchor="start" x="329.366" y="-19" font-family="Helvetica,sans-Serif" font-size="10.00">+ fromStorageDescriptor()</text>
<text text-anchor="start" x="329.366" y="-8" font-family="Helvetica,sans-Serif" font-size="10.00">&#45; extractDelimiters()</text>
</g>
<!-- Node2 -->
<g id="node2" class="node"><title>Node2</title>
<polygon fill="white" stroke="#bfbfbf" points="18.3658,-626.5 18.3658,-683.5 60.3658,-683.5 60.3658,-626.5 18.3658,-626.5"/>
<text text-anchor="middle" x="39.3658" y="-671.5" font-family="Helvetica,sans-Serif" font-size="10.00">String</text>
<polyline fill="none" stroke="#bfbfbf" points="18.3658,-664.5 60.3658,-664.5 "/>
<text text-anchor="middle" x="39.3658" y="-652.5" font-family="Helvetica,sans-Serif" font-size="10.00"> </text>
<polyline fill="none" stroke="#bfbfbf" points="18.3658,-645.5 60.3658,-645.5 "/>
<text text-anchor="middle" x="39.3658" y="-633.5" font-family="Helvetica,sans-Serif" font-size="10.00"> </text>
</g>
<!-- Node2&#45;&gt;Node1 -->
<g id="edge1" class="edge"><title>Node2&#45;&gt;Node1</title>
<path fill="none" stroke="#404040" d="M29.744,-626.282C10.4243,-565.421 -26.5162,-417.457 31.3658,-316 90.7448,-211.919 222.786,-153.332 309.908,-124.687"/>
<polygon fill="none" stroke="#404040" points="309.936,-124.678 314.425,-119.035 321.361,-121.008 316.872,-126.651 309.936,-124.678"/>
<text text-anchor="middle" x="72.3658" y="-414" font-family="Helvetica,sans-Serif" font-size="10.00"> &#45;COMPRESSION</text>
<text text-anchor="middle" x="72.3658" y="-403" font-family="Helvetica,sans-Serif" font-size="10.00">&#45;BLOCK_SIZE</text>
</g>
<!-- Node6 -->
<g id="node6" class="node"><title>Node6</title>
<g id="a_node6"><a xlink:href="enumcom_1_1cloudera_1_1impala_1_1catalog_1_1HdfsFileFormat.html" target="_top" xlink:title="{com.cloudera.impala.catalog.\lHdfsFileFormat\n|+ RC_FILE\l+ TEXT\l+ SEQUENCE_FILE\l+ AVRO\l|+ toJavaClassName()\l+ toThrift()\l+ toSql()\l+ isFileCompressionTypeSupported()\l+ isSplittable()\l+ isHdfsFormatClass()\l+ fromHdfsInputFormatClass()\l+ fromJavaClassName()\l+ fromThrift()\l}">
<polygon fill="white" stroke="black" points="122.866,-316.5 122.866,-505.5 301.866,-505.5 301.866,-316.5 122.866,-316.5"/>
<text text-anchor="start" x="130.866" y="-493.5" font-family="Helvetica,sans-Serif" font-size="10.00">com.cloudera.impala.catalog.</text>
<text text-anchor="middle" x="212.366" y="-482.5" font-family="Helvetica,sans-Serif" font-size="10.00">HdfsFileFormat</text>
<polyline fill="none" stroke="black" points="122.866,-475.5 301.866,-475.5 "/>
<text text-anchor="start" x="130.866" y="-463.5" font-family="Helvetica,sans-Serif" font-size="10.00">+ RC_FILE</text>
<text text-anchor="start" x="130.866" y="-452.5" font-family="Helvetica,sans-Serif" font-size="10.00">+ TEXT</text>
<text text-anchor="start" x="130.866" y="-441.5" font-family="Helvetica,sans-Serif" font-size="10.00">+ SEQUENCE_FILE</text>
<text text-anchor="start" x="130.866" y="-430.5" font-family="Helvetica,sans-Serif" font-size="10.00">+ AVRO</text>
<polyline fill="none" stroke="black" points="122.866,-423.5 301.866,-423.5 "/>
<text text-anchor="start" x="130.866" y="-411.5" font-family="Helvetica,sans-Serif" font-size="10.00">+ toJavaClassName()</text>
<text text-anchor="start" x="130.866" y="-400.5" font-family="Helvetica,sans-Serif" font-size="10.00">+ toThrift()</text>
<text text-anchor="start" x="130.866" y="-389.5" font-family="Helvetica,sans-Serif" font-size="10.00">+ toSql()</text>
<text text-anchor="start" x="130.866" y="-378.5" font-family="Helvetica,sans-Serif" font-size="10.00">+ isFileCompressionTypeSupported()</text>
<text text-anchor="start" x="130.866" y="-367.5" font-family="Helvetica,sans-Serif" font-size="10.00">+ isSplittable()</text>
<text text-anchor="start" x="130.866" y="-356.5" font-family="Helvetica,sans-Serif" font-size="10.00">+ isHdfsFormatClass()</text>
<text text-anchor="start" x="130.866" y="-345.5" font-family="Helvetica,sans-Serif" font-size="10.00">+ fromHdfsInputFormatClass()</text>
<text text-anchor="start" x="130.866" y="-334.5" font-family="Helvetica,sans-Serif" font-size="10.00">+ fromJavaClassName()</text>
<text text-anchor="start" x="130.866" y="-323.5" font-family="Helvetica,sans-Serif" font-size="10.00">+ fromThrift()</text>
</a>
</g>
</g>
<!-- Node2&#45;&gt;Node6 -->
<g id="edge6" class="edge"><title>Node2&#45;&gt;Node6</title>
<path fill="none" stroke="#404040" d="M38.0521,-626.248C38.1684,-597.564 42.6572,-553 66.3658,-524 79.22,-508.277 91.2669,-516.958 108.366,-506 109.871,-505.036 111.375,-504.049 112.877,-503.043"/>
<polygon fill="none" stroke="#404040" points="112.918,-503.014 115.54,-496.296 122.75,-496.133 120.128,-502.85 112.918,-503.014"/>
<text text-anchor="middle" x="141.366" y="-593.5" font-family="Helvetica,sans-Serif" font-size="10.00"> &#45;TEXT_INPUT_FORMAT</text>
<text text-anchor="middle" x="141.366" y="-582.5" font-family="Helvetica,sans-Serif" font-size="10.00">+LZO_TEXT_OUTPUT_FORMAT</text>
<text text-anchor="middle" x="141.366" y="-571.5" font-family="Helvetica,sans-Serif" font-size="10.00">+LZO_TEXT_INPUT_FORMAT</text>
<text text-anchor="middle" x="141.366" y="-560.5" font-family="Helvetica,sans-Serif" font-size="10.00">&#45;RCFILE_INPUT_FORMAT</text>
<text text-anchor="middle" x="141.366" y="-549.5" font-family="Helvetica,sans-Serif" font-size="10.00">&#45;AVRO_INPUT_FORMAT</text>
<text text-anchor="middle" x="141.366" y="-538.5" font-family="Helvetica,sans-Serif" font-size="10.00">&#45;PARQUET_INPUT_FORMATS</text>
<text text-anchor="middle" x="141.366" y="-527.5" font-family="Helvetica,sans-Serif" font-size="10.00">&#45;SEQUENCE_INPUT_FORMAT</text>
</g>
<!-- Node3 -->
<g id="node3" class="node"><title>Node3</title>
<polygon fill="white" stroke="#bfbfbf" points="320.366,-382.5 320.366,-439.5 366.366,-439.5 366.366,-382.5 320.366,-382.5"/>
<text text-anchor="middle" x="343.366" y="-427.5" font-family="Helvetica,sans-Serif" font-size="10.00">Logger</text>
<polyline fill="none" stroke="#bfbfbf" points="320.366,-420.5 366.366,-420.5 "/>
<text text-anchor="middle" x="343.366" y="-408.5" font-family="Helvetica,sans-Serif" font-size="10.00"> </text>
<polyline fill="none" stroke="#bfbfbf" points="320.366,-401.5 366.366,-401.5 "/>
<text text-anchor="middle" x="343.366" y="-389.5" font-family="Helvetica,sans-Serif" font-size="10.00"> </text>
</g>
<!-- Node3&#45;&gt;Node1 -->
<g id="edge2" class="edge"><title>Node3&#45;&gt;Node1</title>
<path fill="none" stroke="#404040" d="M343.993,-382.402C345.223,-345.227 348.835,-277.133 359.366,-220 359.793,-217.681 360.247,-215.341 360.725,-212.988"/>
<polygon fill="none" stroke="#404040" points="360.752,-212.863 358.113,-206.152 363.294,-201.135 365.932,-207.846 360.752,-212.863"/>
<text text-anchor="middle" x="372.866" y="-256.5" font-family="Helvetica,sans-Serif" font-size="10.00"> &#45;LOG</text>
</g>
<!-- Node4 -->
<g id="node4" class="node"><title>Node4</title>
<polygon fill="white" stroke="#bfbfbf" points="384.366,-382.5 384.366,-439.5 460.366,-439.5 460.366,-382.5 384.366,-382.5"/>
<text text-anchor="middle" x="422.366" y="-427.5" font-family="Helvetica,sans-Serif" font-size="10.00">List&lt; String &gt;</text>
<polyline fill="none" stroke="#bfbfbf" points="384.366,-420.5 460.366,-420.5 "/>
<text text-anchor="middle" x="422.366" y="-408.5" font-family="Helvetica,sans-Serif" font-size="10.00"> </text>
<polyline fill="none" stroke="#bfbfbf" points="384.366,-401.5 460.366,-401.5 "/>
<text text-anchor="middle" x="422.366" y="-389.5" font-family="Helvetica,sans-Serif" font-size="10.00"> </text>
</g>
<!-- Node4&#45;&gt;Node1 -->
<g id="edge3" class="edge"><title>Node4&#45;&gt;Node1</title>
<path fill="none" stroke="#404040" d="M413.459,-382.276C406.727,-359.823 398.04,-327.233 394.366,-298 390.928,-270.648 389.566,-240.98 389.31,-213.2"/>
<polygon fill="none" stroke="#404040" points="389.309,-213.005 385.287,-207.019 389.266,-201.005 393.287,-206.99 389.309,-213.005"/>
<text text-anchor="middle" x="453.366" y="-262" font-family="Helvetica,sans-Serif" font-size="10.00"> ~DELIMITER_KEYS</text>
<text text-anchor="middle" x="453.366" y="-251" font-family="Helvetica,sans-Serif" font-size="10.00">~COMPATIBLE_SERDES</text>
</g>
<!-- Node5 -->
<g id="node5" class="node"><title>Node5</title>
<polygon fill="white" stroke="#bfbfbf" points="516.866,-382.5 516.866,-439.5 551.866,-439.5 551.866,-382.5 516.866,-382.5"/>
<text text-anchor="middle" x="534.366" y="-427.5" font-family="Helvetica,sans-Serif" font-size="10.00">char</text>
<polyline fill="none" stroke="#bfbfbf" points="516.866,-420.5 551.866,-420.5 "/>
<text text-anchor="middle" x="534.366" y="-408.5" font-family="Helvetica,sans-Serif" font-size="10.00"> </text>
<polyline fill="none" stroke="#bfbfbf" points="516.866,-401.5 551.866,-401.5 "/>
<text text-anchor="middle" x="534.366" y="-389.5" font-family="Helvetica,sans-Serif" font-size="10.00"> </text>
</g>
<!-- Node5&#45;&gt;Node1 -->
<g id="edge4" class="edge"><title>Node5&#45;&gt;Node1</title>
<path fill="none" stroke="#404040" d="M536.697,-382.314C538.745,-343.853 538.133,-273.011 512.366,-220 502.922,-200.571 488.945,-182.486 473.86,-166.599"/>
<polygon fill="none" stroke="#404040" points="473.812,-166.55 466.751,-165.086 465.387,-158.005 472.448,-159.469 473.812,-166.55"/>
<text text-anchor="middle" x="600.866" y="-267.5" font-family="Helvetica,sans-Serif" font-size="10.00"> &#45;DEFAULT_FIELD_DELIM</text>
<text text-anchor="middle" x="600.866" y="-256.5" font-family="Helvetica,sans-Serif" font-size="10.00">&#45;DEFAULT_LINE_DELIM</text>
<text text-anchor="middle" x="600.866" y="-245.5" font-family="Helvetica,sans-Serif" font-size="10.00">+DEFAULT_ESCAPE_CHAR</text>
</g>
<!-- Node6&#45;&gt;Node1 -->
<g id="edge5" class="edge"><title>Node6&#45;&gt;Node1</title>
<path fill="none" stroke="#404040" d="M243.831,-316.182C256.258,-284.536 271.994,-249.725 290.366,-220 297.207,-208.931 305.089,-197.878 313.384,-187.22"/>
<polygon fill="none" stroke="#404040" points="313.614,-186.933 314.231,-179.749 321.101,-177.555 320.483,-184.74 313.614,-186.933"/>
<text text-anchor="middle" x="317.866" y="-256.5" font-family="Helvetica,sans-Serif" font-size="10.00"> &#45;fileFormat_</text>
</g>
<!-- Node7 -->
<g id="node7" class="node"><title>Node7</title>
<polygon fill="white" stroke="#bfbfbf" points="126.866,-621 126.866,-689 329.866,-689 329.866,-621 126.866,-621"/>
<text text-anchor="start" x="134.866" y="-677" font-family="Helvetica,sans-Serif" font-size="10.00">Map&lt; String, com.cloudera.impala.catalog.</text>
<text text-anchor="middle" x="228.366" y="-666" font-family="Helvetica,sans-Serif" font-size="10.00">HdfsFileFormat &gt;</text>
<polyline fill="none" stroke="#bfbfbf" points="126.866,-659 329.866,-659 "/>
<text text-anchor="middle" x="228.366" y="-647" font-family="Helvetica,sans-Serif" font-size="10.00"> </text>
<polyline fill="none" stroke="#bfbfbf" points="126.866,-640 329.866,-640 "/>
<text text-anchor="middle" x="228.366" y="-628" font-family="Helvetica,sans-Serif" font-size="10.00"> </text>
</g>
<!-- Node7&#45;&gt;Node6 -->
<g id="edge7" class="edge"><title>Node7&#45;&gt;Node6</title>
<path fill="none" stroke="#404040" d="M226.175,-620.858C224.406,-594.11 221.816,-554.932 219.355,-517.715"/>
<polygon fill="none" stroke="#404040" points="219.354,-517.693 214.967,-511.97 218.562,-505.719 222.949,-511.442 219.354,-517.693"/>
<text text-anchor="middle" x="270.366" y="-560.5" font-family="Helvetica,sans-Serif" font-size="10.00"> &#45;VALID_FORMATS</text>
</g>
<!-- Node8 -->
<g id="node8" class="node"><title>Node8</title>
<polygon fill="white" stroke="#bfbfbf" points="675.866,-382.5 675.866,-439.5 704.866,-439.5 704.866,-382.5 675.866,-382.5"/>
<text text-anchor="middle" x="690.366" y="-427.5" font-family="Helvetica,sans-Serif" font-size="10.00">int</text>
<polyline fill="none" stroke="#bfbfbf" points="675.866,-420.5 704.866,-420.5 "/>
<text text-anchor="middle" x="690.366" y="-408.5" font-family="Helvetica,sans-Serif" font-size="10.00"> </text>
<polyline fill="none" stroke="#bfbfbf" points="675.866,-401.5 704.866,-401.5 "/>
<text text-anchor="middle" x="690.366" y="-389.5" font-family="Helvetica,sans-Serif" font-size="10.00"> </text>
</g>
<!-- Node8&#45;&gt;Node1 -->
<g id="edge8" class="edge"><title>Node8&#45;&gt;Node1</title>
<path fill="none" stroke="#404040" d="M690.481,-382.203C690.138,-335.765 687.016,-245.03 668.366,-220 623.165,-159.337 540.411,-129.508 477.449,-115.061"/>
<polygon fill="none" stroke="#404040" points="477.26,-115.02 470.544,-117.646 465.538,-112.456 472.254,-109.831 477.26,-115.02"/>
<text text-anchor="middle" x="714.866" y="-256.5" font-family="Helvetica,sans-Serif" font-size="10.00"> &#45;blockSize_</text>
</g>
<!-- Node9 -->
<g id="node9" class="node"><title>Node9</title>
<polygon fill="white" stroke="#bfbfbf" points="740.366,-382.5 740.366,-439.5 796.366,-439.5 796.366,-382.5 740.366,-382.5"/>
<text text-anchor="middle" x="768.366" y="-427.5" font-family="Helvetica,sans-Serif" font-size="10.00">final byte</text>
<polyline fill="none" stroke="#bfbfbf" points="740.366,-420.5 796.366,-420.5 "/>
<text text-anchor="middle" x="768.366" y="-408.5" font-family="Helvetica,sans-Serif" font-size="10.00"> </text>
<polyline fill="none" stroke="#bfbfbf" points="740.366,-401.5 796.366,-401.5 "/>
<text text-anchor="middle" x="768.366" y="-389.5" font-family="Helvetica,sans-Serif" font-size="10.00"> </text>
</g>
<!-- Node9&#45;&gt;Node1 -->
<g id="edge9" class="edge"><title>Node9&#45;&gt;Node1</title>
<path fill="none" stroke="#404040" d="M773.609,-382.314C779.581,-341.907 784.135,-266.54 746.366,-220 681.232,-139.74 559.672,-113.709 477.632,-105.474"/>
<polygon fill="none" stroke="#404040" points="477.524,-105.464 471.182,-108.897 465.575,-104.363 471.917,-100.93 477.524,-105.464"/>
<text text-anchor="middle" x="810.366" y="-289.5" font-family="Helvetica,sans-Serif" font-size="10.00"> &#45;lineDelim_</text>
<text text-anchor="middle" x="810.366" y="-278.5" font-family="Helvetica,sans-Serif" font-size="10.00">&#45;quoteChar_</text>
<text text-anchor="middle" x="810.366" y="-267.5" font-family="Helvetica,sans-Serif" font-size="10.00">&#45;escapeChar_</text>
<text text-anchor="middle" x="810.366" y="-256.5" font-family="Helvetica,sans-Serif" font-size="10.00">&#45;mapKeyDelim_</text>
<text text-anchor="start" x="775.366" y="-245.5" font-family="Helvetica,sans-Serif" font-size="10.00">&#45;collectionDelim</text>
<text text-anchor="middle" x="810.366" y="-234.5" font-family="Helvetica,sans-Serif" font-size="10.00">_</text>
<text text-anchor="middle" x="810.366" y="-223.5" font-family="Helvetica,sans-Serif" font-size="10.00">&#45;fieldDelim_</text>
</g>
</g>
</svg>
        <g id="navigator" transform="translate(0 0)" fill="#404254">
                <rect fill="#f2f5e9" fill-opacity="0.5" stroke="#606060" stroke-width=".5" x="0" y="0" width="60" height="60"/>
                <use id="zoomplus" xlink:href="#zoomPlus" x="17" y="9" onmousedown="handleZoom(evt,'in')"/>
                <use id="zoomminus" xlink:href="#zoomMin" x="42" y="9" onmousedown="handleZoom(evt,'out')"/>
                <use id="reset" xlink:href="#resetDef" x="30" y="36" onmousedown="handleReset()"/>
                <g id="arrowUp" xlink:href="#dirArrow" transform="translate(30 24)" onmousedown="handlePan(0,-1)">
                  <use xlink:href="#rim" fill="#404040">
                        <set attributeName="fill" to="#808080" begin="arrowUp.mouseover" end="arrowUp.mouseout"/>
                  </use>
                  <path fill="none" stroke="white" stroke-width="1.5" d="M0,-3.0v7 M-2.5,-0.5L0,-3.0L2.5,-0.5"/>
                </g>
                <g id="arrowRight" xlink:href="#dirArrow" transform="rotate(90) translate(36 -43)" onmousedown="handlePan(1,0)">
                  <use xlink:href="#rim" fill="#404040">
                        <set attributeName="fill" to="#808080" begin="arrowRight.mouseover" end="arrowRight.mouseout"/>
                  </use>
                  <path fill="none" stroke="white" stroke-width="1.5" d="M0,-3.0v7 M-2.5,-0.5L0,-3.0L2.5,-0.5"/>
                </g>
                <g id="arrowDown" xlink:href="#dirArrow" transform="rotate(180) translate(-30 -48)" onmousedown="handlePan(0,1)">
                  <use xlink:href="#rim" fill="#404040">
                        <set attributeName="fill" to="#808080" begin="arrowDown.mouseover" end="arrowDown.mouseout"/>
                  </use>
                  <path fill="none" stroke="white" stroke-width="1.5" d="M0,-3.0v7 M-2.5,-0.5L0,-3.0L2.5,-0.5"/>
                </g>
                <g id="arrowLeft" xlink:href="#dirArrow" transform="rotate(270) translate(-36 17)" onmousedown="handlePan(-1,0)">
                  <use xlink:href="#rim" fill="#404040">
                        <set attributeName="fill" to="#808080" begin="arrowLeft.mouseover" end="arrowLeft.mouseout"/>
                  </use>
                  <path fill="none" stroke="white" stroke-width="1.5" d="M0,-3.0v7 M-2.5,-0.5L0,-3.0L2.5,-0.5"/>
                </g>
        </g>
        <svg viewBox="0 0 15 15" width="100%" height="30px" preserveAspectRatio="xMaxYMin meet">
         <g id="arrow_out" transform="scale(0.3 0.3)">
          <a xlink:href="classcom_1_1cloudera_1_1impala_1_1catalog_1_1HdfsStorageDescriptor__coll__graph_org.svg" target="_base">
           <rect id="button" ry="5" rx="5" y="6" x="6" height="38" width="38"
                fill="#f2f5e9" fill-opacity="0.5" stroke="#606060" stroke-width="1.0"/>
           <path id="arrow"
             d="M 11.500037,31.436501 C 11.940474,20.09759 22.043105,11.32322 32.158766,21.979434 L 37.068811,17.246167 C 37.068811,17.246167 37.088388,32 37.088388,32 L 22.160133,31.978069 C 22.160133,31.978069 26.997745,27.140456 26.997745,27.140456 C 18.528582,18.264221 13.291696,25.230495 11.500037,31.436501 z"
             style="fill:#404040;"/>
          </a>
         </g>
        </svg>
</svg>
