<?xml version="1.0" encoding="UTF-8" standalone="no"?>
<!DOCTYPE svg PUBLIC "-//W3C//DTD SVG 1.1//EN"
 "http://www.w3.org/Graphics/SVG/1.1/DTD/svg11.dtd">
<!-- Generated by graphviz version 2.36.0 (20140111.2315)
 -->
<!-- Title: impala::RawValueTest Pages: 1 -->
<svg width="122pt" height="160pt"
 viewBox="0.00 0.00 122.00 160.00" xmlns="http://www.w3.org/2000/svg" xmlns:xlink="http://www.w3.org/1999/xlink">
<g id="graph0" class="graph" transform="scale(1 1) rotate(0) translate(4 156)">
<title>impala::RawValueTest</title>
<polygon fill="white" stroke="none" points="-4,4 -4,-156 118,-156 118,4 -4,4"/>
<!-- Node1 -->
<g id="node1" class="node"><title>Node1</title>
<polygon fill="#bfbfbf" stroke="black" points="-1,-0.5 -1,-57.5 115,-57.5 115,-0.5 -1,-0.5"/>
<text text-anchor="middle" x="57" y="-45.5" font-family="Helvetica,sans-Serif" font-size="10.00">impala::RawValueTest</text>
<polyline fill="none" stroke="black" points="-1,-38.5 115,-38.5 "/>
<text text-anchor="middle" x="57" y="-26.5" font-family="Helvetica,sans-Serif" font-size="10.00"> </text>
<polyline fill="none" stroke="black" points="-1,-19.5 115,-19.5 "/>
<text text-anchor="middle" x="57" y="-7.5" font-family="Helvetica,sans-Serif" font-size="10.00"> </text>
</g>
<!-- Node2 -->
<g id="node2" class="node"><title>Node2</title>
<polygon fill="white" stroke="#bfbfbf" points="39,-94.5 39,-151.5 75,-151.5 75,-94.5 39,-94.5"/>
<text text-anchor="middle" x="57" y="-139.5" font-family="Helvetica,sans-Serif" font-size="10.00">Test</text>
<polyline fill="none" stroke="#bfbfbf" points="39,-132.5 75,-132.5 "/>
<text text-anchor="middle" x="57" y="-120.5" font-family="Helvetica,sans-Serif" font-size="10.00"> </text>
<polyline fill="none" stroke="#bfbfbf" points="39,-113.5 75,-113.5 "/>
<text text-anchor="middle" x="57" y="-101.5" font-family="Helvetica,sans-Serif" font-size="10.00"> </text>
</g>
<!-- Node2&#45;&gt;Node1 -->
<g id="edge1" class="edge"><title>Node2&#45;&gt;Node1</title>
<path fill="none" stroke="midnightblue" d="M57,-84.2092C57,-75.2929 57,-65.9513 57,-57.5836"/>
<polygon fill="none" stroke="midnightblue" points="53.5001,-84.3969 57,-94.397 60.5001,-84.397 53.5001,-84.3969"/>
</g>
</g>
</svg>
