<?xml version="1.0" encoding="UTF-8" standalone="no"?>
<!DOCTYPE svg PUBLIC "-//W3C//DTD SVG 1.1//EN"
 "http://www.w3.org/Graphics/SVG/1.1/DTD/svg11.dtd">
<!-- Generated by graphviz version 2.36.0 (20140111.2315)
 -->
<!-- Title: com.cloudera.impala.analysis.SelectList Pages: 1 -->
<svg width="352pt" height="338pt"
 viewBox="0.00 0.00 352.00 338.00" xmlns="http://www.w3.org/2000/svg" xmlns:xlink="http://www.w3.org/1999/xlink">
<g id="graph0" class="graph" transform="scale(1 1) rotate(0) translate(4 334)">
<title>com.cloudera.impala.analysis.SelectList</title>
<polygon fill="white" stroke="none" points="-4,4 -4,-334 348,-334 348,4 -4,4"/>
<!-- Node1 -->
<g id="node1" class="node"><title>Node1</title>
<polygon fill="#bfbfbf" stroke="black" points="106.5,-1 106.5,-201 255.5,-201 255.5,-1 106.5,-1"/>
<text text-anchor="start" x="114.5" y="-189" font-family="Helvetica,sans-Serif" font-size="10.00">com.cloudera.impala.analysis.</text>
<text text-anchor="middle" x="181" y="-178" font-family="Helvetica,sans-Serif" font-size="10.00">SelectList</text>
<polyline fill="none" stroke="black" points="106.5,-171 255.5,-171 "/>
<text text-anchor="middle" x="181" y="-159" font-family="Helvetica,sans-Serif" font-size="10.00"> </text>
<polyline fill="none" stroke="black" points="106.5,-152 255.5,-152 "/>
<text text-anchor="start" x="114.5" y="-140" font-family="Helvetica,sans-Serif" font-size="10.00">+ SelectList()</text>
<text text-anchor="start" x="114.5" y="-129" font-family="Helvetica,sans-Serif" font-size="10.00">+ SelectList()</text>
<text text-anchor="start" x="114.5" y="-118" font-family="Helvetica,sans-Serif" font-size="10.00">+ SelectList()</text>
<text text-anchor="start" x="114.5" y="-107" font-family="Helvetica,sans-Serif" font-size="10.00">+ SelectList()</text>
<text text-anchor="start" x="114.5" y="-96" font-family="Helvetica,sans-Serif" font-size="10.00">+ getItems()</text>
<text text-anchor="start" x="114.5" y="-85" font-family="Helvetica,sans-Serif" font-size="10.00">+ setPlanHints()</text>
<text text-anchor="start" x="114.5" y="-74" font-family="Helvetica,sans-Serif" font-size="10.00">+ getPlanHints()</text>
<text text-anchor="start" x="114.5" y="-63" font-family="Helvetica,sans-Serif" font-size="10.00">+ isDistinct()</text>
<text text-anchor="start" x="114.5" y="-52" font-family="Helvetica,sans-Serif" font-size="10.00">+ setIsDistinct()</text>
<text text-anchor="start" x="114.5" y="-41" font-family="Helvetica,sans-Serif" font-size="10.00">+ isStraightJoin()</text>
<text text-anchor="start" x="114.5" y="-30" font-family="Helvetica,sans-Serif" font-size="10.00">+ hasPlanHints()</text>
<text text-anchor="start" x="114.5" y="-19" font-family="Helvetica,sans-Serif" font-size="10.00">+ analyzePlanHints()</text>
<text text-anchor="start" x="114.5" y="-8" font-family="Helvetica,sans-Serif" font-size="10.00">+ clone()</text>
</g>
<!-- Node2 -->
<g id="node2" class="node"><title>Node2</title>
<polygon fill="white" stroke="#bfbfbf" points="0,-266.5 0,-323.5 76,-323.5 76,-266.5 0,-266.5"/>
<text text-anchor="middle" x="38" y="-311.5" font-family="Helvetica,sans-Serif" font-size="10.00">List&lt; String &gt;</text>
<polyline fill="none" stroke="#bfbfbf" points="0,-304.5 76,-304.5 "/>
<text text-anchor="middle" x="38" y="-292.5" font-family="Helvetica,sans-Serif" font-size="10.00"> </text>
<polyline fill="none" stroke="#bfbfbf" points="0,-285.5 76,-285.5 "/>
<text text-anchor="middle" x="38" y="-273.5" font-family="Helvetica,sans-Serif" font-size="10.00"> </text>
</g>
<!-- Node2&#45;&gt;Node1 -->
<g id="edge1" class="edge"><title>Node2&#45;&gt;Node1</title>
<path fill="none" stroke="#404040" d="M58.4884,-266.491C69.6889,-251.453 84.3741,-231.735 99.6712,-211.197"/>
<polygon fill="none" stroke="#404040" points="99.8058,-211.016 100.182,-203.815 106.974,-201.392 106.598,-208.593 99.8058,-211.016"/>
<text text-anchor="middle" x="119.5" y="-228.5" font-family="Helvetica,sans-Serif" font-size="10.00"> &#45;planHints_</text>
</g>
<!-- Node3 -->
<g id="node3" class="node"><title>Node3</title>
<polygon fill="white" stroke="#bfbfbf" points="94.5,-261 94.5,-329 267.5,-329 267.5,-261 94.5,-261"/>
<text text-anchor="start" x="102.5" y="-317" font-family="Helvetica,sans-Serif" font-size="10.00">List&lt; com.cloudera.impala.analysis.</text>
<text text-anchor="middle" x="181" y="-306" font-family="Helvetica,sans-Serif" font-size="10.00">SelectListItem &gt;</text>
<polyline fill="none" stroke="#bfbfbf" points="94.5,-299 267.5,-299 "/>
<text text-anchor="middle" x="181" y="-287" font-family="Helvetica,sans-Serif" font-size="10.00"> </text>
<polyline fill="none" stroke="#bfbfbf" points="94.5,-280 267.5,-280 "/>
<text text-anchor="middle" x="181" y="-268" font-family="Helvetica,sans-Serif" font-size="10.00"> </text>
</g>
<!-- Node3&#45;&gt;Node1 -->
<g id="edge2" class="edge"><title>Node3&#45;&gt;Node1</title>
<path fill="none" stroke="#404040" d="M181,-260.994C181,-247.317 181,-230.586 181,-213.171"/>
<polygon fill="none" stroke="#404040" points="181,-213.035 177,-207.035 181,-201.035 185,-207.035 181,-213.035"/>
<text text-anchor="middle" x="199" y="-228.5" font-family="Helvetica,sans-Serif" font-size="10.00"> &#45;items_</text>
</g>
<!-- Node4 -->
<g id="node4" class="node"><title>Node4</title>
<polygon fill="white" stroke="#bfbfbf" points="286,-266.5 286,-323.5 336,-323.5 336,-266.5 286,-266.5"/>
<text text-anchor="middle" x="311" y="-311.5" font-family="Helvetica,sans-Serif" font-size="10.00">boolean</text>
<polyline fill="none" stroke="#bfbfbf" points="286,-304.5 336,-304.5 "/>
<text text-anchor="middle" x="311" y="-292.5" font-family="Helvetica,sans-Serif" font-size="10.00"> </text>
<polyline fill="none" stroke="#bfbfbf" points="286,-285.5 336,-285.5 "/>
<text text-anchor="middle" x="311" y="-273.5" font-family="Helvetica,sans-Serif" font-size="10.00"> </text>
</g>
<!-- Node4&#45;&gt;Node1 -->
<g id="edge3" class="edge"><title>Node4&#45;&gt;Node1</title>
<path fill="none" stroke="#404040" d="M292.374,-266.491C282.238,-251.521 268.962,-231.914 255.124,-211.475"/>
<polygon fill="none" stroke="#404040" points="255.025,-211.329 248.348,-208.603 248.297,-201.392 254.973,-204.118 255.025,-211.329"/>
<text text-anchor="middle" x="308.5" y="-234" font-family="Helvetica,sans-Serif" font-size="10.00"> &#45;isStraightJoin_</text>
<text text-anchor="middle" x="308.5" y="-223" font-family="Helvetica,sans-Serif" font-size="10.00">&#45;isDistinct_</text>
</g>
</g>
</svg>
