<?xml version="1.0" encoding="UTF-8" standalone="no"?>
<!DOCTYPE svg PUBLIC "-//W3C//DTD SVG 1.1//EN"
 "http://www.w3.org/Graphics/SVG/1.1/DTD/svg11.dtd">
<!-- Generated by graphviz version 2.36.0 (20140111.2315)
 -->
<!-- Title: impala::RpcEventHandler Pages: 1 -->
<svg width="138pt" height="272pt"
 viewBox="0.00 0.00 138.00 272.00" xmlns="http://www.w3.org/2000/svg" xmlns:xlink="http://www.w3.org/1999/xlink">
<g id="graph0" class="graph" transform="scale(1 1) rotate(0) translate(4 268)">
<title>impala::RpcEventHandler</title>
<polygon fill="white" stroke="none" points="-4,4 -4,-268 134,-268 134,4 -4,4"/>
<!-- Node1 -->
<g id="node1" class="node"><title>Node1</title>
<polygon fill="#bfbfbf" stroke="black" points="1,-1 1,-157 129,-157 129,-1 1,-1"/>
<text text-anchor="middle" x="65" y="-145" font-family="Helvetica,sans-Serif" font-size="10.00">impala::RpcEventHandler</text>
<polyline fill="none" stroke="black" points="1,-138 129,-138 "/>
<text text-anchor="start" x="9" y="-126" font-family="Helvetica,sans-Serif" font-size="10.00">&#45; method_map_lock_</text>
<text text-anchor="start" x="9" y="-115" font-family="Helvetica,sans-Serif" font-size="10.00">&#45; method_map_</text>
<text text-anchor="start" x="9" y="-104" font-family="Helvetica,sans-Serif" font-size="10.00">&#45; server_name_</text>
<text text-anchor="start" x="9" y="-93" font-family="Helvetica,sans-Serif" font-size="10.00">&#45; metrics_</text>
<polyline fill="none" stroke="black" points="1,-86 129,-86 "/>
<text text-anchor="start" x="9" y="-74" font-family="Helvetica,sans-Serif" font-size="10.00">+ RpcEventHandler()</text>
<text text-anchor="start" x="9" y="-63" font-family="Helvetica,sans-Serif" font-size="10.00">+ getContext()</text>
<text text-anchor="start" x="9" y="-52" font-family="Helvetica,sans-Serif" font-size="10.00">+ postWrite()</text>
<text text-anchor="start" x="9" y="-41" font-family="Helvetica,sans-Serif" font-size="10.00">+ ToJson()</text>
<text text-anchor="start" x="9" y="-30" font-family="Helvetica,sans-Serif" font-size="10.00">+ Reset()</text>
<text text-anchor="start" x="9" y="-19" font-family="Helvetica,sans-Serif" font-size="10.00">+ ResetAll()</text>
<text text-anchor="start" x="9" y="-8" font-family="Helvetica,sans-Serif" font-size="10.00">+ server_name()</text>
</g>
<!-- Node2 -->
<g id="node2" class="node"><title>Node2</title>
<g id="a_node2"><a xlink:href="classapache_1_1thrift_1_1TProcessorEventHandler.html" target="_top" xlink:title="{apache::thrift::TProcessor\lEventHandler\n||}">
<polygon fill="white" stroke="black" points="0,-195 0,-263 130,-263 130,-195 0,-195"/>
<text text-anchor="start" x="8" y="-251" font-family="Helvetica,sans-Serif" font-size="10.00">apache::thrift::TProcessor</text>
<text text-anchor="middle" x="65" y="-240" font-family="Helvetica,sans-Serif" font-size="10.00">EventHandler</text>
<polyline fill="none" stroke="black" points="0,-233 130,-233 "/>
<text text-anchor="middle" x="65" y="-221" font-family="Helvetica,sans-Serif" font-size="10.00"> </text>
<polyline fill="none" stroke="black" points="0,-214 130,-214 "/>
<text text-anchor="middle" x="65" y="-202" font-family="Helvetica,sans-Serif" font-size="10.00"> </text>
</a>
</g>
</g>
<!-- Node2&#45;&gt;Node1 -->
<g id="edge1" class="edge"><title>Node2&#45;&gt;Node1</title>
<path fill="none" stroke="midnightblue" d="M65,-184.613C65,-175.964 65,-166.637 65,-157.241"/>
<polygon fill="none" stroke="midnightblue" points="61.5001,-184.786 65,-194.786 68.5001,-184.786 61.5001,-184.786"/>
</g>
</g>
</svg>
