<?xml version="1.0" encoding="UTF-8" standalone="no"?>
<!DOCTYPE svg PUBLIC "-//W3C//DTD SVG 1.1//EN"
 "http://www.w3.org/Graphics/SVG/1.1/DTD/svg11.dtd">
<!-- Generated by graphviz version 2.36.0 (20140111.2315)
 -->
<!-- Title: impala::ThriftThread Pages: 1 -->
<svg width="140pt" height="260pt"
 viewBox="0.00 0.00 140.00 260.00" xmlns="http://www.w3.org/2000/svg" xmlns:xlink="http://www.w3.org/1999/xlink">
<g id="graph0" class="graph" transform="scale(1 1) rotate(0) translate(4 256)">
<title>impala::ThriftThread</title>
<polygon fill="white" stroke="none" points="-4,4 -4,-256 136,-256 136,4 -4,4"/>
<!-- Node1 -->
<g id="node1" class="node"><title>Node1</title>
<polygon fill="#bfbfbf" stroke="black" points="14,-0.5 14,-145.5 118,-145.5 118,-0.5 14,-0.5"/>
<text text-anchor="middle" x="66" y="-133.5" font-family="Helvetica,sans-Serif" font-size="10.00">impala::ThriftThread</text>
<polyline fill="none" stroke="black" points="14,-126.5 118,-126.5 "/>
<text text-anchor="start" x="22" y="-114.5" font-family="Helvetica,sans-Serif" font-size="10.00">&#45; impala_thread_</text>
<text text-anchor="start" x="22" y="-103.5" font-family="Helvetica,sans-Serif" font-size="10.00">&#45; tid_</text>
<text text-anchor="start" x="22" y="-92.5" font-family="Helvetica,sans-Serif" font-size="10.00">&#45; group_</text>
<text text-anchor="start" x="22" y="-81.5" font-family="Helvetica,sans-Serif" font-size="10.00">&#45; name_</text>
<polyline fill="none" stroke="black" points="14,-74.5 118,-74.5 "/>
<text text-anchor="start" x="22" y="-62.5" font-family="Helvetica,sans-Serif" font-size="10.00">+ ThriftThread()</text>
<text text-anchor="start" x="22" y="-51.5" font-family="Helvetica,sans-Serif" font-size="10.00">+ start()</text>
<text text-anchor="start" x="22" y="-40.5" font-family="Helvetica,sans-Serif" font-size="10.00">+ join()</text>
<text text-anchor="start" x="22" y="-29.5" font-family="Helvetica,sans-Serif" font-size="10.00">+ getId()</text>
<text text-anchor="start" x="22" y="-18.5" font-family="Helvetica,sans-Serif" font-size="10.00">+ ~ThriftThread()</text>
<text text-anchor="start" x="22" y="-7.5" font-family="Helvetica,sans-Serif" font-size="10.00">&#45; RunRunnable()</text>
</g>
<!-- Node2 -->
<g id="node2" class="node"><title>Node2</title>
<g id="a_node2"><a xlink:href="classapache_1_1thrift_1_1concurrency_1_1Thread.html" target="_top" xlink:title="{apache::thrift::concurrency\l::Thread\n||}">
<polygon fill="white" stroke="black" points="-0.5,-183 -0.5,-251 132.5,-251 132.5,-183 -0.5,-183"/>
<text text-anchor="start" x="7.5" y="-239" font-family="Helvetica,sans-Serif" font-size="10.00">apache::thrift::concurrency</text>
<text text-anchor="middle" x="66" y="-228" font-family="Helvetica,sans-Serif" font-size="10.00">::Thread</text>
<polyline fill="none" stroke="black" points="-0.5,-221 132.5,-221 "/>
<text text-anchor="middle" x="66" y="-209" font-family="Helvetica,sans-Serif" font-size="10.00"> </text>
<polyline fill="none" stroke="black" points="-0.5,-202 132.5,-202 "/>
<text text-anchor="middle" x="66" y="-190" font-family="Helvetica,sans-Serif" font-size="10.00"> </text>
</a>
</g>
</g>
<!-- Node2&#45;&gt;Node1 -->
<g id="edge1" class="edge"><title>Node2&#45;&gt;Node1</title>
<path fill="none" stroke="midnightblue" d="M66,-172.643C66,-164.101 66,-154.926 66,-145.735"/>
<polygon fill="none" stroke="midnightblue" points="62.5001,-172.707 66,-182.707 69.5001,-172.707 62.5001,-172.707"/>
</g>
</g>
</svg>
