<?xml version="1.0" encoding="UTF-8" standalone="no"?>
<!DOCTYPE svg PUBLIC "-//W3C//DTD SVG 1.1//EN"
 "http://www.w3.org/Graphics/SVG/1.1/DTD/svg11.dtd">
<!-- Generated by graphviz version 2.36.0 (20140111.2315)
 -->
<!-- Title: impala::Metric Pages: 1 -->
<!--zoomable 402 -->
<svg id="main" version="1.1" xmlns="http://www.w3.org/2000/svg" xmlns:xlink="http://www.w3.org/1999/xlink" xml:space="preserve" onload="init(evt)">
<style type="text/css"><![CDATA[
.edge:hover path { stroke: red; }
.edge:hover polygon { stroke: red; fill: red; }
]]></style>
<script type="text/javascript"><![CDATA[
var edges = document.getElementsByTagName('g');
if (edges && edges.length) {
  for (var i=0;i<edges.length;i++) {
    if (edges[i].id.substr(0,4)=='edge') {
      edges[i].setAttribute('class','edge');
    }
  }
}
]]></script>
        <defs>
                <circle id="rim" cx="0" cy="0" r="7"/>
                <circle id="rim2" cx="0" cy="0" r="3.5"/>
                <g id="zoomPlus">
                        <use xlink:href="#rim" fill="#404040">
                                <set attributeName="fill" to="#808080" begin="zoomplus.mouseover" end="zoomplus.mouseout"/>
                        </use>
                        <path d="M-4,0h8M0,-4v8" fill="none" stroke="white" stroke-width="1.5" pointer-events="none"/>
                </g>
                <g id="zoomMin">
                        <use xlink:href="#rim" fill="#404040">
                                <set attributeName="fill" to="#808080" begin="zoomminus.mouseover" end="zoomminus.mouseout"/>
                        </use>
                        <path d="M-4,0h8" fill="none" stroke="white" stroke-width="1.5" pointer-events="none"/>
                </g>
                <g id="dirArrow">
                        <path fill="none" stroke="white" stroke-width="1.5" d="M0,-3.0v7 M-2.5,-0.5L0,-3.0L2.5,-0.5"/>
                </g>
               <g id="resetDef">
                       <use xlink:href="#rim2" fill="#404040">
                               <set attributeName="fill" to="#808080" begin="reset.mouseover" end="reset.mouseout"/>
                       </use>
               </g>
        </defs>

<script type="text/javascript">
var viewWidth = 805;
var viewHeight = 402;
var sectionId = 'dynsection-0';
</script>
<script xlink:href="svgpan.js"/>
<svg id="graph" class="graph">
<g id="viewport">
<title>impala::Metric</title>
<polygon fill="white" stroke="none" points="-4,4 -4,-398 801,-398 801,4 -4,4"/>
<!-- Node1 -->
<g id="node1" class="node"><title>Node1</title>
<polygon fill="#bfbfbf" stroke="black" points="343,-248.5 343,-393.5 459,-393.5 459,-248.5 343,-248.5"/>
<text text-anchor="middle" x="401" y="-381.5" font-family="Helvetica,sans-Serif" font-size="10.00">impala::Metric</text>
<polyline fill="none" stroke="black" points="343,-374.5 459,-374.5 "/>
<text text-anchor="start" x="351" y="-362.5" font-family="Helvetica,sans-Serif" font-size="10.00"># key_</text>
<text text-anchor="start" x="351" y="-351.5" font-family="Helvetica,sans-Serif" font-size="10.00"># description_</text>
<polyline fill="none" stroke="black" points="343,-344.5 459,-344.5 "/>
<text text-anchor="start" x="351" y="-332.5" font-family="Helvetica,sans-Serif" font-size="10.00">+ ~Metric()</text>
<text text-anchor="start" x="351" y="-321.5" font-family="Helvetica,sans-Serif" font-size="10.00">+ ToJson()</text>
<text text-anchor="start" x="351" y="-310.5" font-family="Helvetica,sans-Serif" font-size="10.00">+ ToLegacyJson()</text>
<text text-anchor="start" x="351" y="-299.5" font-family="Helvetica,sans-Serif" font-size="10.00">+ ToHumanReadable()</text>
<text text-anchor="start" x="351" y="-288.5" font-family="Helvetica,sans-Serif" font-size="10.00">+ key()</text>
<text text-anchor="start" x="351" y="-277.5" font-family="Helvetica,sans-Serif" font-size="10.00">+ description()</text>
<text text-anchor="start" x="351" y="-266.5" font-family="Helvetica,sans-Serif" font-size="10.00"># Metric()</text>
<text text-anchor="start" x="351" y="-255.5" font-family="Helvetica,sans-Serif" font-size="10.00"># AddStandardFields()</text>
</g>
<!-- Node2 -->
<g id="node2" class="node"><title>Node2</title>
<g id="a_node2"><a xlink:href="classimpala_1_1SetMetric.html" target="_top" xlink:title="Metric whose value is a set of items. ">
<polygon fill="white" stroke="black" points="-0.5,-39 -0.5,-173 116.5,-173 116.5,-39 -0.5,-39"/>
<text text-anchor="middle" x="58" y="-161" font-family="Helvetica,sans-Serif" font-size="10.00">impala::SetMetric&lt; T &gt;</text>
<polyline fill="none" stroke="black" points="-0.5,-154 116.5,-154 "/>
<text text-anchor="start" x="7.5" y="-142" font-family="Helvetica,sans-Serif" font-size="10.00">&#45; lock_</text>
<text text-anchor="start" x="7.5" y="-131" font-family="Helvetica,sans-Serif" font-size="10.00">&#45; value_</text>
<polyline fill="none" stroke="black" points="-0.5,-124 116.5,-124 "/>
<text text-anchor="start" x="7.5" y="-112" font-family="Helvetica,sans-Serif" font-size="10.00">+ SetMetric()</text>
<text text-anchor="start" x="7.5" y="-101" font-family="Helvetica,sans-Serif" font-size="10.00">+ Add()</text>
<text text-anchor="start" x="7.5" y="-90" font-family="Helvetica,sans-Serif" font-size="10.00">+ Remove()</text>
<text text-anchor="start" x="7.5" y="-79" font-family="Helvetica,sans-Serif" font-size="10.00">+ Reset()</text>
<text text-anchor="start" x="7.5" y="-68" font-family="Helvetica,sans-Serif" font-size="10.00">+ ToJson()</text>
<text text-anchor="start" x="7.5" y="-57" font-family="Helvetica,sans-Serif" font-size="10.00">+ ToLegacyJson()</text>
<text text-anchor="start" x="7.5" y="-46" font-family="Helvetica,sans-Serif" font-size="10.00">+ ToHumanReadable()</text>
</a>
</g>
</g>
<!-- Node1&#45;&gt;Node2 -->
<g id="edge1" class="edge"><title>Node1&#45;&gt;Node2</title>
<path fill="none" stroke="midnightblue" d="M333.039,-305.802C273.375,-290.621 186.855,-261.732 126,-212 112.883,-201.28 101.446,-187.345 91.884,-173.15"/>
<polygon fill="none" stroke="midnightblue" points="332.197,-309.199 342.745,-308.211 333.883,-302.405 332.197,-309.199"/>
</g>
<!-- Node3 -->
<g id="node3" class="node"><title>Node3</title>
<g id="a_node3"><a xlink:href="classimpala_1_1SimpleMetric.html" target="_top" xlink:title="{impala::SimpleMetric\l\&lt; T, metric_kind \&gt;\n|# unit_\l# lock_\l# value_\l|+ SimpleMetric()\l+ SimpleMetric()\l+ ~SimpleMetric()\l+ value()\l+ set_value()\l+ Increment()\l+ ToJson()\l+ ToHumanReadable()\l+ ToLegacyJson()\l+ unit()\l+ kind()\l# CalculateValue()\l}">
<polygon fill="white" stroke="black" points="135,-0.5 135,-211.5 251,-211.5 251,-0.5 135,-0.5"/>
<text text-anchor="start" x="143" y="-199.5" font-family="Helvetica,sans-Serif" font-size="10.00">impala::SimpleMetric</text>
<text text-anchor="middle" x="193" y="-188.5" font-family="Helvetica,sans-Serif" font-size="10.00">&lt; T, metric_kind &gt;</text>
<polyline fill="none" stroke="black" points="135,-181.5 251,-181.5 "/>
<text text-anchor="start" x="143" y="-169.5" font-family="Helvetica,sans-Serif" font-size="10.00"># unit_</text>
<text text-anchor="start" x="143" y="-158.5" font-family="Helvetica,sans-Serif" font-size="10.00"># lock_</text>
<text text-anchor="start" x="143" y="-147.5" font-family="Helvetica,sans-Serif" font-size="10.00"># value_</text>
<polyline fill="none" stroke="black" points="135,-140.5 251,-140.5 "/>
<text text-anchor="start" x="143" y="-128.5" font-family="Helvetica,sans-Serif" font-size="10.00">+ SimpleMetric()</text>
<text text-anchor="start" x="143" y="-117.5" font-family="Helvetica,sans-Serif" font-size="10.00">+ SimpleMetric()</text>
<text text-anchor="start" x="143" y="-106.5" font-family="Helvetica,sans-Serif" font-size="10.00">+ ~SimpleMetric()</text>
<text text-anchor="start" x="143" y="-95.5" font-family="Helvetica,sans-Serif" font-size="10.00">+ value()</text>
<text text-anchor="start" x="143" y="-84.5" font-family="Helvetica,sans-Serif" font-size="10.00">+ set_value()</text>
<text text-anchor="start" x="143" y="-73.5" font-family="Helvetica,sans-Serif" font-size="10.00">+ Increment()</text>
<text text-anchor="start" x="143" y="-62.5" font-family="Helvetica,sans-Serif" font-size="10.00">+ ToJson()</text>
<text text-anchor="start" x="143" y="-51.5" font-family="Helvetica,sans-Serif" font-size="10.00">+ ToHumanReadable()</text>
<text text-anchor="start" x="143" y="-40.5" font-family="Helvetica,sans-Serif" font-size="10.00">+ ToLegacyJson()</text>
<text text-anchor="start" x="143" y="-29.5" font-family="Helvetica,sans-Serif" font-size="10.00">+ unit()</text>
<text text-anchor="start" x="143" y="-18.5" font-family="Helvetica,sans-Serif" font-size="10.00">+ kind()</text>
<text text-anchor="start" x="143" y="-7.5" font-family="Helvetica,sans-Serif" font-size="10.00"># CalculateValue()</text>
</a>
</g>
</g>
<!-- Node1&#45;&gt;Node3 -->
<g id="edge2" class="edge"><title>Node1&#45;&gt;Node3</title>
<path fill="none" stroke="midnightblue" d="M334.315,-276.326C309.371,-258.166 281.823,-235.778 260,-212 257.003,-208.734 254.056,-205.318 251.17,-201.796"/>
<polygon fill="none" stroke="midnightblue" points="332.498,-279.33 342.663,-282.318 336.58,-273.643 332.498,-279.33"/>
</g>
<!-- Node4 -->
<g id="node4" class="node"><title>Node4</title>
<g id="a_node4"><a xlink:href="classimpala_1_1StatsMetric.html" target="_top" xlink:title="{impala::StatsMetric\&lt; T \&gt;\n|&#45; unit_\l&#45; lock_\l&#45; value_\l&#45; acc_\l|+ StatsMetric()\l+ Update()\l+ Reset()\l+ ToJson()\l+ ToLegacyJson()\l+ ToHumanReadable()\l}">
<polygon fill="white" stroke="black" points="269.5,-33.5 269.5,-178.5 394.5,-178.5 394.5,-33.5 269.5,-33.5"/>
<text text-anchor="middle" x="332" y="-166.5" font-family="Helvetica,sans-Serif" font-size="10.00">impala::StatsMetric&lt; T &gt;</text>
<polyline fill="none" stroke="black" points="269.5,-159.5 394.5,-159.5 "/>
<text text-anchor="start" x="277.5" y="-147.5" font-family="Helvetica,sans-Serif" font-size="10.00">&#45; unit_</text>
<text text-anchor="start" x="277.5" y="-136.5" font-family="Helvetica,sans-Serif" font-size="10.00">&#45; lock_</text>
<text text-anchor="start" x="277.5" y="-125.5" font-family="Helvetica,sans-Serif" font-size="10.00">&#45; value_</text>
<text text-anchor="start" x="277.5" y="-114.5" font-family="Helvetica,sans-Serif" font-size="10.00">&#45; acc_</text>
<polyline fill="none" stroke="black" points="269.5,-107.5 394.5,-107.5 "/>
<text text-anchor="start" x="277.5" y="-95.5" font-family="Helvetica,sans-Serif" font-size="10.00">+ StatsMetric()</text>
<text text-anchor="start" x="277.5" y="-84.5" font-family="Helvetica,sans-Serif" font-size="10.00">+ Update()</text>
<text text-anchor="start" x="277.5" y="-73.5" font-family="Helvetica,sans-Serif" font-size="10.00">+ Reset()</text>
<text text-anchor="start" x="277.5" y="-62.5" font-family="Helvetica,sans-Serif" font-size="10.00">+ ToJson()</text>
<text text-anchor="start" x="277.5" y="-51.5" font-family="Helvetica,sans-Serif" font-size="10.00">+ ToLegacyJson()</text>
<text text-anchor="start" x="277.5" y="-40.5" font-family="Helvetica,sans-Serif" font-size="10.00">+ ToHumanReadable()</text>
</a>
</g>
</g>
<!-- Node1&#45;&gt;Node4 -->
<g id="edge3" class="edge"><title>Node1&#45;&gt;Node4</title>
<path fill="none" stroke="midnightblue" d="M374.719,-238.872C368.304,-219.068 361.486,-198.021 355.224,-178.692"/>
<polygon fill="none" stroke="midnightblue" points="371.421,-240.047 377.832,-248.482 378.08,-237.89 371.421,-240.047"/>
</g>
<!-- Node5 -->
<g id="node5" class="node"><title>Node5</title>
<g id="a_node5"><a xlink:href="classimpala_1_1TimerMetric.html" target="_top" xlink:title="{impala::TimerMetric\n||+ ToJson()\l+ ToLegacyJson()\l+ ToHumanReadable()\l}">
<polygon fill="white" stroke="black" points="413,-66.5 413,-145.5 529,-145.5 529,-66.5 413,-66.5"/>
<text text-anchor="middle" x="471" y="-133.5" font-family="Helvetica,sans-Serif" font-size="10.00">impala::TimerMetric</text>
<polyline fill="none" stroke="black" points="413,-126.5 529,-126.5 "/>
<text text-anchor="middle" x="471" y="-114.5" font-family="Helvetica,sans-Serif" font-size="10.00"> </text>
<polyline fill="none" stroke="black" points="413,-107.5 529,-107.5 "/>
<text text-anchor="start" x="421" y="-95.5" font-family="Helvetica,sans-Serif" font-size="10.00">+ ToJson()</text>
<text text-anchor="start" x="421" y="-84.5" font-family="Helvetica,sans-Serif" font-size="10.00">+ ToLegacyJson()</text>
<text text-anchor="start" x="421" y="-73.5" font-family="Helvetica,sans-Serif" font-size="10.00">+ ToHumanReadable()</text>
</a>
</g>
</g>
<!-- Node1&#45;&gt;Node5 -->
<g id="edge4" class="edge"><title>Node1&#45;&gt;Node5</title>
<path fill="none" stroke="midnightblue" d="M427.719,-238.698C438.202,-206.798 449.738,-171.698 458.261,-145.762"/>
<polygon fill="none" stroke="midnightblue" points="424.301,-237.889 424.504,-248.482 430.951,-240.074 424.301,-237.889"/>
</g>
<!-- Node6 -->
<g id="node6" class="node"><title>Node6</title>
<g id="a_node6"><a xlink:href="classimpala_1_1SetMetric.html" target="_top" xlink:title="{impala::SetMetric\&lt;\l std::string \&gt;\n|&#45; lock_\l&#45; value_\l|+ SetMetric()\l+ Add()\l+ Remove()\l+ Reset()\l+ ToJson()\l+ ToLegacyJson()\l+ ToHumanReadable()\l}">
<polygon fill="white" stroke="black" points="547,-33.5 547,-178.5 663,-178.5 663,-33.5 547,-33.5"/>
<text text-anchor="start" x="555" y="-166.5" font-family="Helvetica,sans-Serif" font-size="10.00">impala::SetMetric&lt;</text>
<text text-anchor="middle" x="605" y="-155.5" font-family="Helvetica,sans-Serif" font-size="10.00"> std::string &gt;</text>
<polyline fill="none" stroke="black" points="547,-148.5 663,-148.5 "/>
<text text-anchor="start" x="555" y="-136.5" font-family="Helvetica,sans-Serif" font-size="10.00">&#45; lock_</text>
<text text-anchor="start" x="555" y="-125.5" font-family="Helvetica,sans-Serif" font-size="10.00">&#45; value_</text>
<polyline fill="none" stroke="black" points="547,-118.5 663,-118.5 "/>
<text text-anchor="start" x="555" y="-106.5" font-family="Helvetica,sans-Serif" font-size="10.00">+ SetMetric()</text>
<text text-anchor="start" x="555" y="-95.5" font-family="Helvetica,sans-Serif" font-size="10.00">+ Add()</text>
<text text-anchor="start" x="555" y="-84.5" font-family="Helvetica,sans-Serif" font-size="10.00">+ Remove()</text>
<text text-anchor="start" x="555" y="-73.5" font-family="Helvetica,sans-Serif" font-size="10.00">+ Reset()</text>
<text text-anchor="start" x="555" y="-62.5" font-family="Helvetica,sans-Serif" font-size="10.00">+ ToJson()</text>
<text text-anchor="start" x="555" y="-51.5" font-family="Helvetica,sans-Serif" font-size="10.00">+ ToLegacyJson()</text>
<text text-anchor="start" x="555" y="-40.5" font-family="Helvetica,sans-Serif" font-size="10.00">+ ToHumanReadable()</text>
</a>
</g>
</g>
<!-- Node1&#45;&gt;Node6 -->
<g id="edge5" class="edge"><title>Node1&#45;&gt;Node6</title>
<path fill="none" stroke="midnightblue" d="M467.317,-274.243C490.776,-256.338 516.423,-234.664 537,-212 546.27,-201.79 555.125,-190.184 563.201,-178.504"/>
<polygon fill="none" stroke="midnightblue" points="465.005,-271.603 459.123,-280.414 469.216,-277.194 465.005,-271.603"/>
</g>
<!-- Node7 -->
<g id="node7" class="node"><title>Node7</title>
<g id="a_node7"><a xlink:href="classimpala_1_1StatsMetric.html" target="_top" xlink:title="{impala::StatsMetric\l\&lt; double \&gt;\n|&#45; unit_\l&#45; lock_\l&#45; value_\l&#45; acc_\l|+ StatsMetric()\l+ Update()\l+ Reset()\l+ ToJson()\l+ ToLegacyJson()\l+ ToHumanReadable()\l}">
<polygon fill="white" stroke="black" points="681,-28 681,-184 797,-184 797,-28 681,-28"/>
<text text-anchor="start" x="689" y="-172" font-family="Helvetica,sans-Serif" font-size="10.00">impala::StatsMetric</text>
<text text-anchor="middle" x="739" y="-161" font-family="Helvetica,sans-Serif" font-size="10.00">&lt; double &gt;</text>
<polyline fill="none" stroke="black" points="681,-154 797,-154 "/>
<text text-anchor="start" x="689" y="-142" font-family="Helvetica,sans-Serif" font-size="10.00">&#45; unit_</text>
<text text-anchor="start" x="689" y="-131" font-family="Helvetica,sans-Serif" font-size="10.00">&#45; lock_</text>
<text text-anchor="start" x="689" y="-120" font-family="Helvetica,sans-Serif" font-size="10.00">&#45; value_</text>
<text text-anchor="start" x="689" y="-109" font-family="Helvetica,sans-Serif" font-size="10.00">&#45; acc_</text>
<polyline fill="none" stroke="black" points="681,-102 797,-102 "/>
<text text-anchor="start" x="689" y="-90" font-family="Helvetica,sans-Serif" font-size="10.00">+ StatsMetric()</text>
<text text-anchor="start" x="689" y="-79" font-family="Helvetica,sans-Serif" font-size="10.00">+ Update()</text>
<text text-anchor="start" x="689" y="-68" font-family="Helvetica,sans-Serif" font-size="10.00">+ Reset()</text>
<text text-anchor="start" x="689" y="-57" font-family="Helvetica,sans-Serif" font-size="10.00">+ ToJson()</text>
<text text-anchor="start" x="689" y="-46" font-family="Helvetica,sans-Serif" font-size="10.00">+ ToLegacyJson()</text>
<text text-anchor="start" x="689" y="-35" font-family="Helvetica,sans-Serif" font-size="10.00">+ ToHumanReadable()</text>
</a>
</g>
</g>
<!-- Node1&#45;&gt;Node7 -->
<g id="edge6" class="edge"><title>Node1&#45;&gt;Node7</title>
<path fill="none" stroke="midnightblue" d="M468.906,-305.204C527.444,-289.755 611.657,-260.809 671,-212 680.645,-204.067 689.387,-194.401 697.147,-184.18"/>
<polygon fill="none" stroke="midnightblue" points="467.826,-301.868 459.015,-307.751 469.572,-308.647 467.826,-301.868"/>
</g>
</g>
</svg>
        <g id="navigator" transform="translate(0 0)" fill="#404254">
                <rect fill="#f2f5e9" fill-opacity="0.5" stroke="#606060" stroke-width=".5" x="0" y="0" width="60" height="60"/>
                <use id="zoomplus" xlink:href="#zoomPlus" x="17" y="9" onmousedown="handleZoom(evt,'in')"/>
                <use id="zoomminus" xlink:href="#zoomMin" x="42" y="9" onmousedown="handleZoom(evt,'out')"/>
                <use id="reset" xlink:href="#resetDef" x="30" y="36" onmousedown="handleReset()"/>
                <g id="arrowUp" xlink:href="#dirArrow" transform="translate(30 24)" onmousedown="handlePan(0,-1)">
                  <use xlink:href="#rim" fill="#404040">
                        <set attributeName="fill" to="#808080" begin="arrowUp.mouseover" end="arrowUp.mouseout"/>
                  </use>
                  <path fill="none" stroke="white" stroke-width="1.5" d="M0,-3.0v7 M-2.5,-0.5L0,-3.0L2.5,-0.5"/>
                </g>
                <g id="arrowRight" xlink:href="#dirArrow" transform="rotate(90) translate(36 -43)" onmousedown="handlePan(1,0)">
                  <use xlink:href="#rim" fill="#404040">
                        <set attributeName="fill" to="#808080" begin="arrowRight.mouseover" end="arrowRight.mouseout"/>
                  </use>
                  <path fill="none" stroke="white" stroke-width="1.5" d="M0,-3.0v7 M-2.5,-0.5L0,-3.0L2.5,-0.5"/>
                </g>
                <g id="arrowDown" xlink:href="#dirArrow" transform="rotate(180) translate(-30 -48)" onmousedown="handlePan(0,1)">
                  <use xlink:href="#rim" fill="#404040">
                        <set attributeName="fill" to="#808080" begin="arrowDown.mouseover" end="arrowDown.mouseout"/>
                  </use>
                  <path fill="none" stroke="white" stroke-width="1.5" d="M0,-3.0v7 M-2.5,-0.5L0,-3.0L2.5,-0.5"/>
                </g>
                <g id="arrowLeft" xlink:href="#dirArrow" transform="rotate(270) translate(-36 17)" onmousedown="handlePan(-1,0)">
                  <use xlink:href="#rim" fill="#404040">
                        <set attributeName="fill" to="#808080" begin="arrowLeft.mouseover" end="arrowLeft.mouseout"/>
                  </use>
                  <path fill="none" stroke="white" stroke-width="1.5" d="M0,-3.0v7 M-2.5,-0.5L0,-3.0L2.5,-0.5"/>
                </g>
        </g>
        <svg viewBox="0 0 15 15" width="100%" height="30px" preserveAspectRatio="xMaxYMin meet">
         <g id="arrow_out" transform="scale(0.3 0.3)">
          <a xlink:href="classimpala_1_1Metric__inherit__graph_org.svg" target="_base">
           <rect id="button" ry="5" rx="5" y="6" x="6" height="38" width="38"
                fill="#f2f5e9" fill-opacity="0.5" stroke="#606060" stroke-width="1.0"/>
           <path id="arrow"
             d="M 11.500037,31.436501 C 11.940474,20.09759 22.043105,11.32322 32.158766,21.979434 L 37.068811,17.246167 C 37.068811,17.246167 37.088388,32 37.088388,32 L 22.160133,31.978069 C 22.160133,31.978069 26.997745,27.140456 26.997745,27.140456 C 18.528582,18.264221 13.291696,25.230495 11.500037,31.436501 z"
             style="fill:#404040;"/>
          </a>
         </g>
        </svg>
</svg>
