<?xml version="1.0" encoding="UTF-8" standalone="no"?>
<!DOCTYPE svg PUBLIC "-//W3C//DTD SVG 1.1//EN"
 "http://www.w3.org/Graphics/SVG/1.1/DTD/svg11.dtd">
<!-- Generated by graphviz version 2.36.0 (20140111.2315)
 -->
<!-- Title: com.cloudera.impala.analysis.EquivalenceClassId Pages: 1 -->
<svg width="186pt" height="194pt"
 viewBox="0.00 0.00 186.00 194.00" xmlns="http://www.w3.org/2000/svg" xmlns:xlink="http://www.w3.org/1999/xlink">
<g id="graph0" class="graph" transform="scale(1 1) rotate(0) translate(4 190)">
<title>com.cloudera.impala.analysis.EquivalenceClassId</title>
<polygon fill="white" stroke="none" points="-4,4 -4,-190 182,-190 182,4 -4,4"/>
<!-- Node1 -->
<g id="node1" class="node"><title>Node1</title>
<polygon fill="#bfbfbf" stroke="black" points="14.5,-0.5 14.5,-79.5 163.5,-79.5 163.5,-0.5 14.5,-0.5"/>
<text text-anchor="start" x="22.5" y="-67.5" font-family="Helvetica,sans-Serif" font-size="10.00">com.cloudera.impala.analysis.</text>
<text text-anchor="middle" x="89" y="-56.5" font-family="Helvetica,sans-Serif" font-size="10.00">EquivalenceClassId</text>
<polyline fill="none" stroke="black" points="14.5,-49.5 163.5,-49.5 "/>
<text text-anchor="middle" x="89" y="-37.5" font-family="Helvetica,sans-Serif" font-size="10.00"> </text>
<polyline fill="none" stroke="black" points="14.5,-30.5 163.5,-30.5 "/>
<text text-anchor="start" x="22.5" y="-18.5" font-family="Helvetica,sans-Serif" font-size="10.00">+ createGenerator()</text>
<text text-anchor="start" x="22.5" y="-7.5" font-family="Helvetica,sans-Serif" font-size="10.00"># EquivalenceClassId()</text>
</g>
<!-- Node2 -->
<g id="node2" class="node"><title>Node2</title>
<polygon fill="white" stroke="#bfbfbf" points="-0.5,-117 -0.5,-185 178.5,-185 178.5,-117 -0.5,-117"/>
<text text-anchor="start" x="7.5" y="-173" font-family="Helvetica,sans-Serif" font-size="10.00">com::cloudera::impala</text>
<text text-anchor="middle" x="89" y="-162" font-family="Helvetica,sans-Serif" font-size="10.00">::common::Id&lt; EquivalenceClassId &gt;</text>
<polyline fill="none" stroke="#bfbfbf" points="-0.5,-155 178.5,-155 "/>
<text text-anchor="middle" x="89" y="-143" font-family="Helvetica,sans-Serif" font-size="10.00"> </text>
<polyline fill="none" stroke="#bfbfbf" points="-0.5,-136 178.5,-136 "/>
<text text-anchor="middle" x="89" y="-124" font-family="Helvetica,sans-Serif" font-size="10.00"> </text>
</g>
<!-- Node2&#45;&gt;Node1 -->
<g id="edge1" class="edge"><title>Node2&#45;&gt;Node1</title>
<path fill="none" stroke="midnightblue" d="M89,-106.575C89,-97.7367 89,-88.4932 89,-79.8274"/>
<polygon fill="none" stroke="midnightblue" points="85.5001,-106.704 89,-116.704 92.5001,-106.704 85.5001,-106.704"/>
</g>
</g>
</svg>
