<?xml version="1.0" encoding="UTF-8" standalone="no"?>
<!DOCTYPE svg PUBLIC "-//W3C//DTD SVG 1.1//EN"
 "http://www.w3.org/Graphics/SVG/1.1/DTD/svg11.dtd">
<!-- Generated by graphviz version 2.36.0 (20140111.2315)
 -->
<!-- Title: impala::TestInfo Pages: 1 -->
<svg width="94pt" height="194pt"
 viewBox="0.00 0.00 94.00 194.00" xmlns="http://www.w3.org/2000/svg" xmlns:xlink="http://www.w3.org/1999/xlink">
<g id="graph0" class="graph" transform="scale(1 1) rotate(0) translate(4 190)">
<title>impala::TestInfo</title>
<polygon fill="white" stroke="none" points="-4,4 -4,-190 90,-190 90,4 -4,4"/>
<!-- Node1 -->
<g id="node1" class="node"><title>Node1</title>
<polygon fill="#bfbfbf" stroke="black" points="-0.5,-0.5 -0.5,-79.5 86.5,-79.5 86.5,-0.5 -0.5,-0.5"/>
<text text-anchor="middle" x="43" y="-67.5" font-family="Helvetica,sans-Serif" font-size="10.00">impala::TestInfo</text>
<polyline fill="none" stroke="black" points="-0.5,-60.5 86.5,-60.5 "/>
<text text-anchor="middle" x="43" y="-48.5" font-family="Helvetica,sans-Serif" font-size="10.00"> </text>
<polyline fill="none" stroke="black" points="-0.5,-41.5 86.5,-41.5 "/>
<text text-anchor="start" x="7.5" y="-29.5" font-family="Helvetica,sans-Serif" font-size="10.00">+ Init()</text>
<text text-anchor="start" x="7.5" y="-18.5" font-family="Helvetica,sans-Serif" font-size="10.00">+ is_fe_test()</text>
<text text-anchor="start" x="7.5" y="-7.5" font-family="Helvetica,sans-Serif" font-size="10.00">+ is_test()</text>
</g>
<!-- Node2 -->
<g id="node2" class="node"><title>Node2</title>
<polygon fill="white" stroke="#bfbfbf" points="9,-128.5 9,-185.5 77,-185.5 77,-128.5 9,-128.5"/>
<text text-anchor="middle" x="43" y="-173.5" font-family="Helvetica,sans-Serif" font-size="10.00">static Mode</text>
<polyline fill="none" stroke="#bfbfbf" points="9,-166.5 77,-166.5 "/>
<text text-anchor="middle" x="43" y="-154.5" font-family="Helvetica,sans-Serif" font-size="10.00"> </text>
<polyline fill="none" stroke="#bfbfbf" points="9,-147.5 77,-147.5 "/>
<text text-anchor="middle" x="43" y="-135.5" font-family="Helvetica,sans-Serif" font-size="10.00"> </text>
</g>
<!-- Node2&#45;&gt;Node1 -->
<g id="edge1" class="edge"><title>Node2&#45;&gt;Node1</title>
<path fill="none" stroke="#404040" d="M43,-128.455C43,-117.491 43,-104.511 43,-91.9527"/>
<polygon fill="none" stroke="#404040" points="43.0001,-91.6258 39,-85.6258 43,-79.6258 47,-85.6257 43.0001,-91.6258"/>
<text text-anchor="middle" x="61" y="-101.5" font-family="Helvetica,sans-Serif" font-size="10.00"> &#45;mode_</text>
</g>
</g>
</svg>
