<?xml version="1.0" encoding="UTF-8" standalone="no"?>
<!DOCTYPE svg PUBLIC "-//W3C//DTD SVG 1.1//EN"
 "http://www.w3.org/Graphics/SVG/1.1/DTD/svg11.dtd">
<!-- Generated by graphviz version 2.36.0 (20140111.2315)
 -->
<!-- Title: impala::DiskInfo Pages: 1 -->
<svg width="601pt" height="250pt"
 viewBox="0.00 0.00 601.00 250.00" xmlns="http://www.w3.org/2000/svg" xmlns:xlink="http://www.w3.org/1999/xlink">
<g id="graph0" class="graph" transform="scale(1 1) rotate(0) translate(4 246)">
<title>impala::DiskInfo</title>
<polygon fill="white" stroke="none" points="-4,4 -4,-246 597,-246 597,4 -4,4"/>
<!-- Node1 -->
<g id="node1" class="node"><title>Node1</title>
<polygon fill="#bfbfbf" stroke="black" points="260.5,-0.5 260.5,-123.5 367.5,-123.5 367.5,-0.5 260.5,-0.5"/>
<text text-anchor="middle" x="314" y="-111.5" font-family="Helvetica,sans-Serif" font-size="10.00">impala::DiskInfo</text>
<polyline fill="none" stroke="black" points="260.5,-104.5 367.5,-104.5 "/>
<text text-anchor="middle" x="314" y="-92.5" font-family="Helvetica,sans-Serif" font-size="10.00"> </text>
<polyline fill="none" stroke="black" points="260.5,-85.5 367.5,-85.5 "/>
<text text-anchor="start" x="268.5" y="-73.5" font-family="Helvetica,sans-Serif" font-size="10.00">+ Init()</text>
<text text-anchor="start" x="268.5" y="-62.5" font-family="Helvetica,sans-Serif" font-size="10.00">+ num_disks()</text>
<text text-anchor="start" x="268.5" y="-51.5" font-family="Helvetica,sans-Serif" font-size="10.00">+ disk_id()</text>
<text text-anchor="start" x="268.5" y="-40.5" font-family="Helvetica,sans-Serif" font-size="10.00">+ device_name()</text>
<text text-anchor="start" x="268.5" y="-29.5" font-family="Helvetica,sans-Serif" font-size="10.00">+ is_rotational()</text>
<text text-anchor="start" x="268.5" y="-18.5" font-family="Helvetica,sans-Serif" font-size="10.00">+ DebugString()</text>
<text text-anchor="start" x="268.5" y="-7.5" font-family="Helvetica,sans-Serif" font-size="10.00">&#45; GetDeviceNames()</text>
</g>
<!-- Node2 -->
<g id="node2" class="node"><title>Node2</title>
<polygon fill="white" stroke="#bfbfbf" points="-0.5,-178.5 -0.5,-235.5 112.5,-235.5 112.5,-178.5 -0.5,-178.5"/>
<text text-anchor="middle" x="56" y="-223.5" font-family="Helvetica,sans-Serif" font-size="10.00">map&lt; std::string, int &gt;</text>
<polyline fill="none" stroke="#bfbfbf" points="-0.5,-216.5 112.5,-216.5 "/>
<text text-anchor="middle" x="56" y="-204.5" font-family="Helvetica,sans-Serif" font-size="10.00"> </text>
<polyline fill="none" stroke="#bfbfbf" points="-0.5,-197.5 112.5,-197.5 "/>
<text text-anchor="middle" x="56" y="-185.5" font-family="Helvetica,sans-Serif" font-size="10.00"> </text>
</g>
<!-- Node2&#45;&gt;Node1 -->
<g id="edge1" class="edge"><title>Node2&#45;&gt;Node1</title>
<path fill="none" stroke="#404040" d="M64.4076,-178.378C69.4677,-165.796 77.0894,-151.603 88,-142 133.015,-102.382 199.072,-82.3278 248.156,-72.3693"/>
<polygon fill="none" stroke="#404040" points="248.461,-72.3108 253.6,-67.2517 260.246,-70.0493 255.107,-75.1084 248.461,-72.3108"/>
<text text-anchor="middle" x="142.5" y="-145.5" font-family="Helvetica,sans-Serif" font-size="10.00"> &#45;disk_name_to_disk_id_</text>
</g>
<!-- Node3 -->
<g id="node3" class="node"><title>Node3</title>
<polygon fill="white" stroke="#bfbfbf" points="141,-178.5 141,-235.5 235,-235.5 235,-178.5 141,-178.5"/>
<text text-anchor="middle" x="188" y="-223.5" font-family="Helvetica,sans-Serif" font-size="10.00">map&lt; dev_t, int &gt;</text>
<polyline fill="none" stroke="#bfbfbf" points="141,-216.5 235,-216.5 "/>
<text text-anchor="middle" x="188" y="-204.5" font-family="Helvetica,sans-Serif" font-size="10.00"> </text>
<polyline fill="none" stroke="#bfbfbf" points="141,-197.5 235,-197.5 "/>
<text text-anchor="middle" x="188" y="-185.5" font-family="Helvetica,sans-Serif" font-size="10.00"> </text>
</g>
<!-- Node3&#45;&gt;Node1 -->
<g id="edge2" class="edge"><title>Node3&#45;&gt;Node1</title>
<path fill="none" stroke="#404040" d="M192.122,-178.438C194.895,-166.449 199.479,-152.722 207,-142 218.475,-125.641 234.419,-111.314 250.5,-99.5154"/>
<polygon fill="none" stroke="#404040" points="250.67,-99.3959 253.282,-92.6744 260.491,-92.5001 257.879,-99.2216 250.67,-99.3959"/>
<text text-anchor="middle" x="258.5" y="-145.5" font-family="Helvetica,sans-Serif" font-size="10.00"> &#45;device_id_to_disk_id_</text>
</g>
<!-- Node4 -->
<g id="node4" class="node"><title>Node4</title>
<polygon fill="white" stroke="#bfbfbf" points="299.5,-178.5 299.5,-235.5 328.5,-235.5 328.5,-178.5 299.5,-178.5"/>
<text text-anchor="middle" x="314" y="-223.5" font-family="Helvetica,sans-Serif" font-size="10.00">int</text>
<polyline fill="none" stroke="#bfbfbf" points="299.5,-216.5 328.5,-216.5 "/>
<text text-anchor="middle" x="314" y="-204.5" font-family="Helvetica,sans-Serif" font-size="10.00"> </text>
<polyline fill="none" stroke="#bfbfbf" points="299.5,-197.5 328.5,-197.5 "/>
<text text-anchor="middle" x="314" y="-185.5" font-family="Helvetica,sans-Serif" font-size="10.00"> </text>
</g>
<!-- Node4&#45;&gt;Node1 -->
<g id="edge3" class="edge"><title>Node4&#45;&gt;Node1</title>
<path fill="none" stroke="#404040" d="M314,-178.428C314,-166.132 314,-151.007 314,-135.803"/>
<polygon fill="none" stroke="#404040" points="314,-135.645 310,-129.645 314,-123.645 318,-129.645 314,-135.645"/>
<text text-anchor="middle" x="362.5" y="-145.5" font-family="Helvetica,sans-Serif" font-size="10.00"> &#45;num_datanode_dirs_</text>
</g>
<!-- Node5 -->
<g id="node5" class="node"><title>Node5</title>
<g id="a_node5"><a xlink:href="classbool.html" target="_top" xlink:title="{bool\n||}">
<polygon fill="white" stroke="black" points="416.5,-178.5 416.5,-235.5 451.5,-235.5 451.5,-178.5 416.5,-178.5"/>
<text text-anchor="middle" x="434" y="-223.5" font-family="Helvetica,sans-Serif" font-size="10.00">bool</text>
<polyline fill="none" stroke="black" points="416.5,-216.5 451.5,-216.5 "/>
<text text-anchor="middle" x="434" y="-204.5" font-family="Helvetica,sans-Serif" font-size="10.00"> </text>
<polyline fill="none" stroke="black" points="416.5,-197.5 451.5,-197.5 "/>
<text text-anchor="middle" x="434" y="-185.5" font-family="Helvetica,sans-Serif" font-size="10.00"> </text>
</a>
</g>
</g>
<!-- Node5&#45;&gt;Node1 -->
<g id="edge4" class="edge"><title>Node5&#45;&gt;Node1</title>
<path fill="none" stroke="#404040" d="M428.121,-178.257C424.712,-166.37 419.557,-152.773 412,-142 402.457,-128.395 389.936,-115.902 377.049,-105.061"/>
<polygon fill="none" stroke="#404040" points="376.976,-105.003 369.795,-104.348 367.637,-97.4669 374.819,-98.1219 376.976,-105.003"/>
<text text-anchor="middle" x="445" y="-145.5" font-family="Helvetica,sans-Serif" font-size="10.00"> &#45;initialized_</text>
</g>
<!-- Node6 -->
<g id="node6" class="node"><title>Node6</title>
<polygon fill="white" stroke="#bfbfbf" points="470,-173 470,-241 594,-241 594,-173 470,-173"/>
<text text-anchor="start" x="478" y="-229" font-family="Helvetica,sans-Serif" font-size="10.00">vector&lt; impala::DiskInfo</text>
<text text-anchor="middle" x="532" y="-218" font-family="Helvetica,sans-Serif" font-size="10.00">::Disk &gt;</text>
<polyline fill="none" stroke="#bfbfbf" points="470,-211 594,-211 "/>
<text text-anchor="middle" x="532" y="-199" font-family="Helvetica,sans-Serif" font-size="10.00"> </text>
<polyline fill="none" stroke="#bfbfbf" points="470,-192 594,-192 "/>
<text text-anchor="middle" x="532" y="-180" font-family="Helvetica,sans-Serif" font-size="10.00"> </text>
</g>
<!-- Node6&#45;&gt;Node1 -->
<g id="edge5" class="edge"><title>Node6&#45;&gt;Node1</title>
<path fill="none" stroke="#404040" d="M506.649,-172.706C497.459,-162.034 486.492,-150.731 475,-142 445.854,-119.858 409.524,-101.392 378.754,-87.8953"/>
<polygon fill="none" stroke="#404040" points="378.722,-87.8813 371.631,-89.1917 367.694,-83.1501 374.785,-81.8397 378.722,-87.8813"/>
<text text-anchor="middle" x="505.5" y="-145.5" font-family="Helvetica,sans-Serif" font-size="10.00"> &#45;disks_</text>
</g>
</g>
</svg>
