<?xml version="1.0" encoding="UTF-8" standalone="no"?>
<!DOCTYPE svg PUBLIC "-//W3C//DTD SVG 1.1//EN"
 "http://www.w3.org/Graphics/SVG/1.1/DTD/svg11.dtd">
<!-- Generated by graphviz version 2.36.0 (20140111.2315)
 -->
<!-- Title: com.cloudera.impala.util.RequestPoolService Pages: 1 -->
<!--zoomable 554 -->
<svg id="main" version="1.1" xmlns="http://www.w3.org/2000/svg" xmlns:xlink="http://www.w3.org/1999/xlink" xml:space="preserve" onload="init(evt)">
<style type="text/css"><![CDATA[
.edge:hover path { stroke: red; }
.edge:hover polygon { stroke: red; fill: red; }
]]></style>
<script type="text/javascript"><![CDATA[
var edges = document.getElementsByTagName('g');
if (edges && edges.length) {
  for (var i=0;i<edges.length;i++) {
    if (edges[i].id.substr(0,4)=='edge') {
      edges[i].setAttribute('class','edge');
    }
  }
}
]]></script>
        <defs>
                <circle id="rim" cx="0" cy="0" r="7"/>
                <circle id="rim2" cx="0" cy="0" r="3.5"/>
                <g id="zoomPlus">
                        <use xlink:href="#rim" fill="#404040">
                                <set attributeName="fill" to="#808080" begin="zoomplus.mouseover" end="zoomplus.mouseout"/>
                        </use>
                        <path d="M-4,0h8M0,-4v8" fill="none" stroke="white" stroke-width="1.5" pointer-events="none"/>
                </g>
                <g id="zoomMin">
                        <use xlink:href="#rim" fill="#404040">
                                <set attributeName="fill" to="#808080" begin="zoomminus.mouseover" end="zoomminus.mouseout"/>
                        </use>
                        <path d="M-4,0h8" fill="none" stroke="white" stroke-width="1.5" pointer-events="none"/>
                </g>
                <g id="dirArrow">
                        <path fill="none" stroke="white" stroke-width="1.5" d="M0,-3.0v7 M-2.5,-0.5L0,-3.0L2.5,-0.5"/>
                </g>
               <g id="resetDef">
                       <use xlink:href="#rim2" fill="#404040">
                               <set attributeName="fill" to="#808080" begin="reset.mouseover" end="reset.mouseout"/>
                       </use>
               </g>
        </defs>

<script type="text/javascript">
var viewWidth = 1731;
var viewHeight = 554;
var sectionId = 'dynsection-0';
</script>
<script xlink:href="svgpan.js"/>
<svg id="graph" class="graph">
<g id="viewport">
<title>com.cloudera.impala.util.RequestPoolService</title>
<polygon fill="white" stroke="none" points="-4,4 -4,-550 1727,-550 1727,4 -4,4"/>
<!-- Node1 -->
<g id="node1" class="node"><title>Node1</title>
<polygon fill="#bfbfbf" stroke="black" points="1007.5,-0.5 1007.5,-189.5 1148.5,-189.5 1148.5,-0.5 1007.5,-0.5"/>
<text text-anchor="start" x="1015.5" y="-177.5" font-family="Helvetica,sans-Serif" font-size="10.00">com.cloudera.impala.util.</text>
<text text-anchor="middle" x="1078" y="-166.5" font-family="Helvetica,sans-Serif" font-size="10.00">RequestPoolService</text>
<polyline fill="none" stroke="black" points="1007.5,-159.5 1148.5,-159.5 "/>
<text text-anchor="middle" x="1078" y="-147.5" font-family="Helvetica,sans-Serif" font-size="10.00"> </text>
<polyline fill="none" stroke="black" points="1007.5,-140.5 1148.5,-140.5 "/>
<text text-anchor="start" x="1015.5" y="-128.5" font-family="Helvetica,sans-Serif" font-size="10.00">+ RequestPoolService()</text>
<text text-anchor="start" x="1015.5" y="-117.5" font-family="Helvetica,sans-Serif" font-size="10.00">+ start()</text>
<text text-anchor="start" x="1015.5" y="-106.5" font-family="Helvetica,sans-Serif" font-size="10.00">+ stop()</text>
<text text-anchor="start" x="1015.5" y="-95.5" font-family="Helvetica,sans-Serif" font-size="10.00">+ resolveRequestPool()</text>
<text text-anchor="start" x="1015.5" y="-84.5" font-family="Helvetica,sans-Serif" font-size="10.00">+ getPoolConfig()</text>
<text text-anchor="start" x="1015.5" y="-73.5" font-family="Helvetica,sans-Serif" font-size="10.00">~ resolveRequestPool()</text>
<text text-anchor="start" x="1015.5" y="-62.5" font-family="Helvetica,sans-Serif" font-size="10.00">~ getPoolConfig()</text>
<text text-anchor="start" x="1015.5" y="-51.5" font-family="Helvetica,sans-Serif" font-size="10.00">~ assignToPool()</text>
<text text-anchor="start" x="1015.5" y="-40.5" font-family="Helvetica,sans-Serif" font-size="10.00">~ hasAccess()</text>
<text text-anchor="start" x="1015.5" y="-29.5" font-family="Helvetica,sans-Serif" font-size="10.00">~ getURL()</text>
<text text-anchor="start" x="1015.5" y="-18.5" font-family="Helvetica,sans-Serif" font-size="10.00">&#45; stopInternal()</text>
<text text-anchor="start" x="1015.5" y="-7.5" font-family="Helvetica,sans-Serif" font-size="10.00">&#45; getLlamaPoolConfigValue()</text>
</g>
<!-- Node2 -->
<g id="node2" class="node"><title>Node2</title>
<polygon fill="white" stroke="#bfbfbf" points="0,-310.5 0,-367.5 42,-367.5 42,-310.5 0,-310.5"/>
<text text-anchor="middle" x="21" y="-355.5" font-family="Helvetica,sans-Serif" font-size="10.00">String</text>
<polyline fill="none" stroke="#bfbfbf" points="0,-348.5 42,-348.5 "/>
<text text-anchor="middle" x="21" y="-336.5" font-family="Helvetica,sans-Serif" font-size="10.00"> </text>
<polyline fill="none" stroke="#bfbfbf" points="0,-329.5 42,-329.5 "/>
<text text-anchor="middle" x="21" y="-317.5" font-family="Helvetica,sans-Serif" font-size="10.00"> </text>
</g>
<!-- Node2&#45;&gt;Node1 -->
<g id="edge1" class="edge"><title>Node2&#45;&gt;Node1</title>
<path fill="none" stroke="#404040" d="M11.6624,-310.324C3.72111,-281.063 -2.8605,-235.424 22,-208 87.0811,-136.209 757.477,-106.796 995.072,-98.575"/>
<polygon fill="none" stroke="#404040" points="995.411,-98.5635 1001.27,-94.361 1007.4,-98.1539 1001.54,-102.356 995.411,-98.5635"/>
<text text-anchor="start" x="22" y="-255.5" font-family="Helvetica,sans-Serif" font-size="10.00"> ~LLAMA_PER_POOL_CONFIG</text>
<text text-anchor="middle" x="134.5" y="-244.5" font-family="Helvetica,sans-Serif" font-size="10.00">_KEY_FORMAT</text>
<text text-anchor="start" x="22" y="-233.5" font-family="Helvetica,sans-Serif" font-size="10.00">~LLAMA_MAX_PLACED_RESERVATIONS</text>
<text text-anchor="middle" x="134.5" y="-222.5" font-family="Helvetica,sans-Serif" font-size="10.00">_KEY</text>
<text text-anchor="middle" x="134.5" y="-211.5" font-family="Helvetica,sans-Serif" font-size="10.00">~LLAMA_MAX_QUEUED_RESERVATIONS_KEY</text>
</g>
<!-- Node3 -->
<g id="node3" class="node"><title>Node3</title>
<polygon fill="white" stroke="#bfbfbf" points="180,-482.5 180,-539.5 226,-539.5 226,-482.5 180,-482.5"/>
<text text-anchor="middle" x="203" y="-527.5" font-family="Helvetica,sans-Serif" font-size="10.00">Logger</text>
<polyline fill="none" stroke="#bfbfbf" points="180,-520.5 226,-520.5 "/>
<text text-anchor="middle" x="203" y="-508.5" font-family="Helvetica,sans-Serif" font-size="10.00"> </text>
<polyline fill="none" stroke="#bfbfbf" points="180,-501.5 226,-501.5 "/>
<text text-anchor="middle" x="203" y="-489.5" font-family="Helvetica,sans-Serif" font-size="10.00"> </text>
</g>
<!-- Node3&#45;&gt;Node1 -->
<g id="edge2" class="edge"><title>Node3&#45;&gt;Node1</title>
<path fill="none" stroke="#404040" d="M220.557,-482.172C234.044,-461.994 253.888,-434.723 275,-414 346.568,-343.752 368.059,-326.357 458,-282 639.912,-192.286 873.503,-136.619 995.477,-111.585"/>
<polygon fill="none" stroke="#404040" points="995.525,-111.575 1000.61,-106.461 1007.28,-109.186 1002.2,-114.3 995.525,-111.575"/>
<text text-anchor="middle" x="473" y="-336.5" font-family="Helvetica,sans-Serif" font-size="10.00"> ~LOG</text>
</g>
<!-- Node8 -->
<g id="node8" class="node"><title>Node8</title>
<g id="a_node8"><a xlink:href="classcom_1_1cloudera_1_1impala_1_1util_1_1FileWatchService.html" target="_top" xlink:title="{com.cloudera.impala.util.\lFileWatchService\n||+ FileWatchService()\l+ setCheckIntervalMs()\l+ start()\l+ stop()\l&#45; checkFile()\l}">
<polygon fill="white" stroke="black" points="497.5,-283 497.5,-395 622.5,-395 622.5,-283 497.5,-283"/>
<text text-anchor="start" x="505.5" y="-383" font-family="Helvetica,sans-Serif" font-size="10.00">com.cloudera.impala.util.</text>
<text text-anchor="middle" x="560" y="-372" font-family="Helvetica,sans-Serif" font-size="10.00">FileWatchService</text>
<polyline fill="none" stroke="black" points="497.5,-365 622.5,-365 "/>
<text text-anchor="middle" x="560" y="-353" font-family="Helvetica,sans-Serif" font-size="10.00"> </text>
<polyline fill="none" stroke="black" points="497.5,-346 622.5,-346 "/>
<text text-anchor="start" x="505.5" y="-334" font-family="Helvetica,sans-Serif" font-size="10.00">+ FileWatchService()</text>
<text text-anchor="start" x="505.5" y="-323" font-family="Helvetica,sans-Serif" font-size="10.00">+ setCheckIntervalMs()</text>
<text text-anchor="start" x="505.5" y="-312" font-family="Helvetica,sans-Serif" font-size="10.00">+ start()</text>
<text text-anchor="start" x="505.5" y="-301" font-family="Helvetica,sans-Serif" font-size="10.00">+ stop()</text>
<text text-anchor="start" x="505.5" y="-290" font-family="Helvetica,sans-Serif" font-size="10.00">&#45; checkFile()</text>
</a>
</g>
</g>
<!-- Node3&#45;&gt;Node8 -->
<g id="edge8" class="edge"><title>Node3&#45;&gt;Node8</title>
<path fill="none" stroke="#404040" d="M226.208,-483.359C229.039,-480.723 231.996,-478.21 235,-476 249.731,-465.164 256.934,-468.365 272,-458 295.574,-441.782 294.242,-428.346 319,-414 370.778,-383.997 435.993,-364.934 485.523,-353.683"/>
<polygon fill="none" stroke="#404040" points="485.719,-353.64 490.718,-348.443 497.438,-351.058 492.439,-356.255 485.719,-353.64"/>
<text text-anchor="middle" x="334" y="-433.5" font-family="Helvetica,sans-Serif" font-size="10.00"> ~LOG</text>
</g>
<!-- Node4 -->
<g id="node4" class="node"><title>Node4</title>
<polygon fill="white" stroke="#bfbfbf" points="1002,-310.5 1002,-367.5 1076,-367.5 1076,-310.5 1002,-310.5"/>
<text text-anchor="middle" x="1039" y="-355.5" font-family="Helvetica,sans-Serif" font-size="10.00">Configuration</text>
<polyline fill="none" stroke="#bfbfbf" points="1002,-348.5 1076,-348.5 "/>
<text text-anchor="middle" x="1039" y="-336.5" font-family="Helvetica,sans-Serif" font-size="10.00"> </text>
<polyline fill="none" stroke="#bfbfbf" points="1002,-329.5 1076,-329.5 "/>
<text text-anchor="middle" x="1039" y="-317.5" font-family="Helvetica,sans-Serif" font-size="10.00"> </text>
</g>
<!-- Node4&#45;&gt;Node1 -->
<g id="edge3" class="edge"><title>Node4&#45;&gt;Node1</title>
<path fill="none" stroke="#404040" d="M1036.68,-310.388C1035.06,-283.919 1034.1,-242.94 1040,-208 1040.37,-205.817 1040.77,-203.62 1041.21,-201.412"/>
<polygon fill="none" stroke="#404040" points="1041.25,-201.261 1038.64,-194.537 1043.84,-189.545 1046.45,-196.269 1041.25,-201.261"/>
<text text-anchor="middle" x="1068" y="-233.5" font-family="Helvetica,sans-Serif" font-size="10.00"> &#45;llamaConf_</text>
</g>
<!-- Node5 -->
<g id="node5" class="node"><title>Node5</title>
<polygon fill="white" stroke="#bfbfbf" points="1094.5,-310.5 1094.5,-367.5 1231.5,-367.5 1231.5,-310.5 1094.5,-310.5"/>
<text text-anchor="middle" x="1163" y="-355.5" font-family="Helvetica,sans-Serif" font-size="10.00">AllocationFileLoaderService</text>
<polyline fill="none" stroke="#bfbfbf" points="1094.5,-348.5 1231.5,-348.5 "/>
<text text-anchor="middle" x="1163" y="-336.5" font-family="Helvetica,sans-Serif" font-size="10.00"> </text>
<polyline fill="none" stroke="#bfbfbf" points="1094.5,-329.5 1231.5,-329.5 "/>
<text text-anchor="middle" x="1163" y="-317.5" font-family="Helvetica,sans-Serif" font-size="10.00"> </text>
</g>
<!-- Node5&#45;&gt;Node1 -->
<g id="edge4" class="edge"><title>Node5&#45;&gt;Node1</title>
<path fill="none" stroke="#404040" d="M1143.8,-310.212C1135.21,-296.749 1125.56,-280.05 1119,-264 1110.9,-244.185 1104.14,-222.376 1098.59,-201.221"/>
<polygon fill="none" stroke="#404040" points="1098.58,-201.185 1093.23,-196.352 1095.63,-189.553 1100.98,-194.386 1098.58,-201.185"/>
<text text-anchor="middle" x="1151" y="-233.5" font-family="Helvetica,sans-Serif" font-size="10.00"> ~allocLoader_</text>
</g>
<!-- Node6 -->
<g id="node6" class="node"><title>Node6</title>
<polygon fill="white" stroke="#bfbfbf" points="1249.5,-310.5 1249.5,-367.5 1278.5,-367.5 1278.5,-310.5 1249.5,-310.5"/>
<text text-anchor="middle" x="1264" y="-355.5" font-family="Helvetica,sans-Serif" font-size="10.00">int</text>
<polyline fill="none" stroke="#bfbfbf" points="1249.5,-348.5 1278.5,-348.5 "/>
<text text-anchor="middle" x="1264" y="-336.5" font-family="Helvetica,sans-Serif" font-size="10.00"> </text>
<polyline fill="none" stroke="#bfbfbf" points="1249.5,-329.5 1278.5,-329.5 "/>
<text text-anchor="middle" x="1264" y="-317.5" font-family="Helvetica,sans-Serif" font-size="10.00"> </text>
</g>
<!-- Node6&#45;&gt;Node1 -->
<g id="edge5" class="edge"><title>Node6&#45;&gt;Node1</title>
<path fill="none" stroke="#404040" d="M1256.44,-310.488C1252.71,-300.643 1247.38,-290.013 1240,-282 1228.42,-269.424 1217.49,-276.663 1206,-264 1187.92,-244.073 1197.55,-230.632 1183,-208 1175.29,-196.002 1166.21,-184.127 1156.67,-172.846"/>
<polygon fill="none" stroke="#404040" points="1156.45,-172.582 1149.49,-170.673 1148.58,-163.52 1155.53,-165.429 1156.45,-172.582"/>
<text text-anchor="start" x="1206" y="-250" font-family="Helvetica,sans-Serif" font-size="10.00"> ~LLAMA_MAX_QUEUED_RESERVATIONS</text>
<text text-anchor="middle" x="1307" y="-239" font-family="Helvetica,sans-Serif" font-size="10.00">_DEFAULT</text>
<text text-anchor="start" x="1206" y="-228" font-family="Helvetica,sans-Serif" font-size="10.00">~LLAMA_MAX_PLACED_RESERVATIONS</text>
<text text-anchor="middle" x="1307" y="-217" font-family="Helvetica,sans-Serif" font-size="10.00">_DEFAULT</text>
</g>
<!-- Node7 -->
<g id="node7" class="node"><title>Node7</title>
<polygon fill="white" stroke="#bfbfbf" points="1402.5,-310.5 1402.5,-367.5 1439.5,-367.5 1439.5,-310.5 1402.5,-310.5"/>
<text text-anchor="middle" x="1421" y="-355.5" font-family="Helvetica,sans-Serif" font-size="10.00">URL</text>
<polyline fill="none" stroke="#bfbfbf" points="1402.5,-348.5 1439.5,-348.5 "/>
<text text-anchor="middle" x="1421" y="-336.5" font-family="Helvetica,sans-Serif" font-size="10.00"> </text>
<polyline fill="none" stroke="#bfbfbf" points="1402.5,-329.5 1439.5,-329.5 "/>
<text text-anchor="middle" x="1421" y="-317.5" font-family="Helvetica,sans-Serif" font-size="10.00"> </text>
</g>
<!-- Node7&#45;&gt;Node1 -->
<g id="edge6" class="edge"><title>Node7&#45;&gt;Node1</title>
<path fill="none" stroke="#404040" d="M1426.21,-310.454C1429.99,-281.731 1431.01,-236.942 1408,-208 1348.68,-133.373 1237.36,-108.182 1160.53,-99.8428"/>
<polygon fill="none" stroke="#404040" points="1160.45,-99.8348 1154.08,-103.22 1148.51,-98.6441 1154.88,-95.2592 1160.45,-99.8348"/>
<text text-anchor="middle" x="1462.5" y="-233.5" font-family="Helvetica,sans-Serif" font-size="10.00"> &#45;llamaConfUrl_</text>
</g>
<!-- Node8&#45;&gt;Node1 -->
<g id="edge7" class="edge"><title>Node8&#45;&gt;Node1</title>
<path fill="none" stroke="#404040" d="M622.519,-307.538C677.33,-280.945 759.239,-241.477 831,-208 885.926,-182.377 948.065,-154.204 996.277,-132.524"/>
<polygon fill="none" stroke="#404040" points="996.334,-132.499 1000.17,-126.391 1007.28,-127.581 1003.45,-133.688 996.334,-132.499"/>
<text text-anchor="middle" x="879" y="-233.5" font-family="Helvetica,sans-Serif" font-size="10.00"> ~llamaConfWatcher_</text>
</g>
<!-- Node9 -->
<g id="node9" class="node"><title>Node9</title>
<g id="a_node9"><a xlink:href="interfacecom_1_1cloudera_1_1impala_1_1util_1_1FileWatchService_1_1FileChangeListener.html" target="_top" xlink:title="{com.cloudera.impala.util.\lFileWatchService.FileChangeListener\n||+ onFileChange()\l}">
<polygon fill="white" stroke="black" points="244.5,-477 244.5,-545 425.5,-545 425.5,-477 244.5,-477"/>
<text text-anchor="start" x="252.5" y="-533" font-family="Helvetica,sans-Serif" font-size="10.00">com.cloudera.impala.util.</text>
<text text-anchor="middle" x="335" y="-522" font-family="Helvetica,sans-Serif" font-size="10.00">FileWatchService.FileChangeListener</text>
<polyline fill="none" stroke="black" points="244.5,-515 425.5,-515 "/>
<text text-anchor="middle" x="335" y="-503" font-family="Helvetica,sans-Serif" font-size="10.00"> </text>
<polyline fill="none" stroke="black" points="244.5,-496 425.5,-496 "/>
<text text-anchor="start" x="252.5" y="-484" font-family="Helvetica,sans-Serif" font-size="10.00">+ onFileChange()</text>
</a>
</g>
</g>
<!-- Node9&#45;&gt;Node8 -->
<g id="edge9" class="edge"><title>Node9&#45;&gt;Node8</title>
<path fill="none" stroke="#404040" d="M344.13,-476.972C351.255,-456.529 363.015,-431.025 381,-414 409.962,-386.584 450.505,-368.689 485.683,-357.376"/>
<polygon fill="none" stroke="#404040" points="485.911,-357.307 490.474,-351.723 497.383,-353.788 492.82,-359.372 485.911,-357.307"/>
<text text-anchor="middle" x="420" y="-433.5" font-family="Helvetica,sans-Serif" font-size="10.00"> &#45;changeListener_</text>
</g>
<!-- Node10 -->
<g id="node10" class="node"><title>Node10</title>
<polygon fill="white" stroke="#bfbfbf" points="444,-482.5 444,-539.5 476,-539.5 476,-482.5 444,-482.5"/>
<text text-anchor="middle" x="460" y="-527.5" font-family="Helvetica,sans-Serif" font-size="10.00">File</text>
<polyline fill="none" stroke="#bfbfbf" points="444,-520.5 476,-520.5 "/>
<text text-anchor="middle" x="460" y="-508.5" font-family="Helvetica,sans-Serif" font-size="10.00"> </text>
<polyline fill="none" stroke="#bfbfbf" points="444,-501.5 476,-501.5 "/>
<text text-anchor="middle" x="460" y="-489.5" font-family="Helvetica,sans-Serif" font-size="10.00"> </text>
</g>
<!-- Node10&#45;&gt;Node8 -->
<g id="edge10" class="edge"><title>Node10&#45;&gt;Node8</title>
<path fill="none" stroke="#404040" d="M459.764,-482.323C460.704,-462.219 464.353,-434.976 476,-414 479.653,-407.421 484.123,-401.14 489.078,-395.216"/>
<polygon fill="none" stroke="#404040" points="489.171,-395.113 490.227,-387.979 497.218,-386.21 496.162,-393.344 489.171,-395.113"/>
<text text-anchor="middle" x="488.5" y="-433.5" font-family="Helvetica,sans-Serif" font-size="10.00"> &#45;file_</text>
</g>
<!-- Node11 -->
<g id="node11" class="node"><title>Node11</title>
<polygon fill="white" stroke="#bfbfbf" points="494.5,-482.5 494.5,-539.5 601.5,-539.5 601.5,-482.5 494.5,-482.5"/>
<text text-anchor="middle" x="548" y="-527.5" font-family="Helvetica,sans-Serif" font-size="10.00">ScheduledFuture&lt;?&gt;</text>
<polyline fill="none" stroke="#bfbfbf" points="494.5,-520.5 601.5,-520.5 "/>
<text text-anchor="middle" x="548" y="-508.5" font-family="Helvetica,sans-Serif" font-size="10.00"> </text>
<polyline fill="none" stroke="#bfbfbf" points="494.5,-501.5 601.5,-501.5 "/>
<text text-anchor="middle" x="548" y="-489.5" font-family="Helvetica,sans-Serif" font-size="10.00"> </text>
</g>
<!-- Node11&#45;&gt;Node8 -->
<g id="edge11" class="edge"><title>Node11&#45;&gt;Node8</title>
<path fill="none" stroke="#404040" d="M522.295,-482.48C516.856,-475.062 511.891,-466.672 509,-458 502.816,-439.448 503.189,-432.672 509,-414 509.81,-411.398 510.747,-408.806 511.79,-406.235"/>
<polygon fill="none" stroke="#404040" points="511.896,-406.006 510.811,-398.877 516.974,-395.134 518.059,-402.262 511.896,-406.006"/>
<text text-anchor="middle" x="549.5" y="-433.5" font-family="Helvetica,sans-Serif" font-size="10.00"> &#45;fileCheckFuture_</text>
</g>
<!-- Node12 -->
<g id="node12" class="node"><title>Node12</title>
<polygon fill="white" stroke="#bfbfbf" points="619.5,-482.5 619.5,-539.5 654.5,-539.5 654.5,-482.5 619.5,-482.5"/>
<text text-anchor="middle" x="637" y="-527.5" font-family="Helvetica,sans-Serif" font-size="10.00">long</text>
<polyline fill="none" stroke="#bfbfbf" points="619.5,-520.5 654.5,-520.5 "/>
<text text-anchor="middle" x="637" y="-508.5" font-family="Helvetica,sans-Serif" font-size="10.00"> </text>
<polyline fill="none" stroke="#bfbfbf" points="619.5,-501.5 654.5,-501.5 "/>
<text text-anchor="middle" x="637" y="-489.5" font-family="Helvetica,sans-Serif" font-size="10.00"> </text>
</g>
<!-- Node12&#45;&gt;Node8 -->
<g id="edge12" class="edge"><title>Node12&#45;&gt;Node8</title>
<path fill="none" stroke="#404040" d="M624.243,-482.498C620.595,-474.596 616.626,-465.963 613,-458 605.439,-441.394 597.338,-423.442 589.802,-406.672"/>
<polygon fill="none" stroke="#404040" points="589.604,-406.229 583.497,-402.394 584.689,-395.282 590.796,-399.117 589.604,-406.229"/>
<text text-anchor="middle" x="687" y="-450" font-family="Helvetica,sans-Serif" font-size="10.00"> &#45;prevChange_</text>
<text text-anchor="start" x="613" y="-439" font-family="Helvetica,sans-Serif" font-size="10.00">~DEFAULT_CHECK_INTERVAL</text>
<text text-anchor="middle" x="687" y="-428" font-family="Helvetica,sans-Serif" font-size="10.00">_MS</text>
<text text-anchor="middle" x="687" y="-417" font-family="Helvetica,sans-Serif" font-size="10.00">&#45;checkIntervalMs_</text>
</g>
<!-- Node13 -->
<g id="node13" class="node"><title>Node13</title>
<polygon fill="white" stroke="#bfbfbf" points="758,-482.5 758,-539.5 808,-539.5 808,-482.5 758,-482.5"/>
<text text-anchor="middle" x="783" y="-527.5" font-family="Helvetica,sans-Serif" font-size="10.00">boolean</text>
<polyline fill="none" stroke="#bfbfbf" points="758,-520.5 808,-520.5 "/>
<text text-anchor="middle" x="783" y="-508.5" font-family="Helvetica,sans-Serif" font-size="10.00"> </text>
<polyline fill="none" stroke="#bfbfbf" points="758,-501.5 808,-501.5 "/>
<text text-anchor="middle" x="783" y="-489.5" font-family="Helvetica,sans-Serif" font-size="10.00"> </text>
</g>
<!-- Node13&#45;&gt;Node8 -->
<g id="edge13" class="edge"><title>Node13&#45;&gt;Node8</title>
<path fill="none" stroke="#404040" d="M783.44,-482.439C782.328,-461.33 777.492,-432.741 761,-414 729.002,-377.639 677.53,-359.122 634.685,-349.704"/>
<polygon fill="none" stroke="#404040" points="634.609,-349.688 627.928,-352.404 622.853,-347.281 629.533,-344.566 634.609,-349.688"/>
<text text-anchor="middle" x="819.5" y="-433.5" font-family="Helvetica,sans-Serif" font-size="10.00"> &#45;alreadyWarned_</text>
</g>
<!-- Node14 -->
<g id="node14" class="node"><title>Node14</title>
<polygon fill="white" stroke="#bfbfbf" points="870.5,-482.5 870.5,-539.5 953.5,-539.5 953.5,-482.5 870.5,-482.5"/>
<text text-anchor="middle" x="912" y="-527.5" font-family="Helvetica,sans-Serif" font-size="10.00">AtomicBoolean</text>
<polyline fill="none" stroke="#bfbfbf" points="870.5,-520.5 953.5,-520.5 "/>
<text text-anchor="middle" x="912" y="-508.5" font-family="Helvetica,sans-Serif" font-size="10.00"> </text>
<polyline fill="none" stroke="#bfbfbf" points="870.5,-501.5 953.5,-501.5 "/>
<text text-anchor="middle" x="912" y="-489.5" font-family="Helvetica,sans-Serif" font-size="10.00"> </text>
</g>
<!-- Node14&#45;&gt;Node1 -->
<g id="edge16" class="edge"><title>Node14&#45;&gt;Node1</title>
<path fill="none" stroke="#404040" d="M920.801,-482.398C923.066,-474.572 925.333,-466.003 927,-458 943.089,-380.771 921.742,-355.653 950,-282 962.193,-250.22 980.842,-218.598 1000.16,-190.685"/>
<polygon fill="none" stroke="#404040" points="1000.38,-190.378 1000.57,-183.169 1007.3,-180.575 1007.11,-187.784 1000.38,-190.378"/>
<text text-anchor="middle" x="971.5" y="-336.5" font-family="Helvetica,sans-Serif" font-size="10.00"> &#45;running_</text>
</g>
<!-- Node14&#45;&gt;Node8 -->
<g id="edge14" class="edge"><title>Node14&#45;&gt;Node8</title>
<path fill="none" stroke="#404040" d="M896.97,-482.237C892.754,-474.41 888.181,-465.88 884,-458 873.658,-438.508 878.363,-427.618 861,-414 796.06,-363.067 700.9,-346.602 635.035,-341.586"/>
<polygon fill="none" stroke="#404040" points="634.654,-341.56 628.398,-345.147 622.681,-340.753 628.937,-337.165 634.654,-341.56"/>
<text text-anchor="middle" x="905.5" y="-433.5" font-family="Helvetica,sans-Serif" font-size="10.00"> &#45;running_</text>
</g>
<!-- Node15 -->
<g id="node15" class="node"><title>Node15</title>
<polygon fill="white" stroke="#bfbfbf" points="1458,-305 1458,-373 1602,-373 1602,-305 1458,-305"/>
<text text-anchor="start" x="1466" y="-361" font-family="Helvetica,sans-Serif" font-size="10.00">AtomicReference&lt; Allocation</text>
<text text-anchor="middle" x="1530" y="-350" font-family="Helvetica,sans-Serif" font-size="10.00">Configuration &gt;</text>
<polyline fill="none" stroke="#bfbfbf" points="1458,-343 1602,-343 "/>
<text text-anchor="middle" x="1530" y="-331" font-family="Helvetica,sans-Serif" font-size="10.00"> </text>
<polyline fill="none" stroke="#bfbfbf" points="1458,-324 1602,-324 "/>
<text text-anchor="middle" x="1530" y="-312" font-family="Helvetica,sans-Serif" font-size="10.00"> </text>
</g>
<!-- Node15&#45;&gt;Node1 -->
<g id="edge15" class="edge"><title>Node15&#45;&gt;Node1</title>
<path fill="none" stroke="#404040" d="M1531.61,-304.759C1531.16,-275.501 1525.68,-233.672 1501,-208 1454.38,-159.504 1269.8,-124.503 1160.47,-107.536"/>
<polygon fill="none" stroke="#404040" points="1160.36,-107.52 1153.83,-110.566 1148.5,-105.705 1155.04,-102.659 1160.36,-107.52"/>
<text text-anchor="middle" x="1565" y="-233.5" font-family="Helvetica,sans-Serif" font-size="10.00"> &#45;allocationConf_</text>
</g>
<!-- Node16 -->
<g id="node16" class="node"><title>Node16</title>
<polygon fill="white" stroke="#bfbfbf" points="1620,-310.5 1620,-367.5 1706,-367.5 1706,-310.5 1620,-310.5"/>
<text text-anchor="middle" x="1663" y="-355.5" font-family="Helvetica,sans-Serif" font-size="10.00">TBinaryProtocol</text>
<polyline fill="none" stroke="#bfbfbf" points="1620,-348.5 1706,-348.5 "/>
<text text-anchor="middle" x="1663" y="-336.5" font-family="Helvetica,sans-Serif" font-size="10.00"> </text>
<polyline fill="none" stroke="#bfbfbf" points="1620,-329.5 1706,-329.5 "/>
<text text-anchor="middle" x="1663" y="-317.5" font-family="Helvetica,sans-Serif" font-size="10.00"> </text>
</g>
<!-- Node16&#45;&gt;Node1 -->
<g id="edge17" class="edge"><title>Node16&#45;&gt;Node1</title>
<path fill="none" stroke="#404040" d="M1658.52,-310.401C1652.19,-280.539 1637.63,-233.75 1606,-208 1538.68,-153.194 1292.25,-119.054 1161.22,-104.373"/>
<polygon fill="none" stroke="#404040" points="1160.84,-104.331 1154.44,-107.648 1148.91,-103.013 1155.31,-99.6961 1160.84,-104.331"/>
<text text-anchor="middle" x="1683.5" y="-233.5" font-family="Helvetica,sans-Serif" font-size="10.00"> &#45;protocolFactory_</text>
</g>
</g>
</svg>
        <g id="navigator" transform="translate(0 0)" fill="#404254">
                <rect fill="#f2f5e9" fill-opacity="0.5" stroke="#606060" stroke-width=".5" x="0" y="0" width="60" height="60"/>
                <use id="zoomplus" xlink:href="#zoomPlus" x="17" y="9" onmousedown="handleZoom(evt,'in')"/>
                <use id="zoomminus" xlink:href="#zoomMin" x="42" y="9" onmousedown="handleZoom(evt,'out')"/>
                <use id="reset" xlink:href="#resetDef" x="30" y="36" onmousedown="handleReset()"/>
                <g id="arrowUp" xlink:href="#dirArrow" transform="translate(30 24)" onmousedown="handlePan(0,-1)">
                  <use xlink:href="#rim" fill="#404040">
                        <set attributeName="fill" to="#808080" begin="arrowUp.mouseover" end="arrowUp.mouseout"/>
                  </use>
                  <path fill="none" stroke="white" stroke-width="1.5" d="M0,-3.0v7 M-2.5,-0.5L0,-3.0L2.5,-0.5"/>
                </g>
                <g id="arrowRight" xlink:href="#dirArrow" transform="rotate(90) translate(36 -43)" onmousedown="handlePan(1,0)">
                  <use xlink:href="#rim" fill="#404040">
                        <set attributeName="fill" to="#808080" begin="arrowRight.mouseover" end="arrowRight.mouseout"/>
                  </use>
                  <path fill="none" stroke="white" stroke-width="1.5" d="M0,-3.0v7 M-2.5,-0.5L0,-3.0L2.5,-0.5"/>
                </g>
                <g id="arrowDown" xlink:href="#dirArrow" transform="rotate(180) translate(-30 -48)" onmousedown="handlePan(0,1)">
                  <use xlink:href="#rim" fill="#404040">
                        <set attributeName="fill" to="#808080" begin="arrowDown.mouseover" end="arrowDown.mouseout"/>
                  </use>
                  <path fill="none" stroke="white" stroke-width="1.5" d="M0,-3.0v7 M-2.5,-0.5L0,-3.0L2.5,-0.5"/>
                </g>
                <g id="arrowLeft" xlink:href="#dirArrow" transform="rotate(270) translate(-36 17)" onmousedown="handlePan(-1,0)">
                  <use xlink:href="#rim" fill="#404040">
                        <set attributeName="fill" to="#808080" begin="arrowLeft.mouseover" end="arrowLeft.mouseout"/>
                  </use>
                  <path fill="none" stroke="white" stroke-width="1.5" d="M0,-3.0v7 M-2.5,-0.5L0,-3.0L2.5,-0.5"/>
                </g>
        </g>
        <svg viewBox="0 0 15 15" width="100%" height="30px" preserveAspectRatio="xMaxYMin meet">
         <g id="arrow_out" transform="scale(0.3 0.3)">
          <a xlink:href="classcom_1_1cloudera_1_1impala_1_1util_1_1RequestPoolService__coll__graph_org.svg" target="_base">
           <rect id="button" ry="5" rx="5" y="6" x="6" height="38" width="38"
                fill="#f2f5e9" fill-opacity="0.5" stroke="#606060" stroke-width="1.0"/>
           <path id="arrow"
             d="M 11.500037,31.436501 C 11.940474,20.09759 22.043105,11.32322 32.158766,21.979434 L 37.068811,17.246167 C 37.068811,17.246167 37.088388,32 37.088388,32 L 22.160133,31.978069 C 22.160133,31.978069 26.997745,27.140456 26.997745,27.140456 C 18.528582,18.264221 13.291696,25.230495 11.500037,31.436501 z"
             style="fill:#404040;"/>
          </a>
         </g>
        </svg>
</svg>
