<?xml version="1.0" encoding="UTF-8" standalone="no"?>
<!DOCTYPE svg PUBLIC "-//W3C//DTD SVG 1.1//EN"
 "http://www.w3.org/Graphics/SVG/1.1/DTD/svg11.dtd">
<!-- Generated by graphviz version 2.36.0 (20140111.2315)
 -->
<!-- Title: com.cloudera.impala.service.JniFrontend.CdhVersion Pages: 1 -->
<svg width="200pt" height="216pt"
 viewBox="0.00 0.00 200.00 216.00" xmlns="http://www.w3.org/2000/svg" xmlns:xlink="http://www.w3.org/1999/xlink">
<g id="graph0" class="graph" transform="scale(1 1) rotate(0) translate(4 212)">
<title>com.cloudera.impala.service.JniFrontend.CdhVersion</title>
<polygon fill="white" stroke="none" points="-4,4 -4,-212 196,-212 196,4 -4,4"/>
<!-- Node1 -->
<g id="node1" class="node"><title>Node1</title>
<polygon fill="#bfbfbf" stroke="black" points="48,-1 48,-91 192,-91 192,-1 48,-1"/>
<text text-anchor="start" x="56" y="-79" font-family="Helvetica,sans-Serif" font-size="10.00">com.cloudera.impala.service.</text>
<text text-anchor="middle" x="120" y="-68" font-family="Helvetica,sans-Serif" font-size="10.00">JniFrontend.CdhVersion</text>
<polyline fill="none" stroke="black" points="48,-61 192,-61 "/>
<text text-anchor="middle" x="120" y="-49" font-family="Helvetica,sans-Serif" font-size="10.00"> </text>
<polyline fill="none" stroke="black" points="48,-42 192,-42 "/>
<text text-anchor="start" x="56" y="-30" font-family="Helvetica,sans-Serif" font-size="10.00">+ CdhVersion()</text>
<text text-anchor="start" x="56" y="-19" font-family="Helvetica,sans-Serif" font-size="10.00">+ compareTo()</text>
<text text-anchor="start" x="56" y="-8" font-family="Helvetica,sans-Serif" font-size="10.00">+ toString()</text>
</g>
<!-- Node2 -->
<g id="node2" class="node"><title>Node2</title>
<g id="a_node2"><a xlink:href="classComparable.html" target="_top" xlink:title="{Comparable\&lt; CdhVersion \&gt;\n||}">
<polygon fill="white" stroke="black" points="0,-150.5 0,-207.5 138,-207.5 138,-150.5 0,-150.5"/>
<text text-anchor="middle" x="69" y="-195.5" font-family="Helvetica,sans-Serif" font-size="10.00">Comparable&lt; CdhVersion &gt;</text>
<polyline fill="none" stroke="black" points="0,-188.5 138,-188.5 "/>
<text text-anchor="middle" x="69" y="-176.5" font-family="Helvetica,sans-Serif" font-size="10.00"> </text>
<polyline fill="none" stroke="black" points="0,-169.5 138,-169.5 "/>
<text text-anchor="middle" x="69" y="-157.5" font-family="Helvetica,sans-Serif" font-size="10.00"> </text>
</a>
</g>
</g>
<!-- Node2&#45;&gt;Node1 -->
<g id="edge1" class="edge"><title>Node2&#45;&gt;Node1</title>
<path fill="none" stroke="midnightblue" d="M83.5881,-140.529C89.5726,-125.157 96.5455,-107.246 102.778,-91.2365"/>
<polygon fill="none" stroke="midnightblue" points="80.1822,-139.63 79.8158,-150.218 86.7053,-142.169 80.1822,-139.63"/>
</g>
<!-- Node3 -->
<g id="node3" class="node"><title>Node3</title>
<polygon fill="white" stroke="#bfbfbf" points="156.5,-150.5 156.5,-207.5 185.5,-207.5 185.5,-150.5 156.5,-150.5"/>
<text text-anchor="middle" x="171" y="-195.5" font-family="Helvetica,sans-Serif" font-size="10.00">int</text>
<polyline fill="none" stroke="#bfbfbf" points="156.5,-188.5 185.5,-188.5 "/>
<text text-anchor="middle" x="171" y="-176.5" font-family="Helvetica,sans-Serif" font-size="10.00"> </text>
<polyline fill="none" stroke="#bfbfbf" points="156.5,-169.5 185.5,-169.5 "/>
<text text-anchor="middle" x="171" y="-157.5" font-family="Helvetica,sans-Serif" font-size="10.00"> </text>
</g>
<!-- Node3&#45;&gt;Node1 -->
<g id="edge2" class="edge"><title>Node3&#45;&gt;Node1</title>
<path fill="none" stroke="#404040" d="M160.184,-150.218C154.768,-136.305 148.01,-118.947 141.591,-102.459"/>
<polygon fill="none" stroke="#404040" points="141.575,-102.419 135.671,-98.2789 137.222,-91.2365 143.126,-95.3765 141.575,-102.419"/>
<text text-anchor="middle" x="169.5" y="-124" font-family="Helvetica,sans-Serif" font-size="10.00"> &#45;minor</text>
<text text-anchor="middle" x="169.5" y="-113" font-family="Helvetica,sans-Serif" font-size="10.00">&#45;major</text>
</g>
</g>
</svg>
