<?xml version="1.0" encoding="UTF-8" standalone="no"?>
<!DOCTYPE svg PUBLIC "-//W3C//DTD SVG 1.1//EN"
 "http://www.w3.org/Graphics/SVG/1.1/DTD/svg11.dtd">
<!-- Generated by graphviz version 2.36.0 (20140111.2315)
 -->
<!-- Title: impala::StringSearchSSE Pages: 1 -->
<svg width="332pt" height="488pt"
 viewBox="0.00 0.00 331.51 488.00" xmlns="http://www.w3.org/2000/svg" xmlns:xlink="http://www.w3.org/1999/xlink">
<g id="graph0" class="graph" transform="scale(1 1) rotate(0) translate(4 484)">
<title>impala::StringSearchSSE</title>
<polygon fill="white" stroke="none" points="-4,4 -4,-484 327.507,-484 327.507,4 -4,4"/>
<!-- Node1 -->
<g id="node1" class="node"><title>Node1</title>
<polygon fill="#bfbfbf" stroke="black" points="94.5071,-1 94.5071,-91 222.507,-91 222.507,-1 94.5071,-1"/>
<text text-anchor="middle" x="158.507" y="-79" font-family="Helvetica,sans-Serif" font-size="10.00">impala::StringSearchSSE</text>
<polyline fill="none" stroke="black" points="94.5071,-72 222.507,-72 "/>
<text text-anchor="middle" x="158.507" y="-60" font-family="Helvetica,sans-Serif" font-size="10.00"> </text>
<polyline fill="none" stroke="black" points="94.5071,-53 222.507,-53 "/>
<text text-anchor="start" x="102.507" y="-41" font-family="Helvetica,sans-Serif" font-size="10.00">+ StringSearchSSE()</text>
<text text-anchor="start" x="102.507" y="-30" font-family="Helvetica,sans-Serif" font-size="10.00">+ StringSearchSSE()</text>
<text text-anchor="start" x="102.507" y="-19" font-family="Helvetica,sans-Serif" font-size="10.00">+ StringSearchSSE()</text>
<text text-anchor="start" x="102.507" y="-8" font-family="Helvetica,sans-Serif" font-size="10.00">+ Search()</text>
</g>
<!-- Node2 -->
<g id="node2" class="node"><title>Node2</title>
<polygon fill="white" stroke="#bfbfbf" points="25.0071,-422.5 25.0071,-479.5 60.0071,-479.5 60.0071,-422.5 25.0071,-422.5"/>
<text text-anchor="middle" x="42.5071" y="-467.5" font-family="Helvetica,sans-Serif" font-size="10.00">char</text>
<polyline fill="none" stroke="#bfbfbf" points="25.0071,-460.5 60.0071,-460.5 "/>
<text text-anchor="middle" x="42.5071" y="-448.5" font-family="Helvetica,sans-Serif" font-size="10.00"> </text>
<polyline fill="none" stroke="#bfbfbf" points="25.0071,-441.5 60.0071,-441.5 "/>
<text text-anchor="middle" x="42.5071" y="-429.5" font-family="Helvetica,sans-Serif" font-size="10.00"> </text>
</g>
<!-- Node2&#45;&gt;Node1 -->
<g id="edge1" class="edge"><title>Node2&#45;&gt;Node1</title>
<path fill="none" stroke="#404040" d="M31.9318,-422.324C12.0968,-365.602 -24.4777,-233.623 24.5071,-140 37.5437,-115.084 60.6297,-95.5037 84.007,-80.8695"/>
<polygon fill="none" stroke="#404040" points="84.0625,-80.8364 87.1709,-74.3296 94.3727,-74.6963 91.2643,-81.2031 84.0625,-80.8364"/>
<text text-anchor="middle" x="55.5071" y="-249.5" font-family="Helvetica,sans-Serif" font-size="10.00"> &#45;needle_cstr_</text>
</g>
<!-- Node3 -->
<g id="node3" class="node"><title>Node3</title>
<g id="a_node3"><a xlink:href="structimpala_1_1StringValue.html" target="_top" xlink:title="{impala::StringValue\n||+ StringValue()\l+ StringValue()\l+ StringValue()\l+ StringValue()\l+ Compare()\l+ Eq()\l+ operator==()\l+ Ne()\l+ operator!=()\l+ Le()\land 12 more...\l+ FromStringVal()\l+ PadWithSpaces()\l+ UnpaddedCharLength()\l+ CharSlotToPtr()\l+ CharSlotToPtr()\l}">
<polygon fill="white" stroke="black" points="95.5071,-141 95.5071,-363 221.507,-363 221.507,-141 95.5071,-141"/>
<text text-anchor="middle" x="158.507" y="-351" font-family="Helvetica,sans-Serif" font-size="10.00">impala::StringValue</text>
<polyline fill="none" stroke="black" points="95.5071,-344 221.507,-344 "/>
<text text-anchor="middle" x="158.507" y="-332" font-family="Helvetica,sans-Serif" font-size="10.00"> </text>
<polyline fill="none" stroke="black" points="95.5071,-325 221.507,-325 "/>
<text text-anchor="start" x="103.507" y="-313" font-family="Helvetica,sans-Serif" font-size="10.00">+ StringValue()</text>
<text text-anchor="start" x="103.507" y="-302" font-family="Helvetica,sans-Serif" font-size="10.00">+ StringValue()</text>
<text text-anchor="start" x="103.507" y="-291" font-family="Helvetica,sans-Serif" font-size="10.00">+ StringValue()</text>
<text text-anchor="start" x="103.507" y="-280" font-family="Helvetica,sans-Serif" font-size="10.00">+ StringValue()</text>
<text text-anchor="start" x="103.507" y="-269" font-family="Helvetica,sans-Serif" font-size="10.00">+ Compare()</text>
<text text-anchor="start" x="103.507" y="-258" font-family="Helvetica,sans-Serif" font-size="10.00">+ Eq()</text>
<text text-anchor="start" x="103.507" y="-247" font-family="Helvetica,sans-Serif" font-size="10.00">+ operator==()</text>
<text text-anchor="start" x="103.507" y="-236" font-family="Helvetica,sans-Serif" font-size="10.00">+ Ne()</text>
<text text-anchor="start" x="103.507" y="-225" font-family="Helvetica,sans-Serif" font-size="10.00">+ operator!=()</text>
<text text-anchor="start" x="103.507" y="-214" font-family="Helvetica,sans-Serif" font-size="10.00">+ Le()</text>
<text text-anchor="start" x="103.507" y="-203" font-family="Helvetica,sans-Serif" font-size="10.00">and 12 more...</text>
<text text-anchor="start" x="103.507" y="-192" font-family="Helvetica,sans-Serif" font-size="10.00">+ FromStringVal()</text>
<text text-anchor="start" x="103.507" y="-181" font-family="Helvetica,sans-Serif" font-size="10.00">+ PadWithSpaces()</text>
<text text-anchor="start" x="103.507" y="-170" font-family="Helvetica,sans-Serif" font-size="10.00">+ UnpaddedCharLength()</text>
<text text-anchor="start" x="103.507" y="-159" font-family="Helvetica,sans-Serif" font-size="10.00">+ CharSlotToPtr()</text>
<text text-anchor="start" x="103.507" y="-148" font-family="Helvetica,sans-Serif" font-size="10.00">+ CharSlotToPtr()</text>
</a>
</g>
</g>
<!-- Node2&#45;&gt;Node3 -->
<g id="edge3" class="edge"><title>Node2&#45;&gt;Node3</title>
<path fill="none" stroke="#404040" d="M58.8811,-422.193C67.1923,-408.078 77.9138,-389.87 89.2311,-370.65"/>
<polygon fill="none" stroke="#404040" points="89.2914,-370.547 88.889,-363.347 95.3802,-360.207 95.7826,-367.407 89.2914,-370.547"/>
<text text-anchor="middle" x="134.507" y="-396" font-family="Helvetica,sans-Serif" font-size="10.00"> +LLVM_CLASS_NAME</text>
<text text-anchor="middle" x="134.507" y="-385" font-family="Helvetica,sans-Serif" font-size="10.00">+ptr</text>
</g>
<!-- Node3&#45;&gt;Node1 -->
<g id="edge2" class="edge"><title>Node3&#45;&gt;Node1</title>
<path fill="none" stroke="#404040" d="M158.507,-140.939C158.507,-128.086 158.507,-115.406 158.507,-103.72"/>
<polygon fill="none" stroke="#404040" points="158.507,-103.468 154.507,-97.4684 158.507,-91.4684 162.507,-97.4684 158.507,-103.468"/>
<text text-anchor="middle" x="196.007" y="-113.5" font-family="Helvetica,sans-Serif" font-size="10.00"> &#45;needle_str_val_</text>
</g>
<!-- Node4 -->
<g id="node4" class="node"><title>Node4</title>
<polygon fill="white" stroke="#bfbfbf" points="219.007,-422.5 219.007,-479.5 248.007,-479.5 248.007,-422.5 219.007,-422.5"/>
<text text-anchor="middle" x="233.507" y="-467.5" font-family="Helvetica,sans-Serif" font-size="10.00">int</text>
<polyline fill="none" stroke="#bfbfbf" points="219.007,-460.5 248.007,-460.5 "/>
<text text-anchor="middle" x="233.507" y="-448.5" font-family="Helvetica,sans-Serif" font-size="10.00"> </text>
<polyline fill="none" stroke="#bfbfbf" points="219.007,-441.5 248.007,-441.5 "/>
<text text-anchor="middle" x="233.507" y="-429.5" font-family="Helvetica,sans-Serif" font-size="10.00"> </text>
</g>
<!-- Node4&#45;&gt;Node1 -->
<g id="edge5" class="edge"><title>Node4&#45;&gt;Node1</title>
<path fill="none" stroke="#404040" d="M241.805,-422.183C258.203,-361.718 288.93,-215.292 237.507,-110 235.503,-105.897 233.09,-101.976 230.371,-98.2445"/>
<polygon fill="none" stroke="#404040" points="230.201,-98.0397 223.29,-95.9804 222.533,-88.8092 229.444,-90.8685 230.201,-98.0397"/>
<text text-anchor="middle" x="294.507" y="-249.5" font-family="Helvetica,sans-Serif" font-size="10.00"> &#45;needle_len_</text>
</g>
<!-- Node4&#45;&gt;Node3 -->
<g id="edge4" class="edge"><title>Node4&#45;&gt;Node3</title>
<path fill="none" stroke="#404040" d="M222.921,-422.193C217.928,-409.08 211.591,-392.435 204.85,-374.727"/>
<polygon fill="none" stroke="#404040" points="204.76,-374.492 198.887,-370.308 200.491,-363.277 206.364,-367.461 204.76,-374.492"/>
<text text-anchor="middle" x="225.507" y="-390.5" font-family="Helvetica,sans-Serif" font-size="10.00"> +len</text>
</g>
</g>
</svg>
