<?xml version="1.0" encoding="UTF-8" standalone="no"?>
<!DOCTYPE svg PUBLIC "-//W3C//DTD SVG 1.1//EN"
 "http://www.w3.org/Graphics/SVG/1.1/DTD/svg11.dtd">
<!-- Generated by graphviz version 2.36.0 (20140111.2315)
 -->
<!-- Title: com.cloudera.impala.analysis.ResetMetadataStmt Pages: 1 -->
<svg width="420pt" height="520pt"
 viewBox="0.00 0.00 420.00 520.00" xmlns="http://www.w3.org/2000/svg" xmlns:xlink="http://www.w3.org/1999/xlink">
<g id="graph0" class="graph" transform="scale(1 1) rotate(0) translate(4 516)">
<title>com.cloudera.impala.analysis.ResetMetadataStmt</title>
<polygon fill="white" stroke="none" points="-4,4 -4,-516 416,-516 416,4 -4,4"/>
<!-- Node1 -->
<g id="node1" class="node"><title>Node1</title>
<polygon fill="#bfbfbf" stroke="black" points="116.5,-0.5 116.5,-123.5 265.5,-123.5 265.5,-0.5 116.5,-0.5"/>
<text text-anchor="start" x="124.5" y="-111.5" font-family="Helvetica,sans-Serif" font-size="10.00">com.cloudera.impala.analysis.</text>
<text text-anchor="middle" x="191" y="-100.5" font-family="Helvetica,sans-Serif" font-size="10.00">ResetMetadataStmt</text>
<polyline fill="none" stroke="black" points="116.5,-93.5 265.5,-93.5 "/>
<text text-anchor="middle" x="191" y="-81.5" font-family="Helvetica,sans-Serif" font-size="10.00"> </text>
<polyline fill="none" stroke="black" points="116.5,-74.5 265.5,-74.5 "/>
<text text-anchor="start" x="124.5" y="-62.5" font-family="Helvetica,sans-Serif" font-size="10.00">+ ResetMetadataStmt()</text>
<text text-anchor="start" x="124.5" y="-51.5" font-family="Helvetica,sans-Serif" font-size="10.00">+ getTableName()</text>
<text text-anchor="start" x="124.5" y="-40.5" font-family="Helvetica,sans-Serif" font-size="10.00">+ isRefresh()</text>
<text text-anchor="start" x="124.5" y="-29.5" font-family="Helvetica,sans-Serif" font-size="10.00">+ analyze()</text>
<text text-anchor="start" x="124.5" y="-18.5" font-family="Helvetica,sans-Serif" font-size="10.00">+ toSql()</text>
<text text-anchor="start" x="124.5" y="-7.5" font-family="Helvetica,sans-Serif" font-size="10.00">+ toThrift()</text>
</g>
<!-- Node2 -->
<g id="node2" class="node"><title>Node2</title>
<g id="a_node2"><a xlink:href="classcom_1_1cloudera_1_1impala_1_1analysis_1_1StatementBase.html" target="_top" xlink:title="{com.cloudera.impala.analysis.\lStatementBase\n||+ analyze()\l+ toSql()\l+ setIsExplain()\l+ isExplain()\l}">
<polygon fill="white" stroke="black" points="6.5,-222.5 6.5,-323.5 155.5,-323.5 155.5,-222.5 6.5,-222.5"/>
<text text-anchor="start" x="14.5" y="-311.5" font-family="Helvetica,sans-Serif" font-size="10.00">com.cloudera.impala.analysis.</text>
<text text-anchor="middle" x="81" y="-300.5" font-family="Helvetica,sans-Serif" font-size="10.00">StatementBase</text>
<polyline fill="none" stroke="black" points="6.5,-293.5 155.5,-293.5 "/>
<text text-anchor="middle" x="81" y="-281.5" font-family="Helvetica,sans-Serif" font-size="10.00"> </text>
<polyline fill="none" stroke="black" points="6.5,-274.5 155.5,-274.5 "/>
<text text-anchor="start" x="14.5" y="-262.5" font-family="Helvetica,sans-Serif" font-size="10.00">+ analyze()</text>
<text text-anchor="start" x="14.5" y="-251.5" font-family="Helvetica,sans-Serif" font-size="10.00">+ toSql()</text>
<text text-anchor="start" x="14.5" y="-240.5" font-family="Helvetica,sans-Serif" font-size="10.00">+ setIsExplain()</text>
<text text-anchor="start" x="14.5" y="-229.5" font-family="Helvetica,sans-Serif" font-size="10.00">+ isExplain()</text>
</a>
</g>
</g>
<!-- Node2&#45;&gt;Node1 -->
<g id="edge1" class="edge"><title>Node2&#45;&gt;Node1</title>
<path fill="none" stroke="midnightblue" d="M111.745,-213.584C126.486,-185.577 144.133,-152.047 159.03,-123.743"/>
<polygon fill="none" stroke="midnightblue" points="108.629,-211.991 107.068,-222.47 114.823,-215.251 108.629,-211.991"/>
</g>
<!-- Node3 -->
<g id="node3" class="node"><title>Node3</title>
<g id="a_node3"><a xlink:href="interfacecom_1_1cloudera_1_1impala_1_1analysis_1_1ParseNode.html" target="_top" xlink:title="{com.cloudera.impala.analysis.\lParseNode\n||+ analyze()\l+ toSql()\l}">
<polygon fill="white" stroke="black" points="-0.5,-432.5 -0.5,-511.5 148.5,-511.5 148.5,-432.5 -0.5,-432.5"/>
<text text-anchor="start" x="7.5" y="-499.5" font-family="Helvetica,sans-Serif" font-size="10.00">com.cloudera.impala.analysis.</text>
<text text-anchor="middle" x="74" y="-488.5" font-family="Helvetica,sans-Serif" font-size="10.00">ParseNode</text>
<polyline fill="none" stroke="black" points="-0.5,-481.5 148.5,-481.5 "/>
<text text-anchor="middle" x="74" y="-469.5" font-family="Helvetica,sans-Serif" font-size="10.00"> </text>
<polyline fill="none" stroke="black" points="-0.5,-462.5 148.5,-462.5 "/>
<text text-anchor="start" x="7.5" y="-450.5" font-family="Helvetica,sans-Serif" font-size="10.00">+ analyze()</text>
<text text-anchor="start" x="7.5" y="-439.5" font-family="Helvetica,sans-Serif" font-size="10.00">+ toSql()</text>
</a>
</g>
</g>
<!-- Node3&#45;&gt;Node2 -->
<g id="edge2" class="edge"><title>Node3&#45;&gt;Node2</title>
<path fill="none" stroke="midnightblue" d="M75.7462,-421.856C76.8104,-391.909 78.1661,-353.754 79.2338,-323.705"/>
<polygon fill="none" stroke="midnightblue" points="72.2404,-421.961 75.383,-432.079 79.236,-422.21 72.2404,-421.961"/>
</g>
<!-- Node4 -->
<g id="node4" class="node"><title>Node4</title>
<polygon fill="white" stroke="#bfbfbf" points="166,-443.5 166,-500.5 216,-500.5 216,-443.5 166,-443.5"/>
<text text-anchor="middle" x="191" y="-488.5" font-family="Helvetica,sans-Serif" font-size="10.00">boolean</text>
<polyline fill="none" stroke="#bfbfbf" points="166,-481.5 216,-481.5 "/>
<text text-anchor="middle" x="191" y="-469.5" font-family="Helvetica,sans-Serif" font-size="10.00"> </text>
<polyline fill="none" stroke="#bfbfbf" points="166,-462.5 216,-462.5 "/>
<text text-anchor="middle" x="191" y="-450.5" font-family="Helvetica,sans-Serif" font-size="10.00"> </text>
</g>
<!-- Node4&#45;&gt;Node1 -->
<g id="edge6" class="edge"><title>Node4&#45;&gt;Node1</title>
<path fill="none" stroke="#404040" d="M191,-443.277C191,-380.861 191,-227.61 191,-135.84"/>
<polygon fill="none" stroke="#404040" points="191,-135.59 187,-129.59 191,-123.59 195,-129.59 191,-135.59"/>
<text text-anchor="middle" x="218" y="-270.5" font-family="Helvetica,sans-Serif" font-size="10.00"> &#45;isRefresh_</text>
</g>
<!-- Node4&#45;&gt;Node2 -->
<g id="edge3" class="edge"><title>Node4&#45;&gt;Node2</title>
<path fill="none" stroke="#404040" d="M169.154,-443.311C165.335,-439.269 161.223,-435.348 157,-432 143.602,-421.378 133.853,-427.212 123,-414 104.772,-391.81 94.4521,-361.88 88.6108,-335.389"/>
<polygon fill="none" stroke="#404040" points="88.5863,-335.266 83.486,-330.169 86.2298,-323.5 91.3302,-328.598 88.5863,-335.266"/>
<text text-anchor="middle" x="150" y="-400.5" font-family="Helvetica,sans-Serif" font-size="10.00"> #isExplain_</text>
</g>
<!-- Node5 -->
<g id="node5" class="node"><title>Node5</title>
<g id="a_node5"><a xlink:href="classcom_1_1cloudera_1_1impala_1_1analysis_1_1TableName.html" target="_top" xlink:title="{com.cloudera.impala.analysis.\lTableName\n||+ TableName()\l+ getDb()\l+ getTbl()\l+ isEmpty()\l+ analyze()\l+ isFullyQualified()\l+ toSql()\l+ toString()\l+ toPath()\l+ toThrift()\l+ equals()\l+ hashCode()\l+ fromThrift()\l}">
<polygon fill="white" stroke="black" points="263.5,-173 263.5,-373 412.5,-373 412.5,-173 263.5,-173"/>
<text text-anchor="start" x="271.5" y="-361" font-family="Helvetica,sans-Serif" font-size="10.00">com.cloudera.impala.analysis.</text>
<text text-anchor="middle" x="338" y="-350" font-family="Helvetica,sans-Serif" font-size="10.00">TableName</text>
<polyline fill="none" stroke="black" points="263.5,-343 412.5,-343 "/>
<text text-anchor="middle" x="338" y="-331" font-family="Helvetica,sans-Serif" font-size="10.00"> </text>
<polyline fill="none" stroke="black" points="263.5,-324 412.5,-324 "/>
<text text-anchor="start" x="271.5" y="-312" font-family="Helvetica,sans-Serif" font-size="10.00">+ TableName()</text>
<text text-anchor="start" x="271.5" y="-301" font-family="Helvetica,sans-Serif" font-size="10.00">+ getDb()</text>
<text text-anchor="start" x="271.5" y="-290" font-family="Helvetica,sans-Serif" font-size="10.00">+ getTbl()</text>
<text text-anchor="start" x="271.5" y="-279" font-family="Helvetica,sans-Serif" font-size="10.00">+ isEmpty()</text>
<text text-anchor="start" x="271.5" y="-268" font-family="Helvetica,sans-Serif" font-size="10.00">+ analyze()</text>
<text text-anchor="start" x="271.5" y="-257" font-family="Helvetica,sans-Serif" font-size="10.00">+ isFullyQualified()</text>
<text text-anchor="start" x="271.5" y="-246" font-family="Helvetica,sans-Serif" font-size="10.00">+ toSql()</text>
<text text-anchor="start" x="271.5" y="-235" font-family="Helvetica,sans-Serif" font-size="10.00">+ toString()</text>
<text text-anchor="start" x="271.5" y="-224" font-family="Helvetica,sans-Serif" font-size="10.00">+ toPath()</text>
<text text-anchor="start" x="271.5" y="-213" font-family="Helvetica,sans-Serif" font-size="10.00">+ toThrift()</text>
<text text-anchor="start" x="271.5" y="-202" font-family="Helvetica,sans-Serif" font-size="10.00">+ equals()</text>
<text text-anchor="start" x="271.5" y="-191" font-family="Helvetica,sans-Serif" font-size="10.00">+ hashCode()</text>
<text text-anchor="start" x="271.5" y="-180" font-family="Helvetica,sans-Serif" font-size="10.00">+ fromThrift()</text>
</a>
</g>
</g>
<!-- Node5&#45;&gt;Node1 -->
<g id="edge4" class="edge"><title>Node5&#45;&gt;Node1</title>
<path fill="none" stroke="#404040" d="M268.159,-172.703C258.865,-159.489 249.493,-146.164 240.639,-133.575"/>
<polygon fill="none" stroke="#404040" points="240.564,-133.469 233.841,-130.863 233.661,-123.654 240.384,-126.26 240.564,-133.469"/>
<text text-anchor="middle" x="281.5" y="-145.5" font-family="Helvetica,sans-Serif" font-size="10.00"> &#45;tableName_</text>
</g>
<!-- Node6 -->
<g id="node6" class="node"><title>Node6</title>
<polygon fill="white" stroke="#bfbfbf" points="317,-443.5 317,-500.5 359,-500.5 359,-443.5 317,-443.5"/>
<text text-anchor="middle" x="338" y="-488.5" font-family="Helvetica,sans-Serif" font-size="10.00">String</text>
<polyline fill="none" stroke="#bfbfbf" points="317,-481.5 359,-481.5 "/>
<text text-anchor="middle" x="338" y="-469.5" font-family="Helvetica,sans-Serif" font-size="10.00"> </text>
<polyline fill="none" stroke="#bfbfbf" points="317,-462.5 359,-462.5 "/>
<text text-anchor="middle" x="338" y="-450.5" font-family="Helvetica,sans-Serif" font-size="10.00"> </text>
</g>
<!-- Node6&#45;&gt;Node5 -->
<g id="edge5" class="edge"><title>Node6&#45;&gt;Node5</title>
<path fill="none" stroke="#404040" d="M338,-443.193C338,-427.532 338,-406.833 338,-385.303"/>
<polygon fill="none" stroke="#404040" points="338,-385.283 334,-379.283 338,-373.283 342,-379.283 338,-385.283"/>
<text text-anchor="middle" x="349" y="-406" font-family="Helvetica,sans-Serif" font-size="10.00"> &#45;db_</text>
<text text-anchor="middle" x="349" y="-395" font-family="Helvetica,sans-Serif" font-size="10.00">&#45;tbl_</text>
</g>
</g>
</svg>
