<?xml version="1.0" encoding="UTF-8" standalone="no"?>
<!DOCTYPE svg PUBLIC "-//W3C//DTD SVG 1.1//EN"
 "http://www.w3.org/Graphics/SVG/1.1/DTD/svg11.dtd">
<!-- Generated by graphviz version 2.36.0 (20140111.2315)
 -->
<!-- Title: com.cloudera.impala.util.FileWatchService Pages: 1 -->
<!--zoomable 272 -->
<svg id="main" version="1.1" xmlns="http://www.w3.org/2000/svg" xmlns:xlink="http://www.w3.org/1999/xlink" xml:space="preserve" onload="init(evt)">
<style type="text/css"><![CDATA[
.edge:hover path { stroke: red; }
.edge:hover polygon { stroke: red; fill: red; }
]]></style>
<script type="text/javascript"><![CDATA[
var edges = document.getElementsByTagName('g');
if (edges && edges.length) {
  for (var i=0;i<edges.length;i++) {
    if (edges[i].id.substr(0,4)=='edge') {
      edges[i].setAttribute('class','edge');
    }
  }
}
]]></script>
        <defs>
                <circle id="rim" cx="0" cy="0" r="7"/>
                <circle id="rim2" cx="0" cy="0" r="3.5"/>
                <g id="zoomPlus">
                        <use xlink:href="#rim" fill="#404040">
                                <set attributeName="fill" to="#808080" begin="zoomplus.mouseover" end="zoomplus.mouseout"/>
                        </use>
                        <path d="M-4,0h8M0,-4v8" fill="none" stroke="white" stroke-width="1.5" pointer-events="none"/>
                </g>
                <g id="zoomMin">
                        <use xlink:href="#rim" fill="#404040">
                                <set attributeName="fill" to="#808080" begin="zoomminus.mouseover" end="zoomminus.mouseout"/>
                        </use>
                        <path d="M-4,0h8" fill="none" stroke="white" stroke-width="1.5" pointer-events="none"/>
                </g>
                <g id="dirArrow">
                        <path fill="none" stroke="white" stroke-width="1.5" d="M0,-3.0v7 M-2.5,-0.5L0,-3.0L2.5,-0.5"/>
                </g>
               <g id="resetDef">
                       <use xlink:href="#rim2" fill="#404040">
                               <set attributeName="fill" to="#808080" begin="reset.mouseover" end="reset.mouseout"/>
                       </use>
               </g>
        </defs>

<script type="text/javascript">
var viewWidth = 777;
var viewHeight = 272;
var sectionId = 'dynsection-0';
</script>
<script xlink:href="svgpan.js"/>
<svg id="graph" class="graph">
<g id="viewport">
<title>com.cloudera.impala.util.FileWatchService</title>
<polygon fill="white" stroke="none" points="-4,4 -4,-268 773,-268 773,4 -4,4"/>
<!-- Node1 -->
<g id="node1" class="node"><title>Node1</title>
<polygon fill="#bfbfbf" stroke="black" points="290.5,-1 290.5,-113 415.5,-113 415.5,-1 290.5,-1"/>
<text text-anchor="start" x="298.5" y="-101" font-family="Helvetica,sans-Serif" font-size="10.00">com.cloudera.impala.util.</text>
<text text-anchor="middle" x="353" y="-90" font-family="Helvetica,sans-Serif" font-size="10.00">FileWatchService</text>
<polyline fill="none" stroke="black" points="290.5,-83 415.5,-83 "/>
<text text-anchor="middle" x="353" y="-71" font-family="Helvetica,sans-Serif" font-size="10.00"> </text>
<polyline fill="none" stroke="black" points="290.5,-64 415.5,-64 "/>
<text text-anchor="start" x="298.5" y="-52" font-family="Helvetica,sans-Serif" font-size="10.00">+ FileWatchService()</text>
<text text-anchor="start" x="298.5" y="-41" font-family="Helvetica,sans-Serif" font-size="10.00">+ setCheckIntervalMs()</text>
<text text-anchor="start" x="298.5" y="-30" font-family="Helvetica,sans-Serif" font-size="10.00">+ start()</text>
<text text-anchor="start" x="298.5" y="-19" font-family="Helvetica,sans-Serif" font-size="10.00">+ stop()</text>
<text text-anchor="start" x="298.5" y="-8" font-family="Helvetica,sans-Serif" font-size="10.00">&#45; checkFile()</text>
</g>
<!-- Node2 -->
<g id="node2" class="node"><title>Node2</title>
<polygon fill="white" stroke="#bfbfbf" points="0,-200.5 0,-257.5 46,-257.5 46,-200.5 0,-200.5"/>
<text text-anchor="middle" x="23" y="-245.5" font-family="Helvetica,sans-Serif" font-size="10.00">Logger</text>
<polyline fill="none" stroke="#bfbfbf" points="0,-238.5 46,-238.5 "/>
<text text-anchor="middle" x="23" y="-226.5" font-family="Helvetica,sans-Serif" font-size="10.00"> </text>
<polyline fill="none" stroke="#bfbfbf" points="0,-219.5 46,-219.5 "/>
<text text-anchor="middle" x="23" y="-207.5" font-family="Helvetica,sans-Serif" font-size="10.00"> </text>
</g>
<!-- Node2&#45;&gt;Node1 -->
<g id="edge1" class="edge"><title>Node2&#45;&gt;Node1</title>
<path fill="none" stroke="#404040" d="M46.1147,-202.056C49.0076,-199.231 52.0047,-196.483 55,-194 121.665,-138.731 214.457,-101.094 278.708,-79.6682"/>
<polygon fill="none" stroke="#404040" points="278.955,-79.5874 283.414,-73.9198 290.36,-75.8556 285.902,-81.5232 278.955,-79.5874"/>
<text text-anchor="middle" x="160" y="-151.5" font-family="Helvetica,sans-Serif" font-size="10.00"> ~LOG</text>
</g>
<!-- Node3 -->
<g id="node3" class="node"><title>Node3</title>
<g id="a_node3"><a xlink:href="interfacecom_1_1cloudera_1_1impala_1_1util_1_1FileWatchService_1_1FileChangeListener.html" target="_top" xlink:title="{com.cloudera.impala.util.\lFileWatchService.FileChangeListener\n||+ onFileChange()\l}">
<polygon fill="white" stroke="black" points="64.5,-195 64.5,-263 245.5,-263 245.5,-195 64.5,-195"/>
<text text-anchor="start" x="72.5" y="-251" font-family="Helvetica,sans-Serif" font-size="10.00">com.cloudera.impala.util.</text>
<text text-anchor="middle" x="155" y="-240" font-family="Helvetica,sans-Serif" font-size="10.00">FileWatchService.FileChangeListener</text>
<polyline fill="none" stroke="black" points="64.5,-233 245.5,-233 "/>
<text text-anchor="middle" x="155" y="-221" font-family="Helvetica,sans-Serif" font-size="10.00"> </text>
<polyline fill="none" stroke="black" points="64.5,-214 245.5,-214 "/>
<text text-anchor="start" x="72.5" y="-202" font-family="Helvetica,sans-Serif" font-size="10.00">+ onFileChange()</text>
</a>
</g>
</g>
<!-- Node3&#45;&gt;Node1 -->
<g id="edge2" class="edge"><title>Node3&#45;&gt;Node1</title>
<path fill="none" stroke="#404040" d="M172.958,-194.952C184.956,-175.006 202.149,-150.047 222,-132 238.956,-116.584 259.676,-103.044 279.589,-91.9035"/>
<polygon fill="none" stroke="#404040" points="279.674,-91.8574 283.038,-85.4795 290.22,-86.1326 286.855,-92.5105 279.674,-91.8574"/>
<text text-anchor="middle" x="261" y="-151.5" font-family="Helvetica,sans-Serif" font-size="10.00"> &#45;changeListener_</text>
</g>
<!-- Node4 -->
<g id="node4" class="node"><title>Node4</title>
<polygon fill="white" stroke="#bfbfbf" points="264,-200.5 264,-257.5 296,-257.5 296,-200.5 264,-200.5"/>
<text text-anchor="middle" x="280" y="-245.5" font-family="Helvetica,sans-Serif" font-size="10.00">File</text>
<polyline fill="none" stroke="#bfbfbf" points="264,-238.5 296,-238.5 "/>
<text text-anchor="middle" x="280" y="-226.5" font-family="Helvetica,sans-Serif" font-size="10.00"> </text>
<polyline fill="none" stroke="#bfbfbf" points="264,-219.5 296,-219.5 "/>
<text text-anchor="middle" x="280" y="-207.5" font-family="Helvetica,sans-Serif" font-size="10.00"> </text>
</g>
<!-- Node4&#45;&gt;Node1 -->
<g id="edge3" class="edge"><title>Node4&#45;&gt;Node1</title>
<path fill="none" stroke="#404040" d="M291.891,-200.308C300.729,-179.727 313.17,-150.756 324.521,-124.32"/>
<polygon fill="none" stroke="#404040" points="324.571,-124.204 323.263,-117.113 329.306,-113.178 330.614,-120.269 324.571,-124.204"/>
<text text-anchor="middle" x="333.5" y="-151.5" font-family="Helvetica,sans-Serif" font-size="10.00"> &#45;file_</text>
</g>
<!-- Node5 -->
<g id="node5" class="node"><title>Node5</title>
<polygon fill="white" stroke="#bfbfbf" points="314.5,-200.5 314.5,-257.5 421.5,-257.5 421.5,-200.5 314.5,-200.5"/>
<text text-anchor="middle" x="368" y="-245.5" font-family="Helvetica,sans-Serif" font-size="10.00">ScheduledFuture&lt;?&gt;</text>
<polyline fill="none" stroke="#bfbfbf" points="314.5,-238.5 421.5,-238.5 "/>
<text text-anchor="middle" x="368" y="-226.5" font-family="Helvetica,sans-Serif" font-size="10.00"> </text>
<polyline fill="none" stroke="#bfbfbf" points="314.5,-219.5 421.5,-219.5 "/>
<text text-anchor="middle" x="368" y="-207.5" font-family="Helvetica,sans-Serif" font-size="10.00"> </text>
</g>
<!-- Node5&#45;&gt;Node1 -->
<g id="edge4" class="edge"><title>Node5&#45;&gt;Node1</title>
<path fill="none" stroke="#404040" d="M359.191,-200.472C357.07,-192.646 355.101,-184.059 354,-176 351.78,-159.744 350.851,-142.11 350.623,-125.553"/>
<polygon fill="none" stroke="#404040" points="350.621,-125.141 346.598,-119.156 350.575,-113.141 354.598,-119.125 350.621,-125.141"/>
<text text-anchor="middle" x="394.5" y="-151.5" font-family="Helvetica,sans-Serif" font-size="10.00"> &#45;fileCheckFuture_</text>
</g>
<!-- Node6 -->
<g id="node6" class="node"><title>Node6</title>
<polygon fill="white" stroke="#bfbfbf" points="439.5,-200.5 439.5,-257.5 474.5,-257.5 474.5,-200.5 439.5,-200.5"/>
<text text-anchor="middle" x="457" y="-245.5" font-family="Helvetica,sans-Serif" font-size="10.00">long</text>
<polyline fill="none" stroke="#bfbfbf" points="439.5,-238.5 474.5,-238.5 "/>
<text text-anchor="middle" x="457" y="-226.5" font-family="Helvetica,sans-Serif" font-size="10.00"> </text>
<polyline fill="none" stroke="#bfbfbf" points="439.5,-219.5 474.5,-219.5 "/>
<text text-anchor="middle" x="457" y="-207.5" font-family="Helvetica,sans-Serif" font-size="10.00"> </text>
</g>
<!-- Node6&#45;&gt;Node1 -->
<g id="edge5" class="edge"><title>Node6&#45;&gt;Node1</title>
<path fill="none" stroke="#404040" d="M455.112,-200.299C452.719,-180.184 447.294,-152.937 435,-132 431.805,-126.559 428.076,-121.294 424.004,-116.249"/>
<polygon fill="none" stroke="#404040" points="423.683,-115.88 416.725,-113.984 415.8,-106.832 422.757,-108.729 423.683,-115.88"/>
<text text-anchor="middle" x="525" y="-168" font-family="Helvetica,sans-Serif" font-size="10.00"> &#45;prevChange_</text>
<text text-anchor="start" x="451" y="-157" font-family="Helvetica,sans-Serif" font-size="10.00">~DEFAULT_CHECK_INTERVAL</text>
<text text-anchor="middle" x="525" y="-146" font-family="Helvetica,sans-Serif" font-size="10.00">_MS</text>
<text text-anchor="middle" x="525" y="-135" font-family="Helvetica,sans-Serif" font-size="10.00">&#45;checkIntervalMs_</text>
</g>
<!-- Node7 -->
<g id="node7" class="node"><title>Node7</title>
<polygon fill="white" stroke="#bfbfbf" points="603,-200.5 603,-257.5 653,-257.5 653,-200.5 603,-200.5"/>
<text text-anchor="middle" x="628" y="-245.5" font-family="Helvetica,sans-Serif" font-size="10.00">boolean</text>
<polyline fill="none" stroke="#bfbfbf" points="603,-238.5 653,-238.5 "/>
<text text-anchor="middle" x="628" y="-226.5" font-family="Helvetica,sans-Serif" font-size="10.00"> </text>
<polyline fill="none" stroke="#bfbfbf" points="603,-219.5 653,-219.5 "/>
<text text-anchor="middle" x="628" y="-207.5" font-family="Helvetica,sans-Serif" font-size="10.00"> </text>
</g>
<!-- Node7&#45;&gt;Node1 -->
<g id="edge6" class="edge"><title>Node7&#45;&gt;Node1</title>
<path fill="none" stroke="#404040" d="M627.804,-200.068C626.157,-178.755 620.484,-150.071 603,-132 557.404,-84.8726 483.353,-67.386 427.654,-61.085"/>
<polygon fill="none" stroke="#404040" points="427.647,-61.0843 421.273,-64.4574 415.708,-59.8714 422.082,-56.4983 427.647,-61.0843"/>
<text text-anchor="middle" x="662.5" y="-151.5" font-family="Helvetica,sans-Serif" font-size="10.00"> &#45;alreadyWarned_</text>
</g>
<!-- Node8 -->
<g id="node8" class="node"><title>Node8</title>
<polygon fill="white" stroke="#bfbfbf" points="686.5,-200.5 686.5,-257.5 769.5,-257.5 769.5,-200.5 686.5,-200.5"/>
<text text-anchor="middle" x="728" y="-245.5" font-family="Helvetica,sans-Serif" font-size="10.00">AtomicBoolean</text>
<polyline fill="none" stroke="#bfbfbf" points="686.5,-238.5 769.5,-238.5 "/>
<text text-anchor="middle" x="728" y="-226.5" font-family="Helvetica,sans-Serif" font-size="10.00"> </text>
<polyline fill="none" stroke="#bfbfbf" points="686.5,-219.5 769.5,-219.5 "/>
<text text-anchor="middle" x="728" y="-207.5" font-family="Helvetica,sans-Serif" font-size="10.00"> </text>
</g>
<!-- Node8&#45;&gt;Node1 -->
<g id="edge7" class="edge"><title>Node8&#45;&gt;Node1</title>
<path fill="none" stroke="#404040" d="M728.865,-200.161C727.964,-178.61 723.062,-149.564 705,-132 666.225,-94.2934 518.759,-73.7338 427.447,-64.3804"/>
<polygon fill="none" stroke="#404040" points="427.443,-64.3801 421.075,-67.7641 415.502,-63.1878 421.87,-59.8037 427.443,-64.3801"/>
<text text-anchor="middle" x="747.5" y="-151.5" font-family="Helvetica,sans-Serif" font-size="10.00"> &#45;running_</text>
</g>
</g>
</svg>
        <g id="navigator" transform="translate(0 0)" fill="#404254">
                <rect fill="#f2f5e9" fill-opacity="0.5" stroke="#606060" stroke-width=".5" x="0" y="0" width="60" height="60"/>
                <use id="zoomplus" xlink:href="#zoomPlus" x="17" y="9" onmousedown="handleZoom(evt,'in')"/>
                <use id="zoomminus" xlink:href="#zoomMin" x="42" y="9" onmousedown="handleZoom(evt,'out')"/>
                <use id="reset" xlink:href="#resetDef" x="30" y="36" onmousedown="handleReset()"/>
                <g id="arrowUp" xlink:href="#dirArrow" transform="translate(30 24)" onmousedown="handlePan(0,-1)">
                  <use xlink:href="#rim" fill="#404040">
                        <set attributeName="fill" to="#808080" begin="arrowUp.mouseover" end="arrowUp.mouseout"/>
                  </use>
                  <path fill="none" stroke="white" stroke-width="1.5" d="M0,-3.0v7 M-2.5,-0.5L0,-3.0L2.5,-0.5"/>
                </g>
                <g id="arrowRight" xlink:href="#dirArrow" transform="rotate(90) translate(36 -43)" onmousedown="handlePan(1,0)">
                  <use xlink:href="#rim" fill="#404040">
                        <set attributeName="fill" to="#808080" begin="arrowRight.mouseover" end="arrowRight.mouseout"/>
                  </use>
                  <path fill="none" stroke="white" stroke-width="1.5" d="M0,-3.0v7 M-2.5,-0.5L0,-3.0L2.5,-0.5"/>
                </g>
                <g id="arrowDown" xlink:href="#dirArrow" transform="rotate(180) translate(-30 -48)" onmousedown="handlePan(0,1)">
                  <use xlink:href="#rim" fill="#404040">
                        <set attributeName="fill" to="#808080" begin="arrowDown.mouseover" end="arrowDown.mouseout"/>
                  </use>
                  <path fill="none" stroke="white" stroke-width="1.5" d="M0,-3.0v7 M-2.5,-0.5L0,-3.0L2.5,-0.5"/>
                </g>
                <g id="arrowLeft" xlink:href="#dirArrow" transform="rotate(270) translate(-36 17)" onmousedown="handlePan(-1,0)">
                  <use xlink:href="#rim" fill="#404040">
                        <set attributeName="fill" to="#808080" begin="arrowLeft.mouseover" end="arrowLeft.mouseout"/>
                  </use>
                  <path fill="none" stroke="white" stroke-width="1.5" d="M0,-3.0v7 M-2.5,-0.5L0,-3.0L2.5,-0.5"/>
                </g>
        </g>
        <svg viewBox="0 0 15 15" width="100%" height="30px" preserveAspectRatio="xMaxYMin meet">
         <g id="arrow_out" transform="scale(0.3 0.3)">
          <a xlink:href="classcom_1_1cloudera_1_1impala_1_1util_1_1FileWatchService__coll__graph_org.svg" target="_base">
           <rect id="button" ry="5" rx="5" y="6" x="6" height="38" width="38"
                fill="#f2f5e9" fill-opacity="0.5" stroke="#606060" stroke-width="1.0"/>
           <path id="arrow"
             d="M 11.500037,31.436501 C 11.940474,20.09759 22.043105,11.32322 32.158766,21.979434 L 37.068811,17.246167 C 37.068811,17.246167 37.088388,32 37.088388,32 L 22.160133,31.978069 C 22.160133,31.978069 26.997745,27.140456 26.997745,27.140456 C 18.528582,18.264221 13.291696,25.230495 11.500037,31.436501 z"
             style="fill:#404040;"/>
          </a>
         </g>
        </svg>
</svg>
