<?xml version="1.0" encoding="UTF-8" standalone="no"?>
<!DOCTYPE svg PUBLIC "-//W3C//DTD SVG 1.1//EN"
 "http://www.w3.org/Graphics/SVG/1.1/DTD/svg11.dtd">
<!-- Generated by graphviz version 2.36.0 (20140111.2315)
 -->
<!-- Title: com.cloudera.impala.analysis.GrantRevokePrivStmt Pages: 1 -->
<svg width="156pt" height="514pt"
 viewBox="0.00 0.00 156.00 514.00" xmlns="http://www.w3.org/2000/svg" xmlns:xlink="http://www.w3.org/1999/xlink">
<g id="graph0" class="graph" transform="scale(1 1) rotate(0) translate(4 510)">
<title>com.cloudera.impala.analysis.GrantRevokePrivStmt</title>
<polygon fill="white" stroke="none" points="-4,4 -4,-510 152,-510 152,4 -4,4"/>
<!-- Node1 -->
<g id="node1" class="node"><title>Node1</title>
<polygon fill="#bfbfbf" stroke="black" points="-0.5,-0.5 -0.5,-145.5 148.5,-145.5 148.5,-0.5 -0.5,-0.5"/>
<text text-anchor="start" x="7.5" y="-133.5" font-family="Helvetica,sans-Serif" font-size="10.00">com.cloudera.impala.analysis.</text>
<text text-anchor="middle" x="74" y="-122.5" font-family="Helvetica,sans-Serif" font-size="10.00">GrantRevokePrivStmt</text>
<polyline fill="none" stroke="black" points="-0.5,-115.5 148.5,-115.5 "/>
<text text-anchor="start" x="7.5" y="-103.5" font-family="Helvetica,sans-Serif" font-size="10.00">&#45; privilegeSpec_</text>
<text text-anchor="start" x="7.5" y="-92.5" font-family="Helvetica,sans-Serif" font-size="10.00">&#45; roleName_</text>
<text text-anchor="start" x="7.5" y="-81.5" font-family="Helvetica,sans-Serif" font-size="10.00">&#45; isGrantPrivStmt_</text>
<text text-anchor="start" x="7.5" y="-70.5" font-family="Helvetica,sans-Serif" font-size="10.00">&#45; hasGrantOpt_</text>
<text text-anchor="start" x="7.5" y="-59.5" font-family="Helvetica,sans-Serif" font-size="10.00">&#45; role_</text>
<polyline fill="none" stroke="black" points="-0.5,-52.5 148.5,-52.5 "/>
<text text-anchor="start" x="7.5" y="-40.5" font-family="Helvetica,sans-Serif" font-size="10.00">+ GrantRevokePrivStmt()</text>
<text text-anchor="start" x="7.5" y="-29.5" font-family="Helvetica,sans-Serif" font-size="10.00">+ toThrift()</text>
<text text-anchor="start" x="7.5" y="-18.5" font-family="Helvetica,sans-Serif" font-size="10.00">+ toSql()</text>
<text text-anchor="start" x="7.5" y="-7.5" font-family="Helvetica,sans-Serif" font-size="10.00">+ analyze()</text>
</g>
<!-- Node2 -->
<g id="node2" class="node"><title>Node2</title>
<g id="a_node2"><a xlink:href="classcom_1_1cloudera_1_1impala_1_1analysis_1_1AuthorizationStmt.html" target="_top" xlink:title="{com.cloudera.impala.analysis.\lAuthorizationStmt\n|# requestingUser_\l|+ analyze()\l}">
<polygon fill="white" stroke="black" points="-0.5,-183 -0.5,-251 148.5,-251 148.5,-183 -0.5,-183"/>
<text text-anchor="start" x="7.5" y="-239" font-family="Helvetica,sans-Serif" font-size="10.00">com.cloudera.impala.analysis.</text>
<text text-anchor="middle" x="74" y="-228" font-family="Helvetica,sans-Serif" font-size="10.00">AuthorizationStmt</text>
<polyline fill="none" stroke="black" points="-0.5,-221 148.5,-221 "/>
<text text-anchor="start" x="7.5" y="-209" font-family="Helvetica,sans-Serif" font-size="10.00"># requestingUser_</text>
<polyline fill="none" stroke="black" points="-0.5,-202 148.5,-202 "/>
<text text-anchor="start" x="7.5" y="-190" font-family="Helvetica,sans-Serif" font-size="10.00">+ analyze()</text>
</a>
</g>
</g>
<!-- Node2&#45;&gt;Node1 -->
<g id="edge1" class="edge"><title>Node2&#45;&gt;Node1</title>
<path fill="none" stroke="midnightblue" d="M74,-172.643C74,-164.101 74,-154.926 74,-145.735"/>
<polygon fill="none" stroke="midnightblue" points="70.5001,-172.707 74,-182.707 77.5001,-172.707 70.5001,-172.707"/>
</g>
<!-- Node3 -->
<g id="node3" class="node"><title>Node3</title>
<g id="a_node3"><a xlink:href="classcom_1_1cloudera_1_1impala_1_1analysis_1_1StatementBase.html" target="_top" xlink:title="{com.cloudera.impala.analysis.\lStatementBase\n|# isExplain_\l|+ analyze()\l+ toSql()\l+ setIsExplain()\l+ isExplain()\l}">
<polygon fill="white" stroke="black" points="-0.5,-288.5 -0.5,-389.5 148.5,-389.5 148.5,-288.5 -0.5,-288.5"/>
<text text-anchor="start" x="7.5" y="-377.5" font-family="Helvetica,sans-Serif" font-size="10.00">com.cloudera.impala.analysis.</text>
<text text-anchor="middle" x="74" y="-366.5" font-family="Helvetica,sans-Serif" font-size="10.00">StatementBase</text>
<polyline fill="none" stroke="black" points="-0.5,-359.5 148.5,-359.5 "/>
<text text-anchor="start" x="7.5" y="-347.5" font-family="Helvetica,sans-Serif" font-size="10.00"># isExplain_</text>
<polyline fill="none" stroke="black" points="-0.5,-340.5 148.5,-340.5 "/>
<text text-anchor="start" x="7.5" y="-328.5" font-family="Helvetica,sans-Serif" font-size="10.00">+ analyze()</text>
<text text-anchor="start" x="7.5" y="-317.5" font-family="Helvetica,sans-Serif" font-size="10.00">+ toSql()</text>
<text text-anchor="start" x="7.5" y="-306.5" font-family="Helvetica,sans-Serif" font-size="10.00">+ setIsExplain()</text>
<text text-anchor="start" x="7.5" y="-295.5" font-family="Helvetica,sans-Serif" font-size="10.00">+ isExplain()</text>
</a>
</g>
</g>
<!-- Node3&#45;&gt;Node2 -->
<g id="edge2" class="edge"><title>Node3&#45;&gt;Node2</title>
<path fill="none" stroke="midnightblue" d="M74,-278.427C74,-269.101 74,-259.762 74,-251.31"/>
<polygon fill="none" stroke="midnightblue" points="70.5001,-278.499 74,-288.499 77.5001,-278.499 70.5001,-278.499"/>
</g>
<!-- Node4 -->
<g id="node4" class="node"><title>Node4</title>
<g id="a_node4"><a xlink:href="interfacecom_1_1cloudera_1_1impala_1_1analysis_1_1ParseNode.html" target="_top" xlink:title="{com.cloudera.impala.analysis.\lParseNode\n||+ analyze()\l+ toSql()\l}">
<polygon fill="white" stroke="black" points="-0.5,-426.5 -0.5,-505.5 148.5,-505.5 148.5,-426.5 -0.5,-426.5"/>
<text text-anchor="start" x="7.5" y="-493.5" font-family="Helvetica,sans-Serif" font-size="10.00">com.cloudera.impala.analysis.</text>
<text text-anchor="middle" x="74" y="-482.5" font-family="Helvetica,sans-Serif" font-size="10.00">ParseNode</text>
<polyline fill="none" stroke="black" points="-0.5,-475.5 148.5,-475.5 "/>
<text text-anchor="middle" x="74" y="-463.5" font-family="Helvetica,sans-Serif" font-size="10.00"> </text>
<polyline fill="none" stroke="black" points="-0.5,-456.5 148.5,-456.5 "/>
<text text-anchor="start" x="7.5" y="-444.5" font-family="Helvetica,sans-Serif" font-size="10.00">+ analyze()</text>
<text text-anchor="start" x="7.5" y="-433.5" font-family="Helvetica,sans-Serif" font-size="10.00">+ toSql()</text>
</a>
</g>
</g>
<!-- Node4&#45;&gt;Node3 -->
<g id="edge3" class="edge"><title>Node4&#45;&gt;Node3</title>
<path fill="none" stroke="midnightblue" d="M74,-416.406C74,-407.639 74,-398.488 74,-389.691"/>
<polygon fill="none" stroke="midnightblue" points="70.5001,-416.476 74,-426.476 77.5001,-416.476 70.5001,-416.476"/>
</g>
</g>
</svg>
