<?xml version="1.0" encoding="UTF-8" standalone="no"?>
<!DOCTYPE svg PUBLIC "-//W3C//DTD SVG 1.1//EN"
 "http://www.w3.org/Graphics/SVG/1.1/DTD/svg11.dtd">
<!-- Generated by graphviz version 2.36.0 (20140111.2315)
 -->
<!-- Title: impala::ImpalaInternalService Pages: 1 -->
<svg width="361pt" height="284pt"
 viewBox="0.00 0.00 361.00 284.00" xmlns="http://www.w3.org/2000/svg" xmlns:xlink="http://www.w3.org/1999/xlink">
<g id="graph0" class="graph" transform="scale(1 1) rotate(0) translate(4 280)">
<title>impala::ImpalaInternalService</title>
<polygon fill="white" stroke="none" points="-4,4 -4,-280 357,-280 357,4 -4,4"/>
<!-- Node1 -->
<g id="node1" class="node"><title>Node1</title>
<polygon fill="#bfbfbf" stroke="black" points="80,-1 80,-157 226,-157 226,-1 80,-1"/>
<text text-anchor="middle" x="153" y="-145" font-family="Helvetica,sans-Serif" font-size="10.00">impala::ImpalaInternalService</text>
<polyline fill="none" stroke="black" points="80,-138 226,-138 "/>
<text text-anchor="middle" x="153" y="-126" font-family="Helvetica,sans-Serif" font-size="10.00"> </text>
<polyline fill="none" stroke="black" points="80,-119 226,-119 "/>
<text text-anchor="start" x="88" y="-107" font-family="Helvetica,sans-Serif" font-size="10.00">+ ImpalaInternalService()</text>
<text text-anchor="start" x="88" y="-96" font-family="Helvetica,sans-Serif" font-size="10.00">+ ExecPlanFragment()</text>
<text text-anchor="start" x="88" y="-85" font-family="Helvetica,sans-Serif" font-size="10.00">+ CancelPlanFragment()</text>
<text text-anchor="start" x="88" y="-74" font-family="Helvetica,sans-Serif" font-size="10.00">+ ReportExecStatus()</text>
<text text-anchor="start" x="88" y="-63" font-family="Helvetica,sans-Serif" font-size="10.00">+ TransmitData()</text>
<text text-anchor="start" x="88" y="-52" font-family="Helvetica,sans-Serif" font-size="10.00">+ ImpalaInternalService()</text>
<text text-anchor="start" x="88" y="-41" font-family="Helvetica,sans-Serif" font-size="10.00">+ ExecPlanFragment()</text>
<text text-anchor="start" x="88" y="-30" font-family="Helvetica,sans-Serif" font-size="10.00">+ CancelPlanFragment()</text>
<text text-anchor="start" x="88" y="-19" font-family="Helvetica,sans-Serif" font-size="10.00">+ ReportExecStatus()</text>
<text text-anchor="start" x="88" y="-8" font-family="Helvetica,sans-Serif" font-size="10.00">+ TransmitData()</text>
</g>
<!-- Node2 -->
<g id="node2" class="node"><title>Node2</title>
<g id="a_node2"><a xlink:href="classImpalaInternalServiceIf.html" target="_top" xlink:title="{ImpalaInternalServiceIf\n||}">
<polygon fill="white" stroke="black" points="-0.5,-212.5 -0.5,-269.5 116.5,-269.5 116.5,-212.5 -0.5,-212.5"/>
<text text-anchor="middle" x="58" y="-257.5" font-family="Helvetica,sans-Serif" font-size="10.00">ImpalaInternalServiceIf</text>
<polyline fill="none" stroke="black" points="-0.5,-250.5 116.5,-250.5 "/>
<text text-anchor="middle" x="58" y="-238.5" font-family="Helvetica,sans-Serif" font-size="10.00"> </text>
<polyline fill="none" stroke="black" points="-0.5,-231.5 116.5,-231.5 "/>
<text text-anchor="middle" x="58" y="-219.5" font-family="Helvetica,sans-Serif" font-size="10.00"> </text>
</a>
</g>
</g>
<!-- Node2&#45;&gt;Node1 -->
<g id="edge1" class="edge"><title>Node2&#45;&gt;Node1</title>
<path fill="none" stroke="midnightblue" d="M73.9888,-203.339C81.5189,-189.494 90.8894,-173.17 100.531,-157.008"/>
<polygon fill="none" stroke="midnightblue" points="70.7215,-202.027 69.0891,-212.495 76.8933,-205.33 70.7215,-202.027"/>
</g>
<!-- Node2&#45;&gt;Node1 -->
<g id="edge2" class="edge"><title>Node2&#45;&gt;Node1</title>
<path fill="none" stroke="midnightblue" d="M85.2893,-203.738C94.2638,-189.808 104.38,-173.325 114.022,-157.008"/>
<polygon fill="none" stroke="midnightblue" points="82.1082,-202.208 79.5731,-212.495 87.97,-206.034 82.1082,-202.208"/>
</g>
<!-- Node3 -->
<g id="node3" class="node"><title>Node3</title>
<polygon fill="white" stroke="#bfbfbf" points="135,-207 135,-275 235,-275 235,-207 135,-207"/>
<text text-anchor="start" x="143" y="-263" font-family="Helvetica,sans-Serif" font-size="10.00">shared_ptr&lt; impala</text>
<text text-anchor="middle" x="185" y="-252" font-family="Helvetica,sans-Serif" font-size="10.00">::FragmentMgr &gt;</text>
<polyline fill="none" stroke="#bfbfbf" points="135,-245 235,-245 "/>
<text text-anchor="middle" x="185" y="-233" font-family="Helvetica,sans-Serif" font-size="10.00"> </text>
<polyline fill="none" stroke="#bfbfbf" points="135,-226 235,-226 "/>
<text text-anchor="middle" x="185" y="-214" font-family="Helvetica,sans-Serif" font-size="10.00"> </text>
</g>
<!-- Node3&#45;&gt;Node1 -->
<g id="edge3" class="edge"><title>Node3&#45;&gt;Node1</title>
<path fill="none" stroke="#404040" d="M178.37,-206.848C176.132,-195.662 173.518,-182.59 170.834,-169.169"/>
<polygon fill="none" stroke="#404040" points="170.818,-169.09 165.719,-163.991 168.465,-157.323 173.564,-162.422 170.818,-169.09"/>
<text text-anchor="middle" x="210" y="-179.5" font-family="Helvetica,sans-Serif" font-size="10.00"> &#45;fragment_mgr_</text>
</g>
<!-- Node4 -->
<g id="node4" class="node"><title>Node4</title>
<polygon fill="white" stroke="#bfbfbf" points="253,-207 253,-275 353,-275 353,-207 253,-207"/>
<text text-anchor="start" x="261" y="-263" font-family="Helvetica,sans-Serif" font-size="10.00">shared_ptr&lt; impala</text>
<text text-anchor="middle" x="303" y="-252" font-family="Helvetica,sans-Serif" font-size="10.00">::ImpalaServer &gt;</text>
<polyline fill="none" stroke="#bfbfbf" points="253,-245 353,-245 "/>
<text text-anchor="middle" x="303" y="-233" font-family="Helvetica,sans-Serif" font-size="10.00"> </text>
<polyline fill="none" stroke="#bfbfbf" points="253,-226 353,-226 "/>
<text text-anchor="middle" x="303" y="-214" font-family="Helvetica,sans-Serif" font-size="10.00"> </text>
</g>
<!-- Node4&#45;&gt;Node1 -->
<g id="edge4" class="edge"><title>Node4&#45;&gt;Node1</title>
<path fill="none" stroke="#404040" d="M276.647,-206.911C268.325,-196.811 258.96,-185.791 250,-176 245.014,-170.552 239.804,-165.007 234.498,-159.469"/>
<polygon fill="none" stroke="#404040" points="234.445,-159.414 227.398,-157.883 226.101,-150.789 233.148,-152.32 234.445,-159.414"/>
<text text-anchor="middle" x="297.5" y="-179.5" font-family="Helvetica,sans-Serif" font-size="10.00"> &#45;impala_server_</text>
</g>
</g>
</svg>
