<?xml version="1.0" encoding="UTF-8" standalone="no"?>
<!DOCTYPE svg PUBLIC "-//W3C//DTD SVG 1.1//EN"
 "http://www.w3.org/Graphics/SVG/1.1/DTD/svg11.dtd">
<!-- Generated by graphviz version 2.36.0 (20140111.2315)
 -->
<!-- Title: com.cloudera.impala.service.BackendConfig Pages: 1 -->
<svg width="231pt" height="194pt"
 viewBox="0.00 0.00 231.00 194.00" xmlns="http://www.w3.org/2000/svg" xmlns:xlink="http://www.w3.org/1999/xlink">
<g id="graph0" class="graph" transform="scale(1 1) rotate(0) translate(4 190)">
<title>com.cloudera.impala.service.BackendConfig</title>
<polygon fill="white" stroke="none" points="-4,4 -4,-190 227,-190 227,4 -4,4"/>
<!-- Node1 -->
<g id="node1" class="node"><title>Node1</title>
<polygon fill="#bfbfbf" stroke="black" points="0,-0.5 0,-79.5 144,-79.5 144,-0.5 0,-0.5"/>
<text text-anchor="start" x="8" y="-67.5" font-family="Helvetica,sans-Serif" font-size="10.00">com.cloudera.impala.service.</text>
<text text-anchor="middle" x="72" y="-56.5" font-family="Helvetica,sans-Serif" font-size="10.00">BackendConfig</text>
<polyline fill="none" stroke="black" points="0,-49.5 144,-49.5 "/>
<text text-anchor="middle" x="72" y="-37.5" font-family="Helvetica,sans-Serif" font-size="10.00"> </text>
<polyline fill="none" stroke="black" points="0,-30.5 144,-30.5 "/>
<text text-anchor="start" x="8" y="-18.5" font-family="Helvetica,sans-Serif" font-size="10.00">+ getReadSize()</text>
<text text-anchor="start" x="8" y="-7.5" font-family="Helvetica,sans-Serif" font-size="10.00">&#45; BackendConfig()</text>
</g>
<!-- Node1&#45;&gt;Node1 -->
<g id="edge1" class="edge"><title>Node1&#45;&gt;Node1</title>
<path fill="none" stroke="#404040" d="M144.026,-50.886C154.748,-49.1912 162,-45.5625 162,-40 162,-36.8711 159.705,-34.3541 155.789,-32.4489"/>
<polygon fill="none" stroke="#404040" points="155.571,-32.3871 148.708,-34.5989 144.026,-29.114 150.89,-26.9022 155.571,-32.3871"/>
<text text-anchor="middle" x="192.5" y="-37.5" font-family="Helvetica,sans-Serif" font-size="10.00"> +INSTANCE</text>
</g>
<!-- Node2 -->
<g id="node2" class="node"><title>Node2</title>
<polygon fill="white" stroke="#bfbfbf" points="54.5,-128.5 54.5,-185.5 89.5,-185.5 89.5,-128.5 54.5,-128.5"/>
<text text-anchor="middle" x="72" y="-173.5" font-family="Helvetica,sans-Serif" font-size="10.00">long</text>
<polyline fill="none" stroke="#bfbfbf" points="54.5,-166.5 89.5,-166.5 "/>
<text text-anchor="middle" x="72" y="-154.5" font-family="Helvetica,sans-Serif" font-size="10.00"> </text>
<polyline fill="none" stroke="#bfbfbf" points="54.5,-147.5 89.5,-147.5 "/>
<text text-anchor="middle" x="72" y="-135.5" font-family="Helvetica,sans-Serif" font-size="10.00"> </text>
</g>
<!-- Node2&#45;&gt;Node1 -->
<g id="edge2" class="edge"><title>Node2&#45;&gt;Node1</title>
<path fill="none" stroke="#404040" d="M72,-128.455C72,-117.491 72,-104.511 72,-91.9527"/>
<polygon fill="none" stroke="#404040" points="72.0001,-91.6258 68,-85.6258 72,-79.6258 76,-85.6257 72.0001,-91.6258"/>
<text text-anchor="middle" x="103.5" y="-101.5" font-family="Helvetica,sans-Serif" font-size="10.00"> &#45;READ_SIZE</text>
</g>
</g>
</svg>
