<?xml version="1.0" encoding="UTF-8" standalone="no"?>
<!DOCTYPE svg PUBLIC "-//W3C//DTD SVG 1.1//EN"
 "http://www.w3.org/Graphics/SVG/1.1/DTD/svg11.dtd">
<!-- Generated by graphviz version 2.36.0 (20140111.2315)
 -->
<!-- Title: impala::HBaseTableScanner::ScanRange Pages: 1 -->
<svg width="148pt" height="248pt"
 viewBox="0.00 0.00 148.00 248.00" xmlns="http://www.w3.org/2000/svg" xmlns:xlink="http://www.w3.org/1999/xlink">
<g id="graph0" class="graph" transform="scale(1 1) rotate(0) translate(4 244)">
<title>impala::HBaseTableScanner::ScanRange</title>
<polygon fill="white" stroke="none" points="-4,4 -4,-244 144,-244 144,4 -4,4"/>
<!-- Node1 -->
<g id="node1" class="node"><title>Node1</title>
<polygon fill="#bfbfbf" stroke="black" points="-0.5,-0.5 -0.5,-123.5 140.5,-123.5 140.5,-0.5 -0.5,-0.5"/>
<text text-anchor="start" x="7.5" y="-111.5" font-family="Helvetica,sans-Serif" font-size="10.00">impala::HBaseTableScanner</text>
<text text-anchor="middle" x="70" y="-100.5" font-family="Helvetica,sans-Serif" font-size="10.00">::ScanRange</text>
<polyline fill="none" stroke="black" points="-0.5,-93.5 140.5,-93.5 "/>
<text text-anchor="middle" x="70" y="-81.5" font-family="Helvetica,sans-Serif" font-size="10.00"> </text>
<polyline fill="none" stroke="black" points="-0.5,-74.5 140.5,-74.5 "/>
<text text-anchor="start" x="7.5" y="-62.5" font-family="Helvetica,sans-Serif" font-size="10.00">+ ScanRange()</text>
<text text-anchor="start" x="7.5" y="-51.5" font-family="Helvetica,sans-Serif" font-size="10.00">+ start_key()</text>
<text text-anchor="start" x="7.5" y="-40.5" font-family="Helvetica,sans-Serif" font-size="10.00">+ stop_key()</text>
<text text-anchor="start" x="7.5" y="-29.5" font-family="Helvetica,sans-Serif" font-size="10.00">+ set_start_key()</text>
<text text-anchor="start" x="7.5" y="-18.5" font-family="Helvetica,sans-Serif" font-size="10.00">+ set_stop_key()</text>
<text text-anchor="start" x="7.5" y="-7.5" font-family="Helvetica,sans-Serif" font-size="10.00">+ DebugString()</text>
</g>
<!-- Node2 -->
<g id="node2" class="node"><title>Node2</title>
<polygon fill="white" stroke="#bfbfbf" points="49.5,-182.5 49.5,-239.5 90.5,-239.5 90.5,-182.5 49.5,-182.5"/>
<text text-anchor="middle" x="70" y="-227.5" font-family="Helvetica,sans-Serif" font-size="10.00">string</text>
<polyline fill="none" stroke="#bfbfbf" points="49.5,-220.5 90.5,-220.5 "/>
<text text-anchor="middle" x="70" y="-208.5" font-family="Helvetica,sans-Serif" font-size="10.00"> </text>
<polyline fill="none" stroke="#bfbfbf" points="49.5,-201.5 90.5,-201.5 "/>
<text text-anchor="middle" x="70" y="-189.5" font-family="Helvetica,sans-Serif" font-size="10.00"> </text>
</g>
<!-- Node2&#45;&gt;Node1 -->
<g id="edge1" class="edge"><title>Node2&#45;&gt;Node1</title>
<path fill="none" stroke="#404040" d="M70,-182.35C70,-169.032 70,-152.37 70,-135.759"/>
<polygon fill="none" stroke="#404040" points="70.0001,-135.721 66,-129.721 70,-123.721 74,-129.72 70.0001,-135.721"/>
<text text-anchor="middle" x="96" y="-156" font-family="Helvetica,sans-Serif" font-size="10.00"> &#45;stop_key_</text>
<text text-anchor="middle" x="96" y="-145" font-family="Helvetica,sans-Serif" font-size="10.00">&#45;start_key_</text>
</g>
</g>
</svg>
