<?xml version="1.0" encoding="UTF-8" standalone="no"?>
<!DOCTYPE svg PUBLIC "-//W3C//DTD SVG 1.1//EN"
 "http://www.w3.org/Graphics/SVG/1.1/DTD/svg11.dtd">
<!-- Generated by graphviz version 2.36.0 (20140111.2315)
 -->
<!-- Title: impala::ImpalaServer::HS2ColumnarResultSet Pages: 1 -->
<!--zoomable 348 -->
<svg id="main" version="1.1" xmlns="http://www.w3.org/2000/svg" xmlns:xlink="http://www.w3.org/1999/xlink" xml:space="preserve" onload="init(evt)">
<style type="text/css"><![CDATA[
.edge:hover path { stroke: red; }
.edge:hover polygon { stroke: red; fill: red; }
]]></style>
<script type="text/javascript"><![CDATA[
var edges = document.getElementsByTagName('g');
if (edges && edges.length) {
  for (var i=0;i<edges.length;i++) {
    if (edges[i].id.substr(0,4)=='edge') {
      edges[i].setAttribute('class','edge');
    }
  }
}
]]></script>
        <defs>
                <circle id="rim" cx="0" cy="0" r="7"/>
                <circle id="rim2" cx="0" cy="0" r="3.5"/>
                <g id="zoomPlus">
                        <use xlink:href="#rim" fill="#404040">
                                <set attributeName="fill" to="#808080" begin="zoomplus.mouseover" end="zoomplus.mouseout"/>
                        </use>
                        <path d="M-4,0h8M0,-4v8" fill="none" stroke="white" stroke-width="1.5" pointer-events="none"/>
                </g>
                <g id="zoomMin">
                        <use xlink:href="#rim" fill="#404040">
                                <set attributeName="fill" to="#808080" begin="zoomminus.mouseover" end="zoomminus.mouseout"/>
                        </use>
                        <path d="M-4,0h8" fill="none" stroke="white" stroke-width="1.5" pointer-events="none"/>
                </g>
                <g id="dirArrow">
                        <path fill="none" stroke="white" stroke-width="1.5" d="M0,-3.0v7 M-2.5,-0.5L0,-3.0L2.5,-0.5"/>
                </g>
               <g id="resetDef">
                       <use xlink:href="#rim2" fill="#404040">
                               <set attributeName="fill" to="#808080" begin="reset.mouseover" end="reset.mouseout"/>
                       </use>
               </g>
        </defs>

<script type="text/javascript">
var viewWidth = 534;
var viewHeight = 348;
var sectionId = 'dynsection-1';
</script>
<script xlink:href="svgpan.js"/>
<svg id="graph" class="graph">
<g id="viewport">
<title>impala::ImpalaServer::HS2ColumnarResultSet</title>
<polygon fill="white" stroke="none" points="-4,4 -4,-344 530,-344 530,4 -4,4"/>
<!-- Node1 -->
<g id="node1" class="node"><title>Node1</title>
<polygon fill="#bfbfbf" stroke="black" points="200.5,-0.5 200.5,-145.5 343.5,-145.5 343.5,-0.5 200.5,-0.5"/>
<text text-anchor="start" x="208.5" y="-133.5" font-family="Helvetica,sans-Serif" font-size="10.00">impala::ImpalaServer</text>
<text text-anchor="middle" x="272" y="-122.5" font-family="Helvetica,sans-Serif" font-size="10.00">::HS2ColumnarResultSet</text>
<polyline fill="none" stroke="black" points="200.5,-115.5 343.5,-115.5 "/>
<text text-anchor="middle" x="272" y="-103.5" font-family="Helvetica,sans-Serif" font-size="10.00"> </text>
<polyline fill="none" stroke="black" points="200.5,-96.5 343.5,-96.5 "/>
<text text-anchor="start" x="208.5" y="-84.5" font-family="Helvetica,sans-Serif" font-size="10.00">+ HS2ColumnarResultSet()</text>
<text text-anchor="start" x="208.5" y="-73.5" font-family="Helvetica,sans-Serif" font-size="10.00">+ ~HS2ColumnarResultSet()</text>
<text text-anchor="start" x="208.5" y="-62.5" font-family="Helvetica,sans-Serif" font-size="10.00">+ AddOneRow()</text>
<text text-anchor="start" x="208.5" y="-51.5" font-family="Helvetica,sans-Serif" font-size="10.00">+ AddOneRow()</text>
<text text-anchor="start" x="208.5" y="-40.5" font-family="Helvetica,sans-Serif" font-size="10.00">+ AddRows()</text>
<text text-anchor="start" x="208.5" y="-29.5" font-family="Helvetica,sans-Serif" font-size="10.00">+ ByteSize()</text>
<text text-anchor="start" x="208.5" y="-18.5" font-family="Helvetica,sans-Serif" font-size="10.00">+ size()</text>
<text text-anchor="start" x="208.5" y="-7.5" font-family="Helvetica,sans-Serif" font-size="10.00">&#45; InitColumns()</text>
</g>
<!-- Node2 -->
<g id="node2" class="node"><title>Node2</title>
<g id="a_node2"><a xlink:href="classimpala_1_1ImpalaServer_1_1QueryResultSet.html" target="_top" xlink:title="{impala::ImpalaServer\l::QueryResultSet\n||+ QueryResultSet()\l+ ~QueryResultSet()\l+ AddOneRow()\l+ AddOneRow()\l+ AddRows()\l+ ByteSize()\l+ ByteSize()\l+ size()\l}">
<polygon fill="white" stroke="black" points="-0.5,-194.5 -0.5,-339.5 108.5,-339.5 108.5,-194.5 -0.5,-194.5"/>
<text text-anchor="start" x="7.5" y="-327.5" font-family="Helvetica,sans-Serif" font-size="10.00">impala::ImpalaServer</text>
<text text-anchor="middle" x="54" y="-316.5" font-family="Helvetica,sans-Serif" font-size="10.00">::QueryResultSet</text>
<polyline fill="none" stroke="black" points="-0.5,-309.5 108.5,-309.5 "/>
<text text-anchor="middle" x="54" y="-297.5" font-family="Helvetica,sans-Serif" font-size="10.00"> </text>
<polyline fill="none" stroke="black" points="-0.5,-290.5 108.5,-290.5 "/>
<text text-anchor="start" x="7.5" y="-278.5" font-family="Helvetica,sans-Serif" font-size="10.00">+ QueryResultSet()</text>
<text text-anchor="start" x="7.5" y="-267.5" font-family="Helvetica,sans-Serif" font-size="10.00">+ ~QueryResultSet()</text>
<text text-anchor="start" x="7.5" y="-256.5" font-family="Helvetica,sans-Serif" font-size="10.00">+ AddOneRow()</text>
<text text-anchor="start" x="7.5" y="-245.5" font-family="Helvetica,sans-Serif" font-size="10.00">+ AddOneRow()</text>
<text text-anchor="start" x="7.5" y="-234.5" font-family="Helvetica,sans-Serif" font-size="10.00">+ AddRows()</text>
<text text-anchor="start" x="7.5" y="-223.5" font-family="Helvetica,sans-Serif" font-size="10.00">+ ByteSize()</text>
<text text-anchor="start" x="7.5" y="-212.5" font-family="Helvetica,sans-Serif" font-size="10.00">+ ByteSize()</text>
<text text-anchor="start" x="7.5" y="-201.5" font-family="Helvetica,sans-Serif" font-size="10.00">+ size()</text>
</a>
</g>
</g>
<!-- Node2&#45;&gt;Node1 -->
<g id="edge1" class="edge"><title>Node2&#45;&gt;Node1</title>
<path fill="none" stroke="midnightblue" d="M115.957,-194.987C116.305,-194.656 116.652,-194.327 117,-194 142.766,-169.736 173.179,-145.381 200.21,-125.015"/>
<polygon fill="none" stroke="midnightblue" points="113.344,-192.647 108.654,-202.148 118.245,-197.645 113.344,-192.647"/>
</g>
<!-- Node3 -->
<g id="node3" class="node"><title>Node3</title>
<polygon fill="white" stroke="#bfbfbf" points="126.5,-238.5 126.5,-295.5 233.5,-295.5 233.5,-238.5 126.5,-238.5"/>
<text text-anchor="middle" x="180" y="-283.5" font-family="Helvetica,sans-Serif" font-size="10.00">TResultSetMetadata</text>
<polyline fill="none" stroke="#bfbfbf" points="126.5,-276.5 233.5,-276.5 "/>
<text text-anchor="middle" x="180" y="-264.5" font-family="Helvetica,sans-Serif" font-size="10.00"> </text>
<polyline fill="none" stroke="#bfbfbf" points="126.5,-257.5 233.5,-257.5 "/>
<text text-anchor="middle" x="180" y="-245.5" font-family="Helvetica,sans-Serif" font-size="10.00"> </text>
</g>
<!-- Node3&#45;&gt;Node1 -->
<g id="edge2" class="edge"><title>Node3&#45;&gt;Node1</title>
<path fill="none" stroke="#404040" d="M188.439,-238.114C195.148,-217.258 205.325,-188.276 217,-164 218.177,-161.553 219.402,-159.088 220.665,-156.614"/>
<polygon fill="none" stroke="#404040" points="220.805,-156.351 220.08,-149.177 226.424,-145.748 227.149,-152.923 220.805,-156.351"/>
<text text-anchor="middle" x="243" y="-167.5" font-family="Helvetica,sans-Serif" font-size="10.00"> &#45;metadata_</text>
</g>
<!-- Node4 -->
<g id="node4" class="node"><title>Node4</title>
<polygon fill="white" stroke="#bfbfbf" points="252,-238.5 252,-295.5 298,-295.5 298,-238.5 252,-238.5"/>
<text text-anchor="middle" x="275" y="-283.5" font-family="Helvetica,sans-Serif" font-size="10.00">int64_t</text>
<polyline fill="none" stroke="#bfbfbf" points="252,-276.5 298,-276.5 "/>
<text text-anchor="middle" x="275" y="-264.5" font-family="Helvetica,sans-Serif" font-size="10.00"> </text>
<polyline fill="none" stroke="#bfbfbf" points="252,-257.5 298,-257.5 "/>
<text text-anchor="middle" x="275" y="-245.5" font-family="Helvetica,sans-Serif" font-size="10.00"> </text>
</g>
<!-- Node4&#45;&gt;Node1 -->
<g id="edge3" class="edge"><title>Node4&#45;&gt;Node1</title>
<path fill="none" stroke="#404040" d="M274.299,-238.429C273.868,-220.617 273.335,-196.94 273,-176 272.907,-170.165 272.821,-164.142 272.742,-158.076"/>
<polygon fill="none" stroke="#404040" points="272.736,-157.611 268.663,-151.66 272.59,-145.612 276.663,-151.563 272.736,-157.611"/>
<text text-anchor="middle" x="301.5" y="-167.5" font-family="Helvetica,sans-Serif" font-size="10.00"> &#45;num_rows_</text>
</g>
<!-- Node5 -->
<g id="node5" class="node"><title>Node5</title>
<polygon fill="white" stroke="#bfbfbf" points="319.5,-238.5 319.5,-295.5 384.5,-295.5 384.5,-238.5 319.5,-238.5"/>
<text text-anchor="middle" x="352" y="-283.5" font-family="Helvetica,sans-Serif" font-size="10.00">TRowSet *</text>
<polyline fill="none" stroke="#bfbfbf" points="319.5,-276.5 384.5,-276.5 "/>
<text text-anchor="middle" x="352" y="-264.5" font-family="Helvetica,sans-Serif" font-size="10.00"> </text>
<polyline fill="none" stroke="#bfbfbf" points="319.5,-257.5 384.5,-257.5 "/>
<text text-anchor="middle" x="352" y="-245.5" font-family="Helvetica,sans-Serif" font-size="10.00"> </text>
</g>
<!-- Node5&#45;&gt;Node1 -->
<g id="edge4" class="edge"><title>Node5&#45;&gt;Node1</title>
<path fill="none" stroke="#404040" d="M348.781,-238.353C345.691,-217.364 339.977,-188.103 330,-164 328.975,-161.523 327.881,-159.039 326.729,-156.558"/>
<polygon fill="none" stroke="#404040" points="326.684,-156.465 320.432,-152.87 321.346,-145.718 327.598,-149.312 326.684,-156.465"/>
<text text-anchor="middle" x="362.5" y="-167.5" font-family="Helvetica,sans-Serif" font-size="10.00"> &#45;result_set_</text>
</g>
<!-- Node6 -->
<g id="node6" class="node"><title>Node6</title>
<polygon fill="white" stroke="#bfbfbf" points="403,-238.5 403,-295.5 527,-295.5 527,-238.5 403,-238.5"/>
<text text-anchor="middle" x="465" y="-283.5" font-family="Helvetica,sans-Serif" font-size="10.00">scoped_ptr&lt; TRowSet &gt;</text>
<polyline fill="none" stroke="#bfbfbf" points="403,-276.5 527,-276.5 "/>
<text text-anchor="middle" x="465" y="-264.5" font-family="Helvetica,sans-Serif" font-size="10.00"> </text>
<polyline fill="none" stroke="#bfbfbf" points="403,-257.5 527,-257.5 "/>
<text text-anchor="middle" x="465" y="-245.5" font-family="Helvetica,sans-Serif" font-size="10.00"> </text>
</g>
<!-- Node6&#45;&gt;Node1 -->
<g id="edge5" class="edge"><title>Node6&#45;&gt;Node1</title>
<path fill="none" stroke="#404040" d="M449.106,-238.193C435.97,-216.58 415.966,-186.579 394,-164 381.772,-151.431 367.645,-139.308 353.437,-128.251"/>
<polygon fill="none" stroke="#404040" points="353.159,-128.04 345.962,-127.59 343.609,-120.774 350.806,-121.224 353.159,-128.04"/>
<text text-anchor="middle" x="448" y="-167.5" font-family="Helvetica,sans-Serif" font-size="10.00"> &#45;owned_result_set_</text>
</g>
</g>
</svg>
        <g id="navigator" transform="translate(0 0)" fill="#404254">
                <rect fill="#f2f5e9" fill-opacity="0.5" stroke="#606060" stroke-width=".5" x="0" y="0" width="60" height="60"/>
                <use id="zoomplus" xlink:href="#zoomPlus" x="17" y="9" onmousedown="handleZoom(evt,'in')"/>
                <use id="zoomminus" xlink:href="#zoomMin" x="42" y="9" onmousedown="handleZoom(evt,'out')"/>
                <use id="reset" xlink:href="#resetDef" x="30" y="36" onmousedown="handleReset()"/>
                <g id="arrowUp" xlink:href="#dirArrow" transform="translate(30 24)" onmousedown="handlePan(0,-1)">
                  <use xlink:href="#rim" fill="#404040">
                        <set attributeName="fill" to="#808080" begin="arrowUp.mouseover" end="arrowUp.mouseout"/>
                  </use>
                  <path fill="none" stroke="white" stroke-width="1.5" d="M0,-3.0v7 M-2.5,-0.5L0,-3.0L2.5,-0.5"/>
                </g>
                <g id="arrowRight" xlink:href="#dirArrow" transform="rotate(90) translate(36 -43)" onmousedown="handlePan(1,0)">
                  <use xlink:href="#rim" fill="#404040">
                        <set attributeName="fill" to="#808080" begin="arrowRight.mouseover" end="arrowRight.mouseout"/>
                  </use>
                  <path fill="none" stroke="white" stroke-width="1.5" d="M0,-3.0v7 M-2.5,-0.5L0,-3.0L2.5,-0.5"/>
                </g>
                <g id="arrowDown" xlink:href="#dirArrow" transform="rotate(180) translate(-30 -48)" onmousedown="handlePan(0,1)">
                  <use xlink:href="#rim" fill="#404040">
                        <set attributeName="fill" to="#808080" begin="arrowDown.mouseover" end="arrowDown.mouseout"/>
                  </use>
                  <path fill="none" stroke="white" stroke-width="1.5" d="M0,-3.0v7 M-2.5,-0.5L0,-3.0L2.5,-0.5"/>
                </g>
                <g id="arrowLeft" xlink:href="#dirArrow" transform="rotate(270) translate(-36 17)" onmousedown="handlePan(-1,0)">
                  <use xlink:href="#rim" fill="#404040">
                        <set attributeName="fill" to="#808080" begin="arrowLeft.mouseover" end="arrowLeft.mouseout"/>
                  </use>
                  <path fill="none" stroke="white" stroke-width="1.5" d="M0,-3.0v7 M-2.5,-0.5L0,-3.0L2.5,-0.5"/>
                </g>
        </g>
        <svg viewBox="0 0 15 15" width="100%" height="30px" preserveAspectRatio="xMaxYMin meet">
         <g id="arrow_out" transform="scale(0.3 0.3)">
          <a xlink:href="classimpala_1_1ImpalaServer_1_1HS2ColumnarResultSet__coll__graph_org.svg" target="_base">
           <rect id="button" ry="5" rx="5" y="6" x="6" height="38" width="38"
                fill="#f2f5e9" fill-opacity="0.5" stroke="#606060" stroke-width="1.0"/>
           <path id="arrow"
             d="M 11.500037,31.436501 C 11.940474,20.09759 22.043105,11.32322 32.158766,21.979434 L 37.068811,17.246167 C 37.068811,17.246167 37.088388,32 37.088388,32 L 22.160133,31.978069 C 22.160133,31.978069 26.997745,27.140456 26.997745,27.140456 C 18.528582,18.264221 13.291696,25.230495 11.500037,31.436501 z"
             style="fill:#404040;"/>
          </a>
         </g>
        </svg>
</svg>
