<?xml version="1.0" encoding="UTF-8" standalone="no"?>
<!DOCTYPE svg PUBLIC "-//W3C//DTD SVG 1.1//EN"
 "http://www.w3.org/Graphics/SVG/1.1/DTD/svg11.dtd">
<!-- Generated by graphviz version 2.36.0 (20140111.2315)
 -->
<!-- Title: impala::FailureDetector Pages: 1 -->
<svg width="351pt" height="282pt"
 viewBox="0.00 0.00 351.00 282.00" xmlns="http://www.w3.org/2000/svg" xmlns:xlink="http://www.w3.org/1999/xlink">
<g id="graph0" class="graph" transform="scale(1 1) rotate(0) translate(4 278)">
<title>impala::FailureDetector</title>
<polygon fill="white" stroke="none" points="-4,4 -4,-278 347,-278 347,4 -4,4"/>
<!-- Node1 -->
<g id="node1" class="node"><title>Node1</title>
<polygon fill="#bfbfbf" stroke="black" points="117,-172.5 117,-273.5 235,-273.5 235,-172.5 117,-172.5"/>
<text text-anchor="middle" x="176" y="-261.5" font-family="Helvetica,sans-Serif" font-size="10.00">impala::FailureDetector</text>
<polyline fill="none" stroke="black" points="117,-254.5 235,-254.5 "/>
<text text-anchor="middle" x="176" y="-242.5" font-family="Helvetica,sans-Serif" font-size="10.00"> </text>
<polyline fill="none" stroke="black" points="117,-235.5 235,-235.5 "/>
<text text-anchor="start" x="125" y="-223.5" font-family="Helvetica,sans-Serif" font-size="10.00">+ ~FailureDetector()</text>
<text text-anchor="start" x="125" y="-212.5" font-family="Helvetica,sans-Serif" font-size="10.00">+ UpdateHeartbeat()</text>
<text text-anchor="start" x="125" y="-201.5" font-family="Helvetica,sans-Serif" font-size="10.00">+ GetPeerState()</text>
<text text-anchor="start" x="125" y="-190.5" font-family="Helvetica,sans-Serif" font-size="10.00">+ EvictPeer()</text>
<text text-anchor="start" x="125" y="-179.5" font-family="Helvetica,sans-Serif" font-size="10.00">+ PeerStateToString()</text>
</g>
<!-- Node2 -->
<g id="node2" class="node"><title>Node2</title>
<g id="a_node2"><a xlink:href="classimpala_1_1MissedHeartbeatFailureDetector.html" target="_top" xlink:title="{impala::MissedHeartbeatFailure\lDetector\n|&#45; lock_\l&#45; max_missed_heartbeats_\l&#45; suspect_missed_heartbeats_\l&#45; missed_heartbeat_counts_\l|+ MissedHeartbeatFailureDetector()\l+ UpdateHeartbeat()\l+ GetPeerState()\l+ EvictPeer()\l}">
<polygon fill="white" stroke="black" points="-0.5,-1 -0.5,-135 172.5,-135 172.5,-1 -0.5,-1"/>
<text text-anchor="start" x="7.5" y="-123" font-family="Helvetica,sans-Serif" font-size="10.00">impala::MissedHeartbeatFailure</text>
<text text-anchor="middle" x="86" y="-112" font-family="Helvetica,sans-Serif" font-size="10.00">Detector</text>
<polyline fill="none" stroke="black" points="-0.5,-105 172.5,-105 "/>
<text text-anchor="start" x="7.5" y="-93" font-family="Helvetica,sans-Serif" font-size="10.00">&#45; lock_</text>
<text text-anchor="start" x="7.5" y="-82" font-family="Helvetica,sans-Serif" font-size="10.00">&#45; max_missed_heartbeats_</text>
<text text-anchor="start" x="7.5" y="-71" font-family="Helvetica,sans-Serif" font-size="10.00">&#45; suspect_missed_heartbeats_</text>
<text text-anchor="start" x="7.5" y="-60" font-family="Helvetica,sans-Serif" font-size="10.00">&#45; missed_heartbeat_counts_</text>
<polyline fill="none" stroke="black" points="-0.5,-53 172.5,-53 "/>
<text text-anchor="start" x="7.5" y="-41" font-family="Helvetica,sans-Serif" font-size="10.00">+ MissedHeartbeatFailureDetector()</text>
<text text-anchor="start" x="7.5" y="-30" font-family="Helvetica,sans-Serif" font-size="10.00">+ UpdateHeartbeat()</text>
<text text-anchor="start" x="7.5" y="-19" font-family="Helvetica,sans-Serif" font-size="10.00">+ GetPeerState()</text>
<text text-anchor="start" x="7.5" y="-8" font-family="Helvetica,sans-Serif" font-size="10.00">+ EvictPeer()</text>
</a>
</g>
</g>
<!-- Node1&#45;&gt;Node2 -->
<g id="edge1" class="edge"><title>Node1&#45;&gt;Node2</title>
<path fill="none" stroke="midnightblue" d="M141.617,-163.549C136.15,-154.255 130.461,-144.584 124.899,-135.128"/>
<polygon fill="none" stroke="midnightblue" points="138.693,-165.481 146.78,-172.325 144.726,-161.931 138.693,-165.481"/>
</g>
<!-- Node3 -->
<g id="node3" class="node"><title>Node3</title>
<g id="a_node3"><a xlink:href="classimpala_1_1TimeoutFailureDetector.html" target="_top" xlink:title="{impala::TimeoutFailureDetector\n|&#45; lock_\l&#45; peer_heartbeat_record_\l&#45; failure_timeout_\l&#45; suspect_timeout_\l|+ TimeoutFailureDetector()\l+ UpdateHeartbeat()\l+ GetPeerState()\l+ EvictPeer()\l}">
<polygon fill="white" stroke="black" points="190.5,-6.5 190.5,-129.5 343.5,-129.5 343.5,-6.5 190.5,-6.5"/>
<text text-anchor="middle" x="267" y="-117.5" font-family="Helvetica,sans-Serif" font-size="10.00">impala::TimeoutFailureDetector</text>
<polyline fill="none" stroke="black" points="190.5,-110.5 343.5,-110.5 "/>
<text text-anchor="start" x="198.5" y="-98.5" font-family="Helvetica,sans-Serif" font-size="10.00">&#45; lock_</text>
<text text-anchor="start" x="198.5" y="-87.5" font-family="Helvetica,sans-Serif" font-size="10.00">&#45; peer_heartbeat_record_</text>
<text text-anchor="start" x="198.5" y="-76.5" font-family="Helvetica,sans-Serif" font-size="10.00">&#45; failure_timeout_</text>
<text text-anchor="start" x="198.5" y="-65.5" font-family="Helvetica,sans-Serif" font-size="10.00">&#45; suspect_timeout_</text>
<polyline fill="none" stroke="black" points="190.5,-58.5 343.5,-58.5 "/>
<text text-anchor="start" x="198.5" y="-46.5" font-family="Helvetica,sans-Serif" font-size="10.00">+ TimeoutFailureDetector()</text>
<text text-anchor="start" x="198.5" y="-35.5" font-family="Helvetica,sans-Serif" font-size="10.00">+ UpdateHeartbeat()</text>
<text text-anchor="start" x="198.5" y="-24.5" font-family="Helvetica,sans-Serif" font-size="10.00">+ GetPeerState()</text>
<text text-anchor="start" x="198.5" y="-13.5" font-family="Helvetica,sans-Serif" font-size="10.00">+ EvictPeer()</text>
</a>
</g>
</g>
<!-- Node1&#45;&gt;Node3 -->
<g id="edge2" class="edge"><title>Node1&#45;&gt;Node3</title>
<path fill="none" stroke="midnightblue" d="M210.76,-163.558C217.362,-152.457 224.284,-140.819 230.926,-129.652"/>
<polygon fill="none" stroke="midnightblue" points="207.649,-161.941 205.545,-172.325 213.665,-165.52 207.649,-161.941"/>
</g>
</g>
</svg>
