<?xml version="1.0" encoding="UTF-8" standalone="no"?>
<!DOCTYPE svg PUBLIC "-//W3C//DTD SVG 1.1//EN"
 "http://www.w3.org/Graphics/SVG/1.1/DTD/svg11.dtd">
<!-- Generated by graphviz version 2.36.0 (20140111.2315)
 -->
<!-- Title: com.cloudera.impala.catalog.TableId Pages: 1 -->
<svg width="152pt" height="206pt"
 viewBox="0.00 0.00 152.00 206.00" xmlns="http://www.w3.org/2000/svg" xmlns:xlink="http://www.w3.org/1999/xlink">
<g id="graph0" class="graph" transform="scale(1 1) rotate(0) translate(4 202)">
<title>com.cloudera.impala.catalog.TableId</title>
<polygon fill="white" stroke="none" points="-4,4 -4,-202 148,-202 148,4 -4,4"/>
<!-- Node1 -->
<g id="node1" class="node"><title>Node1</title>
<polygon fill="#bfbfbf" stroke="black" points="0,-1 0,-91 144,-91 144,-1 0,-1"/>
<text text-anchor="start" x="8" y="-79" font-family="Helvetica,sans-Serif" font-size="10.00">com.cloudera.impala.catalog.</text>
<text text-anchor="middle" x="72" y="-68" font-family="Helvetica,sans-Serif" font-size="10.00">TableId</text>
<polyline fill="none" stroke="black" points="0,-61 144,-61 "/>
<text text-anchor="middle" x="72" y="-49" font-family="Helvetica,sans-Serif" font-size="10.00"> </text>
<polyline fill="none" stroke="black" points="0,-42 144,-42 "/>
<text text-anchor="start" x="8" y="-30" font-family="Helvetica,sans-Serif" font-size="10.00">+ createGenerator()</text>
<text text-anchor="start" x="8" y="-19" font-family="Helvetica,sans-Serif" font-size="10.00">+ createInvalidId()</text>
<text text-anchor="start" x="8" y="-8" font-family="Helvetica,sans-Serif" font-size="10.00"># TableId()</text>
</g>
<!-- Node2 -->
<g id="node2" class="node"><title>Node2</title>
<polygon fill="white" stroke="#bfbfbf" points="9.5,-129 9.5,-197 134.5,-197 134.5,-129 9.5,-129"/>
<text text-anchor="start" x="17.5" y="-185" font-family="Helvetica,sans-Serif" font-size="10.00">com::cloudera::impala</text>
<text text-anchor="middle" x="72" y="-174" font-family="Helvetica,sans-Serif" font-size="10.00">::common::Id&lt; TableId &gt;</text>
<polyline fill="none" stroke="#bfbfbf" points="9.5,-167 134.5,-167 "/>
<text text-anchor="middle" x="72" y="-155" font-family="Helvetica,sans-Serif" font-size="10.00"> </text>
<polyline fill="none" stroke="#bfbfbf" points="9.5,-148 134.5,-148 "/>
<text text-anchor="middle" x="72" y="-136" font-family="Helvetica,sans-Serif" font-size="10.00"> </text>
</g>
<!-- Node2&#45;&gt;Node1 -->
<g id="edge1" class="edge"><title>Node2&#45;&gt;Node1</title>
<path fill="none" stroke="midnightblue" d="M72,-118.555C72,-109.646 72,-100.257 72,-91.3181"/>
<polygon fill="none" stroke="midnightblue" points="68.5001,-118.737 72,-128.737 75.5001,-118.737 68.5001,-118.737"/>
</g>
</g>
</svg>
