<?xml version="1.0" encoding="UTF-8" standalone="no"?>
<!DOCTYPE svg PUBLIC "-//W3C//DTD SVG 1.1//EN"
 "http://www.w3.org/Graphics/SVG/1.1/DTD/svg11.dtd">
<!-- Generated by graphviz version 2.36.0 (20140111.2315)
 -->
<!-- Title: impala::RuntimeProfile::ThreadCounters Pages: 1 -->
<svg width="165pt" height="684pt"
 viewBox="0.00 0.00 165.00 684.00" xmlns="http://www.w3.org/2000/svg" xmlns:xlink="http://www.w3.org/1999/xlink">
<g id="graph0" class="graph" transform="scale(1 1) rotate(0) translate(4 680)">
<title>impala::RuntimeProfile::ThreadCounters</title>
<polygon fill="white" stroke="none" points="-4,4 -4,-680 161,-680 161,4 -4,4"/>
<!-- Node1 -->
<g id="node1" class="node"><title>Node1</title>
<polygon fill="#bfbfbf" stroke="black" points="-1,-1 -1,-69 115,-69 115,-1 -1,-1"/>
<text text-anchor="start" x="7" y="-57" font-family="Helvetica,sans-Serif" font-size="10.00">impala::RuntimeProfile</text>
<text text-anchor="middle" x="57" y="-46" font-family="Helvetica,sans-Serif" font-size="10.00">::ThreadCounters</text>
<polyline fill="none" stroke="black" points="-1,-39 115,-39 "/>
<text text-anchor="middle" x="57" y="-27" font-family="Helvetica,sans-Serif" font-size="10.00"> </text>
<polyline fill="none" stroke="black" points="-1,-20 115,-20 "/>
<text text-anchor="middle" x="57" y="-8" font-family="Helvetica,sans-Serif" font-size="10.00"> </text>
</g>
<!-- Node2 -->
<g id="node2" class="node"><title>Node2</title>
<g id="a_node2"><a xlink:href="classimpala_1_1RuntimeProfile_1_1Counter.html" target="_top" xlink:title="{impala::RuntimeProfile\l::Counter\n||+ Counter()\l+ ~Counter()\l+ Add()\l+ BitOr()\l+ Set()\l+ Set()\l+ value()\l+ double_value()\l+ unit()\l}">
<polygon fill="white" stroke="black" points="-1,-185 -1,-341 115,-341 115,-185 -1,-185"/>
<text text-anchor="start" x="7" y="-329" font-family="Helvetica,sans-Serif" font-size="10.00">impala::RuntimeProfile</text>
<text text-anchor="middle" x="57" y="-318" font-family="Helvetica,sans-Serif" font-size="10.00">::Counter</text>
<polyline fill="none" stroke="black" points="-1,-311 115,-311 "/>
<text text-anchor="middle" x="57" y="-299" font-family="Helvetica,sans-Serif" font-size="10.00"> </text>
<polyline fill="none" stroke="black" points="-1,-292 115,-292 "/>
<text text-anchor="start" x="7" y="-280" font-family="Helvetica,sans-Serif" font-size="10.00">+ Counter()</text>
<text text-anchor="start" x="7" y="-269" font-family="Helvetica,sans-Serif" font-size="10.00">+ ~Counter()</text>
<text text-anchor="start" x="7" y="-258" font-family="Helvetica,sans-Serif" font-size="10.00">+ Add()</text>
<text text-anchor="start" x="7" y="-247" font-family="Helvetica,sans-Serif" font-size="10.00">+ BitOr()</text>
<text text-anchor="start" x="7" y="-236" font-family="Helvetica,sans-Serif" font-size="10.00">+ Set()</text>
<text text-anchor="start" x="7" y="-225" font-family="Helvetica,sans-Serif" font-size="10.00">+ Set()</text>
<text text-anchor="start" x="7" y="-214" font-family="Helvetica,sans-Serif" font-size="10.00">+ value()</text>
<text text-anchor="start" x="7" y="-203" font-family="Helvetica,sans-Serif" font-size="10.00">+ double_value()</text>
<text text-anchor="start" x="7" y="-192" font-family="Helvetica,sans-Serif" font-size="10.00">+ unit()</text>
</a>
</g>
</g>
<!-- Node2&#45;&gt;Node1 -->
<g id="edge1" class="edge"><title>Node2&#45;&gt;Node1</title>
<path fill="none" stroke="#404040" d="M57,-184.856C57,-150.282 57,-110.713 57,-81.0658"/>
<polygon fill="none" stroke="#404040" points="57.0001,-81.0107 53,-75.0107 57,-69.0107 61,-75.0107 57.0001,-81.0107"/>
<text text-anchor="start" x="57" y="-157.5" font-family="Helvetica,sans-Serif" font-size="10.00"> &#45;voluntary_context</text>
<text text-anchor="middle" x="101" y="-146.5" font-family="Helvetica,sans-Serif" font-size="10.00">_switches_</text>
<text text-anchor="start" x="57" y="-135.5" font-family="Helvetica,sans-Serif" font-size="10.00">&#45;involuntary_context</text>
<text text-anchor="middle" x="101" y="-124.5" font-family="Helvetica,sans-Serif" font-size="10.00">_switches_</text>
<text text-anchor="middle" x="101" y="-113.5" font-family="Helvetica,sans-Serif" font-size="10.00">&#45;sys_time_</text>
<text text-anchor="middle" x="101" y="-102.5" font-family="Helvetica,sans-Serif" font-size="10.00">&#45;total_time_</text>
<text text-anchor="middle" x="101" y="-91.5" font-family="Helvetica,sans-Serif" font-size="10.00">&#45;user_time_</text>
</g>
<!-- Node3 -->
<g id="node3" class="node"><title>Node3</title>
<polygon fill="white" stroke="#bfbfbf" points="5.5,-451.5 5.5,-508.5 40.5,-508.5 40.5,-451.5 5.5,-451.5"/>
<text text-anchor="middle" x="23" y="-496.5" font-family="Helvetica,sans-Serif" font-size="10.00">type</text>
<polyline fill="none" stroke="#bfbfbf" points="5.5,-489.5 40.5,-489.5 "/>
<text text-anchor="middle" x="23" y="-477.5" font-family="Helvetica,sans-Serif" font-size="10.00"> </text>
<polyline fill="none" stroke="#bfbfbf" points="5.5,-470.5 40.5,-470.5 "/>
<text text-anchor="middle" x="23" y="-458.5" font-family="Helvetica,sans-Serif" font-size="10.00"> </text>
</g>
<!-- Node3&#45;&gt;Node2 -->
<g id="edge2" class="edge"><title>Node3&#45;&gt;Node2</title>
<path fill="none" stroke="#404040" d="M26.7221,-451.069C30.0032,-426.928 35.0235,-391.117 40,-360 40.3506,-357.808 40.7099,-355.588 41.0761,-353.349"/>
<polygon fill="none" stroke="#404040" points="41.1201,-353.084 38.1593,-346.509 43.0899,-341.247 46.0508,-347.822 41.1201,-353.084"/>
<text text-anchor="middle" x="55" y="-363.5" font-family="Helvetica,sans-Serif" font-size="10.00"> #unit_</text>
</g>
<!-- Node4 -->
<g id="node4" class="node"><title>Node4</title>
<g id="a_node4"><a xlink:href="classimpala_1_1AtomicInt.html" target="_top" xlink:title="{impala::AtomicInt\&lt;\l int64_t \&gt;\n||+ AtomicInt()\l+ operator int64_t()\l+ operator=()\l+ operator=()\l+ operator+=()\l+ operator&#45;=()\l+ operator\|=()\l+ operator&amp;=()\l+ operator++()\l+ operator++()\land 10 more...\l}">
<polygon fill="white" stroke="black" points="58.5,-391 58.5,-569 157.5,-569 157.5,-391 58.5,-391"/>
<text text-anchor="start" x="66.5" y="-557" font-family="Helvetica,sans-Serif" font-size="10.00">impala::AtomicInt&lt;</text>
<text text-anchor="middle" x="108" y="-546" font-family="Helvetica,sans-Serif" font-size="10.00"> int64_t &gt;</text>
<polyline fill="none" stroke="black" points="58.5,-539 157.5,-539 "/>
<text text-anchor="middle" x="108" y="-527" font-family="Helvetica,sans-Serif" font-size="10.00"> </text>
<polyline fill="none" stroke="black" points="58.5,-520 157.5,-520 "/>
<text text-anchor="start" x="66.5" y="-508" font-family="Helvetica,sans-Serif" font-size="10.00">+ AtomicInt()</text>
<text text-anchor="start" x="66.5" y="-497" font-family="Helvetica,sans-Serif" font-size="10.00">+ operator int64_t()</text>
<text text-anchor="start" x="66.5" y="-486" font-family="Helvetica,sans-Serif" font-size="10.00">+ operator=()</text>
<text text-anchor="start" x="66.5" y="-475" font-family="Helvetica,sans-Serif" font-size="10.00">+ operator=()</text>
<text text-anchor="start" x="66.5" y="-464" font-family="Helvetica,sans-Serif" font-size="10.00">+ operator+=()</text>
<text text-anchor="start" x="66.5" y="-453" font-family="Helvetica,sans-Serif" font-size="10.00">+ operator&#45;=()</text>
<text text-anchor="start" x="66.5" y="-442" font-family="Helvetica,sans-Serif" font-size="10.00">+ operator|=()</text>
<text text-anchor="start" x="66.5" y="-431" font-family="Helvetica,sans-Serif" font-size="10.00">+ operator&amp;=()</text>
<text text-anchor="start" x="66.5" y="-420" font-family="Helvetica,sans-Serif" font-size="10.00">+ operator++()</text>
<text text-anchor="start" x="66.5" y="-409" font-family="Helvetica,sans-Serif" font-size="10.00">+ operator++()</text>
<text text-anchor="start" x="66.5" y="-398" font-family="Helvetica,sans-Serif" font-size="10.00">and 10 more...</text>
</a>
</g>
</g>
<!-- Node4&#45;&gt;Node2 -->
<g id="edge3" class="edge"><title>Node4&#45;&gt;Node2</title>
<path fill="none" stroke="#404040" d="M87.1092,-390.931C84.149,-378.452 81.1031,-365.611 78.1383,-353.113"/>
<polygon fill="none" stroke="#404040" points="78.0958,-352.933 72.8189,-348.018 75.3261,-341.257 80.6029,-346.172 78.0958,-352.933"/>
<text text-anchor="middle" x="100.5" y="-363.5" font-family="Helvetica,sans-Serif" font-size="10.00"> #value_</text>
</g>
<!-- Node5 -->
<g id="node5" class="node"><title>Node5</title>
<polygon fill="white" stroke="#bfbfbf" points="85,-618.5 85,-675.5 131,-675.5 131,-618.5 85,-618.5"/>
<text text-anchor="middle" x="108" y="-663.5" font-family="Helvetica,sans-Serif" font-size="10.00">int64_t</text>
<polyline fill="none" stroke="#bfbfbf" points="85,-656.5 131,-656.5 "/>
<text text-anchor="middle" x="108" y="-644.5" font-family="Helvetica,sans-Serif" font-size="10.00"> </text>
<polyline fill="none" stroke="#bfbfbf" points="85,-637.5 131,-637.5 "/>
<text text-anchor="middle" x="108" y="-625.5" font-family="Helvetica,sans-Serif" font-size="10.00"> </text>
</g>
<!-- Node5&#45;&gt;Node4 -->
<g id="edge4" class="edge"><title>Node5&#45;&gt;Node4</title>
<path fill="none" stroke="#404040" d="M108,-618.383C108,-607.739 108,-594.866 108,-581.319"/>
<polygon fill="none" stroke="#404040" points="108,-581.28 104,-575.28 108,-569.28 112,-575.28 108,-581.28"/>
<text text-anchor="middle" x="125.5" y="-591.5" font-family="Helvetica,sans-Serif" font-size="10.00"> &#45;value_</text>
</g>
</g>
</svg>
