<?xml version="1.0" encoding="UTF-8" standalone="no"?>
<!DOCTYPE svg PUBLIC "-//W3C//DTD SVG 1.1//EN"
 "http://www.w3.org/Graphics/SVG/1.1/DTD/svg11.dtd">
<!-- Generated by graphviz version 2.36.0 (20140111.2315)
 -->
<!-- Title: com.cloudera.impala.analysis.AlterTableSetFileFormatStmt Pages: 1 -->
<svg width="164pt" height="664pt"
 viewBox="0.00 0.00 164.00 664.00" xmlns="http://www.w3.org/2000/svg" xmlns:xlink="http://www.w3.org/1999/xlink">
<g id="graph0" class="graph" transform="scale(1 1) rotate(0) translate(4 660)">
<title>com.cloudera.impala.analysis.AlterTableSetFileFormatStmt</title>
<polygon fill="white" stroke="none" points="-4,4 -4,-660 160,-660 160,4 -4,4"/>
<!-- Node1 -->
<g id="node1" class="node"><title>Node1</title>
<polygon fill="#bfbfbf" stroke="black" points="-1,-0.5 -1,-101.5 157,-101.5 157,-0.5 -1,-0.5"/>
<text text-anchor="start" x="7" y="-89.5" font-family="Helvetica,sans-Serif" font-size="10.00">com.cloudera.impala.analysis.</text>
<text text-anchor="middle" x="78" y="-78.5" font-family="Helvetica,sans-Serif" font-size="10.00">AlterTableSetFileFormatStmt</text>
<polyline fill="none" stroke="black" points="-1,-71.5 157,-71.5 "/>
<text text-anchor="start" x="7" y="-59.5" font-family="Helvetica,sans-Serif" font-size="10.00">&#45; fileFormat_</text>
<polyline fill="none" stroke="black" points="-1,-52.5 157,-52.5 "/>
<text text-anchor="start" x="7" y="-40.5" font-family="Helvetica,sans-Serif" font-size="10.00">+ AlterTableSetFileFormatStmt()</text>
<text text-anchor="start" x="7" y="-29.5" font-family="Helvetica,sans-Serif" font-size="10.00">+ getFileFormat()</text>
<text text-anchor="start" x="7" y="-18.5" font-family="Helvetica,sans-Serif" font-size="10.00">+ toThrift()</text>
<text text-anchor="start" x="7" y="-7.5" font-family="Helvetica,sans-Serif" font-size="10.00">+ analyze()</text>
</g>
<!-- Node2 -->
<g id="node2" class="node"><title>Node2</title>
<g id="a_node2"><a xlink:href="classcom_1_1cloudera_1_1impala_1_1analysis_1_1AlterTableSetStmt.html" target="_top" xlink:title="{com.cloudera.impala.analysis.\lAlterTableSetStmt\n|# partitionSpec_\l|+ AlterTableSetStmt()\l+ getPartitionSpec()\l+ analyze()\l}">
<polygon fill="white" stroke="black" points="3.5,-139 3.5,-229 152.5,-229 152.5,-139 3.5,-139"/>
<text text-anchor="start" x="11.5" y="-217" font-family="Helvetica,sans-Serif" font-size="10.00">com.cloudera.impala.analysis.</text>
<text text-anchor="middle" x="78" y="-206" font-family="Helvetica,sans-Serif" font-size="10.00">AlterTableSetStmt</text>
<polyline fill="none" stroke="black" points="3.5,-199 152.5,-199 "/>
<text text-anchor="start" x="11.5" y="-187" font-family="Helvetica,sans-Serif" font-size="10.00"># partitionSpec_</text>
<polyline fill="none" stroke="black" points="3.5,-180 152.5,-180 "/>
<text text-anchor="start" x="11.5" y="-168" font-family="Helvetica,sans-Serif" font-size="10.00">+ AlterTableSetStmt()</text>
<text text-anchor="start" x="11.5" y="-157" font-family="Helvetica,sans-Serif" font-size="10.00">+ getPartitionSpec()</text>
<text text-anchor="start" x="11.5" y="-146" font-family="Helvetica,sans-Serif" font-size="10.00">+ analyze()</text>
</a>
</g>
</g>
<!-- Node2&#45;&gt;Node1 -->
<g id="edge1" class="edge"><title>Node2&#45;&gt;Node1</title>
<path fill="none" stroke="midnightblue" d="M78,-128.422C78,-119.569 78,-110.442 78,-101.712"/>
<polygon fill="none" stroke="midnightblue" points="74.5001,-128.649 78,-138.649 81.5001,-128.649 74.5001,-128.649"/>
</g>
<!-- Node3 -->
<g id="node3" class="node"><title>Node3</title>
<g id="a_node3"><a xlink:href="classcom_1_1cloudera_1_1impala_1_1analysis_1_1AlterTableStmt.html" target="_top" xlink:title="{com.cloudera.impala.analysis.\lAlterTableStmt\n|# tableName_\l# table_\l|+ getTbl()\l+ getDb()\l+ toThrift()\l+ analyze()\l# AlterTableStmt()\l# getTargetTable()\l}">
<polygon fill="white" stroke="black" points="3.5,-267 3.5,-401 152.5,-401 152.5,-267 3.5,-267"/>
<text text-anchor="start" x="11.5" y="-389" font-family="Helvetica,sans-Serif" font-size="10.00">com.cloudera.impala.analysis.</text>
<text text-anchor="middle" x="78" y="-378" font-family="Helvetica,sans-Serif" font-size="10.00">AlterTableStmt</text>
<polyline fill="none" stroke="black" points="3.5,-371 152.5,-371 "/>
<text text-anchor="start" x="11.5" y="-359" font-family="Helvetica,sans-Serif" font-size="10.00"># tableName_</text>
<text text-anchor="start" x="11.5" y="-348" font-family="Helvetica,sans-Serif" font-size="10.00"># table_</text>
<polyline fill="none" stroke="black" points="3.5,-341 152.5,-341 "/>
<text text-anchor="start" x="11.5" y="-329" font-family="Helvetica,sans-Serif" font-size="10.00">+ getTbl()</text>
<text text-anchor="start" x="11.5" y="-318" font-family="Helvetica,sans-Serif" font-size="10.00">+ getDb()</text>
<text text-anchor="start" x="11.5" y="-307" font-family="Helvetica,sans-Serif" font-size="10.00">+ toThrift()</text>
<text text-anchor="start" x="11.5" y="-296" font-family="Helvetica,sans-Serif" font-size="10.00">+ analyze()</text>
<text text-anchor="start" x="11.5" y="-285" font-family="Helvetica,sans-Serif" font-size="10.00"># AlterTableStmt()</text>
<text text-anchor="start" x="11.5" y="-274" font-family="Helvetica,sans-Serif" font-size="10.00"># getTargetTable()</text>
</a>
</g>
</g>
<!-- Node3&#45;&gt;Node2 -->
<g id="edge2" class="edge"><title>Node3&#45;&gt;Node2</title>
<path fill="none" stroke="midnightblue" d="M78,-256.574C78,-247.149 78,-237.777 78,-229.07"/>
<polygon fill="none" stroke="midnightblue" points="74.5001,-256.792 78,-266.792 81.5001,-256.792 74.5001,-256.792"/>
</g>
<!-- Node4 -->
<g id="node4" class="node"><title>Node4</title>
<g id="a_node4"><a xlink:href="classcom_1_1cloudera_1_1impala_1_1analysis_1_1StatementBase.html" target="_top" xlink:title="{com.cloudera.impala.analysis.\lStatementBase\n|# isExplain_\l|+ analyze()\l+ toSql()\l+ setIsExplain()\l+ isExplain()\l}">
<polygon fill="white" stroke="black" points="3.5,-438.5 3.5,-539.5 152.5,-539.5 152.5,-438.5 3.5,-438.5"/>
<text text-anchor="start" x="11.5" y="-527.5" font-family="Helvetica,sans-Serif" font-size="10.00">com.cloudera.impala.analysis.</text>
<text text-anchor="middle" x="78" y="-516.5" font-family="Helvetica,sans-Serif" font-size="10.00">StatementBase</text>
<polyline fill="none" stroke="black" points="3.5,-509.5 152.5,-509.5 "/>
<text text-anchor="start" x="11.5" y="-497.5" font-family="Helvetica,sans-Serif" font-size="10.00"># isExplain_</text>
<polyline fill="none" stroke="black" points="3.5,-490.5 152.5,-490.5 "/>
<text text-anchor="start" x="11.5" y="-478.5" font-family="Helvetica,sans-Serif" font-size="10.00">+ analyze()</text>
<text text-anchor="start" x="11.5" y="-467.5" font-family="Helvetica,sans-Serif" font-size="10.00">+ toSql()</text>
<text text-anchor="start" x="11.5" y="-456.5" font-family="Helvetica,sans-Serif" font-size="10.00">+ setIsExplain()</text>
<text text-anchor="start" x="11.5" y="-445.5" font-family="Helvetica,sans-Serif" font-size="10.00">+ isExplain()</text>
</a>
</g>
</g>
<!-- Node4&#45;&gt;Node3 -->
<g id="edge3" class="edge"><title>Node4&#45;&gt;Node3</title>
<path fill="none" stroke="midnightblue" d="M78,-428.109C78,-419.258 78,-410.096 78,-401.128"/>
<polygon fill="none" stroke="midnightblue" points="74.5001,-428.325 78,-438.325 81.5001,-428.325 74.5001,-428.325"/>
</g>
<!-- Node5 -->
<g id="node5" class="node"><title>Node5</title>
<g id="a_node5"><a xlink:href="interfacecom_1_1cloudera_1_1impala_1_1analysis_1_1ParseNode.html" target="_top" xlink:title="{com.cloudera.impala.analysis.\lParseNode\n||+ analyze()\l+ toSql()\l}">
<polygon fill="white" stroke="black" points="3.5,-576.5 3.5,-655.5 152.5,-655.5 152.5,-576.5 3.5,-576.5"/>
<text text-anchor="start" x="11.5" y="-643.5" font-family="Helvetica,sans-Serif" font-size="10.00">com.cloudera.impala.analysis.</text>
<text text-anchor="middle" x="78" y="-632.5" font-family="Helvetica,sans-Serif" font-size="10.00">ParseNode</text>
<polyline fill="none" stroke="black" points="3.5,-625.5 152.5,-625.5 "/>
<text text-anchor="middle" x="78" y="-613.5" font-family="Helvetica,sans-Serif" font-size="10.00"> </text>
<polyline fill="none" stroke="black" points="3.5,-606.5 152.5,-606.5 "/>
<text text-anchor="start" x="11.5" y="-594.5" font-family="Helvetica,sans-Serif" font-size="10.00">+ analyze()</text>
<text text-anchor="start" x="11.5" y="-583.5" font-family="Helvetica,sans-Serif" font-size="10.00">+ toSql()</text>
</a>
</g>
</g>
<!-- Node5&#45;&gt;Node4 -->
<g id="edge4" class="edge"><title>Node5&#45;&gt;Node4</title>
<path fill="none" stroke="midnightblue" d="M78,-566.406C78,-557.639 78,-548.488 78,-539.691"/>
<polygon fill="none" stroke="midnightblue" points="74.5001,-566.476 78,-576.476 81.5001,-566.476 74.5001,-566.476"/>
</g>
</g>
</svg>
