<?xml version="1.0" encoding="UTF-8" standalone="no"?>
<!DOCTYPE svg PUBLIC "-//W3C//DTD SVG 1.1//EN"
 "http://www.w3.org/Graphics/SVG/1.1/DTD/svg11.dtd">
<!-- Generated by graphviz version 2.36.0 (20140111.2315)
 -->
<!-- Title: com.cloudera.impala.hive.executor.ImpalaDoubleWritable Pages: 1 -->
<svg width="178pt" height="206pt"
 viewBox="0.00 0.00 178.00 206.00" xmlns="http://www.w3.org/2000/svg" xmlns:xlink="http://www.w3.org/1999/xlink">
<g id="graph0" class="graph" transform="scale(1 1) rotate(0) translate(4 202)">
<title>com.cloudera.impala.hive.executor.ImpalaDoubleWritable</title>
<polygon fill="white" stroke="none" points="-4,4 -4,-202 174,-202 174,4 -4,4"/>
<!-- Node1 -->
<g id="node1" class="node"><title>Node1</title>
<polygon fill="#bfbfbf" stroke="black" points="-0.5,-1 -0.5,-91 170.5,-91 170.5,-1 -0.5,-1"/>
<text text-anchor="start" x="7.5" y="-79" font-family="Helvetica,sans-Serif" font-size="10.00">com.cloudera.impala.hive.executor.</text>
<text text-anchor="middle" x="85" y="-68" font-family="Helvetica,sans-Serif" font-size="10.00">ImpalaDoubleWritable</text>
<polyline fill="none" stroke="black" points="-0.5,-61 170.5,-61 "/>
<text text-anchor="middle" x="85" y="-49" font-family="Helvetica,sans-Serif" font-size="10.00"> </text>
<polyline fill="none" stroke="black" points="-0.5,-42 170.5,-42 "/>
<text text-anchor="start" x="7.5" y="-30" font-family="Helvetica,sans-Serif" font-size="10.00">+ ImpalaDoubleWritable()</text>
<text text-anchor="start" x="7.5" y="-19" font-family="Helvetica,sans-Serif" font-size="10.00">+ get()</text>
<text text-anchor="start" x="7.5" y="-8" font-family="Helvetica,sans-Serif" font-size="10.00">+ set()</text>
</g>
<!-- Node2 -->
<g id="node2" class="node"><title>Node2</title>
<polygon fill="white" stroke="#bfbfbf" points="5.5,-140.5 5.5,-197.5 88.5,-197.5 88.5,-140.5 5.5,-140.5"/>
<text text-anchor="middle" x="47" y="-185.5" font-family="Helvetica,sans-Serif" font-size="10.00">DoubleWritable</text>
<polyline fill="none" stroke="#bfbfbf" points="5.5,-178.5 88.5,-178.5 "/>
<text text-anchor="middle" x="47" y="-166.5" font-family="Helvetica,sans-Serif" font-size="10.00"> </text>
<polyline fill="none" stroke="#bfbfbf" points="5.5,-159.5 88.5,-159.5 "/>
<text text-anchor="middle" x="47" y="-147.5" font-family="Helvetica,sans-Serif" font-size="10.00"> </text>
</g>
<!-- Node2&#45;&gt;Node1 -->
<g id="edge1" class="edge"><title>Node2&#45;&gt;Node1</title>
<path fill="none" stroke="midnightblue" d="M58.7372,-130.626C62.6509,-118.164 67.0486,-104.161 71.1097,-91.2295"/>
<polygon fill="none" stroke="midnightblue" points="55.375,-129.651 55.718,-140.24 62.0535,-131.748 55.375,-129.651"/>
</g>
<!-- Node3 -->
<g id="node3" class="node"><title>Node3</title>
<polygon fill="white" stroke="#bfbfbf" points="106.5,-140.5 106.5,-197.5 141.5,-197.5 141.5,-140.5 106.5,-140.5"/>
<text text-anchor="middle" x="124" y="-185.5" font-family="Helvetica,sans-Serif" font-size="10.00">long</text>
<polyline fill="none" stroke="#bfbfbf" points="106.5,-178.5 141.5,-178.5 "/>
<text text-anchor="middle" x="124" y="-166.5" font-family="Helvetica,sans-Serif" font-size="10.00"> </text>
<polyline fill="none" stroke="#bfbfbf" points="106.5,-159.5 141.5,-159.5 "/>
<text text-anchor="middle" x="124" y="-147.5" font-family="Helvetica,sans-Serif" font-size="10.00"> </text>
</g>
<!-- Node3&#45;&gt;Node1 -->
<g id="edge2" class="edge"><title>Node3&#45;&gt;Node1</title>
<path fill="none" stroke="#404040" d="M115.053,-140.24C111.471,-129.129 107.21,-115.909 103.039,-102.968"/>
<polygon fill="none" stroke="#404040" points="102.937,-102.651 97.2893,-98.1674 99.2558,-91.2295 104.904,-95.7131 102.937,-102.651"/>
<text text-anchor="middle" x="120.5" y="-113.5" font-family="Helvetica,sans-Serif" font-size="10.00"> &#45;ptr_</text>
</g>
</g>
</svg>
