<?xml version="1.0" encoding="UTF-8" standalone="no"?>
<!DOCTYPE svg PUBLIC "-//W3C//DTD SVG 1.1//EN"
 "http://www.w3.org/Graphics/SVG/1.1/DTD/svg11.dtd">
<!-- Generated by graphviz version 2.36.0 (20140111.2315)
 -->
<!-- Title: com.cloudera.impala.analysis.DropTableOrViewStmt Pages: 1 -->
<!--zoomable 542 -->
<svg id="main" version="1.1" xmlns="http://www.w3.org/2000/svg" xmlns:xlink="http://www.w3.org/1999/xlink" xml:space="preserve" onload="init(evt)">
<style type="text/css"><![CDATA[
.edge:hover path { stroke: red; }
.edge:hover polygon { stroke: red; fill: red; }
]]></style>
<script type="text/javascript"><![CDATA[
var edges = document.getElementsByTagName('g');
if (edges && edges.length) {
  for (var i=0;i<edges.length;i++) {
    if (edges[i].id.substr(0,4)=='edge') {
      edges[i].setAttribute('class','edge');
    }
  }
}
]]></script>
        <defs>
                <circle id="rim" cx="0" cy="0" r="7"/>
                <circle id="rim2" cx="0" cy="0" r="3.5"/>
                <g id="zoomPlus">
                        <use xlink:href="#rim" fill="#404040">
                                <set attributeName="fill" to="#808080" begin="zoomplus.mouseover" end="zoomplus.mouseout"/>
                        </use>
                        <path d="M-4,0h8M0,-4v8" fill="none" stroke="white" stroke-width="1.5" pointer-events="none"/>
                </g>
                <g id="zoomMin">
                        <use xlink:href="#rim" fill="#404040">
                                <set attributeName="fill" to="#808080" begin="zoomminus.mouseover" end="zoomminus.mouseout"/>
                        </use>
                        <path d="M-4,0h8" fill="none" stroke="white" stroke-width="1.5" pointer-events="none"/>
                </g>
                <g id="dirArrow">
                        <path fill="none" stroke="white" stroke-width="1.5" d="M0,-3.0v7 M-2.5,-0.5L0,-3.0L2.5,-0.5"/>
                </g>
               <g id="resetDef">
                       <use xlink:href="#rim2" fill="#404040">
                               <set attributeName="fill" to="#808080" begin="reset.mouseover" end="reset.mouseout"/>
                       </use>
               </g>
        </defs>

<script type="text/javascript">
var viewWidth = 510;
var viewHeight = 542;
var sectionId = 'dynsection-1';
</script>
<script xlink:href="svgpan.js"/>
<svg id="graph" class="graph">
<g id="viewport">
<title>com.cloudera.impala.analysis.DropTableOrViewStmt</title>
<polygon fill="white" stroke="none" points="-4,4 -4,-538 506,-538 506,4 -4,4"/>
<!-- Node1 -->
<g id="node1" class="node"><title>Node1</title>
<polygon fill="#bfbfbf" stroke="black" points="162.5,-0.5 162.5,-145.5 311.5,-145.5 311.5,-0.5 162.5,-0.5"/>
<text text-anchor="start" x="170.5" y="-133.5" font-family="Helvetica,sans-Serif" font-size="10.00">com.cloudera.impala.analysis.</text>
<text text-anchor="middle" x="237" y="-122.5" font-family="Helvetica,sans-Serif" font-size="10.00">DropTableOrViewStmt</text>
<polyline fill="none" stroke="black" points="162.5,-115.5 311.5,-115.5 "/>
<text text-anchor="middle" x="237" y="-103.5" font-family="Helvetica,sans-Serif" font-size="10.00"> </text>
<polyline fill="none" stroke="black" points="162.5,-96.5 311.5,-96.5 "/>
<text text-anchor="start" x="170.5" y="-84.5" font-family="Helvetica,sans-Serif" font-size="10.00">+ DropTableOrViewStmt()</text>
<text text-anchor="start" x="170.5" y="-73.5" font-family="Helvetica,sans-Serif" font-size="10.00">+ toSql()</text>
<text text-anchor="start" x="170.5" y="-62.5" font-family="Helvetica,sans-Serif" font-size="10.00">+ toThrift()</text>
<text text-anchor="start" x="170.5" y="-51.5" font-family="Helvetica,sans-Serif" font-size="10.00">+ analyze()</text>
<text text-anchor="start" x="170.5" y="-40.5" font-family="Helvetica,sans-Serif" font-size="10.00">+ getDb()</text>
<text text-anchor="start" x="170.5" y="-29.5" font-family="Helvetica,sans-Serif" font-size="10.00">+ getTbl()</text>
<text text-anchor="start" x="170.5" y="-18.5" font-family="Helvetica,sans-Serif" font-size="10.00">+ getIfExists()</text>
<text text-anchor="start" x="170.5" y="-7.5" font-family="Helvetica,sans-Serif" font-size="10.00">+ isDropTable()</text>
</g>
<!-- Node2 -->
<g id="node2" class="node"><title>Node2</title>
<g id="a_node2"><a xlink:href="classcom_1_1cloudera_1_1impala_1_1analysis_1_1StatementBase.html" target="_top" xlink:title="{com.cloudera.impala.analysis.\lStatementBase\n||+ analyze()\l+ toSql()\l+ setIsExplain()\l+ isExplain()\l}">
<polygon fill="white" stroke="black" points="6.5,-244.5 6.5,-345.5 155.5,-345.5 155.5,-244.5 6.5,-244.5"/>
<text text-anchor="start" x="14.5" y="-333.5" font-family="Helvetica,sans-Serif" font-size="10.00">com.cloudera.impala.analysis.</text>
<text text-anchor="middle" x="81" y="-322.5" font-family="Helvetica,sans-Serif" font-size="10.00">StatementBase</text>
<polyline fill="none" stroke="black" points="6.5,-315.5 155.5,-315.5 "/>
<text text-anchor="middle" x="81" y="-303.5" font-family="Helvetica,sans-Serif" font-size="10.00"> </text>
<polyline fill="none" stroke="black" points="6.5,-296.5 155.5,-296.5 "/>
<text text-anchor="start" x="14.5" y="-284.5" font-family="Helvetica,sans-Serif" font-size="10.00">+ analyze()</text>
<text text-anchor="start" x="14.5" y="-273.5" font-family="Helvetica,sans-Serif" font-size="10.00">+ toSql()</text>
<text text-anchor="start" x="14.5" y="-262.5" font-family="Helvetica,sans-Serif" font-size="10.00">+ setIsExplain()</text>
<text text-anchor="start" x="14.5" y="-251.5" font-family="Helvetica,sans-Serif" font-size="10.00">+ isExplain()</text>
</a>
</g>
</g>
<!-- Node2&#45;&gt;Node1 -->
<g id="edge1" class="edge"><title>Node2&#45;&gt;Node1</title>
<path fill="none" stroke="midnightblue" d="M122.162,-235.95C141.805,-208.249 165.495,-174.841 186.243,-145.581"/>
<polygon fill="none" stroke="midnightblue" points="119.133,-234.172 116.204,-244.353 124.843,-238.221 119.133,-234.172"/>
</g>
<!-- Node3 -->
<g id="node3" class="node"><title>Node3</title>
<g id="a_node3"><a xlink:href="interfacecom_1_1cloudera_1_1impala_1_1analysis_1_1ParseNode.html" target="_top" xlink:title="{com.cloudera.impala.analysis.\lParseNode\n||+ analyze()\l+ toSql()\l}">
<polygon fill="white" stroke="black" points="-0.5,-454.5 -0.5,-533.5 148.5,-533.5 148.5,-454.5 -0.5,-454.5"/>
<text text-anchor="start" x="7.5" y="-521.5" font-family="Helvetica,sans-Serif" font-size="10.00">com.cloudera.impala.analysis.</text>
<text text-anchor="middle" x="74" y="-510.5" font-family="Helvetica,sans-Serif" font-size="10.00">ParseNode</text>
<polyline fill="none" stroke="black" points="-0.5,-503.5 148.5,-503.5 "/>
<text text-anchor="middle" x="74" y="-491.5" font-family="Helvetica,sans-Serif" font-size="10.00"> </text>
<polyline fill="none" stroke="black" points="-0.5,-484.5 148.5,-484.5 "/>
<text text-anchor="start" x="7.5" y="-472.5" font-family="Helvetica,sans-Serif" font-size="10.00">+ analyze()</text>
<text text-anchor="start" x="7.5" y="-461.5" font-family="Helvetica,sans-Serif" font-size="10.00">+ toSql()</text>
</a>
</g>
</g>
<!-- Node3&#45;&gt;Node2 -->
<g id="edge2" class="edge"><title>Node3&#45;&gt;Node2</title>
<path fill="none" stroke="midnightblue" d="M75.7462,-443.856C76.8104,-413.909 78.1661,-375.754 79.2338,-345.705"/>
<polygon fill="none" stroke="midnightblue" points="72.2404,-443.961 75.383,-454.079 79.236,-444.21 72.2404,-443.961"/>
</g>
<!-- Node4 -->
<g id="node4" class="node"><title>Node4</title>
<polygon fill="white" stroke="#bfbfbf" points="166,-465.5 166,-522.5 216,-522.5 216,-465.5 166,-465.5"/>
<text text-anchor="middle" x="191" y="-510.5" font-family="Helvetica,sans-Serif" font-size="10.00">boolean</text>
<polyline fill="none" stroke="#bfbfbf" points="166,-503.5 216,-503.5 "/>
<text text-anchor="middle" x="191" y="-491.5" font-family="Helvetica,sans-Serif" font-size="10.00"> </text>
<polyline fill="none" stroke="#bfbfbf" points="166,-484.5 216,-484.5 "/>
<text text-anchor="middle" x="191" y="-472.5" font-family="Helvetica,sans-Serif" font-size="10.00"> </text>
</g>
<!-- Node4&#45;&gt;Node1 -->
<g id="edge7" class="edge"><title>Node4&#45;&gt;Node1</title>
<path fill="none" stroke="#404040" d="M190.33,-465.184C189.486,-412.107 189.685,-292.856 205,-194 206.832,-182.175 209.374,-169.836 212.231,-157.764"/>
<polygon fill="none" stroke="#404040" points="212.306,-157.459 209.859,-150.676 215.179,-145.808 217.626,-152.592 212.306,-157.459"/>
<text text-anchor="middle" x="233.5" y="-298" font-family="Helvetica,sans-Serif" font-size="10.00"> #dropTable_</text>
<text text-anchor="middle" x="233.5" y="-287" font-family="Helvetica,sans-Serif" font-size="10.00">#ifExists_</text>
</g>
<!-- Node4&#45;&gt;Node2 -->
<g id="edge3" class="edge"><title>Node4&#45;&gt;Node2</title>
<path fill="none" stroke="#404040" d="M169.154,-465.311C165.335,-461.269 161.223,-457.348 157,-454 143.602,-443.378 133.853,-449.212 123,-436 104.772,-413.81 94.4521,-383.88 88.6108,-357.389"/>
<polygon fill="none" stroke="#404040" points="88.5863,-357.266 83.486,-352.169 86.2298,-345.5 91.3302,-350.598 88.5863,-357.266"/>
<text text-anchor="middle" x="150" y="-422.5" font-family="Helvetica,sans-Serif" font-size="10.00"> #isExplain_</text>
</g>
<!-- Node5 -->
<g id="node5" class="node"><title>Node5</title>
<polygon fill="white" stroke="#bfbfbf" points="307,-465.5 307,-522.5 349,-522.5 349,-465.5 307,-465.5"/>
<text text-anchor="middle" x="328" y="-510.5" font-family="Helvetica,sans-Serif" font-size="10.00">String</text>
<polyline fill="none" stroke="#bfbfbf" points="307,-503.5 349,-503.5 "/>
<text text-anchor="middle" x="328" y="-491.5" font-family="Helvetica,sans-Serif" font-size="10.00"> </text>
<polyline fill="none" stroke="#bfbfbf" points="307,-484.5 349,-484.5 "/>
<text text-anchor="middle" x="328" y="-472.5" font-family="Helvetica,sans-Serif" font-size="10.00"> </text>
</g>
<!-- Node5&#45;&gt;Node1 -->
<g id="edge4" class="edge"><title>Node5&#45;&gt;Node1</title>
<path fill="none" stroke="#404040" d="M316.828,-465.391C309.433,-446.199 300.024,-419.878 294,-396 271.765,-307.864 278.385,-283.408 262,-194 259.842,-182.226 257.426,-169.832 254.968,-157.66"/>
<polygon fill="none" stroke="#404040" points="254.905,-157.35 249.786,-152.271 252.505,-145.592 257.624,-150.671 254.905,-157.35"/>
<text text-anchor="middle" x="319.5" y="-292.5" font-family="Helvetica,sans-Serif" font-size="10.00"> #dbName_</text>
</g>
<!-- Node6 -->
<g id="node6" class="node"><title>Node6</title>
<g id="a_node6"><a xlink:href="classcom_1_1cloudera_1_1impala_1_1analysis_1_1TableName.html" target="_top" xlink:title="{com.cloudera.impala.analysis.\lTableName\n||+ TableName()\l+ getDb()\l+ getTbl()\l+ isEmpty()\l+ analyze()\l+ isFullyQualified()\l+ toSql()\l+ toString()\l+ toPath()\l+ toThrift()\l+ equals()\l+ hashCode()\l+ fromThrift()\l}">
<polygon fill="white" stroke="black" points="353.5,-195 353.5,-395 502.5,-395 502.5,-195 353.5,-195"/>
<text text-anchor="start" x="361.5" y="-383" font-family="Helvetica,sans-Serif" font-size="10.00">com.cloudera.impala.analysis.</text>
<text text-anchor="middle" x="428" y="-372" font-family="Helvetica,sans-Serif" font-size="10.00">TableName</text>
<polyline fill="none" stroke="black" points="353.5,-365 502.5,-365 "/>
<text text-anchor="middle" x="428" y="-353" font-family="Helvetica,sans-Serif" font-size="10.00"> </text>
<polyline fill="none" stroke="black" points="353.5,-346 502.5,-346 "/>
<text text-anchor="start" x="361.5" y="-334" font-family="Helvetica,sans-Serif" font-size="10.00">+ TableName()</text>
<text text-anchor="start" x="361.5" y="-323" font-family="Helvetica,sans-Serif" font-size="10.00">+ getDb()</text>
<text text-anchor="start" x="361.5" y="-312" font-family="Helvetica,sans-Serif" font-size="10.00">+ getTbl()</text>
<text text-anchor="start" x="361.5" y="-301" font-family="Helvetica,sans-Serif" font-size="10.00">+ isEmpty()</text>
<text text-anchor="start" x="361.5" y="-290" font-family="Helvetica,sans-Serif" font-size="10.00">+ analyze()</text>
<text text-anchor="start" x="361.5" y="-279" font-family="Helvetica,sans-Serif" font-size="10.00">+ isFullyQualified()</text>
<text text-anchor="start" x="361.5" y="-268" font-family="Helvetica,sans-Serif" font-size="10.00">+ toSql()</text>
<text text-anchor="start" x="361.5" y="-257" font-family="Helvetica,sans-Serif" font-size="10.00">+ toString()</text>
<text text-anchor="start" x="361.5" y="-246" font-family="Helvetica,sans-Serif" font-size="10.00">+ toPath()</text>
<text text-anchor="start" x="361.5" y="-235" font-family="Helvetica,sans-Serif" font-size="10.00">+ toThrift()</text>
<text text-anchor="start" x="361.5" y="-224" font-family="Helvetica,sans-Serif" font-size="10.00">+ equals()</text>
<text text-anchor="start" x="361.5" y="-213" font-family="Helvetica,sans-Serif" font-size="10.00">+ hashCode()</text>
<text text-anchor="start" x="361.5" y="-202" font-family="Helvetica,sans-Serif" font-size="10.00">+ fromThrift()</text>
</a>
</g>
</g>
<!-- Node5&#45;&gt;Node6 -->
<g id="edge6" class="edge"><title>Node5&#45;&gt;Node6</title>
<path fill="none" stroke="#404040" d="M342.115,-465.193C350.212,-449.242 360.962,-428.064 372.109,-406.106"/>
<polygon fill="none" stroke="#404040" points="372.171,-405.984 371.32,-398.823 377.602,-395.283 378.453,-402.444 372.171,-405.984"/>
<text text-anchor="middle" x="378" y="-428" font-family="Helvetica,sans-Serif" font-size="10.00"> &#45;db_</text>
<text text-anchor="middle" x="378" y="-417" font-family="Helvetica,sans-Serif" font-size="10.00">&#45;tbl_</text>
</g>
<!-- Node6&#45;&gt;Node1 -->
<g id="edge5" class="edge"><title>Node6&#45;&gt;Node1</title>
<path fill="none" stroke="#404040" d="M353.334,-207.997C338.238,-190.609 322.412,-172.38 307.466,-155.165"/>
<polygon fill="none" stroke="#404040" points="307.13,-154.778 300.176,-152.87 299.263,-145.717 306.217,-147.625 307.13,-154.778"/>
<text text-anchor="middle" x="352.5" y="-167.5" font-family="Helvetica,sans-Serif" font-size="10.00"> #tableName_</text>
</g>
</g>
</svg>
        <g id="navigator" transform="translate(0 0)" fill="#404254">
                <rect fill="#f2f5e9" fill-opacity="0.5" stroke="#606060" stroke-width=".5" x="0" y="0" width="60" height="60"/>
                <use id="zoomplus" xlink:href="#zoomPlus" x="17" y="9" onmousedown="handleZoom(evt,'in')"/>
                <use id="zoomminus" xlink:href="#zoomMin" x="42" y="9" onmousedown="handleZoom(evt,'out')"/>
                <use id="reset" xlink:href="#resetDef" x="30" y="36" onmousedown="handleReset()"/>
                <g id="arrowUp" xlink:href="#dirArrow" transform="translate(30 24)" onmousedown="handlePan(0,-1)">
                  <use xlink:href="#rim" fill="#404040">
                        <set attributeName="fill" to="#808080" begin="arrowUp.mouseover" end="arrowUp.mouseout"/>
                  </use>
                  <path fill="none" stroke="white" stroke-width="1.5" d="M0,-3.0v7 M-2.5,-0.5L0,-3.0L2.5,-0.5"/>
                </g>
                <g id="arrowRight" xlink:href="#dirArrow" transform="rotate(90) translate(36 -43)" onmousedown="handlePan(1,0)">
                  <use xlink:href="#rim" fill="#404040">
                        <set attributeName="fill" to="#808080" begin="arrowRight.mouseover" end="arrowRight.mouseout"/>
                  </use>
                  <path fill="none" stroke="white" stroke-width="1.5" d="M0,-3.0v7 M-2.5,-0.5L0,-3.0L2.5,-0.5"/>
                </g>
                <g id="arrowDown" xlink:href="#dirArrow" transform="rotate(180) translate(-30 -48)" onmousedown="handlePan(0,1)">
                  <use xlink:href="#rim" fill="#404040">
                        <set attributeName="fill" to="#808080" begin="arrowDown.mouseover" end="arrowDown.mouseout"/>
                  </use>
                  <path fill="none" stroke="white" stroke-width="1.5" d="M0,-3.0v7 M-2.5,-0.5L0,-3.0L2.5,-0.5"/>
                </g>
                <g id="arrowLeft" xlink:href="#dirArrow" transform="rotate(270) translate(-36 17)" onmousedown="handlePan(-1,0)">
                  <use xlink:href="#rim" fill="#404040">
                        <set attributeName="fill" to="#808080" begin="arrowLeft.mouseover" end="arrowLeft.mouseout"/>
                  </use>
                  <path fill="none" stroke="white" stroke-width="1.5" d="M0,-3.0v7 M-2.5,-0.5L0,-3.0L2.5,-0.5"/>
                </g>
        </g>
        <svg viewBox="0 0 15 15" width="100%" height="30px" preserveAspectRatio="xMaxYMin meet">
         <g id="arrow_out" transform="scale(0.3 0.3)">
          <a xlink:href="classcom_1_1cloudera_1_1impala_1_1analysis_1_1DropTableOrViewStmt__coll__graph_org.svg" target="_base">
           <rect id="button" ry="5" rx="5" y="6" x="6" height="38" width="38"
                fill="#f2f5e9" fill-opacity="0.5" stroke="#606060" stroke-width="1.0"/>
           <path id="arrow"
             d="M 11.500037,31.436501 C 11.940474,20.09759 22.043105,11.32322 32.158766,21.979434 L 37.068811,17.246167 C 37.068811,17.246167 37.088388,32 37.088388,32 L 22.160133,31.978069 C 22.160133,31.978069 26.997745,27.140456 26.997745,27.140456 C 18.528582,18.264221 13.291696,25.230495 11.500037,31.436501 z"
             style="fill:#404040;"/>
          </a>
         </g>
        </svg>
</svg>
