<?xml version="1.0" encoding="UTF-8" standalone="no"?>
<!DOCTYPE svg PUBLIC "-//W3C//DTD SVG 1.1//EN"
 "http://www.w3.org/Graphics/SVG/1.1/DTD/svg11.dtd">
<!-- Generated by graphviz version 2.36.0 (20140111.2315)
 -->
<!-- Title: sasl::TSaslClient Pages: 1 -->
<svg width="331pt" height="432pt"
 viewBox="0.00 0.00 331.00 432.00" xmlns="http://www.w3.org/2000/svg" xmlns:xlink="http://www.w3.org/1999/xlink">
<g id="graph0" class="graph" transform="scale(1 1) rotate(0) translate(4 428)">
<title>sasl::TSaslClient</title>
<polygon fill="white" stroke="none" points="-4,4 -4,-428 327,-428 327,4 -4,4"/>
<!-- Node1 -->
<g id="node1" class="node"><title>Node1</title>
<polygon fill="#bfbfbf" stroke="black" points="118.5,-1 118.5,-113 285.5,-113 285.5,-1 118.5,-1"/>
<text text-anchor="middle" x="202" y="-101" font-family="Helvetica,sans-Serif" font-size="10.00">sasl::TSaslClient</text>
<polyline fill="none" stroke="black" points="118.5,-94 285.5,-94 "/>
<text text-anchor="middle" x="202" y="-82" font-family="Helvetica,sans-Serif" font-size="10.00"> </text>
<polyline fill="none" stroke="black" points="118.5,-75 285.5,-75 "/>
<text text-anchor="start" x="126.5" y="-63" font-family="Helvetica,sans-Serif" font-size="10.00">+ TSaslClient()</text>
<text text-anchor="start" x="126.5" y="-52" font-family="Helvetica,sans-Serif" font-size="10.00">+ evaluateChallengeOrResponse()</text>
<text text-anchor="start" x="126.5" y="-41" font-family="Helvetica,sans-Serif" font-size="10.00">+ getMechanismName()</text>
<text text-anchor="start" x="126.5" y="-30" font-family="Helvetica,sans-Serif" font-size="10.00">+ getNegotiatedProperty()</text>
<text text-anchor="start" x="126.5" y="-19" font-family="Helvetica,sans-Serif" font-size="10.00">+ hasInitialResponse()</text>
<text text-anchor="start" x="126.5" y="-8" font-family="Helvetica,sans-Serif" font-size="10.00">+ SaslInit()</text>
</g>
<!-- Node2 -->
<g id="node2" class="node"><title>Node2</title>
<g id="a_node2"><a xlink:href="classsasl_1_1TSasl.html" target="_top" xlink:title="{sasl::TSasl\n||+ ~TSasl()\l+ evaluateChallengeOrResponse()\l+ isComplete()\l+ unwrap()\l+ wrap()\l+ getMechanismName()\l+ hasInitialResponse()\l+ getUsername()\l+ SaslDone()\l}">
<polygon fill="white" stroke="black" points="-0.5,-172.5 -0.5,-317.5 166.5,-317.5 166.5,-172.5 -0.5,-172.5"/>
<text text-anchor="middle" x="83" y="-305.5" font-family="Helvetica,sans-Serif" font-size="10.00">sasl::TSasl</text>
<polyline fill="none" stroke="black" points="-0.5,-298.5 166.5,-298.5 "/>
<text text-anchor="middle" x="83" y="-286.5" font-family="Helvetica,sans-Serif" font-size="10.00"> </text>
<polyline fill="none" stroke="black" points="-0.5,-279.5 166.5,-279.5 "/>
<text text-anchor="start" x="7.5" y="-267.5" font-family="Helvetica,sans-Serif" font-size="10.00">+ ~TSasl()</text>
<text text-anchor="start" x="7.5" y="-256.5" font-family="Helvetica,sans-Serif" font-size="10.00">+ evaluateChallengeOrResponse()</text>
<text text-anchor="start" x="7.5" y="-245.5" font-family="Helvetica,sans-Serif" font-size="10.00">+ isComplete()</text>
<text text-anchor="start" x="7.5" y="-234.5" font-family="Helvetica,sans-Serif" font-size="10.00">+ unwrap()</text>
<text text-anchor="start" x="7.5" y="-223.5" font-family="Helvetica,sans-Serif" font-size="10.00">+ wrap()</text>
<text text-anchor="start" x="7.5" y="-212.5" font-family="Helvetica,sans-Serif" font-size="10.00">+ getMechanismName()</text>
<text text-anchor="start" x="7.5" y="-201.5" font-family="Helvetica,sans-Serif" font-size="10.00">+ hasInitialResponse()</text>
<text text-anchor="start" x="7.5" y="-190.5" font-family="Helvetica,sans-Serif" font-size="10.00">+ getUsername()</text>
<text text-anchor="start" x="7.5" y="-179.5" font-family="Helvetica,sans-Serif" font-size="10.00">+ SaslDone()</text>
</a>
</g>
</g>
<!-- Node2&#45;&gt;Node1 -->
<g id="edge1" class="edge"><title>Node2&#45;&gt;Node1</title>
<path fill="none" stroke="midnightblue" d="M134.485,-163.527C145.362,-146.526 156.604,-128.956 166.719,-113.145"/>
<polygon fill="none" stroke="midnightblue" points="131.279,-162.044 128.838,-172.354 137.176,-165.816 131.279,-162.044"/>
</g>
<!-- Node3 -->
<g id="node3" class="node"><title>Node3</title>
<polygon fill="white" stroke="#bfbfbf" points="26,-366.5 26,-423.5 102,-423.5 102,-366.5 26,-366.5"/>
<text text-anchor="middle" x="64" y="-411.5" font-family="Helvetica,sans-Serif" font-size="10.00">sasl_conn_t *</text>
<polyline fill="none" stroke="#bfbfbf" points="26,-404.5 102,-404.5 "/>
<text text-anchor="middle" x="64" y="-392.5" font-family="Helvetica,sans-Serif" font-size="10.00"> </text>
<polyline fill="none" stroke="#bfbfbf" points="26,-385.5 102,-385.5 "/>
<text text-anchor="middle" x="64" y="-373.5" font-family="Helvetica,sans-Serif" font-size="10.00"> </text>
</g>
<!-- Node3&#45;&gt;Node2 -->
<g id="edge2" class="edge"><title>Node3&#45;&gt;Node2</title>
<path fill="none" stroke="#404040" d="M63.462,-366.498C63.5406,-356.833 63.9321,-345.913 65,-336 65.2331,-333.836 65.4925,-331.648 65.7748,-329.442"/>
<polygon fill="none" stroke="#404040" points="65.7778,-329.421 62.671,-322.913 67.483,-317.543 70.5898,-324.05 65.7778,-329.421"/>
<text text-anchor="middle" x="80" y="-339.5" font-family="Helvetica,sans-Serif" font-size="10.00"> #conn</text>
</g>
<!-- Node4 -->
<g id="node4" class="node"><title>Node4</title>
<g id="a_node4"><a xlink:href="classbool.html" target="_top" xlink:title="{bool\n||}">
<polygon fill="white" stroke="black" points="152.5,-366.5 152.5,-423.5 187.5,-423.5 187.5,-366.5 152.5,-366.5"/>
<text text-anchor="middle" x="170" y="-411.5" font-family="Helvetica,sans-Serif" font-size="10.00">bool</text>
<polyline fill="none" stroke="black" points="152.5,-404.5 187.5,-404.5 "/>
<text text-anchor="middle" x="170" y="-392.5" font-family="Helvetica,sans-Serif" font-size="10.00"> </text>
<polyline fill="none" stroke="black" points="152.5,-385.5 187.5,-385.5 "/>
<text text-anchor="middle" x="170" y="-373.5" font-family="Helvetica,sans-Serif" font-size="10.00"> </text>
</a>
</g>
</g>
<!-- Node4&#45;&gt;Node1 -->
<g id="edge5" class="edge"><title>Node4&#45;&gt;Node1</title>
<path fill="none" stroke="#404040" d="M182.529,-366.227C184.721,-360.318 186.709,-354.038 188,-348 204.036,-272.989 205.954,-184.684 204.872,-125.395"/>
<polygon fill="none" stroke="#404040" points="204.868,-125.196 200.735,-119.287 204.6,-113.199 208.733,-119.108 204.868,-125.196"/>
<text text-anchor="middle" x="235.5" y="-242.5" font-family="Helvetica,sans-Serif" font-size="10.00"> &#45;clientStarted</text>
</g>
<!-- Node4&#45;&gt;Node2 -->
<g id="edge3" class="edge"><title>Node4&#45;&gt;Node2</title>
<path fill="none" stroke="#404040" d="M152.433,-382.141C141.207,-373.765 127.1,-361.634 118,-348 114.038,-342.064 110.48,-335.635 107.294,-328.991"/>
<polygon fill="none" stroke="#404040" points="107.133,-328.628 101.047,-324.76 102.276,-317.655 108.362,-321.522 107.133,-328.628"/>
<text text-anchor="middle" x="153" y="-339.5" font-family="Helvetica,sans-Serif" font-size="10.00"> #authComplete</text>
</g>
<!-- Node5 -->
<g id="node5" class="node"><title>Node5</title>
<polygon fill="white" stroke="#bfbfbf" points="281.5,-216.5 281.5,-273.5 322.5,-273.5 322.5,-216.5 281.5,-216.5"/>
<text text-anchor="middle" x="302" y="-261.5" font-family="Helvetica,sans-Serif" font-size="10.00">string</text>
<polyline fill="none" stroke="#bfbfbf" points="281.5,-254.5 322.5,-254.5 "/>
<text text-anchor="middle" x="302" y="-242.5" font-family="Helvetica,sans-Serif" font-size="10.00"> </text>
<polyline fill="none" stroke="#bfbfbf" points="281.5,-235.5 322.5,-235.5 "/>
<text text-anchor="middle" x="302" y="-223.5" font-family="Helvetica,sans-Serif" font-size="10.00"> </text>
</g>
<!-- Node5&#45;&gt;Node1 -->
<g id="edge4" class="edge"><title>Node5&#45;&gt;Node1</title>
<path fill="none" stroke="#404040" d="M289.123,-216.436C282.685,-202.937 274.651,-186.506 267,-172 258.71,-156.282 249.437,-139.559 240.551,-123.902"/>
<polygon fill="none" stroke="#404040" points="240.425,-123.681 233.977,-120.453 234.477,-113.259 240.925,-116.487 240.425,-123.681"/>
<text text-anchor="middle" x="288" y="-146" font-family="Helvetica,sans-Serif" font-size="10.00"> &#45;chosenMech</text>
<text text-anchor="middle" x="288" y="-135" font-family="Helvetica,sans-Serif" font-size="10.00">&#45;mechList</text>
</g>
</g>
</svg>
