<?xml version="1.0" encoding="UTF-8" standalone="no"?>
<!DOCTYPE svg PUBLIC "-//W3C//DTD SVG 1.1//EN"
 "http://www.w3.org/Graphics/SVG/1.1/DTD/svg11.dtd">
<!-- Generated by graphviz version 2.36.0 (20140111.2315)
 -->
<!-- Title: com.cloudera.impala.analysis.DropDataSrcStmt Pages: 1 -->
<svg width="315pt" height="388pt"
 viewBox="0.00 0.00 315.00 388.00" xmlns="http://www.w3.org/2000/svg" xmlns:xlink="http://www.w3.org/1999/xlink">
<g id="graph0" class="graph" transform="scale(1 1) rotate(0) translate(4 384)">
<title>com.cloudera.impala.analysis.DropDataSrcStmt</title>
<polygon fill="white" stroke="none" points="-4,4 -4,-384 311,-384 311,4 -4,4"/>
<!-- Node1 -->
<g id="node1" class="node"><title>Node1</title>
<polygon fill="#bfbfbf" stroke="black" points="116.5,-0.5 116.5,-101.5 265.5,-101.5 265.5,-0.5 116.5,-0.5"/>
<text text-anchor="start" x="124.5" y="-89.5" font-family="Helvetica,sans-Serif" font-size="10.00">com.cloudera.impala.analysis.</text>
<text text-anchor="middle" x="191" y="-78.5" font-family="Helvetica,sans-Serif" font-size="10.00">DropDataSrcStmt</text>
<polyline fill="none" stroke="black" points="116.5,-71.5 265.5,-71.5 "/>
<text text-anchor="middle" x="191" y="-59.5" font-family="Helvetica,sans-Serif" font-size="10.00"> </text>
<polyline fill="none" stroke="black" points="116.5,-52.5 265.5,-52.5 "/>
<text text-anchor="start" x="124.5" y="-40.5" font-family="Helvetica,sans-Serif" font-size="10.00">+ DropDataSrcStmt()</text>
<text text-anchor="start" x="124.5" y="-29.5" font-family="Helvetica,sans-Serif" font-size="10.00">+ analyze()</text>
<text text-anchor="start" x="124.5" y="-18.5" font-family="Helvetica,sans-Serif" font-size="10.00">+ toSql()</text>
<text text-anchor="start" x="124.5" y="-7.5" font-family="Helvetica,sans-Serif" font-size="10.00">+ toThrift()</text>
</g>
<!-- Node2 -->
<g id="node2" class="node"><title>Node2</title>
<g id="a_node2"><a xlink:href="classcom_1_1cloudera_1_1impala_1_1analysis_1_1StatementBase.html" target="_top" xlink:title="{com.cloudera.impala.analysis.\lStatementBase\n||+ analyze()\l+ toSql()\l+ setIsExplain()\l+ isExplain()\l}">
<polygon fill="white" stroke="black" points="6.5,-150.5 6.5,-251.5 155.5,-251.5 155.5,-150.5 6.5,-150.5"/>
<text text-anchor="start" x="14.5" y="-239.5" font-family="Helvetica,sans-Serif" font-size="10.00">com.cloudera.impala.analysis.</text>
<text text-anchor="middle" x="81" y="-228.5" font-family="Helvetica,sans-Serif" font-size="10.00">StatementBase</text>
<polyline fill="none" stroke="black" points="6.5,-221.5 155.5,-221.5 "/>
<text text-anchor="middle" x="81" y="-209.5" font-family="Helvetica,sans-Serif" font-size="10.00"> </text>
<polyline fill="none" stroke="black" points="6.5,-202.5 155.5,-202.5 "/>
<text text-anchor="start" x="14.5" y="-190.5" font-family="Helvetica,sans-Serif" font-size="10.00">+ analyze()</text>
<text text-anchor="start" x="14.5" y="-179.5" font-family="Helvetica,sans-Serif" font-size="10.00">+ toSql()</text>
<text text-anchor="start" x="14.5" y="-168.5" font-family="Helvetica,sans-Serif" font-size="10.00">+ setIsExplain()</text>
<text text-anchor="start" x="14.5" y="-157.5" font-family="Helvetica,sans-Serif" font-size="10.00">+ isExplain()</text>
</a>
</g>
</g>
<!-- Node2&#45;&gt;Node1 -->
<g id="edge1" class="edge"><title>Node2&#45;&gt;Node1</title>
<path fill="none" stroke="midnightblue" d="M124.048,-142.08C134.001,-128.689 144.503,-114.559 154.163,-101.562"/>
<polygon fill="none" stroke="midnightblue" points="121.091,-140.193 117.934,-150.306 126.709,-144.368 121.091,-140.193"/>
</g>
<!-- Node3 -->
<g id="node3" class="node"><title>Node3</title>
<g id="a_node3"><a xlink:href="interfacecom_1_1cloudera_1_1impala_1_1analysis_1_1ParseNode.html" target="_top" xlink:title="{com.cloudera.impala.analysis.\lParseNode\n||+ analyze()\l+ toSql()\l}">
<polygon fill="white" stroke="black" points="-0.5,-300.5 -0.5,-379.5 148.5,-379.5 148.5,-300.5 -0.5,-300.5"/>
<text text-anchor="start" x="7.5" y="-367.5" font-family="Helvetica,sans-Serif" font-size="10.00">com.cloudera.impala.analysis.</text>
<text text-anchor="middle" x="74" y="-356.5" font-family="Helvetica,sans-Serif" font-size="10.00">ParseNode</text>
<polyline fill="none" stroke="black" points="-0.5,-349.5 148.5,-349.5 "/>
<text text-anchor="middle" x="74" y="-337.5" font-family="Helvetica,sans-Serif" font-size="10.00"> </text>
<polyline fill="none" stroke="black" points="-0.5,-330.5 148.5,-330.5 "/>
<text text-anchor="start" x="7.5" y="-318.5" font-family="Helvetica,sans-Serif" font-size="10.00">+ analyze()</text>
<text text-anchor="start" x="7.5" y="-307.5" font-family="Helvetica,sans-Serif" font-size="10.00">+ toSql()</text>
</a>
</g>
</g>
<!-- Node3&#45;&gt;Node2 -->
<g id="edge2" class="edge"><title>Node3&#45;&gt;Node2</title>
<path fill="none" stroke="midnightblue" d="M76.4939,-290.191C77.1357,-277.63 77.8268,-264.104 78.4704,-251.509"/>
<polygon fill="none" stroke="midnightblue" points="72.9835,-290.308 75.9685,-300.473 79.9743,-290.665 72.9835,-290.308"/>
</g>
<!-- Node4 -->
<g id="node4" class="node"><title>Node4</title>
<polygon fill="white" stroke="#bfbfbf" points="166,-311.5 166,-368.5 216,-368.5 216,-311.5 166,-311.5"/>
<text text-anchor="middle" x="191" y="-356.5" font-family="Helvetica,sans-Serif" font-size="10.00">boolean</text>
<polyline fill="none" stroke="#bfbfbf" points="166,-349.5 216,-349.5 "/>
<text text-anchor="middle" x="191" y="-337.5" font-family="Helvetica,sans-Serif" font-size="10.00"> </text>
<polyline fill="none" stroke="#bfbfbf" points="166,-330.5 216,-330.5 "/>
<text text-anchor="middle" x="191" y="-318.5" font-family="Helvetica,sans-Serif" font-size="10.00"> </text>
</g>
<!-- Node4&#45;&gt;Node1 -->
<g id="edge5" class="edge"><title>Node4&#45;&gt;Node1</title>
<path fill="none" stroke="#404040" d="M191,-311.481C191,-266.263 191,-175.154 191,-113.846"/>
<polygon fill="none" stroke="#404040" points="191,-113.624 187,-107.624 191,-101.624 195,-107.624 191,-113.624"/>
<text text-anchor="middle" x="213.5" y="-198.5" font-family="Helvetica,sans-Serif" font-size="10.00"> &#45;ifExists_</text>
</g>
<!-- Node4&#45;&gt;Node2 -->
<g id="edge3" class="edge"><title>Node4&#45;&gt;Node2</title>
<path fill="none" stroke="#404040" d="M169.154,-311.311C165.335,-307.269 161.223,-303.348 157,-300 143.602,-289.378 135.069,-294.111 123,-282 117.197,-276.177 112.01,-269.386 107.43,-262.266"/>
<polygon fill="none" stroke="#404040" points="107.271,-261.998 100.77,-258.876 101.152,-251.675 107.652,-254.797 107.271,-261.998"/>
<text text-anchor="middle" x="150" y="-273.5" font-family="Helvetica,sans-Serif" font-size="10.00"> #isExplain_</text>
</g>
<!-- Node5 -->
<g id="node5" class="node"><title>Node5</title>
<polygon fill="white" stroke="#bfbfbf" points="254,-172.5 254,-229.5 296,-229.5 296,-172.5 254,-172.5"/>
<text text-anchor="middle" x="275" y="-217.5" font-family="Helvetica,sans-Serif" font-size="10.00">String</text>
<polyline fill="none" stroke="#bfbfbf" points="254,-210.5 296,-210.5 "/>
<text text-anchor="middle" x="275" y="-198.5" font-family="Helvetica,sans-Serif" font-size="10.00"> </text>
<polyline fill="none" stroke="#bfbfbf" points="254,-191.5 296,-191.5 "/>
<text text-anchor="middle" x="275" y="-179.5" font-family="Helvetica,sans-Serif" font-size="10.00"> </text>
</g>
<!-- Node5&#45;&gt;Node1 -->
<g id="edge4" class="edge"><title>Node5&#45;&gt;Node1</title>
<path fill="none" stroke="#404040" d="M259.2,-172.162C249.609,-155.263 236.982,-133.016 225.203,-112.263"/>
<polygon fill="none" stroke="#404040" points="225.065,-112.019 218.624,-108.775 219.141,-101.583 225.582,-104.826 225.065,-112.019"/>
<text text-anchor="middle" x="271" y="-123.5" font-family="Helvetica,sans-Serif" font-size="10.00"> &#45;dataSrcName_</text>
</g>
</g>
</svg>
