<?xml version="1.0" encoding="UTF-8" standalone="no"?>
<!DOCTYPE svg PUBLIC "-//W3C//DTD SVG 1.1//EN"
 "http://www.w3.org/Graphics/SVG/1.1/DTD/svg11.dtd">
<!-- Generated by graphviz version 2.36.0 (20140111.2315)
 -->
<!-- Title: com.cloudera.impala.analysis.GrantRevokeRoleStmt Pages: 1 -->
<svg width="478pt" height="506pt"
 viewBox="0.00 0.00 478.00 506.00" xmlns="http://www.w3.org/2000/svg" xmlns:xlink="http://www.w3.org/1999/xlink">
<g id="graph0" class="graph" transform="scale(1 1) rotate(0) translate(4 502)">
<title>com.cloudera.impala.analysis.GrantRevokeRoleStmt</title>
<polygon fill="white" stroke="none" points="-4,4 -4,-502 474,-502 474,4 -4,4"/>
<!-- Node1 -->
<g id="node1" class="node"><title>Node1</title>
<polygon fill="#bfbfbf" stroke="black" points="168.5,-0.5 168.5,-101.5 317.5,-101.5 317.5,-0.5 168.5,-0.5"/>
<text text-anchor="start" x="176.5" y="-89.5" font-family="Helvetica,sans-Serif" font-size="10.00">com.cloudera.impala.analysis.</text>
<text text-anchor="middle" x="243" y="-78.5" font-family="Helvetica,sans-Serif" font-size="10.00">GrantRevokeRoleStmt</text>
<polyline fill="none" stroke="black" points="168.5,-71.5 317.5,-71.5 "/>
<text text-anchor="middle" x="243" y="-59.5" font-family="Helvetica,sans-Serif" font-size="10.00"> </text>
<polyline fill="none" stroke="black" points="168.5,-52.5 317.5,-52.5 "/>
<text text-anchor="start" x="176.5" y="-40.5" font-family="Helvetica,sans-Serif" font-size="10.00">+ GrantRevokeRoleStmt()</text>
<text text-anchor="start" x="176.5" y="-29.5" font-family="Helvetica,sans-Serif" font-size="10.00">+ toSql()</text>
<text text-anchor="start" x="176.5" y="-18.5" font-family="Helvetica,sans-Serif" font-size="10.00">+ toThrift()</text>
<text text-anchor="start" x="176.5" y="-7.5" font-family="Helvetica,sans-Serif" font-size="10.00">+ analyze()</text>
</g>
<!-- Node2 -->
<g id="node2" class="node"><title>Node2</title>
<g id="a_node2"><a xlink:href="classcom_1_1cloudera_1_1impala_1_1analysis_1_1AuthorizationStmt.html" target="_top" xlink:title="{com.cloudera.impala.analysis.\lAuthorizationStmt\n||+ analyze()\l}">
<polygon fill="white" stroke="black" points="168.5,-141 168.5,-209 317.5,-209 317.5,-141 168.5,-141"/>
<text text-anchor="start" x="176.5" y="-197" font-family="Helvetica,sans-Serif" font-size="10.00">com.cloudera.impala.analysis.</text>
<text text-anchor="middle" x="243" y="-186" font-family="Helvetica,sans-Serif" font-size="10.00">AuthorizationStmt</text>
<polyline fill="none" stroke="black" points="168.5,-179 317.5,-179 "/>
<text text-anchor="middle" x="243" y="-167" font-family="Helvetica,sans-Serif" font-size="10.00"> </text>
<polyline fill="none" stroke="black" points="168.5,-160 317.5,-160 "/>
<text text-anchor="start" x="176.5" y="-148" font-family="Helvetica,sans-Serif" font-size="10.00">+ analyze()</text>
</a>
</g>
</g>
<!-- Node2&#45;&gt;Node1 -->
<g id="edge1" class="edge"><title>Node2&#45;&gt;Node1</title>
<path fill="none" stroke="midnightblue" d="M243,-130.963C243,-121.45 243,-111.296 243,-101.548"/>
<polygon fill="none" stroke="midnightblue" points="239.5,-130.985 243,-140.985 246.5,-130.985 239.5,-130.985"/>
</g>
<!-- Node3 -->
<g id="node3" class="node"><title>Node3</title>
<g id="a_node3"><a xlink:href="classcom_1_1cloudera_1_1impala_1_1analysis_1_1StatementBase.html" target="_top" xlink:title="{com.cloudera.impala.analysis.\lStatementBase\n||+ analyze()\l+ toSql()\l+ setIsExplain()\l+ isExplain()\l}">
<polygon fill="white" stroke="black" points="52.5,-268.5 52.5,-369.5 201.5,-369.5 201.5,-268.5 52.5,-268.5"/>
<text text-anchor="start" x="60.5" y="-357.5" font-family="Helvetica,sans-Serif" font-size="10.00">com.cloudera.impala.analysis.</text>
<text text-anchor="middle" x="127" y="-346.5" font-family="Helvetica,sans-Serif" font-size="10.00">StatementBase</text>
<polyline fill="none" stroke="black" points="52.5,-339.5 201.5,-339.5 "/>
<text text-anchor="middle" x="127" y="-327.5" font-family="Helvetica,sans-Serif" font-size="10.00"> </text>
<polyline fill="none" stroke="black" points="52.5,-320.5 201.5,-320.5 "/>
<text text-anchor="start" x="60.5" y="-308.5" font-family="Helvetica,sans-Serif" font-size="10.00">+ analyze()</text>
<text text-anchor="start" x="60.5" y="-297.5" font-family="Helvetica,sans-Serif" font-size="10.00">+ toSql()</text>
<text text-anchor="start" x="60.5" y="-286.5" font-family="Helvetica,sans-Serif" font-size="10.00">+ setIsExplain()</text>
<text text-anchor="start" x="60.5" y="-275.5" font-family="Helvetica,sans-Serif" font-size="10.00">+ isExplain()</text>
</a>
</g>
</g>
<!-- Node3&#45;&gt;Node2 -->
<g id="edge2" class="edge"><title>Node3&#45;&gt;Node2</title>
<path fill="none" stroke="midnightblue" d="M174.013,-260.45C188.199,-243.084 203.296,-224.603 215.739,-209.371"/>
<polygon fill="none" stroke="midnightblue" points="171.187,-258.377 167.571,-268.335 176.608,-262.805 171.187,-258.377"/>
</g>
<!-- Node4 -->
<g id="node4" class="node"><title>Node4</title>
<g id="a_node4"><a xlink:href="interfacecom_1_1cloudera_1_1impala_1_1analysis_1_1ParseNode.html" target="_top" xlink:title="{com.cloudera.impala.analysis.\lParseNode\n||+ analyze()\l+ toSql()\l}">
<polygon fill="white" stroke="black" points="67.5,-418.5 67.5,-497.5 216.5,-497.5 216.5,-418.5 67.5,-418.5"/>
<text text-anchor="start" x="75.5" y="-485.5" font-family="Helvetica,sans-Serif" font-size="10.00">com.cloudera.impala.analysis.</text>
<text text-anchor="middle" x="142" y="-474.5" font-family="Helvetica,sans-Serif" font-size="10.00">ParseNode</text>
<polyline fill="none" stroke="black" points="67.5,-467.5 216.5,-467.5 "/>
<text text-anchor="middle" x="142" y="-455.5" font-family="Helvetica,sans-Serif" font-size="10.00"> </text>
<polyline fill="none" stroke="black" points="67.5,-448.5 216.5,-448.5 "/>
<text text-anchor="start" x="75.5" y="-436.5" font-family="Helvetica,sans-Serif" font-size="10.00">+ analyze()</text>
<text text-anchor="start" x="75.5" y="-425.5" font-family="Helvetica,sans-Serif" font-size="10.00">+ toSql()</text>
</a>
</g>
</g>
<!-- Node4&#45;&gt;Node3 -->
<g id="edge3" class="edge"><title>Node4&#45;&gt;Node3</title>
<path fill="none" stroke="midnightblue" d="M136.656,-408.191C135.281,-395.63 133.8,-382.104 132.421,-369.509"/>
<polygon fill="none" stroke="midnightblue" points="133.214,-408.914 137.782,-418.473 140.172,-408.152 133.214,-408.914"/>
</g>
<!-- Node5 -->
<g id="node5" class="node"><title>Node5</title>
<polygon fill="white" stroke="#bfbfbf" points="0,-429.5 0,-486.5 50,-486.5 50,-429.5 0,-429.5"/>
<text text-anchor="middle" x="25" y="-474.5" font-family="Helvetica,sans-Serif" font-size="10.00">boolean</text>
<polyline fill="none" stroke="#bfbfbf" points="0,-467.5 50,-467.5 "/>
<text text-anchor="middle" x="25" y="-455.5" font-family="Helvetica,sans-Serif" font-size="10.00"> </text>
<polyline fill="none" stroke="#bfbfbf" points="0,-448.5 50,-448.5 "/>
<text text-anchor="middle" x="25" y="-436.5" font-family="Helvetica,sans-Serif" font-size="10.00"> </text>
</g>
<!-- Node5&#45;&gt;Node1 -->
<g id="edge8" class="edge"><title>Node5&#45;&gt;Node1</title>
<path fill="none" stroke="#404040" d="M22.3551,-429.362C19.8575,-391.292 19.4453,-321.375 43,-268 70.7013,-205.23 124.351,-148.892 169.116,-109.503"/>
<polygon fill="none" stroke="#404040" points="169.16,-109.464 171.076,-102.512 178.23,-101.607 176.314,-108.559 169.16,-109.464"/>
<text text-anchor="middle" x="96" y="-236.5" font-family="Helvetica,sans-Serif" font-size="10.00"> &#45;isGrantStmt_</text>
</g>
<!-- Node5&#45;&gt;Node3 -->
<g id="edge4" class="edge"><title>Node5&#45;&gt;Node3</title>
<path fill="none" stroke="#404040" d="M45.6412,-429.276C56.2982,-414.962 69.7357,-396.914 82.603,-379.631"/>
<polygon fill="none" stroke="#404040" points="82.9215,-379.203 83.2962,-372.002 90.0878,-369.578 89.7131,-376.78 82.9215,-379.203"/>
<text text-anchor="middle" x="103" y="-391.5" font-family="Helvetica,sans-Serif" font-size="10.00"> #isExplain_</text>
</g>
<!-- Node6 -->
<g id="node6" class="node"><title>Node6</title>
<g id="a_node6"><a xlink:href="classcom_1_1cloudera_1_1impala_1_1authorization_1_1User.html" target="_top" xlink:title="{com.cloudera.impala.authorization.User\n||+ User()\l+ getName()\l+ getShortName()\l}">
<polygon fill="white" stroke="black" points="219.5,-279.5 219.5,-358.5 408.5,-358.5 408.5,-279.5 219.5,-279.5"/>
<text text-anchor="middle" x="314" y="-346.5" font-family="Helvetica,sans-Serif" font-size="10.00">com.cloudera.impala.authorization.User</text>
<polyline fill="none" stroke="black" points="219.5,-339.5 408.5,-339.5 "/>
<text text-anchor="middle" x="314" y="-327.5" font-family="Helvetica,sans-Serif" font-size="10.00"> </text>
<polyline fill="none" stroke="black" points="219.5,-320.5 408.5,-320.5 "/>
<text text-anchor="start" x="227.5" y="-308.5" font-family="Helvetica,sans-Serif" font-size="10.00">+ User()</text>
<text text-anchor="start" x="227.5" y="-297.5" font-family="Helvetica,sans-Serif" font-size="10.00">+ getName()</text>
<text text-anchor="start" x="227.5" y="-286.5" font-family="Helvetica,sans-Serif" font-size="10.00">+ getShortName()</text>
</a>
</g>
</g>
<!-- Node6&#45;&gt;Node2 -->
<g id="edge5" class="edge"><title>Node6&#45;&gt;Node2</title>
<path fill="none" stroke="#404040" d="M294.599,-279.198C285.512,-261.024 274.639,-239.279 265.223,-220.446"/>
<polygon fill="none" stroke="#404040" points="265.091,-220.183 258.83,-216.605 259.725,-209.45 265.986,-213.027 265.091,-220.183"/>
<text text-anchor="middle" x="319" y="-236.5" font-family="Helvetica,sans-Serif" font-size="10.00"> #requestingUser_</text>
</g>
<!-- Node7 -->
<g id="node7" class="node"><title>Node7</title>
<polygon fill="white" stroke="#bfbfbf" points="385,-429.5 385,-486.5 427,-486.5 427,-429.5 385,-429.5"/>
<text text-anchor="middle" x="406" y="-474.5" font-family="Helvetica,sans-Serif" font-size="10.00">String</text>
<polyline fill="none" stroke="#bfbfbf" points="385,-467.5 427,-467.5 "/>
<text text-anchor="middle" x="406" y="-455.5" font-family="Helvetica,sans-Serif" font-size="10.00"> </text>
<polyline fill="none" stroke="#bfbfbf" points="385,-448.5 427,-448.5 "/>
<text text-anchor="middle" x="406" y="-436.5" font-family="Helvetica,sans-Serif" font-size="10.00"> </text>
</g>
<!-- Node7&#45;&gt;Node1 -->
<g id="edge7" class="edge"><title>Node7&#45;&gt;Node1</title>
<path fill="none" stroke="#404040" d="M413.705,-429.309C422.796,-391.774 434.593,-323.108 417,-268 397.285,-206.245 350.188,-149.708 309.959,-109.978"/>
<polygon fill="none" stroke="#404040" points="309.841,-109.864 302.749,-108.558 301.228,-101.509 308.32,-102.816 309.841,-109.864"/>
<text text-anchor="middle" x="440.5" y="-242" font-family="Helvetica,sans-Serif" font-size="10.00"> &#45;roleName_</text>
<text text-anchor="middle" x="440.5" y="-231" font-family="Helvetica,sans-Serif" font-size="10.00">&#45;groupName_</text>
</g>
<!-- Node7&#45;&gt;Node6 -->
<g id="edge6" class="edge"><title>Node7&#45;&gt;Node6</title>
<path fill="none" stroke="#404040" d="M387.382,-429.276C375.704,-411.885 360.324,-388.982 346.662,-368.637"/>
<polygon fill="none" stroke="#404040" points="346.6,-368.546 339.935,-365.795 339.91,-358.584 346.576,-361.335 346.6,-368.546"/>
<text text-anchor="middle" x="384" y="-391.5" font-family="Helvetica,sans-Serif" font-size="10.00"> &#45;name_</text>
</g>
</g>
</svg>
