<?xml version="1.0" encoding="UTF-8" standalone="no"?>
<!DOCTYPE svg PUBLIC "-//W3C//DTD SVG 1.1//EN"
 "http://www.w3.org/Graphics/SVG/1.1/DTD/svg11.dtd">
<!-- Generated by graphviz version 2.36.0 (20140111.2315)
 -->
<!-- Title: impala::Status Pages: 1 -->
<svg width="328pt" height="532pt"
 viewBox="0.00 0.00 328.00 532.00" xmlns="http://www.w3.org/2000/svg" xmlns:xlink="http://www.w3.org/1999/xlink">
<g id="graph0" class="graph" transform="scale(1 1) rotate(0) translate(4 528)">
<title>impala::Status</title>
<polygon fill="white" stroke="none" points="-4,4 -4,-528 324,-528 324,4 -4,4"/>
<!-- Node1 -->
<g id="node1" class="node"><title>Node1</title>
<polygon fill="#bfbfbf" stroke="black" points="100,-0.5 100,-189.5 180,-189.5 180,-0.5 100,-0.5"/>
<text text-anchor="middle" x="140" y="-177.5" font-family="Helvetica,sans-Serif" font-size="10.00">impala::Status</text>
<polyline fill="none" stroke="black" points="100,-170.5 180,-170.5 "/>
<text text-anchor="middle" x="140" y="-158.5" font-family="Helvetica,sans-Serif" font-size="10.00"> </text>
<polyline fill="none" stroke="black" points="100,-151.5 180,-151.5 "/>
<text text-anchor="start" x="108" y="-139.5" font-family="Helvetica,sans-Serif" font-size="10.00">+ Status()</text>
<text text-anchor="start" x="108" y="-128.5" font-family="Helvetica,sans-Serif" font-size="10.00">+ Status()</text>
<text text-anchor="start" x="108" y="-117.5" font-family="Helvetica,sans-Serif" font-size="10.00">+ Status()</text>
<text text-anchor="start" x="108" y="-106.5" font-family="Helvetica,sans-Serif" font-size="10.00">+ Status()</text>
<text text-anchor="start" x="108" y="-95.5" font-family="Helvetica,sans-Serif" font-size="10.00">+ Status()</text>
<text text-anchor="start" x="108" y="-84.5" font-family="Helvetica,sans-Serif" font-size="10.00">+ Status()</text>
<text text-anchor="start" x="108" y="-73.5" font-family="Helvetica,sans-Serif" font-size="10.00">+ Status()</text>
<text text-anchor="start" x="108" y="-62.5" font-family="Helvetica,sans-Serif" font-size="10.00">+ Status()</text>
<text text-anchor="start" x="108" y="-51.5" font-family="Helvetica,sans-Serif" font-size="10.00">+ Status()</text>
<text text-anchor="start" x="108" y="-40.5" font-family="Helvetica,sans-Serif" font-size="10.00">+ Status()</text>
<text text-anchor="start" x="108" y="-29.5" font-family="Helvetica,sans-Serif" font-size="10.00">and 23 more...</text>
<text text-anchor="start" x="108" y="-18.5" font-family="Helvetica,sans-Serif" font-size="10.00">+ Expected()</text>
<text text-anchor="start" x="108" y="-7.5" font-family="Helvetica,sans-Serif" font-size="10.00">&#45; Status()</text>
</g>
<!-- Node1&#45;&gt;Node1 -->
<g id="edge5" class="edge"><title>Node1&#45;&gt;Node1</title>
<path fill="none" stroke="#404040" d="M180.119,-116.86C190.332,-115.423 198,-108.137 198,-95 198,-87.4053 195.437,-81.7659 191.301,-78.0817"/>
<polygon fill="none" stroke="#404040" points="191.095,-77.9903 183.99,-79.2237 180.119,-73.1397 187.223,-71.9064 191.095,-77.9903"/>
<text text-anchor="middle" x="259" y="-109" font-family="Helvetica,sans-Serif" font-size="10.00"> +CANCELLED</text>
<text text-anchor="middle" x="259" y="-98" font-family="Helvetica,sans-Serif" font-size="10.00">+OK</text>
<text text-anchor="middle" x="259" y="-87" font-family="Helvetica,sans-Serif" font-size="10.00">+MEM_LIMIT_EXCEEDED</text>
<text text-anchor="middle" x="259" y="-76" font-family="Helvetica,sans-Serif" font-size="10.00">+DEPRECATED_RPC</text>
</g>
<!-- Node2 -->
<g id="node2" class="node"><title>Node2</title>
<g id="a_node2"><a xlink:href="classimpala_1_1ErrorMsg.html" target="_top" xlink:title="{impala::ErrorMsg\n||+ ErrorMsg()\l+ ErrorMsg()\l+ ErrorMsg()\l+ ErrorMsg()\l+ ErrorMsg()\l+ ErrorMsg()\l+ ErrorMsg()\l+ ErrorMsg()\l+ ErrorMsg()\l+ ErrorMsg()\land 9 more...\l+ Init()\l}">
<polygon fill="white" stroke="black" points="94.5,-239 94.5,-417 185.5,-417 185.5,-239 94.5,-239"/>
<text text-anchor="middle" x="140" y="-405" font-family="Helvetica,sans-Serif" font-size="10.00">impala::ErrorMsg</text>
<polyline fill="none" stroke="black" points="94.5,-398 185.5,-398 "/>
<text text-anchor="middle" x="140" y="-386" font-family="Helvetica,sans-Serif" font-size="10.00"> </text>
<polyline fill="none" stroke="black" points="94.5,-379 185.5,-379 "/>
<text text-anchor="start" x="102.5" y="-367" font-family="Helvetica,sans-Serif" font-size="10.00">+ ErrorMsg()</text>
<text text-anchor="start" x="102.5" y="-356" font-family="Helvetica,sans-Serif" font-size="10.00">+ ErrorMsg()</text>
<text text-anchor="start" x="102.5" y="-345" font-family="Helvetica,sans-Serif" font-size="10.00">+ ErrorMsg()</text>
<text text-anchor="start" x="102.5" y="-334" font-family="Helvetica,sans-Serif" font-size="10.00">+ ErrorMsg()</text>
<text text-anchor="start" x="102.5" y="-323" font-family="Helvetica,sans-Serif" font-size="10.00">+ ErrorMsg()</text>
<text text-anchor="start" x="102.5" y="-312" font-family="Helvetica,sans-Serif" font-size="10.00">+ ErrorMsg()</text>
<text text-anchor="start" x="102.5" y="-301" font-family="Helvetica,sans-Serif" font-size="10.00">+ ErrorMsg()</text>
<text text-anchor="start" x="102.5" y="-290" font-family="Helvetica,sans-Serif" font-size="10.00">+ ErrorMsg()</text>
<text text-anchor="start" x="102.5" y="-279" font-family="Helvetica,sans-Serif" font-size="10.00">+ ErrorMsg()</text>
<text text-anchor="start" x="102.5" y="-268" font-family="Helvetica,sans-Serif" font-size="10.00">+ ErrorMsg()</text>
<text text-anchor="start" x="102.5" y="-257" font-family="Helvetica,sans-Serif" font-size="10.00">and 9 more...</text>
<text text-anchor="start" x="102.5" y="-246" font-family="Helvetica,sans-Serif" font-size="10.00">+ Init()</text>
</a>
</g>
</g>
<!-- Node2&#45;&gt;Node1 -->
<g id="edge1" class="edge"><title>Node2&#45;&gt;Node1</title>
<path fill="none" stroke="#404040" d="M140,-238.68C140,-226.644 140,-214.19 140,-201.883"/>
<polygon fill="none" stroke="#404040" points="140,-201.646 136,-195.646 140,-189.646 144,-195.646 140,-201.646"/>
<text text-anchor="middle" x="155.5" y="-211.5" font-family="Helvetica,sans-Serif" font-size="10.00"> &#45;msg_</text>
</g>
<!-- Node3 -->
<g id="node3" class="node"><title>Node3</title>
<polygon fill="white" stroke="#bfbfbf" points="-0.5,-466.5 -0.5,-523.5 104.5,-523.5 104.5,-466.5 -0.5,-466.5"/>
<text text-anchor="middle" x="52" y="-511.5" font-family="Helvetica,sans-Serif" font-size="10.00">vector&lt; std::string &gt;</text>
<polyline fill="none" stroke="#bfbfbf" points="-0.5,-504.5 104.5,-504.5 "/>
<text text-anchor="middle" x="52" y="-492.5" font-family="Helvetica,sans-Serif" font-size="10.00"> </text>
<polyline fill="none" stroke="#bfbfbf" points="-0.5,-485.5 104.5,-485.5 "/>
<text text-anchor="middle" x="52" y="-473.5" font-family="Helvetica,sans-Serif" font-size="10.00"> </text>
</g>
<!-- Node3&#45;&gt;Node2 -->
<g id="edge2" class="edge"><title>Node3&#45;&gt;Node2</title>
<path fill="none" stroke="#404040" d="M66.7292,-466.383C72.95,-454.719 80.5995,-440.376 88.5844,-425.404"/>
<polygon fill="none" stroke="#404040" points="88.7952,-425.009 88.0894,-417.832 94.4423,-414.421 95.1482,-421.597 88.7952,-425.009"/>
<text text-anchor="middle" x="100" y="-439.5" font-family="Helvetica,sans-Serif" font-size="10.00"> &#45;details_</text>
</g>
<!-- Node4 -->
<g id="node4" class="node"><title>Node4</title>
<polygon fill="white" stroke="#bfbfbf" points="122.5,-466.5 122.5,-523.5 157.5,-523.5 157.5,-466.5 122.5,-466.5"/>
<text text-anchor="middle" x="140" y="-511.5" font-family="Helvetica,sans-Serif" font-size="10.00">type</text>
<polyline fill="none" stroke="#bfbfbf" points="122.5,-504.5 157.5,-504.5 "/>
<text text-anchor="middle" x="140" y="-492.5" font-family="Helvetica,sans-Serif" font-size="10.00"> </text>
<polyline fill="none" stroke="#bfbfbf" points="122.5,-485.5 157.5,-485.5 "/>
<text text-anchor="middle" x="140" y="-473.5" font-family="Helvetica,sans-Serif" font-size="10.00"> </text>
</g>
<!-- Node4&#45;&gt;Node2 -->
<g id="edge3" class="edge"><title>Node4&#45;&gt;Node2</title>
<path fill="none" stroke="#404040" d="M140,-466.383C140,-455.739 140,-442.866 140,-429.319"/>
<polygon fill="none" stroke="#404040" points="140,-429.28 136,-423.28 140,-417.28 144,-423.28 140,-429.28"/>
<text text-anchor="middle" x="155.5" y="-439.5" font-family="Helvetica,sans-Serif" font-size="10.00"> &#45;error_</text>
</g>
<!-- Node5 -->
<g id="node5" class="node"><title>Node5</title>
<polygon fill="white" stroke="#bfbfbf" points="175.5,-466.5 175.5,-523.5 216.5,-523.5 216.5,-466.5 175.5,-466.5"/>
<text text-anchor="middle" x="196" y="-511.5" font-family="Helvetica,sans-Serif" font-size="10.00">string</text>
<polyline fill="none" stroke="#bfbfbf" points="175.5,-504.5 216.5,-504.5 "/>
<text text-anchor="middle" x="196" y="-492.5" font-family="Helvetica,sans-Serif" font-size="10.00"> </text>
<polyline fill="none" stroke="#bfbfbf" points="175.5,-485.5 216.5,-485.5 "/>
<text text-anchor="middle" x="196" y="-473.5" font-family="Helvetica,sans-Serif" font-size="10.00"> </text>
</g>
<!-- Node5&#45;&gt;Node2 -->
<g id="edge4" class="edge"><title>Node5&#45;&gt;Node2</title>
<path fill="none" stroke="#404040" d="M186.627,-466.383C182.978,-455.632 178.557,-442.605 173.908,-428.908"/>
<polygon fill="none" stroke="#404040" points="173.818,-428.643 168.102,-424.247 169.962,-417.28 175.678,-421.676 173.818,-428.643"/>
<text text-anchor="middle" x="205" y="-439.5" font-family="Helvetica,sans-Serif" font-size="10.00"> &#45;message_</text>
</g>
</g>
</svg>
