<?xml version="1.0" encoding="UTF-8" standalone="no"?>
<!DOCTYPE svg PUBLIC "-//W3C//DTD SVG 1.1//EN"
 "http://www.w3.org/Graphics/SVG/1.1/DTD/svg11.dtd">
<!-- Generated by graphviz version 2.36.0 (20140111.2315)
 -->
<!-- Title: com.cloudera.impala.analysis.ShowTablesStmt Pages: 1 -->
<svg width="315pt" height="464pt"
 viewBox="0.00 0.00 315.00 464.00" xmlns="http://www.w3.org/2000/svg" xmlns:xlink="http://www.w3.org/1999/xlink">
<g id="graph0" class="graph" transform="scale(1 1) rotate(0) translate(4 460)">
<title>com.cloudera.impala.analysis.ShowTablesStmt</title>
<polygon fill="white" stroke="none" points="-4,4 -4,-460 311,-460 311,4 -4,4"/>
<!-- Node1 -->
<g id="node1" class="node"><title>Node1</title>
<polygon fill="#bfbfbf" stroke="black" points="141.5,-0.5 141.5,-145.5 290.5,-145.5 290.5,-0.5 141.5,-0.5"/>
<text text-anchor="start" x="149.5" y="-133.5" font-family="Helvetica,sans-Serif" font-size="10.00">com.cloudera.impala.analysis.</text>
<text text-anchor="middle" x="216" y="-122.5" font-family="Helvetica,sans-Serif" font-size="10.00">ShowTablesStmt</text>
<polyline fill="none" stroke="black" points="141.5,-115.5 290.5,-115.5 "/>
<text text-anchor="middle" x="216" y="-103.5" font-family="Helvetica,sans-Serif" font-size="10.00"> </text>
<polyline fill="none" stroke="black" points="141.5,-96.5 290.5,-96.5 "/>
<text text-anchor="start" x="149.5" y="-84.5" font-family="Helvetica,sans-Serif" font-size="10.00">+ ShowTablesStmt()</text>
<text text-anchor="start" x="149.5" y="-73.5" font-family="Helvetica,sans-Serif" font-size="10.00">+ ShowTablesStmt()</text>
<text text-anchor="start" x="149.5" y="-62.5" font-family="Helvetica,sans-Serif" font-size="10.00">+ ShowTablesStmt()</text>
<text text-anchor="start" x="149.5" y="-51.5" font-family="Helvetica,sans-Serif" font-size="10.00">+ getPattern()</text>
<text text-anchor="start" x="149.5" y="-40.5" font-family="Helvetica,sans-Serif" font-size="10.00">+ getDb()</text>
<text text-anchor="start" x="149.5" y="-29.5" font-family="Helvetica,sans-Serif" font-size="10.00">+ toSql()</text>
<text text-anchor="start" x="149.5" y="-18.5" font-family="Helvetica,sans-Serif" font-size="10.00">+ analyze()</text>
<text text-anchor="start" x="149.5" y="-7.5" font-family="Helvetica,sans-Serif" font-size="10.00">+ toThrift()</text>
</g>
<!-- Node2 -->
<g id="node2" class="node"><title>Node2</title>
<g id="a_node2"><a xlink:href="classcom_1_1cloudera_1_1impala_1_1analysis_1_1StatementBase.html" target="_top" xlink:title="{com.cloudera.impala.analysis.\lStatementBase\n||+ analyze()\l+ toSql()\l+ setIsExplain()\l+ isExplain()\l}">
<polygon fill="white" stroke="black" points="57.5,-226.5 57.5,-327.5 206.5,-327.5 206.5,-226.5 57.5,-226.5"/>
<text text-anchor="start" x="65.5" y="-315.5" font-family="Helvetica,sans-Serif" font-size="10.00">com.cloudera.impala.analysis.</text>
<text text-anchor="middle" x="132" y="-304.5" font-family="Helvetica,sans-Serif" font-size="10.00">StatementBase</text>
<polyline fill="none" stroke="black" points="57.5,-297.5 206.5,-297.5 "/>
<text text-anchor="middle" x="132" y="-285.5" font-family="Helvetica,sans-Serif" font-size="10.00"> </text>
<polyline fill="none" stroke="black" points="57.5,-278.5 206.5,-278.5 "/>
<text text-anchor="start" x="65.5" y="-266.5" font-family="Helvetica,sans-Serif" font-size="10.00">+ analyze()</text>
<text text-anchor="start" x="65.5" y="-255.5" font-family="Helvetica,sans-Serif" font-size="10.00">+ toSql()</text>
<text text-anchor="start" x="65.5" y="-244.5" font-family="Helvetica,sans-Serif" font-size="10.00">+ setIsExplain()</text>
<text text-anchor="start" x="65.5" y="-233.5" font-family="Helvetica,sans-Serif" font-size="10.00">+ isExplain()</text>
</a>
</g>
</g>
<!-- Node2&#45;&gt;Node1 -->
<g id="edge1" class="edge"><title>Node2&#45;&gt;Node1</title>
<path fill="none" stroke="midnightblue" d="M156.544,-216.978C165.828,-194.652 176.497,-168.996 186.211,-145.635"/>
<polygon fill="none" stroke="midnightblue" points="153.264,-215.749 152.656,-226.327 159.728,-218.437 153.264,-215.749"/>
</g>
<!-- Node3 -->
<g id="node3" class="node"><title>Node3</title>
<g id="a_node3"><a xlink:href="interfacecom_1_1cloudera_1_1impala_1_1analysis_1_1ParseNode.html" target="_top" xlink:title="{com.cloudera.impala.analysis.\lParseNode\n||+ analyze()\l+ toSql()\l}">
<polygon fill="white" stroke="black" points="-0.5,-376.5 -0.5,-455.5 148.5,-455.5 148.5,-376.5 -0.5,-376.5"/>
<text text-anchor="start" x="7.5" y="-443.5" font-family="Helvetica,sans-Serif" font-size="10.00">com.cloudera.impala.analysis.</text>
<text text-anchor="middle" x="74" y="-432.5" font-family="Helvetica,sans-Serif" font-size="10.00">ParseNode</text>
<polyline fill="none" stroke="black" points="-0.5,-425.5 148.5,-425.5 "/>
<text text-anchor="middle" x="74" y="-413.5" font-family="Helvetica,sans-Serif" font-size="10.00"> </text>
<polyline fill="none" stroke="black" points="-0.5,-406.5 148.5,-406.5 "/>
<text text-anchor="start" x="7.5" y="-394.5" font-family="Helvetica,sans-Serif" font-size="10.00">+ analyze()</text>
<text text-anchor="start" x="7.5" y="-383.5" font-family="Helvetica,sans-Serif" font-size="10.00">+ toSql()</text>
</a>
</g>
</g>
<!-- Node3&#45;&gt;Node2 -->
<g id="edge2" class="edge"><title>Node3&#45;&gt;Node2</title>
<path fill="none" stroke="midnightblue" d="M94.3451,-366.943C99.7521,-354.172 105.601,-340.356 111.04,-327.509"/>
<polygon fill="none" stroke="midnightblue" points="90.9862,-365.9 90.3106,-376.473 97.4323,-368.629 90.9862,-365.9"/>
</g>
<!-- Node4 -->
<g id="node4" class="node"><title>Node4</title>
<polygon fill="white" stroke="#bfbfbf" points="166,-387.5 166,-444.5 216,-444.5 216,-387.5 166,-387.5"/>
<text text-anchor="middle" x="191" y="-432.5" font-family="Helvetica,sans-Serif" font-size="10.00">boolean</text>
<polyline fill="none" stroke="#bfbfbf" points="166,-425.5 216,-425.5 "/>
<text text-anchor="middle" x="191" y="-413.5" font-family="Helvetica,sans-Serif" font-size="10.00"> </text>
<polyline fill="none" stroke="#bfbfbf" points="166,-406.5 216,-406.5 "/>
<text text-anchor="middle" x="191" y="-394.5" font-family="Helvetica,sans-Serif" font-size="10.00"> </text>
</g>
<!-- Node4&#45;&gt;Node2 -->
<g id="edge3" class="edge"><title>Node4&#45;&gt;Node2</title>
<path fill="none" stroke="#404040" d="M179.06,-387.276C173.011,-373.23 165.413,-355.587 158.098,-338.601"/>
<polygon fill="none" stroke="#404040" points="158.098,-338.6 152.051,-334.671 153.351,-327.578 159.398,-331.507 158.098,-338.6"/>
<text text-anchor="middle" x="193" y="-349.5" font-family="Helvetica,sans-Serif" font-size="10.00"> #isExplain_</text>
</g>
<!-- Node5 -->
<g id="node5" class="node"><title>Node5</title>
<polygon fill="white" stroke="#bfbfbf" points="224,-248.5 224,-305.5 266,-305.5 266,-248.5 224,-248.5"/>
<text text-anchor="middle" x="245" y="-293.5" font-family="Helvetica,sans-Serif" font-size="10.00">String</text>
<polyline fill="none" stroke="#bfbfbf" points="224,-286.5 266,-286.5 "/>
<text text-anchor="middle" x="245" y="-274.5" font-family="Helvetica,sans-Serif" font-size="10.00"> </text>
<polyline fill="none" stroke="#bfbfbf" points="224,-267.5 266,-267.5 "/>
<text text-anchor="middle" x="245" y="-255.5" font-family="Helvetica,sans-Serif" font-size="10.00"> </text>
</g>
<!-- Node5&#45;&gt;Node1 -->
<g id="edge4" class="edge"><title>Node5&#45;&gt;Node1</title>
<path fill="none" stroke="#404040" d="M241.028,-248.336C237.672,-224.958 232.683,-190.207 228.041,-157.869"/>
<polygon fill="none" stroke="#404040" points="227.988,-157.5 223.176,-152.129 226.282,-145.622 231.094,-150.993 227.988,-157.5"/>
<text text-anchor="middle" x="270.5" y="-200" font-family="Helvetica,sans-Serif" font-size="10.00"> &#45;parsedDb_</text>
<text text-anchor="start" x="234" y="-189" font-family="Helvetica,sans-Serif" font-size="10.00">&#45;postAnalysisDb</text>
<text text-anchor="middle" x="270.5" y="-178" font-family="Helvetica,sans-Serif" font-size="10.00">_</text>
<text text-anchor="middle" x="270.5" y="-167" font-family="Helvetica,sans-Serif" font-size="10.00">&#45;pattern_</text>
</g>
</g>
</svg>
