<?xml version="1.0" encoding="UTF-8" standalone="no"?>
<!DOCTYPE svg PUBLIC "-//W3C//DTD SVG 1.1//EN"
 "http://www.w3.org/Graphics/SVG/1.1/DTD/svg11.dtd">
<!-- Generated by graphviz version 2.36.0 (20140111.2315)
 -->
<!-- Title: com.cloudera.impala.service.MetadataOp.DbsMetadata Pages: 1 -->
<svg width="852pt" height="196pt"
 viewBox="0.00 0.00 852.00 196.00" xmlns="http://www.w3.org/2000/svg" xmlns:xlink="http://www.w3.org/1999/xlink">
<g id="graph0" class="graph" transform="scale(1 1) rotate(0) translate(4 192)">
<title>com.cloudera.impala.service.MetadataOp.DbsMetadata</title>
<polygon fill="white" stroke="none" points="-4,4 -4,-192 848,-192 848,4 -4,4"/>
<!-- Node1 -->
<g id="node1" class="node"><title>Node1</title>
<polygon fill="#bfbfbf" stroke="black" points="289,-1 289,-69 433,-69 433,-1 289,-1"/>
<text text-anchor="start" x="297" y="-57" font-family="Helvetica,sans-Serif" font-size="10.00">com.cloudera.impala.service.</text>
<text text-anchor="middle" x="361" y="-46" font-family="Helvetica,sans-Serif" font-size="10.00">MetadataOp.DbsMetadata</text>
<polyline fill="none" stroke="black" points="289,-39 433,-39 "/>
<text text-anchor="middle" x="361" y="-27" font-family="Helvetica,sans-Serif" font-size="10.00"> </text>
<polyline fill="none" stroke="black" points="289,-20 433,-20 "/>
<text text-anchor="middle" x="361" y="-8" font-family="Helvetica,sans-Serif" font-size="10.00"> </text>
</g>
<!-- Node2 -->
<g id="node2" class="node"><title>Node2</title>
<polygon fill="white" stroke="#bfbfbf" points="0,-124.5 0,-181.5 76,-181.5 76,-124.5 0,-124.5"/>
<text text-anchor="middle" x="38" y="-169.5" font-family="Helvetica,sans-Serif" font-size="10.00">List&lt; String &gt;</text>
<polyline fill="none" stroke="#bfbfbf" points="0,-162.5 76,-162.5 "/>
<text text-anchor="middle" x="38" y="-150.5" font-family="Helvetica,sans-Serif" font-size="10.00"> </text>
<polyline fill="none" stroke="#bfbfbf" points="0,-143.5 76,-143.5 "/>
<text text-anchor="middle" x="38" y="-131.5" font-family="Helvetica,sans-Serif" font-size="10.00"> </text>
</g>
<!-- Node2&#45;&gt;Node1 -->
<g id="edge1" class="edge"><title>Node2&#45;&gt;Node1</title>
<path fill="none" stroke="#404040" d="M73.6647,-124.362C77.3906,-122.039 81.2053,-119.868 85,-118 146.336,-87.7998 220.913,-66.4635 277.076,-53.14"/>
<polygon fill="none" stroke="#404040" points="277.082,-53.1387 282.019,-47.8826 288.77,-50.4182 283.833,-55.6743 277.082,-53.1387"/>
<text text-anchor="middle" x="163.5" y="-91.5" font-family="Helvetica,sans-Serif" font-size="10.00"> +dbs</text>
</g>
<!-- Node3 -->
<g id="node3" class="node"><title>Node3</title>
<polygon fill="white" stroke="#bfbfbf" points="94,-119 94,-187 288,-187 288,-119 94,-119"/>
<text text-anchor="start" x="102" y="-175" font-family="Helvetica,sans-Serif" font-size="10.00">List&lt; List&lt; com.cloudera.impala.catalog.</text>
<text text-anchor="middle" x="191" y="-164" font-family="Helvetica,sans-Serif" font-size="10.00">Function &gt; &gt;</text>
<polyline fill="none" stroke="#bfbfbf" points="94,-157 288,-157 "/>
<text text-anchor="middle" x="191" y="-145" font-family="Helvetica,sans-Serif" font-size="10.00"> </text>
<polyline fill="none" stroke="#bfbfbf" points="94,-138 288,-138 "/>
<text text-anchor="middle" x="191" y="-126" font-family="Helvetica,sans-Serif" font-size="10.00"> </text>
</g>
<!-- Node3&#45;&gt;Node1 -->
<g id="edge2" class="edge"><title>Node3&#45;&gt;Node1</title>
<path fill="none" stroke="#404040" d="M239.715,-118.759C259.272,-105.415 281.983,-89.9174 302.429,-75.9661"/>
<polygon fill="none" stroke="#404040" points="302.66,-75.8088 305.361,-69.1229 312.572,-69.0451 309.87,-75.7311 302.66,-75.8088"/>
<text text-anchor="middle" x="306.5" y="-91.5" font-family="Helvetica,sans-Serif" font-size="10.00"> +functions</text>
</g>
<!-- Node4 -->
<g id="node4" class="node"><title>Node4</title>
<polygon fill="white" stroke="#bfbfbf" points="306,-124.5 306,-181.5 416,-181.5 416,-124.5 306,-124.5"/>
<text text-anchor="middle" x="361" y="-169.5" font-family="Helvetica,sans-Serif" font-size="10.00">List&lt; List&lt; String &gt; &gt;</text>
<polyline fill="none" stroke="#bfbfbf" points="306,-162.5 416,-162.5 "/>
<text text-anchor="middle" x="361" y="-150.5" font-family="Helvetica,sans-Serif" font-size="10.00"> </text>
<polyline fill="none" stroke="#bfbfbf" points="306,-143.5 416,-143.5 "/>
<text text-anchor="middle" x="361" y="-131.5" font-family="Helvetica,sans-Serif" font-size="10.00"> </text>
</g>
<!-- Node4&#45;&gt;Node1 -->
<g id="edge3" class="edge"><title>Node4&#45;&gt;Node1</title>
<path fill="none" stroke="#404040" d="M361,-124.215C361,-111.462 361,-96.0055 361,-81.6156"/>
<polygon fill="none" stroke="#404040" points="361,-81.3393 357,-75.3393 361,-69.3393 365,-75.3393 361,-81.3393"/>
<text text-anchor="middle" x="392" y="-91.5" font-family="Helvetica,sans-Serif" font-size="10.00"> +tableNames</text>
</g>
<!-- Node5 -->
<g id="node5" class="node"><title>Node5</title>
<polygon fill="white" stroke="#bfbfbf" points="434.5,-119 434.5,-187 607.5,-187 607.5,-119 434.5,-119"/>
<text text-anchor="start" x="442.5" y="-175" font-family="Helvetica,sans-Serif" font-size="10.00">Set&lt; com.cloudera.impala.analysis.</text>
<text text-anchor="middle" x="521" y="-164" font-family="Helvetica,sans-Serif" font-size="10.00">TableName &gt;</text>
<polyline fill="none" stroke="#bfbfbf" points="434.5,-157 607.5,-157 "/>
<text text-anchor="middle" x="521" y="-145" font-family="Helvetica,sans-Serif" font-size="10.00"> </text>
<polyline fill="none" stroke="#bfbfbf" points="434.5,-138 607.5,-138 "/>
<text text-anchor="middle" x="521" y="-126" font-family="Helvetica,sans-Serif" font-size="10.00"> </text>
</g>
<!-- Node5&#45;&gt;Node1 -->
<g id="edge4" class="edge"><title>Node5&#45;&gt;Node1</title>
<path fill="none" stroke="#404040" d="M475.15,-118.759C456.828,-105.475 435.564,-90.0588 416.389,-76.1573"/>
<polygon fill="none" stroke="#404040" points="416.295,-76.0888 409.089,-75.8054 406.579,-69.0451 413.785,-69.3285 416.295,-76.0888"/>
<text text-anchor="middle" x="477" y="-91.5" font-family="Helvetica,sans-Serif" font-size="10.00"> +missingTbls</text>
</g>
<!-- Node6 -->
<g id="node6" class="node"><title>Node6</title>
<polygon fill="white" stroke="#bfbfbf" points="626,-119 626,-187 844,-187 844,-119 626,-119"/>
<text text-anchor="start" x="634" y="-175" font-family="Helvetica,sans-Serif" font-size="10.00">List&lt; List&lt; List&lt; com.cloudera.impala.catalog.</text>
<text text-anchor="middle" x="735" y="-164" font-family="Helvetica,sans-Serif" font-size="10.00">Column &gt; &gt; &gt;</text>
<polyline fill="none" stroke="#bfbfbf" points="626,-157 844,-157 "/>
<text text-anchor="middle" x="735" y="-145" font-family="Helvetica,sans-Serif" font-size="10.00"> </text>
<polyline fill="none" stroke="#bfbfbf" points="626,-138 844,-138 "/>
<text text-anchor="middle" x="735" y="-126" font-family="Helvetica,sans-Serif" font-size="10.00"> </text>
</g>
<!-- Node6&#45;&gt;Node1 -->
<g id="edge5" class="edge"><title>Node6&#45;&gt;Node1</title>
<path fill="none" stroke="#404040" d="M628.577,-118.992C570.338,-100.928 499.206,-78.8659 444.925,-62.0302"/>
<polygon fill="none" stroke="#404040" points="444.722,-61.9673 437.806,-64.0103 433.26,-58.4123 440.176,-56.3694 444.722,-61.9673"/>
<text text-anchor="middle" x="583" y="-91.5" font-family="Helvetica,sans-Serif" font-size="10.00"> +columns</text>
</g>
</g>
</svg>
