<?xml version="1.0" encoding="UTF-8" standalone="no"?>
<!DOCTYPE svg PUBLIC "-//W3C//DTD SVG 1.1//EN"
 "http://www.w3.org/Graphics/SVG/1.1/DTD/svg11.dtd">
<!-- Generated by graphviz version 2.36.0 (20140111.2315)
 -->
<!-- Title: TProcessorEventHandler Pages: 1 -->
<svg width="136pt" height="260pt"
 viewBox="0.00 0.00 136.00 260.00" xmlns="http://www.w3.org/2000/svg" xmlns:xlink="http://www.w3.org/1999/xlink">
<g id="graph0" class="graph" transform="scale(1 1) rotate(0) translate(4 256)">
<title>TProcessorEventHandler</title>
<polygon fill="white" stroke="none" points="-4,4 -4,-256 132,-256 132,4 -4,4"/>
<!-- Node1 -->
<g id="node1" class="node"><title>Node1</title>
<polygon fill="#bfbfbf" stroke="black" points="1,-194.5 1,-251.5 127,-251.5 127,-194.5 1,-194.5"/>
<text text-anchor="middle" x="64" y="-239.5" font-family="Helvetica,sans-Serif" font-size="10.00">TProcessorEventHandler</text>
<polyline fill="none" stroke="black" points="1,-232.5 127,-232.5 "/>
<text text-anchor="middle" x="64" y="-220.5" font-family="Helvetica,sans-Serif" font-size="10.00"> </text>
<polyline fill="none" stroke="black" points="1,-213.5 127,-213.5 "/>
<text text-anchor="middle" x="64" y="-201.5" font-family="Helvetica,sans-Serif" font-size="10.00"> </text>
</g>
<!-- Node2 -->
<g id="node2" class="node"><title>Node2</title>
<g id="a_node2"><a xlink:href="classimpala_1_1RpcEventHandler.html" target="_top" xlink:title="{impala::RpcEventHandler\n|&#45; method_map_lock_\l&#45; method_map_\l&#45; server_name_\l&#45; metrics_\l|+ RpcEventHandler()\l+ getContext()\l+ postWrite()\l+ ToJson()\l+ Reset()\l+ ResetAll()\l+ server_name()\l}">
<polygon fill="white" stroke="black" points="0,-1 0,-157 128,-157 128,-1 0,-1"/>
<text text-anchor="middle" x="64" y="-145" font-family="Helvetica,sans-Serif" font-size="10.00">impala::RpcEventHandler</text>
<polyline fill="none" stroke="black" points="0,-138 128,-138 "/>
<text text-anchor="start" x="8" y="-126" font-family="Helvetica,sans-Serif" font-size="10.00">&#45; method_map_lock_</text>
<text text-anchor="start" x="8" y="-115" font-family="Helvetica,sans-Serif" font-size="10.00">&#45; method_map_</text>
<text text-anchor="start" x="8" y="-104" font-family="Helvetica,sans-Serif" font-size="10.00">&#45; server_name_</text>
<text text-anchor="start" x="8" y="-93" font-family="Helvetica,sans-Serif" font-size="10.00">&#45; metrics_</text>
<polyline fill="none" stroke="black" points="0,-86 128,-86 "/>
<text text-anchor="start" x="8" y="-74" font-family="Helvetica,sans-Serif" font-size="10.00">+ RpcEventHandler()</text>
<text text-anchor="start" x="8" y="-63" font-family="Helvetica,sans-Serif" font-size="10.00">+ getContext()</text>
<text text-anchor="start" x="8" y="-52" font-family="Helvetica,sans-Serif" font-size="10.00">+ postWrite()</text>
<text text-anchor="start" x="8" y="-41" font-family="Helvetica,sans-Serif" font-size="10.00">+ ToJson()</text>
<text text-anchor="start" x="8" y="-30" font-family="Helvetica,sans-Serif" font-size="10.00">+ Reset()</text>
<text text-anchor="start" x="8" y="-19" font-family="Helvetica,sans-Serif" font-size="10.00">+ ResetAll()</text>
<text text-anchor="start" x="8" y="-8" font-family="Helvetica,sans-Serif" font-size="10.00">+ server_name()</text>
</a>
</g>
</g>
<!-- Node1&#45;&gt;Node2 -->
<g id="edge1" class="edge"><title>Node1&#45;&gt;Node2</title>
<path fill="none" stroke="midnightblue" d="M64,-184.128C64,-175.734 64,-166.545 64,-157.212"/>
<polygon fill="none" stroke="midnightblue" points="60.5001,-184.284 64,-194.284 67.5001,-184.284 60.5001,-184.284"/>
</g>
</g>
</svg>
