<?xml version="1.0" encoding="UTF-8" standalone="no"?>
<!DOCTYPE svg PUBLIC "-//W3C//DTD SVG 1.1//EN"
 "http://www.w3.org/Graphics/SVG/1.1/DTD/svg11.dtd">
<!-- Generated by graphviz version 2.36.0 (20140111.2315)
 -->
<!-- Title: com.cloudera.impala.common.JniUtil Pages: 1 -->
<svg width="161pt" height="228pt"
 viewBox="0.00 0.00 161.00 228.00" xmlns="http://www.w3.org/2000/svg" xmlns:xlink="http://www.w3.org/1999/xlink">
<g id="graph0" class="graph" transform="scale(1 1) rotate(0) translate(4 224)">
<title>com.cloudera.impala.common.JniUtil</title>
<polygon fill="white" stroke="none" points="-4,4 -4,-224 157,-224 157,4 -4,4"/>
<!-- Node1 -->
<g id="node1" class="node"><title>Node1</title>
<polygon fill="#bfbfbf" stroke="black" points="-1,-1 -1,-113 149,-113 149,-1 -1,-1"/>
<text text-anchor="start" x="7" y="-101" font-family="Helvetica,sans-Serif" font-size="10.00">com.cloudera.impala.common.</text>
<text text-anchor="middle" x="74" y="-90" font-family="Helvetica,sans-Serif" font-size="10.00">JniUtil</text>
<polyline fill="none" stroke="black" points="-1,-83 149,-83 "/>
<text text-anchor="middle" x="74" y="-71" font-family="Helvetica,sans-Serif" font-size="10.00"> </text>
<polyline fill="none" stroke="black" points="-1,-64 149,-64 "/>
<text text-anchor="start" x="7" y="-52" font-family="Helvetica,sans-Serif" font-size="10.00">+ throwableToString()</text>
<text text-anchor="start" x="7" y="-41" font-family="Helvetica,sans-Serif" font-size="10.00">+ throwableToStackTrace()</text>
<text text-anchor="start" x="7" y="-30" font-family="Helvetica,sans-Serif" font-size="10.00">+ deserializeThrift()</text>
<text text-anchor="start" x="7" y="-19" font-family="Helvetica,sans-Serif" font-size="10.00">+ getJvmMetrics()</text>
<text text-anchor="start" x="7" y="-8" font-family="Helvetica,sans-Serif" font-size="10.00">+ getJavaVersion()</text>
</g>
<!-- Node2 -->
<g id="node2" class="node"><title>Node2</title>
<polygon fill="white" stroke="#bfbfbf" points="31,-162.5 31,-219.5 117,-219.5 117,-162.5 31,-162.5"/>
<text text-anchor="middle" x="74" y="-207.5" font-family="Helvetica,sans-Serif" font-size="10.00">TBinaryProtocol</text>
<polyline fill="none" stroke="#bfbfbf" points="31,-200.5 117,-200.5 "/>
<text text-anchor="middle" x="74" y="-188.5" font-family="Helvetica,sans-Serif" font-size="10.00"> </text>
<polyline fill="none" stroke="#bfbfbf" points="31,-181.5 117,-181.5 "/>
<text text-anchor="middle" x="74" y="-169.5" font-family="Helvetica,sans-Serif" font-size="10.00"> </text>
</g>
<!-- Node2&#45;&gt;Node1 -->
<g id="edge1" class="edge"><title>Node2&#45;&gt;Node1</title>
<path fill="none" stroke="#404040" d="M74,-162.328C74,-151.389 74,-138.3 74,-125.15"/>
<polygon fill="none" stroke="#404040" points="74.0001,-125.116 70,-119.116 74,-113.116 78,-119.116 74.0001,-125.116"/>
<text text-anchor="middle" x="113.5" y="-135.5" font-family="Helvetica,sans-Serif" font-size="10.00"> &#45;protocolFactory_</text>
</g>
</g>
</svg>
