<?xml version="1.0" encoding="UTF-8" standalone="no"?>
<!DOCTYPE svg PUBLIC "-//W3C//DTD SVG 1.1//EN"
 "http://www.w3.org/Graphics/SVG/1.1/DTD/svg11.dtd">
<!-- Generated by graphviz version 2.36.0 (20140111.2315)
 -->
<!-- Title: TServerEventHandler Pages: 1 -->
<svg width="160pt" height="282pt"
 viewBox="0.00 0.00 160.00 282.00" xmlns="http://www.w3.org/2000/svg" xmlns:xlink="http://www.w3.org/1999/xlink">
<g id="graph0" class="graph" transform="scale(1 1) rotate(0) translate(4 278)">
<title>TServerEventHandler</title>
<polygon fill="white" stroke="none" points="-4,4 -4,-278 156,-278 156,4 -4,4"/>
<!-- Node1 -->
<g id="node1" class="node"><title>Node1</title>
<polygon fill="#bfbfbf" stroke="black" points="21,-216.5 21,-273.5 131,-273.5 131,-216.5 21,-216.5"/>
<text text-anchor="middle" x="76" y="-261.5" font-family="Helvetica,sans-Serif" font-size="10.00">TServerEventHandler</text>
<polyline fill="none" stroke="black" points="21,-254.5 131,-254.5 "/>
<text text-anchor="middle" x="76" y="-242.5" font-family="Helvetica,sans-Serif" font-size="10.00"> </text>
<polyline fill="none" stroke="black" points="21,-235.5 131,-235.5 "/>
<text text-anchor="middle" x="76" y="-223.5" font-family="Helvetica,sans-Serif" font-size="10.00"> </text>
</g>
<!-- Node2 -->
<g id="node2" class="node"><title>Node2</title>
<g id="a_node2"><a xlink:href="classimpala_1_1ThriftServer_1_1ThriftServerEventProcessor.html" target="_top" xlink:title="{impala::ThriftServer\l::ThriftServerEventProcessor\n|&#45; signal_lock_\l&#45; signal_cond_\l&#45; thrift_server_\l&#45; signal_fired_\l&#45; TIMEOUT_MS\l|+ ThriftServerEventProcessor()\l+ preServe()\l+ createContext()\l+ processContext()\l+ deleteContext()\l+ StartAndWaitForServer()\l&#45; Supervise()\l}">
<polygon fill="white" stroke="black" points="0,-1 0,-179 152,-179 152,-1 0,-1"/>
<text text-anchor="start" x="8" y="-167" font-family="Helvetica,sans-Serif" font-size="10.00">impala::ThriftServer</text>
<text text-anchor="middle" x="76" y="-156" font-family="Helvetica,sans-Serif" font-size="10.00">::ThriftServerEventProcessor</text>
<polyline fill="none" stroke="black" points="0,-149 152,-149 "/>
<text text-anchor="start" x="8" y="-137" font-family="Helvetica,sans-Serif" font-size="10.00">&#45; signal_lock_</text>
<text text-anchor="start" x="8" y="-126" font-family="Helvetica,sans-Serif" font-size="10.00">&#45; signal_cond_</text>
<text text-anchor="start" x="8" y="-115" font-family="Helvetica,sans-Serif" font-size="10.00">&#45; thrift_server_</text>
<text text-anchor="start" x="8" y="-104" font-family="Helvetica,sans-Serif" font-size="10.00">&#45; signal_fired_</text>
<text text-anchor="start" x="8" y="-93" font-family="Helvetica,sans-Serif" font-size="10.00">&#45; TIMEOUT_MS</text>
<polyline fill="none" stroke="black" points="0,-86 152,-86 "/>
<text text-anchor="start" x="8" y="-74" font-family="Helvetica,sans-Serif" font-size="10.00">+ ThriftServerEventProcessor()</text>
<text text-anchor="start" x="8" y="-63" font-family="Helvetica,sans-Serif" font-size="10.00">+ preServe()</text>
<text text-anchor="start" x="8" y="-52" font-family="Helvetica,sans-Serif" font-size="10.00">+ createContext()</text>
<text text-anchor="start" x="8" y="-41" font-family="Helvetica,sans-Serif" font-size="10.00">+ processContext()</text>
<text text-anchor="start" x="8" y="-30" font-family="Helvetica,sans-Serif" font-size="10.00">+ deleteContext()</text>
<text text-anchor="start" x="8" y="-19" font-family="Helvetica,sans-Serif" font-size="10.00">+ StartAndWaitForServer()</text>
<text text-anchor="start" x="8" y="-8" font-family="Helvetica,sans-Serif" font-size="10.00">&#45; Supervise()</text>
</a>
</g>
</g>
<!-- Node1&#45;&gt;Node2 -->
<g id="edge1" class="edge"><title>Node1&#45;&gt;Node2</title>
<path fill="none" stroke="midnightblue" d="M76,-206.166C76,-197.781 76,-188.554 76,-179.086"/>
<polygon fill="none" stroke="midnightblue" points="72.5001,-206.293 76,-216.293 79.5001,-206.293 72.5001,-206.293"/>
</g>
</g>
</svg>
