<?xml version="1.0" encoding="UTF-8" standalone="no"?>
<!DOCTYPE svg PUBLIC "-//W3C//DTD SVG 1.1//EN"
 "http://www.w3.org/Graphics/SVG/1.1/DTD/svg11.dtd">
<!-- Generated by graphviz version 2.36.0 (20140111.2315)
 -->
<!-- Title: com.cloudera.impala.analysis.ShowGrantRoleStmt Pages: 1 -->
<svg width="156pt" height="504pt"
 viewBox="0.00 0.00 156.00 504.00" xmlns="http://www.w3.org/2000/svg" xmlns:xlink="http://www.w3.org/1999/xlink">
<g id="graph0" class="graph" transform="scale(1 1) rotate(0) translate(4 500)">
<title>com.cloudera.impala.analysis.ShowGrantRoleStmt</title>
<polygon fill="white" stroke="none" points="-4,4 -4,-500 152,-500 152,4 -4,4"/>
<!-- Node1 -->
<g id="node1" class="node"><title>Node1</title>
<polygon fill="#bfbfbf" stroke="black" points="-0.5,-1 -0.5,-135 148.5,-135 148.5,-1 -0.5,-1"/>
<text text-anchor="start" x="7.5" y="-123" font-family="Helvetica,sans-Serif" font-size="10.00">com.cloudera.impala.analysis.</text>
<text text-anchor="middle" x="74" y="-112" font-family="Helvetica,sans-Serif" font-size="10.00">ShowGrantRoleStmt</text>
<polyline fill="none" stroke="black" points="-0.5,-105 148.5,-105 "/>
<text text-anchor="start" x="7.5" y="-93" font-family="Helvetica,sans-Serif" font-size="10.00">&#45; privilegeSpec_</text>
<text text-anchor="start" x="7.5" y="-82" font-family="Helvetica,sans-Serif" font-size="10.00">&#45; roleName_</text>
<text text-anchor="start" x="7.5" y="-71" font-family="Helvetica,sans-Serif" font-size="10.00">&#45; role_</text>
<polyline fill="none" stroke="black" points="-0.5,-64 148.5,-64 "/>
<text text-anchor="start" x="7.5" y="-52" font-family="Helvetica,sans-Serif" font-size="10.00">+ ShowGrantRoleStmt()</text>
<text text-anchor="start" x="7.5" y="-41" font-family="Helvetica,sans-Serif" font-size="10.00">+ toThrift()</text>
<text text-anchor="start" x="7.5" y="-30" font-family="Helvetica,sans-Serif" font-size="10.00">+ toSql()</text>
<text text-anchor="start" x="7.5" y="-19" font-family="Helvetica,sans-Serif" font-size="10.00">+ analyze()</text>
<text text-anchor="start" x="7.5" y="-8" font-family="Helvetica,sans-Serif" font-size="10.00">+ getRole()</text>
</g>
<!-- Node2 -->
<g id="node2" class="node"><title>Node2</title>
<g id="a_node2"><a xlink:href="classcom_1_1cloudera_1_1impala_1_1analysis_1_1AuthorizationStmt.html" target="_top" xlink:title="{com.cloudera.impala.analysis.\lAuthorizationStmt\n|# requestingUser_\l|+ analyze()\l}">
<polygon fill="white" stroke="black" points="-0.5,-173 -0.5,-241 148.5,-241 148.5,-173 -0.5,-173"/>
<text text-anchor="start" x="7.5" y="-229" font-family="Helvetica,sans-Serif" font-size="10.00">com.cloudera.impala.analysis.</text>
<text text-anchor="middle" x="74" y="-218" font-family="Helvetica,sans-Serif" font-size="10.00">AuthorizationStmt</text>
<polyline fill="none" stroke="black" points="-0.5,-211 148.5,-211 "/>
<text text-anchor="start" x="7.5" y="-199" font-family="Helvetica,sans-Serif" font-size="10.00"># requestingUser_</text>
<polyline fill="none" stroke="black" points="-0.5,-192 148.5,-192 "/>
<text text-anchor="start" x="7.5" y="-180" font-family="Helvetica,sans-Serif" font-size="10.00">+ analyze()</text>
</a>
</g>
</g>
<!-- Node2&#45;&gt;Node1 -->
<g id="edge1" class="edge"><title>Node2&#45;&gt;Node1</title>
<path fill="none" stroke="midnightblue" d="M74,-162.83C74,-154.015 74,-144.549 74,-135.142"/>
<polygon fill="none" stroke="midnightblue" points="70.5001,-162.836 74,-172.836 77.5001,-162.836 70.5001,-162.836"/>
</g>
<!-- Node3 -->
<g id="node3" class="node"><title>Node3</title>
<g id="a_node3"><a xlink:href="classcom_1_1cloudera_1_1impala_1_1analysis_1_1StatementBase.html" target="_top" xlink:title="{com.cloudera.impala.analysis.\lStatementBase\n|# isExplain_\l|+ analyze()\l+ toSql()\l+ setIsExplain()\l+ isExplain()\l}">
<polygon fill="white" stroke="black" points="-0.5,-278.5 -0.5,-379.5 148.5,-379.5 148.5,-278.5 -0.5,-278.5"/>
<text text-anchor="start" x="7.5" y="-367.5" font-family="Helvetica,sans-Serif" font-size="10.00">com.cloudera.impala.analysis.</text>
<text text-anchor="middle" x="74" y="-356.5" font-family="Helvetica,sans-Serif" font-size="10.00">StatementBase</text>
<polyline fill="none" stroke="black" points="-0.5,-349.5 148.5,-349.5 "/>
<text text-anchor="start" x="7.5" y="-337.5" font-family="Helvetica,sans-Serif" font-size="10.00"># isExplain_</text>
<polyline fill="none" stroke="black" points="-0.5,-330.5 148.5,-330.5 "/>
<text text-anchor="start" x="7.5" y="-318.5" font-family="Helvetica,sans-Serif" font-size="10.00">+ analyze()</text>
<text text-anchor="start" x="7.5" y="-307.5" font-family="Helvetica,sans-Serif" font-size="10.00">+ toSql()</text>
<text text-anchor="start" x="7.5" y="-296.5" font-family="Helvetica,sans-Serif" font-size="10.00">+ setIsExplain()</text>
<text text-anchor="start" x="7.5" y="-285.5" font-family="Helvetica,sans-Serif" font-size="10.00">+ isExplain()</text>
</a>
</g>
</g>
<!-- Node3&#45;&gt;Node2 -->
<g id="edge2" class="edge"><title>Node3&#45;&gt;Node2</title>
<path fill="none" stroke="midnightblue" d="M74,-268.427C74,-259.101 74,-249.762 74,-241.31"/>
<polygon fill="none" stroke="midnightblue" points="70.5001,-268.499 74,-278.499 77.5001,-268.499 70.5001,-268.499"/>
</g>
<!-- Node4 -->
<g id="node4" class="node"><title>Node4</title>
<g id="a_node4"><a xlink:href="interfacecom_1_1cloudera_1_1impala_1_1analysis_1_1ParseNode.html" target="_top" xlink:title="{com.cloudera.impala.analysis.\lParseNode\n||+ analyze()\l+ toSql()\l}">
<polygon fill="white" stroke="black" points="-0.5,-416.5 -0.5,-495.5 148.5,-495.5 148.5,-416.5 -0.5,-416.5"/>
<text text-anchor="start" x="7.5" y="-483.5" font-family="Helvetica,sans-Serif" font-size="10.00">com.cloudera.impala.analysis.</text>
<text text-anchor="middle" x="74" y="-472.5" font-family="Helvetica,sans-Serif" font-size="10.00">ParseNode</text>
<polyline fill="none" stroke="black" points="-0.5,-465.5 148.5,-465.5 "/>
<text text-anchor="middle" x="74" y="-453.5" font-family="Helvetica,sans-Serif" font-size="10.00"> </text>
<polyline fill="none" stroke="black" points="-0.5,-446.5 148.5,-446.5 "/>
<text text-anchor="start" x="7.5" y="-434.5" font-family="Helvetica,sans-Serif" font-size="10.00">+ analyze()</text>
<text text-anchor="start" x="7.5" y="-423.5" font-family="Helvetica,sans-Serif" font-size="10.00">+ toSql()</text>
</a>
</g>
</g>
<!-- Node4&#45;&gt;Node3 -->
<g id="edge3" class="edge"><title>Node4&#45;&gt;Node3</title>
<path fill="none" stroke="midnightblue" d="M74,-406.406C74,-397.639 74,-388.488 74,-379.691"/>
<polygon fill="none" stroke="midnightblue" points="70.5001,-406.476 74,-416.476 77.5001,-406.476 70.5001,-406.476"/>
</g>
</g>
</svg>
