<?xml version="1.0" encoding="UTF-8" standalone="no"?>
<!DOCTYPE svg PUBLIC "-//W3C//DTD SVG 1.1//EN"
 "http://www.w3.org/Graphics/SVG/1.1/DTD/svg11.dtd">
<!-- Generated by graphviz version 2.36.0 (20140111.2315)
 -->
<!-- Title: com.cloudera.impala.catalog.HdfsTable.FileBlocksInfo Pages: 1 -->
<svg width="256pt" height="184pt"
 viewBox="0.00 0.00 256.00 184.00" xmlns="http://www.w3.org/2000/svg" xmlns:xlink="http://www.w3.org/1999/xlink">
<g id="graph0" class="graph" transform="scale(1 1) rotate(0) translate(4 180)">
<title>com.cloudera.impala.catalog.HdfsTable.FileBlocksInfo</title>
<polygon fill="white" stroke="none" points="-4,4 -4,-180 252,-180 252,4 -4,4"/>
<!-- Node1 -->
<g id="node1" class="node"><title>Node1</title>
<polygon fill="#bfbfbf" stroke="black" points="53,-1 53,-69 197,-69 197,-1 53,-1"/>
<text text-anchor="start" x="61" y="-57" font-family="Helvetica,sans-Serif" font-size="10.00">com.cloudera.impala.catalog.</text>
<text text-anchor="middle" x="125" y="-46" font-family="Helvetica,sans-Serif" font-size="10.00">HdfsTable.FileBlocksInfo</text>
<polyline fill="none" stroke="black" points="53,-39 197,-39 "/>
<text text-anchor="middle" x="125" y="-27" font-family="Helvetica,sans-Serif" font-size="10.00"> </text>
<polyline fill="none" stroke="black" points="53,-20 197,-20 "/>
<text text-anchor="start" x="61" y="-8" font-family="Helvetica,sans-Serif" font-size="10.00">+ addBlocks()</text>
</g>
<!-- Node2 -->
<g id="node2" class="node"><title>Node2</title>
<polygon fill="white" stroke="#bfbfbf" points="0,-118.5 0,-175.5 118,-175.5 118,-118.5 0,-118.5"/>
<text text-anchor="middle" x="59" y="-163.5" font-family="Helvetica,sans-Serif" font-size="10.00">List&lt; THdfsFileBlock &gt;</text>
<polyline fill="none" stroke="#bfbfbf" points="0,-156.5 118,-156.5 "/>
<text text-anchor="middle" x="59" y="-144.5" font-family="Helvetica,sans-Serif" font-size="10.00"> </text>
<polyline fill="none" stroke="#bfbfbf" points="0,-137.5 118,-137.5 "/>
<text text-anchor="middle" x="59" y="-125.5" font-family="Helvetica,sans-Serif" font-size="10.00"> </text>
</g>
<!-- Node2&#45;&gt;Node1 -->
<g id="edge1" class="edge"><title>Node2&#45;&gt;Node1</title>
<path fill="none" stroke="#404040" d="M75.6546,-118.242C82.6357,-106.607 90.9225,-92.7958 98.6926,-79.8456"/>
<polygon fill="none" stroke="#404040" points="98.8839,-79.5267 98.541,-72.3237 105.058,-69.2368 105.401,-76.4397 98.8839,-79.5267"/>
<text text-anchor="middle" x="111" y="-91.5" font-family="Helvetica,sans-Serif" font-size="10.00"> ~blocks</text>
</g>
<!-- Node3 -->
<g id="node3" class="node"><title>Node3</title>
<polygon fill="white" stroke="#bfbfbf" points="136,-118.5 136,-175.5 248,-175.5 248,-118.5 136,-118.5"/>
<text text-anchor="middle" x="192" y="-163.5" font-family="Helvetica,sans-Serif" font-size="10.00">List&lt; BlockLocation &gt;</text>
<polyline fill="none" stroke="#bfbfbf" points="136,-156.5 248,-156.5 "/>
<text text-anchor="middle" x="192" y="-144.5" font-family="Helvetica,sans-Serif" font-size="10.00"> </text>
<polyline fill="none" stroke="#bfbfbf" points="136,-137.5 248,-137.5 "/>
<text text-anchor="middle" x="192" y="-125.5" font-family="Helvetica,sans-Serif" font-size="10.00"> </text>
</g>
<!-- Node3&#45;&gt;Node1 -->
<g id="edge2" class="edge"><title>Node3&#45;&gt;Node1</title>
<path fill="none" stroke="#404040" d="M175.093,-118.242C168.006,-106.607 159.594,-92.7958 151.706,-79.8456"/>
<polygon fill="none" stroke="#404040" points="151.487,-79.4854 144.949,-76.4419 145.244,-69.2368 151.782,-72.2803 151.487,-79.4854"/>
<text text-anchor="middle" x="186.5" y="-91.5" font-family="Helvetica,sans-Serif" font-size="10.00"> ~locations</text>
</g>
</g>
</svg>
