<?xml version="1.0" encoding="UTF-8" standalone="no"?>
<!DOCTYPE svg PUBLIC "-//W3C//DTD SVG 1.1//EN"
 "http://www.w3.org/Graphics/SVG/1.1/DTD/svg11.dtd">
<!-- Generated by graphviz version 2.36.0 (20140111.2315)
 -->
<!-- Title: impala::ThreadResourceMgr::ResourcePool Pages: 1 -->
<!--zoomable 532 -->
<svg id="main" version="1.1" xmlns="http://www.w3.org/2000/svg" xmlns:xlink="http://www.w3.org/1999/xlink" xml:space="preserve" onload="init(evt)">
<style type="text/css"><![CDATA[
.edge:hover path { stroke: red; }
.edge:hover polygon { stroke: red; fill: red; }
]]></style>
<script type="text/javascript"><![CDATA[
var edges = document.getElementsByTagName('g');
if (edges && edges.length) {
  for (var i=0;i<edges.length;i++) {
    if (edges[i].id.substr(0,4)=='edge') {
      edges[i].setAttribute('class','edge');
    }
  }
}
]]></script>
        <defs>
                <circle id="rim" cx="0" cy="0" r="7"/>
                <circle id="rim2" cx="0" cy="0" r="3.5"/>
                <g id="zoomPlus">
                        <use xlink:href="#rim" fill="#404040">
                                <set attributeName="fill" to="#808080" begin="zoomplus.mouseover" end="zoomplus.mouseout"/>
                        </use>
                        <path d="M-4,0h8M0,-4v8" fill="none" stroke="white" stroke-width="1.5" pointer-events="none"/>
                </g>
                <g id="zoomMin">
                        <use xlink:href="#rim" fill="#404040">
                                <set attributeName="fill" to="#808080" begin="zoomminus.mouseover" end="zoomminus.mouseout"/>
                        </use>
                        <path d="M-4,0h8" fill="none" stroke="white" stroke-width="1.5" pointer-events="none"/>
                </g>
                <g id="dirArrow">
                        <path fill="none" stroke="white" stroke-width="1.5" d="M0,-3.0v7 M-2.5,-0.5L0,-3.0L2.5,-0.5"/>
                </g>
               <g id="resetDef">
                       <use xlink:href="#rim2" fill="#404040">
                               <set attributeName="fill" to="#808080" begin="reset.mouseover" end="reset.mouseout"/>
                       </use>
               </g>
        </defs>

<script type="text/javascript">
var viewWidth = 702;
var viewHeight = 532;
var sectionId = 'dynsection-0';
</script>
<script xlink:href="svgpan.js"/>
<svg id="graph" class="graph">
<g id="viewport">
<title>impala::ThreadResourceMgr::ResourcePool</title>
<polygon fill="white" stroke="none" points="-4,4 -4,-528 698,-528 698,4 -4,4"/>
<!-- Node1 -->
<g id="node1" class="node"><title>Node1</title>
<polygon fill="#bfbfbf" stroke="black" points="184,-0.5 184,-233.5 324,-233.5 324,-0.5 184,-0.5"/>
<text text-anchor="start" x="192" y="-221.5" font-family="Helvetica,sans-Serif" font-size="10.00">impala::ThreadResourceMgr</text>
<text text-anchor="middle" x="254" y="-210.5" font-family="Helvetica,sans-Serif" font-size="10.00">::ResourcePool</text>
<polyline fill="none" stroke="black" points="184,-203.5 324,-203.5 "/>
<text text-anchor="middle" x="254" y="-191.5" font-family="Helvetica,sans-Serif" font-size="10.00"> </text>
<polyline fill="none" stroke="black" points="184,-184.5 324,-184.5 "/>
<text text-anchor="start" x="192" y="-172.5" font-family="Helvetica,sans-Serif" font-size="10.00">+ AcquireThreadToken()</text>
<text text-anchor="start" x="192" y="-161.5" font-family="Helvetica,sans-Serif" font-size="10.00">+ TryAcquireThreadToken()</text>
<text text-anchor="start" x="192" y="-150.5" font-family="Helvetica,sans-Serif" font-size="10.00">+ ReserveOptionalTokens()</text>
<text text-anchor="start" x="192" y="-139.5" font-family="Helvetica,sans-Serif" font-size="10.00">+ ReleaseThreadToken()</text>
<text text-anchor="start" x="192" y="-128.5" font-family="Helvetica,sans-Serif" font-size="10.00">+ SetThreadAvailableCb()</text>
<text text-anchor="start" x="192" y="-117.5" font-family="Helvetica,sans-Serif" font-size="10.00">+ num_required_threads()</text>
<text text-anchor="start" x="192" y="-106.5" font-family="Helvetica,sans-Serif" font-size="10.00">+ num_optional_threads()</text>
<text text-anchor="start" x="192" y="-95.5" font-family="Helvetica,sans-Serif" font-size="10.00">+ num_threads()</text>
<text text-anchor="start" x="192" y="-84.5" font-family="Helvetica,sans-Serif" font-size="10.00">+ num_reserved_optional</text>
<text text-anchor="start" x="192" y="-73.5" font-family="Helvetica,sans-Serif" font-size="10.00">_threads()</text>
<text text-anchor="start" x="192" y="-62.5" font-family="Helvetica,sans-Serif" font-size="10.00">+ optional_exceeded()</text>
<text text-anchor="start" x="192" y="-51.5" font-family="Helvetica,sans-Serif" font-size="10.00">+ num_available_threads()</text>
<text text-anchor="start" x="192" y="-40.5" font-family="Helvetica,sans-Serif" font-size="10.00">+ quota()</text>
<text text-anchor="start" x="192" y="-29.5" font-family="Helvetica,sans-Serif" font-size="10.00">+ set_max_quota()</text>
<text text-anchor="start" x="192" y="-18.5" font-family="Helvetica,sans-Serif" font-size="10.00">&#45; ResourcePool()</text>
<text text-anchor="start" x="192" y="-7.5" font-family="Helvetica,sans-Serif" font-size="10.00">&#45; Reset()</text>
</g>
<!-- Node2 -->
<g id="node2" class="node"><title>Node2</title>
<polygon fill="white" stroke="#bfbfbf" points="0,-304.5 0,-361.5 46,-361.5 46,-304.5 0,-304.5"/>
<text text-anchor="middle" x="23" y="-349.5" font-family="Helvetica,sans-Serif" font-size="10.00">int64_t</text>
<polyline fill="none" stroke="#bfbfbf" points="0,-342.5 46,-342.5 "/>
<text text-anchor="middle" x="23" y="-330.5" font-family="Helvetica,sans-Serif" font-size="10.00"> </text>
<polyline fill="none" stroke="#bfbfbf" points="0,-323.5 46,-323.5 "/>
<text text-anchor="middle" x="23" y="-311.5" font-family="Helvetica,sans-Serif" font-size="10.00"> </text>
</g>
<!-- Node2&#45;&gt;Node1 -->
<g id="edge1" class="edge"><title>Node2&#45;&gt;Node1</title>
<path fill="none" stroke="#404040" d="M16.8783,-304.274C14.7889,-287.985 14.9046,-267.599 24,-252 56.0418,-197.047 120.123,-162.448 172.525,-142.203"/>
<polygon fill="none" stroke="#404040" points="172.611,-142.171 176.834,-136.326 183.854,-137.976 179.631,-143.821 172.611,-142.171"/>
<text text-anchor="middle" x="58" y="-255.5" font-family="Helvetica,sans-Serif" font-size="10.00"> &#45;num_threads_</text>
</g>
<!-- Node3 -->
<g id="node3" class="node"><title>Node3</title>
<polygon fill="white" stroke="#bfbfbf" points="295,-460.5 295,-517.5 339,-517.5 339,-460.5 295,-460.5"/>
<text text-anchor="middle" x="317" y="-505.5" font-family="Helvetica,sans-Serif" font-size="10.00">mutex</text>
<polyline fill="none" stroke="#bfbfbf" points="295,-498.5 339,-498.5 "/>
<text text-anchor="middle" x="317" y="-486.5" font-family="Helvetica,sans-Serif" font-size="10.00"> </text>
<polyline fill="none" stroke="#bfbfbf" points="295,-479.5 339,-479.5 "/>
<text text-anchor="middle" x="317" y="-467.5" font-family="Helvetica,sans-Serif" font-size="10.00"> </text>
</g>
<!-- Node3&#45;&gt;Node1 -->
<g id="edge2" class="edge"><title>Node3&#45;&gt;Node1</title>
<path fill="none" stroke="#404040" d="M298.234,-460.262C285.695,-440.072 270.222,-411.551 263,-384 251.409,-339.782 247.432,-290.015 246.916,-245.592"/>
<polygon fill="none" stroke="#404040" points="246.916,-245.516 242.887,-239.535 246.858,-233.516 250.887,-239.497 246.916,-245.516"/>
<text text-anchor="middle" x="278" y="-330.5" font-family="Helvetica,sans-Serif" font-size="10.00"> &#45;lock_</text>
</g>
<!-- Node6 -->
<g id="node6" class="node"><title>Node6</title>
<g id="a_node6"><a xlink:href="classimpala_1_1ThreadResourceMgr.html" target="_top" xlink:title="{impala::ThreadResourceMgr\n||+ ThreadResourceMgr()\l+ system_threads_quota()\l+ RegisterPool()\l+ UnregisterPool()\l&#45; UpdatePoolQuotas()\l}">
<polygon fill="white" stroke="black" points="478,-282.5 478,-383.5 618,-383.5 618,-282.5 478,-282.5"/>
<text text-anchor="middle" x="548" y="-371.5" font-family="Helvetica,sans-Serif" font-size="10.00">impala::ThreadResourceMgr</text>
<polyline fill="none" stroke="black" points="478,-364.5 618,-364.5 "/>
<text text-anchor="middle" x="548" y="-352.5" font-family="Helvetica,sans-Serif" font-size="10.00"> </text>
<polyline fill="none" stroke="black" points="478,-345.5 618,-345.5 "/>
<text text-anchor="start" x="486" y="-333.5" font-family="Helvetica,sans-Serif" font-size="10.00">+ ThreadResourceMgr()</text>
<text text-anchor="start" x="486" y="-322.5" font-family="Helvetica,sans-Serif" font-size="10.00">+ system_threads_quota()</text>
<text text-anchor="start" x="486" y="-311.5" font-family="Helvetica,sans-Serif" font-size="10.00">+ RegisterPool()</text>
<text text-anchor="start" x="486" y="-300.5" font-family="Helvetica,sans-Serif" font-size="10.00">+ UnregisterPool()</text>
<text text-anchor="start" x="486" y="-289.5" font-family="Helvetica,sans-Serif" font-size="10.00">&#45; UpdatePoolQuotas()</text>
</a>
</g>
</g>
<!-- Node3&#45;&gt;Node6 -->
<g id="edge8" class="edge"><title>Node3&#45;&gt;Node6</title>
<path fill="none" stroke="#404040" d="M339.149,-473.234C368.597,-453.602 422.228,-417.848 467.767,-387.489"/>
<polygon fill="none" stroke="#404040" points="467.962,-387.359 470.735,-380.702 477.947,-380.702 475.173,-387.359 467.962,-387.359"/>
<text text-anchor="middle" x="455" y="-416.5" font-family="Helvetica,sans-Serif" font-size="10.00"> &#45;lock_</text>
</g>
<!-- Node4 -->
<g id="node4" class="node"><title>Node4</title>
<polygon fill="white" stroke="#bfbfbf" points="108.5,-460.5 108.5,-517.5 137.5,-517.5 137.5,-460.5 108.5,-460.5"/>
<text text-anchor="middle" x="123" y="-505.5" font-family="Helvetica,sans-Serif" font-size="10.00">int</text>
<polyline fill="none" stroke="#bfbfbf" points="108.5,-498.5 137.5,-498.5 "/>
<text text-anchor="middle" x="123" y="-486.5" font-family="Helvetica,sans-Serif" font-size="10.00"> </text>
<polyline fill="none" stroke="#bfbfbf" points="108.5,-479.5 137.5,-479.5 "/>
<text text-anchor="middle" x="123" y="-467.5" font-family="Helvetica,sans-Serif" font-size="10.00"> </text>
</g>
<!-- Node4&#45;&gt;Node1 -->
<g id="edge3" class="edge"><title>Node4&#45;&gt;Node1</title>
<path fill="none" stroke="#404040" d="M120.423,-460.378C117.654,-419.92 116.222,-342.761 138,-282 147.174,-256.405 161.518,-231.189 177.034,-208.495"/>
<polygon fill="none" stroke="#404040" points="177.09,-208.415 177.264,-201.206 183.986,-198.593 183.812,-205.802 177.09,-208.415"/>
<text text-anchor="start" x="138" y="-341.5" font-family="Helvetica,sans-Serif" font-size="10.00"> &#45;num_reserved_optional</text>
<text text-anchor="middle" x="191.5" y="-330.5" font-family="Helvetica,sans-Serif" font-size="10.00">_threads_</text>
<text text-anchor="middle" x="191.5" y="-319.5" font-family="Helvetica,sans-Serif" font-size="10.00">&#45;max_quota_</text>
</g>
<!-- Node4&#45;&gt;Node6 -->
<g id="edge9" class="edge"><title>Node4&#45;&gt;Node6</title>
<path fill="none" stroke="#404040" d="M137.738,-477.894C165.759,-459.258 229.268,-419.767 289,-402 362.046,-380.273 389.729,-407.108 466.119,-384.014"/>
<polygon fill="none" stroke="#404040" points="466.342,-383.942 470.812,-378.283 477.754,-380.233 473.284,-385.892 466.342,-383.942"/>
<text text-anchor="start" x="289" y="-427.5" font-family="Helvetica,sans-Serif" font-size="10.00"> &#45;system_threads_quota</text>
<text text-anchor="middle" x="342" y="-416.5" font-family="Helvetica,sans-Serif" font-size="10.00">_</text>
<text text-anchor="middle" x="342" y="-405.5" font-family="Helvetica,sans-Serif" font-size="10.00">&#45;per_pool_quota_</text>
</g>
<!-- Node5 -->
<g id="node5" class="node"><title>Node5</title>
<polygon fill="white" stroke="#bfbfbf" points="302,-304.5 302,-361.5 460,-361.5 460,-304.5 302,-304.5"/>
<text text-anchor="middle" x="381" y="-349.5" font-family="Helvetica,sans-Serif" font-size="10.00">function&lt; void(ResourcePool *)&gt;</text>
<polyline fill="none" stroke="#bfbfbf" points="302,-342.5 460,-342.5 "/>
<text text-anchor="middle" x="381" y="-330.5" font-family="Helvetica,sans-Serif" font-size="10.00"> </text>
<polyline fill="none" stroke="#bfbfbf" points="302,-323.5 460,-323.5 "/>
<text text-anchor="middle" x="381" y="-311.5" font-family="Helvetica,sans-Serif" font-size="10.00"> </text>
</g>
<!-- Node5&#45;&gt;Node1 -->
<g id="edge4" class="edge"><title>Node5&#45;&gt;Node1</title>
<path fill="none" stroke="#404040" d="M364.657,-304.461C355.129,-288.407 342.357,-266.884 328.877,-244.171"/>
<polygon fill="none" stroke="#404040" points="328.767,-243.986 322.265,-240.867 322.643,-233.666 329.145,-236.784 328.767,-243.986"/>
<text text-anchor="middle" x="388" y="-255.5" font-family="Helvetica,sans-Serif" font-size="10.00"> &#45;thread_available_fn_</text>
</g>
<!-- Node6&#45;&gt;Node1 -->
<g id="edge5" class="edge"><title>Node6&#45;&gt;Node1</title>
<path fill="none" stroke="#404040" d="M481.272,-282.358C467.642,-272.278 453.378,-261.773 440,-252 405.488,-226.788 367.2,-199.147 334.377,-175.553"/>
<polygon fill="none" stroke="#404040" points="334.121,-175.37 326.915,-175.117 324.376,-168.368 331.583,-168.62 334.121,-175.37"/>
<text text-anchor="middle" x="474.5" y="-255.5" font-family="Helvetica,sans-Serif" font-size="10.00"> &#45;parent_</text>
</g>
<!-- Node7 -->
<g id="node7" class="node"><title>Node7</title>
<polygon fill="white" stroke="#bfbfbf" points="549.5,-455 549.5,-523 694.5,-523 694.5,-455 549.5,-455"/>
<text text-anchor="start" x="557.5" y="-511" font-family="Helvetica,sans-Serif" font-size="10.00">list&lt; impala::ThreadResource</text>
<text text-anchor="middle" x="622" y="-500" font-family="Helvetica,sans-Serif" font-size="10.00">Mgr::ResourcePool * &gt;</text>
<polyline fill="none" stroke="#bfbfbf" points="549.5,-493 694.5,-493 "/>
<text text-anchor="middle" x="622" y="-481" font-family="Helvetica,sans-Serif" font-size="10.00"> </text>
<polyline fill="none" stroke="#bfbfbf" points="549.5,-474 694.5,-474 "/>
<text text-anchor="middle" x="622" y="-462" font-family="Helvetica,sans-Serif" font-size="10.00"> </text>
</g>
<!-- Node7&#45;&gt;Node6 -->
<g id="edge6" class="edge"><title>Node7&#45;&gt;Node6</title>
<path fill="none" stroke="#404040" d="M606.125,-454.963C597.666,-437.358 586.99,-415.142 577.104,-394.567"/>
<polygon fill="none" stroke="#404040" points="577.065,-394.486 570.861,-390.81 571.867,-383.67 578.071,-387.345 577.065,-394.486"/>
<text text-anchor="middle" x="633.5" y="-416.5" font-family="Helvetica,sans-Serif" font-size="10.00"> &#45;free_pool_objs_</text>
</g>
<!-- Node8 -->
<g id="node8" class="node"><title>Node8</title>
<polygon fill="white" stroke="#bfbfbf" points="415,-460.5 415,-517.5 531,-517.5 531,-460.5 415,-460.5"/>
<text text-anchor="middle" x="473" y="-505.5" font-family="Helvetica,sans-Serif" font-size="10.00">set&lt; ResourcePool * &gt;</text>
<polyline fill="none" stroke="#bfbfbf" points="415,-498.5 531,-498.5 "/>
<text text-anchor="middle" x="473" y="-486.5" font-family="Helvetica,sans-Serif" font-size="10.00"> </text>
<polyline fill="none" stroke="#bfbfbf" points="415,-479.5 531,-479.5 "/>
<text text-anchor="middle" x="473" y="-467.5" font-family="Helvetica,sans-Serif" font-size="10.00"> </text>
</g>
<!-- Node8&#45;&gt;Node6 -->
<g id="edge7" class="edge"><title>Node8&#45;&gt;Node6</title>
<path fill="none" stroke="#404040" d="M486.408,-460.468C495.316,-442.178 507.368,-417.431 518.45,-394.677"/>
<polygon fill="none" stroke="#404040" points="518.539,-394.492 517.57,-387.347 523.794,-383.704 524.763,-390.849 518.539,-394.492"/>
<text text-anchor="middle" x="530.5" y="-416.5" font-family="Helvetica,sans-Serif" font-size="10.00"> &#45;pools_</text>
</g>
</g>
</svg>
        <g id="navigator" transform="translate(0 0)" fill="#404254">
                <rect fill="#f2f5e9" fill-opacity="0.5" stroke="#606060" stroke-width=".5" x="0" y="0" width="60" height="60"/>
                <use id="zoomplus" xlink:href="#zoomPlus" x="17" y="9" onmousedown="handleZoom(evt,'in')"/>
                <use id="zoomminus" xlink:href="#zoomMin" x="42" y="9" onmousedown="handleZoom(evt,'out')"/>
                <use id="reset" xlink:href="#resetDef" x="30" y="36" onmousedown="handleReset()"/>
                <g id="arrowUp" xlink:href="#dirArrow" transform="translate(30 24)" onmousedown="handlePan(0,-1)">
                  <use xlink:href="#rim" fill="#404040">
                        <set attributeName="fill" to="#808080" begin="arrowUp.mouseover" end="arrowUp.mouseout"/>
                  </use>
                  <path fill="none" stroke="white" stroke-width="1.5" d="M0,-3.0v7 M-2.5,-0.5L0,-3.0L2.5,-0.5"/>
                </g>
                <g id="arrowRight" xlink:href="#dirArrow" transform="rotate(90) translate(36 -43)" onmousedown="handlePan(1,0)">
                  <use xlink:href="#rim" fill="#404040">
                        <set attributeName="fill" to="#808080" begin="arrowRight.mouseover" end="arrowRight.mouseout"/>
                  </use>
                  <path fill="none" stroke="white" stroke-width="1.5" d="M0,-3.0v7 M-2.5,-0.5L0,-3.0L2.5,-0.5"/>
                </g>
                <g id="arrowDown" xlink:href="#dirArrow" transform="rotate(180) translate(-30 -48)" onmousedown="handlePan(0,1)">
                  <use xlink:href="#rim" fill="#404040">
                        <set attributeName="fill" to="#808080" begin="arrowDown.mouseover" end="arrowDown.mouseout"/>
                  </use>
                  <path fill="none" stroke="white" stroke-width="1.5" d="M0,-3.0v7 M-2.5,-0.5L0,-3.0L2.5,-0.5"/>
                </g>
                <g id="arrowLeft" xlink:href="#dirArrow" transform="rotate(270) translate(-36 17)" onmousedown="handlePan(-1,0)">
                  <use xlink:href="#rim" fill="#404040">
                        <set attributeName="fill" to="#808080" begin="arrowLeft.mouseover" end="arrowLeft.mouseout"/>
                  </use>
                  <path fill="none" stroke="white" stroke-width="1.5" d="M0,-3.0v7 M-2.5,-0.5L0,-3.0L2.5,-0.5"/>
                </g>
        </g>
        <svg viewBox="0 0 15 15" width="100%" height="30px" preserveAspectRatio="xMaxYMin meet">
         <g id="arrow_out" transform="scale(0.3 0.3)">
          <a xlink:href="classimpala_1_1ThreadResourceMgr_1_1ResourcePool__coll__graph_org.svg" target="_base">
           <rect id="button" ry="5" rx="5" y="6" x="6" height="38" width="38"
                fill="#f2f5e9" fill-opacity="0.5" stroke="#606060" stroke-width="1.0"/>
           <path id="arrow"
             d="M 11.500037,31.436501 C 11.940474,20.09759 22.043105,11.32322 32.158766,21.979434 L 37.068811,17.246167 C 37.068811,17.246167 37.088388,32 37.088388,32 L 22.160133,31.978069 C 22.160133,31.978069 26.997745,27.140456 26.997745,27.140456 C 18.528582,18.264221 13.291696,25.230495 11.500037,31.436501 z"
             style="fill:#404040;"/>
          </a>
         </g>
        </svg>
</svg>
