<?xml version="1.0" encoding="UTF-8" standalone="no"?>
<!DOCTYPE svg PUBLIC "-//W3C//DTD SVG 1.1//EN"
 "http://www.w3.org/Graphics/SVG/1.1/DTD/svg11.dtd">
<!-- Generated by graphviz version 2.36.0 (20140111.2315)
 -->
<!-- Title: com.cloudera.impala.util.SentryPolicyService.SentryServiceClient Pages: 1 -->
<svg width="178pt" height="228pt"
 viewBox="0.00 0.00 178.00 228.00" xmlns="http://www.w3.org/2000/svg" xmlns:xlink="http://www.w3.org/1999/xlink">
<g id="graph0" class="graph" transform="scale(1 1) rotate(0) translate(4 224)">
<title>com.cloudera.impala.util.SentryPolicyService.SentryServiceClient</title>
<polygon fill="white" stroke="none" points="-4,4 -4,-224 174,-224 174,4 -4,4"/>
<!-- Node1 -->
<g id="node1" class="node"><title>Node1</title>
<polygon fill="#bfbfbf" stroke="black" points="0,-1 0,-113 170,-113 170,-1 0,-1"/>
<text text-anchor="start" x="8" y="-101" font-family="Helvetica,sans-Serif" font-size="10.00">com.cloudera.impala.util.</text>
<text text-anchor="start" x="8" y="-90" font-family="Helvetica,sans-Serif" font-size="10.00">SentryPolicyService.SentryService</text>
<text text-anchor="middle" x="85" y="-79" font-family="Helvetica,sans-Serif" font-size="10.00">Client</text>
<polyline fill="none" stroke="black" points="0,-72 170,-72 "/>
<text text-anchor="middle" x="85" y="-60" font-family="Helvetica,sans-Serif" font-size="10.00"> </text>
<polyline fill="none" stroke="black" points="0,-53 170,-53 "/>
<text text-anchor="start" x="8" y="-41" font-family="Helvetica,sans-Serif" font-size="10.00">+ SentryServiceClient()</text>
<text text-anchor="start" x="8" y="-30" font-family="Helvetica,sans-Serif" font-size="10.00">+ get()</text>
<text text-anchor="start" x="8" y="-19" font-family="Helvetica,sans-Serif" font-size="10.00">+ close()</text>
<text text-anchor="start" x="8" y="-8" font-family="Helvetica,sans-Serif" font-size="10.00">&#45; createClient()</text>
</g>
<!-- Node2 -->
<g id="node2" class="node"><title>Node2</title>
<polygon fill="white" stroke="#bfbfbf" points="19.5,-162.5 19.5,-219.5 150.5,-219.5 150.5,-162.5 19.5,-162.5"/>
<text text-anchor="middle" x="85" y="-207.5" font-family="Helvetica,sans-Serif" font-size="10.00">SentryPolicyServiceClient</text>
<polyline fill="none" stroke="#bfbfbf" points="19.5,-200.5 150.5,-200.5 "/>
<text text-anchor="middle" x="85" y="-188.5" font-family="Helvetica,sans-Serif" font-size="10.00"> </text>
<polyline fill="none" stroke="#bfbfbf" points="19.5,-181.5 150.5,-181.5 "/>
<text text-anchor="middle" x="85" y="-169.5" font-family="Helvetica,sans-Serif" font-size="10.00"> </text>
</g>
<!-- Node2&#45;&gt;Node1 -->
<g id="edge1" class="edge"><title>Node2&#45;&gt;Node1</title>
<path fill="none" stroke="#404040" d="M85,-162.328C85,-151.389 85,-138.3 85,-125.15"/>
<polygon fill="none" stroke="#404040" points="85.0001,-125.116 81,-119.116 85,-113.116 89,-119.116 85.0001,-125.116"/>
<text text-anchor="middle" x="102.5" y="-135.5" font-family="Helvetica,sans-Serif" font-size="10.00"> &#45;client_</text>
</g>
</g>
</svg>
