<?xml version="1.0" encoding="UTF-8" standalone="no"?>
<!DOCTYPE svg PUBLIC "-//W3C//DTD SVG 1.1//EN"
 "http://www.w3.org/Graphics/SVG/1.1/DTD/svg11.dtd">
<!-- Generated by graphviz version 2.36.0 (20140111.2315)
 -->
<!-- Title: com.cloudera.impala.analysis.AuthorizationStmt Pages: 1 -->
<svg width="425pt" height="356pt"
 viewBox="0.00 0.00 425.00 356.00" xmlns="http://www.w3.org/2000/svg" xmlns:xlink="http://www.w3.org/1999/xlink">
<g id="graph0" class="graph" transform="scale(1 1) rotate(0) translate(4 352)">
<title>com.cloudera.impala.analysis.AuthorizationStmt</title>
<polygon fill="white" stroke="none" points="-4,4 -4,-352 421,-352 421,4 -4,4"/>
<!-- Node1 -->
<g id="node1" class="node"><title>Node1</title>
<polygon fill="#bfbfbf" stroke="black" points="173.5,-1 173.5,-69 322.5,-69 322.5,-1 173.5,-1"/>
<text text-anchor="start" x="181.5" y="-57" font-family="Helvetica,sans-Serif" font-size="10.00">com.cloudera.impala.analysis.</text>
<text text-anchor="middle" x="248" y="-46" font-family="Helvetica,sans-Serif" font-size="10.00">AuthorizationStmt</text>
<polyline fill="none" stroke="black" points="173.5,-39 322.5,-39 "/>
<text text-anchor="middle" x="248" y="-27" font-family="Helvetica,sans-Serif" font-size="10.00"> </text>
<polyline fill="none" stroke="black" points="173.5,-20 322.5,-20 "/>
<text text-anchor="start" x="181.5" y="-8" font-family="Helvetica,sans-Serif" font-size="10.00">+ analyze()</text>
</g>
<!-- Node2 -->
<g id="node2" class="node"><title>Node2</title>
<g id="a_node2"><a xlink:href="classcom_1_1cloudera_1_1impala_1_1analysis_1_1StatementBase.html" target="_top" xlink:title="{com.cloudera.impala.analysis.\lStatementBase\n||+ analyze()\l+ toSql()\l+ setIsExplain()\l+ isExplain()\l}">
<polygon fill="white" stroke="black" points="61.5,-118.5 61.5,-219.5 210.5,-219.5 210.5,-118.5 61.5,-118.5"/>
<text text-anchor="start" x="69.5" y="-207.5" font-family="Helvetica,sans-Serif" font-size="10.00">com.cloudera.impala.analysis.</text>
<text text-anchor="middle" x="136" y="-196.5" font-family="Helvetica,sans-Serif" font-size="10.00">StatementBase</text>
<polyline fill="none" stroke="black" points="61.5,-189.5 210.5,-189.5 "/>
<text text-anchor="middle" x="136" y="-177.5" font-family="Helvetica,sans-Serif" font-size="10.00"> </text>
<polyline fill="none" stroke="black" points="61.5,-170.5 210.5,-170.5 "/>
<text text-anchor="start" x="69.5" y="-158.5" font-family="Helvetica,sans-Serif" font-size="10.00">+ analyze()</text>
<text text-anchor="start" x="69.5" y="-147.5" font-family="Helvetica,sans-Serif" font-size="10.00">+ toSql()</text>
<text text-anchor="start" x="69.5" y="-136.5" font-family="Helvetica,sans-Serif" font-size="10.00">+ setIsExplain()</text>
<text text-anchor="start" x="69.5" y="-125.5" font-family="Helvetica,sans-Serif" font-size="10.00">+ isExplain()</text>
</a>
</g>
</g>
<!-- Node2&#45;&gt;Node1 -->
<g id="edge1" class="edge"><title>Node2&#45;&gt;Node1</title>
<path fill="none" stroke="midnightblue" d="M184.616,-110.702C196.595,-96.5847 209.032,-81.9269 219.683,-69.3731"/>
<polygon fill="none" stroke="midnightblue" points="181.824,-108.583 178.023,-118.473 187.162,-113.112 181.824,-108.583"/>
</g>
<!-- Node3 -->
<g id="node3" class="node"><title>Node3</title>
<g id="a_node3"><a xlink:href="interfacecom_1_1cloudera_1_1impala_1_1analysis_1_1ParseNode.html" target="_top" xlink:title="{com.cloudera.impala.analysis.\lParseNode\n||+ analyze()\l+ toSql()\l}">
<polygon fill="white" stroke="black" points="-0.5,-268.5 -0.5,-347.5 148.5,-347.5 148.5,-268.5 -0.5,-268.5"/>
<text text-anchor="start" x="7.5" y="-335.5" font-family="Helvetica,sans-Serif" font-size="10.00">com.cloudera.impala.analysis.</text>
<text text-anchor="middle" x="74" y="-324.5" font-family="Helvetica,sans-Serif" font-size="10.00">ParseNode</text>
<polyline fill="none" stroke="black" points="-0.5,-317.5 148.5,-317.5 "/>
<text text-anchor="middle" x="74" y="-305.5" font-family="Helvetica,sans-Serif" font-size="10.00"> </text>
<polyline fill="none" stroke="black" points="-0.5,-298.5 148.5,-298.5 "/>
<text text-anchor="start" x="7.5" y="-286.5" font-family="Helvetica,sans-Serif" font-size="10.00">+ analyze()</text>
<text text-anchor="start" x="7.5" y="-275.5" font-family="Helvetica,sans-Serif" font-size="10.00">+ toSql()</text>
</a>
</g>
</g>
<!-- Node3&#45;&gt;Node2 -->
<g id="edge2" class="edge"><title>Node3&#45;&gt;Node2</title>
<path fill="none" stroke="midnightblue" d="M95.5784,-259.319C101.405,-246.443 107.723,-232.482 113.595,-219.509"/>
<polygon fill="none" stroke="midnightblue" points="92.3698,-257.92 91.4354,-268.473 98.7472,-260.806 92.3698,-257.92"/>
</g>
<!-- Node4 -->
<g id="node4" class="node"><title>Node4</title>
<polygon fill="white" stroke="#bfbfbf" points="166,-279.5 166,-336.5 216,-336.5 216,-279.5 166,-279.5"/>
<text text-anchor="middle" x="191" y="-324.5" font-family="Helvetica,sans-Serif" font-size="10.00">boolean</text>
<polyline fill="none" stroke="#bfbfbf" points="166,-317.5 216,-317.5 "/>
<text text-anchor="middle" x="191" y="-305.5" font-family="Helvetica,sans-Serif" font-size="10.00"> </text>
<polyline fill="none" stroke="#bfbfbf" points="166,-298.5 216,-298.5 "/>
<text text-anchor="middle" x="191" y="-286.5" font-family="Helvetica,sans-Serif" font-size="10.00"> </text>
</g>
<!-- Node4&#45;&gt;Node2 -->
<g id="edge3" class="edge"><title>Node4&#45;&gt;Node2</title>
<path fill="none" stroke="#404040" d="M179.87,-279.276C174.285,-265.364 167.283,-247.923 160.524,-231.087"/>
<polygon fill="none" stroke="#404040" points="160.374,-230.714 154.427,-226.636 155.904,-219.578 161.851,-223.656 160.374,-230.714"/>
<text text-anchor="middle" x="194" y="-241.5" font-family="Helvetica,sans-Serif" font-size="10.00"> #isExplain_</text>
</g>
<!-- Node5 -->
<g id="node5" class="node"><title>Node5</title>
<g id="a_node5"><a xlink:href="classcom_1_1cloudera_1_1impala_1_1authorization_1_1User.html" target="_top" xlink:title="{com.cloudera.impala.authorization.User\n||+ User()\l+ getName()\l+ getShortName()\l}">
<polygon fill="white" stroke="black" points="228.5,-129.5 228.5,-208.5 417.5,-208.5 417.5,-129.5 228.5,-129.5"/>
<text text-anchor="middle" x="323" y="-196.5" font-family="Helvetica,sans-Serif" font-size="10.00">com.cloudera.impala.authorization.User</text>
<polyline fill="none" stroke="black" points="228.5,-189.5 417.5,-189.5 "/>
<text text-anchor="middle" x="323" y="-177.5" font-family="Helvetica,sans-Serif" font-size="10.00"> </text>
<polyline fill="none" stroke="black" points="228.5,-170.5 417.5,-170.5 "/>
<text text-anchor="start" x="236.5" y="-158.5" font-family="Helvetica,sans-Serif" font-size="10.00">+ User()</text>
<text text-anchor="start" x="236.5" y="-147.5" font-family="Helvetica,sans-Serif" font-size="10.00">+ getName()</text>
<text text-anchor="start" x="236.5" y="-136.5" font-family="Helvetica,sans-Serif" font-size="10.00">+ getShortName()</text>
</a>
</g>
</g>
<!-- Node5&#45;&gt;Node1 -->
<g id="edge4" class="edge"><title>Node5&#45;&gt;Node1</title>
<path fill="none" stroke="#404040" d="M301.105,-129.465C292.323,-114.008 282.15,-96.1047 273.073,-80.1289"/>
<polygon fill="none" stroke="#404040" points="272.923,-79.864 266.481,-76.6233 266.995,-69.4305 273.436,-72.6712 272.923,-79.864"/>
<text text-anchor="middle" x="323" y="-91.5" font-family="Helvetica,sans-Serif" font-size="10.00"> #requestingUser_</text>
</g>
<!-- Node6 -->
<g id="node6" class="node"><title>Node6</title>
<polygon fill="white" stroke="#bfbfbf" points="302,-279.5 302,-336.5 344,-336.5 344,-279.5 302,-279.5"/>
<text text-anchor="middle" x="323" y="-324.5" font-family="Helvetica,sans-Serif" font-size="10.00">String</text>
<polyline fill="none" stroke="#bfbfbf" points="302,-317.5 344,-317.5 "/>
<text text-anchor="middle" x="323" y="-305.5" font-family="Helvetica,sans-Serif" font-size="10.00"> </text>
<polyline fill="none" stroke="#bfbfbf" points="302,-298.5 344,-298.5 "/>
<text text-anchor="middle" x="323" y="-286.5" font-family="Helvetica,sans-Serif" font-size="10.00"> </text>
</g>
<!-- Node6&#45;&gt;Node5 -->
<g id="edge5" class="edge"><title>Node6&#45;&gt;Node5</title>
<path fill="none" stroke="#404040" d="M323,-279.276C323,-262.441 323,-240.441 323,-220.596"/>
<polygon fill="none" stroke="#404040" points="323,-220.584 319,-214.584 323,-208.584 327,-214.584 323,-220.584"/>
<text text-anchor="middle" x="341" y="-241.5" font-family="Helvetica,sans-Serif" font-size="10.00"> &#45;name_</text>
</g>
</g>
</svg>
