<?xml version="1.0" encoding="UTF-8" standalone="no"?>
<!DOCTYPE svg PUBLIC "-//W3C//DTD SVG 1.1//EN"
 "http://www.w3.org/Graphics/SVG/1.1/DTD/svg11.dtd">
<!-- Generated by graphviz version 2.36.0 (20140111.2315)
 -->
<!-- Title: com.cloudera.impala.catalog.HdfsStorageDescriptor.InvalidStorageDescriptorException Pages: 1 -->
<!--zoomable 486 -->
<svg id="main" version="1.1" xmlns="http://www.w3.org/2000/svg" xmlns:xlink="http://www.w3.org/1999/xlink" xml:space="preserve" onload="init(evt)">
<style type="text/css"><![CDATA[
.edge:hover path { stroke: red; }
.edge:hover polygon { stroke: red; fill: red; }
]]></style>
<script type="text/javascript"><![CDATA[
var edges = document.getElementsByTagName('g');
if (edges && edges.length) {
  for (var i=0;i<edges.length;i++) {
    if (edges[i].id.substr(0,4)=='edge') {
      edges[i].setAttribute('class','edge');
    }
  }
}
]]></script>
        <defs>
                <circle id="rim" cx="0" cy="0" r="7"/>
                <circle id="rim2" cx="0" cy="0" r="3.5"/>
                <g id="zoomPlus">
                        <use xlink:href="#rim" fill="#404040">
                                <set attributeName="fill" to="#808080" begin="zoomplus.mouseover" end="zoomplus.mouseout"/>
                        </use>
                        <path d="M-4,0h8M0,-4v8" fill="none" stroke="white" stroke-width="1.5" pointer-events="none"/>
                </g>
                <g id="zoomMin">
                        <use xlink:href="#rim" fill="#404040">
                                <set attributeName="fill" to="#808080" begin="zoomminus.mouseover" end="zoomminus.mouseout"/>
                        </use>
                        <path d="M-4,0h8" fill="none" stroke="white" stroke-width="1.5" pointer-events="none"/>
                </g>
                <g id="dirArrow">
                        <path fill="none" stroke="white" stroke-width="1.5" d="M0,-3.0v7 M-2.5,-0.5L0,-3.0L2.5,-0.5"/>
                </g>
               <g id="resetDef">
                       <use xlink:href="#rim2" fill="#404040">
                               <set attributeName="fill" to="#808080" begin="reset.mouseover" end="reset.mouseout"/>
                       </use>
               </g>
        </defs>

<script type="text/javascript">
var viewWidth = 277;
var viewHeight = 486;
var sectionId = 'dynsection-1';
</script>
<script xlink:href="svgpan.js"/>
<svg id="graph" class="graph">
<g id="viewport">
<title>com.cloudera.impala.catalog.HdfsStorageDescriptor.InvalidStorageDescriptorException</title>
<polygon fill="white" stroke="none" points="-4,4 -4,-482 273,-482 273,4 -4,4"/>
<!-- Node1 -->
<g id="node1" class="node"><title>Node1</title>
<polygon fill="#bfbfbf" stroke="black" points="86,-1 86,-135 268,-135 268,-1 86,-1"/>
<text text-anchor="start" x="94" y="-123" font-family="Helvetica,sans-Serif" font-size="10.00">com.cloudera.impala.catalog.</text>
<text text-anchor="start" x="94" y="-112" font-family="Helvetica,sans-Serif" font-size="10.00">HdfsStorageDescriptor.InvalidStorage</text>
<text text-anchor="middle" x="177" y="-101" font-family="Helvetica,sans-Serif" font-size="10.00">DescriptorException</text>
<polyline fill="none" stroke="black" points="86,-94 268,-94 "/>
<text text-anchor="middle" x="177" y="-82" font-family="Helvetica,sans-Serif" font-size="10.00"> </text>
<polyline fill="none" stroke="black" points="86,-75 268,-75 "/>
<text text-anchor="start" x="94" y="-63" font-family="Helvetica,sans-Serif" font-size="10.00">+ InvalidStorageDescriptor</text>
<text text-anchor="start" x="94" y="-52" font-family="Helvetica,sans-Serif" font-size="10.00">Exception()</text>
<text text-anchor="start" x="94" y="-41" font-family="Helvetica,sans-Serif" font-size="10.00">+ InvalidStorageDescriptor</text>
<text text-anchor="start" x="94" y="-30" font-family="Helvetica,sans-Serif" font-size="10.00">Exception()</text>
<text text-anchor="start" x="94" y="-19" font-family="Helvetica,sans-Serif" font-size="10.00">+ InvalidStorageDescriptor</text>
<text text-anchor="start" x="94" y="-8" font-family="Helvetica,sans-Serif" font-size="10.00">Exception()</text>
</g>
<!-- Node2 -->
<g id="node2" class="node"><title>Node2</title>
<g id="a_node2"><a xlink:href="classcom_1_1cloudera_1_1impala_1_1catalog_1_1CatalogException.html" target="_top" xlink:title="{com.cloudera.impala.catalog.\lCatalogException\n||+ CatalogException()\l+ CatalogException()\l}">
<polygon fill="white" stroke="black" points="24,-174.5 24,-253.5 168,-253.5 168,-174.5 24,-174.5"/>
<text text-anchor="start" x="32" y="-241.5" font-family="Helvetica,sans-Serif" font-size="10.00">com.cloudera.impala.catalog.</text>
<text text-anchor="middle" x="96" y="-230.5" font-family="Helvetica,sans-Serif" font-size="10.00">CatalogException</text>
<polyline fill="none" stroke="black" points="24,-223.5 168,-223.5 "/>
<text text-anchor="middle" x="96" y="-211.5" font-family="Helvetica,sans-Serif" font-size="10.00"> </text>
<polyline fill="none" stroke="black" points="24,-204.5 168,-204.5 "/>
<text text-anchor="start" x="32" y="-192.5" font-family="Helvetica,sans-Serif" font-size="10.00">+ CatalogException()</text>
<text text-anchor="start" x="32" y="-181.5" font-family="Helvetica,sans-Serif" font-size="10.00">+ CatalogException()</text>
</a>
</g>
</g>
<!-- Node2&#45;&gt;Node1 -->
<g id="edge1" class="edge"><title>Node2&#45;&gt;Node1</title>
<path fill="none" stroke="midnightblue" d="M122.62,-165.676C128.103,-155.927 133.973,-145.493 139.753,-135.216"/>
<polygon fill="none" stroke="midnightblue" points="119.559,-163.979 117.707,-174.411 125.66,-167.411 119.559,-163.979"/>
</g>
<!-- Node3 -->
<g id="node3" class="node"><title>Node3</title>
<g id="a_node3"><a xlink:href="classcom_1_1cloudera_1_1impala_1_1common_1_1ImpalaException.html" target="_top" xlink:title="{com.cloudera.impala.common.\lImpalaException\n||+ ImpalaException()\l# ImpalaException()\l}">
<polygon fill="white" stroke="black" points="0,-302.5 0,-381.5 150,-381.5 150,-302.5 0,-302.5"/>
<text text-anchor="start" x="8" y="-369.5" font-family="Helvetica,sans-Serif" font-size="10.00">com.cloudera.impala.common.</text>
<text text-anchor="middle" x="75" y="-358.5" font-family="Helvetica,sans-Serif" font-size="10.00">ImpalaException</text>
<polyline fill="none" stroke="black" points="0,-351.5 150,-351.5 "/>
<text text-anchor="middle" x="75" y="-339.5" font-family="Helvetica,sans-Serif" font-size="10.00"> </text>
<polyline fill="none" stroke="black" points="0,-332.5 150,-332.5 "/>
<text text-anchor="start" x="8" y="-320.5" font-family="Helvetica,sans-Serif" font-size="10.00">+ ImpalaException()</text>
<text text-anchor="start" x="8" y="-309.5" font-family="Helvetica,sans-Serif" font-size="10.00"># ImpalaException()</text>
</a>
</g>
</g>
<!-- Node3&#45;&gt;Node2 -->
<g id="edge2" class="edge"><title>Node3&#45;&gt;Node2</title>
<path fill="none" stroke="midnightblue" d="M83.1318,-292.209C85.2464,-279.522 87.4961,-266.024 89.5132,-253.921"/>
<polygon fill="none" stroke="midnightblue" points="79.6637,-291.728 81.472,-302.168 86.5685,-292.879 79.6637,-291.728"/>
</g>
<!-- Node4 -->
<g id="node4" class="node"><title>Node4</title>
<polygon fill="white" stroke="#bfbfbf" points="21,-420.5 21,-477.5 129,-477.5 129,-420.5 21,-420.5"/>
<text text-anchor="middle" x="75" y="-465.5" font-family="Helvetica,sans-Serif" font-size="10.00">java::lang::Exception</text>
<polyline fill="none" stroke="#bfbfbf" points="21,-458.5 129,-458.5 "/>
<text text-anchor="middle" x="75" y="-446.5" font-family="Helvetica,sans-Serif" font-size="10.00"> </text>
<polyline fill="none" stroke="#bfbfbf" points="21,-439.5 129,-439.5 "/>
<text text-anchor="middle" x="75" y="-427.5" font-family="Helvetica,sans-Serif" font-size="10.00"> </text>
</g>
<!-- Node4&#45;&gt;Node3 -->
<g id="edge3" class="edge"><title>Node4&#45;&gt;Node3</title>
<path fill="none" stroke="midnightblue" d="M75,-410.322C75,-401.073 75,-391.155 75,-381.851"/>
<polygon fill="none" stroke="midnightblue" points="71.5001,-410.412 75,-420.412 78.5001,-410.413 71.5001,-410.412"/>
</g>
<!-- Node5 -->
<g id="node5" class="node"><title>Node5</title>
<polygon fill="white" stroke="#bfbfbf" points="176.5,-313.5 176.5,-370.5 211.5,-370.5 211.5,-313.5 176.5,-313.5"/>
<text text-anchor="middle" x="194" y="-358.5" font-family="Helvetica,sans-Serif" font-size="10.00">long</text>
<polyline fill="none" stroke="#bfbfbf" points="176.5,-351.5 211.5,-351.5 "/>
<text text-anchor="middle" x="194" y="-339.5" font-family="Helvetica,sans-Serif" font-size="10.00"> </text>
<polyline fill="none" stroke="#bfbfbf" points="176.5,-332.5 211.5,-332.5 "/>
<text text-anchor="middle" x="194" y="-320.5" font-family="Helvetica,sans-Serif" font-size="10.00"> </text>
</g>
<!-- Node5&#45;&gt;Node1 -->
<g id="edge5" class="edge"><title>Node5&#45;&gt;Node1</title>
<path fill="none" stroke="#404040" d="M192.442,-313.465C191.717,-300.83 190.833,-285.654 190,-272 187.498,-230.988 184.585,-185.324 182.151,-147.707"/>
<polygon fill="none" stroke="#404040" points="182.122,-147.252 177.742,-141.524 181.346,-135.277 185.726,-141.006 182.122,-147.252"/>
<text text-anchor="middle" x="228.5" y="-211.5" font-family="Helvetica,sans-Serif" font-size="10.00"> &#45;serialVersionUID</text>
</g>
<!-- Node5&#45;&gt;Node2 -->
<g id="edge4" class="edge"><title>Node5&#45;&gt;Node2</title>
<path fill="none" stroke="#404040" d="M176.177,-318.068C170.816,-312.246 164.59,-306.4 158,-302 138.705,-289.117 123.99,-301.708 109,-284 104.57,-278.767 101.459,-272.502 99.301,-265.911"/>
<polygon fill="none" stroke="#404040" points="99.2034,-265.51 93.899,-260.625 96.3679,-253.85 101.672,-258.735 99.2034,-265.51"/>
<text text-anchor="middle" x="149.5" y="-275.5" font-family="Helvetica,sans-Serif" font-size="10.00"> &#45;serialVersionUID</text>
</g>
</g>
</svg>
        <g id="navigator" transform="translate(0 0)" fill="#404254">
                <rect fill="#f2f5e9" fill-opacity="0.5" stroke="#606060" stroke-width=".5" x="0" y="0" width="60" height="60"/>
                <use id="zoomplus" xlink:href="#zoomPlus" x="17" y="9" onmousedown="handleZoom(evt,'in')"/>
                <use id="zoomminus" xlink:href="#zoomMin" x="42" y="9" onmousedown="handleZoom(evt,'out')"/>
                <use id="reset" xlink:href="#resetDef" x="30" y="36" onmousedown="handleReset()"/>
                <g id="arrowUp" xlink:href="#dirArrow" transform="translate(30 24)" onmousedown="handlePan(0,-1)">
                  <use xlink:href="#rim" fill="#404040">
                        <set attributeName="fill" to="#808080" begin="arrowUp.mouseover" end="arrowUp.mouseout"/>
                  </use>
                  <path fill="none" stroke="white" stroke-width="1.5" d="M0,-3.0v7 M-2.5,-0.5L0,-3.0L2.5,-0.5"/>
                </g>
                <g id="arrowRight" xlink:href="#dirArrow" transform="rotate(90) translate(36 -43)" onmousedown="handlePan(1,0)">
                  <use xlink:href="#rim" fill="#404040">
                        <set attributeName="fill" to="#808080" begin="arrowRight.mouseover" end="arrowRight.mouseout"/>
                  </use>
                  <path fill="none" stroke="white" stroke-width="1.5" d="M0,-3.0v7 M-2.5,-0.5L0,-3.0L2.5,-0.5"/>
                </g>
                <g id="arrowDown" xlink:href="#dirArrow" transform="rotate(180) translate(-30 -48)" onmousedown="handlePan(0,1)">
                  <use xlink:href="#rim" fill="#404040">
                        <set attributeName="fill" to="#808080" begin="arrowDown.mouseover" end="arrowDown.mouseout"/>
                  </use>
                  <path fill="none" stroke="white" stroke-width="1.5" d="M0,-3.0v7 M-2.5,-0.5L0,-3.0L2.5,-0.5"/>
                </g>
                <g id="arrowLeft" xlink:href="#dirArrow" transform="rotate(270) translate(-36 17)" onmousedown="handlePan(-1,0)">
                  <use xlink:href="#rim" fill="#404040">
                        <set attributeName="fill" to="#808080" begin="arrowLeft.mouseover" end="arrowLeft.mouseout"/>
                  </use>
                  <path fill="none" stroke="white" stroke-width="1.5" d="M0,-3.0v7 M-2.5,-0.5L0,-3.0L2.5,-0.5"/>
                </g>
        </g>
        <svg viewBox="0 0 15 15" width="100%" height="30px" preserveAspectRatio="xMaxYMin meet">
         <g id="arrow_out" transform="scale(0.3 0.3)">
          <a xlink:href="classcom_1_1cloudera_1_1impala_1_1catalog_1_1HdfsStorageDescriptor_1_1InvalidStorageDescriptorException__coll__graph_org.svg" target="_base">
           <rect id="button" ry="5" rx="5" y="6" x="6" height="38" width="38"
                fill="#f2f5e9" fill-opacity="0.5" stroke="#606060" stroke-width="1.0"/>
           <path id="arrow"
             d="M 11.500037,31.436501 C 11.940474,20.09759 22.043105,11.32322 32.158766,21.979434 L 37.068811,17.246167 C 37.068811,17.246167 37.088388,32 37.088388,32 L 22.160133,31.978069 C 22.160133,31.978069 26.997745,27.140456 26.997745,27.140456 C 18.528582,18.264221 13.291696,25.230495 11.500037,31.436501 z"
             style="fill:#404040;"/>
          </a>
         </g>
        </svg>
</svg>
