<?xml version="1.0" encoding="UTF-8" standalone="no"?>
<!DOCTYPE svg PUBLIC "-//W3C//DTD SVG 1.1//EN"
 "http://www.w3.org/Graphics/SVG/1.1/DTD/svg11.dtd">
<!-- Generated by graphviz version 2.36.0 (20140111.2315)
 -->
<!-- Title: apache::thrift::transport::TSaslTransport Pages: 1 -->
<svg width="703pt" height="414pt"
 viewBox="0.00 0.00 703.00 414.00" xmlns="http://www.w3.org/2000/svg" xmlns:xlink="http://www.w3.org/1999/xlink">
<g id="graph0" class="graph" transform="scale(1 1) rotate(0) translate(4 410)">
<title>apache::thrift::transport::TSaslTransport</title>
<polygon fill="white" stroke="none" points="-4,4 -4,-410 699,-410 699,4 -4,4"/>
<!-- Node1 -->
<g id="node1" class="node"><title>Node1</title>
<polygon fill="#bfbfbf" stroke="black" points="304,-0.5 304,-277.5 444,-277.5 444,-0.5 304,-0.5"/>
<text text-anchor="start" x="312" y="-265.5" font-family="Helvetica,sans-Serif" font-size="10.00">apache::thrift::transport</text>
<text text-anchor="middle" x="374" y="-254.5" font-family="Helvetica,sans-Serif" font-size="10.00">::TSaslTransport</text>
<polyline fill="none" stroke="black" points="304,-247.5 444,-247.5 "/>
<text text-anchor="middle" x="374" y="-235.5" font-family="Helvetica,sans-Serif" font-size="10.00"> </text>
<polyline fill="none" stroke="black" points="304,-228.5 444,-228.5 "/>
<text text-anchor="start" x="312" y="-216.5" font-family="Helvetica,sans-Serif" font-size="10.00">+ TSaslTransport()</text>
<text text-anchor="start" x="312" y="-205.5" font-family="Helvetica,sans-Serif" font-size="10.00">+ TSaslTransport()</text>
<text text-anchor="start" x="312" y="-194.5" font-family="Helvetica,sans-Serif" font-size="10.00">+ ~TSaslTransport()</text>
<text text-anchor="start" x="312" y="-183.5" font-family="Helvetica,sans-Serif" font-size="10.00">+ isOpen()</text>
<text text-anchor="start" x="312" y="-172.5" font-family="Helvetica,sans-Serif" font-size="10.00">+ peek()</text>
<text text-anchor="start" x="312" y="-161.5" font-family="Helvetica,sans-Serif" font-size="10.00">+ open()</text>
<text text-anchor="start" x="312" y="-150.5" font-family="Helvetica,sans-Serif" font-size="10.00">+ close()</text>
<text text-anchor="start" x="312" y="-139.5" font-family="Helvetica,sans-Serif" font-size="10.00">+ read()</text>
<text text-anchor="start" x="312" y="-128.5" font-family="Helvetica,sans-Serif" font-size="10.00">+ write()</text>
<text text-anchor="start" x="312" y="-117.5" font-family="Helvetica,sans-Serif" font-size="10.00">+ flush()</text>
<text text-anchor="start" x="312" y="-106.5" font-family="Helvetica,sans-Serif" font-size="10.00">+ getUnderlyingTransport()</text>
<text text-anchor="start" x="312" y="-95.5" font-family="Helvetica,sans-Serif" font-size="10.00">+ getUsername()</text>
<text text-anchor="start" x="312" y="-84.5" font-family="Helvetica,sans-Serif" font-size="10.00"># encodeInt()</text>
<text text-anchor="start" x="312" y="-73.5" font-family="Helvetica,sans-Serif" font-size="10.00"># decodeInt()</text>
<text text-anchor="start" x="312" y="-62.5" font-family="Helvetica,sans-Serif" font-size="10.00"># receiveSaslMessage()</text>
<text text-anchor="start" x="312" y="-51.5" font-family="Helvetica,sans-Serif" font-size="10.00"># sendSaslMessage()</text>
<text text-anchor="start" x="312" y="-40.5" font-family="Helvetica,sans-Serif" font-size="10.00"># readLength()</text>
<text text-anchor="start" x="312" y="-29.5" font-family="Helvetica,sans-Serif" font-size="10.00"># writeLength()</text>
<text text-anchor="start" x="312" y="-18.5" font-family="Helvetica,sans-Serif" font-size="10.00"># handleSaslStartMessage()</text>
<text text-anchor="start" x="312" y="-7.5" font-family="Helvetica,sans-Serif" font-size="10.00"># shrinkBuffer()</text>
</g>
<!-- Node2 -->
<g id="node2" class="node"><title>Node2</title>
<g id="a_node2"><a xlink:href="classTVirtualTransport.html" target="_top" xlink:title="{TVirtualTransport\&lt;\l TSaslTransport \&gt;\n||}">
<polygon fill="white" stroke="black" points="0,-337 0,-405 98,-405 98,-337 0,-337"/>
<text text-anchor="start" x="8" y="-393" font-family="Helvetica,sans-Serif" font-size="10.00">TVirtualTransport&lt;</text>
<text text-anchor="middle" x="49" y="-382" font-family="Helvetica,sans-Serif" font-size="10.00"> TSaslTransport &gt;</text>
<polyline fill="none" stroke="black" points="0,-375 98,-375 "/>
<text text-anchor="middle" x="49" y="-363" font-family="Helvetica,sans-Serif" font-size="10.00"> </text>
<polyline fill="none" stroke="black" points="0,-356 98,-356 "/>
<text text-anchor="middle" x="49" y="-344" font-family="Helvetica,sans-Serif" font-size="10.00"> </text>
</a>
</g>
</g>
<!-- Node2&#45;&gt;Node1 -->
<g id="edge1" class="edge"><title>Node2&#45;&gt;Node1</title>
<path fill="none" stroke="midnightblue" d="M104.143,-330.976C159.172,-292.032 243.926,-232.053 303.744,-189.72"/>
<polygon fill="none" stroke="midnightblue" points="102.052,-328.168 95.9107,-336.802 106.095,-333.882 102.052,-328.168"/>
</g>
<!-- Node3 -->
<g id="node3" class="node"><title>Node3</title>
<polygon fill="white" stroke="#bfbfbf" points="116,-342.5 116,-399.5 246,-399.5 246,-342.5 116,-342.5"/>
<text text-anchor="middle" x="181" y="-387.5" font-family="Helvetica,sans-Serif" font-size="10.00">shared_ptr&lt; sasl::TSasl &gt;</text>
<polyline fill="none" stroke="#bfbfbf" points="116,-380.5 246,-380.5 "/>
<text text-anchor="middle" x="181" y="-368.5" font-family="Helvetica,sans-Serif" font-size="10.00"> </text>
<polyline fill="none" stroke="#bfbfbf" points="116,-361.5 246,-361.5 "/>
<text text-anchor="middle" x="181" y="-349.5" font-family="Helvetica,sans-Serif" font-size="10.00"> </text>
</g>
<!-- Node3&#45;&gt;Node1 -->
<g id="edge2" class="edge"><title>Node3&#45;&gt;Node1</title>
<path fill="none" stroke="#404040" d="M204.28,-342.257C227.067,-315.102 263.067,-272.2 296.059,-232.883"/>
<polygon fill="none" stroke="#404040" points="296.214,-232.698 297.007,-225.531 303.928,-223.506 303.135,-230.673 296.214,-232.698"/>
<text text-anchor="middle" x="255" y="-304.5" font-family="Helvetica,sans-Serif" font-size="10.00"> #sasl_</text>
</g>
<!-- Node4 -->
<g id="node4" class="node"><title>Node4</title>
<polygon fill="white" stroke="#bfbfbf" points="264,-342.5 264,-399.5 392,-399.5 392,-342.5 264,-342.5"/>
<text text-anchor="middle" x="328" y="-387.5" font-family="Helvetica,sans-Serif" font-size="10.00">shared_ptr&lt; TTransport &gt;</text>
<polyline fill="none" stroke="#bfbfbf" points="264,-380.5 392,-380.5 "/>
<text text-anchor="middle" x="328" y="-368.5" font-family="Helvetica,sans-Serif" font-size="10.00"> </text>
<polyline fill="none" stroke="#bfbfbf" points="264,-361.5 392,-361.5 "/>
<text text-anchor="middle" x="328" y="-349.5" font-family="Helvetica,sans-Serif" font-size="10.00"> </text>
</g>
<!-- Node4&#45;&gt;Node1 -->
<g id="edge3" class="edge"><title>Node4&#45;&gt;Node1</title>
<path fill="none" stroke="#404040" d="M333.549,-342.257C336.385,-328.074 340.081,-309.596 344.085,-289.577"/>
<polygon fill="none" stroke="#404040" points="344.12,-289.4 341.374,-282.732 346.473,-277.633 349.219,-284.301 344.12,-289.4"/>
<text text-anchor="middle" x="368" y="-304.5" font-family="Helvetica,sans-Serif" font-size="10.00"> #transport_</text>
</g>
<!-- Node5 -->
<g id="node5" class="node"><title>Node5</title>
<g id="a_node5"><a xlink:href="classbool.html" target="_top" xlink:title="{bool\n||}">
<polygon fill="white" stroke="black" points="410.5,-342.5 410.5,-399.5 445.5,-399.5 445.5,-342.5 410.5,-342.5"/>
<text text-anchor="middle" x="428" y="-387.5" font-family="Helvetica,sans-Serif" font-size="10.00">bool</text>
<polyline fill="none" stroke="black" points="410.5,-380.5 445.5,-380.5 "/>
<text text-anchor="middle" x="428" y="-368.5" font-family="Helvetica,sans-Serif" font-size="10.00"> </text>
<polyline fill="none" stroke="black" points="410.5,-361.5 445.5,-361.5 "/>
<text text-anchor="middle" x="428" y="-349.5" font-family="Helvetica,sans-Serif" font-size="10.00"> </text>
</a>
</g>
</g>
<!-- Node5&#45;&gt;Node1 -->
<g id="edge4" class="edge"><title>Node5&#45;&gt;Node1</title>
<path fill="none" stroke="#404040" d="M421.486,-342.257C418.157,-328.074 413.818,-309.596 409.118,-289.577"/>
<polygon fill="none" stroke="#404040" points="409.057,-289.316 403.791,-284.389 406.314,-277.633 411.579,-282.56 409.057,-289.316"/>
<text text-anchor="middle" x="448" y="-310" font-family="Helvetica,sans-Serif" font-size="10.00"> #shouldWrap_</text>
<text text-anchor="middle" x="448" y="-299" font-family="Helvetica,sans-Serif" font-size="10.00">#isClient_</text>
</g>
<!-- Node6 -->
<g id="node6" class="node"><title>Node6</title>
<polygon fill="white" stroke="#bfbfbf" points="463.5,-342.5 463.5,-399.5 554.5,-399.5 554.5,-342.5 463.5,-342.5"/>
<text text-anchor="middle" x="509" y="-387.5" font-family="Helvetica,sans-Serif" font-size="10.00">TMemoryBuffer *</text>
<polyline fill="none" stroke="#bfbfbf" points="463.5,-380.5 554.5,-380.5 "/>
<text text-anchor="middle" x="509" y="-368.5" font-family="Helvetica,sans-Serif" font-size="10.00"> </text>
<polyline fill="none" stroke="#bfbfbf" points="463.5,-361.5 554.5,-361.5 "/>
<text text-anchor="middle" x="509" y="-349.5" font-family="Helvetica,sans-Serif" font-size="10.00"> </text>
</g>
<!-- Node6&#45;&gt;Node1 -->
<g id="edge5" class="edge"><title>Node6&#45;&gt;Node1</title>
<path fill="none" stroke="#404040" d="M502.243,-342.5C498.202,-328.217 492.404,-310.72 485,-296 475.296,-276.708 463.369,-257.16 450.971,-238.729"/>
<polygon fill="none" stroke="#404040" points="450.825,-238.516 444.135,-235.824 444.047,-228.614 450.737,-231.305 450.825,-238.516"/>
<text text-anchor="middle" x="520.5" y="-304.5" font-family="Helvetica,sans-Serif" font-size="10.00"> #memBuf_</text>
</g>
<!-- Node7 -->
<g id="node7" class="node"><title>Node7</title>
<polygon fill="white" stroke="#bfbfbf" points="573,-342.5 573,-399.5 695,-399.5 695,-342.5 573,-342.5"/>
<text text-anchor="middle" x="634" y="-387.5" font-family="Helvetica,sans-Serif" font-size="10.00">scoped_array&lt; uint8_t &gt;</text>
<polyline fill="none" stroke="#bfbfbf" points="573,-380.5 695,-380.5 "/>
<text text-anchor="middle" x="634" y="-368.5" font-family="Helvetica,sans-Serif" font-size="10.00"> </text>
<polyline fill="none" stroke="#bfbfbf" points="573,-361.5 695,-361.5 "/>
<text text-anchor="middle" x="634" y="-349.5" font-family="Helvetica,sans-Serif" font-size="10.00"> </text>
</g>
<!-- Node7&#45;&gt;Node1 -->
<g id="edge6" class="edge"><title>Node7&#45;&gt;Node1</title>
<path fill="none" stroke="#404040" d="M602.896,-342.485C566.161,-309.989 503.678,-254.715 453.267,-210.121"/>
<polygon fill="none" stroke="#404040" points="452.992,-209.877 445.847,-208.898 444.004,-201.926 451.148,-202.906 452.992,-209.877"/>
<text text-anchor="middle" x="597.5" y="-304.5" font-family="Helvetica,sans-Serif" font-size="10.00"> #protoBuf_</text>
</g>
</g>
</svg>
