<?xml version="1.0" encoding="UTF-8" standalone="no"?>
<!DOCTYPE svg PUBLIC "-//W3C//DTD SVG 1.1//EN"
 "http://www.w3.org/Graphics/SVG/1.1/DTD/svg11.dtd">
<!-- Generated by graphviz version 2.36.0 (20140111.2315)
 -->
<!-- Title: impala::ImpalaServer::HS2ColumnarResultSet Pages: 1 -->
<svg width="534pt" height="348pt"
 viewBox="0.00 0.00 534.00 348.00" xmlns="http://www.w3.org/2000/svg" xmlns:xlink="http://www.w3.org/1999/xlink">
<g id="graph0" class="graph" transform="scale(1 1) rotate(0) translate(4 344)">
<title>impala::ImpalaServer::HS2ColumnarResultSet</title>
<polygon fill="white" stroke="none" points="-4,4 -4,-344 530,-344 530,4 -4,4"/>
<!-- Node1 -->
<g id="node1" class="node"><title>Node1</title>
<polygon fill="#bfbfbf" stroke="black" points="200.5,-0.5 200.5,-145.5 343.5,-145.5 343.5,-0.5 200.5,-0.5"/>
<text text-anchor="start" x="208.5" y="-133.5" font-family="Helvetica,sans-Serif" font-size="10.00">impala::ImpalaServer</text>
<text text-anchor="middle" x="272" y="-122.5" font-family="Helvetica,sans-Serif" font-size="10.00">::HS2ColumnarResultSet</text>
<polyline fill="none" stroke="black" points="200.5,-115.5 343.5,-115.5 "/>
<text text-anchor="middle" x="272" y="-103.5" font-family="Helvetica,sans-Serif" font-size="10.00"> </text>
<polyline fill="none" stroke="black" points="200.5,-96.5 343.5,-96.5 "/>
<text text-anchor="start" x="208.5" y="-84.5" font-family="Helvetica,sans-Serif" font-size="10.00">+ HS2ColumnarResultSet()</text>
<text text-anchor="start" x="208.5" y="-73.5" font-family="Helvetica,sans-Serif" font-size="10.00">+ ~HS2ColumnarResultSet()</text>
<text text-anchor="start" x="208.5" y="-62.5" font-family="Helvetica,sans-Serif" font-size="10.00">+ AddOneRow()</text>
<text text-anchor="start" x="208.5" y="-51.5" font-family="Helvetica,sans-Serif" font-size="10.00">+ AddOneRow()</text>
<text text-anchor="start" x="208.5" y="-40.5" font-family="Helvetica,sans-Serif" font-size="10.00">+ AddRows()</text>
<text text-anchor="start" x="208.5" y="-29.5" font-family="Helvetica,sans-Serif" font-size="10.00">+ ByteSize()</text>
<text text-anchor="start" x="208.5" y="-18.5" font-family="Helvetica,sans-Serif" font-size="10.00">+ size()</text>
<text text-anchor="start" x="208.5" y="-7.5" font-family="Helvetica,sans-Serif" font-size="10.00">&#45; InitColumns()</text>
</g>
<!-- Node2 -->
<g id="node2" class="node"><title>Node2</title>
<g id="a_node2"><a xlink:href="classimpala_1_1ImpalaServer_1_1QueryResultSet.html" target="_top" xlink:title="{impala::ImpalaServer\l::QueryResultSet\n||+ QueryResultSet()\l+ ~QueryResultSet()\l+ AddOneRow()\l+ AddOneRow()\l+ AddRows()\l+ ByteSize()\l+ ByteSize()\l+ size()\l}">
<polygon fill="white" stroke="black" points="-0.5,-194.5 -0.5,-339.5 108.5,-339.5 108.5,-194.5 -0.5,-194.5"/>
<text text-anchor="start" x="7.5" y="-327.5" font-family="Helvetica,sans-Serif" font-size="10.00">impala::ImpalaServer</text>
<text text-anchor="middle" x="54" y="-316.5" font-family="Helvetica,sans-Serif" font-size="10.00">::QueryResultSet</text>
<polyline fill="none" stroke="black" points="-0.5,-309.5 108.5,-309.5 "/>
<text text-anchor="middle" x="54" y="-297.5" font-family="Helvetica,sans-Serif" font-size="10.00"> </text>
<polyline fill="none" stroke="black" points="-0.5,-290.5 108.5,-290.5 "/>
<text text-anchor="start" x="7.5" y="-278.5" font-family="Helvetica,sans-Serif" font-size="10.00">+ QueryResultSet()</text>
<text text-anchor="start" x="7.5" y="-267.5" font-family="Helvetica,sans-Serif" font-size="10.00">+ ~QueryResultSet()</text>
<text text-anchor="start" x="7.5" y="-256.5" font-family="Helvetica,sans-Serif" font-size="10.00">+ AddOneRow()</text>
<text text-anchor="start" x="7.5" y="-245.5" font-family="Helvetica,sans-Serif" font-size="10.00">+ AddOneRow()</text>
<text text-anchor="start" x="7.5" y="-234.5" font-family="Helvetica,sans-Serif" font-size="10.00">+ AddRows()</text>
<text text-anchor="start" x="7.5" y="-223.5" font-family="Helvetica,sans-Serif" font-size="10.00">+ ByteSize()</text>
<text text-anchor="start" x="7.5" y="-212.5" font-family="Helvetica,sans-Serif" font-size="10.00">+ ByteSize()</text>
<text text-anchor="start" x="7.5" y="-201.5" font-family="Helvetica,sans-Serif" font-size="10.00">+ size()</text>
</a>
</g>
</g>
<!-- Node2&#45;&gt;Node1 -->
<g id="edge1" class="edge"><title>Node2&#45;&gt;Node1</title>
<path fill="none" stroke="midnightblue" d="M115.957,-194.987C116.305,-194.656 116.652,-194.327 117,-194 142.766,-169.736 173.179,-145.381 200.21,-125.015"/>
<polygon fill="none" stroke="midnightblue" points="113.344,-192.647 108.654,-202.148 118.245,-197.645 113.344,-192.647"/>
</g>
<!-- Node3 -->
<g id="node3" class="node"><title>Node3</title>
<polygon fill="white" stroke="#bfbfbf" points="126.5,-238.5 126.5,-295.5 233.5,-295.5 233.5,-238.5 126.5,-238.5"/>
<text text-anchor="middle" x="180" y="-283.5" font-family="Helvetica,sans-Serif" font-size="10.00">TResultSetMetadata</text>
<polyline fill="none" stroke="#bfbfbf" points="126.5,-276.5 233.5,-276.5 "/>
<text text-anchor="middle" x="180" y="-264.5" font-family="Helvetica,sans-Serif" font-size="10.00"> </text>
<polyline fill="none" stroke="#bfbfbf" points="126.5,-257.5 233.5,-257.5 "/>
<text text-anchor="middle" x="180" y="-245.5" font-family="Helvetica,sans-Serif" font-size="10.00"> </text>
</g>
<!-- Node3&#45;&gt;Node1 -->
<g id="edge2" class="edge"><title>Node3&#45;&gt;Node1</title>
<path fill="none" stroke="#404040" d="M188.439,-238.114C195.148,-217.258 205.325,-188.276 217,-164 218.177,-161.553 219.402,-159.088 220.665,-156.614"/>
<polygon fill="none" stroke="#404040" points="220.805,-156.351 220.08,-149.177 226.424,-145.748 227.149,-152.923 220.805,-156.351"/>
<text text-anchor="middle" x="243" y="-167.5" font-family="Helvetica,sans-Serif" font-size="10.00"> &#45;metadata_</text>
</g>
<!-- Node4 -->
<g id="node4" class="node"><title>Node4</title>
<polygon fill="white" stroke="#bfbfbf" points="252,-238.5 252,-295.5 298,-295.5 298,-238.5 252,-238.5"/>
<text text-anchor="middle" x="275" y="-283.5" font-family="Helvetica,sans-Serif" font-size="10.00">int64_t</text>
<polyline fill="none" stroke="#bfbfbf" points="252,-276.5 298,-276.5 "/>
<text text-anchor="middle" x="275" y="-264.5" font-family="Helvetica,sans-Serif" font-size="10.00"> </text>
<polyline fill="none" stroke="#bfbfbf" points="252,-257.5 298,-257.5 "/>
<text text-anchor="middle" x="275" y="-245.5" font-family="Helvetica,sans-Serif" font-size="10.00"> </text>
</g>
<!-- Node4&#45;&gt;Node1 -->
<g id="edge3" class="edge"><title>Node4&#45;&gt;Node1</title>
<path fill="none" stroke="#404040" d="M274.299,-238.429C273.868,-220.617 273.335,-196.94 273,-176 272.907,-170.165 272.821,-164.142 272.742,-158.076"/>
<polygon fill="none" stroke="#404040" points="272.736,-157.611 268.663,-151.66 272.59,-145.612 276.663,-151.563 272.736,-157.611"/>
<text text-anchor="middle" x="301.5" y="-167.5" font-family="Helvetica,sans-Serif" font-size="10.00"> &#45;num_rows_</text>
</g>
<!-- Node5 -->
<g id="node5" class="node"><title>Node5</title>
<polygon fill="white" stroke="#bfbfbf" points="319.5,-238.5 319.5,-295.5 384.5,-295.5 384.5,-238.5 319.5,-238.5"/>
<text text-anchor="middle" x="352" y="-283.5" font-family="Helvetica,sans-Serif" font-size="10.00">TRowSet *</text>
<polyline fill="none" stroke="#bfbfbf" points="319.5,-276.5 384.5,-276.5 "/>
<text text-anchor="middle" x="352" y="-264.5" font-family="Helvetica,sans-Serif" font-size="10.00"> </text>
<polyline fill="none" stroke="#bfbfbf" points="319.5,-257.5 384.5,-257.5 "/>
<text text-anchor="middle" x="352" y="-245.5" font-family="Helvetica,sans-Serif" font-size="10.00"> </text>
</g>
<!-- Node5&#45;&gt;Node1 -->
<g id="edge4" class="edge"><title>Node5&#45;&gt;Node1</title>
<path fill="none" stroke="#404040" d="M348.781,-238.353C345.691,-217.364 339.977,-188.103 330,-164 328.975,-161.523 327.881,-159.039 326.729,-156.558"/>
<polygon fill="none" stroke="#404040" points="326.684,-156.465 320.432,-152.87 321.346,-145.718 327.598,-149.312 326.684,-156.465"/>
<text text-anchor="middle" x="362.5" y="-167.5" font-family="Helvetica,sans-Serif" font-size="10.00"> &#45;result_set_</text>
</g>
<!-- Node6 -->
<g id="node6" class="node"><title>Node6</title>
<polygon fill="white" stroke="#bfbfbf" points="403,-238.5 403,-295.5 527,-295.5 527,-238.5 403,-238.5"/>
<text text-anchor="middle" x="465" y="-283.5" font-family="Helvetica,sans-Serif" font-size="10.00">scoped_ptr&lt; TRowSet &gt;</text>
<polyline fill="none" stroke="#bfbfbf" points="403,-276.5 527,-276.5 "/>
<text text-anchor="middle" x="465" y="-264.5" font-family="Helvetica,sans-Serif" font-size="10.00"> </text>
<polyline fill="none" stroke="#bfbfbf" points="403,-257.5 527,-257.5 "/>
<text text-anchor="middle" x="465" y="-245.5" font-family="Helvetica,sans-Serif" font-size="10.00"> </text>
</g>
<!-- Node6&#45;&gt;Node1 -->
<g id="edge5" class="edge"><title>Node6&#45;&gt;Node1</title>
<path fill="none" stroke="#404040" d="M449.106,-238.193C435.97,-216.58 415.966,-186.579 394,-164 381.772,-151.431 367.645,-139.308 353.437,-128.251"/>
<polygon fill="none" stroke="#404040" points="353.159,-128.04 345.962,-127.59 343.609,-120.774 350.806,-121.224 353.159,-128.04"/>
<text text-anchor="middle" x="448" y="-167.5" font-family="Helvetica,sans-Serif" font-size="10.00"> &#45;owned_result_set_</text>
</g>
</g>
</svg>
