<?xml version="1.0" encoding="UTF-8" standalone="no"?>
<!DOCTYPE svg PUBLIC "-//W3C//DTD SVG 1.1//EN"
 "http://www.w3.org/Graphics/SVG/1.1/DTD/svg11.dtd">
<!-- Generated by graphviz version 2.36.0 (20140111.2315)
 -->
<!-- Title: impala::RleEncoder Pages: 1 -->
<svg width="526pt" height="532pt"
 viewBox="0.00 0.00 526.00 532.00" xmlns="http://www.w3.org/2000/svg" xmlns:xlink="http://www.w3.org/1999/xlink">
<g id="graph0" class="graph" transform="scale(1 1) rotate(0) translate(4 528)">
<title>impala::RleEncoder</title>
<polygon fill="white" stroke="none" points="-4,4 -4,-528 522,-528 522,4 -4,4"/>
<!-- Node1 -->
<g id="node1" class="node"><title>Node1</title>
<polygon fill="#bfbfbf" stroke="black" points="228.5,-1 228.5,-179 347.5,-179 347.5,-1 228.5,-1"/>
<text text-anchor="middle" x="288" y="-167" font-family="Helvetica,sans-Serif" font-size="10.00">impala::RleEncoder</text>
<polyline fill="none" stroke="black" points="228.5,-160 347.5,-160 "/>
<text text-anchor="middle" x="288" y="-148" font-family="Helvetica,sans-Serif" font-size="10.00"> </text>
<polyline fill="none" stroke="black" points="228.5,-141 347.5,-141 "/>
<text text-anchor="start" x="236.5" y="-129" font-family="Helvetica,sans-Serif" font-size="10.00">+ RleEncoder()</text>
<text text-anchor="start" x="236.5" y="-118" font-family="Helvetica,sans-Serif" font-size="10.00">+ Put()</text>
<text text-anchor="start" x="236.5" y="-107" font-family="Helvetica,sans-Serif" font-size="10.00">+ Flush()</text>
<text text-anchor="start" x="236.5" y="-96" font-family="Helvetica,sans-Serif" font-size="10.00">+ Clear()</text>
<text text-anchor="start" x="236.5" y="-85" font-family="Helvetica,sans-Serif" font-size="10.00">+ buffer()</text>
<text text-anchor="start" x="236.5" y="-74" font-family="Helvetica,sans-Serif" font-size="10.00">+ len()</text>
<text text-anchor="start" x="236.5" y="-63" font-family="Helvetica,sans-Serif" font-size="10.00">+ MinBufferSize()</text>
<text text-anchor="start" x="236.5" y="-52" font-family="Helvetica,sans-Serif" font-size="10.00">+ MaxBufferSize()</text>
<text text-anchor="start" x="236.5" y="-41" font-family="Helvetica,sans-Serif" font-size="10.00">&#45; FlushBufferedValues()</text>
<text text-anchor="start" x="236.5" y="-30" font-family="Helvetica,sans-Serif" font-size="10.00">&#45; FlushLiteralRun()</text>
<text text-anchor="start" x="236.5" y="-19" font-family="Helvetica,sans-Serif" font-size="10.00">&#45; FlushRepeatedRun()</text>
<text text-anchor="start" x="236.5" y="-8" font-family="Helvetica,sans-Serif" font-size="10.00">&#45; CheckBufferFull()</text>
</g>
<!-- Node2 -->
<g id="node2" class="node"><title>Node2</title>
<polygon fill="white" stroke="#bfbfbf" points="0,-288.5 0,-345.5 46,-345.5 46,-288.5 0,-288.5"/>
<text text-anchor="middle" x="23" y="-333.5" font-family="Helvetica,sans-Serif" font-size="10.00">int64_t</text>
<polyline fill="none" stroke="#bfbfbf" points="0,-326.5 46,-326.5 "/>
<text text-anchor="middle" x="23" y="-314.5" font-family="Helvetica,sans-Serif" font-size="10.00"> </text>
<polyline fill="none" stroke="#bfbfbf" points="0,-307.5 46,-307.5 "/>
<text text-anchor="middle" x="23" y="-295.5" font-family="Helvetica,sans-Serif" font-size="10.00"> </text>
</g>
<!-- Node2&#45;&gt;Node1 -->
<g id="edge1" class="edge"><title>Node2&#45;&gt;Node1</title>
<path fill="none" stroke="#404040" d="M15.1129,-288.149C9.59028,-262.466 6.03087,-224.43 24,-198 66.8818,-134.928 153.905,-109.017 216.325,-98.3823"/>
<polygon fill="none" stroke="#404040" points="216.61,-98.3371 221.907,-93.4445 228.461,-96.4527 223.163,-101.345 216.61,-98.3371"/>
<text text-anchor="middle" x="64.5" y="-212" font-family="Helvetica,sans-Serif" font-size="10.00"> &#45;buffered_values_</text>
<text text-anchor="middle" x="64.5" y="-201" font-family="Helvetica,sans-Serif" font-size="10.00">&#45;current_value_</text>
</g>
<!-- Node3 -->
<g id="node3" class="node"><title>Node3</title>
<polygon fill="white" stroke="#bfbfbf" points="121.5,-466.5 121.5,-523.5 150.5,-523.5 150.5,-466.5 121.5,-466.5"/>
<text text-anchor="middle" x="136" y="-511.5" font-family="Helvetica,sans-Serif" font-size="10.00">int</text>
<polyline fill="none" stroke="#bfbfbf" points="121.5,-504.5 150.5,-504.5 "/>
<text text-anchor="middle" x="136" y="-492.5" font-family="Helvetica,sans-Serif" font-size="10.00"> </text>
<polyline fill="none" stroke="#bfbfbf" points="121.5,-485.5 150.5,-485.5 "/>
<text text-anchor="middle" x="136" y="-473.5" font-family="Helvetica,sans-Serif" font-size="10.00"> </text>
</g>
<!-- Node3&#45;&gt;Node1 -->
<g id="edge2" class="edge"><title>Node3&#45;&gt;Node1</title>
<path fill="none" stroke="#404040" d="M127.698,-466.385C114.67,-417.812 94.2033,-314.946 128,-238 146.639,-195.564 184.245,-160 218.316,-134.487"/>
<polygon fill="none" stroke="#404040" points="218.582,-134.293 221.076,-127.528 228.281,-127.228 225.786,-133.994 218.582,-134.293"/>
<text text-anchor="middle" x="178" y="-364" font-family="Helvetica,sans-Serif" font-size="10.00"> &#45;bit_width_</text>
<text text-anchor="start" x="128" y="-353" font-family="Helvetica,sans-Serif" font-size="10.00">&#45;num_buffered_values</text>
<text text-anchor="middle" x="178" y="-342" font-family="Helvetica,sans-Serif" font-size="10.00">_</text>
<text text-anchor="start" x="128" y="-331" font-family="Helvetica,sans-Serif" font-size="10.00">&#45;max_run_byte_size</text>
<text text-anchor="middle" x="178" y="-320" font-family="Helvetica,sans-Serif" font-size="10.00">_</text>
<text text-anchor="start" x="128" y="-309" font-family="Helvetica,sans-Serif" font-size="10.00">&#45;repeat_count</text>
<text text-anchor="middle" x="178" y="-298" font-family="Helvetica,sans-Serif" font-size="10.00">_</text>
<text text-anchor="start" x="128" y="-287" font-family="Helvetica,sans-Serif" font-size="10.00">&#45;MAX_VALUES</text>
<text text-anchor="middle" x="178" y="-276" font-family="Helvetica,sans-Serif" font-size="10.00">_PER_LITERAL_RUN</text>
<text text-anchor="middle" x="178" y="-265" font-family="Helvetica,sans-Serif" font-size="10.00">&#45;literal_count_</text>
</g>
<!-- Node6 -->
<g id="node6" class="node"><title>Node6</title>
<g id="a_node6"><a xlink:href="classimpala_1_1BitWriter.html" target="_top" xlink:title="{impala::BitWriter\n||+ BitWriter()\l+ Clear()\l+ bytes_written()\l+ buffer()\l+ buffer_len()\l+ PutValue()\l+ PutAligned()\l+ PutVlqInt()\l+ GetNextBytePtr()\l+ Flush()\l}">
<polygon fill="white" stroke="black" points="237.5,-239 237.5,-395 338.5,-395 338.5,-239 237.5,-239"/>
<text text-anchor="middle" x="288" y="-383" font-family="Helvetica,sans-Serif" font-size="10.00">impala::BitWriter</text>
<polyline fill="none" stroke="black" points="237.5,-376 338.5,-376 "/>
<text text-anchor="middle" x="288" y="-364" font-family="Helvetica,sans-Serif" font-size="10.00"> </text>
<polyline fill="none" stroke="black" points="237.5,-357 338.5,-357 "/>
<text text-anchor="start" x="245.5" y="-345" font-family="Helvetica,sans-Serif" font-size="10.00">+ BitWriter()</text>
<text text-anchor="start" x="245.5" y="-334" font-family="Helvetica,sans-Serif" font-size="10.00">+ Clear()</text>
<text text-anchor="start" x="245.5" y="-323" font-family="Helvetica,sans-Serif" font-size="10.00">+ bytes_written()</text>
<text text-anchor="start" x="245.5" y="-312" font-family="Helvetica,sans-Serif" font-size="10.00">+ buffer()</text>
<text text-anchor="start" x="245.5" y="-301" font-family="Helvetica,sans-Serif" font-size="10.00">+ buffer_len()</text>
<text text-anchor="start" x="245.5" y="-290" font-family="Helvetica,sans-Serif" font-size="10.00">+ PutValue()</text>
<text text-anchor="start" x="245.5" y="-279" font-family="Helvetica,sans-Serif" font-size="10.00">+ PutAligned()</text>
<text text-anchor="start" x="245.5" y="-268" font-family="Helvetica,sans-Serif" font-size="10.00">+ PutVlqInt()</text>
<text text-anchor="start" x="245.5" y="-257" font-family="Helvetica,sans-Serif" font-size="10.00">+ GetNextBytePtr()</text>
<text text-anchor="start" x="245.5" y="-246" font-family="Helvetica,sans-Serif" font-size="10.00">+ Flush()</text>
</a>
</g>
</g>
<!-- Node3&#45;&gt;Node6 -->
<g id="edge7" class="edge"><title>Node3&#45;&gt;Node6</title>
<path fill="none" stroke="#404040" d="M140.914,-466.153C145.296,-448.988 153.378,-427.711 168,-414 186.761,-396.406 201.717,-410.441 223,-396 224.705,-394.843 226.389,-393.63 228.052,-392.366"/>
<polygon fill="none" stroke="#404040" points="228.102,-392.325 230.153,-385.412 237.324,-384.646 235.272,-391.559 228.102,-392.325"/>
<text text-anchor="middle" x="198.5" y="-439.5" font-family="Helvetica,sans-Serif" font-size="10.00"> &#45;byte_offset_</text>
<text text-anchor="middle" x="198.5" y="-428.5" font-family="Helvetica,sans-Serif" font-size="10.00">&#45;max_bytes_</text>
<text text-anchor="middle" x="198.5" y="-417.5" font-family="Helvetica,sans-Serif" font-size="10.00">&#45;bit_offset_</text>
</g>
<!-- Node4 -->
<g id="node4" class="node"><title>Node4</title>
<polygon fill="white" stroke="#bfbfbf" points="343,-466.5 343,-523.5 389,-523.5 389,-466.5 343,-466.5"/>
<text text-anchor="middle" x="366" y="-511.5" font-family="Helvetica,sans-Serif" font-size="10.00">uint8_t</text>
<polyline fill="none" stroke="#bfbfbf" points="343,-504.5 389,-504.5 "/>
<text text-anchor="middle" x="366" y="-492.5" font-family="Helvetica,sans-Serif" font-size="10.00"> </text>
<polyline fill="none" stroke="#bfbfbf" points="343,-485.5 389,-485.5 "/>
<text text-anchor="middle" x="366" y="-473.5" font-family="Helvetica,sans-Serif" font-size="10.00"> </text>
</g>
<!-- Node4&#45;&gt;Node1 -->
<g id="edge3" class="edge"><title>Node4&#45;&gt;Node1</title>
<path fill="none" stroke="#404040" d="M374.393,-466.494C375.892,-460.457 377.223,-454.058 378,-448 379.923,-433.012 379.178,-429.065 378,-414 370.421,-317.114 374.491,-290.275 344,-198 343.158,-195.452 342.261,-192.892 341.315,-190.327"/>
<polygon fill="none" stroke="#404040" points="341.279,-190.237 335.36,-186.119 336.884,-179.07 342.804,-183.188 341.279,-190.237"/>
<text text-anchor="start" x="377" y="-320" font-family="Helvetica,sans-Serif" font-size="10.00"> &#45;literal_indicator</text>
<text text-anchor="middle" x="413" y="-309" font-family="Helvetica,sans-Serif" font-size="10.00">_byte_</text>
</g>
<!-- Node4&#45;&gt;Node6 -->
<g id="edge8" class="edge"><title>Node4&#45;&gt;Node6</title>
<path fill="none" stroke="#404040" d="M350.163,-466.035C347.006,-460.14 343.802,-453.914 341,-448 334.701,-434.704 328.425,-420.451 322.513,-406.431"/>
<polygon fill="none" stroke="#404040" points="322.473,-406.336 316.472,-402.337 317.855,-395.26 323.856,-399.258 322.473,-406.336"/>
<text text-anchor="middle" x="359.5" y="-428.5" font-family="Helvetica,sans-Serif" font-size="10.00"> &#45;buffer_</text>
</g>
<!-- Node5 -->
<g id="node5" class="node"><title>Node5</title>
<g id="a_node5"><a xlink:href="classbool.html" target="_top" xlink:title="{bool\n||}">
<polygon fill="white" stroke="black" points="482.5,-288.5 482.5,-345.5 517.5,-345.5 517.5,-288.5 482.5,-288.5"/>
<text text-anchor="middle" x="500" y="-333.5" font-family="Helvetica,sans-Serif" font-size="10.00">bool</text>
<polyline fill="none" stroke="black" points="482.5,-326.5 517.5,-326.5 "/>
<text text-anchor="middle" x="500" y="-314.5" font-family="Helvetica,sans-Serif" font-size="10.00"> </text>
<polyline fill="none" stroke="black" points="482.5,-307.5 517.5,-307.5 "/>
<text text-anchor="middle" x="500" y="-295.5" font-family="Helvetica,sans-Serif" font-size="10.00"> </text>
</a>
</g>
</g>
<!-- Node5&#45;&gt;Node1 -->
<g id="edge4" class="edge"><title>Node5&#45;&gt;Node1</title>
<path fill="none" stroke="#404040" d="M492.365,-288.29C487.153,-272.554 479.153,-253.054 468,-238 438.032,-197.551 394.518,-161.612 357.782,-135.395"/>
<polygon fill="none" stroke="#404040" points="357.44,-135.155 350.23,-134.983 347.616,-128.262 354.826,-128.434 357.44,-135.155"/>
<text text-anchor="middle" x="480.5" y="-206.5" font-family="Helvetica,sans-Serif" font-size="10.00"> &#45;buffer_full_</text>
</g>
<!-- Node6&#45;&gt;Node1 -->
<g id="edge5" class="edge"><title>Node6&#45;&gt;Node1</title>
<path fill="none" stroke="#404040" d="M288,-238.883C288,-223.575 288,-207.295 288,-191.344"/>
<polygon fill="none" stroke="#404040" points="288,-191.233 284,-185.233 288,-179.233 292,-185.233 288,-191.233"/>
<text text-anchor="middle" x="314" y="-206.5" font-family="Helvetica,sans-Serif" font-size="10.00"> &#45;bit_writer_</text>
</g>
<!-- Node7 -->
<g id="node7" class="node"><title>Node7</title>
<g id="a_node7"><a xlink:href="classuint64__t.html" target="_top" xlink:title="{uint64_t\n||}">
<polygon fill="white" stroke="black" points="210.5,-466.5 210.5,-523.5 261.5,-523.5 261.5,-466.5 210.5,-466.5"/>
<text text-anchor="middle" x="236" y="-511.5" font-family="Helvetica,sans-Serif" font-size="10.00">uint64_t</text>
<polyline fill="none" stroke="black" points="210.5,-504.5 261.5,-504.5 "/>
<text text-anchor="middle" x="236" y="-492.5" font-family="Helvetica,sans-Serif" font-size="10.00"> </text>
<polyline fill="none" stroke="black" points="210.5,-485.5 261.5,-485.5 "/>
<text text-anchor="middle" x="236" y="-473.5" font-family="Helvetica,sans-Serif" font-size="10.00"> </text>
</a>
</g>
</g>
<!-- Node7&#45;&gt;Node6 -->
<g id="edge6" class="edge"><title>Node7&#45;&gt;Node6</title>
<path fill="none" stroke="#404040" d="M233.157,-466.18C232.353,-450.6 232.663,-430.955 237,-414 237.63,-411.536 238.336,-409.065 239.106,-406.596"/>
<polygon fill="none" stroke="#404040" points="239.177,-406.394 237.391,-399.408 243.153,-395.072 244.939,-402.059 239.177,-406.394"/>
<text text-anchor="middle" x="277.5" y="-428.5" font-family="Helvetica,sans-Serif" font-size="10.00"> &#45;buffered_values_</text>
</g>
</g>
</svg>
