<?xml version="1.0" encoding="UTF-8" standalone="no"?>
<!DOCTYPE svg PUBLIC "-//W3C//DTD SVG 1.1//EN"
 "http://www.w3.org/Graphics/SVG/1.1/DTD/svg11.dtd">
<!-- Generated by graphviz version 2.36.0 (20140111.2315)
 -->
<!-- Title: impala::TimerMetric Pages: 1 -->
<svg width="122pt" height="270pt"
 viewBox="0.00 0.00 122.00 270.00" xmlns="http://www.w3.org/2000/svg" xmlns:xlink="http://www.w3.org/1999/xlink">
<g id="graph0" class="graph" transform="scale(1 1) rotate(0) translate(4 266)">
<title>impala::TimerMetric</title>
<polygon fill="white" stroke="none" points="-4,4 -4,-266 118,-266 118,4 -4,4"/>
<!-- Node1 -->
<g id="node1" class="node"><title>Node1</title>
<polygon fill="#bfbfbf" stroke="black" points="-1,-0.5 -1,-79.5 115,-79.5 115,-0.5 -1,-0.5"/>
<text text-anchor="middle" x="57" y="-67.5" font-family="Helvetica,sans-Serif" font-size="10.00">impala::TimerMetric</text>
<polyline fill="none" stroke="black" points="-1,-60.5 115,-60.5 "/>
<text text-anchor="middle" x="57" y="-48.5" font-family="Helvetica,sans-Serif" font-size="10.00"> </text>
<polyline fill="none" stroke="black" points="-1,-41.5 115,-41.5 "/>
<text text-anchor="start" x="7" y="-29.5" font-family="Helvetica,sans-Serif" font-size="10.00">+ ToJson()</text>
<text text-anchor="start" x="7" y="-18.5" font-family="Helvetica,sans-Serif" font-size="10.00">+ ToLegacyJson()</text>
<text text-anchor="start" x="7" y="-7.5" font-family="Helvetica,sans-Serif" font-size="10.00">+ ToHumanReadable()</text>
</g>
<!-- Node2 -->
<g id="node2" class="node"><title>Node2</title>
<g id="a_node2"><a xlink:href="classimpala_1_1Metric.html" target="_top" xlink:title="TODO: Add ToThrift() for conversion to an RPC&#45;friendly format. ">
<polygon fill="white" stroke="black" points="-1,-116.5 -1,-261.5 115,-261.5 115,-116.5 -1,-116.5"/>
<text text-anchor="middle" x="57" y="-249.5" font-family="Helvetica,sans-Serif" font-size="10.00">impala::Metric</text>
<polyline fill="none" stroke="black" points="-1,-242.5 115,-242.5 "/>
<text text-anchor="start" x="7" y="-230.5" font-family="Helvetica,sans-Serif" font-size="10.00"># key_</text>
<text text-anchor="start" x="7" y="-219.5" font-family="Helvetica,sans-Serif" font-size="10.00"># description_</text>
<polyline fill="none" stroke="black" points="-1,-212.5 115,-212.5 "/>
<text text-anchor="start" x="7" y="-200.5" font-family="Helvetica,sans-Serif" font-size="10.00">+ ~Metric()</text>
<text text-anchor="start" x="7" y="-189.5" font-family="Helvetica,sans-Serif" font-size="10.00">+ ToJson()</text>
<text text-anchor="start" x="7" y="-178.5" font-family="Helvetica,sans-Serif" font-size="10.00">+ ToLegacyJson()</text>
<text text-anchor="start" x="7" y="-167.5" font-family="Helvetica,sans-Serif" font-size="10.00">+ ToHumanReadable()</text>
<text text-anchor="start" x="7" y="-156.5" font-family="Helvetica,sans-Serif" font-size="10.00">+ key()</text>
<text text-anchor="start" x="7" y="-145.5" font-family="Helvetica,sans-Serif" font-size="10.00">+ description()</text>
<text text-anchor="start" x="7" y="-134.5" font-family="Helvetica,sans-Serif" font-size="10.00"># Metric()</text>
<text text-anchor="start" x="7" y="-123.5" font-family="Helvetica,sans-Serif" font-size="10.00"># AddStandardFields()</text>
</a>
</g>
</g>
<!-- Node2&#45;&gt;Node1 -->
<g id="edge1" class="edge"><title>Node2&#45;&gt;Node1</title>
<path fill="none" stroke="midnightblue" d="M57,-105.954C57,-96.8992 57,-88.0195 57,-79.875"/>
<polygon fill="none" stroke="midnightblue" points="53.5001,-106.222 57,-116.223 60.5001,-106.223 53.5001,-106.222"/>
</g>
</g>
</svg>
