<?xml version="1.0" encoding="UTF-8" standalone="no"?>
<!DOCTYPE svg PUBLIC "-//W3C//DTD SVG 1.1//EN"
 "http://www.w3.org/Graphics/SVG/1.1/DTD/svg11.dtd">
<!-- Generated by graphviz version 2.36.0 (20140111.2315)
 -->
<!-- Title: com.cloudera.impala.analysis.DescribeStmt Pages: 1 -->
<!--zoomable 520 -->
<svg id="main" version="1.1" xmlns="http://www.w3.org/2000/svg" xmlns:xlink="http://www.w3.org/1999/xlink" xml:space="preserve" onload="init(evt)">
<style type="text/css"><![CDATA[
.edge:hover path { stroke: red; }
.edge:hover polygon { stroke: red; fill: red; }
]]></style>
<script type="text/javascript"><![CDATA[
var edges = document.getElementsByTagName('g');
if (edges && edges.length) {
  for (var i=0;i<edges.length;i++) {
    if (edges[i].id.substr(0,4)=='edge') {
      edges[i].setAttribute('class','edge');
    }
  }
}
]]></script>
        <defs>
                <circle id="rim" cx="0" cy="0" r="7"/>
                <circle id="rim2" cx="0" cy="0" r="3.5"/>
                <g id="zoomPlus">
                        <use xlink:href="#rim" fill="#404040">
                                <set attributeName="fill" to="#808080" begin="zoomplus.mouseover" end="zoomplus.mouseout"/>
                        </use>
                        <path d="M-4,0h8M0,-4v8" fill="none" stroke="white" stroke-width="1.5" pointer-events="none"/>
                </g>
                <g id="zoomMin">
                        <use xlink:href="#rim" fill="#404040">
                                <set attributeName="fill" to="#808080" begin="zoomminus.mouseover" end="zoomminus.mouseout"/>
                        </use>
                        <path d="M-4,0h8" fill="none" stroke="white" stroke-width="1.5" pointer-events="none"/>
                </g>
                <g id="dirArrow">
                        <path fill="none" stroke="white" stroke-width="1.5" d="M0,-3.0v7 M-2.5,-0.5L0,-3.0L2.5,-0.5"/>
                </g>
               <g id="resetDef">
                       <use xlink:href="#rim2" fill="#404040">
                               <set attributeName="fill" to="#808080" begin="reset.mouseover" end="reset.mouseout"/>
                       </use>
               </g>
        </defs>

<script type="text/javascript">
var viewWidth = 550;
var viewHeight = 520;
var sectionId = 'dynsection-1';
</script>
<script xlink:href="svgpan.js"/>
<svg id="graph" class="graph">
<g id="viewport">
<title>com.cloudera.impala.analysis.DescribeStmt</title>
<polygon fill="white" stroke="none" points="-4,4 -4,-516 546,-516 546,4 -4,4"/>
<!-- Node1 -->
<g id="node1" class="node"><title>Node1</title>
<polygon fill="#bfbfbf" stroke="black" points="238.5,-0.5 238.5,-123.5 387.5,-123.5 387.5,-0.5 238.5,-0.5"/>
<text text-anchor="start" x="246.5" y="-111.5" font-family="Helvetica,sans-Serif" font-size="10.00">com.cloudera.impala.analysis.</text>
<text text-anchor="middle" x="313" y="-100.5" font-family="Helvetica,sans-Serif" font-size="10.00">DescribeStmt</text>
<polyline fill="none" stroke="black" points="238.5,-93.5 387.5,-93.5 "/>
<text text-anchor="middle" x="313" y="-81.5" font-family="Helvetica,sans-Serif" font-size="10.00"> </text>
<polyline fill="none" stroke="black" points="238.5,-74.5 387.5,-74.5 "/>
<text text-anchor="start" x="246.5" y="-62.5" font-family="Helvetica,sans-Serif" font-size="10.00">+ DescribeStmt()</text>
<text text-anchor="start" x="246.5" y="-51.5" font-family="Helvetica,sans-Serif" font-size="10.00">+ toSql()</text>
<text text-anchor="start" x="246.5" y="-40.5" font-family="Helvetica,sans-Serif" font-size="10.00">+ getTable()</text>
<text text-anchor="start" x="246.5" y="-29.5" font-family="Helvetica,sans-Serif" font-size="10.00">+ getOutputStyle()</text>
<text text-anchor="start" x="246.5" y="-18.5" font-family="Helvetica,sans-Serif" font-size="10.00">+ analyze()</text>
<text text-anchor="start" x="246.5" y="-7.5" font-family="Helvetica,sans-Serif" font-size="10.00">+ toThrift()</text>
</g>
<!-- Node2 -->
<g id="node2" class="node"><title>Node2</title>
<g id="a_node2"><a xlink:href="classcom_1_1cloudera_1_1impala_1_1analysis_1_1StatementBase.html" target="_top" xlink:title="{com.cloudera.impala.analysis.\lStatementBase\n||+ analyze()\l+ toSql()\l+ setIsExplain()\l+ isExplain()\l}">
<polygon fill="white" stroke="black" points="71.5,-222.5 71.5,-323.5 220.5,-323.5 220.5,-222.5 71.5,-222.5"/>
<text text-anchor="start" x="79.5" y="-311.5" font-family="Helvetica,sans-Serif" font-size="10.00">com.cloudera.impala.analysis.</text>
<text text-anchor="middle" x="146" y="-300.5" font-family="Helvetica,sans-Serif" font-size="10.00">StatementBase</text>
<polyline fill="none" stroke="black" points="71.5,-293.5 220.5,-293.5 "/>
<text text-anchor="middle" x="146" y="-281.5" font-family="Helvetica,sans-Serif" font-size="10.00"> </text>
<polyline fill="none" stroke="black" points="71.5,-274.5 220.5,-274.5 "/>
<text text-anchor="start" x="79.5" y="-262.5" font-family="Helvetica,sans-Serif" font-size="10.00">+ analyze()</text>
<text text-anchor="start" x="79.5" y="-251.5" font-family="Helvetica,sans-Serif" font-size="10.00">+ toSql()</text>
<text text-anchor="start" x="79.5" y="-240.5" font-family="Helvetica,sans-Serif" font-size="10.00">+ setIsExplain()</text>
<text text-anchor="start" x="79.5" y="-229.5" font-family="Helvetica,sans-Serif" font-size="10.00">+ isExplain()</text>
</a>
</g>
</g>
<!-- Node2&#45;&gt;Node1 -->
<g id="edge1" class="edge"><title>Node2&#45;&gt;Node1</title>
<path fill="none" stroke="midnightblue" d="M192.096,-214.31C214.592,-186.158 241.652,-152.292 264.464,-123.743"/>
<polygon fill="none" stroke="midnightblue" points="189.085,-212.473 185.577,-222.47 194.553,-216.842 189.085,-212.473"/>
</g>
<!-- Node3 -->
<g id="node3" class="node"><title>Node3</title>
<g id="a_node3"><a xlink:href="interfacecom_1_1cloudera_1_1impala_1_1analysis_1_1ParseNode.html" target="_top" xlink:title="{com.cloudera.impala.analysis.\lParseNode\n||+ analyze()\l+ toSql()\l}">
<polygon fill="white" stroke="black" points="-0.5,-432.5 -0.5,-511.5 148.5,-511.5 148.5,-432.5 -0.5,-432.5"/>
<text text-anchor="start" x="7.5" y="-499.5" font-family="Helvetica,sans-Serif" font-size="10.00">com.cloudera.impala.analysis.</text>
<text text-anchor="middle" x="74" y="-488.5" font-family="Helvetica,sans-Serif" font-size="10.00">ParseNode</text>
<polyline fill="none" stroke="black" points="-0.5,-481.5 148.5,-481.5 "/>
<text text-anchor="middle" x="74" y="-469.5" font-family="Helvetica,sans-Serif" font-size="10.00"> </text>
<polyline fill="none" stroke="black" points="-0.5,-462.5 148.5,-462.5 "/>
<text text-anchor="start" x="7.5" y="-450.5" font-family="Helvetica,sans-Serif" font-size="10.00">+ analyze()</text>
<text text-anchor="start" x="7.5" y="-439.5" font-family="Helvetica,sans-Serif" font-size="10.00">+ toSql()</text>
</a>
</g>
</g>
<!-- Node3&#45;&gt;Node2 -->
<g id="edge2" class="edge"><title>Node3&#45;&gt;Node2</title>
<path fill="none" stroke="midnightblue" d="M91.6753,-422.638C102.663,-392.576 116.755,-354.017 127.834,-323.705"/>
<polygon fill="none" stroke="midnightblue" points="88.3704,-421.485 88.2249,-432.079 94.945,-423.888 88.3704,-421.485"/>
</g>
<!-- Node4 -->
<g id="node4" class="node"><title>Node4</title>
<polygon fill="white" stroke="#bfbfbf" points="166,-443.5 166,-500.5 216,-500.5 216,-443.5 166,-443.5"/>
<text text-anchor="middle" x="191" y="-488.5" font-family="Helvetica,sans-Serif" font-size="10.00">boolean</text>
<polyline fill="none" stroke="#bfbfbf" points="166,-481.5 216,-481.5 "/>
<text text-anchor="middle" x="191" y="-469.5" font-family="Helvetica,sans-Serif" font-size="10.00"> </text>
<polyline fill="none" stroke="#bfbfbf" points="166,-462.5 216,-462.5 "/>
<text text-anchor="middle" x="191" y="-450.5" font-family="Helvetica,sans-Serif" font-size="10.00"> </text>
</g>
<!-- Node4&#45;&gt;Node2 -->
<g id="edge3" class="edge"><title>Node4&#45;&gt;Node2</title>
<path fill="none" stroke="#404040" d="M184.648,-443.193C178.292,-415.368 168.303,-371.637 160.072,-335.606"/>
<polygon fill="none" stroke="#404040" points="160.029,-335.414 154.793,-330.456 157.356,-323.715 162.592,-328.674 160.029,-335.414"/>
<text text-anchor="middle" x="205" y="-400.5" font-family="Helvetica,sans-Serif" font-size="10.00"> #isExplain_</text>
</g>
<!-- Node5 -->
<g id="node5" class="node"><title>Node5</title>
<g id="a_node5"><a xlink:href="classcom_1_1cloudera_1_1impala_1_1analysis_1_1TableName.html" target="_top" xlink:title="{com.cloudera.impala.analysis.\lTableName\n||+ TableName()\l+ getDb()\l+ getTbl()\l+ isEmpty()\l+ analyze()\l+ isFullyQualified()\l+ toSql()\l+ toString()\l+ toPath()\l+ toThrift()\l+ equals()\l+ hashCode()\l+ fromThrift()\l}">
<polygon fill="white" stroke="black" points="238.5,-173 238.5,-373 387.5,-373 387.5,-173 238.5,-173"/>
<text text-anchor="start" x="246.5" y="-361" font-family="Helvetica,sans-Serif" font-size="10.00">com.cloudera.impala.analysis.</text>
<text text-anchor="middle" x="313" y="-350" font-family="Helvetica,sans-Serif" font-size="10.00">TableName</text>
<polyline fill="none" stroke="black" points="238.5,-343 387.5,-343 "/>
<text text-anchor="middle" x="313" y="-331" font-family="Helvetica,sans-Serif" font-size="10.00"> </text>
<polyline fill="none" stroke="black" points="238.5,-324 387.5,-324 "/>
<text text-anchor="start" x="246.5" y="-312" font-family="Helvetica,sans-Serif" font-size="10.00">+ TableName()</text>
<text text-anchor="start" x="246.5" y="-301" font-family="Helvetica,sans-Serif" font-size="10.00">+ getDb()</text>
<text text-anchor="start" x="246.5" y="-290" font-family="Helvetica,sans-Serif" font-size="10.00">+ getTbl()</text>
<text text-anchor="start" x="246.5" y="-279" font-family="Helvetica,sans-Serif" font-size="10.00">+ isEmpty()</text>
<text text-anchor="start" x="246.5" y="-268" font-family="Helvetica,sans-Serif" font-size="10.00">+ analyze()</text>
<text text-anchor="start" x="246.5" y="-257" font-family="Helvetica,sans-Serif" font-size="10.00">+ isFullyQualified()</text>
<text text-anchor="start" x="246.5" y="-246" font-family="Helvetica,sans-Serif" font-size="10.00">+ toSql()</text>
<text text-anchor="start" x="246.5" y="-235" font-family="Helvetica,sans-Serif" font-size="10.00">+ toString()</text>
<text text-anchor="start" x="246.5" y="-224" font-family="Helvetica,sans-Serif" font-size="10.00">+ toPath()</text>
<text text-anchor="start" x="246.5" y="-213" font-family="Helvetica,sans-Serif" font-size="10.00">+ toThrift()</text>
<text text-anchor="start" x="246.5" y="-202" font-family="Helvetica,sans-Serif" font-size="10.00">+ equals()</text>
<text text-anchor="start" x="246.5" y="-191" font-family="Helvetica,sans-Serif" font-size="10.00">+ hashCode()</text>
<text text-anchor="start" x="246.5" y="-180" font-family="Helvetica,sans-Serif" font-size="10.00">+ fromThrift()</text>
</a>
</g>
</g>
<!-- Node5&#45;&gt;Node1 -->
<g id="edge4" class="edge"><title>Node5&#45;&gt;Node1</title>
<path fill="none" stroke="#404040" d="M313,-172.703C313,-160.274 313,-147.746 313,-135.826"/>
<polygon fill="none" stroke="#404040" points="313,-135.654 309,-129.654 313,-123.654 317,-129.654 313,-135.654"/>
<text text-anchor="middle" x="342.5" y="-145.5" font-family="Helvetica,sans-Serif" font-size="10.00"> &#45;tableName_</text>
</g>
<!-- Node6 -->
<g id="node6" class="node"><title>Node6</title>
<polygon fill="white" stroke="#bfbfbf" points="292,-443.5 292,-500.5 334,-500.5 334,-443.5 292,-443.5"/>
<text text-anchor="middle" x="313" y="-488.5" font-family="Helvetica,sans-Serif" font-size="10.00">String</text>
<polyline fill="none" stroke="#bfbfbf" points="292,-481.5 334,-481.5 "/>
<text text-anchor="middle" x="313" y="-469.5" font-family="Helvetica,sans-Serif" font-size="10.00"> </text>
<polyline fill="none" stroke="#bfbfbf" points="292,-462.5 334,-462.5 "/>
<text text-anchor="middle" x="313" y="-450.5" font-family="Helvetica,sans-Serif" font-size="10.00"> </text>
</g>
<!-- Node6&#45;&gt;Node5 -->
<g id="edge5" class="edge"><title>Node6&#45;&gt;Node5</title>
<path fill="none" stroke="#404040" d="M313,-443.193C313,-427.532 313,-406.833 313,-385.303"/>
<polygon fill="none" stroke="#404040" points="313,-385.283 309,-379.283 313,-373.283 317,-379.283 313,-385.283"/>
<text text-anchor="middle" x="324" y="-406" font-family="Helvetica,sans-Serif" font-size="10.00"> &#45;db_</text>
<text text-anchor="middle" x="324" y="-395" font-family="Helvetica,sans-Serif" font-size="10.00">&#45;tbl_</text>
</g>
<!-- Node7 -->
<g id="node7" class="node"><title>Node7</title>
<polygon fill="white" stroke="#bfbfbf" points="405.5,-244.5 405.5,-301.5 542.5,-301.5 542.5,-244.5 405.5,-244.5"/>
<text text-anchor="middle" x="474" y="-289.5" font-family="Helvetica,sans-Serif" font-size="10.00">TDescribeTableOutputStyle</text>
<polyline fill="none" stroke="#bfbfbf" points="405.5,-282.5 542.5,-282.5 "/>
<text text-anchor="middle" x="474" y="-270.5" font-family="Helvetica,sans-Serif" font-size="10.00"> </text>
<polyline fill="none" stroke="#bfbfbf" points="405.5,-263.5 542.5,-263.5 "/>
<text text-anchor="middle" x="474" y="-251.5" font-family="Helvetica,sans-Serif" font-size="10.00"> </text>
</g>
<!-- Node7&#45;&gt;Node1 -->
<g id="edge6" class="edge"><title>Node7&#45;&gt;Node1</title>
<path fill="none" stroke="#404040" d="M453.567,-244.445C433.89,-218.017 403.192,-177.067 376,-142 373.761,-139.113 371.469,-136.172 369.148,-133.206"/>
<polygon fill="none" stroke="#404040" points="369.079,-133.118 362.227,-130.871 361.665,-123.682 368.517,-125.929 369.079,-133.118"/>
<text text-anchor="middle" x="415.5" y="-145.5" font-family="Helvetica,sans-Serif" font-size="10.00"> &#45;outputStyle_</text>
</g>
</g>
</svg>
        <g id="navigator" transform="translate(0 0)" fill="#404254">
                <rect fill="#f2f5e9" fill-opacity="0.5" stroke="#606060" stroke-width=".5" x="0" y="0" width="60" height="60"/>
                <use id="zoomplus" xlink:href="#zoomPlus" x="17" y="9" onmousedown="handleZoom(evt,'in')"/>
                <use id="zoomminus" xlink:href="#zoomMin" x="42" y="9" onmousedown="handleZoom(evt,'out')"/>
                <use id="reset" xlink:href="#resetDef" x="30" y="36" onmousedown="handleReset()"/>
                <g id="arrowUp" xlink:href="#dirArrow" transform="translate(30 24)" onmousedown="handlePan(0,-1)">
                  <use xlink:href="#rim" fill="#404040">
                        <set attributeName="fill" to="#808080" begin="arrowUp.mouseover" end="arrowUp.mouseout"/>
                  </use>
                  <path fill="none" stroke="white" stroke-width="1.5" d="M0,-3.0v7 M-2.5,-0.5L0,-3.0L2.5,-0.5"/>
                </g>
                <g id="arrowRight" xlink:href="#dirArrow" transform="rotate(90) translate(36 -43)" onmousedown="handlePan(1,0)">
                  <use xlink:href="#rim" fill="#404040">
                        <set attributeName="fill" to="#808080" begin="arrowRight.mouseover" end="arrowRight.mouseout"/>
                  </use>
                  <path fill="none" stroke="white" stroke-width="1.5" d="M0,-3.0v7 M-2.5,-0.5L0,-3.0L2.5,-0.5"/>
                </g>
                <g id="arrowDown" xlink:href="#dirArrow" transform="rotate(180) translate(-30 -48)" onmousedown="handlePan(0,1)">
                  <use xlink:href="#rim" fill="#404040">
                        <set attributeName="fill" to="#808080" begin="arrowDown.mouseover" end="arrowDown.mouseout"/>
                  </use>
                  <path fill="none" stroke="white" stroke-width="1.5" d="M0,-3.0v7 M-2.5,-0.5L0,-3.0L2.5,-0.5"/>
                </g>
                <g id="arrowLeft" xlink:href="#dirArrow" transform="rotate(270) translate(-36 17)" onmousedown="handlePan(-1,0)">
                  <use xlink:href="#rim" fill="#404040">
                        <set attributeName="fill" to="#808080" begin="arrowLeft.mouseover" end="arrowLeft.mouseout"/>
                  </use>
                  <path fill="none" stroke="white" stroke-width="1.5" d="M0,-3.0v7 M-2.5,-0.5L0,-3.0L2.5,-0.5"/>
                </g>
        </g>
        <svg viewBox="0 0 15 15" width="100%" height="30px" preserveAspectRatio="xMaxYMin meet">
         <g id="arrow_out" transform="scale(0.3 0.3)">
          <a xlink:href="classcom_1_1cloudera_1_1impala_1_1analysis_1_1DescribeStmt__coll__graph_org.svg" target="_base">
           <rect id="button" ry="5" rx="5" y="6" x="6" height="38" width="38"
                fill="#f2f5e9" fill-opacity="0.5" stroke="#606060" stroke-width="1.0"/>
           <path id="arrow"
             d="M 11.500037,31.436501 C 11.940474,20.09759 22.043105,11.32322 32.158766,21.979434 L 37.068811,17.246167 C 37.068811,17.246167 37.088388,32 37.088388,32 L 22.160133,31.978069 C 22.160133,31.978069 26.997745,27.140456 26.997745,27.140456 C 18.528582,18.264221 13.291696,25.230495 11.500037,31.436501 z"
             style="fill:#404040;"/>
          </a>
         </g>
        </svg>
</svg>
