<?xml version="1.0" encoding="UTF-8" standalone="no"?>
<!DOCTYPE svg PUBLIC "-//W3C//DTD SVG 1.1//EN"
 "http://www.w3.org/Graphics/SVG/1.1/DTD/svg11.dtd">
<!-- Generated by graphviz version 2.36.0 (20140111.2315)
 -->
<!-- Title: impala::BufferedBlockMgrTest Pages: 1 -->
<!--zoomable 316 -->
<svg id="main" version="1.1" xmlns="http://www.w3.org/2000/svg" xmlns:xlink="http://www.w3.org/1999/xlink" xml:space="preserve" onload="init(evt)">
<style type="text/css"><![CDATA[
.edge:hover path { stroke: red; }
.edge:hover polygon { stroke: red; fill: red; }
]]></style>
<script type="text/javascript"><![CDATA[
var edges = document.getElementsByTagName('g');
if (edges && edges.length) {
  for (var i=0;i<edges.length;i++) {
    if (edges[i].id.substr(0,4)=='edge') {
      edges[i].setAttribute('class','edge');
    }
  }
}
]]></script>
        <defs>
                <circle id="rim" cx="0" cy="0" r="7"/>
                <circle id="rim2" cx="0" cy="0" r="3.5"/>
                <g id="zoomPlus">
                        <use xlink:href="#rim" fill="#404040">
                                <set attributeName="fill" to="#808080" begin="zoomplus.mouseover" end="zoomplus.mouseout"/>
                        </use>
                        <path d="M-4,0h8M0,-4v8" fill="none" stroke="white" stroke-width="1.5" pointer-events="none"/>
                </g>
                <g id="zoomMin">
                        <use xlink:href="#rim" fill="#404040">
                                <set attributeName="fill" to="#808080" begin="zoomminus.mouseover" end="zoomminus.mouseout"/>
                        </use>
                        <path d="M-4,0h8" fill="none" stroke="white" stroke-width="1.5" pointer-events="none"/>
                </g>
                <g id="dirArrow">
                        <path fill="none" stroke="white" stroke-width="1.5" d="M0,-3.0v7 M-2.5,-0.5L0,-3.0L2.5,-0.5"/>
                </g>
               <g id="resetDef">
                       <use xlink:href="#rim2" fill="#404040">
                               <set attributeName="fill" to="#808080" begin="reset.mouseover" end="reset.mouseout"/>
                       </use>
               </g>
        </defs>

<script type="text/javascript">
var viewWidth = 525;
var viewHeight = 316;
var sectionId = 'dynsection-1';
</script>
<script xlink:href="svgpan.js"/>
<svg id="graph" class="graph">
<g id="viewport">
<title>impala::BufferedBlockMgrTest</title>
<polygon fill="white" stroke="none" points="-4,4 -4,-312 521,-312 521,4 -4,4"/>
<!-- Node1 -->
<g id="node1" class="node"><title>Node1</title>
<polygon fill="#bfbfbf" stroke="black" points="143.5,-0.5 143.5,-167.5 292.5,-167.5 292.5,-0.5 143.5,-0.5"/>
<text text-anchor="middle" x="218" y="-155.5" font-family="Helvetica,sans-Serif" font-size="10.00">impala::BufferedBlockMgrTest</text>
<polyline fill="none" stroke="black" points="143.5,-148.5 292.5,-148.5 "/>
<text text-anchor="middle" x="218" y="-136.5" font-family="Helvetica,sans-Serif" font-size="10.00"> </text>
<polyline fill="none" stroke="black" points="143.5,-129.5 292.5,-129.5 "/>
<text text-anchor="start" x="151.5" y="-117.5" font-family="Helvetica,sans-Serif" font-size="10.00"># SetUp()</text>
<text text-anchor="start" x="151.5" y="-106.5" font-family="Helvetica,sans-Serif" font-size="10.00"># TearDown()</text>
<text text-anchor="start" x="151.5" y="-95.5" font-family="Helvetica,sans-Serif" font-size="10.00"># CreateMgr()</text>
<text text-anchor="start" x="151.5" y="-84.5" font-family="Helvetica,sans-Serif" font-size="10.00"># AllocateBlocks()</text>
<text text-anchor="start" x="151.5" y="-73.5" font-family="Helvetica,sans-Serif" font-size="10.00"># TestRandomInternalImpl()</text>
<text text-anchor="start" x="151.5" y="-62.5" font-family="Helvetica,sans-Serif" font-size="10.00"># TestRandomInternalSingle()</text>
<text text-anchor="start" x="151.5" y="-51.5" font-family="Helvetica,sans-Serif" font-size="10.00"># TestRandomInternalMulti()</text>
<text text-anchor="start" x="151.5" y="-40.5" font-family="Helvetica,sans-Serif" font-size="10.00"># GetFreeBlock()</text>
<text text-anchor="start" x="151.5" y="-29.5" font-family="Helvetica,sans-Serif" font-size="10.00"># ValidateBlock()</text>
<text text-anchor="start" x="151.5" y="-18.5" font-family="Helvetica,sans-Serif" font-size="10.00"># MakeRandomSizeData()</text>
<text text-anchor="start" x="151.5" y="-7.5" font-family="Helvetica,sans-Serif" font-size="10.00"># ValidateRandomSizeData()</text>
</g>
<!-- Node2 -->
<g id="node2" class="node"><title>Node2</title>
<polygon fill="white" stroke="#bfbfbf" points="0,-244.5 0,-301.5 36,-301.5 36,-244.5 0,-244.5"/>
<text text-anchor="middle" x="18" y="-289.5" font-family="Helvetica,sans-Serif" font-size="10.00">Test</text>
<polyline fill="none" stroke="#bfbfbf" points="0,-282.5 36,-282.5 "/>
<text text-anchor="middle" x="18" y="-270.5" font-family="Helvetica,sans-Serif" font-size="10.00"> </text>
<polyline fill="none" stroke="#bfbfbf" points="0,-263.5 36,-263.5 "/>
<text text-anchor="middle" x="18" y="-251.5" font-family="Helvetica,sans-Serif" font-size="10.00"> </text>
</g>
<!-- Node2&#45;&gt;Node1 -->
<g id="edge1" class="edge"><title>Node2&#45;&gt;Node1</title>
<path fill="none" stroke="midnightblue" d="M42.742,-240.432C43.4944,-239.605 44.2479,-238.793 45,-238 75.4879,-205.852 111.888,-172.951 143.417,-145.937"/>
<polygon fill="none" stroke="midnightblue" points="39.9703,-238.286 36.0714,-248.138 45.2627,-242.868 39.9703,-238.286"/>
</g>
<!-- Node3 -->
<g id="node3" class="node"><title>Node3</title>
<polygon fill="white" stroke="#bfbfbf" points="54,-239 54,-307 156,-307 156,-239 54,-239"/>
<text text-anchor="start" x="62" y="-295" font-family="Helvetica,sans-Serif" font-size="10.00">scoped_ptr&lt; impala</text>
<text text-anchor="middle" x="105" y="-284" font-family="Helvetica,sans-Serif" font-size="10.00">::MemTracker &gt;</text>
<polyline fill="none" stroke="#bfbfbf" points="54,-277 156,-277 "/>
<text text-anchor="middle" x="105" y="-265" font-family="Helvetica,sans-Serif" font-size="10.00"> </text>
<polyline fill="none" stroke="#bfbfbf" points="54,-258 156,-258 "/>
<text text-anchor="middle" x="105" y="-246" font-family="Helvetica,sans-Serif" font-size="10.00"> </text>
</g>
<!-- Node3&#45;&gt;Node1 -->
<g id="edge2" class="edge"><title>Node3&#45;&gt;Node1</title>
<path fill="none" stroke="#404040" d="M111.099,-238.839C115.006,-222.296 121.058,-202.376 130,-186 132.04,-182.264 134.239,-178.545 136.562,-174.861"/>
<polygon fill="none" stroke="#404040" points="136.757,-174.569 136.757,-167.358 143.414,-164.584 143.414,-171.796 136.757,-174.569"/>
<text text-anchor="middle" x="171.5" y="-211.5" font-family="Helvetica,sans-Serif" font-size="10.00"> #io_mgr_tracker_</text>
<text text-anchor="start" x="130" y="-200.5" font-family="Helvetica,sans-Serif" font-size="10.00">#block_mgr_parent</text>
<text text-anchor="middle" x="171.5" y="-189.5" font-family="Helvetica,sans-Serif" font-size="10.00">_tracker_</text>
</g>
<!-- Node4 -->
<g id="node4" class="node"><title>Node4</title>
<polygon fill="white" stroke="#bfbfbf" points="174,-239 174,-307 276,-307 276,-239 174,-239"/>
<text text-anchor="start" x="182" y="-295" font-family="Helvetica,sans-Serif" font-size="10.00">scoped_ptr&lt; impala</text>
<text text-anchor="middle" x="225" y="-284" font-family="Helvetica,sans-Serif" font-size="10.00">::RuntimeState &gt;</text>
<polyline fill="none" stroke="#bfbfbf" points="174,-277 276,-277 "/>
<text text-anchor="middle" x="225" y="-265" font-family="Helvetica,sans-Serif" font-size="10.00"> </text>
<polyline fill="none" stroke="#bfbfbf" points="174,-258 276,-258 "/>
<text text-anchor="middle" x="225" y="-246" font-family="Helvetica,sans-Serif" font-size="10.00"> </text>
</g>
<!-- Node4&#45;&gt;Node1 -->
<g id="edge3" class="edge"><title>Node4&#45;&gt;Node1</title>
<path fill="none" stroke="#404040" d="M220.626,-238.759C219.96,-232.535 219.372,-226.077 219,-220 218.205,-207.014 217.708,-193.313 217.417,-179.817"/>
<polygon fill="none" stroke="#404040" points="217.411,-179.505 213.308,-173.575 217.204,-167.507 221.307,-173.437 217.411,-179.505"/>
<text text-anchor="middle" x="255.5" y="-200.5" font-family="Helvetica,sans-Serif" font-size="10.00"> #runtime_state_</text>
</g>
<!-- Node5 -->
<g id="node5" class="node"><title>Node5</title>
<polygon fill="white" stroke="#bfbfbf" points="299.5,-244.5 299.5,-301.5 328.5,-301.5 328.5,-244.5 299.5,-244.5"/>
<text text-anchor="middle" x="314" y="-289.5" font-family="Helvetica,sans-Serif" font-size="10.00">int</text>
<polyline fill="none" stroke="#bfbfbf" points="299.5,-282.5 328.5,-282.5 "/>
<text text-anchor="middle" x="314" y="-270.5" font-family="Helvetica,sans-Serif" font-size="10.00"> </text>
<polyline fill="none" stroke="#bfbfbf" points="299.5,-263.5 328.5,-263.5 "/>
<text text-anchor="middle" x="314" y="-251.5" font-family="Helvetica,sans-Serif" font-size="10.00"> </text>
</g>
<!-- Node5&#45;&gt;Node1 -->
<g id="edge4" class="edge"><title>Node5&#45;&gt;Node1</title>
<path fill="none" stroke="#404040" d="M309.708,-244.353C306.352,-227.021 300.756,-204.533 292,-186 290.766,-183.388 289.461,-180.775 288.095,-178.169"/>
<polygon fill="none" stroke="#404040" points="287.997,-177.993 281.586,-174.693 282.166,-167.505 288.578,-170.805 287.997,-177.993"/>
<text text-anchor="middle" x="367.5" y="-206" font-family="Helvetica,sans-Serif" font-size="10.00"> #SINGLE_THREADED_TID</text>
<text text-anchor="middle" x="367.5" y="-195" font-family="Helvetica,sans-Serif" font-size="10.00">#block_size_</text>
</g>
<!-- Node6 -->
<g id="node6" class="node"><title>Node6</title>
<polygon fill="white" stroke="#bfbfbf" points="415,-239 415,-307 517,-307 517,-239 415,-239"/>
<text text-anchor="start" x="423" y="-295" font-family="Helvetica,sans-Serif" font-size="10.00">scoped_ptr&lt; impala</text>
<text text-anchor="middle" x="466" y="-284" font-family="Helvetica,sans-Serif" font-size="10.00">::ExecEnv &gt;</text>
<polyline fill="none" stroke="#bfbfbf" points="415,-277 517,-277 "/>
<text text-anchor="middle" x="466" y="-265" font-family="Helvetica,sans-Serif" font-size="10.00"> </text>
<polyline fill="none" stroke="#bfbfbf" points="415,-258 517,-258 "/>
<text text-anchor="middle" x="466" y="-246" font-family="Helvetica,sans-Serif" font-size="10.00"> </text>
</g>
<!-- Node6&#45;&gt;Node1 -->
<g id="edge5" class="edge"><title>Node6&#45;&gt;Node1</title>
<path fill="none" stroke="#404040" d="M460.9,-238.994C456.737,-221.493 449.274,-200.646 436,-186 401.213,-147.617 348.874,-122.705 304.199,-107.227"/>
<polygon fill="none" stroke="#404040" points="304.106,-107.196 297.148,-109.091 292.723,-103.397 299.681,-101.503 304.106,-107.196"/>
<text text-anchor="middle" x="482" y="-200.5" font-family="Helvetica,sans-Serif" font-size="10.00"> #exec_env_</text>
</g>
</g>
</svg>
        <g id="navigator" transform="translate(0 0)" fill="#404254">
                <rect fill="#f2f5e9" fill-opacity="0.5" stroke="#606060" stroke-width=".5" x="0" y="0" width="60" height="60"/>
                <use id="zoomplus" xlink:href="#zoomPlus" x="17" y="9" onmousedown="handleZoom(evt,'in')"/>
                <use id="zoomminus" xlink:href="#zoomMin" x="42" y="9" onmousedown="handleZoom(evt,'out')"/>
                <use id="reset" xlink:href="#resetDef" x="30" y="36" onmousedown="handleReset()"/>
                <g id="arrowUp" xlink:href="#dirArrow" transform="translate(30 24)" onmousedown="handlePan(0,-1)">
                  <use xlink:href="#rim" fill="#404040">
                        <set attributeName="fill" to="#808080" begin="arrowUp.mouseover" end="arrowUp.mouseout"/>
                  </use>
                  <path fill="none" stroke="white" stroke-width="1.5" d="M0,-3.0v7 M-2.5,-0.5L0,-3.0L2.5,-0.5"/>
                </g>
                <g id="arrowRight" xlink:href="#dirArrow" transform="rotate(90) translate(36 -43)" onmousedown="handlePan(1,0)">
                  <use xlink:href="#rim" fill="#404040">
                        <set attributeName="fill" to="#808080" begin="arrowRight.mouseover" end="arrowRight.mouseout"/>
                  </use>
                  <path fill="none" stroke="white" stroke-width="1.5" d="M0,-3.0v7 M-2.5,-0.5L0,-3.0L2.5,-0.5"/>
                </g>
                <g id="arrowDown" xlink:href="#dirArrow" transform="rotate(180) translate(-30 -48)" onmousedown="handlePan(0,1)">
                  <use xlink:href="#rim" fill="#404040">
                        <set attributeName="fill" to="#808080" begin="arrowDown.mouseover" end="arrowDown.mouseout"/>
                  </use>
                  <path fill="none" stroke="white" stroke-width="1.5" d="M0,-3.0v7 M-2.5,-0.5L0,-3.0L2.5,-0.5"/>
                </g>
                <g id="arrowLeft" xlink:href="#dirArrow" transform="rotate(270) translate(-36 17)" onmousedown="handlePan(-1,0)">
                  <use xlink:href="#rim" fill="#404040">
                        <set attributeName="fill" to="#808080" begin="arrowLeft.mouseover" end="arrowLeft.mouseout"/>
                  </use>
                  <path fill="none" stroke="white" stroke-width="1.5" d="M0,-3.0v7 M-2.5,-0.5L0,-3.0L2.5,-0.5"/>
                </g>
        </g>
        <svg viewBox="0 0 15 15" width="100%" height="30px" preserveAspectRatio="xMaxYMin meet">
         <g id="arrow_out" transform="scale(0.3 0.3)">
          <a xlink:href="classimpala_1_1BufferedBlockMgrTest__coll__graph_org.svg" target="_base">
           <rect id="button" ry="5" rx="5" y="6" x="6" height="38" width="38"
                fill="#f2f5e9" fill-opacity="0.5" stroke="#606060" stroke-width="1.0"/>
           <path id="arrow"
             d="M 11.500037,31.436501 C 11.940474,20.09759 22.043105,11.32322 32.158766,21.979434 L 37.068811,17.246167 C 37.068811,17.246167 37.088388,32 37.088388,32 L 22.160133,31.978069 C 22.160133,31.978069 26.997745,27.140456 26.997745,27.140456 C 18.528582,18.264221 13.291696,25.230495 11.500037,31.436501 z"
             style="fill:#404040;"/>
          </a>
         </g>
        </svg>
</svg>
