<?xml version="1.0" encoding="UTF-8" standalone="no"?>
<!DOCTYPE svg PUBLIC "-//W3C//DTD SVG 1.1//EN"
 "http://www.w3.org/Graphics/SVG/1.1/DTD/svg11.dtd">
<!-- Generated by graphviz version 2.36.0 (20140111.2315)
 -->
<!-- Title: com.cloudera.impala.analysis.ShowCreateTableStmt Pages: 1 -->
<svg width="395pt" height="498pt"
 viewBox="0.00 0.00 395.00 498.00" xmlns="http://www.w3.org/2000/svg" xmlns:xlink="http://www.w3.org/1999/xlink">
<g id="graph0" class="graph" transform="scale(1 1) rotate(0) translate(4 494)">
<title>com.cloudera.impala.analysis.ShowCreateTableStmt</title>
<polygon fill="white" stroke="none" points="-4,4 -4,-494 391,-494 391,4 -4,4"/>
<!-- Node1 -->
<g id="node1" class="node"><title>Node1</title>
<polygon fill="#bfbfbf" stroke="black" points="171.5,-0.5 171.5,-101.5 320.5,-101.5 320.5,-0.5 171.5,-0.5"/>
<text text-anchor="start" x="179.5" y="-89.5" font-family="Helvetica,sans-Serif" font-size="10.00">com.cloudera.impala.analysis.</text>
<text text-anchor="middle" x="246" y="-78.5" font-family="Helvetica,sans-Serif" font-size="10.00">ShowCreateTableStmt</text>
<polyline fill="none" stroke="black" points="171.5,-71.5 320.5,-71.5 "/>
<text text-anchor="middle" x="246" y="-59.5" font-family="Helvetica,sans-Serif" font-size="10.00"> </text>
<polyline fill="none" stroke="black" points="171.5,-52.5 320.5,-52.5 "/>
<text text-anchor="start" x="179.5" y="-40.5" font-family="Helvetica,sans-Serif" font-size="10.00">+ ShowCreateTableStmt()</text>
<text text-anchor="start" x="179.5" y="-29.5" font-family="Helvetica,sans-Serif" font-size="10.00">+ toSql()</text>
<text text-anchor="start" x="179.5" y="-18.5" font-family="Helvetica,sans-Serif" font-size="10.00">+ analyze()</text>
<text text-anchor="start" x="179.5" y="-7.5" font-family="Helvetica,sans-Serif" font-size="10.00">+ toThrift()</text>
</g>
<!-- Node2 -->
<g id="node2" class="node"><title>Node2</title>
<g id="a_node2"><a xlink:href="classcom_1_1cloudera_1_1impala_1_1analysis_1_1StatementBase.html" target="_top" xlink:title="{com.cloudera.impala.analysis.\lStatementBase\n||+ analyze()\l+ toSql()\l+ setIsExplain()\l+ isExplain()\l}">
<polygon fill="white" stroke="black" points="71.5,-200.5 71.5,-301.5 220.5,-301.5 220.5,-200.5 71.5,-200.5"/>
<text text-anchor="start" x="79.5" y="-289.5" font-family="Helvetica,sans-Serif" font-size="10.00">com.cloudera.impala.analysis.</text>
<text text-anchor="middle" x="146" y="-278.5" font-family="Helvetica,sans-Serif" font-size="10.00">StatementBase</text>
<polyline fill="none" stroke="black" points="71.5,-271.5 220.5,-271.5 "/>
<text text-anchor="middle" x="146" y="-259.5" font-family="Helvetica,sans-Serif" font-size="10.00"> </text>
<polyline fill="none" stroke="black" points="71.5,-252.5 220.5,-252.5 "/>
<text text-anchor="start" x="79.5" y="-240.5" font-family="Helvetica,sans-Serif" font-size="10.00">+ analyze()</text>
<text text-anchor="start" x="79.5" y="-229.5" font-family="Helvetica,sans-Serif" font-size="10.00">+ toSql()</text>
<text text-anchor="start" x="79.5" y="-218.5" font-family="Helvetica,sans-Serif" font-size="10.00">+ setIsExplain()</text>
<text text-anchor="start" x="79.5" y="-207.5" font-family="Helvetica,sans-Serif" font-size="10.00">+ isExplain()</text>
</a>
</g>
</g>
<!-- Node2&#45;&gt;Node1 -->
<g id="edge1" class="edge"><title>Node2&#45;&gt;Node1</title>
<path fill="none" stroke="midnightblue" d="M175.673,-191.247C190.06,-162.761 207.153,-128.917 220.885,-101.729"/>
<polygon fill="none" stroke="midnightblue" points="172.489,-189.788 171.105,-200.292 178.738,-192.944 172.489,-189.788"/>
</g>
<!-- Node3 -->
<g id="node3" class="node"><title>Node3</title>
<g id="a_node3"><a xlink:href="interfacecom_1_1cloudera_1_1impala_1_1analysis_1_1ParseNode.html" target="_top" xlink:title="{com.cloudera.impala.analysis.\lParseNode\n||+ analyze()\l+ toSql()\l}">
<polygon fill="white" stroke="black" points="-0.5,-410.5 -0.5,-489.5 148.5,-489.5 148.5,-410.5 -0.5,-410.5"/>
<text text-anchor="start" x="7.5" y="-477.5" font-family="Helvetica,sans-Serif" font-size="10.00">com.cloudera.impala.analysis.</text>
<text text-anchor="middle" x="74" y="-466.5" font-family="Helvetica,sans-Serif" font-size="10.00">ParseNode</text>
<polyline fill="none" stroke="black" points="-0.5,-459.5 148.5,-459.5 "/>
<text text-anchor="middle" x="74" y="-447.5" font-family="Helvetica,sans-Serif" font-size="10.00"> </text>
<polyline fill="none" stroke="black" points="-0.5,-440.5 148.5,-440.5 "/>
<text text-anchor="start" x="7.5" y="-428.5" font-family="Helvetica,sans-Serif" font-size="10.00">+ analyze()</text>
<text text-anchor="start" x="7.5" y="-417.5" font-family="Helvetica,sans-Serif" font-size="10.00">+ toSql()</text>
</a>
</g>
</g>
<!-- Node3&#45;&gt;Node2 -->
<g id="edge2" class="edge"><title>Node3&#45;&gt;Node2</title>
<path fill="none" stroke="midnightblue" d="M91.6753,-400.638C102.663,-370.576 116.755,-332.017 127.834,-301.705"/>
<polygon fill="none" stroke="midnightblue" points="88.3704,-399.485 88.2249,-410.079 94.945,-401.888 88.3704,-399.485"/>
</g>
<!-- Node4 -->
<g id="node4" class="node"><title>Node4</title>
<polygon fill="white" stroke="#bfbfbf" points="166,-421.5 166,-478.5 216,-478.5 216,-421.5 166,-421.5"/>
<text text-anchor="middle" x="191" y="-466.5" font-family="Helvetica,sans-Serif" font-size="10.00">boolean</text>
<polyline fill="none" stroke="#bfbfbf" points="166,-459.5 216,-459.5 "/>
<text text-anchor="middle" x="191" y="-447.5" font-family="Helvetica,sans-Serif" font-size="10.00"> </text>
<polyline fill="none" stroke="#bfbfbf" points="166,-440.5 216,-440.5 "/>
<text text-anchor="middle" x="191" y="-428.5" font-family="Helvetica,sans-Serif" font-size="10.00"> </text>
</g>
<!-- Node4&#45;&gt;Node2 -->
<g id="edge3" class="edge"><title>Node4&#45;&gt;Node2</title>
<path fill="none" stroke="#404040" d="M184.648,-421.193C178.292,-393.368 168.303,-349.637 160.072,-313.606"/>
<polygon fill="none" stroke="#404040" points="160.029,-313.414 154.793,-308.456 157.356,-301.715 162.592,-306.674 160.029,-313.414"/>
<text text-anchor="middle" x="205" y="-378.5" font-family="Helvetica,sans-Serif" font-size="10.00"> #isExplain_</text>
</g>
<!-- Node5 -->
<g id="node5" class="node"><title>Node5</title>
<g id="a_node5"><a xlink:href="classcom_1_1cloudera_1_1impala_1_1analysis_1_1TableName.html" target="_top" xlink:title="{com.cloudera.impala.analysis.\lTableName\n||+ TableName()\l+ getDb()\l+ getTbl()\l+ isEmpty()\l+ analyze()\l+ isFullyQualified()\l+ toSql()\l+ toString()\l+ toPath()\l+ toThrift()\l+ equals()\l+ hashCode()\l+ fromThrift()\l}">
<polygon fill="white" stroke="black" points="238.5,-151 238.5,-351 387.5,-351 387.5,-151 238.5,-151"/>
<text text-anchor="start" x="246.5" y="-339" font-family="Helvetica,sans-Serif" font-size="10.00">com.cloudera.impala.analysis.</text>
<text text-anchor="middle" x="313" y="-328" font-family="Helvetica,sans-Serif" font-size="10.00">TableName</text>
<polyline fill="none" stroke="black" points="238.5,-321 387.5,-321 "/>
<text text-anchor="middle" x="313" y="-309" font-family="Helvetica,sans-Serif" font-size="10.00"> </text>
<polyline fill="none" stroke="black" points="238.5,-302 387.5,-302 "/>
<text text-anchor="start" x="246.5" y="-290" font-family="Helvetica,sans-Serif" font-size="10.00">+ TableName()</text>
<text text-anchor="start" x="246.5" y="-279" font-family="Helvetica,sans-Serif" font-size="10.00">+ getDb()</text>
<text text-anchor="start" x="246.5" y="-268" font-family="Helvetica,sans-Serif" font-size="10.00">+ getTbl()</text>
<text text-anchor="start" x="246.5" y="-257" font-family="Helvetica,sans-Serif" font-size="10.00">+ isEmpty()</text>
<text text-anchor="start" x="246.5" y="-246" font-family="Helvetica,sans-Serif" font-size="10.00">+ analyze()</text>
<text text-anchor="start" x="246.5" y="-235" font-family="Helvetica,sans-Serif" font-size="10.00">+ isFullyQualified()</text>
<text text-anchor="start" x="246.5" y="-224" font-family="Helvetica,sans-Serif" font-size="10.00">+ toSql()</text>
<text text-anchor="start" x="246.5" y="-213" font-family="Helvetica,sans-Serif" font-size="10.00">+ toString()</text>
<text text-anchor="start" x="246.5" y="-202" font-family="Helvetica,sans-Serif" font-size="10.00">+ toPath()</text>
<text text-anchor="start" x="246.5" y="-191" font-family="Helvetica,sans-Serif" font-size="10.00">+ toThrift()</text>
<text text-anchor="start" x="246.5" y="-180" font-family="Helvetica,sans-Serif" font-size="10.00">+ equals()</text>
<text text-anchor="start" x="246.5" y="-169" font-family="Helvetica,sans-Serif" font-size="10.00">+ hashCode()</text>
<text text-anchor="start" x="246.5" y="-158" font-family="Helvetica,sans-Serif" font-size="10.00">+ fromThrift()</text>
</a>
</g>
</g>
<!-- Node5&#45;&gt;Node1 -->
<g id="edge4" class="edge"><title>Node5&#45;&gt;Node1</title>
<path fill="none" stroke="#404040" d="M279.402,-150.71C275.067,-137.901 270.735,-125.098 266.695,-113.16"/>
<polygon fill="none" stroke="#404040" points="266.61,-112.908 260.898,-108.507 262.764,-101.541 268.476,-105.942 266.61,-112.908"/>
<text text-anchor="middle" x="301.5" y="-123.5" font-family="Helvetica,sans-Serif" font-size="10.00"> &#45;tableName_</text>
</g>
<!-- Node6 -->
<g id="node6" class="node"><title>Node6</title>
<polygon fill="white" stroke="#bfbfbf" points="292,-421.5 292,-478.5 334,-478.5 334,-421.5 292,-421.5"/>
<text text-anchor="middle" x="313" y="-466.5" font-family="Helvetica,sans-Serif" font-size="10.00">String</text>
<polyline fill="none" stroke="#bfbfbf" points="292,-459.5 334,-459.5 "/>
<text text-anchor="middle" x="313" y="-447.5" font-family="Helvetica,sans-Serif" font-size="10.00"> </text>
<polyline fill="none" stroke="#bfbfbf" points="292,-440.5 334,-440.5 "/>
<text text-anchor="middle" x="313" y="-428.5" font-family="Helvetica,sans-Serif" font-size="10.00"> </text>
</g>
<!-- Node6&#45;&gt;Node5 -->
<g id="edge5" class="edge"><title>Node6&#45;&gt;Node5</title>
<path fill="none" stroke="#404040" d="M313,-421.193C313,-405.532 313,-384.833 313,-363.303"/>
<polygon fill="none" stroke="#404040" points="313,-363.283 309,-357.283 313,-351.283 317,-357.283 313,-363.283"/>
<text text-anchor="middle" x="324" y="-384" font-family="Helvetica,sans-Serif" font-size="10.00"> &#45;db_</text>
<text text-anchor="middle" x="324" y="-373" font-family="Helvetica,sans-Serif" font-size="10.00">&#45;tbl_</text>
</g>
</g>
</svg>
