<?xml version="1.0" encoding="UTF-8" standalone="no"?>
<!DOCTYPE svg PUBLIC "-//W3C//DTD SVG 1.1//EN"
 "http://www.w3.org/Graphics/SVG/1.1/DTD/svg11.dtd">
<!-- Generated by graphviz version 2.36.0 (20140111.2315)
 -->
<!-- Title: impala::ThriftDeserializer Pages: 1 -->
<svg width="231pt" height="194pt"
 viewBox="0.00 0.00 231.00 194.00" xmlns="http://www.w3.org/2000/svg" xmlns:xlink="http://www.w3.org/1999/xlink">
<g id="graph0" class="graph" transform="scale(1 1) rotate(0) translate(4 190)">
<title>impala::ThriftDeserializer</title>
<polygon fill="white" stroke="none" points="-4,4 -4,-190 227,-190 227,4 -4,4"/>
<!-- Node1 -->
<g id="node1" class="node"><title>Node1</title>
<polygon fill="#bfbfbf" stroke="black" points="48.5,-0.5 48.5,-57.5 173.5,-57.5 173.5,-0.5 48.5,-0.5"/>
<text text-anchor="middle" x="111" y="-45.5" font-family="Helvetica,sans-Serif" font-size="10.00">impala::ThriftDeserializer</text>
<polyline fill="none" stroke="black" points="48.5,-38.5 173.5,-38.5 "/>
<text text-anchor="middle" x="111" y="-26.5" font-family="Helvetica,sans-Serif" font-size="10.00"> </text>
<polyline fill="none" stroke="black" points="48.5,-19.5 173.5,-19.5 "/>
<text text-anchor="start" x="56.5" y="-7.5" font-family="Helvetica,sans-Serif" font-size="10.00">+ ThriftDeserializer()</text>
</g>
<!-- Node2 -->
<g id="node2" class="node"><title>Node2</title>
<polygon fill="white" stroke="#bfbfbf" points="-0.5,-106.5 -0.5,-185.5 102.5,-185.5 102.5,-106.5 -0.5,-106.5"/>
<text text-anchor="start" x="7.5" y="-173.5" font-family="Helvetica,sans-Serif" font-size="10.00">shared_ptr&lt; apache</text>
<text text-anchor="start" x="7.5" y="-162.5" font-family="Helvetica,sans-Serif" font-size="10.00">::thrift::protocol::</text>
<text text-anchor="middle" x="51" y="-151.5" font-family="Helvetica,sans-Serif" font-size="10.00">TProtocolFactory &gt;</text>
<polyline fill="none" stroke="#bfbfbf" points="-0.5,-144.5 102.5,-144.5 "/>
<text text-anchor="middle" x="51" y="-132.5" font-family="Helvetica,sans-Serif" font-size="10.00"> </text>
<polyline fill="none" stroke="#bfbfbf" points="-0.5,-125.5 102.5,-125.5 "/>
<text text-anchor="middle" x="51" y="-113.5" font-family="Helvetica,sans-Serif" font-size="10.00"> </text>
</g>
<!-- Node2&#45;&gt;Node1 -->
<g id="edge1" class="edge"><title>Node2&#45;&gt;Node1</title>
<path fill="none" stroke="#404040" d="M71.146,-106.387C77.5059,-94.197 84.5305,-80.7332 90.888,-68.548"/>
<polygon fill="none" stroke="#404040" points="90.9499,-68.4292 90.179,-61.2594 96.5008,-57.7902 97.2717,-64.96 90.9499,-68.4292"/>
<text text-anchor="middle" x="108" y="-79.5" font-family="Helvetica,sans-Serif" font-size="10.00"> &#45;factory_</text>
</g>
<!-- Node3 -->
<g id="node3" class="node"><title>Node3</title>
<polygon fill="white" stroke="#bfbfbf" points="120.5,-106.5 120.5,-185.5 223.5,-185.5 223.5,-106.5 120.5,-106.5"/>
<text text-anchor="start" x="128.5" y="-173.5" font-family="Helvetica,sans-Serif" font-size="10.00">shared_ptr&lt; apache</text>
<text text-anchor="start" x="128.5" y="-162.5" font-family="Helvetica,sans-Serif" font-size="10.00">::thrift::protocol::</text>
<text text-anchor="middle" x="172" y="-151.5" font-family="Helvetica,sans-Serif" font-size="10.00">TProtocol &gt;</text>
<polyline fill="none" stroke="#bfbfbf" points="120.5,-144.5 223.5,-144.5 "/>
<text text-anchor="middle" x="172" y="-132.5" font-family="Helvetica,sans-Serif" font-size="10.00"> </text>
<polyline fill="none" stroke="#bfbfbf" points="120.5,-125.5 223.5,-125.5 "/>
<text text-anchor="middle" x="172" y="-113.5" font-family="Helvetica,sans-Serif" font-size="10.00"> </text>
</g>
<!-- Node3&#45;&gt;Node1 -->
<g id="edge2" class="edge"><title>Node3&#45;&gt;Node1</title>
<path fill="none" stroke="#404040" d="M151.518,-106.387C145.052,-94.197 137.911,-80.7332 131.447,-68.548"/>
<polygon fill="none" stroke="#404040" points="131.364,-68.3911 125.019,-64.965 125.741,-57.7902 132.086,-61.2163 131.364,-68.3911"/>
<text text-anchor="middle" x="159.5" y="-79.5" font-family="Helvetica,sans-Serif" font-size="10.00"> &#45;tproto_</text>
</g>
</g>
</svg>
