<?xml version="1.0" encoding="UTF-8" standalone="no"?>
<!DOCTYPE svg PUBLIC "-//W3C//DTD SVG 1.1//EN"
 "http://www.w3.org/Graphics/SVG/1.1/DTD/svg11.dtd">
<!-- Generated by graphviz version 2.36.0 (20140111.2315)
 -->
<!-- Title: DataProvider::ColDesc Pages: 1 -->
<svg width="720pt" height="758pt"
 viewBox="0.00 0.00 720.00 758.00" xmlns="http://www.w3.org/2000/svg" xmlns:xlink="http://www.w3.org/1999/xlink">
<g id="graph0" class="graph" transform="scale(1 1) rotate(0) translate(4 754)">
<title>DataProvider::ColDesc</title>
<polygon fill="white" stroke="none" points="-4,4 -4,-754 716,-754 716,4 -4,4"/>
<!-- Node1 -->
<g id="node1" class="node"><title>Node1</title>
<polygon fill="#bfbfbf" stroke="black" points="116,-1 116,-245 234,-245 234,-1 116,-1"/>
<text text-anchor="middle" x="175" y="-233" font-family="Helvetica,sans-Serif" font-size="10.00">DataProvider::ColDesc</text>
<polyline fill="none" stroke="black" points="116,-226 234,-226 "/>
<text text-anchor="middle" x="175" y="-214" font-family="Helvetica,sans-Serif" font-size="10.00"> </text>
<polyline fill="none" stroke="black" points="116,-207 234,-207 "/>
<text text-anchor="start" x="124" y="-195" font-family="Helvetica,sans-Serif" font-size="10.00">+ Create()</text>
<text text-anchor="start" x="124" y="-184" font-family="Helvetica,sans-Serif" font-size="10.00">+ Create()</text>
<text text-anchor="start" x="124" y="-173" font-family="Helvetica,sans-Serif" font-size="10.00">+ Create()</text>
<text text-anchor="start" x="124" y="-162" font-family="Helvetica,sans-Serif" font-size="10.00">+ Create()</text>
<text text-anchor="start" x="124" y="-151" font-family="Helvetica,sans-Serif" font-size="10.00">+ Create()</text>
<text text-anchor="start" x="124" y="-140" font-family="Helvetica,sans-Serif" font-size="10.00">+ Create()</text>
<text text-anchor="start" x="124" y="-129" font-family="Helvetica,sans-Serif" font-size="10.00">+ Create()</text>
<text text-anchor="start" x="124" y="-118" font-family="Helvetica,sans-Serif" font-size="10.00">+ Create()</text>
<text text-anchor="start" x="124" y="-107" font-family="Helvetica,sans-Serif" font-size="10.00">&#45; Generate()</text>
<text text-anchor="start" x="124" y="-96" font-family="Helvetica,sans-Serif" font-size="10.00">&#45; ColDesc()</text>
<text text-anchor="start" x="124" y="-85" font-family="Helvetica,sans-Serif" font-size="10.00">&#45; Generate()</text>
<text text-anchor="start" x="124" y="-74" font-family="Helvetica,sans-Serif" font-size="10.00">&#45; Generate()</text>
<text text-anchor="start" x="124" y="-63" font-family="Helvetica,sans-Serif" font-size="10.00">&#45; Generate()</text>
<text text-anchor="start" x="124" y="-52" font-family="Helvetica,sans-Serif" font-size="10.00">&#45; Generate()</text>
<text text-anchor="start" x="124" y="-41" font-family="Helvetica,sans-Serif" font-size="10.00">&#45; Generate()</text>
<text text-anchor="start" x="124" y="-30" font-family="Helvetica,sans-Serif" font-size="10.00">&#45; Generate()</text>
<text text-anchor="start" x="124" y="-19" font-family="Helvetica,sans-Serif" font-size="10.00">&#45; Generate()</text>
<text text-anchor="start" x="124" y="-8" font-family="Helvetica,sans-Serif" font-size="10.00">&#45; Generate()</text>
</g>
<!-- Node2 -->
<g id="node2" class="node"><title>Node2</title>
<polygon fill="white" stroke="#bfbfbf" points="0,-304.5 0,-361.5 56,-361.5 56,-304.5 0,-304.5"/>
<text text-anchor="middle" x="28" y="-349.5" font-family="Helvetica,sans-Serif" font-size="10.00">DataGen</text>
<polyline fill="none" stroke="#bfbfbf" points="0,-342.5 56,-342.5 "/>
<text text-anchor="middle" x="28" y="-330.5" font-family="Helvetica,sans-Serif" font-size="10.00"> </text>
<polyline fill="none" stroke="#bfbfbf" points="0,-323.5 56,-323.5 "/>
<text text-anchor="middle" x="28" y="-311.5" font-family="Helvetica,sans-Serif" font-size="10.00"> </text>
</g>
<!-- Node2&#45;&gt;Node1 -->
<g id="edge1" class="edge"><title>Node2&#45;&gt;Node1</title>
<path fill="none" stroke="#404040" d="M23.6658,-304.5C22.8161,-291.697 23.5339,-276.558 29,-264 45.2512,-226.664 76.7328,-194.429 106.314,-170.333"/>
<polygon fill="none" stroke="#404040" points="106.421,-170.248 108.643,-163.388 115.83,-162.8 113.608,-169.66 106.421,-170.248"/>
<text text-anchor="middle" x="52" y="-272.5" font-family="Helvetica,sans-Serif" font-size="10.00"> &#45;gen_type</text>
</g>
<!-- Node3 -->
<g id="node3" class="node"><title>Node3</title>
<polygon fill="white" stroke="#bfbfbf" points="95.5,-692.5 95.5,-749.5 124.5,-749.5 124.5,-692.5 95.5,-692.5"/>
<text text-anchor="middle" x="110" y="-737.5" font-family="Helvetica,sans-Serif" font-size="10.00">int</text>
<polyline fill="none" stroke="#bfbfbf" points="95.5,-730.5 124.5,-730.5 "/>
<text text-anchor="middle" x="110" y="-718.5" font-family="Helvetica,sans-Serif" font-size="10.00"> </text>
<polyline fill="none" stroke="#bfbfbf" points="95.5,-711.5 124.5,-711.5 "/>
<text text-anchor="middle" x="110" y="-699.5" font-family="Helvetica,sans-Serif" font-size="10.00"> </text>
</g>
<!-- Node3&#45;&gt;Node1 -->
<g id="edge2" class="edge"><title>Node3&#45;&gt;Node1</title>
<path fill="none" stroke="#404040" d="M109.187,-692.117C108.738,-675.287 108.226,-653.414 108,-634 106.843,-534.451 96.5706,-508.897 108,-410 113.855,-359.338 125.36,-304.613 137.207,-256.731"/>
<polygon fill="none" stroke="#404040" points="137.222,-256.672 134.802,-249.879 140.141,-245.033 142.561,-251.826 137.222,-256.672"/>
<text text-anchor="middle" x="127.5" y="-383.5" font-family="Helvetica,sans-Serif" font-size="10.00"> &#45;bytes</text>
</g>
<!-- Node8 -->
<g id="node8" class="node"><title>Node8</title>
<g id="a_node8"><a xlink:href="structimpala_1_1StringValue.html" target="_top" xlink:title="{impala::StringValue\n||+ StringValue()\l+ StringValue()\l+ StringValue()\l+ StringValue()\l+ Compare()\l+ Eq()\l+ operator==()\l+ Ne()\l+ operator!=()\l+ Le()\land 12 more...\l+ FromStringVal()\l+ PadWithSpaces()\l+ UnpaddedCharLength()\l+ CharSlotToPtr()\l+ CharSlotToPtr()\l}">
<polygon fill="white" stroke="black" points="117,-411 117,-633 243,-633 243,-411 117,-411"/>
<text text-anchor="middle" x="180" y="-621" font-family="Helvetica,sans-Serif" font-size="10.00">impala::StringValue</text>
<polyline fill="none" stroke="black" points="117,-614 243,-614 "/>
<text text-anchor="middle" x="180" y="-602" font-family="Helvetica,sans-Serif" font-size="10.00"> </text>
<polyline fill="none" stroke="black" points="117,-595 243,-595 "/>
<text text-anchor="start" x="125" y="-583" font-family="Helvetica,sans-Serif" font-size="10.00">+ StringValue()</text>
<text text-anchor="start" x="125" y="-572" font-family="Helvetica,sans-Serif" font-size="10.00">+ StringValue()</text>
<text text-anchor="start" x="125" y="-561" font-family="Helvetica,sans-Serif" font-size="10.00">+ StringValue()</text>
<text text-anchor="start" x="125" y="-550" font-family="Helvetica,sans-Serif" font-size="10.00">+ StringValue()</text>
<text text-anchor="start" x="125" y="-539" font-family="Helvetica,sans-Serif" font-size="10.00">+ Compare()</text>
<text text-anchor="start" x="125" y="-528" font-family="Helvetica,sans-Serif" font-size="10.00">+ Eq()</text>
<text text-anchor="start" x="125" y="-517" font-family="Helvetica,sans-Serif" font-size="10.00">+ operator==()</text>
<text text-anchor="start" x="125" y="-506" font-family="Helvetica,sans-Serif" font-size="10.00">+ Ne()</text>
<text text-anchor="start" x="125" y="-495" font-family="Helvetica,sans-Serif" font-size="10.00">+ operator!=()</text>
<text text-anchor="start" x="125" y="-484" font-family="Helvetica,sans-Serif" font-size="10.00">+ Le()</text>
<text text-anchor="start" x="125" y="-473" font-family="Helvetica,sans-Serif" font-size="10.00">and 12 more...</text>
<text text-anchor="start" x="125" y="-462" font-family="Helvetica,sans-Serif" font-size="10.00">+ FromStringVal()</text>
<text text-anchor="start" x="125" y="-451" font-family="Helvetica,sans-Serif" font-size="10.00">+ PadWithSpaces()</text>
<text text-anchor="start" x="125" y="-440" font-family="Helvetica,sans-Serif" font-size="10.00">+ UnpaddedCharLength()</text>
<text text-anchor="start" x="125" y="-429" font-family="Helvetica,sans-Serif" font-size="10.00">+ CharSlotToPtr()</text>
<text text-anchor="start" x="125" y="-418" font-family="Helvetica,sans-Serif" font-size="10.00">+ CharSlotToPtr()</text>
</a>
</g>
</g>
<!-- Node3&#45;&gt;Node8 -->
<g id="edge9" class="edge"><title>Node3&#45;&gt;Node8</title>
<path fill="none" stroke="#404040" d="M119.881,-692.193C124.54,-679.08 130.455,-662.435 136.747,-644.727"/>
<polygon fill="none" stroke="#404040" points="136.797,-644.585 135.037,-637.592 140.815,-633.277 142.575,-640.27 136.797,-644.585"/>
<text text-anchor="middle" x="144" y="-660.5" font-family="Helvetica,sans-Serif" font-size="10.00"> +len</text>
</g>
<!-- Node4 -->
<g id="node4" class="node"><title>Node4</title>
<polygon fill="white" stroke="#bfbfbf" points="471.5,-304.5 471.5,-361.5 548.5,-361.5 548.5,-304.5 471.5,-304.5"/>
<text text-anchor="middle" x="510" y="-349.5" font-family="Helvetica,sans-Serif" font-size="10.00">PrimitiveType</text>
<polyline fill="none" stroke="#bfbfbf" points="471.5,-342.5 548.5,-342.5 "/>
<text text-anchor="middle" x="510" y="-330.5" font-family="Helvetica,sans-Serif" font-size="10.00"> </text>
<polyline fill="none" stroke="#bfbfbf" points="471.5,-323.5 548.5,-323.5 "/>
<text text-anchor="middle" x="510" y="-311.5" font-family="Helvetica,sans-Serif" font-size="10.00"> </text>
</g>
<!-- Node4&#45;&gt;Node1 -->
<g id="edge3" class="edge"><title>Node4&#45;&gt;Node1</title>
<path fill="none" stroke="#404040" d="M471.244,-307.937C415.872,-273.557 313.234,-209.829 244.521,-167.165"/>
<polygon fill="none" stroke="#404040" points="244.413,-167.098 237.205,-167.331 234.218,-160.768 241.425,-160.535 244.413,-167.098"/>
<text text-anchor="middle" x="442.5" y="-272.5" font-family="Helvetica,sans-Serif" font-size="10.00"> &#45;type</text>
</g>
<!-- Node5 -->
<g id="node5" class="node"><title>Node5</title>
<g id="a_node5"><a xlink:href="structDataProvider_1_1Value.html" target="_top" xlink:title="{DataProvider::Value\n||}">
<polygon fill="white" stroke="black" points="349,-304.5 349,-361.5 453,-361.5 453,-304.5 349,-304.5"/>
<text text-anchor="middle" x="401" y="-349.5" font-family="Helvetica,sans-Serif" font-size="10.00">DataProvider::Value</text>
<polyline fill="none" stroke="black" points="349,-342.5 453,-342.5 "/>
<text text-anchor="middle" x="401" y="-330.5" font-family="Helvetica,sans-Serif" font-size="10.00"> </text>
<polyline fill="none" stroke="black" points="349,-323.5 453,-323.5 "/>
<text text-anchor="middle" x="401" y="-311.5" font-family="Helvetica,sans-Serif" font-size="10.00"> </text>
</a>
</g>
</g>
<!-- Node5&#45;&gt;Node1 -->
<g id="edge4" class="edge"><title>Node5&#45;&gt;Node1</title>
<path fill="none" stroke="#404040" d="M370.989,-304.379C338.593,-274.563 285.915,-226.081 243.327,-186.885"/>
<polygon fill="none" stroke="#404040" points="243.233,-186.798 236.109,-185.678 234.403,-178.672 241.527,-179.792 243.233,-186.798"/>
<text text-anchor="middle" x="358" y="-278" font-family="Helvetica,sans-Serif" font-size="10.00"> &#45;min</text>
<text text-anchor="middle" x="358" y="-267" font-family="Helvetica,sans-Serif" font-size="10.00">&#45;max</text>
</g>
<!-- Node6 -->
<g id="node6" class="node"><title>Node6</title>
<polygon fill="white" stroke="#bfbfbf" points="261.5,-493.5 261.5,-550.5 302.5,-550.5 302.5,-493.5 261.5,-493.5"/>
<text text-anchor="middle" x="282" y="-538.5" font-family="Helvetica,sans-Serif" font-size="10.00">int8_t</text>
<polyline fill="none" stroke="#bfbfbf" points="261.5,-531.5 302.5,-531.5 "/>
<text text-anchor="middle" x="282" y="-519.5" font-family="Helvetica,sans-Serif" font-size="10.00"> </text>
<polyline fill="none" stroke="#bfbfbf" points="261.5,-512.5 302.5,-512.5 "/>
<text text-anchor="middle" x="282" y="-500.5" font-family="Helvetica,sans-Serif" font-size="10.00"> </text>
</g>
<!-- Node6&#45;&gt;Node5 -->
<g id="edge5" class="edge"><title>Node6&#45;&gt;Node5</title>
<path fill="none" stroke="#404040" d="M284.538,-493.138C287.752,-469.488 294.959,-435.441 311,-410 320.66,-394.679 334.407,-380.863 348.258,-369.344"/>
<polygon fill="none" stroke="#404040" points="348.421,-369.214 350.628,-362.349 357.814,-361.747 355.607,-368.612 348.421,-369.214"/>
<text text-anchor="middle" x="348.5" y="-383.5" font-family="Helvetica,sans-Serif" font-size="10.00"> +int8</text>
</g>
<!-- Node7 -->
<g id="node7" class="node"><title>Node7</title>
<polygon fill="white" stroke="#bfbfbf" points="320.5,-493.5 320.5,-550.5 365.5,-550.5 365.5,-493.5 320.5,-493.5"/>
<text text-anchor="middle" x="343" y="-538.5" font-family="Helvetica,sans-Serif" font-size="10.00">double</text>
<polyline fill="none" stroke="#bfbfbf" points="320.5,-531.5 365.5,-531.5 "/>
<text text-anchor="middle" x="343" y="-519.5" font-family="Helvetica,sans-Serif" font-size="10.00"> </text>
<polyline fill="none" stroke="#bfbfbf" points="320.5,-512.5 365.5,-512.5 "/>
<text text-anchor="middle" x="343" y="-500.5" font-family="Helvetica,sans-Serif" font-size="10.00"> </text>
</g>
<!-- Node7&#45;&gt;Node5 -->
<g id="edge6" class="edge"><title>Node7&#45;&gt;Node5</title>
<path fill="none" stroke="#404040" d="M349.574,-493.404C356.643,-464.757 368.678,-418.795 382,-380 382.811,-377.638 383.681,-375.222 384.587,-372.796"/>
<polygon fill="none" stroke="#404040" points="384.625,-372.698 383.084,-365.654 388.994,-361.522 390.535,-368.566 384.625,-372.698"/>
<text text-anchor="middle" x="389.5" y="-383.5" font-family="Helvetica,sans-Serif" font-size="10.00"> +d</text>
</g>
<!-- Node8&#45;&gt;Node5 -->
<g id="edge7" class="edge"><title>Node8&#45;&gt;Node5</title>
<path fill="none" stroke="#404040" d="M243.091,-418.826C245.986,-415.753 248.957,-412.799 252,-410 276.624,-387.353 309.261,-369.698 337.712,-357.128"/>
<polygon fill="none" stroke="#404040" points="337.759,-357.108 341.703,-351.072 348.793,-352.391 344.848,-358.428 337.759,-357.108"/>
<text text-anchor="middle" x="300.5" y="-383.5" font-family="Helvetica,sans-Serif" font-size="10.00"> +s</text>
</g>
<!-- Node9 -->
<g id="node9" class="node"><title>Node9</title>
<polygon fill="white" stroke="#bfbfbf" points="162.5,-692.5 162.5,-749.5 197.5,-749.5 197.5,-692.5 162.5,-692.5"/>
<text text-anchor="middle" x="180" y="-737.5" font-family="Helvetica,sans-Serif" font-size="10.00">char</text>
<polyline fill="none" stroke="#bfbfbf" points="162.5,-730.5 197.5,-730.5 "/>
<text text-anchor="middle" x="180" y="-718.5" font-family="Helvetica,sans-Serif" font-size="10.00"> </text>
<polyline fill="none" stroke="#bfbfbf" points="162.5,-711.5 197.5,-711.5 "/>
<text text-anchor="middle" x="180" y="-699.5" font-family="Helvetica,sans-Serif" font-size="10.00"> </text>
</g>
<!-- Node9&#45;&gt;Node8 -->
<g id="edge8" class="edge"><title>Node9&#45;&gt;Node8</title>
<path fill="none" stroke="#404040" d="M180,-692.193C180,-679.266 180,-662.907 180,-645.482"/>
<polygon fill="none" stroke="#404040" points="180,-645.277 176,-639.277 180,-633.277 184,-639.277 180,-645.277"/>
<text text-anchor="middle" x="234" y="-666" font-family="Helvetica,sans-Serif" font-size="10.00"> +LLVM_CLASS_NAME</text>
<text text-anchor="middle" x="234" y="-655" font-family="Helvetica,sans-Serif" font-size="10.00">+ptr</text>
</g>
<!-- Node10 -->
<g id="node10" class="node"><title>Node10</title>
<polygon fill="white" stroke="#bfbfbf" points="383.5,-493.5 383.5,-550.5 418.5,-550.5 418.5,-493.5 383.5,-493.5"/>
<text text-anchor="middle" x="401" y="-538.5" font-family="Helvetica,sans-Serif" font-size="10.00">float</text>
<polyline fill="none" stroke="#bfbfbf" points="383.5,-531.5 418.5,-531.5 "/>
<text text-anchor="middle" x="401" y="-519.5" font-family="Helvetica,sans-Serif" font-size="10.00"> </text>
<polyline fill="none" stroke="#bfbfbf" points="383.5,-512.5 418.5,-512.5 "/>
<text text-anchor="middle" x="401" y="-500.5" font-family="Helvetica,sans-Serif" font-size="10.00"> </text>
</g>
<!-- Node10&#45;&gt;Node5 -->
<g id="edge10" class="edge"><title>Node10&#45;&gt;Node5</title>
<path fill="none" stroke="#404040" d="M401,-493.408C401,-461.919 401,-410.139 401,-374.174"/>
<polygon fill="none" stroke="#404040" points="401,-373.706 397,-367.706 401,-361.706 405,-367.706 401,-373.706"/>
<text text-anchor="middle" x="407.5" y="-383.5" font-family="Helvetica,sans-Serif" font-size="10.00"> +f</text>
</g>
<!-- Node11 -->
<g id="node11" class="node"><title>Node11</title>
<polygon fill="white" stroke="#bfbfbf" points="437,-493.5 437,-550.5 483,-550.5 483,-493.5 437,-493.5"/>
<text text-anchor="middle" x="460" y="-538.5" font-family="Helvetica,sans-Serif" font-size="10.00">int64_t</text>
<polyline fill="none" stroke="#bfbfbf" points="437,-531.5 483,-531.5 "/>
<text text-anchor="middle" x="460" y="-519.5" font-family="Helvetica,sans-Serif" font-size="10.00"> </text>
<polyline fill="none" stroke="#bfbfbf" points="437,-512.5 483,-512.5 "/>
<text text-anchor="middle" x="460" y="-500.5" font-family="Helvetica,sans-Serif" font-size="10.00"> </text>
</g>
<!-- Node11&#45;&gt;Node5 -->
<g id="edge11" class="edge"><title>Node11&#45;&gt;Node5</title>
<path fill="none" stroke="#404040" d="M452.329,-493.272C444.292,-464.714 431.042,-419 418,-380 417.251,-377.759 416.464,-375.464 415.657,-373.152"/>
<polygon fill="none" stroke="#404040" points="415.577,-372.928 409.788,-368.629 411.53,-361.631 417.319,-365.931 415.577,-372.928"/>
<text text-anchor="middle" x="437.5" y="-383.5" font-family="Helvetica,sans-Serif" font-size="10.00"> +int64</text>
</g>
<!-- Node12 -->
<g id="node12" class="node"><title>Node12</title>
<polygon fill="white" stroke="#bfbfbf" points="501,-493.5 501,-550.5 547,-550.5 547,-493.5 501,-493.5"/>
<text text-anchor="middle" x="524" y="-538.5" font-family="Helvetica,sans-Serif" font-size="10.00">int32_t</text>
<polyline fill="none" stroke="#bfbfbf" points="501,-531.5 547,-531.5 "/>
<text text-anchor="middle" x="524" y="-519.5" font-family="Helvetica,sans-Serif" font-size="10.00"> </text>
<polyline fill="none" stroke="#bfbfbf" points="501,-512.5 547,-512.5 "/>
<text text-anchor="middle" x="524" y="-500.5" font-family="Helvetica,sans-Serif" font-size="10.00"> </text>
</g>
<!-- Node12&#45;&gt;Node5 -->
<g id="edge12" class="edge"><title>Node12&#45;&gt;Node5</title>
<path fill="none" stroke="#404040" d="M520.532,-493.154C516.569,-469.514 508.379,-435.473 492,-410 482.141,-394.667 468.212,-380.847 454.21,-369.328"/>
<polygon fill="none" stroke="#404040" points="453.985,-369.151 446.796,-368.585 444.554,-361.731 451.742,-362.297 453.985,-369.151"/>
<text text-anchor="middle" x="492.5" y="-383.5" font-family="Helvetica,sans-Serif" font-size="10.00"> +int32</text>
</g>
<!-- Node13 -->
<g id="node13" class="node"><title>Node13</title>
<polygon fill="white" stroke="#bfbfbf" points="565.5,-493 565.5,-551 594.5,-551 594.5,-493 565.5,-493"/>
<polyline fill="none" stroke="#bfbfbf" points="565.5,-531 594.5,-531 "/>
<text text-anchor="middle" x="580" y="-519" font-family="Helvetica,sans-Serif" font-size="10.00"> </text>
<polyline fill="none" stroke="#bfbfbf" points="565.5,-512 594.5,-512 "/>
<text text-anchor="middle" x="580" y="-500" font-family="Helvetica,sans-Serif" font-size="10.00"> </text>
</g>
<!-- Node13&#45;&gt;Node5 -->
<g id="edge13" class="edge"><title>Node13&#45;&gt;Node5</title>
<path fill="none" stroke="#404040" d="M579.592,-492.761C577.991,-468.876 572.629,-434.694 556,-410 531.794,-374.054 509.147,-378.703 464.596,-362.691"/>
<polygon fill="none" stroke="#404040" points="464.316,-362.583 457.28,-364.162 453.116,-358.274 460.152,-356.695 464.316,-362.583"/>
<text text-anchor="middle" x="553.5" y="-383.5" font-family="Helvetica,sans-Serif" font-size="10.00"> +@9</text>
</g>
<!-- Node14 -->
<g id="node14" class="node"><title>Node14</title>
<g id="a_node14"><a xlink:href="classbool.html" target="_top" xlink:title="{bool\n||}">
<polygon fill="white" stroke="black" points="612.5,-493.5 612.5,-550.5 647.5,-550.5 647.5,-493.5 612.5,-493.5"/>
<text text-anchor="middle" x="630" y="-538.5" font-family="Helvetica,sans-Serif" font-size="10.00">bool</text>
<polyline fill="none" stroke="black" points="612.5,-531.5 647.5,-531.5 "/>
<text text-anchor="middle" x="630" y="-519.5" font-family="Helvetica,sans-Serif" font-size="10.00"> </text>
<polyline fill="none" stroke="black" points="612.5,-512.5 647.5,-512.5 "/>
<text text-anchor="middle" x="630" y="-500.5" font-family="Helvetica,sans-Serif" font-size="10.00"> </text>
</a>
</g>
</g>
<!-- Node14&#45;&gt;Node5 -->
<g id="edge14" class="edge"><title>Node14&#45;&gt;Node5</title>
<path fill="none" stroke="#404040" d="M627.816,-493.294C624.935,-469.742 618.289,-435.751 603,-410 592.881,-392.956 587.835,-388.648 570,-380 529.464,-360.345 511.291,-373.89 464.943,-362.333"/>
<polygon fill="none" stroke="#404040" points="464.779,-362.287 457.92,-364.514 453.226,-359.04 460.085,-356.813 464.779,-362.287"/>
<text text-anchor="middle" x="597.5" y="-383.5" font-family="Helvetica,sans-Serif" font-size="10.00"> +b</text>
</g>
<!-- Node15 -->
<g id="node15" class="node"><title>Node15</title>
<polygon fill="white" stroke="#bfbfbf" points="666,-493.5 666,-550.5 712,-550.5 712,-493.5 666,-493.5"/>
<text text-anchor="middle" x="689" y="-538.5" font-family="Helvetica,sans-Serif" font-size="10.00">int16_t</text>
<polyline fill="none" stroke="#bfbfbf" points="666,-531.5 712,-531.5 "/>
<text text-anchor="middle" x="689" y="-519.5" font-family="Helvetica,sans-Serif" font-size="10.00"> </text>
<polyline fill="none" stroke="#bfbfbf" points="666,-512.5 712,-512.5 "/>
<text text-anchor="middle" x="689" y="-500.5" font-family="Helvetica,sans-Serif" font-size="10.00"> </text>
</g>
<!-- Node15&#45;&gt;Node5 -->
<g id="edge15" class="edge"><title>Node15&#45;&gt;Node5</title>
<path fill="none" stroke="#404040" d="M686.263,-493.483C682.685,-469.415 674.513,-434.565 656,-410 604.786,-342.045 552.082,-382.461 464.854,-362.218"/>
<polygon fill="none" stroke="#404040" points="464.797,-362.204 457.986,-364.57 453.181,-359.192 459.993,-356.826 464.797,-362.204"/>
<text text-anchor="middle" x="652.5" y="-383.5" font-family="Helvetica,sans-Serif" font-size="10.00"> +int16</text>
</g>
</g>
</svg>
