<?xml version="1.0" encoding="UTF-8" standalone="no"?>
<!DOCTYPE svg PUBLIC "-//W3C//DTD SVG 1.1//EN"
 "http://www.w3.org/Graphics/SVG/1.1/DTD/svg11.dtd">
<!-- Generated by graphviz version 2.36.0 (20140111.2315)
 -->
<!-- Title: com.cloudera.impala.analysis.ColumnDef Pages: 1 -->
<svg width="767pt" height="1582pt"
 viewBox="0.00 0.00 767.00 1582.00" xmlns="http://www.w3.org/2000/svg" xmlns:xlink="http://www.w3.org/1999/xlink">
<g id="graph0" class="graph" transform="scale(1 1) rotate(0) translate(4 1578)">
<title>com.cloudera.impala.analysis.ColumnDef</title>
<polygon fill="white" stroke="none" points="-4,4 -4,-1578 763,-1578 763,4 -4,4"/>
<!-- Node1 -->
<g id="node1" class="node"><title>Node1</title>
<polygon fill="#bfbfbf" stroke="black" points="127.5,-1 127.5,-157 276.5,-157 276.5,-1 127.5,-1"/>
<text text-anchor="start" x="135.5" y="-145" font-family="Helvetica,sans-Serif" font-size="10.00">com.cloudera.impala.analysis.</text>
<text text-anchor="middle" x="202" y="-134" font-family="Helvetica,sans-Serif" font-size="10.00">ColumnDef</text>
<polyline fill="none" stroke="black" points="127.5,-127 276.5,-127 "/>
<text text-anchor="middle" x="202" y="-115" font-family="Helvetica,sans-Serif" font-size="10.00"> </text>
<polyline fill="none" stroke="black" points="127.5,-108 276.5,-108 "/>
<text text-anchor="start" x="135.5" y="-96" font-family="Helvetica,sans-Serif" font-size="10.00">+ ColumnDef()</text>
<text text-anchor="start" x="135.5" y="-85" font-family="Helvetica,sans-Serif" font-size="10.00">+ setType()</text>
<text text-anchor="start" x="135.5" y="-74" font-family="Helvetica,sans-Serif" font-size="10.00">+ getType()</text>
<text text-anchor="start" x="135.5" y="-63" font-family="Helvetica,sans-Serif" font-size="10.00">+ getTypeDef()</text>
<text text-anchor="start" x="135.5" y="-52" font-family="Helvetica,sans-Serif" font-size="10.00">+ getColName()</text>
<text text-anchor="start" x="135.5" y="-41" font-family="Helvetica,sans-Serif" font-size="10.00">+ getComment()</text>
<text text-anchor="start" x="135.5" y="-30" font-family="Helvetica,sans-Serif" font-size="10.00">+ analyze()</text>
<text text-anchor="start" x="135.5" y="-19" font-family="Helvetica,sans-Serif" font-size="10.00">+ toString()</text>
<text text-anchor="start" x="135.5" y="-8" font-family="Helvetica,sans-Serif" font-size="10.00">+ toThrift()</text>
</g>
<!-- Node2 -->
<g id="node2" class="node"><title>Node2</title>
<polygon fill="white" stroke="#bfbfbf" points="170,-1516.5 170,-1573.5 212,-1573.5 212,-1516.5 170,-1516.5"/>
<text text-anchor="middle" x="191" y="-1561.5" font-family="Helvetica,sans-Serif" font-size="10.00">String</text>
<polyline fill="none" stroke="#bfbfbf" points="170,-1554.5 212,-1554.5 "/>
<text text-anchor="middle" x="191" y="-1542.5" font-family="Helvetica,sans-Serif" font-size="10.00"> </text>
<polyline fill="none" stroke="#bfbfbf" points="170,-1535.5 212,-1535.5 "/>
<text text-anchor="middle" x="191" y="-1523.5" font-family="Helvetica,sans-Serif" font-size="10.00"> </text>
</g>
<!-- Node2&#45;&gt;Node1 -->
<g id="edge1" class="edge"><title>Node2&#45;&gt;Node1</title>
<path fill="none" stroke="#404040" d="M169.83,-1534.52C120.101,-1510.65 0,-1442.96 0,-1346 0,-1346 0,-1346 0,-361 0,-275.345 62.6452,-197.946 118.163,-146.171"/>
<polygon fill="none" stroke="#404040" points="118.5,-145.862 120.229,-138.861 127.357,-137.765 125.628,-144.766 118.5,-145.862"/>
<text text-anchor="middle" x="25.5" y="-873" font-family="Helvetica,sans-Serif" font-size="10.00"> &#45;colName_</text>
<text text-anchor="middle" x="25.5" y="-862" font-family="Helvetica,sans-Serif" font-size="10.00">&#45;comment_</text>
</g>
<!-- Node4 -->
<g id="node4" class="node"><title>Node4</title>
<g id="a_node4"><a xlink:href="enumcom_1_1cloudera_1_1impala_1_1catalog_1_1PrimitiveType.html" target="_top" xlink:title="{com.cloudera.impala.catalog.\lPrimitiveType\n|+ INVALID_TYPE\l+ NULL_TYPE\l+ BOOLEAN\l+ TINYINT\l+ SMALLINT\l+ INT\l+ BIGINT\l+ FLOAT\l+ DOUBLE\l+ DATE\land 7 more...\l|+ toString()\l+ toThrift()\l+ getSlotSize()\l+ fromThrift()\l+ toThrift()\l+ getMaxSlotSize()\l&#45; PrimitiveType()\l}">
<polygon fill="white" stroke="black" points="405,-1223 405,-1467 549,-1467 549,-1223 405,-1223"/>
<text text-anchor="start" x="413" y="-1455" font-family="Helvetica,sans-Serif" font-size="10.00">com.cloudera.impala.catalog.</text>
<text text-anchor="middle" x="477" y="-1444" font-family="Helvetica,sans-Serif" font-size="10.00">PrimitiveType</text>
<polyline fill="none" stroke="black" points="405,-1437 549,-1437 "/>
<text text-anchor="start" x="413" y="-1425" font-family="Helvetica,sans-Serif" font-size="10.00">+ INVALID_TYPE</text>
<text text-anchor="start" x="413" y="-1414" font-family="Helvetica,sans-Serif" font-size="10.00">+ NULL_TYPE</text>
<text text-anchor="start" x="413" y="-1403" font-family="Helvetica,sans-Serif" font-size="10.00">+ BOOLEAN</text>
<text text-anchor="start" x="413" y="-1392" font-family="Helvetica,sans-Serif" font-size="10.00">+ TINYINT</text>
<text text-anchor="start" x="413" y="-1381" font-family="Helvetica,sans-Serif" font-size="10.00">+ SMALLINT</text>
<text text-anchor="start" x="413" y="-1370" font-family="Helvetica,sans-Serif" font-size="10.00">+ INT</text>
<text text-anchor="start" x="413" y="-1359" font-family="Helvetica,sans-Serif" font-size="10.00">+ BIGINT</text>
<text text-anchor="start" x="413" y="-1348" font-family="Helvetica,sans-Serif" font-size="10.00">+ FLOAT</text>
<text text-anchor="start" x="413" y="-1337" font-family="Helvetica,sans-Serif" font-size="10.00">+ DOUBLE</text>
<text text-anchor="start" x="413" y="-1326" font-family="Helvetica,sans-Serif" font-size="10.00">+ DATE</text>
<text text-anchor="start" x="413" y="-1315" font-family="Helvetica,sans-Serif" font-size="10.00">and 7 more...</text>
<polyline fill="none" stroke="black" points="405,-1308 549,-1308 "/>
<text text-anchor="start" x="413" y="-1296" font-family="Helvetica,sans-Serif" font-size="10.00">+ toString()</text>
<text text-anchor="start" x="413" y="-1285" font-family="Helvetica,sans-Serif" font-size="10.00">+ toThrift()</text>
<text text-anchor="start" x="413" y="-1274" font-family="Helvetica,sans-Serif" font-size="10.00">+ getSlotSize()</text>
<text text-anchor="start" x="413" y="-1263" font-family="Helvetica,sans-Serif" font-size="10.00">+ fromThrift()</text>
<text text-anchor="start" x="413" y="-1252" font-family="Helvetica,sans-Serif" font-size="10.00">+ toThrift()</text>
<text text-anchor="start" x="413" y="-1241" font-family="Helvetica,sans-Serif" font-size="10.00">+ getMaxSlotSize()</text>
<text text-anchor="start" x="413" y="-1230" font-family="Helvetica,sans-Serif" font-size="10.00">&#45; PrimitiveType()</text>
</a>
</g>
</g>
<!-- Node2&#45;&gt;Node4 -->
<g id="edge4" class="edge"><title>Node2&#45;&gt;Node4</title>
<path fill="none" stroke="#404040" d="M212.009,-1540.67C249.734,-1533.83 330.333,-1515.3 394.935,-1468.01"/>
<polygon fill="none" stroke="#404040" points="395.221,-1467.79 397.554,-1460.97 404.75,-1460.5 402.417,-1467.32 395.221,-1467.79"/>
<text text-anchor="middle" x="396.5" y="-1489.5" font-family="Helvetica,sans-Serif" font-size="10.00"> &#45;description_</text>
</g>
<!-- Node3 -->
<g id="node3" class="node"><title>Node3</title>
<g id="a_node3"><a xlink:href="classcom_1_1cloudera_1_1impala_1_1catalog_1_1Type.html" target="_top" xlink:title="{com.cloudera.impala.catalog.Type\n|+ NULL\l+ FLOAT\l+ STRING\l+ BINARY\l+ TIMESTAMP\l+ DATETIME\l+ DECIMAL\l+ VARCHAR\l+ CHAR\l|+ toSql()\l+ isInvalid()\l+ isValid()\l+ isNull()\l+ isBoolean()\l+ isTimestamp()\l+ isDecimal()\l+ isDecimalOrNull()\l+ isFullySpecifiedDecimal()\l+ isWildcardDecimal()\land 29 more...\l+ getIntegerTypes()\l+ getNumericTypes()\l+ getSupportedTypes()\l+ parseColumnType()\l+ isImplicitlyCastable()\l+ getAssignmentCompatibleType()\l+ toThrift()\l+ toThrift()\l+ fromThrift()\l~ [static initializer]()\l~ [static initializer]()\l# fromThrift()\l}">
<polygon fill="white" stroke="black" points="304,-676.5 304,-1063.5 472,-1063.5 472,-676.5 304,-676.5"/>
<text text-anchor="middle" x="388" y="-1051.5" font-family="Helvetica,sans-Serif" font-size="10.00">com.cloudera.impala.catalog.Type</text>
<polyline fill="none" stroke="black" points="304,-1044.5 472,-1044.5 "/>
<text text-anchor="start" x="312" y="-1032.5" font-family="Helvetica,sans-Serif" font-size="10.00">+ NULL</text>
<text text-anchor="start" x="312" y="-1021.5" font-family="Helvetica,sans-Serif" font-size="10.00">+ FLOAT</text>
<text text-anchor="start" x="312" y="-1010.5" font-family="Helvetica,sans-Serif" font-size="10.00">+ STRING</text>
<text text-anchor="start" x="312" y="-999.5" font-family="Helvetica,sans-Serif" font-size="10.00">+ BINARY</text>
<text text-anchor="start" x="312" y="-988.5" font-family="Helvetica,sans-Serif" font-size="10.00">+ TIMESTAMP</text>
<text text-anchor="start" x="312" y="-977.5" font-family="Helvetica,sans-Serif" font-size="10.00">+ DATETIME</text>
<text text-anchor="start" x="312" y="-966.5" font-family="Helvetica,sans-Serif" font-size="10.00">+ DECIMAL</text>
<text text-anchor="start" x="312" y="-955.5" font-family="Helvetica,sans-Serif" font-size="10.00">+ VARCHAR</text>
<text text-anchor="start" x="312" y="-944.5" font-family="Helvetica,sans-Serif" font-size="10.00">+ CHAR</text>
<polyline fill="none" stroke="black" points="304,-937.5 472,-937.5 "/>
<text text-anchor="start" x="312" y="-925.5" font-family="Helvetica,sans-Serif" font-size="10.00">+ toSql()</text>
<text text-anchor="start" x="312" y="-914.5" font-family="Helvetica,sans-Serif" font-size="10.00">+ isInvalid()</text>
<text text-anchor="start" x="312" y="-903.5" font-family="Helvetica,sans-Serif" font-size="10.00">+ isValid()</text>
<text text-anchor="start" x="312" y="-892.5" font-family="Helvetica,sans-Serif" font-size="10.00">+ isNull()</text>
<text text-anchor="start" x="312" y="-881.5" font-family="Helvetica,sans-Serif" font-size="10.00">+ isBoolean()</text>
<text text-anchor="start" x="312" y="-870.5" font-family="Helvetica,sans-Serif" font-size="10.00">+ isTimestamp()</text>
<text text-anchor="start" x="312" y="-859.5" font-family="Helvetica,sans-Serif" font-size="10.00">+ isDecimal()</text>
<text text-anchor="start" x="312" y="-848.5" font-family="Helvetica,sans-Serif" font-size="10.00">+ isDecimalOrNull()</text>
<text text-anchor="start" x="312" y="-837.5" font-family="Helvetica,sans-Serif" font-size="10.00">+ isFullySpecifiedDecimal()</text>
<text text-anchor="start" x="312" y="-826.5" font-family="Helvetica,sans-Serif" font-size="10.00">+ isWildcardDecimal()</text>
<text text-anchor="start" x="312" y="-815.5" font-family="Helvetica,sans-Serif" font-size="10.00">and 29 more...</text>
<text text-anchor="start" x="312" y="-804.5" font-family="Helvetica,sans-Serif" font-size="10.00">+ getIntegerTypes()</text>
<text text-anchor="start" x="312" y="-793.5" font-family="Helvetica,sans-Serif" font-size="10.00">+ getNumericTypes()</text>
<text text-anchor="start" x="312" y="-782.5" font-family="Helvetica,sans-Serif" font-size="10.00">+ getSupportedTypes()</text>
<text text-anchor="start" x="312" y="-771.5" font-family="Helvetica,sans-Serif" font-size="10.00">+ parseColumnType()</text>
<text text-anchor="start" x="312" y="-760.5" font-family="Helvetica,sans-Serif" font-size="10.00">+ isImplicitlyCastable()</text>
<text text-anchor="start" x="312" y="-749.5" font-family="Helvetica,sans-Serif" font-size="10.00">+ getAssignmentCompatibleType()</text>
<text text-anchor="start" x="312" y="-738.5" font-family="Helvetica,sans-Serif" font-size="10.00">+ toThrift()</text>
<text text-anchor="start" x="312" y="-727.5" font-family="Helvetica,sans-Serif" font-size="10.00">+ toThrift()</text>
<text text-anchor="start" x="312" y="-716.5" font-family="Helvetica,sans-Serif" font-size="10.00">+ fromThrift()</text>
<text text-anchor="start" x="312" y="-705.5" font-family="Helvetica,sans-Serif" font-size="10.00">~ [static initializer]()</text>
<text text-anchor="start" x="312" y="-694.5" font-family="Helvetica,sans-Serif" font-size="10.00">~ [static initializer]()</text>
<text text-anchor="start" x="312" y="-683.5" font-family="Helvetica,sans-Serif" font-size="10.00"># fromThrift()</text>
</a>
</g>
</g>
<!-- Node3&#45;&gt;Node1 -->
<g id="edge2" class="edge"><title>Node3&#45;&gt;Node1</title>
<path fill="none" stroke="#404040" d="M368.053,-676.272C349.201,-511.751 318.826,-288.992 285,-206 279.709,-193.019 273.003,-179.958 265.705,-167.42"/>
<polygon fill="none" stroke="#404040" points="265.637,-167.307 259.117,-164.226 259.453,-157.023 265.973,-160.104 265.637,-167.307"/>
<text text-anchor="middle" x="362.5" y="-359.5" font-family="Helvetica,sans-Serif" font-size="10.00"> &#45;type_</text>
</g>
<!-- Node8 -->
<g id="node8" class="node"><title>Node8</title>
<g id="a_node8"><a xlink:href="classcom_1_1cloudera_1_1impala_1_1catalog_1_1ScalarType.html" target="_top" xlink:title="{com.cloudera.impala.catalog.\lScalarType\n||+ toString()\l+ toSql()\l+ toThrift()\l+ decimalPrecision()\l+ decimalScale()\l+ getPrimitiveType()\l+ ordinal()\l+ getLength()\l+ isWildcardDecimal()\l+ isWildcardVarchar()\land 12 more...\l+ createType()\l+ createCharType()\l+ createDecimalType()\l+ createDecimalType()\l+ createDecimalType()\l+ createDecimalTypeInternal()\l+ createVarcharType()\l+ createVarcharType()\l+ toColumnType()\l+ getAssignmentCompatibleType()\l+ isImplicitlyCastable()\l# ScalarType()\l}">
<polygon fill="white" stroke="black" points="436,-207 436,-517 604,-517 604,-207 436,-207"/>
<text text-anchor="start" x="444" y="-505" font-family="Helvetica,sans-Serif" font-size="10.00">com.cloudera.impala.catalog.</text>
<text text-anchor="middle" x="520" y="-494" font-family="Helvetica,sans-Serif" font-size="10.00">ScalarType</text>
<polyline fill="none" stroke="black" points="436,-487 604,-487 "/>
<text text-anchor="middle" x="520" y="-475" font-family="Helvetica,sans-Serif" font-size="10.00"> </text>
<polyline fill="none" stroke="black" points="436,-468 604,-468 "/>
<text text-anchor="start" x="444" y="-456" font-family="Helvetica,sans-Serif" font-size="10.00">+ toString()</text>
<text text-anchor="start" x="444" y="-445" font-family="Helvetica,sans-Serif" font-size="10.00">+ toSql()</text>
<text text-anchor="start" x="444" y="-434" font-family="Helvetica,sans-Serif" font-size="10.00">+ toThrift()</text>
<text text-anchor="start" x="444" y="-423" font-family="Helvetica,sans-Serif" font-size="10.00">+ decimalPrecision()</text>
<text text-anchor="start" x="444" y="-412" font-family="Helvetica,sans-Serif" font-size="10.00">+ decimalScale()</text>
<text text-anchor="start" x="444" y="-401" font-family="Helvetica,sans-Serif" font-size="10.00">+ getPrimitiveType()</text>
<text text-anchor="start" x="444" y="-390" font-family="Helvetica,sans-Serif" font-size="10.00">+ ordinal()</text>
<text text-anchor="start" x="444" y="-379" font-family="Helvetica,sans-Serif" font-size="10.00">+ getLength()</text>
<text text-anchor="start" x="444" y="-368" font-family="Helvetica,sans-Serif" font-size="10.00">+ isWildcardDecimal()</text>
<text text-anchor="start" x="444" y="-357" font-family="Helvetica,sans-Serif" font-size="10.00">+ isWildcardVarchar()</text>
<text text-anchor="start" x="444" y="-346" font-family="Helvetica,sans-Serif" font-size="10.00">and 12 more...</text>
<text text-anchor="start" x="444" y="-335" font-family="Helvetica,sans-Serif" font-size="10.00">+ createType()</text>
<text text-anchor="start" x="444" y="-324" font-family="Helvetica,sans-Serif" font-size="10.00">+ createCharType()</text>
<text text-anchor="start" x="444" y="-313" font-family="Helvetica,sans-Serif" font-size="10.00">+ createDecimalType()</text>
<text text-anchor="start" x="444" y="-302" font-family="Helvetica,sans-Serif" font-size="10.00">+ createDecimalType()</text>
<text text-anchor="start" x="444" y="-291" font-family="Helvetica,sans-Serif" font-size="10.00">+ createDecimalType()</text>
<text text-anchor="start" x="444" y="-280" font-family="Helvetica,sans-Serif" font-size="10.00">+ createDecimalTypeInternal()</text>
<text text-anchor="start" x="444" y="-269" font-family="Helvetica,sans-Serif" font-size="10.00">+ createVarcharType()</text>
<text text-anchor="start" x="444" y="-258" font-family="Helvetica,sans-Serif" font-size="10.00">+ createVarcharType()</text>
<text text-anchor="start" x="444" y="-247" font-family="Helvetica,sans-Serif" font-size="10.00">+ toColumnType()</text>
<text text-anchor="start" x="444" y="-236" font-family="Helvetica,sans-Serif" font-size="10.00">+ getAssignmentCompatibleType()</text>
<text text-anchor="start" x="444" y="-225" font-family="Helvetica,sans-Serif" font-size="10.00">+ isImplicitlyCastable()</text>
<text text-anchor="start" x="444" y="-214" font-family="Helvetica,sans-Serif" font-size="10.00"># ScalarType()</text>
</a>
</g>
</g>
<!-- Node3&#45;&gt;Node8 -->
<g id="edge9" class="edge"><title>Node3&#45;&gt;Node8</title>
<path fill="none" stroke="midnightblue" d="M378.644,-666.212C381.535,-622.441 388.394,-577.016 402,-536 409.898,-512.19 422.112,-488.647 435.74,-466.957"/>
<polygon fill="none" stroke="midnightblue" points="375.138,-666.218 378.039,-676.408 382.125,-666.633 375.138,-666.218"/>
</g>
<!-- Node9 -->
<g id="node9" class="node"><title>Node9</title>
<g id="a_node9"><a xlink:href="classcom_1_1cloudera_1_1impala_1_1analysis_1_1TypeDef.html" target="_top" xlink:title="{com.cloudera.impala.analysis.\lTypeDef\n||+ TypeDef()\l+ analyze()\l+ getType()\l+ toString()\l+ toSql()\l&#45; analyze()\l&#45; analyzeScalarType()\l&#45; analyzeStructType()\l&#45; analyzeMapType()\l}">
<polygon fill="white" stroke="black" points="127.5,-284 127.5,-440 276.5,-440 276.5,-284 127.5,-284"/>
<text text-anchor="start" x="135.5" y="-428" font-family="Helvetica,sans-Serif" font-size="10.00">com.cloudera.impala.analysis.</text>
<text text-anchor="middle" x="202" y="-417" font-family="Helvetica,sans-Serif" font-size="10.00">TypeDef</text>
<polyline fill="none" stroke="black" points="127.5,-410 276.5,-410 "/>
<text text-anchor="middle" x="202" y="-398" font-family="Helvetica,sans-Serif" font-size="10.00"> </text>
<polyline fill="none" stroke="black" points="127.5,-391 276.5,-391 "/>
<text text-anchor="start" x="135.5" y="-379" font-family="Helvetica,sans-Serif" font-size="10.00">+ TypeDef()</text>
<text text-anchor="start" x="135.5" y="-368" font-family="Helvetica,sans-Serif" font-size="10.00">+ analyze()</text>
<text text-anchor="start" x="135.5" y="-357" font-family="Helvetica,sans-Serif" font-size="10.00">+ getType()</text>
<text text-anchor="start" x="135.5" y="-346" font-family="Helvetica,sans-Serif" font-size="10.00">+ toString()</text>
<text text-anchor="start" x="135.5" y="-335" font-family="Helvetica,sans-Serif" font-size="10.00">+ toSql()</text>
<text text-anchor="start" x="135.5" y="-324" font-family="Helvetica,sans-Serif" font-size="10.00">&#45; analyze()</text>
<text text-anchor="start" x="135.5" y="-313" font-family="Helvetica,sans-Serif" font-size="10.00">&#45; analyzeScalarType()</text>
<text text-anchor="start" x="135.5" y="-302" font-family="Helvetica,sans-Serif" font-size="10.00">&#45; analyzeStructType()</text>
<text text-anchor="start" x="135.5" y="-291" font-family="Helvetica,sans-Serif" font-size="10.00">&#45; analyzeMapType()</text>
</a>
</g>
</g>
<!-- Node3&#45;&gt;Node9 -->
<g id="edge14" class="edge"><title>Node3&#45;&gt;Node9</title>
<path fill="none" stroke="#404040" d="M303.965,-694.312C300.945,-688.129 297.95,-682.01 295,-676 291.059,-667.971 288.856,-666.476 286,-658 268.382,-605.711 277.327,-589.285 263,-536 255.511,-508.148 245.687,-478.351 236.117,-451.472"/>
<polygon fill="none" stroke="#404040" points="236.104,-451.435 230.308,-447.145 232.038,-440.145 237.835,-444.435 236.104,-451.435"/>
<text text-anchor="middle" x="317.5" y="-594.5" font-family="Helvetica,sans-Serif" font-size="10.00"> &#45;parsedType_</text>
</g>
<!-- Node4&#45;&gt;Node3 -->
<g id="edge3" class="edge"><title>Node4&#45;&gt;Node3</title>
<path fill="none" stroke="#404040" d="M443.2,-1222.79C441.714,-1216.45 440.303,-1210.16 439,-1204 430.258,-1162.68 422.389,-1118.18 415.598,-1075.57"/>
<polygon fill="none" stroke="#404040" points="415.581,-1075.46 410.695,-1070.16 413.711,-1063.61 418.597,-1068.91 415.581,-1075.46"/>
<text text-anchor="middle" x="484.5" y="-1140.5" font-family="Helvetica,sans-Serif" font-size="10.00"> #compatibilityMatrix</text>
</g>
<!-- Node4&#45;&gt;Node8 -->
<g id="edge10" class="edge"><title>Node4&#45;&gt;Node8</title>
<path fill="none" stroke="#404040" d="M525.825,-1222.97C527.442,-1216.61 528.854,-1210.26 530,-1204 583.429,-911.958 538.57,-832.765 530,-536 529.936,-533.785 529.867,-531.553 529.795,-529.309"/>
<polygon fill="none" stroke="#404040" points="529.791,-529.191 525.581,-523.336 529.366,-517.199 533.576,-523.053 529.791,-529.191"/>
<text text-anchor="middle" x="571.5" y="-867.5" font-family="Helvetica,sans-Serif" font-size="10.00"> &#45;type_</text>
</g>
<!-- Node5 -->
<g id="node5" class="node"><title>Node5</title>
<polygon fill="white" stroke="#bfbfbf" points="423.5,-1516.5 423.5,-1573.5 506.5,-1573.5 506.5,-1516.5 423.5,-1516.5"/>
<text text-anchor="middle" x="465" y="-1561.5" font-family="Helvetica,sans-Serif" font-size="10.00">TPrimitiveType</text>
<polyline fill="none" stroke="#bfbfbf" points="423.5,-1554.5 506.5,-1554.5 "/>
<text text-anchor="middle" x="465" y="-1542.5" font-family="Helvetica,sans-Serif" font-size="10.00"> </text>
<polyline fill="none" stroke="#bfbfbf" points="423.5,-1535.5 506.5,-1535.5 "/>
<text text-anchor="middle" x="465" y="-1523.5" font-family="Helvetica,sans-Serif" font-size="10.00"> </text>
</g>
<!-- Node5&#45;&gt;Node4 -->
<g id="edge5" class="edge"><title>Node5&#45;&gt;Node4</title>
<path fill="none" stroke="#404040" d="M465.133,-1516.26C465.271,-1506.67 465.528,-1495.86 466,-1486 466.107,-1483.77 466.22,-1481.52 466.339,-1479.25"/>
<polygon fill="none" stroke="#404040" points="466.354,-1478.99 462.698,-1472.77 467.029,-1467.01 470.685,-1473.22 466.354,-1478.99"/>
<text text-anchor="middle" x="492.5" y="-1489.5" font-family="Helvetica,sans-Serif" font-size="10.00"> &#45;thriftType_</text>
</g>
<!-- Node6 -->
<g id="node6" class="node"><title>Node6</title>
<polygon fill="white" stroke="#bfbfbf" points="557.5,-1516.5 557.5,-1573.5 586.5,-1573.5 586.5,-1516.5 557.5,-1516.5"/>
<text text-anchor="middle" x="572" y="-1561.5" font-family="Helvetica,sans-Serif" font-size="10.00">int</text>
<polyline fill="none" stroke="#bfbfbf" points="557.5,-1554.5 586.5,-1554.5 "/>
<text text-anchor="middle" x="572" y="-1542.5" font-family="Helvetica,sans-Serif" font-size="10.00"> </text>
<polyline fill="none" stroke="#bfbfbf" points="557.5,-1535.5 586.5,-1535.5 "/>
<text text-anchor="middle" x="572" y="-1523.5" font-family="Helvetica,sans-Serif" font-size="10.00"> </text>
</g>
<!-- Node6&#45;&gt;Node4 -->
<g id="edge6" class="edge"><title>Node6&#45;&gt;Node4</title>
<path fill="none" stroke="#404040" d="M557.471,-1523.4C552.279,-1515.62 546.585,-1506.58 542,-1498 538.619,-1491.68 535.279,-1485.14 532.004,-1478.49"/>
<polygon fill="none" stroke="#404040" points="531.776,-1478.02 525.565,-1474.36 526.558,-1467.21 532.769,-1470.88 531.776,-1478.02"/>
<text text-anchor="middle" x="565.5" y="-1489.5" font-family="Helvetica,sans-Serif" font-size="10.00"> &#45;slotSize_</text>
</g>
<!-- Node6&#45;&gt;Node8 -->
<g id="edge11" class="edge"><title>Node6&#45;&gt;Node8</title>
<path fill="none" stroke="#404040" d="M584.049,-1516.22C586.104,-1510.31 587.921,-1504.03 589,-1498 653.326,-1138.37 628.557,-1039.19 589,-676 583.751,-627.809 574.084,-576.169 563.614,-529.01"/>
<polygon fill="none" stroke="#404040" points="563.573,-528.828 558.353,-523.854 560.937,-517.121 566.157,-522.096 563.573,-528.828"/>
<text text-anchor="middle" x="694" y="-1195.5" font-family="Helvetica,sans-Serif" font-size="10.00"> +DEFAULT_SCALE</text>
<text text-anchor="middle" x="694" y="-1184.5" font-family="Helvetica,sans-Serif" font-size="10.00">+MAX_CHAR_LENGTH</text>
<text text-anchor="middle" x="694" y="-1173.5" font-family="Helvetica,sans-Serif" font-size="10.00">&#45;scale_</text>
<text text-anchor="middle" x="694" y="-1162.5" font-family="Helvetica,sans-Serif" font-size="10.00">+MAX_VARCHAR_LENGTH</text>
<text text-anchor="middle" x="694" y="-1151.5" font-family="Helvetica,sans-Serif" font-size="10.00">&#45;len_</text>
<text text-anchor="middle" x="694" y="-1140.5" font-family="Helvetica,sans-Serif" font-size="10.00">+MAX_PRECISION</text>
<text text-anchor="middle" x="694" y="-1129.5" font-family="Helvetica,sans-Serif" font-size="10.00">+MAX_SCALE</text>
<text text-anchor="middle" x="694" y="-1118.5" font-family="Helvetica,sans-Serif" font-size="10.00">+DEFAULT_PRECISION</text>
<text text-anchor="middle" x="694" y="-1107.5" font-family="Helvetica,sans-Serif" font-size="10.00">+CHAR_INLINE_LENGTH</text>
<text text-anchor="middle" x="694" y="-1096.5" font-family="Helvetica,sans-Serif" font-size="10.00">&#45;precision_</text>
<text text-anchor="middle" x="694" y="-1085.5" font-family="Helvetica,sans-Serif" font-size="10.00">...</text>
</g>
<!-- Node7 -->
<g id="node7" class="node"><title>Node7</title>
<polygon fill="white" stroke="#bfbfbf" points="195,-1311 195,-1379 387,-1379 387,-1311 195,-1311"/>
<text text-anchor="start" x="203" y="-1367" font-family="Helvetica,sans-Serif" font-size="10.00">ArrayList&lt; com.cloudera.impala.catalog.</text>
<text text-anchor="middle" x="291" y="-1356" font-family="Helvetica,sans-Serif" font-size="10.00">ScalarType &gt;</text>
<polyline fill="none" stroke="#bfbfbf" points="195,-1349 387,-1349 "/>
<text text-anchor="middle" x="291" y="-1337" font-family="Helvetica,sans-Serif" font-size="10.00"> </text>
<polyline fill="none" stroke="#bfbfbf" points="195,-1330 387,-1330 "/>
<text text-anchor="middle" x="291" y="-1318" font-family="Helvetica,sans-Serif" font-size="10.00"> </text>
</g>
<!-- Node7&#45;&gt;Node3 -->
<g id="edge7" class="edge"><title>Node7&#45;&gt;Node3</title>
<path fill="none" stroke="#404040" d="M296.352,-1310.8C304.524,-1260.96 320.966,-1163.89 338,-1082 338.455,-1079.81 338.915,-1077.62 339.381,-1075.41"/>
<polygon fill="none" stroke="#404040" points="339.414,-1075.25 336.754,-1068.55 341.918,-1063.51 344.578,-1070.22 339.414,-1075.25"/>
<text text-anchor="middle" x="376" y="-1151.5" font-family="Helvetica,sans-Serif" font-size="10.00"> &#45;supportedTypes</text>
<text text-anchor="middle" x="376" y="-1140.5" font-family="Helvetica,sans-Serif" font-size="10.00">&#45;integerTypes</text>
<text text-anchor="middle" x="376" y="-1129.5" font-family="Helvetica,sans-Serif" font-size="10.00">&#45;numericTypes</text>
</g>
<!-- Node8&#45;&gt;Node3 -->
<g id="edge8" class="edge"><title>Node8&#45;&gt;Node3</title>
<path fill="none" stroke="#404040" d="M435.848,-499.977C430.554,-511.898 425.826,-523.996 422,-536 413.94,-561.287 407.303,-610.923 402.099,-664.313"/>
<polygon fill="none" stroke="#404040" points="402.078,-664.536 405.493,-670.887 400.943,-676.482 397.529,-670.131 402.078,-664.536"/>
<text text-anchor="middle" x="476" y="-649.5" font-family="Helvetica,sans-Serif" font-size="10.00"> +SMALLINT</text>
<text text-anchor="middle" x="476" y="-638.5" font-family="Helvetica,sans-Serif" font-size="10.00">+TINYINT</text>
<text text-anchor="middle" x="476" y="-627.5" font-family="Helvetica,sans-Serif" font-size="10.00">+INT</text>
<text text-anchor="middle" x="476" y="-616.5" font-family="Helvetica,sans-Serif" font-size="10.00">+INVALID</text>
<text text-anchor="middle" x="476" y="-605.5" font-family="Helvetica,sans-Serif" font-size="10.00">+BOOLEAN</text>
<text text-anchor="middle" x="476" y="-594.5" font-family="Helvetica,sans-Serif" font-size="10.00">+DEFAULT_VARCHAR</text>
<text text-anchor="middle" x="476" y="-583.5" font-family="Helvetica,sans-Serif" font-size="10.00">+DATE</text>
<text text-anchor="middle" x="476" y="-572.5" font-family="Helvetica,sans-Serif" font-size="10.00">+DEFAULT_DECIMAL</text>
<text text-anchor="middle" x="476" y="-561.5" font-family="Helvetica,sans-Serif" font-size="10.00">+DOUBLE</text>
<text text-anchor="middle" x="476" y="-550.5" font-family="Helvetica,sans-Serif" font-size="10.00">+BIGINT</text>
<text text-anchor="middle" x="476" y="-539.5" font-family="Helvetica,sans-Serif" font-size="10.00">...</text>
</g>
<!-- Node9&#45;&gt;Node1 -->
<g id="edge12" class="edge"><title>Node9&#45;&gt;Node1</title>
<path fill="none" stroke="#404040" d="M202,-283.844C202,-248.518 202,-206.436 202,-169.705"/>
<polygon fill="none" stroke="#404040" points="202,-169.472 198,-163.472 202,-157.472 206,-163.472 202,-169.472"/>
<text text-anchor="middle" x="225" y="-179.5" font-family="Helvetica,sans-Serif" font-size="10.00"> &#45;typeDef_</text>
</g>
<!-- Node10 -->
<g id="node10" class="node"><title>Node10</title>
<g id="a_node10"><a xlink:href="interfacecom_1_1cloudera_1_1impala_1_1analysis_1_1ParseNode.html" target="_top" xlink:title="{com.cloudera.impala.analysis.\lParseNode\n||+ analyze()\l+ toSql()\l}">
<polygon fill="white" stroke="black" points="69.5,-830.5 69.5,-909.5 218.5,-909.5 218.5,-830.5 69.5,-830.5"/>
<text text-anchor="start" x="77.5" y="-897.5" font-family="Helvetica,sans-Serif" font-size="10.00">com.cloudera.impala.analysis.</text>
<text text-anchor="middle" x="144" y="-886.5" font-family="Helvetica,sans-Serif" font-size="10.00">ParseNode</text>
<polyline fill="none" stroke="black" points="69.5,-879.5 218.5,-879.5 "/>
<text text-anchor="middle" x="144" y="-867.5" font-family="Helvetica,sans-Serif" font-size="10.00"> </text>
<polyline fill="none" stroke="black" points="69.5,-860.5 218.5,-860.5 "/>
<text text-anchor="start" x="77.5" y="-848.5" font-family="Helvetica,sans-Serif" font-size="10.00">+ analyze()</text>
<text text-anchor="start" x="77.5" y="-837.5" font-family="Helvetica,sans-Serif" font-size="10.00">+ toSql()</text>
</a>
</g>
</g>
<!-- Node10&#45;&gt;Node9 -->
<g id="edge13" class="edge"><title>Node10&#45;&gt;Node9</title>
<path fill="none" stroke="midnightblue" d="M149.015,-819.918C155.721,-754.935 168.144,-636.795 180,-536 183.696,-504.578 188.041,-469.982 191.888,-440.039"/>
<polygon fill="none" stroke="midnightblue" points="145.492,-819.958 147.949,-830.264 152.455,-820.675 145.492,-819.958"/>
</g>
<!-- Node11 -->
<g id="node11" class="node"><title>Node11</title>
<polygon fill="white" stroke="#bfbfbf" points="236,-841.5 236,-898.5 286,-898.5 286,-841.5 236,-841.5"/>
<text text-anchor="middle" x="261" y="-886.5" font-family="Helvetica,sans-Serif" font-size="10.00">boolean</text>
<polyline fill="none" stroke="#bfbfbf" points="236,-879.5 286,-879.5 "/>
<text text-anchor="middle" x="261" y="-867.5" font-family="Helvetica,sans-Serif" font-size="10.00"> </text>
<polyline fill="none" stroke="#bfbfbf" points="236,-860.5 286,-860.5 "/>
<text text-anchor="middle" x="261" y="-848.5" font-family="Helvetica,sans-Serif" font-size="10.00"> </text>
</g>
<!-- Node11&#45;&gt;Node9 -->
<g id="edge15" class="edge"><title>Node11&#45;&gt;Node9</title>
<path fill="none" stroke="#404040" d="M262.274,-841.206C262.798,-801.576 258.876,-727.893 227,-676 220.021,-664.639 208.983,-669.916 203,-658 185.53,-623.207 188.458,-525.692 193.717,-452.227"/>
<polygon fill="none" stroke="#404040" points="193.722,-452.163 190.179,-445.882 194.614,-440.196 198.157,-446.477 193.722,-452.163"/>
<text text-anchor="middle" x="233" y="-594.5" font-family="Helvetica,sans-Serif" font-size="10.00"> &#45;isAnalyzed_</text>
</g>
</g>
</svg>
