<?xml version="1.0" encoding="UTF-8" standalone="no"?>
<!DOCTYPE svg PUBLIC "-//W3C//DTD SVG 1.1//EN"
 "http://www.w3.org/Graphics/SVG/1.1/DTD/svg11.dtd">
<!-- Generated by graphviz version 2.36.0 (20140111.2315)
 -->
<!-- Title: com.cloudera.impala.util.EventSequence Pages: 1 -->
<svg width="307pt" height="206pt"
 viewBox="0.00 0.00 307.00 206.00" xmlns="http://www.w3.org/2000/svg" xmlns:xlink="http://www.w3.org/1999/xlink">
<g id="graph0" class="graph" transform="scale(1 1) rotate(0) translate(4 202)">
<title>com.cloudera.impala.util.EventSequence</title>
<polygon fill="white" stroke="none" points="-4,4 -4,-202 303,-202 303,4 -4,4"/>
<!-- Node1 -->
<g id="node1" class="node"><title>Node1</title>
<polygon fill="#bfbfbf" stroke="black" points="73.5,-1 73.5,-91 198.5,-91 198.5,-1 73.5,-1"/>
<text text-anchor="start" x="81.5" y="-79" font-family="Helvetica,sans-Serif" font-size="10.00">com.cloudera.impala.util.</text>
<text text-anchor="middle" x="136" y="-68" font-family="Helvetica,sans-Serif" font-size="10.00">EventSequence</text>
<polyline fill="none" stroke="black" points="73.5,-61 198.5,-61 "/>
<text text-anchor="middle" x="136" y="-49" font-family="Helvetica,sans-Serif" font-size="10.00"> </text>
<polyline fill="none" stroke="black" points="73.5,-42 198.5,-42 "/>
<text text-anchor="start" x="81.5" y="-30" font-family="Helvetica,sans-Serif" font-size="10.00">+ EventSequence()</text>
<text text-anchor="start" x="81.5" y="-19" font-family="Helvetica,sans-Serif" font-size="10.00">+ markEvent()</text>
<text text-anchor="start" x="81.5" y="-8" font-family="Helvetica,sans-Serif" font-size="10.00">+ toThrift()</text>
</g>
<!-- Node2 -->
<g id="node2" class="node"><title>Node2</title>
<polygon fill="white" stroke="#bfbfbf" points="0,-140.5 0,-197.5 42,-197.5 42,-140.5 0,-140.5"/>
<text text-anchor="middle" x="21" y="-185.5" font-family="Helvetica,sans-Serif" font-size="10.00">String</text>
<polyline fill="none" stroke="#bfbfbf" points="0,-178.5 42,-178.5 "/>
<text text-anchor="middle" x="21" y="-166.5" font-family="Helvetica,sans-Serif" font-size="10.00"> </text>
<polyline fill="none" stroke="#bfbfbf" points="0,-159.5 42,-159.5 "/>
<text text-anchor="middle" x="21" y="-147.5" font-family="Helvetica,sans-Serif" font-size="10.00"> </text>
</g>
<!-- Node2&#45;&gt;Node1 -->
<g id="edge1" class="edge"><title>Node2&#45;&gt;Node1</title>
<path fill="none" stroke="#404040" d="M42.2152,-143.747C51.5314,-133.252 62.6784,-120.9 73,-110 76.199,-106.622 79.5159,-103.168 82.8789,-99.7023"/>
<polygon fill="none" stroke="#404040" points="82.9011,-99.6796 84.2374,-92.5934 91.2925,-91.1014 89.9562,-98.1876 82.9011,-99.6796"/>
<text text-anchor="middle" x="91" y="-113.5" font-family="Helvetica,sans-Serif" font-size="10.00"> &#45;name_</text>
</g>
<!-- Node3 -->
<g id="node3" class="node"><title>Node3</title>
<polygon fill="white" stroke="#bfbfbf" points="60,-140.5 60,-197.5 136,-197.5 136,-140.5 60,-140.5"/>
<text text-anchor="middle" x="98" y="-185.5" font-family="Helvetica,sans-Serif" font-size="10.00">List&lt; String &gt;</text>
<polyline fill="none" stroke="#bfbfbf" points="60,-178.5 136,-178.5 "/>
<text text-anchor="middle" x="98" y="-166.5" font-family="Helvetica,sans-Serif" font-size="10.00"> </text>
<polyline fill="none" stroke="#bfbfbf" points="60,-159.5 136,-159.5 "/>
<text text-anchor="middle" x="98" y="-147.5" font-family="Helvetica,sans-Serif" font-size="10.00"> </text>
</g>
<!-- Node3&#45;&gt;Node1 -->
<g id="edge2" class="edge"><title>Node3&#45;&gt;Node1</title>
<path fill="none" stroke="#404040" d="M106.718,-140.24C110.207,-129.129 114.359,-115.909 118.423,-102.968"/>
<polygon fill="none" stroke="#404040" points="118.514,-102.678 116.496,-95.7554 122.11,-91.2295 124.128,-98.1524 118.514,-102.678"/>
<text text-anchor="middle" x="134.5" y="-113.5" font-family="Helvetica,sans-Serif" font-size="10.00"> &#45;labels_</text>
</g>
<!-- Node4 -->
<g id="node4" class="node"><title>Node4</title>
<polygon fill="white" stroke="#bfbfbf" points="154.5,-140.5 154.5,-197.5 225.5,-197.5 225.5,-140.5 154.5,-140.5"/>
<text text-anchor="middle" x="190" y="-185.5" font-family="Helvetica,sans-Serif" font-size="10.00">List&lt; Long &gt;</text>
<polyline fill="none" stroke="#bfbfbf" points="154.5,-178.5 225.5,-178.5 "/>
<text text-anchor="middle" x="190" y="-166.5" font-family="Helvetica,sans-Serif" font-size="10.00"> </text>
<polyline fill="none" stroke="#bfbfbf" points="154.5,-159.5 225.5,-159.5 "/>
<text text-anchor="middle" x="190" y="-147.5" font-family="Helvetica,sans-Serif" font-size="10.00"> </text>
</g>
<!-- Node4&#45;&gt;Node1 -->
<g id="edge3" class="edge"><title>Node4&#45;&gt;Node1</title>
<path fill="none" stroke="#404040" d="M177.611,-140.24C172.602,-129.016 166.632,-115.639 160.801,-102.572"/>
<polygon fill="none" stroke="#404040" points="160.629,-102.188 154.531,-98.3388 155.739,-91.2295 161.837,-95.0785 160.629,-102.188"/>
<text text-anchor="middle" x="201.5" y="-113.5" font-family="Helvetica,sans-Serif" font-size="10.00"> &#45;timestamps_</text>
</g>
<!-- Node5 -->
<g id="node5" class="node"><title>Node5</title>
<polygon fill="white" stroke="#bfbfbf" points="250.5,-140.5 250.5,-197.5 285.5,-197.5 285.5,-140.5 250.5,-140.5"/>
<text text-anchor="middle" x="268" y="-185.5" font-family="Helvetica,sans-Serif" font-size="10.00">long</text>
<polyline fill="none" stroke="#bfbfbf" points="250.5,-178.5 285.5,-178.5 "/>
<text text-anchor="middle" x="268" y="-166.5" font-family="Helvetica,sans-Serif" font-size="10.00"> </text>
<polyline fill="none" stroke="#bfbfbf" points="250.5,-159.5 285.5,-159.5 "/>
<text text-anchor="middle" x="268" y="-147.5" font-family="Helvetica,sans-Serif" font-size="10.00"> </text>
</g>
<!-- Node5&#45;&gt;Node1 -->
<g id="edge4" class="edge"><title>Node5&#45;&gt;Node1</title>
<path fill="none" stroke="#404040" d="M256.914,-140.406C251.876,-130.086 245.189,-118.756 237,-110 228.742,-101.17 218.984,-93.0862 208.842,-85.8681"/>
<polygon fill="none" stroke="#404040" points="208.551,-85.671 201.34,-85.6192 198.615,-78.943 205.826,-78.9948 208.551,-85.671"/>
<text text-anchor="middle" x="272.5" y="-113.5" font-family="Helvetica,sans-Serif" font-size="10.00"> &#45;startTime_</text>
</g>
</g>
</svg>
