<?xml version="1.0" encoding="UTF-8" standalone="no"?>
<!DOCTYPE svg PUBLIC "-//W3C//DTD SVG 1.1//EN"
 "http://www.w3.org/Graphics/SVG/1.1/DTD/svg11.dtd">
<!-- Generated by graphviz version 2.36.0 (20140111.2315)
 -->
<!-- Title: impala::TestRegistrationCb Pages: 1 -->
<svg width="150pt" height="310pt"
 viewBox="0.00 0.00 150.00 310.00" xmlns="http://www.w3.org/2000/svg" xmlns:xlink="http://www.w3.org/1999/xlink">
<g id="graph0" class="graph" transform="scale(1 1) rotate(0) translate(4 306)">
<title>impala::TestRegistrationCb</title>
<polygon fill="white" stroke="none" points="-4,4 -4,-306 146,-306 146,4 -4,4"/>
<!-- Node1 -->
<g id="node1" class="node"><title>Node1</title>
<polygon fill="#bfbfbf" stroke="black" points="3,-95 3,-185 139,-185 139,-95 3,-95"/>
<text text-anchor="middle" x="71" y="-173" font-family="Helvetica,sans-Serif" font-size="10.00">impala::TestRegistrationCb</text>
<polyline fill="none" stroke="black" points="3,-166 139,-166 "/>
<text text-anchor="start" x="11" y="-154" font-family="Helvetica,sans-Serif" font-size="10.00"># cv_mutex_</text>
<text text-anchor="start" x="11" y="-143" font-family="Helvetica,sans-Serif" font-size="10.00"># cv_</text>
<polyline fill="none" stroke="black" points="3,-136 139,-136 "/>
<text text-anchor="start" x="11" y="-124" font-family="Helvetica,sans-Serif" font-size="10.00">+ Topic1()</text>
<text text-anchor="start" x="11" y="-113" font-family="Helvetica,sans-Serif" font-size="10.00">+ lock1()</text>
<text text-anchor="start" x="11" y="-102" font-family="Helvetica,sans-Serif" font-size="10.00">+ cv1()</text>
</g>
<!-- Node3 -->
<g id="node3" class="node"><title>Node3</title>
<g id="a_node3"><a xlink:href="classimpala_1_1TestReceiveTopicCb.html" target="_top" xlink:title="{impala::TestReceiveTopicCb\n||&#45; Topic1()\l}">
<polygon fill="white" stroke="black" points="-0.5,-0.5 -0.5,-57.5 142.5,-57.5 142.5,-0.5 -0.5,-0.5"/>
<text text-anchor="middle" x="71" y="-45.5" font-family="Helvetica,sans-Serif" font-size="10.00">impala::TestReceiveTopicCb</text>
<polyline fill="none" stroke="black" points="-0.5,-38.5 142.5,-38.5 "/>
<text text-anchor="middle" x="71" y="-26.5" font-family="Helvetica,sans-Serif" font-size="10.00"> </text>
<polyline fill="none" stroke="black" points="-0.5,-19.5 142.5,-19.5 "/>
<text text-anchor="start" x="7.5" y="-7.5" font-family="Helvetica,sans-Serif" font-size="10.00">&#45; Topic1()</text>
</a>
</g>
</g>
<!-- Node1&#45;&gt;Node3 -->
<g id="edge2" class="edge"><title>Node1&#45;&gt;Node3</title>
<path fill="none" stroke="midnightblue" d="M71,-84.792C71,-75.3496 71,-65.8956 71,-57.5636"/>
<polygon fill="none" stroke="midnightblue" points="67.5001,-84.9797 71,-94.9797 74.5001,-84.9798 67.5001,-84.9797"/>
</g>
<!-- Node2 -->
<g id="node2" class="node"><title>Node2</title>
<g id="a_node2"><a xlink:href="classimpala_1_1StateStore2Test_1_1Callbacks.html" target="_top" xlink:title="{impala::StateStore2Test\l::Callbacks\n||+ Topic1()\l+ Topic2()\l}">
<polygon fill="white" stroke="black" points="10,-222.5 10,-301.5 132,-301.5 132,-222.5 10,-222.5"/>
<text text-anchor="start" x="18" y="-289.5" font-family="Helvetica,sans-Serif" font-size="10.00">impala::StateStore2Test</text>
<text text-anchor="middle" x="71" y="-278.5" font-family="Helvetica,sans-Serif" font-size="10.00">::Callbacks</text>
<polyline fill="none" stroke="black" points="10,-271.5 132,-271.5 "/>
<text text-anchor="middle" x="71" y="-259.5" font-family="Helvetica,sans-Serif" font-size="10.00"> </text>
<polyline fill="none" stroke="black" points="10,-252.5 132,-252.5 "/>
<text text-anchor="start" x="18" y="-240.5" font-family="Helvetica,sans-Serif" font-size="10.00">+ Topic1()</text>
<text text-anchor="start" x="18" y="-229.5" font-family="Helvetica,sans-Serif" font-size="10.00">+ Topic2()</text>
</a>
</g>
</g>
<!-- Node2&#45;&gt;Node1 -->
<g id="edge1" class="edge"><title>Node2&#45;&gt;Node1</title>
<path fill="none" stroke="midnightblue" d="M71,-212.176C71,-203.318 71,-194.123 71,-185.401"/>
<polygon fill="none" stroke="midnightblue" points="67.5001,-212.371 71,-222.371 74.5001,-212.371 67.5001,-212.371"/>
</g>
</g>
</svg>
