<?xml version="1.0" encoding="UTF-8" standalone="no"?>
<!DOCTYPE svg PUBLIC "-//W3C//DTD SVG 1.1//EN"
 "http://www.w3.org/Graphics/SVG/1.1/DTD/svg11.dtd">
<!-- Generated by graphviz version 2.36.0 (20140111.2315)
 -->
<!-- Title: impala::RleDecoder Pages: 1 -->
<svg width="458pt" height="398pt"
 viewBox="0.00 0.00 458.00 398.00" xmlns="http://www.w3.org/2000/svg" xmlns:xlink="http://www.w3.org/1999/xlink">
<g id="graph0" class="graph" transform="scale(1 1) rotate(0) translate(4 394)">
<title>impala::RleDecoder</title>
<polygon fill="white" stroke="none" points="-4,4 -4,-394 454,-394 454,4 -4,4"/>
<!-- Node1 -->
<g id="node1" class="node"><title>Node1</title>
<polygon fill="#bfbfbf" stroke="black" points="246.5,-0.5 246.5,-79.5 349.5,-79.5 349.5,-0.5 246.5,-0.5"/>
<text text-anchor="middle" x="298" y="-67.5" font-family="Helvetica,sans-Serif" font-size="10.00">impala::RleDecoder</text>
<polyline fill="none" stroke="black" points="246.5,-60.5 349.5,-60.5 "/>
<text text-anchor="middle" x="298" y="-48.5" font-family="Helvetica,sans-Serif" font-size="10.00"> </text>
<polyline fill="none" stroke="black" points="246.5,-41.5 349.5,-41.5 "/>
<text text-anchor="start" x="254.5" y="-29.5" font-family="Helvetica,sans-Serif" font-size="10.00">+ RleDecoder()</text>
<text text-anchor="start" x="254.5" y="-18.5" font-family="Helvetica,sans-Serif" font-size="10.00">+ RleDecoder()</text>
<text text-anchor="start" x="254.5" y="-7.5" font-family="Helvetica,sans-Serif" font-size="10.00">+ Get()</text>
</g>
<!-- Node2 -->
<g id="node2" class="node"><title>Node2</title>
<g id="a_node2"><a xlink:href="classuint64__t.html" target="_top" xlink:title="{uint64_t\n||}">
<polygon fill="white" stroke="black" points="-0.5,-332.5 -0.5,-389.5 50.5,-389.5 50.5,-332.5 -0.5,-332.5"/>
<text text-anchor="middle" x="25" y="-377.5" font-family="Helvetica,sans-Serif" font-size="10.00">uint64_t</text>
<polyline fill="none" stroke="black" points="-0.5,-370.5 50.5,-370.5 "/>
<text text-anchor="middle" x="25" y="-358.5" font-family="Helvetica,sans-Serif" font-size="10.00"> </text>
<polyline fill="none" stroke="black" points="-0.5,-351.5 50.5,-351.5 "/>
<text text-anchor="middle" x="25" y="-339.5" font-family="Helvetica,sans-Serif" font-size="10.00"> </text>
</a>
</g>
</g>
<!-- Node2&#45;&gt;Node1 -->
<g id="edge1" class="edge"><title>Node2&#45;&gt;Node1</title>
<path fill="none" stroke="#404040" d="M19.3602,-332.414C11.7157,-286.805 3.65601,-195.06 48,-138 92.7401,-80.4304 176.302,-56.9961 234.443,-47.4773"/>
<polygon fill="none" stroke="#404040" points="234.577,-47.4569 239.907,-42.5991 246.441,-45.65 241.111,-50.5079 234.577,-47.4569"/>
<text text-anchor="middle" x="83" y="-192.5" font-family="Helvetica,sans-Serif" font-size="10.00"> &#45;current_value_</text>
</g>
<!-- Node5 -->
<g id="node5" class="node"><title>Node5</title>
<g id="a_node5"><a xlink:href="classimpala_1_1BitReader.html" target="_top" xlink:title="{impala::BitReader\n||+ BitReader()\l+ BitReader()\l+ GetValue()\l+ GetAligned()\l+ GetVlqInt()\l+ bytes_left()\l}">
<polygon fill="white" stroke="black" points="127.5,-139 127.5,-251 222.5,-251 222.5,-139 127.5,-139"/>
<text text-anchor="middle" x="175" y="-239" font-family="Helvetica,sans-Serif" font-size="10.00">impala::BitReader</text>
<polyline fill="none" stroke="black" points="127.5,-232 222.5,-232 "/>
<text text-anchor="middle" x="175" y="-220" font-family="Helvetica,sans-Serif" font-size="10.00"> </text>
<polyline fill="none" stroke="black" points="127.5,-213 222.5,-213 "/>
<text text-anchor="start" x="135.5" y="-201" font-family="Helvetica,sans-Serif" font-size="10.00">+ BitReader()</text>
<text text-anchor="start" x="135.5" y="-190" font-family="Helvetica,sans-Serif" font-size="10.00">+ BitReader()</text>
<text text-anchor="start" x="135.5" y="-179" font-family="Helvetica,sans-Serif" font-size="10.00">+ GetValue()</text>
<text text-anchor="start" x="135.5" y="-168" font-family="Helvetica,sans-Serif" font-size="10.00">+ GetAligned()</text>
<text text-anchor="start" x="135.5" y="-157" font-family="Helvetica,sans-Serif" font-size="10.00">+ GetVlqInt()</text>
<text text-anchor="start" x="135.5" y="-146" font-family="Helvetica,sans-Serif" font-size="10.00">+ bytes_left()</text>
</a>
</g>
</g>
<!-- Node2&#45;&gt;Node5 -->
<g id="edge5" class="edge"><title>Node2&#45;&gt;Node5</title>
<path fill="none" stroke="#404040" d="M30.172,-332.477C34.8679,-313.346 43.3652,-288.129 58,-270 62.6518,-264.237 89.9454,-246.87 117,-230.409"/>
<polygon fill="none" stroke="#404040" points="117.043,-230.383 120.106,-223.854 127.31,-224.17 124.247,-230.698 117.043,-230.383"/>
<text text-anchor="middle" x="98.5" y="-289.5" font-family="Helvetica,sans-Serif" font-size="10.00"> &#45;buffered_values_</text>
</g>
<!-- Node3 -->
<g id="node3" class="node"><title>Node3</title>
<polygon fill="white" stroke="#bfbfbf" points="398.5,-166.5 398.5,-223.5 449.5,-223.5 449.5,-166.5 398.5,-166.5"/>
<text text-anchor="middle" x="424" y="-211.5" font-family="Helvetica,sans-Serif" font-size="10.00">uint32_t</text>
<polyline fill="none" stroke="#bfbfbf" points="398.5,-204.5 449.5,-204.5 "/>
<text text-anchor="middle" x="424" y="-192.5" font-family="Helvetica,sans-Serif" font-size="10.00"> </text>
<polyline fill="none" stroke="#bfbfbf" points="398.5,-185.5 449.5,-185.5 "/>
<text text-anchor="middle" x="424" y="-173.5" font-family="Helvetica,sans-Serif" font-size="10.00"> </text>
</g>
<!-- Node3&#45;&gt;Node1 -->
<g id="edge2" class="edge"><title>Node3&#45;&gt;Node1</title>
<path fill="none" stroke="#404040" d="M405.033,-166.231C398.56,-157.088 391.148,-146.97 384,-138 370.992,-121.675 356.12,-104.446 342.444,-89.1119"/>
<polygon fill="none" stroke="#404040" points="342.129,-88.7613 335.144,-86.9706 334.11,-79.8339 341.095,-81.6246 342.129,-88.7613"/>
<text text-anchor="middle" x="403" y="-112" font-family="Helvetica,sans-Serif" font-size="10.00"> &#45;repeat_count_</text>
<text text-anchor="middle" x="403" y="-101" font-family="Helvetica,sans-Serif" font-size="10.00">&#45;literal_count_</text>
</g>
<!-- Node4 -->
<g id="node4" class="node"><title>Node4</title>
<polygon fill="white" stroke="#bfbfbf" points="252.5,-332.5 252.5,-389.5 281.5,-389.5 281.5,-332.5 252.5,-332.5"/>
<text text-anchor="middle" x="267" y="-377.5" font-family="Helvetica,sans-Serif" font-size="10.00">int</text>
<polyline fill="none" stroke="#bfbfbf" points="252.5,-370.5 281.5,-370.5 "/>
<text text-anchor="middle" x="267" y="-358.5" font-family="Helvetica,sans-Serif" font-size="10.00"> </text>
<polyline fill="none" stroke="#bfbfbf" points="252.5,-351.5 281.5,-351.5 "/>
<text text-anchor="middle" x="267" y="-339.5" font-family="Helvetica,sans-Serif" font-size="10.00"> </text>
</g>
<!-- Node4&#45;&gt;Node1 -->
<g id="edge3" class="edge"><title>Node4&#45;&gt;Node1</title>
<path fill="none" stroke="#404040" d="M281.841,-350.736C293.3,-342.631 308.295,-329.712 315,-314 345.908,-241.569 329.639,-148.421 314.345,-91.7889"/>
<polygon fill="none" stroke="#404040" points="314.26,-91.4875 308.785,-86.7938 311.013,-79.9352 316.487,-84.6289 314.26,-91.4875"/>
<text text-anchor="middle" x="358.5" y="-192.5" font-family="Helvetica,sans-Serif" font-size="10.00"> &#45;bit_width_</text>
</g>
<!-- Node4&#45;&gt;Node5 -->
<g id="edge6" class="edge"><title>Node4&#45;&gt;Node5</title>
<path fill="none" stroke="#404040" d="M252.423,-352.736C238.433,-345.018 217.747,-331.515 206,-314 195.838,-298.849 189.005,-280.535 184.411,-262.903"/>
<polygon fill="none" stroke="#404040" points="184.395,-262.833 179.124,-257.912 181.639,-251.154 186.91,-256.075 184.395,-262.833"/>
<text text-anchor="middle" x="260.5" y="-306" font-family="Helvetica,sans-Serif" font-size="10.00"> &#45;byte_offset_</text>
<text text-anchor="middle" x="260.5" y="-295" font-family="Helvetica,sans-Serif" font-size="10.00">&#45;max_bytes_</text>
<text text-anchor="middle" x="260.5" y="-284" font-family="Helvetica,sans-Serif" font-size="10.00">&#45;bit_offset_</text>
<text text-anchor="middle" x="260.5" y="-273" font-family="Helvetica,sans-Serif" font-size="10.00">+MAX_VLQ_BYTE_LEN</text>
</g>
<!-- Node5&#45;&gt;Node1 -->
<g id="edge4" class="edge"><title>Node5&#45;&gt;Node1</title>
<path fill="none" stroke="#404040" d="M219.406,-138.763C232.398,-122.602 246.497,-105.065 259.118,-89.365"/>
<polygon fill="none" stroke="#404040" points="259.244,-89.2082 259.886,-82.0257 266.763,-79.8556 266.121,-87.0381 259.244,-89.2082"/>
<text text-anchor="middle" x="279.5" y="-106.5" font-family="Helvetica,sans-Serif" font-size="10.00"> &#45;bit_reader_</text>
</g>
<!-- Node6 -->
<g id="node6" class="node"><title>Node6</title>
<polygon fill="white" stroke="#bfbfbf" points="122,-332.5 122,-389.5 168,-389.5 168,-332.5 122,-332.5"/>
<text text-anchor="middle" x="145" y="-377.5" font-family="Helvetica,sans-Serif" font-size="10.00">uint8_t</text>
<polyline fill="none" stroke="#bfbfbf" points="122,-370.5 168,-370.5 "/>
<text text-anchor="middle" x="145" y="-358.5" font-family="Helvetica,sans-Serif" font-size="10.00"> </text>
<polyline fill="none" stroke="#bfbfbf" points="122,-351.5 168,-351.5 "/>
<text text-anchor="middle" x="145" y="-339.5" font-family="Helvetica,sans-Serif" font-size="10.00"> </text>
</g>
<!-- Node6&#45;&gt;Node5 -->
<g id="edge7" class="edge"><title>Node6&#45;&gt;Node5</title>
<path fill="none" stroke="#404040" d="M142.738,-332.165C141.912,-314.248 141.998,-290.553 146,-270 146.455,-267.664 146.98,-265.306 147.564,-262.941"/>
<polygon fill="none" stroke="#404040" points="147.645,-262.657 145.435,-255.793 150.921,-251.113 153.131,-257.978 147.645,-262.657"/>
<text text-anchor="middle" x="164.5" y="-289.5" font-family="Helvetica,sans-Serif" font-size="10.00"> &#45;buffer_</text>
</g>
</g>
</svg>
