<?xml version="1.0" encoding="UTF-8" standalone="no"?>
<!DOCTYPE svg PUBLIC "-//W3C//DTD SVG 1.1//EN"
 "http://www.w3.org/Graphics/SVG/1.1/DTD/svg11.dtd">
<!-- Generated by graphviz version 2.36.0 (20140111.2315)
 -->
<!-- Title: impala::ClientConnection&lt; T &gt; Pages: 1 -->
<svg width="177pt" height="216pt"
 viewBox="0.00 0.00 177.00 216.00" xmlns="http://www.w3.org/2000/svg" xmlns:xlink="http://www.w3.org/1999/xlink">
<g id="graph0" class="graph" transform="scale(1 1) rotate(0) translate(4 212)">
<title>impala::ClientConnection&lt; T &gt;</title>
<polygon fill="white" stroke="none" points="-4,4 -4,-212 173,-212 173,4 -4,4"/>
<!-- Node1 -->
<g id="node1" class="node"><title>Node1</title>
<polygon fill="#bfbfbf" stroke="black" points="20,-0.5 20,-101.5 170,-101.5 170,-0.5 20,-0.5"/>
<text text-anchor="middle" x="95" y="-89.5" font-family="Helvetica,sans-Serif" font-size="10.00">impala::ClientConnection&lt; T &gt;</text>
<polyline fill="none" stroke="black" points="20,-82.5 170,-82.5 "/>
<text text-anchor="middle" x="95" y="-70.5" font-family="Helvetica,sans-Serif" font-size="10.00"> </text>
<polyline fill="none" stroke="black" points="20,-63.5 170,-63.5 "/>
<text text-anchor="start" x="28" y="-51.5" font-family="Helvetica,sans-Serif" font-size="10.00">+ ClientConnection()</text>
<text text-anchor="start" x="28" y="-40.5" font-family="Helvetica,sans-Serif" font-size="10.00">+ ~ClientConnection()</text>
<text text-anchor="start" x="28" y="-29.5" font-family="Helvetica,sans-Serif" font-size="10.00">+ Reopen()</text>
<text text-anchor="start" x="28" y="-18.5" font-family="Helvetica,sans-Serif" font-size="10.00">+ operator&#45;&gt;()</text>
<text text-anchor="start" x="28" y="-7.5" font-family="Helvetica,sans-Serif" font-size="10.00">+ DoRpc()</text>
</g>
<!-- Node2 -->
<g id="node2" class="node"><title>Node2</title>
<polygon fill="white" stroke="#bfbfbf" points="-0.5,-150.5 -0.5,-207.5 100.5,-207.5 100.5,-150.5 -0.5,-150.5"/>
<text text-anchor="middle" x="50" y="-195.5" font-family="Helvetica,sans-Serif" font-size="10.00">ClientCache&lt; T &gt; *</text>
<polyline fill="none" stroke="#bfbfbf" points="-0.5,-188.5 100.5,-188.5 "/>
<text text-anchor="middle" x="50" y="-176.5" font-family="Helvetica,sans-Serif" font-size="10.00"> </text>
<polyline fill="none" stroke="#bfbfbf" points="-0.5,-169.5 100.5,-169.5 "/>
<text text-anchor="middle" x="50" y="-157.5" font-family="Helvetica,sans-Serif" font-size="10.00"> </text>
</g>
<!-- Node2&#45;&gt;Node1 -->
<g id="edge1" class="edge"><title>Node2&#45;&gt;Node1</title>
<path fill="none" stroke="#404040" d="M47.3913,-150.368C47.2698,-140.591 48.0645,-129.634 51,-120 51.7365,-117.583 52.5863,-115.17 53.53,-112.773"/>
<polygon fill="none" stroke="#404040" points="53.5922,-112.636 52.4333,-105.519 58.5575,-101.712 59.7164,-108.829 53.5922,-112.636"/>
<text text-anchor="middle" x="84.5" y="-123.5" font-family="Helvetica,sans-Serif" font-size="10.00"> &#45;client_cache_</text>
</g>
<!-- Node3 -->
<g id="node3" class="node"><title>Node3</title>
<polygon fill="white" stroke="#bfbfbf" points="125.5,-150.5 125.5,-207.5 154.5,-207.5 154.5,-150.5 125.5,-150.5"/>
<text text-anchor="middle" x="140" y="-195.5" font-family="Helvetica,sans-Serif" font-size="10.00">T</text>
<polyline fill="none" stroke="#bfbfbf" points="125.5,-188.5 154.5,-188.5 "/>
<text text-anchor="middle" x="140" y="-176.5" font-family="Helvetica,sans-Serif" font-size="10.00"> </text>
<polyline fill="none" stroke="#bfbfbf" points="125.5,-169.5 154.5,-169.5 "/>
<text text-anchor="middle" x="140" y="-157.5" font-family="Helvetica,sans-Serif" font-size="10.00"> </text>
</g>
<!-- Node3&#45;&gt;Node1 -->
<g id="edge2" class="edge"><title>Node3&#45;&gt;Node1</title>
<path fill="none" stroke="#404040" d="M130.125,-150.349C126.183,-139.311 121.476,-126.133 116.809,-113.066"/>
<polygon fill="none" stroke="#404040" points="116.775,-112.969 110.99,-108.664 112.739,-101.668 118.524,-105.973 116.775,-112.969"/>
<text text-anchor="middle" x="139.5" y="-123.5" font-family="Helvetica,sans-Serif" font-size="10.00"> &#45;client_</text>
</g>
</g>
</svg>
