<?xml version="1.0" encoding="UTF-8" standalone="no"?>
<!DOCTYPE svg PUBLIC "-//W3C//DTD SVG 1.1//EN"
 "http://www.w3.org/Graphics/SVG/1.1/DTD/svg11.dtd">
<!-- Generated by graphviz version 2.36.0 (20140111.2315)
 -->
<!-- Title: com.cloudera.impala.analysis.AlterTableAddPartitionStmt Pages: 1 -->
<svg width="156pt" height="592pt"
 viewBox="0.00 0.00 156.00 592.00" xmlns="http://www.w3.org/2000/svg" xmlns:xlink="http://www.w3.org/1999/xlink">
<g id="graph0" class="graph" transform="scale(1 1) rotate(0) translate(4 588)">
<title>com.cloudera.impala.analysis.AlterTableAddPartitionStmt</title>
<polygon fill="white" stroke="none" points="-4,4 -4,-588 152,-588 152,4 -4,4"/>
<!-- Node1 -->
<g id="node1" class="node"><title>Node1</title>
<polygon fill="#bfbfbf" stroke="black" points="-1,-1 -1,-157 149,-157 149,-1 -1,-1"/>
<text text-anchor="start" x="7" y="-145" font-family="Helvetica,sans-Serif" font-size="10.00">com.cloudera.impala.analysis.</text>
<text text-anchor="middle" x="74" y="-134" font-family="Helvetica,sans-Serif" font-size="10.00">AlterTableAddPartitionStmt</text>
<polyline fill="none" stroke="black" points="-1,-127 149,-127 "/>
<text text-anchor="start" x="7" y="-115" font-family="Helvetica,sans-Serif" font-size="10.00">&#45; location_</text>
<text text-anchor="start" x="7" y="-104" font-family="Helvetica,sans-Serif" font-size="10.00">&#45; ifNotExists_</text>
<text text-anchor="start" x="7" y="-93" font-family="Helvetica,sans-Serif" font-size="10.00">&#45; partitionSpec_</text>
<text text-anchor="start" x="7" y="-82" font-family="Helvetica,sans-Serif" font-size="10.00">&#45; cacheOp_</text>
<polyline fill="none" stroke="black" points="-1,-75 149,-75 "/>
<text text-anchor="start" x="7" y="-63" font-family="Helvetica,sans-Serif" font-size="10.00">+ AlterTableAddPartitionStmt()</text>
<text text-anchor="start" x="7" y="-52" font-family="Helvetica,sans-Serif" font-size="10.00">+ getIfNotExists()</text>
<text text-anchor="start" x="7" y="-41" font-family="Helvetica,sans-Serif" font-size="10.00">+ getLocation()</text>
<text text-anchor="start" x="7" y="-30" font-family="Helvetica,sans-Serif" font-size="10.00">+ toSql()</text>
<text text-anchor="start" x="7" y="-19" font-family="Helvetica,sans-Serif" font-size="10.00">+ toThrift()</text>
<text text-anchor="start" x="7" y="-8" font-family="Helvetica,sans-Serif" font-size="10.00">+ analyze()</text>
</g>
<!-- Node2 -->
<g id="node2" class="node"><title>Node2</title>
<g id="a_node2"><a xlink:href="classcom_1_1cloudera_1_1impala_1_1analysis_1_1AlterTableStmt.html" target="_top" xlink:title="{com.cloudera.impala.analysis.\lAlterTableStmt\n|# tableName_\l# table_\l|+ getTbl()\l+ getDb()\l+ toThrift()\l+ analyze()\l# AlterTableStmt()\l# getTargetTable()\l}">
<polygon fill="white" stroke="black" points="-0.5,-195 -0.5,-329 148.5,-329 148.5,-195 -0.5,-195"/>
<text text-anchor="start" x="7.5" y="-317" font-family="Helvetica,sans-Serif" font-size="10.00">com.cloudera.impala.analysis.</text>
<text text-anchor="middle" x="74" y="-306" font-family="Helvetica,sans-Serif" font-size="10.00">AlterTableStmt</text>
<polyline fill="none" stroke="black" points="-0.5,-299 148.5,-299 "/>
<text text-anchor="start" x="7.5" y="-287" font-family="Helvetica,sans-Serif" font-size="10.00"># tableName_</text>
<text text-anchor="start" x="7.5" y="-276" font-family="Helvetica,sans-Serif" font-size="10.00"># table_</text>
<polyline fill="none" stroke="black" points="-0.5,-269 148.5,-269 "/>
<text text-anchor="start" x="7.5" y="-257" font-family="Helvetica,sans-Serif" font-size="10.00">+ getTbl()</text>
<text text-anchor="start" x="7.5" y="-246" font-family="Helvetica,sans-Serif" font-size="10.00">+ getDb()</text>
<text text-anchor="start" x="7.5" y="-235" font-family="Helvetica,sans-Serif" font-size="10.00">+ toThrift()</text>
<text text-anchor="start" x="7.5" y="-224" font-family="Helvetica,sans-Serif" font-size="10.00">+ analyze()</text>
<text text-anchor="start" x="7.5" y="-213" font-family="Helvetica,sans-Serif" font-size="10.00"># AlterTableStmt()</text>
<text text-anchor="start" x="7.5" y="-202" font-family="Helvetica,sans-Serif" font-size="10.00"># getTargetTable()</text>
</a>
</g>
</g>
<!-- Node2&#45;&gt;Node1 -->
<g id="edge1" class="edge"><title>Node2&#45;&gt;Node1</title>
<path fill="none" stroke="midnightblue" d="M74,-184.739C74,-175.66 74,-166.385 74,-157.291"/>
<polygon fill="none" stroke="midnightblue" points="70.5001,-184.887 74,-194.887 77.5001,-184.887 70.5001,-184.887"/>
</g>
<!-- Node3 -->
<g id="node3" class="node"><title>Node3</title>
<g id="a_node3"><a xlink:href="classcom_1_1cloudera_1_1impala_1_1analysis_1_1StatementBase.html" target="_top" xlink:title="{com.cloudera.impala.analysis.\lStatementBase\n|# isExplain_\l|+ analyze()\l+ toSql()\l+ setIsExplain()\l+ isExplain()\l}">
<polygon fill="white" stroke="black" points="-0.5,-366.5 -0.5,-467.5 148.5,-467.5 148.5,-366.5 -0.5,-366.5"/>
<text text-anchor="start" x="7.5" y="-455.5" font-family="Helvetica,sans-Serif" font-size="10.00">com.cloudera.impala.analysis.</text>
<text text-anchor="middle" x="74" y="-444.5" font-family="Helvetica,sans-Serif" font-size="10.00">StatementBase</text>
<polyline fill="none" stroke="black" points="-0.5,-437.5 148.5,-437.5 "/>
<text text-anchor="start" x="7.5" y="-425.5" font-family="Helvetica,sans-Serif" font-size="10.00"># isExplain_</text>
<polyline fill="none" stroke="black" points="-0.5,-418.5 148.5,-418.5 "/>
<text text-anchor="start" x="7.5" y="-406.5" font-family="Helvetica,sans-Serif" font-size="10.00">+ analyze()</text>
<text text-anchor="start" x="7.5" y="-395.5" font-family="Helvetica,sans-Serif" font-size="10.00">+ toSql()</text>
<text text-anchor="start" x="7.5" y="-384.5" font-family="Helvetica,sans-Serif" font-size="10.00">+ setIsExplain()</text>
<text text-anchor="start" x="7.5" y="-373.5" font-family="Helvetica,sans-Serif" font-size="10.00">+ isExplain()</text>
</a>
</g>
</g>
<!-- Node3&#45;&gt;Node2 -->
<g id="edge2" class="edge"><title>Node3&#45;&gt;Node2</title>
<path fill="none" stroke="midnightblue" d="M74,-356.109C74,-347.258 74,-338.096 74,-329.128"/>
<polygon fill="none" stroke="midnightblue" points="70.5001,-356.325 74,-366.325 77.5001,-356.325 70.5001,-356.325"/>
</g>
<!-- Node4 -->
<g id="node4" class="node"><title>Node4</title>
<g id="a_node4"><a xlink:href="interfacecom_1_1cloudera_1_1impala_1_1analysis_1_1ParseNode.html" target="_top" xlink:title="{com.cloudera.impala.analysis.\lParseNode\n||+ analyze()\l+ toSql()\l}">
<polygon fill="white" stroke="black" points="-0.5,-504.5 -0.5,-583.5 148.5,-583.5 148.5,-504.5 -0.5,-504.5"/>
<text text-anchor="start" x="7.5" y="-571.5" font-family="Helvetica,sans-Serif" font-size="10.00">com.cloudera.impala.analysis.</text>
<text text-anchor="middle" x="74" y="-560.5" font-family="Helvetica,sans-Serif" font-size="10.00">ParseNode</text>
<polyline fill="none" stroke="black" points="-0.5,-553.5 148.5,-553.5 "/>
<text text-anchor="middle" x="74" y="-541.5" font-family="Helvetica,sans-Serif" font-size="10.00"> </text>
<polyline fill="none" stroke="black" points="-0.5,-534.5 148.5,-534.5 "/>
<text text-anchor="start" x="7.5" y="-522.5" font-family="Helvetica,sans-Serif" font-size="10.00">+ analyze()</text>
<text text-anchor="start" x="7.5" y="-511.5" font-family="Helvetica,sans-Serif" font-size="10.00">+ toSql()</text>
</a>
</g>
</g>
<!-- Node4&#45;&gt;Node3 -->
<g id="edge3" class="edge"><title>Node4&#45;&gt;Node3</title>
<path fill="none" stroke="midnightblue" d="M74,-494.406C74,-485.639 74,-476.488 74,-467.691"/>
<polygon fill="none" stroke="midnightblue" points="70.5001,-494.476 74,-504.476 77.5001,-494.476 70.5001,-494.476"/>
</g>
</g>
</svg>
