<?xml version="1.0" encoding="UTF-8" standalone="no"?>
<!DOCTYPE svg PUBLIC "-//W3C//DTD SVG 1.1//EN"
 "http://www.w3.org/Graphics/SVG/1.1/DTD/svg11.dtd">
<!-- Generated by graphviz version 2.36.0 (20140111.2315)
 -->
<!-- Title: sasl::TSaslServer Pages: 1 -->
<svg width="264pt" height="378pt"
 viewBox="0.00 0.00 264.00 378.00" xmlns="http://www.w3.org/2000/svg" xmlns:xlink="http://www.w3.org/1999/xlink">
<g id="graph0" class="graph" transform="scale(1 1) rotate(0) translate(4 374)">
<title>sasl::TSaslServer</title>
<polygon fill="white" stroke="none" points="-4,4 -4,-374 260,-374 260,4 -4,4"/>
<!-- Node1 -->
<g id="node1" class="node"><title>Node1</title>
<polygon fill="#bfbfbf" stroke="black" points="88.5,-0.5 88.5,-79.5 255.5,-79.5 255.5,-0.5 88.5,-0.5"/>
<text text-anchor="middle" x="172" y="-67.5" font-family="Helvetica,sans-Serif" font-size="10.00">sasl::TSaslServer</text>
<polyline fill="none" stroke="black" points="88.5,-60.5 255.5,-60.5 "/>
<text text-anchor="middle" x="172" y="-48.5" font-family="Helvetica,sans-Serif" font-size="10.00"> </text>
<polyline fill="none" stroke="black" points="88.5,-41.5 255.5,-41.5 "/>
<text text-anchor="start" x="96.5" y="-29.5" font-family="Helvetica,sans-Serif" font-size="10.00">+ TSaslServer()</text>
<text text-anchor="start" x="96.5" y="-18.5" font-family="Helvetica,sans-Serif" font-size="10.00">+ evaluateChallengeOrResponse()</text>
<text text-anchor="start" x="96.5" y="-7.5" font-family="Helvetica,sans-Serif" font-size="10.00">+ SaslInit()</text>
</g>
<!-- Node2 -->
<g id="node2" class="node"><title>Node2</title>
<g id="a_node2"><a xlink:href="classsasl_1_1TSasl.html" target="_top" xlink:title="{sasl::TSasl\n||+ ~TSasl()\l+ evaluateChallengeOrResponse()\l+ isComplete()\l+ unwrap()\l+ wrap()\l+ getMechanismName()\l+ hasInitialResponse()\l+ getUsername()\l+ SaslDone()\l}">
<polygon fill="white" stroke="black" points="-0.5,-118.5 -0.5,-263.5 166.5,-263.5 166.5,-118.5 -0.5,-118.5"/>
<text text-anchor="middle" x="83" y="-251.5" font-family="Helvetica,sans-Serif" font-size="10.00">sasl::TSasl</text>
<polyline fill="none" stroke="black" points="-0.5,-244.5 166.5,-244.5 "/>
<text text-anchor="middle" x="83" y="-232.5" font-family="Helvetica,sans-Serif" font-size="10.00"> </text>
<polyline fill="none" stroke="black" points="-0.5,-225.5 166.5,-225.5 "/>
<text text-anchor="start" x="7.5" y="-213.5" font-family="Helvetica,sans-Serif" font-size="10.00">+ ~TSasl()</text>
<text text-anchor="start" x="7.5" y="-202.5" font-family="Helvetica,sans-Serif" font-size="10.00">+ evaluateChallengeOrResponse()</text>
<text text-anchor="start" x="7.5" y="-191.5" font-family="Helvetica,sans-Serif" font-size="10.00">+ isComplete()</text>
<text text-anchor="start" x="7.5" y="-180.5" font-family="Helvetica,sans-Serif" font-size="10.00">+ unwrap()</text>
<text text-anchor="start" x="7.5" y="-169.5" font-family="Helvetica,sans-Serif" font-size="10.00">+ wrap()</text>
<text text-anchor="start" x="7.5" y="-158.5" font-family="Helvetica,sans-Serif" font-size="10.00">+ getMechanismName()</text>
<text text-anchor="start" x="7.5" y="-147.5" font-family="Helvetica,sans-Serif" font-size="10.00">+ hasInitialResponse()</text>
<text text-anchor="start" x="7.5" y="-136.5" font-family="Helvetica,sans-Serif" font-size="10.00">+ getUsername()</text>
<text text-anchor="start" x="7.5" y="-125.5" font-family="Helvetica,sans-Serif" font-size="10.00">+ SaslDone()</text>
</a>
</g>
</g>
<!-- Node2&#45;&gt;Node1 -->
<g id="edge1" class="edge"><title>Node2&#45;&gt;Node1</title>
<path fill="none" stroke="midnightblue" d="M131.127,-109.427C137.294,-99.1036 143.367,-88.9363 148.869,-79.7257"/>
<polygon fill="none" stroke="midnightblue" points="128.059,-107.739 125.936,-118.119 134.069,-111.328 128.059,-107.739"/>
</g>
<!-- Node3 -->
<g id="node3" class="node"><title>Node3</title>
<polygon fill="white" stroke="#bfbfbf" points="26,-312.5 26,-369.5 102,-369.5 102,-312.5 26,-312.5"/>
<text text-anchor="middle" x="64" y="-357.5" font-family="Helvetica,sans-Serif" font-size="10.00">sasl_conn_t *</text>
<polyline fill="none" stroke="#bfbfbf" points="26,-350.5 102,-350.5 "/>
<text text-anchor="middle" x="64" y="-338.5" font-family="Helvetica,sans-Serif" font-size="10.00"> </text>
<polyline fill="none" stroke="#bfbfbf" points="26,-331.5 102,-331.5 "/>
<text text-anchor="middle" x="64" y="-319.5" font-family="Helvetica,sans-Serif" font-size="10.00"> </text>
</g>
<!-- Node3&#45;&gt;Node2 -->
<g id="edge2" class="edge"><title>Node3&#45;&gt;Node2</title>
<path fill="none" stroke="#404040" d="M63.462,-312.498C63.5406,-302.833 63.9321,-291.913 65,-282 65.2331,-279.836 65.4925,-277.648 65.7748,-275.442"/>
<polygon fill="none" stroke="#404040" points="65.7778,-275.421 62.671,-268.913 67.483,-263.543 70.5898,-270.05 65.7778,-275.421"/>
<text text-anchor="middle" x="80" y="-285.5" font-family="Helvetica,sans-Serif" font-size="10.00"> #conn</text>
</g>
<!-- Node4 -->
<g id="node4" class="node"><title>Node4</title>
<g id="a_node4"><a xlink:href="classbool.html" target="_top" xlink:title="{bool\n||}">
<polygon fill="white" stroke="black" points="152.5,-312.5 152.5,-369.5 187.5,-369.5 187.5,-312.5 152.5,-312.5"/>
<text text-anchor="middle" x="170" y="-357.5" font-family="Helvetica,sans-Serif" font-size="10.00">bool</text>
<polyline fill="none" stroke="black" points="152.5,-350.5 187.5,-350.5 "/>
<text text-anchor="middle" x="170" y="-338.5" font-family="Helvetica,sans-Serif" font-size="10.00"> </text>
<polyline fill="none" stroke="black" points="152.5,-331.5 187.5,-331.5 "/>
<text text-anchor="middle" x="170" y="-319.5" font-family="Helvetica,sans-Serif" font-size="10.00"> </text>
</a>
</g>
</g>
<!-- Node4&#45;&gt;Node1 -->
<g id="edge4" class="edge"><title>Node4&#45;&gt;Node1</title>
<path fill="none" stroke="#404040" d="M182.755,-312.273C184.93,-306.361 186.855,-300.067 188,-294 188.989,-288.759 188.177,-287.33 188,-282 185.82,-216.267 180.306,-140.614 176.36,-91.872"/>
<polygon fill="none" stroke="#404040" points="176.35,-91.7391 171.873,-86.0859 175.369,-79.7792 179.846,-85.4323 176.35,-91.7391"/>
<text text-anchor="middle" x="220.5" y="-188.5" font-family="Helvetica,sans-Serif" font-size="10.00"> &#45;serverStarted</text>
</g>
<!-- Node4&#45;&gt;Node2 -->
<g id="edge3" class="edge"><title>Node4&#45;&gt;Node2</title>
<path fill="none" stroke="#404040" d="M152.433,-328.141C141.207,-319.765 127.1,-307.634 118,-294 114.038,-288.064 110.48,-281.635 107.294,-274.991"/>
<polygon fill="none" stroke="#404040" points="107.133,-274.628 101.047,-270.76 102.276,-263.655 108.362,-267.522 107.133,-274.628"/>
<text text-anchor="middle" x="153" y="-285.5" font-family="Helvetica,sans-Serif" font-size="10.00"> #authComplete</text>
</g>
</g>
</svg>
