<?xml version="1.0" encoding="UTF-8" standalone="no"?>
<!DOCTYPE svg PUBLIC "-//W3C//DTD SVG 1.1//EN"
 "http://www.w3.org/Graphics/SVG/1.1/DTD/svg11.dtd">
<!-- Generated by graphviz version 2.36.0 (20140111.2315)
 -->
<!-- Title: com.cloudera.impala.analysis.TypesUtil Pages: 1 -->
<svg width="252pt" height="248pt"
 viewBox="0.00 0.00 252.00 248.00" xmlns="http://www.w3.org/2000/svg" xmlns:xlink="http://www.w3.org/1999/xlink">
<g id="graph0" class="graph" transform="scale(1 1) rotate(0) translate(4 244)">
<title>com.cloudera.impala.analysis.TypesUtil</title>
<polygon fill="white" stroke="none" points="-4,4 -4,-244 248,-244 248,4 -4,4"/>
<!-- Node1 -->
<g id="node1" class="node"><title>Node1</title>
<polygon fill="#bfbfbf" stroke="black" points="-1,-0.5 -1,-123.5 203,-123.5 203,-0.5 -1,-0.5"/>
<text text-anchor="start" x="7" y="-111.5" font-family="Helvetica,sans-Serif" font-size="10.00">com.cloudera.impala.analysis.</text>
<text text-anchor="middle" x="101" y="-100.5" font-family="Helvetica,sans-Serif" font-size="10.00">TypesUtil</text>
<polyline fill="none" stroke="black" points="-1,-93.5 203,-93.5 "/>
<text text-anchor="middle" x="101" y="-81.5" font-family="Helvetica,sans-Serif" font-size="10.00"> </text>
<polyline fill="none" stroke="black" points="-1,-74.5 203,-74.5 "/>
<text text-anchor="start" x="7" y="-62.5" font-family="Helvetica,sans-Serif" font-size="10.00">+ getDecimalSlotSize()</text>
<text text-anchor="start" x="7" y="-51.5" font-family="Helvetica,sans-Serif" font-size="10.00">+ getContainingIntType()</text>
<text text-anchor="start" x="7" y="-40.5" font-family="Helvetica,sans-Serif" font-size="10.00">+ getDecimalAssignmentCompatibleType()</text>
<text text-anchor="start" x="7" y="-29.5" font-family="Helvetica,sans-Serif" font-size="10.00">+ getArithmeticResultType()</text>
<text text-anchor="start" x="7" y="-18.5" font-family="Helvetica,sans-Serif" font-size="10.00">+ getDecimalArithmeticResultType()</text>
<text text-anchor="start" x="7" y="-7.5" font-family="Helvetica,sans-Serif" font-size="10.00">+ computeDecimalType()</text>
</g>
<!-- Node2 -->
<g id="node2" class="node"><title>Node2</title>
<polygon fill="white" stroke="#bfbfbf" points="86.5,-182.5 86.5,-239.5 115.5,-239.5 115.5,-182.5 86.5,-182.5"/>
<text text-anchor="middle" x="101" y="-227.5" font-family="Helvetica,sans-Serif" font-size="10.00">int</text>
<polyline fill="none" stroke="#bfbfbf" points="86.5,-220.5 115.5,-220.5 "/>
<text text-anchor="middle" x="101" y="-208.5" font-family="Helvetica,sans-Serif" font-size="10.00"> </text>
<polyline fill="none" stroke="#bfbfbf" points="86.5,-201.5 115.5,-201.5 "/>
<text text-anchor="middle" x="101" y="-189.5" font-family="Helvetica,sans-Serif" font-size="10.00"> </text>
</g>
<!-- Node2&#45;&gt;Node1 -->
<g id="edge1" class="edge"><title>Node2&#45;&gt;Node1</title>
<path fill="none" stroke="#404040" d="M101,-182.35C101,-169.032 101,-152.37 101,-135.759"/>
<polygon fill="none" stroke="#404040" points="101,-135.721 97,-129.721 101,-123.721 105,-129.72 101,-135.721"/>
<text text-anchor="start" x="101" y="-156" font-family="Helvetica,sans-Serif" font-size="10.00"> ~DECIMAL_DIVISION_SCALE</text>
<text text-anchor="middle" x="172.5" y="-145" font-family="Helvetica,sans-Serif" font-size="10.00">_INCREMENT</text>
</g>
</g>
</svg>
