<?xml version="1.0" encoding="UTF-8" standalone="no"?>
<!DOCTYPE svg PUBLIC "-//W3C//DTD SVG 1.1//EN"
 "http://www.w3.org/Graphics/SVG/1.1/DTD/svg11.dtd">
<!-- Generated by graphviz version 2.36.0 (20140111.2315)
 -->
<!-- Title: com.cloudera.impala.authorization.PrivilegeRequestBuilder Pages: 1 -->
<svg width="405pt" height="488pt"
 viewBox="0.00 0.00 405.00 488.00" xmlns="http://www.w3.org/2000/svg" xmlns:xlink="http://www.w3.org/1999/xlink">
<g id="graph0" class="graph" transform="scale(1 1) rotate(0) translate(4 484)">
<title>com.cloudera.impala.authorization.PrivilegeRequestBuilder</title>
<polygon fill="white" stroke="none" points="-4,4 -4,-484 401,-484 401,4 -4,4"/>
<!-- Node1 -->
<g id="node1" class="node"><title>Node1</title>
<polygon fill="#bfbfbf" stroke="black" points="183,-0.5 183,-145.5 351,-145.5 351,-0.5 183,-0.5"/>
<text text-anchor="start" x="191" y="-133.5" font-family="Helvetica,sans-Serif" font-size="10.00">com.cloudera.impala.authorization.</text>
<text text-anchor="middle" x="267" y="-122.5" font-family="Helvetica,sans-Serif" font-size="10.00">PrivilegeRequestBuilder</text>
<polyline fill="none" stroke="black" points="183,-115.5 351,-115.5 "/>
<text text-anchor="middle" x="267" y="-103.5" font-family="Helvetica,sans-Serif" font-size="10.00"> </text>
<polyline fill="none" stroke="black" points="183,-96.5 351,-96.5 "/>
<text text-anchor="start" x="191" y="-84.5" font-family="Helvetica,sans-Serif" font-size="10.00">+ onTable()</text>
<text text-anchor="start" x="191" y="-73.5" font-family="Helvetica,sans-Serif" font-size="10.00">+ onDb()</text>
<text text-anchor="start" x="191" y="-62.5" font-family="Helvetica,sans-Serif" font-size="10.00">+ onURI()</text>
<text text-anchor="start" x="191" y="-51.5" font-family="Helvetica,sans-Serif" font-size="10.00">+ onAnyTable()</text>
<text text-anchor="start" x="191" y="-40.5" font-family="Helvetica,sans-Serif" font-size="10.00">+ allOf()</text>
<text text-anchor="start" x="191" y="-29.5" font-family="Helvetica,sans-Serif" font-size="10.00">+ all()</text>
<text text-anchor="start" x="191" y="-18.5" font-family="Helvetica,sans-Serif" font-size="10.00">+ any()</text>
<text text-anchor="start" x="191" y="-7.5" font-family="Helvetica,sans-Serif" font-size="10.00">+ toRequest()</text>
</g>
<!-- Node2 -->
<g id="node2" class="node"><title>Node2</title>
<g id="a_node2"><a xlink:href="enumcom_1_1cloudera_1_1impala_1_1authorization_1_1Privilege.html" target="_top" xlink:title="{com.cloudera.impala.authorization.\lPrivilege\n|+ ALL\l+ ALTER\l+ DROP\l+ CREATE\l+ INSERT\l+ SELECT\l+ VIEW_METADATA\l+ ANY\l|+ getHiveActions()\l+ getAnyOf()\l&#45; Privilege()\l&#45; Privilege()\l}">
<polygon fill="white" stroke="black" points="44,-195 44,-373 212,-373 212,-195 44,-195"/>
<text text-anchor="start" x="52" y="-361" font-family="Helvetica,sans-Serif" font-size="10.00">com.cloudera.impala.authorization.</text>
<text text-anchor="middle" x="128" y="-350" font-family="Helvetica,sans-Serif" font-size="10.00">Privilege</text>
<polyline fill="none" stroke="black" points="44,-343 212,-343 "/>
<text text-anchor="start" x="52" y="-331" font-family="Helvetica,sans-Serif" font-size="10.00">+ ALL</text>
<text text-anchor="start" x="52" y="-320" font-family="Helvetica,sans-Serif" font-size="10.00">+ ALTER</text>
<text text-anchor="start" x="52" y="-309" font-family="Helvetica,sans-Serif" font-size="10.00">+ DROP</text>
<text text-anchor="start" x="52" y="-298" font-family="Helvetica,sans-Serif" font-size="10.00">+ CREATE</text>
<text text-anchor="start" x="52" y="-287" font-family="Helvetica,sans-Serif" font-size="10.00">+ INSERT</text>
<text text-anchor="start" x="52" y="-276" font-family="Helvetica,sans-Serif" font-size="10.00">+ SELECT</text>
<text text-anchor="start" x="52" y="-265" font-family="Helvetica,sans-Serif" font-size="10.00">+ VIEW_METADATA</text>
<text text-anchor="start" x="52" y="-254" font-family="Helvetica,sans-Serif" font-size="10.00">+ ANY</text>
<polyline fill="none" stroke="black" points="44,-247 212,-247 "/>
<text text-anchor="start" x="52" y="-235" font-family="Helvetica,sans-Serif" font-size="10.00">+ getHiveActions()</text>
<text text-anchor="start" x="52" y="-224" font-family="Helvetica,sans-Serif" font-size="10.00">+ getAnyOf()</text>
<text text-anchor="start" x="52" y="-213" font-family="Helvetica,sans-Serif" font-size="10.00">&#45; Privilege()</text>
<text text-anchor="start" x="52" y="-202" font-family="Helvetica,sans-Serif" font-size="10.00">&#45; Privilege()</text>
</a>
</g>
</g>
<!-- Node2&#45;&gt;Node1 -->
<g id="edge1" class="edge"><title>Node2&#45;&gt;Node1</title>
<path fill="none" stroke="#404040" d="M186.546,-194.971C195.152,-182.031 203.988,-168.745 212.507,-155.935"/>
<polygon fill="none" stroke="#404040" points="212.617,-155.771 212.609,-148.559 219.262,-145.779 219.27,-152.99 212.617,-155.771"/>
<text text-anchor="middle" x="231.5" y="-167.5" font-family="Helvetica,sans-Serif" font-size="10.00"> ~privilege_</text>
</g>
<!-- Node3 -->
<g id="node3" class="node"><title>Node3</title>
<polygon fill="white" stroke="#bfbfbf" points="-0.5,-422.5 -0.5,-479.5 142.5,-479.5 142.5,-422.5 -0.5,-422.5"/>
<text text-anchor="middle" x="71" y="-467.5" font-family="Helvetica,sans-Serif" font-size="10.00">EnumSet&lt; DBModelAction &gt;</text>
<polyline fill="none" stroke="#bfbfbf" points="-0.5,-460.5 142.5,-460.5 "/>
<text text-anchor="middle" x="71" y="-448.5" font-family="Helvetica,sans-Serif" font-size="10.00"> </text>
<polyline fill="none" stroke="#bfbfbf" points="-0.5,-441.5 142.5,-441.5 "/>
<text text-anchor="middle" x="71" y="-429.5" font-family="Helvetica,sans-Serif" font-size="10.00"> </text>
</g>
<!-- Node3&#45;&gt;Node2 -->
<g id="edge2" class="edge"><title>Node3&#45;&gt;Node2</title>
<path fill="none" stroke="#404040" d="M80.5405,-422.383C84.2545,-411.632 88.7546,-398.605 93.4864,-384.908"/>
<polygon fill="none" stroke="#404040" points="93.5851,-384.622 91.7635,-377.645 97.5034,-373.28 99.325,-380.257 93.5851,-384.622"/>
<text text-anchor="middle" x="109" y="-395.5" font-family="Helvetica,sans-Serif" font-size="10.00"> &#45;actions</text>
</g>
<!-- Node4 -->
<g id="node4" class="node"><title>Node4</title>
<polygon fill="white" stroke="#bfbfbf" points="161,-422.5 161,-479.5 211,-479.5 211,-422.5 161,-422.5"/>
<text text-anchor="middle" x="186" y="-467.5" font-family="Helvetica,sans-Serif" font-size="10.00">boolean</text>
<polyline fill="none" stroke="#bfbfbf" points="161,-460.5 211,-460.5 "/>
<text text-anchor="middle" x="186" y="-448.5" font-family="Helvetica,sans-Serif" font-size="10.00"> </text>
<polyline fill="none" stroke="#bfbfbf" points="161,-441.5 211,-441.5 "/>
<text text-anchor="middle" x="186" y="-429.5" font-family="Helvetica,sans-Serif" font-size="10.00"> </text>
</g>
<!-- Node4&#45;&gt;Node2 -->
<g id="edge3" class="edge"><title>Node4&#45;&gt;Node2</title>
<path fill="none" stroke="#404040" d="M176.292,-422.383C172.513,-411.632 167.934,-398.605 163.119,-384.908"/>
<polygon fill="none" stroke="#404040" points="163.011,-384.601 157.248,-380.267 159.032,-373.28 164.795,-377.614 163.011,-384.601"/>
<text text-anchor="middle" x="188" y="-395.5" font-family="Helvetica,sans-Serif" font-size="10.00"> &#45;anyOf_</text>
</g>
<!-- Node5 -->
<g id="node5" class="node"><title>Node5</title>
<g id="a_node5"><a xlink:href="interfacecom_1_1cloudera_1_1impala_1_1authorization_1_1Authorizeable.html" target="_top" xlink:title="{com.cloudera.impala.authorization.\lAuthorizeable\n||+ getHiveAuthorizeableHierarchy()\l+ getName()\l}">
<polygon fill="white" stroke="black" points="230,-244.5 230,-323.5 398,-323.5 398,-244.5 230,-244.5"/>
<text text-anchor="start" x="238" y="-311.5" font-family="Helvetica,sans-Serif" font-size="10.00">com.cloudera.impala.authorization.</text>
<text text-anchor="middle" x="314" y="-300.5" font-family="Helvetica,sans-Serif" font-size="10.00">Authorizeable</text>
<polyline fill="none" stroke="black" points="230,-293.5 398,-293.5 "/>
<text text-anchor="middle" x="314" y="-281.5" font-family="Helvetica,sans-Serif" font-size="10.00"> </text>
<polyline fill="none" stroke="black" points="230,-274.5 398,-274.5 "/>
<text text-anchor="start" x="238" y="-262.5" font-family="Helvetica,sans-Serif" font-size="10.00">+ getHiveAuthorizeableHierarchy()</text>
<text text-anchor="start" x="238" y="-251.5" font-family="Helvetica,sans-Serif" font-size="10.00">+ getName()</text>
</a>
</g>
</g>
<!-- Node5&#45;&gt;Node1 -->
<g id="edge4" class="edge"><title>Node5&#45;&gt;Node1</title>
<path fill="none" stroke="#404040" d="M305.27,-244.179C299.786,-219.792 292.497,-187.381 285.753,-157.39"/>
<polygon fill="none" stroke="#404040" points="285.734,-157.307 280.515,-152.331 283.101,-145.599 288.32,-150.575 285.734,-157.307"/>
<text text-anchor="middle" x="326.5" y="-167.5" font-family="Helvetica,sans-Serif" font-size="10.00"> ~authorizeable_</text>
</g>
</g>
</svg>
