<?xml version="1.0" encoding="UTF-8" standalone="no"?>
<!DOCTYPE svg PUBLIC "-//W3C//DTD SVG 1.1//EN"
 "http://www.w3.org/Graphics/SVG/1.1/DTD/svg11.dtd">
<!-- Generated by graphviz version 2.36.0 (20140111.2315)
 -->
<!-- Title: com.cloudera.impala.analysis.FunctionParams Pages: 1 -->
<svg width="417pt" height="284pt"
 viewBox="0.00 0.00 417.00 284.00" xmlns="http://www.w3.org/2000/svg" xmlns:xlink="http://www.w3.org/1999/xlink">
<g id="graph0" class="graph" transform="scale(1 1) rotate(0) translate(4 280)">
<title>com.cloudera.impala.analysis.FunctionParams</title>
<polygon fill="white" stroke="none" points="-4,4 -4,-280 413,-280 413,4 -4,4"/>
<!-- Node1 -->
<g id="node1" class="node"><title>Node1</title>
<polygon fill="#bfbfbf" stroke="black" points="160.5,-1 160.5,-157 309.5,-157 309.5,-1 160.5,-1"/>
<text text-anchor="start" x="168.5" y="-145" font-family="Helvetica,sans-Serif" font-size="10.00">com.cloudera.impala.analysis.</text>
<text text-anchor="middle" x="235" y="-134" font-family="Helvetica,sans-Serif" font-size="10.00">FunctionParams</text>
<polyline fill="none" stroke="black" points="160.5,-127 309.5,-127 "/>
<text text-anchor="middle" x="235" y="-115" font-family="Helvetica,sans-Serif" font-size="10.00"> </text>
<polyline fill="none" stroke="black" points="160.5,-108 309.5,-108 "/>
<text text-anchor="start" x="168.5" y="-96" font-family="Helvetica,sans-Serif" font-size="10.00">+ FunctionParams()</text>
<text text-anchor="start" x="168.5" y="-85" font-family="Helvetica,sans-Serif" font-size="10.00">+ FunctionParams()</text>
<text text-anchor="start" x="168.5" y="-74" font-family="Helvetica,sans-Serif" font-size="10.00">+ isStar()</text>
<text text-anchor="start" x="168.5" y="-63" font-family="Helvetica,sans-Serif" font-size="10.00">+ isDistinct()</text>
<text text-anchor="start" x="168.5" y="-52" font-family="Helvetica,sans-Serif" font-size="10.00">+ exprs()</text>
<text text-anchor="start" x="168.5" y="-41" font-family="Helvetica,sans-Serif" font-size="10.00">+ setIsDistinct()</text>
<text text-anchor="start" x="168.5" y="-30" font-family="Helvetica,sans-Serif" font-size="10.00">+ size()</text>
<text text-anchor="start" x="168.5" y="-19" font-family="Helvetica,sans-Serif" font-size="10.00">+ createStarParam()</text>
<text text-anchor="start" x="168.5" y="-8" font-family="Helvetica,sans-Serif" font-size="10.00">&#45; FunctionParams()</text>
</g>
<!-- Node2 -->
<g id="node2" class="node"><title>Node2</title>
<g id="a_node2"><a xlink:href="classCloneable.html" target="_top" xlink:title="{Cloneable\n||}">
<polygon fill="white" stroke="black" points="0,-212.5 0,-269.5 60,-269.5 60,-212.5 0,-212.5"/>
<text text-anchor="middle" x="30" y="-257.5" font-family="Helvetica,sans-Serif" font-size="10.00">Cloneable</text>
<polyline fill="none" stroke="black" points="0,-250.5 60,-250.5 "/>
<text text-anchor="middle" x="30" y="-238.5" font-family="Helvetica,sans-Serif" font-size="10.00"> </text>
<polyline fill="none" stroke="black" points="0,-231.5 60,-231.5 "/>
<text text-anchor="middle" x="30" y="-219.5" font-family="Helvetica,sans-Serif" font-size="10.00"> </text>
</a>
</g>
</g>
<!-- Node2&#45;&gt;Node1 -->
<g id="edge1" class="edge"><title>Node2&#45;&gt;Node1</title>
<path fill="none" stroke="midnightblue" d="M67.8987,-206.899C68.2671,-206.597 68.6342,-206.298 69,-206 98.3248,-182.134 131.369,-156.757 160.21,-135.079"/>
<polygon fill="none" stroke="midnightblue" points="65.4978,-204.344 60.061,-213.438 69.982,-209.719 65.4978,-204.344"/>
</g>
<!-- Node3 -->
<g id="node3" class="node"><title>Node3</title>
<polygon fill="white" stroke="#bfbfbf" points="78.5,-207 78.5,-275 251.5,-275 251.5,-207 78.5,-207"/>
<text text-anchor="start" x="86.5" y="-263" font-family="Helvetica,sans-Serif" font-size="10.00">List&lt; com.cloudera.impala.analysis.</text>
<text text-anchor="middle" x="165" y="-252" font-family="Helvetica,sans-Serif" font-size="10.00">Expr &gt;</text>
<polyline fill="none" stroke="#bfbfbf" points="78.5,-245 251.5,-245 "/>
<text text-anchor="middle" x="165" y="-233" font-family="Helvetica,sans-Serif" font-size="10.00"> </text>
<polyline fill="none" stroke="#bfbfbf" points="78.5,-226 251.5,-226 "/>
<text text-anchor="middle" x="165" y="-214" font-family="Helvetica,sans-Serif" font-size="10.00"> </text>
</g>
<!-- Node3&#45;&gt;Node1 -->
<g id="edge2" class="edge"><title>Node3&#45;&gt;Node1</title>
<path fill="none" stroke="#404040" d="M179.504,-206.848C184.497,-195.436 190.348,-182.061 196.345,-168.355"/>
<polygon fill="none" stroke="#404040" points="196.361,-168.317 195.101,-161.217 201.171,-157.323 202.431,-164.424 196.361,-168.317"/>
<text text-anchor="middle" x="210" y="-179.5" font-family="Helvetica,sans-Serif" font-size="10.00"> &#45;exprs_</text>
</g>
<!-- Node4 -->
<g id="node4" class="node"><title>Node4</title>
<polygon fill="white" stroke="#bfbfbf" points="269.5,-212.5 269.5,-269.5 340.5,-269.5 340.5,-212.5 269.5,-212.5"/>
<text text-anchor="middle" x="305" y="-257.5" font-family="Helvetica,sans-Serif" font-size="10.00">final boolean</text>
<polyline fill="none" stroke="#bfbfbf" points="269.5,-250.5 340.5,-250.5 "/>
<text text-anchor="middle" x="305" y="-238.5" font-family="Helvetica,sans-Serif" font-size="10.00"> </text>
<polyline fill="none" stroke="#bfbfbf" points="269.5,-231.5 340.5,-231.5 "/>
<text text-anchor="middle" x="305" y="-219.5" font-family="Helvetica,sans-Serif" font-size="10.00"> </text>
</g>
<!-- Node4&#45;&gt;Node1 -->
<g id="edge3" class="edge"><title>Node4&#45;&gt;Node1</title>
<path fill="none" stroke="#404040" d="M292.967,-212.495C287.472,-199.936 280.625,-184.287 273.583,-168.19"/>
<polygon fill="none" stroke="#404040" points="273.501,-168.002 267.431,-164.108 268.691,-157.008 274.76,-160.901 273.501,-168.002"/>
<text text-anchor="middle" x="299.5" y="-179.5" font-family="Helvetica,sans-Serif" font-size="10.00"> &#45;isStar_</text>
</g>
<!-- Node5 -->
<g id="node5" class="node"><title>Node5</title>
<polygon fill="white" stroke="#bfbfbf" points="359,-212.5 359,-269.5 409,-269.5 409,-212.5 359,-212.5"/>
<text text-anchor="middle" x="384" y="-257.5" font-family="Helvetica,sans-Serif" font-size="10.00">boolean</text>
<polyline fill="none" stroke="#bfbfbf" points="359,-250.5 409,-250.5 "/>
<text text-anchor="middle" x="384" y="-238.5" font-family="Helvetica,sans-Serif" font-size="10.00"> </text>
<polyline fill="none" stroke="#bfbfbf" points="359,-231.5 409,-231.5 "/>
<text text-anchor="middle" x="384" y="-219.5" font-family="Helvetica,sans-Serif" font-size="10.00"> </text>
</g>
<!-- Node5&#45;&gt;Node1 -->
<g id="edge4" class="edge"><title>Node5&#45;&gt;Node1</title>
<path fill="none" stroke="#404040" d="M358.724,-212.858C346.492,-199.723 331.056,-183.148 315.273,-166.199"/>
<polygon fill="none" stroke="#404040" points="315.18,-166.1 308.164,-164.435 307.002,-157.318 314.019,-158.983 315.18,-166.1"/>
<text text-anchor="middle" x="358.5" y="-179.5" font-family="Helvetica,sans-Serif" font-size="10.00"> &#45;isDistinct_</text>
</g>
</g>
</svg>
