<?xml version="1.0" encoding="UTF-8" standalone="no"?>
<!DOCTYPE svg PUBLIC "-//W3C//DTD SVG 1.1//EN"
 "http://www.w3.org/Graphics/SVG/1.1/DTD/svg11.dtd">
<!-- Generated by graphviz version 2.36.0 (20140111.2315)
 -->
<!-- Title: impala::DictDecoderBase Pages: 1 -->
<svg width="138pt" height="216pt"
 viewBox="0.00 0.00 138.00 216.00" xmlns="http://www.w3.org/2000/svg" xmlns:xlink="http://www.w3.org/1999/xlink">
<g id="graph0" class="graph" transform="scale(1 1) rotate(0) translate(4 212)">
<title>impala::DictDecoderBase</title>
<polygon fill="white" stroke="none" points="-4,4 -4,-212 134,-212 134,4 -4,4"/>
<!-- Node1 -->
<g id="node1" class="node"><title>Node1</title>
<polygon fill="#bfbfbf" stroke="black" points="1,-128.5 1,-207.5 129,-207.5 129,-128.5 1,-128.5"/>
<text text-anchor="middle" x="65" y="-195.5" font-family="Helvetica,sans-Serif" font-size="10.00">impala::DictDecoderBase</text>
<polyline fill="none" stroke="black" points="1,-188.5 129,-188.5 "/>
<text text-anchor="start" x="9" y="-176.5" font-family="Helvetica,sans-Serif" font-size="10.00"># data_decoder_</text>
<polyline fill="none" stroke="black" points="1,-169.5 129,-169.5 "/>
<text text-anchor="start" x="9" y="-157.5" font-family="Helvetica,sans-Serif" font-size="10.00">+ SetData()</text>
<text text-anchor="start" x="9" y="-146.5" font-family="Helvetica,sans-Serif" font-size="10.00">+ ~DictDecoderBase()</text>
<text text-anchor="start" x="9" y="-135.5" font-family="Helvetica,sans-Serif" font-size="10.00">+ num_entries()</text>
</g>
<!-- Node2 -->
<g id="node2" class="node"><title>Node2</title>
<g id="a_node2"><a xlink:href="classimpala_1_1DictDecoder.html" target="_top" xlink:title="{impala::DictDecoder\&lt; T \&gt;\n|&#45; dict_\l|+ DictDecoder()\l+ num_entries()\l+ GetValue()\l+ GetValue()\l}">
<polygon fill="white" stroke="black" points="0,-1 0,-91 130,-91 130,-1 0,-1"/>
<text text-anchor="middle" x="65" y="-79" font-family="Helvetica,sans-Serif" font-size="10.00">impala::DictDecoder&lt; T &gt;</text>
<polyline fill="none" stroke="black" points="0,-72 130,-72 "/>
<text text-anchor="start" x="8" y="-60" font-family="Helvetica,sans-Serif" font-size="10.00">&#45; dict_</text>
<polyline fill="none" stroke="black" points="0,-53 130,-53 "/>
<text text-anchor="start" x="8" y="-41" font-family="Helvetica,sans-Serif" font-size="10.00">+ DictDecoder()</text>
<text text-anchor="start" x="8" y="-30" font-family="Helvetica,sans-Serif" font-size="10.00">+ num_entries()</text>
<text text-anchor="start" x="8" y="-19" font-family="Helvetica,sans-Serif" font-size="10.00">+ GetValue()</text>
<text text-anchor="start" x="8" y="-8" font-family="Helvetica,sans-Serif" font-size="10.00">+ GetValue()</text>
</a>
</g>
</g>
<!-- Node1&#45;&gt;Node2 -->
<g id="edge1" class="edge"><title>Node1&#45;&gt;Node2</title>
<path fill="none" stroke="midnightblue" d="M65,-118.176C65,-109.318 65,-100.123 65,-91.4012"/>
<polygon fill="none" stroke="midnightblue" points="61.5001,-118.371 65,-128.371 68.5001,-118.371 61.5001,-118.371"/>
</g>
</g>
</svg>
