<?xml version="1.0" encoding="UTF-8" standalone="no"?>
<!DOCTYPE svg PUBLIC "-//W3C//DTD SVG 1.1//EN"
 "http://www.w3.org/Graphics/SVG/1.1/DTD/svg11.dtd">
<!-- Generated by graphviz version 2.36.0 (20140111.2315)
 -->
<!-- Title: impala::ThriftClientImpl Pages: 1 -->
<svg width="1006pt" height="726pt"
 viewBox="0.00 0.00 1006.00 726.00" xmlns="http://www.w3.org/2000/svg" xmlns:xlink="http://www.w3.org/1999/xlink">
<g id="graph0" class="graph" transform="scale(1 1) rotate(0) translate(4 722)">
<title>impala::ThriftClientImpl</title>
<polygon fill="white" stroke="none" points="-4,4 -4,-722 1002,-722 1002,4 -4,4"/>
<!-- Node1 -->
<g id="node1" class="node"><title>Node1</title>
<polygon fill="#bfbfbf" stroke="black" points="587,-0.5 587,-145.5 705,-145.5 705,-0.5 587,-0.5"/>
<text text-anchor="middle" x="646" y="-133.5" font-family="Helvetica,sans-Serif" font-size="10.00">impala::ThriftClientImpl</text>
<polyline fill="none" stroke="black" points="587,-126.5 705,-126.5 "/>
<text text-anchor="middle" x="646" y="-114.5" font-family="Helvetica,sans-Serif" font-size="10.00"> </text>
<polyline fill="none" stroke="black" points="587,-107.5 705,-107.5 "/>
<text text-anchor="start" x="595" y="-95.5" font-family="Helvetica,sans-Serif" font-size="10.00">+ ~ThriftClientImpl()</text>
<text text-anchor="start" x="595" y="-84.5" font-family="Helvetica,sans-Serif" font-size="10.00">+ address()</text>
<text text-anchor="start" x="595" y="-73.5" font-family="Helvetica,sans-Serif" font-size="10.00">+ Open()</text>
<text text-anchor="start" x="595" y="-62.5" font-family="Helvetica,sans-Serif" font-size="10.00">+ OpenWithRetry()</text>
<text text-anchor="start" x="595" y="-51.5" font-family="Helvetica,sans-Serif" font-size="10.00">+ Close()</text>
<text text-anchor="start" x="595" y="-40.5" font-family="Helvetica,sans-Serif" font-size="10.00">+ setRecvTimeout()</text>
<text text-anchor="start" x="595" y="-29.5" font-family="Helvetica,sans-Serif" font-size="10.00">+ setSendTimeout()</text>
<text text-anchor="start" x="595" y="-18.5" font-family="Helvetica,sans-Serif" font-size="10.00"># ThriftClientImpl()</text>
<text text-anchor="start" x="595" y="-7.5" font-family="Helvetica,sans-Serif" font-size="10.00"># CreateSocket()</text>
</g>
<!-- Node2 -->
<g id="node2" class="node"><title>Node2</title>
<g id="a_node2"><a xlink:href="classimpala_1_1Status.html" target="_top" xlink:title="{impala::Status\n||+ Status()\l+ Status()\l+ Status()\l+ Status()\l+ Status()\l+ Status()\l+ Status()\l+ Status()\l+ Status()\l+ Status()\land 23 more...\l+ Expected()\l&#45; Status()\l}">
<polygon fill="white" stroke="black" points="100,-194.5 100,-383.5 180,-383.5 180,-194.5 100,-194.5"/>
<text text-anchor="middle" x="140" y="-371.5" font-family="Helvetica,sans-Serif" font-size="10.00">impala::Status</text>
<polyline fill="none" stroke="black" points="100,-364.5 180,-364.5 "/>
<text text-anchor="middle" x="140" y="-352.5" font-family="Helvetica,sans-Serif" font-size="10.00"> </text>
<polyline fill="none" stroke="black" points="100,-345.5 180,-345.5 "/>
<text text-anchor="start" x="108" y="-333.5" font-family="Helvetica,sans-Serif" font-size="10.00">+ Status()</text>
<text text-anchor="start" x="108" y="-322.5" font-family="Helvetica,sans-Serif" font-size="10.00">+ Status()</text>
<text text-anchor="start" x="108" y="-311.5" font-family="Helvetica,sans-Serif" font-size="10.00">+ Status()</text>
<text text-anchor="start" x="108" y="-300.5" font-family="Helvetica,sans-Serif" font-size="10.00">+ Status()</text>
<text text-anchor="start" x="108" y="-289.5" font-family="Helvetica,sans-Serif" font-size="10.00">+ Status()</text>
<text text-anchor="start" x="108" y="-278.5" font-family="Helvetica,sans-Serif" font-size="10.00">+ Status()</text>
<text text-anchor="start" x="108" y="-267.5" font-family="Helvetica,sans-Serif" font-size="10.00">+ Status()</text>
<text text-anchor="start" x="108" y="-256.5" font-family="Helvetica,sans-Serif" font-size="10.00">+ Status()</text>
<text text-anchor="start" x="108" y="-245.5" font-family="Helvetica,sans-Serif" font-size="10.00">+ Status()</text>
<text text-anchor="start" x="108" y="-234.5" font-family="Helvetica,sans-Serif" font-size="10.00">+ Status()</text>
<text text-anchor="start" x="108" y="-223.5" font-family="Helvetica,sans-Serif" font-size="10.00">and 23 more...</text>
<text text-anchor="start" x="108" y="-212.5" font-family="Helvetica,sans-Serif" font-size="10.00">+ Expected()</text>
<text text-anchor="start" x="108" y="-201.5" font-family="Helvetica,sans-Serif" font-size="10.00">&#45; Status()</text>
</a>
</g>
</g>
<!-- Node2&#45;&gt;Node1 -->
<g id="edge1" class="edge"><title>Node2&#45;&gt;Node1</title>
<path fill="none" stroke="#404040" d="M180.058,-262.352C223.569,-235.283 295.749,-192.648 362,-164 432.507,-133.511 516.792,-108.107 575.137,-92.1494"/>
<polygon fill="none" stroke="#404040" points="575.231,-92.1241 579.976,-86.6947 586.813,-88.9872 582.068,-94.4165 575.231,-92.1241"/>
<text text-anchor="middle" x="416" y="-167.5" font-family="Helvetica,sans-Serif" font-size="10.00"> #socket_create_status_</text>
</g>
<!-- Node2&#45;&gt;Node2 -->
<g id="edge6" class="edge"><title>Node2&#45;&gt;Node2</title>
<path fill="none" stroke="#404040" d="M180.119,-310.86C190.332,-309.423 198,-302.137 198,-289 198,-281.405 195.437,-275.766 191.301,-272.082"/>
<polygon fill="none" stroke="#404040" points="191.095,-271.99 183.99,-273.224 180.119,-267.14 187.223,-265.906 191.095,-271.99"/>
<text text-anchor="middle" x="259" y="-303" font-family="Helvetica,sans-Serif" font-size="10.00"> +CANCELLED</text>
<text text-anchor="middle" x="259" y="-292" font-family="Helvetica,sans-Serif" font-size="10.00">+OK</text>
<text text-anchor="middle" x="259" y="-281" font-family="Helvetica,sans-Serif" font-size="10.00">+MEM_LIMIT_EXCEEDED</text>
<text text-anchor="middle" x="259" y="-270" font-family="Helvetica,sans-Serif" font-size="10.00">+DEPRECATED_RPC</text>
</g>
<!-- Node3 -->
<g id="node3" class="node"><title>Node3</title>
<g id="a_node3"><a xlink:href="classimpala_1_1ErrorMsg.html" target="_top" xlink:title="{impala::ErrorMsg\n||+ ErrorMsg()\l+ ErrorMsg()\l+ ErrorMsg()\l+ ErrorMsg()\l+ ErrorMsg()\l+ ErrorMsg()\l+ ErrorMsg()\l+ ErrorMsg()\l+ ErrorMsg()\l+ ErrorMsg()\land 9 more...\l+ Init()\l}">
<polygon fill="white" stroke="black" points="94.5,-433 94.5,-611 185.5,-611 185.5,-433 94.5,-433"/>
<text text-anchor="middle" x="140" y="-599" font-family="Helvetica,sans-Serif" font-size="10.00">impala::ErrorMsg</text>
<polyline fill="none" stroke="black" points="94.5,-592 185.5,-592 "/>
<text text-anchor="middle" x="140" y="-580" font-family="Helvetica,sans-Serif" font-size="10.00"> </text>
<polyline fill="none" stroke="black" points="94.5,-573 185.5,-573 "/>
<text text-anchor="start" x="102.5" y="-561" font-family="Helvetica,sans-Serif" font-size="10.00">+ ErrorMsg()</text>
<text text-anchor="start" x="102.5" y="-550" font-family="Helvetica,sans-Serif" font-size="10.00">+ ErrorMsg()</text>
<text text-anchor="start" x="102.5" y="-539" font-family="Helvetica,sans-Serif" font-size="10.00">+ ErrorMsg()</text>
<text text-anchor="start" x="102.5" y="-528" font-family="Helvetica,sans-Serif" font-size="10.00">+ ErrorMsg()</text>
<text text-anchor="start" x="102.5" y="-517" font-family="Helvetica,sans-Serif" font-size="10.00">+ ErrorMsg()</text>
<text text-anchor="start" x="102.5" y="-506" font-family="Helvetica,sans-Serif" font-size="10.00">+ ErrorMsg()</text>
<text text-anchor="start" x="102.5" y="-495" font-family="Helvetica,sans-Serif" font-size="10.00">+ ErrorMsg()</text>
<text text-anchor="start" x="102.5" y="-484" font-family="Helvetica,sans-Serif" font-size="10.00">+ ErrorMsg()</text>
<text text-anchor="start" x="102.5" y="-473" font-family="Helvetica,sans-Serif" font-size="10.00">+ ErrorMsg()</text>
<text text-anchor="start" x="102.5" y="-462" font-family="Helvetica,sans-Serif" font-size="10.00">+ ErrorMsg()</text>
<text text-anchor="start" x="102.5" y="-451" font-family="Helvetica,sans-Serif" font-size="10.00">and 9 more...</text>
<text text-anchor="start" x="102.5" y="-440" font-family="Helvetica,sans-Serif" font-size="10.00">+ Init()</text>
</a>
</g>
</g>
<!-- Node3&#45;&gt;Node2 -->
<g id="edge2" class="edge"><title>Node3&#45;&gt;Node2</title>
<path fill="none" stroke="#404040" d="M140,-432.68C140,-420.644 140,-408.19 140,-395.883"/>
<polygon fill="none" stroke="#404040" points="140,-395.646 136,-389.646 140,-383.646 144,-389.646 140,-395.646"/>
<text text-anchor="middle" x="155.5" y="-405.5" font-family="Helvetica,sans-Serif" font-size="10.00"> &#45;msg_</text>
</g>
<!-- Node4 -->
<g id="node4" class="node"><title>Node4</title>
<polygon fill="white" stroke="#bfbfbf" points="-0.5,-660.5 -0.5,-717.5 104.5,-717.5 104.5,-660.5 -0.5,-660.5"/>
<text text-anchor="middle" x="52" y="-705.5" font-family="Helvetica,sans-Serif" font-size="10.00">vector&lt; std::string &gt;</text>
<polyline fill="none" stroke="#bfbfbf" points="-0.5,-698.5 104.5,-698.5 "/>
<text text-anchor="middle" x="52" y="-686.5" font-family="Helvetica,sans-Serif" font-size="10.00"> </text>
<polyline fill="none" stroke="#bfbfbf" points="-0.5,-679.5 104.5,-679.5 "/>
<text text-anchor="middle" x="52" y="-667.5" font-family="Helvetica,sans-Serif" font-size="10.00"> </text>
</g>
<!-- Node4&#45;&gt;Node3 -->
<g id="edge3" class="edge"><title>Node4&#45;&gt;Node3</title>
<path fill="none" stroke="#404040" d="M66.7292,-660.383C72.95,-648.719 80.5995,-634.376 88.5844,-619.404"/>
<polygon fill="none" stroke="#404040" points="88.7952,-619.009 88.0894,-611.832 94.4423,-608.421 95.1482,-615.597 88.7952,-619.009"/>
<text text-anchor="middle" x="101" y="-633.5" font-family="Helvetica,sans-Serif" font-size="10.00"> &#45;details_</text>
</g>
<!-- Node5 -->
<g id="node5" class="node"><title>Node5</title>
<polygon fill="white" stroke="#bfbfbf" points="122.5,-660.5 122.5,-717.5 157.5,-717.5 157.5,-660.5 122.5,-660.5"/>
<text text-anchor="middle" x="140" y="-705.5" font-family="Helvetica,sans-Serif" font-size="10.00">type</text>
<polyline fill="none" stroke="#bfbfbf" points="122.5,-698.5 157.5,-698.5 "/>
<text text-anchor="middle" x="140" y="-686.5" font-family="Helvetica,sans-Serif" font-size="10.00"> </text>
<polyline fill="none" stroke="#bfbfbf" points="122.5,-679.5 157.5,-679.5 "/>
<text text-anchor="middle" x="140" y="-667.5" font-family="Helvetica,sans-Serif" font-size="10.00"> </text>
</g>
<!-- Node5&#45;&gt;Node3 -->
<g id="edge4" class="edge"><title>Node5&#45;&gt;Node3</title>
<path fill="none" stroke="#404040" d="M140,-660.383C140,-649.739 140,-636.866 140,-623.319"/>
<polygon fill="none" stroke="#404040" points="140,-623.28 136,-617.28 140,-611.28 144,-617.28 140,-623.28"/>
<text text-anchor="middle" x="155.5" y="-633.5" font-family="Helvetica,sans-Serif" font-size="10.00"> &#45;error_</text>
</g>
<!-- Node6 -->
<g id="node6" class="node"><title>Node6</title>
<polygon fill="white" stroke="#bfbfbf" points="175.5,-660.5 175.5,-717.5 216.5,-717.5 216.5,-660.5 175.5,-660.5"/>
<text text-anchor="middle" x="196" y="-705.5" font-family="Helvetica,sans-Serif" font-size="10.00">string</text>
<polyline fill="none" stroke="#bfbfbf" points="175.5,-698.5 216.5,-698.5 "/>
<text text-anchor="middle" x="196" y="-686.5" font-family="Helvetica,sans-Serif" font-size="10.00"> </text>
<polyline fill="none" stroke="#bfbfbf" points="175.5,-679.5 216.5,-679.5 "/>
<text text-anchor="middle" x="196" y="-667.5" font-family="Helvetica,sans-Serif" font-size="10.00"> </text>
</g>
<!-- Node6&#45;&gt;Node3 -->
<g id="edge5" class="edge"><title>Node6&#45;&gt;Node3</title>
<path fill="none" stroke="#404040" d="M186.627,-660.383C182.978,-649.632 178.557,-636.605 173.908,-622.908"/>
<polygon fill="none" stroke="#404040" points="173.818,-622.643 168.102,-618.247 169.962,-611.28 175.678,-615.676 173.818,-622.643"/>
<text text-anchor="middle" x="206" y="-633.5" font-family="Helvetica,sans-Serif" font-size="10.00"> &#45;message_</text>
</g>
<!-- Node7 -->
<g id="node7" class="node"><title>Node7</title>
<polygon fill="white" stroke="#bfbfbf" points="338.5,-249.5 338.5,-328.5 441.5,-328.5 441.5,-249.5 338.5,-249.5"/>
<text text-anchor="start" x="346.5" y="-316.5" font-family="Helvetica,sans-Serif" font-size="10.00">shared_ptr&lt; apache</text>
<text text-anchor="start" x="346.5" y="-305.5" font-family="Helvetica,sans-Serif" font-size="10.00">::thrift::protocol::</text>
<text text-anchor="middle" x="390" y="-294.5" font-family="Helvetica,sans-Serif" font-size="10.00">TBinaryProtocol &gt;</text>
<polyline fill="none" stroke="#bfbfbf" points="338.5,-287.5 441.5,-287.5 "/>
<text text-anchor="middle" x="390" y="-275.5" font-family="Helvetica,sans-Serif" font-size="10.00"> </text>
<polyline fill="none" stroke="#bfbfbf" points="338.5,-268.5 441.5,-268.5 "/>
<text text-anchor="middle" x="390" y="-256.5" font-family="Helvetica,sans-Serif" font-size="10.00"> </text>
</g>
<!-- Node7&#45;&gt;Node1 -->
<g id="edge7" class="edge"><title>Node7&#45;&gt;Node1</title>
<path fill="none" stroke="#404040" d="M409.295,-249.454C419.674,-231.224 433.695,-210.002 450,-194 486.648,-158.032 535.985,-127.899 575.99,-106.826"/>
<polygon fill="none" stroke="#404040" points="576.085,-106.777 579.574,-100.466 586.742,-101.26 583.252,-107.571 576.085,-106.777"/>
<text text-anchor="middle" x="508.5" y="-167.5" font-family="Helvetica,sans-Serif" font-size="10.00"> #protocol_</text>
</g>
<!-- Node8 -->
<g id="node8" class="node"><title>Node8</title>
<polygon fill="white" stroke="#bfbfbf" points="459.5,-249.5 459.5,-328.5 562.5,-328.5 562.5,-249.5 459.5,-249.5"/>
<text text-anchor="start" x="467.5" y="-316.5" font-family="Helvetica,sans-Serif" font-size="10.00">shared_ptr&lt; apache</text>
<text text-anchor="start" x="467.5" y="-305.5" font-family="Helvetica,sans-Serif" font-size="10.00">::thrift::transport</text>
<text text-anchor="middle" x="511" y="-294.5" font-family="Helvetica,sans-Serif" font-size="10.00">::TSocket &gt;</text>
<polyline fill="none" stroke="#bfbfbf" points="459.5,-287.5 562.5,-287.5 "/>
<text text-anchor="middle" x="511" y="-275.5" font-family="Helvetica,sans-Serif" font-size="10.00"> </text>
<polyline fill="none" stroke="#bfbfbf" points="459.5,-268.5 562.5,-268.5 "/>
<text text-anchor="middle" x="511" y="-256.5" font-family="Helvetica,sans-Serif" font-size="10.00"> </text>
</g>
<!-- Node8&#45;&gt;Node1 -->
<g id="edge8" class="edge"><title>Node8&#45;&gt;Node1</title>
<path fill="none" stroke="#404040" d="M535.447,-249.246C551.834,-223.271 574.03,-188.085 594.235,-156.058"/>
<polygon fill="none" stroke="#404040" points="594.312,-155.935 594.13,-148.726 600.715,-145.786 600.896,-152.994 594.312,-155.935"/>
<text text-anchor="middle" x="608.5" y="-167.5" font-family="Helvetica,sans-Serif" font-size="10.00"> #socket_</text>
</g>
<!-- Node9 -->
<g id="node9" class="node"><title>Node9</title>
<polygon fill="white" stroke="#bfbfbf" points="581,-260.5 581,-317.5 711,-317.5 711,-260.5 581,-260.5"/>
<text text-anchor="middle" x="646" y="-305.5" font-family="Helvetica,sans-Serif" font-size="10.00">shared_ptr&lt; sasl::TSasl &gt;</text>
<polyline fill="none" stroke="#bfbfbf" points="581,-298.5 711,-298.5 "/>
<text text-anchor="middle" x="646" y="-286.5" font-family="Helvetica,sans-Serif" font-size="10.00"> </text>
<polyline fill="none" stroke="#bfbfbf" points="581,-279.5 711,-279.5 "/>
<text text-anchor="middle" x="646" y="-267.5" font-family="Helvetica,sans-Serif" font-size="10.00"> </text>
</g>
<!-- Node9&#45;&gt;Node1 -->
<g id="edge9" class="edge"><title>Node9&#45;&gt;Node1</title>
<path fill="none" stroke="#404040" d="M646,-260.461C646,-234.497 646,-194.233 646,-157.756"/>
<polygon fill="none" stroke="#404040" points="646,-157.556 642,-151.556 646,-145.556 650,-151.556 646,-157.556"/>
<text text-anchor="middle" x="676.5" y="-167.5" font-family="Helvetica,sans-Serif" font-size="10.00"> #sasl_client_</text>
</g>
<!-- Node10 -->
<g id="node10" class="node"><title>Node10</title>
<polygon fill="white" stroke="#bfbfbf" points="729.5,-249.5 729.5,-328.5 832.5,-328.5 832.5,-249.5 729.5,-249.5"/>
<text text-anchor="start" x="737.5" y="-316.5" font-family="Helvetica,sans-Serif" font-size="10.00">shared_ptr&lt; apache</text>
<text text-anchor="start" x="737.5" y="-305.5" font-family="Helvetica,sans-Serif" font-size="10.00">::thrift::transport</text>
<text text-anchor="middle" x="781" y="-294.5" font-family="Helvetica,sans-Serif" font-size="10.00">::TTransport &gt;</text>
<polyline fill="none" stroke="#bfbfbf" points="729.5,-287.5 832.5,-287.5 "/>
<text text-anchor="middle" x="781" y="-275.5" font-family="Helvetica,sans-Serif" font-size="10.00"> </text>
<polyline fill="none" stroke="#bfbfbf" points="729.5,-268.5 832.5,-268.5 "/>
<text text-anchor="middle" x="781" y="-256.5" font-family="Helvetica,sans-Serif" font-size="10.00"> </text>
</g>
<!-- Node10&#45;&gt;Node1 -->
<g id="edge10" class="edge"><title>Node10&#45;&gt;Node1</title>
<path fill="none" stroke="#404040" d="M760.633,-249.362C747.209,-224.561 728.868,-191.894 711,-164 709.257,-161.279 707.464,-158.528 705.634,-155.764"/>
<polygon fill="none" stroke="#404040" points="705.574,-155.675 698.906,-152.93 698.874,-145.719 705.543,-148.464 705.574,-155.675"/>
<text text-anchor="middle" x="744" y="-167.5" font-family="Helvetica,sans-Serif" font-size="10.00"> #transport_</text>
</g>
<!-- Node11 -->
<g id="node11" class="node"><title>Node11</title>
<g id="a_node11"><a xlink:href="classbool.html" target="_top" xlink:title="{bool\n||}">
<polygon fill="white" stroke="black" points="850.5,-260.5 850.5,-317.5 885.5,-317.5 885.5,-260.5 850.5,-260.5"/>
<text text-anchor="middle" x="868" y="-305.5" font-family="Helvetica,sans-Serif" font-size="10.00">bool</text>
<polyline fill="none" stroke="black" points="850.5,-298.5 885.5,-298.5 "/>
<text text-anchor="middle" x="868" y="-286.5" font-family="Helvetica,sans-Serif" font-size="10.00"> </text>
<polyline fill="none" stroke="black" points="850.5,-279.5 885.5,-279.5 "/>
<text text-anchor="middle" x="868" y="-267.5" font-family="Helvetica,sans-Serif" font-size="10.00"> </text>
</a>
</g>
</g>
<!-- Node11&#45;&gt;Node1 -->
<g id="edge11" class="edge"><title>Node11&#45;&gt;Node1</title>
<path fill="none" stroke="#404040" d="M865.38,-260.104C862.293,-240.024 855.58,-213.202 841,-194 809.224,-152.151 758.272,-121.525 716.419,-101.69"/>
<polygon fill="none" stroke="#404040" points="716.336,-101.652 709.213,-102.774 705.437,-96.6306 712.56,-95.5082 716.336,-101.652"/>
<text text-anchor="middle" x="838.5" y="-167.5" font-family="Helvetica,sans-Serif" font-size="10.00"> #ssl_</text>
</g>
<!-- Node12 -->
<g id="node12" class="node"><title>Node12</title>
<polygon fill="white" stroke="#bfbfbf" points="903.5,-260.5 903.5,-317.5 998.5,-317.5 998.5,-260.5 903.5,-260.5"/>
<text text-anchor="middle" x="951" y="-305.5" font-family="Helvetica,sans-Serif" font-size="10.00">TNetworkAddress</text>
<polyline fill="none" stroke="#bfbfbf" points="903.5,-298.5 998.5,-298.5 "/>
<text text-anchor="middle" x="951" y="-286.5" font-family="Helvetica,sans-Serif" font-size="10.00"> </text>
<polyline fill="none" stroke="#bfbfbf" points="903.5,-279.5 998.5,-279.5 "/>
<text text-anchor="middle" x="951" y="-267.5" font-family="Helvetica,sans-Serif" font-size="10.00"> </text>
</g>
<!-- Node12&#45;&gt;Node1 -->
<g id="edge12" class="edge"><title>Node12&#45;&gt;Node1</title>
<path fill="none" stroke="#404040" d="M937.616,-260.343C927.303,-240.632 911.821,-214.164 894,-194 847.276,-141.134 772.059,-109.35 716.697,-91.9049"/>
<polygon fill="none" stroke="#404040" points="716.679,-91.8997 709.773,-93.9745 705.202,-88.3975 712.108,-86.3227 716.679,-91.8997"/>
<text text-anchor="middle" x="898.5" y="-167.5" font-family="Helvetica,sans-Serif" font-size="10.00"> #address_</text>
</g>
</g>
</svg>
