<?xml version="1.0" encoding="UTF-8" standalone="no"?>
<!DOCTYPE svg PUBLIC "-//W3C//DTD SVG 1.1//EN"
 "http://www.w3.org/Graphics/SVG/1.1/DTD/svg11.dtd">
<!-- Generated by graphviz version 2.36.0 (20140111.2315)
 -->
<!-- Title: apache::thrift::transport::TSaslClientTransport Pages: 1 -->
<!--zoomable 532 -->
<svg id="main" version="1.1" xmlns="http://www.w3.org/2000/svg" xmlns:xlink="http://www.w3.org/1999/xlink" xml:space="preserve" onload="init(evt)">
<style type="text/css"><![CDATA[
.edge:hover path { stroke: red; }
.edge:hover polygon { stroke: red; fill: red; }
]]></style>
<script type="text/javascript"><![CDATA[
var edges = document.getElementsByTagName('g');
if (edges && edges.length) {
  for (var i=0;i<edges.length;i++) {
    if (edges[i].id.substr(0,4)=='edge') {
      edges[i].setAttribute('class','edge');
    }
  }
}
]]></script>
        <defs>
                <circle id="rim" cx="0" cy="0" r="7"/>
                <circle id="rim2" cx="0" cy="0" r="3.5"/>
                <g id="zoomPlus">
                        <use xlink:href="#rim" fill="#404040">
                                <set attributeName="fill" to="#808080" begin="zoomplus.mouseover" end="zoomplus.mouseout"/>
                        </use>
                        <path d="M-4,0h8M0,-4v8" fill="none" stroke="white" stroke-width="1.5" pointer-events="none"/>
                </g>
                <g id="zoomMin">
                        <use xlink:href="#rim" fill="#404040">
                                <set attributeName="fill" to="#808080" begin="zoomminus.mouseover" end="zoomminus.mouseout"/>
                        </use>
                        <path d="M-4,0h8" fill="none" stroke="white" stroke-width="1.5" pointer-events="none"/>
                </g>
                <g id="dirArrow">
                        <path fill="none" stroke="white" stroke-width="1.5" d="M0,-3.0v7 M-2.5,-0.5L0,-3.0L2.5,-0.5"/>
                </g>
               <g id="resetDef">
                       <use xlink:href="#rim2" fill="#404040">
                               <set attributeName="fill" to="#808080" begin="reset.mouseover" end="reset.mouseout"/>
                       </use>
               </g>
        </defs>

<script type="text/javascript">
var viewWidth = 703;
var viewHeight = 532;
var sectionId = 'dynsection-1';
</script>
<script xlink:href="svgpan.js"/>
<svg id="graph" class="graph">
<g id="viewport">
<title>apache::thrift::transport::TSaslClientTransport</title>
<polygon fill="white" stroke="none" points="-4,4 -4,-528 699,-528 699,4 -4,4"/>
<!-- Node1 -->
<g id="node1" class="node"><title>Node1</title>
<polygon fill="#bfbfbf" stroke="black" points="304,-0.5 304,-79.5 444,-79.5 444,-0.5 304,-0.5"/>
<text text-anchor="start" x="312" y="-67.5" font-family="Helvetica,sans-Serif" font-size="10.00">apache::thrift::transport</text>
<text text-anchor="middle" x="374" y="-56.5" font-family="Helvetica,sans-Serif" font-size="10.00">::TSaslClientTransport</text>
<polyline fill="none" stroke="black" points="304,-49.5 444,-49.5 "/>
<text text-anchor="middle" x="374" y="-37.5" font-family="Helvetica,sans-Serif" font-size="10.00"> </text>
<polyline fill="none" stroke="black" points="304,-30.5 444,-30.5 "/>
<text text-anchor="start" x="312" y="-18.5" font-family="Helvetica,sans-Serif" font-size="10.00">+ TSaslClientTransport()</text>
<text text-anchor="start" x="312" y="-7.5" font-family="Helvetica,sans-Serif" font-size="10.00"># handleSaslStartMessage()</text>
</g>
<!-- Node2 -->
<g id="node2" class="node"><title>Node2</title>
<g id="a_node2"><a xlink:href="classapache_1_1thrift_1_1transport_1_1TSaslTransport.html" target="_top" xlink:title="{apache::thrift::transport\l::TSaslTransport\n||+ TSaslTransport()\l+ TSaslTransport()\l+ ~TSaslTransport()\l+ isOpen()\l+ peek()\l+ open()\l+ close()\l+ read()\l+ write()\l+ flush()\l+ getUnderlyingTransport()\l+ getUsername()\l# encodeInt()\l# decodeInt()\l# receiveSaslMessage()\l# sendSaslMessage()\l# readLength()\l# writeLength()\l# handleSaslStartMessage()\l# shrinkBuffer()\l}">
<polygon fill="white" stroke="black" points="304,-118.5 304,-395.5 444,-395.5 444,-118.5 304,-118.5"/>
<text text-anchor="start" x="312" y="-383.5" font-family="Helvetica,sans-Serif" font-size="10.00">apache::thrift::transport</text>
<text text-anchor="middle" x="374" y="-372.5" font-family="Helvetica,sans-Serif" font-size="10.00">::TSaslTransport</text>
<polyline fill="none" stroke="black" points="304,-365.5 444,-365.5 "/>
<text text-anchor="middle" x="374" y="-353.5" font-family="Helvetica,sans-Serif" font-size="10.00"> </text>
<polyline fill="none" stroke="black" points="304,-346.5 444,-346.5 "/>
<text text-anchor="start" x="312" y="-334.5" font-family="Helvetica,sans-Serif" font-size="10.00">+ TSaslTransport()</text>
<text text-anchor="start" x="312" y="-323.5" font-family="Helvetica,sans-Serif" font-size="10.00">+ TSaslTransport()</text>
<text text-anchor="start" x="312" y="-312.5" font-family="Helvetica,sans-Serif" font-size="10.00">+ ~TSaslTransport()</text>
<text text-anchor="start" x="312" y="-301.5" font-family="Helvetica,sans-Serif" font-size="10.00">+ isOpen()</text>
<text text-anchor="start" x="312" y="-290.5" font-family="Helvetica,sans-Serif" font-size="10.00">+ peek()</text>
<text text-anchor="start" x="312" y="-279.5" font-family="Helvetica,sans-Serif" font-size="10.00">+ open()</text>
<text text-anchor="start" x="312" y="-268.5" font-family="Helvetica,sans-Serif" font-size="10.00">+ close()</text>
<text text-anchor="start" x="312" y="-257.5" font-family="Helvetica,sans-Serif" font-size="10.00">+ read()</text>
<text text-anchor="start" x="312" y="-246.5" font-family="Helvetica,sans-Serif" font-size="10.00">+ write()</text>
<text text-anchor="start" x="312" y="-235.5" font-family="Helvetica,sans-Serif" font-size="10.00">+ flush()</text>
<text text-anchor="start" x="312" y="-224.5" font-family="Helvetica,sans-Serif" font-size="10.00">+ getUnderlyingTransport()</text>
<text text-anchor="start" x="312" y="-213.5" font-family="Helvetica,sans-Serif" font-size="10.00">+ getUsername()</text>
<text text-anchor="start" x="312" y="-202.5" font-family="Helvetica,sans-Serif" font-size="10.00"># encodeInt()</text>
<text text-anchor="start" x="312" y="-191.5" font-family="Helvetica,sans-Serif" font-size="10.00"># decodeInt()</text>
<text text-anchor="start" x="312" y="-180.5" font-family="Helvetica,sans-Serif" font-size="10.00"># receiveSaslMessage()</text>
<text text-anchor="start" x="312" y="-169.5" font-family="Helvetica,sans-Serif" font-size="10.00"># sendSaslMessage()</text>
<text text-anchor="start" x="312" y="-158.5" font-family="Helvetica,sans-Serif" font-size="10.00"># readLength()</text>
<text text-anchor="start" x="312" y="-147.5" font-family="Helvetica,sans-Serif" font-size="10.00"># writeLength()</text>
<text text-anchor="start" x="312" y="-136.5" font-family="Helvetica,sans-Serif" font-size="10.00"># handleSaslStartMessage()</text>
<text text-anchor="start" x="312" y="-125.5" font-family="Helvetica,sans-Serif" font-size="10.00"># shrinkBuffer()</text>
</a>
</g>
</g>
<!-- Node2&#45;&gt;Node1 -->
<g id="edge1" class="edge"><title>Node2&#45;&gt;Node1</title>
<path fill="none" stroke="midnightblue" d="M374,-108.011C374,-97.877 374,-88.3051 374,-79.7375"/>
<polygon fill="none" stroke="midnightblue" points="370.5,-108.316 374,-118.316 377.5,-108.316 370.5,-108.316"/>
</g>
<!-- Node3 -->
<g id="node3" class="node"><title>Node3</title>
<g id="a_node3"><a xlink:href="classTVirtualTransport.html" target="_top" xlink:title="{TVirtualTransport\&lt;\l TSaslTransport \&gt;\n||}">
<polygon fill="white" stroke="black" points="0,-455 0,-523 98,-523 98,-455 0,-455"/>
<text text-anchor="start" x="8" y="-511" font-family="Helvetica,sans-Serif" font-size="10.00">TVirtualTransport&lt;</text>
<text text-anchor="middle" x="49" y="-500" font-family="Helvetica,sans-Serif" font-size="10.00"> TSaslTransport &gt;</text>
<polyline fill="none" stroke="black" points="0,-493 98,-493 "/>
<text text-anchor="middle" x="49" y="-481" font-family="Helvetica,sans-Serif" font-size="10.00"> </text>
<polyline fill="none" stroke="black" points="0,-474 98,-474 "/>
<text text-anchor="middle" x="49" y="-462" font-family="Helvetica,sans-Serif" font-size="10.00"> </text>
</a>
</g>
</g>
<!-- Node3&#45;&gt;Node2 -->
<g id="edge2" class="edge"><title>Node3&#45;&gt;Node2</title>
<path fill="none" stroke="midnightblue" d="M104.143,-448.976C159.172,-410.032 243.926,-350.053 303.744,-307.72"/>
<polygon fill="none" stroke="midnightblue" points="102.052,-446.168 95.9107,-454.802 106.095,-451.882 102.052,-446.168"/>
</g>
<!-- Node4 -->
<g id="node4" class="node"><title>Node4</title>
<polygon fill="white" stroke="#bfbfbf" points="116,-460.5 116,-517.5 246,-517.5 246,-460.5 116,-460.5"/>
<text text-anchor="middle" x="181" y="-505.5" font-family="Helvetica,sans-Serif" font-size="10.00">shared_ptr&lt; sasl::TSasl &gt;</text>
<polyline fill="none" stroke="#bfbfbf" points="116,-498.5 246,-498.5 "/>
<text text-anchor="middle" x="181" y="-486.5" font-family="Helvetica,sans-Serif" font-size="10.00"> </text>
<polyline fill="none" stroke="#bfbfbf" points="116,-479.5 246,-479.5 "/>
<text text-anchor="middle" x="181" y="-467.5" font-family="Helvetica,sans-Serif" font-size="10.00"> </text>
</g>
<!-- Node4&#45;&gt;Node2 -->
<g id="edge3" class="edge"><title>Node4&#45;&gt;Node2</title>
<path fill="none" stroke="#404040" d="M204.28,-460.257C227.067,-433.102 263.067,-390.2 296.059,-350.883"/>
<polygon fill="none" stroke="#404040" points="296.214,-350.698 297.007,-343.531 303.928,-341.506 303.135,-348.673 296.214,-350.698"/>
<text text-anchor="middle" x="255" y="-422.5" font-family="Helvetica,sans-Serif" font-size="10.00"> #sasl_</text>
</g>
<!-- Node5 -->
<g id="node5" class="node"><title>Node5</title>
<polygon fill="white" stroke="#bfbfbf" points="264,-460.5 264,-517.5 392,-517.5 392,-460.5 264,-460.5"/>
<text text-anchor="middle" x="328" y="-505.5" font-family="Helvetica,sans-Serif" font-size="10.00">shared_ptr&lt; TTransport &gt;</text>
<polyline fill="none" stroke="#bfbfbf" points="264,-498.5 392,-498.5 "/>
<text text-anchor="middle" x="328" y="-486.5" font-family="Helvetica,sans-Serif" font-size="10.00"> </text>
<polyline fill="none" stroke="#bfbfbf" points="264,-479.5 392,-479.5 "/>
<text text-anchor="middle" x="328" y="-467.5" font-family="Helvetica,sans-Serif" font-size="10.00"> </text>
</g>
<!-- Node5&#45;&gt;Node2 -->
<g id="edge4" class="edge"><title>Node5&#45;&gt;Node2</title>
<path fill="none" stroke="#404040" d="M333.549,-460.257C336.385,-446.074 340.081,-427.596 344.085,-407.577"/>
<polygon fill="none" stroke="#404040" points="344.12,-407.4 341.374,-400.732 346.473,-395.633 349.219,-402.301 344.12,-407.4"/>
<text text-anchor="middle" x="368" y="-422.5" font-family="Helvetica,sans-Serif" font-size="10.00"> #transport_</text>
</g>
<!-- Node6 -->
<g id="node6" class="node"><title>Node6</title>
<g id="a_node6"><a xlink:href="classbool.html" target="_top" xlink:title="{bool\n||}">
<polygon fill="white" stroke="black" points="410.5,-460.5 410.5,-517.5 445.5,-517.5 445.5,-460.5 410.5,-460.5"/>
<text text-anchor="middle" x="428" y="-505.5" font-family="Helvetica,sans-Serif" font-size="10.00">bool</text>
<polyline fill="none" stroke="black" points="410.5,-498.5 445.5,-498.5 "/>
<text text-anchor="middle" x="428" y="-486.5" font-family="Helvetica,sans-Serif" font-size="10.00"> </text>
<polyline fill="none" stroke="black" points="410.5,-479.5 445.5,-479.5 "/>
<text text-anchor="middle" x="428" y="-467.5" font-family="Helvetica,sans-Serif" font-size="10.00"> </text>
</a>
</g>
</g>
<!-- Node6&#45;&gt;Node2 -->
<g id="edge5" class="edge"><title>Node6&#45;&gt;Node2</title>
<path fill="none" stroke="#404040" d="M421.486,-460.257C418.157,-446.074 413.818,-427.596 409.118,-407.577"/>
<polygon fill="none" stroke="#404040" points="409.057,-407.316 403.791,-402.389 406.314,-395.633 411.579,-400.56 409.057,-407.316"/>
<text text-anchor="middle" x="448" y="-428" font-family="Helvetica,sans-Serif" font-size="10.00"> #shouldWrap_</text>
<text text-anchor="middle" x="448" y="-417" font-family="Helvetica,sans-Serif" font-size="10.00">#isClient_</text>
</g>
<!-- Node7 -->
<g id="node7" class="node"><title>Node7</title>
<polygon fill="white" stroke="#bfbfbf" points="463.5,-460.5 463.5,-517.5 554.5,-517.5 554.5,-460.5 463.5,-460.5"/>
<text text-anchor="middle" x="509" y="-505.5" font-family="Helvetica,sans-Serif" font-size="10.00">TMemoryBuffer *</text>
<polyline fill="none" stroke="#bfbfbf" points="463.5,-498.5 554.5,-498.5 "/>
<text text-anchor="middle" x="509" y="-486.5" font-family="Helvetica,sans-Serif" font-size="10.00"> </text>
<polyline fill="none" stroke="#bfbfbf" points="463.5,-479.5 554.5,-479.5 "/>
<text text-anchor="middle" x="509" y="-467.5" font-family="Helvetica,sans-Serif" font-size="10.00"> </text>
</g>
<!-- Node7&#45;&gt;Node2 -->
<g id="edge6" class="edge"><title>Node7&#45;&gt;Node2</title>
<path fill="none" stroke="#404040" d="M502.243,-460.5C498.202,-446.217 492.404,-428.72 485,-414 475.296,-394.708 463.369,-375.16 450.971,-356.729"/>
<polygon fill="none" stroke="#404040" points="450.825,-356.516 444.135,-353.824 444.047,-346.614 450.737,-349.305 450.825,-356.516"/>
<text text-anchor="middle" x="520.5" y="-422.5" font-family="Helvetica,sans-Serif" font-size="10.00"> #memBuf_</text>
</g>
<!-- Node8 -->
<g id="node8" class="node"><title>Node8</title>
<polygon fill="white" stroke="#bfbfbf" points="573,-460.5 573,-517.5 695,-517.5 695,-460.5 573,-460.5"/>
<text text-anchor="middle" x="634" y="-505.5" font-family="Helvetica,sans-Serif" font-size="10.00">scoped_array&lt; uint8_t &gt;</text>
<polyline fill="none" stroke="#bfbfbf" points="573,-498.5 695,-498.5 "/>
<text text-anchor="middle" x="634" y="-486.5" font-family="Helvetica,sans-Serif" font-size="10.00"> </text>
<polyline fill="none" stroke="#bfbfbf" points="573,-479.5 695,-479.5 "/>
<text text-anchor="middle" x="634" y="-467.5" font-family="Helvetica,sans-Serif" font-size="10.00"> </text>
</g>
<!-- Node8&#45;&gt;Node2 -->
<g id="edge7" class="edge"><title>Node8&#45;&gt;Node2</title>
<path fill="none" stroke="#404040" d="M602.896,-460.485C566.161,-427.989 503.678,-372.715 453.267,-328.121"/>
<polygon fill="none" stroke="#404040" points="452.992,-327.877 445.847,-326.898 444.004,-319.926 451.148,-320.906 452.992,-327.877"/>
<text text-anchor="middle" x="597.5" y="-422.5" font-family="Helvetica,sans-Serif" font-size="10.00"> #protoBuf_</text>
</g>
</g>
</svg>
        <g id="navigator" transform="translate(0 0)" fill="#404254">
                <rect fill="#f2f5e9" fill-opacity="0.5" stroke="#606060" stroke-width=".5" x="0" y="0" width="60" height="60"/>
                <use id="zoomplus" xlink:href="#zoomPlus" x="17" y="9" onmousedown="handleZoom(evt,'in')"/>
                <use id="zoomminus" xlink:href="#zoomMin" x="42" y="9" onmousedown="handleZoom(evt,'out')"/>
                <use id="reset" xlink:href="#resetDef" x="30" y="36" onmousedown="handleReset()"/>
                <g id="arrowUp" xlink:href="#dirArrow" transform="translate(30 24)" onmousedown="handlePan(0,-1)">
                  <use xlink:href="#rim" fill="#404040">
                        <set attributeName="fill" to="#808080" begin="arrowUp.mouseover" end="arrowUp.mouseout"/>
                  </use>
                  <path fill="none" stroke="white" stroke-width="1.5" d="M0,-3.0v7 M-2.5,-0.5L0,-3.0L2.5,-0.5"/>
                </g>
                <g id="arrowRight" xlink:href="#dirArrow" transform="rotate(90) translate(36 -43)" onmousedown="handlePan(1,0)">
                  <use xlink:href="#rim" fill="#404040">
                        <set attributeName="fill" to="#808080" begin="arrowRight.mouseover" end="arrowRight.mouseout"/>
                  </use>
                  <path fill="none" stroke="white" stroke-width="1.5" d="M0,-3.0v7 M-2.5,-0.5L0,-3.0L2.5,-0.5"/>
                </g>
                <g id="arrowDown" xlink:href="#dirArrow" transform="rotate(180) translate(-30 -48)" onmousedown="handlePan(0,1)">
                  <use xlink:href="#rim" fill="#404040">
                        <set attributeName="fill" to="#808080" begin="arrowDown.mouseover" end="arrowDown.mouseout"/>
                  </use>
                  <path fill="none" stroke="white" stroke-width="1.5" d="M0,-3.0v7 M-2.5,-0.5L0,-3.0L2.5,-0.5"/>
                </g>
                <g id="arrowLeft" xlink:href="#dirArrow" transform="rotate(270) translate(-36 17)" onmousedown="handlePan(-1,0)">
                  <use xlink:href="#rim" fill="#404040">
                        <set attributeName="fill" to="#808080" begin="arrowLeft.mouseover" end="arrowLeft.mouseout"/>
                  </use>
                  <path fill="none" stroke="white" stroke-width="1.5" d="M0,-3.0v7 M-2.5,-0.5L0,-3.0L2.5,-0.5"/>
                </g>
        </g>
        <svg viewBox="0 0 15 15" width="100%" height="30px" preserveAspectRatio="xMaxYMin meet">
         <g id="arrow_out" transform="scale(0.3 0.3)">
          <a xlink:href="classapache_1_1thrift_1_1transport_1_1TSaslClientTransport__coll__graph_org.svg" target="_base">
           <rect id="button" ry="5" rx="5" y="6" x="6" height="38" width="38"
                fill="#f2f5e9" fill-opacity="0.5" stroke="#606060" stroke-width="1.0"/>
           <path id="arrow"
             d="M 11.500037,31.436501 C 11.940474,20.09759 22.043105,11.32322 32.158766,21.979434 L 37.068811,17.246167 C 37.068811,17.246167 37.088388,32 37.088388,32 L 22.160133,31.978069 C 22.160133,31.978069 26.997745,27.140456 26.997745,27.140456 C 18.528582,18.264221 13.291696,25.230495 11.500037,31.436501 z"
             style="fill:#404040;"/>
          </a>
         </g>
        </svg>
</svg>
