<?xml version="1.0" encoding="UTF-8" standalone="no"?>
<!DOCTYPE svg PUBLIC "-//W3C//DTD SVG 1.1//EN"
 "http://www.w3.org/Graphics/SVG/1.1/DTD/svg11.dtd">
<!-- Generated by graphviz version 2.36.0 (20140111.2315)
 -->
<!-- Title: impala::StatsMetric&lt; T &gt; Pages: 1 -->
<svg width="132pt" height="336pt"
 viewBox="0.00 0.00 132.00 336.00" xmlns="http://www.w3.org/2000/svg" xmlns:xlink="http://www.w3.org/1999/xlink">
<g id="graph0" class="graph" transform="scale(1 1) rotate(0) translate(4 332)">
<title>impala::StatsMetric&lt; T &gt;</title>
<polygon fill="white" stroke="none" points="-4,4 -4,-332 128,-332 128,4 -4,4"/>
<!-- Node1 -->
<g id="node1" class="node"><title>Node1</title>
<polygon fill="#bfbfbf" stroke="black" points="-0.5,-0.5 -0.5,-145.5 124.5,-145.5 124.5,-0.5 -0.5,-0.5"/>
<text text-anchor="middle" x="62" y="-133.5" font-family="Helvetica,sans-Serif" font-size="10.00">impala::StatsMetric&lt; T &gt;</text>
<polyline fill="none" stroke="black" points="-0.5,-126.5 124.5,-126.5 "/>
<text text-anchor="start" x="7.5" y="-114.5" font-family="Helvetica,sans-Serif" font-size="10.00">&#45; unit_</text>
<text text-anchor="start" x="7.5" y="-103.5" font-family="Helvetica,sans-Serif" font-size="10.00">&#45; lock_</text>
<text text-anchor="start" x="7.5" y="-92.5" font-family="Helvetica,sans-Serif" font-size="10.00">&#45; value_</text>
<text text-anchor="start" x="7.5" y="-81.5" font-family="Helvetica,sans-Serif" font-size="10.00">&#45; acc_</text>
<polyline fill="none" stroke="black" points="-0.5,-74.5 124.5,-74.5 "/>
<text text-anchor="start" x="7.5" y="-62.5" font-family="Helvetica,sans-Serif" font-size="10.00">+ StatsMetric()</text>
<text text-anchor="start" x="7.5" y="-51.5" font-family="Helvetica,sans-Serif" font-size="10.00">+ Update()</text>
<text text-anchor="start" x="7.5" y="-40.5" font-family="Helvetica,sans-Serif" font-size="10.00">+ Reset()</text>
<text text-anchor="start" x="7.5" y="-29.5" font-family="Helvetica,sans-Serif" font-size="10.00">+ ToJson()</text>
<text text-anchor="start" x="7.5" y="-18.5" font-family="Helvetica,sans-Serif" font-size="10.00">+ ToLegacyJson()</text>
<text text-anchor="start" x="7.5" y="-7.5" font-family="Helvetica,sans-Serif" font-size="10.00">+ ToHumanReadable()</text>
</g>
<!-- Node2 -->
<g id="node2" class="node"><title>Node2</title>
<g id="a_node2"><a xlink:href="classimpala_1_1Metric.html" target="_top" xlink:title="TODO: Add ToThrift() for conversion to an RPC&#45;friendly format. ">
<polygon fill="white" stroke="black" points="4,-182.5 4,-327.5 120,-327.5 120,-182.5 4,-182.5"/>
<text text-anchor="middle" x="62" y="-315.5" font-family="Helvetica,sans-Serif" font-size="10.00">impala::Metric</text>
<polyline fill="none" stroke="black" points="4,-308.5 120,-308.5 "/>
<text text-anchor="start" x="12" y="-296.5" font-family="Helvetica,sans-Serif" font-size="10.00"># key_</text>
<text text-anchor="start" x="12" y="-285.5" font-family="Helvetica,sans-Serif" font-size="10.00"># description_</text>
<polyline fill="none" stroke="black" points="4,-278.5 120,-278.5 "/>
<text text-anchor="start" x="12" y="-266.5" font-family="Helvetica,sans-Serif" font-size="10.00">+ ~Metric()</text>
<text text-anchor="start" x="12" y="-255.5" font-family="Helvetica,sans-Serif" font-size="10.00">+ ToJson()</text>
<text text-anchor="start" x="12" y="-244.5" font-family="Helvetica,sans-Serif" font-size="10.00">+ ToLegacyJson()</text>
<text text-anchor="start" x="12" y="-233.5" font-family="Helvetica,sans-Serif" font-size="10.00">+ ToHumanReadable()</text>
<text text-anchor="start" x="12" y="-222.5" font-family="Helvetica,sans-Serif" font-size="10.00">+ key()</text>
<text text-anchor="start" x="12" y="-211.5" font-family="Helvetica,sans-Serif" font-size="10.00">+ description()</text>
<text text-anchor="start" x="12" y="-200.5" font-family="Helvetica,sans-Serif" font-size="10.00"># Metric()</text>
<text text-anchor="start" x="12" y="-189.5" font-family="Helvetica,sans-Serif" font-size="10.00"># AddStandardFields()</text>
</a>
</g>
</g>
<!-- Node2&#45;&gt;Node1 -->
<g id="edge1" class="edge"><title>Node2&#45;&gt;Node1</title>
<path fill="none" stroke="midnightblue" d="M62,-172.079C62,-163.278 62,-154.374 62,-145.705"/>
<polygon fill="none" stroke="midnightblue" points="58.5001,-172.342 62,-182.342 65.5001,-172.342 58.5001,-172.342"/>
</g>
</g>
</svg>
