<?xml version="1.0" encoding="UTF-8" standalone="no"?>
<!DOCTYPE svg PUBLIC "-//W3C//DTD SVG 1.1//EN"
 "http://www.w3.org/Graphics/SVG/1.1/DTD/svg11.dtd">
<!-- Generated by graphviz version 2.36.0 (20140111.2315)
 -->
<!-- Title: impala::GrowingTest Pages: 1 -->
<svg width="142pt" height="282pt"
 viewBox="0.00 0.00 142.00 282.00" xmlns="http://www.w3.org/2000/svg" xmlns:xlink="http://www.w3.org/1999/xlink">
<g id="graph0" class="graph" transform="scale(1 1) rotate(0) translate(4 278)">
<title>impala::GrowingTest</title>
<polygon fill="white" stroke="none" points="-4,4 -4,-278 138,-278 138,4 -4,4"/>
<!-- Node1 -->
<g id="node1" class="node"><title>Node1</title>
<polygon fill="#bfbfbf" stroke="black" points="0,-1 0,-179 134,-179 134,-1 0,-1"/>
<text text-anchor="middle" x="67" y="-167" font-family="Helvetica,sans-Serif" font-size="10.00">impala::GrowingTest</text>
<polyline fill="none" stroke="black" points="0,-160 134,-160 "/>
<text text-anchor="start" x="8" y="-148" font-family="Helvetica,sans-Serif" font-size="10.00">+ NUM_PROBE_TUPLES</text>
<text text-anchor="start" x="8" y="-137" font-family="Helvetica,sans-Serif" font-size="10.00">+ TUPLES_IN_TABLE</text>
<polyline fill="none" stroke="black" points="0,-130 134,-130 "/>
<text text-anchor="start" x="8" y="-118" font-family="Helvetica,sans-Serif" font-size="10.00">+ AggregateTest()</text>
<text text-anchor="start" x="8" y="-107" font-family="Helvetica,sans-Serif" font-size="10.00">+ SanityCheck()</text>
<text text-anchor="start" x="8" y="-96" font-family="Helvetica,sans-Serif" font-size="10.00">+ NextTestCase()</text>
<text text-anchor="start" x="8" y="-85" font-family="Helvetica,sans-Serif" font-size="10.00">+ Test()</text>
<text text-anchor="start" x="8" y="-74" font-family="Helvetica,sans-Serif" font-size="10.00">+ AggregateTest()</text>
<text text-anchor="start" x="8" y="-63" font-family="Helvetica,sans-Serif" font-size="10.00">+ SanityCheck()</text>
<text text-anchor="start" x="8" y="-52" font-family="Helvetica,sans-Serif" font-size="10.00">+ NextTestCase()</text>
<text text-anchor="start" x="8" y="-41" font-family="Helvetica,sans-Serif" font-size="10.00">+ Test()</text>
<text text-anchor="start" x="8" y="-30" font-family="Helvetica,sans-Serif" font-size="10.00">+ AggregateTest()</text>
<text text-anchor="start" x="8" y="-19" font-family="Helvetica,sans-Serif" font-size="10.00">+ SanityCheck()</text>
<text text-anchor="start" x="8" y="-8" font-family="Helvetica,sans-Serif" font-size="10.00">and 14 more...</text>
</g>
<!-- Node2 -->
<g id="node2" class="node"><title>Node2</title>
<polygon fill="white" stroke="#bfbfbf" points="49,-216.5 49,-273.5 85,-273.5 85,-216.5 49,-216.5"/>
<text text-anchor="middle" x="67" y="-261.5" font-family="Helvetica,sans-Serif" font-size="10.00">Test</text>
<polyline fill="none" stroke="#bfbfbf" points="49,-254.5 85,-254.5 "/>
<text text-anchor="middle" x="67" y="-242.5" font-family="Helvetica,sans-Serif" font-size="10.00"> </text>
<polyline fill="none" stroke="#bfbfbf" points="49,-235.5 85,-235.5 "/>
<text text-anchor="middle" x="67" y="-223.5" font-family="Helvetica,sans-Serif" font-size="10.00"> </text>
</g>
<!-- Node2&#45;&gt;Node1 -->
<g id="edge1" class="edge"><title>Node2&#45;&gt;Node1</title>
<path fill="none" stroke="midnightblue" d="M43.5854,-224.519C37.9688,-212.548 34.6414,-196.271 33.6032,-179.197"/>
<polygon fill="none" stroke="midnightblue" points="40.7644,-226.627 48.8417,-233.484 46.803,-223.087 40.7644,-226.627"/>
</g>
<!-- Node2&#45;&gt;Node1 -->
<g id="edge2" class="edge"><title>Node2&#45;&gt;Node1</title>
<path fill="none" stroke="midnightblue" d="M49.2509,-206.166C48.0643,-197.781 47.2999,-188.554 46.9578,-179.086"/>
<polygon fill="none" stroke="midnightblue" points="45.8467,-207.025 50.9798,-216.293 52.7469,-205.846 45.8467,-207.025"/>
</g>
<!-- Node2&#45;&gt;Node1 -->
<g id="edge3" class="edge"><title>Node2&#45;&gt;Node1</title>
<path fill="none" stroke="midnightblue" d="M61.0836,-206.166C60.6881,-197.781 60.4333,-188.554 60.3193,-179.086"/>
<polygon fill="none" stroke="midnightblue" points="57.5973,-206.508 61.6599,-216.293 64.586,-206.11 57.5973,-206.508"/>
</g>
<!-- Node2&#45;&gt;Node1 -->
<g id="edge4" class="edge"><title>Node2&#45;&gt;Node1</title>
<path fill="none" stroke="midnightblue" d="M72.9164,-206.166C73.3119,-197.781 73.5667,-188.554 73.6807,-179.086"/>
<polygon fill="none" stroke="midnightblue" points="69.414,-206.11 72.3401,-216.293 76.4027,-206.508 69.414,-206.11"/>
</g>
<!-- Node2&#45;&gt;Node1 -->
<g id="edge5" class="edge"><title>Node2&#45;&gt;Node1</title>
<path fill="none" stroke="midnightblue" d="M84.7491,-206.166C85.9357,-197.781 86.7001,-188.554 87.0422,-179.086"/>
<polygon fill="none" stroke="midnightblue" points="81.2531,-205.846 83.0202,-216.293 88.1533,-207.025 81.2531,-205.846"/>
</g>
<!-- Node2&#45;&gt;Node1 -->
<g id="edge6" class="edge"><title>Node2&#45;&gt;Node1</title>
<path fill="none" stroke="midnightblue" d="M90.4146,-224.519C96.0312,-212.548 99.3586,-196.271 100.397,-179.197"/>
<polygon fill="none" stroke="midnightblue" points="87.197,-223.087 85.1583,-233.484 93.2356,-226.627 87.197,-223.087"/>
</g>
</g>
</svg>
