<?xml version="1.0" encoding="UTF-8" standalone="no"?>
<!DOCTYPE svg PUBLIC "-//W3C//DTD SVG 1.1//EN"
 "http://www.w3.org/Graphics/SVG/1.1/DTD/svg11.dtd">
<!-- Generated by graphviz version 2.36.0 (20140111.2315)
 -->
<!-- Title: com.cloudera.impala.common.ByteUnits Pages: 1 -->
<svg width="156pt" height="228pt"
 viewBox="0.00 0.00 156.00 228.00" xmlns="http://www.w3.org/2000/svg" xmlns:xlink="http://www.w3.org/1999/xlink">
<g id="graph0" class="graph" transform="scale(1 1) rotate(0) translate(4 224)">
<title>com.cloudera.impala.common.ByteUnits</title>
<polygon fill="white" stroke="none" points="-4,4 -4,-224 152,-224 152,4 -4,4"/>
<!-- Node1 -->
<g id="node1" class="node"><title>Node1</title>
<polygon fill="#bfbfbf" stroke="black" points="-1,-1 -1,-69 149,-69 149,-1 -1,-1"/>
<text text-anchor="start" x="7" y="-57" font-family="Helvetica,sans-Serif" font-size="10.00">com.cloudera.impala.common.</text>
<text text-anchor="middle" x="74" y="-46" font-family="Helvetica,sans-Serif" font-size="10.00">ByteUnits</text>
<polyline fill="none" stroke="black" points="-1,-39 149,-39 "/>
<text text-anchor="middle" x="74" y="-27" font-family="Helvetica,sans-Serif" font-size="10.00"> </text>
<polyline fill="none" stroke="black" points="-1,-20 149,-20 "/>
<text text-anchor="middle" x="74" y="-8" font-family="Helvetica,sans-Serif" font-size="10.00"> </text>
</g>
<!-- Node2 -->
<g id="node2" class="node"><title>Node2</title>
<polygon fill="white" stroke="#bfbfbf" points="56.5,-162.5 56.5,-219.5 91.5,-219.5 91.5,-162.5 56.5,-162.5"/>
<text text-anchor="middle" x="74" y="-207.5" font-family="Helvetica,sans-Serif" font-size="10.00">long</text>
<polyline fill="none" stroke="#bfbfbf" points="56.5,-200.5 91.5,-200.5 "/>
<text text-anchor="middle" x="74" y="-188.5" font-family="Helvetica,sans-Serif" font-size="10.00"> </text>
<polyline fill="none" stroke="#bfbfbf" points="56.5,-181.5 91.5,-181.5 "/>
<text text-anchor="middle" x="74" y="-169.5" font-family="Helvetica,sans-Serif" font-size="10.00"> </text>
</g>
<!-- Node2&#45;&gt;Node1 -->
<g id="edge1" class="edge"><title>Node2&#45;&gt;Node1</title>
<path fill="none" stroke="#404040" d="M74,-162.468C74,-139.912 74,-107.536 74,-81.1889"/>
<polygon fill="none" stroke="#404040" points="74.0001,-81.1876 70,-75.1877 74,-69.1876 78,-75.1876 74.0001,-81.1876"/>
<text text-anchor="middle" x="105" y="-135.5" font-family="Helvetica,sans-Serif" font-size="10.00"> +GIGABYTE</text>
<text text-anchor="middle" x="105" y="-124.5" font-family="Helvetica,sans-Serif" font-size="10.00">+TERABYTE</text>
<text text-anchor="middle" x="105" y="-113.5" font-family="Helvetica,sans-Serif" font-size="10.00">+MEGABYTE</text>
<text text-anchor="middle" x="105" y="-102.5" font-family="Helvetica,sans-Serif" font-size="10.00">+PETABYTE</text>
<text text-anchor="middle" x="105" y="-91.5" font-family="Helvetica,sans-Serif" font-size="10.00">+KILOBYTE</text>
</g>
</g>
</svg>
