<?xml version="1.0" encoding="UTF-8" standalone="no"?>
<!DOCTYPE svg PUBLIC "-//W3C//DTD SVG 1.1//EN"
 "http://www.w3.org/Graphics/SVG/1.1/DTD/svg11.dtd">
<!-- Generated by graphviz version 2.36.0 (20140111.2315)
 -->
<!-- Title: apache::thrift::transport::TSaslServerTransport::Factory Pages: 1 -->
<svg width="534pt" height="272pt"
 viewBox="0.00 0.00 534.00 272.00" xmlns="http://www.w3.org/2000/svg" xmlns:xlink="http://www.w3.org/1999/xlink">
<g id="graph0" class="graph" transform="scale(1 1) rotate(0) translate(4 268)">
<title>apache::thrift::transport::TSaslServerTransport::Factory</title>
<polygon fill="white" stroke="none" points="-4,4 -4,-268 530,-268 530,4 -4,4"/>
<!-- Node1 -->
<g id="node1" class="node"><title>Node1</title>
<polygon fill="#bfbfbf" stroke="black" points="139,-0.5 139,-123.5 257,-123.5 257,-0.5 139,-0.5"/>
<text text-anchor="start" x="147" y="-111.5" font-family="Helvetica,sans-Serif" font-size="10.00">apache::thrift::transport</text>
<text text-anchor="start" x="147" y="-100.5" font-family="Helvetica,sans-Serif" font-size="10.00">::TSaslServerTransport</text>
<text text-anchor="middle" x="198" y="-89.5" font-family="Helvetica,sans-Serif" font-size="10.00">::Factory</text>
<polyline fill="none" stroke="black" points="139,-82.5 257,-82.5 "/>
<text text-anchor="middle" x="198" y="-70.5" font-family="Helvetica,sans-Serif" font-size="10.00"> </text>
<polyline fill="none" stroke="black" points="139,-63.5 257,-63.5 "/>
<text text-anchor="start" x="147" y="-51.5" font-family="Helvetica,sans-Serif" font-size="10.00">+ Factory()</text>
<text text-anchor="start" x="147" y="-40.5" font-family="Helvetica,sans-Serif" font-size="10.00">+ Factory()</text>
<text text-anchor="start" x="147" y="-29.5" font-family="Helvetica,sans-Serif" font-size="10.00">+ ~Factory()</text>
<text text-anchor="start" x="147" y="-18.5" font-family="Helvetica,sans-Serif" font-size="10.00">+ getTransport()</text>
<text text-anchor="start" x="147" y="-7.5" font-family="Helvetica,sans-Serif" font-size="10.00">+ addServerDefinition()</text>
</g>
<!-- Node2 -->
<g id="node2" class="node"><title>Node2</title>
<g id="a_node2"><a xlink:href="classTTransportFactory.html" target="_top" xlink:title="{TTransportFactory\n||}">
<polygon fill="white" stroke="black" points="-0.5,-189.5 -0.5,-246.5 96.5,-246.5 96.5,-189.5 -0.5,-189.5"/>
<text text-anchor="middle" x="48" y="-234.5" font-family="Helvetica,sans-Serif" font-size="10.00">TTransportFactory</text>
<polyline fill="none" stroke="black" points="-0.5,-227.5 96.5,-227.5 "/>
<text text-anchor="middle" x="48" y="-215.5" font-family="Helvetica,sans-Serif" font-size="10.00"> </text>
<polyline fill="none" stroke="black" points="-0.5,-208.5 96.5,-208.5 "/>
<text text-anchor="middle" x="48" y="-196.5" font-family="Helvetica,sans-Serif" font-size="10.00"> </text>
</a>
</g>
</g>
<!-- Node2&#45;&gt;Node1 -->
<g id="edge1" class="edge"><title>Node2&#45;&gt;Node1</title>
<path fill="none" stroke="midnightblue" d="M82.2138,-181.874C98.951,-164.69 119.583,-143.509 138.772,-123.808"/>
<polygon fill="none" stroke="midnightblue" points="79.2872,-179.862 74.817,-189.468 84.3017,-184.746 79.2872,-179.862"/>
</g>
<!-- Node3 -->
<g id="node3" class="node"><title>Node3</title>
<polygon fill="white" stroke="#bfbfbf" points="114,-189.5 114,-246.5 158,-246.5 158,-189.5 114,-189.5"/>
<text text-anchor="middle" x="136" y="-234.5" font-family="Helvetica,sans-Serif" font-size="10.00">mutex</text>
<polyline fill="none" stroke="#bfbfbf" points="114,-227.5 158,-227.5 "/>
<text text-anchor="middle" x="136" y="-215.5" font-family="Helvetica,sans-Serif" font-size="10.00"> </text>
<polyline fill="none" stroke="#bfbfbf" points="114,-208.5 158,-208.5 "/>
<text text-anchor="middle" x="136" y="-196.5" font-family="Helvetica,sans-Serif" font-size="10.00"> </text>
</g>
<!-- Node3&#45;&gt;Node1 -->
<g id="edge2" class="edge"><title>Node3&#45;&gt;Node1</title>
<path fill="none" stroke="#404040" d="M132.237,-189.196C131.298,-174.738 131.77,-157.001 137,-142 137.847,-139.571 138.8,-137.158 139.846,-134.768"/>
<polygon fill="none" stroke="#404040" points="139.979,-134.5 139.087,-127.345 145.349,-123.768 146.241,-130.924 139.979,-134.5"/>
<text text-anchor="middle" x="187.5" y="-145.5" font-family="Helvetica,sans-Serif" font-size="10.00"> &#45;transportMap_mutex_</text>
</g>
<!-- Node4 -->
<g id="node4" class="node"><title>Node4</title>
<polygon fill="white" stroke="#bfbfbf" points="186.5,-173 186.5,-263 333.5,-263 333.5,-173 186.5,-173"/>
<text text-anchor="start" x="194.5" y="-251" font-family="Helvetica,sans-Serif" font-size="10.00">map&lt; boost::shared</text>
<text text-anchor="start" x="194.5" y="-240" font-family="Helvetica,sans-Serif" font-size="10.00">_ptr&lt; TTransport &gt;,</text>
<text text-anchor="start" x="194.5" y="-229" font-family="Helvetica,sans-Serif" font-size="10.00"> boost::shared_ptr&lt; TBuffered</text>
<text text-anchor="middle" x="260" y="-218" font-family="Helvetica,sans-Serif" font-size="10.00">Transport &gt; &gt;</text>
<polyline fill="none" stroke="#bfbfbf" points="186.5,-211 333.5,-211 "/>
<text text-anchor="middle" x="260" y="-199" font-family="Helvetica,sans-Serif" font-size="10.00"> </text>
<polyline fill="none" stroke="#bfbfbf" points="186.5,-192 333.5,-192 "/>
<text text-anchor="middle" x="260" y="-180" font-family="Helvetica,sans-Serif" font-size="10.00"> </text>
</g>
<!-- Node4&#45;&gt;Node1 -->
<g id="edge3" class="edge"><title>Node4&#45;&gt;Node1</title>
<path fill="none" stroke="#404040" d="M248.534,-172.918C245.461,-162.647 241.897,-151.841 238,-142 237.071,-139.655 236.098,-137.286 235.088,-134.906"/>
<polygon fill="none" stroke="#404040" points="235,-134.706 228.912,-130.839 230.14,-123.733 236.227,-127.6 235,-134.706"/>
<text text-anchor="middle" x="277.5" y="-145.5" font-family="Helvetica,sans-Serif" font-size="10.00"> &#45;transportMap_</text>
</g>
<!-- Node5 -->
<g id="node5" class="node"><title>Node5</title>
<polygon fill="white" stroke="#bfbfbf" points="351.5,-178.5 351.5,-257.5 526.5,-257.5 526.5,-178.5 351.5,-178.5"/>
<text text-anchor="start" x="359.5" y="-245.5" font-family="Helvetica,sans-Serif" font-size="10.00">map&lt; std::string, apache</text>
<text text-anchor="start" x="359.5" y="-234.5" font-family="Helvetica,sans-Serif" font-size="10.00">::thrift::transport::TSaslServer</text>
<text text-anchor="middle" x="439" y="-223.5" font-family="Helvetica,sans-Serif" font-size="10.00">Transport::TSaslServerDefinition * &gt;</text>
<polyline fill="none" stroke="#bfbfbf" points="351.5,-216.5 526.5,-216.5 "/>
<text text-anchor="middle" x="439" y="-204.5" font-family="Helvetica,sans-Serif" font-size="10.00"> </text>
<polyline fill="none" stroke="#bfbfbf" points="351.5,-197.5 526.5,-197.5 "/>
<text text-anchor="middle" x="439" y="-185.5" font-family="Helvetica,sans-Serif" font-size="10.00"> </text>
</g>
<!-- Node5&#45;&gt;Node1 -->
<g id="edge4" class="edge"><title>Node5&#45;&gt;Node1</title>
<path fill="none" stroke="#404040" d="M378.497,-178.338C344.74,-156.768 302.55,-129.808 267.45,-107.379"/>
<polygon fill="none" stroke="#404040" points="267.389,-107.34 260.179,-107.48 257.277,-100.878 264.487,-100.739 267.389,-107.34"/>
<text text-anchor="middle" x="390.5" y="-145.5" font-family="Helvetica,sans-Serif" font-size="10.00"> &#45;serverDefinitionMap_</text>
</g>
</g>
</svg>
