<?xml version="1.0" encoding="UTF-8" standalone="no"?>
<!DOCTYPE svg PUBLIC "-//W3C//DTD SVG 1.1//EN"
 "http://www.w3.org/Graphics/SVG/1.1/DTD/svg11.dtd">
<!-- Generated by graphviz version 2.36.0 (20140111.2315)
 -->
<!-- Title: com.cloudera.impala.catalog.Column Pages: 1 -->
<!--zoomable 1376 -->
<svg id="main" version="1.1" xmlns="http://www.w3.org/2000/svg" xmlns:xlink="http://www.w3.org/1999/xlink" xml:space="preserve" onload="init(evt)">
<style type="text/css"><![CDATA[
.edge:hover path { stroke: red; }
.edge:hover polygon { stroke: red; fill: red; }
]]></style>
<script type="text/javascript"><![CDATA[
var edges = document.getElementsByTagName('g');
if (edges && edges.length) {
  for (var i=0;i<edges.length;i++) {
    if (edges[i].id.substr(0,4)=='edge') {
      edges[i].setAttribute('class','edge');
    }
  }
}
]]></script>
        <defs>
                <circle id="rim" cx="0" cy="0" r="7"/>
                <circle id="rim2" cx="0" cy="0" r="3.5"/>
                <g id="zoomPlus">
                        <use xlink:href="#rim" fill="#404040">
                                <set attributeName="fill" to="#808080" begin="zoomplus.mouseover" end="zoomplus.mouseout"/>
                        </use>
                        <path d="M-4,0h8M0,-4v8" fill="none" stroke="white" stroke-width="1.5" pointer-events="none"/>
                </g>
                <g id="zoomMin">
                        <use xlink:href="#rim" fill="#404040">
                                <set attributeName="fill" to="#808080" begin="zoomminus.mouseover" end="zoomminus.mouseout"/>
                        </use>
                        <path d="M-4,0h8" fill="none" stroke="white" stroke-width="1.5" pointer-events="none"/>
                </g>
                <g id="dirArrow">
                        <path fill="none" stroke="white" stroke-width="1.5" d="M0,-3.0v7 M-2.5,-0.5L0,-3.0L2.5,-0.5"/>
                </g>
               <g id="resetDef">
                       <use xlink:href="#rim2" fill="#404040">
                               <set attributeName="fill" to="#808080" begin="reset.mouseover" end="reset.mouseout"/>
                       </use>
               </g>
        </defs>

<script type="text/javascript">
var viewWidth = 1130;
var viewHeight = 1376;
var sectionId = 'dynsection-1';
</script>
<script xlink:href="svgpan.js"/>
<svg id="graph" class="graph">
<g id="viewport">
<title>com.cloudera.impala.catalog.Column</title>
<polygon fill="white" stroke="none" points="-4,4 -4,-1372 1126,-1372 1126,4 -4,4"/>
<!-- Node1 -->
<g id="node1" class="node"><title>Node1</title>
<polygon fill="#bfbfbf" stroke="black" points="541,-56 541,-256 685,-256 685,-56 541,-56"/>
<text text-anchor="start" x="549" y="-244" font-family="Helvetica,sans-Serif" font-size="10.00">com.cloudera.impala.catalog.</text>
<text text-anchor="middle" x="613" y="-233" font-family="Helvetica,sans-Serif" font-size="10.00">Column</text>
<polyline fill="none" stroke="black" points="541,-226 685,-226 "/>
<text text-anchor="middle" x="613" y="-214" font-family="Helvetica,sans-Serif" font-size="10.00"> </text>
<polyline fill="none" stroke="black" points="541,-207 685,-207 "/>
<text text-anchor="start" x="549" y="-195" font-family="Helvetica,sans-Serif" font-size="10.00">+ Column()</text>
<text text-anchor="start" x="549" y="-184" font-family="Helvetica,sans-Serif" font-size="10.00">+ Column()</text>
<text text-anchor="start" x="549" y="-173" font-family="Helvetica,sans-Serif" font-size="10.00">+ getComment()</text>
<text text-anchor="start" x="549" y="-162" font-family="Helvetica,sans-Serif" font-size="10.00">+ getName()</text>
<text text-anchor="start" x="549" y="-151" font-family="Helvetica,sans-Serif" font-size="10.00">+ getType()</text>
<text text-anchor="start" x="549" y="-140" font-family="Helvetica,sans-Serif" font-size="10.00">+ getPosition()</text>
<text text-anchor="start" x="549" y="-129" font-family="Helvetica,sans-Serif" font-size="10.00">+ setPosition()</text>
<text text-anchor="start" x="549" y="-118" font-family="Helvetica,sans-Serif" font-size="10.00">+ getStats()</text>
<text text-anchor="start" x="549" y="-107" font-family="Helvetica,sans-Serif" font-size="10.00">+ updateStats()</text>
<text text-anchor="start" x="549" y="-96" font-family="Helvetica,sans-Serif" font-size="10.00">+ updateStats()</text>
<text text-anchor="start" x="549" y="-85" font-family="Helvetica,sans-Serif" font-size="10.00">+ toString()</text>
<text text-anchor="start" x="549" y="-74" font-family="Helvetica,sans-Serif" font-size="10.00">+ toThrift()</text>
<text text-anchor="start" x="549" y="-63" font-family="Helvetica,sans-Serif" font-size="10.00">+ fromThrift()</text>
</g>
<!-- Node2 -->
<g id="node2" class="node"><title>Node2</title>
<polygon fill="white" stroke="#bfbfbf" points="202,-1310.5 202,-1367.5 244,-1367.5 244,-1310.5 202,-1310.5"/>
<text text-anchor="middle" x="223" y="-1355.5" font-family="Helvetica,sans-Serif" font-size="10.00">String</text>
<polyline fill="none" stroke="#bfbfbf" points="202,-1348.5 244,-1348.5 "/>
<text text-anchor="middle" x="223" y="-1336.5" font-family="Helvetica,sans-Serif" font-size="10.00"> </text>
<polyline fill="none" stroke="#bfbfbf" points="202,-1329.5 244,-1329.5 "/>
<text text-anchor="middle" x="223" y="-1317.5" font-family="Helvetica,sans-Serif" font-size="10.00"> </text>
</g>
<!-- Node2&#45;&gt;Node1 -->
<g id="edge1" class="edge"><title>Node2&#45;&gt;Node1</title>
<path fill="none" stroke="#404040" d="M244.047,-1333.41C276.001,-1325.21 335.894,-1304.74 363,-1262 455.031,-1116.89 353.898,-1045 385,-876 425.691,-654.903 514.34,-407.003 568.327,-267.677"/>
<polygon fill="none" stroke="#404040" points="568.446,-267.371 566.893,-260.329 572.796,-256.187 574.349,-263.229 568.446,-267.371"/>
<text text-anchor="middle" x="412.5" y="-940" font-family="Helvetica,sans-Serif" font-size="10.00"> #comment_</text>
<text text-anchor="middle" x="412.5" y="-929" font-family="Helvetica,sans-Serif" font-size="10.00">#name_</text>
</g>
<!-- Node4 -->
<g id="node4" class="node"><title>Node4</title>
<g id="a_node4"><a xlink:href="enumcom_1_1cloudera_1_1impala_1_1catalog_1_1PrimitiveType.html" target="_top" xlink:title="{com.cloudera.impala.catalog.\lPrimitiveType\n|+ INVALID_TYPE\l+ NULL_TYPE\l+ BOOLEAN\l+ TINYINT\l+ SMALLINT\l+ INT\l+ BIGINT\l+ FLOAT\l+ DOUBLE\l+ DATE\land 7 more...\l|+ toString()\l+ toThrift()\l+ getSlotSize()\l+ fromThrift()\l+ toThrift()\l+ getMaxSlotSize()\l&#45; PrimitiveType()\l}">
<polygon fill="white" stroke="black" points="0,-1017 0,-1261 144,-1261 144,-1017 0,-1017"/>
<text text-anchor="start" x="8" y="-1249" font-family="Helvetica,sans-Serif" font-size="10.00">com.cloudera.impala.catalog.</text>
<text text-anchor="middle" x="72" y="-1238" font-family="Helvetica,sans-Serif" font-size="10.00">PrimitiveType</text>
<polyline fill="none" stroke="black" points="0,-1231 144,-1231 "/>
<text text-anchor="start" x="8" y="-1219" font-family="Helvetica,sans-Serif" font-size="10.00">+ INVALID_TYPE</text>
<text text-anchor="start" x="8" y="-1208" font-family="Helvetica,sans-Serif" font-size="10.00">+ NULL_TYPE</text>
<text text-anchor="start" x="8" y="-1197" font-family="Helvetica,sans-Serif" font-size="10.00">+ BOOLEAN</text>
<text text-anchor="start" x="8" y="-1186" font-family="Helvetica,sans-Serif" font-size="10.00">+ TINYINT</text>
<text text-anchor="start" x="8" y="-1175" font-family="Helvetica,sans-Serif" font-size="10.00">+ SMALLINT</text>
<text text-anchor="start" x="8" y="-1164" font-family="Helvetica,sans-Serif" font-size="10.00">+ INT</text>
<text text-anchor="start" x="8" y="-1153" font-family="Helvetica,sans-Serif" font-size="10.00">+ BIGINT</text>
<text text-anchor="start" x="8" y="-1142" font-family="Helvetica,sans-Serif" font-size="10.00">+ FLOAT</text>
<text text-anchor="start" x="8" y="-1131" font-family="Helvetica,sans-Serif" font-size="10.00">+ DOUBLE</text>
<text text-anchor="start" x="8" y="-1120" font-family="Helvetica,sans-Serif" font-size="10.00">+ DATE</text>
<text text-anchor="start" x="8" y="-1109" font-family="Helvetica,sans-Serif" font-size="10.00">and 7 more...</text>
<polyline fill="none" stroke="black" points="0,-1102 144,-1102 "/>
<text text-anchor="start" x="8" y="-1090" font-family="Helvetica,sans-Serif" font-size="10.00">+ toString()</text>
<text text-anchor="start" x="8" y="-1079" font-family="Helvetica,sans-Serif" font-size="10.00">+ toThrift()</text>
<text text-anchor="start" x="8" y="-1068" font-family="Helvetica,sans-Serif" font-size="10.00">+ getSlotSize()</text>
<text text-anchor="start" x="8" y="-1057" font-family="Helvetica,sans-Serif" font-size="10.00">+ fromThrift()</text>
<text text-anchor="start" x="8" y="-1046" font-family="Helvetica,sans-Serif" font-size="10.00">+ toThrift()</text>
<text text-anchor="start" x="8" y="-1035" font-family="Helvetica,sans-Serif" font-size="10.00">+ getMaxSlotSize()</text>
<text text-anchor="start" x="8" y="-1024" font-family="Helvetica,sans-Serif" font-size="10.00">&#45; PrimitiveType()</text>
</a>
</g>
</g>
<!-- Node2&#45;&gt;Node4 -->
<g id="edge4" class="edge"><title>Node2&#45;&gt;Node4</title>
<path fill="none" stroke="#404040" d="M201.832,-1316.86C187.427,-1302.04 168.279,-1281.48 153,-1262 152.534,-1261.41 152.068,-1260.81 151.602,-1260.21"/>
<polygon fill="none" stroke="#404040" points="151.333,-1259.86 144.515,-1257.51 144.062,-1250.31 150.879,-1252.66 151.333,-1259.86"/>
<text text-anchor="middle" x="206.5" y="-1283.5" font-family="Helvetica,sans-Serif" font-size="10.00"> &#45;description_</text>
</g>
<!-- Node3 -->
<g id="node3" class="node"><title>Node3</title>
<g id="a_node3"><a xlink:href="classcom_1_1cloudera_1_1impala_1_1catalog_1_1Type.html" target="_top" xlink:title="{com.cloudera.impala.catalog.Type\n|+ NULL\l+ FLOAT\l+ STRING\l+ BINARY\l+ TIMESTAMP\l+ DATETIME\l+ DECIMAL\l+ VARCHAR\l+ CHAR\l|+ toSql()\l+ isInvalid()\l+ isValid()\l+ isNull()\l+ isBoolean()\l+ isTimestamp()\l+ isDecimal()\l+ isDecimalOrNull()\l+ isFullySpecifiedDecimal()\l+ isWildcardDecimal()\land 29 more...\l+ getIntegerTypes()\l+ getNumericTypes()\l+ getSupportedTypes()\l+ parseColumnType()\l+ isImplicitlyCastable()\l+ getAssignmentCompatibleType()\l+ toThrift()\l+ toThrift()\l+ fromThrift()\l~ [static initializer]()\l~ [static initializer]()\l# fromThrift()\l}">
<polygon fill="white" stroke="black" points="174,-470.5 174,-857.5 342,-857.5 342,-470.5 174,-470.5"/>
<text text-anchor="middle" x="258" y="-845.5" font-family="Helvetica,sans-Serif" font-size="10.00">com.cloudera.impala.catalog.Type</text>
<polyline fill="none" stroke="black" points="174,-838.5 342,-838.5 "/>
<text text-anchor="start" x="182" y="-826.5" font-family="Helvetica,sans-Serif" font-size="10.00">+ NULL</text>
<text text-anchor="start" x="182" y="-815.5" font-family="Helvetica,sans-Serif" font-size="10.00">+ FLOAT</text>
<text text-anchor="start" x="182" y="-804.5" font-family="Helvetica,sans-Serif" font-size="10.00">+ STRING</text>
<text text-anchor="start" x="182" y="-793.5" font-family="Helvetica,sans-Serif" font-size="10.00">+ BINARY</text>
<text text-anchor="start" x="182" y="-782.5" font-family="Helvetica,sans-Serif" font-size="10.00">+ TIMESTAMP</text>
<text text-anchor="start" x="182" y="-771.5" font-family="Helvetica,sans-Serif" font-size="10.00">+ DATETIME</text>
<text text-anchor="start" x="182" y="-760.5" font-family="Helvetica,sans-Serif" font-size="10.00">+ DECIMAL</text>
<text text-anchor="start" x="182" y="-749.5" font-family="Helvetica,sans-Serif" font-size="10.00">+ VARCHAR</text>
<text text-anchor="start" x="182" y="-738.5" font-family="Helvetica,sans-Serif" font-size="10.00">+ CHAR</text>
<polyline fill="none" stroke="black" points="174,-731.5 342,-731.5 "/>
<text text-anchor="start" x="182" y="-719.5" font-family="Helvetica,sans-Serif" font-size="10.00">+ toSql()</text>
<text text-anchor="start" x="182" y="-708.5" font-family="Helvetica,sans-Serif" font-size="10.00">+ isInvalid()</text>
<text text-anchor="start" x="182" y="-697.5" font-family="Helvetica,sans-Serif" font-size="10.00">+ isValid()</text>
<text text-anchor="start" x="182" y="-686.5" font-family="Helvetica,sans-Serif" font-size="10.00">+ isNull()</text>
<text text-anchor="start" x="182" y="-675.5" font-family="Helvetica,sans-Serif" font-size="10.00">+ isBoolean()</text>
<text text-anchor="start" x="182" y="-664.5" font-family="Helvetica,sans-Serif" font-size="10.00">+ isTimestamp()</text>
<text text-anchor="start" x="182" y="-653.5" font-family="Helvetica,sans-Serif" font-size="10.00">+ isDecimal()</text>
<text text-anchor="start" x="182" y="-642.5" font-family="Helvetica,sans-Serif" font-size="10.00">+ isDecimalOrNull()</text>
<text text-anchor="start" x="182" y="-631.5" font-family="Helvetica,sans-Serif" font-size="10.00">+ isFullySpecifiedDecimal()</text>
<text text-anchor="start" x="182" y="-620.5" font-family="Helvetica,sans-Serif" font-size="10.00">+ isWildcardDecimal()</text>
<text text-anchor="start" x="182" y="-609.5" font-family="Helvetica,sans-Serif" font-size="10.00">and 29 more...</text>
<text text-anchor="start" x="182" y="-598.5" font-family="Helvetica,sans-Serif" font-size="10.00">+ getIntegerTypes()</text>
<text text-anchor="start" x="182" y="-587.5" font-family="Helvetica,sans-Serif" font-size="10.00">+ getNumericTypes()</text>
<text text-anchor="start" x="182" y="-576.5" font-family="Helvetica,sans-Serif" font-size="10.00">+ getSupportedTypes()</text>
<text text-anchor="start" x="182" y="-565.5" font-family="Helvetica,sans-Serif" font-size="10.00">+ parseColumnType()</text>
<text text-anchor="start" x="182" y="-554.5" font-family="Helvetica,sans-Serif" font-size="10.00">+ isImplicitlyCastable()</text>
<text text-anchor="start" x="182" y="-543.5" font-family="Helvetica,sans-Serif" font-size="10.00">+ getAssignmentCompatibleType()</text>
<text text-anchor="start" x="182" y="-532.5" font-family="Helvetica,sans-Serif" font-size="10.00">+ toThrift()</text>
<text text-anchor="start" x="182" y="-521.5" font-family="Helvetica,sans-Serif" font-size="10.00">+ toThrift()</text>
<text text-anchor="start" x="182" y="-510.5" font-family="Helvetica,sans-Serif" font-size="10.00">+ fromThrift()</text>
<text text-anchor="start" x="182" y="-499.5" font-family="Helvetica,sans-Serif" font-size="10.00">~ [static initializer]()</text>
<text text-anchor="start" x="182" y="-488.5" font-family="Helvetica,sans-Serif" font-size="10.00">~ [static initializer]()</text>
<text text-anchor="start" x="182" y="-477.5" font-family="Helvetica,sans-Serif" font-size="10.00"># fromThrift()</text>
</a>
</g>
</g>
<!-- Node3&#45;&gt;Node1 -->
<g id="edge2" class="edge"><title>Node3&#45;&gt;Node1</title>
<path fill="none" stroke="#404040" d="M308.675,-470.225C326.94,-421.613 350.961,-371.496 382,-330 421.576,-277.092 481.674,-232.786 530.651,-202.26"/>
<polygon fill="none" stroke="#404040" points="530.694,-202.234 533.716,-195.686 540.922,-195.957 537.9,-202.505 530.694,-202.234"/>
<text text-anchor="middle" x="398.5" y="-388.5" font-family="Helvetica,sans-Serif" font-size="10.00"> #type_</text>
</g>
<!-- Node8 -->
<g id="node8" class="node"><title>Node8</title>
<g id="a_node8"><a xlink:href="classcom_1_1cloudera_1_1impala_1_1catalog_1_1ScalarType.html" target="_top" xlink:title="{com.cloudera.impala.catalog.\lScalarType\n||+ toString()\l+ toSql()\l+ toThrift()\l+ decimalPrecision()\l+ decimalScale()\l+ getPrimitiveType()\l+ ordinal()\l+ getLength()\l+ isWildcardDecimal()\l+ isWildcardVarchar()\land 12 more...\l+ createType()\l+ createCharType()\l+ createDecimalType()\l+ createDecimalType()\l+ createDecimalType()\l+ createDecimalTypeInternal()\l+ createVarcharType()\l+ createVarcharType()\l+ toColumnType()\l+ getAssignmentCompatibleType()\l+ isImplicitlyCastable()\l# ScalarType()\l}">
<polygon fill="white" stroke="black" points="129,-1 129,-311 297,-311 297,-1 129,-1"/>
<text text-anchor="start" x="137" y="-299" font-family="Helvetica,sans-Serif" font-size="10.00">com.cloudera.impala.catalog.</text>
<text text-anchor="middle" x="213" y="-288" font-family="Helvetica,sans-Serif" font-size="10.00">ScalarType</text>
<polyline fill="none" stroke="black" points="129,-281 297,-281 "/>
<text text-anchor="middle" x="213" y="-269" font-family="Helvetica,sans-Serif" font-size="10.00"> </text>
<polyline fill="none" stroke="black" points="129,-262 297,-262 "/>
<text text-anchor="start" x="137" y="-250" font-family="Helvetica,sans-Serif" font-size="10.00">+ toString()</text>
<text text-anchor="start" x="137" y="-239" font-family="Helvetica,sans-Serif" font-size="10.00">+ toSql()</text>
<text text-anchor="start" x="137" y="-228" font-family="Helvetica,sans-Serif" font-size="10.00">+ toThrift()</text>
<text text-anchor="start" x="137" y="-217" font-family="Helvetica,sans-Serif" font-size="10.00">+ decimalPrecision()</text>
<text text-anchor="start" x="137" y="-206" font-family="Helvetica,sans-Serif" font-size="10.00">+ decimalScale()</text>
<text text-anchor="start" x="137" y="-195" font-family="Helvetica,sans-Serif" font-size="10.00">+ getPrimitiveType()</text>
<text text-anchor="start" x="137" y="-184" font-family="Helvetica,sans-Serif" font-size="10.00">+ ordinal()</text>
<text text-anchor="start" x="137" y="-173" font-family="Helvetica,sans-Serif" font-size="10.00">+ getLength()</text>
<text text-anchor="start" x="137" y="-162" font-family="Helvetica,sans-Serif" font-size="10.00">+ isWildcardDecimal()</text>
<text text-anchor="start" x="137" y="-151" font-family="Helvetica,sans-Serif" font-size="10.00">+ isWildcardVarchar()</text>
<text text-anchor="start" x="137" y="-140" font-family="Helvetica,sans-Serif" font-size="10.00">and 12 more...</text>
<text text-anchor="start" x="137" y="-129" font-family="Helvetica,sans-Serif" font-size="10.00">+ createType()</text>
<text text-anchor="start" x="137" y="-118" font-family="Helvetica,sans-Serif" font-size="10.00">+ createCharType()</text>
<text text-anchor="start" x="137" y="-107" font-family="Helvetica,sans-Serif" font-size="10.00">+ createDecimalType()</text>
<text text-anchor="start" x="137" y="-96" font-family="Helvetica,sans-Serif" font-size="10.00">+ createDecimalType()</text>
<text text-anchor="start" x="137" y="-85" font-family="Helvetica,sans-Serif" font-size="10.00">+ createDecimalType()</text>
<text text-anchor="start" x="137" y="-74" font-family="Helvetica,sans-Serif" font-size="10.00">+ createDecimalTypeInternal()</text>
<text text-anchor="start" x="137" y="-63" font-family="Helvetica,sans-Serif" font-size="10.00">+ createVarcharType()</text>
<text text-anchor="start" x="137" y="-52" font-family="Helvetica,sans-Serif" font-size="10.00">+ createVarcharType()</text>
<text text-anchor="start" x="137" y="-41" font-family="Helvetica,sans-Serif" font-size="10.00">+ toColumnType()</text>
<text text-anchor="start" x="137" y="-30" font-family="Helvetica,sans-Serif" font-size="10.00">+ getAssignmentCompatibleType()</text>
<text text-anchor="start" x="137" y="-19" font-family="Helvetica,sans-Serif" font-size="10.00">+ isImplicitlyCastable()</text>
<text text-anchor="start" x="137" y="-8" font-family="Helvetica,sans-Serif" font-size="10.00"># ScalarType()</text>
</a>
</g>
</g>
<!-- Node3&#45;&gt;Node8 -->
<g id="edge9" class="edge"><title>Node3&#45;&gt;Node8</title>
<path fill="none" stroke="midnightblue" d="M269.139,-460.413C268.914,-417.225 266.717,-371.986 261,-330 260.159,-323.823 259.156,-317.555 258.023,-311.249"/>
<polygon fill="none" stroke="midnightblue" points="265.639,-460.472 269.156,-470.466 272.639,-460.46 265.639,-460.472"/>
</g>
<!-- Node4&#45;&gt;Node3 -->
<g id="edge3" class="edge"><title>Node4&#45;&gt;Node3</title>
<path fill="none" stroke="#404040" d="M111.573,-1016.85C126.797,-972.249 144.887,-921.523 163,-876 165.018,-870.929 167.089,-865.801 169.202,-860.638"/>
<polygon fill="none" stroke="#404040" points="169.31,-860.377 167.903,-853.305 173.891,-849.286 175.297,-856.359 169.31,-860.377"/>
<text text-anchor="middle" x="208.5" y="-934.5" font-family="Helvetica,sans-Serif" font-size="10.00"> #compatibilityMatrix</text>
</g>
<!-- Node4&#45;&gt;Node8 -->
<g id="edge10" class="edge"><title>Node4&#45;&gt;Node8</title>
<path fill="none" stroke="#404040" d="M71.5359,-1016.76C73.4356,-857.131 85.5704,-568.742 143,-330 143.554,-327.696 144.134,-325.383 144.737,-323.063"/>
<polygon fill="none" stroke="#404040" points="144.758,-322.984 142.492,-316.138 147.94,-311.414 150.206,-318.259 144.758,-322.984"/>
<text text-anchor="middle" x="130.5" y="-661.5" font-family="Helvetica,sans-Serif" font-size="10.00"> &#45;type_</text>
</g>
<!-- Node5 -->
<g id="node5" class="node"><title>Node5</title>
<polygon fill="white" stroke="#bfbfbf" points="30.5,-1310.5 30.5,-1367.5 113.5,-1367.5 113.5,-1310.5 30.5,-1310.5"/>
<text text-anchor="middle" x="72" y="-1355.5" font-family="Helvetica,sans-Serif" font-size="10.00">TPrimitiveType</text>
<polyline fill="none" stroke="#bfbfbf" points="30.5,-1348.5 113.5,-1348.5 "/>
<text text-anchor="middle" x="72" y="-1336.5" font-family="Helvetica,sans-Serif" font-size="10.00"> </text>
<polyline fill="none" stroke="#bfbfbf" points="30.5,-1329.5 113.5,-1329.5 "/>
<text text-anchor="middle" x="72" y="-1317.5" font-family="Helvetica,sans-Serif" font-size="10.00"> </text>
</g>
<!-- Node5&#45;&gt;Node4 -->
<g id="edge5" class="edge"><title>Node5&#45;&gt;Node4</title>
<path fill="none" stroke="#404040" d="M72,-1310.47C72,-1300.03 72,-1287.32 72,-1273.6"/>
<polygon fill="none" stroke="#404040" points="72.0001,-1273.32 68,-1267.32 72,-1261.32 76,-1267.32 72.0001,-1273.32"/>
<text text-anchor="middle" x="98.5" y="-1283.5" font-family="Helvetica,sans-Serif" font-size="10.00"> &#45;thriftType_</text>
</g>
<!-- Node6 -->
<g id="node6" class="node"><title>Node6</title>
<polygon fill="white" stroke="#bfbfbf" points="445.5,-1310.5 445.5,-1367.5 474.5,-1367.5 474.5,-1310.5 445.5,-1310.5"/>
<text text-anchor="middle" x="460" y="-1355.5" font-family="Helvetica,sans-Serif" font-size="10.00">int</text>
<polyline fill="none" stroke="#bfbfbf" points="445.5,-1348.5 474.5,-1348.5 "/>
<text text-anchor="middle" x="460" y="-1336.5" font-family="Helvetica,sans-Serif" font-size="10.00"> </text>
<polyline fill="none" stroke="#bfbfbf" points="445.5,-1329.5 474.5,-1329.5 "/>
<text text-anchor="middle" x="460" y="-1317.5" font-family="Helvetica,sans-Serif" font-size="10.00"> </text>
</g>
<!-- Node6&#45;&gt;Node1 -->
<g id="edge13" class="edge"><title>Node6&#45;&gt;Node1</title>
<path fill="none" stroke="#404040" d="M474.436,-1310.33C503.163,-1253.61 566.8,-1119.28 591,-998 618.173,-861.826 617.117,-463.978 614.776,-268.296"/>
<polygon fill="none" stroke="#404040" points="614.776,-268.275 610.702,-262.325 614.628,-256.276 618.701,-262.226 614.776,-268.275"/>
<text text-anchor="middle" x="630" y="-934.5" font-family="Helvetica,sans-Serif" font-size="10.00"> #position_</text>
</g>
<!-- Node6&#45;&gt;Node4 -->
<g id="edge6" class="edge"><title>Node6&#45;&gt;Node4</title>
<path fill="none" stroke="#404040" d="M445.393,-1333.86C410.2,-1323.94 317.864,-1298.3 240,-1280 204.866,-1271.74 188.605,-1282.02 154.285,-1261.88"/>
<polygon fill="none" stroke="#404040" points="154.201,-1261.83 146.991,-1261.96 144.096,-1255.36 151.306,-1255.23 154.201,-1261.83"/>
<text text-anchor="middle" x="312.5" y="-1283.5" font-family="Helvetica,sans-Serif" font-size="10.00"> &#45;slotSize_</text>
</g>
<!-- Node6&#45;&gt;Node8 -->
<g id="edge11" class="edge"><title>Node6&#45;&gt;Node8</title>
<path fill="none" stroke="#404040" d="M459.276,-1310.26C455.128,-1157.34 433.028,-420.865 390,-330 371.003,-289.882 338.516,-253.971 306.519,-225.405"/>
<polygon fill="none" stroke="#404040" points="306.114,-225.052 298.963,-224.121 297.072,-217.163 304.223,-218.093 306.114,-225.052"/>
<text text-anchor="middle" x="514" y="-989.5" font-family="Helvetica,sans-Serif" font-size="10.00"> +DEFAULT_SCALE</text>
<text text-anchor="middle" x="514" y="-978.5" font-family="Helvetica,sans-Serif" font-size="10.00">+MAX_CHAR_LENGTH</text>
<text text-anchor="middle" x="514" y="-967.5" font-family="Helvetica,sans-Serif" font-size="10.00">&#45;scale_</text>
<text text-anchor="middle" x="514" y="-956.5" font-family="Helvetica,sans-Serif" font-size="10.00">+MAX_VARCHAR_LENGTH</text>
<text text-anchor="middle" x="514" y="-945.5" font-family="Helvetica,sans-Serif" font-size="10.00">&#45;len_</text>
<text text-anchor="middle" x="514" y="-934.5" font-family="Helvetica,sans-Serif" font-size="10.00">+MAX_PRECISION</text>
<text text-anchor="middle" x="514" y="-923.5" font-family="Helvetica,sans-Serif" font-size="10.00">+MAX_SCALE</text>
<text text-anchor="middle" x="514" y="-912.5" font-family="Helvetica,sans-Serif" font-size="10.00">+DEFAULT_PRECISION</text>
<text text-anchor="middle" x="514" y="-901.5" font-family="Helvetica,sans-Serif" font-size="10.00">+CHAR_INLINE_LENGTH</text>
<text text-anchor="middle" x="514" y="-890.5" font-family="Helvetica,sans-Serif" font-size="10.00">&#45;precision_</text>
<text text-anchor="middle" x="514" y="-879.5" font-family="Helvetica,sans-Serif" font-size="10.00">...</text>
</g>
<!-- Node7 -->
<g id="node7" class="node"><title>Node7</title>
<polygon fill="white" stroke="#bfbfbf" points="162,-1105 162,-1173 354,-1173 354,-1105 162,-1105"/>
<text text-anchor="start" x="170" y="-1161" font-family="Helvetica,sans-Serif" font-size="10.00">ArrayList&lt; com.cloudera.impala.catalog.</text>
<text text-anchor="middle" x="258" y="-1150" font-family="Helvetica,sans-Serif" font-size="10.00">ScalarType &gt;</text>
<polyline fill="none" stroke="#bfbfbf" points="162,-1143 354,-1143 "/>
<text text-anchor="middle" x="258" y="-1131" font-family="Helvetica,sans-Serif" font-size="10.00"> </text>
<polyline fill="none" stroke="#bfbfbf" points="162,-1124 354,-1124 "/>
<text text-anchor="middle" x="258" y="-1112" font-family="Helvetica,sans-Serif" font-size="10.00"> </text>
</g>
<!-- Node7&#45;&gt;Node3 -->
<g id="edge7" class="edge"><title>Node7&#45;&gt;Node3</title>
<path fill="none" stroke="#404040" d="M258,-1104.74C258,-1055.53 258,-959.458 258,-869.629"/>
<polygon fill="none" stroke="#404040" points="258,-869.572 254,-863.572 258,-857.572 262,-863.572 258,-869.572"/>
<text text-anchor="middle" x="296" y="-945.5" font-family="Helvetica,sans-Serif" font-size="10.00"> &#45;supportedTypes</text>
<text text-anchor="middle" x="296" y="-934.5" font-family="Helvetica,sans-Serif" font-size="10.00">&#45;integerTypes</text>
<text text-anchor="middle" x="296" y="-923.5" font-family="Helvetica,sans-Serif" font-size="10.00">&#45;numericTypes</text>
</g>
<!-- Node8&#45;&gt;Node3 -->
<g id="edge8" class="edge"><title>Node8&#45;&gt;Node3</title>
<path fill="none" stroke="#404040" d="M156.29,-311.256C146.41,-356.712 142.296,-406.465 153,-452 157.071,-469.317 162.787,-486.838 169.473,-503.994"/>
<polygon fill="none" stroke="#404040" points="169.508,-504.082 175.463,-508.149 173.999,-515.21 168.044,-511.143 169.508,-504.082"/>
<text text-anchor="middle" x="207" y="-443.5" font-family="Helvetica,sans-Serif" font-size="10.00"> +SMALLINT</text>
<text text-anchor="middle" x="207" y="-432.5" font-family="Helvetica,sans-Serif" font-size="10.00">+TINYINT</text>
<text text-anchor="middle" x="207" y="-421.5" font-family="Helvetica,sans-Serif" font-size="10.00">+INT</text>
<text text-anchor="middle" x="207" y="-410.5" font-family="Helvetica,sans-Serif" font-size="10.00">+INVALID</text>
<text text-anchor="middle" x="207" y="-399.5" font-family="Helvetica,sans-Serif" font-size="10.00">+BOOLEAN</text>
<text text-anchor="middle" x="207" y="-388.5" font-family="Helvetica,sans-Serif" font-size="10.00">+DEFAULT_VARCHAR</text>
<text text-anchor="middle" x="207" y="-377.5" font-family="Helvetica,sans-Serif" font-size="10.00">+DATE</text>
<text text-anchor="middle" x="207" y="-366.5" font-family="Helvetica,sans-Serif" font-size="10.00">+DEFAULT_DECIMAL</text>
<text text-anchor="middle" x="207" y="-355.5" font-family="Helvetica,sans-Serif" font-size="10.00">+DOUBLE</text>
<text text-anchor="middle" x="207" y="-344.5" font-family="Helvetica,sans-Serif" font-size="10.00">+BIGINT</text>
<text text-anchor="middle" x="207" y="-333.5" font-family="Helvetica,sans-Serif" font-size="10.00">...</text>
</g>
<!-- Node9 -->
<g id="node9" class="node"><title>Node9</title>
<polygon fill="white" stroke="#bfbfbf" points="660,-1110.5 660,-1167.5 706,-1167.5 706,-1110.5 660,-1110.5"/>
<text text-anchor="middle" x="683" y="-1155.5" font-family="Helvetica,sans-Serif" font-size="10.00">Logger</text>
<polyline fill="none" stroke="#bfbfbf" points="660,-1148.5 706,-1148.5 "/>
<text text-anchor="middle" x="683" y="-1136.5" font-family="Helvetica,sans-Serif" font-size="10.00"> </text>
<polyline fill="none" stroke="#bfbfbf" points="660,-1129.5 706,-1129.5 "/>
<text text-anchor="middle" x="683" y="-1117.5" font-family="Helvetica,sans-Serif" font-size="10.00"> </text>
</g>
<!-- Node9&#45;&gt;Node1 -->
<g id="edge12" class="edge"><title>Node9&#45;&gt;Node1</title>
<path fill="none" stroke="#404040" d="M681.206,-1110.44C674.481,-1007.53 649.987,-636.029 627,-330 625.5,-310.031 623.835,-288.771 622.193,-268.236"/>
<polygon fill="none" stroke="#404040" points="622.19,-268.206 617.723,-262.546 621.229,-256.245 625.697,-261.905 622.19,-268.206"/>
<text text-anchor="middle" x="677.5" y="-661.5" font-family="Helvetica,sans-Serif" font-size="10.00"> &#45;LOG</text>
</g>
<!-- Node10 -->
<g id="node10" class="node"><title>Node10</title>
<g id="a_node10"><a xlink:href="classcom_1_1cloudera_1_1impala_1_1catalog_1_1ColumnStats.html" target="_top" xlink:title="{com.cloudera.impala.catalog.\lColumnStats\n||+ ColumnStats()\l+ add()\l+ setAvgSerializedSize()\l+ setMaxSize()\l+ getNumDistinctValues()\l+ setNumDistinctValues()\l+ setNumNulls()\l+ getAvgSerializedSize()\l+ getAvgSize()\l+ getMaxSize()\land 10 more...\l+ fromExpr()\l+ isSupportedColType()\l&#45; initColStats()\l}">
<polygon fill="white" stroke="black" points="721,-558.5 721,-769.5 865,-769.5 865,-558.5 721,-558.5"/>
<text text-anchor="start" x="729" y="-757.5" font-family="Helvetica,sans-Serif" font-size="10.00">com.cloudera.impala.catalog.</text>
<text text-anchor="middle" x="793" y="-746.5" font-family="Helvetica,sans-Serif" font-size="10.00">ColumnStats</text>
<polyline fill="none" stroke="black" points="721,-739.5 865,-739.5 "/>
<text text-anchor="middle" x="793" y="-727.5" font-family="Helvetica,sans-Serif" font-size="10.00"> </text>
<polyline fill="none" stroke="black" points="721,-720.5 865,-720.5 "/>
<text text-anchor="start" x="729" y="-708.5" font-family="Helvetica,sans-Serif" font-size="10.00">+ ColumnStats()</text>
<text text-anchor="start" x="729" y="-697.5" font-family="Helvetica,sans-Serif" font-size="10.00">+ add()</text>
<text text-anchor="start" x="729" y="-686.5" font-family="Helvetica,sans-Serif" font-size="10.00">+ setAvgSerializedSize()</text>
<text text-anchor="start" x="729" y="-675.5" font-family="Helvetica,sans-Serif" font-size="10.00">+ setMaxSize()</text>
<text text-anchor="start" x="729" y="-664.5" font-family="Helvetica,sans-Serif" font-size="10.00">+ getNumDistinctValues()</text>
<text text-anchor="start" x="729" y="-653.5" font-family="Helvetica,sans-Serif" font-size="10.00">+ setNumDistinctValues()</text>
<text text-anchor="start" x="729" y="-642.5" font-family="Helvetica,sans-Serif" font-size="10.00">+ setNumNulls()</text>
<text text-anchor="start" x="729" y="-631.5" font-family="Helvetica,sans-Serif" font-size="10.00">+ getAvgSerializedSize()</text>
<text text-anchor="start" x="729" y="-620.5" font-family="Helvetica,sans-Serif" font-size="10.00">+ getAvgSize()</text>
<text text-anchor="start" x="729" y="-609.5" font-family="Helvetica,sans-Serif" font-size="10.00">+ getMaxSize()</text>
<text text-anchor="start" x="729" y="-598.5" font-family="Helvetica,sans-Serif" font-size="10.00">and 10 more...</text>
<text text-anchor="start" x="729" y="-587.5" font-family="Helvetica,sans-Serif" font-size="10.00">+ fromExpr()</text>
<text text-anchor="start" x="729" y="-576.5" font-family="Helvetica,sans-Serif" font-size="10.00">+ isSupportedColType()</text>
<text text-anchor="start" x="729" y="-565.5" font-family="Helvetica,sans-Serif" font-size="10.00">&#45; initColStats()</text>
</a>
</g>
</g>
<!-- Node9&#45;&gt;Node10 -->
<g id="edge15" class="edge"><title>Node9&#45;&gt;Node10</title>
<path fill="none" stroke="#404040" d="M686.749,-1110.24C693.49,-1062.16 708.856,-960.453 729,-876 736.383,-845.046 745.72,-811.946 754.963,-781.358"/>
<polygon fill="none" stroke="#404040" points="754.997,-781.245 752.921,-774.34 758.497,-769.767 760.573,-776.673 754.997,-781.245"/>
<text text-anchor="middle" x="742.5" y="-934.5" font-family="Helvetica,sans-Serif" font-size="10.00"> &#45;LOG</text>
</g>
<!-- Node10&#45;&gt;Node1 -->
<g id="edge14" class="edge"><title>Node10&#45;&gt;Node1</title>
<path fill="none" stroke="#404040" d="M764.119,-558.43C745,-492.281 718.305,-405.343 690,-330 682.307,-309.522 673.411,-288.001 664.457,-267.363"/>
<polygon fill="none" stroke="#404040" points="664.441,-267.327 658.371,-263.433 659.63,-256.333 665.7,-260.226 664.441,-267.327"/>
<text text-anchor="middle" x="749" y="-388.5" font-family="Helvetica,sans-Serif" font-size="10.00"> #stats_</text>
</g>
<!-- Node11 -->
<g id="node11" class="node"><title>Node11</title>
<polygon fill="white" stroke="#bfbfbf" points="733.5,-1110.5 733.5,-1167.5 778.5,-1167.5 778.5,-1110.5 733.5,-1110.5"/>
<text text-anchor="middle" x="756" y="-1155.5" font-family="Helvetica,sans-Serif" font-size="10.00">double</text>
<polyline fill="none" stroke="#bfbfbf" points="733.5,-1148.5 778.5,-1148.5 "/>
<text text-anchor="middle" x="756" y="-1136.5" font-family="Helvetica,sans-Serif" font-size="10.00"> </text>
<polyline fill="none" stroke="#bfbfbf" points="733.5,-1129.5 778.5,-1129.5 "/>
<text text-anchor="middle" x="756" y="-1117.5" font-family="Helvetica,sans-Serif" font-size="10.00"> </text>
</g>
<!-- Node11&#45;&gt;Node10 -->
<g id="edge16" class="edge"><title>Node11&#45;&gt;Node10</title>
<path fill="none" stroke="#404040" d="M756.427,-1110.42C757.331,-1062.61 759.965,-961.3 767,-876 769.524,-845.394 773.154,-812.393 776.904,-781.788"/>
<polygon fill="none" stroke="#404040" points="776.922,-781.646 773.692,-775.199 778.402,-769.738 781.631,-776.185 776.922,-781.646"/>
<text text-anchor="middle" x="810.5" y="-940" font-family="Helvetica,sans-Serif" font-size="10.00"> &#45;avgSize_</text>
<text text-anchor="middle" x="810.5" y="-929" font-family="Helvetica,sans-Serif" font-size="10.00">&#45;avgSerializedSize_</text>
</g>
<!-- Node12 -->
<g id="node12" class="node"><title>Node12</title>
<polygon fill="white" stroke="#bfbfbf" points="796,-1105 796,-1173 964,-1173 964,-1105 796,-1105"/>
<text text-anchor="start" x="804" y="-1161" font-family="Helvetica,sans-Serif" font-size="10.00">Set&lt; com.cloudera.impala.catalog.</text>
<text text-anchor="middle" x="880" y="-1150" font-family="Helvetica,sans-Serif" font-size="10.00">PrimitiveType &gt;</text>
<polyline fill="none" stroke="#bfbfbf" points="796,-1143 964,-1143 "/>
<text text-anchor="middle" x="880" y="-1131" font-family="Helvetica,sans-Serif" font-size="10.00"> </text>
<polyline fill="none" stroke="#bfbfbf" points="796,-1124 964,-1124 "/>
<text text-anchor="middle" x="880" y="-1112" font-family="Helvetica,sans-Serif" font-size="10.00"> </text>
</g>
<!-- Node12&#45;&gt;Node10 -->
<g id="edge17" class="edge"><title>Node12&#45;&gt;Node10</title>
<path fill="none" stroke="#404040" d="M878.64,-1104.63C876.161,-1054.58 869.639,-957.243 854,-876 848.008,-844.872 839.475,-811.711 830.684,-781.12"/>
<polygon fill="none" stroke="#404040" points="830.664,-781.051 825.145,-776.41 827.306,-769.531 832.825,-774.172 830.664,-781.051"/>
<text text-anchor="middle" x="937.5" y="-934.5" font-family="Helvetica,sans-Serif" font-size="10.00"> &#45;SUPPORTED_COL_TYPES</text>
</g>
<!-- Node13 -->
<g id="node13" class="node"><title>Node13</title>
<polygon fill="white" stroke="#bfbfbf" points="1014.5,-1110.5 1014.5,-1167.5 1049.5,-1167.5 1049.5,-1110.5 1014.5,-1110.5"/>
<text text-anchor="middle" x="1032" y="-1155.5" font-family="Helvetica,sans-Serif" font-size="10.00">long</text>
<polyline fill="none" stroke="#bfbfbf" points="1014.5,-1148.5 1049.5,-1148.5 "/>
<text text-anchor="middle" x="1032" y="-1136.5" font-family="Helvetica,sans-Serif" font-size="10.00"> </text>
<polyline fill="none" stroke="#bfbfbf" points="1014.5,-1129.5 1049.5,-1129.5 "/>
<text text-anchor="middle" x="1032" y="-1117.5" font-family="Helvetica,sans-Serif" font-size="10.00"> </text>
</g>
<!-- Node13&#45;&gt;Node10 -->
<g id="edge18" class="edge"><title>Node13&#45;&gt;Node10</title>
<path fill="none" stroke="#404040" d="M1035.46,-1110.37C1040.4,-1060.75 1045.21,-954.406 1008,-876 978.424,-813.673 922.242,-759.554 874.726,-721.733"/>
<polygon fill="none" stroke="#404040" points="874.49,-721.548 867.299,-720.999 865.041,-714.151 872.231,-714.7 874.49,-721.548"/>
<text text-anchor="middle" x="1079" y="-951" font-family="Helvetica,sans-Serif" font-size="10.00"> &#45;maxSize_</text>
<text text-anchor="start" x="1036" y="-940" font-family="Helvetica,sans-Serif" font-size="10.00">&#45;numDistinctValues</text>
<text text-anchor="middle" x="1079" y="-929" font-family="Helvetica,sans-Serif" font-size="10.00">_</text>
<text text-anchor="middle" x="1079" y="-918" font-family="Helvetica,sans-Serif" font-size="10.00">&#45;numNulls_</text>
</g>
</g>
</svg>
        <g id="navigator" transform="translate(0 0)" fill="#404254">
                <rect fill="#f2f5e9" fill-opacity="0.5" stroke="#606060" stroke-width=".5" x="0" y="0" width="60" height="60"/>
                <use id="zoomplus" xlink:href="#zoomPlus" x="17" y="9" onmousedown="handleZoom(evt,'in')"/>
                <use id="zoomminus" xlink:href="#zoomMin" x="42" y="9" onmousedown="handleZoom(evt,'out')"/>
                <use id="reset" xlink:href="#resetDef" x="30" y="36" onmousedown="handleReset()"/>
                <g id="arrowUp" xlink:href="#dirArrow" transform="translate(30 24)" onmousedown="handlePan(0,-1)">
                  <use xlink:href="#rim" fill="#404040">
                        <set attributeName="fill" to="#808080" begin="arrowUp.mouseover" end="arrowUp.mouseout"/>
                  </use>
                  <path fill="none" stroke="white" stroke-width="1.5" d="M0,-3.0v7 M-2.5,-0.5L0,-3.0L2.5,-0.5"/>
                </g>
                <g id="arrowRight" xlink:href="#dirArrow" transform="rotate(90) translate(36 -43)" onmousedown="handlePan(1,0)">
                  <use xlink:href="#rim" fill="#404040">
                        <set attributeName="fill" to="#808080" begin="arrowRight.mouseover" end="arrowRight.mouseout"/>
                  </use>
                  <path fill="none" stroke="white" stroke-width="1.5" d="M0,-3.0v7 M-2.5,-0.5L0,-3.0L2.5,-0.5"/>
                </g>
                <g id="arrowDown" xlink:href="#dirArrow" transform="rotate(180) translate(-30 -48)" onmousedown="handlePan(0,1)">
                  <use xlink:href="#rim" fill="#404040">
                        <set attributeName="fill" to="#808080" begin="arrowDown.mouseover" end="arrowDown.mouseout"/>
                  </use>
                  <path fill="none" stroke="white" stroke-width="1.5" d="M0,-3.0v7 M-2.5,-0.5L0,-3.0L2.5,-0.5"/>
                </g>
                <g id="arrowLeft" xlink:href="#dirArrow" transform="rotate(270) translate(-36 17)" onmousedown="handlePan(-1,0)">
                  <use xlink:href="#rim" fill="#404040">
                        <set attributeName="fill" to="#808080" begin="arrowLeft.mouseover" end="arrowLeft.mouseout"/>
                  </use>
                  <path fill="none" stroke="white" stroke-width="1.5" d="M0,-3.0v7 M-2.5,-0.5L0,-3.0L2.5,-0.5"/>
                </g>
        </g>
        <svg viewBox="0 0 15 15" width="100%" height="30px" preserveAspectRatio="xMaxYMin meet">
         <g id="arrow_out" transform="scale(0.3 0.3)">
          <a xlink:href="classcom_1_1cloudera_1_1impala_1_1catalog_1_1Column__coll__graph_org.svg" target="_base">
           <rect id="button" ry="5" rx="5" y="6" x="6" height="38" width="38"
                fill="#f2f5e9" fill-opacity="0.5" stroke="#606060" stroke-width="1.0"/>
           <path id="arrow"
             d="M 11.500037,31.436501 C 11.940474,20.09759 22.043105,11.32322 32.158766,21.979434 L 37.068811,17.246167 C 37.068811,17.246167 37.088388,32 37.088388,32 L 22.160133,31.978069 C 22.160133,31.978069 26.997745,27.140456 26.997745,27.140456 C 18.528582,18.264221 13.291696,25.230495 11.500037,31.436501 z"
             style="fill:#404040;"/>
          </a>
         </g>
        </svg>
</svg>
