<?xml version="1.0" encoding="UTF-8" standalone="no"?>
<!DOCTYPE svg PUBLIC "-//W3C//DTD SVG 1.1//EN"
 "http://www.w3.org/Graphics/SVG/1.1/DTD/svg11.dtd">
<!-- Generated by graphviz version 2.36.0 (20140111.2315)
 -->
<!-- Title: impala::ImpalaTestBackend Pages: 1 -->
<svg width="403pt" height="434pt"
 viewBox="0.00 0.00 403.00 434.00" xmlns="http://www.w3.org/2000/svg" xmlns:xlink="http://www.w3.org/1999/xlink">
<g id="graph0" class="graph" transform="scale(1 1) rotate(0) translate(4 430)">
<title>impala::ImpalaTestBackend</title>
<polygon fill="white" stroke="none" points="-4,4 -4,-430 399,-430 399,4 -4,4"/>
<!-- Node1 -->
<g id="node1" class="node"><title>Node1</title>
<polygon fill="#bfbfbf" stroke="black" points="31,-1 31,-113 169,-113 169,-1 31,-1"/>
<text text-anchor="middle" x="100" y="-101" font-family="Helvetica,sans-Serif" font-size="10.00">impala::ImpalaTestBackend</text>
<polyline fill="none" stroke="black" points="31,-94 169,-94 "/>
<text text-anchor="middle" x="100" y="-82" font-family="Helvetica,sans-Serif" font-size="10.00"> </text>
<polyline fill="none" stroke="black" points="31,-75 169,-75 "/>
<text text-anchor="start" x="39" y="-63" font-family="Helvetica,sans-Serif" font-size="10.00">+ ImpalaTestBackend()</text>
<text text-anchor="start" x="39" y="-52" font-family="Helvetica,sans-Serif" font-size="10.00">+ ~ImpalaTestBackend()</text>
<text text-anchor="start" x="39" y="-41" font-family="Helvetica,sans-Serif" font-size="10.00">+ ExecPlanFragment()</text>
<text text-anchor="start" x="39" y="-30" font-family="Helvetica,sans-Serif" font-size="10.00">+ ReportExecStatus()</text>
<text text-anchor="start" x="39" y="-19" font-family="Helvetica,sans-Serif" font-size="10.00">+ CancelPlanFragment()</text>
<text text-anchor="start" x="39" y="-8" font-family="Helvetica,sans-Serif" font-size="10.00">+ TransmitData()</text>
</g>
<!-- Node2 -->
<g id="node2" class="node"><title>Node2</title>
<g id="a_node2"><a xlink:href="classImpalaInternalServiceIf.html" target="_top" xlink:title="{ImpalaInternalServiceIf\n||}">
<polygon fill="white" stroke="black" points="-0.5,-201.5 -0.5,-258.5 116.5,-258.5 116.5,-201.5 -0.5,-201.5"/>
<text text-anchor="middle" x="58" y="-246.5" font-family="Helvetica,sans-Serif" font-size="10.00">ImpalaInternalServiceIf</text>
<polyline fill="none" stroke="black" points="-0.5,-239.5 116.5,-239.5 "/>
<text text-anchor="middle" x="58" y="-227.5" font-family="Helvetica,sans-Serif" font-size="10.00"> </text>
<polyline fill="none" stroke="black" points="-0.5,-220.5 116.5,-220.5 "/>
<text text-anchor="middle" x="58" y="-208.5" font-family="Helvetica,sans-Serif" font-size="10.00"> </text>
</a>
</g>
</g>
<!-- Node2&#45;&gt;Node1 -->
<g id="edge1" class="edge"><title>Node2&#45;&gt;Node1</title>
<path fill="none" stroke="midnightblue" d="M67.301,-191.132C72.9268,-168.227 80.1977,-138.624 86.4542,-113.151"/>
<polygon fill="none" stroke="midnightblue" points="63.8278,-190.599 64.8415,-201.145 70.6258,-192.269 63.8278,-190.599"/>
</g>
<!-- Node3 -->
<g id="node3" class="node"><title>Node3</title>
<g id="a_node3"><a xlink:href="classimpala_1_1DataStreamMgr.html" target="_top" xlink:title="{impala::DataStreamMgr\n||+ DataStreamMgr()\l+ CreateRecvr()\l+ AddData()\l+ CloseSender()\l+ Cancel()\l&#45; FindRecvr()\l&#45; DeregisterRecvr()\l&#45; GetHashValue()\l}">
<polygon fill="white" stroke="black" points="135,-163 135,-297 255,-297 255,-163 135,-163"/>
<text text-anchor="middle" x="195" y="-285" font-family="Helvetica,sans-Serif" font-size="10.00">impala::DataStreamMgr</text>
<polyline fill="none" stroke="black" points="135,-278 255,-278 "/>
<text text-anchor="middle" x="195" y="-266" font-family="Helvetica,sans-Serif" font-size="10.00"> </text>
<polyline fill="none" stroke="black" points="135,-259 255,-259 "/>
<text text-anchor="start" x="143" y="-247" font-family="Helvetica,sans-Serif" font-size="10.00">+ DataStreamMgr()</text>
<text text-anchor="start" x="143" y="-236" font-family="Helvetica,sans-Serif" font-size="10.00">+ CreateRecvr()</text>
<text text-anchor="start" x="143" y="-225" font-family="Helvetica,sans-Serif" font-size="10.00">+ AddData()</text>
<text text-anchor="start" x="143" y="-214" font-family="Helvetica,sans-Serif" font-size="10.00">+ CloseSender()</text>
<text text-anchor="start" x="143" y="-203" font-family="Helvetica,sans-Serif" font-size="10.00">+ Cancel()</text>
<text text-anchor="start" x="143" y="-192" font-family="Helvetica,sans-Serif" font-size="10.00">&#45; FindRecvr()</text>
<text text-anchor="start" x="143" y="-181" font-family="Helvetica,sans-Serif" font-size="10.00">&#45; DeregisterRecvr()</text>
<text text-anchor="start" x="143" y="-170" font-family="Helvetica,sans-Serif" font-size="10.00">&#45; GetHashValue()</text>
</a>
</g>
</g>
<!-- Node3&#45;&gt;Node1 -->
<g id="edge2" class="edge"><title>Node3&#45;&gt;Node1</title>
<path fill="none" stroke="#404040" d="M158.271,-162.887C151.132,-150.038 143.651,-136.572 136.519,-123.735"/>
<polygon fill="none" stroke="#404040" points="136.454,-123.617 130.043,-120.314 130.626,-113.127 137.037,-116.429 136.454,-123.617"/>
<text text-anchor="middle" x="162" y="-135.5" font-family="Helvetica,sans-Serif" font-size="10.00"> &#45;mgr_</text>
</g>
<!-- Node4 -->
<g id="node4" class="node"><title>Node4</title>
<polygon fill="white" stroke="#bfbfbf" points="15.5,-346.5 15.5,-425.5 154.5,-425.5 154.5,-346.5 15.5,-346.5"/>
<text text-anchor="start" x="23.5" y="-413.5" font-family="Helvetica,sans-Serif" font-size="10.00">unordered_multimap</text>
<text text-anchor="start" x="23.5" y="-402.5" font-family="Helvetica,sans-Serif" font-size="10.00">&lt; uint32_t, boost::shared</text>
<text text-anchor="middle" x="85" y="-391.5" font-family="Helvetica,sans-Serif" font-size="10.00">_ptr&lt; DataStreamRecvr &gt; &gt;</text>
<polyline fill="none" stroke="#bfbfbf" points="15.5,-384.5 154.5,-384.5 "/>
<text text-anchor="middle" x="85" y="-372.5" font-family="Helvetica,sans-Serif" font-size="10.00"> </text>
<polyline fill="none" stroke="#bfbfbf" points="15.5,-365.5 154.5,-365.5 "/>
<text text-anchor="middle" x="85" y="-353.5" font-family="Helvetica,sans-Serif" font-size="10.00"> </text>
</g>
<!-- Node4&#45;&gt;Node3 -->
<g id="edge3" class="edge"><title>Node4&#45;&gt;Node3</title>
<path fill="none" stroke="#404040" d="M103.067,-346.469C108.386,-336.282 114.528,-325.488 121,-316 123.083,-312.947 125.261,-309.881 127.509,-306.822"/>
<polygon fill="none" stroke="#404040" points="127.639,-306.651 128.083,-299.453 134.898,-297.095 134.454,-304.292 127.639,-306.651"/>
<text text-anchor="middle" x="156" y="-319.5" font-family="Helvetica,sans-Serif" font-size="10.00"> &#45;receiver_map_</text>
</g>
<!-- Node5 -->
<g id="node5" class="node"><title>Node5</title>
<polygon fill="white" stroke="#bfbfbf" points="173,-357.5 173,-414.5 217,-414.5 217,-357.5 173,-357.5"/>
<text text-anchor="middle" x="195" y="-402.5" font-family="Helvetica,sans-Serif" font-size="10.00">mutex</text>
<polyline fill="none" stroke="#bfbfbf" points="173,-395.5 217,-395.5 "/>
<text text-anchor="middle" x="195" y="-383.5" font-family="Helvetica,sans-Serif" font-size="10.00"> </text>
<polyline fill="none" stroke="#bfbfbf" points="173,-376.5 217,-376.5 "/>
<text text-anchor="middle" x="195" y="-364.5" font-family="Helvetica,sans-Serif" font-size="10.00"> </text>
</g>
<!-- Node5&#45;&gt;Node3 -->
<g id="edge4" class="edge"><title>Node5&#45;&gt;Node3</title>
<path fill="none" stroke="#404040" d="M195,-357.468C195,-343.761 195,-326.426 195,-309.022"/>
<polygon fill="none" stroke="#404040" points="195,-309.006 191,-303.006 195,-297.006 199,-303.006 195,-309.006"/>
<text text-anchor="middle" x="210" y="-319.5" font-family="Helvetica,sans-Serif" font-size="10.00"> &#45;lock_</text>
</g>
<!-- Node6 -->
<g id="node6" class="node"><title>Node6</title>
<polygon fill="white" stroke="#bfbfbf" points="235,-352 235,-420 395,-420 395,-352 235,-352"/>
<text text-anchor="start" x="243" y="-408" font-family="Helvetica,sans-Serif" font-size="10.00">set&lt; std::pair&lt; TUniqueId,</text>
<text text-anchor="middle" x="315" y="-397" font-family="Helvetica,sans-Serif" font-size="10.00"> PlanNodeId &gt;, ComparisonOp &gt;</text>
<polyline fill="none" stroke="#bfbfbf" points="235,-390 395,-390 "/>
<text text-anchor="middle" x="315" y="-378" font-family="Helvetica,sans-Serif" font-size="10.00"> </text>
<polyline fill="none" stroke="#bfbfbf" points="235,-371 395,-371 "/>
<text text-anchor="middle" x="315" y="-359" font-family="Helvetica,sans-Serif" font-size="10.00"> </text>
</g>
<!-- Node6&#45;&gt;Node3 -->
<g id="edge5" class="edge"><title>Node6&#45;&gt;Node3</title>
<path fill="none" stroke="#404040" d="M289.257,-351.963C278.934,-338.716 266.578,-322.858 254.262,-307.053"/>
<polygon fill="none" stroke="#404040" points="253.994,-306.709 247.151,-304.434 246.618,-297.243 253.461,-299.517 253.994,-306.709"/>
<text text-anchor="middle" x="321" y="-319.5" font-family="Helvetica,sans-Serif" font-size="10.00"> &#45;fragment_stream_set_</text>
</g>
</g>
</svg>
