<?xml version="1.0" encoding="UTF-8" standalone="no"?>
<!DOCTYPE svg PUBLIC "-//W3C//DTD SVG 1.1//EN"
 "http://www.w3.org/Graphics/SVG/1.1/DTD/svg11.dtd">
<!-- Generated by graphviz version 2.36.0 (20140111.2315)
 -->
<!-- Title: impala::RuntimeProfile::AveragedCounter Pages: 1 -->
<svg width="429pt" height="662pt"
 viewBox="0.00 0.00 429.00 662.00" xmlns="http://www.w3.org/2000/svg" xmlns:xlink="http://www.w3.org/1999/xlink">
<g id="graph0" class="graph" transform="scale(1 1) rotate(0) translate(4 658)">
<title>impala::RuntimeProfile::AveragedCounter</title>
<polygon fill="white" stroke="none" points="-4,4 -4,-658 425,-658 425,4 -4,4"/>
<!-- Node1 -->
<g id="node1" class="node"><title>Node1</title>
<polygon fill="#bfbfbf" stroke="black" points="138,-1 138,-113 254,-113 254,-1 138,-1"/>
<text text-anchor="start" x="146" y="-101" font-family="Helvetica,sans-Serif" font-size="10.00">impala::RuntimeProfile</text>
<text text-anchor="middle" x="196" y="-90" font-family="Helvetica,sans-Serif" font-size="10.00">::AveragedCounter</text>
<polyline fill="none" stroke="black" points="138,-83 254,-83 "/>
<text text-anchor="middle" x="196" y="-71" font-family="Helvetica,sans-Serif" font-size="10.00"> </text>
<polyline fill="none" stroke="black" points="138,-64 254,-64 "/>
<text text-anchor="start" x="146" y="-52" font-family="Helvetica,sans-Serif" font-size="10.00">+ AveragedCounter()</text>
<text text-anchor="start" x="146" y="-41" font-family="Helvetica,sans-Serif" font-size="10.00">+ UpdateCounter()</text>
<text text-anchor="start" x="146" y="-30" font-family="Helvetica,sans-Serif" font-size="10.00">+ Set()</text>
<text text-anchor="start" x="146" y="-19" font-family="Helvetica,sans-Serif" font-size="10.00">+ Set()</text>
<text text-anchor="start" x="146" y="-8" font-family="Helvetica,sans-Serif" font-size="10.00">+ Add()</text>
</g>
<!-- Node2 -->
<g id="node2" class="node"><title>Node2</title>
<g id="a_node2"><a xlink:href="classimpala_1_1RuntimeProfile_1_1Counter.html" target="_top" xlink:title="{impala::RuntimeProfile\l::Counter\n||+ Counter()\l+ ~Counter()\l+ Add()\l+ BitOr()\l+ Set()\l+ Set()\l+ value()\l+ double_value()\l+ unit()\l}">
<polygon fill="white" stroke="black" points="36,-163 36,-319 152,-319 152,-163 36,-163"/>
<text text-anchor="start" x="44" y="-307" font-family="Helvetica,sans-Serif" font-size="10.00">impala::RuntimeProfile</text>
<text text-anchor="middle" x="94" y="-296" font-family="Helvetica,sans-Serif" font-size="10.00">::Counter</text>
<polyline fill="none" stroke="black" points="36,-289 152,-289 "/>
<text text-anchor="middle" x="94" y="-277" font-family="Helvetica,sans-Serif" font-size="10.00"> </text>
<polyline fill="none" stroke="black" points="36,-270 152,-270 "/>
<text text-anchor="start" x="44" y="-258" font-family="Helvetica,sans-Serif" font-size="10.00">+ Counter()</text>
<text text-anchor="start" x="44" y="-247" font-family="Helvetica,sans-Serif" font-size="10.00">+ ~Counter()</text>
<text text-anchor="start" x="44" y="-236" font-family="Helvetica,sans-Serif" font-size="10.00">+ Add()</text>
<text text-anchor="start" x="44" y="-225" font-family="Helvetica,sans-Serif" font-size="10.00">+ BitOr()</text>
<text text-anchor="start" x="44" y="-214" font-family="Helvetica,sans-Serif" font-size="10.00">+ Set()</text>
<text text-anchor="start" x="44" y="-203" font-family="Helvetica,sans-Serif" font-size="10.00">+ Set()</text>
<text text-anchor="start" x="44" y="-192" font-family="Helvetica,sans-Serif" font-size="10.00">+ value()</text>
<text text-anchor="start" x="44" y="-181" font-family="Helvetica,sans-Serif" font-size="10.00">+ double_value()</text>
<text text-anchor="start" x="44" y="-170" font-family="Helvetica,sans-Serif" font-size="10.00">+ unit()</text>
</a>
</g>
</g>
<!-- Node2&#45;&gt;Node1 -->
<g id="edge1" class="edge"><title>Node2&#45;&gt;Node1</title>
<path fill="none" stroke="midnightblue" d="M142.318,-153.785C150.05,-139.99 157.863,-126.048 165.046,-113.231"/>
<polygon fill="none" stroke="midnightblue" points="139.093,-152.381 137.257,-162.816 145.199,-155.803 139.093,-152.381"/>
</g>
<!-- Node3 -->
<g id="node3" class="node"><title>Node3</title>
<polygon fill="white" stroke="#bfbfbf" points="-0.5,-429.5 -0.5,-486.5 34.5,-486.5 34.5,-429.5 -0.5,-429.5"/>
<text text-anchor="middle" x="17" y="-474.5" font-family="Helvetica,sans-Serif" font-size="10.00">type</text>
<polyline fill="none" stroke="#bfbfbf" points="-0.5,-467.5 34.5,-467.5 "/>
<text text-anchor="middle" x="17" y="-455.5" font-family="Helvetica,sans-Serif" font-size="10.00"> </text>
<polyline fill="none" stroke="#bfbfbf" points="-0.5,-448.5 34.5,-448.5 "/>
<text text-anchor="middle" x="17" y="-436.5" font-family="Helvetica,sans-Serif" font-size="10.00"> </text>
</g>
<!-- Node3&#45;&gt;Node2 -->
<g id="edge2" class="edge"><title>Node3&#45;&gt;Node2</title>
<path fill="none" stroke="#404040" d="M24.3722,-429.112C29.2299,-411.456 35.9731,-388.223 43,-368 47.2401,-355.797 51.9989,-343.052 56.8606,-330.553"/>
<polygon fill="none" stroke="#404040" points="56.9469,-330.334 55.4227,-323.286 61.3424,-319.168 62.8667,-326.216 56.9469,-330.334"/>
<text text-anchor="middle" x="69" y="-341.5" font-family="Helvetica,sans-Serif" font-size="10.00"> #unit_</text>
</g>
<!-- Node4 -->
<g id="node4" class="node"><title>Node4</title>
<g id="a_node4"><a xlink:href="classimpala_1_1AtomicInt.html" target="_top" xlink:title="{impala::AtomicInt\&lt;\l int64_t \&gt;\n||+ AtomicInt()\l+ operator int64_t()\l+ operator=()\l+ operator=()\l+ operator+=()\l+ operator&#45;=()\l+ operator\|=()\l+ operator&amp;=()\l+ operator++()\l+ operator++()\land 10 more...\l}">
<polygon fill="white" stroke="black" points="52.5,-369 52.5,-547 151.5,-547 151.5,-369 52.5,-369"/>
<text text-anchor="start" x="60.5" y="-535" font-family="Helvetica,sans-Serif" font-size="10.00">impala::AtomicInt&lt;</text>
<text text-anchor="middle" x="102" y="-524" font-family="Helvetica,sans-Serif" font-size="10.00"> int64_t &gt;</text>
<polyline fill="none" stroke="black" points="52.5,-517 151.5,-517 "/>
<text text-anchor="middle" x="102" y="-505" font-family="Helvetica,sans-Serif" font-size="10.00"> </text>
<polyline fill="none" stroke="black" points="52.5,-498 151.5,-498 "/>
<text text-anchor="start" x="60.5" y="-486" font-family="Helvetica,sans-Serif" font-size="10.00">+ AtomicInt()</text>
<text text-anchor="start" x="60.5" y="-475" font-family="Helvetica,sans-Serif" font-size="10.00">+ operator int64_t()</text>
<text text-anchor="start" x="60.5" y="-464" font-family="Helvetica,sans-Serif" font-size="10.00">+ operator=()</text>
<text text-anchor="start" x="60.5" y="-453" font-family="Helvetica,sans-Serif" font-size="10.00">+ operator=()</text>
<text text-anchor="start" x="60.5" y="-442" font-family="Helvetica,sans-Serif" font-size="10.00">+ operator+=()</text>
<text text-anchor="start" x="60.5" y="-431" font-family="Helvetica,sans-Serif" font-size="10.00">+ operator&#45;=()</text>
<text text-anchor="start" x="60.5" y="-420" font-family="Helvetica,sans-Serif" font-size="10.00">+ operator|=()</text>
<text text-anchor="start" x="60.5" y="-409" font-family="Helvetica,sans-Serif" font-size="10.00">+ operator&amp;=()</text>
<text text-anchor="start" x="60.5" y="-398" font-family="Helvetica,sans-Serif" font-size="10.00">+ operator++()</text>
<text text-anchor="start" x="60.5" y="-387" font-family="Helvetica,sans-Serif" font-size="10.00">+ operator++()</text>
<text text-anchor="start" x="60.5" y="-376" font-family="Helvetica,sans-Serif" font-size="10.00">and 10 more...</text>
</a>
</g>
</g>
<!-- Node4&#45;&gt;Node2 -->
<g id="edge3" class="edge"><title>Node4&#45;&gt;Node2</title>
<path fill="none" stroke="#404040" d="M98.723,-368.931C98.2635,-356.58 97.7907,-343.876 97.3302,-331.499"/>
<polygon fill="none" stroke="#404040" points="97.321,-331.249 93.1006,-325.401 96.8747,-319.257 101.095,-325.104 97.321,-331.249"/>
<text text-anchor="middle" x="116.5" y="-341.5" font-family="Helvetica,sans-Serif" font-size="10.00"> #value_</text>
</g>
<!-- Node5 -->
<g id="node5" class="node"><title>Node5</title>
<polygon fill="white" stroke="#bfbfbf" points="125,-596.5 125,-653.5 171,-653.5 171,-596.5 125,-596.5"/>
<text text-anchor="middle" x="148" y="-641.5" font-family="Helvetica,sans-Serif" font-size="10.00">int64_t</text>
<polyline fill="none" stroke="#bfbfbf" points="125,-634.5 171,-634.5 "/>
<text text-anchor="middle" x="148" y="-622.5" font-family="Helvetica,sans-Serif" font-size="10.00"> </text>
<polyline fill="none" stroke="#bfbfbf" points="125,-615.5 171,-615.5 "/>
<text text-anchor="middle" x="148" y="-603.5" font-family="Helvetica,sans-Serif" font-size="10.00"> </text>
</g>
<!-- Node5&#45;&gt;Node1 -->
<g id="edge6" class="edge"><title>Node5&#45;&gt;Node1</title>
<path fill="none" stroke="#404040" d="M160.485,-596.218C162.68,-590.31 164.681,-584.032 166,-578 184.426,-493.746 192.049,-246.348 194.738,-125.705"/>
<polygon fill="none" stroke="#404040" points="194.745,-125.383 190.876,-119.298 195.005,-113.386 198.874,-119.471 194.745,-125.383"/>
<text text-anchor="middle" x="229" y="-341.5" font-family="Helvetica,sans-Serif" font-size="10.00"> &#45;current_int_sum_</text>
</g>
<!-- Node5&#45;&gt;Node4 -->
<g id="edge4" class="edge"><title>Node5&#45;&gt;Node4</title>
<path fill="none" stroke="#404040" d="M137.232,-596.445C135.038,-590.411 132.841,-584.025 131,-578 129.097,-571.772 127.235,-565.331 125.43,-558.817"/>
<polygon fill="none" stroke="#404040" points="125.379,-558.628 119.952,-553.88 122.248,-547.044 127.675,-551.792 125.379,-558.628"/>
<text text-anchor="middle" x="148.5" y="-569.5" font-family="Helvetica,sans-Serif" font-size="10.00"> &#45;value_</text>
</g>
<!-- Node6 -->
<g id="node6" class="node"><title>Node6</title>
<polygon fill="white" stroke="#bfbfbf" points="208.5,-212.5 208.5,-269.5 253.5,-269.5 253.5,-212.5 208.5,-212.5"/>
<text text-anchor="middle" x="231" y="-257.5" font-family="Helvetica,sans-Serif" font-size="10.00">double</text>
<polyline fill="none" stroke="#bfbfbf" points="208.5,-250.5 253.5,-250.5 "/>
<text text-anchor="middle" x="231" y="-238.5" font-family="Helvetica,sans-Serif" font-size="10.00"> </text>
<polyline fill="none" stroke="#bfbfbf" points="208.5,-231.5 253.5,-231.5 "/>
<text text-anchor="middle" x="231" y="-219.5" font-family="Helvetica,sans-Serif" font-size="10.00"> </text>
</g>
<!-- Node6&#45;&gt;Node1 -->
<g id="edge5" class="edge"><title>Node6&#45;&gt;Node1</title>
<path fill="none" stroke="#404040" d="M225.684,-212.358C221.227,-189.182 214.677,-155.121 208.863,-124.888"/>
<polygon fill="none" stroke="#404040" points="208.859,-124.869 203.798,-119.732 206.593,-113.084 211.654,-118.221 208.859,-124.869"/>
<text text-anchor="middle" x="263" y="-135.5" font-family="Helvetica,sans-Serif" font-size="10.00"> &#45;current_double_sum_</text>
</g>
<!-- Node7 -->
<g id="node7" class="node"><title>Node7</title>
<polygon fill="white" stroke="#bfbfbf" points="281,-201.5 281,-280.5 409,-280.5 409,-201.5 281,-201.5"/>
<text text-anchor="start" x="289" y="-268.5" font-family="Helvetica,sans-Serif" font-size="10.00">unordered_map&lt; impala</text>
<text text-anchor="start" x="289" y="-257.5" font-family="Helvetica,sans-Serif" font-size="10.00">::RuntimeProfile::Counter</text>
<text text-anchor="middle" x="345" y="-246.5" font-family="Helvetica,sans-Serif" font-size="10.00"> *, int64_t &gt;</text>
<polyline fill="none" stroke="#bfbfbf" points="281,-239.5 409,-239.5 "/>
<text text-anchor="middle" x="345" y="-227.5" font-family="Helvetica,sans-Serif" font-size="10.00"> </text>
<polyline fill="none" stroke="#bfbfbf" points="281,-220.5 409,-220.5 "/>
<text text-anchor="middle" x="345" y="-208.5" font-family="Helvetica,sans-Serif" font-size="10.00"> </text>
</g>
<!-- Node7&#45;&gt;Node1 -->
<g id="edge7" class="edge"><title>Node7&#45;&gt;Node1</title>
<path fill="none" stroke="#404040" d="M342.149,-201.455C338.872,-179.342 331.878,-152.075 317,-132 303.516,-113.806 284.103,-99.1334 264.763,-87.8008"/>
<polygon fill="none" stroke="#404040" points="264.549,-87.6821 257.361,-88.2601 254.063,-81.8473 261.251,-81.2694 264.549,-87.6821"/>
<text text-anchor="middle" x="372.5" y="-135.5" font-family="Helvetica,sans-Serif" font-size="10.00"> &#45;counter_value_map_</text>
</g>
</g>
</svg>
