<?xml version="1.0" encoding="UTF-8" standalone="no"?>
<!DOCTYPE svg PUBLIC "-//W3C//DTD SVG 1.1//EN"
 "http://www.w3.org/Graphics/SVG/1.1/DTD/svg11.dtd">
<!-- Generated by graphviz version 2.36.0 (20140111.2315)
 -->
<!-- Title: TTransportFactory Pages: 1 -->
<svg width="126pt" height="248pt"
 viewBox="0.00 0.00 126.00 248.00" xmlns="http://www.w3.org/2000/svg" xmlns:xlink="http://www.w3.org/1999/xlink">
<g id="graph0" class="graph" transform="scale(1 1) rotate(0) translate(4 244)">
<title>TTransportFactory</title>
<polygon fill="white" stroke="none" points="-4,4 -4,-244 122,-244 122,4 -4,4"/>
<!-- Node1 -->
<g id="node1" class="node"><title>Node1</title>
<polygon fill="#bfbfbf" stroke="black" points="10.5,-182.5 10.5,-239.5 107.5,-239.5 107.5,-182.5 10.5,-182.5"/>
<text text-anchor="middle" x="59" y="-227.5" font-family="Helvetica,sans-Serif" font-size="10.00">TTransportFactory</text>
<polyline fill="none" stroke="black" points="10.5,-220.5 107.5,-220.5 "/>
<text text-anchor="middle" x="59" y="-208.5" font-family="Helvetica,sans-Serif" font-size="10.00"> </text>
<polyline fill="none" stroke="black" points="10.5,-201.5 107.5,-201.5 "/>
<text text-anchor="middle" x="59" y="-189.5" font-family="Helvetica,sans-Serif" font-size="10.00"> </text>
</g>
<!-- Node2 -->
<g id="node2" class="node"><title>Node2</title>
<g id="a_node2"><a xlink:href="classapache_1_1thrift_1_1transport_1_1TSaslServerTransport_1_1Factory.html" target="_top" xlink:title="{apache::thrift::transport\l::TSaslServerTransport\l::Factory\n|&#45; serverDefinitionMap_\l&#45; transportMap_\l&#45; transportMap_mutex_\l|+ Factory()\l+ Factory()\l+ ~Factory()\l+ getTransport()\l+ addServerDefinition()\l}">
<polygon fill="white" stroke="black" points="0,-0.5 0,-145.5 118,-145.5 118,-0.5 0,-0.5"/>
<text text-anchor="start" x="8" y="-133.5" font-family="Helvetica,sans-Serif" font-size="10.00">apache::thrift::transport</text>
<text text-anchor="start" x="8" y="-122.5" font-family="Helvetica,sans-Serif" font-size="10.00">::TSaslServerTransport</text>
<text text-anchor="middle" x="59" y="-111.5" font-family="Helvetica,sans-Serif" font-size="10.00">::Factory</text>
<polyline fill="none" stroke="black" points="0,-104.5 118,-104.5 "/>
<text text-anchor="start" x="8" y="-92.5" font-family="Helvetica,sans-Serif" font-size="10.00">&#45; serverDefinitionMap_</text>
<text text-anchor="start" x="8" y="-81.5" font-family="Helvetica,sans-Serif" font-size="10.00">&#45; transportMap_</text>
<text text-anchor="start" x="8" y="-70.5" font-family="Helvetica,sans-Serif" font-size="10.00">&#45; transportMap_mutex_</text>
<polyline fill="none" stroke="black" points="0,-63.5 118,-63.5 "/>
<text text-anchor="start" x="8" y="-51.5" font-family="Helvetica,sans-Serif" font-size="10.00">+ Factory()</text>
<text text-anchor="start" x="8" y="-40.5" font-family="Helvetica,sans-Serif" font-size="10.00">+ Factory()</text>
<text text-anchor="start" x="8" y="-29.5" font-family="Helvetica,sans-Serif" font-size="10.00">+ ~Factory()</text>
<text text-anchor="start" x="8" y="-18.5" font-family="Helvetica,sans-Serif" font-size="10.00">+ getTransport()</text>
<text text-anchor="start" x="8" y="-7.5" font-family="Helvetica,sans-Serif" font-size="10.00">+ addServerDefinition()</text>
</a>
</g>
</g>
<!-- Node1&#45;&gt;Node2 -->
<g id="edge1" class="edge"><title>Node1&#45;&gt;Node2</title>
<path fill="none" stroke="midnightblue" d="M59,-172.356C59,-163.999 59,-154.872 59,-145.656"/>
<polygon fill="none" stroke="midnightblue" points="55.5001,-172.478 59,-182.478 62.5001,-172.478 55.5001,-172.478"/>
</g>
</g>
</svg>
