<?xml version="1.0" encoding="UTF-8" standalone="no"?>
<!DOCTYPE svg PUBLIC "-//W3C//DTD SVG 1.1//EN"
 "http://www.w3.org/Graphics/SVG/1.1/DTD/svg11.dtd">
<!-- Generated by graphviz version 2.36.0 (20140111.2315)
 -->
<!-- Title: com.cloudera.impala.analysis.CreateOrAlterViewStmtBase Pages: 1 -->
<svg width="323pt" height="690pt"
 viewBox="0.00 0.00 323.00 690.00" xmlns="http://www.w3.org/2000/svg" xmlns:xlink="http://www.w3.org/1999/xlink">
<g id="graph0" class="graph" transform="scale(1 1) rotate(0) translate(4 686)">
<title>com.cloudera.impala.analysis.CreateOrAlterViewStmtBase</title>
<polygon fill="white" stroke="none" points="-4,4 -4,-686 319,-686 319,4 -4,4"/>
<!-- Node1 -->
<g id="node1" class="node"><title>Node1</title>
<polygon fill="#bfbfbf" stroke="black" points="78.5,-128.5 78.5,-427.5 235.5,-427.5 235.5,-128.5 78.5,-128.5"/>
<text text-anchor="start" x="86.5" y="-415.5" font-family="Helvetica,sans-Serif" font-size="10.00">com.cloudera.impala.analysis.</text>
<text text-anchor="middle" x="157" y="-404.5" font-family="Helvetica,sans-Serif" font-size="10.00">CreateOrAlterViewStmtBase</text>
<polyline fill="none" stroke="black" points="78.5,-397.5 235.5,-397.5 "/>
<text text-anchor="start" x="86.5" y="-385.5" font-family="Helvetica,sans-Serif" font-size="10.00"># ifNotExists_</text>
<text text-anchor="start" x="86.5" y="-374.5" font-family="Helvetica,sans-Serif" font-size="10.00"># tableName_</text>
<text text-anchor="start" x="86.5" y="-363.5" font-family="Helvetica,sans-Serif" font-size="10.00"># columnDefs_</text>
<text text-anchor="start" x="86.5" y="-352.5" font-family="Helvetica,sans-Serif" font-size="10.00"># comment_</text>
<text text-anchor="start" x="86.5" y="-341.5" font-family="Helvetica,sans-Serif" font-size="10.00"># viewDefStmt_</text>
<text text-anchor="start" x="86.5" y="-330.5" font-family="Helvetica,sans-Serif" font-size="10.00"># dbName_</text>
<text text-anchor="start" x="86.5" y="-319.5" font-family="Helvetica,sans-Serif" font-size="10.00"># owner_</text>
<text text-anchor="start" x="86.5" y="-308.5" font-family="Helvetica,sans-Serif" font-size="10.00"># originalViewDef_</text>
<text text-anchor="start" x="86.5" y="-297.5" font-family="Helvetica,sans-Serif" font-size="10.00"># inlineViewDef_</text>
<text text-anchor="start" x="86.5" y="-286.5" font-family="Helvetica,sans-Serif" font-size="10.00"># finalColDefs_</text>
<text text-anchor="start" x="86.5" y="-275.5" font-family="Helvetica,sans-Serif" font-size="10.00">&#45; LOG</text>
<polyline fill="none" stroke="black" points="78.5,-268.5 235.5,-268.5 "/>
<text text-anchor="start" x="86.5" y="-256.5" font-family="Helvetica,sans-Serif" font-size="10.00">+ CreateOrAlterViewStmtBase()</text>
<text text-anchor="start" x="86.5" y="-245.5" font-family="Helvetica,sans-Serif" font-size="10.00">+ toThrift()</text>
<text text-anchor="start" x="86.5" y="-234.5" font-family="Helvetica,sans-Serif" font-size="10.00">+ getDb()</text>
<text text-anchor="start" x="86.5" y="-223.5" font-family="Helvetica,sans-Serif" font-size="10.00">+ getOwner()</text>
<text text-anchor="start" x="86.5" y="-212.5" font-family="Helvetica,sans-Serif" font-size="10.00">+ getColumnDescs()</text>
<text text-anchor="start" x="86.5" y="-201.5" font-family="Helvetica,sans-Serif" font-size="10.00">+ getComment()</text>
<text text-anchor="start" x="86.5" y="-190.5" font-family="Helvetica,sans-Serif" font-size="10.00">+ getIfNotExists()</text>
<text text-anchor="start" x="86.5" y="-179.5" font-family="Helvetica,sans-Serif" font-size="10.00">+ getOriginalViewDef()</text>
<text text-anchor="start" x="86.5" y="-168.5" font-family="Helvetica,sans-Serif" font-size="10.00">+ getInlineViewDef()</text>
<text text-anchor="start" x="86.5" y="-157.5" font-family="Helvetica,sans-Serif" font-size="10.00">+ getTbl()</text>
<text text-anchor="start" x="86.5" y="-146.5" font-family="Helvetica,sans-Serif" font-size="10.00"># createColumnAndViewDefs()</text>
<text text-anchor="start" x="86.5" y="-135.5" font-family="Helvetica,sans-Serif" font-size="10.00"># computeLineageGraph()</text>
</g>
<!-- Node4 -->
<g id="node4" class="node"><title>Node4</title>
<g id="a_node4"><a xlink:href="classcom_1_1cloudera_1_1impala_1_1analysis_1_1AlterViewStmt.html" target="_top" xlink:title="{com.cloudera.impala.analysis.\lAlterViewStmt\n||+ AlterViewStmt()\l+ analyze()\l+ toSql()\l}">
<polygon fill="white" stroke="black" points="-0.5,-1 -0.5,-91 148.5,-91 148.5,-1 -0.5,-1"/>
<text text-anchor="start" x="7.5" y="-79" font-family="Helvetica,sans-Serif" font-size="10.00">com.cloudera.impala.analysis.</text>
<text text-anchor="middle" x="74" y="-68" font-family="Helvetica,sans-Serif" font-size="10.00">AlterViewStmt</text>
<polyline fill="none" stroke="black" points="-0.5,-61 148.5,-61 "/>
<text text-anchor="middle" x="74" y="-49" font-family="Helvetica,sans-Serif" font-size="10.00"> </text>
<polyline fill="none" stroke="black" points="-0.5,-42 148.5,-42 "/>
<text text-anchor="start" x="7.5" y="-30" font-family="Helvetica,sans-Serif" font-size="10.00">+ AlterViewStmt()</text>
<text text-anchor="start" x="7.5" y="-19" font-family="Helvetica,sans-Serif" font-size="10.00">+ analyze()</text>
<text text-anchor="start" x="7.5" y="-8" font-family="Helvetica,sans-Serif" font-size="10.00">+ toSql()</text>
</a>
</g>
</g>
<!-- Node1&#45;&gt;Node4 -->
<g id="edge3" class="edge"><title>Node1&#45;&gt;Node4</title>
<path fill="none" stroke="midnightblue" d="M99.9272,-118.846C96.3788,-109.014 93.0081,-99.6732 89.9422,-91.1772"/>
<polygon fill="none" stroke="midnightblue" points="96.6928,-120.195 103.379,-128.413 103.277,-117.819 96.6928,-120.195"/>
</g>
<!-- Node5 -->
<g id="node5" class="node"><title>Node5</title>
<g id="a_node5"><a xlink:href="classcom_1_1cloudera_1_1impala_1_1analysis_1_1CreateViewStmt.html" target="_top" xlink:title="{com.cloudera.impala.analysis.\lCreateViewStmt\n||+ CreateViewStmt()\l+ analyze()\l+ toSql()\l}">
<polygon fill="white" stroke="black" points="166.5,-1 166.5,-91 315.5,-91 315.5,-1 166.5,-1"/>
<text text-anchor="start" x="174.5" y="-79" font-family="Helvetica,sans-Serif" font-size="10.00">com.cloudera.impala.analysis.</text>
<text text-anchor="middle" x="241" y="-68" font-family="Helvetica,sans-Serif" font-size="10.00">CreateViewStmt</text>
<polyline fill="none" stroke="black" points="166.5,-61 315.5,-61 "/>
<text text-anchor="middle" x="241" y="-49" font-family="Helvetica,sans-Serif" font-size="10.00"> </text>
<polyline fill="none" stroke="black" points="166.5,-42 315.5,-42 "/>
<text text-anchor="start" x="174.5" y="-30" font-family="Helvetica,sans-Serif" font-size="10.00">+ CreateViewStmt()</text>
<text text-anchor="start" x="174.5" y="-19" font-family="Helvetica,sans-Serif" font-size="10.00">+ analyze()</text>
<text text-anchor="start" x="174.5" y="-8" font-family="Helvetica,sans-Serif" font-size="10.00">+ toSql()</text>
</a>
</g>
</g>
<!-- Node1&#45;&gt;Node5 -->
<g id="edge4" class="edge"><title>Node1&#45;&gt;Node5</title>
<path fill="none" stroke="midnightblue" d="M214.76,-118.846C218.352,-109.014 221.763,-99.6732 224.866,-91.1772"/>
<polygon fill="none" stroke="midnightblue" points="211.41,-117.819 211.267,-128.413 217.985,-120.221 211.41,-117.819"/>
</g>
<!-- Node2 -->
<g id="node2" class="node"><title>Node2</title>
<g id="a_node2"><a xlink:href="classcom_1_1cloudera_1_1impala_1_1analysis_1_1StatementBase.html" target="_top" xlink:title="{com.cloudera.impala.analysis.\lStatementBase\n|# isExplain_\l|+ analyze()\l+ toSql()\l+ setIsExplain()\l+ isExplain()\l}">
<polygon fill="white" stroke="black" points="82.5,-464.5 82.5,-565.5 231.5,-565.5 231.5,-464.5 82.5,-464.5"/>
<text text-anchor="start" x="90.5" y="-553.5" font-family="Helvetica,sans-Serif" font-size="10.00">com.cloudera.impala.analysis.</text>
<text text-anchor="middle" x="157" y="-542.5" font-family="Helvetica,sans-Serif" font-size="10.00">StatementBase</text>
<polyline fill="none" stroke="black" points="82.5,-535.5 231.5,-535.5 "/>
<text text-anchor="start" x="90.5" y="-523.5" font-family="Helvetica,sans-Serif" font-size="10.00"># isExplain_</text>
<polyline fill="none" stroke="black" points="82.5,-516.5 231.5,-516.5 "/>
<text text-anchor="start" x="90.5" y="-504.5" font-family="Helvetica,sans-Serif" font-size="10.00">+ analyze()</text>
<text text-anchor="start" x="90.5" y="-493.5" font-family="Helvetica,sans-Serif" font-size="10.00">+ toSql()</text>
<text text-anchor="start" x="90.5" y="-482.5" font-family="Helvetica,sans-Serif" font-size="10.00">+ setIsExplain()</text>
<text text-anchor="start" x="90.5" y="-471.5" font-family="Helvetica,sans-Serif" font-size="10.00">+ isExplain()</text>
</a>
</g>
</g>
<!-- Node2&#45;&gt;Node1 -->
<g id="edge1" class="edge"><title>Node2&#45;&gt;Node1</title>
<path fill="none" stroke="midnightblue" d="M157,-454.183C157,-445.846 157,-436.994 157,-427.869"/>
<polygon fill="none" stroke="midnightblue" points="153.5,-454.45 157,-464.45 160.5,-454.45 153.5,-454.45"/>
</g>
<!-- Node3 -->
<g id="node3" class="node"><title>Node3</title>
<g id="a_node3"><a xlink:href="interfacecom_1_1cloudera_1_1impala_1_1analysis_1_1ParseNode.html" target="_top" xlink:title="{com.cloudera.impala.analysis.\lParseNode\n||+ analyze()\l+ toSql()\l}">
<polygon fill="white" stroke="black" points="82.5,-602.5 82.5,-681.5 231.5,-681.5 231.5,-602.5 82.5,-602.5"/>
<text text-anchor="start" x="90.5" y="-669.5" font-family="Helvetica,sans-Serif" font-size="10.00">com.cloudera.impala.analysis.</text>
<text text-anchor="middle" x="157" y="-658.5" font-family="Helvetica,sans-Serif" font-size="10.00">ParseNode</text>
<polyline fill="none" stroke="black" points="82.5,-651.5 231.5,-651.5 "/>
<text text-anchor="middle" x="157" y="-639.5" font-family="Helvetica,sans-Serif" font-size="10.00"> </text>
<polyline fill="none" stroke="black" points="82.5,-632.5 231.5,-632.5 "/>
<text text-anchor="start" x="90.5" y="-620.5" font-family="Helvetica,sans-Serif" font-size="10.00">+ analyze()</text>
<text text-anchor="start" x="90.5" y="-609.5" font-family="Helvetica,sans-Serif" font-size="10.00">+ toSql()</text>
</a>
</g>
</g>
<!-- Node3&#45;&gt;Node2 -->
<g id="edge2" class="edge"><title>Node3&#45;&gt;Node2</title>
<path fill="none" stroke="midnightblue" d="M157,-592.406C157,-583.639 157,-574.488 157,-565.691"/>
<polygon fill="none" stroke="midnightblue" points="153.5,-592.476 157,-602.476 160.5,-592.476 153.5,-592.476"/>
</g>
</g>
</svg>
