<?xml version="1.0" encoding="UTF-8" standalone="no"?>
<!DOCTYPE svg PUBLIC "-//W3C//DTD SVG 1.1//EN"
 "http://www.w3.org/Graphics/SVG/1.1/DTD/svg11.dtd">
<!-- Generated by graphviz version 2.36.0 (20140111.2315)
 -->
<!-- Title: impala::GrowingTest Pages: 1 -->
<svg width="355pt" height="282pt"
 viewBox="0.00 0.00 355.00 282.00" xmlns="http://www.w3.org/2000/svg" xmlns:xlink="http://www.w3.org/1999/xlink">
<g id="graph0" class="graph" transform="scale(1 1) rotate(0) translate(4 278)">
<title>impala::GrowingTest</title>
<polygon fill="white" stroke="none" points="-4,4 -4,-278 351,-278 351,4 -4,4"/>
<!-- Node1 -->
<g id="node1" class="node"><title>Node1</title>
<polygon fill="#bfbfbf" stroke="black" points="-0.5,-0.5 -0.5,-167.5 106.5,-167.5 106.5,-0.5 -0.5,-0.5"/>
<text text-anchor="middle" x="53" y="-155.5" font-family="Helvetica,sans-Serif" font-size="10.00">impala::GrowingTest</text>
<polyline fill="none" stroke="black" points="-0.5,-148.5 106.5,-148.5 "/>
<text text-anchor="middle" x="53" y="-136.5" font-family="Helvetica,sans-Serif" font-size="10.00"> </text>
<polyline fill="none" stroke="black" points="-0.5,-129.5 106.5,-129.5 "/>
<text text-anchor="start" x="7.5" y="-117.5" font-family="Helvetica,sans-Serif" font-size="10.00">+ AggregateTest()</text>
<text text-anchor="start" x="7.5" y="-106.5" font-family="Helvetica,sans-Serif" font-size="10.00">+ SanityCheck()</text>
<text text-anchor="start" x="7.5" y="-95.5" font-family="Helvetica,sans-Serif" font-size="10.00">+ NextTestCase()</text>
<text text-anchor="start" x="7.5" y="-84.5" font-family="Helvetica,sans-Serif" font-size="10.00">+ Test()</text>
<text text-anchor="start" x="7.5" y="-73.5" font-family="Helvetica,sans-Serif" font-size="10.00">+ AggregateTest()</text>
<text text-anchor="start" x="7.5" y="-62.5" font-family="Helvetica,sans-Serif" font-size="10.00">+ SanityCheck()</text>
<text text-anchor="start" x="7.5" y="-51.5" font-family="Helvetica,sans-Serif" font-size="10.00">+ NextTestCase()</text>
<text text-anchor="start" x="7.5" y="-40.5" font-family="Helvetica,sans-Serif" font-size="10.00">+ Test()</text>
<text text-anchor="start" x="7.5" y="-29.5" font-family="Helvetica,sans-Serif" font-size="10.00">+ AggregateTest()</text>
<text text-anchor="start" x="7.5" y="-18.5" font-family="Helvetica,sans-Serif" font-size="10.00">+ SanityCheck()</text>
<text text-anchor="start" x="7.5" y="-7.5" font-family="Helvetica,sans-Serif" font-size="10.00">and 14 more...</text>
</g>
<!-- Node2 -->
<g id="node2" class="node"><title>Node2</title>
<polygon fill="white" stroke="#bfbfbf" points="35,-216.5 35,-273.5 71,-273.5 71,-216.5 35,-216.5"/>
<text text-anchor="middle" x="53" y="-261.5" font-family="Helvetica,sans-Serif" font-size="10.00">Test</text>
<polyline fill="none" stroke="#bfbfbf" points="35,-254.5 71,-254.5 "/>
<text text-anchor="middle" x="53" y="-242.5" font-family="Helvetica,sans-Serif" font-size="10.00"> </text>
<polyline fill="none" stroke="#bfbfbf" points="35,-235.5 71,-235.5 "/>
<text text-anchor="middle" x="53" y="-223.5" font-family="Helvetica,sans-Serif" font-size="10.00"> </text>
</g>
<!-- Node2&#45;&gt;Node1 -->
<g id="edge1" class="edge"><title>Node2&#45;&gt;Node1</title>
<path fill="none" stroke="midnightblue" d="M29.7314,-224.076C23.0803,-209.539 19.5946,-188.77 19.2743,-167.7"/>
<polygon fill="none" stroke="midnightblue" points="26.8588,-226.105 34.8417,-233.071 32.9452,-222.648 26.8588,-226.105"/>
</g>
<!-- Node2&#45;&gt;Node1 -->
<g id="edge2" class="edge"><title>Node2&#45;&gt;Node1</title>
<path fill="none" stroke="midnightblue" d="M35.4509,-206.115C33.7833,-194.463 32.8879,-181.151 32.7647,-167.716"/>
<polygon fill="none" stroke="midnightblue" points="32.0585,-207.04 37.1995,-216.304 38.9576,-205.856 32.0585,-207.04"/>
</g>
<!-- Node2&#45;&gt;Node1 -->
<g id="edge3" class="edge"><title>Node2&#45;&gt;Node1</title>
<path fill="none" stroke="midnightblue" d="M47.1503,-206.115C46.5944,-194.463 46.296,-181.151 46.2549,-167.716"/>
<polygon fill="none" stroke="midnightblue" points="43.6677,-206.521 47.7332,-216.304 50.6563,-206.121 43.6677,-206.521"/>
</g>
<!-- Node2&#45;&gt;Node1 -->
<g id="edge4" class="edge"><title>Node2&#45;&gt;Node1</title>
<path fill="none" stroke="midnightblue" d="M58.8497,-206.115C59.4056,-194.463 59.704,-181.151 59.7451,-167.716"/>
<polygon fill="none" stroke="midnightblue" points="55.3437,-206.121 58.2668,-216.304 62.3323,-206.521 55.3437,-206.121"/>
</g>
<!-- Node2&#45;&gt;Node1 -->
<g id="edge5" class="edge"><title>Node2&#45;&gt;Node1</title>
<path fill="none" stroke="midnightblue" d="M70.5491,-206.115C72.2167,-194.463 73.1121,-181.151 73.2353,-167.716"/>
<polygon fill="none" stroke="midnightblue" points="67.0424,-205.856 68.8005,-216.304 73.9415,-207.04 67.0424,-205.856"/>
</g>
<!-- Node2&#45;&gt;Node1 -->
<g id="edge6" class="edge"><title>Node2&#45;&gt;Node1</title>
<path fill="none" stroke="midnightblue" d="M76.2686,-224.076C82.9197,-209.539 86.4054,-188.77 86.7257,-167.7"/>
<polygon fill="none" stroke="midnightblue" points="73.0548,-222.648 71.1583,-233.071 79.1412,-226.105 73.0548,-222.648"/>
</g>
<!-- Node3 -->
<g id="node3" class="node"><title>Node3</title>
<g id="a_node3"><a xlink:href="classuint64__t.html" target="_top" xlink:title="{uint64_t\n||}">
<polygon fill="white" stroke="black" points="105.5,-216.5 105.5,-273.5 156.5,-273.5 156.5,-216.5 105.5,-216.5"/>
<text text-anchor="middle" x="131" y="-261.5" font-family="Helvetica,sans-Serif" font-size="10.00">uint64_t</text>
<polyline fill="none" stroke="black" points="105.5,-254.5 156.5,-254.5 "/>
<text text-anchor="middle" x="131" y="-242.5" font-family="Helvetica,sans-Serif" font-size="10.00"> </text>
<polyline fill="none" stroke="black" points="105.5,-235.5 156.5,-235.5 "/>
<text text-anchor="middle" x="131" y="-223.5" font-family="Helvetica,sans-Serif" font-size="10.00"> </text>
</a>
</g>
</g>
<!-- Node3&#45;&gt;Node1 -->
<g id="edge7" class="edge"><title>Node3&#45;&gt;Node1</title>
<path fill="none" stroke="#404040" d="M121.389,-216.226C117.794,-206.537 113.487,-195.672 109,-186 107.869,-183.562 106.702,-181.102 105.508,-178.629"/>
<polygon fill="none" stroke="#404040" points="105.437,-178.487 99.1893,-174.887 100.109,-167.735 106.357,-171.335 105.437,-178.487"/>
<text text-anchor="middle" x="173" y="-189.5" font-family="Helvetica,sans-Serif" font-size="10.00"> +NUM_PROBE_TUPLES</text>
</g>
<!-- Node4 -->
<g id="node4" class="node"><title>Node4</title>
<polygon fill="white" stroke="#bfbfbf" points="257.5,-216.5 257.5,-273.5 286.5,-273.5 286.5,-216.5 257.5,-216.5"/>
<text text-anchor="middle" x="272" y="-261.5" font-family="Helvetica,sans-Serif" font-size="10.00">int</text>
<polyline fill="none" stroke="#bfbfbf" points="257.5,-254.5 286.5,-254.5 "/>
<text text-anchor="middle" x="272" y="-242.5" font-family="Helvetica,sans-Serif" font-size="10.00"> </text>
<polyline fill="none" stroke="#bfbfbf" points="257.5,-235.5 286.5,-235.5 "/>
<text text-anchor="middle" x="272" y="-223.5" font-family="Helvetica,sans-Serif" font-size="10.00"> </text>
</g>
<!-- Node4&#45;&gt;Node1 -->
<g id="edge8" class="edge"><title>Node4&#45;&gt;Node1</title>
<path fill="none" stroke="#404040" d="M258.617,-216.214C252.699,-205.869 245.022,-194.571 236,-186 202.026,-153.722 155.759,-128.307 118.248,-111.046"/>
<polygon fill="none" stroke="#404040" points="117.857,-110.87 110.745,-112.06 106.911,-105.952 114.024,-104.762 117.857,-110.87"/>
<text text-anchor="middle" x="296.5" y="-189.5" font-family="Helvetica,sans-Serif" font-size="10.00"> +TUPLES_IN_TABLE</text>
</g>
</g>
</svg>
