<?xml version="1.0" encoding="UTF-8" standalone="no"?>
<!DOCTYPE svg PUBLIC "-//W3C//DTD SVG 1.1//EN"
 "http://www.w3.org/Graphics/SVG/1.1/DTD/svg11.dtd">
<!-- Generated by graphviz version 2.36.0 (20140111.2315)
 -->
<!-- Title: impala::JniUtil Pages: 1 -->
<svg width="334pt" height="348pt"
 viewBox="0.00 0.00 334.00 348.00" xmlns="http://www.w3.org/2000/svg" xmlns:xlink="http://www.w3.org/1999/xlink">
<g id="graph0" class="graph" transform="scale(1 1) rotate(0) translate(4 344)">
<title>impala::JniUtil</title>
<polygon fill="white" stroke="none" points="-4,4 -4,-344 330,-344 330,4 -4,4"/>
<!-- Node1 -->
<g id="node1" class="node"><title>Node1</title>
<polygon fill="#bfbfbf" stroke="black" points="74.5,-1 74.5,-179 203.5,-179 203.5,-1 74.5,-1"/>
<text text-anchor="middle" x="139" y="-167" font-family="Helvetica,sans-Serif" font-size="10.00">impala::JniUtil</text>
<polyline fill="none" stroke="black" points="74.5,-160 203.5,-160 "/>
<text text-anchor="middle" x="139" y="-148" font-family="Helvetica,sans-Serif" font-size="10.00"> </text>
<polyline fill="none" stroke="black" points="74.5,-141 203.5,-141 "/>
<text text-anchor="start" x="82.5" y="-129" font-family="Helvetica,sans-Serif" font-size="10.00">+ InitLibhdfs()</text>
<text text-anchor="start" x="82.5" y="-118" font-family="Helvetica,sans-Serif" font-size="10.00">+ Init()</text>
<text text-anchor="start" x="82.5" y="-107" font-family="Helvetica,sans-Serif" font-size="10.00">+ ClassExists()</text>
<text text-anchor="start" x="82.5" y="-96" font-family="Helvetica,sans-Serif" font-size="10.00">+ GetGlobalClassRef()</text>
<text text-anchor="start" x="82.5" y="-85" font-family="Helvetica,sans-Serif" font-size="10.00">+ LocalToGlobalRef()</text>
<text text-anchor="start" x="82.5" y="-74" font-family="Helvetica,sans-Serif" font-size="10.00">+ throwable_to_string_id()</text>
<text text-anchor="start" x="82.5" y="-63" font-family="Helvetica,sans-Serif" font-size="10.00">+ throwable_to_stack</text>
<text text-anchor="start" x="82.5" y="-52" font-family="Helvetica,sans-Serif" font-size="10.00">_trace_id()</text>
<text text-anchor="start" x="82.5" y="-41" font-family="Helvetica,sans-Serif" font-size="10.00">+ jni_util_class()</text>
<text text-anchor="start" x="82.5" y="-30" font-family="Helvetica,sans-Serif" font-size="10.00">+ internal_exc_class()</text>
<text text-anchor="start" x="82.5" y="-19" font-family="Helvetica,sans-Serif" font-size="10.00">+ Cleanup()</text>
<text text-anchor="start" x="82.5" y="-8" font-family="Helvetica,sans-Serif" font-size="10.00">and 7 more...</text>
</g>
<!-- Node2 -->
<g id="node2" class="node"><title>Node2</title>
<polygon fill="white" stroke="#bfbfbf" points="0,-282.5 0,-339.5 90,-339.5 90,-282.5 0,-282.5"/>
<text text-anchor="middle" x="45" y="-327.5" font-family="Helvetica,sans-Serif" font-size="10.00">vector&lt; jobject &gt;</text>
<polyline fill="none" stroke="#bfbfbf" points="0,-320.5 90,-320.5 "/>
<text text-anchor="middle" x="45" y="-308.5" font-family="Helvetica,sans-Serif" font-size="10.00"> </text>
<polyline fill="none" stroke="#bfbfbf" points="0,-301.5 90,-301.5 "/>
<text text-anchor="middle" x="45" y="-289.5" font-family="Helvetica,sans-Serif" font-size="10.00"> </text>
</g>
<!-- Node2&#45;&gt;Node1 -->
<g id="edge1" class="edge"><title>Node2&#45;&gt;Node1</title>
<path fill="none" stroke="#404040" d="M50.5688,-282.162C55.6875,-259.076 64.2636,-225.676 76,-198 77.1184,-195.363 78.2905,-192.711 79.5077,-190.053"/>
<polygon fill="none" stroke="#404040" points="79.5621,-189.939 78.5447,-182.8 84.7433,-179.115 85.7606,-186.254 79.5621,-189.939"/>
<text text-anchor="middle" x="105.5" y="-228.5" font-family="Helvetica,sans-Serif" font-size="10.00"> &#45;global_refs_</text>
</g>
<!-- Node3 -->
<g id="node3" class="node"><title>Node3</title>
<polygon fill="white" stroke="#bfbfbf" points="108,-282.5 108,-339.5 170,-339.5 170,-282.5 108,-282.5"/>
<text text-anchor="middle" x="139" y="-327.5" font-family="Helvetica,sans-Serif" font-size="10.00">jmethodID</text>
<polyline fill="none" stroke="#bfbfbf" points="108,-320.5 170,-320.5 "/>
<text text-anchor="middle" x="139" y="-308.5" font-family="Helvetica,sans-Serif" font-size="10.00"> </text>
<polyline fill="none" stroke="#bfbfbf" points="108,-301.5 170,-301.5 "/>
<text text-anchor="middle" x="139" y="-289.5" font-family="Helvetica,sans-Serif" font-size="10.00"> </text>
</g>
<!-- Node3&#45;&gt;Node1 -->
<g id="edge2" class="edge"><title>Node3&#45;&gt;Node1</title>
<path fill="none" stroke="#404040" d="M139,-282.263C139,-259.097 139,-224.585 139,-191.229"/>
<polygon fill="none" stroke="#404040" points="139,-191.016 135,-185.016 139,-179.016 143,-185.016 139,-191.016"/>
<text text-anchor="start" x="139" y="-256" font-family="Helvetica,sans-Serif" font-size="10.00"> &#45;throwable_to_string</text>
<text text-anchor="middle" x="184.5" y="-245" font-family="Helvetica,sans-Serif" font-size="10.00">_id_</text>
<text text-anchor="start" x="139" y="-234" font-family="Helvetica,sans-Serif" font-size="10.00">&#45;get_jvm_metrics</text>
<text text-anchor="middle" x="184.5" y="-223" font-family="Helvetica,sans-Serif" font-size="10.00">_id_</text>
<text text-anchor="start" x="139" y="-212" font-family="Helvetica,sans-Serif" font-size="10.00">&#45;throwable_to</text>
<text text-anchor="middle" x="184.5" y="-201" font-family="Helvetica,sans-Serif" font-size="10.00">_stack_trace_id_</text>
</g>
<!-- Node4 -->
<g id="node4" class="node"><title>Node4</title>
<polygon fill="white" stroke="#bfbfbf" points="232,-282.5 232,-339.5 274,-339.5 274,-282.5 232,-282.5"/>
<text text-anchor="middle" x="253" y="-327.5" font-family="Helvetica,sans-Serif" font-size="10.00">jclass</text>
<polyline fill="none" stroke="#bfbfbf" points="232,-320.5 274,-320.5 "/>
<text text-anchor="middle" x="253" y="-308.5" font-family="Helvetica,sans-Serif" font-size="10.00"> </text>
<polyline fill="none" stroke="#bfbfbf" points="232,-301.5 274,-301.5 "/>
<text text-anchor="middle" x="253" y="-289.5" font-family="Helvetica,sans-Serif" font-size="10.00"> </text>
</g>
<!-- Node4&#45;&gt;Node1 -->
<g id="edge3" class="edge"><title>Node4&#45;&gt;Node1</title>
<path fill="none" stroke="#404040" d="M251.486,-282.048C249.306,-258.595 243.984,-224.738 231,-198 225.566,-186.811 218.669,-175.851 211.103,-165.469"/>
<polygon fill="none" stroke="#404040" points="210.938,-165.253 204.121,-162.902 203.669,-155.705 210.486,-158.056 210.938,-165.253"/>
<text text-anchor="middle" x="287.5" y="-234" font-family="Helvetica,sans-Serif" font-size="10.00"> &#45;internal_exc_cl_</text>
<text text-anchor="middle" x="287.5" y="-223" font-family="Helvetica,sans-Serif" font-size="10.00">&#45;jni_util_cl_</text>
</g>
</g>
</svg>
