<?xml version="1.0" encoding="UTF-8" standalone="no"?>
<!DOCTYPE svg PUBLIC "-//W3C//DTD SVG 1.1//EN"
 "http://www.w3.org/Graphics/SVG/1.1/DTD/svg11.dtd">
<!-- Generated by graphviz version 2.36.0 (20140111.2315)
 -->
<!-- Title: impala::DataSink Pages: 1 -->
<svg width="202pt" height="284pt"
 viewBox="0.00 0.00 202.00 284.00" xmlns="http://www.w3.org/2000/svg" xmlns:xlink="http://www.w3.org/1999/xlink">
<g id="graph0" class="graph" transform="scale(1 1) rotate(0) translate(4 280)">
<title>impala::DataSink</title>
<polygon fill="white" stroke="none" points="-4,4 -4,-280 198,-280 198,4 -4,4"/>
<!-- Node1 -->
<g id="node1" class="node"><title>Node1</title>
<polygon fill="#bfbfbf" stroke="black" points="55.5,-1 55.5,-157 164.5,-157 164.5,-1 55.5,-1"/>
<text text-anchor="middle" x="110" y="-145" font-family="Helvetica,sans-Serif" font-size="10.00">impala::DataSink</text>
<polyline fill="none" stroke="black" points="55.5,-138 164.5,-138 "/>
<text text-anchor="middle" x="110" y="-126" font-family="Helvetica,sans-Serif" font-size="10.00"> </text>
<polyline fill="none" stroke="black" points="55.5,-119 164.5,-119 "/>
<text text-anchor="start" x="63.5" y="-107" font-family="Helvetica,sans-Serif" font-size="10.00">+ DataSink()</text>
<text text-anchor="start" x="63.5" y="-96" font-family="Helvetica,sans-Serif" font-size="10.00">+ ~DataSink()</text>
<text text-anchor="start" x="63.5" y="-85" font-family="Helvetica,sans-Serif" font-size="10.00">+ Prepare()</text>
<text text-anchor="start" x="63.5" y="-74" font-family="Helvetica,sans-Serif" font-size="10.00">+ Open()</text>
<text text-anchor="start" x="63.5" y="-63" font-family="Helvetica,sans-Serif" font-size="10.00">+ Send()</text>
<text text-anchor="start" x="63.5" y="-52" font-family="Helvetica,sans-Serif" font-size="10.00">+ Close()</text>
<text text-anchor="start" x="63.5" y="-41" font-family="Helvetica,sans-Serif" font-size="10.00">+ profile()</text>
<text text-anchor="start" x="63.5" y="-30" font-family="Helvetica,sans-Serif" font-size="10.00">+ CreateDataSink()</text>
<text text-anchor="start" x="63.5" y="-19" font-family="Helvetica,sans-Serif" font-size="10.00">+ MergeInsertStats()</text>
<text text-anchor="start" x="63.5" y="-8" font-family="Helvetica,sans-Serif" font-size="10.00">+ OutputInsertStats()</text>
</g>
<!-- Node2 -->
<g id="node2" class="node"><title>Node2</title>
<polygon fill="white" stroke="#bfbfbf" points="0,-207 0,-275 102,-275 102,-207 0,-207"/>
<text text-anchor="start" x="8" y="-263" font-family="Helvetica,sans-Serif" font-size="10.00">scoped_ptr&lt; impala</text>
<text text-anchor="middle" x="51" y="-252" font-family="Helvetica,sans-Serif" font-size="10.00">::MemTracker &gt;</text>
<polyline fill="none" stroke="#bfbfbf" points="0,-245 102,-245 "/>
<text text-anchor="middle" x="51" y="-233" font-family="Helvetica,sans-Serif" font-size="10.00"> </text>
<polyline fill="none" stroke="#bfbfbf" points="0,-226 102,-226 "/>
<text text-anchor="middle" x="51" y="-214" font-family="Helvetica,sans-Serif" font-size="10.00"> </text>
</g>
<!-- Node2&#45;&gt;Node1 -->
<g id="edge1" class="edge"><title>Node2&#45;&gt;Node1</title>
<path fill="none" stroke="#404040" d="M48.2323,-206.954C48.2566,-196.856 49.1791,-185.827 52,-176 52.7421,-173.415 53.573,-170.829 54.4809,-168.25"/>
<polygon fill="none" stroke="#404040" points="54.5109,-168.174 52.9944,-161.125 58.9188,-157.013 60.4352,-164.063 54.5109,-168.174"/>
<text text-anchor="middle" x="99.5" y="-179.5" font-family="Helvetica,sans-Serif" font-size="10.00"> #expr_mem_tracker_</text>
</g>
<!-- Node3 -->
<g id="node3" class="node"><title>Node3</title>
<g id="a_node3"><a xlink:href="classbool.html" target="_top" xlink:title="{bool\n||}">
<polygon fill="white" stroke="black" points="151.5,-212.5 151.5,-269.5 186.5,-269.5 186.5,-212.5 151.5,-212.5"/>
<text text-anchor="middle" x="169" y="-257.5" font-family="Helvetica,sans-Serif" font-size="10.00">bool</text>
<polyline fill="none" stroke="black" points="151.5,-250.5 186.5,-250.5 "/>
<text text-anchor="middle" x="169" y="-238.5" font-family="Helvetica,sans-Serif" font-size="10.00"> </text>
<polyline fill="none" stroke="black" points="151.5,-231.5 186.5,-231.5 "/>
<text text-anchor="middle" x="169" y="-219.5" font-family="Helvetica,sans-Serif" font-size="10.00"> </text>
</a>
</g>
</g>
<!-- Node3&#45;&gt;Node1 -->
<g id="edge2" class="edge"><title>Node3&#45;&gt;Node1</title>
<path fill="none" stroke="#404040" d="M159.692,-212.2C155.854,-200.93 151.305,-187.812 147,-176 146.093,-173.512 145.167,-170.989 144.227,-168.445"/>
<polygon fill="none" stroke="#404040" points="144.224,-168.437 138.381,-164.211 140.034,-157.192 145.878,-161.418 144.224,-168.437"/>
<text text-anchor="middle" x="172.5" y="-179.5" font-family="Helvetica,sans-Serif" font-size="10.00"> #closed_</text>
</g>
</g>
</svg>
