<?xml version="1.0" encoding="UTF-8" standalone="no"?>
<!DOCTYPE svg PUBLIC "-//W3C//DTD SVG 1.1//EN"
 "http://www.w3.org/Graphics/SVG/1.1/DTD/svg11.dtd">
<!-- Generated by graphviz version 2.36.0 (20140111.2315)
 -->
<!-- Title: impala::DelimitedTextParser Pages: 1 -->
<svg width="700pt" height="392pt"
 viewBox="0.00 0.00 700.00 392.00" xmlns="http://www.w3.org/2000/svg" xmlns:xlink="http://www.w3.org/1999/xlink">
<g id="graph0" class="graph" transform="scale(1 1) rotate(0) translate(4 388)">
<title>impala::DelimitedTextParser</title>
<polygon fill="white" stroke="none" points="-4,4 -4,-388 696,-388 696,4 -4,4"/>
<!-- Node1 -->
<g id="node1" class="node"><title>Node1</title>
<polygon fill="#bfbfbf" stroke="black" points="222,-0.5 222,-189.5 362,-189.5 362,-0.5 222,-0.5"/>
<text text-anchor="middle" x="292" y="-177.5" font-family="Helvetica,sans-Serif" font-size="10.00">impala::DelimitedTextParser</text>
<polyline fill="none" stroke="black" points="222,-170.5 362,-170.5 "/>
<text text-anchor="middle" x="292" y="-158.5" font-family="Helvetica,sans-Serif" font-size="10.00"> </text>
<polyline fill="none" stroke="black" points="222,-151.5 362,-151.5 "/>
<text text-anchor="start" x="230" y="-139.5" font-family="Helvetica,sans-Serif" font-size="10.00">+ DelimitedTextParser()</text>
<text text-anchor="start" x="230" y="-128.5" font-family="Helvetica,sans-Serif" font-size="10.00">+ ParserReset()</text>
<text text-anchor="start" x="230" y="-117.5" font-family="Helvetica,sans-Serif" font-size="10.00">+ AtTupleStart()</text>
<text text-anchor="start" x="230" y="-106.5" font-family="Helvetica,sans-Serif" font-size="10.00">+ escape_char()</text>
<text text-anchor="start" x="230" y="-95.5" font-family="Helvetica,sans-Serif" font-size="10.00">+ ParseFieldLocations()</text>
<text text-anchor="start" x="230" y="-84.5" font-family="Helvetica,sans-Serif" font-size="10.00">+ ParseSingleTuple()</text>
<text text-anchor="start" x="230" y="-73.5" font-family="Helvetica,sans-Serif" font-size="10.00">+ FindFirstInstance()</text>
<text text-anchor="start" x="230" y="-62.5" font-family="Helvetica,sans-Serif" font-size="10.00">+ ReturnCurrentColumn()</text>
<text text-anchor="start" x="230" y="-51.5" font-family="Helvetica,sans-Serif" font-size="10.00">+ FillColumns()</text>
<text text-anchor="start" x="230" y="-40.5" font-family="Helvetica,sans-Serif" font-size="10.00">+ HasUnfinishedTuple()</text>
<text text-anchor="start" x="230" y="-29.5" font-family="Helvetica,sans-Serif" font-size="10.00">&#45; ParserInit()</text>
<text text-anchor="start" x="230" y="-18.5" font-family="Helvetica,sans-Serif" font-size="10.00">&#45; AddColumn()</text>
<text text-anchor="start" x="230" y="-7.5" font-family="Helvetica,sans-Serif" font-size="10.00">&#45; ParseSse()</text>
</g>
<!-- Node2 -->
<g id="node2" class="node"><title>Node2</title>
<polygon fill="white" stroke="#bfbfbf" points="-0.5,-326.5 -0.5,-383.5 52.5,-383.5 52.5,-326.5 -0.5,-326.5"/>
<text text-anchor="middle" x="26" y="-371.5" font-family="Helvetica,sans-Serif" font-size="10.00">__m128i</text>
<polyline fill="none" stroke="#bfbfbf" points="-0.5,-364.5 52.5,-364.5 "/>
<text text-anchor="middle" x="26" y="-352.5" font-family="Helvetica,sans-Serif" font-size="10.00"> </text>
<polyline fill="none" stroke="#bfbfbf" points="-0.5,-345.5 52.5,-345.5 "/>
<text text-anchor="middle" x="26" y="-333.5" font-family="Helvetica,sans-Serif" font-size="10.00"> </text>
</g>
<!-- Node2&#45;&gt;Node1 -->
<g id="edge1" class="edge"><title>Node2&#45;&gt;Node1</title>
<path fill="none" stroke="#404040" d="M21.1986,-326.396C17.2791,-294.714 15.8932,-242.672 41,-208 80.5843,-153.335 153.047,-124.886 209.974,-110.372"/>
<polygon fill="none" stroke="#404040" points="210.208,-110.315 215.094,-105.011 221.868,-107.481 216.983,-112.785 210.208,-110.315"/>
<text text-anchor="start" x="41" y="-277.5" font-family="Helvetica,sans-Serif" font-size="10.00"> &#45;xmm_escape_search</text>
<text text-anchor="middle" x="91" y="-266.5" font-family="Helvetica,sans-Serif" font-size="10.00">_</text>
<text text-anchor="start" x="41" y="-255.5" font-family="Helvetica,sans-Serif" font-size="10.00">&#45;xmm_delim_search</text>
<text text-anchor="middle" x="91" y="-244.5" font-family="Helvetica,sans-Serif" font-size="10.00">_</text>
<text text-anchor="middle" x="91" y="-233.5" font-family="Helvetica,sans-Serif" font-size="10.00">&#45;xmm_tuple_search_</text>
</g>
<!-- Node3 -->
<g id="node3" class="node"><title>Node3</title>
<polygon fill="white" stroke="#bfbfbf" points="123.5,-326.5 123.5,-383.5 174.5,-383.5 174.5,-326.5 123.5,-326.5"/>
<text text-anchor="middle" x="149" y="-371.5" font-family="Helvetica,sans-Serif" font-size="10.00">uint16_t</text>
<polyline fill="none" stroke="#bfbfbf" points="123.5,-364.5 174.5,-364.5 "/>
<text text-anchor="middle" x="149" y="-352.5" font-family="Helvetica,sans-Serif" font-size="10.00"> </text>
<polyline fill="none" stroke="#bfbfbf" points="123.5,-345.5 174.5,-345.5 "/>
<text text-anchor="middle" x="149" y="-333.5" font-family="Helvetica,sans-Serif" font-size="10.00"> </text>
</g>
<!-- Node3&#45;&gt;Node1 -->
<g id="edge2" class="edge"><title>Node3&#45;&gt;Node1</title>
<path fill="none" stroke="#404040" d="M145.538,-326.487C142.97,-295.813 142.71,-245.581 162,-208 173.861,-184.892 192.723,-164.532 212.441,-147.729"/>
<polygon fill="none" stroke="#404040" points="212.569,-147.625 214.673,-140.727 221.849,-140.017 219.745,-146.914 212.569,-147.625"/>
<text text-anchor="middle" x="191.5" y="-261" font-family="Helvetica,sans-Serif" font-size="10.00"> &#45;high_mask_</text>
<text text-anchor="middle" x="191.5" y="-250" font-family="Helvetica,sans-Serif" font-size="10.00">&#45;low_mask_</text>
</g>
<!-- Node4 -->
<g id="node4" class="node"><title>Node4</title>
<polygon fill="white" stroke="#bfbfbf" points="213.5,-326.5 213.5,-383.5 248.5,-383.5 248.5,-326.5 213.5,-326.5"/>
<text text-anchor="middle" x="231" y="-371.5" font-family="Helvetica,sans-Serif" font-size="10.00">char</text>
<polyline fill="none" stroke="#bfbfbf" points="213.5,-364.5 248.5,-364.5 "/>
<text text-anchor="middle" x="231" y="-352.5" font-family="Helvetica,sans-Serif" font-size="10.00"> </text>
<polyline fill="none" stroke="#bfbfbf" points="213.5,-345.5 248.5,-345.5 "/>
<text text-anchor="middle" x="231" y="-333.5" font-family="Helvetica,sans-Serif" font-size="10.00"> </text>
</g>
<!-- Node4&#45;&gt;Node1 -->
<g id="edge3" class="edge"><title>Node4&#45;&gt;Node1</title>
<path fill="none" stroke="#404040" d="M227.292,-326.321C224.202,-296.577 221.774,-248.162 232,-208 232.582,-205.715 233.219,-203.426 233.908,-201.137"/>
<polygon fill="none" stroke="#404040" points="233.924,-201.087 232.04,-194.127 237.741,-189.711 239.625,-196.671 233.924,-201.087"/>
<text text-anchor="start" x="232" y="-277.5" font-family="Helvetica,sans-Serif" font-size="10.00"> &#45;collection_item_delim</text>
<text text-anchor="middle" x="282" y="-266.5" font-family="Helvetica,sans-Serif" font-size="10.00">_</text>
<text text-anchor="middle" x="282" y="-255.5" font-family="Helvetica,sans-Serif" font-size="10.00">&#45;tuple_delim_</text>
<text text-anchor="middle" x="282" y="-244.5" font-family="Helvetica,sans-Serif" font-size="10.00">&#45;escape_char_</text>
<text text-anchor="middle" x="282" y="-233.5" font-family="Helvetica,sans-Serif" font-size="10.00">&#45;field_delim_</text>
</g>
<!-- Node5 -->
<g id="node5" class="node"><title>Node5</title>
<polygon fill="white" stroke="#bfbfbf" points="331,-326.5 331,-383.5 377,-383.5 377,-326.5 331,-326.5"/>
<text text-anchor="middle" x="354" y="-371.5" font-family="Helvetica,sans-Serif" font-size="10.00">int32_t</text>
<polyline fill="none" stroke="#bfbfbf" points="331,-364.5 377,-364.5 "/>
<text text-anchor="middle" x="354" y="-352.5" font-family="Helvetica,sans-Serif" font-size="10.00"> </text>
<polyline fill="none" stroke="#bfbfbf" points="331,-345.5 377,-345.5 "/>
<text text-anchor="middle" x="354" y="-333.5" font-family="Helvetica,sans-Serif" font-size="10.00"> </text>
</g>
<!-- Node5&#45;&gt;Node1 -->
<g id="edge4" class="edge"><title>Node5&#45;&gt;Node1</title>
<path fill="none" stroke="#404040" d="M351.432,-326.238C348.32,-296.631 342.187,-248.522 332,-208 331.457,-205.841 330.889,-203.665 330.299,-201.478"/>
<polygon fill="none" stroke="#404040" points="330.232,-201.243 324.744,-196.566 326.95,-189.701 332.439,-194.378 330.232,-201.243"/>
<text text-anchor="middle" x="402.5" y="-255.5" font-family="Helvetica,sans-Serif" font-size="10.00"> &#45;last_row_delim_offset_</text>
</g>
<!-- Node6 -->
<g id="node6" class="node"><title>Node6</title>
<polygon fill="white" stroke="#bfbfbf" points="469.5,-326.5 469.5,-383.5 498.5,-383.5 498.5,-326.5 469.5,-326.5"/>
<text text-anchor="middle" x="484" y="-371.5" font-family="Helvetica,sans-Serif" font-size="10.00">int</text>
<polyline fill="none" stroke="#bfbfbf" points="469.5,-364.5 498.5,-364.5 "/>
<text text-anchor="middle" x="484" y="-352.5" font-family="Helvetica,sans-Serif" font-size="10.00"> </text>
<polyline fill="none" stroke="#bfbfbf" points="469.5,-345.5 498.5,-345.5 "/>
<text text-anchor="middle" x="484" y="-333.5" font-family="Helvetica,sans-Serif" font-size="10.00"> </text>
</g>
<!-- Node6&#45;&gt;Node1 -->
<g id="edge5" class="edge"><title>Node6&#45;&gt;Node1</title>
<path fill="none" stroke="#404040" d="M482.074,-326.328C479.078,-289.585 472.322,-227.104 460,-208 439.088,-175.579 405.106,-150.334 373.157,-132.087"/>
<polygon fill="none" stroke="#404040" points="372.93,-131.962 365.744,-132.567 362.422,-126.167 369.607,-125.562 372.93,-131.962"/>
<text text-anchor="start" x="481" y="-277.5" font-family="Helvetica,sans-Serif" font-size="10.00"> &#45;num_partition_keys</text>
<text text-anchor="middle" x="526.5" y="-266.5" font-family="Helvetica,sans-Serif" font-size="10.00">_</text>
<text text-anchor="middle" x="526.5" y="-255.5" font-family="Helvetica,sans-Serif" font-size="10.00">&#45;num_delims_</text>
<text text-anchor="middle" x="526.5" y="-244.5" font-family="Helvetica,sans-Serif" font-size="10.00">&#45;num_cols_</text>
<text text-anchor="middle" x="526.5" y="-233.5" font-family="Helvetica,sans-Serif" font-size="10.00">&#45;column_idx_</text>
</g>
<!-- Node7 -->
<g id="node7" class="node"><title>Node7</title>
<g id="a_node7"><a xlink:href="classbool.html" target="_top" xlink:title="{bool\n||}">
<polygon fill="white" stroke="black" points="580.5,-326.5 580.5,-383.5 615.5,-383.5 615.5,-326.5 580.5,-326.5"/>
<text text-anchor="middle" x="598" y="-371.5" font-family="Helvetica,sans-Serif" font-size="10.00">bool</text>
<polyline fill="none" stroke="black" points="580.5,-364.5 615.5,-364.5 "/>
<text text-anchor="middle" x="598" y="-352.5" font-family="Helvetica,sans-Serif" font-size="10.00"> </text>
<polyline fill="none" stroke="black" points="580.5,-345.5 615.5,-345.5 "/>
<text text-anchor="middle" x="598" y="-333.5" font-family="Helvetica,sans-Serif" font-size="10.00"> </text>
</a>
</g>
</g>
<!-- Node7&#45;&gt;Node1 -->
<g id="edge6" class="edge"><title>Node7&#45;&gt;Node1</title>
<path fill="none" stroke="#404040" d="M601.475,-326.333C603.921,-294.352 602.902,-241.792 576,-208 526.899,-146.323 438.98,-118.508 373.928,-106.027"/>
<polygon fill="none" stroke="#404040" points="373.869,-106.016 367.25,-108.878 362.062,-103.87 368.681,-101.007 373.869,-106.016"/>
<text text-anchor="start" x="602" y="-299.5" font-family="Helvetica,sans-Serif" font-size="10.00"> &#45;is_materialized_col</text>
<text text-anchor="middle" x="647" y="-288.5" font-family="Helvetica,sans-Serif" font-size="10.00">_</text>
<text text-anchor="start" x="602" y="-277.5" font-family="Helvetica,sans-Serif" font-size="10.00">&#45;current_column</text>
<text text-anchor="middle" x="647" y="-266.5" font-family="Helvetica,sans-Serif" font-size="10.00">_has_escape_</text>
<text text-anchor="start" x="602" y="-255.5" font-family="Helvetica,sans-Serif" font-size="10.00">&#45;process_escapes</text>
<text text-anchor="middle" x="647" y="-244.5" font-family="Helvetica,sans-Serif" font-size="10.00">_</text>
<text text-anchor="start" x="602" y="-233.5" font-family="Helvetica,sans-Serif" font-size="10.00">&#45;last_char_is</text>
<text text-anchor="middle" x="647" y="-222.5" font-family="Helvetica,sans-Serif" font-size="10.00">_escape_</text>
<text text-anchor="middle" x="647" y="-211.5" font-family="Helvetica,sans-Serif" font-size="10.00">&#45;unfinished_tuple_</text>
</g>
</g>
</svg>
