<?xml version="1.0" encoding="UTF-8" standalone="no"?>
<!DOCTYPE svg PUBLIC "-//W3C//DTD SVG 1.1//EN"
 "http://www.w3.org/Graphics/SVG/1.1/DTD/svg11.dtd">
<!-- Generated by graphviz version 2.36.0 (20140111.2315)
 -->
<!-- Title: com.cloudera.impala.common.Id&lt; IdType extends Id&lt; IdType &gt; &gt; Pages: 1 -->
<svg width="178pt" height="270pt"
 viewBox="0.00 0.00 178.00 270.00" xmlns="http://www.w3.org/2000/svg" xmlns:xlink="http://www.w3.org/1999/xlink">
<g id="graph0" class="graph" transform="scale(1 1) rotate(0) translate(4 266)">
<title>com.cloudera.impala.common.Id&lt; IdType extends Id&lt; IdType &gt; &gt;</title>
<polygon fill="white" stroke="none" points="-4,4 -4,-266 174,-266 174,4 -4,4"/>
<!-- Node1 -->
<g id="node1" class="node"><title>Node1</title>
<polygon fill="#bfbfbf" stroke="black" points="0,-0.5 0,-167.5 170,-167.5 170,-0.5 0,-0.5"/>
<text text-anchor="start" x="8" y="-155.5" font-family="Helvetica,sans-Serif" font-size="10.00">com.cloudera.impala.common.</text>
<text text-anchor="middle" x="85" y="-144.5" font-family="Helvetica,sans-Serif" font-size="10.00">Id&lt; IdType extends Id&lt; IdType &gt; &gt;</text>
<polyline fill="none" stroke="black" points="0,-137.5 170,-137.5 "/>
<text text-anchor="start" x="8" y="-125.5" font-family="Helvetica,sans-Serif" font-size="10.00"># id_</text>
<text text-anchor="start" x="8" y="-114.5" font-family="Helvetica,sans-Serif" font-size="10.00"># INVALID_ID</text>
<polyline fill="none" stroke="black" points="0,-107.5 170,-107.5 "/>
<text text-anchor="start" x="8" y="-95.5" font-family="Helvetica,sans-Serif" font-size="10.00">+ Id()</text>
<text text-anchor="start" x="8" y="-84.5" font-family="Helvetica,sans-Serif" font-size="10.00">+ isValid()</text>
<text text-anchor="start" x="8" y="-73.5" font-family="Helvetica,sans-Serif" font-size="10.00">+ asInt()</text>
<text text-anchor="start" x="8" y="-62.5" font-family="Helvetica,sans-Serif" font-size="10.00">+ hashCode()</text>
<text text-anchor="start" x="8" y="-51.5" font-family="Helvetica,sans-Serif" font-size="10.00">+ toString()</text>
<text text-anchor="start" x="8" y="-40.5" font-family="Helvetica,sans-Serif" font-size="10.00">+ equals()</text>
<text text-anchor="start" x="8" y="-29.5" font-family="Helvetica,sans-Serif" font-size="10.00">+ compareTo()</text>
<text text-anchor="start" x="8" y="-18.5" font-family="Helvetica,sans-Serif" font-size="10.00">+ asList()</text>
<text text-anchor="start" x="8" y="-7.5" font-family="Helvetica,sans-Serif" font-size="10.00">+ printIds()</text>
</g>
<!-- Node2 -->
<g id="node2" class="node"><title>Node2</title>
<g id="a_node2"><a xlink:href="classComparable.html" target="_top" xlink:title="{Comparable\&lt; Id\&lt; IdType \&gt; \&gt;\n||}">
<polygon fill="white" stroke="black" points="13.5,-204.5 13.5,-261.5 156.5,-261.5 156.5,-204.5 13.5,-204.5"/>
<text text-anchor="middle" x="85" y="-249.5" font-family="Helvetica,sans-Serif" font-size="10.00">Comparable&lt; Id&lt; IdType &gt; &gt;</text>
<polyline fill="none" stroke="black" points="13.5,-242.5 156.5,-242.5 "/>
<text text-anchor="middle" x="85" y="-230.5" font-family="Helvetica,sans-Serif" font-size="10.00"> </text>
<polyline fill="none" stroke="black" points="13.5,-223.5 156.5,-223.5 "/>
<text text-anchor="middle" x="85" y="-211.5" font-family="Helvetica,sans-Serif" font-size="10.00"> </text>
</a>
</g>
</g>
<!-- Node2&#45;&gt;Node1 -->
<g id="edge1" class="edge"><title>Node2&#45;&gt;Node1</title>
<path fill="none" stroke="midnightblue" d="M85,-194.35C85,-186.08 85,-177.008 85,-167.738"/>
<polygon fill="none" stroke="midnightblue" points="81.5001,-194.35 85,-204.35 88.5001,-194.35 81.5001,-194.35"/>
</g>
</g>
</svg>
