<?xml version="1.0" encoding="UTF-8" standalone="no"?>
<!DOCTYPE svg PUBLIC "-//W3C//DTD SVG 1.1//EN"
 "http://www.w3.org/Graphics/SVG/1.1/DTD/svg11.dtd">
<!-- Generated by graphviz version 2.36.0 (20140111.2315)
 -->
<!-- Title: impala::TestRegistrationCb Pages: 1 -->
<svg width="305pt" height="216pt"
 viewBox="0.00 0.00 305.00 216.00" xmlns="http://www.w3.org/2000/svg" xmlns:xlink="http://www.w3.org/1999/xlink">
<g id="graph0" class="graph" transform="scale(1 1) rotate(0) translate(4 212)">
<title>impala::TestRegistrationCb</title>
<polygon fill="white" stroke="none" points="-4,4 -4,-212 301,-212 301,4 -4,4"/>
<!-- Node1 -->
<g id="node1" class="node"><title>Node1</title>
<polygon fill="#bfbfbf" stroke="black" points="94,-0.5 94,-79.5 230,-79.5 230,-0.5 94,-0.5"/>
<text text-anchor="middle" x="162" y="-67.5" font-family="Helvetica,sans-Serif" font-size="10.00">impala::TestRegistrationCb</text>
<polyline fill="none" stroke="black" points="94,-60.5 230,-60.5 "/>
<text text-anchor="middle" x="162" y="-48.5" font-family="Helvetica,sans-Serif" font-size="10.00"> </text>
<polyline fill="none" stroke="black" points="94,-41.5 230,-41.5 "/>
<text text-anchor="start" x="102" y="-29.5" font-family="Helvetica,sans-Serif" font-size="10.00">+ Topic1()</text>
<text text-anchor="start" x="102" y="-18.5" font-family="Helvetica,sans-Serif" font-size="10.00">+ lock1()</text>
<text text-anchor="start" x="102" y="-7.5" font-family="Helvetica,sans-Serif" font-size="10.00">+ cv1()</text>
</g>
<!-- Node2 -->
<g id="node2" class="node"><title>Node2</title>
<g id="a_node2"><a xlink:href="classimpala_1_1StateStore2Test_1_1Callbacks.html" target="_top" xlink:title="{impala::StateStore2Test\l::Callbacks\n||+ Topic1()\l+ Topic2()\l}">
<polygon fill="white" stroke="black" points="0,-128.5 0,-207.5 122,-207.5 122,-128.5 0,-128.5"/>
<text text-anchor="start" x="8" y="-195.5" font-family="Helvetica,sans-Serif" font-size="10.00">impala::StateStore2Test</text>
<text text-anchor="middle" x="61" y="-184.5" font-family="Helvetica,sans-Serif" font-size="10.00">::Callbacks</text>
<polyline fill="none" stroke="black" points="0,-177.5 122,-177.5 "/>
<text text-anchor="middle" x="61" y="-165.5" font-family="Helvetica,sans-Serif" font-size="10.00"> </text>
<polyline fill="none" stroke="black" points="0,-158.5 122,-158.5 "/>
<text text-anchor="start" x="8" y="-146.5" font-family="Helvetica,sans-Serif" font-size="10.00">+ Topic1()</text>
<text text-anchor="start" x="8" y="-135.5" font-family="Helvetica,sans-Serif" font-size="10.00">+ Topic2()</text>
</a>
</g>
</g>
<!-- Node2&#45;&gt;Node1 -->
<g id="edge1" class="edge"><title>Node2&#45;&gt;Node1</title>
<path fill="none" stroke="midnightblue" d="M98.6049,-120.087C109.206,-106.862 120.62,-92.6227 130.801,-79.9209"/>
<polygon fill="none" stroke="midnightblue" points="95.6511,-118.176 92.1275,-128.168 101.113,-122.554 95.6511,-118.176"/>
</g>
<!-- Node3 -->
<g id="node3" class="node"><title>Node3</title>
<polygon fill="white" stroke="#bfbfbf" points="140,-139.5 140,-196.5 184,-196.5 184,-139.5 140,-139.5"/>
<text text-anchor="middle" x="162" y="-184.5" font-family="Helvetica,sans-Serif" font-size="10.00">mutex</text>
<polyline fill="none" stroke="#bfbfbf" points="140,-177.5 184,-177.5 "/>
<text text-anchor="middle" x="162" y="-165.5" font-family="Helvetica,sans-Serif" font-size="10.00"> </text>
<polyline fill="none" stroke="#bfbfbf" points="140,-158.5 184,-158.5 "/>
<text text-anchor="middle" x="162" y="-146.5" font-family="Helvetica,sans-Serif" font-size="10.00"> </text>
</g>
<!-- Node3&#45;&gt;Node1 -->
<g id="edge2" class="edge"><title>Node3&#45;&gt;Node1</title>
<path fill="none" stroke="#404040" d="M162,-139.349C162,-125.379 162,-107.98 162,-91.7177"/>
<polygon fill="none" stroke="#404040" points="162,-91.5786 158,-85.5787 162,-79.5786 166,-85.5786 162,-91.5786"/>
<text text-anchor="middle" x="190.5" y="-101.5" font-family="Helvetica,sans-Serif" font-size="10.00"> #cv_mutex_</text>
</g>
<!-- Node4 -->
<g id="node4" class="node"><title>Node4</title>
<polygon fill="white" stroke="#bfbfbf" points="202.5,-139.5 202.5,-196.5 297.5,-196.5 297.5,-139.5 202.5,-139.5"/>
<text text-anchor="middle" x="250" y="-184.5" font-family="Helvetica,sans-Serif" font-size="10.00">condition_variable</text>
<polyline fill="none" stroke="#bfbfbf" points="202.5,-177.5 297.5,-177.5 "/>
<text text-anchor="middle" x="250" y="-165.5" font-family="Helvetica,sans-Serif" font-size="10.00"> </text>
<polyline fill="none" stroke="#bfbfbf" points="202.5,-158.5 297.5,-158.5 "/>
<text text-anchor="middle" x="250" y="-146.5" font-family="Helvetica,sans-Serif" font-size="10.00"> </text>
</g>
<!-- Node4&#45;&gt;Node1 -->
<g id="edge3" class="edge"><title>Node4&#45;&gt;Node1</title>
<path fill="none" stroke="#404040" d="M242.351,-139.415C237.925,-126.202 231.522,-110.561 223,-98 220.911,-94.9209 218.627,-91.8861 216.209,-88.9178"/>
<polygon fill="none" stroke="#404040" points="216.023,-88.7057 209.058,-86.8382 208.103,-79.6906 215.068,-81.5581 216.023,-88.7057"/>
<text text-anchor="middle" x="242.5" y="-101.5" font-family="Helvetica,sans-Serif" font-size="10.00"> #cv_</text>
</g>
</g>
</svg>
