<?xml version="1.0" encoding="UTF-8" standalone="no"?>
<!DOCTYPE svg PUBLIC "-//W3C//DTD SVG 1.1//EN"
 "http://www.w3.org/Graphics/SVG/1.1/DTD/svg11.dtd">
<!-- Generated by graphviz version 2.36.0 (20140111.2315)
 -->
<!-- Title: com.cloudera.impala.analysis.ExprSubstitutionMap Pages: 1 -->
<svg width="245pt" height="348pt"
 viewBox="0.00 0.00 245.00 348.00" xmlns="http://www.w3.org/2000/svg" xmlns:xlink="http://www.w3.org/1999/xlink">
<g id="graph0" class="graph" transform="scale(1 1) rotate(0) translate(4 344)">
<title>com.cloudera.impala.analysis.ExprSubstitutionMap</title>
<polygon fill="white" stroke="none" points="-4,4 -4,-344 241,-344 241,4 -4,4"/>
<!-- Node1 -->
<g id="node1" class="node"><title>Node1</title>
<polygon fill="#bfbfbf" stroke="black" points="75.5,-0.5 75.5,-211.5 224.5,-211.5 224.5,-0.5 75.5,-0.5"/>
<text text-anchor="start" x="83.5" y="-199.5" font-family="Helvetica,sans-Serif" font-size="10.00">com.cloudera.impala.analysis.</text>
<text text-anchor="middle" x="150" y="-188.5" font-family="Helvetica,sans-Serif" font-size="10.00">ExprSubstitutionMap</text>
<polyline fill="none" stroke="black" points="75.5,-181.5 224.5,-181.5 "/>
<text text-anchor="middle" x="150" y="-169.5" font-family="Helvetica,sans-Serif" font-size="10.00"> </text>
<polyline fill="none" stroke="black" points="75.5,-162.5 224.5,-162.5 "/>
<text text-anchor="start" x="83.5" y="-150.5" font-family="Helvetica,sans-Serif" font-size="10.00">+ ExprSubstitutionMap()</text>
<text text-anchor="start" x="83.5" y="-139.5" font-family="Helvetica,sans-Serif" font-size="10.00">+ ExprSubstitutionMap()</text>
<text text-anchor="start" x="83.5" y="-128.5" font-family="Helvetica,sans-Serif" font-size="10.00">+ put()</text>
<text text-anchor="start" x="83.5" y="-117.5" font-family="Helvetica,sans-Serif" font-size="10.00">+ get()</text>
<text text-anchor="start" x="83.5" y="-106.5" font-family="Helvetica,sans-Serif" font-size="10.00">+ containsMappingFor()</text>
<text text-anchor="start" x="83.5" y="-95.5" font-family="Helvetica,sans-Serif" font-size="10.00">+ substituteLhs()</text>
<text text-anchor="start" x="83.5" y="-84.5" font-family="Helvetica,sans-Serif" font-size="10.00">+ getLhs()</text>
<text text-anchor="start" x="83.5" y="-73.5" font-family="Helvetica,sans-Serif" font-size="10.00">+ getRhs()</text>
<text text-anchor="start" x="83.5" y="-62.5" font-family="Helvetica,sans-Serif" font-size="10.00">+ size()</text>
<text text-anchor="start" x="83.5" y="-51.5" font-family="Helvetica,sans-Serif" font-size="10.00">+ debugString()</text>
<text text-anchor="start" x="83.5" y="-40.5" font-family="Helvetica,sans-Serif" font-size="10.00">+ clear()</text>
<text text-anchor="start" x="83.5" y="-29.5" font-family="Helvetica,sans-Serif" font-size="10.00">+ compose()</text>
<text text-anchor="start" x="83.5" y="-18.5" font-family="Helvetica,sans-Serif" font-size="10.00">+ combine()</text>
<text text-anchor="start" x="83.5" y="-7.5" font-family="Helvetica,sans-Serif" font-size="10.00">&#45; verify()</text>
</g>
<!-- Node2 -->
<g id="node2" class="node"><title>Node2</title>
<polygon fill="white" stroke="#bfbfbf" points="-0.5,-271 -0.5,-339 172.5,-339 172.5,-271 -0.5,-271"/>
<text text-anchor="start" x="7.5" y="-327" font-family="Helvetica,sans-Serif" font-size="10.00">List&lt; com.cloudera.impala.analysis.</text>
<text text-anchor="middle" x="86" y="-316" font-family="Helvetica,sans-Serif" font-size="10.00">Expr &gt;</text>
<polyline fill="none" stroke="#bfbfbf" points="-0.5,-309 172.5,-309 "/>
<text text-anchor="middle" x="86" y="-297" font-family="Helvetica,sans-Serif" font-size="10.00"> </text>
<polyline fill="none" stroke="#bfbfbf" points="-0.5,-290 172.5,-290 "/>
<text text-anchor="middle" x="86" y="-278" font-family="Helvetica,sans-Serif" font-size="10.00"> </text>
</g>
<!-- Node2&#45;&gt;Node1 -->
<g id="edge1" class="edge"><title>Node2&#45;&gt;Node1</title>
<path fill="none" stroke="#404040" d="M96.8567,-270.582C101.274,-256.984 106.665,-240.391 112.299,-223.049"/>
<polygon fill="none" stroke="#404040" points="112.321,-222.981 110.371,-216.038 116.029,-211.568 117.979,-218.51 112.321,-222.981"/>
<text text-anchor="middle" x="121.5" y="-244" font-family="Helvetica,sans-Serif" font-size="10.00"> &#45;lhs_</text>
<text text-anchor="middle" x="121.5" y="-233" font-family="Helvetica,sans-Serif" font-size="10.00">&#45;rhs_</text>
</g>
<!-- Node3 -->
<g id="node3" class="node"><title>Node3</title>
<polygon fill="white" stroke="#bfbfbf" points="191,-276.5 191,-333.5 237,-333.5 237,-276.5 191,-276.5"/>
<text text-anchor="middle" x="214" y="-321.5" font-family="Helvetica,sans-Serif" font-size="10.00">Logger</text>
<polyline fill="none" stroke="#bfbfbf" points="191,-314.5 237,-314.5 "/>
<text text-anchor="middle" x="214" y="-302.5" font-family="Helvetica,sans-Serif" font-size="10.00"> </text>
<polyline fill="none" stroke="#bfbfbf" points="191,-295.5 237,-295.5 "/>
<text text-anchor="middle" x="214" y="-283.5" font-family="Helvetica,sans-Serif" font-size="10.00"> </text>
</g>
<!-- Node3&#45;&gt;Node1 -->
<g id="edge2" class="edge"><title>Node3&#45;&gt;Node1</title>
<path fill="none" stroke="#404040" d="M204.966,-276.193C200.249,-261.673 194.125,-242.823 187.684,-222.996"/>
<polygon fill="none" stroke="#404040" points="187.679,-222.982 182.021,-218.511 183.972,-211.569 189.63,-216.04 187.679,-222.982"/>
<text text-anchor="middle" x="210.5" y="-238.5" font-family="Helvetica,sans-Serif" font-size="10.00"> &#45;LOG</text>
</g>
</g>
</svg>
