<?xml version="1.0" encoding="UTF-8" standalone="no"?>
<!DOCTYPE svg PUBLIC "-//W3C//DTD SVG 1.1//EN"
 "http://www.w3.org/Graphics/SVG/1.1/DTD/svg11.dtd">
<!-- Generated by graphviz version 2.36.0 (20140111.2315)
 -->
<!-- Title: impala::Webserver::UrlHandler Pages: 1 -->
<svg width="332pt" height="238pt"
 viewBox="0.00 0.00 332.00 238.00" xmlns="http://www.w3.org/2000/svg" xmlns:xlink="http://www.w3.org/1999/xlink">
<g id="graph0" class="graph" transform="scale(1 1) rotate(0) translate(4 234)">
<title>impala::Webserver::UrlHandler</title>
<polygon fill="white" stroke="none" points="-4,4 -4,-234 328,-234 328,4 -4,4"/>
<!-- Node1 -->
<g id="node1" class="node"><title>Node1</title>
<polygon fill="#bfbfbf" stroke="black" points="78.5,-0.5 78.5,-101.5 189.5,-101.5 189.5,-0.5 78.5,-0.5"/>
<text text-anchor="start" x="86.5" y="-89.5" font-family="Helvetica,sans-Serif" font-size="10.00">impala::Webserver::</text>
<text text-anchor="middle" x="134" y="-78.5" font-family="Helvetica,sans-Serif" font-size="10.00">UrlHandler</text>
<polyline fill="none" stroke="black" points="78.5,-71.5 189.5,-71.5 "/>
<text text-anchor="middle" x="134" y="-59.5" font-family="Helvetica,sans-Serif" font-size="10.00"> </text>
<polyline fill="none" stroke="black" points="78.5,-52.5 189.5,-52.5 "/>
<text text-anchor="start" x="86.5" y="-40.5" font-family="Helvetica,sans-Serif" font-size="10.00">+ UrlHandler()</text>
<text text-anchor="start" x="86.5" y="-29.5" font-family="Helvetica,sans-Serif" font-size="10.00">+ is_on_nav_bar()</text>
<text text-anchor="start" x="86.5" y="-18.5" font-family="Helvetica,sans-Serif" font-size="10.00">+ callback()</text>
<text text-anchor="start" x="86.5" y="-7.5" font-family="Helvetica,sans-Serif" font-size="10.00">+ template_filename()</text>
</g>
<!-- Node2 -->
<g id="node2" class="node"><title>Node2</title>
<polygon fill="white" stroke="#bfbfbf" points="-0.5,-161.5 -0.5,-218.5 40.5,-218.5 40.5,-161.5 -0.5,-161.5"/>
<text text-anchor="middle" x="20" y="-206.5" font-family="Helvetica,sans-Serif" font-size="10.00">string</text>
<polyline fill="none" stroke="#bfbfbf" points="-0.5,-199.5 40.5,-199.5 "/>
<text text-anchor="middle" x="20" y="-187.5" font-family="Helvetica,sans-Serif" font-size="10.00"> </text>
<polyline fill="none" stroke="#bfbfbf" points="-0.5,-180.5 40.5,-180.5 "/>
<text text-anchor="middle" x="20" y="-168.5" font-family="Helvetica,sans-Serif" font-size="10.00"> </text>
</g>
<!-- Node2&#45;&gt;Node1 -->
<g id="edge1" class="edge"><title>Node2&#45;&gt;Node1</title>
<path fill="none" stroke="#404040" d="M23.2319,-161.286C25.8399,-147.889 30.5403,-132.127 39,-120 46.8985,-108.678 57.3123,-98.5695 68.3456,-89.8298"/>
<polygon fill="none" stroke="#404040" points="68.5384,-89.6858 70.9525,-82.8907 78.1533,-82.5056 75.7393,-89.3007 68.5384,-89.6858"/>
<text text-anchor="middle" x="84.5" y="-123.5" font-family="Helvetica,sans-Serif" font-size="10.00"> &#45;template_filename_</text>
</g>
<!-- Node3 -->
<g id="node3" class="node"><title>Node3</title>
<g id="a_node3"><a xlink:href="classbool.html" target="_top" xlink:title="{bool\n||}">
<polygon fill="white" stroke="black" points="116.5,-161.5 116.5,-218.5 151.5,-218.5 151.5,-161.5 116.5,-161.5"/>
<text text-anchor="middle" x="134" y="-206.5" font-family="Helvetica,sans-Serif" font-size="10.00">bool</text>
<polyline fill="none" stroke="black" points="116.5,-199.5 151.5,-199.5 "/>
<text text-anchor="middle" x="134" y="-187.5" font-family="Helvetica,sans-Serif" font-size="10.00"> </text>
<polyline fill="none" stroke="black" points="116.5,-180.5 151.5,-180.5 "/>
<text text-anchor="middle" x="134" y="-168.5" font-family="Helvetica,sans-Serif" font-size="10.00"> </text>
</a>
</g>
</g>
<!-- Node3&#45;&gt;Node1 -->
<g id="edge2" class="edge"><title>Node3&#45;&gt;Node1</title>
<path fill="none" stroke="#404040" d="M134,-161.276C134,-147.631 134,-130.592 134,-114.059"/>
<polygon fill="none" stroke="#404040" points="134,-113.578 130,-107.578 134,-101.578 138,-107.578 134,-113.578"/>
<text text-anchor="middle" x="171.5" y="-123.5" font-family="Helvetica,sans-Serif" font-size="10.00"> &#45;is_on_nav_bar_</text>
</g>
<!-- Node4 -->
<g id="node4" class="node"><title>Node4</title>
<polygon fill="white" stroke="#bfbfbf" points="170,-150.5 170,-229.5 324,-229.5 324,-150.5 170,-150.5"/>
<text text-anchor="start" x="178" y="-217.5" font-family="Helvetica,sans-Serif" font-size="10.00">function&lt; void(const</text>
<text text-anchor="start" x="178" y="-206.5" font-family="Helvetica,sans-Serif" font-size="10.00"> ArgumentMap &amp;args, rapidjson</text>
<text text-anchor="middle" x="247" y="-195.5" font-family="Helvetica,sans-Serif" font-size="10.00">::Document *json)&gt;</text>
<polyline fill="none" stroke="#bfbfbf" points="170,-188.5 324,-188.5 "/>
<text text-anchor="middle" x="247" y="-176.5" font-family="Helvetica,sans-Serif" font-size="10.00"> </text>
<polyline fill="none" stroke="#bfbfbf" points="170,-169.5 324,-169.5 "/>
<text text-anchor="middle" x="247" y="-157.5" font-family="Helvetica,sans-Serif" font-size="10.00"> </text>
</g>
<!-- Node4&#45;&gt;Node1 -->
<g id="edge3" class="edge"><title>Node4&#45;&gt;Node1</title>
<path fill="none" stroke="#404040" d="M231.236,-150.142C226.177,-139.847 220.032,-129.08 213,-120 208.599,-114.317 203.662,-108.761 198.461,-103.429"/>
<polygon fill="none" stroke="#404040" points="198.092,-103.068 191.005,-101.738 189.508,-94.6836 196.595,-96.0145 198.092,-103.068"/>
<text text-anchor="middle" x="266.5" y="-123.5" font-family="Helvetica,sans-Serif" font-size="10.00"> &#45;template_callback_</text>
</g>
</g>
</svg>
