<?xml version="1.0" encoding="UTF-8" standalone="no"?>
<!DOCTYPE svg PUBLIC "-//W3C//DTD SVG 1.1//EN"
 "http://www.w3.org/Graphics/SVG/1.1/DTD/svg11.dtd">
<!-- Generated by graphviz version 2.36.0 (20140111.2315)
 -->
<!-- Title: impala::ThriftClient&lt; InterfaceType &gt; Pages: 1 -->
<svg width="130pt" height="348pt"
 viewBox="0.00 0.00 130.00 348.00" xmlns="http://www.w3.org/2000/svg" xmlns:xlink="http://www.w3.org/1999/xlink">
<g id="graph0" class="graph" transform="scale(1 1) rotate(0) translate(4 344)">
<title>impala::ThriftClient&lt; InterfaceType &gt;</title>
<polygon fill="white" stroke="none" points="-4,4 -4,-344 126,-344 126,4 -4,4"/>
<!-- Node1 -->
<g id="node1" class="node"><title>Node1</title>
<polygon fill="#bfbfbf" stroke="black" points="11.5,-1 11.5,-91 110.5,-91 110.5,-1 11.5,-1"/>
<text text-anchor="start" x="19.5" y="-79" font-family="Helvetica,sans-Serif" font-size="10.00">impala::ThriftClient</text>
<text text-anchor="middle" x="61" y="-68" font-family="Helvetica,sans-Serif" font-size="10.00">&lt; InterfaceType &gt;</text>
<polyline fill="none" stroke="black" points="11.5,-61 110.5,-61 "/>
<text text-anchor="start" x="19.5" y="-49" font-family="Helvetica,sans-Serif" font-size="10.00">&#45; iface_</text>
<text text-anchor="start" x="19.5" y="-38" font-family="Helvetica,sans-Serif" font-size="10.00">&#45; auth_provider_</text>
<polyline fill="none" stroke="black" points="11.5,-31 110.5,-31 "/>
<text text-anchor="start" x="19.5" y="-19" font-family="Helvetica,sans-Serif" font-size="10.00">+ ThriftClient()</text>
<text text-anchor="start" x="19.5" y="-8" font-family="Helvetica,sans-Serif" font-size="10.00">+ iface()</text>
</g>
<!-- Node2 -->
<g id="node2" class="node"><title>Node2</title>
<g id="a_node2"><a xlink:href="classimpala_1_1ThriftClientImpl.html" target="_top" xlink:title="Super class for templatized thrift clients. ">
<polygon fill="white" stroke="black" points="-1,-128.5 -1,-339.5 123,-339.5 123,-128.5 -1,-128.5"/>
<text text-anchor="middle" x="61" y="-327.5" font-family="Helvetica,sans-Serif" font-size="10.00">impala::ThriftClientImpl</text>
<polyline fill="none" stroke="black" points="-1,-320.5 123,-320.5 "/>
<text text-anchor="start" x="7" y="-308.5" font-family="Helvetica,sans-Serif" font-size="10.00"># address_</text>
<text text-anchor="start" x="7" y="-297.5" font-family="Helvetica,sans-Serif" font-size="10.00"># ssl_</text>
<text text-anchor="start" x="7" y="-286.5" font-family="Helvetica,sans-Serif" font-size="10.00"># socket_create_status_</text>
<text text-anchor="start" x="7" y="-275.5" font-family="Helvetica,sans-Serif" font-size="10.00"># sasl_client_</text>
<text text-anchor="start" x="7" y="-264.5" font-family="Helvetica,sans-Serif" font-size="10.00"># socket_</text>
<text text-anchor="start" x="7" y="-253.5" font-family="Helvetica,sans-Serif" font-size="10.00"># transport_</text>
<text text-anchor="start" x="7" y="-242.5" font-family="Helvetica,sans-Serif" font-size="10.00"># protocol_</text>
<polyline fill="none" stroke="black" points="-1,-235.5 123,-235.5 "/>
<text text-anchor="start" x="7" y="-223.5" font-family="Helvetica,sans-Serif" font-size="10.00">+ ~ThriftClientImpl()</text>
<text text-anchor="start" x="7" y="-212.5" font-family="Helvetica,sans-Serif" font-size="10.00">+ address()</text>
<text text-anchor="start" x="7" y="-201.5" font-family="Helvetica,sans-Serif" font-size="10.00">+ Open()</text>
<text text-anchor="start" x="7" y="-190.5" font-family="Helvetica,sans-Serif" font-size="10.00">+ OpenWithRetry()</text>
<text text-anchor="start" x="7" y="-179.5" font-family="Helvetica,sans-Serif" font-size="10.00">+ Close()</text>
<text text-anchor="start" x="7" y="-168.5" font-family="Helvetica,sans-Serif" font-size="10.00">+ setRecvTimeout()</text>
<text text-anchor="start" x="7" y="-157.5" font-family="Helvetica,sans-Serif" font-size="10.00">+ setSendTimeout()</text>
<text text-anchor="start" x="7" y="-146.5" font-family="Helvetica,sans-Serif" font-size="10.00"># ThriftClientImpl()</text>
<text text-anchor="start" x="7" y="-135.5" font-family="Helvetica,sans-Serif" font-size="10.00"># CreateSocket()</text>
</a>
</g>
</g>
<!-- Node2&#45;&gt;Node1 -->
<g id="edge1" class="edge"><title>Node2&#45;&gt;Node1</title>
<path fill="none" stroke="midnightblue" d="M61,-118.297C61,-108.782 61,-99.5871 61,-91.143"/>
<polygon fill="none" stroke="midnightblue" points="57.5001,-118.312 61,-128.312 64.5001,-118.312 57.5001,-118.312"/>
</g>
</g>
</svg>
