<?xml version="1.0" encoding="UTF-8" standalone="no"?>
<!DOCTYPE svg PUBLIC "-//W3C//DTD SVG 1.1//EN"
 "http://www.w3.org/Graphics/SVG/1.1/DTD/svg11.dtd">
<!-- Generated by graphviz version 2.36.0 (20140111.2315)
 -->
<!-- Title: impala::DescriptorTblBuilder Pages: 1 -->
<svg width="390pt" height="484pt"
 viewBox="0.00 0.00 390.00 484.00" xmlns="http://www.w3.org/2000/svg" xmlns:xlink="http://www.w3.org/1999/xlink">
<g id="graph0" class="graph" transform="scale(1 1) rotate(0) translate(4 480)">
<title>impala::DescriptorTblBuilder</title>
<polygon fill="white" stroke="none" points="-4,4 -4,-480 386,-480 386,4 -4,4"/>
<!-- Node1 -->
<g id="node1" class="node"><title>Node1</title>
<polygon fill="#bfbfbf" stroke="black" points="209,-0.5 209,-79.5 349,-79.5 349,-0.5 209,-0.5"/>
<text text-anchor="middle" x="279" y="-67.5" font-family="Helvetica,sans-Serif" font-size="10.00">impala::DescriptorTblBuilder</text>
<polyline fill="none" stroke="black" points="209,-60.5 349,-60.5 "/>
<text text-anchor="middle" x="279" y="-48.5" font-family="Helvetica,sans-Serif" font-size="10.00"> </text>
<polyline fill="none" stroke="black" points="209,-41.5 349,-41.5 "/>
<text text-anchor="start" x="217" y="-29.5" font-family="Helvetica,sans-Serif" font-size="10.00">+ DescriptorTblBuilder()</text>
<text text-anchor="start" x="217" y="-18.5" font-family="Helvetica,sans-Serif" font-size="10.00">+ DeclareTuple()</text>
<text text-anchor="start" x="217" y="-7.5" font-family="Helvetica,sans-Serif" font-size="10.00">+ Build()</text>
</g>
<!-- Node2 -->
<g id="node2" class="node"><title>Node2</title>
<g id="a_node2"><a xlink:href="classimpala_1_1ObjectPool.html" target="_top" xlink:title="{impala::ObjectPool\n||+ ObjectPool()\l+ ~ObjectPool()\l+ Add()\l}">
<polygon fill="white" stroke="black" points="130.5,-128.5 130.5,-207.5 229.5,-207.5 229.5,-128.5 130.5,-128.5"/>
<text text-anchor="middle" x="180" y="-195.5" font-family="Helvetica,sans-Serif" font-size="10.00">impala::ObjectPool</text>
<polyline fill="none" stroke="black" points="130.5,-188.5 229.5,-188.5 "/>
<text text-anchor="middle" x="180" y="-176.5" font-family="Helvetica,sans-Serif" font-size="10.00"> </text>
<polyline fill="none" stroke="black" points="130.5,-169.5 229.5,-169.5 "/>
<text text-anchor="start" x="138.5" y="-157.5" font-family="Helvetica,sans-Serif" font-size="10.00">+ ObjectPool()</text>
<text text-anchor="start" x="138.5" y="-146.5" font-family="Helvetica,sans-Serif" font-size="10.00">+ ~ObjectPool()</text>
<text text-anchor="start" x="138.5" y="-135.5" font-family="Helvetica,sans-Serif" font-size="10.00">+ Add()</text>
</a>
</g>
</g>
<!-- Node2&#45;&gt;Node1 -->
<g id="edge1" class="edge"><title>Node2&#45;&gt;Node1</title>
<path fill="none" stroke="#404040" d="M210.511,-128.168C220.109,-115.952 230.83,-102.308 240.887,-89.5073"/>
<polygon fill="none" stroke="#404040" points="241.005,-89.3568 241.567,-82.1676 248.419,-79.9209 247.858,-87.1102 241.005,-89.3568"/>
<text text-anchor="middle" x="257" y="-101.5" font-family="Helvetica,sans-Serif" font-size="10.00"> &#45;obj_pool_</text>
</g>
<!-- Node3 -->
<g id="node3" class="node"><title>Node3</title>
<g id="a_node3"><a xlink:href="classimpala_1_1SpinLock.html" target="_top" xlink:title="Lightweight spinlock. ">
<polygon fill="white" stroke="black" points="28.5,-257 28.5,-369 127.5,-369 127.5,-257 28.5,-257"/>
<text text-anchor="middle" x="78" y="-357" font-family="Helvetica,sans-Serif" font-size="10.00">impala::SpinLock</text>
<polyline fill="none" stroke="black" points="28.5,-350 127.5,-350 "/>
<text text-anchor="middle" x="78" y="-338" font-family="Helvetica,sans-Serif" font-size="10.00"> </text>
<polyline fill="none" stroke="black" points="28.5,-331 127.5,-331 "/>
<text text-anchor="start" x="36.5" y="-319" font-family="Helvetica,sans-Serif" font-size="10.00">+ SpinLock()</text>
<text text-anchor="start" x="36.5" y="-308" font-family="Helvetica,sans-Serif" font-size="10.00">+ lock()</text>
<text text-anchor="start" x="36.5" y="-297" font-family="Helvetica,sans-Serif" font-size="10.00">+ unlock()</text>
<text text-anchor="start" x="36.5" y="-286" font-family="Helvetica,sans-Serif" font-size="10.00">+ try_lock()</text>
<text text-anchor="start" x="36.5" y="-275" font-family="Helvetica,sans-Serif" font-size="10.00">+ DCheckLocked()</text>
<text text-anchor="start" x="36.5" y="-264" font-family="Helvetica,sans-Serif" font-size="10.00">&#45; SlowAcquire()</text>
</a>
</g>
</g>
<!-- Node3&#45;&gt;Node2 -->
<g id="edge2" class="edge"><title>Node3&#45;&gt;Node2</title>
<path fill="none" stroke="#404040" d="M117.436,-256.712C126.637,-243.813 136.368,-230.171 145.343,-217.587"/>
<polygon fill="none" stroke="#404040" points="145.387,-217.526 145.615,-210.319 152.355,-207.757 152.128,-214.964 145.387,-217.526"/>
<text text-anchor="middle" x="154" y="-229.5" font-family="Helvetica,sans-Serif" font-size="10.00"> &#45;lock_</text>
</g>
<!-- Node4 -->
<g id="node4" class="node"><title>Node4</title>
<polygon fill="white" stroke="#bfbfbf" points="-0.5,-418.5 -0.5,-475.5 28.5,-475.5 28.5,-418.5 -0.5,-418.5"/>
<text text-anchor="middle" x="14" y="-463.5" font-family="Helvetica,sans-Serif" font-size="10.00">int</text>
<polyline fill="none" stroke="#bfbfbf" points="-0.5,-456.5 28.5,-456.5 "/>
<text text-anchor="middle" x="14" y="-444.5" font-family="Helvetica,sans-Serif" font-size="10.00"> </text>
<polyline fill="none" stroke="#bfbfbf" points="-0.5,-437.5 28.5,-437.5 "/>
<text text-anchor="middle" x="14" y="-425.5" font-family="Helvetica,sans-Serif" font-size="10.00"> </text>
</g>
<!-- Node4&#45;&gt;Node3 -->
<g id="edge3" class="edge"><title>Node4&#45;&gt;Node3</title>
<path fill="none" stroke="#404040" d="M10.7019,-418.425C10.4908,-408.55 11.4048,-397.515 15,-388 16.8114,-383.206 19.08,-378.507 21.6716,-373.95"/>
<polygon fill="none" stroke="#404040" points="21.8143,-373.725 21.6504,-366.516 28.2421,-363.591 28.4059,-370.801 21.8143,-373.725"/>
<text text-anchor="middle" x="67.5" y="-391.5" font-family="Helvetica,sans-Serif" font-size="10.00"> &#45;NUM_SPIN_CYCLES</text>
</g>
<!-- Node5 -->
<g id="node5" class="node"><title>Node5</title>
<g id="a_node5"><a xlink:href="classbool.html" target="_top" xlink:title="{bool\n||}">
<polygon fill="white" stroke="black" points="124.5,-418.5 124.5,-475.5 159.5,-475.5 159.5,-418.5 124.5,-418.5"/>
<text text-anchor="middle" x="142" y="-463.5" font-family="Helvetica,sans-Serif" font-size="10.00">bool</text>
<polyline fill="none" stroke="black" points="124.5,-456.5 159.5,-456.5 "/>
<text text-anchor="middle" x="142" y="-444.5" font-family="Helvetica,sans-Serif" font-size="10.00"> </text>
<polyline fill="none" stroke="black" points="124.5,-437.5 159.5,-437.5 "/>
<text text-anchor="middle" x="142" y="-425.5" font-family="Helvetica,sans-Serif" font-size="10.00"> </text>
</a>
</g>
</g>
<!-- Node5&#45;&gt;Node3 -->
<g id="edge4" class="edge"><title>Node5&#45;&gt;Node3</title>
<path fill="none" stroke="#404040" d="M132.552,-418.494C128.94,-408.729 124.581,-397.747 120,-388 118.781,-385.406 117.505,-382.779 116.188,-380.141"/>
<polygon fill="none" stroke="#404040" points="116.085,-379.941 109.779,-376.442 110.584,-369.276 116.889,-372.775 116.085,-379.941"/>
<text text-anchor="middle" x="145" y="-391.5" font-family="Helvetica,sans-Serif" font-size="10.00"> &#45;locked_</text>
</g>
<!-- Node6 -->
<g id="node6" class="node"><title>Node6</title>
<polygon fill="white" stroke="#bfbfbf" points="146,-284.5 146,-341.5 284,-341.5 284,-284.5 146,-284.5"/>
<text text-anchor="middle" x="215" y="-329.5" font-family="Helvetica,sans-Serif" font-size="10.00">vector&lt; GenericElement * &gt;</text>
<polyline fill="none" stroke="#bfbfbf" points="146,-322.5 284,-322.5 "/>
<text text-anchor="middle" x="215" y="-310.5" font-family="Helvetica,sans-Serif" font-size="10.00"> </text>
<polyline fill="none" stroke="#bfbfbf" points="146,-303.5 284,-303.5 "/>
<text text-anchor="middle" x="215" y="-291.5" font-family="Helvetica,sans-Serif" font-size="10.00"> </text>
</g>
<!-- Node6&#45;&gt;Node2 -->
<g id="edge5" class="edge"><title>Node6&#45;&gt;Node2</title>
<path fill="none" stroke="#404040" d="M208.252,-284.428C203.743,-266.007 197.68,-241.235 192.327,-219.363"/>
<polygon fill="none" stroke="#404040" points="192.293,-219.224 186.981,-214.347 189.44,-207.568 194.752,-212.445 192.293,-219.224"/>
<text text-anchor="middle" x="218.5" y="-229.5" font-family="Helvetica,sans-Serif" font-size="10.00"> &#45;objects_</text>
</g>
<!-- Node7 -->
<g id="node7" class="node"><title>Node7</title>
<polygon fill="white" stroke="#bfbfbf" points="248,-134 248,-202 382,-202 382,-134 248,-134"/>
<text text-anchor="start" x="256" y="-190" font-family="Helvetica,sans-Serif" font-size="10.00">vector&lt; impala::TupleDesc</text>
<text text-anchor="middle" x="315" y="-179" font-family="Helvetica,sans-Serif" font-size="10.00">Builder * &gt;</text>
<polyline fill="none" stroke="#bfbfbf" points="248,-172 382,-172 "/>
<text text-anchor="middle" x="315" y="-160" font-family="Helvetica,sans-Serif" font-size="10.00"> </text>
<polyline fill="none" stroke="#bfbfbf" points="248,-153 382,-153 "/>
<text text-anchor="middle" x="315" y="-141" font-family="Helvetica,sans-Serif" font-size="10.00"> </text>
</g>
<!-- Node7&#45;&gt;Node1 -->
<g id="edge6" class="edge"><title>Node7&#45;&gt;Node1</title>
<path fill="none" stroke="#404040" d="M305.541,-133.895C301.831,-120.907 297.489,-105.713 293.406,-91.4193"/>
<polygon fill="none" stroke="#404040" points="293.352,-91.2309 287.857,-86.5607 290.055,-79.6926 295.55,-84.3629 293.352,-91.2309"/>
<text text-anchor="middle" x="334" y="-101.5" font-family="Helvetica,sans-Serif" font-size="10.00"> &#45;tuples_descs_</text>
</g>
</g>
</svg>
