<?xml version="1.0" encoding="UTF-8" standalone="no"?>
<!DOCTYPE svg PUBLIC "-//W3C//DTD SVG 1.1//EN"
 "http://www.w3.org/Graphics/SVG/1.1/DTD/svg11.dtd">
<!-- Generated by graphviz version 2.36.0 (20140111.2315)
 -->
<!-- Title: impala::ExecNode Pages: 1 -->
<!--zoomable 992 -->
<svg id="main" version="1.1" xmlns="http://www.w3.org/2000/svg" xmlns:xlink="http://www.w3.org/1999/xlink" xml:space="preserve" onload="init(evt)">
<style type="text/css"><![CDATA[
.edge:hover path { stroke: red; }
.edge:hover polygon { stroke: red; fill: red; }
]]></style>
<script type="text/javascript"><![CDATA[
var edges = document.getElementsByTagName('g');
if (edges && edges.length) {
  for (var i=0;i<edges.length;i++) {
    if (edges[i].id.substr(0,4)=='edge') {
      edges[i].setAttribute('class','edge');
    }
  }
}
]]></script>
        <defs>
                <circle id="rim" cx="0" cy="0" r="7"/>
                <circle id="rim2" cx="0" cy="0" r="3.5"/>
                <g id="zoomPlus">
                        <use xlink:href="#rim" fill="#404040">
                                <set attributeName="fill" to="#808080" begin="zoomplus.mouseover" end="zoomplus.mouseout"/>
                        </use>
                        <path d="M-4,0h8M0,-4v8" fill="none" stroke="white" stroke-width="1.5" pointer-events="none"/>
                </g>
                <g id="zoomMin">
                        <use xlink:href="#rim" fill="#404040">
                                <set attributeName="fill" to="#808080" begin="zoomminus.mouseover" end="zoomminus.mouseout"/>
                        </use>
                        <path d="M-4,0h8" fill="none" stroke="white" stroke-width="1.5" pointer-events="none"/>
                </g>
                <g id="dirArrow">
                        <path fill="none" stroke="white" stroke-width="1.5" d="M0,-3.0v7 M-2.5,-0.5L0,-3.0L2.5,-0.5"/>
                </g>
               <g id="resetDef">
                       <use xlink:href="#rim2" fill="#404040">
                               <set attributeName="fill" to="#808080" begin="reset.mouseover" end="reset.mouseout"/>
                       </use>
               </g>
        </defs>

<script type="text/javascript">
var viewWidth = 1672;
var viewHeight = 992;
var sectionId = 'dynsection-1';
</script>
<script xlink:href="svgpan.js"/>
<svg id="graph" class="graph">
<g id="viewport">
<title>impala::ExecNode</title>
<polygon fill="white" stroke="none" points="-4,4 -4,-988 1668,-988 1668,4 -4,4"/>
<!-- Node1 -->
<g id="node1" class="node"><title>Node1</title>
<polygon fill="#bfbfbf" stroke="black" points="690,-1 690,-355 826,-355 826,-1 690,-1"/>
<text text-anchor="middle" x="758" y="-343" font-family="Helvetica,sans-Serif" font-size="10.00">impala::ExecNode</text>
<polyline fill="none" stroke="black" points="690,-336 826,-336 "/>
<text text-anchor="middle" x="758" y="-324" font-family="Helvetica,sans-Serif" font-size="10.00"> </text>
<polyline fill="none" stroke="black" points="690,-317 826,-317 "/>
<text text-anchor="start" x="698" y="-305" font-family="Helvetica,sans-Serif" font-size="10.00">+ ExecNode()</text>
<text text-anchor="start" x="698" y="-294" font-family="Helvetica,sans-Serif" font-size="10.00">+ ~ExecNode()</text>
<text text-anchor="start" x="698" y="-283" font-family="Helvetica,sans-Serif" font-size="10.00">+ Init()</text>
<text text-anchor="start" x="698" y="-272" font-family="Helvetica,sans-Serif" font-size="10.00">+ Prepare()</text>
<text text-anchor="start" x="698" y="-261" font-family="Helvetica,sans-Serif" font-size="10.00">+ Open()</text>
<text text-anchor="start" x="698" y="-250" font-family="Helvetica,sans-Serif" font-size="10.00">+ GetNext()</text>
<text text-anchor="start" x="698" y="-239" font-family="Helvetica,sans-Serif" font-size="10.00">+ Reset()</text>
<text text-anchor="start" x="698" y="-228" font-family="Helvetica,sans-Serif" font-size="10.00">+ Close()</text>
<text text-anchor="start" x="698" y="-217" font-family="Helvetica,sans-Serif" font-size="10.00">+ CollectNodes()</text>
<text text-anchor="start" x="698" y="-206" font-family="Helvetica,sans-Serif" font-size="10.00">+ CollectScanNodes()</text>
<text text-anchor="start" x="698" y="-195" font-family="Helvetica,sans-Serif" font-size="10.00">and 12 more...</text>
<text text-anchor="start" x="698" y="-184" font-family="Helvetica,sans-Serif" font-size="10.00">+ CreateTree()</text>
<text text-anchor="start" x="698" y="-173" font-family="Helvetica,sans-Serif" font-size="10.00">+ SetDebugOptions()</text>
<text text-anchor="start" x="698" y="-162" font-family="Helvetica,sans-Serif" font-size="10.00">+ EvalConjuncts()</text>
<text text-anchor="start" x="698" y="-151" font-family="Helvetica,sans-Serif" font-size="10.00">+ CodegenEvalConjuncts()</text>
<text text-anchor="start" x="698" y="-140" font-family="Helvetica,sans-Serif" font-size="10.00">+ GetNodeIdFromProfile()</text>
<text text-anchor="start" x="698" y="-129" font-family="Helvetica,sans-Serif" font-size="10.00"># child()</text>
<text text-anchor="start" x="698" y="-118" font-family="Helvetica,sans-Serif" font-size="10.00"># is_closed()</text>
<text text-anchor="start" x="698" y="-107" font-family="Helvetica,sans-Serif" font-size="10.00"># IsScanNode()</text>
<text text-anchor="start" x="698" y="-96" font-family="Helvetica,sans-Serif" font-size="10.00"># InitRuntimeProfile()</text>
<text text-anchor="start" x="698" y="-85" font-family="Helvetica,sans-Serif" font-size="10.00"># ExecDebugAction()</text>
<text text-anchor="start" x="698" y="-74" font-family="Helvetica,sans-Serif" font-size="10.00"># AddRuntimeExecOption()</text>
<text text-anchor="start" x="698" y="-63" font-family="Helvetica,sans-Serif" font-size="10.00"># QueryMaintenance()</text>
<text text-anchor="start" x="698" y="-52" font-family="Helvetica,sans-Serif" font-size="10.00"># AddExprCtxToFree()</text>
<text text-anchor="start" x="698" y="-41" font-family="Helvetica,sans-Serif" font-size="10.00"># AddExprCtxsToFree()</text>
<text text-anchor="start" x="698" y="-30" font-family="Helvetica,sans-Serif" font-size="10.00"># AddExprCtxsToFree()</text>
<text text-anchor="start" x="698" y="-19" font-family="Helvetica,sans-Serif" font-size="10.00"># CreateNode()</text>
<text text-anchor="start" x="698" y="-8" font-family="Helvetica,sans-Serif" font-size="10.00"># CreateTreeHelper()</text>
</g>
<!-- Node2 -->
<g id="node2" class="node"><title>Node2</title>
<polygon fill="white" stroke="#bfbfbf" points="0,-471 0,-539 102,-539 102,-471 0,-471"/>
<text text-anchor="start" x="8" y="-527" font-family="Helvetica,sans-Serif" font-size="10.00">scoped_ptr&lt; impala</text>
<text text-anchor="middle" x="51" y="-516" font-family="Helvetica,sans-Serif" font-size="10.00">::RuntimeProfile &gt;</text>
<polyline fill="none" stroke="#bfbfbf" points="0,-509 102,-509 "/>
<text text-anchor="middle" x="51" y="-497" font-family="Helvetica,sans-Serif" font-size="10.00"> </text>
<polyline fill="none" stroke="#bfbfbf" points="0,-490 102,-490 "/>
<text text-anchor="middle" x="51" y="-478" font-family="Helvetica,sans-Serif" font-size="10.00"> </text>
</g>
<!-- Node2&#45;&gt;Node1 -->
<g id="edge1" class="edge"><title>Node2&#45;&gt;Node1</title>
<path fill="none" stroke="#404040" d="M41.0834,-470.825C34.7024,-442.212 31.0467,-401.307 52,-374 128.691,-274.055 509.609,-212.005 677.869,-189.064"/>
<polygon fill="none" stroke="#404040" points="677.959,-189.051 683.37,-184.285 689.851,-187.447 684.44,-192.213 677.959,-189.051"/>
<text text-anchor="middle" x="91" y="-388.5" font-family="Helvetica,sans-Serif" font-size="10.00"> #runtime_profile_</text>
</g>
<!-- Node3 -->
<g id="node3" class="node"><title>Node3</title>
<polygon fill="white" stroke="#bfbfbf" points="346.5,-737.5 346.5,-794.5 381.5,-794.5 381.5,-737.5 346.5,-737.5"/>
<text text-anchor="middle" x="364" y="-782.5" font-family="Helvetica,sans-Serif" font-size="10.00">type</text>
<polyline fill="none" stroke="#bfbfbf" points="346.5,-775.5 381.5,-775.5 "/>
<text text-anchor="middle" x="364" y="-763.5" font-family="Helvetica,sans-Serif" font-size="10.00"> </text>
<polyline fill="none" stroke="#bfbfbf" points="346.5,-756.5 381.5,-756.5 "/>
<text text-anchor="middle" x="364" y="-744.5" font-family="Helvetica,sans-Serif" font-size="10.00"> </text>
</g>
<!-- Node3&#45;&gt;Node1 -->
<g id="edge2" class="edge"><title>Node3&#45;&gt;Node1</title>
<path fill="none" stroke="#404040" d="M381.372,-737.386C402.645,-702.654 438.713,-640.687 462,-584 499.891,-491.76 476.598,-450.133 541,-374 582.751,-324.644 636.811,-276.031 680.528,-239.688"/>
<polygon fill="none" stroke="#404040" points="680.72,-239.53 682.801,-232.626 689.975,-231.891 687.894,-238.796 680.72,-239.53"/>
<text text-anchor="middle" x="523.5" y="-502.5" font-family="Helvetica,sans-Serif" font-size="10.00"> #type_</text>
</g>
<!-- Node3&#45;&gt;Node1 -->
<g id="edge8" class="edge"><title>Node3&#45;&gt;Node1</title>
<path fill="none" stroke="#404040" d="M346.168,-747.549C323.129,-725.227 281.517,-685.669 244,-654 205.009,-621.086 175.541,-629.777 153,-584 121.979,-521.001 116.807,-486.177 153,-426 263.469,-242.326 540.383,-195.228 677.912,-183.156"/>
<polygon fill="none" stroke="#404040" points="678.016,-183.148 683.665,-178.666 689.975,-182.156 684.326,-186.638 678.016,-183.148"/>
<text text-anchor="middle" x="189" y="-502.5" font-family="Helvetica,sans-Serif" font-size="10.00"> #debug_action_</text>
</g>
<!-- Node3&#45;&gt;Node1 -->
<g id="edge25" class="edge"><title>Node3&#45;&gt;Node1</title>
<path fill="none" stroke="#404040" d="M364.396,-737.34C365.68,-661.243 370.58,-452.638 386,-426 451.019,-313.678 590.087,-242.632 678.549,-206.912"/>
<polygon fill="none" stroke="#404040" points="678.724,-206.842 682.827,-200.912 689.879,-202.418 685.776,-208.348 678.724,-206.842"/>
<text text-anchor="middle" x="422" y="-502.5" font-family="Helvetica,sans-Serif" font-size="10.00"> #debug_phase_</text>
</g>
<!-- Node16 -->
<g id="node16" class="node"><title>Node16</title>
<g id="a_node16"><a xlink:href="classimpala_1_1RuntimeProfile_1_1Counter.html" target="_top" xlink:title="{impala::RuntimeProfile\l::Counter\n||+ Counter()\l+ ~Counter()\l+ Add()\l+ BitOr()\l+ Set()\l+ Set()\l+ value()\l+ double_value()\l+ unit()\l}">
<polygon fill="white" stroke="black" points="234,-427 234,-583 350,-583 350,-427 234,-427"/>
<text text-anchor="start" x="242" y="-571" font-family="Helvetica,sans-Serif" font-size="10.00">impala::RuntimeProfile</text>
<text text-anchor="middle" x="292" y="-560" font-family="Helvetica,sans-Serif" font-size="10.00">::Counter</text>
<polyline fill="none" stroke="black" points="234,-553 350,-553 "/>
<text text-anchor="middle" x="292" y="-541" font-family="Helvetica,sans-Serif" font-size="10.00"> </text>
<polyline fill="none" stroke="black" points="234,-534 350,-534 "/>
<text text-anchor="start" x="242" y="-522" font-family="Helvetica,sans-Serif" font-size="10.00">+ Counter()</text>
<text text-anchor="start" x="242" y="-511" font-family="Helvetica,sans-Serif" font-size="10.00">+ ~Counter()</text>
<text text-anchor="start" x="242" y="-500" font-family="Helvetica,sans-Serif" font-size="10.00">+ Add()</text>
<text text-anchor="start" x="242" y="-489" font-family="Helvetica,sans-Serif" font-size="10.00">+ BitOr()</text>
<text text-anchor="start" x="242" y="-478" font-family="Helvetica,sans-Serif" font-size="10.00">+ Set()</text>
<text text-anchor="start" x="242" y="-467" font-family="Helvetica,sans-Serif" font-size="10.00">+ Set()</text>
<text text-anchor="start" x="242" y="-456" font-family="Helvetica,sans-Serif" font-size="10.00">+ value()</text>
<text text-anchor="start" x="242" y="-445" font-family="Helvetica,sans-Serif" font-size="10.00">+ double_value()</text>
<text text-anchor="start" x="242" y="-434" font-family="Helvetica,sans-Serif" font-size="10.00">+ unit()</text>
</a>
</g>
</g>
<!-- Node3&#45;&gt;Node16 -->
<g id="edge18" class="edge"><title>Node3&#45;&gt;Node16</title>
<path fill="none" stroke="#404040" d="M356.295,-737.282C346.908,-703.515 330.587,-644.807 316.739,-594.991"/>
<polygon fill="none" stroke="#404040" points="316.675,-594.76 311.214,-590.051 313.461,-583.199 318.922,-587.908 316.675,-594.76"/>
<text text-anchor="middle" x="343" y="-616.5" font-family="Helvetica,sans-Serif" font-size="10.00"> #unit_</text>
</g>
<!-- Node4 -->
<g id="node4" class="node"><title>Node4</title>
<g id="a_node4"><a xlink:href="classimpala_1_1RowDescriptor.html" target="_top" xlink:title="{impala::RowDescriptor\n||+ RowDescriptor()\l+ RowDescriptor()\l+ RowDescriptor()\l+ RowDescriptor()\l+ RowDescriptor()\l+ RowDescriptor()\l+ GetRowSize()\l+ GetTupleIdx()\l+ TupleIsNullable()\l+ IsAnyTupleNullable()\l+ tuple_descriptors()\l+ ToThrift()\l+ IsPrefixOf()\l+ Equals()\l+ DebugString()\l&#45; InitTupleIdxMap()\l}">
<polygon fill="white" stroke="black" points="879,-655 879,-877 995,-877 995,-655 879,-655"/>
<text text-anchor="middle" x="937" y="-865" font-family="Helvetica,sans-Serif" font-size="10.00">impala::RowDescriptor</text>
<polyline fill="none" stroke="black" points="879,-858 995,-858 "/>
<text text-anchor="middle" x="937" y="-846" font-family="Helvetica,sans-Serif" font-size="10.00"> </text>
<polyline fill="none" stroke="black" points="879,-839 995,-839 "/>
<text text-anchor="start" x="887" y="-827" font-family="Helvetica,sans-Serif" font-size="10.00">+ RowDescriptor()</text>
<text text-anchor="start" x="887" y="-816" font-family="Helvetica,sans-Serif" font-size="10.00">+ RowDescriptor()</text>
<text text-anchor="start" x="887" y="-805" font-family="Helvetica,sans-Serif" font-size="10.00">+ RowDescriptor()</text>
<text text-anchor="start" x="887" y="-794" font-family="Helvetica,sans-Serif" font-size="10.00">+ RowDescriptor()</text>
<text text-anchor="start" x="887" y="-783" font-family="Helvetica,sans-Serif" font-size="10.00">+ RowDescriptor()</text>
<text text-anchor="start" x="887" y="-772" font-family="Helvetica,sans-Serif" font-size="10.00">+ RowDescriptor()</text>
<text text-anchor="start" x="887" y="-761" font-family="Helvetica,sans-Serif" font-size="10.00">+ GetRowSize()</text>
<text text-anchor="start" x="887" y="-750" font-family="Helvetica,sans-Serif" font-size="10.00">+ GetTupleIdx()</text>
<text text-anchor="start" x="887" y="-739" font-family="Helvetica,sans-Serif" font-size="10.00">+ TupleIsNullable()</text>
<text text-anchor="start" x="887" y="-728" font-family="Helvetica,sans-Serif" font-size="10.00">+ IsAnyTupleNullable()</text>
<text text-anchor="start" x="887" y="-717" font-family="Helvetica,sans-Serif" font-size="10.00">+ tuple_descriptors()</text>
<text text-anchor="start" x="887" y="-706" font-family="Helvetica,sans-Serif" font-size="10.00">+ ToThrift()</text>
<text text-anchor="start" x="887" y="-695" font-family="Helvetica,sans-Serif" font-size="10.00">+ IsPrefixOf()</text>
<text text-anchor="start" x="887" y="-684" font-family="Helvetica,sans-Serif" font-size="10.00">+ Equals()</text>
<text text-anchor="start" x="887" y="-673" font-family="Helvetica,sans-Serif" font-size="10.00">+ DebugString()</text>
<text text-anchor="start" x="887" y="-662" font-family="Helvetica,sans-Serif" font-size="10.00">&#45; InitTupleIdxMap()</text>
</a>
</g>
</g>
<!-- Node4&#45;&gt;Node1 -->
<g id="edge3" class="edge"><title>Node4&#45;&gt;Node1</title>
<path fill="none" stroke="#404040" d="M878.793,-672.755C863.33,-645.055 847.917,-614.029 837,-584 836.872,-583.648 815.24,-472.737 794.648,-367.085"/>
<polygon fill="none" stroke="#404040" points="794.633,-367.01 789.559,-361.886 792.337,-355.232 797.411,-360.356 794.633,-367.01"/>
<text text-anchor="middle" x="876" y="-502.5" font-family="Helvetica,sans-Serif" font-size="10.00"> #row_descriptor_</text>
</g>
<!-- Node5 -->
<g id="node5" class="node"><title>Node5</title>
<polygon fill="white" stroke="#bfbfbf" points="848,-926.5 848,-983.5 920,-983.5 920,-926.5 848,-926.5"/>
<text text-anchor="middle" x="884" y="-971.5" font-family="Helvetica,sans-Serif" font-size="10.00">vector&lt; int &gt;</text>
<polyline fill="none" stroke="#bfbfbf" points="848,-964.5 920,-964.5 "/>
<text text-anchor="middle" x="884" y="-952.5" font-family="Helvetica,sans-Serif" font-size="10.00"> </text>
<polyline fill="none" stroke="#bfbfbf" points="848,-945.5 920,-945.5 "/>
<text text-anchor="middle" x="884" y="-933.5" font-family="Helvetica,sans-Serif" font-size="10.00"> </text>
</g>
<!-- Node5&#45;&gt;Node4 -->
<g id="edge4" class="edge"><title>Node5&#45;&gt;Node4</title>
<path fill="none" stroke="#404040" d="M885.466,-926.333C886.345,-916.653 887.752,-905.767 890,-896 890.531,-893.692 891.092,-891.368 891.68,-889.034"/>
<polygon fill="none" stroke="#404040" points="891.718,-888.889 889.407,-882.059 894.823,-877.298 897.134,-884.128 891.718,-888.889"/>
<text text-anchor="middle" x="927.5" y="-899.5" font-family="Helvetica,sans-Serif" font-size="10.00"> &#45;tuple_idx_map_</text>
</g>
<!-- Node6 -->
<g id="node6" class="node"><title>Node6</title>
<polygon fill="white" stroke="#bfbfbf" points="558.5,-926.5 558.5,-983.5 587.5,-983.5 587.5,-926.5 558.5,-926.5"/>
<text text-anchor="middle" x="573" y="-971.5" font-family="Helvetica,sans-Serif" font-size="10.00">int</text>
<polyline fill="none" stroke="#bfbfbf" points="558.5,-964.5 587.5,-964.5 "/>
<text text-anchor="middle" x="573" y="-952.5" font-family="Helvetica,sans-Serif" font-size="10.00"> </text>
<polyline fill="none" stroke="#bfbfbf" points="558.5,-945.5 587.5,-945.5 "/>
<text text-anchor="middle" x="573" y="-933.5" font-family="Helvetica,sans-Serif" font-size="10.00"> </text>
</g>
<!-- Node6&#45;&gt;Node1 -->
<g id="edge21" class="edge"><title>Node6&#45;&gt;Node1</title>
<path fill="none" stroke="#404040" d="M561.748,-926.088C540.98,-869.677 503.482,-740.149 558,-654 567.993,-638.209 584.266,-650.545 596,-636 656.176,-561.406 614.021,-516.695 645,-426 656.249,-393.067 670.403,-358.595 684.852,-326.209"/>
<polygon fill="none" stroke="#404040" points="685.042,-325.787 683.86,-318.674 689.971,-314.846 691.154,-321.96 685.042,-325.787"/>
<text text-anchor="middle" x="629" y="-616.5" font-family="Helvetica,sans-Serif" font-size="10.00"> #id_</text>
</g>
<!-- Node6&#45;&gt;Node4 -->
<g id="edge5" class="edge"><title>Node6&#45;&gt;Node4</title>
<path fill="none" stroke="#404040" d="M587.633,-952.579C629.046,-947.985 749.41,-930.642 832,-878 845.369,-869.479 858.219,-858.886 870.063,-847.654"/>
<polygon fill="none" stroke="#404040" points="870.352,-847.37 871.832,-840.312 878.916,-838.964 877.436,-846.022 870.352,-847.37"/>
<text text-anchor="middle" x="830" y="-899.5" font-family="Helvetica,sans-Serif" font-size="10.00"> +INVALID_IDX</text>
</g>
<!-- Node11 -->
<g id="node11" class="node"><title>Node11</title>
<g id="a_node11"><a xlink:href="classimpala_1_1SpinLock.html" target="_top" xlink:title="Lightweight spinlock. ">
<polygon fill="white" stroke="black" points="567.5,-710 567.5,-822 666.5,-822 666.5,-710 567.5,-710"/>
<text text-anchor="middle" x="617" y="-810" font-family="Helvetica,sans-Serif" font-size="10.00">impala::SpinLock</text>
<polyline fill="none" stroke="black" points="567.5,-803 666.5,-803 "/>
<text text-anchor="middle" x="617" y="-791" font-family="Helvetica,sans-Serif" font-size="10.00"> </text>
<polyline fill="none" stroke="black" points="567.5,-784 666.5,-784 "/>
<text text-anchor="start" x="575.5" y="-772" font-family="Helvetica,sans-Serif" font-size="10.00">+ SpinLock()</text>
<text text-anchor="start" x="575.5" y="-761" font-family="Helvetica,sans-Serif" font-size="10.00">+ lock()</text>
<text text-anchor="start" x="575.5" y="-750" font-family="Helvetica,sans-Serif" font-size="10.00">+ unlock()</text>
<text text-anchor="start" x="575.5" y="-739" font-family="Helvetica,sans-Serif" font-size="10.00">+ try_lock()</text>
<text text-anchor="start" x="575.5" y="-728" font-family="Helvetica,sans-Serif" font-size="10.00">+ DCheckLocked()</text>
<text text-anchor="start" x="575.5" y="-717" font-family="Helvetica,sans-Serif" font-size="10.00">&#45; SlowAcquire()</text>
</a>
</g>
</g>
<!-- Node6&#45;&gt;Node11 -->
<g id="edge12" class="edge"><title>Node6&#45;&gt;Node11</title>
<path fill="none" stroke="#404040" d="M571.769,-926.402C571.788,-916.728 572.318,-905.827 574,-896 577.545,-875.284 583.825,-853.376 590.509,-833.609"/>
<polygon fill="none" stroke="#404040" points="590.521,-833.574 588.72,-826.592 594.473,-822.244 596.274,-829.227 590.521,-833.574"/>
<text text-anchor="middle" x="626.5" y="-899.5" font-family="Helvetica,sans-Serif" font-size="10.00"> &#45;NUM_SPIN_CYCLES</text>
</g>
<!-- Node7 -->
<g id="node7" class="node"><title>Node7</title>
<polygon fill="white" stroke="#bfbfbf" points="942,-926.5 942,-983.5 1022,-983.5 1022,-926.5 942,-926.5"/>
<text text-anchor="middle" x="982" y="-971.5" font-family="Helvetica,sans-Serif" font-size="10.00">vector&lt; bool &gt;</text>
<polyline fill="none" stroke="#bfbfbf" points="942,-964.5 1022,-964.5 "/>
<text text-anchor="middle" x="982" y="-952.5" font-family="Helvetica,sans-Serif" font-size="10.00"> </text>
<polyline fill="none" stroke="#bfbfbf" points="942,-945.5 1022,-945.5 "/>
<text text-anchor="middle" x="982" y="-933.5" font-family="Helvetica,sans-Serif" font-size="10.00"> </text>
</g>
<!-- Node7&#45;&gt;Node4 -->
<g id="edge6" class="edge"><title>Node7&#45;&gt;Node4</title>
<path fill="none" stroke="#404040" d="M975.36,-926.408C972.801,-915.772 969.684,-902.821 966.345,-888.946"/>
<polygon fill="none" stroke="#404040" points="966.304,-888.772 961.011,-883.874 963.496,-877.105 968.789,-882.003 966.304,-888.772"/>
<text text-anchor="middle" x="1026.5" y="-899.5" font-family="Helvetica,sans-Serif" font-size="10.00"> &#45;tuple_idx_nullable_map_</text>
</g>
<!-- Node8 -->
<g id="node8" class="node"><title>Node8</title>
<polygon fill="white" stroke="#bfbfbf" points="1040,-926.5 1040,-983.5 1212,-983.5 1212,-926.5 1040,-926.5"/>
<text text-anchor="middle" x="1126" y="-971.5" font-family="Helvetica,sans-Serif" font-size="10.00">vector&lt; impala::TupleDescriptor * &gt;</text>
<polyline fill="none" stroke="#bfbfbf" points="1040,-964.5 1212,-964.5 "/>
<text text-anchor="middle" x="1126" y="-952.5" font-family="Helvetica,sans-Serif" font-size="10.00"> </text>
<polyline fill="none" stroke="#bfbfbf" points="1040,-945.5 1212,-945.5 "/>
<text text-anchor="middle" x="1126" y="-933.5" font-family="Helvetica,sans-Serif" font-size="10.00"> </text>
</g>
<!-- Node8&#45;&gt;Node4 -->
<g id="edge7" class="edge"><title>Node8&#45;&gt;Node4</title>
<path fill="none" stroke="#404040" d="M1109.56,-926.332C1103.08,-916.341 1095.22,-905.254 1087,-896 1062.31,-868.204 1031.69,-840.852 1004.56,-818.537"/>
<polygon fill="none" stroke="#404040" points="1004.43,-818.435 997.251,-817.751 995.121,-810.862 1002.3,-811.545 1004.43,-818.435"/>
<text text-anchor="middle" x="1138.5" y="-899.5" font-family="Helvetica,sans-Serif" font-size="10.00"> &#45;tuple_desc_map_</text>
</g>
<!-- Node9 -->
<g id="node9" class="node"><title>Node9</title>
<polygon fill="white" stroke="#bfbfbf" points="387,-926.5 387,-983.5 433,-983.5 433,-926.5 387,-926.5"/>
<text text-anchor="middle" x="410" y="-971.5" font-family="Helvetica,sans-Serif" font-size="10.00">int64_t</text>
<polyline fill="none" stroke="#bfbfbf" points="387,-964.5 433,-964.5 "/>
<text text-anchor="middle" x="410" y="-952.5" font-family="Helvetica,sans-Serif" font-size="10.00"> </text>
<polyline fill="none" stroke="#bfbfbf" points="387,-945.5 433,-945.5 "/>
<text text-anchor="middle" x="410" y="-933.5" font-family="Helvetica,sans-Serif" font-size="10.00"> </text>
</g>
<!-- Node9&#45;&gt;Node1 -->
<g id="edge9" class="edge"><title>Node9&#45;&gt;Node1</title>
<path fill="none" stroke="#404040" d="M409.022,-926.024C408.266,-861.075 415.296,-698.285 498,-602 511.499,-586.284 525.831,-598.111 541,-584 598.631,-530.39 585.086,-496.04 621,-426 632.882,-402.828 635.601,-396.899 648,-374 659.451,-352.851 671.793,-330.534 683.926,-308.848"/>
<polygon fill="none" stroke="#404040" points="683.993,-308.729 683.437,-301.539 689.86,-298.262 690.416,-305.451 683.993,-308.729"/>
<text text-anchor="start" x="498" y="-627.5" font-family="Helvetica,sans-Serif" font-size="10.00"> #num_rows_returned</text>
<text text-anchor="middle" x="545" y="-616.5" font-family="Helvetica,sans-Serif" font-size="10.00">_</text>
<text text-anchor="middle" x="545" y="-605.5" font-family="Helvetica,sans-Serif" font-size="10.00">#limit_</text>
</g>
<!-- Node17 -->
<g id="node17" class="node"><title>Node17</title>
<g id="a_node17"><a xlink:href="classimpala_1_1AtomicInt.html" target="_top" xlink:title="{impala::AtomicInt\&lt;\l int64_t \&gt;\n||+ AtomicInt()\l+ operator int64_t()\l+ operator=()\l+ operator=()\l+ operator+=()\l+ operator&#45;=()\l+ operator\|=()\l+ operator&amp;=()\l+ operator++()\l+ operator++()\land 10 more...\l}">
<polygon fill="white" stroke="black" points="136.5,-677 136.5,-855 235.5,-855 235.5,-677 136.5,-677"/>
<text text-anchor="start" x="144.5" y="-843" font-family="Helvetica,sans-Serif" font-size="10.00">impala::AtomicInt&lt;</text>
<text text-anchor="middle" x="186" y="-832" font-family="Helvetica,sans-Serif" font-size="10.00"> int64_t &gt;</text>
<polyline fill="none" stroke="black" points="136.5,-825 235.5,-825 "/>
<text text-anchor="middle" x="186" y="-813" font-family="Helvetica,sans-Serif" font-size="10.00"> </text>
<polyline fill="none" stroke="black" points="136.5,-806 235.5,-806 "/>
<text text-anchor="start" x="144.5" y="-794" font-family="Helvetica,sans-Serif" font-size="10.00">+ AtomicInt()</text>
<text text-anchor="start" x="144.5" y="-783" font-family="Helvetica,sans-Serif" font-size="10.00">+ operator int64_t()</text>
<text text-anchor="start" x="144.5" y="-772" font-family="Helvetica,sans-Serif" font-size="10.00">+ operator=()</text>
<text text-anchor="start" x="144.5" y="-761" font-family="Helvetica,sans-Serif" font-size="10.00">+ operator=()</text>
<text text-anchor="start" x="144.5" y="-750" font-family="Helvetica,sans-Serif" font-size="10.00">+ operator+=()</text>
<text text-anchor="start" x="144.5" y="-739" font-family="Helvetica,sans-Serif" font-size="10.00">+ operator&#45;=()</text>
<text text-anchor="start" x="144.5" y="-728" font-family="Helvetica,sans-Serif" font-size="10.00">+ operator|=()</text>
<text text-anchor="start" x="144.5" y="-717" font-family="Helvetica,sans-Serif" font-size="10.00">+ operator&amp;=()</text>
<text text-anchor="start" x="144.5" y="-706" font-family="Helvetica,sans-Serif" font-size="10.00">+ operator++()</text>
<text text-anchor="start" x="144.5" y="-695" font-family="Helvetica,sans-Serif" font-size="10.00">+ operator++()</text>
<text text-anchor="start" x="144.5" y="-684" font-family="Helvetica,sans-Serif" font-size="10.00">and 10 more...</text>
</a>
</g>
</g>
<!-- Node9&#45;&gt;Node17 -->
<g id="edge20" class="edge"><title>Node9&#45;&gt;Node17</title>
<path fill="none" stroke="#404040" d="M386.872,-934.692C353.721,-907.017 291.579,-855.14 245.154,-816.383"/>
<polygon fill="none" stroke="#404040" points="245.01,-816.262 237.84,-815.488 235.798,-808.572 242.967,-809.347 245.01,-816.262"/>
<text text-anchor="middle" x="367.5" y="-899.5" font-family="Helvetica,sans-Serif" font-size="10.00"> &#45;value_</text>
</g>
<!-- Node10 -->
<g id="node10" class="node"><title>Node10</title>
<g id="a_node10"><a xlink:href="classimpala_1_1ObjectPool.html" target="_top" xlink:title="{impala::ObjectPool\n||+ ObjectPool()\l+ ~ObjectPool()\l+ Add()\l}">
<polygon fill="white" stroke="black" points="654.5,-465.5 654.5,-544.5 753.5,-544.5 753.5,-465.5 654.5,-465.5"/>
<text text-anchor="middle" x="704" y="-532.5" font-family="Helvetica,sans-Serif" font-size="10.00">impala::ObjectPool</text>
<polyline fill="none" stroke="black" points="654.5,-525.5 753.5,-525.5 "/>
<text text-anchor="middle" x="704" y="-513.5" font-family="Helvetica,sans-Serif" font-size="10.00"> </text>
<polyline fill="none" stroke="black" points="654.5,-506.5 753.5,-506.5 "/>
<text text-anchor="start" x="662.5" y="-494.5" font-family="Helvetica,sans-Serif" font-size="10.00">+ ObjectPool()</text>
<text text-anchor="start" x="662.5" y="-483.5" font-family="Helvetica,sans-Serif" font-size="10.00">+ ~ObjectPool()</text>
<text text-anchor="start" x="662.5" y="-472.5" font-family="Helvetica,sans-Serif" font-size="10.00">+ Add()</text>
</a>
</g>
</g>
<!-- Node10&#45;&gt;Node1 -->
<g id="edge10" class="edge"><title>Node10&#45;&gt;Node1</title>
<path fill="none" stroke="#404040" d="M710.407,-465.442C714.629,-440.028 720.506,-404.658 726.693,-367.423"/>
<polygon fill="none" stroke="#404040" points="726.744,-367.116 723.781,-360.542 728.711,-355.278 731.673,-361.853 726.744,-367.116"/>
<text text-anchor="middle" x="741" y="-388.5" font-family="Helvetica,sans-Serif" font-size="10.00"> #pool_</text>
</g>
<!-- Node11&#45;&gt;Node10 -->
<g id="edge11" class="edge"><title>Node11&#45;&gt;Node10</title>
<path fill="none" stroke="#404040" d="M635.557,-709.756C650.825,-664.302 672.285,-600.415 687.086,-556.355"/>
<polygon fill="none" stroke="#404040" points="687.157,-556.14 685.276,-549.179 690.979,-544.765 692.86,-551.726 687.157,-556.14"/>
<text text-anchor="middle" x="686" y="-616.5" font-family="Helvetica,sans-Serif" font-size="10.00"> &#45;lock_</text>
</g>
<!-- Node12 -->
<g id="node12" class="node"><title>Node12</title>
<g id="a_node12"><a xlink:href="classbool.html" target="_top" xlink:title="{bool\n||}">
<polygon fill="white" stroke="black" points="738.5,-926.5 738.5,-983.5 773.5,-983.5 773.5,-926.5 738.5,-926.5"/>
<text text-anchor="middle" x="756" y="-971.5" font-family="Helvetica,sans-Serif" font-size="10.00">bool</text>
<polyline fill="none" stroke="black" points="738.5,-964.5 773.5,-964.5 "/>
<text text-anchor="middle" x="756" y="-952.5" font-family="Helvetica,sans-Serif" font-size="10.00"> </text>
<polyline fill="none" stroke="black" points="738.5,-945.5 773.5,-945.5 "/>
<text text-anchor="middle" x="756" y="-933.5" font-family="Helvetica,sans-Serif" font-size="10.00"> </text>
</a>
</g>
</g>
<!-- Node12&#45;&gt;Node1 -->
<g id="edge22" class="edge"><title>Node12&#45;&gt;Node1</title>
<path fill="none" stroke="#404040" d="M773.637,-949.65C793.083,-943.804 823.413,-931.341 837,-908 839.683,-903.391 837.055,-901.333 837,-896 835.889,-788.427 892.883,-742.693 832,-654 820.043,-636.581 800.345,-653.147 788,-636 772.015,-613.798 764.547,-483.382 761.058,-367.523"/>
<polygon fill="none" stroke="#404040" points="761.051,-367.278 756.878,-361.397 760.702,-355.283 764.875,-361.164 761.051,-367.278"/>
<text text-anchor="middle" x="814.5" y="-616.5" font-family="Helvetica,sans-Serif" font-size="10.00"> &#45;is_closed_</text>
</g>
<!-- Node12&#45;&gt;Node11 -->
<g id="edge13" class="edge"><title>Node12&#45;&gt;Node11</title>
<path fill="none" stroke="#404040" d="M738.39,-940.134C727.54,-931.318 713.544,-919.446 702,-908 689.471,-895.577 685.982,-892.549 676,-878 666.363,-863.953 657.118,-848.153 648.921,-832.975"/>
<polygon fill="none" stroke="#404040" points="648.761,-832.673 642.419,-829.241 643.148,-822.067 649.49,-825.498 648.761,-832.673"/>
<text text-anchor="middle" x="722" y="-899.5" font-family="Helvetica,sans-Serif" font-size="10.00"> &#45;locked_</text>
</g>
<!-- Node13 -->
<g id="node13" class="node"><title>Node13</title>
<polygon fill="white" stroke="#bfbfbf" points="685,-737.5 685,-794.5 823,-794.5 823,-737.5 685,-737.5"/>
<text text-anchor="middle" x="754" y="-782.5" font-family="Helvetica,sans-Serif" font-size="10.00">vector&lt; GenericElement * &gt;</text>
<polyline fill="none" stroke="#bfbfbf" points="685,-775.5 823,-775.5 "/>
<text text-anchor="middle" x="754" y="-763.5" font-family="Helvetica,sans-Serif" font-size="10.00"> </text>
<polyline fill="none" stroke="#bfbfbf" points="685,-756.5 823,-756.5 "/>
<text text-anchor="middle" x="754" y="-744.5" font-family="Helvetica,sans-Serif" font-size="10.00"> </text>
</g>
<!-- Node13&#45;&gt;Node10 -->
<g id="edge14" class="edge"><title>Node13&#45;&gt;Node10</title>
<path fill="none" stroke="#404040" d="M744.525,-737.417C736.01,-711.533 723.824,-671.581 717,-636 712.034,-610.107 708.897,-580.926 706.953,-556.781"/>
<polygon fill="none" stroke="#404040" points="706.941,-556.624 702.502,-550.941 706.041,-544.658 710.48,-550.341 706.941,-556.624"/>
<text text-anchor="middle" x="738.5" y="-616.5" font-family="Helvetica,sans-Serif" font-size="10.00"> &#45;objects_</text>
</g>
<!-- Node14 -->
<g id="node14" class="node"><title>Node14</title>
<polygon fill="white" stroke="#bfbfbf" points="924,-476.5 924,-533.5 968,-533.5 968,-476.5 924,-476.5"/>
<text text-anchor="middle" x="946" y="-521.5" font-family="Helvetica,sans-Serif" font-size="10.00">mutex</text>
<polyline fill="none" stroke="#bfbfbf" points="924,-514.5 968,-514.5 "/>
<text text-anchor="middle" x="946" y="-502.5" font-family="Helvetica,sans-Serif" font-size="10.00"> </text>
<polyline fill="none" stroke="#bfbfbf" points="924,-495.5 968,-495.5 "/>
<text text-anchor="middle" x="946" y="-483.5" font-family="Helvetica,sans-Serif" font-size="10.00"> </text>
</g>
<!-- Node14&#45;&gt;Node1 -->
<g id="edge15" class="edge"><title>Node14&#45;&gt;Node1</title>
<path fill="none" stroke="#404040" d="M938.996,-476.258C933.544,-459.718 924.424,-439.399 910,-426 893.307,-410.493 878.645,-423.558 862,-408 855.971,-402.365 844.435,-380.091 831.169,-351.496"/>
<polygon fill="none" stroke="#404040" points="831.013,-351.155 824.875,-347.37 826.008,-340.248 832.146,-344.033 831.013,-351.155"/>
<text text-anchor="middle" x="909.5" y="-388.5" font-family="Helvetica,sans-Serif" font-size="10.00"> #exec_options_lock_</text>
</g>
<!-- Node15 -->
<g id="node15" class="node"><title>Node15</title>
<polygon fill="white" stroke="#bfbfbf" points="986,-471 986,-539 1088,-539 1088,-471 986,-471"/>
<text text-anchor="start" x="994" y="-527" font-family="Helvetica,sans-Serif" font-size="10.00">scoped_ptr&lt; impala</text>
<text text-anchor="middle" x="1037" y="-516" font-family="Helvetica,sans-Serif" font-size="10.00">::MemTracker &gt;</text>
<polyline fill="none" stroke="#bfbfbf" points="986,-509 1088,-509 "/>
<text text-anchor="middle" x="1037" y="-497" font-family="Helvetica,sans-Serif" font-size="10.00"> </text>
<polyline fill="none" stroke="#bfbfbf" points="986,-490 1088,-490 "/>
<text text-anchor="middle" x="1037" y="-478" font-family="Helvetica,sans-Serif" font-size="10.00"> </text>
</g>
<!-- Node15&#45;&gt;Node1 -->
<g id="edge16" class="edge"><title>Node15&#45;&gt;Node1</title>
<path fill="none" stroke="#404040" d="M1017.8,-470.772C998.694,-438.086 970.349,-390.725 957,-374 920.546,-328.326 874.178,-282.331 835.373,-246.492"/>
<polygon fill="none" stroke="#404040" points="835.038,-246.185 827.913,-245.077 826.195,-238.073 833.321,-239.181 835.038,-246.185"/>
<text text-anchor="middle" x="1026" y="-394" font-family="Helvetica,sans-Serif" font-size="10.00"> #mem_tracker_</text>
<text text-anchor="middle" x="1026" y="-383" font-family="Helvetica,sans-Serif" font-size="10.00">#expr_mem_tracker_</text>
</g>
<!-- Node16&#45;&gt;Node1 -->
<g id="edge17" class="edge"><title>Node16&#45;&gt;Node1</title>
<path fill="none" stroke="#404040" d="M255.953,-426.823C252.409,-408.384 253.416,-389.557 264,-374 357.329,-236.823 563.528,-196.146 677.812,-184.084"/>
<polygon fill="none" stroke="#404040" points="677.987,-184.067 683.561,-179.491 689.928,-182.877 684.355,-187.452 677.987,-184.067"/>
<text text-anchor="start" x="264" y="-399.5" font-family="Helvetica,sans-Serif" font-size="10.00"> #rows_returned_counter</text>
<text text-anchor="middle" x="318" y="-388.5" font-family="Helvetica,sans-Serif" font-size="10.00">_</text>
<text text-anchor="middle" x="318" y="-377.5" font-family="Helvetica,sans-Serif" font-size="10.00">#rows_returned_rate_</text>
</g>
<!-- Node17&#45;&gt;Node16 -->
<g id="edge19" class="edge"><title>Node17&#45;&gt;Node16</title>
<path fill="none" stroke="#404040" d="M222.035,-676.953C232.906,-650.391 244.841,-621.228 255.727,-594.629"/>
<polygon fill="none" stroke="#404040" points="255.777,-594.507 254.348,-587.439 260.322,-583.401 261.752,-590.469 255.777,-594.507"/>
<text text-anchor="middle" x="270.5" y="-616.5" font-family="Helvetica,sans-Serif" font-size="10.00"> #value_</text>
</g>
<!-- Node18 -->
<g id="node18" class="node"><title>Node18</title>
<polygon fill="white" stroke="#bfbfbf" points="1156.5,-476.5 1156.5,-533.5 1197.5,-533.5 1197.5,-476.5 1156.5,-476.5"/>
<text text-anchor="middle" x="1177" y="-521.5" font-family="Helvetica,sans-Serif" font-size="10.00">string</text>
<polyline fill="none" stroke="#bfbfbf" points="1156.5,-514.5 1197.5,-514.5 "/>
<text text-anchor="middle" x="1177" y="-502.5" font-family="Helvetica,sans-Serif" font-size="10.00"> </text>
<polyline fill="none" stroke="#bfbfbf" points="1156.5,-495.5 1197.5,-495.5 "/>
<text text-anchor="middle" x="1177" y="-483.5" font-family="Helvetica,sans-Serif" font-size="10.00"> </text>
</g>
<!-- Node18&#45;&gt;Node1 -->
<g id="edge23" class="edge"><title>Node18&#45;&gt;Node1</title>
<path fill="none" stroke="#404040" d="M1156.37,-481.324C1139.32,-462.241 1114.79,-433.983 1095,-408 1083.95,-393.486 1085.15,-386.646 1072,-374 1001.9,-306.583 904.742,-250.643 837.137,-216.221"/>
<polygon fill="none" stroke="#404040" points="836.847,-216.075 829.689,-216.947 826.131,-210.674 833.29,-209.803 836.847,-216.075"/>
<text text-anchor="middle" x="1149.5" y="-388.5" font-family="Helvetica,sans-Serif" font-size="10.00"> #runtime_exec_options_</text>
</g>
<!-- Node18&#45;&gt;Node1 -->
<g id="edge27" class="edge"><title>Node18&#45;&gt;Node1</title>
<path fill="none" stroke="#404040" d="M1193.79,-476.41C1208.4,-448.468 1224.32,-405.057 1204,-374 1122.78,-249.852 943.228,-204.274 838.394,-187.888"/>
<polygon fill="none" stroke="#404040" points="838.171,-187.855 831.644,-190.921 826.303,-186.076 832.83,-183.009 838.171,-187.855"/>
<text text-anchor="middle" x="1297" y="-388.5" font-family="Helvetica,sans-Serif" font-size="10.00"> +ROW_THROUGHPUT_COUNTER</text>
</g>
<!-- Node19 -->
<g id="node19" class="node"><title>Node19</title>
<polygon fill="white" stroke="#bfbfbf" points="1340.5,-476.5 1340.5,-533.5 1489.5,-533.5 1489.5,-476.5 1340.5,-476.5"/>
<text text-anchor="middle" x="1415" y="-521.5" font-family="Helvetica,sans-Serif" font-size="10.00">vector&lt; impala::ExecNode * &gt;</text>
<polyline fill="none" stroke="#bfbfbf" points="1340.5,-514.5 1489.5,-514.5 "/>
<text text-anchor="middle" x="1415" y="-502.5" font-family="Helvetica,sans-Serif" font-size="10.00"> </text>
<polyline fill="none" stroke="#bfbfbf" points="1340.5,-495.5 1489.5,-495.5 "/>
<text text-anchor="middle" x="1415" y="-483.5" font-family="Helvetica,sans-Serif" font-size="10.00"> </text>
</g>
<!-- Node19&#45;&gt;Node1 -->
<g id="edge24" class="edge"><title>Node19&#45;&gt;Node1</title>
<path fill="none" stroke="#404040" d="M1415.93,-476.472C1415.39,-447.336 1409.98,-401.804 1384,-374 1238.65,-218.431 971.535,-186.093 838.167,-179.96"/>
<polygon fill="none" stroke="#404040" points="838.065,-179.956 831.905,-183.704 826.075,-179.459 832.236,-175.711 838.065,-179.956"/>
<text text-anchor="middle" x="1429" y="-388.5" font-family="Helvetica,sans-Serif" font-size="10.00"> #children_</text>
</g>
<!-- Node20 -->
<g id="node20" class="node"><title>Node20</title>
<polygon fill="white" stroke="#bfbfbf" points="1507,-476.5 1507,-533.5 1665,-533.5 1665,-476.5 1507,-476.5"/>
<text text-anchor="middle" x="1586" y="-521.5" font-family="Helvetica,sans-Serif" font-size="10.00">vector&lt; impala::ExprContext * &gt;</text>
<polyline fill="none" stroke="#bfbfbf" points="1507,-514.5 1665,-514.5 "/>
<text text-anchor="middle" x="1586" y="-502.5" font-family="Helvetica,sans-Serif" font-size="10.00"> </text>
<polyline fill="none" stroke="#bfbfbf" points="1507,-495.5 1665,-495.5 "/>
<text text-anchor="middle" x="1586" y="-483.5" font-family="Helvetica,sans-Serif" font-size="10.00"> </text>
</g>
<!-- Node20&#45;&gt;Node1 -->
<g id="edge26" class="edge"><title>Node20&#45;&gt;Node1</title>
<path fill="none" stroke="#404040" d="M1565.84,-476.464C1542.76,-446.881 1502.25,-400.551 1457,-374 1253.63,-254.664 974.019,-205.593 838.34,-187.831"/>
<polygon fill="none" stroke="#404040" points="837.963,-187.783 831.503,-190.988 826.06,-186.258 832.52,-183.053 837.963,-187.783"/>
<text text-anchor="middle" x="1545.5" y="-394" font-family="Helvetica,sans-Serif" font-size="10.00"> #conjunct_ctxs_</text>
<text text-anchor="middle" x="1545.5" y="-383" font-family="Helvetica,sans-Serif" font-size="10.00">&#45;expr_ctxs_to_free_</text>
</g>
</g>
</svg>
        <g id="navigator" transform="translate(0 0)" fill="#404254">
                <rect fill="#f2f5e9" fill-opacity="0.5" stroke="#606060" stroke-width=".5" x="0" y="0" width="60" height="60"/>
                <use id="zoomplus" xlink:href="#zoomPlus" x="17" y="9" onmousedown="handleZoom(evt,'in')"/>
                <use id="zoomminus" xlink:href="#zoomMin" x="42" y="9" onmousedown="handleZoom(evt,'out')"/>
                <use id="reset" xlink:href="#resetDef" x="30" y="36" onmousedown="handleReset()"/>
                <g id="arrowUp" xlink:href="#dirArrow" transform="translate(30 24)" onmousedown="handlePan(0,-1)">
                  <use xlink:href="#rim" fill="#404040">
                        <set attributeName="fill" to="#808080" begin="arrowUp.mouseover" end="arrowUp.mouseout"/>
                  </use>
                  <path fill="none" stroke="white" stroke-width="1.5" d="M0,-3.0v7 M-2.5,-0.5L0,-3.0L2.5,-0.5"/>
                </g>
                <g id="arrowRight" xlink:href="#dirArrow" transform="rotate(90) translate(36 -43)" onmousedown="handlePan(1,0)">
                  <use xlink:href="#rim" fill="#404040">
                        <set attributeName="fill" to="#808080" begin="arrowRight.mouseover" end="arrowRight.mouseout"/>
                  </use>
                  <path fill="none" stroke="white" stroke-width="1.5" d="M0,-3.0v7 M-2.5,-0.5L0,-3.0L2.5,-0.5"/>
                </g>
                <g id="arrowDown" xlink:href="#dirArrow" transform="rotate(180) translate(-30 -48)" onmousedown="handlePan(0,1)">
                  <use xlink:href="#rim" fill="#404040">
                        <set attributeName="fill" to="#808080" begin="arrowDown.mouseover" end="arrowDown.mouseout"/>
                  </use>
                  <path fill="none" stroke="white" stroke-width="1.5" d="M0,-3.0v7 M-2.5,-0.5L0,-3.0L2.5,-0.5"/>
                </g>
                <g id="arrowLeft" xlink:href="#dirArrow" transform="rotate(270) translate(-36 17)" onmousedown="handlePan(-1,0)">
                  <use xlink:href="#rim" fill="#404040">
                        <set attributeName="fill" to="#808080" begin="arrowLeft.mouseover" end="arrowLeft.mouseout"/>
                  </use>
                  <path fill="none" stroke="white" stroke-width="1.5" d="M0,-3.0v7 M-2.5,-0.5L0,-3.0L2.5,-0.5"/>
                </g>
        </g>
        <svg viewBox="0 0 15 15" width="100%" height="30px" preserveAspectRatio="xMaxYMin meet">
         <g id="arrow_out" transform="scale(0.3 0.3)">
          <a xlink:href="classimpala_1_1ExecNode__coll__graph_org.svg" target="_base">
           <rect id="button" ry="5" rx="5" y="6" x="6" height="38" width="38"
                fill="#f2f5e9" fill-opacity="0.5" stroke="#606060" stroke-width="1.0"/>
           <path id="arrow"
             d="M 11.500037,31.436501 C 11.940474,20.09759 22.043105,11.32322 32.158766,21.979434 L 37.068811,17.246167 C 37.068811,17.246167 37.088388,32 37.088388,32 L 22.160133,31.978069 C 22.160133,31.978069 26.997745,27.140456 26.997745,27.140456 C 18.528582,18.264221 13.291696,25.230495 11.500037,31.436501 z"
             style="fill:#404040;"/>
          </a>
         </g>
        </svg>
</svg>
