<?xml version="1.0" encoding="UTF-8" standalone="no"?>
<!DOCTYPE svg PUBLIC "-//W3C//DTD SVG 1.1//EN"
 "http://www.w3.org/Graphics/SVG/1.1/DTD/svg11.dtd">
<!-- Generated by graphviz version 2.36.0 (20140111.2315)
 -->
<!-- Title: impala::HdfsOperationSet Pages: 1 -->
<svg width="797pt" height="510pt"
 viewBox="0.00 0.00 797.00 510.00" xmlns="http://www.w3.org/2000/svg" xmlns:xlink="http://www.w3.org/1999/xlink">
<g id="graph0" class="graph" transform="scale(1 1) rotate(0) translate(4 506)">
<title>impala::HdfsOperationSet</title>
<polygon fill="white" stroke="none" points="-4,4 -4,-506 793,-506 793,4 -4,4"/>
<!-- Node1 -->
<g id="node1" class="node"><title>Node1</title>
<polygon fill="#bfbfbf" stroke="black" points="284.5,-1 284.5,-157 413.5,-157 413.5,-1 284.5,-1"/>
<text text-anchor="middle" x="349" y="-145" font-family="Helvetica,sans-Serif" font-size="10.00">impala::HdfsOperationSet</text>
<polyline fill="none" stroke="black" points="284.5,-138 413.5,-138 "/>
<text text-anchor="middle" x="349" y="-126" font-family="Helvetica,sans-Serif" font-size="10.00"> </text>
<polyline fill="none" stroke="black" points="284.5,-119 413.5,-119 "/>
<text text-anchor="start" x="292.5" y="-107" font-family="Helvetica,sans-Serif" font-size="10.00">+ HdfsOperationSet()</text>
<text text-anchor="start" x="292.5" y="-96" font-family="Helvetica,sans-Serif" font-size="10.00">+ Add()</text>
<text text-anchor="start" x="292.5" y="-85" font-family="Helvetica,sans-Serif" font-size="10.00">+ Add()</text>
<text text-anchor="start" x="292.5" y="-74" font-family="Helvetica,sans-Serif" font-size="10.00">+ Add()</text>
<text text-anchor="start" x="292.5" y="-63" font-family="Helvetica,sans-Serif" font-size="10.00">+ Execute()</text>
<text text-anchor="start" x="292.5" y="-52" font-family="Helvetica,sans-Serif" font-size="10.00">+ errors()</text>
<text text-anchor="start" x="292.5" y="-41" font-family="Helvetica,sans-Serif" font-size="10.00">+ hdfs_connection()</text>
<text text-anchor="start" x="292.5" y="-30" font-family="Helvetica,sans-Serif" font-size="10.00">&#45; MarkOneOpDone()</text>
<text text-anchor="start" x="292.5" y="-19" font-family="Helvetica,sans-Serif" font-size="10.00">&#45; AddError()</text>
<text text-anchor="start" x="292.5" y="-8" font-family="Helvetica,sans-Serif" font-size="10.00">&#45; ShouldAbort()</text>
</g>
<!-- Node2 -->
<g id="node2" class="node"><title>Node2</title>
<g id="a_node2"><a xlink:href="classimpala_1_1AtomicInt.html" target="_top" xlink:title="{impala::AtomicInt\&lt;\l int64_t \&gt;\n||+ AtomicInt()\l+ operator int64_t()\l+ operator=()\l+ operator=()\l+ operator+=()\l+ operator&#45;=()\l+ operator\|=()\l+ operator&amp;=()\l+ operator++()\l+ operator++()\land 10 more...\l}">
<polygon fill="white" stroke="black" points="-0.5,-207 -0.5,-385 98.5,-385 98.5,-207 -0.5,-207"/>
<text text-anchor="start" x="7.5" y="-373" font-family="Helvetica,sans-Serif" font-size="10.00">impala::AtomicInt&lt;</text>
<text text-anchor="middle" x="49" y="-362" font-family="Helvetica,sans-Serif" font-size="10.00"> int64_t &gt;</text>
<polyline fill="none" stroke="black" points="-0.5,-355 98.5,-355 "/>
<text text-anchor="middle" x="49" y="-343" font-family="Helvetica,sans-Serif" font-size="10.00"> </text>
<polyline fill="none" stroke="black" points="-0.5,-336 98.5,-336 "/>
<text text-anchor="start" x="7.5" y="-324" font-family="Helvetica,sans-Serif" font-size="10.00">+ AtomicInt()</text>
<text text-anchor="start" x="7.5" y="-313" font-family="Helvetica,sans-Serif" font-size="10.00">+ operator int64_t()</text>
<text text-anchor="start" x="7.5" y="-302" font-family="Helvetica,sans-Serif" font-size="10.00">+ operator=()</text>
<text text-anchor="start" x="7.5" y="-291" font-family="Helvetica,sans-Serif" font-size="10.00">+ operator=()</text>
<text text-anchor="start" x="7.5" y="-280" font-family="Helvetica,sans-Serif" font-size="10.00">+ operator+=()</text>
<text text-anchor="start" x="7.5" y="-269" font-family="Helvetica,sans-Serif" font-size="10.00">+ operator&#45;=()</text>
<text text-anchor="start" x="7.5" y="-258" font-family="Helvetica,sans-Serif" font-size="10.00">+ operator|=()</text>
<text text-anchor="start" x="7.5" y="-247" font-family="Helvetica,sans-Serif" font-size="10.00">+ operator&amp;=()</text>
<text text-anchor="start" x="7.5" y="-236" font-family="Helvetica,sans-Serif" font-size="10.00">+ operator++()</text>
<text text-anchor="start" x="7.5" y="-225" font-family="Helvetica,sans-Serif" font-size="10.00">+ operator++()</text>
<text text-anchor="start" x="7.5" y="-214" font-family="Helvetica,sans-Serif" font-size="10.00">and 10 more...</text>
</a>
</g>
</g>
<!-- Node2&#45;&gt;Node1 -->
<g id="edge1" class="edge"><title>Node2&#45;&gt;Node1</title>
<path fill="none" stroke="#404040" d="M98.5694,-210.452C108.748,-197.69 120.29,-185.605 133,-176 175.076,-144.203 229.342,-120.138 272.956,-104.054"/>
<polygon fill="none" stroke="#404040" points="273.088,-104.006 277.375,-98.2075 284.376,-99.9339 280.09,-105.733 273.088,-104.006"/>
<text text-anchor="middle" x="159" y="-179.5" font-family="Helvetica,sans-Serif" font-size="10.00"> &#45;num_ops_</text>
</g>
<!-- Node3 -->
<g id="node3" class="node"><title>Node3</title>
<polygon fill="white" stroke="#bfbfbf" points="26,-444.5 26,-501.5 72,-501.5 72,-444.5 26,-444.5"/>
<text text-anchor="middle" x="49" y="-489.5" font-family="Helvetica,sans-Serif" font-size="10.00">int64_t</text>
<polyline fill="none" stroke="#bfbfbf" points="26,-482.5 72,-482.5 "/>
<text text-anchor="middle" x="49" y="-470.5" font-family="Helvetica,sans-Serif" font-size="10.00"> </text>
<polyline fill="none" stroke="#bfbfbf" points="26,-463.5 72,-463.5 "/>
<text text-anchor="middle" x="49" y="-451.5" font-family="Helvetica,sans-Serif" font-size="10.00"> </text>
</g>
<!-- Node3&#45;&gt;Node2 -->
<g id="edge2" class="edge"><title>Node3&#45;&gt;Node2</title>
<path fill="none" stroke="#404040" d="M49,-444.271C49,-431.115 49,-414.507 49,-397.222"/>
<polygon fill="none" stroke="#404040" points="49.0001,-397.181 45,-391.181 49,-385.181 53,-391.181 49.0001,-397.181"/>
<text text-anchor="middle" x="66.5" y="-412.5" font-family="Helvetica,sans-Serif" font-size="10.00"> &#45;value_</text>
</g>
<!-- Node4 -->
<g id="node4" class="node"><title>Node4</title>
<polygon fill="white" stroke="#bfbfbf" points="117,-267.5 117,-324.5 165,-324.5 165,-267.5 117,-267.5"/>
<text text-anchor="middle" x="141" y="-312.5" font-family="Helvetica,sans-Serif" font-size="10.00">hdfsFS</text>
<polyline fill="none" stroke="#bfbfbf" points="117,-305.5 165,-305.5 "/>
<text text-anchor="middle" x="141" y="-293.5" font-family="Helvetica,sans-Serif" font-size="10.00"> </text>
<polyline fill="none" stroke="#bfbfbf" points="117,-286.5 165,-286.5 "/>
<text text-anchor="middle" x="141" y="-274.5" font-family="Helvetica,sans-Serif" font-size="10.00"> </text>
</g>
<!-- Node4&#45;&gt;Node1 -->
<g id="edge3" class="edge"><title>Node4&#45;&gt;Node1</title>
<path fill="none" stroke="#404040" d="M147.045,-267.427C152.08,-248.817 160.624,-224.392 174,-206 199.942,-170.33 239.07,-140.805 273.753,-119.325"/>
<polygon fill="none" stroke="#404040" points="274.083,-119.125 277.15,-112.598 284.354,-112.918 281.287,-119.445 274.083,-119.125"/>
<text text-anchor="middle" x="238.5" y="-179.5" font-family="Helvetica,sans-Serif" font-size="10.00"> &#45;hdfs_connection_</text>
</g>
<!-- Node5 -->
<g id="node5" class="node"><title>Node5</title>
<polygon fill="white" stroke="#bfbfbf" points="183,-267.5 183,-324.5 313,-324.5 313,-267.5 183,-267.5"/>
<text text-anchor="middle" x="248" y="-312.5" font-family="Helvetica,sans-Serif" font-size="10.00">vector&lt; impala::HdfsOp &gt;</text>
<polyline fill="none" stroke="#bfbfbf" points="183,-305.5 313,-305.5 "/>
<text text-anchor="middle" x="248" y="-293.5" font-family="Helvetica,sans-Serif" font-size="10.00"> </text>
<polyline fill="none" stroke="#bfbfbf" points="183,-286.5 313,-286.5 "/>
<text text-anchor="middle" x="248" y="-274.5" font-family="Helvetica,sans-Serif" font-size="10.00"> </text>
</g>
<!-- Node5&#45;&gt;Node1 -->
<g id="edge4" class="edge"><title>Node5&#45;&gt;Node1</title>
<path fill="none" stroke="#404040" d="M260.997,-267.333C272.827,-242.151 290.946,-203.581 307.675,-167.969"/>
<polygon fill="none" stroke="#404040" points="307.711,-167.892 306.642,-160.76 312.814,-157.03 313.883,-164.162 307.711,-167.892"/>
<text text-anchor="middle" x="316" y="-179.5" font-family="Helvetica,sans-Serif" font-size="10.00"> &#45;ops_</text>
</g>
<!-- Node6 -->
<g id="node6" class="node"><title>Node6</title>
<polygon fill="white" stroke="#bfbfbf" points="335,-444.5 335,-501.5 379,-501.5 379,-444.5 335,-444.5"/>
<text text-anchor="middle" x="357" y="-489.5" font-family="Helvetica,sans-Serif" font-size="10.00">mutex</text>
<polyline fill="none" stroke="#bfbfbf" points="335,-482.5 379,-482.5 "/>
<text text-anchor="middle" x="357" y="-470.5" font-family="Helvetica,sans-Serif" font-size="10.00"> </text>
<polyline fill="none" stroke="#bfbfbf" points="335,-463.5 379,-463.5 "/>
<text text-anchor="middle" x="357" y="-451.5" font-family="Helvetica,sans-Serif" font-size="10.00"> </text>
</g>
<!-- Node6&#45;&gt;Node1 -->
<g id="edge5" class="edge"><title>Node6&#45;&gt;Node1</title>
<path fill="none" stroke="#404040" d="M356.437,-444.435C355.289,-388.177 352.632,-257.986 350.826,-169.456"/>
<polygon fill="none" stroke="#404040" points="350.822,-169.25 346.7,-163.333 350.577,-157.253 354.698,-163.17 350.822,-169.25"/>
<text text-anchor="middle" x="386" y="-293.5" font-family="Helvetica,sans-Serif" font-size="10.00"> &#45;errors_lock_</text>
</g>
<!-- Node8 -->
<g id="node8" class="node"><title>Node8</title>
<g id="a_node8"><a xlink:href="classimpala_1_1Promise.html" target="_top" xlink:title="{impala::Promise\&lt; bool \&gt;\n||+ Promise()\l+ Set()\l+ Get()\l+ Get()\l+ IsSet()\l}">
<polygon fill="white" stroke="black" points="427.5,-245.5 427.5,-346.5 550.5,-346.5 550.5,-245.5 427.5,-245.5"/>
<text text-anchor="middle" x="489" y="-334.5" font-family="Helvetica,sans-Serif" font-size="10.00">impala::Promise&lt; bool &gt;</text>
<polyline fill="none" stroke="black" points="427.5,-327.5 550.5,-327.5 "/>
<text text-anchor="middle" x="489" y="-315.5" font-family="Helvetica,sans-Serif" font-size="10.00"> </text>
<polyline fill="none" stroke="black" points="427.5,-308.5 550.5,-308.5 "/>
<text text-anchor="start" x="435.5" y="-296.5" font-family="Helvetica,sans-Serif" font-size="10.00">+ Promise()</text>
<text text-anchor="start" x="435.5" y="-285.5" font-family="Helvetica,sans-Serif" font-size="10.00">+ Set()</text>
<text text-anchor="start" x="435.5" y="-274.5" font-family="Helvetica,sans-Serif" font-size="10.00">+ Get()</text>
<text text-anchor="start" x="435.5" y="-263.5" font-family="Helvetica,sans-Serif" font-size="10.00">+ Get()</text>
<text text-anchor="start" x="435.5" y="-252.5" font-family="Helvetica,sans-Serif" font-size="10.00">+ IsSet()</text>
</a>
</g>
</g>
<!-- Node6&#45;&gt;Node8 -->
<g id="edge8" class="edge"><title>Node6&#45;&gt;Node8</title>
<path fill="none" stroke="#404040" d="M373.368,-444.33C381.082,-431.77 390.634,-416.877 400,-404 411.652,-387.98 424.969,-371.247 437.689,-355.9"/>
<polygon fill="none" stroke="#404040" points="437.815,-355.749 438.595,-348.58 445.512,-346.543 444.733,-353.712 437.815,-355.749"/>
<text text-anchor="middle" x="424" y="-412.5" font-family="Helvetica,sans-Serif" font-size="10.00"> &#45;val_lock_</text>
</g>
<!-- Node7 -->
<g id="node7" class="node"><title>Node7</title>
<g id="a_node7"><a xlink:href="classbool.html" target="_top" xlink:title="{bool\n||}">
<polygon fill="white" stroke="black" points="562.5,-444.5 562.5,-501.5 597.5,-501.5 597.5,-444.5 562.5,-444.5"/>
<text text-anchor="middle" x="580" y="-489.5" font-family="Helvetica,sans-Serif" font-size="10.00">bool</text>
<polyline fill="none" stroke="black" points="562.5,-482.5 597.5,-482.5 "/>
<text text-anchor="middle" x="580" y="-470.5" font-family="Helvetica,sans-Serif" font-size="10.00"> </text>
<polyline fill="none" stroke="black" points="562.5,-463.5 597.5,-463.5 "/>
<text text-anchor="middle" x="580" y="-451.5" font-family="Helvetica,sans-Serif" font-size="10.00"> </text>
</a>
</g>
</g>
<!-- Node7&#45;&gt;Node1 -->
<g id="edge6" class="edge"><title>Node7&#45;&gt;Node1</title>
<path fill="none" stroke="#404040" d="M594.165,-444.383C596.583,-438.463 598.723,-432.139 600,-426 601.991,-416.427 600.997,-413.727 600,-404 590.841,-314.601 611.017,-279.282 559,-206 526.147,-159.717 470.455,-127.441 424.675,-107.15"/>
<polygon fill="none" stroke="#404040" points="424.595,-107.116 417.503,-108.419 413.572,-102.374 420.664,-101.07 424.595,-107.116"/>
<text text-anchor="middle" x="636" y="-293.5" font-family="Helvetica,sans-Serif" font-size="10.00"> &#45;abort_on_error_</text>
</g>
<!-- Node7&#45;&gt;Node8 -->
<g id="edge10" class="edge"><title>Node7&#45;&gt;Node8</title>
<path fill="none" stroke="#404040" d="M562.278,-449.201C557.043,-441.981 551.512,-433.836 547,-426 534.584,-404.436 522.909,-379.73 513.335,-357.749"/>
<polygon fill="none" stroke="#404040" points="513.255,-357.563 507.214,-353.625 508.526,-346.534 514.567,-350.473 513.255,-357.563"/>
<text text-anchor="middle" x="573.5" y="-418" font-family="Helvetica,sans-Serif" font-size="10.00"> &#45;val_</text>
<text text-anchor="middle" x="573.5" y="-407" font-family="Helvetica,sans-Serif" font-size="10.00">&#45;val_is_set_</text>
</g>
<!-- Node8&#45;&gt;Node1 -->
<g id="edge7" class="edge"><title>Node8&#45;&gt;Node1</title>
<path fill="none" stroke="#404040" d="M456.705,-245.405C441.597,-222.202 423.148,-193.87 405.817,-167.255"/>
<polygon fill="none" stroke="#404040" points="405.787,-167.209 399.161,-164.364 399.239,-157.153 405.865,-159.998 405.787,-167.209"/>
<text text-anchor="middle" x="442" y="-179.5" font-family="Helvetica,sans-Serif" font-size="10.00"> &#45;promise_</text>
</g>
<!-- Node9 -->
<g id="node9" class="node"><title>Node9</title>
<polygon fill="white" stroke="#bfbfbf" points="405.5,-444.5 405.5,-501.5 500.5,-501.5 500.5,-444.5 405.5,-444.5"/>
<text text-anchor="middle" x="453" y="-489.5" font-family="Helvetica,sans-Serif" font-size="10.00">condition_variable</text>
<polyline fill="none" stroke="#bfbfbf" points="405.5,-482.5 500.5,-482.5 "/>
<text text-anchor="middle" x="453" y="-470.5" font-family="Helvetica,sans-Serif" font-size="10.00"> </text>
<polyline fill="none" stroke="#bfbfbf" points="405.5,-463.5 500.5,-463.5 "/>
<text text-anchor="middle" x="453" y="-451.5" font-family="Helvetica,sans-Serif" font-size="10.00"> </text>
</g>
<!-- Node9&#45;&gt;Node8 -->
<g id="edge9" class="edge"><title>Node9&#45;&gt;Node8</title>
<path fill="none" stroke="#404040" d="M451.531,-444.369C451.351,-431.951 451.803,-417.16 454,-404 456.527,-388.864 460.796,-372.949 465.501,-358.155"/>
<polygon fill="none" stroke="#404040" points="465.566,-357.957 463.657,-351.003 469.342,-346.567 471.251,-353.521 465.566,-357.957"/>
<text text-anchor="middle" x="489" y="-412.5" font-family="Helvetica,sans-Serif" font-size="10.00"> &#45;val_set_cond_</text>
</g>
<!-- Node10 -->
<g id="node10" class="node"><title>Node10</title>
<polygon fill="white" stroke="#bfbfbf" points="706.5,-267.5 706.5,-324.5 789.5,-324.5 789.5,-267.5 706.5,-267.5"/>
<text text-anchor="middle" x="748" y="-312.5" font-family="Helvetica,sans-Serif" font-size="10.00">vector&lt; Error &gt;</text>
<polyline fill="none" stroke="#bfbfbf" points="706.5,-305.5 789.5,-305.5 "/>
<text text-anchor="middle" x="748" y="-293.5" font-family="Helvetica,sans-Serif" font-size="10.00"> </text>
<polyline fill="none" stroke="#bfbfbf" points="706.5,-286.5 789.5,-286.5 "/>
<text text-anchor="middle" x="748" y="-274.5" font-family="Helvetica,sans-Serif" font-size="10.00"> </text>
</g>
<!-- Node10&#45;&gt;Node1 -->
<g id="edge11" class="edge"><title>Node10&#45;&gt;Node1</title>
<path fill="none" stroke="#404040" d="M735.722,-267.164C726.104,-247.955 711.151,-222.924 692,-206 616.125,-138.946 501.526,-106.526 425.987,-91.6184"/>
<polygon fill="none" stroke="#404040" points="425.536,-91.5327 418.894,-94.34 413.748,-89.2885 420.39,-86.4812 425.536,-91.5327"/>
<text text-anchor="middle" x="688.5" y="-179.5" font-family="Helvetica,sans-Serif" font-size="10.00"> &#45;errors_</text>
</g>
</g>
</svg>
