<?xml version="1.0" encoding="UTF-8" standalone="no"?>
<!DOCTYPE svg PUBLIC "-//W3C//DTD SVG 1.1//EN"
 "http://www.w3.org/Graphics/SVG/1.1/DTD/svg11.dtd">
<!-- Generated by graphviz version 2.36.0 (20140111.2315)
 -->
<!-- Title: com.cloudera.impala.catalog.RowFormat Pages: 1 -->
<svg width="303pt" height="304pt"
 viewBox="0.00 0.00 303.00 304.00" xmlns="http://www.w3.org/2000/svg" xmlns:xlink="http://www.w3.org/1999/xlink">
<g id="graph0" class="graph" transform="scale(1 1) rotate(0) translate(4 300)">
<title>com.cloudera.impala.catalog.RowFormat</title>
<polygon fill="white" stroke="none" points="-4,4 -4,-300 299,-300 299,4 -4,4"/>
<!-- Node1 -->
<g id="node1" class="node"><title>Node1</title>
<polygon fill="#bfbfbf" stroke="black" points="0,-0.5 0,-167.5 144,-167.5 144,-0.5 0,-0.5"/>
<text text-anchor="start" x="8" y="-155.5" font-family="Helvetica,sans-Serif" font-size="10.00">com.cloudera.impala.catalog.</text>
<text text-anchor="middle" x="72" y="-144.5" font-family="Helvetica,sans-Serif" font-size="10.00">RowFormat</text>
<polyline fill="none" stroke="black" points="0,-137.5 144,-137.5 "/>
<text text-anchor="middle" x="72" y="-125.5" font-family="Helvetica,sans-Serif" font-size="10.00"> </text>
<polyline fill="none" stroke="black" points="0,-118.5 144,-118.5 "/>
<text text-anchor="start" x="8" y="-106.5" font-family="Helvetica,sans-Serif" font-size="10.00">+ RowFormat()</text>
<text text-anchor="start" x="8" y="-95.5" font-family="Helvetica,sans-Serif" font-size="10.00">+ getFieldDelimiter()</text>
<text text-anchor="start" x="8" y="-84.5" font-family="Helvetica,sans-Serif" font-size="10.00">+ getLineDelimiter()</text>
<text text-anchor="start" x="8" y="-73.5" font-family="Helvetica,sans-Serif" font-size="10.00">+ getEscapeChar()</text>
<text text-anchor="start" x="8" y="-62.5" font-family="Helvetica,sans-Serif" font-size="10.00">+ isDefault()</text>
<text text-anchor="start" x="8" y="-51.5" font-family="Helvetica,sans-Serif" font-size="10.00">+ toThrift()</text>
<text text-anchor="start" x="8" y="-40.5" font-family="Helvetica,sans-Serif" font-size="10.00">+ fromThrift()</text>
<text text-anchor="start" x="8" y="-29.5" font-family="Helvetica,sans-Serif" font-size="10.00">+ fromStorageDescriptor()</text>
<text text-anchor="start" x="8" y="-18.5" font-family="Helvetica,sans-Serif" font-size="10.00">&#45; RowFormat()</text>
<text text-anchor="start" x="8" y="-7.5" font-family="Helvetica,sans-Serif" font-size="10.00">&#45; getUnescapedValueOrNull()</text>
</g>
<!-- Node1&#45;&gt;Node1 -->
<g id="edge2" class="edge"><title>Node1&#45;&gt;Node1</title>
<path fill="none" stroke="#404040" d="M144.026,-104.071C154.748,-100.946 162,-94.2559 162,-84 162,-77.9106 159.443,-73.0781 155.122,-69.5027"/>
<polygon fill="none" stroke="#404040" points="154.749,-69.3155 147.592,-70.1966 144.026,-63.929 151.183,-63.0479 154.749,-69.3155"/>
<text text-anchor="middle" x="228.5" y="-81.5" font-family="Helvetica,sans-Serif" font-size="10.00"> +DEFAULT_ROW_FORMAT</text>
</g>
<!-- Node2 -->
<g id="node2" class="node"><title>Node2</title>
<polygon fill="white" stroke="#bfbfbf" points="51,-238.5 51,-295.5 93,-295.5 93,-238.5 51,-238.5"/>
<text text-anchor="middle" x="72" y="-283.5" font-family="Helvetica,sans-Serif" font-size="10.00">String</text>
<polyline fill="none" stroke="#bfbfbf" points="51,-276.5 93,-276.5 "/>
<text text-anchor="middle" x="72" y="-264.5" font-family="Helvetica,sans-Serif" font-size="10.00"> </text>
<polyline fill="none" stroke="#bfbfbf" points="51,-257.5 93,-257.5 "/>
<text text-anchor="middle" x="72" y="-245.5" font-family="Helvetica,sans-Serif" font-size="10.00"> </text>
</g>
<!-- Node2&#45;&gt;Node1 -->
<g id="edge1" class="edge"><title>Node2&#45;&gt;Node1</title>
<path fill="none" stroke="#404040" d="M72,-238.115C72,-222.209 72,-201.239 72,-179.942"/>
<polygon fill="none" stroke="#404040" points="72.0001,-179.754 68,-173.754 72,-167.754 76,-173.754 72.0001,-179.754"/>
<text text-anchor="middle" x="106.5" y="-211.5" font-family="Helvetica,sans-Serif" font-size="10.00"> &#45;fieldDelimiter_</text>
<text text-anchor="middle" x="106.5" y="-200.5" font-family="Helvetica,sans-Serif" font-size="10.00">&#45;lineDelimiter_</text>
<text text-anchor="middle" x="106.5" y="-189.5" font-family="Helvetica,sans-Serif" font-size="10.00">&#45;escapeChar_</text>
</g>
</g>
</svg>
