<?xml version="1.0" encoding="UTF-8" standalone="no"?>
<!DOCTYPE svg PUBLIC "-//W3C//DTD SVG 1.1//EN"
 "http://www.w3.org/Graphics/SVG/1.1/DTD/svg11.dtd">
<!-- Generated by graphviz version 2.36.0 (20140111.2315)
 -->
<!-- Title: impala::MultiThreadTest Pages: 1 -->
<svg width="809pt" height="422pt"
 viewBox="0.00 0.00 809.00 422.00" xmlns="http://www.w3.org/2000/svg" xmlns:xlink="http://www.w3.org/1999/xlink">
<g id="graph0" class="graph" transform="scale(1 1) rotate(0) translate(4 418)">
<title>impala::MultiThreadTest</title>
<polygon fill="white" stroke="none" points="-4,4 -4,-418 805,-418 805,4 -4,4"/>
<!-- Node1 -->
<g id="node1" class="node"><title>Node1</title>
<polygon fill="#bfbfbf" stroke="black" points="281,-1 281,-91 403,-91 403,-1 281,-1"/>
<text text-anchor="middle" x="342" y="-79" font-family="Helvetica,sans-Serif" font-size="10.00">impala::MultiThreadTest</text>
<polyline fill="none" stroke="black" points="281,-72 403,-72 "/>
<text text-anchor="middle" x="342" y="-60" font-family="Helvetica,sans-Serif" font-size="10.00"> </text>
<polyline fill="none" stroke="black" points="281,-53 403,-53 "/>
<text text-anchor="start" x="289" y="-41" font-family="Helvetica,sans-Serif" font-size="10.00">+ MultiThreadTest()</text>
<text text-anchor="start" x="289" y="-30" font-family="Helvetica,sans-Serif" font-size="10.00">+ InserterThread()</text>
<text text-anchor="start" x="289" y="-19" font-family="Helvetica,sans-Serif" font-size="10.00">+ RemoverThread()</text>
<text text-anchor="start" x="289" y="-8" font-family="Helvetica,sans-Serif" font-size="10.00">+ Run()</text>
</g>
<!-- Node2 -->
<g id="node2" class="node"><title>Node2</title>
<polygon fill="white" stroke="#bfbfbf" points="-0.5,-179.5 -0.5,-236.5 98.5,-236.5 98.5,-179.5 -0.5,-179.5"/>
<text text-anchor="middle" x="49" y="-224.5" font-family="Helvetica,sans-Serif" font-size="10.00">map&lt; int32_t, int &gt;</text>
<polyline fill="none" stroke="#bfbfbf" points="-0.5,-217.5 98.5,-217.5 "/>
<text text-anchor="middle" x="49" y="-205.5" font-family="Helvetica,sans-Serif" font-size="10.00"> </text>
<polyline fill="none" stroke="#bfbfbf" points="-0.5,-198.5 98.5,-198.5 "/>
<text text-anchor="middle" x="49" y="-186.5" font-family="Helvetica,sans-Serif" font-size="10.00"> </text>
</g>
<!-- Node2&#45;&gt;Node1 -->
<g id="edge1" class="edge"><title>Node2&#45;&gt;Node1</title>
<path fill="none" stroke="#404040" d="M51.2867,-179.256C54.5714,-157.403 62.5641,-127.757 82,-110 109.075,-85.2636 201.686,-67.0719 268.675,-56.7636"/>
<polygon fill="none" stroke="#404040" points="268.997,-56.7152 274.335,-51.8674 280.863,-54.9307 275.525,-59.7785 268.997,-56.7152"/>
<text text-anchor="middle" x="101.5" y="-113.5" font-family="Helvetica,sans-Serif" font-size="10.00"> &#45;gotten_</text>
</g>
<!-- Node3 -->
<g id="node3" class="node"><title>Node3</title>
<g id="a_node3"><a xlink:href="classimpala_1_1BlockingQueue.html" target="_top" xlink:title="{impala::BlockingQueue\l\&lt; int32_t \&gt;\n||+ BlockingQueue()\l+ BlockingGet()\l+ BlockingPut()\l+ Shutdown()\l+ GetSize()\l+ total_get_wait_time()\l+ total_put_wait_time()\l}">
<polygon fill="white" stroke="black" points="283.5,-141 283.5,-275 400.5,-275 400.5,-141 283.5,-141"/>
<text text-anchor="start" x="291.5" y="-263" font-family="Helvetica,sans-Serif" font-size="10.00">impala::BlockingQueue</text>
<text text-anchor="middle" x="342" y="-252" font-family="Helvetica,sans-Serif" font-size="10.00">&lt; int32_t &gt;</text>
<polyline fill="none" stroke="black" points="283.5,-245 400.5,-245 "/>
<text text-anchor="middle" x="342" y="-233" font-family="Helvetica,sans-Serif" font-size="10.00"> </text>
<polyline fill="none" stroke="black" points="283.5,-226 400.5,-226 "/>
<text text-anchor="start" x="291.5" y="-214" font-family="Helvetica,sans-Serif" font-size="10.00">+ BlockingQueue()</text>
<text text-anchor="start" x="291.5" y="-203" font-family="Helvetica,sans-Serif" font-size="10.00">+ BlockingGet()</text>
<text text-anchor="start" x="291.5" y="-192" font-family="Helvetica,sans-Serif" font-size="10.00">+ BlockingPut()</text>
<text text-anchor="start" x="291.5" y="-181" font-family="Helvetica,sans-Serif" font-size="10.00">+ Shutdown()</text>
<text text-anchor="start" x="291.5" y="-170" font-family="Helvetica,sans-Serif" font-size="10.00">+ GetSize()</text>
<text text-anchor="start" x="291.5" y="-159" font-family="Helvetica,sans-Serif" font-size="10.00">+ total_get_wait_time()</text>
<text text-anchor="start" x="291.5" y="-148" font-family="Helvetica,sans-Serif" font-size="10.00">+ total_put_wait_time()</text>
</a>
</g>
</g>
<!-- Node3&#45;&gt;Node1 -->
<g id="edge2" class="edge"><title>Node3&#45;&gt;Node1</title>
<path fill="none" stroke="#404040" d="M342,-140.998C342,-128.604 342,-115.747 342,-103.667"/>
<polygon fill="none" stroke="#404040" points="342,-103.413 338,-97.4129 342,-91.4129 346,-97.4128 342,-103.413"/>
<text text-anchor="middle" x="361" y="-113.5" font-family="Helvetica,sans-Serif" font-size="10.00"> &#45;queue_</text>
</g>
<!-- Node4 -->
<g id="node4" class="node"><title>Node4</title>
<g id="a_node4"><a xlink:href="classuint64__t.html" target="_top" xlink:title="{uint64_t\n||}">
<polygon fill="white" stroke="black" points="286.5,-356.5 286.5,-413.5 337.5,-413.5 337.5,-356.5 286.5,-356.5"/>
<text text-anchor="middle" x="312" y="-401.5" font-family="Helvetica,sans-Serif" font-size="10.00">uint64_t</text>
<polyline fill="none" stroke="black" points="286.5,-394.5 337.5,-394.5 "/>
<text text-anchor="middle" x="312" y="-382.5" font-family="Helvetica,sans-Serif" font-size="10.00"> </text>
<polyline fill="none" stroke="black" points="286.5,-375.5 337.5,-375.5 "/>
<text text-anchor="middle" x="312" y="-363.5" font-family="Helvetica,sans-Serif" font-size="10.00"> </text>
</a>
</g>
</g>
<!-- Node4&#45;&gt;Node3 -->
<g id="edge3" class="edge"><title>Node4&#45;&gt;Node3</title>
<path fill="none" stroke="#404040" d="M293.356,-356.272C290.318,-350.464 287.634,-344.21 286,-338 281.025,-319.088 280.384,-312.732 286,-294 286.733,-291.553 287.563,-289.112 288.474,-286.684"/>
<polygon fill="none" stroke="#404040" points="288.567,-286.466 287.254,-279.376 293.294,-275.436 294.607,-282.526 288.567,-286.466"/>
<text text-anchor="start" x="286" y="-330" font-family="Helvetica,sans-Serif" font-size="10.00"> &#45;total_put_wait_time</text>
<text text-anchor="middle" x="331.5" y="-319" font-family="Helvetica,sans-Serif" font-size="10.00">_</text>
<text text-anchor="start" x="286" y="-308" font-family="Helvetica,sans-Serif" font-size="10.00">&#45;total_get_wait</text>
<text text-anchor="middle" x="331.5" y="-297" font-family="Helvetica,sans-Serif" font-size="10.00">_time_</text>
</g>
<!-- Node5 -->
<g id="node5" class="node"><title>Node5</title>
<polygon fill="white" stroke="#bfbfbf" points="437.5,-356.5 437.5,-413.5 514.5,-413.5 514.5,-356.5 437.5,-356.5"/>
<text text-anchor="middle" x="476" y="-401.5" font-family="Helvetica,sans-Serif" font-size="10.00">list&lt; int32_t &gt;</text>
<polyline fill="none" stroke="#bfbfbf" points="437.5,-394.5 514.5,-394.5 "/>
<text text-anchor="middle" x="476" y="-382.5" font-family="Helvetica,sans-Serif" font-size="10.00"> </text>
<polyline fill="none" stroke="#bfbfbf" points="437.5,-375.5 514.5,-375.5 "/>
<text text-anchor="middle" x="476" y="-363.5" font-family="Helvetica,sans-Serif" font-size="10.00"> </text>
</g>
<!-- Node5&#45;&gt;Node3 -->
<g id="edge4" class="edge"><title>Node5&#45;&gt;Node3</title>
<path fill="none" stroke="#404040" d="M471.744,-356.156C467.861,-337.355 460.718,-312.66 448,-294 437.853,-279.113 424.326,-265.543 410.339,-253.83"/>
<polygon fill="none" stroke="#404040" points="409.974,-253.537 402.792,-252.899 400.618,-246.024 407.801,-246.662 409.974,-253.537"/>
<text text-anchor="middle" x="479.5" y="-313.5" font-family="Helvetica,sans-Serif" font-size="10.00"> &#45;list_</text>
</g>
<!-- Node6 -->
<g id="node6" class="node"><title>Node6</title>
<polygon fill="white" stroke="#bfbfbf" points="111,-356.5 111,-413.5 155,-413.5 155,-356.5 111,-356.5"/>
<text text-anchor="middle" x="133" y="-401.5" font-family="Helvetica,sans-Serif" font-size="10.00">mutex</text>
<polyline fill="none" stroke="#bfbfbf" points="111,-394.5 155,-394.5 "/>
<text text-anchor="middle" x="133" y="-382.5" font-family="Helvetica,sans-Serif" font-size="10.00"> </text>
<polyline fill="none" stroke="#bfbfbf" points="111,-375.5 155,-375.5 "/>
<text text-anchor="middle" x="133" y="-363.5" font-family="Helvetica,sans-Serif" font-size="10.00"> </text>
</g>
<!-- Node6&#45;&gt;Node1 -->
<g id="edge9" class="edge"><title>Node6&#45;&gt;Node1</title>
<path fill="none" stroke="#404040" d="M136.86,-356.157C139.934,-338.026 145.062,-314.097 153,-294 182.207,-220.058 194.467,-202.184 244,-140 255.102,-126.062 268.245,-112.207 281.24,-99.6126"/>
<polygon fill="none" stroke="#404040" points="281.488,-99.3766 283.081,-92.3437 290.186,-91.1092 288.593,-98.1422 281.488,-99.3766"/>
<text text-anchor="middle" x="259" y="-205.5" font-family="Helvetica,sans-Serif" font-size="10.00"> &#45;lock_</text>
</g>
<!-- Node6&#45;&gt;Node3 -->
<g id="edge5" class="edge"><title>Node6&#45;&gt;Node3</title>
<path fill="none" stroke="#404040" d="M145.922,-356.275C155.913,-337.049 171.197,-311.802 190,-294 213.841,-271.429 244.804,-252.712 272.558,-238.642"/>
<polygon fill="none" stroke="#404040" points="272.654,-238.594 276.266,-232.353 283.417,-233.286 279.805,-239.527 272.654,-238.594"/>
<text text-anchor="middle" x="205" y="-313.5" font-family="Helvetica,sans-Serif" font-size="10.00"> &#45;lock_</text>
</g>
<!-- Node7 -->
<g id="node7" class="node"><title>Node7</title>
<polygon fill="white" stroke="#bfbfbf" points="173.5,-356.5 173.5,-413.5 268.5,-413.5 268.5,-356.5 173.5,-356.5"/>
<text text-anchor="middle" x="221" y="-401.5" font-family="Helvetica,sans-Serif" font-size="10.00">condition_variable</text>
<polyline fill="none" stroke="#bfbfbf" points="173.5,-394.5 268.5,-394.5 "/>
<text text-anchor="middle" x="221" y="-382.5" font-family="Helvetica,sans-Serif" font-size="10.00"> </text>
<polyline fill="none" stroke="#bfbfbf" points="173.5,-375.5 268.5,-375.5 "/>
<text text-anchor="middle" x="221" y="-363.5" font-family="Helvetica,sans-Serif" font-size="10.00"> </text>
</g>
<!-- Node7&#45;&gt;Node3 -->
<g id="edge6" class="edge"><title>Node7&#45;&gt;Node3</title>
<path fill="none" stroke="#404040" d="M221.361,-356.287C222.726,-337.544 226.791,-312.865 238,-294 247.146,-278.608 260.161,-264.802 273.902,-253.016"/>
<polygon fill="none" stroke="#404040" points="274.197,-252.775 276.315,-245.882 283.492,-245.185 281.375,-252.078 274.197,-252.775"/>
<text text-anchor="middle" x="258.5" y="-319" font-family="Helvetica,sans-Serif" font-size="10.00"> &#45;get_cv_</text>
<text text-anchor="middle" x="258.5" y="-308" font-family="Helvetica,sans-Serif" font-size="10.00">&#45;put_cv_</text>
</g>
<!-- Node8 -->
<g id="node8" class="node"><title>Node8</title>
<polygon fill="white" stroke="#bfbfbf" points="566.5,-356.5 566.5,-413.5 595.5,-413.5 595.5,-356.5 566.5,-356.5"/>
<text text-anchor="middle" x="581" y="-401.5" font-family="Helvetica,sans-Serif" font-size="10.00">int</text>
<polyline fill="none" stroke="#bfbfbf" points="566.5,-394.5 595.5,-394.5 "/>
<text text-anchor="middle" x="581" y="-382.5" font-family="Helvetica,sans-Serif" font-size="10.00"> </text>
<polyline fill="none" stroke="#bfbfbf" points="566.5,-375.5 595.5,-375.5 "/>
<text text-anchor="middle" x="581" y="-363.5" font-family="Helvetica,sans-Serif" font-size="10.00"> </text>
</g>
<!-- Node8&#45;&gt;Node1 -->
<g id="edge10" class="edge"><title>Node8&#45;&gt;Node1</title>
<path fill="none" stroke="#404040" d="M595.542,-356.806C603.297,-338.516 609.631,-314.158 601,-294 563.064,-205.4 476.012,-133.486 413.292,-90.5655"/>
<polygon fill="none" stroke="#404040" points="413.008,-90.3742 405.797,-90.339 403.056,-83.6691 410.267,-83.7043 413.008,-90.3742"/>
<text text-anchor="middle" x="627" y="-216.5" font-family="Helvetica,sans-Serif" font-size="10.00"> &#45;iterations_</text>
<text text-anchor="middle" x="627" y="-205.5" font-family="Helvetica,sans-Serif" font-size="10.00">&#45;nthreads_</text>
<text text-anchor="middle" x="627" y="-194.5" font-family="Helvetica,sans-Serif" font-size="10.00">&#45;num_inserters_</text>
</g>
<!-- Node8&#45;&gt;Node3 -->
<g id="edge7" class="edge"><title>Node8&#45;&gt;Node3</title>
<path fill="none" stroke="#404040" d="M566.161,-373.736C554.229,-365.051 537.458,-351.839 525,-338 509.33,-320.593 513.197,-309.899 496,-294 471.552,-271.398 439.996,-252.63 411.82,-238.53"/>
<polygon fill="none" stroke="#404040" points="411.591,-238.419 404.446,-239.388 400.803,-233.164 407.949,-232.196 411.591,-238.419"/>
<text text-anchor="middle" x="563" y="-313.5" font-family="Helvetica,sans-Serif" font-size="10.00"> &#45;max_elements_</text>
</g>
<!-- Node9 -->
<g id="node9" class="node"><title>Node9</title>
<g id="a_node9"><a xlink:href="classbool.html" target="_top" xlink:title="{bool\n||}">
<polygon fill="white" stroke="black" points="381.5,-356.5 381.5,-413.5 416.5,-413.5 416.5,-356.5 381.5,-356.5"/>
<text text-anchor="middle" x="399" y="-401.5" font-family="Helvetica,sans-Serif" font-size="10.00">bool</text>
<polyline fill="none" stroke="black" points="381.5,-394.5 416.5,-394.5 "/>
<text text-anchor="middle" x="399" y="-382.5" font-family="Helvetica,sans-Serif" font-size="10.00"> </text>
<polyline fill="none" stroke="black" points="381.5,-375.5 416.5,-375.5 "/>
<text text-anchor="middle" x="399" y="-363.5" font-family="Helvetica,sans-Serif" font-size="10.00"> </text>
</a>
</g>
</g>
<!-- Node9&#45;&gt;Node3 -->
<g id="edge8" class="edge"><title>Node9&#45;&gt;Node3</title>
<path fill="none" stroke="#404040" d="M393.325,-356.124C389.396,-338.191 383.681,-314.492 377,-294 376.227,-291.629 375.418,-289.231 374.58,-286.818"/>
<polygon fill="none" stroke="#404040" points="374.555,-286.747 368.754,-282.463 370.477,-275.461 376.278,-279.745 374.555,-286.747"/>
<text text-anchor="middle" x="417" y="-313.5" font-family="Helvetica,sans-Serif" font-size="10.00"> &#45;shutdown_</text>
</g>
<!-- Node10 -->
<g id="node10" class="node"><title>Node10</title>
<polygon fill="white" stroke="#bfbfbf" points="703,-174 703,-242 801,-242 801,-174 703,-174"/>
<text text-anchor="start" x="711" y="-230" font-family="Helvetica,sans-Serif" font-size="10.00">vector&lt; shared_ptr</text>
<text text-anchor="middle" x="752" y="-219" font-family="Helvetica,sans-Serif" font-size="10.00">&lt; thread &gt; &gt;</text>
<polyline fill="none" stroke="#bfbfbf" points="703,-212 801,-212 "/>
<text text-anchor="middle" x="752" y="-200" font-family="Helvetica,sans-Serif" font-size="10.00"> </text>
<polyline fill="none" stroke="#bfbfbf" points="703,-193 801,-193 "/>
<text text-anchor="middle" x="752" y="-181" font-family="Helvetica,sans-Serif" font-size="10.00"> </text>
</g>
<!-- Node10&#45;&gt;Node1 -->
<g id="edge11" class="edge"><title>Node10&#45;&gt;Node1</title>
<path fill="none" stroke="#404040" d="M725.217,-173.991C714.719,-162.336 702.064,-149.725 689,-140 607.961,-79.675 490.549,-58.4566 415.239,-51.0079"/>
<polygon fill="none" stroke="#404040" points="415.016,-50.9875 408.675,-54.4207 403.067,-49.8876 409.408,-46.4543 415.016,-50.9875"/>
<text text-anchor="middle" x="679" y="-113.5" font-family="Helvetica,sans-Serif" font-size="10.00"> &#45;threads_</text>
</g>
</g>
</svg>
