<?xml version="1.0" encoding="UTF-8" standalone="no"?>
<!DOCTYPE svg PUBLIC "-//W3C//DTD SVG 1.1//EN"
 "http://www.w3.org/Graphics/SVG/1.1/DTD/svg11.dtd">
<!-- Generated by graphviz version 2.36.0 (20140111.2315)
 -->
<!-- Title: com.cloudera.impala.catalog.AuthorizationPolicy Pages: 1 -->
<svg width="620pt" height="360pt"
 viewBox="0.00 0.00 620.00 360.00" xmlns="http://www.w3.org/2000/svg" xmlns:xlink="http://www.w3.org/1999/xlink">
<g id="graph0" class="graph" transform="scale(1 1) rotate(0) translate(4 356)">
<title>com.cloudera.impala.catalog.AuthorizationPolicy</title>
<polygon fill="white" stroke="none" points="-4,4 -4,-356 616,-356 616,4 -4,4"/>
<!-- Node1 -->
<g id="node1" class="node"><title>Node1</title>
<polygon fill="#bfbfbf" stroke="black" points="151,-1 151,-223 295,-223 295,-1 151,-1"/>
<text text-anchor="start" x="159" y="-211" font-family="Helvetica,sans-Serif" font-size="10.00">com.cloudera.impala.catalog.</text>
<text text-anchor="middle" x="223" y="-200" font-family="Helvetica,sans-Serif" font-size="10.00">AuthorizationPolicy</text>
<polyline fill="none" stroke="black" points="151,-193 295,-193 "/>
<text text-anchor="middle" x="223" y="-181" font-family="Helvetica,sans-Serif" font-size="10.00"> </text>
<polyline fill="none" stroke="black" points="151,-174 295,-174 "/>
<text text-anchor="start" x="159" y="-162" font-family="Helvetica,sans-Serif" font-size="10.00">+ addRole()</text>
<text text-anchor="start" x="159" y="-151" font-family="Helvetica,sans-Serif" font-size="10.00">+ addPrivilege()</text>
<text text-anchor="start" x="159" y="-140" font-family="Helvetica,sans-Serif" font-size="10.00">+ removePrivilege()</text>
<text text-anchor="start" x="159" y="-129" font-family="Helvetica,sans-Serif" font-size="10.00">+ getAllRoles()</text>
<text text-anchor="start" x="159" y="-118" font-family="Helvetica,sans-Serif" font-size="10.00">+ getAllRoleNames()</text>
<text text-anchor="start" x="159" y="-107" font-family="Helvetica,sans-Serif" font-size="10.00">+ getRole()</text>
<text text-anchor="start" x="159" y="-96" font-family="Helvetica,sans-Serif" font-size="10.00">+ getRole()</text>
<text text-anchor="start" x="159" y="-85" font-family="Helvetica,sans-Serif" font-size="10.00">+ getPrivilege()</text>
<text text-anchor="start" x="159" y="-74" font-family="Helvetica,sans-Serif" font-size="10.00">+ getGrantedRoles()</text>
<text text-anchor="start" x="159" y="-63" font-family="Helvetica,sans-Serif" font-size="10.00">+ removeRole()</text>
<text text-anchor="start" x="159" y="-52" font-family="Helvetica,sans-Serif" font-size="10.00">+ addGrantGroup()</text>
<text text-anchor="start" x="159" y="-41" font-family="Helvetica,sans-Serif" font-size="10.00">+ removeGrantGroup()</text>
<text text-anchor="start" x="159" y="-30" font-family="Helvetica,sans-Serif" font-size="10.00">+ listPrivileges()</text>
<text text-anchor="start" x="159" y="-19" font-family="Helvetica,sans-Serif" font-size="10.00">+ close()</text>
<text text-anchor="start" x="159" y="-8" font-family="Helvetica,sans-Serif" font-size="10.00">+ getRolePrivileges()</text>
</g>
<!-- Node2 -->
<g id="node2" class="node"><title>Node2</title>
<polygon fill="white" stroke="#bfbfbf" points="-0.5,-283.5 -0.5,-340.5 82.5,-340.5 82.5,-283.5 -0.5,-283.5"/>
<text text-anchor="middle" x="41" y="-328.5" font-family="Helvetica,sans-Serif" font-size="10.00">PrivilegeCache</text>
<polyline fill="none" stroke="#bfbfbf" points="-0.5,-321.5 82.5,-321.5 "/>
<text text-anchor="middle" x="41" y="-309.5" font-family="Helvetica,sans-Serif" font-size="10.00"> </text>
<polyline fill="none" stroke="#bfbfbf" points="-0.5,-302.5 82.5,-302.5 "/>
<text text-anchor="middle" x="41" y="-290.5" font-family="Helvetica,sans-Serif" font-size="10.00"> </text>
</g>
<!-- Node2&#45;&gt;Node1 -->
<g id="edge1" class="edge"><title>Node2&#45;&gt;Node1</title>
<path fill="none" stroke="midnightblue" d="M73.2939,-275.867C94.8036,-252.466 123.948,-220.76 150.807,-191.539"/>
<polygon fill="none" stroke="midnightblue" points="70.4969,-273.738 66.3063,-283.469 75.6505,-278.475 70.4969,-273.738"/>
</g>
<!-- Node3 -->
<g id="node3" class="node"><title>Node3</title>
<polygon fill="white" stroke="#bfbfbf" points="101,-283.5 101,-340.5 147,-340.5 147,-283.5 101,-283.5"/>
<text text-anchor="middle" x="124" y="-328.5" font-family="Helvetica,sans-Serif" font-size="10.00">Logger</text>
<polyline fill="none" stroke="#bfbfbf" points="101,-321.5 147,-321.5 "/>
<text text-anchor="middle" x="124" y="-309.5" font-family="Helvetica,sans-Serif" font-size="10.00"> </text>
<polyline fill="none" stroke="#bfbfbf" points="101,-302.5 147,-302.5 "/>
<text text-anchor="middle" x="124" y="-290.5" font-family="Helvetica,sans-Serif" font-size="10.00"> </text>
</g>
<!-- Node3&#45;&gt;Node1 -->
<g id="edge2" class="edge"><title>Node3&#45;&gt;Node1</title>
<path fill="none" stroke="#404040" d="M137.766,-283.469C144.516,-269.967 153.166,-252.668 162.356,-234.288"/>
<polygon fill="none" stroke="#404040" points="162.453,-234.095 161.558,-226.939 167.819,-223.362 168.714,-230.517 162.453,-234.095"/>
<text text-anchor="middle" x="170.5" y="-245.5" font-family="Helvetica,sans-Serif" font-size="10.00"> &#45;LOG</text>
</g>
<!-- Node4 -->
<g id="node4" class="node"><title>Node4</title>
<polygon fill="white" stroke="#bfbfbf" points="165.5,-283.5 165.5,-340.5 280.5,-340.5 280.5,-283.5 165.5,-283.5"/>
<text text-anchor="middle" x="223" y="-328.5" font-family="Helvetica,sans-Serif" font-size="10.00">Map&lt; Integer, String &gt;</text>
<polyline fill="none" stroke="#bfbfbf" points="165.5,-321.5 280.5,-321.5 "/>
<text text-anchor="middle" x="223" y="-309.5" font-family="Helvetica,sans-Serif" font-size="10.00"> </text>
<polyline fill="none" stroke="#bfbfbf" points="165.5,-302.5 280.5,-302.5 "/>
<text text-anchor="middle" x="223" y="-290.5" font-family="Helvetica,sans-Serif" font-size="10.00"> </text>
</g>
<!-- Node4&#45;&gt;Node1 -->
<g id="edge3" class="edge"><title>Node4&#45;&gt;Node1</title>
<path fill="none" stroke="#404040" d="M223,-283.469C223,-270.283 223,-253.475 223,-235.575"/>
<polygon fill="none" stroke="#404040" points="223,-235.362 219,-229.362 223,-223.362 227,-229.362 223,-235.362"/>
<text text-anchor="middle" x="245" y="-245.5" font-family="Helvetica,sans-Serif" font-size="10.00"> ~roleIds_</text>
</g>
<!-- Node5 -->
<g id="node5" class="node"><title>Node5</title>
<polygon fill="white" stroke="#bfbfbf" points="298.5,-272.5 298.5,-351.5 451.5,-351.5 451.5,-272.5 298.5,-272.5"/>
<text text-anchor="start" x="306.5" y="-339.5" font-family="Helvetica,sans-Serif" font-size="10.00">final CatalogObjectCache</text>
<text text-anchor="start" x="306.5" y="-328.5" font-family="Helvetica,sans-Serif" font-size="10.00">&lt; com.cloudera.impala.catalog.</text>
<text text-anchor="middle" x="375" y="-317.5" font-family="Helvetica,sans-Serif" font-size="10.00">Role &gt;</text>
<polyline fill="none" stroke="#bfbfbf" points="298.5,-310.5 451.5,-310.5 "/>
<text text-anchor="middle" x="375" y="-298.5" font-family="Helvetica,sans-Serif" font-size="10.00"> </text>
<polyline fill="none" stroke="#bfbfbf" points="298.5,-291.5 451.5,-291.5 "/>
<text text-anchor="middle" x="375" y="-279.5" font-family="Helvetica,sans-Serif" font-size="10.00"> </text>
</g>
<!-- Node5&#45;&gt;Node1 -->
<g id="edge4" class="edge"><title>Node5&#45;&gt;Node1</title>
<path fill="none" stroke="#404040" d="M345.332,-272.354C332.933,-256.202 317.873,-236.585 302.618,-216.714"/>
<polygon fill="none" stroke="#404040" points="302.432,-216.471 295.606,-214.147 295.125,-206.952 301.952,-209.276 302.432,-216.471"/>
<text text-anchor="middle" x="359" y="-245.5" font-family="Helvetica,sans-Serif" font-size="10.00"> &#45;roleCache_</text>
</g>
<!-- Node6 -->
<g id="node6" class="node"><title>Node6</title>
<polygon fill="white" stroke="#bfbfbf" points="469.5,-283.5 469.5,-340.5 612.5,-340.5 612.5,-283.5 469.5,-283.5"/>
<text text-anchor="middle" x="541" y="-328.5" font-family="Helvetica,sans-Serif" font-size="10.00">Map&lt; String, Set&lt; String &gt; &gt;</text>
<polyline fill="none" stroke="#bfbfbf" points="469.5,-321.5 612.5,-321.5 "/>
<text text-anchor="middle" x="541" y="-309.5" font-family="Helvetica,sans-Serif" font-size="10.00"> </text>
<polyline fill="none" stroke="#bfbfbf" points="469.5,-302.5 612.5,-302.5 "/>
<text text-anchor="middle" x="541" y="-290.5" font-family="Helvetica,sans-Serif" font-size="10.00"> </text>
</g>
<!-- Node6&#45;&gt;Node1 -->
<g id="edge5" class="edge"><title>Node6&#45;&gt;Node1</title>
<path fill="none" stroke="#404040" d="M496.783,-283.469C447.498,-252.782 366.707,-202.478 305.632,-164.45"/>
<polygon fill="none" stroke="#404040" points="305.427,-164.322 298.219,-164.547 295.24,-157.98 302.448,-157.755 305.427,-164.322"/>
<text text-anchor="middle" x="488.5" y="-245.5" font-family="Helvetica,sans-Serif" font-size="10.00"> ~groupsToRoles_</text>
</g>
</g>
</svg>
