<?xml version="1.0" encoding="UTF-8" standalone="no"?>
<!DOCTYPE svg PUBLIC "-//W3C//DTD SVG 1.1//EN"
 "http://www.w3.org/Graphics/SVG/1.1/DTD/svg11.dtd">
<!-- Generated by graphviz version 2.36.0 (20140111.2315)
 -->
<!-- Title: impala::CaseExpr Pages: 1 -->
<svg width="1999pt" height="1830pt"
 viewBox="0.00 0.00 1999.00 1830.00" xmlns="http://www.w3.org/2000/svg" xmlns:xlink="http://www.w3.org/1999/xlink">
<g id="graph0" class="graph" transform="scale(1 1) rotate(0) translate(4 1826)">
<title>impala::CaseExpr</title>
<polygon fill="white" stroke="none" points="-4,4 -4,-1826 1995,-1826 1995,4 -4,4"/>
<!-- Node1 -->
<g id="node1" class="node"><title>Node1</title>
<polygon fill="#bfbfbf" stroke="black" points="1629.5,-1 1629.5,-267 1772.5,-267 1772.5,-1 1629.5,-1"/>
<text text-anchor="middle" x="1701" y="-255" font-family="Helvetica,sans-Serif" font-size="10.00">impala::CaseExpr</text>
<polyline fill="none" stroke="black" points="1629.5,-248 1772.5,-248 "/>
<text text-anchor="middle" x="1701" y="-236" font-family="Helvetica,sans-Serif" font-size="10.00"> </text>
<polyline fill="none" stroke="black" points="1629.5,-229 1772.5,-229 "/>
<text text-anchor="start" x="1637.5" y="-217" font-family="Helvetica,sans-Serif" font-size="10.00">+ GetCodegendComputeFn()</text>
<text text-anchor="start" x="1637.5" y="-206" font-family="Helvetica,sans-Serif" font-size="10.00">+ GetBooleanVal()</text>
<text text-anchor="start" x="1637.5" y="-195" font-family="Helvetica,sans-Serif" font-size="10.00">+ GetTinyIntVal()</text>
<text text-anchor="start" x="1637.5" y="-184" font-family="Helvetica,sans-Serif" font-size="10.00">+ GetSmallIntVal()</text>
<text text-anchor="start" x="1637.5" y="-173" font-family="Helvetica,sans-Serif" font-size="10.00">+ GetIntVal()</text>
<text text-anchor="start" x="1637.5" y="-162" font-family="Helvetica,sans-Serif" font-size="10.00">+ GetBigIntVal()</text>
<text text-anchor="start" x="1637.5" y="-151" font-family="Helvetica,sans-Serif" font-size="10.00">+ GetFloatVal()</text>
<text text-anchor="start" x="1637.5" y="-140" font-family="Helvetica,sans-Serif" font-size="10.00">+ GetDoubleVal()</text>
<text text-anchor="start" x="1637.5" y="-129" font-family="Helvetica,sans-Serif" font-size="10.00">+ GetStringVal()</text>
<text text-anchor="start" x="1637.5" y="-118" font-family="Helvetica,sans-Serif" font-size="10.00">+ GetTimestampVal()</text>
<text text-anchor="start" x="1637.5" y="-107" font-family="Helvetica,sans-Serif" font-size="10.00">+ GetDecimalVal()</text>
<text text-anchor="start" x="1637.5" y="-96" font-family="Helvetica,sans-Serif" font-size="10.00"># CaseExpr()</text>
<text text-anchor="start" x="1637.5" y="-85" font-family="Helvetica,sans-Serif" font-size="10.00"># Prepare()</text>
<text text-anchor="start" x="1637.5" y="-74" font-family="Helvetica,sans-Serif" font-size="10.00"># Open()</text>
<text text-anchor="start" x="1637.5" y="-63" font-family="Helvetica,sans-Serif" font-size="10.00"># Close()</text>
<text text-anchor="start" x="1637.5" y="-52" font-family="Helvetica,sans-Serif" font-size="10.00"># DebugString()</text>
<text text-anchor="start" x="1637.5" y="-41" font-family="Helvetica,sans-Serif" font-size="10.00"># has_case_expr()</text>
<text text-anchor="start" x="1637.5" y="-30" font-family="Helvetica,sans-Serif" font-size="10.00"># has_else_expr()</text>
<text text-anchor="start" x="1637.5" y="-19" font-family="Helvetica,sans-Serif" font-size="10.00">&#45; GetChildVal()</text>
<text text-anchor="start" x="1637.5" y="-8" font-family="Helvetica,sans-Serif" font-size="10.00">&#45; AnyValEq()</text>
</g>
<!-- Node2 -->
<g id="node2" class="node"><title>Node2</title>
<g id="a_node2"><a xlink:href="classimpala_1_1Expr.html" target="_top" xlink:title="This is the superclass of all expr evaluation nodes. ">
<polygon fill="white" stroke="black" points="1276.5,-307 1276.5,-859 1455.5,-859 1455.5,-307 1276.5,-307"/>
<text text-anchor="middle" x="1366" y="-847" font-family="Helvetica,sans-Serif" font-size="10.00">impala::Expr</text>
<polyline fill="none" stroke="black" points="1276.5,-840 1455.5,-840 "/>
<text text-anchor="middle" x="1366" y="-828" font-family="Helvetica,sans-Serif" font-size="10.00"> </text>
<polyline fill="none" stroke="black" points="1276.5,-821 1455.5,-821 "/>
<text text-anchor="start" x="1284.5" y="-809" font-family="Helvetica,sans-Serif" font-size="10.00">+ ~Expr()</text>
<text text-anchor="start" x="1284.5" y="-798" font-family="Helvetica,sans-Serif" font-size="10.00">+ GetBooleanVal()</text>
<text text-anchor="start" x="1284.5" y="-787" font-family="Helvetica,sans-Serif" font-size="10.00">+ GetTinyIntVal()</text>
<text text-anchor="start" x="1284.5" y="-776" font-family="Helvetica,sans-Serif" font-size="10.00">+ GetSmallIntVal()</text>
<text text-anchor="start" x="1284.5" y="-765" font-family="Helvetica,sans-Serif" font-size="10.00">+ GetIntVal()</text>
<text text-anchor="start" x="1284.5" y="-754" font-family="Helvetica,sans-Serif" font-size="10.00">+ GetBigIntVal()</text>
<text text-anchor="start" x="1284.5" y="-743" font-family="Helvetica,sans-Serif" font-size="10.00">+ GetFloatVal()</text>
<text text-anchor="start" x="1284.5" y="-732" font-family="Helvetica,sans-Serif" font-size="10.00">+ GetDoubleVal()</text>
<text text-anchor="start" x="1284.5" y="-721" font-family="Helvetica,sans-Serif" font-size="10.00">+ GetStringVal()</text>
<text text-anchor="start" x="1284.5" y="-710" font-family="Helvetica,sans-Serif" font-size="10.00">+ GetTimestampVal()</text>
<text text-anchor="start" x="1284.5" y="-699" font-family="Helvetica,sans-Serif" font-size="10.00">and 13 more...</text>
<text text-anchor="start" x="1284.5" y="-688" font-family="Helvetica,sans-Serif" font-size="10.00">+ CreateExprTree()</text>
<text text-anchor="start" x="1284.5" y="-677" font-family="Helvetica,sans-Serif" font-size="10.00">+ CreateExprTrees()</text>
<text text-anchor="start" x="1284.5" y="-666" font-family="Helvetica,sans-Serif" font-size="10.00">+ Prepare()</text>
<text text-anchor="start" x="1284.5" y="-655" font-family="Helvetica,sans-Serif" font-size="10.00">+ Open()</text>
<text text-anchor="start" x="1284.5" y="-644" font-family="Helvetica,sans-Serif" font-size="10.00">+ Clone()</text>
<text text-anchor="start" x="1284.5" y="-633" font-family="Helvetica,sans-Serif" font-size="10.00">+ Close()</text>
<text text-anchor="start" x="1284.5" y="-622" font-family="Helvetica,sans-Serif" font-size="10.00">+ CreateLiteral()</text>
<text text-anchor="start" x="1284.5" y="-611" font-family="Helvetica,sans-Serif" font-size="10.00">+ CreateLiteral()</text>
<text text-anchor="start" x="1284.5" y="-600" font-family="Helvetica,sans-Serif" font-size="10.00">+ ComputeResultsLayout()</text>
<text text-anchor="start" x="1284.5" y="-589" font-family="Helvetica,sans-Serif" font-size="10.00">+ ComputeResultsLayout()</text>
<text text-anchor="start" x="1284.5" y="-578" font-family="Helvetica,sans-Serif" font-size="10.00">+ DebugString()</text>
<text text-anchor="start" x="1284.5" y="-567" font-family="Helvetica,sans-Serif" font-size="10.00">+ DebugString()</text>
<text text-anchor="start" x="1284.5" y="-556" font-family="Helvetica,sans-Serif" font-size="10.00">+ InitBuiltinsDummy()</text>
<text text-anchor="start" x="1284.5" y="-545" font-family="Helvetica,sans-Serif" font-size="10.00"># Expr()</text>
<text text-anchor="start" x="1284.5" y="-534" font-family="Helvetica,sans-Serif" font-size="10.00"># Expr()</text>
<text text-anchor="start" x="1284.5" y="-523" font-family="Helvetica,sans-Serif" font-size="10.00"># Prepare()</text>
<text text-anchor="start" x="1284.5" y="-512" font-family="Helvetica,sans-Serif" font-size="10.00"># Open()</text>
<text text-anchor="start" x="1284.5" y="-501" font-family="Helvetica,sans-Serif" font-size="10.00"># Close()</text>
<text text-anchor="start" x="1284.5" y="-490" font-family="Helvetica,sans-Serif" font-size="10.00"># RegisterFunctionContext()</text>
<text text-anchor="start" x="1284.5" y="-479" font-family="Helvetica,sans-Serif" font-size="10.00"># CreateIrFunctionPrototype()</text>
<text text-anchor="start" x="1284.5" y="-468" font-family="Helvetica,sans-Serif" font-size="10.00"># GetCodegendComputeFnWrapper()</text>
<text text-anchor="start" x="1284.5" y="-457" font-family="Helvetica,sans-Serif" font-size="10.00"># GetStaticGetValWrapper()</text>
<text text-anchor="start" x="1284.5" y="-446" font-family="Helvetica,sans-Serif" font-size="10.00"># DebugString()</text>
<text text-anchor="start" x="1284.5" y="-435" font-family="Helvetica,sans-Serif" font-size="10.00">&#45; CreateExpr()</text>
<text text-anchor="start" x="1284.5" y="-424" font-family="Helvetica,sans-Serif" font-size="10.00">&#45; CreateTreeFromThrift()</text>
<text text-anchor="start" x="1284.5" y="-413" font-family="Helvetica,sans-Serif" font-size="10.00">&#45; GetBooleanVal()</text>
<text text-anchor="start" x="1284.5" y="-402" font-family="Helvetica,sans-Serif" font-size="10.00">&#45; GetTinyIntVal()</text>
<text text-anchor="start" x="1284.5" y="-391" font-family="Helvetica,sans-Serif" font-size="10.00">&#45; GetSmallIntVal()</text>
<text text-anchor="start" x="1284.5" y="-380" font-family="Helvetica,sans-Serif" font-size="10.00">&#45; GetIntVal()</text>
<text text-anchor="start" x="1284.5" y="-369" font-family="Helvetica,sans-Serif" font-size="10.00">&#45; GetBigIntVal()</text>
<text text-anchor="start" x="1284.5" y="-358" font-family="Helvetica,sans-Serif" font-size="10.00">&#45; GetFloatVal()</text>
<text text-anchor="start" x="1284.5" y="-347" font-family="Helvetica,sans-Serif" font-size="10.00">&#45; GetDoubleVal()</text>
<text text-anchor="start" x="1284.5" y="-336" font-family="Helvetica,sans-Serif" font-size="10.00">&#45; GetStringVal()</text>
<text text-anchor="start" x="1284.5" y="-325" font-family="Helvetica,sans-Serif" font-size="10.00">&#45; GetTimestampVal()</text>
<text text-anchor="start" x="1284.5" y="-314" font-family="Helvetica,sans-Serif" font-size="10.00">&#45; GetDecimalVal()</text>
</a>
</g>
</g>
<!-- Node2&#45;&gt;Node1 -->
<g id="edge1" class="edge"><title>Node2&#45;&gt;Node1</title>
<path fill="none" stroke="midnightblue" d="M1461.67,-454.34C1515.08,-383.072 1580.52,-295.766 1629.46,-230.464"/>
<polygon fill="none" stroke="midnightblue" points="1458.75,-452.405 1455.55,-462.506 1464.35,-456.603 1458.75,-452.405"/>
</g>
<!-- Node3 -->
<g id="node3" class="node"><title>Node3</title>
<g id="a_node3"><a xlink:href="structLibCache_1_1LibCacheEntry.html" target="_top" xlink:title="{impala::LibCache::LibCache\lEntry\n||+ LibCacheEntry()\l+ ~LibCacheEntry()\l}">
<polygon fill="white" stroke="black" points="487,-984.5 487,-1063.5 627,-1063.5 627,-984.5 487,-984.5"/>
<text text-anchor="start" x="495" y="-1051.5" font-family="Helvetica,sans-Serif" font-size="10.00">impala::LibCache::LibCache</text>
<text text-anchor="middle" x="557" y="-1040.5" font-family="Helvetica,sans-Serif" font-size="10.00">Entry</text>
<polyline fill="none" stroke="black" points="487,-1033.5 627,-1033.5 "/>
<text text-anchor="middle" x="557" y="-1021.5" font-family="Helvetica,sans-Serif" font-size="10.00"> </text>
<polyline fill="none" stroke="black" points="487,-1014.5 627,-1014.5 "/>
<text text-anchor="start" x="495" y="-1002.5" font-family="Helvetica,sans-Serif" font-size="10.00">+ LibCacheEntry()</text>
<text text-anchor="start" x="495" y="-991.5" font-family="Helvetica,sans-Serif" font-size="10.00">+ ~LibCacheEntry()</text>
</a>
</g>
</g>
<!-- Node3&#45;&gt;Node2 -->
<g id="edge2" class="edge"><title>Node3&#45;&gt;Node2</title>
<path fill="none" stroke="#404040" d="M627.026,-985.001C770.694,-907.04 1099.21,-728.77 1265.55,-638.509"/>
<polygon fill="none" stroke="#404040" points="1265.72,-638.416 1269.09,-632.038 1276.27,-632.692 1272.9,-639.07 1265.72,-638.416"/>
<text text-anchor="middle" x="852.5" y="-886.5" font-family="Helvetica,sans-Serif" font-size="10.00"> #cache_entry_</text>
</g>
<!-- Node4 -->
<g id="node4" class="node"><title>Node4</title>
<g id="a_node4"><a xlink:href="classimpala_1_1Status.html" target="_top" xlink:title="{impala::Status\n||+ Status()\l+ Status()\l+ Status()\l+ Status()\l+ Status()\l+ Status()\l+ Status()\l+ Status()\l+ Status()\l+ Status()\land 23 more...\l+ Expected()\l&#45; Status()\l}">
<polygon fill="white" stroke="black" points="24,-1298.5 24,-1487.5 104,-1487.5 104,-1298.5 24,-1298.5"/>
<text text-anchor="middle" x="64" y="-1475.5" font-family="Helvetica,sans-Serif" font-size="10.00">impala::Status</text>
<polyline fill="none" stroke="black" points="24,-1468.5 104,-1468.5 "/>
<text text-anchor="middle" x="64" y="-1456.5" font-family="Helvetica,sans-Serif" font-size="10.00"> </text>
<polyline fill="none" stroke="black" points="24,-1449.5 104,-1449.5 "/>
<text text-anchor="start" x="32" y="-1437.5" font-family="Helvetica,sans-Serif" font-size="10.00">+ Status()</text>
<text text-anchor="start" x="32" y="-1426.5" font-family="Helvetica,sans-Serif" font-size="10.00">+ Status()</text>
<text text-anchor="start" x="32" y="-1415.5" font-family="Helvetica,sans-Serif" font-size="10.00">+ Status()</text>
<text text-anchor="start" x="32" y="-1404.5" font-family="Helvetica,sans-Serif" font-size="10.00">+ Status()</text>
<text text-anchor="start" x="32" y="-1393.5" font-family="Helvetica,sans-Serif" font-size="10.00">+ Status()</text>
<text text-anchor="start" x="32" y="-1382.5" font-family="Helvetica,sans-Serif" font-size="10.00">+ Status()</text>
<text text-anchor="start" x="32" y="-1371.5" font-family="Helvetica,sans-Serif" font-size="10.00">+ Status()</text>
<text text-anchor="start" x="32" y="-1360.5" font-family="Helvetica,sans-Serif" font-size="10.00">+ Status()</text>
<text text-anchor="start" x="32" y="-1349.5" font-family="Helvetica,sans-Serif" font-size="10.00">+ Status()</text>
<text text-anchor="start" x="32" y="-1338.5" font-family="Helvetica,sans-Serif" font-size="10.00">+ Status()</text>
<text text-anchor="start" x="32" y="-1327.5" font-family="Helvetica,sans-Serif" font-size="10.00">and 23 more...</text>
<text text-anchor="start" x="32" y="-1316.5" font-family="Helvetica,sans-Serif" font-size="10.00">+ Expected()</text>
<text text-anchor="start" x="32" y="-1305.5" font-family="Helvetica,sans-Serif" font-size="10.00">&#45; Status()</text>
</a>
</g>
</g>
<!-- Node4&#45;&gt;Node3 -->
<g id="edge3" class="edge"><title>Node4&#45;&gt;Node3</title>
<path fill="none" stroke="#404040" d="M88.7054,-1298.23C106.478,-1247.45 135.351,-1187.25 180,-1148 263.532,-1074.56 391.776,-1044.83 475.032,-1032.88"/>
<polygon fill="none" stroke="#404040" points="475.089,-1032.88 480.491,-1028.1 486.978,-1031.25 481.577,-1036.02 475.089,-1032.88"/>
<text text-anchor="middle" x="219" y="-1217" font-family="Helvetica,sans-Serif" font-size="10.00"> +loading_status</text>
<text text-anchor="middle" x="219" y="-1206" font-family="Helvetica,sans-Serif" font-size="10.00">+copy_file_status</text>
</g>
<!-- Node4&#45;&gt;Node4 -->
<g id="edge8" class="edge"><title>Node4&#45;&gt;Node4</title>
<path fill="none" stroke="#404040" d="M104.119,-1414.86C114.332,-1413.42 122,-1406.14 122,-1393 122,-1385.41 119.437,-1379.77 115.301,-1376.08"/>
<polygon fill="none" stroke="#404040" points="115.095,-1375.99 107.99,-1377.22 104.119,-1371.14 111.223,-1369.91 115.095,-1375.99"/>
<text text-anchor="middle" x="183" y="-1407" font-family="Helvetica,sans-Serif" font-size="10.00"> +CANCELLED</text>
<text text-anchor="middle" x="183" y="-1396" font-family="Helvetica,sans-Serif" font-size="10.00">+OK</text>
<text text-anchor="middle" x="183" y="-1385" font-family="Helvetica,sans-Serif" font-size="10.00">+MEM_LIMIT_EXCEEDED</text>
<text text-anchor="middle" x="183" y="-1374" font-family="Helvetica,sans-Serif" font-size="10.00">+DEPRECATED_RPC</text>
</g>
<!-- Node5 -->
<g id="node5" class="node"><title>Node5</title>
<g id="a_node5"><a xlink:href="classimpala_1_1ErrorMsg.html" target="_top" xlink:title="{impala::ErrorMsg\n||+ ErrorMsg()\l+ ErrorMsg()\l+ ErrorMsg()\l+ ErrorMsg()\l+ ErrorMsg()\l+ ErrorMsg()\l+ ErrorMsg()\l+ ErrorMsg()\l+ ErrorMsg()\l+ ErrorMsg()\land 9 more...\l+ Init()\l}">
<polygon fill="white" stroke="black" points="83.5,-1537 83.5,-1715 174.5,-1715 174.5,-1537 83.5,-1537"/>
<text text-anchor="middle" x="129" y="-1703" font-family="Helvetica,sans-Serif" font-size="10.00">impala::ErrorMsg</text>
<polyline fill="none" stroke="black" points="83.5,-1696 174.5,-1696 "/>
<text text-anchor="middle" x="129" y="-1684" font-family="Helvetica,sans-Serif" font-size="10.00"> </text>
<polyline fill="none" stroke="black" points="83.5,-1677 174.5,-1677 "/>
<text text-anchor="start" x="91.5" y="-1665" font-family="Helvetica,sans-Serif" font-size="10.00">+ ErrorMsg()</text>
<text text-anchor="start" x="91.5" y="-1654" font-family="Helvetica,sans-Serif" font-size="10.00">+ ErrorMsg()</text>
<text text-anchor="start" x="91.5" y="-1643" font-family="Helvetica,sans-Serif" font-size="10.00">+ ErrorMsg()</text>
<text text-anchor="start" x="91.5" y="-1632" font-family="Helvetica,sans-Serif" font-size="10.00">+ ErrorMsg()</text>
<text text-anchor="start" x="91.5" y="-1621" font-family="Helvetica,sans-Serif" font-size="10.00">+ ErrorMsg()</text>
<text text-anchor="start" x="91.5" y="-1610" font-family="Helvetica,sans-Serif" font-size="10.00">+ ErrorMsg()</text>
<text text-anchor="start" x="91.5" y="-1599" font-family="Helvetica,sans-Serif" font-size="10.00">+ ErrorMsg()</text>
<text text-anchor="start" x="91.5" y="-1588" font-family="Helvetica,sans-Serif" font-size="10.00">+ ErrorMsg()</text>
<text text-anchor="start" x="91.5" y="-1577" font-family="Helvetica,sans-Serif" font-size="10.00">+ ErrorMsg()</text>
<text text-anchor="start" x="91.5" y="-1566" font-family="Helvetica,sans-Serif" font-size="10.00">+ ErrorMsg()</text>
<text text-anchor="start" x="91.5" y="-1555" font-family="Helvetica,sans-Serif" font-size="10.00">and 9 more...</text>
<text text-anchor="start" x="91.5" y="-1544" font-family="Helvetica,sans-Serif" font-size="10.00">+ Init()</text>
</a>
</g>
</g>
<!-- Node5&#45;&gt;Node4 -->
<g id="edge4" class="edge"><title>Node5&#45;&gt;Node4</title>
<path fill="none" stroke="#404040" d="M104.148,-1536.68C100.726,-1524.52 97.1839,-1511.93 93.6857,-1499.5"/>
<polygon fill="none" stroke="#404040" points="93.601,-1499.2 88.1253,-1494.5 90.3505,-1487.65 95.8262,-1492.34 93.601,-1499.2"/>
<text text-anchor="middle" x="114.5" y="-1509.5" font-family="Helvetica,sans-Serif" font-size="10.00"> &#45;msg_</text>
</g>
<!-- Node6 -->
<g id="node6" class="node"><title>Node6</title>
<polygon fill="white" stroke="#bfbfbf" points="-0.5,-1764.5 -0.5,-1821.5 104.5,-1821.5 104.5,-1764.5 -0.5,-1764.5"/>
<text text-anchor="middle" x="52" y="-1809.5" font-family="Helvetica,sans-Serif" font-size="10.00">vector&lt; std::string &gt;</text>
<polyline fill="none" stroke="#bfbfbf" points="-0.5,-1802.5 104.5,-1802.5 "/>
<text text-anchor="middle" x="52" y="-1790.5" font-family="Helvetica,sans-Serif" font-size="10.00"> </text>
<polyline fill="none" stroke="#bfbfbf" points="-0.5,-1783.5 104.5,-1783.5 "/>
<text text-anchor="middle" x="52" y="-1771.5" font-family="Helvetica,sans-Serif" font-size="10.00"> </text>
</g>
<!-- Node6&#45;&gt;Node5 -->
<g id="edge5" class="edge"><title>Node6&#45;&gt;Node5</title>
<path fill="none" stroke="#404040" d="M64.8881,-1764.38C69.9553,-1753.52 76.1059,-1740.34 82.5682,-1726.5"/>
<polygon fill="none" stroke="#404040" points="82.7282,-1726.15 81.6408,-1719.03 87.8029,-1715.28 88.8903,-1722.41 82.7282,-1726.15"/>
<text text-anchor="middle" x="97" y="-1737.5" font-family="Helvetica,sans-Serif" font-size="10.00"> &#45;details_</text>
</g>
<!-- Node7 -->
<g id="node7" class="node"><title>Node7</title>
<polygon fill="white" stroke="#bfbfbf" points="122.5,-1764.5 122.5,-1821.5 157.5,-1821.5 157.5,-1764.5 122.5,-1764.5"/>
<text text-anchor="middle" x="140" y="-1809.5" font-family="Helvetica,sans-Serif" font-size="10.00">type</text>
<polyline fill="none" stroke="#bfbfbf" points="122.5,-1802.5 157.5,-1802.5 "/>
<text text-anchor="middle" x="140" y="-1790.5" font-family="Helvetica,sans-Serif" font-size="10.00"> </text>
<polyline fill="none" stroke="#bfbfbf" points="122.5,-1783.5 157.5,-1783.5 "/>
<text text-anchor="middle" x="140" y="-1771.5" font-family="Helvetica,sans-Serif" font-size="10.00"> </text>
</g>
<!-- Node7&#45;&gt;Node5 -->
<g id="edge6" class="edge"><title>Node7&#45;&gt;Node5</title>
<path fill="none" stroke="#404040" d="M138.159,-1764.38C137.449,-1753.74 136.591,-1740.87 135.688,-1727.32"/>
<polygon fill="none" stroke="#404040" points="135.684,-1727.25 131.293,-1721.53 134.885,-1715.28 139.276,-1721 135.684,-1727.25"/>
<text text-anchor="middle" x="152.5" y="-1737.5" font-family="Helvetica,sans-Serif" font-size="10.00"> &#45;error_</text>
</g>
<!-- Node8 -->
<g id="node8" class="node"><title>Node8</title>
<polygon fill="white" stroke="#bfbfbf" points="213.5,-1764.5 213.5,-1821.5 254.5,-1821.5 254.5,-1764.5 213.5,-1764.5"/>
<text text-anchor="middle" x="234" y="-1809.5" font-family="Helvetica,sans-Serif" font-size="10.00">string</text>
<polyline fill="none" stroke="#bfbfbf" points="213.5,-1802.5 254.5,-1802.5 "/>
<text text-anchor="middle" x="234" y="-1790.5" font-family="Helvetica,sans-Serif" font-size="10.00"> </text>
<polyline fill="none" stroke="#bfbfbf" points="213.5,-1783.5 254.5,-1783.5 "/>
<text text-anchor="middle" x="234" y="-1771.5" font-family="Helvetica,sans-Serif" font-size="10.00"> </text>
</g>
<!-- Node8&#45;&gt;Node3 -->
<g id="edge14" class="edge"><title>Node8&#45;&gt;Node3</title>
<path fill="none" stroke="#404040" d="M250.865,-1764.04C253.698,-1758.25 256.274,-1752.06 258,-1746 294.521,-1617.64 234.946,-1256.24 313,-1148 351.727,-1094.3 420.754,-1062.59 475.53,-1044.86"/>
<polygon fill="none" stroke="#404040" points="475.531,-1044.86 480.068,-1039.25 486.987,-1041.28 482.45,-1046.89 475.531,-1044.86"/>
<text text-anchor="middle" x="298" y="-1509.5" font-family="Helvetica,sans-Serif" font-size="10.00"> +local_path</text>
</g>
<!-- Node8&#45;&gt;Node5 -->
<g id="edge7" class="edge"><title>Node8&#45;&gt;Node5</title>
<path fill="none" stroke="#404040" d="M216.425,-1764.38C206.681,-1749.07 194,-1729.14 181.331,-1709.23"/>
<polygon fill="none" stroke="#404040" points="181.165,-1708.97 174.569,-1706.06 174.723,-1698.85 181.319,-1701.76 181.165,-1708.97"/>
<text text-anchor="middle" x="229" y="-1737.5" font-family="Helvetica,sans-Serif" font-size="10.00"> &#45;message_</text>
</g>
<!-- Node9 -->
<g id="node9" class="node"><title>Node9</title>
<polygon fill="white" stroke="#bfbfbf" points="300.5,-1364.5 300.5,-1421.5 351.5,-1421.5 351.5,-1364.5 300.5,-1364.5"/>
<text text-anchor="middle" x="326" y="-1409.5" font-family="Helvetica,sans-Serif" font-size="10.00">LibType</text>
<polyline fill="none" stroke="#bfbfbf" points="300.5,-1402.5 351.5,-1402.5 "/>
<text text-anchor="middle" x="326" y="-1390.5" font-family="Helvetica,sans-Serif" font-size="10.00"> </text>
<polyline fill="none" stroke="#bfbfbf" points="300.5,-1383.5 351.5,-1383.5 "/>
<text text-anchor="middle" x="326" y="-1371.5" font-family="Helvetica,sans-Serif" font-size="10.00"> </text>
</g>
<!-- Node9&#45;&gt;Node3 -->
<g id="edge9" class="edge"><title>Node9&#45;&gt;Node3</title>
<path fill="none" stroke="#404040" d="M321.147,-1364.18C314.285,-1316 306.949,-1215.71 350,-1148 378.845,-1102.63 430.947,-1071.81 475.66,-1052.36"/>
<polygon fill="none" stroke="#404040" points="475.787,-1052.31 479.769,-1046.3 486.85,-1047.66 482.868,-1053.67 475.787,-1052.31"/>
<text text-anchor="middle" x="364" y="-1211.5" font-family="Helvetica,sans-Serif" font-size="10.00"> +type</text>
</g>
<!-- Node10 -->
<g id="node10" class="node"><title>Node10</title>
<polygon fill="white" stroke="#bfbfbf" points="370,-1364.5 370,-1421.5 414,-1421.5 414,-1364.5 370,-1364.5"/>
<text text-anchor="middle" x="392" y="-1409.5" font-family="Helvetica,sans-Serif" font-size="10.00">time_t</text>
<polyline fill="none" stroke="#bfbfbf" points="370,-1402.5 414,-1402.5 "/>
<text text-anchor="middle" x="392" y="-1390.5" font-family="Helvetica,sans-Serif" font-size="10.00"> </text>
<polyline fill="none" stroke="#bfbfbf" points="370,-1383.5 414,-1383.5 "/>
<text text-anchor="middle" x="392" y="-1371.5" font-family="Helvetica,sans-Serif" font-size="10.00"> </text>
</g>
<!-- Node10&#45;&gt;Node3 -->
<g id="edge10" class="edge"><title>Node10&#45;&gt;Node3</title>
<path fill="none" stroke="#404040" d="M387.202,-1364.16C380.452,-1316.81 372.695,-1218.86 409,-1148 424.874,-1117.02 452.347,-1090.88 479.346,-1070.77"/>
<polygon fill="none" stroke="#404040" points="479.511,-1070.65 482.042,-1063.9 489.249,-1063.64 486.718,-1070.39 479.511,-1070.65"/>
<text text-anchor="middle" x="445.5" y="-1211.5" font-family="Helvetica,sans-Serif" font-size="10.00"> +last_mod_time</text>
</g>
<!-- Node11 -->
<g id="node11" class="node"><title>Node11</title>
<polygon fill="white" stroke="#bfbfbf" points="432.5,-1359 432.5,-1427 533.5,-1427 533.5,-1359 432.5,-1359"/>
<text text-anchor="start" x="440.5" y="-1415" font-family="Helvetica,sans-Serif" font-size="10.00">unordered_set&lt; std</text>
<text text-anchor="middle" x="483" y="-1404" font-family="Helvetica,sans-Serif" font-size="10.00">::string &gt;</text>
<polyline fill="none" stroke="#bfbfbf" points="432.5,-1397 533.5,-1397 "/>
<text text-anchor="middle" x="483" y="-1385" font-family="Helvetica,sans-Serif" font-size="10.00"> </text>
<polyline fill="none" stroke="#bfbfbf" points="432.5,-1378 533.5,-1378 "/>
<text text-anchor="middle" x="483" y="-1366" font-family="Helvetica,sans-Serif" font-size="10.00"> </text>
</g>
<!-- Node11&#45;&gt;Node3 -->
<g id="edge11" class="edge"><title>Node11&#45;&gt;Node3</title>
<path fill="none" stroke="#404040" d="M482.766,-1358.7C483.157,-1311.22 486.589,-1221.66 505,-1148 511.248,-1123 521.87,-1096.53 531.892,-1074.57"/>
<polygon fill="none" stroke="#404040" points="531.97,-1074.41 530.887,-1067.28 537.052,-1063.54 538.135,-1070.67 531.97,-1074.41"/>
<text text-anchor="middle" x="528" y="-1211.5" font-family="Helvetica,sans-Serif" font-size="10.00"> +symbols</text>
</g>
<!-- Node12 -->
<g id="node12" class="node"><title>Node12</title>
<polygon fill="white" stroke="#bfbfbf" points="552,-1364.5 552,-1421.5 596,-1421.5 596,-1364.5 552,-1364.5"/>
<text text-anchor="middle" x="574" y="-1409.5" font-family="Helvetica,sans-Serif" font-size="10.00">mutex</text>
<polyline fill="none" stroke="#bfbfbf" points="552,-1402.5 596,-1402.5 "/>
<text text-anchor="middle" x="574" y="-1390.5" font-family="Helvetica,sans-Serif" font-size="10.00"> </text>
<polyline fill="none" stroke="#bfbfbf" points="552,-1383.5 596,-1383.5 "/>
<text text-anchor="middle" x="574" y="-1371.5" font-family="Helvetica,sans-Serif" font-size="10.00"> </text>
</g>
<!-- Node12&#45;&gt;Node3 -->
<g id="edge12" class="edge"><title>Node12&#45;&gt;Node3</title>
<path fill="none" stroke="#404040" d="M568.99,-1364.5C565.134,-1341.9 560.118,-1308.99 558,-1280 552.831,-1209.23 553.743,-1127.12 555.147,-1075.61"/>
<polygon fill="none" stroke="#404040" points="555.15,-1075.51 551.327,-1069.39 555.501,-1063.51 559.324,-1069.63 555.15,-1075.51"/>
<text text-anchor="middle" x="572" y="-1211.5" font-family="Helvetica,sans-Serif" font-size="10.00"> +lock</text>
</g>
<!-- Node13 -->
<g id="node13" class="node"><title>Node13</title>
<polygon fill="white" stroke="#bfbfbf" points="1009.5,-1364.5 1009.5,-1421.5 1038.5,-1421.5 1038.5,-1364.5 1009.5,-1364.5"/>
<text text-anchor="middle" x="1024" y="-1409.5" font-family="Helvetica,sans-Serif" font-size="10.00">int</text>
<polyline fill="none" stroke="#bfbfbf" points="1009.5,-1402.5 1038.5,-1402.5 "/>
<text text-anchor="middle" x="1024" y="-1390.5" font-family="Helvetica,sans-Serif" font-size="10.00"> </text>
<polyline fill="none" stroke="#bfbfbf" points="1009.5,-1383.5 1038.5,-1383.5 "/>
<text text-anchor="middle" x="1024" y="-1371.5" font-family="Helvetica,sans-Serif" font-size="10.00"> </text>
</g>
<!-- Node13&#45;&gt;Node2 -->
<g id="edge25" class="edge"><title>Node13&#45;&gt;Node2</title>
<path fill="none" stroke="#404040" d="M1022.01,-1364.46C1016,-1275.82 1000.54,-999.053 1035,-918 1082.71,-805.788 1187.43,-710.819 1266.38,-651.17"/>
<polygon fill="none" stroke="#404040" points="1266.75,-650.894 1269.17,-644.098 1276.37,-643.711 1273.95,-650.507 1266.75,-650.894"/>
<text text-anchor="middle" x="1072.5" y="-1027" font-family="Helvetica,sans-Serif" font-size="10.00"> #context_index_</text>
<text text-anchor="middle" x="1072.5" y="-1016" font-family="Helvetica,sans-Serif" font-size="10.00">#output_scale_</text>
</g>
<!-- Node13&#45;&gt;Node3 -->
<g id="edge13" class="edge"><title>Node13&#45;&gt;Node3</title>
<path fill="none" stroke="#404040" d="M1009.29,-1388.09C972.648,-1377.54 877.055,-1344.79 832,-1280 798.002,-1231.11 844.783,-1195.6 809,-1148 767.761,-1093.14 695.523,-1061.4 638.933,-1043.96"/>
<polygon fill="none" stroke="#404040" points="638.615,-1043.86 631.725,-1045.99 627.111,-1040.45 634.002,-1038.32 638.615,-1043.86"/>
<text text-anchor="middle" x="859.5" y="-1211.5" font-family="Helvetica,sans-Serif" font-size="10.00"> +use_count</text>
</g>
<!-- Node17 -->
<g id="node17" class="node"><title>Node17</title>
<g id="a_node17"><a xlink:href="structimpala_1_1ColumnType.html" target="_top" xlink:title="{impala::ColumnType\n||+ ColumnType()\l+ ColumnType()\l+ operator==()\l+ operator!=()\l+ ToThrift()\l+ IsStringType()\l+ IsVarLen()\l+ GetByteSize()\l+ GetSlotSize()\l+ ToHs2Type()\l+ DebugString()\l+ CreateCharType()\l+ CreateVarcharType()\l+ CreateDecimalType()\l+ GetDecimalByteSize()\l}">
<polygon fill="white" stroke="black" points="1207.5,-918.5 1207.5,-1129.5 1330.5,-1129.5 1330.5,-918.5 1207.5,-918.5"/>
<text text-anchor="middle" x="1269" y="-1117.5" font-family="Helvetica,sans-Serif" font-size="10.00">impala::ColumnType</text>
<polyline fill="none" stroke="black" points="1207.5,-1110.5 1330.5,-1110.5 "/>
<text text-anchor="middle" x="1269" y="-1098.5" font-family="Helvetica,sans-Serif" font-size="10.00"> </text>
<polyline fill="none" stroke="black" points="1207.5,-1091.5 1330.5,-1091.5 "/>
<text text-anchor="start" x="1215.5" y="-1079.5" font-family="Helvetica,sans-Serif" font-size="10.00">+ ColumnType()</text>
<text text-anchor="start" x="1215.5" y="-1068.5" font-family="Helvetica,sans-Serif" font-size="10.00">+ ColumnType()</text>
<text text-anchor="start" x="1215.5" y="-1057.5" font-family="Helvetica,sans-Serif" font-size="10.00">+ operator==()</text>
<text text-anchor="start" x="1215.5" y="-1046.5" font-family="Helvetica,sans-Serif" font-size="10.00">+ operator!=()</text>
<text text-anchor="start" x="1215.5" y="-1035.5" font-family="Helvetica,sans-Serif" font-size="10.00">+ ToThrift()</text>
<text text-anchor="start" x="1215.5" y="-1024.5" font-family="Helvetica,sans-Serif" font-size="10.00">+ IsStringType()</text>
<text text-anchor="start" x="1215.5" y="-1013.5" font-family="Helvetica,sans-Serif" font-size="10.00">+ IsVarLen()</text>
<text text-anchor="start" x="1215.5" y="-1002.5" font-family="Helvetica,sans-Serif" font-size="10.00">+ GetByteSize()</text>
<text text-anchor="start" x="1215.5" y="-991.5" font-family="Helvetica,sans-Serif" font-size="10.00">+ GetSlotSize()</text>
<text text-anchor="start" x="1215.5" y="-980.5" font-family="Helvetica,sans-Serif" font-size="10.00">+ ToHs2Type()</text>
<text text-anchor="start" x="1215.5" y="-969.5" font-family="Helvetica,sans-Serif" font-size="10.00">+ DebugString()</text>
<text text-anchor="start" x="1215.5" y="-958.5" font-family="Helvetica,sans-Serif" font-size="10.00">+ CreateCharType()</text>
<text text-anchor="start" x="1215.5" y="-947.5" font-family="Helvetica,sans-Serif" font-size="10.00">+ CreateVarcharType()</text>
<text text-anchor="start" x="1215.5" y="-936.5" font-family="Helvetica,sans-Serif" font-size="10.00">+ CreateDecimalType()</text>
<text text-anchor="start" x="1215.5" y="-925.5" font-family="Helvetica,sans-Serif" font-size="10.00">+ GetDecimalByteSize()</text>
</a>
</g>
</g>
<!-- Node13&#45;&gt;Node17 -->
<g id="edge19" class="edge"><title>Node13&#45;&gt;Node17</title>
<path fill="none" stroke="#404040" d="M1034.8,-1364.36C1054.74,-1316.02 1101.18,-1214.91 1165,-1148 1175.21,-1137.29 1182.25,-1140.17 1193,-1130 1194.99,-1128.11 1196.97,-1126.17 1198.92,-1124.18"/>
<polygon fill="none" stroke="#404040" points="1199.16,-1123.93 1200.33,-1116.81 1207.35,-1115.16 1206.18,-1122.28 1199.16,-1123.93"/>
<text text-anchor="middle" x="1237.5" y="-1272" font-family="Helvetica,sans-Serif" font-size="10.00"> +precision</text>
<text text-anchor="middle" x="1237.5" y="-1261" font-family="Helvetica,sans-Serif" font-size="10.00">+MAX_CHAR_LENGTH</text>
<text text-anchor="start" x="1165" y="-1250" font-family="Helvetica,sans-Serif" font-size="10.00">+MAX_CHAR_INLINE</text>
<text text-anchor="middle" x="1237.5" y="-1239" font-family="Helvetica,sans-Serif" font-size="10.00">_LENGTH</text>
<text text-anchor="middle" x="1237.5" y="-1228" font-family="Helvetica,sans-Serif" font-size="10.00">+MAX_VARCHAR_LENGTH</text>
<text text-anchor="middle" x="1237.5" y="-1217" font-family="Helvetica,sans-Serif" font-size="10.00">+len</text>
<text text-anchor="middle" x="1237.5" y="-1206" font-family="Helvetica,sans-Serif" font-size="10.00">+MAX_PRECISION</text>
<text text-anchor="middle" x="1237.5" y="-1195" font-family="Helvetica,sans-Serif" font-size="10.00">+MAX_DECIMAL8_PRECISION</text>
<text text-anchor="middle" x="1237.5" y="-1184" font-family="Helvetica,sans-Serif" font-size="10.00">+MAX_SCALE</text>
<text text-anchor="middle" x="1237.5" y="-1173" font-family="Helvetica,sans-Serif" font-size="10.00">+scale</text>
<text text-anchor="middle" x="1237.5" y="-1162" font-family="Helvetica,sans-Serif" font-size="10.00">+MAX_DECIMAL4_PRECISION</text>
<text text-anchor="middle" x="1237.5" y="-1151" font-family="Helvetica,sans-Serif" font-size="10.00">...</text>
</g>
<!-- Node14 -->
<g id="node14" class="node"><title>Node14</title>
<g id="a_node14"><a xlink:href="classbool.html" target="_top" xlink:title="{bool\n||}">
<polygon fill="white" stroke="black" points="1117.5,-1364.5 1117.5,-1421.5 1152.5,-1421.5 1152.5,-1364.5 1117.5,-1364.5"/>
<text text-anchor="middle" x="1135" y="-1409.5" font-family="Helvetica,sans-Serif" font-size="10.00">bool</text>
<polyline fill="none" stroke="black" points="1117.5,-1402.5 1152.5,-1402.5 "/>
<text text-anchor="middle" x="1135" y="-1390.5" font-family="Helvetica,sans-Serif" font-size="10.00"> </text>
<polyline fill="none" stroke="black" points="1117.5,-1383.5 1152.5,-1383.5 "/>
<text text-anchor="middle" x="1135" y="-1371.5" font-family="Helvetica,sans-Serif" font-size="10.00"> </text>
</a>
</g>
</g>
<!-- Node14&#45;&gt;Node1 -->
<g id="edge28" class="edge"><title>Node14&#45;&gt;Node1</title>
<path fill="none" stroke="#404040" d="M1152.81,-1378.39C1180.33,-1357.99 1235.53,-1319.59 1288,-1298 1320.5,-1284.63 1331.15,-1289.47 1365,-1280 1571.68,-1222.19 1698,-1303.74 1824,-1130 2008.1,-876.162 1872.18,-486.842 1775.48,-278.428"/>
<polygon fill="none" stroke="#404040" points="1775.41,-278.286 1769.24,-274.546 1770.32,-267.416 1776.49,-271.156 1775.41,-278.286"/>
<text text-anchor="middle" x="1952" y="-892" font-family="Helvetica,sans-Serif" font-size="10.00"> &#45;has_case_expr_</text>
<text text-anchor="middle" x="1952" y="-881" font-family="Helvetica,sans-Serif" font-size="10.00">&#45;has_else_expr_</text>
</g>
<!-- Node14&#45;&gt;Node2 -->
<g id="edge26" class="edge"><title>Node14&#45;&gt;Node2</title>
<path fill="none" stroke="#404040" d="M1130.28,-1364.42C1118.67,-1290.17 1093.19,-1080.62 1144,-918 1169.47,-836.464 1221.52,-756.368 1268.82,-695.058"/>
<polygon fill="none" stroke="#404040" points="1268.98,-694.845 1269.52,-687.654 1276.36,-685.382 1275.83,-692.574 1268.98,-694.845"/>
<text text-anchor="middle" x="1171" y="-1021.5" font-family="Helvetica,sans-Serif" font-size="10.00"> #is_slotref_</text>
</g>
<!-- Node14&#45;&gt;Node3 -->
<g id="edge15" class="edge"><title>Node14&#45;&gt;Node3</title>
<path fill="none" stroke="#404040" d="M1117.29,-1370.61C1100.3,-1350.71 1073.4,-1320.78 1047,-1298 1036.36,-1288.82 1031.82,-1288.96 1021,-1280 956.617,-1226.68 957.502,-1192.92 887,-1148 809.254,-1098.46 708.615,-1064.61 639.019,-1045.15"/>
<polygon fill="none" stroke="#404040" points="638.833,-1045.1 631.987,-1047.36 627.262,-1041.92 634.108,-1039.65 638.833,-1045.1"/>
<text text-anchor="middle" x="1071" y="-1217" font-family="Helvetica,sans-Serif" font-size="10.00"> +should_remove</text>
<text text-anchor="middle" x="1071" y="-1206" font-family="Helvetica,sans-Serif" font-size="10.00">+check_needs_refresh</text>
</g>
<!-- Node15 -->
<g id="node15" class="node"><title>Node15</title>
<polygon fill="white" stroke="#bfbfbf" points="614.5,-1364.5 614.5,-1421.5 655.5,-1421.5 655.5,-1364.5 614.5,-1364.5"/>
<text text-anchor="middle" x="635" y="-1409.5" font-family="Helvetica,sans-Serif" font-size="10.00">void *</text>
<polyline fill="none" stroke="#bfbfbf" points="614.5,-1402.5 655.5,-1402.5 "/>
<text text-anchor="middle" x="635" y="-1390.5" font-family="Helvetica,sans-Serif" font-size="10.00"> </text>
<polyline fill="none" stroke="#bfbfbf" points="614.5,-1383.5 655.5,-1383.5 "/>
<text text-anchor="middle" x="635" y="-1371.5" font-family="Helvetica,sans-Serif" font-size="10.00"> </text>
</g>
<!-- Node15&#45;&gt;Node3 -->
<g id="edge16" class="edge"><title>Node15&#45;&gt;Node3</title>
<path fill="none" stroke="#404040" d="M628.161,-1364.48C622.65,-1341.86 614.878,-1308.95 609,-1280 597.151,-1221.64 597.949,-1206.34 586,-1148 581.097,-1124.06 574.971,-1097.67 569.614,-1075.49"/>
<polygon fill="none" stroke="#404040" points="569.569,-1075.31 564.263,-1070.42 566.73,-1063.65 572.036,-1068.53 569.569,-1075.31"/>
<text text-anchor="middle" x="661" y="-1211.5" font-family="Helvetica,sans-Serif" font-size="10.00"> +shared_object_handle</text>
</g>
<!-- Node16 -->
<g id="node16" class="node"><title>Node16</title>
<polygon fill="white" stroke="#bfbfbf" points="682,-1359 682,-1427 788,-1427 788,-1359 682,-1359"/>
<text text-anchor="start" x="690" y="-1415" font-family="Helvetica,sans-Serif" font-size="10.00">unordered_map&lt; std</text>
<text text-anchor="middle" x="735" y="-1404" font-family="Helvetica,sans-Serif" font-size="10.00">::string, void * &gt;</text>
<polyline fill="none" stroke="#bfbfbf" points="682,-1397 788,-1397 "/>
<text text-anchor="middle" x="735" y="-1385" font-family="Helvetica,sans-Serif" font-size="10.00"> </text>
<polyline fill="none" stroke="#bfbfbf" points="682,-1378 788,-1378 "/>
<text text-anchor="middle" x="735" y="-1366" font-family="Helvetica,sans-Serif" font-size="10.00"> </text>
</g>
<!-- Node16&#45;&gt;Node3 -->
<g id="edge17" class="edge"><title>Node16&#45;&gt;Node3</title>
<path fill="none" stroke="#404040" d="M735.205,-1358.79C735.044,-1300.72 732.249,-1183.53 713,-1148 695.658,-1115.99 666.095,-1089.47 637.338,-1069.35"/>
<polygon fill="none" stroke="#404040" points="637.158,-1069.23 629.947,-1069.17 627.221,-1062.5 634.432,-1062.55 637.158,-1069.23"/>
<text text-anchor="middle" x="770.5" y="-1211.5" font-family="Helvetica,sans-Serif" font-size="10.00"> +symbol_cache</text>
</g>
<!-- Node17&#45;&gt;Node2 -->
<g id="edge18" class="edge"><title>Node17&#45;&gt;Node2</title>
<path fill="none" stroke="#404040" d="M1253.87,-918.147C1253.8,-904.588 1254.68,-890.929 1257,-878 1260.97,-855.871 1266.5,-833.229 1272.97,-810.817"/>
<polygon fill="none" stroke="#404040" points="1273.03,-810.626 1270.9,-803.736 1276.44,-799.122 1278.57,-806.012 1273.03,-810.626"/>
<text text-anchor="middle" x="1273.5" y="-886.5" font-family="Helvetica,sans-Serif" font-size="10.00"> #type_</text>
</g>
<!-- Node18 -->
<g id="node18" class="node"><title>Node18</title>
<polygon fill="white" stroke="#bfbfbf" points="1297.5,-1364.5 1297.5,-1421.5 1374.5,-1421.5 1374.5,-1364.5 1297.5,-1364.5"/>
<text text-anchor="middle" x="1336" y="-1409.5" font-family="Helvetica,sans-Serif" font-size="10.00">PrimitiveType</text>
<polyline fill="none" stroke="#bfbfbf" points="1297.5,-1402.5 1374.5,-1402.5 "/>
<text text-anchor="middle" x="1336" y="-1390.5" font-family="Helvetica,sans-Serif" font-size="10.00"> </text>
<polyline fill="none" stroke="#bfbfbf" points="1297.5,-1383.5 1374.5,-1383.5 "/>
<text text-anchor="middle" x="1336" y="-1371.5" font-family="Helvetica,sans-Serif" font-size="10.00"> </text>
</g>
<!-- Node18&#45;&gt;Node17 -->
<g id="edge20" class="edge"><title>Node18&#45;&gt;Node17</title>
<path fill="none" stroke="#404040" d="M1335.84,-1364.19C1335.05,-1318.52 1331.24,-1224.99 1314,-1148 1313.52,-1145.85 1313.01,-1143.68 1312.47,-1141.5"/>
<polygon fill="none" stroke="#404040" points="1312.45,-1141.4 1307.05,-1136.62 1309.38,-1129.8 1314.78,-1134.58 1312.45,-1141.4"/>
<text text-anchor="middle" x="1347" y="-1211.5" font-family="Helvetica,sans-Serif" font-size="10.00"> +type</text>
</g>
<!-- Node19 -->
<g id="node19" class="node"><title>Node19</title>
<polygon fill="white" stroke="#bfbfbf" points="1348.5,-995.5 1348.5,-1052.5 1383.5,-1052.5 1383.5,-995.5 1348.5,-995.5"/>
<text text-anchor="middle" x="1366" y="-1040.5" font-family="Helvetica,sans-Serif" font-size="10.00">char</text>
<polyline fill="none" stroke="#bfbfbf" points="1348.5,-1033.5 1383.5,-1033.5 "/>
<text text-anchor="middle" x="1366" y="-1021.5" font-family="Helvetica,sans-Serif" font-size="10.00"> </text>
<polyline fill="none" stroke="#bfbfbf" points="1348.5,-1014.5 1383.5,-1014.5 "/>
<text text-anchor="middle" x="1366" y="-1002.5" font-family="Helvetica,sans-Serif" font-size="10.00"> </text>
</g>
<!-- Node19&#45;&gt;Node2 -->
<g id="edge21" class="edge"><title>Node19&#45;&gt;Node2</title>
<path fill="none" stroke="#404040" d="M1365.13,-995.149C1363.06,-972.158 1356.86,-939.867 1339,-918 1327.43,-903.836 1311.7,-915.503 1302,-900 1296.12,-890.605 1291.54,-880.772 1288.08,-870.627"/>
<polygon fill="none" stroke="#404040" points="1288.06,-870.551 1282.52,-865.936 1284.64,-859.046 1290.19,-863.661 1288.06,-870.551"/>
<text text-anchor="middle" x="1356" y="-886.5" font-family="Helvetica,sans-Serif" font-size="10.00"> +LLVM_CLASS_NAME</text>
</g>
<!-- Node20 -->
<g id="node20" class="node"><title>Node20</title>
<polygon fill="white" stroke="#bfbfbf" points="1401.5,-995.5 1401.5,-1052.5 1462.5,-1052.5 1462.5,-995.5 1401.5,-995.5"/>
<text text-anchor="middle" x="1432" y="-1040.5" font-family="Helvetica,sans-Serif" font-size="10.00">Function *</text>
<polyline fill="none" stroke="#bfbfbf" points="1401.5,-1033.5 1462.5,-1033.5 "/>
<text text-anchor="middle" x="1432" y="-1021.5" font-family="Helvetica,sans-Serif" font-size="10.00"> </text>
<polyline fill="none" stroke="#bfbfbf" points="1401.5,-1014.5 1462.5,-1014.5 "/>
<text text-anchor="middle" x="1432" y="-1002.5" font-family="Helvetica,sans-Serif" font-size="10.00"> </text>
</g>
<!-- Node20&#45;&gt;Node2 -->
<g id="edge22" class="edge"><title>Node20&#45;&gt;Node2</title>
<path fill="none" stroke="#404040" d="M1427.82,-995.206C1423.67,-967.578 1416.83,-922.066 1409.17,-871.174"/>
<polygon fill="none" stroke="#404040" points="1409.16,-871.055 1404.31,-865.717 1407.37,-859.189 1412.22,-864.527 1409.16,-871.055"/>
<text text-anchor="middle" x="1451" y="-886.5" font-family="Helvetica,sans-Serif" font-size="10.00"> #ir_compute_fn_</text>
</g>
<!-- Node21 -->
<g id="node21" class="node"><title>Node21</title>
<polygon fill="white" stroke="#bfbfbf" points="1481,-995.5 1481,-1052.5 1541,-1052.5 1541,-995.5 1481,-995.5"/>
<text text-anchor="middle" x="1511" y="-1040.5" font-family="Helvetica,sans-Serif" font-size="10.00">TFunction</text>
<polyline fill="none" stroke="#bfbfbf" points="1481,-1033.5 1541,-1033.5 "/>
<text text-anchor="middle" x="1511" y="-1021.5" font-family="Helvetica,sans-Serif" font-size="10.00"> </text>
<polyline fill="none" stroke="#bfbfbf" points="1481,-1014.5 1541,-1014.5 "/>
<text text-anchor="middle" x="1511" y="-1002.5" font-family="Helvetica,sans-Serif" font-size="10.00"> </text>
</g>
<!-- Node21&#45;&gt;Node2 -->
<g id="edge23" class="edge"><title>Node21&#45;&gt;Node2</title>
<path fill="none" stroke="#404040" d="M1509.9,-995.292C1508.18,-965.773 1503.85,-917.898 1493,-878 1484.28,-845.965 1472.73,-812.88 1460.12,-780.978"/>
<polygon fill="none" stroke="#404040" points="1460.09,-780.886 1454.14,-776.803 1455.63,-769.746 1461.57,-773.829 1460.09,-780.886"/>
<text text-anchor="middle" x="1509" y="-886.5" font-family="Helvetica,sans-Serif" font-size="10.00"> #fn_</text>
</g>
<!-- Node22 -->
<g id="node22" class="node"><title>Node22</title>
<polygon fill="white" stroke="#bfbfbf" points="1559.5,-995.5 1559.5,-1052.5 1682.5,-1052.5 1682.5,-995.5 1559.5,-995.5"/>
<text text-anchor="middle" x="1621" y="-1040.5" font-family="Helvetica,sans-Serif" font-size="10.00">vector&lt; impala::Expr * &gt;</text>
<polyline fill="none" stroke="#bfbfbf" points="1559.5,-1033.5 1682.5,-1033.5 "/>
<text text-anchor="middle" x="1621" y="-1021.5" font-family="Helvetica,sans-Serif" font-size="10.00"> </text>
<polyline fill="none" stroke="#bfbfbf" points="1559.5,-1014.5 1682.5,-1014.5 "/>
<text text-anchor="middle" x="1621" y="-1002.5" font-family="Helvetica,sans-Serif" font-size="10.00"> </text>
</g>
<!-- Node22&#45;&gt;Node2 -->
<g id="edge24" class="edge"><title>Node22&#45;&gt;Node2</title>
<path fill="none" stroke="#404040" d="M1604.86,-995.206C1576.34,-946.114 1515.02,-840.553 1461.66,-748.682"/>
<polygon fill="none" stroke="#404040" points="1461.55,-748.501 1455.08,-745.322 1455.53,-738.125 1462,-741.304 1461.55,-748.501"/>
<text text-anchor="middle" x="1570" y="-886.5" font-family="Helvetica,sans-Serif" font-size="10.00"> #children_</text>
</g>
<!-- Node23 -->
<g id="node23" class="node"><title>Node23</title>
<polygon fill="white" stroke="#bfbfbf" points="1701,-995.5 1701,-1052.5 1815,-1052.5 1815,-995.5 1701,-995.5"/>
<text text-anchor="middle" x="1758" y="-1040.5" font-family="Helvetica,sans-Serif" font-size="10.00">scoped_ptr&lt; AnyVal &gt;</text>
<polyline fill="none" stroke="#bfbfbf" points="1701,-1033.5 1815,-1033.5 "/>
<text text-anchor="middle" x="1758" y="-1021.5" font-family="Helvetica,sans-Serif" font-size="10.00"> </text>
<polyline fill="none" stroke="#bfbfbf" points="1701,-1014.5 1815,-1014.5 "/>
<text text-anchor="middle" x="1758" y="-1002.5" font-family="Helvetica,sans-Serif" font-size="10.00"> </text>
</g>
<!-- Node23&#45;&gt;Node2 -->
<g id="edge27" class="edge"><title>Node23&#45;&gt;Node2</title>
<path fill="none" stroke="#404040" d="M1742.38,-995.21C1729.64,-973.421 1710.6,-942.749 1691,-918 1621.41,-830.138 1531.97,-739.562 1464.54,-674.938"/>
<polygon fill="none" stroke="#404040" points="1464.27,-674.682 1457.17,-673.43 1455.59,-666.393 1462.69,-667.645 1464.27,-674.682"/>
<text text-anchor="middle" x="1711" y="-886.5" font-family="Helvetica,sans-Serif" font-size="10.00"> #constant_val_</text>
</g>
</g>
</svg>
