<?xml version="1.0" encoding="UTF-8" standalone="no"?>
<!DOCTYPE svg PUBLIC "-//W3C//DTD SVG 1.1//EN"
 "http://www.w3.org/Graphics/SVG/1.1/DTD/svg11.dtd">
<!-- Generated by graphviz version 2.36.0 (20140111.2315)
 -->
<!-- Title: com.cloudera.impala.analysis.AlterTableStmt Pages: 1 -->
<!--zoomable 730 -->
<svg id="main" version="1.1" xmlns="http://www.w3.org/2000/svg" xmlns:xlink="http://www.w3.org/1999/xlink" xml:space="preserve" onload="init(evt)">
<style type="text/css"><![CDATA[
.edge:hover path { stroke: red; }
.edge:hover polygon { stroke: red; fill: red; }
]]></style>
<script type="text/javascript"><![CDATA[
var edges = document.getElementsByTagName('g');
if (edges && edges.length) {
  for (var i=0;i<edges.length;i++) {
    if (edges[i].id.substr(0,4)=='edge') {
      edges[i].setAttribute('class','edge');
    }
  }
}
]]></script>
        <defs>
                <circle id="rim" cx="0" cy="0" r="7"/>
                <circle id="rim2" cx="0" cy="0" r="3.5"/>
                <g id="zoomPlus">
                        <use xlink:href="#rim" fill="#404040">
                                <set attributeName="fill" to="#808080" begin="zoomplus.mouseover" end="zoomplus.mouseout"/>
                        </use>
                        <path d="M-4,0h8M0,-4v8" fill="none" stroke="white" stroke-width="1.5" pointer-events="none"/>
                </g>
                <g id="zoomMin">
                        <use xlink:href="#rim" fill="#404040">
                                <set attributeName="fill" to="#808080" begin="zoomminus.mouseover" end="zoomminus.mouseout"/>
                        </use>
                        <path d="M-4,0h8" fill="none" stroke="white" stroke-width="1.5" pointer-events="none"/>
                </g>
                <g id="dirArrow">
                        <path fill="none" stroke="white" stroke-width="1.5" d="M0,-3.0v7 M-2.5,-0.5L0,-3.0L2.5,-0.5"/>
                </g>
               <g id="resetDef">
                       <use xlink:href="#rim2" fill="#404040">
                               <set attributeName="fill" to="#808080" begin="reset.mouseover" end="reset.mouseout"/>
                       </use>
               </g>
        </defs>

<script type="text/javascript">
var viewWidth = 1458;
var viewHeight = 730;
var sectionId = 'dynsection-0';
</script>
<script xlink:href="svgpan.js"/>
<svg id="graph" class="graph">
<g id="viewport">
<title>com.cloudera.impala.analysis.AlterTableStmt</title>
<polygon fill="white" stroke="none" points="-4,4 -4,-726 1454,-726 1454,4 -4,4"/>
<!-- Node1 -->
<g id="node1" class="node"><title>Node1</title>
<polygon fill="#bfbfbf" stroke="black" points="523.5,-333 523.5,-467 672.5,-467 672.5,-333 523.5,-333"/>
<text text-anchor="start" x="531.5" y="-455" font-family="Helvetica,sans-Serif" font-size="10.00">com.cloudera.impala.analysis.</text>
<text text-anchor="middle" x="598" y="-444" font-family="Helvetica,sans-Serif" font-size="10.00">AlterTableStmt</text>
<polyline fill="none" stroke="black" points="523.5,-437 672.5,-437 "/>
<text text-anchor="start" x="531.5" y="-425" font-family="Helvetica,sans-Serif" font-size="10.00"># tableName_</text>
<text text-anchor="start" x="531.5" y="-414" font-family="Helvetica,sans-Serif" font-size="10.00"># table_</text>
<polyline fill="none" stroke="black" points="523.5,-407 672.5,-407 "/>
<text text-anchor="start" x="531.5" y="-395" font-family="Helvetica,sans-Serif" font-size="10.00">+ getTbl()</text>
<text text-anchor="start" x="531.5" y="-384" font-family="Helvetica,sans-Serif" font-size="10.00">+ getDb()</text>
<text text-anchor="start" x="531.5" y="-373" font-family="Helvetica,sans-Serif" font-size="10.00">+ toThrift()</text>
<text text-anchor="start" x="531.5" y="-362" font-family="Helvetica,sans-Serif" font-size="10.00">+ analyze()</text>
<text text-anchor="start" x="531.5" y="-351" font-family="Helvetica,sans-Serif" font-size="10.00"># AlterTableStmt()</text>
<text text-anchor="start" x="531.5" y="-340" font-family="Helvetica,sans-Serif" font-size="10.00"># getTargetTable()</text>
</g>
<!-- Node4 -->
<g id="node4" class="node"><title>Node4</title>
<g id="a_node4"><a xlink:href="classcom_1_1cloudera_1_1impala_1_1analysis_1_1AlterTableAddPartitionStmt.html" target="_top" xlink:title="{com.cloudera.impala.analysis.\lAlterTableAddPartitionStmt\n|&#45; location_\l&#45; ifNotExists_\l&#45; partitionSpec_\l&#45; cacheOp_\l|+ AlterTableAddPartitionStmt()\l+ getIfNotExists()\l+ getLocation()\l+ toSql()\l+ toThrift()\l+ analyze()\l}">
<polygon fill="white" stroke="black" points="0,-139 0,-295 150,-295 150,-139 0,-139"/>
<text text-anchor="start" x="8" y="-283" font-family="Helvetica,sans-Serif" font-size="10.00">com.cloudera.impala.analysis.</text>
<text text-anchor="middle" x="75" y="-272" font-family="Helvetica,sans-Serif" font-size="10.00">AlterTableAddPartitionStmt</text>
<polyline fill="none" stroke="black" points="0,-265 150,-265 "/>
<text text-anchor="start" x="8" y="-253" font-family="Helvetica,sans-Serif" font-size="10.00">&#45; location_</text>
<text text-anchor="start" x="8" y="-242" font-family="Helvetica,sans-Serif" font-size="10.00">&#45; ifNotExists_</text>
<text text-anchor="start" x="8" y="-231" font-family="Helvetica,sans-Serif" font-size="10.00">&#45; partitionSpec_</text>
<text text-anchor="start" x="8" y="-220" font-family="Helvetica,sans-Serif" font-size="10.00">&#45; cacheOp_</text>
<polyline fill="none" stroke="black" points="0,-213 150,-213 "/>
<text text-anchor="start" x="8" y="-201" font-family="Helvetica,sans-Serif" font-size="10.00">+ AlterTableAddPartitionStmt()</text>
<text text-anchor="start" x="8" y="-190" font-family="Helvetica,sans-Serif" font-size="10.00">+ getIfNotExists()</text>
<text text-anchor="start" x="8" y="-179" font-family="Helvetica,sans-Serif" font-size="10.00">+ getLocation()</text>
<text text-anchor="start" x="8" y="-168" font-family="Helvetica,sans-Serif" font-size="10.00">+ toSql()</text>
<text text-anchor="start" x="8" y="-157" font-family="Helvetica,sans-Serif" font-size="10.00">+ toThrift()</text>
<text text-anchor="start" x="8" y="-146" font-family="Helvetica,sans-Serif" font-size="10.00">+ analyze()</text>
</a>
</g>
</g>
<!-- Node1&#45;&gt;Node4 -->
<g id="edge3" class="edge"><title>Node1&#45;&gt;Node4</title>
<path fill="none" stroke="midnightblue" d="M513.134,-392.103C421.225,-381.757 272.55,-356.481 159,-296 156.014,-294.41 153.054,-292.686 150.13,-290.855"/>
<polygon fill="none" stroke="midnightblue" points="512.906,-395.599 523.226,-393.205 513.665,-388.64 512.906,-395.599"/>
</g>
<!-- Node5 -->
<g id="node5" class="node"><title>Node5</title>
<g id="a_node5"><a xlink:href="classcom_1_1cloudera_1_1impala_1_1analysis_1_1AlterTableAddReplaceColsStmt.html" target="_top" xlink:title="{com.cloudera.impala.analysis.\lAlterTableAddReplaceColsStmt\n|&#45; columnDefs_\l&#45; replaceExistingCols_\l|+ AlterTableAddReplaceColsStmt()\l+ getColumnDescs()\l+ getReplaceExistingCols()\l+ toThrift()\l+ analyze()\l}">
<polygon fill="white" stroke="black" points="168,-155.5 168,-278.5 338,-278.5 338,-155.5 168,-155.5"/>
<text text-anchor="start" x="176" y="-266.5" font-family="Helvetica,sans-Serif" font-size="10.00">com.cloudera.impala.analysis.</text>
<text text-anchor="middle" x="253" y="-255.5" font-family="Helvetica,sans-Serif" font-size="10.00">AlterTableAddReplaceColsStmt</text>
<polyline fill="none" stroke="black" points="168,-248.5 338,-248.5 "/>
<text text-anchor="start" x="176" y="-236.5" font-family="Helvetica,sans-Serif" font-size="10.00">&#45; columnDefs_</text>
<text text-anchor="start" x="176" y="-225.5" font-family="Helvetica,sans-Serif" font-size="10.00">&#45; replaceExistingCols_</text>
<polyline fill="none" stroke="black" points="168,-218.5 338,-218.5 "/>
<text text-anchor="start" x="176" y="-206.5" font-family="Helvetica,sans-Serif" font-size="10.00">+ AlterTableAddReplaceColsStmt()</text>
<text text-anchor="start" x="176" y="-195.5" font-family="Helvetica,sans-Serif" font-size="10.00">+ getColumnDescs()</text>
<text text-anchor="start" x="176" y="-184.5" font-family="Helvetica,sans-Serif" font-size="10.00">+ getReplaceExistingCols()</text>
<text text-anchor="start" x="176" y="-173.5" font-family="Helvetica,sans-Serif" font-size="10.00">+ toThrift()</text>
<text text-anchor="start" x="176" y="-162.5" font-family="Helvetica,sans-Serif" font-size="10.00">+ analyze()</text>
</a>
</g>
</g>
<!-- Node1&#45;&gt;Node5 -->
<g id="edge4" class="edge"><title>Node1&#45;&gt;Node5</title>
<path fill="none" stroke="midnightblue" d="M513.719,-371.673C463.507,-353.65 399.534,-327.564 347,-296 338.366,-290.812 329.699,-284.864 321.31,-278.617"/>
<polygon fill="none" stroke="midnightblue" points="512.655,-375.009 523.249,-375.057 514.997,-368.413 512.655,-375.009"/>
</g>
<!-- Node6 -->
<g id="node6" class="node"><title>Node6</title>
<g id="a_node6"><a xlink:href="classcom_1_1cloudera_1_1impala_1_1analysis_1_1AlterTableChangeColStmt.html" target="_top" xlink:title="{com.cloudera.impala.analysis.\lAlterTableChangeColStmt\n|&#45; colName_\l&#45; newColDef_\l|+ AlterTableChangeColStmt()\l+ getColName()\l+ getNewColDef()\l+ toThrift()\l+ analyze()\l}">
<polygon fill="white" stroke="black" points="356.5,-155.5 356.5,-278.5 505.5,-278.5 505.5,-155.5 356.5,-155.5"/>
<text text-anchor="start" x="364.5" y="-266.5" font-family="Helvetica,sans-Serif" font-size="10.00">com.cloudera.impala.analysis.</text>
<text text-anchor="middle" x="431" y="-255.5" font-family="Helvetica,sans-Serif" font-size="10.00">AlterTableChangeColStmt</text>
<polyline fill="none" stroke="black" points="356.5,-248.5 505.5,-248.5 "/>
<text text-anchor="start" x="364.5" y="-236.5" font-family="Helvetica,sans-Serif" font-size="10.00">&#45; colName_</text>
<text text-anchor="start" x="364.5" y="-225.5" font-family="Helvetica,sans-Serif" font-size="10.00">&#45; newColDef_</text>
<polyline fill="none" stroke="black" points="356.5,-218.5 505.5,-218.5 "/>
<text text-anchor="start" x="364.5" y="-206.5" font-family="Helvetica,sans-Serif" font-size="10.00">+ AlterTableChangeColStmt()</text>
<text text-anchor="start" x="364.5" y="-195.5" font-family="Helvetica,sans-Serif" font-size="10.00">+ getColName()</text>
<text text-anchor="start" x="364.5" y="-184.5" font-family="Helvetica,sans-Serif" font-size="10.00">+ getNewColDef()</text>
<text text-anchor="start" x="364.5" y="-173.5" font-family="Helvetica,sans-Serif" font-size="10.00">+ toThrift()</text>
<text text-anchor="start" x="364.5" y="-162.5" font-family="Helvetica,sans-Serif" font-size="10.00">+ analyze()</text>
</a>
</g>
</g>
<!-- Node1&#45;&gt;Node6 -->
<g id="edge5" class="edge"><title>Node1&#45;&gt;Node6</title>
<path fill="none" stroke="midnightblue" d="M530.016,-325.316C515.668,-309.766 500.687,-293.529 486.848,-278.53"/>
<polygon fill="none" stroke="midnightblue" points="527.647,-327.91 537,-332.887 532.792,-323.164 527.647,-327.91"/>
</g>
<!-- Node7 -->
<g id="node7" class="node"><title>Node7</title>
<g id="a_node7"><a xlink:href="classcom_1_1cloudera_1_1impala_1_1analysis_1_1AlterTableDropColStmt.html" target="_top" xlink:title="{com.cloudera.impala.analysis.\lAlterTableDropColStmt\n|&#45; colName_\l|+ AlterTableDropColStmt()\l+ getColName()\l+ toThrift()\l+ analyze()\l}">
<polygon fill="white" stroke="black" points="523.5,-166.5 523.5,-267.5 672.5,-267.5 672.5,-166.5 523.5,-166.5"/>
<text text-anchor="start" x="531.5" y="-255.5" font-family="Helvetica,sans-Serif" font-size="10.00">com.cloudera.impala.analysis.</text>
<text text-anchor="middle" x="598" y="-244.5" font-family="Helvetica,sans-Serif" font-size="10.00">AlterTableDropColStmt</text>
<polyline fill="none" stroke="black" points="523.5,-237.5 672.5,-237.5 "/>
<text text-anchor="start" x="531.5" y="-225.5" font-family="Helvetica,sans-Serif" font-size="10.00">&#45; colName_</text>
<polyline fill="none" stroke="black" points="523.5,-218.5 672.5,-218.5 "/>
<text text-anchor="start" x="531.5" y="-206.5" font-family="Helvetica,sans-Serif" font-size="10.00">+ AlterTableDropColStmt()</text>
<text text-anchor="start" x="531.5" y="-195.5" font-family="Helvetica,sans-Serif" font-size="10.00">+ getColName()</text>
<text text-anchor="start" x="531.5" y="-184.5" font-family="Helvetica,sans-Serif" font-size="10.00">+ toThrift()</text>
<text text-anchor="start" x="531.5" y="-173.5" font-family="Helvetica,sans-Serif" font-size="10.00">+ analyze()</text>
</a>
</g>
</g>
<!-- Node1&#45;&gt;Node7 -->
<g id="edge6" class="edge"><title>Node1&#45;&gt;Node7</title>
<path fill="none" stroke="midnightblue" d="M598,-322.679C598,-304.117 598,-284.738 598,-267.773"/>
<polygon fill="none" stroke="midnightblue" points="594.5,-322.887 598,-332.887 601.5,-322.887 594.5,-322.887"/>
</g>
<!-- Node8 -->
<g id="node8" class="node"><title>Node8</title>
<g id="a_node8"><a xlink:href="classcom_1_1cloudera_1_1impala_1_1analysis_1_1AlterTableDropPartitionStmt.html" target="_top" xlink:title="{com.cloudera.impala.analysis.\lAlterTableDropPartitionStmt\n|&#45; ifExists_\l&#45; partitionSpec_\l|+ AlterTableDropPartitionStmt()\l+ getIfNotExists()\l+ toSql()\l+ toThrift()\l+ analyze()\l}">
<polygon fill="white" stroke="black" points="691,-155.5 691,-278.5 845,-278.5 845,-155.5 691,-155.5"/>
<text text-anchor="start" x="699" y="-266.5" font-family="Helvetica,sans-Serif" font-size="10.00">com.cloudera.impala.analysis.</text>
<text text-anchor="middle" x="768" y="-255.5" font-family="Helvetica,sans-Serif" font-size="10.00">AlterTableDropPartitionStmt</text>
<polyline fill="none" stroke="black" points="691,-248.5 845,-248.5 "/>
<text text-anchor="start" x="699" y="-236.5" font-family="Helvetica,sans-Serif" font-size="10.00">&#45; ifExists_</text>
<text text-anchor="start" x="699" y="-225.5" font-family="Helvetica,sans-Serif" font-size="10.00">&#45; partitionSpec_</text>
<polyline fill="none" stroke="black" points="691,-218.5 845,-218.5 "/>
<text text-anchor="start" x="699" y="-206.5" font-family="Helvetica,sans-Serif" font-size="10.00">+ AlterTableDropPartitionStmt()</text>
<text text-anchor="start" x="699" y="-195.5" font-family="Helvetica,sans-Serif" font-size="10.00">+ getIfNotExists()</text>
<text text-anchor="start" x="699" y="-184.5" font-family="Helvetica,sans-Serif" font-size="10.00">+ toSql()</text>
<text text-anchor="start" x="699" y="-173.5" font-family="Helvetica,sans-Serif" font-size="10.00">+ toThrift()</text>
<text text-anchor="start" x="699" y="-162.5" font-family="Helvetica,sans-Serif" font-size="10.00">+ analyze()</text>
</a>
</g>
</g>
<!-- Node1&#45;&gt;Node8 -->
<g id="edge7" class="edge"><title>Node1&#45;&gt;Node8</title>
<path fill="none" stroke="midnightblue" d="M667.206,-325.316C681.811,-309.766 697.061,-293.529 711.149,-278.53"/>
<polygon fill="none" stroke="midnightblue" points="664.39,-323.201 660.096,-332.887 669.493,-327.994 664.39,-323.201"/>
</g>
<!-- Node9 -->
<g id="node9" class="node"><title>Node9</title>
<g id="a_node9"><a xlink:href="classcom_1_1cloudera_1_1impala_1_1analysis_1_1AlterTableOrViewRenameStmt.html" target="_top" xlink:title="{com.cloudera.impala.analysis.\lAlterTableOrViewRenameStmt\n|# newTableName_\l# newDbName_\l# renameTable_\l|+ AlterTableOrViewRenameStmt()\l+ getNewTbl()\l+ getNewDb()\l+ toThrift()\l+ analyze()\l}">
<polygon fill="white" stroke="black" points="863,-150 863,-284 1029,-284 1029,-150 863,-150"/>
<text text-anchor="start" x="871" y="-272" font-family="Helvetica,sans-Serif" font-size="10.00">com.cloudera.impala.analysis.</text>
<text text-anchor="middle" x="946" y="-261" font-family="Helvetica,sans-Serif" font-size="10.00">AlterTableOrViewRenameStmt</text>
<polyline fill="none" stroke="black" points="863,-254 1029,-254 "/>
<text text-anchor="start" x="871" y="-242" font-family="Helvetica,sans-Serif" font-size="10.00"># newTableName_</text>
<text text-anchor="start" x="871" y="-231" font-family="Helvetica,sans-Serif" font-size="10.00"># newDbName_</text>
<text text-anchor="start" x="871" y="-220" font-family="Helvetica,sans-Serif" font-size="10.00"># renameTable_</text>
<polyline fill="none" stroke="black" points="863,-213 1029,-213 "/>
<text text-anchor="start" x="871" y="-201" font-family="Helvetica,sans-Serif" font-size="10.00">+ AlterTableOrViewRenameStmt()</text>
<text text-anchor="start" x="871" y="-190" font-family="Helvetica,sans-Serif" font-size="10.00">+ getNewTbl()</text>
<text text-anchor="start" x="871" y="-179" font-family="Helvetica,sans-Serif" font-size="10.00">+ getNewDb()</text>
<text text-anchor="start" x="871" y="-168" font-family="Helvetica,sans-Serif" font-size="10.00">+ toThrift()</text>
<text text-anchor="start" x="871" y="-157" font-family="Helvetica,sans-Serif" font-size="10.00">+ analyze()</text>
</a>
</g>
</g>
<!-- Node1&#45;&gt;Node9 -->
<g id="edge8" class="edge"><title>Node1&#45;&gt;Node9</title>
<path fill="none" stroke="midnightblue" d="M682.451,-372.713C733.963,-354.842 800.05,-328.551 854,-296 860.006,-292.376 866.016,-288.365 871.926,-284.13"/>
<polygon fill="none" stroke="midnightblue" points="681.004,-369.509 672.68,-376.063 683.274,-376.131 681.004,-369.509"/>
</g>
<!-- Node10 -->
<g id="node10" class="node"><title>Node10</title>
<g id="a_node10"><a xlink:href="classcom_1_1cloudera_1_1impala_1_1analysis_1_1AlterTableSetStmt.html" target="_top" xlink:title="{com.cloudera.impala.analysis.\lAlterTableSetStmt\n|# partitionSpec_\l|+ AlterTableSetStmt()\l+ getPartitionSpec()\l+ analyze()\l}">
<polygon fill="white" stroke="black" points="1047.5,-172 1047.5,-262 1196.5,-262 1196.5,-172 1047.5,-172"/>
<text text-anchor="start" x="1055.5" y="-250" font-family="Helvetica,sans-Serif" font-size="10.00">com.cloudera.impala.analysis.</text>
<text text-anchor="middle" x="1122" y="-239" font-family="Helvetica,sans-Serif" font-size="10.00">AlterTableSetStmt</text>
<polyline fill="none" stroke="black" points="1047.5,-232 1196.5,-232 "/>
<text text-anchor="start" x="1055.5" y="-220" font-family="Helvetica,sans-Serif" font-size="10.00"># partitionSpec_</text>
<polyline fill="none" stroke="black" points="1047.5,-213 1196.5,-213 "/>
<text text-anchor="start" x="1055.5" y="-201" font-family="Helvetica,sans-Serif" font-size="10.00">+ AlterTableSetStmt()</text>
<text text-anchor="start" x="1055.5" y="-190" font-family="Helvetica,sans-Serif" font-size="10.00">+ getPartitionSpec()</text>
<text text-anchor="start" x="1055.5" y="-179" font-family="Helvetica,sans-Serif" font-size="10.00">+ analyze()</text>
</a>
</g>
</g>
<!-- Node1&#45;&gt;Node10 -->
<g id="edge9" class="edge"><title>Node1&#45;&gt;Node10</title>
<path fill="none" stroke="midnightblue" d="M682.654,-392.188C774.739,-381.904 924.023,-356.672 1038,-296 1054.34,-287.303 1069.89,-274.631 1083.07,-262.02"/>
<polygon fill="none" stroke="midnightblue" points="682.109,-388.726 672.543,-393.282 682.862,-395.685 682.109,-388.726"/>
</g>
<!-- Node2 -->
<g id="node2" class="node"><title>Node2</title>
<g id="a_node2"><a xlink:href="classcom_1_1cloudera_1_1impala_1_1analysis_1_1StatementBase.html" target="_top" xlink:title="{com.cloudera.impala.analysis.\lStatementBase\n|# isExplain_\l|+ analyze()\l+ toSql()\l+ setIsExplain()\l+ isExplain()\l}">
<polygon fill="white" stroke="black" points="523.5,-504.5 523.5,-605.5 672.5,-605.5 672.5,-504.5 523.5,-504.5"/>
<text text-anchor="start" x="531.5" y="-593.5" font-family="Helvetica,sans-Serif" font-size="10.00">com.cloudera.impala.analysis.</text>
<text text-anchor="middle" x="598" y="-582.5" font-family="Helvetica,sans-Serif" font-size="10.00">StatementBase</text>
<polyline fill="none" stroke="black" points="523.5,-575.5 672.5,-575.5 "/>
<text text-anchor="start" x="531.5" y="-563.5" font-family="Helvetica,sans-Serif" font-size="10.00"># isExplain_</text>
<polyline fill="none" stroke="black" points="523.5,-556.5 672.5,-556.5 "/>
<text text-anchor="start" x="531.5" y="-544.5" font-family="Helvetica,sans-Serif" font-size="10.00">+ analyze()</text>
<text text-anchor="start" x="531.5" y="-533.5" font-family="Helvetica,sans-Serif" font-size="10.00">+ toSql()</text>
<text text-anchor="start" x="531.5" y="-522.5" font-family="Helvetica,sans-Serif" font-size="10.00">+ setIsExplain()</text>
<text text-anchor="start" x="531.5" y="-511.5" font-family="Helvetica,sans-Serif" font-size="10.00">+ isExplain()</text>
</a>
</g>
</g>
<!-- Node2&#45;&gt;Node1 -->
<g id="edge1" class="edge"><title>Node2&#45;&gt;Node1</title>
<path fill="none" stroke="midnightblue" d="M598,-494.109C598,-485.258 598,-476.096 598,-467.128"/>
<polygon fill="none" stroke="midnightblue" points="594.5,-494.325 598,-504.325 601.5,-494.325 594.5,-494.325"/>
</g>
<!-- Node3 -->
<g id="node3" class="node"><title>Node3</title>
<g id="a_node3"><a xlink:href="interfacecom_1_1cloudera_1_1impala_1_1analysis_1_1ParseNode.html" target="_top" xlink:title="{com.cloudera.impala.analysis.\lParseNode\n||+ analyze()\l+ toSql()\l}">
<polygon fill="white" stroke="black" points="523.5,-642.5 523.5,-721.5 672.5,-721.5 672.5,-642.5 523.5,-642.5"/>
<text text-anchor="start" x="531.5" y="-709.5" font-family="Helvetica,sans-Serif" font-size="10.00">com.cloudera.impala.analysis.</text>
<text text-anchor="middle" x="598" y="-698.5" font-family="Helvetica,sans-Serif" font-size="10.00">ParseNode</text>
<polyline fill="none" stroke="black" points="523.5,-691.5 672.5,-691.5 "/>
<text text-anchor="middle" x="598" y="-679.5" font-family="Helvetica,sans-Serif" font-size="10.00"> </text>
<polyline fill="none" stroke="black" points="523.5,-672.5 672.5,-672.5 "/>
<text text-anchor="start" x="531.5" y="-660.5" font-family="Helvetica,sans-Serif" font-size="10.00">+ analyze()</text>
<text text-anchor="start" x="531.5" y="-649.5" font-family="Helvetica,sans-Serif" font-size="10.00">+ toSql()</text>
</a>
</g>
</g>
<!-- Node3&#45;&gt;Node2 -->
<g id="edge2" class="edge"><title>Node3&#45;&gt;Node2</title>
<path fill="none" stroke="midnightblue" d="M598,-632.406C598,-623.639 598,-614.488 598,-605.691"/>
<polygon fill="none" stroke="midnightblue" points="594.5,-632.476 598,-642.476 601.5,-632.476 594.5,-632.476"/>
</g>
<!-- Node11 -->
<g id="node11" class="node"><title>Node11</title>
<g id="a_node11"><a xlink:href="classcom_1_1cloudera_1_1impala_1_1analysis_1_1AlterTableSetCachedStmt.html" target="_top" xlink:title="{com.cloudera.impala.analysis.\lAlterTableSetCachedStmt\n|&#45; cacheOp_\l|+ AlterTableSetCachedStmt()\l+ toThrift()\l+ analyze()\l}">
<polygon fill="white" stroke="black" points="791.5,-6 791.5,-96 940.5,-96 940.5,-6 791.5,-6"/>
<text text-anchor="start" x="799.5" y="-84" font-family="Helvetica,sans-Serif" font-size="10.00">com.cloudera.impala.analysis.</text>
<text text-anchor="middle" x="866" y="-73" font-family="Helvetica,sans-Serif" font-size="10.00">AlterTableSetCachedStmt</text>
<polyline fill="none" stroke="black" points="791.5,-66 940.5,-66 "/>
<text text-anchor="start" x="799.5" y="-54" font-family="Helvetica,sans-Serif" font-size="10.00">&#45; cacheOp_</text>
<polyline fill="none" stroke="black" points="791.5,-47 940.5,-47 "/>
<text text-anchor="start" x="799.5" y="-35" font-family="Helvetica,sans-Serif" font-size="10.00">+ AlterTableSetCachedStmt()</text>
<text text-anchor="start" x="799.5" y="-24" font-family="Helvetica,sans-Serif" font-size="10.00">+ toThrift()</text>
<text text-anchor="start" x="799.5" y="-13" font-family="Helvetica,sans-Serif" font-size="10.00">+ analyze()</text>
</a>
</g>
</g>
<!-- Node10&#45;&gt;Node11 -->
<g id="edge10" class="edge"><title>Node10&#45;&gt;Node11</title>
<path fill="none" stroke="midnightblue" d="M1073.08,-165.082C1062.13,-155.305 1050.14,-145.722 1038,-138 1001.99,-115.105 987.171,-121.068 949,-102 945.238,-100.121 941.419,-98.1314 937.59,-96.0718"/>
<polygon fill="none" stroke="midnightblue" points="1070.74,-167.688 1080.48,-171.86 1075.47,-162.526 1070.74,-167.688"/>
</g>
<!-- Node12 -->
<g id="node12" class="node"><title>Node12</title>
<g id="a_node12"><a xlink:href="classcom_1_1cloudera_1_1impala_1_1analysis_1_1AlterTableSetFileFormatStmt.html" target="_top" xlink:title="{com.cloudera.impala.analysis.\lAlterTableSetFileFormatStmt\n|&#45; fileFormat_\l|+ AlterTableSetFileFormatStmt()\l+ getFileFormat()\l+ toThrift()\l+ analyze()\l}">
<polygon fill="white" stroke="black" points="958,-0.5 958,-101.5 1116,-101.5 1116,-0.5 958,-0.5"/>
<text text-anchor="start" x="966" y="-89.5" font-family="Helvetica,sans-Serif" font-size="10.00">com.cloudera.impala.analysis.</text>
<text text-anchor="middle" x="1037" y="-78.5" font-family="Helvetica,sans-Serif" font-size="10.00">AlterTableSetFileFormatStmt</text>
<polyline fill="none" stroke="black" points="958,-71.5 1116,-71.5 "/>
<text text-anchor="start" x="966" y="-59.5" font-family="Helvetica,sans-Serif" font-size="10.00">&#45; fileFormat_</text>
<polyline fill="none" stroke="black" points="958,-52.5 1116,-52.5 "/>
<text text-anchor="start" x="966" y="-40.5" font-family="Helvetica,sans-Serif" font-size="10.00">+ AlterTableSetFileFormatStmt()</text>
<text text-anchor="start" x="966" y="-29.5" font-family="Helvetica,sans-Serif" font-size="10.00">+ getFileFormat()</text>
<text text-anchor="start" x="966" y="-18.5" font-family="Helvetica,sans-Serif" font-size="10.00">+ toThrift()</text>
<text text-anchor="start" x="966" y="-7.5" font-family="Helvetica,sans-Serif" font-size="10.00">+ analyze()</text>
</a>
</g>
</g>
<!-- Node10&#45;&gt;Node12 -->
<g id="edge11" class="edge"><title>Node10&#45;&gt;Node12</title>
<path fill="none" stroke="midnightblue" d="M1094.28,-162.519C1084.13,-142.929 1072.69,-120.857 1062.72,-101.619"/>
<polygon fill="none" stroke="midnightblue" points="1091.29,-164.351 1099,-171.619 1097.5,-161.13 1091.29,-164.351"/>
</g>
<!-- Node13 -->
<g id="node13" class="node"><title>Node13</title>
<g id="a_node13"><a xlink:href="classcom_1_1cloudera_1_1impala_1_1analysis_1_1AlterTableSetLocationStmt.html" target="_top" xlink:title="{com.cloudera.impala.analysis.\lAlterTableSetLocationStmt\n|&#45; location_\l|+ AlterTableSetLocationStmt()\l+ getLocation()\l+ toThrift()\l+ analyze()\l}">
<polygon fill="white" stroke="black" points="1133.5,-0.5 1133.5,-101.5 1282.5,-101.5 1282.5,-0.5 1133.5,-0.5"/>
<text text-anchor="start" x="1141.5" y="-89.5" font-family="Helvetica,sans-Serif" font-size="10.00">com.cloudera.impala.analysis.</text>
<text text-anchor="middle" x="1208" y="-78.5" font-family="Helvetica,sans-Serif" font-size="10.00">AlterTableSetLocationStmt</text>
<polyline fill="none" stroke="black" points="1133.5,-71.5 1282.5,-71.5 "/>
<text text-anchor="start" x="1141.5" y="-59.5" font-family="Helvetica,sans-Serif" font-size="10.00">&#45; location_</text>
<polyline fill="none" stroke="black" points="1133.5,-52.5 1282.5,-52.5 "/>
<text text-anchor="start" x="1141.5" y="-40.5" font-family="Helvetica,sans-Serif" font-size="10.00">+ AlterTableSetLocationStmt()</text>
<text text-anchor="start" x="1141.5" y="-29.5" font-family="Helvetica,sans-Serif" font-size="10.00">+ getLocation()</text>
<text text-anchor="start" x="1141.5" y="-18.5" font-family="Helvetica,sans-Serif" font-size="10.00">+ toThrift()</text>
<text text-anchor="start" x="1141.5" y="-7.5" font-family="Helvetica,sans-Serif" font-size="10.00">+ analyze()</text>
</a>
</g>
</g>
<!-- Node10&#45;&gt;Node13 -->
<g id="edge12" class="edge"><title>Node10&#45;&gt;Node13</title>
<path fill="none" stroke="midnightblue" d="M1150.04,-162.519C1160.32,-142.929 1171.89,-120.857 1181.98,-101.619"/>
<polygon fill="none" stroke="midnightblue" points="1146.82,-161.138 1145.27,-171.619 1153.02,-164.388 1146.82,-161.138"/>
</g>
<!-- Node14 -->
<g id="node14" class="node"><title>Node14</title>
<g id="a_node14"><a xlink:href="classcom_1_1cloudera_1_1impala_1_1analysis_1_1AlterTableSetTblProperties.html" target="_top" xlink:title="{com.cloudera.impala.analysis.\lAlterTableSetTblProperties\n|&#45; targetProperty_\l&#45; tblProperties_\l|+ AlterTableSetTblProperties()\l+ getTblProperties()\l+ toThrift()\l}">
<polygon fill="white" stroke="black" points="1300.5,-0.5 1300.5,-101.5 1449.5,-101.5 1449.5,-0.5 1300.5,-0.5"/>
<text text-anchor="start" x="1308.5" y="-89.5" font-family="Helvetica,sans-Serif" font-size="10.00">com.cloudera.impala.analysis.</text>
<text text-anchor="middle" x="1375" y="-78.5" font-family="Helvetica,sans-Serif" font-size="10.00">AlterTableSetTblProperties</text>
<polyline fill="none" stroke="black" points="1300.5,-71.5 1449.5,-71.5 "/>
<text text-anchor="start" x="1308.5" y="-59.5" font-family="Helvetica,sans-Serif" font-size="10.00">&#45; targetProperty_</text>
<text text-anchor="start" x="1308.5" y="-48.5" font-family="Helvetica,sans-Serif" font-size="10.00">&#45; tblProperties_</text>
<polyline fill="none" stroke="black" points="1300.5,-41.5 1449.5,-41.5 "/>
<text text-anchor="start" x="1308.5" y="-29.5" font-family="Helvetica,sans-Serif" font-size="10.00">+ AlterTableSetTblProperties()</text>
<text text-anchor="start" x="1308.5" y="-18.5" font-family="Helvetica,sans-Serif" font-size="10.00">+ getTblProperties()</text>
<text text-anchor="start" x="1308.5" y="-7.5" font-family="Helvetica,sans-Serif" font-size="10.00">+ toThrift()</text>
</a>
</g>
</g>
<!-- Node10&#45;&gt;Node14 -->
<g id="edge13" class="edge"><title>Node10&#45;&gt;Node14</title>
<path fill="none" stroke="midnightblue" d="M1198.63,-166.329C1230.79,-145.477 1268.09,-121.304 1300.07,-100.571"/>
<polygon fill="none" stroke="midnightblue" points="1196.62,-163.459 1190.13,-171.835 1200.43,-169.333 1196.62,-163.459"/>
</g>
</g>
</svg>
        <g id="navigator" transform="translate(0 0)" fill="#404254">
                <rect fill="#f2f5e9" fill-opacity="0.5" stroke="#606060" stroke-width=".5" x="0" y="0" width="60" height="60"/>
                <use id="zoomplus" xlink:href="#zoomPlus" x="17" y="9" onmousedown="handleZoom(evt,'in')"/>
                <use id="zoomminus" xlink:href="#zoomMin" x="42" y="9" onmousedown="handleZoom(evt,'out')"/>
                <use id="reset" xlink:href="#resetDef" x="30" y="36" onmousedown="handleReset()"/>
                <g id="arrowUp" xlink:href="#dirArrow" transform="translate(30 24)" onmousedown="handlePan(0,-1)">
                  <use xlink:href="#rim" fill="#404040">
                        <set attributeName="fill" to="#808080" begin="arrowUp.mouseover" end="arrowUp.mouseout"/>
                  </use>
                  <path fill="none" stroke="white" stroke-width="1.5" d="M0,-3.0v7 M-2.5,-0.5L0,-3.0L2.5,-0.5"/>
                </g>
                <g id="arrowRight" xlink:href="#dirArrow" transform="rotate(90) translate(36 -43)" onmousedown="handlePan(1,0)">
                  <use xlink:href="#rim" fill="#404040">
                        <set attributeName="fill" to="#808080" begin="arrowRight.mouseover" end="arrowRight.mouseout"/>
                  </use>
                  <path fill="none" stroke="white" stroke-width="1.5" d="M0,-3.0v7 M-2.5,-0.5L0,-3.0L2.5,-0.5"/>
                </g>
                <g id="arrowDown" xlink:href="#dirArrow" transform="rotate(180) translate(-30 -48)" onmousedown="handlePan(0,1)">
                  <use xlink:href="#rim" fill="#404040">
                        <set attributeName="fill" to="#808080" begin="arrowDown.mouseover" end="arrowDown.mouseout"/>
                  </use>
                  <path fill="none" stroke="white" stroke-width="1.5" d="M0,-3.0v7 M-2.5,-0.5L0,-3.0L2.5,-0.5"/>
                </g>
                <g id="arrowLeft" xlink:href="#dirArrow" transform="rotate(270) translate(-36 17)" onmousedown="handlePan(-1,0)">
                  <use xlink:href="#rim" fill="#404040">
                        <set attributeName="fill" to="#808080" begin="arrowLeft.mouseover" end="arrowLeft.mouseout"/>
                  </use>
                  <path fill="none" stroke="white" stroke-width="1.5" d="M0,-3.0v7 M-2.5,-0.5L0,-3.0L2.5,-0.5"/>
                </g>
        </g>
        <svg viewBox="0 0 15 15" width="100%" height="30px" preserveAspectRatio="xMaxYMin meet">
         <g id="arrow_out" transform="scale(0.3 0.3)">
          <a xlink:href="classcom_1_1cloudera_1_1impala_1_1analysis_1_1AlterTableStmt__inherit__graph_org.svg" target="_base">
           <rect id="button" ry="5" rx="5" y="6" x="6" height="38" width="38"
                fill="#f2f5e9" fill-opacity="0.5" stroke="#606060" stroke-width="1.0"/>
           <path id="arrow"
             d="M 11.500037,31.436501 C 11.940474,20.09759 22.043105,11.32322 32.158766,21.979434 L 37.068811,17.246167 C 37.068811,17.246167 37.088388,32 37.088388,32 L 22.160133,31.978069 C 22.160133,31.978069 26.997745,27.140456 26.997745,27.140456 C 18.528582,18.264221 13.291696,25.230495 11.500037,31.436501 z"
             style="fill:#404040;"/>
          </a>
         </g>
        </svg>
</svg>
