<?xml version="1.0" encoding="UTF-8" standalone="no"?>
<!DOCTYPE svg PUBLIC "-//W3C//DTD SVG 1.1//EN"
 "http://www.w3.org/Graphics/SVG/1.1/DTD/svg11.dtd">
<!-- Generated by graphviz version 2.36.0 (20140111.2315)
 -->
<!-- Title: com.cloudera.impala.catalog.AuthorizationPolicy Pages: 1 -->
<!--zoomable 360 -->
<svg id="main" version="1.1" xmlns="http://www.w3.org/2000/svg" xmlns:xlink="http://www.w3.org/1999/xlink" xml:space="preserve" onload="init(evt)">
<style type="text/css"><![CDATA[
.edge:hover path { stroke: red; }
.edge:hover polygon { stroke: red; fill: red; }
]]></style>
<script type="text/javascript"><![CDATA[
var edges = document.getElementsByTagName('g');
if (edges && edges.length) {
  for (var i=0;i<edges.length;i++) {
    if (edges[i].id.substr(0,4)=='edge') {
      edges[i].setAttribute('class','edge');
    }
  }
}
]]></script>
        <defs>
                <circle id="rim" cx="0" cy="0" r="7"/>
                <circle id="rim2" cx="0" cy="0" r="3.5"/>
                <g id="zoomPlus">
                        <use xlink:href="#rim" fill="#404040">
                                <set attributeName="fill" to="#808080" begin="zoomplus.mouseover" end="zoomplus.mouseout"/>
                        </use>
                        <path d="M-4,0h8M0,-4v8" fill="none" stroke="white" stroke-width="1.5" pointer-events="none"/>
                </g>
                <g id="zoomMin">
                        <use xlink:href="#rim" fill="#404040">
                                <set attributeName="fill" to="#808080" begin="zoomminus.mouseover" end="zoomminus.mouseout"/>
                        </use>
                        <path d="M-4,0h8" fill="none" stroke="white" stroke-width="1.5" pointer-events="none"/>
                </g>
                <g id="dirArrow">
                        <path fill="none" stroke="white" stroke-width="1.5" d="M0,-3.0v7 M-2.5,-0.5L0,-3.0L2.5,-0.5"/>
                </g>
               <g id="resetDef">
                       <use xlink:href="#rim2" fill="#404040">
                               <set attributeName="fill" to="#808080" begin="reset.mouseover" end="reset.mouseout"/>
                       </use>
               </g>
        </defs>

<script type="text/javascript">
var viewWidth = 620;
var viewHeight = 360;
var sectionId = 'dynsection-1';
</script>
<script xlink:href="svgpan.js"/>
<svg id="graph" class="graph">
<g id="viewport">
<title>com.cloudera.impala.catalog.AuthorizationPolicy</title>
<polygon fill="white" stroke="none" points="-4,4 -4,-356 616,-356 616,4 -4,4"/>
<!-- Node1 -->
<g id="node1" class="node"><title>Node1</title>
<polygon fill="#bfbfbf" stroke="black" points="151,-1 151,-223 295,-223 295,-1 151,-1"/>
<text text-anchor="start" x="159" y="-211" font-family="Helvetica,sans-Serif" font-size="10.00">com.cloudera.impala.catalog.</text>
<text text-anchor="middle" x="223" y="-200" font-family="Helvetica,sans-Serif" font-size="10.00">AuthorizationPolicy</text>
<polyline fill="none" stroke="black" points="151,-193 295,-193 "/>
<text text-anchor="middle" x="223" y="-181" font-family="Helvetica,sans-Serif" font-size="10.00"> </text>
<polyline fill="none" stroke="black" points="151,-174 295,-174 "/>
<text text-anchor="start" x="159" y="-162" font-family="Helvetica,sans-Serif" font-size="10.00">+ addRole()</text>
<text text-anchor="start" x="159" y="-151" font-family="Helvetica,sans-Serif" font-size="10.00">+ addPrivilege()</text>
<text text-anchor="start" x="159" y="-140" font-family="Helvetica,sans-Serif" font-size="10.00">+ removePrivilege()</text>
<text text-anchor="start" x="159" y="-129" font-family="Helvetica,sans-Serif" font-size="10.00">+ getAllRoles()</text>
<text text-anchor="start" x="159" y="-118" font-family="Helvetica,sans-Serif" font-size="10.00">+ getAllRoleNames()</text>
<text text-anchor="start" x="159" y="-107" font-family="Helvetica,sans-Serif" font-size="10.00">+ getRole()</text>
<text text-anchor="start" x="159" y="-96" font-family="Helvetica,sans-Serif" font-size="10.00">+ getRole()</text>
<text text-anchor="start" x="159" y="-85" font-family="Helvetica,sans-Serif" font-size="10.00">+ getPrivilege()</text>
<text text-anchor="start" x="159" y="-74" font-family="Helvetica,sans-Serif" font-size="10.00">+ getGrantedRoles()</text>
<text text-anchor="start" x="159" y="-63" font-family="Helvetica,sans-Serif" font-size="10.00">+ removeRole()</text>
<text text-anchor="start" x="159" y="-52" font-family="Helvetica,sans-Serif" font-size="10.00">+ addGrantGroup()</text>
<text text-anchor="start" x="159" y="-41" font-family="Helvetica,sans-Serif" font-size="10.00">+ removeGrantGroup()</text>
<text text-anchor="start" x="159" y="-30" font-family="Helvetica,sans-Serif" font-size="10.00">+ listPrivileges()</text>
<text text-anchor="start" x="159" y="-19" font-family="Helvetica,sans-Serif" font-size="10.00">+ close()</text>
<text text-anchor="start" x="159" y="-8" font-family="Helvetica,sans-Serif" font-size="10.00">+ getRolePrivileges()</text>
</g>
<!-- Node2 -->
<g id="node2" class="node"><title>Node2</title>
<polygon fill="white" stroke="#bfbfbf" points="-0.5,-283.5 -0.5,-340.5 82.5,-340.5 82.5,-283.5 -0.5,-283.5"/>
<text text-anchor="middle" x="41" y="-328.5" font-family="Helvetica,sans-Serif" font-size="10.00">PrivilegeCache</text>
<polyline fill="none" stroke="#bfbfbf" points="-0.5,-321.5 82.5,-321.5 "/>
<text text-anchor="middle" x="41" y="-309.5" font-family="Helvetica,sans-Serif" font-size="10.00"> </text>
<polyline fill="none" stroke="#bfbfbf" points="-0.5,-302.5 82.5,-302.5 "/>
<text text-anchor="middle" x="41" y="-290.5" font-family="Helvetica,sans-Serif" font-size="10.00"> </text>
</g>
<!-- Node2&#45;&gt;Node1 -->
<g id="edge1" class="edge"><title>Node2&#45;&gt;Node1</title>
<path fill="none" stroke="midnightblue" d="M73.2939,-275.867C94.8036,-252.466 123.948,-220.76 150.807,-191.539"/>
<polygon fill="none" stroke="midnightblue" points="70.4969,-273.738 66.3063,-283.469 75.6505,-278.475 70.4969,-273.738"/>
</g>
<!-- Node3 -->
<g id="node3" class="node"><title>Node3</title>
<polygon fill="white" stroke="#bfbfbf" points="101,-283.5 101,-340.5 147,-340.5 147,-283.5 101,-283.5"/>
<text text-anchor="middle" x="124" y="-328.5" font-family="Helvetica,sans-Serif" font-size="10.00">Logger</text>
<polyline fill="none" stroke="#bfbfbf" points="101,-321.5 147,-321.5 "/>
<text text-anchor="middle" x="124" y="-309.5" font-family="Helvetica,sans-Serif" font-size="10.00"> </text>
<polyline fill="none" stroke="#bfbfbf" points="101,-302.5 147,-302.5 "/>
<text text-anchor="middle" x="124" y="-290.5" font-family="Helvetica,sans-Serif" font-size="10.00"> </text>
</g>
<!-- Node3&#45;&gt;Node1 -->
<g id="edge2" class="edge"><title>Node3&#45;&gt;Node1</title>
<path fill="none" stroke="#404040" d="M137.766,-283.469C144.516,-269.967 153.166,-252.668 162.356,-234.288"/>
<polygon fill="none" stroke="#404040" points="162.453,-234.095 161.558,-226.939 167.819,-223.362 168.714,-230.517 162.453,-234.095"/>
<text text-anchor="middle" x="170.5" y="-245.5" font-family="Helvetica,sans-Serif" font-size="10.00"> &#45;LOG</text>
</g>
<!-- Node4 -->
<g id="node4" class="node"><title>Node4</title>
<polygon fill="white" stroke="#bfbfbf" points="165.5,-283.5 165.5,-340.5 280.5,-340.5 280.5,-283.5 165.5,-283.5"/>
<text text-anchor="middle" x="223" y="-328.5" font-family="Helvetica,sans-Serif" font-size="10.00">Map&lt; Integer, String &gt;</text>
<polyline fill="none" stroke="#bfbfbf" points="165.5,-321.5 280.5,-321.5 "/>
<text text-anchor="middle" x="223" y="-309.5" font-family="Helvetica,sans-Serif" font-size="10.00"> </text>
<polyline fill="none" stroke="#bfbfbf" points="165.5,-302.5 280.5,-302.5 "/>
<text text-anchor="middle" x="223" y="-290.5" font-family="Helvetica,sans-Serif" font-size="10.00"> </text>
</g>
<!-- Node4&#45;&gt;Node1 -->
<g id="edge3" class="edge"><title>Node4&#45;&gt;Node1</title>
<path fill="none" stroke="#404040" d="M223,-283.469C223,-270.283 223,-253.475 223,-235.575"/>
<polygon fill="none" stroke="#404040" points="223,-235.362 219,-229.362 223,-223.362 227,-229.362 223,-235.362"/>
<text text-anchor="middle" x="245" y="-245.5" font-family="Helvetica,sans-Serif" font-size="10.00"> ~roleIds_</text>
</g>
<!-- Node5 -->
<g id="node5" class="node"><title>Node5</title>
<polygon fill="white" stroke="#bfbfbf" points="298.5,-272.5 298.5,-351.5 451.5,-351.5 451.5,-272.5 298.5,-272.5"/>
<text text-anchor="start" x="306.5" y="-339.5" font-family="Helvetica,sans-Serif" font-size="10.00">final CatalogObjectCache</text>
<text text-anchor="start" x="306.5" y="-328.5" font-family="Helvetica,sans-Serif" font-size="10.00">&lt; com.cloudera.impala.catalog.</text>
<text text-anchor="middle" x="375" y="-317.5" font-family="Helvetica,sans-Serif" font-size="10.00">Role &gt;</text>
<polyline fill="none" stroke="#bfbfbf" points="298.5,-310.5 451.5,-310.5 "/>
<text text-anchor="middle" x="375" y="-298.5" font-family="Helvetica,sans-Serif" font-size="10.00"> </text>
<polyline fill="none" stroke="#bfbfbf" points="298.5,-291.5 451.5,-291.5 "/>
<text text-anchor="middle" x="375" y="-279.5" font-family="Helvetica,sans-Serif" font-size="10.00"> </text>
</g>
<!-- Node5&#45;&gt;Node1 -->
<g id="edge4" class="edge"><title>Node5&#45;&gt;Node1</title>
<path fill="none" stroke="#404040" d="M345.332,-272.354C332.933,-256.202 317.873,-236.585 302.618,-216.714"/>
<polygon fill="none" stroke="#404040" points="302.432,-216.471 295.606,-214.147 295.125,-206.952 301.952,-209.276 302.432,-216.471"/>
<text text-anchor="middle" x="359" y="-245.5" font-family="Helvetica,sans-Serif" font-size="10.00"> &#45;roleCache_</text>
</g>
<!-- Node6 -->
<g id="node6" class="node"><title>Node6</title>
<polygon fill="white" stroke="#bfbfbf" points="469.5,-283.5 469.5,-340.5 612.5,-340.5 612.5,-283.5 469.5,-283.5"/>
<text text-anchor="middle" x="541" y="-328.5" font-family="Helvetica,sans-Serif" font-size="10.00">Map&lt; String, Set&lt; String &gt; &gt;</text>
<polyline fill="none" stroke="#bfbfbf" points="469.5,-321.5 612.5,-321.5 "/>
<text text-anchor="middle" x="541" y="-309.5" font-family="Helvetica,sans-Serif" font-size="10.00"> </text>
<polyline fill="none" stroke="#bfbfbf" points="469.5,-302.5 612.5,-302.5 "/>
<text text-anchor="middle" x="541" y="-290.5" font-family="Helvetica,sans-Serif" font-size="10.00"> </text>
</g>
<!-- Node6&#45;&gt;Node1 -->
<g id="edge5" class="edge"><title>Node6&#45;&gt;Node1</title>
<path fill="none" stroke="#404040" d="M496.783,-283.469C447.498,-252.782 366.707,-202.478 305.632,-164.45"/>
<polygon fill="none" stroke="#404040" points="305.427,-164.322 298.219,-164.547 295.24,-157.98 302.448,-157.755 305.427,-164.322"/>
<text text-anchor="middle" x="488.5" y="-245.5" font-family="Helvetica,sans-Serif" font-size="10.00"> ~groupsToRoles_</text>
</g>
</g>
</svg>
        <g id="navigator" transform="translate(0 0)" fill="#404254">
                <rect fill="#f2f5e9" fill-opacity="0.5" stroke="#606060" stroke-width=".5" x="0" y="0" width="60" height="60"/>
                <use id="zoomplus" xlink:href="#zoomPlus" x="17" y="9" onmousedown="handleZoom(evt,'in')"/>
                <use id="zoomminus" xlink:href="#zoomMin" x="42" y="9" onmousedown="handleZoom(evt,'out')"/>
                <use id="reset" xlink:href="#resetDef" x="30" y="36" onmousedown="handleReset()"/>
                <g id="arrowUp" xlink:href="#dirArrow" transform="translate(30 24)" onmousedown="handlePan(0,-1)">
                  <use xlink:href="#rim" fill="#404040">
                        <set attributeName="fill" to="#808080" begin="arrowUp.mouseover" end="arrowUp.mouseout"/>
                  </use>
                  <path fill="none" stroke="white" stroke-width="1.5" d="M0,-3.0v7 M-2.5,-0.5L0,-3.0L2.5,-0.5"/>
                </g>
                <g id="arrowRight" xlink:href="#dirArrow" transform="rotate(90) translate(36 -43)" onmousedown="handlePan(1,0)">
                  <use xlink:href="#rim" fill="#404040">
                        <set attributeName="fill" to="#808080" begin="arrowRight.mouseover" end="arrowRight.mouseout"/>
                  </use>
                  <path fill="none" stroke="white" stroke-width="1.5" d="M0,-3.0v7 M-2.5,-0.5L0,-3.0L2.5,-0.5"/>
                </g>
                <g id="arrowDown" xlink:href="#dirArrow" transform="rotate(180) translate(-30 -48)" onmousedown="handlePan(0,1)">
                  <use xlink:href="#rim" fill="#404040">
                        <set attributeName="fill" to="#808080" begin="arrowDown.mouseover" end="arrowDown.mouseout"/>
                  </use>
                  <path fill="none" stroke="white" stroke-width="1.5" d="M0,-3.0v7 M-2.5,-0.5L0,-3.0L2.5,-0.5"/>
                </g>
                <g id="arrowLeft" xlink:href="#dirArrow" transform="rotate(270) translate(-36 17)" onmousedown="handlePan(-1,0)">
                  <use xlink:href="#rim" fill="#404040">
                        <set attributeName="fill" to="#808080" begin="arrowLeft.mouseover" end="arrowLeft.mouseout"/>
                  </use>
                  <path fill="none" stroke="white" stroke-width="1.5" d="M0,-3.0v7 M-2.5,-0.5L0,-3.0L2.5,-0.5"/>
                </g>
        </g>
        <svg viewBox="0 0 15 15" width="100%" height="30px" preserveAspectRatio="xMaxYMin meet">
         <g id="arrow_out" transform="scale(0.3 0.3)">
          <a xlink:href="classcom_1_1cloudera_1_1impala_1_1catalog_1_1AuthorizationPolicy__coll__graph_org.svg" target="_base">
           <rect id="button" ry="5" rx="5" y="6" x="6" height="38" width="38"
                fill="#f2f5e9" fill-opacity="0.5" stroke="#606060" stroke-width="1.0"/>
           <path id="arrow"
             d="M 11.500037,31.436501 C 11.940474,20.09759 22.043105,11.32322 32.158766,21.979434 L 37.068811,17.246167 C 37.068811,17.246167 37.088388,32 37.088388,32 L 22.160133,31.978069 C 22.160133,31.978069 26.997745,27.140456 26.997745,27.140456 C 18.528582,18.264221 13.291696,25.230495 11.500037,31.436501 z"
             style="fill:#404040;"/>
          </a>
         </g>
        </svg>
</svg>
