<?xml version="1.0" encoding="UTF-8" standalone="no"?>
<!DOCTYPE svg PUBLIC "-//W3C//DTD SVG 1.1//EN"
 "http://www.w3.org/Graphics/SVG/1.1/DTD/svg11.dtd">
<!-- Generated by graphviz version 2.36.0 (20140111.2315)
 -->
<!-- Title: com.cloudera.impala.service.DescribeResultFactory Pages: 1 -->
<svg width="211pt" height="216pt"
 viewBox="0.00 0.00 211.00 216.00" xmlns="http://www.w3.org/2000/svg" xmlns:xlink="http://www.w3.org/1999/xlink">
<g id="graph0" class="graph" transform="scale(1 1) rotate(0) translate(4 212)">
<title>com.cloudera.impala.service.DescribeResultFactory</title>
<polygon fill="white" stroke="none" points="-4,4 -4,-212 207,-212 207,4 -4,4"/>
<!-- Node1 -->
<g id="node1" class="node"><title>Node1</title>
<polygon fill="#bfbfbf" stroke="black" points="0,-1 0,-91 144,-91 144,-1 0,-1"/>
<text text-anchor="start" x="8" y="-79" font-family="Helvetica,sans-Serif" font-size="10.00">com.cloudera.impala.service.</text>
<text text-anchor="middle" x="72" y="-68" font-family="Helvetica,sans-Serif" font-size="10.00">DescribeResultFactory</text>
<polyline fill="none" stroke="black" points="0,-61 144,-61 "/>
<text text-anchor="middle" x="72" y="-49" font-family="Helvetica,sans-Serif" font-size="10.00"> </text>
<polyline fill="none" stroke="black" points="0,-42 144,-42 "/>
<text text-anchor="start" x="8" y="-30" font-family="Helvetica,sans-Serif" font-size="10.00">+ buildDescribeTableResult()</text>
<text text-anchor="start" x="8" y="-19" font-family="Helvetica,sans-Serif" font-size="10.00">&#45; describeTableMinimal()</text>
<text text-anchor="start" x="8" y="-8" font-family="Helvetica,sans-Serif" font-size="10.00">&#45; describeTableFormatted()</text>
</g>
<!-- Node2 -->
<g id="node2" class="node"><title>Node2</title>
<polygon fill="white" stroke="#bfbfbf" points="57.5,-150.5 57.5,-207.5 86.5,-207.5 86.5,-150.5 57.5,-150.5"/>
<text text-anchor="middle" x="72" y="-195.5" font-family="Helvetica,sans-Serif" font-size="10.00">int</text>
<polyline fill="none" stroke="#bfbfbf" points="57.5,-188.5 86.5,-188.5 "/>
<text text-anchor="middle" x="72" y="-176.5" font-family="Helvetica,sans-Serif" font-size="10.00"> </text>
<polyline fill="none" stroke="#bfbfbf" points="57.5,-169.5 86.5,-169.5 "/>
<text text-anchor="middle" x="72" y="-157.5" font-family="Helvetica,sans-Serif" font-size="10.00"> </text>
</g>
<!-- Node2&#45;&gt;Node1 -->
<g id="edge1" class="edge"><title>Node2&#45;&gt;Node1</title>
<path fill="none" stroke="#404040" d="M72,-150.218C72,-136.573 72,-119.614 72,-103.412"/>
<polygon fill="none" stroke="#404040" points="72.0001,-103.236 68,-97.2365 72,-91.2365 76,-97.2364 72.0001,-103.236"/>
<text text-anchor="start" x="72" y="-124" font-family="Helvetica,sans-Serif" font-size="10.00"> &#45;NUM_DESC_FORMATTED</text>
<text text-anchor="middle" x="137.5" y="-113" font-family="Helvetica,sans-Serif" font-size="10.00">_RESULT_COLS</text>
</g>
</g>
</svg>
