<?xml version="1.0" encoding="UTF-8" standalone="no"?>
<!DOCTYPE svg PUBLIC "-//W3C//DTD SVG 1.1//EN"
 "http://www.w3.org/Graphics/SVG/1.1/DTD/svg11.dtd">
<!-- Generated by graphviz version 2.36.0 (20140111.2315)
 -->
<!-- Title: com.cloudera.impala.analysis.ShowDbsStmt Pages: 1 -->
<svg width="298pt" height="410pt"
 viewBox="0.00 0.00 298.00 410.00" xmlns="http://www.w3.org/2000/svg" xmlns:xlink="http://www.w3.org/1999/xlink">
<g id="graph0" class="graph" transform="scale(1 1) rotate(0) translate(4 406)">
<title>com.cloudera.impala.analysis.ShowDbsStmt</title>
<polygon fill="white" stroke="none" points="-4,4 -4,-406 294,-406 294,4 -4,4"/>
<!-- Node1 -->
<g id="node1" class="node"><title>Node1</title>
<polygon fill="#bfbfbf" stroke="black" points="141.5,-0.5 141.5,-123.5 290.5,-123.5 290.5,-0.5 141.5,-0.5"/>
<text text-anchor="start" x="149.5" y="-111.5" font-family="Helvetica,sans-Serif" font-size="10.00">com.cloudera.impala.analysis.</text>
<text text-anchor="middle" x="216" y="-100.5" font-family="Helvetica,sans-Serif" font-size="10.00">ShowDbsStmt</text>
<polyline fill="none" stroke="black" points="141.5,-93.5 290.5,-93.5 "/>
<text text-anchor="middle" x="216" y="-81.5" font-family="Helvetica,sans-Serif" font-size="10.00"> </text>
<polyline fill="none" stroke="black" points="141.5,-74.5 290.5,-74.5 "/>
<text text-anchor="start" x="149.5" y="-62.5" font-family="Helvetica,sans-Serif" font-size="10.00">+ ShowDbsStmt()</text>
<text text-anchor="start" x="149.5" y="-51.5" font-family="Helvetica,sans-Serif" font-size="10.00">+ ShowDbsStmt()</text>
<text text-anchor="start" x="149.5" y="-40.5" font-family="Helvetica,sans-Serif" font-size="10.00">+ getPattern()</text>
<text text-anchor="start" x="149.5" y="-29.5" font-family="Helvetica,sans-Serif" font-size="10.00">+ toSql()</text>
<text text-anchor="start" x="149.5" y="-18.5" font-family="Helvetica,sans-Serif" font-size="10.00">+ analyze()</text>
<text text-anchor="start" x="149.5" y="-7.5" font-family="Helvetica,sans-Serif" font-size="10.00">+ toThrift()</text>
</g>
<!-- Node2 -->
<g id="node2" class="node"><title>Node2</title>
<g id="a_node2"><a xlink:href="classcom_1_1cloudera_1_1impala_1_1analysis_1_1StatementBase.html" target="_top" xlink:title="{com.cloudera.impala.analysis.\lStatementBase\n||+ analyze()\l+ toSql()\l+ setIsExplain()\l+ isExplain()\l}">
<polygon fill="white" stroke="black" points="57.5,-172.5 57.5,-273.5 206.5,-273.5 206.5,-172.5 57.5,-172.5"/>
<text text-anchor="start" x="65.5" y="-261.5" font-family="Helvetica,sans-Serif" font-size="10.00">com.cloudera.impala.analysis.</text>
<text text-anchor="middle" x="132" y="-250.5" font-family="Helvetica,sans-Serif" font-size="10.00">StatementBase</text>
<polyline fill="none" stroke="black" points="57.5,-243.5 206.5,-243.5 "/>
<text text-anchor="middle" x="132" y="-231.5" font-family="Helvetica,sans-Serif" font-size="10.00"> </text>
<polyline fill="none" stroke="black" points="57.5,-224.5 206.5,-224.5 "/>
<text text-anchor="start" x="65.5" y="-212.5" font-family="Helvetica,sans-Serif" font-size="10.00">+ analyze()</text>
<text text-anchor="start" x="65.5" y="-201.5" font-family="Helvetica,sans-Serif" font-size="10.00">+ toSql()</text>
<text text-anchor="start" x="65.5" y="-190.5" font-family="Helvetica,sans-Serif" font-size="10.00">+ setIsExplain()</text>
<text text-anchor="start" x="65.5" y="-179.5" font-family="Helvetica,sans-Serif" font-size="10.00">+ isExplain()</text>
</a>
</g>
</g>
<!-- Node2&#45;&gt;Node1 -->
<g id="edge1" class="edge"><title>Node2&#45;&gt;Node1</title>
<path fill="none" stroke="midnightblue" d="M163.206,-162.932C169.99,-150.09 177.178,-136.485 183.993,-123.585"/>
<polygon fill="none" stroke="midnightblue" points="159.924,-161.651 158.348,-172.128 166.114,-164.921 159.924,-161.651"/>
</g>
<!-- Node3 -->
<g id="node3" class="node"><title>Node3</title>
<g id="a_node3"><a xlink:href="interfacecom_1_1cloudera_1_1impala_1_1analysis_1_1ParseNode.html" target="_top" xlink:title="{com.cloudera.impala.analysis.\lParseNode\n||+ analyze()\l+ toSql()\l}">
<polygon fill="white" stroke="black" points="-0.5,-322.5 -0.5,-401.5 148.5,-401.5 148.5,-322.5 -0.5,-322.5"/>
<text text-anchor="start" x="7.5" y="-389.5" font-family="Helvetica,sans-Serif" font-size="10.00">com.cloudera.impala.analysis.</text>
<text text-anchor="middle" x="74" y="-378.5" font-family="Helvetica,sans-Serif" font-size="10.00">ParseNode</text>
<polyline fill="none" stroke="black" points="-0.5,-371.5 148.5,-371.5 "/>
<text text-anchor="middle" x="74" y="-359.5" font-family="Helvetica,sans-Serif" font-size="10.00"> </text>
<polyline fill="none" stroke="black" points="-0.5,-352.5 148.5,-352.5 "/>
<text text-anchor="start" x="7.5" y="-340.5" font-family="Helvetica,sans-Serif" font-size="10.00">+ analyze()</text>
<text text-anchor="start" x="7.5" y="-329.5" font-family="Helvetica,sans-Serif" font-size="10.00">+ toSql()</text>
</a>
</g>
</g>
<!-- Node3&#45;&gt;Node2 -->
<g id="edge2" class="edge"><title>Node3&#45;&gt;Node2</title>
<path fill="none" stroke="midnightblue" d="M94.3451,-312.943C99.7521,-300.172 105.601,-286.356 111.04,-273.509"/>
<polygon fill="none" stroke="midnightblue" points="90.9862,-311.9 90.3106,-322.473 97.4323,-314.629 90.9862,-311.9"/>
</g>
<!-- Node4 -->
<g id="node4" class="node"><title>Node4</title>
<polygon fill="white" stroke="#bfbfbf" points="166,-333.5 166,-390.5 216,-390.5 216,-333.5 166,-333.5"/>
<text text-anchor="middle" x="191" y="-378.5" font-family="Helvetica,sans-Serif" font-size="10.00">boolean</text>
<polyline fill="none" stroke="#bfbfbf" points="166,-371.5 216,-371.5 "/>
<text text-anchor="middle" x="191" y="-359.5" font-family="Helvetica,sans-Serif" font-size="10.00"> </text>
<polyline fill="none" stroke="#bfbfbf" points="166,-352.5 216,-352.5 "/>
<text text-anchor="middle" x="191" y="-340.5" font-family="Helvetica,sans-Serif" font-size="10.00"> </text>
</g>
<!-- Node4&#45;&gt;Node2 -->
<g id="edge3" class="edge"><title>Node4&#45;&gt;Node2</title>
<path fill="none" stroke="#404040" d="M179.06,-333.276C173.011,-319.23 165.413,-301.587 158.098,-284.601"/>
<polygon fill="none" stroke="#404040" points="158.098,-284.6 152.051,-280.671 153.351,-273.578 159.398,-277.507 158.098,-284.6"/>
<text text-anchor="middle" x="193" y="-295.5" font-family="Helvetica,sans-Serif" font-size="10.00"> #isExplain_</text>
</g>
<!-- Node5 -->
<g id="node5" class="node"><title>Node5</title>
<polygon fill="white" stroke="#bfbfbf" points="224,-194.5 224,-251.5 266,-251.5 266,-194.5 224,-194.5"/>
<text text-anchor="middle" x="245" y="-239.5" font-family="Helvetica,sans-Serif" font-size="10.00">String</text>
<polyline fill="none" stroke="#bfbfbf" points="224,-232.5 266,-232.5 "/>
<text text-anchor="middle" x="245" y="-220.5" font-family="Helvetica,sans-Serif" font-size="10.00"> </text>
<polyline fill="none" stroke="#bfbfbf" points="224,-213.5 266,-213.5 "/>
<text text-anchor="middle" x="245" y="-201.5" font-family="Helvetica,sans-Serif" font-size="10.00"> </text>
</g>
<!-- Node5&#45;&gt;Node1 -->
<g id="edge4" class="edge"><title>Node5&#45;&gt;Node1</title>
<path fill="none" stroke="#404040" d="M239.949,-194.304C236.964,-177.94 233.033,-156.388 229.221,-135.488"/>
<polygon fill="none" stroke="#404040" points="229.214,-135.448 224.202,-130.263 227.061,-123.643 232.072,-128.828 229.214,-135.448"/>
<text text-anchor="middle" x="253" y="-145.5" font-family="Helvetica,sans-Serif" font-size="10.00"> &#45;pattern_</text>
</g>
</g>
</svg>
