<?xml version="1.0" encoding="UTF-8" standalone="no"?>
<!DOCTYPE svg PUBLIC "-//W3C//DTD SVG 1.1//EN"
 "http://www.w3.org/Graphics/SVG/1.1/DTD/svg11.dtd">
<!-- Generated by graphviz version 2.36.0 (20140111.2315)
 -->
<!-- Title: com.cloudera.impala.catalog.CatalogException Pages: 1 -->
<!--zoomable 470 -->
<svg id="main" version="1.1" xmlns="http://www.w3.org/2000/svg" xmlns:xlink="http://www.w3.org/1999/xlink" xml:space="preserve" onload="init(evt)">
<style type="text/css"><![CDATA[
.edge:hover path { stroke: red; }
.edge:hover polygon { stroke: red; fill: red; }
]]></style>
<script type="text/javascript"><![CDATA[
var edges = document.getElementsByTagName('g');
if (edges && edges.length) {
  for (var i=0;i<edges.length;i++) {
    if (edges[i].id.substr(0,4)=='edge') {
      edges[i].setAttribute('class','edge');
    }
  }
}
]]></script>
        <defs>
                <circle id="rim" cx="0" cy="0" r="7"/>
                <circle id="rim2" cx="0" cy="0" r="3.5"/>
                <g id="zoomPlus">
                        <use xlink:href="#rim" fill="#404040">
                                <set attributeName="fill" to="#808080" begin="zoomplus.mouseover" end="zoomplus.mouseout"/>
                        </use>
                        <path d="M-4,0h8M0,-4v8" fill="none" stroke="white" stroke-width="1.5" pointer-events="none"/>
                </g>
                <g id="zoomMin">
                        <use xlink:href="#rim" fill="#404040">
                                <set attributeName="fill" to="#808080" begin="zoomminus.mouseover" end="zoomminus.mouseout"/>
                        </use>
                        <path d="M-4,0h8" fill="none" stroke="white" stroke-width="1.5" pointer-events="none"/>
                </g>
                <g id="dirArrow">
                        <path fill="none" stroke="white" stroke-width="1.5" d="M0,-3.0v7 M-2.5,-0.5L0,-3.0L2.5,-0.5"/>
                </g>
               <g id="resetDef">
                       <use xlink:href="#rim2" fill="#404040">
                               <set attributeName="fill" to="#808080" begin="reset.mouseover" end="reset.mouseout"/>
                       </use>
               </g>
        </defs>

<script type="text/javascript">
var viewWidth = 1196;
var viewHeight = 470;
var sectionId = 'dynsection-0';
</script>
<script xlink:href="svgpan.js"/>
<svg id="graph" class="graph">
<g id="viewport">
<title>com.cloudera.impala.catalog.CatalogException</title>
<polygon fill="white" stroke="none" points="-4,4 -4,-466 1192,-466 1192,4 -4,4"/>
<!-- Node1 -->
<g id="node1" class="node"><title>Node1</title>
<polygon fill="#bfbfbf" stroke="black" points="529,-172.5 529,-251.5 673,-251.5 673,-172.5 529,-172.5"/>
<text text-anchor="start" x="537" y="-239.5" font-family="Helvetica,sans-Serif" font-size="10.00">com.cloudera.impala.catalog.</text>
<text text-anchor="middle" x="601" y="-228.5" font-family="Helvetica,sans-Serif" font-size="10.00">CatalogException</text>
<polyline fill="none" stroke="black" points="529,-221.5 673,-221.5 "/>
<text text-anchor="start" x="537" y="-209.5" font-family="Helvetica,sans-Serif" font-size="10.00">&#45; serialVersionUID</text>
<polyline fill="none" stroke="black" points="529,-202.5 673,-202.5 "/>
<text text-anchor="start" x="537" y="-190.5" font-family="Helvetica,sans-Serif" font-size="10.00">+ CatalogException()</text>
<text text-anchor="start" x="537" y="-179.5" font-family="Helvetica,sans-Serif" font-size="10.00">+ CatalogException()</text>
</g>
<!-- Node4 -->
<g id="node4" class="node"><title>Node4</title>
<g id="a_node4"><a xlink:href="classcom_1_1cloudera_1_1impala_1_1catalog_1_1AuthorizationException.html" target="_top" xlink:title="{com.cloudera.impala.catalog.\lAuthorizationException\n||+ AuthorizationException()\l+ AuthorizationException()\l}">
<polygon fill="white" stroke="black" points="0,-28.5 0,-107.5 144,-107.5 144,-28.5 0,-28.5"/>
<text text-anchor="start" x="8" y="-95.5" font-family="Helvetica,sans-Serif" font-size="10.00">com.cloudera.impala.catalog.</text>
<text text-anchor="middle" x="72" y="-84.5" font-family="Helvetica,sans-Serif" font-size="10.00">AuthorizationException</text>
<polyline fill="none" stroke="black" points="0,-77.5 144,-77.5 "/>
<text text-anchor="middle" x="72" y="-65.5" font-family="Helvetica,sans-Serif" font-size="10.00"> </text>
<polyline fill="none" stroke="black" points="0,-58.5 144,-58.5 "/>
<text text-anchor="start" x="8" y="-46.5" font-family="Helvetica,sans-Serif" font-size="10.00">+ AuthorizationException()</text>
<text text-anchor="start" x="8" y="-35.5" font-family="Helvetica,sans-Serif" font-size="10.00">+ AuthorizationException()</text>
</a>
</g>
</g>
<!-- Node1&#45;&gt;Node4 -->
<g id="edge3" class="edge"><title>Node1&#45;&gt;Node4</title>
<path fill="none" stroke="midnightblue" d="M518.822,-209.913C426.032,-205.873 272.438,-190.557 153,-136 137.728,-129.024 122.972,-118.409 110.333,-107.671"/>
<polygon fill="none" stroke="midnightblue" points="518.863,-213.418 528.996,-210.322 519.144,-206.423 518.863,-213.418"/>
</g>
<!-- Node5 -->
<g id="node5" class="node"><title>Node5</title>
<g id="a_node5"><a xlink:href="classcom_1_1cloudera_1_1impala_1_1catalog_1_1ColumnNotFoundException.html" target="_top" xlink:title="{com.cloudera.impala.catalog.\lColumnNotFoundException\n|&#45; serialVersionUID\l|+ ColumnNotFoundException()\l+ ColumnNotFoundException()\l}">
<polygon fill="white" stroke="black" points="162,-28.5 162,-107.5 314,-107.5 314,-28.5 162,-28.5"/>
<text text-anchor="start" x="170" y="-95.5" font-family="Helvetica,sans-Serif" font-size="10.00">com.cloudera.impala.catalog.</text>
<text text-anchor="middle" x="238" y="-84.5" font-family="Helvetica,sans-Serif" font-size="10.00">ColumnNotFoundException</text>
<polyline fill="none" stroke="black" points="162,-77.5 314,-77.5 "/>
<text text-anchor="start" x="170" y="-65.5" font-family="Helvetica,sans-Serif" font-size="10.00">&#45; serialVersionUID</text>
<polyline fill="none" stroke="black" points="162,-58.5 314,-58.5 "/>
<text text-anchor="start" x="170" y="-46.5" font-family="Helvetica,sans-Serif" font-size="10.00">+ ColumnNotFoundException()</text>
<text text-anchor="start" x="170" y="-35.5" font-family="Helvetica,sans-Serif" font-size="10.00">+ ColumnNotFoundException()</text>
</a>
</g>
</g>
<!-- Node1&#45;&gt;Node5 -->
<g id="edge4" class="edge"><title>Node1&#45;&gt;Node5</title>
<path fill="none" stroke="midnightblue" d="M518.671,-197.845C461.614,-186.596 385.051,-167.171 323,-136 308.056,-128.493 293.23,-118.108 280.245,-107.753"/>
<polygon fill="none" stroke="midnightblue" points="518.248,-201.328 528.73,-199.784 519.573,-194.455 518.248,-201.328"/>
</g>
<!-- Node6 -->
<g id="node6" class="node"><title>Node6</title>
<g id="a_node6"><a xlink:href="classcom_1_1cloudera_1_1impala_1_1catalog_1_1DatabaseNotFoundException.html" target="_top" xlink:title="{com.cloudera.impala.catalog.\lDatabaseNotFoundException\n|&#45; serialVersionUID\l|+ DatabaseNotFoundException()\l}">
<polygon fill="white" stroke="black" points="332,-34 332,-102 492,-102 492,-34 332,-34"/>
<text text-anchor="start" x="340" y="-90" font-family="Helvetica,sans-Serif" font-size="10.00">com.cloudera.impala.catalog.</text>
<text text-anchor="middle" x="412" y="-79" font-family="Helvetica,sans-Serif" font-size="10.00">DatabaseNotFoundException</text>
<polyline fill="none" stroke="black" points="332,-72 492,-72 "/>
<text text-anchor="start" x="340" y="-60" font-family="Helvetica,sans-Serif" font-size="10.00">&#45; serialVersionUID</text>
<polyline fill="none" stroke="black" points="332,-53 492,-53 "/>
<text text-anchor="start" x="340" y="-41" font-family="Helvetica,sans-Serif" font-size="10.00">+ DatabaseNotFoundException()</text>
</a>
</g>
</g>
<!-- Node1&#45;&gt;Node6 -->
<g id="edge5" class="edge"><title>Node1&#45;&gt;Node6</title>
<path fill="none" stroke="midnightblue" d="M541.424,-166.346C528.117,-156.364 514.074,-145.824 501,-136 486.311,-124.963 470.268,-112.891 455.899,-102.072"/>
<polygon fill="none" stroke="midnightblue" points="539.5,-169.277 549.6,-172.478 543.7,-163.678 539.5,-169.277"/>
</g>
<!-- Node7 -->
<g id="node7" class="node"><title>Node7</title>
<g id="a_node7"><a xlink:href="classcom_1_1cloudera_1_1impala_1_1catalog_1_1HdfsStorageDescriptor_1_1InvalidStorageDescriptorException.html" target="_top" xlink:title="{com.cloudera.impala.catalog.\lHdfsStorageDescriptor.InvalidStorage\lDescriptorException\n|&#45; serialVersionUID\l|+ InvalidStorageDescriptor\lException()\l+ InvalidStorageDescriptor\lException()\l+ InvalidStorageDescriptor\lException()\l}">
<polygon fill="white" stroke="black" points="510,-1 510,-135 692,-135 692,-1 510,-1"/>
<text text-anchor="start" x="518" y="-123" font-family="Helvetica,sans-Serif" font-size="10.00">com.cloudera.impala.catalog.</text>
<text text-anchor="start" x="518" y="-112" font-family="Helvetica,sans-Serif" font-size="10.00">HdfsStorageDescriptor.InvalidStorage</text>
<text text-anchor="middle" x="601" y="-101" font-family="Helvetica,sans-Serif" font-size="10.00">DescriptorException</text>
<polyline fill="none" stroke="black" points="510,-94 692,-94 "/>
<text text-anchor="start" x="518" y="-82" font-family="Helvetica,sans-Serif" font-size="10.00">&#45; serialVersionUID</text>
<polyline fill="none" stroke="black" points="510,-75 692,-75 "/>
<text text-anchor="start" x="518" y="-63" font-family="Helvetica,sans-Serif" font-size="10.00">+ InvalidStorageDescriptor</text>
<text text-anchor="start" x="518" y="-52" font-family="Helvetica,sans-Serif" font-size="10.00">Exception()</text>
<text text-anchor="start" x="518" y="-41" font-family="Helvetica,sans-Serif" font-size="10.00">+ InvalidStorageDescriptor</text>
<text text-anchor="start" x="518" y="-30" font-family="Helvetica,sans-Serif" font-size="10.00">Exception()</text>
<text text-anchor="start" x="518" y="-19" font-family="Helvetica,sans-Serif" font-size="10.00">+ InvalidStorageDescriptor</text>
<text text-anchor="start" x="518" y="-8" font-family="Helvetica,sans-Serif" font-size="10.00">Exception()</text>
</a>
</g>
</g>
<!-- Node1&#45;&gt;Node7 -->
<g id="edge6" class="edge"><title>Node1&#45;&gt;Node7</title>
<path fill="none" stroke="midnightblue" d="M601,-162.195C601,-153.448 601,-144.201 601,-135.063"/>
<polygon fill="none" stroke="midnightblue" points="597.5,-162.198 601,-172.198 604.5,-162.198 597.5,-162.198"/>
</g>
<!-- Node8 -->
<g id="node8" class="node"><title>Node8</title>
<g id="a_node8"><a xlink:href="classcom_1_1cloudera_1_1impala_1_1catalog_1_1PartitionNotFoundException.html" target="_top" xlink:title="{com.cloudera.impala.catalog.\lPartitionNotFoundException\n|&#45; serialVersionUID\l|+ PartitionNotFoundException()\l+ PartitionNotFoundException()\l}">
<polygon fill="white" stroke="black" points="710,-28.5 710,-107.5 864,-107.5 864,-28.5 710,-28.5"/>
<text text-anchor="start" x="718" y="-95.5" font-family="Helvetica,sans-Serif" font-size="10.00">com.cloudera.impala.catalog.</text>
<text text-anchor="middle" x="787" y="-84.5" font-family="Helvetica,sans-Serif" font-size="10.00">PartitionNotFoundException</text>
<polyline fill="none" stroke="black" points="710,-77.5 864,-77.5 "/>
<text text-anchor="start" x="718" y="-65.5" font-family="Helvetica,sans-Serif" font-size="10.00">&#45; serialVersionUID</text>
<polyline fill="none" stroke="black" points="710,-58.5 864,-58.5 "/>
<text text-anchor="start" x="718" y="-46.5" font-family="Helvetica,sans-Serif" font-size="10.00">+ PartitionNotFoundException()</text>
<text text-anchor="start" x="718" y="-35.5" font-family="Helvetica,sans-Serif" font-size="10.00">+ PartitionNotFoundException()</text>
</a>
</g>
</g>
<!-- Node1&#45;&gt;Node8 -->
<g id="edge7" class="edge"><title>Node1&#45;&gt;Node8</title>
<path fill="none" stroke="midnightblue" d="M660.917,-166.342C674.152,-156.399 688.079,-145.877 701,-136 712.879,-126.919 725.616,-117.063 737.551,-107.774"/>
<polygon fill="none" stroke="midnightblue" points="658.679,-163.646 652.781,-172.447 662.88,-169.245 658.679,-163.646"/>
</g>
<!-- Node9 -->
<g id="node9" class="node"><title>Node9</title>
<g id="a_node9"><a xlink:href="classcom_1_1cloudera_1_1impala_1_1catalog_1_1TableLoadingException.html" target="_top" xlink:title="{com.cloudera.impala.catalog.\lTableLoadingException\n|&#45; serialVersionUID\l|+ TableLoadingException()\l+ TableLoadingException()\l}">
<polygon fill="white" stroke="black" points="882,-28.5 882,-107.5 1026,-107.5 1026,-28.5 882,-28.5"/>
<text text-anchor="start" x="890" y="-95.5" font-family="Helvetica,sans-Serif" font-size="10.00">com.cloudera.impala.catalog.</text>
<text text-anchor="middle" x="954" y="-84.5" font-family="Helvetica,sans-Serif" font-size="10.00">TableLoadingException</text>
<polyline fill="none" stroke="black" points="882,-77.5 1026,-77.5 "/>
<text text-anchor="start" x="890" y="-65.5" font-family="Helvetica,sans-Serif" font-size="10.00">&#45; serialVersionUID</text>
<polyline fill="none" stroke="black" points="882,-58.5 1026,-58.5 "/>
<text text-anchor="start" x="890" y="-46.5" font-family="Helvetica,sans-Serif" font-size="10.00">+ TableLoadingException()</text>
<text text-anchor="start" x="890" y="-35.5" font-family="Helvetica,sans-Serif" font-size="10.00">+ TableLoadingException()</text>
</a>
</g>
</g>
<!-- Node1&#45;&gt;Node9 -->
<g id="edge8" class="edge"><title>Node1&#45;&gt;Node9</title>
<path fill="none" stroke="midnightblue" d="M682.919,-197.776C738.723,-186.565 813.057,-167.212 873,-136 887.406,-128.499 901.586,-118.115 913.955,-107.76"/>
<polygon fill="none" stroke="midnightblue" points="682.214,-194.348 673.075,-199.709 683.562,-201.217 682.214,-194.348"/>
</g>
<!-- Node10 -->
<g id="node10" class="node"><title>Node10</title>
<g id="a_node10"><a xlink:href="classcom_1_1cloudera_1_1impala_1_1catalog_1_1TableNotFoundException.html" target="_top" xlink:title="{com.cloudera.impala.catalog.\lTableNotFoundException\n|&#45; serialVersionUID\l|+ TableNotFoundException()\l+ TableNotFoundException()\l}">
<polygon fill="white" stroke="black" points="1044,-28.5 1044,-107.5 1188,-107.5 1188,-28.5 1044,-28.5"/>
<text text-anchor="start" x="1052" y="-95.5" font-family="Helvetica,sans-Serif" font-size="10.00">com.cloudera.impala.catalog.</text>
<text text-anchor="middle" x="1116" y="-84.5" font-family="Helvetica,sans-Serif" font-size="10.00">TableNotFoundException</text>
<polyline fill="none" stroke="black" points="1044,-77.5 1188,-77.5 "/>
<text text-anchor="start" x="1052" y="-65.5" font-family="Helvetica,sans-Serif" font-size="10.00">&#45; serialVersionUID</text>
<polyline fill="none" stroke="black" points="1044,-58.5 1188,-58.5 "/>
<text text-anchor="start" x="1052" y="-46.5" font-family="Helvetica,sans-Serif" font-size="10.00">+ TableNotFoundException()</text>
<text text-anchor="start" x="1052" y="-35.5" font-family="Helvetica,sans-Serif" font-size="10.00">+ TableNotFoundException()</text>
</a>
</g>
</g>
<!-- Node1&#45;&gt;Node10 -->
<g id="edge9" class="edge"><title>Node1&#45;&gt;Node10</title>
<path fill="none" stroke="midnightblue" d="M683.253,-209.283C773.406,-204.618 920.451,-188.688 1035,-136 1050.25,-128.984 1065,-118.358 1077.64,-107.622"/>
<polygon fill="none" stroke="midnightblue" points="682.907,-205.796 673.088,-209.774 683.245,-212.788 682.907,-205.796"/>
</g>
<!-- Node2 -->
<g id="node2" class="node"><title>Node2</title>
<g id="a_node2"><a xlink:href="classcom_1_1cloudera_1_1impala_1_1common_1_1ImpalaException.html" target="_top" xlink:title="{com.cloudera.impala.common.\lImpalaException\n||+ ImpalaException()\l# ImpalaException()\l}">
<polygon fill="white" stroke="black" points="526,-288.5 526,-367.5 676,-367.5 676,-288.5 526,-288.5"/>
<text text-anchor="start" x="534" y="-355.5" font-family="Helvetica,sans-Serif" font-size="10.00">com.cloudera.impala.common.</text>
<text text-anchor="middle" x="601" y="-344.5" font-family="Helvetica,sans-Serif" font-size="10.00">ImpalaException</text>
<polyline fill="none" stroke="black" points="526,-337.5 676,-337.5 "/>
<text text-anchor="middle" x="601" y="-325.5" font-family="Helvetica,sans-Serif" font-size="10.00"> </text>
<polyline fill="none" stroke="black" points="526,-318.5 676,-318.5 "/>
<text text-anchor="start" x="534" y="-306.5" font-family="Helvetica,sans-Serif" font-size="10.00">+ ImpalaException()</text>
<text text-anchor="start" x="534" y="-295.5" font-family="Helvetica,sans-Serif" font-size="10.00"># ImpalaException()</text>
</a>
</g>
</g>
<!-- Node2&#45;&gt;Node1 -->
<g id="edge1" class="edge"><title>Node2&#45;&gt;Node1</title>
<path fill="none" stroke="midnightblue" d="M601,-278.146C601,-269.256 601,-260.096 601,-251.555"/>
<polygon fill="none" stroke="midnightblue" points="597.5,-278.405 601,-288.405 604.5,-278.405 597.5,-278.405"/>
</g>
<!-- Node3 -->
<g id="node3" class="node"><title>Node3</title>
<polygon fill="white" stroke="#bfbfbf" points="547,-404.5 547,-461.5 655,-461.5 655,-404.5 547,-404.5"/>
<text text-anchor="middle" x="601" y="-449.5" font-family="Helvetica,sans-Serif" font-size="10.00">java::lang::Exception</text>
<polyline fill="none" stroke="#bfbfbf" points="547,-442.5 655,-442.5 "/>
<text text-anchor="middle" x="601" y="-430.5" font-family="Helvetica,sans-Serif" font-size="10.00"> </text>
<polyline fill="none" stroke="#bfbfbf" points="547,-423.5 655,-423.5 "/>
<text text-anchor="middle" x="601" y="-411.5" font-family="Helvetica,sans-Serif" font-size="10.00"> </text>
</g>
<!-- Node3&#45;&gt;Node2 -->
<g id="edge2" class="edge"><title>Node3&#45;&gt;Node2</title>
<path fill="none" stroke="midnightblue" d="M601,-394.156C601,-385.473 601,-376.232 601,-367.52"/>
<polygon fill="none" stroke="midnightblue" points="597.5,-394.398 601,-404.398 604.5,-394.398 597.5,-394.398"/>
</g>
</g>
</svg>
        <g id="navigator" transform="translate(0 0)" fill="#404254">
                <rect fill="#f2f5e9" fill-opacity="0.5" stroke="#606060" stroke-width=".5" x="0" y="0" width="60" height="60"/>
                <use id="zoomplus" xlink:href="#zoomPlus" x="17" y="9" onmousedown="handleZoom(evt,'in')"/>
                <use id="zoomminus" xlink:href="#zoomMin" x="42" y="9" onmousedown="handleZoom(evt,'out')"/>
                <use id="reset" xlink:href="#resetDef" x="30" y="36" onmousedown="handleReset()"/>
                <g id="arrowUp" xlink:href="#dirArrow" transform="translate(30 24)" onmousedown="handlePan(0,-1)">
                  <use xlink:href="#rim" fill="#404040">
                        <set attributeName="fill" to="#808080" begin="arrowUp.mouseover" end="arrowUp.mouseout"/>
                  </use>
                  <path fill="none" stroke="white" stroke-width="1.5" d="M0,-3.0v7 M-2.5,-0.5L0,-3.0L2.5,-0.5"/>
                </g>
                <g id="arrowRight" xlink:href="#dirArrow" transform="rotate(90) translate(36 -43)" onmousedown="handlePan(1,0)">
                  <use xlink:href="#rim" fill="#404040">
                        <set attributeName="fill" to="#808080" begin="arrowRight.mouseover" end="arrowRight.mouseout"/>
                  </use>
                  <path fill="none" stroke="white" stroke-width="1.5" d="M0,-3.0v7 M-2.5,-0.5L0,-3.0L2.5,-0.5"/>
                </g>
                <g id="arrowDown" xlink:href="#dirArrow" transform="rotate(180) translate(-30 -48)" onmousedown="handlePan(0,1)">
                  <use xlink:href="#rim" fill="#404040">
                        <set attributeName="fill" to="#808080" begin="arrowDown.mouseover" end="arrowDown.mouseout"/>
                  </use>
                  <path fill="none" stroke="white" stroke-width="1.5" d="M0,-3.0v7 M-2.5,-0.5L0,-3.0L2.5,-0.5"/>
                </g>
                <g id="arrowLeft" xlink:href="#dirArrow" transform="rotate(270) translate(-36 17)" onmousedown="handlePan(-1,0)">
                  <use xlink:href="#rim" fill="#404040">
                        <set attributeName="fill" to="#808080" begin="arrowLeft.mouseover" end="arrowLeft.mouseout"/>
                  </use>
                  <path fill="none" stroke="white" stroke-width="1.5" d="M0,-3.0v7 M-2.5,-0.5L0,-3.0L2.5,-0.5"/>
                </g>
        </g>
        <svg viewBox="0 0 15 15" width="100%" height="30px" preserveAspectRatio="xMaxYMin meet">
         <g id="arrow_out" transform="scale(0.3 0.3)">
          <a xlink:href="classcom_1_1cloudera_1_1impala_1_1catalog_1_1CatalogException__inherit__graph_org.svg" target="_base">
           <rect id="button" ry="5" rx="5" y="6" x="6" height="38" width="38"
                fill="#f2f5e9" fill-opacity="0.5" stroke="#606060" stroke-width="1.0"/>
           <path id="arrow"
             d="M 11.500037,31.436501 C 11.940474,20.09759 22.043105,11.32322 32.158766,21.979434 L 37.068811,17.246167 C 37.068811,17.246167 37.088388,32 37.088388,32 L 22.160133,31.978069 C 22.160133,31.978069 26.997745,27.140456 26.997745,27.140456 C 18.528582,18.264221 13.291696,25.230495 11.500037,31.436501 z"
             style="fill:#404040;"/>
          </a>
         </g>
        </svg>
</svg>
