<?xml version="1.0" encoding="UTF-8" standalone="no"?>
<!DOCTYPE svg PUBLIC "-//W3C//DTD SVG 1.1//EN"
 "http://www.w3.org/Graphics/SVG/1.1/DTD/svg11.dtd">
<!-- Generated by graphviz version 2.36.0 (20140111.2315)
 -->
<!-- Title: be/src/util/codec.h Pages: 1 -->
<svg width="2066pt" height="232pt"
 viewBox="0.00 0.00 2066.00 232.00" xmlns="http://www.w3.org/2000/svg" xmlns:xlink="http://www.w3.org/1999/xlink">
<g id="graph0" class="graph" transform="scale(1 1) rotate(0) translate(4 228)">
<title>be/src/util/codec.h</title>
<polygon fill="white" stroke="none" points="-4,4 -4,-228 2062,-228 2062,4 -4,4"/>
<!-- Node1 -->
<g id="node1" class="node"><title>Node1</title>
<polygon fill="#bfbfbf" stroke="black" points="1115.5,-204.5 1115.5,-223.5 1212.5,-223.5 1212.5,-204.5 1115.5,-204.5"/>
<text text-anchor="middle" x="1164" y="-211.5" font-family="Helvetica,sans-Serif" font-size="10.00">be/src/util/codec.h</text>
</g>
<!-- Node2 -->
<g id="node2" class="node"><title>Node2</title>
<g id="a_node2"><a xlink:href="base-sequence-scanner_8cc.html" target="_top" xlink:title="be/src/exec/base&#45;sequence\l&#45;scanner.cc">
<polygon fill="white" stroke="black" points="-0.5,-137 -0.5,-167 136.5,-167 136.5,-137 -0.5,-137"/>
<text text-anchor="start" x="7.5" y="-155" font-family="Helvetica,sans-Serif" font-size="10.00">be/src/exec/base&#45;sequence</text>
<text text-anchor="middle" x="68" y="-144" font-family="Helvetica,sans-Serif" font-size="10.00">&#45;scanner.cc</text>
</a>
</g>
</g>
<!-- Node1&#45;&gt;Node2 -->
<g id="edge1" class="edge"><title>Node1&#45;&gt;Node2</title>
<path fill="none" stroke="midnightblue" d="M1104.9,-213.444C947.958,-213.962 507.915,-211.121 145,-168 142.295,-167.679 139.543,-167.316 136.767,-166.92"/>
<polygon fill="midnightblue" stroke="midnightblue" points="1105.28,-216.942 1115.27,-213.403 1105.25,-209.942 1105.28,-216.942"/>
</g>
<!-- Node3 -->
<g id="node3" class="node"><title>Node3</title>
<g id="a_node3"><a xlink:href="hdfs-avro-scanner_8cc.html" target="_top" xlink:title="be/src/exec/hdfs&#45;avro\l&#45;scanner.cc">
<polygon fill="white" stroke="black" points="1820.5,-69 1820.5,-99 1931.5,-99 1931.5,-69 1820.5,-69"/>
<text text-anchor="start" x="1828.5" y="-87" font-family="Helvetica,sans-Serif" font-size="10.00">be/src/exec/hdfs&#45;avro</text>
<text text-anchor="middle" x="1876" y="-76" font-family="Helvetica,sans-Serif" font-size="10.00">&#45;scanner.cc</text>
</a>
</g>
</g>
<!-- Node1&#45;&gt;Node3 -->
<g id="edge2" class="edge"><title>Node1&#45;&gt;Node3</title>
<path fill="none" stroke="midnightblue" d="M1222.75,-209.504C1273.53,-204.79 1348.01,-193.759 1408,-168 1430.22,-158.459 1429.41,-144.617 1452,-136 1601.83,-78.8554 1652.78,-126.081 1811,-100 1814.09,-99.4914 1817.24,-98.9233 1820.42,-98.3137"/>
<polygon fill="midnightblue" stroke="midnightblue" points="1222.26,-206.033 1212.6,-210.391 1222.87,-213.006 1222.26,-206.033"/>
</g>
<!-- Node4 -->
<g id="node4" class="node"><title>Node4</title>
<g id="a_node4"><a xlink:href="hdfs-avro-table-writer_8cc.html" target="_top" xlink:title="be/src/exec/hdfs&#45;avro\l&#45;table&#45;writer.cc">
<polygon fill="white" stroke="black" points="154.5,-69 154.5,-99 265.5,-99 265.5,-69 154.5,-69"/>
<text text-anchor="start" x="162.5" y="-87" font-family="Helvetica,sans-Serif" font-size="10.00">be/src/exec/hdfs&#45;avro</text>
<text text-anchor="middle" x="210" y="-76" font-family="Helvetica,sans-Serif" font-size="10.00">&#45;table&#45;writer.cc</text>
</a>
</g>
</g>
<!-- Node1&#45;&gt;Node4 -->
<g id="edge3" class="edge"><title>Node1&#45;&gt;Node4</title>
<path fill="none" stroke="midnightblue" d="M1105.3,-212.011C924.888,-208.679 386.322,-196.437 313,-168 292.096,-159.893 291.435,-150.098 274,-136 258.423,-123.404 240.59,-109.212 227.712,-99.0031"/>
<polygon fill="midnightblue" stroke="midnightblue" points="1105.33,-215.512 1115.39,-212.195 1105.46,-208.513 1105.33,-215.512"/>
</g>
<!-- Node5 -->
<g id="node5" class="node"><title>Node5</title>
<g id="a_node5"><a xlink:href="hdfs-avro-table-writer_8h.html" target="_top" xlink:title="be/src/exec/hdfs&#45;avro\l&#45;table&#45;writer.h">
<polygon fill="white" stroke="black" points="154.5,-137 154.5,-167 265.5,-167 265.5,-137 154.5,-137"/>
<text text-anchor="start" x="162.5" y="-155" font-family="Helvetica,sans-Serif" font-size="10.00">be/src/exec/hdfs&#45;avro</text>
<text text-anchor="middle" x="210" y="-144" font-family="Helvetica,sans-Serif" font-size="10.00">&#45;table&#45;writer.h</text>
</a>
</g>
</g>
<!-- Node1&#45;&gt;Node5 -->
<g id="edge4" class="edge"><title>Node1&#45;&gt;Node5</title>
<path fill="none" stroke="midnightblue" d="M1105.11,-213.251C962.732,-213.152 588.789,-208.677 280,-168 275.318,-167.383 270.483,-166.619 265.644,-165.765"/>
<polygon fill="midnightblue" stroke="midnightblue" points="1105.36,-216.751 1115.36,-213.25 1105.36,-209.751 1105.36,-216.751"/>
</g>
<!-- Node7 -->
<g id="node7" class="node"><title>Node7</title>
<g id="a_node7"><a xlink:href="hdfs-rcfile-scanner_8cc.html" target="_top" xlink:title="be/src/exec/hdfs&#45;rcfile\l&#45;scanner.cc">
<polygon fill="white" stroke="black" points="1494.5,-137 1494.5,-167 1607.5,-167 1607.5,-137 1494.5,-137"/>
<text text-anchor="start" x="1502.5" y="-155" font-family="Helvetica,sans-Serif" font-size="10.00">be/src/exec/hdfs&#45;rcfile</text>
<text text-anchor="middle" x="1551" y="-144" font-family="Helvetica,sans-Serif" font-size="10.00">&#45;scanner.cc</text>
</a>
</g>
</g>
<!-- Node1&#45;&gt;Node7 -->
<g id="edge7" class="edge"><title>Node1&#45;&gt;Node7</title>
<path fill="none" stroke="midnightblue" d="M1222.85,-205.814C1286.45,-197.768 1390.7,-183.773 1480,-168 1484.71,-167.167 1489.59,-166.251 1494.48,-165.295"/>
<polygon fill="midnightblue" stroke="midnightblue" points="1222.1,-202.38 1212.61,-207.101 1222.97,-209.326 1222.1,-202.38"/>
</g>
<!-- Node8 -->
<g id="node8" class="node"><title>Node8</title>
<g id="a_node8"><a xlink:href="hdfs-scanner_8cc.html" target="_top" xlink:title="be/src/exec/hdfs&#45;scanner.cc">
<polygon fill="white" stroke="black" points="1626,-142.5 1626,-161.5 1766,-161.5 1766,-142.5 1626,-142.5"/>
<text text-anchor="middle" x="1696" y="-149.5" font-family="Helvetica,sans-Serif" font-size="10.00">be/src/exec/hdfs&#45;scanner.cc</text>
</a>
</g>
</g>
<!-- Node1&#45;&gt;Node8 -->
<g id="edge8" class="edge"><title>Node1&#45;&gt;Node8</title>
<path fill="none" stroke="midnightblue" d="M1222.8,-208.772C1309.23,-202.189 1475.54,-188.122 1616,-168 1628.45,-166.217 1641.91,-163.86 1654.18,-161.545"/>
<polygon fill="midnightblue" stroke="midnightblue" points="1222.37,-205.294 1212.66,-209.538 1222.9,-212.274 1222.37,-205.294"/>
</g>
<!-- Node9 -->
<g id="node9" class="node"><title>Node9</title>
<g id="a_node9"><a xlink:href="hdfs-sequence-scanner_8cc.html" target="_top" xlink:title="be/src/exec/hdfs&#45;sequence\l&#45;scanner.cc">
<polygon fill="white" stroke="black" points="1784,-137 1784,-167 1918,-167 1918,-137 1784,-137"/>
<text text-anchor="start" x="1792" y="-155" font-family="Helvetica,sans-Serif" font-size="10.00">be/src/exec/hdfs&#45;sequence</text>
<text text-anchor="middle" x="1851" y="-144" font-family="Helvetica,sans-Serif" font-size="10.00">&#45;scanner.cc</text>
</a>
</g>
</g>
<!-- Node1&#45;&gt;Node9 -->
<g id="edge9" class="edge"><title>Node1&#45;&gt;Node9</title>
<path fill="none" stroke="midnightblue" d="M1222.67,-211.048C1331.82,-206.892 1573.33,-195.226 1775,-168 1777.93,-167.604 1780.92,-167.166 1783.94,-166.694"/>
<polygon fill="midnightblue" stroke="midnightblue" points="1222.39,-207.556 1212.52,-211.427 1222.65,-214.551 1222.39,-207.556"/>
</g>
<!-- Node10 -->
<g id="node10" class="node"><title>Node10</title>
<g id="a_node10"><a xlink:href="hdfs-sequence-table-writer_8cc.html" target="_top" xlink:title="be/src/exec/hdfs&#45;sequence\l&#45;table&#45;writer.cc">
<polygon fill="white" stroke="black" points="322,-69 322,-99 456,-99 456,-69 322,-69"/>
<text text-anchor="start" x="330" y="-87" font-family="Helvetica,sans-Serif" font-size="10.00">be/src/exec/hdfs&#45;sequence</text>
<text text-anchor="middle" x="389" y="-76" font-family="Helvetica,sans-Serif" font-size="10.00">&#45;table&#45;writer.cc</text>
</a>
</g>
</g>
<!-- Node1&#45;&gt;Node10 -->
<g id="edge10" class="edge"><title>Node1&#45;&gt;Node10</title>
<path fill="none" stroke="midnightblue" d="M1105.06,-204.176C984.606,-185.988 701.61,-142.462 465,-100 462.088,-99.4774 459.115,-98.9338 456.113,-98.3767"/>
<polygon fill="midnightblue" stroke="midnightblue" points="1104.76,-207.671 1115.17,-205.701 1105.81,-200.749 1104.76,-207.671"/>
</g>
<!-- Node11 -->
<g id="node11" class="node"><title>Node11</title>
<g id="a_node11"><a xlink:href="hdfs-sequence-table-writer_8h.html" target="_top" xlink:title="be/src/exec/hdfs&#45;sequence\l&#45;table&#45;writer.h">
<polygon fill="white" stroke="black" points="322,-137 322,-167 456,-167 456,-137 322,-137"/>
<text text-anchor="start" x="330" y="-155" font-family="Helvetica,sans-Serif" font-size="10.00">be/src/exec/hdfs&#45;sequence</text>
<text text-anchor="middle" x="389" y="-144" font-family="Helvetica,sans-Serif" font-size="10.00">&#45;table&#45;writer.h</text>
</a>
</g>
</g>
<!-- Node1&#45;&gt;Node11 -->
<g id="edge11" class="edge"><title>Node1&#45;&gt;Node11</title>
<path fill="none" stroke="midnightblue" d="M1105.02,-208.434C963.524,-197.479 605.508,-169.762 456.103,-158.195"/>
<polygon fill="midnightblue" stroke="midnightblue" points="1104.99,-211.942 1115.23,-209.224 1105.53,-204.962 1104.99,-211.942"/>
</g>
<!-- Node12 -->
<g id="node12" class="node"><title>Node12</title>
<g id="a_node12"><a xlink:href="hdfs-text-scanner_8cc.html" target="_top" xlink:title="be/src/exec/hdfs&#45;text\l&#45;scanner.cc">
<polygon fill="white" stroke="black" points="1949.5,-69 1949.5,-99 2058.5,-99 2058.5,-69 1949.5,-69"/>
<text text-anchor="start" x="1957.5" y="-87" font-family="Helvetica,sans-Serif" font-size="10.00">be/src/exec/hdfs&#45;text</text>
<text text-anchor="middle" x="2004" y="-76" font-family="Helvetica,sans-Serif" font-size="10.00">&#45;scanner.cc</text>
</a>
</g>
</g>
<!-- Node1&#45;&gt;Node12 -->
<g id="edge14" class="edge"><title>Node1&#45;&gt;Node12</title>
<path fill="none" stroke="midnightblue" d="M1222.68,-211.831C1280.98,-208.799 1371.86,-198.944 1444,-168 1465.57,-158.749 1464.08,-144.379 1486,-136 1675.07,-63.73 1740.01,-131.183 1940,-100 1943.04,-99.5253 1946.16,-98.9839 1949.29,-98.3951"/>
<polygon fill="midnightblue" stroke="midnightblue" points="1222.36,-208.341 1212.54,-212.306 1222.69,-215.334 1222.36,-208.341"/>
</g>
<!-- Node13 -->
<g id="node13" class="node"><title>Node13</title>
<g id="a_node13"><a xlink:href="hdfs-text-table-writer_8cc.html" target="_top" xlink:title="be/src/exec/hdfs&#45;text\l&#45;table&#45;writer.cc">
<polygon fill="white" stroke="black" points="1032.5,-69 1032.5,-99 1141.5,-99 1141.5,-69 1032.5,-69"/>
<text text-anchor="start" x="1040.5" y="-87" font-family="Helvetica,sans-Serif" font-size="10.00">be/src/exec/hdfs&#45;text</text>
<text text-anchor="middle" x="1087" y="-76" font-family="Helvetica,sans-Serif" font-size="10.00">&#45;table&#45;writer.cc</text>
</a>
</g>
</g>
<!-- Node1&#45;&gt;Node13 -->
<g id="edge15" class="edge"><title>Node1&#45;&gt;Node13</title>
<path fill="none" stroke="midnightblue" d="M1153.5,-195.544C1138.1,-169.945 1109.68,-122.709 1095.51,-99.1431"/>
<polygon fill="midnightblue" stroke="midnightblue" points="1150.55,-197.437 1158.71,-204.202 1156.55,-193.829 1150.55,-197.437"/>
</g>
<!-- Node14 -->
<g id="node14" class="node"><title>Node14</title>
<g id="a_node14"><a xlink:href="codec_8cc.html" target="_top" xlink:title="be/src/util/codec.cc">
<polygon fill="white" stroke="black" points="1160,-74.5 1160,-93.5 1262,-93.5 1262,-74.5 1160,-74.5"/>
<text text-anchor="middle" x="1211" y="-81.5" font-family="Helvetica,sans-Serif" font-size="10.00">be/src/util/codec.cc</text>
</a>
</g>
</g>
<!-- Node1&#45;&gt;Node14 -->
<g id="edge16" class="edge"><title>Node1&#45;&gt;Node14</title>
<path fill="none" stroke="midnightblue" d="M1170.69,-194.776C1180.99,-166.728 1200.32,-114.073 1207.87,-93.5224"/>
<polygon fill="midnightblue" stroke="midnightblue" points="1167.39,-193.608 1167.23,-204.202 1173.96,-196.021 1167.39,-193.608"/>
</g>
<!-- Node15 -->
<g id="node15" class="node"><title>Node15</title>
<g id="a_node15"><a xlink:href="compress_8h.html" target="_top" xlink:title="be/src/util/compress.h">
<polygon fill="white" stroke="black" points="910.5,-142.5 910.5,-161.5 1023.5,-161.5 1023.5,-142.5 910.5,-142.5"/>
<text text-anchor="middle" x="967" y="-149.5" font-family="Helvetica,sans-Serif" font-size="10.00">be/src/util/compress.h</text>
</a>
</g>
</g>
<!-- Node1&#45;&gt;Node15 -->
<g id="edge17" class="edge"><title>Node1&#45;&gt;Node15</title>
<path fill="none" stroke="midnightblue" d="M1126.02,-201.432C1087.73,-189.771 1029.53,-172.044 995.173,-161.581"/>
<polygon fill="midnightblue" stroke="midnightblue" points="1125.19,-204.838 1135.77,-204.403 1127.23,-198.142 1125.19,-204.838"/>
</g>
<!-- Node23 -->
<g id="node23" class="node"><title>Node23</title>
<g id="a_node23"><a xlink:href="decompress_8h.html" target="_top" xlink:title="be/src/util/decompress.h">
<polygon fill="white" stroke="black" points="1276,-142.5 1276,-161.5 1400,-161.5 1400,-142.5 1276,-142.5"/>
<text text-anchor="middle" x="1338" y="-149.5" font-family="Helvetica,sans-Serif" font-size="10.00">be/src/util/decompress.h</text>
</a>
</g>
</g>
<!-- Node1&#45;&gt;Node23 -->
<g id="edge30" class="edge"><title>Node1&#45;&gt;Node23</title>
<path fill="none" stroke="midnightblue" d="M1198.41,-201.133C1232.24,-189.47 1283.03,-171.955 1313.12,-161.581"/>
<polygon fill="midnightblue" stroke="midnightblue" points="1197.24,-197.835 1188.93,-204.403 1199.52,-204.452 1197.24,-197.835"/>
</g>
<!-- Node5&#45;&gt;Node4 -->
<g id="edge5" class="edge"><title>Node5&#45;&gt;Node4</title>
<path fill="none" stroke="midnightblue" d="M210,-126.532C210,-117.361 210,-107.245 210,-99.2931"/>
<polygon fill="midnightblue" stroke="midnightblue" points="206.5,-126.679 210,-136.679 213.5,-126.679 206.5,-126.679"/>
</g>
<!-- Node6 -->
<g id="node6" class="node"><title>Node6</title>
<g id="a_node6"><a xlink:href="hdfs-table-sink_8cc.html" target="_top" xlink:title="be/src/exec/hdfs&#45;table\l&#45;sink.cc">
<polygon fill="white" stroke="black" points="237.5,-1 237.5,-31 350.5,-31 350.5,-1 237.5,-1"/>
<text text-anchor="start" x="245.5" y="-19" font-family="Helvetica,sans-Serif" font-size="10.00">be/src/exec/hdfs&#45;table</text>
<text text-anchor="middle" x="294" y="-8" font-family="Helvetica,sans-Serif" font-size="10.00">&#45;sink.cc</text>
</a>
</g>
</g>
<!-- Node5&#45;&gt;Node6 -->
<g id="edge6" class="edge"><title>Node5&#45;&gt;Node6</title>
<path fill="none" stroke="midnightblue" d="M173.316,-131.148C162.119,-123.08 151.15,-112.643 145,-100 138.779,-87.2107 136.731,-79.571 145,-68 165.905,-38.7484 204.649,-26.0915 237.388,-20.6991"/>
<polygon fill="midnightblue" stroke="midnightblue" points="171.588,-134.203 181.846,-136.853 175.479,-128.385 171.588,-134.203"/>
</g>
<!-- Node11&#45;&gt;Node6 -->
<g id="edge13" class="edge"><title>Node11&#45;&gt;Node6</title>
<path fill="none" stroke="midnightblue" d="M348.414,-131.638C335.333,-123.553 321.925,-112.978 313,-100 298.593,-79.0497 294.969,-48.7838 294.141,-31.1775"/>
<polygon fill="midnightblue" stroke="midnightblue" points="346.954,-134.838 357.359,-136.838 350.472,-128.786 346.954,-134.838"/>
</g>
<!-- Node11&#45;&gt;Node10 -->
<g id="edge12" class="edge"><title>Node11&#45;&gt;Node10</title>
<path fill="none" stroke="midnightblue" d="M389,-126.532C389,-117.361 389,-107.245 389,-99.2931"/>
<polygon fill="midnightblue" stroke="midnightblue" points="385.5,-126.679 389,-136.679 392.5,-126.679 385.5,-126.679"/>
</g>
<!-- Node15&#45;&gt;Node4 -->
<g id="edge18" class="edge"><title>Node15&#45;&gt;Node4</title>
<path fill="none" stroke="midnightblue" d="M900.456,-147.284C782.072,-140.344 527.181,-123.92 313,-100 297.555,-98.2751 280.864,-96.0164 265.506,-93.777"/>
<polygon fill="midnightblue" stroke="midnightblue" points="900.269,-150.778 910.455,-147.866 900.676,-143.79 900.269,-150.778"/>
</g>
<!-- Node15&#45;&gt;Node13 -->
<g id="edge23" class="edge"><title>Node15&#45;&gt;Node13</title>
<path fill="none" stroke="midnightblue" d="M991.632,-137.452C1011.93,-126.291 1040.61,-110.513 1061.22,-99.1815"/>
<polygon fill="midnightblue" stroke="midnightblue" points="989.763,-134.486 982.688,-142.372 993.137,-140.619 989.763,-134.486"/>
</g>
<!-- Node15&#45;&gt;Node14 -->
<g id="edge26" class="edge"><title>Node15&#45;&gt;Node14</title>
<path fill="none" stroke="midnightblue" d="M1008.75,-139.708C1057.17,-126.61 1135.91,-105.313 1179.48,-93.5259"/>
<polygon fill="midnightblue" stroke="midnightblue" points="1007.64,-136.382 998.899,-142.372 1009.47,-143.139 1007.64,-136.382"/>
</g>
<!-- Node16 -->
<g id="node16" class="node"><title>Node16</title>
<g id="a_node16"><a xlink:href="hdfs-parquet-table-writer_8cc.html" target="_top" xlink:title="be/src/exec/hdfs&#45;parquet\l&#45;table&#45;writer.cc">
<polygon fill="white" stroke="black" points="519.5,-1 519.5,-31 644.5,-31 644.5,-1 519.5,-1"/>
<text text-anchor="start" x="527.5" y="-19" font-family="Helvetica,sans-Serif" font-size="10.00">be/src/exec/hdfs&#45;parquet</text>
<text text-anchor="middle" x="582" y="-8" font-family="Helvetica,sans-Serif" font-size="10.00">&#45;table&#45;writer.cc</text>
</a>
</g>
</g>
<!-- Node15&#45;&gt;Node16 -->
<g id="edge19" class="edge"><title>Node15&#45;&gt;Node16</title>
<path fill="none" stroke="midnightblue" d="M900.248,-146.106C819.383,-139.198 688.78,-124.605 647,-100 619.086,-83.5605 598.699,-50.1762 588.775,-31.1374"/>
<polygon fill="midnightblue" stroke="midnightblue" points="900.083,-149.604 910.34,-146.95 900.666,-142.629 900.083,-149.604"/>
</g>
<!-- Node17 -->
<g id="node17" class="node"><title>Node17</title>
<g id="a_node17"><a xlink:href="hdfs-parquet-table-writer_8h.html" target="_top" xlink:title="be/src/exec/hdfs&#45;parquet\l&#45;table&#45;writer.h">
<polygon fill="white" stroke="black" points="474.5,-69 474.5,-99 599.5,-99 599.5,-69 474.5,-69"/>
<text text-anchor="start" x="482.5" y="-87" font-family="Helvetica,sans-Serif" font-size="10.00">be/src/exec/hdfs&#45;parquet</text>
<text text-anchor="middle" x="537" y="-76" font-family="Helvetica,sans-Serif" font-size="10.00">&#45;table&#45;writer.h</text>
</a>
</g>
</g>
<!-- Node15&#45;&gt;Node17 -->
<g id="edge20" class="edge"><title>Node15&#45;&gt;Node17</title>
<path fill="none" stroke="midnightblue" d="M900.154,-142.334C829.05,-132.884 713.356,-116.844 614,-100 609.3,-99.2032 604.446,-98.3439 599.568,-97.4541"/>
<polygon fill="midnightblue" stroke="midnightblue" points="899.941,-145.836 910.314,-143.679 900.861,-138.896 899.941,-145.836"/>
</g>
<!-- Node18 -->
<g id="node18" class="node"><title>Node18</title>
<g id="a_node18"><a xlink:href="compression-test_8cc.html" target="_top" xlink:title="be/src/experiments\l/compression&#45;test.cc">
<polygon fill="white" stroke="black" points="656,-69 656,-99 764,-99 764,-69 656,-69"/>
<text text-anchor="start" x="664" y="-87" font-family="Helvetica,sans-Serif" font-size="10.00">be/src/experiments</text>
<text text-anchor="middle" x="710" y="-76" font-family="Helvetica,sans-Serif" font-size="10.00">/compression&#45;test.cc</text>
</a>
</g>
</g>
<!-- Node15&#45;&gt;Node18 -->
<g id="edge24" class="edge"><title>Node15&#45;&gt;Node18</title>
<path fill="none" stroke="midnightblue" d="M923.877,-139.926C880.012,-128.661 811.905,-111.17 764.368,-98.9622"/>
<polygon fill="midnightblue" stroke="midnightblue" points="923.109,-143.342 933.665,-142.439 924.85,-136.562 923.109,-143.342"/>
</g>
<!-- Node19 -->
<g id="node19" class="node"><title>Node19</title>
<g id="a_node19"><a xlink:href="row-batch_8cc.html" target="_top" xlink:title="be/src/runtime/row\l&#45;batch.cc">
<polygon fill="white" stroke="black" points="1414,-69 1414,-99 1512,-99 1512,-69 1414,-69"/>
<text text-anchor="start" x="1422" y="-87" font-family="Helvetica,sans-Serif" font-size="10.00">be/src/runtime/row</text>
<text text-anchor="middle" x="1463" y="-76" font-family="Helvetica,sans-Serif" font-size="10.00">&#45;batch.cc</text>
</a>
</g>
</g>
<!-- Node15&#45;&gt;Node19 -->
<g id="edge25" class="edge"><title>Node15&#45;&gt;Node19</title>
<path fill="none" stroke="midnightblue" d="M1033.73,-145.985C1119.8,-138.884 1273.9,-124.021 1404,-100 1407.22,-99.4051 1410.53,-98.7344 1413.85,-98.0149"/>
<polygon fill="midnightblue" stroke="midnightblue" points="1033.26,-142.511 1023.58,-146.812 1033.83,-149.488 1033.26,-142.511"/>
</g>
<!-- Node20 -->
<g id="node20" class="node"><title>Node20</title>
<g id="a_node20"><a xlink:href="compress_8cc.html" target="_top" xlink:title="be/src/util/compress.cc">
<polygon fill="white" stroke="black" points="782.5,-74.5 782.5,-93.5 901.5,-93.5 901.5,-74.5 782.5,-74.5"/>
<text text-anchor="middle" x="842" y="-81.5" font-family="Helvetica,sans-Serif" font-size="10.00">be/src/util/compress.cc</text>
</a>
</g>
</g>
<!-- Node15&#45;&gt;Node20 -->
<g id="edge27" class="edge"><title>Node15&#45;&gt;Node20</title>
<path fill="none" stroke="midnightblue" d="M941.79,-137.689C916.906,-124.55 879.59,-104.848 858.346,-93.6305"/>
<polygon fill="midnightblue" stroke="midnightblue" points="940.181,-140.798 950.658,-142.372 943.45,-134.607 940.181,-140.798"/>
</g>
<!-- Node21 -->
<g id="node21" class="node"><title>Node21</title>
<g id="a_node21"><a xlink:href="decompress-test_8cc.html" target="_top" xlink:title="be/src/util/decompress\l&#45;test.cc">
<polygon fill="white" stroke="black" points="1280,-69 1280,-99 1396,-99 1396,-69 1280,-69"/>
<text text-anchor="start" x="1288" y="-87" font-family="Helvetica,sans-Serif" font-size="10.00">be/src/util/decompress</text>
<text text-anchor="middle" x="1338" y="-76" font-family="Helvetica,sans-Serif" font-size="10.00">&#45;test.cc</text>
</a>
</g>
</g>
<!-- Node15&#45;&gt;Node21 -->
<g id="edge28" class="edge"><title>Node15&#45;&gt;Node21</title>
<path fill="none" stroke="midnightblue" d="M1032.68,-140.924C1094.16,-131.258 1188.53,-115.832 1270,-100 1273.2,-99.3773 1276.49,-98.7192 1279.8,-98.0399"/>
<polygon fill="midnightblue" stroke="midnightblue" points="1032.06,-137.478 1022.72,-142.483 1033.14,-144.393 1032.06,-137.478"/>
</g>
<!-- Node22 -->
<g id="node22" class="node"><title>Node22</title>
<g id="a_node22"><a xlink:href="runtime-profile_8cc.html" target="_top" xlink:title="be/src/util/runtime\l&#45;profile.cc">
<polygon fill="white" stroke="black" points="919.5,-69 919.5,-99 1014.5,-99 1014.5,-69 919.5,-69"/>
<text text-anchor="start" x="927.5" y="-87" font-family="Helvetica,sans-Serif" font-size="10.00">be/src/util/runtime</text>
<text text-anchor="middle" x="967" y="-76" font-family="Helvetica,sans-Serif" font-size="10.00">&#45;profile.cc</text>
</a>
</g>
</g>
<!-- Node15&#45;&gt;Node22 -->
<g id="edge29" class="edge"><title>Node15&#45;&gt;Node22</title>
<path fill="none" stroke="midnightblue" d="M967,-132.174C967,-121.678 967,-108.821 967,-99.1815"/>
<polygon fill="midnightblue" stroke="midnightblue" points="963.5,-132.372 967,-142.372 970.5,-132.372 963.5,-132.372"/>
</g>
<!-- Node17&#45;&gt;Node6 -->
<g id="edge22" class="edge"><title>Node17&#45;&gt;Node6</title>
<path fill="none" stroke="midnightblue" d="M475.506,-66.298C435.429,-55.4127 383.72,-41.3684 345.752,-31.0561"/>
<polygon fill="midnightblue" stroke="midnightblue" points="474.601,-69.6788 485.168,-68.9223 476.435,-62.9235 474.601,-69.6788"/>
</g>
<!-- Node17&#45;&gt;Node16 -->
<g id="edge21" class="edge"><title>Node17&#45;&gt;Node16</title>
<path fill="none" stroke="midnightblue" d="M552.468,-60.3137C559.03,-50.6892 566.479,-39.7635 572.255,-31.2931"/>
<polygon fill="midnightblue" stroke="midnightblue" points="549.506,-58.445 546.764,-68.679 555.29,-62.3884 549.506,-58.445"/>
</g>
<!-- Node23&#45;&gt;Node3 -->
<g id="edge31" class="edge"><title>Node23&#45;&gt;Node3</title>
<path fill="none" stroke="midnightblue" d="M1387.18,-140.515C1396.08,-138.84 1405.29,-137.25 1414,-136 1589.37,-110.813 1636.06,-127.984 1811,-100 1814.09,-99.5061 1817.25,-98.9495 1820.43,-98.349"/>
<polygon fill="midnightblue" stroke="midnightblue" points="1386.46,-137.089 1377.31,-142.429 1387.8,-143.961 1386.46,-137.089"/>
</g>
<!-- Node23&#45;&gt;Node12 -->
<g id="edge33" class="edge"><title>Node23&#45;&gt;Node12</title>
<path fill="none" stroke="midnightblue" d="M1407.67,-141.19C1422.3,-139.311 1437.64,-137.473 1452,-136 1668.34,-113.805 1725.03,-132.914 1940,-100 1943.05,-99.5337 1946.16,-98.9988 1949.3,-98.4152"/>
<polygon fill="midnightblue" stroke="midnightblue" points="1407.14,-137.729 1397.68,-142.493 1408.05,-144.67 1407.14,-137.729"/>
</g>
<!-- Node23&#45;&gt;Node14 -->
<g id="edge35" class="edge"><title>Node23&#45;&gt;Node14</title>
<path fill="none" stroke="midnightblue" d="M1312.39,-137.689C1287.1,-124.55 1249.19,-104.848 1227.61,-93.6305"/>
<polygon fill="midnightblue" stroke="midnightblue" points="1310.91,-140.866 1321.4,-142.372 1314.14,-134.655 1310.91,-140.866"/>
</g>
<!-- Node23&#45;&gt;Node19 -->
<g id="edge34" class="edge"><title>Node23&#45;&gt;Node19</title>
<path fill="none" stroke="midnightblue" d="M1363.37,-137.603C1384.53,-126.434 1414.58,-110.564 1436.14,-99.1815"/>
<polygon fill="midnightblue" stroke="midnightblue" points="1361.55,-134.607 1354.34,-142.372 1364.82,-140.798 1361.55,-134.607"/>
</g>
<!-- Node23&#45;&gt;Node21 -->
<g id="edge36" class="edge"><title>Node23&#45;&gt;Node21</title>
<path fill="none" stroke="midnightblue" d="M1338,-132.174C1338,-121.678 1338,-108.821 1338,-99.1815"/>
<polygon fill="midnightblue" stroke="midnightblue" points="1334.5,-132.372 1338,-142.372 1341.5,-132.372 1334.5,-132.372"/>
</g>
<!-- Node24 -->
<g id="node24" class="node"><title>Node24</title>
<g id="a_node24"><a xlink:href="hdfs-parquet-scanner_8cc.html" target="_top" xlink:title="be/src/exec/hdfs&#45;parquet\l&#45;scanner.cc">
<polygon fill="white" stroke="black" points="1530.5,-69 1530.5,-99 1655.5,-99 1655.5,-69 1530.5,-69"/>
<text text-anchor="start" x="1538.5" y="-87" font-family="Helvetica,sans-Serif" font-size="10.00">be/src/exec/hdfs&#45;parquet</text>
<text text-anchor="middle" x="1593" y="-76" font-family="Helvetica,sans-Serif" font-size="10.00">&#45;scanner.cc</text>
</a>
</g>
</g>
<!-- Node23&#45;&gt;Node24 -->
<g id="edge32" class="edge"><title>Node23&#45;&gt;Node24</title>
<path fill="none" stroke="midnightblue" d="M1381.03,-139.863C1424.41,-128.634 1491.52,-111.267 1538.57,-99.0873"/>
<polygon fill="midnightblue" stroke="midnightblue" points="1379.88,-136.545 1371.08,-142.439 1381.63,-143.322 1379.88,-136.545"/>
</g>
<!-- Node25 -->
<g id="node25" class="node"><title>Node25</title>
<g id="a_node25"><a xlink:href="decompress_8cc.html" target="_top" xlink:title="be/src/util/decompress.cc">
<polygon fill="white" stroke="black" points="1673.5,-74.5 1673.5,-93.5 1802.5,-93.5 1802.5,-74.5 1673.5,-74.5"/>
<text text-anchor="middle" x="1738" y="-81.5" font-family="Helvetica,sans-Serif" font-size="10.00">be/src/util/decompress.cc</text>
</a>
</g>
</g>
<!-- Node23&#45;&gt;Node25 -->
<g id="edge37" class="edge"><title>Node23&#45;&gt;Node25</title>
<path fill="none" stroke="midnightblue" d="M1389.27,-140.505C1397.52,-138.924 1405.99,-137.366 1414,-136 1524.66,-117.125 1553.39,-119.158 1664,-100 1675.11,-98.076 1687.1,-95.7519 1698.14,-93.5136"/>
<polygon fill="midnightblue" stroke="midnightblue" points="1388.49,-137.091 1379.34,-142.436 1389.83,-143.962 1388.49,-137.091"/>
</g>
</g>
</svg>
