<?xml version="1.0" encoding="UTF-8" standalone="no"?>
<!DOCTYPE svg PUBLIC "-//W3C//DTD SVG 1.1//EN"
 "http://www.w3.org/Graphics/SVG/1.1/DTD/svg11.dtd">
<!-- Generated by graphviz version 2.36.0 (20140111.2315)
 -->
<!-- Title: be/src/util/compress.h Pages: 1 -->
<svg width="1175pt" height="164pt"
 viewBox="0.00 0.00 1175.00 164.00" xmlns="http://www.w3.org/2000/svg" xmlns:xlink="http://www.w3.org/1999/xlink">
<g id="graph0" class="graph" transform="scale(1 1) rotate(0) translate(4 160)">
<title>be/src/util/compress.h</title>
<polygon fill="white" stroke="none" points="-4,4 -4,-160 1171,-160 1171,4 -4,4"/>
<!-- Node1 -->
<g id="node1" class="node"><title>Node1</title>
<polygon fill="#bfbfbf" stroke="black" points="495.5,-136.5 495.5,-155.5 608.5,-155.5 608.5,-136.5 495.5,-136.5"/>
<text text-anchor="middle" x="552" y="-143.5" font-family="Helvetica,sans-Serif" font-size="10.00">be/src/util/compress.h</text>
</g>
<!-- Node2 -->
<g id="node2" class="node"><title>Node2</title>
<g id="a_node2"><a xlink:href="hdfs-avro-table-writer_8cc.html" target="_top" xlink:title="be/src/exec/hdfs&#45;avro\l&#45;table&#45;writer.cc">
<polygon fill="white" stroke="black" points="-0.5,-69 -0.5,-99 110.5,-99 110.5,-69 -0.5,-69"/>
<text text-anchor="start" x="7.5" y="-87" font-family="Helvetica,sans-Serif" font-size="10.00">be/src/exec/hdfs&#45;avro</text>
<text text-anchor="middle" x="55" y="-76" font-family="Helvetica,sans-Serif" font-size="10.00">&#45;table&#45;writer.cc</text>
</a>
</g>
</g>
<!-- Node1&#45;&gt;Node2 -->
<g id="edge1" class="edge"><title>Node1&#45;&gt;Node2</title>
<path fill="none" stroke="midnightblue" d="M485.254,-140.171C400.972,-133.568 251.669,-120.188 125,-100 120.336,-99.2567 115.514,-98.4035 110.684,-97.4895"/>
<polygon fill="midnightblue" stroke="midnightblue" points="485.213,-143.678 495.454,-140.962 485.754,-136.699 485.213,-143.678"/>
</g>
<!-- Node3 -->
<g id="node3" class="node"><title>Node3</title>
<g id="a_node3"><a xlink:href="hdfs-parquet-table-writer_8cc.html" target="_top" xlink:title="be/src/exec/hdfs&#45;parquet\l&#45;table&#45;writer.cc">
<polygon fill="white" stroke="black" points="76.5,-1 76.5,-31 201.5,-31 201.5,-1 76.5,-1"/>
<text text-anchor="start" x="84.5" y="-19" font-family="Helvetica,sans-Serif" font-size="10.00">be/src/exec/hdfs&#45;parquet</text>
<text text-anchor="middle" x="139" y="-8" font-family="Helvetica,sans-Serif" font-size="10.00">&#45;table&#45;writer.cc</text>
</a>
</g>
</g>
<!-- Node1&#45;&gt;Node3 -->
<g id="edge2" class="edge"><title>Node1&#45;&gt;Node3</title>
<path fill="none" stroke="midnightblue" d="M485.18,-141.539C379.155,-135.435 181.869,-121.349 158,-100 138.608,-82.655 136.9,-49.9289 137.726,-31.169"/>
<polygon fill="midnightblue" stroke="midnightblue" points="485.276,-145.05 495.458,-142.122 485.672,-138.061 485.276,-145.05"/>
</g>
<!-- Node4 -->
<g id="node4" class="node"><title>Node4</title>
<g id="a_node4"><a xlink:href="hdfs-parquet-table-writer_8h.html" target="_top" xlink:title="be/src/exec/hdfs&#45;parquet\l&#45;table&#45;writer.h">
<polygon fill="white" stroke="black" points="167.5,-69 167.5,-99 292.5,-99 292.5,-69 167.5,-69"/>
<text text-anchor="start" x="175.5" y="-87" font-family="Helvetica,sans-Serif" font-size="10.00">be/src/exec/hdfs&#45;parquet</text>
<text text-anchor="middle" x="230" y="-76" font-family="Helvetica,sans-Serif" font-size="10.00">&#45;table&#45;writer.h</text>
</a>
</g>
</g>
<!-- Node1&#45;&gt;Node4 -->
<g id="edge3" class="edge"><title>Node1&#45;&gt;Node4</title>
<path fill="none" stroke="midnightblue" d="M491.993,-134.672C441.296,-125.834 366.803,-112.58 302,-100 298.992,-99.416 295.915,-98.8097 292.808,-98.1903"/>
<polygon fill="midnightblue" stroke="midnightblue" points="491.669,-138.169 502.121,-136.435 492.869,-131.272 491.669,-138.169"/>
</g>
<!-- Node6 -->
<g id="node6" class="node"><title>Node6</title>
<g id="a_node6"><a xlink:href="hdfs-text-table-writer_8cc.html" target="_top" xlink:title="be/src/exec/hdfs&#45;text\l&#45;table&#45;writer.cc">
<polygon fill="white" stroke="black" points="310.5,-69 310.5,-99 419.5,-99 419.5,-69 310.5,-69"/>
<text text-anchor="start" x="318.5" y="-87" font-family="Helvetica,sans-Serif" font-size="10.00">be/src/exec/hdfs&#45;text</text>
<text text-anchor="middle" x="365" y="-76" font-family="Helvetica,sans-Serif" font-size="10.00">&#45;table&#45;writer.cc</text>
</a>
</g>
</g>
<!-- Node1&#45;&gt;Node6 -->
<g id="edge6" class="edge"><title>Node1&#45;&gt;Node6</title>
<path fill="none" stroke="midnightblue" d="M515.373,-133.248C484.792,-123.436 441.119,-109.423 408.712,-99.0253"/>
<polygon fill="midnightblue" stroke="midnightblue" points="514.616,-136.681 525.207,-136.403 516.755,-130.016 514.616,-136.681"/>
</g>
<!-- Node7 -->
<g id="node7" class="node"><title>Node7</title>
<g id="a_node7"><a xlink:href="compression-test_8cc.html" target="_top" xlink:title="be/src/experiments\l/compression&#45;test.cc">
<polygon fill="white" stroke="black" points="438,-69 438,-99 546,-99 546,-69 438,-69"/>
<text text-anchor="start" x="446" y="-87" font-family="Helvetica,sans-Serif" font-size="10.00">be/src/experiments</text>
<text text-anchor="middle" x="492" y="-76" font-family="Helvetica,sans-Serif" font-size="10.00">/compression&#45;test.cc</text>
</a>
</g>
</g>
<!-- Node1&#45;&gt;Node7 -->
<g id="edge7" class="edge"><title>Node1&#45;&gt;Node7</title>
<path fill="none" stroke="midnightblue" d="M536.238,-129.238C526.904,-119.904 515.176,-108.176 506.141,-99.1408"/>
<polygon fill="midnightblue" stroke="midnightblue" points="533.857,-131.807 543.403,-136.403 538.807,-126.857 533.857,-131.807"/>
</g>
<!-- Node8 -->
<g id="node8" class="node"><title>Node8</title>
<g id="a_node8"><a xlink:href="row-batch_8cc.html" target="_top" xlink:title="be/src/runtime/row\l&#45;batch.cc">
<polygon fill="white" stroke="black" points="564,-69 564,-99 662,-99 662,-69 564,-69"/>
<text text-anchor="start" x="572" y="-87" font-family="Helvetica,sans-Serif" font-size="10.00">be/src/runtime/row</text>
<text text-anchor="middle" x="613" y="-76" font-family="Helvetica,sans-Serif" font-size="10.00">&#45;batch.cc</text>
</a>
</g>
</g>
<!-- Node1&#45;&gt;Node8 -->
<g id="edge8" class="edge"><title>Node1&#45;&gt;Node8</title>
<path fill="none" stroke="midnightblue" d="M568.025,-129.238C577.515,-119.904 589.438,-108.176 598.624,-99.1408"/>
<polygon fill="midnightblue" stroke="midnightblue" points="565.415,-126.896 560.74,-136.403 570.323,-131.886 565.415,-126.896"/>
</g>
<!-- Node9 -->
<g id="node9" class="node"><title>Node9</title>
<g id="a_node9"><a xlink:href="codec_8cc.html" target="_top" xlink:title="be/src/util/codec.cc">
<polygon fill="white" stroke="black" points="680,-74.5 680,-93.5 782,-93.5 782,-74.5 680,-74.5"/>
<text text-anchor="middle" x="731" y="-81.5" font-family="Helvetica,sans-Serif" font-size="10.00">be/src/util/codec.cc</text>
</a>
</g>
</g>
<!-- Node1&#45;&gt;Node9 -->
<g id="edge9" class="edge"><title>Node1&#45;&gt;Node9</title>
<path fill="none" stroke="midnightblue" d="M587.403,-133.133C622.198,-121.47 674.452,-103.955 705.401,-93.5806"/>
<polygon fill="midnightblue" stroke="midnightblue" points="586.015,-129.907 577.646,-136.403 588.24,-136.544 586.015,-129.907"/>
</g>
<!-- Node10 -->
<g id="node10" class="node"><title>Node10</title>
<g id="a_node10"><a xlink:href="compress_8cc.html" target="_top" xlink:title="be/src/util/compress.cc">
<polygon fill="white" stroke="black" points="800.5,-74.5 800.5,-93.5 919.5,-93.5 919.5,-74.5 800.5,-74.5"/>
<text text-anchor="middle" x="860" y="-81.5" font-family="Helvetica,sans-Serif" font-size="10.00">be/src/util/compress.cc</text>
</a>
</g>
</g>
<!-- Node1&#45;&gt;Node10 -->
<g id="edge10" class="edge"><title>Node1&#45;&gt;Node10</title>
<path fill="none" stroke="midnightblue" d="M608.972,-134.629C657.234,-125.747 728.233,-112.455 790,-100 799.99,-97.9854 810.763,-95.7224 820.791,-93.5769"/>
<polygon fill="midnightblue" stroke="midnightblue" points="608.233,-131.206 599.03,-136.455 609.498,-138.091 608.233,-131.206"/>
</g>
<!-- Node11 -->
<g id="node11" class="node"><title>Node11</title>
<g id="a_node11"><a xlink:href="decompress-test_8cc.html" target="_top" xlink:title="be/src/util/decompress\l&#45;test.cc">
<polygon fill="white" stroke="black" points="938,-69 938,-99 1054,-99 1054,-69 938,-69"/>
<text text-anchor="start" x="946" y="-87" font-family="Helvetica,sans-Serif" font-size="10.00">be/src/util/decompress</text>
<text text-anchor="middle" x="996" y="-76" font-family="Helvetica,sans-Serif" font-size="10.00">&#45;test.cc</text>
</a>
</g>
</g>
<!-- Node1&#45;&gt;Node11 -->
<g id="edge11" class="edge"><title>Node1&#45;&gt;Node11</title>
<path fill="none" stroke="midnightblue" d="M618.921,-138.989C694.333,-131.752 820.44,-118.255 928,-100 931.218,-99.4538 934.514,-98.856 937.835,-98.2235"/>
<polygon fill="midnightblue" stroke="midnightblue" points="618.247,-135.537 608.623,-139.968 618.91,-142.506 618.247,-135.537"/>
</g>
<!-- Node12 -->
<g id="node12" class="node"><title>Node12</title>
<g id="a_node12"><a xlink:href="runtime-profile_8cc.html" target="_top" xlink:title="be/src/util/runtime\l&#45;profile.cc">
<polygon fill="white" stroke="black" points="1072.5,-69 1072.5,-99 1167.5,-99 1167.5,-69 1072.5,-69"/>
<text text-anchor="start" x="1080.5" y="-87" font-family="Helvetica,sans-Serif" font-size="10.00">be/src/util/runtime</text>
<text text-anchor="middle" x="1120" y="-76" font-family="Helvetica,sans-Serif" font-size="10.00">&#45;profile.cc</text>
</a>
</g>
</g>
<!-- Node1&#45;&gt;Node12 -->
<g id="edge12" class="edge"><title>Node1&#45;&gt;Node12</title>
<path fill="none" stroke="midnightblue" d="M618.658,-142.628C716.488,-138.355 904.428,-127.136 1062,-100 1065.38,-99.4175 1068.86,-98.7359 1072.34,-97.9905"/>
<polygon fill="midnightblue" stroke="midnightblue" points="618.457,-139.133 608.615,-143.056 618.755,-146.127 618.457,-139.133"/>
</g>
<!-- Node4&#45;&gt;Node3 -->
<g id="edge4" class="edge"><title>Node4&#45;&gt;Node3</title>
<path fill="none" stroke="midnightblue" d="M201.872,-62.5994C187.769,-52.3712 171.047,-40.2428 158.394,-31.0663"/>
<polygon fill="midnightblue" stroke="midnightblue" points="200.104,-65.6411 210.254,-68.679 204.214,-59.9745 200.104,-65.6411"/>
</g>
<!-- Node5 -->
<g id="node5" class="node"><title>Node5</title>
<g id="a_node5"><a xlink:href="hdfs-table-sink_8cc.html" target="_top" xlink:title="be/src/exec/hdfs&#45;table\l&#45;sink.cc">
<polygon fill="white" stroke="black" points="219.5,-1 219.5,-31 332.5,-31 332.5,-1 219.5,-1"/>
<text text-anchor="start" x="227.5" y="-19" font-family="Helvetica,sans-Serif" font-size="10.00">be/src/exec/hdfs&#45;table</text>
<text text-anchor="middle" x="276" y="-8" font-family="Helvetica,sans-Serif" font-size="10.00">&#45;sink.cc</text>
</a>
</g>
</g>
<!-- Node4&#45;&gt;Node5 -->
<g id="edge5" class="edge"><title>Node4&#45;&gt;Node5</title>
<path fill="none" stroke="midnightblue" d="M245.812,-60.3137C252.52,-50.6892 260.135,-39.7635 266.038,-31.2931"/>
<polygon fill="midnightblue" stroke="midnightblue" points="242.828,-58.4737 239.981,-68.679 248.571,-62.4763 242.828,-58.4737"/>
</g>
</g>
</svg>
