<?xml version="1.0" encoding="UTF-8" standalone="no"?>
<!DOCTYPE svg PUBLIC "-//W3C//DTD SVG 1.1//EN"
 "http://www.w3.org/Graphics/SVG/1.1/DTD/svg11.dtd">
<!-- Generated by graphviz version 2.36.0 (20140111.2315)
 -->
<!-- Title: be/src/transport/config.h Pages: 1 -->
<svg width="649pt" height="96pt"
 viewBox="0.00 0.00 649.00 96.00" xmlns="http://www.w3.org/2000/svg" xmlns:xlink="http://www.w3.org/1999/xlink">
<g id="graph0" class="graph" transform="scale(1 1) rotate(0) translate(4 92)">
<title>be/src/transport/config.h</title>
<polygon fill="white" stroke="none" points="-4,4 -4,-92 645,-92 645,4 -4,4"/>
<!-- Node1 -->
<g id="node1" class="node"><title>Node1</title>
<polygon fill="#bfbfbf" stroke="black" points="238,-68.5 238,-87.5 360,-87.5 360,-68.5 238,-68.5"/>
<text text-anchor="middle" x="299" y="-75.5" font-family="Helvetica,sans-Serif" font-size="10.00">be/src/transport/config.h</text>
</g>
<!-- Node2 -->
<g id="node2" class="node"><title>Node2</title>
<g id="a_node2"><a xlink:href="TSasl_8cpp.html" target="_top" xlink:title="be/src/transport/TSasl.cpp">
<polygon fill="white" stroke="black" points="0,-6.5 0,-25.5 132,-25.5 132,-6.5 0,-6.5"/>
<text text-anchor="middle" x="66" y="-13.5" font-family="Helvetica,sans-Serif" font-size="10.00">be/src/transport/TSasl.cpp</text>
</a>
</g>
</g>
<!-- Node1&#45;&gt;Node2 -->
<g id="edge1" class="edge"><title>Node1&#45;&gt;Node2</title>
<path fill="none" stroke="midnightblue" d="M255.801,-65.8758C210.557,-54.2249 140.471,-36.1771 99.3213,-25.5806"/>
<polygon fill="midnightblue" stroke="midnightblue" points="255.06,-69.2991 265.617,-68.4035 256.806,-62.5202 255.06,-69.2991"/>
</g>
<!-- Node3 -->
<g id="node3" class="node"><title>Node3</title>
<g id="a_node3"><a xlink:href="TSaslClientTransport_8cpp.html" target="_top" xlink:title="be/src/transport/TSaslClient\lTransport.cpp">
<polygon fill="white" stroke="black" points="150.5,-1 150.5,-31 289.5,-31 289.5,-1 150.5,-1"/>
<text text-anchor="start" x="158.5" y="-19" font-family="Helvetica,sans-Serif" font-size="10.00">be/src/transport/TSaslClient</text>
<text text-anchor="middle" x="220" y="-8" font-family="Helvetica,sans-Serif" font-size="10.00">Transport.cpp</text>
</a>
</g>
</g>
<!-- Node1&#45;&gt;Node3 -->
<g id="edge2" class="edge"><title>Node1&#45;&gt;Node3</title>
<path fill="none" stroke="midnightblue" d="M279.705,-62.3459C267.197,-52.8461 250.99,-40.5369 238.619,-31.1408"/>
<polygon fill="midnightblue" stroke="midnightblue" points="277.601,-65.1424 287.681,-68.4035 281.835,-59.5679 277.601,-65.1424"/>
</g>
<!-- Node4 -->
<g id="node4" class="node"><title>Node4</title>
<g id="a_node4"><a xlink:href="TSaslServerTransport_8cpp.html" target="_top" xlink:title="be/src/transport/TSaslServer\lTransport.cpp">
<polygon fill="white" stroke="black" points="308,-1 308,-31 450,-31 450,-1 308,-1"/>
<text text-anchor="start" x="316" y="-19" font-family="Helvetica,sans-Serif" font-size="10.00">be/src/transport/TSaslServer</text>
<text text-anchor="middle" x="379" y="-8" font-family="Helvetica,sans-Serif" font-size="10.00">Transport.cpp</text>
</a>
</g>
</g>
<!-- Node1&#45;&gt;Node4 -->
<g id="edge3" class="edge"><title>Node1&#45;&gt;Node4</title>
<path fill="none" stroke="midnightblue" d="M318.539,-62.3459C331.205,-52.8461 347.617,-40.5369 360.146,-31.1408"/>
<polygon fill="midnightblue" stroke="midnightblue" points="316.362,-59.6034 310.462,-68.4035 320.562,-65.2034 316.362,-59.6034"/>
</g>
<!-- Node5 -->
<g id="node5" class="node"><title>Node5</title>
<g id="a_node5"><a xlink:href="TSaslTransport_8cpp.html" target="_top" xlink:title="be/src/transport/TSaslTransport.cpp">
<polygon fill="white" stroke="black" points="468.5,-6.5 468.5,-25.5 641.5,-25.5 641.5,-6.5 468.5,-6.5"/>
<text text-anchor="middle" x="555" y="-13.5" font-family="Helvetica,sans-Serif" font-size="10.00">be/src/transport/TSaslTransport.cpp</text>
</a>
</g>
</g>
<!-- Node1&#45;&gt;Node5 -->
<g id="edge4" class="edge"><title>Node1&#45;&gt;Node5</title>
<path fill="none" stroke="midnightblue" d="M345.272,-66.1549C395.056,-54.4869 473.191,-36.174 518.719,-25.5034"/>
<polygon fill="midnightblue" stroke="midnightblue" points="344.344,-62.7775 335.407,-68.4672 345.942,-69.5929 344.344,-62.7775"/>
</g>
</g>
</svg>
