<?xml version="1.0" encoding="UTF-8" standalone="no"?>
<!DOCTYPE svg PUBLIC "-//W3C//DTD SVG 1.1//EN"
 "http://www.w3.org/Graphics/SVG/1.1/DTD/svg11.dtd">
<!-- Generated by graphviz version 2.36.0 (20140111.2315)
 -->
<!-- Title: be/src/util/container&#45;util.h Pages: 1 -->
<svg width="435pt" height="264pt"
 viewBox="0.00 0.00 435.00 264.00" xmlns="http://www.w3.org/2000/svg" xmlns:xlink="http://www.w3.org/1999/xlink">
<g id="graph0" class="graph" transform="scale(1 1) rotate(0) translate(4 260)">
<title>be/src/util/container&#45;util.h</title>
<polygon fill="white" stroke="none" points="-4,4 -4,-260 431,-260 431,4 -4,4"/>
<!-- Node1 -->
<g id="node1" class="node"><title>Node1</title>
<polygon fill="#bfbfbf" stroke="black" points="126,-225 126,-255 228,-255 228,-225 126,-225"/>
<text text-anchor="start" x="134" y="-243" font-family="Helvetica,sans-Serif" font-size="10.00">be/src/util/container</text>
<text text-anchor="middle" x="177" y="-232" font-family="Helvetica,sans-Serif" font-size="10.00">&#45;util.h</text>
</g>
<!-- Node2 -->
<g id="node2" class="node"><title>Node2</title>
<polygon fill="white" stroke="#bfbfbf" points="-0.5,-168.5 -0.5,-187.5 34.5,-187.5 34.5,-168.5 -0.5,-168.5"/>
<text text-anchor="middle" x="17" y="-175.5" font-family="Helvetica,sans-Serif" font-size="10.00">map</text>
</g>
<!-- Node1&#45;&gt;Node2 -->
<g id="edge1" class="edge"><title>Node1&#45;&gt;Node2</title>
<path fill="none" stroke="midnightblue" d="M139.487,-224.933C110.295,-213.986 70.4708,-199.052 44.2633,-189.224"/>
<polygon fill="midnightblue" stroke="midnightblue" points="45.1955,-185.835 34.6033,-185.601 42.7376,-192.39 45.1955,-185.835"/>
</g>
<!-- Node3 -->
<g id="node3" class="node"><title>Node3</title>
<polygon fill="white" stroke="#bfbfbf" points="52.5,-168.5 52.5,-187.5 181.5,-187.5 181.5,-168.5 52.5,-168.5"/>
<text text-anchor="middle" x="117" y="-175.5" font-family="Helvetica,sans-Serif" font-size="10.00">boost/unordered_map.hpp</text>
</g>
<!-- Node1&#45;&gt;Node3 -->
<g id="edge2" class="edge"><title>Node1&#45;&gt;Node3</title>
<path fill="none" stroke="midnightblue" d="M162.781,-224.781C153.792,-215.792 142.162,-204.162 132.873,-194.873"/>
<polygon fill="midnightblue" stroke="midnightblue" points="135.277,-192.327 125.731,-187.731 130.327,-197.277 135.277,-192.327"/>
</g>
<!-- Node4 -->
<g id="node4" class="node"><title>Node4</title>
<g id="a_node4"><a xlink:href="hash-util_8h.html" target="_top" xlink:title="util/hash&#45;util.h">
<polygon fill="white" stroke="black" points="199.5,-168.5 199.5,-187.5 276.5,-187.5 276.5,-168.5 199.5,-168.5"/>
<text text-anchor="middle" x="238" y="-175.5" font-family="Helvetica,sans-Serif" font-size="10.00">util/hash&#45;util.h</text>
</a>
</g>
</g>
<!-- Node1&#45;&gt;Node4 -->
<g id="edge3" class="edge"><title>Node1&#45;&gt;Node4</title>
<path fill="none" stroke="midnightblue" d="M191.456,-224.781C200.594,-215.792 212.419,-204.162 221.862,-194.873"/>
<polygon fill="midnightblue" stroke="midnightblue" points="224.449,-197.238 229.124,-187.731 219.54,-192.248 224.449,-197.238"/>
</g>
<!-- Node14 -->
<g id="node14" class="node"><title>Node14</title>
<polygon fill="white" stroke="#bfbfbf" points="294.5,-168.5 294.5,-187.5 413.5,-187.5 413.5,-168.5 294.5,-168.5"/>
<text text-anchor="middle" x="354" y="-175.5" font-family="Helvetica,sans-Serif" font-size="10.00">gen&#45;cpp/Types_types.h</text>
</g>
<!-- Node1&#45;&gt;Node14 -->
<g id="edge14" class="edge"><title>Node1&#45;&gt;Node14</title>
<path fill="none" stroke="midnightblue" d="M218.499,-224.933C249.119,-214.553 290.313,-200.589 319.215,-190.792"/>
<polygon fill="midnightblue" stroke="midnightblue" points="320.541,-194.038 328.888,-187.513 318.293,-187.408 320.541,-194.038"/>
</g>
<!-- Node5 -->
<g id="node5" class="node"><title>Node5</title>
<g id="a_node5"><a xlink:href="logging_8h.html" target="_top" xlink:title="common/logging.h">
<polygon fill="white" stroke="black" points="60,-56.5 60,-75.5 156,-75.5 156,-56.5 60,-56.5"/>
<text text-anchor="middle" x="108" y="-63.5" font-family="Helvetica,sans-Serif" font-size="10.00">common/logging.h</text>
</a>
</g>
</g>
<!-- Node4&#45;&gt;Node5 -->
<g id="edge4" class="edge"><title>Node4&#45;&gt;Node5</title>
<path fill="none" stroke="midnightblue" d="M200.643,-168.475C167.579,-160.111 122.922,-146.529 112,-132 102.136,-118.879 102.174,-99.7338 104.055,-85.6179"/>
<polygon fill="midnightblue" stroke="midnightblue" points="107.534,-86.0393 105.805,-75.5866 100.639,-84.8365 107.534,-86.0393"/>
</g>
<!-- Node8 -->
<g id="node8" class="node"><title>Node8</title>
<g id="a_node8"><a xlink:href="compiler-util_8h.html" target="_top" xlink:title="common/compiler&#45;util.h">
<polygon fill="white" stroke="black" points="121,-112.5 121,-131.5 239,-131.5 239,-112.5 121,-112.5"/>
<text text-anchor="middle" x="180" y="-119.5" font-family="Helvetica,sans-Serif" font-size="10.00">common/compiler&#45;util.h</text>
</a>
</g>
</g>
<!-- Node4&#45;&gt;Node8 -->
<g id="edge7" class="edge"><title>Node4&#45;&gt;Node8</title>
<path fill="none" stroke="midnightblue" d="M228.681,-168.324C220.107,-160.341 207.188,-148.313 196.812,-138.653"/>
<polygon fill="midnightblue" stroke="midnightblue" points="199.192,-136.086 189.488,-131.834 194.422,-141.21 199.192,-136.086"/>
</g>
<!-- Node9 -->
<g id="node9" class="node"><title>Node9</title>
<g id="a_node9"><a xlink:href="cpu-info_8h.html" target="_top" xlink:title="util/cpu&#45;info.h">
<polygon fill="white" stroke="black" points="257.5,-112.5 257.5,-131.5 332.5,-131.5 332.5,-112.5 257.5,-112.5"/>
<text text-anchor="middle" x="295" y="-119.5" font-family="Helvetica,sans-Serif" font-size="10.00">util/cpu&#45;info.h</text>
</a>
</g>
</g>
<!-- Node4&#45;&gt;Node9 -->
<g id="edge8" class="edge"><title>Node4&#45;&gt;Node9</title>
<path fill="none" stroke="midnightblue" d="M247.158,-168.324C255.501,-160.42 268.032,-148.548 278.177,-138.938"/>
<polygon fill="midnightblue" stroke="midnightblue" points="280.823,-141.252 285.675,-131.834 276.009,-136.171 280.823,-141.252"/>
</g>
<!-- Node12 -->
<g id="node12" class="node"><title>Node12</title>
<g id="a_node12"><a xlink:href="sse-util_8h.html" target="_top" xlink:title="util/sse&#45;util.h">
<polygon fill="white" stroke="black" points="354,-112.5 354,-131.5 426,-131.5 426,-112.5 354,-112.5"/>
<text text-anchor="middle" x="390" y="-119.5" font-family="Helvetica,sans-Serif" font-size="10.00">util/sse&#45;util.h</text>
</a>
</g>
</g>
<!-- Node4&#45;&gt;Node12 -->
<g id="edge12" class="edge"><title>Node4&#45;&gt;Node12</title>
<path fill="none" stroke="midnightblue" d="M262.085,-168.444C287.545,-159.399 327.894,-145.064 356.459,-134.916"/>
<polygon fill="midnightblue" stroke="midnightblue" points="357.777,-138.162 366.028,-131.516 355.433,-131.566 357.777,-138.162"/>
</g>
<!-- Node6 -->
<g id="node6" class="node"><title>Node6</title>
<polygon fill="white" stroke="#bfbfbf" points="21.5,-0.5 21.5,-19.5 98.5,-19.5 98.5,-0.5 21.5,-0.5"/>
<text text-anchor="middle" x="60" y="-7.5" font-family="Helvetica,sans-Serif" font-size="10.00">glog/logging.h</text>
</g>
<!-- Node5&#45;&gt;Node6 -->
<g id="edge5" class="edge"><title>Node5&#45;&gt;Node6</title>
<path fill="none" stroke="midnightblue" d="M100.074,-56.083C93.1539,-48.2982 82.9346,-36.8015 74.548,-27.3665"/>
<polygon fill="midnightblue" stroke="midnightblue" points="77.0383,-24.8999 67.7787,-19.7511 71.8065,-29.5505 77.0383,-24.8999"/>
</g>
<!-- Node7 -->
<g id="node7" class="node"><title>Node7</title>
<polygon fill="white" stroke="#bfbfbf" points="117,-0.5 117,-19.5 197,-19.5 197,-0.5 117,-0.5"/>
<text text-anchor="middle" x="157" y="-7.5" font-family="Helvetica,sans-Serif" font-size="10.00">gflags/gflags.h</text>
</g>
<!-- Node5&#45;&gt;Node7 -->
<g id="edge6" class="edge"><title>Node5&#45;&gt;Node7</title>
<path fill="none" stroke="midnightblue" d="M116.091,-56.083C123.155,-48.2982 133.588,-36.8015 142.149,-27.3665"/>
<polygon fill="midnightblue" stroke="midnightblue" points="144.931,-29.5087 149.059,-19.7511 139.747,-24.8047 144.931,-29.5087"/>
</g>
<!-- Node9&#45;&gt;Node5 -->
<g id="edge11" class="edge"><title>Node9&#45;&gt;Node5</title>
<path fill="none" stroke="midnightblue" d="M265.369,-112.444C233.5,-103.241 182.667,-88.5617 147.436,-78.3879"/>
<polygon fill="midnightblue" stroke="midnightblue" points="148.071,-74.9282 137.492,-75.5164 146.128,-81.6534 148.071,-74.9282"/>
</g>
<!-- Node10 -->
<g id="node10" class="node"><title>Node10</title>
<polygon fill="white" stroke="#bfbfbf" points="189.5,-56.5 189.5,-75.5 230.5,-75.5 230.5,-56.5 189.5,-56.5"/>
<text text-anchor="middle" x="210" y="-63.5" font-family="Helvetica,sans-Serif" font-size="10.00">string</text>
</g>
<!-- Node9&#45;&gt;Node10 -->
<g id="edge9" class="edge"><title>Node9&#45;&gt;Node10</title>
<path fill="none" stroke="midnightblue" d="M281.343,-112.324C268.084,-103.9 247.732,-90.9709 232.154,-81.0741"/>
<polygon fill="midnightblue" stroke="midnightblue" points="233.94,-78.0626 223.623,-75.6545 230.187,-83.9711 233.94,-78.0626"/>
</g>
<!-- Node11 -->
<g id="node11" class="node"><title>Node11</title>
<polygon fill="white" stroke="#bfbfbf" points="249,-56.5 249,-75.5 341,-75.5 341,-56.5 249,-56.5"/>
<text text-anchor="middle" x="295" y="-63.5" font-family="Helvetica,sans-Serif" font-size="10.00">boost/cstdint.hpp</text>
</g>
<!-- Node9&#45;&gt;Node11 -->
<g id="edge10" class="edge"><title>Node9&#45;&gt;Node11</title>
<path fill="none" stroke="midnightblue" d="M295,-112.083C295,-105.006 295,-94.8611 295,-85.9865"/>
<polygon fill="midnightblue" stroke="midnightblue" points="298.5,-85.751 295,-75.7511 291.5,-85.7511 298.5,-85.751"/>
</g>
<!-- Node13 -->
<g id="node13" class="node"><title>Node13</title>
<polygon fill="white" stroke="#bfbfbf" points="359,-56.5 359,-75.5 427,-75.5 427,-56.5 359,-56.5"/>
<text text-anchor="middle" x="393" y="-63.5" font-family="Helvetica,sans-Serif" font-size="10.00">emmintrin.h</text>
</g>
<!-- Node12&#45;&gt;Node13 -->
<g id="edge13" class="edge"><title>Node12&#45;&gt;Node13</title>
<path fill="none" stroke="midnightblue" d="M390.495,-112.083C390.889,-105.006 391.452,-94.8611 391.945,-85.9865"/>
<polygon fill="midnightblue" stroke="midnightblue" points="395.454,-85.9299 392.514,-75.7511 388.464,-85.5415 395.454,-85.9299"/>
</g>
</g>
</svg>
