<?xml version="1.0" encoding="UTF-8" standalone="no"?>
<!DOCTYPE svg PUBLIC "-//W3C//DTD SVG 1.1//EN"
 "http://www.w3.org/Graphics/SVG/1.1/DTD/svg11.dtd">
<!-- Generated by graphviz version 2.36.0 (20140111.2315)
 -->
<!-- Title: be/src/runtime/data&#45;stream&#45;mgr.h Pages: 1 -->
<svg width="1278pt" height="108pt"
 viewBox="0.00 0.00 1278.00 108.00" xmlns="http://www.w3.org/2000/svg" xmlns:xlink="http://www.w3.org/1999/xlink">
<g id="graph0" class="graph" transform="scale(1 1) rotate(0) translate(4 104)">
<title>be/src/runtime/data&#45;stream&#45;mgr.h</title>
<polygon fill="white" stroke="none" points="-4,4 -4,-104 1274,-104 1274,4 -4,4"/>
<!-- Node1 -->
<g id="node1" class="node"><title>Node1</title>
<polygon fill="#bfbfbf" stroke="black" points="589.5,-69 589.5,-99 690.5,-99 690.5,-69 589.5,-69"/>
<text text-anchor="start" x="597.5" y="-87" font-family="Helvetica,sans-Serif" font-size="10.00">be/src/runtime/data</text>
<text text-anchor="middle" x="640" y="-76" font-family="Helvetica,sans-Serif" font-size="10.00">&#45;stream&#45;mgr.h</text>
</g>
<!-- Node2 -->
<g id="node2" class="node"><title>Node2</title>
<g id="a_node2"><a xlink:href="exchange-node_8cc.html" target="_top" xlink:title="be/src/exec/exchange\l&#45;node.cc">
<polygon fill="white" stroke="black" points="-0.5,-1 -0.5,-31 112.5,-31 112.5,-1 -0.5,-1"/>
<text text-anchor="start" x="7.5" y="-19" font-family="Helvetica,sans-Serif" font-size="10.00">be/src/exec/exchange</text>
<text text-anchor="middle" x="56" y="-8" font-family="Helvetica,sans-Serif" font-size="10.00">&#45;node.cc</text>
</a>
</g>
</g>
<!-- Node1&#45;&gt;Node2 -->
<g id="edge1" class="edge"><title>Node1&#45;&gt;Node2</title>
<path fill="none" stroke="midnightblue" d="M579.014,-79.562C481.684,-73.5025 285.438,-58.9378 121,-32 118.257,-31.5507 115.457,-31.0537 112.635,-30.5221"/>
<polygon fill="midnightblue" stroke="midnightblue" points="579.057,-83.0711 589.253,-80.1907 579.486,-76.0843 579.057,-83.0711"/>
</g>
<!-- Node3 -->
<g id="node3" class="node"><title>Node3</title>
<g id="a_node3"><a xlink:href="coordinator_8cc.html" target="_top" xlink:title="be/src/runtime/coordinator.cc">
<polygon fill="white" stroke="black" points="130.5,-6.5 130.5,-25.5 273.5,-25.5 273.5,-6.5 130.5,-6.5"/>
<text text-anchor="middle" x="202" y="-13.5" font-family="Helvetica,sans-Serif" font-size="10.00">be/src/runtime/coordinator.cc</text>
</a>
</g>
</g>
<!-- Node1&#45;&gt;Node3 -->
<g id="edge2" class="edge"><title>Node1&#45;&gt;Node3</title>
<path fill="none" stroke="midnightblue" d="M579.354,-75.1851C508.051,-65.8063 386.206,-49.1833 282,-32 270.149,-30.0458 257.348,-27.7356 245.535,-25.5213"/>
<polygon fill="midnightblue" stroke="midnightblue" points="579.129,-78.6855 589.499,-76.5155 580.039,-71.7449 579.129,-78.6855"/>
</g>
<!-- Node4 -->
<g id="node4" class="node"><title>Node4</title>
<g id="a_node4"><a xlink:href="data-stream-mgr_8cc.html" target="_top" xlink:title="be/src/runtime/data\l&#45;stream&#45;mgr.cc">
<polygon fill="white" stroke="black" points="291.5,-1 291.5,-31 392.5,-31 392.5,-1 291.5,-1"/>
<text text-anchor="start" x="299.5" y="-19" font-family="Helvetica,sans-Serif" font-size="10.00">be/src/runtime/data</text>
<text text-anchor="middle" x="342" y="-8" font-family="Helvetica,sans-Serif" font-size="10.00">&#45;stream&#45;mgr.cc</text>
</a>
</g>
</g>
<!-- Node1&#45;&gt;Node4 -->
<g id="edge3" class="edge"><title>Node1&#45;&gt;Node4</title>
<path fill="none" stroke="midnightblue" d="M579.058,-70.674C530.674,-60.7247 461.363,-46.108 401,-32 398.324,-31.3746 395.583,-30.7215 392.818,-30.0528"/>
<polygon fill="midnightblue" stroke="midnightblue" points="578.554,-74.1436 589.054,-72.7244 579.961,-67.2863 578.554,-74.1436"/>
</g>
<!-- Node5 -->
<g id="node5" class="node"><title>Node5</title>
<g id="a_node5"><a xlink:href="data-stream-recvr_8cc.html" target="_top" xlink:title="be/src/runtime/data\l&#45;stream&#45;recvr.cc">
<polygon fill="white" stroke="black" points="410.5,-1 410.5,-31 511.5,-31 511.5,-1 410.5,-1"/>
<text text-anchor="start" x="418.5" y="-19" font-family="Helvetica,sans-Serif" font-size="10.00">be/src/runtime/data</text>
<text text-anchor="middle" x="461" y="-8" font-family="Helvetica,sans-Serif" font-size="10.00">&#45;stream&#45;recvr.cc</text>
</a>
</g>
</g>
<!-- Node1&#45;&gt;Node5 -->
<g id="edge4" class="edge"><title>Node1&#45;&gt;Node5</title>
<path fill="none" stroke="midnightblue" d="M592.028,-65.3119C562.875,-54.5627 526.169,-41.0287 499.029,-31.0218"/>
<polygon fill="midnightblue" stroke="midnightblue" points="591.007,-68.6657 601.6,-68.8413 593.428,-62.0979 591.007,-68.6657"/>
</g>
<!-- Node6 -->
<g id="node6" class="node"><title>Node6</title>
<g id="a_node6"><a xlink:href="data-stream-test_8cc.html" target="_top" xlink:title="be/src/runtime/data\l&#45;stream&#45;test.cc">
<polygon fill="white" stroke="black" points="529.5,-1 529.5,-31 630.5,-31 630.5,-1 529.5,-1"/>
<text text-anchor="start" x="537.5" y="-19" font-family="Helvetica,sans-Serif" font-size="10.00">be/src/runtime/data</text>
<text text-anchor="middle" x="580" y="-8" font-family="Helvetica,sans-Serif" font-size="10.00">&#45;stream&#45;test.cc</text>
</a>
</g>
</g>
<!-- Node1&#45;&gt;Node6 -->
<g id="edge5" class="edge"><title>Node1&#45;&gt;Node6</title>
<path fill="none" stroke="midnightblue" d="M620.176,-61.1939C611.237,-51.3605 600.93,-40.0228 592.994,-31.2931"/>
<polygon fill="midnightblue" stroke="midnightblue" points="617.664,-63.6339 626.981,-68.679 622.844,-58.9252 617.664,-63.6339"/>
</g>
<!-- Node7 -->
<g id="node7" class="node"><title>Node7</title>
<g id="a_node7"><a xlink:href="exec-env_8cc.html" target="_top" xlink:title="be/src/runtime/exec\l&#45;env.cc">
<polygon fill="white" stroke="black" points="648.5,-1 648.5,-31 751.5,-31 751.5,-1 648.5,-1"/>
<text text-anchor="start" x="656.5" y="-19" font-family="Helvetica,sans-Serif" font-size="10.00">be/src/runtime/exec</text>
<text text-anchor="middle" x="700" y="-8" font-family="Helvetica,sans-Serif" font-size="10.00">&#45;env.cc</text>
</a>
</g>
</g>
<!-- Node1&#45;&gt;Node7 -->
<g id="edge6" class="edge"><title>Node1&#45;&gt;Node7</title>
<path fill="none" stroke="midnightblue" d="M659.824,-61.1939C668.763,-51.3605 679.07,-40.0228 687.006,-31.2931"/>
<polygon fill="midnightblue" stroke="midnightblue" points="657.156,-58.9252 653.019,-68.679 662.336,-63.6339 657.156,-58.9252"/>
</g>
<!-- Node8 -->
<g id="node8" class="node"><title>Node8</title>
<g id="a_node8"><a xlink:href="plan-fragment-executor_8cc.html" target="_top" xlink:title="be/src/runtime/plan\l&#45;fragment&#45;executor.cc">
<polygon fill="white" stroke="black" points="770,-1 770,-31 882,-31 882,-1 770,-1"/>
<text text-anchor="start" x="778" y="-19" font-family="Helvetica,sans-Serif" font-size="10.00">be/src/runtime/plan</text>
<text text-anchor="middle" x="826" y="-8" font-family="Helvetica,sans-Serif" font-size="10.00">&#45;fragment&#45;executor.cc</text>
</a>
</g>
</g>
<!-- Node1&#45;&gt;Node8 -->
<g id="edge7" class="edge"><title>Node1&#45;&gt;Node8</title>
<path fill="none" stroke="midnightblue" d="M689.454,-65.4519C719.81,-54.6805 758.16,-41.0722 786.484,-31.0218"/>
<polygon fill="midnightblue" stroke="midnightblue" points="688.155,-62.1987 679.902,-68.8413 690.496,-68.7957 688.155,-62.1987"/>
</g>
<!-- Node9 -->
<g id="node9" class="node"><title>Node9</title>
<g id="a_node9"><a xlink:href="runtime-state_8cc.html" target="_top" xlink:title="be/src/runtime/runtime\l&#45;state.cc">
<polygon fill="white" stroke="black" points="900,-1 900,-31 1014,-31 1014,-1 900,-1"/>
<text text-anchor="start" x="908" y="-19" font-family="Helvetica,sans-Serif" font-size="10.00">be/src/runtime/runtime</text>
<text text-anchor="middle" x="957" y="-8" font-family="Helvetica,sans-Serif" font-size="10.00">&#45;state.cc</text>
</a>
</g>
</g>
<!-- Node1&#45;&gt;Node9 -->
<g id="edge8" class="edge"><title>Node1&#45;&gt;Node9</title>
<path fill="none" stroke="midnightblue" d="M700.625,-70.9679C751.295,-60.831 825.431,-45.8126 890,-32 893.264,-31.3018 896.615,-30.5769 899.996,-29.8395"/>
<polygon fill="midnightblue" stroke="midnightblue" points="699.934,-67.5367 690.813,-72.9284 701.305,-74.401 699.934,-67.5367"/>
</g>
<!-- Node10 -->
<g id="node10" class="node"><title>Node10</title>
<g id="a_node10"><a xlink:href="impala-beeswax-server_8cc.html" target="_top" xlink:title="be/src/service/impala\l&#45;beeswax&#45;server.cc">
<polygon fill="white" stroke="black" points="1032,-1 1032,-31 1142,-31 1142,-1 1032,-1"/>
<text text-anchor="start" x="1040" y="-19" font-family="Helvetica,sans-Serif" font-size="10.00">be/src/service/impala</text>
<text text-anchor="middle" x="1087" y="-8" font-family="Helvetica,sans-Serif" font-size="10.00">&#45;beeswax&#45;server.cc</text>
</a>
</g>
</g>
<!-- Node1&#45;&gt;Node10 -->
<g id="edge9" class="edge"><title>Node1&#45;&gt;Node10</title>
<path fill="none" stroke="midnightblue" d="M701.053,-76.7352C776.881,-68.5264 910.043,-52.7065 1023,-32 1025.92,-31.465 1028.9,-30.8839 1031.91,-30.2717"/>
<polygon fill="midnightblue" stroke="midnightblue" points="700.311,-73.2946 690.742,-77.8426 701.059,-80.2546 700.311,-73.2946"/>
</g>
<!-- Node11 -->
<g id="node11" class="node"><title>Node11</title>
<g id="a_node11"><a xlink:href="impala-server_8cc.html" target="_top" xlink:title="be/src/service/impala\l&#45;server.cc">
<polygon fill="white" stroke="black" points="1160,-1 1160,-31 1270,-31 1270,-1 1160,-1"/>
<text text-anchor="start" x="1168" y="-19" font-family="Helvetica,sans-Serif" font-size="10.00">be/src/service/impala</text>
<text text-anchor="middle" x="1215" y="-8" font-family="Helvetica,sans-Serif" font-size="10.00">&#45;server.cc</text>
</a>
</g>
</g>
<!-- Node1&#45;&gt;Node11 -->
<g id="edge10" class="edge"><title>Node1&#45;&gt;Node11</title>
<path fill="none" stroke="midnightblue" d="M700.812,-79.5115C796.912,-73.4199 989.562,-58.8562 1151,-32 1153.93,-31.5131 1156.92,-30.9703 1159.93,-30.3881"/>
<polygon fill="midnightblue" stroke="midnightblue" points="700.46,-76.0266 690.697,-80.1438 700.896,-83.013 700.46,-76.0266"/>
</g>
</g>
</svg>
