<?xml version="1.0" encoding="UTF-8" standalone="no"?>
<!DOCTYPE svg PUBLIC "-//W3C//DTD SVG 1.1//EN"
 "http://www.w3.org/Graphics/SVG/1.1/DTD/svg11.dtd">
<!-- Generated by graphviz version 2.36.0 (20140111.2315)
 -->
<!-- Title: be/src/runtime/data&#45;stream&#45;mgr.h Pages: 1 -->
<!--zoomable 108 -->
<svg id="main" version="1.1" xmlns="http://www.w3.org/2000/svg" xmlns:xlink="http://www.w3.org/1999/xlink" xml:space="preserve" onload="init(evt)">
<style type="text/css"><![CDATA[
.edge:hover path { stroke: red; }
.edge:hover polygon { stroke: red; fill: red; }
]]></style>
<script type="text/javascript"><![CDATA[
var edges = document.getElementsByTagName('g');
if (edges && edges.length) {
  for (var i=0;i<edges.length;i++) {
    if (edges[i].id.substr(0,4)=='edge') {
      edges[i].setAttribute('class','edge');
    }
  }
}
]]></script>
        <defs>
                <circle id="rim" cx="0" cy="0" r="7"/>
                <circle id="rim2" cx="0" cy="0" r="3.5"/>
                <g id="zoomPlus">
                        <use xlink:href="#rim" fill="#404040">
                                <set attributeName="fill" to="#808080" begin="zoomplus.mouseover" end="zoomplus.mouseout"/>
                        </use>
                        <path d="M-4,0h8M0,-4v8" fill="none" stroke="white" stroke-width="1.5" pointer-events="none"/>
                </g>
                <g id="zoomMin">
                        <use xlink:href="#rim" fill="#404040">
                                <set attributeName="fill" to="#808080" begin="zoomminus.mouseover" end="zoomminus.mouseout"/>
                        </use>
                        <path d="M-4,0h8" fill="none" stroke="white" stroke-width="1.5" pointer-events="none"/>
                </g>
                <g id="dirArrow">
                        <path fill="none" stroke="white" stroke-width="1.5" d="M0,-3.0v7 M-2.5,-0.5L0,-3.0L2.5,-0.5"/>
                </g>
               <g id="resetDef">
                       <use xlink:href="#rim2" fill="#404040">
                               <set attributeName="fill" to="#808080" begin="reset.mouseover" end="reset.mouseout"/>
                       </use>
               </g>
        </defs>

<script type="text/javascript">
var viewWidth = 1278;
var viewHeight = 108;
var sectionId = 'dynsection-1';
</script>
<script xlink:href="svgpan.js"/>
<svg id="graph" class="graph">
<g id="viewport">
<title>be/src/runtime/data&#45;stream&#45;mgr.h</title>
<polygon fill="white" stroke="none" points="-4,4 -4,-104 1274,-104 1274,4 -4,4"/>
<!-- Node1 -->
<g id="node1" class="node"><title>Node1</title>
<polygon fill="#bfbfbf" stroke="black" points="589.5,-69 589.5,-99 690.5,-99 690.5,-69 589.5,-69"/>
<text text-anchor="start" x="597.5" y="-87" font-family="Helvetica,sans-Serif" font-size="10.00">be/src/runtime/data</text>
<text text-anchor="middle" x="640" y="-76" font-family="Helvetica,sans-Serif" font-size="10.00">&#45;stream&#45;mgr.h</text>
</g>
<!-- Node2 -->
<g id="node2" class="node"><title>Node2</title>
<g id="a_node2"><a xlink:href="exchange-node_8cc.html" target="_top" xlink:title="be/src/exec/exchange\l&#45;node.cc">
<polygon fill="white" stroke="black" points="-0.5,-1 -0.5,-31 112.5,-31 112.5,-1 -0.5,-1"/>
<text text-anchor="start" x="7.5" y="-19" font-family="Helvetica,sans-Serif" font-size="10.00">be/src/exec/exchange</text>
<text text-anchor="middle" x="56" y="-8" font-family="Helvetica,sans-Serif" font-size="10.00">&#45;node.cc</text>
</a>
</g>
</g>
<!-- Node1&#45;&gt;Node2 -->
<g id="edge1" class="edge"><title>Node1&#45;&gt;Node2</title>
<path fill="none" stroke="midnightblue" d="M579.014,-79.562C481.684,-73.5025 285.438,-58.9378 121,-32 118.257,-31.5507 115.457,-31.0537 112.635,-30.5221"/>
<polygon fill="midnightblue" stroke="midnightblue" points="579.057,-83.0711 589.253,-80.1907 579.486,-76.0843 579.057,-83.0711"/>
</g>
<!-- Node3 -->
<g id="node3" class="node"><title>Node3</title>
<g id="a_node3"><a xlink:href="coordinator_8cc.html" target="_top" xlink:title="be/src/runtime/coordinator.cc">
<polygon fill="white" stroke="black" points="130.5,-6.5 130.5,-25.5 273.5,-25.5 273.5,-6.5 130.5,-6.5"/>
<text text-anchor="middle" x="202" y="-13.5" font-family="Helvetica,sans-Serif" font-size="10.00">be/src/runtime/coordinator.cc</text>
</a>
</g>
</g>
<!-- Node1&#45;&gt;Node3 -->
<g id="edge2" class="edge"><title>Node1&#45;&gt;Node3</title>
<path fill="none" stroke="midnightblue" d="M579.354,-75.1851C508.051,-65.8063 386.206,-49.1833 282,-32 270.149,-30.0458 257.348,-27.7356 245.535,-25.5213"/>
<polygon fill="midnightblue" stroke="midnightblue" points="579.129,-78.6855 589.499,-76.5155 580.039,-71.7449 579.129,-78.6855"/>
</g>
<!-- Node4 -->
<g id="node4" class="node"><title>Node4</title>
<g id="a_node4"><a xlink:href="data-stream-mgr_8cc.html" target="_top" xlink:title="be/src/runtime/data\l&#45;stream&#45;mgr.cc">
<polygon fill="white" stroke="black" points="291.5,-1 291.5,-31 392.5,-31 392.5,-1 291.5,-1"/>
<text text-anchor="start" x="299.5" y="-19" font-family="Helvetica,sans-Serif" font-size="10.00">be/src/runtime/data</text>
<text text-anchor="middle" x="342" y="-8" font-family="Helvetica,sans-Serif" font-size="10.00">&#45;stream&#45;mgr.cc</text>
</a>
</g>
</g>
<!-- Node1&#45;&gt;Node4 -->
<g id="edge3" class="edge"><title>Node1&#45;&gt;Node4</title>
<path fill="none" stroke="midnightblue" d="M579.058,-70.674C530.674,-60.7247 461.363,-46.108 401,-32 398.324,-31.3746 395.583,-30.7215 392.818,-30.0528"/>
<polygon fill="midnightblue" stroke="midnightblue" points="578.554,-74.1436 589.054,-72.7244 579.961,-67.2863 578.554,-74.1436"/>
</g>
<!-- Node5 -->
<g id="node5" class="node"><title>Node5</title>
<g id="a_node5"><a xlink:href="data-stream-recvr_8cc.html" target="_top" xlink:title="be/src/runtime/data\l&#45;stream&#45;recvr.cc">
<polygon fill="white" stroke="black" points="410.5,-1 410.5,-31 511.5,-31 511.5,-1 410.5,-1"/>
<text text-anchor="start" x="418.5" y="-19" font-family="Helvetica,sans-Serif" font-size="10.00">be/src/runtime/data</text>
<text text-anchor="middle" x="461" y="-8" font-family="Helvetica,sans-Serif" font-size="10.00">&#45;stream&#45;recvr.cc</text>
</a>
</g>
</g>
<!-- Node1&#45;&gt;Node5 -->
<g id="edge4" class="edge"><title>Node1&#45;&gt;Node5</title>
<path fill="none" stroke="midnightblue" d="M592.028,-65.3119C562.875,-54.5627 526.169,-41.0287 499.029,-31.0218"/>
<polygon fill="midnightblue" stroke="midnightblue" points="591.007,-68.6657 601.6,-68.8413 593.428,-62.0979 591.007,-68.6657"/>
</g>
<!-- Node6 -->
<g id="node6" class="node"><title>Node6</title>
<g id="a_node6"><a xlink:href="data-stream-test_8cc.html" target="_top" xlink:title="be/src/runtime/data\l&#45;stream&#45;test.cc">
<polygon fill="white" stroke="black" points="529.5,-1 529.5,-31 630.5,-31 630.5,-1 529.5,-1"/>
<text text-anchor="start" x="537.5" y="-19" font-family="Helvetica,sans-Serif" font-size="10.00">be/src/runtime/data</text>
<text text-anchor="middle" x="580" y="-8" font-family="Helvetica,sans-Serif" font-size="10.00">&#45;stream&#45;test.cc</text>
</a>
</g>
</g>
<!-- Node1&#45;&gt;Node6 -->
<g id="edge5" class="edge"><title>Node1&#45;&gt;Node6</title>
<path fill="none" stroke="midnightblue" d="M620.176,-61.1939C611.237,-51.3605 600.93,-40.0228 592.994,-31.2931"/>
<polygon fill="midnightblue" stroke="midnightblue" points="617.664,-63.6339 626.981,-68.679 622.844,-58.9252 617.664,-63.6339"/>
</g>
<!-- Node7 -->
<g id="node7" class="node"><title>Node7</title>
<g id="a_node7"><a xlink:href="exec-env_8cc.html" target="_top" xlink:title="be/src/runtime/exec\l&#45;env.cc">
<polygon fill="white" stroke="black" points="648.5,-1 648.5,-31 751.5,-31 751.5,-1 648.5,-1"/>
<text text-anchor="start" x="656.5" y="-19" font-family="Helvetica,sans-Serif" font-size="10.00">be/src/runtime/exec</text>
<text text-anchor="middle" x="700" y="-8" font-family="Helvetica,sans-Serif" font-size="10.00">&#45;env.cc</text>
</a>
</g>
</g>
<!-- Node1&#45;&gt;Node7 -->
<g id="edge6" class="edge"><title>Node1&#45;&gt;Node7</title>
<path fill="none" stroke="midnightblue" d="M659.824,-61.1939C668.763,-51.3605 679.07,-40.0228 687.006,-31.2931"/>
<polygon fill="midnightblue" stroke="midnightblue" points="657.156,-58.9252 653.019,-68.679 662.336,-63.6339 657.156,-58.9252"/>
</g>
<!-- Node8 -->
<g id="node8" class="node"><title>Node8</title>
<g id="a_node8"><a xlink:href="plan-fragment-executor_8cc.html" target="_top" xlink:title="be/src/runtime/plan\l&#45;fragment&#45;executor.cc">
<polygon fill="white" stroke="black" points="770,-1 770,-31 882,-31 882,-1 770,-1"/>
<text text-anchor="start" x="778" y="-19" font-family="Helvetica,sans-Serif" font-size="10.00">be/src/runtime/plan</text>
<text text-anchor="middle" x="826" y="-8" font-family="Helvetica,sans-Serif" font-size="10.00">&#45;fragment&#45;executor.cc</text>
</a>
</g>
</g>
<!-- Node1&#45;&gt;Node8 -->
<g id="edge7" class="edge"><title>Node1&#45;&gt;Node8</title>
<path fill="none" stroke="midnightblue" d="M689.454,-65.4519C719.81,-54.6805 758.16,-41.0722 786.484,-31.0218"/>
<polygon fill="midnightblue" stroke="midnightblue" points="688.155,-62.1987 679.902,-68.8413 690.496,-68.7957 688.155,-62.1987"/>
</g>
<!-- Node9 -->
<g id="node9" class="node"><title>Node9</title>
<g id="a_node9"><a xlink:href="runtime-state_8cc.html" target="_top" xlink:title="be/src/runtime/runtime\l&#45;state.cc">
<polygon fill="white" stroke="black" points="900,-1 900,-31 1014,-31 1014,-1 900,-1"/>
<text text-anchor="start" x="908" y="-19" font-family="Helvetica,sans-Serif" font-size="10.00">be/src/runtime/runtime</text>
<text text-anchor="middle" x="957" y="-8" font-family="Helvetica,sans-Serif" font-size="10.00">&#45;state.cc</text>
</a>
</g>
</g>
<!-- Node1&#45;&gt;Node9 -->
<g id="edge8" class="edge"><title>Node1&#45;&gt;Node9</title>
<path fill="none" stroke="midnightblue" d="M700.625,-70.9679C751.295,-60.831 825.431,-45.8126 890,-32 893.264,-31.3018 896.615,-30.5769 899.996,-29.8395"/>
<polygon fill="midnightblue" stroke="midnightblue" points="699.934,-67.5367 690.813,-72.9284 701.305,-74.401 699.934,-67.5367"/>
</g>
<!-- Node10 -->
<g id="node10" class="node"><title>Node10</title>
<g id="a_node10"><a xlink:href="impala-beeswax-server_8cc.html" target="_top" xlink:title="be/src/service/impala\l&#45;beeswax&#45;server.cc">
<polygon fill="white" stroke="black" points="1032,-1 1032,-31 1142,-31 1142,-1 1032,-1"/>
<text text-anchor="start" x="1040" y="-19" font-family="Helvetica,sans-Serif" font-size="10.00">be/src/service/impala</text>
<text text-anchor="middle" x="1087" y="-8" font-family="Helvetica,sans-Serif" font-size="10.00">&#45;beeswax&#45;server.cc</text>
</a>
</g>
</g>
<!-- Node1&#45;&gt;Node10 -->
<g id="edge9" class="edge"><title>Node1&#45;&gt;Node10</title>
<path fill="none" stroke="midnightblue" d="M701.053,-76.7352C776.881,-68.5264 910.043,-52.7065 1023,-32 1025.92,-31.465 1028.9,-30.8839 1031.91,-30.2717"/>
<polygon fill="midnightblue" stroke="midnightblue" points="700.311,-73.2946 690.742,-77.8426 701.059,-80.2546 700.311,-73.2946"/>
</g>
<!-- Node11 -->
<g id="node11" class="node"><title>Node11</title>
<g id="a_node11"><a xlink:href="impala-server_8cc.html" target="_top" xlink:title="be/src/service/impala\l&#45;server.cc">
<polygon fill="white" stroke="black" points="1160,-1 1160,-31 1270,-31 1270,-1 1160,-1"/>
<text text-anchor="start" x="1168" y="-19" font-family="Helvetica,sans-Serif" font-size="10.00">be/src/service/impala</text>
<text text-anchor="middle" x="1215" y="-8" font-family="Helvetica,sans-Serif" font-size="10.00">&#45;server.cc</text>
</a>
</g>
</g>
<!-- Node1&#45;&gt;Node11 -->
<g id="edge10" class="edge"><title>Node1&#45;&gt;Node11</title>
<path fill="none" stroke="midnightblue" d="M700.812,-79.5115C796.912,-73.4199 989.562,-58.8562 1151,-32 1153.93,-31.5131 1156.92,-30.9703 1159.93,-30.3881"/>
<polygon fill="midnightblue" stroke="midnightblue" points="700.46,-76.0266 690.697,-80.1438 700.896,-83.013 700.46,-76.0266"/>
</g>
</g>
</svg>
        <g id="navigator" transform="translate(0 0)" fill="#404254">
                <rect fill="#f2f5e9" fill-opacity="0.5" stroke="#606060" stroke-width=".5" x="0" y="0" width="60" height="60"/>
                <use id="zoomplus" xlink:href="#zoomPlus" x="17" y="9" onmousedown="handleZoom(evt,'in')"/>
                <use id="zoomminus" xlink:href="#zoomMin" x="42" y="9" onmousedown="handleZoom(evt,'out')"/>
                <use id="reset" xlink:href="#resetDef" x="30" y="36" onmousedown="handleReset()"/>
                <g id="arrowUp" xlink:href="#dirArrow" transform="translate(30 24)" onmousedown="handlePan(0,-1)">
                  <use xlink:href="#rim" fill="#404040">
                        <set attributeName="fill" to="#808080" begin="arrowUp.mouseover" end="arrowUp.mouseout"/>
                  </use>
                  <path fill="none" stroke="white" stroke-width="1.5" d="M0,-3.0v7 M-2.5,-0.5L0,-3.0L2.5,-0.5"/>
                </g>
                <g id="arrowRight" xlink:href="#dirArrow" transform="rotate(90) translate(36 -43)" onmousedown="handlePan(1,0)">
                  <use xlink:href="#rim" fill="#404040">
                        <set attributeName="fill" to="#808080" begin="arrowRight.mouseover" end="arrowRight.mouseout"/>
                  </use>
                  <path fill="none" stroke="white" stroke-width="1.5" d="M0,-3.0v7 M-2.5,-0.5L0,-3.0L2.5,-0.5"/>
                </g>
                <g id="arrowDown" xlink:href="#dirArrow" transform="rotate(180) translate(-30 -48)" onmousedown="handlePan(0,1)">
                  <use xlink:href="#rim" fill="#404040">
                        <set attributeName="fill" to="#808080" begin="arrowDown.mouseover" end="arrowDown.mouseout"/>
                  </use>
                  <path fill="none" stroke="white" stroke-width="1.5" d="M0,-3.0v7 M-2.5,-0.5L0,-3.0L2.5,-0.5"/>
                </g>
                <g id="arrowLeft" xlink:href="#dirArrow" transform="rotate(270) translate(-36 17)" onmousedown="handlePan(-1,0)">
                  <use xlink:href="#rim" fill="#404040">
                        <set attributeName="fill" to="#808080" begin="arrowLeft.mouseover" end="arrowLeft.mouseout"/>
                  </use>
                  <path fill="none" stroke="white" stroke-width="1.5" d="M0,-3.0v7 M-2.5,-0.5L0,-3.0L2.5,-0.5"/>
                </g>
        </g>
        <svg viewBox="0 0 15 15" width="100%" height="30px" preserveAspectRatio="xMaxYMin meet">
         <g id="arrow_out" transform="scale(0.3 0.3)">
          <a xlink:href="data-stream-mgr_8h__dep__incl_org.svg" target="_base">
           <rect id="button" ry="5" rx="5" y="6" x="6" height="38" width="38"
                fill="#f2f5e9" fill-opacity="0.5" stroke="#606060" stroke-width="1.0"/>
           <path id="arrow"
             d="M 11.500037,31.436501 C 11.940474,20.09759 22.043105,11.32322 32.158766,21.979434 L 37.068811,17.246167 C 37.068811,17.246167 37.088388,32 37.088388,32 L 22.160133,31.978069 C 22.160133,31.978069 26.997745,27.140456 26.997745,27.140456 C 18.528582,18.264221 13.291696,25.230495 11.500037,31.436501 z"
             style="fill:#404040;"/>
          </a>
         </g>
        </svg>
</svg>
