<?xml version="1.0" encoding="UTF-8" standalone="no"?>
<!DOCTYPE svg PUBLIC "-//W3C//DTD SVG 1.1//EN"
 "http://www.w3.org/Graphics/SVG/1.1/DTD/svg11.dtd">
<!-- Generated by graphviz version 2.36.0 (20140111.2315)
 -->
<!-- Title: be/src/util/debug&#45;util.h Pages: 1 -->
<svg width="6775pt" height="118pt"
 viewBox="0.00 0.00 6775.00 118.00" xmlns="http://www.w3.org/2000/svg" xmlns:xlink="http://www.w3.org/1999/xlink">
<g id="graph0" class="graph" transform="scale(1 1) rotate(0) translate(4 114)">
<title>be/src/util/debug&#45;util.h</title>
<polygon fill="white" stroke="none" points="-4,4 -4,-114 6771,-114 6771,4 -4,4"/>
<!-- Node1 -->
<g id="node1" class="node"><title>Node1</title>
<polygon fill="#bfbfbf" stroke="black" points="3359.5,-90.5 3359.5,-109.5 3472.5,-109.5 3472.5,-90.5 3359.5,-90.5"/>
<text text-anchor="middle" x="3416" y="-97.5" font-family="Helvetica,sans-Serif" font-size="10.00">be/src/util/debug&#45;util.h</text>
</g>
<!-- Node2 -->
<g id="node2" class="node"><title>Node2</title>
<g id="a_node2"><a xlink:href="name-resolution-benchmark_8cc.html" target="_top" xlink:title="be/src/benchmarks/name\l&#45;resolution&#45;benchmark.cc">
<polygon fill="white" stroke="black" points="-0.5,-12 -0.5,-42 126.5,-42 126.5,-12 -0.5,-12"/>
<text text-anchor="start" x="7.5" y="-30" font-family="Helvetica,sans-Serif" font-size="10.00">be/src/benchmarks/name</text>
<text text-anchor="middle" x="63" y="-19" font-family="Helvetica,sans-Serif" font-size="10.00">&#45;resolution&#45;benchmark.cc</text>
</a>
</g>
</g>
<!-- Node1&#45;&gt;Node2 -->
<g id="edge1" class="edge"><title>Node1&#45;&gt;Node2</title>
<path fill="none" stroke="midnightblue" d="M3349.17,-98.7044C2897.09,-96.6273 299.71,-83.4415 136,-54 122.362,-51.5473 107.881,-46.8594 95.4429,-42.1319"/>
<polygon fill="midnightblue" stroke="midnightblue" points="3349.43,-102.206 3359.44,-98.7514 3349.46,-95.2056 3349.43,-102.206"/>
</g>
<!-- Node3 -->
<g id="node3" class="node"><title>Node3</title>
<g id="a_node3"><a xlink:href="thread-create-benchmark_8cc.html" target="_top" xlink:title="be/src/benchmarks/thread\l&#45;create&#45;benchmark.cc">
<polygon fill="white" stroke="black" points="145,-12 145,-42 275,-42 275,-12 145,-12"/>
<text text-anchor="start" x="153" y="-30" font-family="Helvetica,sans-Serif" font-size="10.00">be/src/benchmarks/thread</text>
<text text-anchor="middle" x="210" y="-19" font-family="Helvetica,sans-Serif" font-size="10.00">&#45;create&#45;benchmark.cc</text>
</a>
</g>
</g>
<!-- Node1&#45;&gt;Node3 -->
<g id="edge2" class="edge"><title>Node1&#45;&gt;Node3</title>
<path fill="none" stroke="midnightblue" d="M3349.41,-98.6526C2909.99,-96.2842 440.043,-81.7705 284,-54 270.191,-51.5425 255.515,-46.8536 242.905,-42.1268"/>
<polygon fill="midnightblue" stroke="midnightblue" points="3349.39,-102.152 3359.41,-98.7063 3349.42,-95.1525 3349.39,-102.152"/>
</g>
<!-- Node4 -->
<g id="node4" class="node"><title>Node4</title>
<g id="a_node4"><a xlink:href="catalog-server_8cc.html" target="_top" xlink:title="be/src/catalog/catalog\l&#45;server.cc">
<polygon fill="white" stroke="black" points="293.5,-12 293.5,-42 406.5,-42 406.5,-12 293.5,-12"/>
<text text-anchor="start" x="301.5" y="-30" font-family="Helvetica,sans-Serif" font-size="10.00">be/src/catalog/catalog</text>
<text text-anchor="middle" x="350" y="-19" font-family="Helvetica,sans-Serif" font-size="10.00">&#45;server.cc</text>
</a>
</g>
</g>
<!-- Node1&#45;&gt;Node4 -->
<g id="edge3" class="edge"><title>Node1&#45;&gt;Node4</title>
<path fill="none" stroke="midnightblue" d="M3349.15,-98.6871C2919.83,-96.5919 563.554,-83.7656 415,-54 402.725,-51.5405 389.806,-46.8513 378.747,-42.1247"/>
<polygon fill="midnightblue" stroke="midnightblue" points="3349.21,-102.187 3359.22,-98.7361 3349.24,-95.1875 3349.21,-102.187"/>
</g>
<!-- Node5 -->
<g id="node5" class="node"><title>Node5</title>
<g id="a_node5"><a xlink:href="catalog-util_8cc.html" target="_top" xlink:title="be/src/catalog/catalog\l&#45;util.cc">
<polygon fill="white" stroke="black" points="424.5,-12 424.5,-42 537.5,-42 537.5,-12 424.5,-12"/>
<text text-anchor="start" x="432.5" y="-30" font-family="Helvetica,sans-Serif" font-size="10.00">be/src/catalog/catalog</text>
<text text-anchor="middle" x="481" y="-19" font-family="Helvetica,sans-Serif" font-size="10.00">&#45;util.cc</text>
</a>
</g>
</g>
<!-- Node1&#45;&gt;Node5 -->
<g id="edge4" class="edge"><title>Node1&#45;&gt;Node5</title>
<path fill="none" stroke="midnightblue" d="M3349.13,-98.6293C2930.96,-96.2263 688.748,-82.0669 547,-54 534.557,-51.5362 521.442,-46.8461 510.211,-42.12"/>
<polygon fill="midnightblue" stroke="midnightblue" points="3349.22,-102.13 3359.24,-98.6872 3349.26,-95.1299 3349.22,-102.13"/>
</g>
<!-- Node6 -->
<g id="node6" class="node"><title>Node6</title>
<g id="a_node6"><a xlink:href="catalogd-main_8cc.html" target="_top" xlink:title="be/src/catalog/catalogd\l&#45;main.cc">
<polygon fill="white" stroke="black" points="556,-12 556,-42 674,-42 674,-12 556,-12"/>
<text text-anchor="start" x="564" y="-30" font-family="Helvetica,sans-Serif" font-size="10.00">be/src/catalog/catalogd</text>
<text text-anchor="middle" x="615" y="-19" font-family="Helvetica,sans-Serif" font-size="10.00">&#45;main.cc</text>
</a>
</g>
</g>
<!-- Node1&#45;&gt;Node6 -->
<g id="edge5" class="edge"><title>Node1&#45;&gt;Node6</title>
<path fill="none" stroke="midnightblue" d="M3349.1,-98.556C2942.67,-95.7766 817.795,-80.0401 683,-54 670.218,-51.5307 656.714,-46.8396 645.137,-42.1142"/>
<polygon fill="midnightblue" stroke="midnightblue" points="3349.2,-102.057 3359.22,-98.625 3349.25,-95.0569 3349.2,-102.057"/>
</g>
<!-- Node7 -->
<g id="node7" class="node"><title>Node7</title>
<g id="a_node7"><a xlink:href="init_8cc.html" target="_top" xlink:title="be/src/common/init.cc">
<polygon fill="white" stroke="black" points="692.5,-17.5 692.5,-36.5 805.5,-36.5 805.5,-17.5 692.5,-17.5"/>
<text text-anchor="middle" x="749" y="-24.5" font-family="Helvetica,sans-Serif" font-size="10.00">be/src/common/init.cc</text>
</a>
</g>
</g>
<!-- Node1&#45;&gt;Node7 -->
<g id="edge6" class="edge"><title>Node1&#45;&gt;Node7</title>
<path fill="none" stroke="midnightblue" d="M3349.29,-99.2674C2967.72,-100.608 1069.8,-104.666 815,-54 797.606,-50.5414 778.898,-42.7471 765.857,-36.5892"/>
<polygon fill="midnightblue" stroke="midnightblue" points="3349.36,-102.767 3359.35,-99.2315 3349.33,-95.7674 3349.36,-102.767"/>
</g>
<!-- Node8 -->
<g id="node8" class="node"><title>Node8</title>
<g id="a_node8"><a xlink:href="status_8cc.html" target="_top" xlink:title="be/src/common/status.cc">
<polygon fill="white" stroke="black" points="824,-17.5 824,-36.5 952,-36.5 952,-17.5 824,-17.5"/>
<text text-anchor="middle" x="888" y="-24.5" font-family="Helvetica,sans-Serif" font-size="10.00">be/src/common/status.cc</text>
</a>
</g>
</g>
<!-- Node1&#45;&gt;Node8 -->
<g id="edge7" class="edge"><title>Node1&#45;&gt;Node8</title>
<path fill="none" stroke="midnightblue" d="M3348.98,-99.0633C2979.73,-99.2399 1201.34,-97.7948 961,-54 941.941,-50.5271 921.226,-42.7346 906.748,-36.581"/>
<polygon fill="midnightblue" stroke="midnightblue" points="3349.24,-102.563 3359.24,-99.0578 3349.24,-95.5633 3349.24,-102.563"/>
</g>
<!-- Node9 -->
<g id="node9" class="node"><title>Node9</title>
<g id="a_node9"><a xlink:href="aggregation-node_8cc.html" target="_top" xlink:title="be/src/exec/aggregation\l&#45;node.cc">
<polygon fill="white" stroke="black" points="970.5,-12 970.5,-42 1091.5,-42 1091.5,-12 970.5,-12"/>
<text text-anchor="start" x="978.5" y="-30" font-family="Helvetica,sans-Serif" font-size="10.00">be/src/exec/aggregation</text>
<text text-anchor="middle" x="1031" y="-19" font-family="Helvetica,sans-Serif" font-size="10.00">&#45;node.cc</text>
</a>
</g>
</g>
<!-- Node1&#45;&gt;Node9 -->
<g id="edge8" class="edge"><title>Node1&#45;&gt;Node9</title>
<path fill="none" stroke="midnightblue" d="M3349.07,-99.055C2992.66,-99.1665 1325.54,-97.3506 1100,-54 1087.05,-51.5112 1073.35,-46.8162 1061.6,-42.0932"/>
<polygon fill="midnightblue" stroke="midnightblue" points="3349.23,-102.555 3359.23,-99.0512 3349.23,-95.555 3349.23,-102.555"/>
</g>
<!-- Node10 -->
<g id="node10" class="node"><title>Node10</title>
<g id="a_node10"><a xlink:href="blocking-join-node_8cc.html" target="_top" xlink:title="be/src/exec/blocking\l&#45;join&#45;node.cc">
<polygon fill="white" stroke="black" points="1109.5,-12 1109.5,-42 1216.5,-42 1216.5,-12 1109.5,-12"/>
<text text-anchor="start" x="1117.5" y="-30" font-family="Helvetica,sans-Serif" font-size="10.00">be/src/exec/blocking</text>
<text text-anchor="middle" x="1163" y="-19" font-family="Helvetica,sans-Serif" font-size="10.00">&#45;join&#45;node.cc</text>
</a>
</g>
</g>
<!-- Node1&#45;&gt;Node10 -->
<g id="edge9" class="edge"><title>Node1&#45;&gt;Node10</title>
<path fill="none" stroke="midnightblue" d="M3349.35,-99.1178C3005.17,-99.5268 1436.87,-98.8948 1225,-54 1213.24,-51.5079 1200.91,-46.8122 1190.36,-42.0897"/>
<polygon fill="midnightblue" stroke="midnightblue" points="3349.42,-102.618 3359.41,-99.1051 3349.41,-95.6178 3349.42,-102.618"/>
</g>
<!-- Node11 -->
<g id="node11" class="node"><title>Node11</title>
<g id="a_node11"><a xlink:href="cross-join-node_8cc.html" target="_top" xlink:title="be/src/exec/cross&#45;join\l&#45;node.cc">
<polygon fill="white" stroke="black" points="1234.5,-12 1234.5,-42 1347.5,-42 1347.5,-12 1234.5,-12"/>
<text text-anchor="start" x="1242.5" y="-30" font-family="Helvetica,sans-Serif" font-size="10.00">be/src/exec/cross&#45;join</text>
<text text-anchor="middle" x="1291" y="-19" font-family="Helvetica,sans-Serif" font-size="10.00">&#45;node.cc</text>
</a>
</g>
</g>
<!-- Node1&#45;&gt;Node11 -->
<g id="edge10" class="edge"><title>Node1&#45;&gt;Node11</title>
<path fill="none" stroke="midnightblue" d="M3348.87,-98.9584C3016.44,-98.5607 1554.62,-94.505 1356,-54 1343.73,-51.4985 1330.82,-46.8011 1319.76,-42.0796"/>
<polygon fill="midnightblue" stroke="midnightblue" points="3349.29,-102.459 3359.3,-98.9701 3349.3,-95.4587 3349.29,-102.459"/>
</g>
<!-- Node12 -->
<g id="node12" class="node"><title>Node12</title>
<g id="a_node12"><a xlink:href="exchange-node_8cc.html" target="_top" xlink:title="be/src/exec/exchange\l&#45;node.cc">
<polygon fill="white" stroke="black" points="1365.5,-12 1365.5,-42 1478.5,-42 1478.5,-12 1365.5,-12"/>
<text text-anchor="start" x="1373.5" y="-30" font-family="Helvetica,sans-Serif" font-size="10.00">be/src/exec/exchange</text>
<text text-anchor="middle" x="1422" y="-19" font-family="Helvetica,sans-Serif" font-size="10.00">&#45;node.cc</text>
</a>
</g>
</g>
<!-- Node1&#45;&gt;Node12 -->
<g id="edge11" class="edge"><title>Node1&#45;&gt;Node12</title>
<path fill="none" stroke="midnightblue" d="M3349,-98.8508C3029.92,-97.9499 1672.16,-91.9022 1487,-54 1474.74,-51.4894 1461.82,-46.7902 1450.76,-42.0699"/>
<polygon fill="midnightblue" stroke="midnightblue" points="3349.02,-102.351 3359.03,-98.8784 3349.04,-95.3508 3349.02,-102.351"/>
</g>
<!-- Node13 -->
<g id="node13" class="node"><title>Node13</title>
<g id="a_node13"><a xlink:href="exec-node_8cc.html" target="_top" xlink:title="be/src/exec/exec&#45;node.cc">
<polygon fill="white" stroke="black" points="1496.5,-17.5 1496.5,-36.5 1625.5,-36.5 1625.5,-17.5 1496.5,-17.5"/>
<text text-anchor="middle" x="1561" y="-24.5" font-family="Helvetica,sans-Serif" font-size="10.00">be/src/exec/exec&#45;node.cc</text>
</a>
</g>
</g>
<!-- Node1&#45;&gt;Node13 -->
<g id="edge12" class="edge"><title>Node1&#45;&gt;Node13</title>
<path fill="none" stroke="midnightblue" d="M3348.85,-98.5427C3044.92,-96.3056 1805.62,-85.3243 1635,-54 1615.71,-50.4592 1594.71,-42.6752 1580.02,-36.542"/>
<polygon fill="midnightblue" stroke="midnightblue" points="3349.23,-102.046 3359.26,-98.6186 3349.29,-95.0457 3349.23,-102.046"/>
</g>
<!-- Node14 -->
<g id="node14" class="node"><title>Node14</title>
<g id="a_node14"><a xlink:href="hash-join-node_8cc.html" target="_top" xlink:title="be/src/exec/hash&#45;join\l&#45;node.cc">
<polygon fill="white" stroke="black" points="1644,-12 1644,-42 1754,-42 1754,-12 1644,-12"/>
<text text-anchor="start" x="1652" y="-30" font-family="Helvetica,sans-Serif" font-size="10.00">be/src/exec/hash&#45;join</text>
<text text-anchor="middle" x="1699" y="-19" font-family="Helvetica,sans-Serif" font-size="10.00">&#45;node.cc</text>
</a>
</g>
</g>
<!-- Node1&#45;&gt;Node14 -->
<g id="edge13" class="edge"><title>Node1&#45;&gt;Node14</title>
<path fill="none" stroke="midnightblue" d="M3348.95,-98.5889C3058.89,-96.6189 1919.73,-86.8411 1763,-54 1750.91,-51.4666 1738.19,-46.763 1727.3,-42.0455"/>
<polygon fill="midnightblue" stroke="midnightblue" points="3349.29,-102.091 3359.31,-98.6584 3349.33,-95.0913 3349.29,-102.091"/>
</g>
<!-- Node15 -->
<g id="node15" class="node"><title>Node15</title>
<g id="a_node15"><a xlink:href="hash-join-node_8cc_8BACKUP_832326_8cc.html" target="_top" xlink:title="be/src/exec/hash&#45;join\l&#45;node.cc.BACKUP.32326.cc">
<polygon fill="white" stroke="black" points="1772,-12 1772,-42 1914,-42 1914,-12 1772,-12"/>
<text text-anchor="start" x="1780" y="-30" font-family="Helvetica,sans-Serif" font-size="10.00">be/src/exec/hash&#45;join</text>
<text text-anchor="middle" x="1843" y="-19" font-family="Helvetica,sans-Serif" font-size="10.00">&#45;node.cc.BACKUP.32326.cc</text>
</a>
</g>
</g>
<!-- Node1&#45;&gt;Node15 -->
<g id="edge14" class="edge"><title>Node1&#45;&gt;Node15</title>
<path fill="none" stroke="midnightblue" d="M3349.31,-98.104C3077.95,-94.3059 2064.41,-78.5922 1923,-54 1908.32,-51.4478 1892.64,-46.8018 1879.09,-42.1357"/>
<polygon fill="midnightblue" stroke="midnightblue" points="3349.36,-101.605 3359.41,-98.2446 3349.46,-94.6056 3349.36,-101.605"/>
</g>
<!-- Node16 -->
<g id="node16" class="node"><title>Node16</title>
<g id="a_node16"><a xlink:href="hash-join-node_8cc_8BASE_832326_8cc.html" target="_top" xlink:title="be/src/exec/hash&#45;join\l&#45;node.cc.BASE.32326.cc">
<polygon fill="white" stroke="black" points="1932.5,-12 1932.5,-42 2059.5,-42 2059.5,-12 1932.5,-12"/>
<text text-anchor="start" x="1940.5" y="-30" font-family="Helvetica,sans-Serif" font-size="10.00">be/src/exec/hash&#45;join</text>
<text text-anchor="middle" x="1996" y="-19" font-family="Helvetica,sans-Serif" font-size="10.00">&#45;node.cc.BASE.32326.cc</text>
</a>
</g>
</g>
<!-- Node1&#45;&gt;Node16 -->
<g id="edge15" class="edge"><title>Node1&#45;&gt;Node16</title>
<path fill="none" stroke="midnightblue" d="M3349.18,-99.4843C3113.01,-100.773 2318.44,-101.397 2069,-54 2055.52,-51.4384 2041.19,-46.7905 2028.83,-42.1255"/>
<polygon fill="midnightblue" stroke="midnightblue" points="3349.36,-102.983 3359.34,-99.4265 3349.32,-95.9836 3349.36,-102.983"/>
</g>
<!-- Node17 -->
<g id="node17" class="node"><title>Node17</title>
<g id="a_node17"><a xlink:href="hash-join-node_8cc_8LOCAL_832326_8cc.html" target="_top" xlink:title="be/src/exec/hash&#45;join\l&#45;node.cc.LOCAL.32326.cc">
<polygon fill="white" stroke="black" points="2078,-12 2078,-42 2210,-42 2210,-12 2078,-12"/>
<text text-anchor="start" x="2086" y="-30" font-family="Helvetica,sans-Serif" font-size="10.00">be/src/exec/hash&#45;join</text>
<text text-anchor="middle" x="2144" y="-19" font-family="Helvetica,sans-Serif" font-size="10.00">&#45;node.cc.LOCAL.32326.cc</text>
</a>
</g>
</g>
<!-- Node1&#45;&gt;Node17 -->
<g id="edge16" class="edge"><title>Node1&#45;&gt;Node17</title>
<path fill="none" stroke="midnightblue" d="M3349.4,-99.0814C3131.04,-98.9431 2438.3,-95.1849 2219,-54 2205.18,-51.4055 2190.47,-46.7509 2177.77,-42.0898"/>
<polygon fill="midnightblue" stroke="midnightblue" points="3349.43,-102.581 3359.43,-99.0854 3349.43,-95.5813 3349.43,-102.581"/>
</g>
<!-- Node18 -->
<g id="node18" class="node"><title>Node18</title>
<g id="a_node18"><a xlink:href="hash-join-node_8cc_8REMOTE_832326_8cc.html" target="_top" xlink:title="be/src/exec/hash&#45;join\l&#45;node.cc.REMOTE.32326.cc">
<polygon fill="white" stroke="black" points="2228.5,-12 2228.5,-42 2371.5,-42 2371.5,-12 2228.5,-12"/>
<text text-anchor="start" x="2236.5" y="-30" font-family="Helvetica,sans-Serif" font-size="10.00">be/src/exec/hash&#45;join</text>
<text text-anchor="middle" x="2300" y="-19" font-family="Helvetica,sans-Serif" font-size="10.00">&#45;node.cc.REMOTE.32326.cc</text>
</a>
</g>
</g>
<!-- Node1&#45;&gt;Node18 -->
<g id="edge17" class="edge"><title>Node1&#45;&gt;Node18</title>
<path fill="none" stroke="midnightblue" d="M3349.17,-98.4553C3150.72,-96.4651 2567.1,-87.8184 2380,-54 2365.34,-51.3505 2349.66,-46.6847 2336.11,-42.03"/>
<polygon fill="midnightblue" stroke="midnightblue" points="3349.41,-101.958 3359.45,-98.5559 3349.48,-94.9581 3349.41,-101.958"/>
</g>
<!-- Node19 -->
<g id="node19" class="node"><title>Node19</title>
<g id="a_node19"><a xlink:href="hash-table_8cc.html" target="_top" xlink:title="be/src/exec/hash&#45;table.cc">
<polygon fill="white" stroke="black" points="2389.5,-17.5 2389.5,-36.5 2518.5,-36.5 2518.5,-17.5 2389.5,-17.5"/>
<text text-anchor="middle" x="2454" y="-24.5" font-family="Helvetica,sans-Serif" font-size="10.00">be/src/exec/hash&#45;table.cc</text>
</a>
</g>
</g>
<!-- Node1&#45;&gt;Node19 -->
<g id="edge18" class="edge"><title>Node1&#45;&gt;Node19</title>
<path fill="none" stroke="midnightblue" d="M3349.23,-98.1338C3170.52,-95.4146 2684.23,-85.2778 2527,-54 2508.13,-50.2465 2487.56,-42.5736 2473.08,-36.5313"/>
<polygon fill="midnightblue" stroke="midnightblue" points="3349.23,-101.634 3359.28,-98.2839 3349.33,-94.6349 3349.23,-101.634"/>
</g>
<!-- Node20 -->
<g id="node20" class="node"><title>Node20</title>
<g id="a_node20"><a xlink:href="hdfs-lzo-text-scanner_8cc.html" target="_top" xlink:title="be/src/exec/hdfs&#45;lzo\l&#45;text&#45;scanner.cc">
<polygon fill="white" stroke="black" points="2536.5,-12 2536.5,-42 2641.5,-42 2641.5,-12 2536.5,-12"/>
<text text-anchor="start" x="2544.5" y="-30" font-family="Helvetica,sans-Serif" font-size="10.00">be/src/exec/hdfs&#45;lzo</text>
<text text-anchor="middle" x="2589" y="-19" font-family="Helvetica,sans-Serif" font-size="10.00">&#45;text&#45;scanner.cc</text>
</a>
</g>
</g>
<!-- Node1&#45;&gt;Node20 -->
<g id="edge19" class="edge"><title>Node1&#45;&gt;Node20</title>
<path fill="none" stroke="midnightblue" d="M3349,-98.0068C3187.79,-95.144 2781.89,-84.9927 2650,-54 2638.68,-51.3402 2626.8,-46.7322 2616.56,-42.1271"/>
<polygon fill="midnightblue" stroke="midnightblue" points="3349.2,-101.511 3359.26,-98.185 3349.32,-94.5118 3349.2,-101.511"/>
</g>
<!-- Node21 -->
<g id="node21" class="node"><title>Node21</title>
<g id="a_node21"><a xlink:href="hdfs-parquet-scanner_8cc.html" target="_top" xlink:title="be/src/exec/hdfs&#45;parquet\l&#45;scanner.cc">
<polygon fill="white" stroke="black" points="2659.5,-12 2659.5,-42 2784.5,-42 2784.5,-12 2659.5,-12"/>
<text text-anchor="start" x="2667.5" y="-30" font-family="Helvetica,sans-Serif" font-size="10.00">be/src/exec/hdfs&#45;parquet</text>
<text text-anchor="middle" x="2722" y="-19" font-family="Helvetica,sans-Serif" font-size="10.00">&#45;scanner.cc</text>
</a>
</g>
</g>
<!-- Node1&#45;&gt;Node21 -->
<g id="edge20" class="edge"><title>Node1&#45;&gt;Node21</title>
<path fill="none" stroke="midnightblue" d="M3349.28,-96.5315C3211.06,-91.0332 2897.6,-76.466 2793,-54 2780.17,-51.2434 2766.52,-46.6732 2754.67,-42.1267"/>
<polygon fill="midnightblue" stroke="midnightblue" points="3349.19,-100.031 3359.32,-96.9272 3349.47,-93.0361 3349.19,-100.031"/>
</g>
<!-- Node22 -->
<g id="node22" class="node"><title>Node22</title>
<g id="a_node22"><a xlink:href="hdfs-parquet-table-writer_8cc.html" target="_top" xlink:title="be/src/exec/hdfs&#45;parquet\l&#45;table&#45;writer.cc">
<polygon fill="white" stroke="black" points="2802.5,-12 2802.5,-42 2927.5,-42 2927.5,-12 2802.5,-12"/>
<text text-anchor="start" x="2810.5" y="-30" font-family="Helvetica,sans-Serif" font-size="10.00">be/src/exec/hdfs&#45;parquet</text>
<text text-anchor="middle" x="2865" y="-19" font-family="Helvetica,sans-Serif" font-size="10.00">&#45;table&#45;writer.cc</text>
</a>
</g>
</g>
<!-- Node1&#45;&gt;Node22 -->
<g id="edge21" class="edge"><title>Node1&#45;&gt;Node22</title>
<path fill="none" stroke="midnightblue" d="M3349.3,-98.1426C3255.81,-95.7267 3080.99,-86.7651 2936,-54 2923.32,-51.1354 2909.83,-46.598 2898.06,-42.1101"/>
<polygon fill="midnightblue" stroke="midnightblue" points="3349.39,-101.646 3359.47,-98.3877 3349.55,-94.6476 3349.39,-101.646"/>
</g>
<!-- Node23 -->
<g id="node23" class="node"><title>Node23</title>
<g id="a_node23"><a xlink:href="hdfs-scan-node_8cc.html" target="_top" xlink:title="be/src/exec/hdfs&#45;scan\l&#45;node.cc">
<polygon fill="white" stroke="black" points="2945.5,-12 2945.5,-42 3058.5,-42 3058.5,-12 2945.5,-12"/>
<text text-anchor="start" x="2953.5" y="-30" font-family="Helvetica,sans-Serif" font-size="10.00">be/src/exec/hdfs&#45;scan</text>
<text text-anchor="middle" x="3002" y="-19" font-family="Helvetica,sans-Serif" font-size="10.00">&#45;node.cc</text>
</a>
</g>
</g>
<!-- Node1&#45;&gt;Node23 -->
<g id="edge22" class="edge"><title>Node1&#45;&gt;Node23</title>
<path fill="none" stroke="midnightblue" d="M3349.33,-95.275C3278.59,-90.1923 3164.01,-78.7144 3068,-54 3056.31,-50.9915 3043.9,-46.4761 3033.03,-42.0486"/>
<polygon fill="midnightblue" stroke="midnightblue" points="3349.22,-98.7758 3359.44,-95.9793 3349.71,-91.7928 3349.22,-98.7758"/>
</g>
<!-- Node24 -->
<g id="node24" class="node"><title>Node24</title>
<g id="a_node24"><a xlink:href="hdfs-scanner_8cc.html" target="_top" xlink:title="be/src/exec/hdfs&#45;scanner.cc">
<polygon fill="white" stroke="black" points="3077,-17.5 3077,-36.5 3217,-36.5 3217,-17.5 3077,-17.5"/>
<text text-anchor="middle" x="3147" y="-24.5" font-family="Helvetica,sans-Serif" font-size="10.00">be/src/exec/hdfs&#45;scanner.cc</text>
</a>
</g>
</g>
<!-- Node1&#45;&gt;Node24 -->
<g id="edge23" class="edge"><title>Node1&#45;&gt;Node24</title>
<path fill="none" stroke="midnightblue" d="M3365.42,-88.2554C3326.97,-79.788 3272.87,-67.236 3226,-54 3207.38,-48.7413 3186.61,-41.8642 3171.04,-36.5037"/>
<polygon fill="midnightblue" stroke="midnightblue" points="3364.82,-91.7071 3375.34,-90.425 3366.32,-84.8688 3364.82,-91.7071"/>
</g>
<!-- Node25 -->
<g id="node25" class="node"><title>Node25</title>
<g id="a_node25"><a xlink:href="hdfs-text-scanner_8cc.html" target="_top" xlink:title="be/src/exec/hdfs&#45;text\l&#45;scanner.cc">
<polygon fill="white" stroke="black" points="3235.5,-12 3235.5,-42 3344.5,-42 3344.5,-12 3235.5,-12"/>
<text text-anchor="start" x="3243.5" y="-30" font-family="Helvetica,sans-Serif" font-size="10.00">be/src/exec/hdfs&#45;text</text>
<text text-anchor="middle" x="3290" y="-19" font-family="Helvetica,sans-Serif" font-size="10.00">&#45;scanner.cc</text>
</a>
</g>
</g>
<!-- Node1&#45;&gt;Node25 -->
<g id="edge24" class="edge"><title>Node1&#45;&gt;Node25</title>
<path fill="none" stroke="midnightblue" d="M3391.81,-85.3709C3369.81,-72.9723 3337.46,-54.7424 3315.16,-42.176"/>
<polygon fill="midnightblue" stroke="midnightblue" points="3390.12,-88.434 3400.55,-90.294 3393.56,-82.3356 3390.12,-88.434"/>
</g>
<!-- Node26 -->
<g id="node26" class="node"><title>Node26</title>
<g id="a_node26"><a xlink:href="old-hash-table_8cc.html" target="_top" xlink:title="be/src/exec/old&#45;hash\l&#45;table.cc">
<polygon fill="white" stroke="black" points="3362.5,-12 3362.5,-42 3469.5,-42 3469.5,-12 3362.5,-12"/>
<text text-anchor="start" x="3370.5" y="-30" font-family="Helvetica,sans-Serif" font-size="10.00">be/src/exec/old&#45;hash</text>
<text text-anchor="middle" x="3416" y="-19" font-family="Helvetica,sans-Serif" font-size="10.00">&#45;table.cc</text>
</a>
</g>
</g>
<!-- Node1&#45;&gt;Node26 -->
<g id="edge25" class="edge"><title>Node1&#45;&gt;Node26</title>
<path fill="none" stroke="midnightblue" d="M3416,-80.1032C3416,-68.1909 3416,-53.0594 3416,-42.176"/>
<polygon fill="midnightblue" stroke="midnightblue" points="3412.5,-80.294 3416,-90.294 3419.5,-80.294 3412.5,-80.294"/>
</g>
<!-- Node27 -->
<g id="node27" class="node"><title>Node27</title>
<g id="a_node27"><a xlink:href="partitioned-aggregation-node_8cc.html" target="_top" xlink:title="be/src/exec/partitioned\l&#45;aggregation&#45;node.cc">
<polygon fill="white" stroke="black" points="3488,-12 3488,-42 3604,-42 3604,-12 3488,-12"/>
<text text-anchor="start" x="3496" y="-30" font-family="Helvetica,sans-Serif" font-size="10.00">be/src/exec/partitioned</text>
<text text-anchor="middle" x="3546" y="-19" font-family="Helvetica,sans-Serif" font-size="10.00">&#45;aggregation&#45;node.cc</text>
</a>
</g>
</g>
<!-- Node1&#45;&gt;Node27 -->
<g id="edge26" class="edge"><title>Node1&#45;&gt;Node27</title>
<path fill="none" stroke="midnightblue" d="M3440.67,-85.5252C3463.34,-73.1445 3496.83,-54.8551 3519.93,-42.2385"/>
<polygon fill="midnightblue" stroke="midnightblue" points="3438.78,-82.5707 3431.68,-90.4357 3442.14,-88.7142 3438.78,-82.5707"/>
</g>
<!-- Node28 -->
<g id="node28" class="node"><title>Node28</title>
<g id="a_node28"><a xlink:href="partitioned-hash-join-node_8cc.html" target="_top" xlink:title="be/src/exec/partitioned\l&#45;hash&#45;join&#45;node.cc">
<polygon fill="white" stroke="black" points="3622,-12 3622,-42 3738,-42 3738,-12 3622,-12"/>
<text text-anchor="start" x="3630" y="-30" font-family="Helvetica,sans-Serif" font-size="10.00">be/src/exec/partitioned</text>
<text text-anchor="middle" x="3680" y="-19" font-family="Helvetica,sans-Serif" font-size="10.00">&#45;hash&#45;join&#45;node.cc</text>
</a>
</g>
</g>
<!-- Node1&#45;&gt;Node28 -->
<g id="edge27" class="edge"><title>Node1&#45;&gt;Node28</title>
<path fill="none" stroke="midnightblue" d="M3471.21,-88.4707C3510.78,-80.4054 3565.14,-68.2608 3612,-54 3623.25,-50.5776 3635.29,-46.2105 3646.08,-42.0367"/>
<polygon fill="midnightblue" stroke="midnightblue" points="3470.34,-85.0758 3461.23,-90.4828 3471.72,-91.9378 3470.34,-85.0758"/>
</g>
<!-- Node29 -->
<g id="node29" class="node"><title>Node29</title>
<g id="a_node29"><a xlink:href="row-batch-list_8h.html" target="_top" xlink:title="be/src/exec/row&#45;batch\l&#45;list.h">
<polygon fill="white" stroke="red" points="3756.5,-12 3756.5,-42 3869.5,-42 3869.5,-12 3756.5,-12"/>
<text text-anchor="start" x="3764.5" y="-30" font-family="Helvetica,sans-Serif" font-size="10.00">be/src/exec/row&#45;batch</text>
<text text-anchor="middle" x="3813" y="-19" font-family="Helvetica,sans-Serif" font-size="10.00">&#45;list.h</text>
</a>
</g>
</g>
<!-- Node1&#45;&gt;Node29 -->
<g id="edge28" class="edge"><title>Node1&#45;&gt;Node29</title>
<path fill="none" stroke="midnightblue" d="M3482.58,-94.5292C3549.87,-88.9412 3656.41,-77.1489 3746,-54 3757.72,-50.9723 3770.18,-46.5062 3781.13,-42.1265"/>
<polygon fill="midnightblue" stroke="midnightblue" points="3482.22,-91.0467 3472.54,-95.3414 3482.79,-98.0239 3482.22,-91.0467"/>
</g>
<!-- Node30 -->
<g id="node30" class="node"><title>Node30</title>
<g id="a_node30"><a xlink:href="scanner-context_8cc.html" target="_top" xlink:title="be/src/exec/scanner\l&#45;context.cc">
<polygon fill="white" stroke="black" points="3887.5,-12 3887.5,-42 3992.5,-42 3992.5,-12 3887.5,-12"/>
<text text-anchor="start" x="3895.5" y="-30" font-family="Helvetica,sans-Serif" font-size="10.00">be/src/exec/scanner</text>
<text text-anchor="middle" x="3940" y="-19" font-family="Helvetica,sans-Serif" font-size="10.00">&#45;context.cc</text>
</a>
</g>
</g>
<!-- Node1&#45;&gt;Node30 -->
<g id="edge29" class="edge"><title>Node1&#45;&gt;Node30</title>
<path fill="none" stroke="midnightblue" d="M3482.91,-98.7251C3573.74,-96.9479 3740.5,-88.6839 3878,-54 3889.32,-51.1452 3901.25,-46.5535 3911.6,-42.0173"/>
<polygon fill="midnightblue" stroke="midnightblue" points="3482.69,-95.2284 3472.75,-98.9029 3482.81,-102.227 3482.69,-95.2284"/>
</g>
<!-- Node31 -->
<g id="node31" class="node"><title>Node31</title>
<g id="a_node31"><a xlink:href="topn-node_8cc.html" target="_top" xlink:title="be/src/exec/topn&#45;node.cc">
<polygon fill="white" stroke="black" points="4010.5,-17.5 4010.5,-36.5 4137.5,-36.5 4137.5,-17.5 4010.5,-17.5"/>
<text text-anchor="middle" x="4074" y="-24.5" font-family="Helvetica,sans-Serif" font-size="10.00">be/src/exec/topn&#45;node.cc</text>
</a>
</g>
</g>
<!-- Node1&#45;&gt;Node31 -->
<g id="edge30" class="edge"><title>Node1&#45;&gt;Node31</title>
<path fill="none" stroke="midnightblue" d="M3483.01,-99.5795C3592.59,-99.2534 3816.4,-93.2425 4001,-54 4019.69,-50.0276 4040.1,-42.4625 4054.58,-36.5125"/>
<polygon fill="midnightblue" stroke="midnightblue" points="3482.77,-96.0798 3472.77,-99.5942 3482.78,-103.08 3482.77,-96.0798"/>
</g>
<!-- Node32 -->
<g id="node32" class="node"><title>Node32</title>
<g id="a_node32"><a xlink:href="cache-hash-test_8cc.html" target="_top" xlink:title="be/src/experiments\l/hashing/cache&#45;hash\l&#45;test.cc">
<polygon fill="white" stroke="black" points="4155.5,-6.5 4155.5,-47.5 4262.5,-47.5 4262.5,-6.5 4155.5,-6.5"/>
<text text-anchor="start" x="4163.5" y="-35.5" font-family="Helvetica,sans-Serif" font-size="10.00">be/src/experiments</text>
<text text-anchor="start" x="4163.5" y="-24.5" font-family="Helvetica,sans-Serif" font-size="10.00">/hashing/cache&#45;hash</text>
<text text-anchor="middle" x="4209" y="-13.5" font-family="Helvetica,sans-Serif" font-size="10.00">&#45;test.cc</text>
</a>
</g>
</g>
<!-- Node1&#45;&gt;Node32 -->
<g id="edge31" class="edge"><title>Node1&#45;&gt;Node32</title>
<path fill="none" stroke="midnightblue" d="M3483.1,-97.6812C3638.83,-94.1654 4021.04,-82.796 4146,-54 4152.92,-52.4058 4160.05,-50.1307 4166.93,-47.5813"/>
<polygon fill="midnightblue" stroke="midnightblue" points="3482.65,-94.1902 3472.73,-97.9112 3482.8,-101.189 3482.65,-94.1902"/>
</g>
<!-- Node33 -->
<g id="node33" class="node"><title>Node33</title>
<g id="a_node33"><a xlink:href="growing-test_8cc.html" target="_top" xlink:title="be/src/experiments\l/hashing/growing&#45;test.cc">
<polygon fill="white" stroke="black" points="4280.5,-12 4280.5,-42 4403.5,-42 4403.5,-12 4280.5,-12"/>
<text text-anchor="start" x="4288.5" y="-30" font-family="Helvetica,sans-Serif" font-size="10.00">be/src/experiments</text>
<text text-anchor="middle" x="4342" y="-19" font-family="Helvetica,sans-Serif" font-size="10.00">/hashing/growing&#45;test.cc</text>
</a>
</g>
</g>
<!-- Node1&#45;&gt;Node33 -->
<g id="edge32" class="edge"><title>Node1&#45;&gt;Node33</title>
<path fill="none" stroke="midnightblue" d="M3482.64,-98.0542C3656.48,-95.1776 4120.63,-84.764 4271,-54 4283.99,-51.3425 4297.78,-46.735 4309.72,-42.1297"/>
<polygon fill="midnightblue" stroke="midnightblue" points="3482.55,-94.5552 3472.61,-98.2172 3482.66,-101.554 3482.55,-94.5552"/>
</g>
<!-- Node34 -->
<g id="node34" class="node"><title>Node34</title>
<g id="a_node34"><a xlink:href="interface_2cache-hash-test_8cc.html" target="_top" xlink:title="be/src/experiments\l/hashing/interface/cache\l&#45;hash&#45;test.cc">
<polygon fill="white" stroke="black" points="4421.5,-6.5 4421.5,-47.5 4544.5,-47.5 4544.5,-6.5 4421.5,-6.5"/>
<text text-anchor="start" x="4429.5" y="-35.5" font-family="Helvetica,sans-Serif" font-size="10.00">be/src/experiments</text>
<text text-anchor="start" x="4429.5" y="-24.5" font-family="Helvetica,sans-Serif" font-size="10.00">/hashing/interface/cache</text>
<text text-anchor="middle" x="4483" y="-13.5" font-family="Helvetica,sans-Serif" font-size="10.00">&#45;hash&#45;test.cc</text>
</a>
</g>
</g>
<!-- Node1&#45;&gt;Node34 -->
<g id="edge33" class="edge"><title>Node1&#45;&gt;Node34</title>
<path fill="none" stroke="midnightblue" d="M3482.66,-98.6355C3675.83,-97.1603 4233.5,-89.829 4412,-54 4419.85,-52.4242 4427.99,-50.1231 4435.84,-47.5319"/>
<polygon fill="midnightblue" stroke="midnightblue" points="3482.62,-95.1356 3472.65,-98.7092 3482.67,-102.135 3482.62,-95.1356"/>
</g>
<!-- Node35 -->
<g id="node35" class="node"><title>Node35</title>
<g id="a_node35"><a xlink:href="interface_2growing-test_8cc.html" target="_top" xlink:title="be/src/experiments\l/hashing/interface/growing\l&#45;test.cc">
<polygon fill="white" stroke="black" points="4562.5,-6.5 4562.5,-47.5 4693.5,-47.5 4693.5,-6.5 4562.5,-6.5"/>
<text text-anchor="start" x="4570.5" y="-35.5" font-family="Helvetica,sans-Serif" font-size="10.00">be/src/experiments</text>
<text text-anchor="start" x="4570.5" y="-24.5" font-family="Helvetica,sans-Serif" font-size="10.00">/hashing/interface/growing</text>
<text text-anchor="middle" x="4628" y="-13.5" font-family="Helvetica,sans-Serif" font-size="10.00">&#45;test.cc</text>
</a>
</g>
</g>
<!-- Node1&#45;&gt;Node35 -->
<g id="edge34" class="edge"><title>Node1&#45;&gt;Node35</title>
<path fill="none" stroke="midnightblue" d="M3482.83,-98.9253C3694.11,-98.2852 4345.89,-93.1074 4553,-54 4561.26,-52.4402 4569.84,-50.1475 4578.12,-47.5598"/>
<polygon fill="midnightblue" stroke="midnightblue" points="3482.8,-95.4253 3472.8,-98.9533 3482.81,-102.425 3482.8,-95.4253"/>
</g>
<!-- Node36 -->
<g id="node36" class="node"><title>Node36</title>
<g id="a_node36"><a xlink:href="multilevel_2cache-hash-test_8cc.html" target="_top" xlink:title="be/src/experiments\l/hashing/multilevel\l/cache&#45;hash&#45;test.cc">
<polygon fill="white" stroke="black" points="4711.5,-6.5 4711.5,-47.5 4814.5,-47.5 4814.5,-6.5 4711.5,-6.5"/>
<text text-anchor="start" x="4719.5" y="-35.5" font-family="Helvetica,sans-Serif" font-size="10.00">be/src/experiments</text>
<text text-anchor="start" x="4719.5" y="-24.5" font-family="Helvetica,sans-Serif" font-size="10.00">/hashing/multilevel</text>
<text text-anchor="middle" x="4763" y="-13.5" font-family="Helvetica,sans-Serif" font-size="10.00">/cache&#45;hash&#45;test.cc</text>
</a>
</g>
</g>
<!-- Node1&#45;&gt;Node36 -->
<g id="edge35" class="edge"><title>Node1&#45;&gt;Node36</title>
<path fill="none" stroke="midnightblue" d="M3483.08,-98.0917C3730.37,-94.5456 4582.89,-80.5038 4702,-54 4708.85,-52.4747 4715.91,-50.2001 4722.67,-47.6199"/>
<polygon fill="midnightblue" stroke="midnightblue" points="3482.75,-94.5959 3472.8,-98.238 3482.85,-101.595 3482.75,-94.5959"/>
</g>
<!-- Node37 -->
<g id="node37" class="node"><title>Node37</title>
<g id="a_node37"><a xlink:href="multilevel_2growing-test_8cc.html" target="_top" xlink:title="be/src/experiments\l/hashing/multilevel\l/growing&#45;test.cc">
<polygon fill="white" stroke="black" points="4833,-6.5 4833,-47.5 4933,-47.5 4933,-6.5 4833,-6.5"/>
<text text-anchor="start" x="4841" y="-35.5" font-family="Helvetica,sans-Serif" font-size="10.00">be/src/experiments</text>
<text text-anchor="start" x="4841" y="-24.5" font-family="Helvetica,sans-Serif" font-size="10.00">/hashing/multilevel</text>
<text text-anchor="middle" x="4883" y="-13.5" font-family="Helvetica,sans-Serif" font-size="10.00">/growing&#45;test.cc</text>
</a>
</g>
</g>
<!-- Node1&#45;&gt;Node37 -->
<g id="edge36" class="edge"><title>Node1&#45;&gt;Node37</title>
<path fill="none" stroke="midnightblue" d="M3482.77,-98.3361C3744.37,-95.5338 4691.65,-83.4326 4823,-54 4829.87,-52.4609 4836.93,-50.1423 4843.69,-47.5121"/>
<polygon fill="midnightblue" stroke="midnightblue" points="3482.62,-94.8374 3472.65,-98.4434 3482.69,-101.837 3482.62,-94.8374"/>
</g>
<!-- Node38 -->
<g id="node38" class="node"><title>Node38</title>
<g id="a_node38"><a xlink:href="prefetch_2cache-hash-test_8cc.html" target="_top" xlink:title="be/src/experiments\l/hashing/prefetch/cache\l&#45;hash&#45;test.cc">
<polygon fill="white" stroke="black" points="4951.5,-6.5 4951.5,-47.5 5072.5,-47.5 5072.5,-6.5 4951.5,-6.5"/>
<text text-anchor="start" x="4959.5" y="-35.5" font-family="Helvetica,sans-Serif" font-size="10.00">be/src/experiments</text>
<text text-anchor="start" x="4959.5" y="-24.5" font-family="Helvetica,sans-Serif" font-size="10.00">/hashing/prefetch/cache</text>
<text text-anchor="middle" x="5012" y="-13.5" font-family="Helvetica,sans-Serif" font-size="10.00">&#45;hash&#45;test.cc</text>
</a>
</g>
</g>
<!-- Node1&#45;&gt;Node38 -->
<g id="edge37" class="edge"><title>Node1&#45;&gt;Node38</title>
<path fill="none" stroke="midnightblue" d="M3482.8,-98.31C3758.2,-95.2912 4797.77,-82.1219 4942,-54 4949.89,-52.4618 4958.06,-50.1437 4965.92,-47.5136"/>
<polygon fill="midnightblue" stroke="midnightblue" points="3482.52,-94.8127 3472.56,-98.4214 3482.6,-101.812 3482.52,-94.8127"/>
</g>
<!-- Node39 -->
<g id="node39" class="node"><title>Node39</title>
<g id="a_node39"><a xlink:href="prefetch_2growing-test_8cc.html" target="_top" xlink:title="be/src/experiments\l/hashing/prefetch/growing\l&#45;test.cc">
<polygon fill="white" stroke="black" points="5091,-6.5 5091,-47.5 5219,-47.5 5219,-6.5 5091,-6.5"/>
<text text-anchor="start" x="5099" y="-35.5" font-family="Helvetica,sans-Serif" font-size="10.00">be/src/experiments</text>
<text text-anchor="start" x="5099" y="-24.5" font-family="Helvetica,sans-Serif" font-size="10.00">/hashing/prefetch/growing</text>
<text text-anchor="middle" x="5155" y="-13.5" font-family="Helvetica,sans-Serif" font-size="10.00">&#45;test.cc</text>
</a>
</g>
</g>
<!-- Node1&#45;&gt;Node39 -->
<g id="edge38" class="edge"><title>Node1&#45;&gt;Node39</title>
<path fill="none" stroke="midnightblue" d="M3483.02,-98.4164C3774.24,-95.7141 4922.29,-83.2816 5081,-54 5089.3,-52.4682 5097.92,-50.1533 5106.22,-47.5245"/>
<polygon fill="midnightblue" stroke="midnightblue" points="3482.58,-94.9202 3472.62,-98.5122 3482.65,-101.92 3482.58,-94.9202"/>
</g>
<!-- Node40 -->
<g id="node40" class="node"><title>Node40</title>
<g id="a_node40"><a xlink:href="split-benchmarks_2cache-hash-test_8cc.html" target="_top" xlink:title="be/src/experiments\l/hashing/split&#45;benchmarks\l/cache&#45;hash&#45;test.cc">
<polygon fill="white" stroke="black" points="5237.5,-6.5 5237.5,-47.5 5368.5,-47.5 5368.5,-6.5 5237.5,-6.5"/>
<text text-anchor="start" x="5245.5" y="-35.5" font-family="Helvetica,sans-Serif" font-size="10.00">be/src/experiments</text>
<text text-anchor="start" x="5245.5" y="-24.5" font-family="Helvetica,sans-Serif" font-size="10.00">/hashing/split&#45;benchmarks</text>
<text text-anchor="middle" x="5303" y="-13.5" font-family="Helvetica,sans-Serif" font-size="10.00">/cache&#45;hash&#45;test.cc</text>
</a>
</g>
</g>
<!-- Node1&#45;&gt;Node40 -->
<g id="edge39" class="edge"><title>Node1&#45;&gt;Node40</title>
<path fill="none" stroke="midnightblue" d="M3482.85,-98.5599C3789.49,-96.3761 5054.06,-85.5194 5228,-54 5236.41,-52.4765 5245.14,-50.1659 5253.55,-47.5389"/>
<polygon fill="midnightblue" stroke="midnightblue" points="3482.75,-95.0604 3472.77,-98.631 3482.8,-102.06 3482.75,-95.0604"/>
</g>
<!-- Node41 -->
<g id="node41" class="node"><title>Node41</title>
<g id="a_node41"><a xlink:href="split-benchmarks_2growing-test_8cc.html" target="_top" xlink:title="be/src/experiments\l/hashing/split&#45;benchmarks\l/growing&#45;test.cc">
<polygon fill="white" stroke="black" points="5386.5,-6.5 5386.5,-47.5 5517.5,-47.5 5517.5,-6.5 5386.5,-6.5"/>
<text text-anchor="start" x="5394.5" y="-35.5" font-family="Helvetica,sans-Serif" font-size="10.00">be/src/experiments</text>
<text text-anchor="start" x="5394.5" y="-24.5" font-family="Helvetica,sans-Serif" font-size="10.00">/hashing/split&#45;benchmarks</text>
<text text-anchor="middle" x="5452" y="-13.5" font-family="Helvetica,sans-Serif" font-size="10.00">/growing&#45;test.cc</text>
</a>
</g>
</g>
<!-- Node1&#45;&gt;Node41 -->
<g id="edge40" class="edge"><title>Node1&#45;&gt;Node41</title>
<path fill="none" stroke="midnightblue" d="M3483.01,-98.6953C3805.26,-97.0638 5187.71,-88.117 5377,-54 5385.41,-52.4844 5394.14,-50.1779 5402.55,-47.5525"/>
<polygon fill="midnightblue" stroke="midnightblue" points="3482.87,-95.1958 3472.89,-98.7458 3482.91,-102.196 3482.87,-95.1958"/>
</g>
<!-- Node42 -->
<g id="node42" class="node"><title>Node42</title>
<g id="a_node42"><a xlink:href="partitioning-throughput-test_8cc.html" target="_top" xlink:title="be/src/experiments\l/hashing/split&#45;benchmarks\l/partitioning&#45;throughput\l&#45;test.cc">
<polygon fill="white" stroke="black" points="5535.5,-1 5535.5,-53 5666.5,-53 5666.5,-1 5535.5,-1"/>
<text text-anchor="start" x="5543.5" y="-41" font-family="Helvetica,sans-Serif" font-size="10.00">be/src/experiments</text>
<text text-anchor="start" x="5543.5" y="-30" font-family="Helvetica,sans-Serif" font-size="10.00">/hashing/split&#45;benchmarks</text>
<text text-anchor="start" x="5543.5" y="-19" font-family="Helvetica,sans-Serif" font-size="10.00">/partitioning&#45;throughput</text>
<text text-anchor="middle" x="5601" y="-8" font-family="Helvetica,sans-Serif" font-size="10.00">&#45;test.cc</text>
</a>
</g>
</g>
<!-- Node1&#45;&gt;Node42 -->
<g id="edge41" class="edge"><title>Node1&#45;&gt;Node42</title>
<path fill="none" stroke="midnightblue" d="M3482.84,-98.8132C3819.48,-97.7062 5321.26,-90.7311 5526,-54 5529.12,-53.4403 5532.28,-52.7713 5535.46,-52.0172"/>
<polygon fill="midnightblue" stroke="midnightblue" points="3482.74,-95.3134 3472.75,-98.8458 3482.77,-102.313 3482.74,-95.3134"/>
</g>
<!-- Node43 -->
<g id="node43" class="node"><title>Node43</title>
<g id="a_node43"><a xlink:href="streaming_2cache-hash-test_8cc.html" target="_top" xlink:title="be/src/experiments\l/hashing/streaming/cache\l&#45;hash&#45;test.cc">
<polygon fill="white" stroke="black" points="5685,-6.5 5685,-47.5 5813,-47.5 5813,-6.5 5685,-6.5"/>
<text text-anchor="start" x="5693" y="-35.5" font-family="Helvetica,sans-Serif" font-size="10.00">be/src/experiments</text>
<text text-anchor="start" x="5693" y="-24.5" font-family="Helvetica,sans-Serif" font-size="10.00">/hashing/streaming/cache</text>
<text text-anchor="middle" x="5749" y="-13.5" font-family="Helvetica,sans-Serif" font-size="10.00">&#45;hash&#45;test.cc</text>
</a>
</g>
</g>
<!-- Node1&#45;&gt;Node43 -->
<g id="edge42" class="edge"><title>Node1&#45;&gt;Node43</title>
<path fill="none" stroke="midnightblue" d="M3482.95,-98.9312C3834.02,-98.4008 5454.91,-93.799 5675,-54 5683.31,-52.4977 5691.93,-50.198 5700.23,-47.5753"/>
<polygon fill="midnightblue" stroke="midnightblue" points="3482.68,-95.4314 3472.69,-98.946 3482.69,-102.431 3482.68,-95.4314"/>
</g>
<!-- Node44 -->
<g id="node44" class="node"><title>Node44</title>
<g id="a_node44"><a xlink:href="streaming_2growing-test_8cc.html" target="_top" xlink:title="be/src/experiments\l/hashing/streaming/growing\l&#45;test.cc">
<polygon fill="white" stroke="black" points="5831,-6.5 5831,-47.5 5967,-47.5 5967,-6.5 5831,-6.5"/>
<text text-anchor="start" x="5839" y="-35.5" font-family="Helvetica,sans-Serif" font-size="10.00">be/src/experiments</text>
<text text-anchor="start" x="5839" y="-24.5" font-family="Helvetica,sans-Serif" font-size="10.00">/hashing/streaming/growing</text>
<text text-anchor="middle" x="5899" y="-13.5" font-family="Helvetica,sans-Serif" font-size="10.00">&#45;test.cc</text>
</a>
</g>
</g>
<!-- Node1&#45;&gt;Node44 -->
<g id="edge43" class="edge"><title>Node1&#45;&gt;Node44</title>
<path fill="none" stroke="midnightblue" d="M3482.85,-98.9713C3847.25,-98.6515 5586.37,-94.9743 5822,-54 5830.62,-52.5013 5839.58,-50.2035 5848.21,-47.5816"/>
<polygon fill="midnightblue" stroke="midnightblue" points="3482.72,-95.4713 3472.72,-98.9796 3482.72,-102.471 3482.72,-95.4713"/>
</g>
<!-- Node45 -->
<g id="node45" class="node"><title>Node45</title>
<g id="a_node45"><a xlink:href="agg-fn-evaluator_8cc.html" target="_top" xlink:title="be/src/exprs/agg&#45;fn\l&#45;evaluator.cc">
<polygon fill="white" stroke="black" points="5985.5,-12 5985.5,-42 6086.5,-42 6086.5,-12 5985.5,-12"/>
<text text-anchor="start" x="5993.5" y="-30" font-family="Helvetica,sans-Serif" font-size="10.00">be/src/exprs/agg&#45;fn</text>
<text text-anchor="middle" x="6036" y="-19" font-family="Helvetica,sans-Serif" font-size="10.00">&#45;evaluator.cc</text>
</a>
</g>
</g>
<!-- Node1&#45;&gt;Node45 -->
<g id="edge44" class="edge"><title>Node1&#45;&gt;Node45</title>
<path fill="none" stroke="midnightblue" d="M3482.69,-98.5612C3873.22,-95.8996 5850.75,-81.1213 5976,-54 5987.43,-51.5254 5999.37,-46.8332 6009.57,-42.1084"/>
<polygon fill="midnightblue" stroke="midnightblue" points="3482.65,-95.0613 3472.68,-98.6292 3482.7,-102.061 3482.65,-95.0613"/>
</g>
<!-- Node46 -->
<g id="node46" class="node"><title>Node46</title>
<g id="a_node46"><a xlink:href="expr-benchmark_8cc.html" target="_top" xlink:title="be/src/exprs/expr&#45;benchmark.cc">
<polygon fill="white" stroke="black" points="6104.5,-17.5 6104.5,-36.5 6261.5,-36.5 6261.5,-17.5 6104.5,-17.5"/>
<text text-anchor="middle" x="6183" y="-24.5" font-family="Helvetica,sans-Serif" font-size="10.00">be/src/exprs/expr&#45;benchmark.cc</text>
</a>
</g>
</g>
<!-- Node1&#45;&gt;Node46 -->
<g id="edge45" class="edge"><title>Node1&#45;&gt;Node46</title>
<path fill="none" stroke="midnightblue" d="M3482.75,-98.9577C3870.99,-98.5682 5830.08,-94.591 6095,-54 6117.68,-50.5256 6142.68,-42.7334 6160.23,-36.5801"/>
<polygon fill="midnightblue" stroke="midnightblue" points="3482.53,-95.4578 3472.53,-98.9675 3482.53,-102.458 3482.53,-95.4578"/>
</g>
<!-- Node47 -->
<g id="node47" class="node"><title>Node47</title>
<g id="a_node47"><a xlink:href="expr-test_8cc.html" target="_top" xlink:title="be/src/exprs/expr&#45;test.cc">
<polygon fill="white" stroke="black" points="6279.5,-17.5 6279.5,-36.5 6404.5,-36.5 6404.5,-17.5 6279.5,-17.5"/>
<text text-anchor="middle" x="6342" y="-24.5" font-family="Helvetica,sans-Serif" font-size="10.00">be/src/exprs/expr&#45;test.cc</text>
</a>
</g>
</g>
<!-- Node1&#45;&gt;Node47 -->
<g id="edge46" class="edge"><title>Node1&#45;&gt;Node47</title>
<path fill="none" stroke="midnightblue" d="M3482.85,-98.5702C3899.62,-95.812 6128.65,-79.8906 6270,-54 6288.82,-50.5521 6309.25,-42.7565 6323.52,-36.5953"/>
<polygon fill="midnightblue" stroke="midnightblue" points="3482.74,-95.0707 3472.76,-98.6366 3482.79,-102.071 3482.74,-95.0707"/>
</g>
<!-- Node48 -->
<g id="node48" class="node"><title>Node48</title>
<g id="a_node48"><a xlink:href="scalar-fn-call_8cc.html" target="_top" xlink:title="be/src/exprs/scalar\l&#45;fn&#45;call.cc">
<polygon fill="white" stroke="black" points="6423,-12 6423,-42 6523,-42 6523,-12 6423,-12"/>
<text text-anchor="start" x="6431" y="-30" font-family="Helvetica,sans-Serif" font-size="10.00">be/src/exprs/scalar</text>
<text text-anchor="middle" x="6473" y="-19" font-family="Helvetica,sans-Serif" font-size="10.00">&#45;fn&#45;call.cc</text>
</a>
</g>
</g>
<!-- Node1&#45;&gt;Node48 -->
<g id="edge47" class="edge"><title>Node1&#45;&gt;Node48</title>
<path fill="none" stroke="midnightblue" d="M3482.78,-98.7389C3911.59,-96.9693 6265.08,-85.8311 6413,-54 6424.43,-51.54 6436.38,-46.8507 6446.57,-42.1241"/>
<polygon fill="midnightblue" stroke="midnightblue" points="3482.7,-95.2391 3472.71,-98.7801 3482.73,-102.239 3482.7,-95.2391"/>
</g>
<!-- Node49 -->
<g id="node49" class="node"><title>Node49</title>
<g id="a_node49"><a xlink:href="utility-functions_8cc.html" target="_top" xlink:title="be/src/exprs/utility\l&#45;functions.cc">
<polygon fill="white" stroke="black" points="6541.5,-12 6541.5,-42 6638.5,-42 6638.5,-12 6541.5,-12"/>
<text text-anchor="start" x="6549.5" y="-30" font-family="Helvetica,sans-Serif" font-size="10.00">be/src/exprs/utility</text>
<text text-anchor="middle" x="6590" y="-19" font-family="Helvetica,sans-Serif" font-size="10.00">&#45;functions.cc</text>
</a>
</g>
</g>
<!-- Node1&#45;&gt;Node49 -->
<g id="edge48" class="edge"><title>Node1&#45;&gt;Node49</title>
<path fill="none" stroke="midnightblue" d="M3482.96,-98.8014C3922.17,-97.4027 6378.12,-88.0756 6532,-54 6543.1,-51.5426 6554.65,-46.8537 6564.5,-42.1268"/>
<polygon fill="midnightblue" stroke="midnightblue" points="3482.65,-95.3022 3472.66,-98.8339 3482.67,-102.302 3482.65,-95.3022"/>
</g>
<!-- Node50 -->
<g id="node50" class="node"><title>Node50</title>
<g id="a_node50"><a xlink:href="resource-broker_8cc.html" target="_top" xlink:title="be/src/resourcebroker\l/resource&#45;broker.cc">
<polygon fill="white" stroke="black" points="6656.5,-12 6656.5,-42 6767.5,-42 6767.5,-12 6656.5,-12"/>
<text text-anchor="start" x="6664.5" y="-30" font-family="Helvetica,sans-Serif" font-size="10.00">be/src/resourcebroker</text>
<text text-anchor="middle" x="6712" y="-19" font-family="Helvetica,sans-Serif" font-size="10.00">/resource&#45;broker.cc</text>
</a>
</g>
</g>
<!-- Node1&#45;&gt;Node50 -->
<g id="edge49" class="edge"><title>Node1&#45;&gt;Node50</title>
<path fill="none" stroke="midnightblue" d="M3482.92,-98.7612C3931.33,-97.0746 6486.45,-86.0797 6647,-54 6659.28,-51.5471 6672.2,-46.8591 6683.25,-42.1317"/>
<polygon fill="midnightblue" stroke="midnightblue" points="3482.71,-95.2619 3472.72,-98.7993 3482.73,-102.262 3482.71,-95.2619"/>
</g>
</g>
</svg>
