<?xml version="1.0" encoding="UTF-8" standalone="no"?>
<!DOCTYPE svg PUBLIC "-//W3C//DTD SVG 1.1//EN"
 "http://www.w3.org/Graphics/SVG/1.1/DTD/svg11.dtd">
<!-- Generated by graphviz version 2.36.0 (20140111.2315)
 -->
<!-- Title: be/src/exprs/decimal&#45;functions.h Pages: 1 -->
<svg width="1098pt" height="456pt"
 viewBox="0.00 0.00 1097.72 456.00" xmlns="http://www.w3.org/2000/svg" xmlns:xlink="http://www.w3.org/1999/xlink">
<g id="graph0" class="graph" transform="scale(1 1) rotate(0) translate(4 452)">
<title>be/src/exprs/decimal&#45;functions.h</title>
<polygon fill="white" stroke="none" points="-4,4 -4,-452 1093.72,-452 1093.72,4 -4,4"/>
<!-- Node1 -->
<g id="node1" class="node"><title>Node1</title>
<polygon fill="#bfbfbf" stroke="black" points="700.5,-417 700.5,-447 807.5,-447 807.5,-417 700.5,-417"/>
<text text-anchor="start" x="708.5" y="-435" font-family="Helvetica,sans-Serif" font-size="10.00">be/src/exprs/decimal</text>
<text text-anchor="middle" x="754" y="-424" font-family="Helvetica,sans-Serif" font-size="10.00">&#45;functions.h</text>
</g>
<!-- Node2 -->
<g id="node2" class="node"><title>Node2</title>
<g id="a_node2"><a xlink:href="decimal-operators_8h.html" target="_top" xlink:title="exprs/decimal&#45;operators.h">
<polygon fill="white" stroke="black" points="585.5,-360.5 585.5,-379.5 714.5,-379.5 714.5,-360.5 585.5,-360.5"/>
<text text-anchor="middle" x="650" y="-367.5" font-family="Helvetica,sans-Serif" font-size="10.00">exprs/decimal&#45;operators.h</text>
</a>
</g>
</g>
<!-- Node1&#45;&gt;Node2 -->
<g id="edge1" class="edge"><title>Node1&#45;&gt;Node2</title>
<path fill="none" stroke="midnightblue" d="M729.617,-416.933C712.854,-407.262 690.697,-394.479 674.015,-384.855"/>
<polygon fill="midnightblue" stroke="midnightblue" points="675.318,-381.566 664.907,-379.6 671.82,-387.629 675.318,-381.566"/>
</g>
<!-- Node30 -->
<g id="node30" class="node"><title>Node30</title>
<g id="a_node30"><a xlink:href="udf_8h.html" target="_top" xlink:title="udf/udf.h">
<polygon fill="white" stroke="black" points="924.5,-304.5 924.5,-323.5 979.5,-323.5 979.5,-304.5 924.5,-304.5"/>
<text text-anchor="middle" x="952" y="-311.5" font-family="Helvetica,sans-Serif" font-size="10.00">udf/udf.h</text>
</a>
</g>
</g>
<!-- Node1&#45;&gt;Node30 -->
<g id="edge44" class="edge"><title>Node1&#45;&gt;Node30</title>
<path fill="none" stroke="midnightblue" d="M778.279,-416.776C816.643,-394.3 890.8,-350.855 928.606,-328.706"/>
<polygon fill="midnightblue" stroke="midnightblue" points="930.531,-331.634 937.39,-323.559 926.993,-325.594 930.531,-331.634"/>
</g>
<!-- Node3 -->
<g id="node3" class="node"><title>Node3</title>
<polygon fill="white" stroke="#bfbfbf" points="465.5,-304.5 465.5,-323.5 514.5,-323.5 514.5,-304.5 465.5,-304.5"/>
<text text-anchor="middle" x="490" y="-311.5" font-family="Helvetica,sans-Serif" font-size="10.00">stdint.h</text>
</g>
<!-- Node2&#45;&gt;Node3 -->
<g id="edge2" class="edge"><title>Node2&#45;&gt;Node3</title>
<path fill="none" stroke="midnightblue" d="M624.648,-360.444C597.572,-351.306 554.5,-336.769 524.383,-326.604"/>
<polygon fill="midnightblue" stroke="midnightblue" points="525.302,-323.221 514.708,-323.339 523.064,-329.853 525.302,-323.221"/>
</g>
<!-- Node4 -->
<g id="node4" class="node"><title>Node4</title>
<g id="a_node4"><a xlink:href="decimal-value_8h.html" target="_top" xlink:title="runtime/decimal&#45;value.h">
<polygon fill="white" stroke="black" points="532,-304.5 532,-323.5 652,-323.5 652,-304.5 532,-304.5"/>
<text text-anchor="middle" x="592" y="-311.5" font-family="Helvetica,sans-Serif" font-size="10.00">runtime/decimal&#45;value.h</text>
</a>
</g>
</g>
<!-- Node2&#45;&gt;Node4 -->
<g id="edge3" class="edge"><title>Node2&#45;&gt;Node4</title>
<path fill="none" stroke="midnightblue" d="M640.681,-360.324C632.107,-352.341 619.188,-340.313 608.812,-330.653"/>
<polygon fill="midnightblue" stroke="midnightblue" points="611.192,-328.086 601.488,-323.834 606.422,-333.21 611.192,-328.086"/>
</g>
<!-- Node2&#45;&gt;Node30 -->
<g id="edge40" class="edge"><title>Node2&#45;&gt;Node30</title>
<path fill="none" stroke="midnightblue" d="M697.853,-360.444C757.853,-349.715 859.473,-331.545 914.276,-321.745"/>
<polygon fill="midnightblue" stroke="midnightblue" points="915.037,-325.165 924.265,-319.959 913.805,-318.274 915.037,-325.165"/>
</g>
<!-- Node5 -->
<g id="node5" class="node"><title>Node5</title>
<polygon fill="white" stroke="#bfbfbf" points="411.5,-248.5 411.5,-267.5 458.5,-267.5 458.5,-248.5 411.5,-248.5"/>
<text text-anchor="middle" x="435" y="-255.5" font-family="Helvetica,sans-Serif" font-size="10.00">math.h</text>
</g>
<!-- Node4&#45;&gt;Node5 -->
<g id="edge4" class="edge"><title>Node4&#45;&gt;Node5</title>
<path fill="none" stroke="midnightblue" d="M567.123,-304.444C540.4,-295.252 497.796,-280.599 468.221,-270.426"/>
<polygon fill="midnightblue" stroke="midnightblue" points="469.328,-267.106 458.733,-267.163 467.051,-273.725 469.328,-267.106"/>
</g>
<!-- Node6 -->
<g id="node6" class="node"><title>Node6</title>
<polygon fill="white" stroke="#bfbfbf" points="477,-248.5 477,-267.5 527,-267.5 527,-248.5 477,-248.5"/>
<text text-anchor="middle" x="502" y="-255.5" font-family="Helvetica,sans-Serif" font-size="10.00">iomanip</text>
</g>
<!-- Node4&#45;&gt;Node6 -->
<g id="edge5" class="edge"><title>Node4&#45;&gt;Node6</title>
<path fill="none" stroke="midnightblue" d="M577.54,-304.324C563.5,-295.9 541.952,-282.971 525.457,-273.074"/>
<polygon fill="midnightblue" stroke="midnightblue" points="526.8,-269.798 516.424,-267.655 523.198,-275.801 526.8,-269.798"/>
</g>
<!-- Node7 -->
<g id="node7" class="node"><title>Node7</title>
<polygon fill="white" stroke="#bfbfbf" points="253,-192.5 253,-211.5 305,-211.5 305,-192.5 253,-192.5"/>
<text text-anchor="middle" x="279" y="-199.5" font-family="Helvetica,sans-Serif" font-size="10.00">ostream</text>
</g>
<!-- Node4&#45;&gt;Node7 -->
<g id="edge6" class="edge"><title>Node4&#45;&gt;Node7</title>
<path fill="none" stroke="midnightblue" d="M531.884,-304.856C460.528,-294.838 349.005,-277.942 332,-268 312.821,-256.787 297.677,-235.85 288.571,-220.764"/>
<polygon fill="midnightblue" stroke="midnightblue" points="291.479,-218.799 283.477,-211.856 285.402,-222.274 291.479,-218.799"/>
</g>
<!-- Node8 -->
<g id="node8" class="node"><title>Node8</title>
<polygon fill="white" stroke="#bfbfbf" points="341,-248.5 341,-267.5 393,-267.5 393,-248.5 341,-248.5"/>
<text text-anchor="middle" x="367" y="-255.5" font-family="Helvetica,sans-Serif" font-size="10.00">sstream</text>
</g>
<!-- Node4&#45;&gt;Node8 -->
<g id="edge7" class="edge"><title>Node4&#45;&gt;Node8</title>
<path fill="none" stroke="midnightblue" d="M555.171,-304.497C518.877,-296.069 461.593,-282.637 403.131,-268.247"/>
<polygon fill="midnightblue" stroke="midnightblue" points="403.907,-264.834 393.36,-265.836 402.23,-271.63 403.907,-264.834"/>
</g>
<!-- Node9 -->
<g id="node9" class="node"><title>Node9</title>
<g id="a_node9"><a xlink:href="logging_8h.html" target="_top" xlink:title="common/logging.h">
<polygon fill="white" stroke="black" points="846,-62.5 846,-81.5 942,-81.5 942,-62.5 846,-62.5"/>
<text text-anchor="middle" x="894" y="-69.5" font-family="Helvetica,sans-Serif" font-size="10.00">common/logging.h</text>
</a>
</g>
</g>
<!-- Node4&#45;&gt;Node9 -->
<g id="edge8" class="edge"><title>Node4&#45;&gt;Node9</title>
<path fill="none" stroke="midnightblue" d="M652.222,-307.178C737.186,-295.338 889.312,-259.989 956,-156 963.678,-144.028 962.073,-136.86 956,-124 948.553,-108.231 933.574,-95.6928 920.205,-86.9947"/>
<polygon fill="midnightblue" stroke="midnightblue" points="921.682,-83.797 911.319,-81.5939 918.047,-89.7788 921.682,-83.797"/>
</g>
<!-- Node12 -->
<g id="node12" class="node"><title>Node12</title>
<g id="a_node12"><a xlink:href="multi-precision_8h.html" target="_top" xlink:title="runtime/multi&#45;precision.h">
<polygon fill="white" stroke="black" points="323.5,-192.5 323.5,-211.5 446.5,-211.5 446.5,-192.5 323.5,-192.5"/>
<text text-anchor="middle" x="385" y="-199.5" font-family="Helvetica,sans-Serif" font-size="10.00">runtime/multi&#45;precision.h</text>
</a>
</g>
</g>
<!-- Node4&#45;&gt;Node12 -->
<g id="edge11" class="edge"><title>Node4&#45;&gt;Node12</title>
<path fill="none" stroke="midnightblue" d="M586.945,-304.456C578.28,-290.548 559.255,-263.059 536,-248 510.12,-231.242 477.759,-220.517 449.639,-213.762"/>
<polygon fill="midnightblue" stroke="midnightblue" points="450.416,-210.349 439.888,-211.534 448.857,-217.173 450.416,-210.349"/>
</g>
<!-- Node17 -->
<g id="node17" class="node"><title>Node17</title>
<g id="a_node17"><a xlink:href="decimal-util_8h.html" target="_top" xlink:title="util/decimal&#45;util.h">
<polygon fill="white" stroke="black" points="583,-248.5 583,-267.5 673,-267.5 673,-248.5 583,-248.5"/>
<text text-anchor="middle" x="628" y="-255.5" font-family="Helvetica,sans-Serif" font-size="10.00">util/decimal&#45;util.h</text>
</a>
</g>
</g>
<!-- Node4&#45;&gt;Node17 -->
<g id="edge16" class="edge"><title>Node4&#45;&gt;Node17</title>
<path fill="none" stroke="midnightblue" d="M597.945,-304.083C602.977,-296.534 610.337,-285.495 616.513,-276.23"/>
<polygon fill="midnightblue" stroke="midnightblue" points="619.531,-278.013 622.166,-267.751 613.707,-274.13 619.531,-278.013"/>
</g>
<!-- Node29 -->
<g id="node29" class="node"><title>Node29</title>
<g id="a_node29"><a xlink:href="hash-util_8h.html" target="_top" xlink:title="util/hash&#45;util.h">
<polygon fill="white" stroke="black" points="740.5,-192.5 740.5,-211.5 817.5,-211.5 817.5,-192.5 740.5,-192.5"/>
<text text-anchor="middle" x="779" y="-199.5" font-family="Helvetica,sans-Serif" font-size="10.00">util/hash&#45;util.h</text>
</a>
</g>
</g>
<!-- Node4&#45;&gt;Node29 -->
<g id="edge35" class="edge"><title>Node4&#45;&gt;Node29</title>
<path fill="none" stroke="midnightblue" d="M610.981,-304.368C629.452,-295.77 658.144,-281.882 682,-268 709.529,-251.981 739.804,-231.141 759.085,-217.432"/>
<polygon fill="midnightblue" stroke="midnightblue" points="761.272,-220.17 767.364,-211.502 757.196,-214.48 761.272,-220.17"/>
</g>
<!-- Node10 -->
<g id="node10" class="node"><title>Node10</title>
<polygon fill="white" stroke="#bfbfbf" points="806.5,-0.5 806.5,-19.5 883.5,-19.5 883.5,-0.5 806.5,-0.5"/>
<text text-anchor="middle" x="845" y="-7.5" font-family="Helvetica,sans-Serif" font-size="10.00">glog/logging.h</text>
</g>
<!-- Node9&#45;&gt;Node10 -->
<g id="edge9" class="edge"><title>Node9&#45;&gt;Node10</title>
<path fill="none" stroke="midnightblue" d="M886.979,-62.4035C879.557,-53.3143 867.667,-38.7559 858.433,-27.4489"/>
<polygon fill="midnightblue" stroke="midnightblue" points="861.044,-25.1121 852.007,-19.5806 855.622,-29.5398 861.044,-25.1121"/>
</g>
<!-- Node11 -->
<g id="node11" class="node"><title>Node11</title>
<polygon fill="white" stroke="#bfbfbf" points="902,-0.5 902,-19.5 982,-19.5 982,-0.5 902,-0.5"/>
<text text-anchor="middle" x="942" y="-7.5" font-family="Helvetica,sans-Serif" font-size="10.00">gflags/gflags.h</text>
</g>
<!-- Node9&#45;&gt;Node11 -->
<g id="edge10" class="edge"><title>Node9&#45;&gt;Node11</title>
<path fill="none" stroke="midnightblue" d="M900.877,-62.4035C908.149,-53.3143 919.795,-38.7559 928.841,-27.4489"/>
<polygon fill="midnightblue" stroke="midnightblue" points="931.622,-29.5757 935.136,-19.5806 926.155,-25.2029 931.622,-29.5757"/>
</g>
<!-- Node13 -->
<g id="node13" class="node"><title>Node13</title>
<polygon fill="white" stroke="#bfbfbf" points="0,-130.5 0,-149.5 94,-149.5 94,-130.5 0,-130.5"/>
<text text-anchor="middle" x="47" y="-137.5" font-family="Helvetica,sans-Serif" font-size="10.00">boost/version.hpp</text>
</g>
<!-- Node12&#45;&gt;Node13 -->
<g id="edge12" class="edge"><title>Node12&#45;&gt;Node13</title>
<path fill="none" stroke="midnightblue" d="M323.325,-193.031C265.966,-185.178 178.279,-172.043 103,-156 97.5859,-154.846 91.9133,-153.496 86.3432,-152.086"/>
<polygon fill="midnightblue" stroke="midnightblue" points="87.0657,-148.658 76.5057,-149.516 85.296,-155.43 87.0657,-148.658"/>
</g>
<!-- Node14 -->
<g id="node14" class="node"><title>Node14</title>
<polygon fill="white" stroke="#bfbfbf" points="112,-125 112,-155 218,-155 218,-125 112,-125"/>
<text text-anchor="start" x="120" y="-143" font-family="Helvetica,sans-Serif" font-size="10.00">boost_multiprecision</text>
<text text-anchor="middle" x="165" y="-132" font-family="Helvetica,sans-Serif" font-size="10.00">/cpp_int.hpp</text>
</g>
<!-- Node12&#45;&gt;Node14 -->
<g id="edge13" class="edge"><title>Node12&#45;&gt;Node14</title>
<path fill="none" stroke="midnightblue" d="M353.479,-192.403C320.371,-183.374 267.471,-168.947 226.13,-157.672"/>
<polygon fill="midnightblue" stroke="midnightblue" points="226.995,-154.28 216.426,-155.025 225.153,-161.033 226.995,-154.28"/>
</g>
<!-- Node15 -->
<g id="node15" class="node"><title>Node15</title>
<polygon fill="white" stroke="#bfbfbf" points="236,-125 236,-155 342,-155 342,-125 236,-125"/>
<text text-anchor="start" x="244" y="-143" font-family="Helvetica,sans-Serif" font-size="10.00">boost_multiprecision</text>
<text text-anchor="middle" x="289" y="-132" font-family="Helvetica,sans-Serif" font-size="10.00">/cpp_dec_float.hpp</text>
</g>
<!-- Node12&#45;&gt;Node15 -->
<g id="edge14" class="edge"><title>Node12&#45;&gt;Node15</title>
<path fill="none" stroke="midnightblue" d="M371.246,-192.403C358.001,-184.125 337.497,-171.311 320.276,-160.547"/>
<polygon fill="midnightblue" stroke="midnightblue" points="321.96,-157.473 311.625,-155.141 318.25,-163.409 321.96,-157.473"/>
</g>
<!-- Node16 -->
<g id="node16" class="node"><title>Node16</title>
<polygon fill="white" stroke="#bfbfbf" points="360,-130.5 360,-149.5 400,-149.5 400,-130.5 360,-130.5"/>
<text text-anchor="middle" x="380" y="-137.5" font-family="Helvetica,sans-Serif" font-size="10.00">limits</text>
</g>
<!-- Node12&#45;&gt;Node16 -->
<g id="edge15" class="edge"><title>Node12&#45;&gt;Node16</title>
<path fill="none" stroke="midnightblue" d="M384.284,-192.403C383.578,-183.938 382.477,-170.728 381.568,-159.82"/>
<polygon fill="midnightblue" stroke="midnightblue" points="385.034,-159.255 380.715,-149.581 378.058,-159.837 385.034,-159.255"/>
</g>
<!-- Node17&#45;&gt;Node7 -->
<g id="edge17" class="edge"><title>Node17&#45;&gt;Node7</title>
<path fill="none" stroke="midnightblue" d="M582.758,-252.091C523.474,-245.313 416.118,-231.85 315.346,-212.087"/>
<polygon fill="midnightblue" stroke="midnightblue" points="315.793,-208.608 305.302,-210.092 314.429,-215.474 315.793,-208.608"/>
</g>
<!-- Node17&#45;&gt;Node12 -->
<g id="edge25" class="edge"><title>Node17&#45;&gt;Node12</title>
<path fill="none" stroke="midnightblue" d="M589.496,-248.444C547.194,-239.043 479.181,-223.929 433.327,-213.739"/>
<polygon fill="midnightblue" stroke="midnightblue" points="433.845,-210.269 423.324,-211.516 432.327,-217.102 433.845,-210.269"/>
</g>
<!-- Node18 -->
<g id="node18" class="node"><title>Node18</title>
<polygon fill="white" stroke="#bfbfbf" points="537.5,-62.5 537.5,-81.5 578.5,-81.5 578.5,-62.5 537.5,-62.5"/>
<text text-anchor="middle" x="558" y="-69.5" font-family="Helvetica,sans-Serif" font-size="10.00">string</text>
</g>
<!-- Node17&#45;&gt;Node18 -->
<g id="edge18" class="edge"><title>Node17&#45;&gt;Node18</title>
<path fill="none" stroke="midnightblue" d="M617.703,-248.296C599.623,-232.254 562.782,-195.989 549,-156 541.639,-134.642 546.577,-108.525 551.567,-91.3608"/>
<polygon fill="midnightblue" stroke="midnightblue" points="555.004,-92.1053 554.725,-81.5141 548.338,-89.9677 555.004,-92.1053"/>
</g>
<!-- Node19 -->
<g id="node19" class="node"><title>Node19</title>
<polygon fill="white" stroke="#bfbfbf" points="960,-62.5 960,-81.5 1052,-81.5 1052,-62.5 960,-62.5"/>
<text text-anchor="middle" x="1006" y="-69.5" font-family="Helvetica,sans-Serif" font-size="10.00">boost/cstdint.hpp</text>
</g>
<!-- Node17&#45;&gt;Node19 -->
<g id="edge19" class="edge"><title>Node17&#45;&gt;Node19</title>
<path fill="none" stroke="midnightblue" d="M673.047,-254.513C741.907,-248.449 873.971,-227.609 956,-156 976.541,-138.068 991.116,-109.569 999.044,-91.0739"/>
<polygon fill="midnightblue" stroke="midnightblue" points="1002.32,-92.3082 1002.85,-81.7266 995.837,-89.6683 1002.32,-92.3082"/>
</g>
<!-- Node20 -->
<g id="node20" class="node"><title>Node20</title>
<g id="a_node20"><a xlink:href="types_8h.html" target="_top" xlink:title="runtime/types.h">
<polygon fill="white" stroke="black" points="418,-130.5 418,-149.5 502,-149.5 502,-130.5 418,-130.5"/>
<text text-anchor="middle" x="460" y="-137.5" font-family="Helvetica,sans-Serif" font-size="10.00">runtime/types.h</text>
</a>
</g>
</g>
<!-- Node17&#45;&gt;Node20 -->
<g id="edge20" class="edge"><title>Node17&#45;&gt;Node20</title>
<path fill="none" stroke="midnightblue" d="M594.319,-248.483C570.782,-241.389 539.487,-229.579 516,-212 496.432,-197.355 479.953,-174.263 470.043,-158.415"/>
<polygon fill="midnightblue" stroke="midnightblue" points="472.908,-156.387 464.753,-149.624 466.91,-159.997 472.908,-156.387"/>
</g>
<!-- Node23 -->
<g id="node23" class="node"><title>Node23</title>
<g id="a_node23"><a xlink:href="bit-util_8h.html" target="_top" xlink:title="util/bit&#45;util.h">
<polygon fill="white" stroke="black" points="632.5,-192.5 632.5,-211.5 699.5,-211.5 699.5,-192.5 632.5,-192.5"/>
<text text-anchor="middle" x="666" y="-199.5" font-family="Helvetica,sans-Serif" font-size="10.00">util/bit&#45;util.h</text>
</a>
</g>
</g>
<!-- Node17&#45;&gt;Node23 -->
<g id="edge26" class="edge"><title>Node17&#45;&gt;Node23</title>
<path fill="none" stroke="midnightblue" d="M634.275,-248.083C639.642,-240.455 647.518,-229.264 654.079,-219.941"/>
<polygon fill="midnightblue" stroke="midnightblue" points="656.949,-221.943 659.842,-211.751 651.225,-217.915 656.949,-221.943"/>
</g>
<!-- Node20&#45;&gt;Node9 -->
<g id="edge22" class="edge"><title>Node20&#45;&gt;Node9</title>
<path fill="none" stroke="midnightblue" d="M502.076,-131.729C516.896,-129.216 533.678,-126.423 549,-124 649.683,-108.075 767.151,-91.0388 835.781,-81.2403"/>
<polygon fill="midnightblue" stroke="midnightblue" points="836.549,-84.6662 845.955,-79.7896 835.561,-77.7363 836.549,-84.6662"/>
</g>
<!-- Node20&#45;&gt;Node18 -->
<g id="edge21" class="edge"><title>Node20&#45;&gt;Node18</title>
<path fill="none" stroke="midnightblue" d="M472.812,-130.372C489.026,-119.452 517.183,-100.489 536.664,-87.369"/>
<polygon fill="midnightblue" stroke="midnightblue" points="538.846,-90.1195 545.185,-81.6305 534.936,-84.3135 538.846,-90.1195"/>
</g>
<!-- Node21 -->
<g id="node21" class="node"><title>Node21</title>
<polygon fill="white" stroke="#bfbfbf" points="400.5,-62.5 400.5,-81.5 519.5,-81.5 519.5,-62.5 400.5,-62.5"/>
<text text-anchor="middle" x="460" y="-69.5" font-family="Helvetica,sans-Serif" font-size="10.00">gen&#45;cpp/Types_types.h</text>
</g>
<!-- Node20&#45;&gt;Node21 -->
<g id="edge23" class="edge"><title>Node20&#45;&gt;Node21</title>
<path fill="none" stroke="midnightblue" d="M460,-130.372C460,-120.643 460,-104.528 460,-91.8504"/>
<polygon fill="midnightblue" stroke="midnightblue" points="463.5,-91.8411 460,-81.8411 456.5,-91.8412 463.5,-91.8411"/>
</g>
<!-- Node22 -->
<g id="node22" class="node"><title>Node22</title>
<polygon fill="white" stroke="#bfbfbf" points="273.5,-57 273.5,-87 382.5,-87 382.5,-57 273.5,-57"/>
<text text-anchor="start" x="281.5" y="-75" font-family="Helvetica,sans-Serif" font-size="10.00">gen&#45;cpp/TCLIService</text>
<text text-anchor="middle" x="328" y="-64" font-family="Helvetica,sans-Serif" font-size="10.00">_types.h</text>
</g>
<!-- Node20&#45;&gt;Node22 -->
<g id="edge24" class="edge"><title>Node20&#45;&gt;Node22</title>
<path fill="none" stroke="midnightblue" d="M442.743,-130.372C423.138,-120.569 390.567,-104.283 365.126,-91.5629"/>
<polygon fill="midnightblue" stroke="midnightblue" points="366.622,-88.3979 356.112,-87.0562 363.491,-94.6589 366.622,-88.3979"/>
</g>
<!-- Node24 -->
<g id="node24" class="node"><title>Node24</title>
<polygon fill="white" stroke="#bfbfbf" points="558.5,-130.5 558.5,-149.5 611.5,-149.5 611.5,-130.5 558.5,-130.5"/>
<text text-anchor="middle" x="585" y="-137.5" font-family="Helvetica,sans-Serif" font-size="10.00">endian.h</text>
</g>
<!-- Node23&#45;&gt;Node24 -->
<g id="edge27" class="edge"><title>Node23&#45;&gt;Node24</title>
<path fill="none" stroke="midnightblue" d="M654.395,-192.403C641.523,-182.869 620.526,-167.315 604.994,-155.811"/>
<polygon fill="midnightblue" stroke="midnightblue" points="606.703,-152.72 596.584,-149.581 602.536,-158.345 606.703,-152.72"/>
</g>
<!-- Node25 -->
<g id="node25" class="node"><title>Node25</title>
<g id="a_node25"><a xlink:href="compiler-util_8h.html" target="_top" xlink:title="common/compiler&#45;util.h">
<polygon fill="white" stroke="black" points="720,-130.5 720,-149.5 838,-149.5 838,-130.5 720,-130.5"/>
<text text-anchor="middle" x="779" y="-137.5" font-family="Helvetica,sans-Serif" font-size="10.00">common/compiler&#45;util.h</text>
</a>
</g>
</g>
<!-- Node23&#45;&gt;Node25 -->
<g id="edge28" class="edge"><title>Node23&#45;&gt;Node25</title>
<path fill="none" stroke="midnightblue" d="M682.19,-192.403C700.902,-182.468 731.923,-165.997 753.799,-154.381"/>
<polygon fill="midnightblue" stroke="midnightblue" points="755.649,-157.362 762.84,-149.581 752.366,-151.179 755.649,-157.362"/>
</g>
<!-- Node26 -->
<g id="node26" class="node"><title>Node26</title>
<g id="a_node26"><a xlink:href="cpu-info_8h.html" target="_top" xlink:title="util/cpu&#45;info.h">
<polygon fill="white" stroke="black" points="856.5,-130.5 856.5,-149.5 931.5,-149.5 931.5,-130.5 856.5,-130.5"/>
<text text-anchor="middle" x="894" y="-137.5" font-family="Helvetica,sans-Serif" font-size="10.00">util/cpu&#45;info.h</text>
</a>
</g>
</g>
<!-- Node23&#45;&gt;Node26 -->
<g id="edge29" class="edge"><title>Node23&#45;&gt;Node26</title>
<path fill="none" stroke="midnightblue" d="M699.532,-193.355C735.997,-184.88 795.911,-170.487 847,-156 850.785,-154.927 854.726,-153.755 858.643,-152.556"/>
<polygon fill="midnightblue" stroke="midnightblue" points="859.735,-155.882 868.234,-149.557 857.645,-149.201 859.735,-155.882"/>
</g>
<!-- Node27 -->
<g id="node27" class="node"><title>Node27</title>
<g id="a_node27"><a xlink:href="sse-util_8h.html" target="_top" xlink:title="util/sse&#45;util.h">
<polygon fill="white" stroke="black" points="630,-130.5 630,-149.5 702,-149.5 702,-130.5 630,-130.5"/>
<text text-anchor="middle" x="666" y="-137.5" font-family="Helvetica,sans-Serif" font-size="10.00">util/sse&#45;util.h</text>
</a>
</g>
</g>
<!-- Node23&#45;&gt;Node27 -->
<g id="edge33" class="edge"><title>Node23&#45;&gt;Node27</title>
<path fill="none" stroke="midnightblue" d="M666,-192.403C666,-183.938 666,-170.728 666,-159.82"/>
<polygon fill="midnightblue" stroke="midnightblue" points="669.5,-159.581 666,-149.581 662.5,-159.581 669.5,-159.581"/>
</g>
<!-- Node26&#45;&gt;Node9 -->
<g id="edge32" class="edge"><title>Node26&#45;&gt;Node9</title>
<path fill="none" stroke="midnightblue" d="M894,-130.372C894,-120.643 894,-104.528 894,-91.8504"/>
<polygon fill="midnightblue" stroke="midnightblue" points="897.5,-91.8411 894,-81.8411 890.5,-91.8412 897.5,-91.8411"/>
</g>
<!-- Node26&#45;&gt;Node18 -->
<g id="edge30" class="edge"><title>Node26&#45;&gt;Node18</title>
<path fill="none" stroke="midnightblue" d="M869.315,-130.358C862.177,-128.068 854.332,-125.749 847,-124 748.918,-100.606 721.959,-107.348 623,-88 611.716,-85.7939 599.41,-83.0432 588.57,-80.5019"/>
<polygon fill="midnightblue" stroke="midnightblue" points="589.246,-77.0653 578.708,-78.1542 587.625,-83.875 589.246,-77.0653"/>
</g>
<!-- Node26&#45;&gt;Node19 -->
<g id="edge31" class="edge"><title>Node26&#45;&gt;Node19</title>
<path fill="none" stroke="midnightblue" d="M908.642,-130.372C927.424,-119.304 960.229,-99.9724 982.517,-86.838"/>
<polygon fill="midnightblue" stroke="midnightblue" points="984.516,-89.7228 991.354,-81.6305 980.962,-83.692 984.516,-89.7228"/>
</g>
<!-- Node28 -->
<g id="node28" class="node"><title>Node28</title>
<polygon fill="white" stroke="#bfbfbf" points="632,-62.5 632,-81.5 700,-81.5 700,-62.5 632,-62.5"/>
<text text-anchor="middle" x="666" y="-69.5" font-family="Helvetica,sans-Serif" font-size="10.00">emmintrin.h</text>
</g>
<!-- Node27&#45;&gt;Node28 -->
<g id="edge34" class="edge"><title>Node27&#45;&gt;Node28</title>
<path fill="none" stroke="midnightblue" d="M666,-130.372C666,-120.643 666,-104.528 666,-91.8504"/>
<polygon fill="midnightblue" stroke="midnightblue" points="669.5,-91.8411 666,-81.8411 662.5,-91.8412 669.5,-91.8411"/>
</g>
<!-- Node29&#45;&gt;Node9 -->
<g id="edge36" class="edge"><title>Node29&#45;&gt;Node9</title>
<path fill="none" stroke="midnightblue" d="M817.77,-195.588C860.531,-188.732 925.263,-175.421 940,-156 956.557,-134.181 932.209,-105.697 913.102,-88.4064"/>
<polygon fill="midnightblue" stroke="midnightblue" points="915.227,-85.6166 905.369,-81.7335 910.654,-90.9164 915.227,-85.6166"/>
</g>
<!-- Node29&#45;&gt;Node25 -->
<g id="edge37" class="edge"><title>Node29&#45;&gt;Node25</title>
<path fill="none" stroke="midnightblue" d="M779,-192.403C779,-183.938 779,-170.728 779,-159.82"/>
<polygon fill="midnightblue" stroke="midnightblue" points="782.5,-159.581 779,-149.581 775.5,-159.581 782.5,-159.581"/>
</g>
<!-- Node29&#45;&gt;Node26 -->
<g id="edge38" class="edge"><title>Node29&#45;&gt;Node26</title>
<path fill="none" stroke="midnightblue" d="M795.477,-192.403C814.605,-182.423 846.373,-165.849 868.652,-154.225"/>
<polygon fill="midnightblue" stroke="midnightblue" points="870.307,-157.309 877.554,-149.581 867.069,-151.103 870.307,-157.309"/>
</g>
<!-- Node29&#45;&gt;Node27 -->
<g id="edge39" class="edge"><title>Node29&#45;&gt;Node27</title>
<path fill="none" stroke="midnightblue" d="M762.81,-192.403C744.098,-182.468 713.077,-165.997 691.201,-154.381"/>
<polygon fill="midnightblue" stroke="midnightblue" points="692.634,-151.179 682.16,-149.581 689.351,-157.362 692.634,-151.179"/>
</g>
<!-- Node30&#45;&gt;Node19 -->
<g id="edge42" class="edge"><title>Node30&#45;&gt;Node19</title>
<path fill="none" stroke="midnightblue" d="M979.923,-309.154C1004.12,-304.183 1037.72,-292.971 1054,-268 1067.68,-247.013 1129.24,-327.06 1050,-124 1044.69,-110.383 1034.07,-97.9041 1024.6,-88.6989"/>
<polygon fill="midnightblue" stroke="midnightblue" points="1026.79,-85.9591 1017.05,-81.7833 1022.06,-91.1199 1026.79,-85.9591"/>
</g>
<!-- Node31 -->
<g id="node31" class="node"><title>Node31</title>
<polygon fill="white" stroke="#bfbfbf" points="926,-248.5 926,-267.5 978,-267.5 978,-248.5 926,-248.5"/>
<text text-anchor="middle" x="952" y="-255.5" font-family="Helvetica,sans-Serif" font-size="10.00">assert.h</text>
</g>
<!-- Node30&#45;&gt;Node31 -->
<g id="edge41" class="edge"><title>Node30&#45;&gt;Node31</title>
<path fill="none" stroke="midnightblue" d="M952,-304.083C952,-297.006 952,-286.861 952,-277.986"/>
<polygon fill="midnightblue" stroke="midnightblue" points="955.5,-277.751 952,-267.751 948.5,-277.751 955.5,-277.751"/>
</g>
<!-- Node32 -->
<g id="node32" class="node"><title>Node32</title>
<polygon fill="white" stroke="#bfbfbf" points="996.5,-248.5 996.5,-267.5 1045.5,-267.5 1045.5,-248.5 996.5,-248.5"/>
<text text-anchor="middle" x="1021" y="-255.5" font-family="Helvetica,sans-Serif" font-size="10.00">string.h</text>
</g>
<!-- Node30&#45;&gt;Node32 -->
<g id="edge43" class="edge"><title>Node30&#45;&gt;Node32</title>
<path fill="none" stroke="midnightblue" d="M963.086,-304.324C973.486,-296.185 989.261,-283.839 1001.72,-274.087"/>
<polygon fill="midnightblue" stroke="midnightblue" points="1003.99,-276.753 1009.71,-267.834 999.68,-271.241 1003.99,-276.753"/>
</g>
</g>
</svg>
