<?xml version="1.0" encoding="UTF-8" standalone="no"?>
<!DOCTYPE svg PUBLIC "-//W3C//DTD SVG 1.1//EN"
 "http://www.w3.org/Graphics/SVG/1.1/DTD/svg11.dtd">
<!-- Generated by graphviz version 2.36.0 (20140111.2315)
 -->
<!-- Title: be/src/exprs/decimal&#45;functions.h Pages: 1 -->
<svg width="405pt" height="108pt"
 viewBox="0.00 0.00 405.00 108.00" xmlns="http://www.w3.org/2000/svg" xmlns:xlink="http://www.w3.org/1999/xlink">
<g id="graph0" class="graph" transform="scale(1 1) rotate(0) translate(4 104)">
<title>be/src/exprs/decimal&#45;functions.h</title>
<polygon fill="white" stroke="none" points="-4,4 -4,-104 401,-104 401,4 -4,4"/>
<!-- Node1 -->
<g id="node1" class="node"><title>Node1</title>
<polygon fill="#bfbfbf" stroke="black" points="166.5,-69 166.5,-99 273.5,-99 273.5,-69 166.5,-69"/>
<text text-anchor="start" x="174.5" y="-87" font-family="Helvetica,sans-Serif" font-size="10.00">be/src/exprs/decimal</text>
<text text-anchor="middle" x="220" y="-76" font-family="Helvetica,sans-Serif" font-size="10.00">&#45;functions.h</text>
</g>
<!-- Node2 -->
<g id="node2" class="node"><title>Node2</title>
<g id="a_node2"><a xlink:href="cast-functions_8cc.html" target="_top" xlink:title="be/src/exprs/cast&#45;functions.cc">
<polygon fill="white" stroke="black" points="-0.5,-6.5 -0.5,-25.5 148.5,-25.5 148.5,-6.5 -0.5,-6.5"/>
<text text-anchor="middle" x="74" y="-13.5" font-family="Helvetica,sans-Serif" font-size="10.00">be/src/exprs/cast&#45;functions.cc</text>
</a>
</g>
</g>
<!-- Node1&#45;&gt;Node2 -->
<g id="edge1" class="edge"><title>Node1&#45;&gt;Node2</title>
<path fill="none" stroke="midnightblue" d="M179.471,-64.6785C151.305,-51.9462 115.041,-35.5526 93.2054,-25.6819"/>
<polygon fill="midnightblue" stroke="midnightblue" points="178.125,-67.9113 188.679,-68.8413 181.009,-61.5328 178.125,-67.9113"/>
</g>
<!-- Node3 -->
<g id="node3" class="node"><title>Node3</title>
<g id="a_node3"><a xlink:href="decimal-functions_8cc.html" target="_top" xlink:title="be/src/exprs/decimal\l&#45;functions.cc">
<polygon fill="white" stroke="black" points="166.5,-1 166.5,-31 273.5,-31 273.5,-1 166.5,-1"/>
<text text-anchor="start" x="174.5" y="-19" font-family="Helvetica,sans-Serif" font-size="10.00">be/src/exprs/decimal</text>
<text text-anchor="middle" x="220" y="-8" font-family="Helvetica,sans-Serif" font-size="10.00">&#45;functions.cc</text>
</a>
</g>
</g>
<!-- Node1&#45;&gt;Node3 -->
<g id="edge2" class="edge"><title>Node1&#45;&gt;Node3</title>
<path fill="none" stroke="midnightblue" d="M220,-58.5322C220,-49.3606 220,-39.2449 220,-31.2931"/>
<polygon fill="midnightblue" stroke="midnightblue" points="216.5,-58.6789 220,-68.679 223.5,-58.679 216.5,-58.6789"/>
</g>
<!-- Node4 -->
<g id="node4" class="node"><title>Node4</title>
<g id="a_node4"><a xlink:href="expr_8cc.html" target="_top" xlink:title="be/src/exprs/expr.cc">
<polygon fill="white" stroke="black" points="291,-6.5 291,-25.5 397,-25.5 397,-6.5 291,-6.5"/>
<text text-anchor="middle" x="344" y="-13.5" font-family="Helvetica,sans-Serif" font-size="10.00">be/src/exprs/expr.cc</text>
</a>
</g>
</g>
<!-- Node1&#45;&gt;Node4 -->
<g id="edge3" class="edge"><title>Node1&#45;&gt;Node4</title>
<path fill="none" stroke="midnightblue" d="M255.676,-64.0109C279.411,-51.378 309.466,-35.3809 327.689,-25.6819"/>
<polygon fill="midnightblue" stroke="midnightblue" points="253.784,-61.0532 246.601,-68.8413 257.073,-67.2324 253.784,-61.0532"/>
</g>
</g>
</svg>
