<?xml version="1.0" encoding="UTF-8" standalone="no"?>
<!DOCTYPE svg PUBLIC "-//W3C//DTD SVG 1.1//EN"
 "http://www.w3.org/Graphics/SVG/1.1/DTD/svg11.dtd">
<!-- Generated by graphviz version 2.36.0 (20140111.2315)
 -->
<!-- Title: be/src/util/decimal&#45;util.h Pages: 1 -->
<svg width="1218pt" height="288pt"
 viewBox="0.00 0.00 1218.00 288.00" xmlns="http://www.w3.org/2000/svg" xmlns:xlink="http://www.w3.org/1999/xlink">
<g id="graph0" class="graph" transform="scale(1 1) rotate(0) translate(4 284)">
<title>be/src/util/decimal&#45;util.h</title>
<polygon fill="white" stroke="none" points="-4,4 -4,-284 1214,-284 1214,4 -4,4"/>
<!-- Node1 -->
<g id="node1" class="node"><title>Node1</title>
<polygon fill="#bfbfbf" stroke="black" points="370,-249 370,-279 466,-279 466,-249 370,-249"/>
<text text-anchor="start" x="378" y="-267" font-family="Helvetica,sans-Serif" font-size="10.00">be/src/util/decimal</text>
<text text-anchor="middle" x="418" y="-256" font-family="Helvetica,sans-Serif" font-size="10.00">&#45;util.h</text>
</g>
<!-- Node2 -->
<g id="node2" class="node"><title>Node2</title>
<polygon fill="white" stroke="#bfbfbf" points="234,-192.5 234,-211.5 286,-211.5 286,-192.5 234,-192.5"/>
<text text-anchor="middle" x="260" y="-199.5" font-family="Helvetica,sans-Serif" font-size="10.00">ostream</text>
</g>
<!-- Node1&#45;&gt;Node2 -->
<g id="edge1" class="edge"><title>Node1&#45;&gt;Node2</title>
<path fill="none" stroke="midnightblue" d="M380.956,-248.933C354.062,-238.72 318.028,-225.036 292.301,-215.266"/>
<polygon fill="midnightblue" stroke="midnightblue" points="293.238,-211.878 282.647,-211.6 290.753,-218.422 293.238,-211.878"/>
</g>
<!-- Node3 -->
<g id="node3" class="node"><title>Node3</title>
<polygon fill="white" stroke="#bfbfbf" points="378.5,-62.5 378.5,-81.5 419.5,-81.5 419.5,-62.5 378.5,-62.5"/>
<text text-anchor="middle" x="399" y="-69.5" font-family="Helvetica,sans-Serif" font-size="10.00">string</text>
</g>
<!-- Node1&#45;&gt;Node3 -->
<g id="edge2" class="edge"><title>Node1&#45;&gt;Node3</title>
<path fill="none" stroke="midnightblue" d="M409.443,-248.761C398.022,-228.842 378.379,-191.146 371,-156 368.078,-142.081 367.467,-137.776 371,-124 374.086,-111.965 380.671,-99.722 386.679,-90.2485"/>
<polygon fill="midnightblue" stroke="midnightblue" points="389.677,-92.0622 392.345,-81.8088 383.865,-88.1607 389.677,-92.0622"/>
</g>
<!-- Node4 -->
<g id="node4" class="node"><title>Node4</title>
<polygon fill="white" stroke="#bfbfbf" points="438,-62.5 438,-81.5 530,-81.5 530,-62.5 438,-62.5"/>
<text text-anchor="middle" x="484" y="-69.5" font-family="Helvetica,sans-Serif" font-size="10.00">boost/cstdint.hpp</text>
</g>
<!-- Node1&#45;&gt;Node4 -->
<g id="edge3" class="edge"><title>Node1&#45;&gt;Node4</title>
<path fill="none" stroke="midnightblue" d="M425.044,-248.764C434.836,-228.541 452.636,-190.151 464,-156 471.149,-134.517 476.887,-109.121 480.353,-92.1298"/>
<polygon fill="midnightblue" stroke="midnightblue" points="483.877,-92.3493 482.379,-81.8609 477.009,-90.9944 483.877,-92.3493"/>
</g>
<!-- Node5 -->
<g id="node5" class="node"><title>Node5</title>
<g id="a_node5"><a xlink:href="types_8h.html" target="_top" xlink:title="runtime/types.h">
<polygon fill="white" stroke="black" points="240,-130.5 240,-149.5 324,-149.5 324,-130.5 240,-130.5"/>
<text text-anchor="middle" x="282" y="-137.5" font-family="Helvetica,sans-Serif" font-size="10.00">runtime/types.h</text>
</a>
</g>
</g>
<!-- Node1&#45;&gt;Node5 -->
<g id="edge4" class="edge"><title>Node1&#45;&gt;Node5</title>
<path fill="none" stroke="midnightblue" d="M391.224,-248.96C374.891,-239.687 354.125,-226.584 338,-212 320.065,-195.78 303.439,-173.375 293.04,-158.1"/>
<polygon fill="midnightblue" stroke="midnightblue" points="295.862,-156.022 287.414,-149.629 290.031,-159.895 295.862,-156.022"/>
</g>
<!-- Node11 -->
<g id="node11" class="node"><title>Node11</title>
<g id="a_node11"><a xlink:href="multi-precision_8h.html" target="_top" xlink:title="runtime/multi&#45;precision.h">
<polygon fill="white" stroke="black" points="925.5,-192.5 925.5,-211.5 1048.5,-211.5 1048.5,-192.5 925.5,-192.5"/>
<text text-anchor="middle" x="987" y="-199.5" font-family="Helvetica,sans-Serif" font-size="10.00">runtime/multi&#45;precision.h</text>
</a>
</g>
</g>
<!-- Node1&#45;&gt;Node11 -->
<g id="edge11" class="edge"><title>Node1&#45;&gt;Node11</title>
<path fill="none" stroke="midnightblue" d="M466.022,-257.936C566.122,-247.381 797.542,-222.978 915.331,-210.557"/>
<polygon fill="midnightblue" stroke="midnightblue" points="915.756,-214.032 925.334,-209.503 915.022,-207.071 915.756,-214.032"/>
</g>
<!-- Node16 -->
<g id="node16" class="node"><title>Node16</title>
<g id="a_node16"><a xlink:href="bit-util_8h.html" target="_top" xlink:title="util/bit&#45;util.h">
<polygon fill="white" stroke="black" points="512.5,-192.5 512.5,-211.5 579.5,-211.5 579.5,-192.5 512.5,-192.5"/>
<text text-anchor="middle" x="546" y="-199.5" font-family="Helvetica,sans-Serif" font-size="10.00">util/bit&#45;util.h</text>
</a>
</g>
</g>
<!-- Node1&#45;&gt;Node16 -->
<g id="edge16" class="edge"><title>Node1&#45;&gt;Node16</title>
<path fill="none" stroke="midnightblue" d="M448.01,-248.933C469.316,-238.946 497.702,-225.64 518.436,-215.92"/>
<polygon fill="midnightblue" stroke="midnightblue" points="520.084,-219.014 527.653,-211.6 517.113,-212.675 520.084,-219.014"/>
</g>
<!-- Node5&#45;&gt;Node3 -->
<g id="edge5" class="edge"><title>Node5&#45;&gt;Node3</title>
<path fill="none" stroke="midnightblue" d="M297.296,-130.372C317.003,-119.254 351.491,-99.7997 374.78,-86.6624"/>
<polygon fill="midnightblue" stroke="midnightblue" points="376.71,-89.5922 383.701,-81.6305 373.271,-83.4953 376.71,-89.5922"/>
</g>
<!-- Node6 -->
<g id="node6" class="node"><title>Node6</title>
<g id="a_node6"><a xlink:href="logging_8h.html" target="_top" xlink:title="common/logging.h">
<polygon fill="white" stroke="black" points="264,-62.5 264,-81.5 360,-81.5 360,-62.5 264,-62.5"/>
<text text-anchor="middle" x="312" y="-69.5" font-family="Helvetica,sans-Serif" font-size="10.00">common/logging.h</text>
</a>
</g>
</g>
<!-- Node5&#45;&gt;Node6 -->
<g id="edge6" class="edge"><title>Node5&#45;&gt;Node6</title>
<path fill="none" stroke="midnightblue" d="M285.922,-130.372C290.434,-120.446 297.966,-103.874 303.779,-91.0864"/>
<polygon fill="midnightblue" stroke="midnightblue" points="307.03,-92.3931 307.981,-81.8411 300.657,-89.4965 307.03,-92.3931"/>
</g>
<!-- Node9 -->
<g id="node9" class="node"><title>Node9</title>
<polygon fill="white" stroke="#bfbfbf" points="-0.5,-62.5 -0.5,-81.5 118.5,-81.5 118.5,-62.5 -0.5,-62.5"/>
<text text-anchor="middle" x="59" y="-69.5" font-family="Helvetica,sans-Serif" font-size="10.00">gen&#45;cpp/Types_types.h</text>
</g>
<!-- Node5&#45;&gt;Node9 -->
<g id="edge9" class="edge"><title>Node5&#45;&gt;Node9</title>
<path fill="none" stroke="midnightblue" d="M252.847,-130.372C213.088,-118.604 141.767,-97.4961 97.605,-84.4257"/>
<polygon fill="midnightblue" stroke="midnightblue" points="98.3893,-81.0078 87.8071,-81.5259 96.4027,-87.72 98.3893,-81.0078"/>
</g>
<!-- Node10 -->
<g id="node10" class="node"><title>Node10</title>
<polygon fill="white" stroke="#bfbfbf" points="136.5,-57 136.5,-87 245.5,-87 245.5,-57 136.5,-57"/>
<text text-anchor="start" x="144.5" y="-75" font-family="Helvetica,sans-Serif" font-size="10.00">gen&#45;cpp/TCLIService</text>
<text text-anchor="middle" x="191" y="-64" font-family="Helvetica,sans-Serif" font-size="10.00">_types.h</text>
</g>
<!-- Node5&#45;&gt;Node10 -->
<g id="edge10" class="edge"><title>Node5&#45;&gt;Node10</title>
<path fill="none" stroke="midnightblue" d="M270.103,-130.372C257.221,-121.029 236.22,-105.797 219.093,-93.375"/>
<polygon fill="midnightblue" stroke="midnightblue" points="220.703,-90.2194 210.553,-87.1815 216.593,-95.8859 220.703,-90.2194"/>
</g>
<!-- Node7 -->
<g id="node7" class="node"><title>Node7</title>
<polygon fill="white" stroke="#bfbfbf" points="225.5,-0.5 225.5,-19.5 302.5,-19.5 302.5,-0.5 225.5,-0.5"/>
<text text-anchor="middle" x="264" y="-7.5" font-family="Helvetica,sans-Serif" font-size="10.00">glog/logging.h</text>
</g>
<!-- Node6&#45;&gt;Node7 -->
<g id="edge7" class="edge"><title>Node6&#45;&gt;Node7</title>
<path fill="none" stroke="midnightblue" d="M305.123,-62.4035C297.851,-53.3143 286.205,-38.7559 277.159,-27.4489"/>
<polygon fill="midnightblue" stroke="midnightblue" points="279.845,-25.2029 270.864,-19.5806 274.378,-29.5757 279.845,-25.2029"/>
</g>
<!-- Node8 -->
<g id="node8" class="node"><title>Node8</title>
<polygon fill="white" stroke="#bfbfbf" points="321,-0.5 321,-19.5 401,-19.5 401,-0.5 321,-0.5"/>
<text text-anchor="middle" x="361" y="-7.5" font-family="Helvetica,sans-Serif" font-size="10.00">gflags/gflags.h</text>
</g>
<!-- Node6&#45;&gt;Node8 -->
<g id="edge8" class="edge"><title>Node6&#45;&gt;Node8</title>
<path fill="none" stroke="midnightblue" d="M319.021,-62.4035C326.443,-53.3143 338.333,-38.7559 347.567,-27.4489"/>
<polygon fill="midnightblue" stroke="midnightblue" points="350.378,-29.5398 353.993,-19.5806 344.956,-25.1121 350.378,-29.5398"/>
</g>
<!-- Node12 -->
<g id="node12" class="node"><title>Node12</title>
<polygon fill="white" stroke="#bfbfbf" points="1116,-130.5 1116,-149.5 1210,-149.5 1210,-130.5 1116,-130.5"/>
<text text-anchor="middle" x="1163" y="-137.5" font-family="Helvetica,sans-Serif" font-size="10.00">boost/version.hpp</text>
</g>
<!-- Node11&#45;&gt;Node12 -->
<g id="edge12" class="edge"><title>Node11&#45;&gt;Node12</title>
<path fill="none" stroke="midnightblue" d="M1012.22,-192.403C1042.67,-182.022 1094.05,-164.506 1128.24,-152.849"/>
<polygon fill="midnightblue" stroke="midnightblue" points="1129.49,-156.12 1137.83,-149.581 1127.24,-149.495 1129.49,-156.12"/>
</g>
<!-- Node13 -->
<g id="node13" class="node"><title>Node13</title>
<polygon fill="white" stroke="#bfbfbf" points="810,-125 810,-155 916,-155 916,-125 810,-125"/>
<text text-anchor="start" x="818" y="-143" font-family="Helvetica,sans-Serif" font-size="10.00">boost_multiprecision</text>
<text text-anchor="middle" x="863" y="-132" font-family="Helvetica,sans-Serif" font-size="10.00">/cpp_int.hpp</text>
</g>
<!-- Node11&#45;&gt;Node13 -->
<g id="edge13" class="edge"><title>Node11&#45;&gt;Node13</title>
<path fill="none" stroke="midnightblue" d="M969.234,-192.403C951.577,-183.86 923.932,-170.483 901.269,-159.517"/>
<polygon fill="midnightblue" stroke="midnightblue" points="902.75,-156.346 892.224,-155.141 899.701,-162.647 902.75,-156.346"/>
</g>
<!-- Node14 -->
<g id="node14" class="node"><title>Node14</title>
<polygon fill="white" stroke="#bfbfbf" points="934,-125 934,-155 1040,-155 1040,-125 934,-125"/>
<text text-anchor="start" x="942" y="-143" font-family="Helvetica,sans-Serif" font-size="10.00">boost_multiprecision</text>
<text text-anchor="middle" x="987" y="-132" font-family="Helvetica,sans-Serif" font-size="10.00">/cpp_dec_float.hpp</text>
</g>
<!-- Node11&#45;&gt;Node14 -->
<g id="edge14" class="edge"><title>Node11&#45;&gt;Node14</title>
<path fill="none" stroke="midnightblue" d="M987,-192.403C987,-185.341 987,-174.975 987,-165.399"/>
<polygon fill="midnightblue" stroke="midnightblue" points="990.5,-165.141 987,-155.141 983.5,-165.141 990.5,-165.141"/>
</g>
<!-- Node15 -->
<g id="node15" class="node"><title>Node15</title>
<polygon fill="white" stroke="#bfbfbf" points="1058,-130.5 1058,-149.5 1098,-149.5 1098,-130.5 1058,-130.5"/>
<text text-anchor="middle" x="1078" y="-137.5" font-family="Helvetica,sans-Serif" font-size="10.00">limits</text>
</g>
<!-- Node11&#45;&gt;Node15 -->
<g id="edge15" class="edge"><title>Node11&#45;&gt;Node15</title>
<path fill="none" stroke="midnightblue" d="M1000.04,-192.403C1014.77,-182.691 1038.97,-166.732 1056.51,-155.17"/>
<polygon fill="midnightblue" stroke="midnightblue" points="1058.56,-158.007 1064.99,-149.581 1054.71,-152.163 1058.56,-158.007"/>
</g>
<!-- Node17 -->
<g id="node17" class="node"><title>Node17</title>
<polygon fill="white" stroke="#bfbfbf" points="512.5,-130.5 512.5,-149.5 565.5,-149.5 565.5,-130.5 512.5,-130.5"/>
<text text-anchor="middle" x="539" y="-137.5" font-family="Helvetica,sans-Serif" font-size="10.00">endian.h</text>
</g>
<!-- Node16&#45;&gt;Node17 -->
<g id="edge17" class="edge"><title>Node16&#45;&gt;Node17</title>
<path fill="none" stroke="midnightblue" d="M544.997,-192.403C544.009,-183.938 542.468,-170.728 541.196,-159.82"/>
<polygon fill="midnightblue" stroke="midnightblue" points="544.636,-159.108 540.001,-149.581 537.684,-159.919 544.636,-159.108"/>
</g>
<!-- Node18 -->
<g id="node18" class="node"><title>Node18</title>
<g id="a_node18"><a xlink:href="compiler-util_8h.html" target="_top" xlink:title="common/compiler&#45;util.h">
<polygon fill="white" stroke="black" points="584,-130.5 584,-149.5 702,-149.5 702,-130.5 584,-130.5"/>
<text text-anchor="middle" x="643" y="-137.5" font-family="Helvetica,sans-Serif" font-size="10.00">common/compiler&#45;util.h</text>
</a>
</g>
</g>
<!-- Node16&#45;&gt;Node18 -->
<g id="edge18" class="edge"><title>Node16&#45;&gt;Node18</title>
<path fill="none" stroke="midnightblue" d="M559.898,-192.403C575.744,-182.601 601.874,-166.439 620.605,-154.853"/>
<polygon fill="midnightblue" stroke="midnightblue" points="622.465,-157.818 629.128,-149.581 618.782,-151.865 622.465,-157.818"/>
</g>
<!-- Node19 -->
<g id="node19" class="node"><title>Node19</title>
<g id="a_node19"><a xlink:href="cpu-info_8h.html" target="_top" xlink:title="util/cpu&#45;info.h">
<polygon fill="white" stroke="black" points="380.5,-130.5 380.5,-149.5 455.5,-149.5 455.5,-130.5 380.5,-130.5"/>
<text text-anchor="middle" x="418" y="-137.5" font-family="Helvetica,sans-Serif" font-size="10.00">util/cpu&#45;info.h</text>
</a>
</g>
</g>
<!-- Node16&#45;&gt;Node19 -->
<g id="edge19" class="edge"><title>Node16&#45;&gt;Node19</title>
<path fill="none" stroke="midnightblue" d="M527.661,-192.403C506.179,-182.334 470.378,-165.552 445.552,-153.915"/>
<polygon fill="midnightblue" stroke="midnightblue" points="446.845,-150.656 436.305,-149.581 443.874,-156.994 446.845,-150.656"/>
</g>
<!-- Node20 -->
<g id="node20" class="node"><title>Node20</title>
<g id="a_node20"><a xlink:href="sse-util_8h.html" target="_top" xlink:title="util/sse&#45;util.h">
<polygon fill="white" stroke="black" points="720,-130.5 720,-149.5 792,-149.5 792,-130.5 720,-130.5"/>
<text text-anchor="middle" x="756" y="-137.5" font-family="Helvetica,sans-Serif" font-size="10.00">util/sse&#45;util.h</text>
</a>
</g>
</g>
<!-- Node16&#45;&gt;Node20 -->
<g id="edge23" class="edge"><title>Node16&#45;&gt;Node20</title>
<path fill="none" stroke="midnightblue" d="M579.339,-192.488C612.777,-183.815 665.673,-169.724 711,-156 714.414,-154.966 717.961,-153.853 721.498,-152.717"/>
<polygon fill="midnightblue" stroke="midnightblue" points="722.907,-155.938 731.321,-149.5 720.729,-149.286 722.907,-155.938"/>
</g>
<!-- Node19&#45;&gt;Node3 -->
<g id="edge20" class="edge"><title>Node19&#45;&gt;Node3</title>
<path fill="none" stroke="midnightblue" d="M415.516,-130.372C412.687,-120.544 407.982,-104.202 404.316,-91.4673"/>
<polygon fill="midnightblue" stroke="midnightblue" points="407.675,-90.4826 401.545,-81.8411 400.948,-92.4191 407.675,-90.4826"/>
</g>
<!-- Node19&#45;&gt;Node4 -->
<g id="edge21" class="edge"><title>Node19&#45;&gt;Node4</title>
<path fill="none" stroke="midnightblue" d="M426.628,-130.372C437.045,-119.955 454.783,-102.217 467.784,-89.2162"/>
<polygon fill="midnightblue" stroke="midnightblue" points="470.563,-91.3871 475.159,-81.8411 465.613,-86.4373 470.563,-91.3871"/>
</g>
<!-- Node19&#45;&gt;Node6 -->
<g id="edge22" class="edge"><title>Node19&#45;&gt;Node6</title>
<path fill="none" stroke="midnightblue" d="M404.142,-130.372C386.446,-119.353 355.596,-100.145 334.508,-87.0142"/>
<polygon fill="midnightblue" stroke="midnightblue" points="336.2,-83.945 325.861,-81.6305 332.5,-89.8872 336.2,-83.945"/>
</g>
<!-- Node21 -->
<g id="node21" class="node"><title>Node21</title>
<polygon fill="white" stroke="#bfbfbf" points="722,-62.5 722,-81.5 790,-81.5 790,-62.5 722,-62.5"/>
<text text-anchor="middle" x="756" y="-69.5" font-family="Helvetica,sans-Serif" font-size="10.00">emmintrin.h</text>
</g>
<!-- Node20&#45;&gt;Node21 -->
<g id="edge24" class="edge"><title>Node20&#45;&gt;Node21</title>
<path fill="none" stroke="midnightblue" d="M756,-130.372C756,-120.643 756,-104.528 756,-91.8504"/>
<polygon fill="midnightblue" stroke="midnightblue" points="759.5,-91.8411 756,-81.8411 752.5,-91.8412 759.5,-91.8411"/>
</g>
</g>
</svg>
