<?xml version="1.0" encoding="UTF-8" standalone="no"?>
<!DOCTYPE svg PUBLIC "-//W3C//DTD SVG 1.1//EN"
 "http://www.w3.org/Graphics/SVG/1.1/DTD/svg11.dtd">
<!-- Generated by graphviz version 2.36.0 (20140111.2315)
 -->
<!-- Title: be/src/util/default&#45;path&#45;handlers.h Pages: 1 -->
<!--zoomable 108 -->
<svg id="main" version="1.1" xmlns="http://www.w3.org/2000/svg" xmlns:xlink="http://www.w3.org/1999/xlink" xml:space="preserve" onload="init(evt)">
<style type="text/css"><![CDATA[
.edge:hover path { stroke: red; }
.edge:hover polygon { stroke: red; fill: red; }
]]></style>
<script type="text/javascript"><![CDATA[
var edges = document.getElementsByTagName('g');
if (edges && edges.length) {
  for (var i=0;i<edges.length;i++) {
    if (edges[i].id.substr(0,4)=='edge') {
      edges[i].setAttribute('class','edge');
    }
  }
}
]]></script>
        <defs>
                <circle id="rim" cx="0" cy="0" r="7"/>
                <circle id="rim2" cx="0" cy="0" r="3.5"/>
                <g id="zoomPlus">
                        <use xlink:href="#rim" fill="#404040">
                                <set attributeName="fill" to="#808080" begin="zoomplus.mouseover" end="zoomplus.mouseout"/>
                        </use>
                        <path d="M-4,0h8M0,-4v8" fill="none" stroke="white" stroke-width="1.5" pointer-events="none"/>
                </g>
                <g id="zoomMin">
                        <use xlink:href="#rim" fill="#404040">
                                <set attributeName="fill" to="#808080" begin="zoomminus.mouseover" end="zoomminus.mouseout"/>
                        </use>
                        <path d="M-4,0h8" fill="none" stroke="white" stroke-width="1.5" pointer-events="none"/>
                </g>
                <g id="dirArrow">
                        <path fill="none" stroke="white" stroke-width="1.5" d="M0,-3.0v7 M-2.5,-0.5L0,-3.0L2.5,-0.5"/>
                </g>
               <g id="resetDef">
                       <use xlink:href="#rim2" fill="#404040">
                               <set attributeName="fill" to="#808080" begin="reset.mouseover" end="reset.mouseout"/>
                       </use>
               </g>
        </defs>

<script type="text/javascript">
var viewWidth = 640;
var viewHeight = 108;
var sectionId = 'dynsection-1';
</script>
<script xlink:href="svgpan.js"/>
<svg id="graph" class="graph">
<g id="viewport">
<title>be/src/util/default&#45;path&#45;handlers.h</title>
<polygon fill="white" stroke="none" points="-4,4 -4,-104 636,-104 636,4 -4,4"/>
<!-- Node1 -->
<g id="node1" class="node"><title>Node1</title>
<polygon fill="#bfbfbf" stroke="black" points="283,-69 283,-99 375,-99 375,-69 283,-69"/>
<text text-anchor="start" x="291" y="-87" font-family="Helvetica,sans-Serif" font-size="10.00">be/src/util/default</text>
<text text-anchor="middle" x="329" y="-76" font-family="Helvetica,sans-Serif" font-size="10.00">&#45;path&#45;handlers.h</text>
</g>
<!-- Node2 -->
<g id="node2" class="node"><title>Node2</title>
<g id="a_node2"><a xlink:href="catalogd-main_8cc.html" target="_top" xlink:title="be/src/catalog/catalogd\l&#45;main.cc">
<polygon fill="white" stroke="black" points="0,-1 0,-31 118,-31 118,-1 0,-1"/>
<text text-anchor="start" x="8" y="-19" font-family="Helvetica,sans-Serif" font-size="10.00">be/src/catalog/catalogd</text>
<text text-anchor="middle" x="59" y="-8" font-family="Helvetica,sans-Serif" font-size="10.00">&#45;main.cc</text>
</a>
</g>
</g>
<!-- Node1&#45;&gt;Node2 -->
<g id="edge1" class="edge"><title>Node1&#45;&gt;Node2</title>
<path fill="none" stroke="midnightblue" d="M273.139,-69.3452C227.392,-58.1626 162.904,-42.3987 116.671,-31.0975"/>
<polygon fill="midnightblue" stroke="midnightblue" points="272.347,-72.7545 282.892,-71.7292 274.009,-65.9547 272.347,-72.7545"/>
</g>
<!-- Node3 -->
<g id="node3" class="node"><title>Node3</title>
<g id="a_node3"><a xlink:href="exec-env_8cc.html" target="_top" xlink:title="be/src/runtime/exec\l&#45;env.cc">
<polygon fill="white" stroke="black" points="136.5,-1 136.5,-31 239.5,-31 239.5,-1 136.5,-1"/>
<text text-anchor="start" x="144.5" y="-19" font-family="Helvetica,sans-Serif" font-size="10.00">be/src/runtime/exec</text>
<text text-anchor="middle" x="188" y="-8" font-family="Helvetica,sans-Serif" font-size="10.00">&#45;env.cc</text>
</a>
</g>
</g>
<!-- Node1&#45;&gt;Node3 -->
<g id="edge2" class="edge"><title>Node1&#45;&gt;Node3</title>
<path fill="none" stroke="midnightblue" d="M289.436,-64.4805C266.859,-53.9128 239.003,-40.8738 218.198,-31.1352"/>
<polygon fill="midnightblue" stroke="midnightblue" points="288.211,-67.7718 298.752,-68.8413 291.179,-61.432 288.211,-67.7718"/>
</g>
<!-- Node4 -->
<g id="node4" class="node"><title>Node4</title>
<g id="a_node4"><a xlink:href="statestored-main_8cc.html" target="_top" xlink:title="be/src/statestore/statestored\l&#45;main.cc">
<polygon fill="white" stroke="black" points="258,-1 258,-31 400,-31 400,-1 258,-1"/>
<text text-anchor="start" x="266" y="-19" font-family="Helvetica,sans-Serif" font-size="10.00">be/src/statestore/statestored</text>
<text text-anchor="middle" x="329" y="-8" font-family="Helvetica,sans-Serif" font-size="10.00">&#45;main.cc</text>
</a>
</g>
</g>
<!-- Node1&#45;&gt;Node4 -->
<g id="edge3" class="edge"><title>Node1&#45;&gt;Node4</title>
<path fill="none" stroke="midnightblue" d="M329,-58.5322C329,-49.3606 329,-39.2449 329,-31.2931"/>
<polygon fill="midnightblue" stroke="midnightblue" points="325.5,-58.6789 329,-68.679 332.5,-58.679 325.5,-58.6789"/>
</g>
<!-- Node5 -->
<g id="node5" class="node"><title>Node5</title>
<g id="a_node5"><a xlink:href="in-process-servers_8cc.html" target="_top" xlink:title="be/src/testutil/in\l&#45;process&#45;servers.cc">
<polygon fill="white" stroke="black" points="418.5,-1 418.5,-31 521.5,-31 521.5,-1 418.5,-1"/>
<text text-anchor="start" x="426.5" y="-19" font-family="Helvetica,sans-Serif" font-size="10.00">be/src/testutil/in</text>
<text text-anchor="middle" x="470" y="-8" font-family="Helvetica,sans-Serif" font-size="10.00">&#45;process&#45;servers.cc</text>
</a>
</g>
</g>
<!-- Node1&#45;&gt;Node5 -->
<g id="edge4" class="edge"><title>Node1&#45;&gt;Node5</title>
<path fill="none" stroke="midnightblue" d="M368.564,-64.4805C391.141,-53.9128 418.997,-40.8738 439.802,-31.1352"/>
<polygon fill="midnightblue" stroke="midnightblue" points="366.821,-61.432 359.248,-68.8413 369.789,-67.7718 366.821,-61.432"/>
</g>
<!-- Node6 -->
<g id="node6" class="node"><title>Node6</title>
<g id="a_node6"><a xlink:href="default-path-handlers_8cc.html" target="_top" xlink:title="be/src/util/default\l&#45;path&#45;handlers.cc">
<polygon fill="white" stroke="black" points="540,-1 540,-31 632,-31 632,-1 540,-1"/>
<text text-anchor="start" x="548" y="-19" font-family="Helvetica,sans-Serif" font-size="10.00">be/src/util/default</text>
<text text-anchor="middle" x="586" y="-8" font-family="Helvetica,sans-Serif" font-size="10.00">&#45;path&#45;handlers.cc</text>
</a>
</g>
</g>
<!-- Node1&#45;&gt;Node6 -->
<g id="edge5" class="edge"><title>Node1&#45;&gt;Node6</title>
<path fill="none" stroke="midnightblue" d="M385.259,-68.9368C425.588,-58.8041 481.185,-44.73 530,-32 533.214,-31.1619 536.53,-30.2906 539.868,-29.4086"/>
<polygon fill="midnightblue" stroke="midnightblue" points="384.195,-65.5952 375.348,-71.4248 385.9,-72.3846 384.195,-65.5952"/>
</g>
</g>
</svg>
        <g id="navigator" transform="translate(0 0)" fill="#404254">
                <rect fill="#f2f5e9" fill-opacity="0.5" stroke="#606060" stroke-width=".5" x="0" y="0" width="60" height="60"/>
                <use id="zoomplus" xlink:href="#zoomPlus" x="17" y="9" onmousedown="handleZoom(evt,'in')"/>
                <use id="zoomminus" xlink:href="#zoomMin" x="42" y="9" onmousedown="handleZoom(evt,'out')"/>
                <use id="reset" xlink:href="#resetDef" x="30" y="36" onmousedown="handleReset()"/>
                <g id="arrowUp" xlink:href="#dirArrow" transform="translate(30 24)" onmousedown="handlePan(0,-1)">
                  <use xlink:href="#rim" fill="#404040">
                        <set attributeName="fill" to="#808080" begin="arrowUp.mouseover" end="arrowUp.mouseout"/>
                  </use>
                  <path fill="none" stroke="white" stroke-width="1.5" d="M0,-3.0v7 M-2.5,-0.5L0,-3.0L2.5,-0.5"/>
                </g>
                <g id="arrowRight" xlink:href="#dirArrow" transform="rotate(90) translate(36 -43)" onmousedown="handlePan(1,0)">
                  <use xlink:href="#rim" fill="#404040">
                        <set attributeName="fill" to="#808080" begin="arrowRight.mouseover" end="arrowRight.mouseout"/>
                  </use>
                  <path fill="none" stroke="white" stroke-width="1.5" d="M0,-3.0v7 M-2.5,-0.5L0,-3.0L2.5,-0.5"/>
                </g>
                <g id="arrowDown" xlink:href="#dirArrow" transform="rotate(180) translate(-30 -48)" onmousedown="handlePan(0,1)">
                  <use xlink:href="#rim" fill="#404040">
                        <set attributeName="fill" to="#808080" begin="arrowDown.mouseover" end="arrowDown.mouseout"/>
                  </use>
                  <path fill="none" stroke="white" stroke-width="1.5" d="M0,-3.0v7 M-2.5,-0.5L0,-3.0L2.5,-0.5"/>
                </g>
                <g id="arrowLeft" xlink:href="#dirArrow" transform="rotate(270) translate(-36 17)" onmousedown="handlePan(-1,0)">
                  <use xlink:href="#rim" fill="#404040">
                        <set attributeName="fill" to="#808080" begin="arrowLeft.mouseover" end="arrowLeft.mouseout"/>
                  </use>
                  <path fill="none" stroke="white" stroke-width="1.5" d="M0,-3.0v7 M-2.5,-0.5L0,-3.0L2.5,-0.5"/>
                </g>
        </g>
        <svg viewBox="0 0 15 15" width="100%" height="30px" preserveAspectRatio="xMaxYMin meet">
         <g id="arrow_out" transform="scale(0.3 0.3)">
          <a xlink:href="default-path-handlers_8h__dep__incl_org.svg" target="_base">
           <rect id="button" ry="5" rx="5" y="6" x="6" height="38" width="38"
                fill="#f2f5e9" fill-opacity="0.5" stroke="#606060" stroke-width="1.0"/>
           <path id="arrow"
             d="M 11.500037,31.436501 C 11.940474,20.09759 22.043105,11.32322 32.158766,21.979434 L 37.068811,17.246167 C 37.068811,17.246167 37.088388,32 37.088388,32 L 22.160133,31.978069 C 22.160133,31.978069 26.997745,27.140456 26.997745,27.140456 C 18.528582,18.264221 13.291696,25.230495 11.500037,31.436501 z"
             style="fill:#404040;"/>
          </a>
         </g>
        </svg>
</svg>
