<?xml version="1.0" encoding="UTF-8" standalone="no"?>
<!DOCTYPE svg PUBLIC "-//W3C//DTD SVG 1.1//EN"
 "http://www.w3.org/Graphics/SVG/1.1/DTD/svg11.dtd">
<!-- Generated by graphviz version 2.36.0 (20140111.2315)
 -->
<!-- Title: be/src/exec/delimited&#45;text&#45;parser.inline.h Pages: 1 -->
<svg width="525pt" height="108pt"
 viewBox="0.00 0.00 525.00 108.00" xmlns="http://www.w3.org/2000/svg" xmlns:xlink="http://www.w3.org/1999/xlink">
<g id="graph0" class="graph" transform="scale(1 1) rotate(0) translate(4 104)">
<title>be/src/exec/delimited&#45;text&#45;parser.inline.h</title>
<polygon fill="white" stroke="none" points="-4,4 -4,-104 521,-104 521,4 -4,4"/>
<!-- Node1 -->
<g id="node1" class="node"><title>Node1</title>
<polygon fill="#bfbfbf" stroke="black" points="198,-69 198,-99 308,-99 308,-69 198,-69"/>
<text text-anchor="start" x="206" y="-87" font-family="Helvetica,sans-Serif" font-size="10.00">be/src/exec/delimited</text>
<text text-anchor="middle" x="253" y="-76" font-family="Helvetica,sans-Serif" font-size="10.00">&#45;text&#45;parser.inline.h</text>
</g>
<!-- Node2 -->
<g id="node2" class="node"><title>Node2</title>
<g id="a_node2"><a xlink:href="delimited-text-parser-test_8cc.html" target="_top" xlink:title="be/src/exec/delimited\l&#45;text&#45;parser&#45;test.cc">
<polygon fill="white" stroke="black" points="0,-1 0,-31 110,-31 110,-1 0,-1"/>
<text text-anchor="start" x="8" y="-19" font-family="Helvetica,sans-Serif" font-size="10.00">be/src/exec/delimited</text>
<text text-anchor="middle" x="55" y="-8" font-family="Helvetica,sans-Serif" font-size="10.00">&#45;text&#45;parser&#45;test.cc</text>
</a>
</g>
</g>
<!-- Node1&#45;&gt;Node2 -->
<g id="edge1" class="edge"><title>Node1&#45;&gt;Node2</title>
<path fill="none" stroke="midnightblue" d="M200.775,-65.5916C168.395,-54.7984 127.347,-41.1157 97.0655,-31.0218"/>
<polygon fill="midnightblue" stroke="midnightblue" points="199.93,-68.9994 210.524,-68.8413 202.144,-62.3586 199.93,-68.9994"/>
</g>
<!-- Node3 -->
<g id="node3" class="node"><title>Node3</title>
<g id="a_node3"><a xlink:href="delimited-text-parser_8cc.html" target="_top" xlink:title="be/src/exec/delimited\l&#45;text&#45;parser.cc">
<polygon fill="white" stroke="black" points="128,-1 128,-31 238,-31 238,-1 128,-1"/>
<text text-anchor="start" x="136" y="-19" font-family="Helvetica,sans-Serif" font-size="10.00">be/src/exec/delimited</text>
<text text-anchor="middle" x="183" y="-8" font-family="Helvetica,sans-Serif" font-size="10.00">&#45;text&#45;parser.cc</text>
</a>
</g>
</g>
<!-- Node1&#45;&gt;Node3 -->
<g id="edge2" class="edge"><title>Node1&#45;&gt;Node3</title>
<path fill="none" stroke="midnightblue" d="M230.49,-61.7762C219.92,-51.8105 207.601,-40.1956 198.159,-31.2931"/>
<polygon fill="midnightblue" stroke="midnightblue" points="228.134,-64.3654 237.811,-68.679 232.936,-59.2723 228.134,-64.3654"/>
</g>
<!-- Node4 -->
<g id="node4" class="node"><title>Node4</title>
<g id="a_node4"><a xlink:href="hdfs-sequence-scanner_8cc.html" target="_top" xlink:title="be/src/exec/hdfs&#45;sequence\l&#45;scanner.cc">
<polygon fill="white" stroke="black" points="256,-1 256,-31 390,-31 390,-1 256,-1"/>
<text text-anchor="start" x="264" y="-19" font-family="Helvetica,sans-Serif" font-size="10.00">be/src/exec/hdfs&#45;sequence</text>
<text text-anchor="middle" x="323" y="-8" font-family="Helvetica,sans-Serif" font-size="10.00">&#45;scanner.cc</text>
</a>
</g>
</g>
<!-- Node1&#45;&gt;Node4 -->
<g id="edge3" class="edge"><title>Node1&#45;&gt;Node4</title>
<path fill="none" stroke="midnightblue" d="M275.51,-61.7762C286.08,-51.8105 298.399,-40.1956 307.841,-31.2931"/>
<polygon fill="midnightblue" stroke="midnightblue" points="273.064,-59.2723 268.189,-68.679 277.866,-64.3654 273.064,-59.2723"/>
</g>
<!-- Node5 -->
<g id="node5" class="node"><title>Node5</title>
<g id="a_node5"><a xlink:href="hdfs-text-scanner_8cc.html" target="_top" xlink:title="be/src/exec/hdfs&#45;text\l&#45;scanner.cc">
<polygon fill="white" stroke="black" points="408.5,-1 408.5,-31 517.5,-31 517.5,-1 408.5,-1"/>
<text text-anchor="start" x="416.5" y="-19" font-family="Helvetica,sans-Serif" font-size="10.00">be/src/exec/hdfs&#45;text</text>
<text text-anchor="middle" x="463" y="-8" font-family="Helvetica,sans-Serif" font-size="10.00">&#45;scanner.cc</text>
</a>
</g>
</g>
<!-- Node1&#45;&gt;Node5 -->
<g id="edge4" class="edge"><title>Node1&#45;&gt;Node5</title>
<path fill="none" stroke="midnightblue" d="M307.687,-65.8127C342.098,-54.9979 385.95,-41.2157 418.276,-31.0561"/>
<polygon fill="midnightblue" stroke="midnightblue" points="306.283,-62.585 297.793,-68.9223 308.382,-69.2629 306.283,-62.585"/>
</g>
</g>
</svg>
