<?xml version="1.0" encoding="UTF-8" standalone="no"?>
<!DOCTYPE svg PUBLIC "-//W3C//DTD SVG 1.1//EN"
 "http://www.w3.org/Graphics/SVG/1.1/DTD/svg11.dtd">
<!-- Generated by graphviz version 2.36.0 (20140111.2315)
 -->
<!-- Title: be/src/testutil/desc&#45;tbl&#45;builder.h Pages: 1 -->
<svg width="374pt" height="108pt"
 viewBox="0.00 0.00 374.00 108.00" xmlns="http://www.w3.org/2000/svg" xmlns:xlink="http://www.w3.org/1999/xlink">
<g id="graph0" class="graph" transform="scale(1 1) rotate(0) translate(4 104)">
<title>be/src/testutil/desc&#45;tbl&#45;builder.h</title>
<polygon fill="white" stroke="none" points="-4,4 -4,-104 370,-104 370,4 -4,4"/>
<!-- Node1 -->
<g id="node1" class="node"><title>Node1</title>
<polygon fill="#bfbfbf" stroke="black" points="139,-69 139,-99 239,-99 239,-69 139,-69"/>
<text text-anchor="start" x="147" y="-87" font-family="Helvetica,sans-Serif" font-size="10.00">be/src/testutil/desc</text>
<text text-anchor="middle" x="189" y="-76" font-family="Helvetica,sans-Serif" font-size="10.00">&#45;tbl&#45;builder.h</text>
</g>
<!-- Node2 -->
<g id="node2" class="node"><title>Node2</title>
<g id="a_node2"><a xlink:href="row-batch-list-test_8cc.html" target="_top" xlink:title="be/src/exec/row&#45;batch\l&#45;list&#45;test.cc">
<polygon fill="white" stroke="black" points="-0.5,-1 -0.5,-31 112.5,-31 112.5,-1 -0.5,-1"/>
<text text-anchor="start" x="7.5" y="-19" font-family="Helvetica,sans-Serif" font-size="10.00">be/src/exec/row&#45;batch</text>
<text text-anchor="middle" x="56" y="-8" font-family="Helvetica,sans-Serif" font-size="10.00">&#45;list&#45;test.cc</text>
</a>
</g>
</g>
<!-- Node1&#45;&gt;Node2 -->
<g id="edge1" class="edge"><title>Node1&#45;&gt;Node2</title>
<path fill="none" stroke="midnightblue" d="M151.395,-64.3388C130.15,-53.7964 104.022,-40.8303 84.4846,-31.1352"/>
<polygon fill="midnightblue" stroke="midnightblue" points="149.955,-67.5313 160.468,-68.8413 153.066,-61.2609 149.955,-67.5313"/>
</g>
<!-- Node3 -->
<g id="node3" class="node"><title>Node3</title>
<g id="a_node3"><a xlink:href="buffered-tuple-stream-test_8cc.html" target="_top" xlink:title="be/src/runtime/buffered\l&#45;tuple&#45;stream&#45;test.cc">
<polygon fill="white" stroke="black" points="130.5,-1 130.5,-31 247.5,-31 247.5,-1 130.5,-1"/>
<text text-anchor="start" x="138.5" y="-19" font-family="Helvetica,sans-Serif" font-size="10.00">be/src/runtime/buffered</text>
<text text-anchor="middle" x="189" y="-8" font-family="Helvetica,sans-Serif" font-size="10.00">&#45;tuple&#45;stream&#45;test.cc</text>
</a>
</g>
</g>
<!-- Node1&#45;&gt;Node3 -->
<g id="edge2" class="edge"><title>Node1&#45;&gt;Node3</title>
<path fill="none" stroke="midnightblue" d="M189,-58.5322C189,-49.3606 189,-39.2449 189,-31.2931"/>
<polygon fill="midnightblue" stroke="midnightblue" points="185.5,-58.6789 189,-68.679 192.5,-58.679 185.5,-58.6789"/>
</g>
<!-- Node4 -->
<g id="node4" class="node"><title>Node4</title>
<g id="a_node4"><a xlink:href="desc-tbl-builder_8cc.html" target="_top" xlink:title="be/src/testutil/desc\l&#45;tbl&#45;builder.cc">
<polygon fill="white" stroke="black" points="266,-1 266,-31 366,-31 366,-1 266,-1"/>
<text text-anchor="start" x="274" y="-19" font-family="Helvetica,sans-Serif" font-size="10.00">be/src/testutil/desc</text>
<text text-anchor="middle" x="316" y="-8" font-family="Helvetica,sans-Serif" font-size="10.00">&#45;tbl&#45;builder.cc</text>
</a>
</g>
</g>
<!-- Node1&#45;&gt;Node4 -->
<g id="edge3" class="edge"><title>Node1&#45;&gt;Node4</title>
<path fill="none" stroke="midnightblue" d="M225.182,-64.1968C245.418,-53.6802 270.228,-40.7868 288.8,-31.1352"/>
<polygon fill="midnightblue" stroke="midnightblue" points="223.504,-61.1243 216.245,-68.8413 226.732,-67.3356 223.504,-61.1243"/>
</g>
</g>
</svg>
