<?xml version="1.0" encoding="UTF-8" standalone="no"?>
<!DOCTYPE svg PUBLIC "-//W3C//DTD SVG 1.1//EN"
 "http://www.w3.org/Graphics/SVG/1.1/DTD/svg11.dtd">
<!-- Generated by graphviz version 2.36.0 (20140111.2315)
 -->
<!-- Title: be/src/udf Pages: 1 -->
<svg width="218pt" height="260pt"
 viewBox="0.00 0.00 218.10 260.00" xmlns="http://www.w3.org/2000/svg" xmlns:xlink="http://www.w3.org/1999/xlink">
<g id="graph0" class="graph" transform="scale(1 1) rotate(0) translate(4 256)">
<title>be/src/udf</title>
<polygon fill="white" stroke="none" points="-4,4 -4,-256 214.096,-256 214.096,4 -4,4"/>
<g id="clust1" class="cluster"><title>clusterdir_68cf7cafb51a962d5bc4848b83cab0de</title>
<g id="a_clust1"><a xlink:href="dir_68cf7cafb51a962d5bc4848b83cab0de.html" target="_top" xlink:title="src">
<polygon fill="#ddddee" stroke="black" points="8,-136 8,-207 78,-207 78,-136 8,-136"/>
<text text-anchor="middle" x="43" y="-195" font-family="Helvetica,sans-Serif" font-size="10.00">src</text>
</a>
</g>
</g>
<!-- dir_4f43bed77f871f0a9a7226f20fb741d9 -->
<g id="node1" class="node"><title>dir_4f43bed77f871f0a9a7226f20fb741d9</title>
<g id="a_node1"><a xlink:href="dir_4f43bed77f871f0a9a7226f20fb741d9.html" target="_top" xlink:title="udf">
<polygon fill="#eeeeff" stroke="black" points="70,-180 16,-180 16,-144 70,-144 70,-180"/>
<text text-anchor="middle" x="43" y="-159.5" font-family="Helvetica,sans-Serif" font-size="10.00">udf</text>
</a>
</g>
</g>
<!-- dir_6939c8639261a9303da2cde491b82898 -->
<g id="node2" class="node"><title>dir_6939c8639261a9303da2cde491b82898</title>
<g id="a_node2"><a xlink:href="dir_6939c8639261a9303da2cde491b82898.html" target="_top" xlink:title="util">
<polygon fill="none" stroke="black" points="180,-252 126,-252 126,-216 180,-216 180,-252"/>
<text text-anchor="middle" x="153" y="-231.5" font-family="Helvetica,sans-Serif" font-size="10.00">util</text>
</a>
</g>
</g>
<!-- dir_4f43bed77f871f0a9a7226f20fb741d9&#45;&gt;dir_6939c8639261a9303da2cde491b82898 -->
<g id="edge14" class="edge"><title>dir_4f43bed77f871f0a9a7226f20fb741d9&#45;&gt;dir_6939c8639261a9303da2cde491b82898</title>
<path fill="none" stroke="black" d="M47.9055,-180.281C54.29,-189.243 64.2454,-199.791 75,-207 87.236,-215.202 102.413,-221.284 116.232,-225.494"/>
<polygon fill="black" stroke="black" points="115.42,-228.901 125.993,-228.232 117.311,-222.161 115.42,-228.901"/>
<g id="a_edge14&#45;headlabel"><a xlink:href="dir_000023_000025.html" target="_top" xlink:title="1">
<text text-anchor="middle" x="111.192" y="-228.164" font-family="Helvetica,sans-Serif" font-size="10.00">1</text>
</a>
</g>
</g>
<!-- dir_1ef28ab5153adb64262182d038c65543 -->
<g id="node3" class="node"><title>dir_1ef28ab5153adb64262182d038c65543</title>
<g id="a_node3"><a xlink:href="dir_1ef28ab5153adb64262182d038c65543.html" target="_top" xlink:title="runtime">
<polygon fill="none" stroke="black" points="180,-180 126,-180 126,-144 180,-144 180,-180"/>
<text text-anchor="middle" x="153" y="-159.5" font-family="Helvetica,sans-Serif" font-size="10.00">runtime</text>
</a>
</g>
</g>
<!-- dir_4f43bed77f871f0a9a7226f20fb741d9&#45;&gt;dir_1ef28ab5153adb64262182d038c65543 -->
<g id="edge15" class="edge"><title>dir_4f43bed77f871f0a9a7226f20fb741d9&#45;&gt;dir_1ef28ab5153adb64262182d038c65543</title>
<path fill="none" stroke="black" d="M70.0703,-162C85.3058,-162 100.541,-162 115.777,-162"/>
<polygon fill="black" stroke="black" points="115.789,-165.5 125.789,-162 115.789,-158.5 115.789,-165.5"/>
<g id="a_edge15&#45;headlabel"><a xlink:href="dir_000023_000017.html" target="_top" xlink:title="4">
<text text-anchor="middle" x="112.194" y="-165.839" font-family="Helvetica,sans-Serif" font-size="10.00">4</text>
</a>
</g>
</g>
<!-- dir_167f1b6f9e156d639715bac594b285a1 -->
<g id="node4" class="node"><title>dir_167f1b6f9e156d639715bac594b285a1</title>
<g id="a_node4"><a xlink:href="dir_167f1b6f9e156d639715bac594b285a1.html" target="_top" xlink:title="common">
<polygon fill="none" stroke="black" points="188,-36 134,-36 134,-0 188,-0 188,-36"/>
<text text-anchor="middle" x="161" y="-15.5" font-family="Helvetica,sans-Serif" font-size="10.00">common</text>
</a>
</g>
</g>
<!-- dir_4f43bed77f871f0a9a7226f20fb741d9&#45;&gt;dir_167f1b6f9e156d639715bac594b285a1 -->
<g id="edge16" class="edge"><title>dir_4f43bed77f871f0a9a7226f20fb741d9&#45;&gt;dir_167f1b6f9e156d639715bac594b285a1</title>
<path fill="none" stroke="black" d="M42.3019,-143.857C42.3864,-124.54 45.2465,-93.0926 61,-72 76.4981,-51.2493 102.548,-37.8163 124.175,-29.6666"/>
<polygon fill="black" stroke="black" points="125.482,-32.9168 133.746,-26.2867 123.152,-26.3162 125.482,-32.9168"/>
<g id="a_edge16&#45;headlabel"><a xlink:href="dir_000023_000005.html" target="_top" xlink:title="6">
<text text-anchor="middle" x="123.038" y="-34.2909" font-family="Helvetica,sans-Serif" font-size="10.00">6</text>
</a>
</g>
</g>
<!-- dir_cb9eb13056a2ddaa90910192d09d40dd -->
<g id="node5" class="node"><title>dir_cb9eb13056a2ddaa90910192d09d40dd</title>
<g id="a_node5"><a xlink:href="dir_cb9eb13056a2ddaa90910192d09d40dd.html" target="_top" xlink:title="testutil">
<polygon fill="none" stroke="black" points="124,-108 70,-108 70,-72 124,-72 124,-108"/>
<text text-anchor="middle" x="97" y="-87.5" font-family="Helvetica,sans-Serif" font-size="10.00">testutil</text>
</a>
</g>
</g>
<!-- dir_4f43bed77f871f0a9a7226f20fb741d9&#45;&gt;dir_cb9eb13056a2ddaa90910192d09d40dd -->
<g id="edge17" class="edge"><title>dir_4f43bed77f871f0a9a7226f20fb741d9&#45;&gt;dir_cb9eb13056a2ddaa90910192d09d40dd</title>
<path fill="none" stroke="black" d="M50.4326,-143.697C56.0408,-135.305 63.7437,-125.07 71.3295,-115.861"/>
<polygon fill="black" stroke="black" points="74.1099,-117.994 77.9102,-108.104 68.772,-113.466 74.1099,-117.994"/>
<g id="a_edge17&#45;headlabel"><a xlink:href="dir_000023_000021.html" target="_top" xlink:title="2">
<text text-anchor="middle" x="73.9497" y="-120.072" font-family="Helvetica,sans-Serif" font-size="10.00">2</text>
</a>
</g>
</g>
<!-- dir_6939c8639261a9303da2cde491b82898&#45;&gt;dir_4f43bed77f871f0a9a7226f20fb741d9 -->
<g id="edge3" class="edge"><title>dir_6939c8639261a9303da2cde491b82898&#45;&gt;dir_4f43bed77f871f0a9a7226f20fb741d9</title>
<path fill="none" stroke="black" d="M125.98,-223.119C115.208,-219.098 103.102,-213.771 93,-207 85.1021,-201.706 77.6352,-194.611 70.8869,-187.666"/>
<polygon fill="black" stroke="black" points="73.2889,-185.113 63.8599,-180.281 68.2178,-189.938 73.2889,-185.113"/>
<g id="a_edge3&#45;headlabel"><a xlink:href="dir_000025_000023.html" target="_top" xlink:title="1">
<text text-anchor="middle" x="77.8236" y="-183.26" font-family="Helvetica,sans-Serif" font-size="10.00">1</text>
</a>
</g>
</g>
<!-- dir_6939c8639261a9303da2cde491b82898&#45;&gt;dir_1ef28ab5153adb64262182d038c65543 -->
<g id="edge1" class="edge"><title>dir_6939c8639261a9303da2cde491b82898&#45;&gt;dir_1ef28ab5153adb64262182d038c65543</title>
<path fill="none" stroke="black" d="M147.084,-215.697C146.289,-207.983 146.062,-198.712 146.405,-190.112"/>
<polygon fill="black" stroke="black" points="149.898,-190.324 147.105,-180.104 142.915,-189.836 149.898,-190.324"/>
<g id="a_edge1&#45;headlabel"><a xlink:href="dir_000025_000017.html" target="_top" xlink:title="37">
<text text-anchor="middle" x="152.48" y="-191.608" font-family="Helvetica,sans-Serif" font-size="10.00">37</text>
</a>
</g>
</g>
<!-- dir_6939c8639261a9303da2cde491b82898&#45;&gt;dir_167f1b6f9e156d639715bac594b285a1 -->
<g id="edge2" class="edge"><title>dir_6939c8639261a9303da2cde491b82898&#45;&gt;dir_167f1b6f9e156d639715bac594b285a1</title>
<path fill="none" stroke="black" d="M173.401,-215.925C175.997,-213.268 178.315,-210.295 180,-207 206.777,-154.631 182.693,-84.0487 168.629,-46.0028"/>
<polygon fill="black" stroke="black" points="171.743,-44.3321 164.979,-36.1769 165.181,-46.7698 171.743,-44.3321"/>
<g id="a_edge2&#45;headlabel"><a xlink:href="dir_000025_000005.html" target="_top" xlink:title="136">
<text text-anchor="middle" x="175.656" y="-44.213" font-family="Helvetica,sans-Serif" font-size="10.00">136</text>
</a>
</g>
</g>
<!-- dir_1ef28ab5153adb64262182d038c65543&#45;&gt;dir_4f43bed77f871f0a9a7226f20fb741d9 -->
<g id="edge7" class="edge"><title>dir_1ef28ab5153adb64262182d038c65543&#45;&gt;dir_4f43bed77f871f0a9a7226f20fb741d9</title>
<path fill="none" stroke="black" d="M125.789,-162C110.553,-162 95.3177,-162 80.0822,-162"/>
<polygon fill="black" stroke="black" points="80.0703,-158.5 70.0703,-162 80.0703,-165.5 80.0703,-158.5"/>
<g id="a_edge7&#45;headlabel"><a xlink:href="dir_000017_000023.html" target="_top" xlink:title="2">
<text text-anchor="middle" x="83.6649" y="-153.161" font-family="Helvetica,sans-Serif" font-size="10.00">2</text>
</a>
</g>
</g>
<!-- dir_1ef28ab5153adb64262182d038c65543&#45;&gt;dir_6939c8639261a9303da2cde491b82898 -->
<g id="edge4" class="edge"><title>dir_1ef28ab5153adb64262182d038c65543&#45;&gt;dir_6939c8639261a9303da2cde491b82898</title>
<path fill="none" stroke="black" d="M158.895,-180.104C159.701,-187.791 159.937,-197.054 159.604,-205.665"/>
<polygon fill="black" stroke="black" points="156.109,-205.48 158.916,-215.697 163.092,-205.96 156.109,-205.48"/>
<g id="a_edge4&#45;headlabel"><a xlink:href="dir_000017_000025.html" target="_top" xlink:title="147">
<text text-anchor="middle" x="153.522" y="-199.2" font-family="Helvetica,sans-Serif" font-size="10.00">147</text>
</a>
</g>
</g>
<!-- dir_1ef28ab5153adb64262182d038c65543&#45;&gt;dir_167f1b6f9e156d639715bac594b285a1 -->
<g id="edge5" class="edge"><title>dir_1ef28ab5153adb64262182d038c65543&#45;&gt;dir_167f1b6f9e156d639715bac594b285a1</title>
<path fill="none" stroke="black" d="M149.38,-143.871C148.186,-119.67 150.399,-75.2108 153.998,-46.3932"/>
<polygon fill="black" stroke="black" points="157.506,-46.5808 155.441,-36.1893 150.575,-45.6007 157.506,-46.5808"/>
<g id="a_edge5&#45;headlabel"><a xlink:href="dir_000017_000005.html" target="_top" xlink:title="117">
<text text-anchor="middle" x="159.814" y="-48.0376" font-family="Helvetica,sans-Serif" font-size="10.00">117</text>
</a>
</g>
</g>
<!-- dir_1ef28ab5153adb64262182d038c65543&#45;&gt;dir_cb9eb13056a2ddaa90910192d09d40dd -->
<g id="edge6" class="edge"><title>dir_1ef28ab5153adb64262182d038c65543&#45;&gt;dir_cb9eb13056a2ddaa90910192d09d40dd</title>
<path fill="none" stroke="black" d="M133.242,-143.697C125.815,-135.474 117.621,-125.483 110.816,-116.421"/>
<polygon fill="black" stroke="black" points="113.491,-114.147 104.788,-108.104 107.823,-118.255 113.491,-114.147"/>
<g id="a_edge6&#45;headlabel"><a xlink:href="dir_000017_000021.html" target="_top" xlink:title="1">
<text text-anchor="middle" x="117.9" y="-112.891" font-family="Helvetica,sans-Serif" font-size="10.00">1</text>
</a>
</g>
</g>
<!-- dir_167f1b6f9e156d639715bac594b285a1&#45;&gt;dir_6939c8639261a9303da2cde491b82898 -->
<g id="edge8" class="edge"><title>dir_167f1b6f9e156d639715bac594b285a1&#45;&gt;dir_6939c8639261a9303da2cde491b82898</title>
<path fill="none" stroke="black" d="M175.024,-36.1769C195.715,-70.6158 227.295,-149.707 198,-207 195.791,-211.32 192.492,-215.088 188.639,-218.313"/>
<polygon fill="black" stroke="black" points="186.376,-215.622 180.124,-224.176 190.346,-221.388 186.376,-215.622"/>
<g id="a_edge8&#45;headlabel"><a xlink:href="dir_000005_000025.html" target="_top" xlink:title="17">
<text text-anchor="middle" x="187.727" y="-208.745" font-family="Helvetica,sans-Serif" font-size="10.00">17</text>
</a>
</g>
</g>
<!-- dir_167f1b6f9e156d639715bac594b285a1&#45;&gt;dir_1ef28ab5153adb64262182d038c65543 -->
<g id="edge9" class="edge"><title>dir_167f1b6f9e156d639715bac594b285a1&#45;&gt;dir_1ef28ab5153adb64262182d038c65543</title>
<path fill="none" stroke="black" d="M164.622,-36.1893C165.812,-60.4244 163.594,-104.888 159.993,-133.679"/>
<polygon fill="black" stroke="black" points="156.487,-133.479 158.549,-143.871 163.417,-134.461 156.487,-133.479"/>
<g id="a_edge9&#45;headlabel"><a xlink:href="dir_000005_000017.html" target="_top" xlink:title="6">
<text text-anchor="middle" x="154.179" y="-127.022" font-family="Helvetica,sans-Serif" font-size="10.00">6</text>
</a>
</g>
</g>
<!-- dir_cb9eb13056a2ddaa90910192d09d40dd&#45;&gt;dir_4f43bed77f871f0a9a7226f20fb741d9 -->
<g id="edge13" class="edge"><title>dir_cb9eb13056a2ddaa90910192d09d40dd&#45;&gt;dir_4f43bed77f871f0a9a7226f20fb741d9</title>
<path fill="none" stroke="black" d="M89.7003,-108.104C84.1254,-116.467 76.4383,-126.694 68.8507,-135.92"/>
<polygon fill="black" stroke="black" points="66.0562,-133.804 62.264,-143.697 71.3978,-138.328 66.0562,-133.804"/>
<g id="a_edge13&#45;headlabel"><a xlink:href="dir_000021_000023.html" target="_top" xlink:title="4">
<text text-anchor="middle" x="66.2128" y="-126.726" font-family="Helvetica,sans-Serif" font-size="10.00">4</text>
</a>
</g>
</g>
<!-- dir_cb9eb13056a2ddaa90910192d09d40dd&#45;&gt;dir_6939c8639261a9303da2cde491b82898 -->
<g id="edge10" class="edge"><title>dir_cb9eb13056a2ddaa90910192d09d40dd&#45;&gt;dir_6939c8639261a9303da2cde491b82898</title>
<path fill="none" stroke="black" d="M96.0742,-108.15C95.5933,-132.115 97.7385,-176.142 117,-207 117.592,-207.948 118.232,-208.873 118.914,-209.773"/>
<polygon fill="black" stroke="black" points="116.538,-212.353 125.956,-217.206 121.619,-207.54 116.538,-212.353"/>
<g id="a_edge10&#45;headlabel"><a xlink:href="dir_000021_000025.html" target="_top" xlink:title="7">
<text text-anchor="middle" x="112.004" y="-209.196" font-family="Helvetica,sans-Serif" font-size="10.00">7</text>
</a>
</g>
</g>
<!-- dir_cb9eb13056a2ddaa90910192d09d40dd&#45;&gt;dir_1ef28ab5153adb64262182d038c65543 -->
<g id="edge11" class="edge"><title>dir_cb9eb13056a2ddaa90910192d09d40dd&#45;&gt;dir_1ef28ab5153adb64262182d038c65543</title>
<path fill="none" stroke="black" d="M116.578,-108.104C123.992,-116.298 132.191,-126.282 139.018,-135.359"/>
<polygon fill="black" stroke="black" points="136.365,-137.662 145.073,-143.697 142.029,-133.549 136.365,-137.662"/>
<g id="a_edge11&#45;headlabel"><a xlink:href="dir_000021_000017.html" target="_top" xlink:title="6">
<text text-anchor="middle" x="131.955" y="-133.922" font-family="Helvetica,sans-Serif" font-size="10.00">6</text>
</a>
</g>
</g>
<!-- dir_cb9eb13056a2ddaa90910192d09d40dd&#45;&gt;dir_167f1b6f9e156d639715bac594b285a1 -->
<g id="edge12" class="edge"><title>dir_cb9eb13056a2ddaa90910192d09d40dd&#45;&gt;dir_167f1b6f9e156d639715bac594b285a1</title>
<path fill="none" stroke="black" d="M112.82,-71.6966C120.57,-63.2198 130.039,-52.8636 138.524,-43.5826"/>
<polygon fill="black" stroke="black" points="141.197,-45.8464 145.362,-36.1043 136.031,-41.1229 141.197,-45.8464"/>
<g id="a_edge12&#45;headlabel"><a xlink:href="dir_000021_000005.html" target="_top" xlink:title="9">
<text text-anchor="middle" x="140.867" y="-47.9151" font-family="Helvetica,sans-Serif" font-size="10.00">9</text>
</a>
</g>
</g>
</g>
</svg>
