<?xml version="1.0" encoding="UTF-8" standalone="no"?>
<!DOCTYPE svg PUBLIC "-//W3C//DTD SVG 1.1//EN"
 "http://www.w3.org/Graphics/SVG/1.1/DTD/svg11.dtd">
<!-- Generated by graphviz version 2.36.0 (20140111.2315)
 -->
<!-- Title: be/src/scheduling Pages: 1 -->
<svg width="282pt" height="332pt"
 viewBox="0.00 0.00 282.32 332.00" xmlns="http://www.w3.org/2000/svg" xmlns:xlink="http://www.w3.org/1999/xlink">
<g id="graph0" class="graph" transform="scale(1 1) rotate(0) translate(4 328)">
<title>be/src/scheduling</title>
<polygon fill="white" stroke="none" points="-4,4 -4,-328 278.323,-328 278.323,4 -4,4"/>
<g id="clust1" class="cluster"><title>clusterdir_68cf7cafb51a962d5bc4848b83cab0de</title>
<g id="a_clust1"><a xlink:href="dir_68cf7cafb51a962d5bc4848b83cab0de.html" target="_top" xlink:title="src">
<polygon fill="#ddddee" stroke="black" points="32.435,-208 32.435,-279 112.435,-279 112.435,-208 32.435,-208"/>
<text text-anchor="middle" x="72.435" y="-267" font-family="Helvetica,sans-Serif" font-size="10.00">src</text>
</a>
</g>
</g>
<!-- dir_8dc97c54e9997cb942e6afc932053efc -->
<g id="node1" class="node"><title>dir_8dc97c54e9997cb942e6afc932053efc</title>
<g id="a_node1"><a xlink:href="dir_8dc97c54e9997cb942e6afc932053efc.html" target="_top" xlink:title="scheduling">
<polygon fill="#eeeeff" stroke="black" points="103.685,-252 41.185,-252 41.185,-216 103.685,-216 103.685,-252"/>
<text text-anchor="middle" x="72.435" y="-231.5" font-family="Helvetica,sans-Serif" font-size="10.00">scheduling</text>
</a>
</g>
</g>
<!-- dir_6939c8639261a9303da2cde491b82898 -->
<g id="node2" class="node"><title>dir_6939c8639261a9303da2cde491b82898</title>
<g id="a_node2"><a xlink:href="dir_6939c8639261a9303da2cde491b82898.html" target="_top" xlink:title="util">
<polygon fill="none" stroke="black" points="168.435,-324 114.435,-324 114.435,-288 168.435,-288 168.435,-324"/>
<text text-anchor="middle" x="141.435" y="-303.5" font-family="Helvetica,sans-Serif" font-size="10.00">util</text>
</a>
</g>
</g>
<!-- dir_8dc97c54e9997cb942e6afc932053efc&#45;&gt;dir_6939c8639261a9303da2cde491b82898 -->
<g id="edge17" class="edge"><title>dir_8dc97c54e9997cb942e6afc932053efc&#45;&gt;dir_6939c8639261a9303da2cde491b82898</title>
<path fill="none" stroke="black" d="M89.295,-252.104C97.7047,-260.636 108.028,-271.108 117.263,-280.478"/>
<polygon fill="black" stroke="black" points="114.866,-283.032 124.379,-287.697 119.851,-278.118 114.866,-283.032"/>
<g id="a_edge17&#45;headlabel"><a xlink:href="dir_000018_000025.html" target="_top" xlink:title="9">
<text text-anchor="middle" x="110.321" y="-279.965" font-family="Helvetica,sans-Serif" font-size="10.00">9</text>
</a>
</g>
</g>
<!-- dir_1ef28ab5153adb64262182d038c65543 -->
<g id="node3" class="node"><title>dir_1ef28ab5153adb64262182d038c65543</title>
<g id="a_node3"><a xlink:href="dir_1ef28ab5153adb64262182d038c65543.html" target="_top" xlink:title="runtime">
<polygon fill="none" stroke="black" points="270.435,-252 216.435,-252 216.435,-216 270.435,-216 270.435,-252"/>
<text text-anchor="middle" x="243.435" y="-231.5" font-family="Helvetica,sans-Serif" font-size="10.00">runtime</text>
</a>
</g>
</g>
<!-- dir_8dc97c54e9997cb942e6afc932053efc&#45;&gt;dir_1ef28ab5153adb64262182d038c65543 -->
<g id="edge18" class="edge"><title>dir_8dc97c54e9997cb942e6afc932053efc&#45;&gt;dir_1ef28ab5153adb64262182d038c65543</title>
<path fill="none" stroke="black" d="M103.83,-234C137.911,-234 171.993,-234 206.075,-234"/>
<polygon fill="black" stroke="black" points="206.168,-237.5 216.168,-234 206.168,-230.5 206.168,-237.5"/>
<g id="a_edge18&#45;headlabel"><a xlink:href="dir_000018_000017.html" target="_top" xlink:title="2">
<text text-anchor="middle" x="202.574" y="-237.839" font-family="Helvetica,sans-Serif" font-size="10.00">2</text>
</a>
</g>
</g>
<!-- dir_aa61820f947c9a81fdd16b1964e72790 -->
<g id="node4" class="node"><title>dir_aa61820f947c9a81fdd16b1964e72790</title>
<g id="a_node4"><a xlink:href="dir_aa61820f947c9a81fdd16b1964e72790.html" target="_top" xlink:title="statestore">
<polygon fill="none" stroke="black" points="234.935,-180 175.935,-180 175.935,-144 234.935,-144 234.935,-180"/>
<text text-anchor="middle" x="205.435" y="-159.5" font-family="Helvetica,sans-Serif" font-size="10.00">statestore</text>
</a>
</g>
</g>
<!-- dir_8dc97c54e9997cb942e6afc932053efc&#45;&gt;dir_aa61820f947c9a81fdd16b1964e72790 -->
<g id="edge19" class="edge"><title>dir_8dc97c54e9997cb942e6afc932053efc&#45;&gt;dir_aa61820f947c9a81fdd16b1964e72790</title>
<path fill="none" stroke="black" d="M99.0734,-215.876C118.53,-205.039 145.057,-191.076 166.81,-180.22"/>
<polygon fill="black" stroke="black" points="168.39,-183.343 175.806,-175.776 165.29,-177.067 168.39,-183.343"/>
<g id="a_edge19&#45;headlabel"><a xlink:href="dir_000018_000020.html" target="_top" xlink:title="3">
<text text-anchor="middle" x="166.425" y="-184.981" font-family="Helvetica,sans-Serif" font-size="10.00">3</text>
</a>
</g>
</g>
<!-- dir_167f1b6f9e156d639715bac594b285a1 -->
<g id="node5" class="node"><title>dir_167f1b6f9e156d639715bac594b285a1</title>
<g id="a_node5"><a xlink:href="dir_167f1b6f9e156d639715bac594b285a1.html" target="_top" xlink:title="common">
<polygon fill="none" stroke="black" points="165.435,-36 111.435,-36 111.435,-0 165.435,-0 165.435,-36"/>
<text text-anchor="middle" x="138.435" y="-15.5" font-family="Helvetica,sans-Serif" font-size="10.00">common</text>
</a>
</g>
</g>
<!-- dir_8dc97c54e9997cb942e6afc932053efc&#45;&gt;dir_167f1b6f9e156d639715bac594b285a1 -->
<g id="edge20" class="edge"><title>dir_8dc97c54e9997cb942e6afc932053efc&#45;&gt;dir_167f1b6f9e156d639715bac594b285a1</title>
<path fill="none" stroke="black" d="M73.3213,-215.9C75.3777,-185.766 81.9827,-121.693 102.435,-72 106.394,-62.3808 112.264,-52.717 118.122,-44.3247"/>
<polygon fill="black" stroke="black" points="121.062,-46.2325 124.14,-36.0945 115.412,-42.1006 121.062,-46.2325"/>
<g id="a_edge20&#45;headlabel"><a xlink:href="dir_000018_000005.html" target="_top" xlink:title="6">
<text text-anchor="middle" x="121.233" y="-48.31" font-family="Helvetica,sans-Serif" font-size="10.00">6</text>
</a>
</g>
</g>
<!-- dir_b9719966f7def2b41d08ece41ef136d6 -->
<g id="node6" class="node"><title>dir_b9719966f7def2b41d08ece41ef136d6</title>
<g id="a_node6"><a xlink:href="dir_b9719966f7def2b41d08ece41ef136d6.html" target="_top" xlink:title="rpc">
<polygon fill="none" stroke="black" points="165.435,-108 111.435,-108 111.435,-72 165.435,-72 165.435,-108"/>
<text text-anchor="middle" x="138.435" y="-87.5" font-family="Helvetica,sans-Serif" font-size="10.00">rpc</text>
</a>
</g>
</g>
<!-- dir_8dc97c54e9997cb942e6afc932053efc&#45;&gt;dir_b9719966f7def2b41d08ece41ef136d6 -->
<g id="edge21" class="edge"><title>dir_8dc97c54e9997cb942e6afc932053efc&#45;&gt;dir_b9719966f7def2b41d08ece41ef136d6</title>
<path fill="none" stroke="black" d="M80.3961,-215.871C91.7933,-191.35 112.857,-146.032 126.23,-117.259"/>
<polygon fill="black" stroke="black" points="129.405,-118.733 130.446,-108.189 123.057,-115.782 129.405,-118.733"/>
<g id="a_edge21&#45;headlabel"><a xlink:href="dir_000018_000016.html" target="_top" xlink:title="1">
<text text-anchor="middle" x="130.464" y="-120.689" font-family="Helvetica,sans-Serif" font-size="10.00">1</text>
</a>
</g>
</g>
<!-- dir_6939c8639261a9303da2cde491b82898&#45;&gt;dir_1ef28ab5153adb64262182d038c65543 -->
<g id="edge1" class="edge"><title>dir_6939c8639261a9303da2cde491b82898&#45;&gt;dir_1ef28ab5153adb64262182d038c65543</title>
<path fill="none" stroke="black" d="M168.563,-292.67C176.892,-288.925 185.802,-284.356 193.435,-279 201.218,-273.539 208.652,-266.396 215.406,-259.458"/>
<polygon fill="black" stroke="black" points="218.063,-261.743 222.451,-252.1 213.007,-256.902 218.063,-261.743"/>
<g id="a_edge1&#45;headlabel"><a xlink:href="dir_000025_000017.html" target="_top" xlink:title="37">
<text text-anchor="middle" x="217.628" y="-263.803" font-family="Helvetica,sans-Serif" font-size="10.00">37</text>
</a>
</g>
</g>
<!-- dir_6939c8639261a9303da2cde491b82898&#45;&gt;dir_167f1b6f9e156d639715bac594b285a1 -->
<g id="edge2" class="edge"><title>dir_6939c8639261a9303da2cde491b82898&#45;&gt;dir_167f1b6f9e156d639715bac594b285a1</title>
<path fill="none" stroke="black" d="M114.311,-303.209C81.7156,-300.231 30.6874,-293.135 19.435,-279 -40.2313,-204.046 55.3464,-91.975 107.89,-43.1649"/>
<polygon fill="black" stroke="black" points="110.557,-45.4712 115.615,-36.1616 105.855,-40.2852 110.557,-45.4712"/>
<g id="a_edge2&#45;headlabel"><a xlink:href="dir_000025_000005.html" target="_top" xlink:title="136">
<text text-anchor="middle" x="109.801" y="-47.4891" font-family="Helvetica,sans-Serif" font-size="10.00">136</text>
</a>
</g>
</g>
<!-- dir_6939c8639261a9303da2cde491b82898&#45;&gt;dir_b9719966f7def2b41d08ece41ef136d6 -->
<g id="edge3" class="edge"><title>dir_6939c8639261a9303da2cde491b82898&#45;&gt;dir_b9719966f7def2b41d08ece41ef136d6</title>
<path fill="none" stroke="black" d="M137.317,-287.849C133.262,-250.832 131.762,-163.181 134.127,-118.386"/>
<polygon fill="black" stroke="black" points="137.631,-118.44 134.791,-108.232 130.646,-117.983 137.631,-118.44"/>
<g id="a_edge3&#45;headlabel"><a xlink:href="dir_000025_000016.html" target="_top" xlink:title="7">
<text text-anchor="middle" x="140.229" y="-119.712" font-family="Helvetica,sans-Serif" font-size="10.00">7</text>
</a>
</g>
</g>
<!-- dir_1ef28ab5153adb64262182d038c65543&#45;&gt;dir_8dc97c54e9997cb942e6afc932053efc -->
<g id="edge7" class="edge"><title>dir_1ef28ab5153adb64262182d038c65543&#45;&gt;dir_8dc97c54e9997cb942e6afc932053efc</title>
<path fill="none" stroke="black" d="M216.168,-234C182.086,-234 148.004,-234 113.922,-234"/>
<polygon fill="black" stroke="black" points="113.83,-230.5 103.83,-234 113.829,-237.5 113.83,-230.5"/>
<g id="a_edge7&#45;headlabel"><a xlink:href="dir_000017_000018.html" target="_top" xlink:title="1">
<text text-anchor="middle" x="117.424" y="-225.161" font-family="Helvetica,sans-Serif" font-size="10.00">1</text>
</a>
</g>
</g>
<!-- dir_1ef28ab5153adb64262182d038c65543&#45;&gt;dir_6939c8639261a9303da2cde491b82898 -->
<g id="edge4" class="edge"><title>dir_1ef28ab5153adb64262182d038c65543&#45;&gt;dir_6939c8639261a9303da2cde491b82898</title>
<path fill="none" stroke="black" d="M238.405,-252.1C231.984,-261.008 222.034,-271.564 211.435,-279 201.595,-285.904 189.634,-291.501 178.309,-295.709"/>
<polygon fill="black" stroke="black" points="176.91,-292.489 168.589,-299.048 179.184,-299.109 176.91,-292.489"/>
<g id="a_edge4&#45;headlabel"><a xlink:href="dir_000017_000025.html" target="_top" xlink:title="147">
<text text-anchor="middle" x="179.387" y="-286.136" font-family="Helvetica,sans-Serif" font-size="10.00">147</text>
</a>
</g>
</g>
<!-- dir_1ef28ab5153adb64262182d038c65543&#45;&gt;dir_aa61820f947c9a81fdd16b1964e72790 -->
<g id="edge5" class="edge"><title>dir_1ef28ab5153adb64262182d038c65543&#45;&gt;dir_aa61820f947c9a81fdd16b1964e72790</title>
<path fill="none" stroke="black" d="M228.126,-215.697C222.978,-207.728 217.537,-198.1 213.133,-189.264"/>
<polygon fill="black" stroke="black" points="216.248,-187.664 208.825,-180.104 209.914,-190.643 216.248,-187.664"/>
<g id="a_edge5&#45;headlabel"><a xlink:href="dir_000017_000020.html" target="_top" xlink:title="6">
<text text-anchor="middle" x="220.347" y="-187.208" font-family="Helvetica,sans-Serif" font-size="10.00">6</text>
</a>
</g>
</g>
<!-- dir_1ef28ab5153adb64262182d038c65543&#45;&gt;dir_167f1b6f9e156d639715bac594b285a1 -->
<g id="edge6" class="edge"><title>dir_1ef28ab5153adb64262182d038c65543&#45;&gt;dir_167f1b6f9e156d639715bac594b285a1</title>
<path fill="none" stroke="black" d="M245.811,-215.792C251.84,-197.507 261.659,-167.983 252.435,-144 235.723,-100.549 195.094,-64.4096 166.999,-42.3485"/>
<polygon fill="black" stroke="black" points="169.134,-39.5753 159.08,-36.2334 164.855,-45.1157 169.134,-39.5753"/>
<g id="a_edge6&#45;headlabel"><a xlink:href="dir_000017_000005.html" target="_top" xlink:title="117">
<text text-anchor="middle" x="173.714" y="-37.0251" font-family="Helvetica,sans-Serif" font-size="10.00">117</text>
</a>
</g>
</g>
<!-- dir_1ef28ab5153adb64262182d038c65543&#45;&gt;dir_b9719966f7def2b41d08ece41ef136d6 -->
<g id="edge8" class="edge"><title>dir_1ef28ab5153adb64262182d038c65543&#45;&gt;dir_b9719966f7def2b41d08ece41ef136d6</title>
<path fill="none" stroke="black" d="M248.42,-215.834C252.887,-196.781 256.878,-165.844 243.435,-144 228.733,-120.11 199.574,-106.598 175.707,-99.2047"/>
<polygon fill="black" stroke="black" points="176.436,-95.7733 165.86,-96.3986 174.518,-102.505 176.436,-95.7733"/>
<g id="a_edge8&#45;headlabel"><a xlink:href="dir_000017_000016.html" target="_top" xlink:title="7">
<text text-anchor="middle" x="180.671" y="-91.5278" font-family="Helvetica,sans-Serif" font-size="10.00">7</text>
</a>
</g>
</g>
<!-- dir_aa61820f947c9a81fdd16b1964e72790&#45;&gt;dir_8dc97c54e9997cb942e6afc932053efc -->
<g id="edge12" class="edge"><title>dir_aa61820f947c9a81fdd16b1964e72790&#45;&gt;dir_8dc97c54e9997cb942e6afc932053efc</title>
<path fill="none" stroke="black" d="M178.841,-180.099C159.971,-190.611 134.437,-204.069 113.058,-214.781"/>
<polygon fill="black" stroke="black" points="111.278,-211.757 103.875,-219.337 114.389,-218.028 111.278,-211.757"/>
<g id="a_edge12&#45;headlabel"><a xlink:href="dir_000020_000018.html" target="_top" xlink:title="1">
<text text-anchor="middle" x="113.236" y="-205.116" font-family="Helvetica,sans-Serif" font-size="10.00">1</text>
</a>
</g>
</g>
<!-- dir_aa61820f947c9a81fdd16b1964e72790&#45;&gt;dir_6939c8639261a9303da2cde491b82898 -->
<g id="edge9" class="edge"><title>dir_aa61820f947c9a81fdd16b1964e72790&#45;&gt;dir_6939c8639261a9303da2cde491b82898</title>
<path fill="none" stroke="black" d="M201.61,-180.014C195.871,-203.438 183.613,-246.418 164.435,-279 164.324,-279.188 164.212,-279.376 164.098,-279.564"/>
<polygon fill="black" stroke="black" points="161.183,-277.625 158.246,-287.805 166.89,-281.678 161.183,-277.625"/>
<g id="a_edge9&#45;headlabel"><a xlink:href="dir_000020_000025.html" target="_top" xlink:title="48">
<text text-anchor="middle" x="160.949" y="-270.551" font-family="Helvetica,sans-Serif" font-size="10.00">48</text>
</a>
</g>
</g>
<!-- dir_aa61820f947c9a81fdd16b1964e72790&#45;&gt;dir_1ef28ab5153adb64262182d038c65543 -->
<g id="edge10" class="edge"><title>dir_aa61820f947c9a81fdd16b1964e72790&#45;&gt;dir_1ef28ab5153adb64262182d038c65543</title>
<path fill="none" stroke="black" d="M220.615,-180.104C225.758,-188.045 231.206,-197.666 235.626,-206.515"/>
<polygon fill="black" stroke="black" points="232.526,-208.145 239.957,-215.697 238.857,-205.159 232.526,-208.145"/>
<g id="a_edge10&#45;headlabel"><a xlink:href="dir_000020_000017.html" target="_top" xlink:title="6">
<text text-anchor="middle" x="228.424" y="-203.606" font-family="Helvetica,sans-Serif" font-size="10.00">6</text>
</a>
</g>
</g>
<!-- dir_aa61820f947c9a81fdd16b1964e72790&#45;&gt;dir_167f1b6f9e156d639715bac594b285a1 -->
<g id="edge11" class="edge"><title>dir_aa61820f947c9a81fdd16b1964e72790&#45;&gt;dir_167f1b6f9e156d639715bac594b285a1</title>
<path fill="none" stroke="black" d="M200.878,-143.731C195.708,-125.393 186.416,-95.8271 174.435,-72 169.762,-62.7067 163.699,-53.1307 157.885,-44.7185"/>
<polygon fill="black" stroke="black" points="160.638,-42.5495 151.986,-36.4342 154.936,-46.6101 160.638,-42.5495"/>
<g id="a_edge11&#45;headlabel"><a xlink:href="dir_000020_000005.html" target="_top" xlink:title="27">
<text text-anchor="middle" x="165.036" y="-41.3306" font-family="Helvetica,sans-Serif" font-size="10.00">27</text>
</a>
</g>
</g>
<!-- dir_aa61820f947c9a81fdd16b1964e72790&#45;&gt;dir_b9719966f7def2b41d08ece41ef136d6 -->
<g id="edge13" class="edge"><title>dir_aa61820f947c9a81fdd16b1964e72790&#45;&gt;dir_b9719966f7def2b41d08ece41ef136d6</title>
<path fill="none" stroke="black" d="M188.873,-143.697C180.76,-135.22 170.847,-124.864 161.964,-115.583"/>
<polygon fill="black" stroke="black" points="164.249,-112.908 154.806,-108.104 159.192,-117.749 164.249,-112.908"/>
<g id="a_edge13&#45;headlabel"><a xlink:href="dir_000020_000016.html" target="_top" xlink:title="7">
<text text-anchor="middle" x="168.786" y="-111.042" font-family="Helvetica,sans-Serif" font-size="10.00">7</text>
</a>
</g>
</g>
<!-- dir_167f1b6f9e156d639715bac594b285a1&#45;&gt;dir_6939c8639261a9303da2cde491b82898 -->
<g id="edge14" class="edge"><title>dir_167f1b6f9e156d639715bac594b285a1&#45;&gt;dir_6939c8639261a9303da2cde491b82898</title>
<path fill="none" stroke="black" d="M124.304,-36.1616C83.5684,-80.3709 -25.2943,-200.198 37.435,-279 46.0405,-289.81 77.9103,-296.503 104.232,-300.386"/>
<polygon fill="black" stroke="black" points="103.967,-303.883 114.353,-301.787 104.927,-296.949 103.967,-303.883"/>
<g id="a_edge14&#45;headlabel"><a xlink:href="dir_000005_000025.html" target="_top" xlink:title="17">
<text text-anchor="middle" x="100.017" y="-303.702" font-family="Helvetica,sans-Serif" font-size="10.00">17</text>
</a>
</g>
</g>
<!-- dir_167f1b6f9e156d639715bac594b285a1&#45;&gt;dir_1ef28ab5153adb64262182d038c65543 -->
<g id="edge15" class="edge"><title>dir_167f1b6f9e156d639715bac594b285a1&#45;&gt;dir_1ef28ab5153adb64262182d038c65543</title>
<path fill="none" stroke="black" d="M165.463,-32.151C198.238,-52.0597 250.817,-92.9924 270.435,-144 278.218,-164.236 272.443,-188.416 264.036,-206.462"/>
<polygon fill="black" stroke="black" points="260.69,-205.308 259.164,-215.792 266.896,-208.548 260.69,-205.308"/>
<g id="a_edge15&#45;headlabel"><a xlink:href="dir_000005_000017.html" target="_top" xlink:title="6">
<text text-anchor="middle" x="259.837" y="-198.307" font-family="Helvetica,sans-Serif" font-size="10.00">6</text>
</a>
</g>
</g>
<!-- dir_167f1b6f9e156d639715bac594b285a1&#45;&gt;dir_b9719966f7def2b41d08ece41ef136d6 -->
<g id="edge16" class="edge"><title>dir_167f1b6f9e156d639715bac594b285a1&#45;&gt;dir_b9719966f7def2b41d08ece41ef136d6</title>
<path fill="none" stroke="black" d="M144.33,-36.1043C145.136,-43.7913 145.372,-53.0537 145.039,-61.6651"/>
<polygon fill="black" stroke="black" points="141.544,-61.4805 144.351,-71.6966 148.527,-61.9597 141.544,-61.4805"/>
<g id="a_edge16&#45;headlabel"><a xlink:href="dir_000005_000016.html" target="_top" xlink:title="2">
<text text-anchor="middle" x="138.957" y="-55.2" font-family="Helvetica,sans-Serif" font-size="10.00">2</text>
</a>
</g>
</g>
<!-- dir_b9719966f7def2b41d08ece41ef136d6&#45;&gt;dir_6939c8639261a9303da2cde491b82898 -->
<g id="edge22" class="edge"><title>dir_b9719966f7def2b41d08ece41ef136d6&#45;&gt;dir_6939c8639261a9303da2cde491b82898</title>
<path fill="none" stroke="black" d="M142.562,-108.232C146.613,-145.324 148.108,-232.981 145.738,-277.712"/>
<polygon fill="black" stroke="black" points="142.235,-277.641 145.072,-287.849 149.22,-278.1 142.235,-277.641"/>
<g id="a_edge22&#45;headlabel"><a xlink:href="dir_000016_000025.html" target="_top" xlink:title="27">
<text text-anchor="middle" x="139.638" y="-271.368" font-family="Helvetica,sans-Serif" font-size="10.00">27</text>
</a>
</g>
</g>
<!-- dir_b9719966f7def2b41d08ece41ef136d6&#45;&gt;dir_167f1b6f9e156d639715bac594b285a1 -->
<g id="edge23" class="edge"><title>dir_b9719966f7def2b41d08ece41ef136d6&#45;&gt;dir_167f1b6f9e156d639715bac594b285a1</title>
<path fill="none" stroke="black" d="M132.519,-71.6966C131.724,-63.9827 131.497,-54.7125 131.84,-46.1124"/>
<polygon fill="black" stroke="black" points="135.333,-46.3243 132.54,-36.1043 128.35,-45.8356 135.333,-46.3243"/>
<g id="a_edge23&#45;headlabel"><a xlink:href="dir_000016_000005.html" target="_top" xlink:title="19">
<text text-anchor="middle" x="137.915" y="-47.6083" font-family="Helvetica,sans-Serif" font-size="10.00">19</text>
</a>
</g>
</g>
</g>
</svg>
