<?xml version="1.0" encoding="UTF-8" standalone="no"?>
<!DOCTYPE svg PUBLIC "-//W3C//DTD SVG 1.1//EN"
 "http://www.w3.org/Graphics/SVG/1.1/DTD/svg11.dtd">
<!-- Generated by graphviz version 2.36.0 (20140111.2315)
 -->
<!-- Title: be/src/transport Pages: 1 -->
<svg width="96pt" height="151pt"
 viewBox="0.00 0.00 96.00 151.00" xmlns="http://www.w3.org/2000/svg" xmlns:xlink="http://www.w3.org/1999/xlink">
<g id="graph0" class="graph" transform="scale(1 1) rotate(0) translate(4 147)">
<title>be/src/transport</title>
<polygon fill="white" stroke="none" points="-4,4 -4,-147 92,-147 92,4 -4,4"/>
<g id="clust1" class="cluster"><title>clusterdir_68cf7cafb51a962d5bc4848b83cab0de</title>
<g id="a_clust1"><a xlink:href="dir_68cf7cafb51a962d5bc4848b83cab0de.html" target="_top" xlink:title="src">
<polygon fill="#ddddee" stroke="black" points="8,-64 8,-135 80,-135 80,-64 8,-64"/>
<text text-anchor="middle" x="44" y="-123" font-family="Helvetica,sans-Serif" font-size="10.00">src</text>
</a>
</g>
</g>
<!-- dir_a875cbc101bd0d88a64c2a79b7d05dcb -->
<g id="node1" class="node"><title>dir_a875cbc101bd0d88a64c2a79b7d05dcb</title>
<g id="a_node1"><a xlink:href="dir_a875cbc101bd0d88a64c2a79b7d05dcb.html" target="_top" xlink:title="transport">
<polygon fill="#eeeeff" stroke="black" points="71.25,-108 16.75,-108 16.75,-72 71.25,-72 71.25,-108"/>
<text text-anchor="middle" x="44" y="-87.5" font-family="Helvetica,sans-Serif" font-size="10.00">transport</text>
</a>
</g>
</g>
<!-- dir_167f1b6f9e156d639715bac594b285a1 -->
<g id="node2" class="node"><title>dir_167f1b6f9e156d639715bac594b285a1</title>
<g id="a_node2"><a xlink:href="dir_167f1b6f9e156d639715bac594b285a1.html" target="_top" xlink:title="common">
<polygon fill="none" stroke="black" points="71,-36 17,-36 17,-0 71,-0 71,-36"/>
<text text-anchor="middle" x="44" y="-15.5" font-family="Helvetica,sans-Serif" font-size="10.00">common</text>
</a>
</g>
</g>
<!-- dir_a875cbc101bd0d88a64c2a79b7d05dcb&#45;&gt;dir_167f1b6f9e156d639715bac594b285a1 -->
<g id="edge1" class="edge"><title>dir_a875cbc101bd0d88a64c2a79b7d05dcb&#45;&gt;dir_167f1b6f9e156d639715bac594b285a1</title>
<path fill="none" stroke="black" d="M44,-71.6966C44,-63.9827 44,-54.7125 44,-46.1124"/>
<polygon fill="black" stroke="black" points="47.5001,-46.1043 44,-36.1043 40.5001,-46.1044 47.5001,-46.1043"/>
<g id="a_edge1&#45;headlabel"><a xlink:href="dir_000022_000005.html" target="_top" xlink:title="3">
<text text-anchor="middle" x="50.3393" y="-47.199" font-family="Helvetica,sans-Serif" font-size="10.00">3</text>
</a>
</g>
</g>
</g>
</svg>
