<?xml version="1.0" encoding="UTF-8" standalone="no"?>
<!DOCTYPE svg PUBLIC "-//W3C//DTD SVG 1.1//EN"
 "http://www.w3.org/Graphics/SVG/1.1/DTD/svg11.dtd">
<!-- Generated by graphviz version 2.36.0 (20140111.2315)
 -->
<!-- Title: be/src/rpc Pages: 1 -->
<svg width="253pt" height="260pt"
 viewBox="0.00 0.00 253.18 260.00" xmlns="http://www.w3.org/2000/svg" xmlns:xlink="http://www.w3.org/1999/xlink">
<g id="graph0" class="graph" transform="scale(1 1) rotate(0) translate(4 256)">
<title>be/src/rpc</title>
<polygon fill="white" stroke="none" points="-4,4 -4,-256 249.185,-256 249.185,4 -4,4"/>
<g id="clust1" class="cluster"><title>clusterdir_68cf7cafb51a962d5bc4848b83cab0de</title>
<g id="a_clust1"><a xlink:href="dir_68cf7cafb51a962d5bc4848b83cab0de.html" target="_top" xlink:title="src">
<polygon fill="#ddddee" stroke="black" points="47.3429,-136 47.3429,-207 117.343,-207 117.343,-136 47.3429,-136"/>
<text text-anchor="middle" x="82.3429" y="-195" font-family="Helvetica,sans-Serif" font-size="10.00">src</text>
</a>
</g>
</g>
<!-- dir_b9719966f7def2b41d08ece41ef136d6 -->
<g id="node1" class="node"><title>dir_b9719966f7def2b41d08ece41ef136d6</title>
<g id="a_node1"><a xlink:href="dir_b9719966f7def2b41d08ece41ef136d6.html" target="_top" xlink:title="rpc">
<polygon fill="#eeeeff" stroke="black" points="109.343,-180 55.3429,-180 55.3429,-144 109.343,-144 109.343,-180"/>
<text text-anchor="middle" x="82.3429" y="-159.5" font-family="Helvetica,sans-Serif" font-size="10.00">rpc</text>
</a>
</g>
</g>
<!-- dir_6939c8639261a9303da2cde491b82898 -->
<g id="node2" class="node"><title>dir_6939c8639261a9303da2cde491b82898</title>
<g id="a_node2"><a xlink:href="dir_6939c8639261a9303da2cde491b82898.html" target="_top" xlink:title="util">
<polygon fill="none" stroke="black" points="219.343,-252 165.343,-252 165.343,-216 219.343,-216 219.343,-252"/>
<text text-anchor="middle" x="192.343" y="-231.5" font-family="Helvetica,sans-Serif" font-size="10.00">util</text>
</a>
</g>
</g>
<!-- dir_b9719966f7def2b41d08ece41ef136d6&#45;&gt;dir_6939c8639261a9303da2cde491b82898 -->
<g id="edge11" class="edge"><title>dir_b9719966f7def2b41d08ece41ef136d6&#45;&gt;dir_6939c8639261a9303da2cde491b82898</title>
<path fill="none" stroke="black" d="M87.2484,-180.281C93.6328,-189.243 103.588,-199.791 114.343,-207 126.579,-215.202 141.756,-221.284 155.575,-225.494"/>
<polygon fill="black" stroke="black" points="154.763,-228.901 165.336,-228.232 156.654,-222.161 154.763,-228.901"/>
<g id="a_edge11&#45;headlabel"><a xlink:href="dir_000016_000025.html" target="_top" xlink:title="27">
<text text-anchor="middle" x="150.535" y="-228.164" font-family="Helvetica,sans-Serif" font-size="10.00">27</text>
</a>
</g>
</g>
<!-- dir_167f1b6f9e156d639715bac594b285a1 -->
<g id="node3" class="node"><title>dir_167f1b6f9e156d639715bac594b285a1</title>
<g id="a_node3"><a xlink:href="dir_167f1b6f9e156d639715bac594b285a1.html" target="_top" xlink:title="common">
<polygon fill="none" stroke="black" points="181.343,-36 127.343,-36 127.343,-0 181.343,-0 181.343,-36"/>
<text text-anchor="middle" x="154.343" y="-15.5" font-family="Helvetica,sans-Serif" font-size="10.00">common</text>
</a>
</g>
</g>
<!-- dir_b9719966f7def2b41d08ece41ef136d6&#45;&gt;dir_167f1b6f9e156d639715bac594b285a1 -->
<g id="edge12" class="edge"><title>dir_b9719966f7def2b41d08ece41ef136d6&#45;&gt;dir_167f1b6f9e156d639715bac594b285a1</title>
<path fill="none" stroke="black" d="M55.3323,-150.143C37.8943,-141.544 16.6118,-127.681 6.34286,-108 -1.05865,-93.8149 -2.86832,-85.0826 6.34286,-72 31.1901,-36.7095 81.8159,-24.7948 116.89,-20.8424"/>
<polygon fill="black" stroke="black" points="117.608,-24.2898 127.23,-19.8544 116.942,-17.3216 117.608,-24.2898"/>
<g id="a_edge12&#45;headlabel"><a xlink:href="dir_000016_000005.html" target="_top" xlink:title="19">
<text text-anchor="middle" x="114.3" y="-24.9581" font-family="Helvetica,sans-Serif" font-size="10.00">19</text>
</a>
</g>
</g>
<!-- dir_a875cbc101bd0d88a64c2a79b7d05dcb -->
<g id="node4" class="node"><title>dir_a875cbc101bd0d88a64c2a79b7d05dcb</title>
<g id="a_node4"><a xlink:href="dir_a875cbc101bd0d88a64c2a79b7d05dcb.html" target="_top" xlink:title="transport">
<polygon fill="none" stroke="black" points="70.5929,-108 16.0929,-108 16.0929,-72 70.5929,-72 70.5929,-108"/>
<text text-anchor="middle" x="43.3429" y="-87.5" font-family="Helvetica,sans-Serif" font-size="10.00">transport</text>
</a>
</g>
</g>
<!-- dir_b9719966f7def2b41d08ece41ef136d6&#45;&gt;dir_a875cbc101bd0d88a64c2a79b7d05dcb -->
<g id="edge13" class="edge"><title>dir_b9719966f7def2b41d08ece41ef136d6&#45;&gt;dir_a875cbc101bd0d88a64c2a79b7d05dcb</title>
<path fill="none" stroke="black" d="M72.7024,-143.697C68.2157,-135.644 62.7841,-125.894 57.8188,-116.982"/>
<polygon fill="black" stroke="black" points="60.797,-115.137 52.8724,-108.104 54.682,-118.544 60.797,-115.137"/>
<g id="a_edge13&#45;headlabel"><a xlink:href="dir_000016_000022.html" target="_top" xlink:title="7">
<text text-anchor="middle" x="65.0267" y="-114.395" font-family="Helvetica,sans-Serif" font-size="10.00">7</text>
</a>
</g>
</g>
<!-- dir_cb9eb13056a2ddaa90910192d09d40dd -->
<g id="node5" class="node"><title>dir_cb9eb13056a2ddaa90910192d09d40dd</title>
<g id="a_node5"><a xlink:href="dir_cb9eb13056a2ddaa90910192d09d40dd.html" target="_top" xlink:title="testutil">
<polygon fill="none" stroke="black" points="181.343,-108 127.343,-108 127.343,-72 181.343,-72 181.343,-108"/>
<text text-anchor="middle" x="154.343" y="-87.5" font-family="Helvetica,sans-Serif" font-size="10.00">testutil</text>
</a>
</g>
</g>
<!-- dir_b9719966f7def2b41d08ece41ef136d6&#45;&gt;dir_cb9eb13056a2ddaa90910192d09d40dd -->
<g id="edge14" class="edge"><title>dir_b9719966f7def2b41d08ece41ef136d6&#45;&gt;dir_cb9eb13056a2ddaa90910192d09d40dd</title>
<path fill="none" stroke="black" d="M94.2249,-143.697C102.226,-135.05 112.954,-124.449 123.183,-115.027"/>
<polygon fill="black" stroke="black" points="125.775,-117.402 130.855,-108.104 121.086,-112.205 125.775,-117.402"/>
<g id="a_edge14&#45;headlabel"><a xlink:href="dir_000016_000021.html" target="_top" xlink:title="1">
<text text-anchor="middle" x="125.009" y="-119.418" font-family="Helvetica,sans-Serif" font-size="10.00">1</text>
</a>
</g>
</g>
<!-- dir_bddf2c3ed66b76bda660af468dceb320 -->
<g id="node6" class="node"><title>dir_bddf2c3ed66b76bda660af468dceb320</title>
<g id="a_node6"><a xlink:href="dir_bddf2c3ed66b76bda660af468dceb320.html" target="_top" xlink:title="service">
<polygon fill="none" stroke="black" points="219.343,-180 165.343,-180 165.343,-144 219.343,-144 219.343,-180"/>
<text text-anchor="middle" x="192.343" y="-159.5" font-family="Helvetica,sans-Serif" font-size="10.00">service</text>
</a>
</g>
</g>
<!-- dir_b9719966f7def2b41d08ece41ef136d6&#45;&gt;dir_bddf2c3ed66b76bda660af468dceb320 -->
<g id="edge15" class="edge"><title>dir_b9719966f7def2b41d08ece41ef136d6&#45;&gt;dir_bddf2c3ed66b76bda660af468dceb320</title>
<path fill="none" stroke="black" d="M109.413,-162C124.649,-162 139.884,-162 155.12,-162"/>
<polygon fill="black" stroke="black" points="155.132,-165.5 165.132,-162 155.132,-158.5 155.132,-165.5"/>
<g id="a_edge15&#45;headlabel"><a xlink:href="dir_000016_000019.html" target="_top" xlink:title="2">
<text text-anchor="middle" x="151.537" y="-165.839" font-family="Helvetica,sans-Serif" font-size="10.00">2</text>
</a>
</g>
</g>
<!-- dir_6939c8639261a9303da2cde491b82898&#45;&gt;dir_b9719966f7def2b41d08ece41ef136d6 -->
<g id="edge2" class="edge"><title>dir_6939c8639261a9303da2cde491b82898&#45;&gt;dir_b9719966f7def2b41d08ece41ef136d6</title>
<path fill="none" stroke="black" d="M165.323,-223.119C154.551,-219.098 142.445,-213.771 132.343,-207 124.445,-201.706 116.978,-194.611 110.23,-187.666"/>
<polygon fill="black" stroke="black" points="112.632,-185.113 103.203,-180.281 107.561,-189.938 112.632,-185.113"/>
<g id="a_edge2&#45;headlabel"><a xlink:href="dir_000025_000016.html" target="_top" xlink:title="7">
<text text-anchor="middle" x="117.166" y="-183.26" font-family="Helvetica,sans-Serif" font-size="10.00">7</text>
</a>
</g>
</g>
<!-- dir_6939c8639261a9303da2cde491b82898&#45;&gt;dir_167f1b6f9e156d639715bac594b285a1 -->
<g id="edge1" class="edge"><title>dir_6939c8639261a9303da2cde491b82898&#45;&gt;dir_167f1b6f9e156d639715bac594b285a1</title>
<path fill="none" stroke="black" d="M212.743,-215.925C215.34,-213.268 217.658,-210.295 219.343,-207 233.709,-178.904 224.324,-167.16 219.343,-136 214.617,-106.439 214.022,-97.5024 198.343,-72 191.977,-61.6456 183.201,-51.7914 175.058,-43.4508"/>
<polygon fill="black" stroke="black" points="177.393,-40.8366 167.845,-36.2457 172.446,-45.7891 177.393,-40.8366"/>
<g id="a_edge1&#45;headlabel"><a xlink:href="dir_000025_000005.html" target="_top" xlink:title="136">
<text text-anchor="middle" x="181.943" y="-38.8682" font-family="Helvetica,sans-Serif" font-size="10.00">136</text>
</a>
</g>
</g>
<!-- dir_6939c8639261a9303da2cde491b82898&#45;&gt;dir_bddf2c3ed66b76bda660af468dceb320 -->
<g id="edge3" class="edge"><title>dir_6939c8639261a9303da2cde491b82898&#45;&gt;dir_bddf2c3ed66b76bda660af468dceb320</title>
<path fill="none" stroke="black" d="M186.427,-215.697C185.631,-207.983 185.405,-198.712 185.748,-190.112"/>
<polygon fill="black" stroke="black" points="189.241,-190.324 186.448,-180.104 182.258,-189.836 189.241,-190.324"/>
<g id="a_edge3&#45;headlabel"><a xlink:href="dir_000025_000019.html" target="_top" xlink:title="1">
<text text-anchor="middle" x="191.823" y="-191.608" font-family="Helvetica,sans-Serif" font-size="10.00">1</text>
</a>
</g>
</g>
<!-- dir_167f1b6f9e156d639715bac594b285a1&#45;&gt;dir_b9719966f7def2b41d08ece41ef136d6 -->
<g id="edge5" class="edge"><title>dir_167f1b6f9e156d639715bac594b285a1&#45;&gt;dir_b9719966f7def2b41d08ece41ef136d6</title>
<path fill="none" stroke="black" d="M141.373,-36.0807C134.05,-46.191 125.05,-59.441 118.343,-72 107.594,-92.1266 98.0468,-116.178 91.4896,-134.201"/>
<polygon fill="black" stroke="black" points="88.1342,-133.19 88.0769,-143.785 94.7286,-135.539 88.1342,-133.19"/>
<g id="a_edge5&#45;headlabel"><a xlink:href="dir_000005_000016.html" target="_top" xlink:title="2">
<text text-anchor="middle" x="86.6652" y="-126.352" font-family="Helvetica,sans-Serif" font-size="10.00">2</text>
</a>
</g>
</g>
<!-- dir_167f1b6f9e156d639715bac594b285a1&#45;&gt;dir_6939c8639261a9303da2cde491b82898 -->
<g id="edge4" class="edge"><title>dir_167f1b6f9e156d639715bac594b285a1&#45;&gt;dir_6939c8639261a9303da2cde491b82898</title>
<path fill="none" stroke="black" d="M181.604,-34.4059C193.954,-44.147 207.483,-57.5891 216.343,-72 232.022,-97.5024 232.617,-106.439 237.343,-136 242.324,-167.16 251.709,-178.904 237.343,-207 235.134,-211.32 231.835,-215.088 227.982,-218.313"/>
<polygon fill="black" stroke="black" points="225.719,-215.622 219.467,-224.176 229.688,-221.388 225.719,-215.622"/>
<g id="a_edge4&#45;headlabel"><a xlink:href="dir_000005_000025.html" target="_top" xlink:title="17">
<text text-anchor="middle" x="227.07" y="-208.745" font-family="Helvetica,sans-Serif" font-size="10.00">17</text>
</a>
</g>
</g>
<!-- dir_a875cbc101bd0d88a64c2a79b7d05dcb&#45;&gt;dir_167f1b6f9e156d639715bac594b285a1 -->
<g id="edge6" class="edge"><title>dir_a875cbc101bd0d88a64c2a79b7d05dcb&#45;&gt;dir_167f1b6f9e156d639715bac594b285a1</title>
<path fill="none" stroke="black" d="M70.4965,-71.8761C84.8754,-62.8083 102.724,-51.5523 118.253,-41.7592"/>
<polygon fill="black" stroke="black" points="120.493,-44.4845 127.085,-36.1898 116.759,-38.5635 120.493,-44.4845"/>
<g id="a_edge6&#45;headlabel"><a xlink:href="dir_000022_000005.html" target="_top" xlink:title="3">
<text text-anchor="middle" x="118.967" y="-46.3035" font-family="Helvetica,sans-Serif" font-size="10.00">3</text>
</a>
</g>
</g>
<!-- dir_cb9eb13056a2ddaa90910192d09d40dd&#45;&gt;dir_b9719966f7def2b41d08ece41ef136d6 -->
<g id="edge9" class="edge"><title>dir_cb9eb13056a2ddaa90910192d09d40dd&#45;&gt;dir_b9719966f7def2b41d08ece41ef136d6</title>
<path fill="none" stroke="black" d="M142.645,-108.104C134.685,-116.72 123.975,-127.316 113.738,-136.755"/>
<polygon fill="black" stroke="black" points="111.13,-134.395 106.056,-143.697 115.823,-139.589 111.13,-134.395"/>
<g id="a_edge9&#45;headlabel"><a xlink:href="dir_000021_000016.html" target="_top" xlink:title="8">
<text text-anchor="middle" x="111.893" y="-127.379" font-family="Helvetica,sans-Serif" font-size="10.00">8</text>
</a>
</g>
</g>
<!-- dir_cb9eb13056a2ddaa90910192d09d40dd&#45;&gt;dir_6939c8639261a9303da2cde491b82898 -->
<g id="edge7" class="edge"><title>dir_cb9eb13056a2ddaa90910192d09d40dd&#45;&gt;dir_6939c8639261a9303da2cde491b82898</title>
<path fill="none" stroke="black" d="M150.082,-108.294C145.201,-132.043 139.84,-175.399 156.343,-207 156.945,-208.153 157.624,-209.267 158.368,-210.343"/>
<polygon fill="black" stroke="black" points="155.819,-212.742 165.114,-217.826 161.018,-208.055 155.819,-212.742"/>
<g id="a_edge7&#45;headlabel"><a xlink:href="dir_000021_000025.html" target="_top" xlink:title="7">
<text text-anchor="middle" x="151.303" y="-209.473" font-family="Helvetica,sans-Serif" font-size="10.00">7</text>
</a>
</g>
</g>
<!-- dir_cb9eb13056a2ddaa90910192d09d40dd&#45;&gt;dir_167f1b6f9e156d639715bac594b285a1 -->
<g id="edge8" class="edge"><title>dir_cb9eb13056a2ddaa90910192d09d40dd&#45;&gt;dir_167f1b6f9e156d639715bac594b285a1</title>
<path fill="none" stroke="black" d="M154.343,-71.6966C154.343,-63.9827 154.343,-54.7125 154.343,-46.1124"/>
<polygon fill="black" stroke="black" points="157.843,-46.1043 154.343,-36.1043 150.843,-46.1044 157.843,-46.1043"/>
<g id="a_edge8&#45;headlabel"><a xlink:href="dir_000021_000005.html" target="_top" xlink:title="9">
<text text-anchor="middle" x="160.682" y="-47.199" font-family="Helvetica,sans-Serif" font-size="10.00">9</text>
</a>
</g>
</g>
<!-- dir_cb9eb13056a2ddaa90910192d09d40dd&#45;&gt;dir_bddf2c3ed66b76bda660af468dceb320 -->
<g id="edge10" class="edge"><title>dir_cb9eb13056a2ddaa90910192d09d40dd&#45;&gt;dir_bddf2c3ed66b76bda660af468dceb320</title>
<path fill="none" stroke="black" d="M169.523,-108.104C174.666,-116.045 180.113,-125.666 184.534,-134.515"/>
<polygon fill="black" stroke="black" points="181.434,-136.145 188.865,-143.697 187.765,-133.159 181.434,-136.145"/>
<g id="a_edge10&#45;headlabel"><a xlink:href="dir_000021_000019.html" target="_top" xlink:title="3">
<text text-anchor="middle" x="177.332" y="-131.606" font-family="Helvetica,sans-Serif" font-size="10.00">3</text>
</a>
</g>
</g>
<!-- dir_bddf2c3ed66b76bda660af468dceb320&#45;&gt;dir_b9719966f7def2b41d08ece41ef136d6 -->
<g id="edge19" class="edge"><title>dir_bddf2c3ed66b76bda660af468dceb320&#45;&gt;dir_b9719966f7def2b41d08ece41ef136d6</title>
<path fill="none" stroke="black" d="M165.132,-162C149.896,-162 134.661,-162 119.425,-162"/>
<polygon fill="black" stroke="black" points="119.413,-158.5 109.413,-162 119.413,-165.5 119.413,-158.5"/>
<g id="a_edge19&#45;headlabel"><a xlink:href="dir_000019_000016.html" target="_top" xlink:title="22">
<text text-anchor="middle" x="123.008" y="-153.161" font-family="Helvetica,sans-Serif" font-size="10.00">22</text>
</a>
</g>
</g>
<!-- dir_bddf2c3ed66b76bda660af468dceb320&#45;&gt;dir_6939c8639261a9303da2cde491b82898 -->
<g id="edge16" class="edge"><title>dir_bddf2c3ed66b76bda660af468dceb320&#45;&gt;dir_6939c8639261a9303da2cde491b82898</title>
<path fill="none" stroke="black" d="M198.238,-180.104C199.043,-187.791 199.28,-197.054 198.947,-205.665"/>
<polygon fill="black" stroke="black" points="195.451,-205.48 198.259,-215.697 202.435,-205.96 195.451,-205.48"/>
<g id="a_edge16&#45;headlabel"><a xlink:href="dir_000019_000025.html" target="_top" xlink:title="56">
<text text-anchor="middle" x="192.865" y="-199.2" font-family="Helvetica,sans-Serif" font-size="10.00">56</text>
</a>
</g>
</g>
<!-- dir_bddf2c3ed66b76bda660af468dceb320&#45;&gt;dir_167f1b6f9e156d639715bac594b285a1 -->
<g id="edge17" class="edge"><title>dir_bddf2c3ed66b76bda660af468dceb320&#45;&gt;dir_167f1b6f9e156d639715bac594b285a1</title>
<path fill="none" stroke="black" d="M194.781,-143.797C196.73,-125.515 198.017,-95.9947 190.343,-72 187.224,-62.2497 181.695,-52.6602 175.892,-44.3759"/>
<polygon fill="black" stroke="black" points="178.622,-42.1822 169.835,-36.2634 173.013,-46.3703 178.622,-42.1822"/>
<g id="a_edge17&#45;headlabel"><a xlink:href="dir_000019_000005.html" target="_top" xlink:title="40">
<text text-anchor="middle" x="183.048" y="-40.8639" font-family="Helvetica,sans-Serif" font-size="10.00">40</text>
</a>
</g>
</g>
<!-- dir_bddf2c3ed66b76bda660af468dceb320&#45;&gt;dir_cb9eb13056a2ddaa90910192d09d40dd -->
<g id="edge18" class="edge"><title>dir_bddf2c3ed66b76bda660af468dceb320&#45;&gt;dir_cb9eb13056a2ddaa90910192d09d40dd</title>
<path fill="none" stroke="black" d="M177.034,-143.697C171.886,-135.728 166.445,-126.1 162.041,-117.264"/>
<polygon fill="black" stroke="black" points="165.156,-115.664 157.733,-108.104 158.822,-118.643 165.156,-115.664"/>
<g id="a_edge18&#45;headlabel"><a xlink:href="dir_000019_000021.html" target="_top" xlink:title="1">
<text text-anchor="middle" x="169.255" y="-115.208" font-family="Helvetica,sans-Serif" font-size="10.00">1</text>
</a>
</g>
</g>
</g>
</svg>
