<?xml version="1.0" encoding="UTF-8" standalone="no"?>
<!DOCTYPE svg PUBLIC "-//W3C//DTD SVG 1.1//EN"
 "http://www.w3.org/Graphics/SVG/1.1/DTD/svg11.dtd">
<!-- Generated by graphviz version 2.36.0 (20140111.2315)
 -->
<!-- Title: be/src/util/disk&#45;info.h Pages: 1 -->
<!--zoomable 164 -->
<svg id="main" version="1.1" xmlns="http://www.w3.org/2000/svg" xmlns:xlink="http://www.w3.org/1999/xlink" xml:space="preserve" onload="init(evt)">
<style type="text/css"><![CDATA[
.edge:hover path { stroke: red; }
.edge:hover polygon { stroke: red; fill: red; }
]]></style>
<script type="text/javascript"><![CDATA[
var edges = document.getElementsByTagName('g');
if (edges && edges.length) {
  for (var i=0;i<edges.length;i++) {
    if (edges[i].id.substr(0,4)=='edge') {
      edges[i].setAttribute('class','edge');
    }
  }
}
]]></script>
        <defs>
                <circle id="rim" cx="0" cy="0" r="7"/>
                <circle id="rim2" cx="0" cy="0" r="3.5"/>
                <g id="zoomPlus">
                        <use xlink:href="#rim" fill="#404040">
                                <set attributeName="fill" to="#808080" begin="zoomplus.mouseover" end="zoomplus.mouseout"/>
                        </use>
                        <path d="M-4,0h8M0,-4v8" fill="none" stroke="white" stroke-width="1.5" pointer-events="none"/>
                </g>
                <g id="zoomMin">
                        <use xlink:href="#rim" fill="#404040">
                                <set attributeName="fill" to="#808080" begin="zoomminus.mouseover" end="zoomminus.mouseout"/>
                        </use>
                        <path d="M-4,0h8" fill="none" stroke="white" stroke-width="1.5" pointer-events="none"/>
                </g>
                <g id="dirArrow">
                        <path fill="none" stroke="white" stroke-width="1.5" d="M0,-3.0v7 M-2.5,-0.5L0,-3.0L2.5,-0.5"/>
                </g>
               <g id="resetDef">
                       <use xlink:href="#rim2" fill="#404040">
                               <set attributeName="fill" to="#808080" begin="reset.mouseover" end="reset.mouseout"/>
                       </use>
               </g>
        </defs>

<script type="text/javascript">
var viewWidth = 1688;
var viewHeight = 164;
var sectionId = 'dynsection-1';
</script>
<script xlink:href="svgpan.js"/>
<svg id="graph" class="graph">
<g id="viewport">
<title>be/src/util/disk&#45;info.h</title>
<polygon fill="white" stroke="none" points="-4,4 -4,-160 1684,-160 1684,4 -4,4"/>
<!-- Node1 -->
<g id="node1" class="node"><title>Node1</title>
<polygon fill="#bfbfbf" stroke="black" points="765.5,-136.5 765.5,-155.5 872.5,-155.5 872.5,-136.5 765.5,-136.5"/>
<text text-anchor="middle" x="819" y="-143.5" font-family="Helvetica,sans-Serif" font-size="10.00">be/src/util/disk&#45;info.h</text>
</g>
<!-- Node2 -->
<g id="node2" class="node"><title>Node2</title>
<g id="a_node2"><a xlink:href="init_8cc.html" target="_top" xlink:title="be/src/common/init.cc">
<polygon fill="white" stroke="black" points="-0.5,-74.5 -0.5,-93.5 112.5,-93.5 112.5,-74.5 -0.5,-74.5"/>
<text text-anchor="middle" x="56" y="-81.5" font-family="Helvetica,sans-Serif" font-size="10.00">be/src/common/init.cc</text>
</a>
</g>
</g>
<!-- Node1&#45;&gt;Node2 -->
<g id="edge1" class="edge"><title>Node1&#45;&gt;Node2</title>
<path fill="none" stroke="midnightblue" d="M755.359,-144.269C632.36,-142.11 353.695,-133.591 122,-100 111.069,-98.4152 99.2666,-95.9719 88.7069,-93.5141"/>
<polygon fill="midnightblue" stroke="midnightblue" points="755.302,-147.768 765.359,-144.436 755.419,-140.769 755.302,-147.768"/>
</g>
<!-- Node3 -->
<g id="node3" class="node"><title>Node3</title>
<g id="a_node3"><a xlink:href="hdfs-scan-node_8cc.html" target="_top" xlink:title="be/src/exec/hdfs&#45;scan\l&#45;node.cc">
<polygon fill="white" stroke="black" points="130.5,-69 130.5,-99 243.5,-99 243.5,-69 130.5,-69"/>
<text text-anchor="start" x="138.5" y="-87" font-family="Helvetica,sans-Serif" font-size="10.00">be/src/exec/hdfs&#45;scan</text>
<text text-anchor="middle" x="187" y="-76" font-family="Helvetica,sans-Serif" font-size="10.00">&#45;node.cc</text>
</a>
</g>
</g>
<!-- Node1&#45;&gt;Node3 -->
<g id="edge2" class="edge"><title>Node1&#45;&gt;Node3</title>
<path fill="none" stroke="midnightblue" d="M755.113,-142.921C649.908,-138.827 433.832,-127.59 253,-100 249.98,-99.5392 246.892,-99.0173 243.782,-98.4514"/>
<polygon fill="midnightblue" stroke="midnightblue" points="755.123,-146.424 765.249,-143.307 755.389,-139.429 755.123,-146.424"/>
</g>
<!-- Node4 -->
<g id="node4" class="node"><title>Node4</title>
<g id="a_node4"><a xlink:href="buffered-block-mgr-test_8cc.html" target="_top" xlink:title="be/src/runtime/buffered\l&#45;block&#45;mgr&#45;test.cc">
<polygon fill="white" stroke="black" points="261.5,-69 261.5,-99 378.5,-99 378.5,-69 261.5,-69"/>
<text text-anchor="start" x="269.5" y="-87" font-family="Helvetica,sans-Serif" font-size="10.00">be/src/runtime/buffered</text>
<text text-anchor="middle" x="320" y="-76" font-family="Helvetica,sans-Serif" font-size="10.00">&#45;block&#45;mgr&#45;test.cc</text>
</a>
</g>
</g>
<!-- Node1&#45;&gt;Node4 -->
<g id="edge3" class="edge"><title>Node1&#45;&gt;Node4</title>
<path fill="none" stroke="midnightblue" d="M755.129,-140.6C670.724,-134.269 517.573,-120.986 388,-100 384.897,-99.4975 381.723,-98.9423 378.525,-98.3503"/>
<polygon fill="midnightblue" stroke="midnightblue" points="755.094,-144.107 765.325,-141.357 755.611,-137.127 755.094,-144.107"/>
</g>
<!-- Node5 -->
<g id="node5" class="node"><title>Node5</title>
<g id="a_node5"><a xlink:href="buffered-block-mgr_8cc.html" target="_top" xlink:title="be/src/runtime/buffered\l&#45;block&#45;mgr.cc">
<polygon fill="white" stroke="black" points="396.5,-69 396.5,-99 513.5,-99 513.5,-69 396.5,-69"/>
<text text-anchor="start" x="404.5" y="-87" font-family="Helvetica,sans-Serif" font-size="10.00">be/src/runtime/buffered</text>
<text text-anchor="middle" x="455" y="-76" font-family="Helvetica,sans-Serif" font-size="10.00">&#45;block&#45;mgr.cc</text>
</a>
</g>
</g>
<!-- Node1&#45;&gt;Node5 -->
<g id="edge4" class="edge"><title>Node1&#45;&gt;Node5</title>
<path fill="none" stroke="midnightblue" d="M755.253,-136.552C695.169,-128.296 602.707,-114.833 523,-100 519.91,-99.4249 516.746,-98.8119 513.555,-98.1747"/>
<polygon fill="midnightblue" stroke="midnightblue" points="754.965,-140.046 765.347,-137.932 755.914,-133.11 754.965,-140.046"/>
</g>
<!-- Node6 -->
<g id="node6" class="node"><title>Node6</title>
<g id="a_node6"><a xlink:href="data-stream-test_8cc.html" target="_top" xlink:title="be/src/runtime/data\l&#45;stream&#45;test.cc">
<polygon fill="white" stroke="black" points="531.5,-69 531.5,-99 632.5,-99 632.5,-69 531.5,-69"/>
<text text-anchor="start" x="539.5" y="-87" font-family="Helvetica,sans-Serif" font-size="10.00">be/src/runtime/data</text>
<text text-anchor="middle" x="582" y="-76" font-family="Helvetica,sans-Serif" font-size="10.00">&#45;stream&#45;test.cc</text>
</a>
</g>
</g>
<!-- Node1&#45;&gt;Node6 -->
<g id="edge5" class="edge"><title>Node1&#45;&gt;Node6</title>
<path fill="none" stroke="midnightblue" d="M775.48,-133.982C735.117,-123.764 675.054,-108.558 632.574,-97.8037"/>
<polygon fill="midnightblue" stroke="midnightblue" points="774.742,-137.406 785.295,-136.467 776.46,-130.62 774.742,-137.406"/>
</g>
<!-- Node7 -->
<g id="node7" class="node"><title>Node7</title>
<g id="a_node7"><a xlink:href="disk-io-mgr-internal_8h.html" target="_top" xlink:title="be/src/runtime/disk\l&#45;io&#45;mgr&#45;internal.h">
<polygon fill="white" stroke="black" points="651,-69 651,-99 751,-99 751,-69 651,-69"/>
<text text-anchor="start" x="659" y="-87" font-family="Helvetica,sans-Serif" font-size="10.00">be/src/runtime/disk</text>
<text text-anchor="middle" x="701" y="-76" font-family="Helvetica,sans-Serif" font-size="10.00">&#45;io&#45;mgr&#45;internal.h</text>
</a>
</g>
</g>
<!-- Node1&#45;&gt;Node7 -->
<g id="edge6" class="edge"><title>Node1&#45;&gt;Node7</title>
<path fill="none" stroke="midnightblue" d="M793.096,-131.829C774.074,-122.156 748.267,-109.034 728.81,-99.1408"/>
<polygon fill="midnightblue" stroke="midnightblue" points="791.593,-134.991 802.093,-136.403 794.766,-128.751 791.593,-134.991"/>
</g>
<!-- Node11 -->
<g id="node11" class="node"><title>Node11</title>
<g id="a_node11"><a xlink:href="disk-io-mgr-test_8cc.html" target="_top" xlink:title="be/src/runtime/disk\l&#45;io&#45;mgr&#45;test.cc">
<polygon fill="white" stroke="black" points="769,-69 769,-99 869,-99 869,-69 769,-69"/>
<text text-anchor="start" x="777" y="-87" font-family="Helvetica,sans-Serif" font-size="10.00">be/src/runtime/disk</text>
<text text-anchor="middle" x="819" y="-76" font-family="Helvetica,sans-Serif" font-size="10.00">&#45;io&#45;mgr&#45;test.cc</text>
</a>
</g>
</g>
<!-- Node1&#45;&gt;Node11 -->
<g id="edge10" class="edge"><title>Node1&#45;&gt;Node11</title>
<path fill="none" stroke="midnightblue" d="M819,-126.371C819,-117.585 819,-107.272 819,-99.1408"/>
<polygon fill="midnightblue" stroke="midnightblue" points="815.5,-126.403 819,-136.403 822.5,-126.403 815.5,-126.403"/>
</g>
<!-- Node12 -->
<g id="node12" class="node"><title>Node12</title>
<g id="a_node12"><a xlink:href="runtime-state_8cc.html" target="_top" xlink:title="be/src/runtime/runtime\l&#45;state.cc">
<polygon fill="white" stroke="black" points="887,-69 887,-99 1001,-99 1001,-69 887,-69"/>
<text text-anchor="start" x="895" y="-87" font-family="Helvetica,sans-Serif" font-size="10.00">be/src/runtime/runtime</text>
<text text-anchor="middle" x="944" y="-76" font-family="Helvetica,sans-Serif" font-size="10.00">&#45;state.cc</text>
</a>
</g>
</g>
<!-- Node1&#45;&gt;Node12 -->
<g id="edge11" class="edge"><title>Node1&#45;&gt;Node12</title>
<path fill="none" stroke="midnightblue" d="M846.165,-131.961C866.341,-122.276 893.835,-109.079 914.54,-99.1408"/>
<polygon fill="midnightblue" stroke="midnightblue" points="844.41,-128.921 836.909,-136.403 847.439,-135.231 844.41,-128.921"/>
</g>
<!-- Node13 -->
<g id="node13" class="node"><title>Node13</title>
<g id="a_node13"><a xlink:href="tmp-file-mgr_8cc.html" target="_top" xlink:title="be/src/runtime/tmp\l&#45;file&#45;mgr.cc">
<polygon fill="white" stroke="black" points="1019,-69 1019,-99 1117,-99 1117,-69 1019,-69"/>
<text text-anchor="start" x="1027" y="-87" font-family="Helvetica,sans-Serif" font-size="10.00">be/src/runtime/tmp</text>
<text text-anchor="middle" x="1068" y="-76" font-family="Helvetica,sans-Serif" font-size="10.00">&#45;file&#45;mgr.cc</text>
</a>
</g>
</g>
<!-- Node1&#45;&gt;Node13 -->
<g id="edge12" class="edge"><title>Node1&#45;&gt;Node13</title>
<path fill="none" stroke="midnightblue" d="M866.327,-134.15C905.02,-125.208 961.12,-112.077 1010,-100 1012.93,-99.2765 1015.94,-98.5244 1018.97,-97.7596"/>
<polygon fill="midnightblue" stroke="midnightblue" points="865.345,-130.785 856.388,-136.444 866.919,-137.606 865.345,-130.785"/>
</g>
<!-- Node14 -->
<g id="node14" class="node"><title>Node14</title>
<g id="a_node14"><a xlink:href="fe-support_8cc.html" target="_top" xlink:title="be/src/service/fe&#45;support.cc">
<polygon fill="white" stroke="black" points="1135,-74.5 1135,-93.5 1273,-93.5 1273,-74.5 1135,-74.5"/>
<text text-anchor="middle" x="1204" y="-81.5" font-family="Helvetica,sans-Serif" font-size="10.00">be/src/service/fe&#45;support.cc</text>
</a>
</g>
</g>
<!-- Node1&#45;&gt;Node14 -->
<g id="edge13" class="edge"><title>Node1&#45;&gt;Node14</title>
<path fill="none" stroke="midnightblue" d="M882.745,-136.413C944.728,-127.878 1041.49,-114.063 1125,-100 1136.56,-98.0527 1149.04,-95.7684 1160.6,-93.5778"/>
<polygon fill="midnightblue" stroke="midnightblue" points="882.156,-132.961 872.725,-137.789 883.108,-139.896 882.156,-132.961"/>
</g>
<!-- Node15 -->
<g id="node15" class="node"><title>Node15</title>
<g id="a_node15"><a xlink:href="disk-info_8cc.html" target="_top" xlink:title="be/src/util/disk&#45;info.cc">
<polygon fill="white" stroke="black" points="1291.5,-74.5 1291.5,-93.5 1404.5,-93.5 1404.5,-74.5 1291.5,-74.5"/>
<text text-anchor="middle" x="1348" y="-81.5" font-family="Helvetica,sans-Serif" font-size="10.00">be/src/util/disk&#45;info.cc</text>
</a>
</g>
</g>
<!-- Node1&#45;&gt;Node15 -->
<g id="edge14" class="edge"><title>Node1&#45;&gt;Node15</title>
<path fill="none" stroke="midnightblue" d="M882.755,-141.365C972.335,-135.678 1140.36,-122.884 1282,-100 1292.56,-98.2945 1303.95,-95.9061 1314.25,-93.5359"/>
<polygon fill="midnightblue" stroke="midnightblue" points="882.515,-137.874 872.753,-141.992 882.952,-144.86 882.515,-137.874"/>
</g>
<!-- Node16 -->
<g id="node16" class="node"><title>Node16</title>
<g id="a_node16"><a xlink:href="perf-counters-test_8cc.html" target="_top" xlink:title="be/src/util/perf&#45;counters\l&#45;test.cc">
<polygon fill="white" stroke="black" points="1422.5,-69 1422.5,-99 1541.5,-99 1541.5,-69 1422.5,-69"/>
<text text-anchor="start" x="1430.5" y="-87" font-family="Helvetica,sans-Serif" font-size="10.00">be/src/util/perf&#45;counters</text>
<text text-anchor="middle" x="1482" y="-76" font-family="Helvetica,sans-Serif" font-size="10.00">&#45;test.cc</text>
</a>
</g>
</g>
<!-- Node1&#45;&gt;Node16 -->
<g id="edge15" class="edge"><title>Node1&#45;&gt;Node16</title>
<path fill="none" stroke="midnightblue" d="M882.694,-143.067C991.781,-139.112 1221.16,-127.981 1413,-100 1416.03,-99.5577 1419.13,-99.0587 1422.25,-98.5183"/>
<polygon fill="midnightblue" stroke="midnightblue" points="882.388,-139.576 872.518,-143.428 882.636,-146.571 882.388,-139.576"/>
</g>
<!-- Node17 -->
<g id="node17" class="node"><title>Node17</title>
<g id="a_node17"><a xlink:href="webserver_8cc.html" target="_top" xlink:title="be/src/util/webserver.cc">
<polygon fill="white" stroke="black" points="1559.5,-74.5 1559.5,-93.5 1680.5,-93.5 1680.5,-74.5 1559.5,-74.5"/>
<text text-anchor="middle" x="1620" y="-81.5" font-family="Helvetica,sans-Serif" font-size="10.00">be/src/util/webserver.cc</text>
</a>
</g>
</g>
<!-- Node1&#45;&gt;Node17 -->
<g id="edge16" class="edge"><title>Node1&#45;&gt;Node17</title>
<path fill="none" stroke="midnightblue" d="M883.29,-144.267C1010.96,-142.101 1305.25,-133.564 1550,-100 1561.57,-98.4127 1574.09,-95.9687 1585.29,-93.5111"/>
<polygon fill="midnightblue" stroke="midnightblue" points="882.865,-140.773 872.923,-144.435 882.978,-147.772 882.865,-140.773"/>
</g>
<!-- Node8 -->
<g id="node8" class="node"><title>Node8</title>
<g id="a_node8"><a xlink:href="disk-io-mgr-reader-context_8cc.html" target="_top" xlink:title="be/src/runtime/disk\l&#45;io&#45;mgr&#45;reader&#45;context.cc">
<polygon fill="white" stroke="black" points="502.5,-1 502.5,-31 627.5,-31 627.5,-1 502.5,-1"/>
<text text-anchor="start" x="510.5" y="-19" font-family="Helvetica,sans-Serif" font-size="10.00">be/src/runtime/disk</text>
<text text-anchor="middle" x="565" y="-8" font-family="Helvetica,sans-Serif" font-size="10.00">&#45;io&#45;mgr&#45;reader&#45;context.cc</text>
</a>
</g>
</g>
<!-- Node7&#45;&gt;Node8 -->
<g id="edge7" class="edge"><title>Node7&#45;&gt;Node8</title>
<path fill="none" stroke="midnightblue" d="M662.547,-64.3388C640.823,-53.7964 614.105,-40.8303 594.127,-31.1352"/>
<polygon fill="midnightblue" stroke="midnightblue" points="661.3,-67.6241 671.825,-68.8413 664.356,-61.3265 661.3,-67.6241"/>
</g>
<!-- Node9 -->
<g id="node9" class="node"><title>Node9</title>
<g id="a_node9"><a xlink:href="disk-io-mgr-scan-range_8cc.html" target="_top" xlink:title="be/src/runtime/disk\l&#45;io&#45;mgr&#45;scan&#45;range.cc">
<polygon fill="white" stroke="black" points="645.5,-1 645.5,-31 756.5,-31 756.5,-1 645.5,-1"/>
<text text-anchor="start" x="653.5" y="-19" font-family="Helvetica,sans-Serif" font-size="10.00">be/src/runtime/disk</text>
<text text-anchor="middle" x="701" y="-8" font-family="Helvetica,sans-Serif" font-size="10.00">&#45;io&#45;mgr&#45;scan&#45;range.cc</text>
</a>
</g>
</g>
<!-- Node7&#45;&gt;Node9 -->
<g id="edge8" class="edge"><title>Node7&#45;&gt;Node9</title>
<path fill="none" stroke="midnightblue" d="M701,-58.5322C701,-49.3606 701,-39.2449 701,-31.2931"/>
<polygon fill="midnightblue" stroke="midnightblue" points="697.5,-58.6789 701,-68.679 704.5,-58.679 697.5,-58.6789"/>
</g>
<!-- Node10 -->
<g id="node10" class="node"><title>Node10</title>
<g id="a_node10"><a xlink:href="disk-io-mgr_8cc.html" target="_top" xlink:title="be/src/runtime/disk\l&#45;io&#45;mgr.cc">
<polygon fill="white" stroke="black" points="775,-1 775,-31 875,-31 875,-1 775,-1"/>
<text text-anchor="start" x="783" y="-19" font-family="Helvetica,sans-Serif" font-size="10.00">be/src/runtime/disk</text>
<text text-anchor="middle" x="825" y="-8" font-family="Helvetica,sans-Serif" font-size="10.00">&#45;io&#45;mgr.cc</text>
</a>
</g>
</g>
<!-- Node7&#45;&gt;Node10 -->
<g id="edge9" class="edge"><title>Node7&#45;&gt;Node10</title>
<path fill="none" stroke="midnightblue" d="M736.594,-64.0545C756.304,-53.5641 780.391,-40.7434 798.443,-31.1352"/>
<polygon fill="midnightblue" stroke="midnightblue" points="734.784,-61.0532 727.601,-68.8413 738.073,-67.2324 734.784,-61.0532"/>
</g>
</g>
</svg>
        <g id="navigator" transform="translate(0 0)" fill="#404254">
                <rect fill="#f2f5e9" fill-opacity="0.5" stroke="#606060" stroke-width=".5" x="0" y="0" width="60" height="60"/>
                <use id="zoomplus" xlink:href="#zoomPlus" x="17" y="9" onmousedown="handleZoom(evt,'in')"/>
                <use id="zoomminus" xlink:href="#zoomMin" x="42" y="9" onmousedown="handleZoom(evt,'out')"/>
                <use id="reset" xlink:href="#resetDef" x="30" y="36" onmousedown="handleReset()"/>
                <g id="arrowUp" xlink:href="#dirArrow" transform="translate(30 24)" onmousedown="handlePan(0,-1)">
                  <use xlink:href="#rim" fill="#404040">
                        <set attributeName="fill" to="#808080" begin="arrowUp.mouseover" end="arrowUp.mouseout"/>
                  </use>
                  <path fill="none" stroke="white" stroke-width="1.5" d="M0,-3.0v7 M-2.5,-0.5L0,-3.0L2.5,-0.5"/>
                </g>
                <g id="arrowRight" xlink:href="#dirArrow" transform="rotate(90) translate(36 -43)" onmousedown="handlePan(1,0)">
                  <use xlink:href="#rim" fill="#404040">
                        <set attributeName="fill" to="#808080" begin="arrowRight.mouseover" end="arrowRight.mouseout"/>
                  </use>
                  <path fill="none" stroke="white" stroke-width="1.5" d="M0,-3.0v7 M-2.5,-0.5L0,-3.0L2.5,-0.5"/>
                </g>
                <g id="arrowDown" xlink:href="#dirArrow" transform="rotate(180) translate(-30 -48)" onmousedown="handlePan(0,1)">
                  <use xlink:href="#rim" fill="#404040">
                        <set attributeName="fill" to="#808080" begin="arrowDown.mouseover" end="arrowDown.mouseout"/>
                  </use>
                  <path fill="none" stroke="white" stroke-width="1.5" d="M0,-3.0v7 M-2.5,-0.5L0,-3.0L2.5,-0.5"/>
                </g>
                <g id="arrowLeft" xlink:href="#dirArrow" transform="rotate(270) translate(-36 17)" onmousedown="handlePan(-1,0)">
                  <use xlink:href="#rim" fill="#404040">
                        <set attributeName="fill" to="#808080" begin="arrowLeft.mouseover" end="arrowLeft.mouseout"/>
                  </use>
                  <path fill="none" stroke="white" stroke-width="1.5" d="M0,-3.0v7 M-2.5,-0.5L0,-3.0L2.5,-0.5"/>
                </g>
        </g>
        <svg viewBox="0 0 15 15" width="100%" height="30px" preserveAspectRatio="xMaxYMin meet">
         <g id="arrow_out" transform="scale(0.3 0.3)">
          <a xlink:href="disk-info_8h__dep__incl_org.svg" target="_base">
           <rect id="button" ry="5" rx="5" y="6" x="6" height="38" width="38"
                fill="#f2f5e9" fill-opacity="0.5" stroke="#606060" stroke-width="1.0"/>
           <path id="arrow"
             d="M 11.500037,31.436501 C 11.940474,20.09759 22.043105,11.32322 32.158766,21.979434 L 37.068811,17.246167 C 37.068811,17.246167 37.088388,32 37.088388,32 L 22.160133,31.978069 C 22.160133,31.978069 26.997745,27.140456 26.997745,27.140456 C 18.528582,18.264221 13.291696,25.230495 11.500037,31.436501 z"
             style="fill:#404040;"/>
          </a>
         </g>
        </svg>
</svg>
