<?xml version="1.0" encoding="UTF-8" standalone="no"?>
<!DOCTYPE svg PUBLIC "-//W3C//DTD SVG 1.1//EN"
 "http://www.w3.org/Graphics/SVG/1.1/DTD/svg11.dtd">
<!-- Generated by graphviz version 2.36.0 (20140111.2315)
 -->
<!-- Title: be/src/runtime/disk&#45;io&#45;mgr&#45;internal.h Pages: 1 -->
<svg width="380pt" height="108pt"
 viewBox="0.00 0.00 380.00 108.00" xmlns="http://www.w3.org/2000/svg" xmlns:xlink="http://www.w3.org/1999/xlink">
<g id="graph0" class="graph" transform="scale(1 1) rotate(0) translate(4 104)">
<title>be/src/runtime/disk&#45;io&#45;mgr&#45;internal.h</title>
<polygon fill="white" stroke="none" points="-4,4 -4,-104 376,-104 376,4 -4,4"/>
<!-- Node1 -->
<g id="node1" class="node"><title>Node1</title>
<polygon fill="#bfbfbf" stroke="black" points="148,-69 148,-99 248,-99 248,-69 148,-69"/>
<text text-anchor="start" x="156" y="-87" font-family="Helvetica,sans-Serif" font-size="10.00">be/src/runtime/disk</text>
<text text-anchor="middle" x="198" y="-76" font-family="Helvetica,sans-Serif" font-size="10.00">&#45;io&#45;mgr&#45;internal.h</text>
</g>
<!-- Node2 -->
<g id="node2" class="node"><title>Node2</title>
<g id="a_node2"><a xlink:href="disk-io-mgr-reader-context_8cc.html" target="_top" xlink:title="be/src/runtime/disk\l&#45;io&#45;mgr&#45;reader&#45;context.cc">
<polygon fill="white" stroke="black" points="-0.5,-1 -0.5,-31 124.5,-31 124.5,-1 -0.5,-1"/>
<text text-anchor="start" x="7.5" y="-19" font-family="Helvetica,sans-Serif" font-size="10.00">be/src/runtime/disk</text>
<text text-anchor="middle" x="62" y="-8" font-family="Helvetica,sans-Serif" font-size="10.00">&#45;io&#45;mgr&#45;reader&#45;context.cc</text>
</a>
</g>
</g>
<!-- Node1&#45;&gt;Node2 -->
<g id="edge1" class="edge"><title>Node1&#45;&gt;Node2</title>
<path fill="none" stroke="midnightblue" d="M159.547,-64.3388C137.823,-53.7964 111.105,-40.8303 91.1272,-31.1352"/>
<polygon fill="midnightblue" stroke="midnightblue" points="158.3,-67.6241 168.825,-68.8413 161.356,-61.3265 158.3,-67.6241"/>
</g>
<!-- Node3 -->
<g id="node3" class="node"><title>Node3</title>
<g id="a_node3"><a xlink:href="disk-io-mgr-scan-range_8cc.html" target="_top" xlink:title="be/src/runtime/disk\l&#45;io&#45;mgr&#45;scan&#45;range.cc">
<polygon fill="white" stroke="black" points="142.5,-1 142.5,-31 253.5,-31 253.5,-1 142.5,-1"/>
<text text-anchor="start" x="150.5" y="-19" font-family="Helvetica,sans-Serif" font-size="10.00">be/src/runtime/disk</text>
<text text-anchor="middle" x="198" y="-8" font-family="Helvetica,sans-Serif" font-size="10.00">&#45;io&#45;mgr&#45;scan&#45;range.cc</text>
</a>
</g>
</g>
<!-- Node1&#45;&gt;Node3 -->
<g id="edge2" class="edge"><title>Node1&#45;&gt;Node3</title>
<path fill="none" stroke="midnightblue" d="M198,-58.5322C198,-49.3606 198,-39.2449 198,-31.2931"/>
<polygon fill="midnightblue" stroke="midnightblue" points="194.5,-58.6789 198,-68.679 201.5,-58.679 194.5,-58.6789"/>
</g>
<!-- Node4 -->
<g id="node4" class="node"><title>Node4</title>
<g id="a_node4"><a xlink:href="disk-io-mgr_8cc.html" target="_top" xlink:title="be/src/runtime/disk\l&#45;io&#45;mgr.cc">
<polygon fill="white" stroke="black" points="272,-1 272,-31 372,-31 372,-1 272,-1"/>
<text text-anchor="start" x="280" y="-19" font-family="Helvetica,sans-Serif" font-size="10.00">be/src/runtime/disk</text>
<text text-anchor="middle" x="322" y="-8" font-family="Helvetica,sans-Serif" font-size="10.00">&#45;io&#45;mgr.cc</text>
</a>
</g>
</g>
<!-- Node1&#45;&gt;Node4 -->
<g id="edge3" class="edge"><title>Node1&#45;&gt;Node4</title>
<path fill="none" stroke="midnightblue" d="M233.594,-64.0545C253.304,-53.5641 277.391,-40.7434 295.443,-31.1352"/>
<polygon fill="midnightblue" stroke="midnightblue" points="231.784,-61.0532 224.601,-68.8413 235.073,-67.2324 231.784,-61.0532"/>
</g>
</g>
</svg>
