<?xml version="1.0" encoding="UTF-8" standalone="no"?>
<!DOCTYPE svg PUBLIC "-//W3C//DTD SVG 1.1//EN"
 "http://www.w3.org/Graphics/SVG/1.1/DTD/svg11.dtd">
<!-- Generated by graphviz version 2.36.0 (20140111.2315)
 -->
<!-- Title: be/src/util/dynamic&#45;util.h Pages: 1 -->
<svg width="614pt" height="108pt"
 viewBox="0.00 0.00 614.00 108.00" xmlns="http://www.w3.org/2000/svg" xmlns:xlink="http://www.w3.org/1999/xlink">
<g id="graph0" class="graph" transform="scale(1 1) rotate(0) translate(4 104)">
<title>be/src/util/dynamic&#45;util.h</title>
<polygon fill="white" stroke="none" points="-4,4 -4,-104 610,-104 610,4 -4,4"/>
<!-- Node1 -->
<g id="node1" class="node"><title>Node1</title>
<polygon fill="#bfbfbf" stroke="black" points="237.5,-69 237.5,-99 336.5,-99 336.5,-69 237.5,-69"/>
<text text-anchor="start" x="245.5" y="-87" font-family="Helvetica,sans-Serif" font-size="10.00">be/src/util/dynamic</text>
<text text-anchor="middle" x="287" y="-76" font-family="Helvetica,sans-Serif" font-size="10.00">&#45;util.h</text>
</g>
<!-- Node2 -->
<g id="node2" class="node"><title>Node2</title>
<g id="a_node2"><a xlink:href="hdfs-lzo-text-scanner_8cc.html" target="_top" xlink:title="be/src/exec/hdfs&#45;lzo\l&#45;text&#45;scanner.cc">
<polygon fill="white" stroke="black" points="-0.5,-1 -0.5,-31 104.5,-31 104.5,-1 -0.5,-1"/>
<text text-anchor="start" x="7.5" y="-19" font-family="Helvetica,sans-Serif" font-size="10.00">be/src/exec/hdfs&#45;lzo</text>
<text text-anchor="middle" x="52" y="-8" font-family="Helvetica,sans-Serif" font-size="10.00">&#45;text&#45;scanner.cc</text>
</a>
</g>
</g>
<!-- Node1&#45;&gt;Node2 -->
<g id="edge1" class="edge"><title>Node1&#45;&gt;Node2</title>
<path fill="none" stroke="midnightblue" d="M227.337,-66.2436C188.549,-55.35 138.559,-41.3101 101.887,-31.0108"/>
<polygon fill="midnightblue" stroke="midnightblue" points="226.876,-69.7494 237.45,-69.0837 228.769,-63.0101 226.876,-69.7494"/>
</g>
<!-- Node3 -->
<g id="node3" class="node"><title>Node3</title>
<g id="a_node3"><a xlink:href="scalar-fn-call_8cc.html" target="_top" xlink:title="be/src/exprs/scalar\l&#45;fn&#45;call.cc">
<polygon fill="white" stroke="black" points="123,-1 123,-31 223,-31 223,-1 123,-1"/>
<text text-anchor="start" x="131" y="-19" font-family="Helvetica,sans-Serif" font-size="10.00">be/src/exprs/scalar</text>
<text text-anchor="middle" x="173" y="-8" font-family="Helvetica,sans-Serif" font-size="10.00">&#45;fn&#45;call.cc</text>
</a>
</g>
</g>
<!-- Node1&#45;&gt;Node3 -->
<g id="edge2" class="edge"><title>Node1&#45;&gt;Node3</title>
<path fill="none" stroke="midnightblue" d="M253.536,-63.6261C235.556,-53.2166 213.786,-40.6129 197.415,-31.1352"/>
<polygon fill="midnightblue" stroke="midnightblue" points="252.136,-66.8599 262.544,-68.8413 255.644,-60.8019 252.136,-66.8599"/>
</g>
<!-- Node4 -->
<g id="node4" class="node"><title>Node4</title>
<g id="a_node4"><a xlink:href="lib-cache_8cc.html" target="_top" xlink:title="be/src/runtime/lib\l&#45;cache.cc">
<polygon fill="white" stroke="black" points="241,-1 241,-31 333,-31 333,-1 241,-1"/>
<text text-anchor="start" x="249" y="-19" font-family="Helvetica,sans-Serif" font-size="10.00">be/src/runtime/lib</text>
<text text-anchor="middle" x="287" y="-8" font-family="Helvetica,sans-Serif" font-size="10.00">&#45;cache.cc</text>
</a>
</g>
</g>
<!-- Node1&#45;&gt;Node4 -->
<g id="edge3" class="edge"><title>Node1&#45;&gt;Node4</title>
<path fill="none" stroke="midnightblue" d="M287,-58.5322C287,-49.3606 287,-39.2449 287,-31.2931"/>
<polygon fill="midnightblue" stroke="midnightblue" points="283.5,-58.6789 287,-68.679 290.5,-58.679 283.5,-58.6789"/>
</g>
<!-- Node5 -->
<g id="node5" class="node"><title>Node5</title>
<g id="a_node5"><a xlink:href="fe-support_8cc.html" target="_top" xlink:title="be/src/service/fe&#45;support.cc">
<polygon fill="white" stroke="black" points="351,-6.5 351,-25.5 489,-25.5 489,-6.5 351,-6.5"/>
<text text-anchor="middle" x="420" y="-13.5" font-family="Helvetica,sans-Serif" font-size="10.00">be/src/service/fe&#45;support.cc</text>
</a>
</g>
</g>
<!-- Node1&#45;&gt;Node5 -->
<g id="edge4" class="edge"><title>Node1&#45;&gt;Node5</title>
<path fill="none" stroke="midnightblue" d="M324.592,-64.3455C350.152,-51.6616 382.787,-35.4667 402.505,-25.6819"/>
<polygon fill="midnightblue" stroke="midnightblue" points="322.934,-61.2609 315.532,-68.8413 326.045,-67.5313 322.934,-61.2609"/>
</g>
<!-- Node6 -->
<g id="node6" class="node"><title>Node6</title>
<g id="a_node6"><a xlink:href="dynamic-util_8cc.html" target="_top" xlink:title="be/src/util/dynamic\l&#45;util.cc">
<polygon fill="white" stroke="black" points="507.5,-1 507.5,-31 606.5,-31 606.5,-1 507.5,-1"/>
<text text-anchor="start" x="515.5" y="-19" font-family="Helvetica,sans-Serif" font-size="10.00">be/src/util/dynamic</text>
<text text-anchor="middle" x="557" y="-8" font-family="Helvetica,sans-Serif" font-size="10.00">&#45;util.cc</text>
</a>
</g>
</g>
<!-- Node1&#45;&gt;Node6 -->
<g id="edge5" class="edge"><title>Node1&#45;&gt;Node6</title>
<path fill="none" stroke="midnightblue" d="M346.772,-68.7514C389.044,-58.626 447.034,-44.6376 498,-32 501.077,-31.2369 504.244,-30.4467 507.436,-29.6461"/>
<polygon fill="midnightblue" stroke="midnightblue" points="345.831,-65.3777 336.92,-71.1094 347.46,-72.1855 345.831,-65.3777"/>
</g>
</g>
</svg>
