<?xml version="1.0" encoding="UTF-8" standalone="no"?>
<!DOCTYPE svg PUBLIC "-//W3C//DTD SVG 1.1//EN"
 "http://www.w3.org/Graphics/SVG/1.1/DTD/svg11.dtd">
<!-- Generated by graphviz version 2.36.0 (20140111.2315)
 -->
<!-- Title: be/src/util/dynamic&#45;util.h Pages: 1 -->
<!--zoomable 108 -->
<svg id="main" version="1.1" xmlns="http://www.w3.org/2000/svg" xmlns:xlink="http://www.w3.org/1999/xlink" xml:space="preserve" onload="init(evt)">
<style type="text/css"><![CDATA[
.edge:hover path { stroke: red; }
.edge:hover polygon { stroke: red; fill: red; }
]]></style>
<script type="text/javascript"><![CDATA[
var edges = document.getElementsByTagName('g');
if (edges && edges.length) {
  for (var i=0;i<edges.length;i++) {
    if (edges[i].id.substr(0,4)=='edge') {
      edges[i].setAttribute('class','edge');
    }
  }
}
]]></script>
        <defs>
                <circle id="rim" cx="0" cy="0" r="7"/>
                <circle id="rim2" cx="0" cy="0" r="3.5"/>
                <g id="zoomPlus">
                        <use xlink:href="#rim" fill="#404040">
                                <set attributeName="fill" to="#808080" begin="zoomplus.mouseover" end="zoomplus.mouseout"/>
                        </use>
                        <path d="M-4,0h8M0,-4v8" fill="none" stroke="white" stroke-width="1.5" pointer-events="none"/>
                </g>
                <g id="zoomMin">
                        <use xlink:href="#rim" fill="#404040">
                                <set attributeName="fill" to="#808080" begin="zoomminus.mouseover" end="zoomminus.mouseout"/>
                        </use>
                        <path d="M-4,0h8" fill="none" stroke="white" stroke-width="1.5" pointer-events="none"/>
                </g>
                <g id="dirArrow">
                        <path fill="none" stroke="white" stroke-width="1.5" d="M0,-3.0v7 M-2.5,-0.5L0,-3.0L2.5,-0.5"/>
                </g>
               <g id="resetDef">
                       <use xlink:href="#rim2" fill="#404040">
                               <set attributeName="fill" to="#808080" begin="reset.mouseover" end="reset.mouseout"/>
                       </use>
               </g>
        </defs>

<script type="text/javascript">
var viewWidth = 614;
var viewHeight = 108;
var sectionId = 'dynsection-1';
</script>
<script xlink:href="svgpan.js"/>
<svg id="graph" class="graph">
<g id="viewport">
<title>be/src/util/dynamic&#45;util.h</title>
<polygon fill="white" stroke="none" points="-4,4 -4,-104 610,-104 610,4 -4,4"/>
<!-- Node1 -->
<g id="node1" class="node"><title>Node1</title>
<polygon fill="#bfbfbf" stroke="black" points="237.5,-69 237.5,-99 336.5,-99 336.5,-69 237.5,-69"/>
<text text-anchor="start" x="245.5" y="-87" font-family="Helvetica,sans-Serif" font-size="10.00">be/src/util/dynamic</text>
<text text-anchor="middle" x="287" y="-76" font-family="Helvetica,sans-Serif" font-size="10.00">&#45;util.h</text>
</g>
<!-- Node2 -->
<g id="node2" class="node"><title>Node2</title>
<g id="a_node2"><a xlink:href="hdfs-lzo-text-scanner_8cc.html" target="_top" xlink:title="be/src/exec/hdfs&#45;lzo\l&#45;text&#45;scanner.cc">
<polygon fill="white" stroke="black" points="-0.5,-1 -0.5,-31 104.5,-31 104.5,-1 -0.5,-1"/>
<text text-anchor="start" x="7.5" y="-19" font-family="Helvetica,sans-Serif" font-size="10.00">be/src/exec/hdfs&#45;lzo</text>
<text text-anchor="middle" x="52" y="-8" font-family="Helvetica,sans-Serif" font-size="10.00">&#45;text&#45;scanner.cc</text>
</a>
</g>
</g>
<!-- Node1&#45;&gt;Node2 -->
<g id="edge1" class="edge"><title>Node1&#45;&gt;Node2</title>
<path fill="none" stroke="midnightblue" d="M227.337,-66.2436C188.549,-55.35 138.559,-41.3101 101.887,-31.0108"/>
<polygon fill="midnightblue" stroke="midnightblue" points="226.876,-69.7494 237.45,-69.0837 228.769,-63.0101 226.876,-69.7494"/>
</g>
<!-- Node3 -->
<g id="node3" class="node"><title>Node3</title>
<g id="a_node3"><a xlink:href="scalar-fn-call_8cc.html" target="_top" xlink:title="be/src/exprs/scalar\l&#45;fn&#45;call.cc">
<polygon fill="white" stroke="black" points="123,-1 123,-31 223,-31 223,-1 123,-1"/>
<text text-anchor="start" x="131" y="-19" font-family="Helvetica,sans-Serif" font-size="10.00">be/src/exprs/scalar</text>
<text text-anchor="middle" x="173" y="-8" font-family="Helvetica,sans-Serif" font-size="10.00">&#45;fn&#45;call.cc</text>
</a>
</g>
</g>
<!-- Node1&#45;&gt;Node3 -->
<g id="edge2" class="edge"><title>Node1&#45;&gt;Node3</title>
<path fill="none" stroke="midnightblue" d="M253.536,-63.6261C235.556,-53.2166 213.786,-40.6129 197.415,-31.1352"/>
<polygon fill="midnightblue" stroke="midnightblue" points="252.136,-66.8599 262.544,-68.8413 255.644,-60.8019 252.136,-66.8599"/>
</g>
<!-- Node4 -->
<g id="node4" class="node"><title>Node4</title>
<g id="a_node4"><a xlink:href="lib-cache_8cc.html" target="_top" xlink:title="be/src/runtime/lib\l&#45;cache.cc">
<polygon fill="white" stroke="black" points="241,-1 241,-31 333,-31 333,-1 241,-1"/>
<text text-anchor="start" x="249" y="-19" font-family="Helvetica,sans-Serif" font-size="10.00">be/src/runtime/lib</text>
<text text-anchor="middle" x="287" y="-8" font-family="Helvetica,sans-Serif" font-size="10.00">&#45;cache.cc</text>
</a>
</g>
</g>
<!-- Node1&#45;&gt;Node4 -->
<g id="edge3" class="edge"><title>Node1&#45;&gt;Node4</title>
<path fill="none" stroke="midnightblue" d="M287,-58.5322C287,-49.3606 287,-39.2449 287,-31.2931"/>
<polygon fill="midnightblue" stroke="midnightblue" points="283.5,-58.6789 287,-68.679 290.5,-58.679 283.5,-58.6789"/>
</g>
<!-- Node5 -->
<g id="node5" class="node"><title>Node5</title>
<g id="a_node5"><a xlink:href="fe-support_8cc.html" target="_top" xlink:title="be/src/service/fe&#45;support.cc">
<polygon fill="white" stroke="black" points="351,-6.5 351,-25.5 489,-25.5 489,-6.5 351,-6.5"/>
<text text-anchor="middle" x="420" y="-13.5" font-family="Helvetica,sans-Serif" font-size="10.00">be/src/service/fe&#45;support.cc</text>
</a>
</g>
</g>
<!-- Node1&#45;&gt;Node5 -->
<g id="edge4" class="edge"><title>Node1&#45;&gt;Node5</title>
<path fill="none" stroke="midnightblue" d="M324.592,-64.3455C350.152,-51.6616 382.787,-35.4667 402.505,-25.6819"/>
<polygon fill="midnightblue" stroke="midnightblue" points="322.934,-61.2609 315.532,-68.8413 326.045,-67.5313 322.934,-61.2609"/>
</g>
<!-- Node6 -->
<g id="node6" class="node"><title>Node6</title>
<g id="a_node6"><a xlink:href="dynamic-util_8cc.html" target="_top" xlink:title="be/src/util/dynamic\l&#45;util.cc">
<polygon fill="white" stroke="black" points="507.5,-1 507.5,-31 606.5,-31 606.5,-1 507.5,-1"/>
<text text-anchor="start" x="515.5" y="-19" font-family="Helvetica,sans-Serif" font-size="10.00">be/src/util/dynamic</text>
<text text-anchor="middle" x="557" y="-8" font-family="Helvetica,sans-Serif" font-size="10.00">&#45;util.cc</text>
</a>
</g>
</g>
<!-- Node1&#45;&gt;Node6 -->
<g id="edge5" class="edge"><title>Node1&#45;&gt;Node6</title>
<path fill="none" stroke="midnightblue" d="M346.772,-68.7514C389.044,-58.626 447.034,-44.6376 498,-32 501.077,-31.2369 504.244,-30.4467 507.436,-29.6461"/>
<polygon fill="midnightblue" stroke="midnightblue" points="345.831,-65.3777 336.92,-71.1094 347.46,-72.1855 345.831,-65.3777"/>
</g>
</g>
</svg>
        <g id="navigator" transform="translate(0 0)" fill="#404254">
                <rect fill="#f2f5e9" fill-opacity="0.5" stroke="#606060" stroke-width=".5" x="0" y="0" width="60" height="60"/>
                <use id="zoomplus" xlink:href="#zoomPlus" x="17" y="9" onmousedown="handleZoom(evt,'in')"/>
                <use id="zoomminus" xlink:href="#zoomMin" x="42" y="9" onmousedown="handleZoom(evt,'out')"/>
                <use id="reset" xlink:href="#resetDef" x="30" y="36" onmousedown="handleReset()"/>
                <g id="arrowUp" xlink:href="#dirArrow" transform="translate(30 24)" onmousedown="handlePan(0,-1)">
                  <use xlink:href="#rim" fill="#404040">
                        <set attributeName="fill" to="#808080" begin="arrowUp.mouseover" end="arrowUp.mouseout"/>
                  </use>
                  <path fill="none" stroke="white" stroke-width="1.5" d="M0,-3.0v7 M-2.5,-0.5L0,-3.0L2.5,-0.5"/>
                </g>
                <g id="arrowRight" xlink:href="#dirArrow" transform="rotate(90) translate(36 -43)" onmousedown="handlePan(1,0)">
                  <use xlink:href="#rim" fill="#404040">
                        <set attributeName="fill" to="#808080" begin="arrowRight.mouseover" end="arrowRight.mouseout"/>
                  </use>
                  <path fill="none" stroke="white" stroke-width="1.5" d="M0,-3.0v7 M-2.5,-0.5L0,-3.0L2.5,-0.5"/>
                </g>
                <g id="arrowDown" xlink:href="#dirArrow" transform="rotate(180) translate(-30 -48)" onmousedown="handlePan(0,1)">
                  <use xlink:href="#rim" fill="#404040">
                        <set attributeName="fill" to="#808080" begin="arrowDown.mouseover" end="arrowDown.mouseout"/>
                  </use>
                  <path fill="none" stroke="white" stroke-width="1.5" d="M0,-3.0v7 M-2.5,-0.5L0,-3.0L2.5,-0.5"/>
                </g>
                <g id="arrowLeft" xlink:href="#dirArrow" transform="rotate(270) translate(-36 17)" onmousedown="handlePan(-1,0)">
                  <use xlink:href="#rim" fill="#404040">
                        <set attributeName="fill" to="#808080" begin="arrowLeft.mouseover" end="arrowLeft.mouseout"/>
                  </use>
                  <path fill="none" stroke="white" stroke-width="1.5" d="M0,-3.0v7 M-2.5,-0.5L0,-3.0L2.5,-0.5"/>
                </g>
        </g>
        <svg viewBox="0 0 15 15" width="100%" height="30px" preserveAspectRatio="xMaxYMin meet">
         <g id="arrow_out" transform="scale(0.3 0.3)">
          <a xlink:href="dynamic-util_8h__dep__incl_org.svg" target="_base">
           <rect id="button" ry="5" rx="5" y="6" x="6" height="38" width="38"
                fill="#f2f5e9" fill-opacity="0.5" stroke="#606060" stroke-width="1.0"/>
           <path id="arrow"
             d="M 11.500037,31.436501 C 11.940474,20.09759 22.043105,11.32322 32.158766,21.979434 L 37.068811,17.246167 C 37.068811,17.246167 37.088388,32 37.088388,32 L 22.160133,31.978069 C 22.160133,31.978069 26.997745,27.140456 26.997745,27.140456 C 18.528582,18.264221 13.291696,25.230495 11.500037,31.436501 z"
             style="fill:#404040;"/>
          </a>
         </g>
        </svg>
</svg>
