<?xml version="1.0" encoding="UTF-8" standalone="no"?>
<!DOCTYPE svg PUBLIC "-//W3C//DTD SVG 1.1//EN"
 "http://www.w3.org/Graphics/SVG/1.1/DTD/svg11.dtd">
<!-- Generated by graphviz version 2.36.0 (20140111.2315)
 -->
<!-- Title: com.cloudera.impala.analysis.TimestampArithmeticExpr.TimeUnit Pages: 1 -->
<svg width="180pt" height="294pt"
 viewBox="0.00 0.00 180.00 294.00" xmlns="http://www.w3.org/2000/svg" xmlns:xlink="http://www.w3.org/1999/xlink">
<g id="graph0" class="graph" transform="scale(1 1) rotate(0) translate(4 290)">
<title>com.cloudera.impala.analysis.TimestampArithmeticExpr.TimeUnit</title>
<polygon fill="white" stroke="none" points="-4,4 -4,-290 176,-290 176,4 -4,4"/>
<!-- Node1 -->
<g id="node1" class="node"><title>Node1</title>
<polygon fill="#bfbfbf" stroke="black" points="-0.5,-1 -0.5,-179 172.5,-179 172.5,-1 -0.5,-1"/>
<text text-anchor="start" x="7.5" y="-167" font-family="Helvetica,sans-Serif" font-size="10.00">com.cloudera.impala.analysis.</text>
<text text-anchor="middle" x="86" y="-156" font-family="Helvetica,sans-Serif" font-size="10.00">TimestampArithmeticExpr.TimeUnit</text>
<polyline fill="none" stroke="black" points="-0.5,-149 172.5,-149 "/>
<text text-anchor="start" x="7.5" y="-137" font-family="Helvetica,sans-Serif" font-size="10.00">+ YEAR</text>
<text text-anchor="start" x="7.5" y="-126" font-family="Helvetica,sans-Serif" font-size="10.00">+ MONTH</text>
<text text-anchor="start" x="7.5" y="-115" font-family="Helvetica,sans-Serif" font-size="10.00">+ WEEK</text>
<text text-anchor="start" x="7.5" y="-104" font-family="Helvetica,sans-Serif" font-size="10.00">+ DAY</text>
<text text-anchor="start" x="7.5" y="-93" font-family="Helvetica,sans-Serif" font-size="10.00">+ HOUR</text>
<text text-anchor="start" x="7.5" y="-82" font-family="Helvetica,sans-Serif" font-size="10.00">+ MINUTE</text>
<text text-anchor="start" x="7.5" y="-71" font-family="Helvetica,sans-Serif" font-size="10.00">+ SECOND</text>
<text text-anchor="start" x="7.5" y="-60" font-family="Helvetica,sans-Serif" font-size="10.00">+ MILLISECOND</text>
<text text-anchor="start" x="7.5" y="-49" font-family="Helvetica,sans-Serif" font-size="10.00">+ MICROSECOND</text>
<text text-anchor="start" x="7.5" y="-38" font-family="Helvetica,sans-Serif" font-size="10.00">+ NANOSECOND</text>
<polyline fill="none" stroke="black" points="-0.5,-31 172.5,-31 "/>
<text text-anchor="start" x="7.5" y="-19" font-family="Helvetica,sans-Serif" font-size="10.00">+ toString()</text>
<text text-anchor="start" x="7.5" y="-8" font-family="Helvetica,sans-Serif" font-size="10.00">&#45; TimeUnit()</text>
</g>
<!-- Node2 -->
<g id="node2" class="node"><title>Node2</title>
<polygon fill="white" stroke="#bfbfbf" points="65,-228.5 65,-285.5 107,-285.5 107,-228.5 65,-228.5"/>
<text text-anchor="middle" x="86" y="-273.5" font-family="Helvetica,sans-Serif" font-size="10.00">String</text>
<polyline fill="none" stroke="#bfbfbf" points="65,-266.5 107,-266.5 "/>
<text text-anchor="middle" x="86" y="-254.5" font-family="Helvetica,sans-Serif" font-size="10.00"> </text>
<polyline fill="none" stroke="#bfbfbf" points="65,-247.5 107,-247.5 "/>
<text text-anchor="middle" x="86" y="-235.5" font-family="Helvetica,sans-Serif" font-size="10.00"> </text>
</g>
<!-- Node2&#45;&gt;Node1 -->
<g id="edge1" class="edge"><title>Node2&#45;&gt;Node1</title>
<path fill="none" stroke="#404040" d="M86,-228.383C86,-217.739 86,-204.866 86,-191.319"/>
<polygon fill="none" stroke="#404040" points="86.0001,-191.28 82,-185.28 86,-179.28 90,-185.28 86.0001,-191.28"/>
<text text-anchor="middle" x="115.5" y="-201.5" font-family="Helvetica,sans-Serif" font-size="10.00"> &#45;description_</text>
</g>
</g>
</svg>
