<?xml version="1.0" encoding="UTF-8" standalone="no"?>
<!DOCTYPE svg PUBLIC "-//W3C//DTD SVG 1.1//EN"
 "http://www.w3.org/Graphics/SVG/1.1/DTD/svg11.dtd">
<!-- Generated by graphviz version 2.36.0 (20140111.2315)
 -->
<!-- Title: com.cloudera.impala.catalog.HdfsFileFormat Pages: 1 -->
<svg width="303pt" height="382pt"
 viewBox="0.00 0.00 303.00 382.00" xmlns="http://www.w3.org/2000/svg" xmlns:xlink="http://www.w3.org/1999/xlink">
<g id="graph0" class="graph" transform="scale(1 1) rotate(0) translate(4 378)">
<title>com.cloudera.impala.catalog.HdfsFileFormat</title>
<polygon fill="white" stroke="none" points="-4,4 -4,-378 299,-378 299,4 -4,4"/>
<!-- Node1 -->
<g id="node1" class="node"><title>Node1</title>
<polygon fill="#bfbfbf" stroke="black" points="17.5,-0.5 17.5,-189.5 196.5,-189.5 196.5,-0.5 17.5,-0.5"/>
<text text-anchor="start" x="25.5" y="-177.5" font-family="Helvetica,sans-Serif" font-size="10.00">com.cloudera.impala.catalog.</text>
<text text-anchor="middle" x="107" y="-166.5" font-family="Helvetica,sans-Serif" font-size="10.00">HdfsFileFormat</text>
<polyline fill="none" stroke="black" points="17.5,-159.5 196.5,-159.5 "/>
<text text-anchor="start" x="25.5" y="-147.5" font-family="Helvetica,sans-Serif" font-size="10.00">+ RC_FILE</text>
<text text-anchor="start" x="25.5" y="-136.5" font-family="Helvetica,sans-Serif" font-size="10.00">+ TEXT</text>
<text text-anchor="start" x="25.5" y="-125.5" font-family="Helvetica,sans-Serif" font-size="10.00">+ SEQUENCE_FILE</text>
<text text-anchor="start" x="25.5" y="-114.5" font-family="Helvetica,sans-Serif" font-size="10.00">+ AVRO</text>
<polyline fill="none" stroke="black" points="17.5,-107.5 196.5,-107.5 "/>
<text text-anchor="start" x="25.5" y="-95.5" font-family="Helvetica,sans-Serif" font-size="10.00">+ toJavaClassName()</text>
<text text-anchor="start" x="25.5" y="-84.5" font-family="Helvetica,sans-Serif" font-size="10.00">+ toThrift()</text>
<text text-anchor="start" x="25.5" y="-73.5" font-family="Helvetica,sans-Serif" font-size="10.00">+ toSql()</text>
<text text-anchor="start" x="25.5" y="-62.5" font-family="Helvetica,sans-Serif" font-size="10.00">+ isFileCompressionTypeSupported()</text>
<text text-anchor="start" x="25.5" y="-51.5" font-family="Helvetica,sans-Serif" font-size="10.00">+ isSplittable()</text>
<text text-anchor="start" x="25.5" y="-40.5" font-family="Helvetica,sans-Serif" font-size="10.00">+ isHdfsFormatClass()</text>
<text text-anchor="start" x="25.5" y="-29.5" font-family="Helvetica,sans-Serif" font-size="10.00">+ fromHdfsInputFormatClass()</text>
<text text-anchor="start" x="25.5" y="-18.5" font-family="Helvetica,sans-Serif" font-size="10.00">+ fromJavaClassName()</text>
<text text-anchor="start" x="25.5" y="-7.5" font-family="Helvetica,sans-Serif" font-size="10.00">+ fromThrift()</text>
</g>
<!-- Node2 -->
<g id="node2" class="node"><title>Node2</title>
<polygon fill="white" stroke="#bfbfbf" points="0,-310.5 0,-367.5 42,-367.5 42,-310.5 0,-310.5"/>
<text text-anchor="middle" x="21" y="-355.5" font-family="Helvetica,sans-Serif" font-size="10.00">String</text>
<polyline fill="none" stroke="#bfbfbf" points="0,-348.5 42,-348.5 "/>
<text text-anchor="middle" x="21" y="-336.5" font-family="Helvetica,sans-Serif" font-size="10.00"> </text>
<polyline fill="none" stroke="#bfbfbf" points="0,-329.5 42,-329.5 "/>
<text text-anchor="middle" x="21" y="-317.5" font-family="Helvetica,sans-Serif" font-size="10.00"> </text>
</g>
<!-- Node2&#45;&gt;Node1 -->
<g id="edge1" class="edge"><title>Node2&#45;&gt;Node1</title>
<path fill="none" stroke="#404040" d="M16.2703,-310.273C12.8121,-283.363 10.497,-241.755 22,-208 22.8305,-205.563 23.7368,-203.137 24.7112,-200.725"/>
<polygon fill="none" stroke="#404040" points="24.8157,-200.492 23.6305,-193.379 29.7406,-189.55 30.9258,-196.663 24.8157,-200.492"/>
<text text-anchor="middle" x="97" y="-277.5" font-family="Helvetica,sans-Serif" font-size="10.00"> &#45;TEXT_INPUT_FORMAT</text>
<text text-anchor="middle" x="97" y="-266.5" font-family="Helvetica,sans-Serif" font-size="10.00">+LZO_TEXT_OUTPUT_FORMAT</text>
<text text-anchor="middle" x="97" y="-255.5" font-family="Helvetica,sans-Serif" font-size="10.00">+LZO_TEXT_INPUT_FORMAT</text>
<text text-anchor="middle" x="97" y="-244.5" font-family="Helvetica,sans-Serif" font-size="10.00">&#45;RCFILE_INPUT_FORMAT</text>
<text text-anchor="middle" x="97" y="-233.5" font-family="Helvetica,sans-Serif" font-size="10.00">&#45;AVRO_INPUT_FORMAT</text>
<text text-anchor="middle" x="97" y="-222.5" font-family="Helvetica,sans-Serif" font-size="10.00">&#45;PARQUET_INPUT_FORMATS</text>
<text text-anchor="middle" x="97" y="-211.5" font-family="Helvetica,sans-Serif" font-size="10.00">&#45;SEQUENCE_INPUT_FORMAT</text>
</g>
<!-- Node3 -->
<g id="node3" class="node"><title>Node3</title>
<polygon fill="white" stroke="#bfbfbf" points="92.5,-305 92.5,-373 295.5,-373 295.5,-305 92.5,-305"/>
<text text-anchor="start" x="100.5" y="-361" font-family="Helvetica,sans-Serif" font-size="10.00">Map&lt; String, com.cloudera.impala.catalog.</text>
<text text-anchor="middle" x="194" y="-350" font-family="Helvetica,sans-Serif" font-size="10.00">HdfsFileFormat &gt;</text>
<polyline fill="none" stroke="#bfbfbf" points="92.5,-343 295.5,-343 "/>
<text text-anchor="middle" x="194" y="-331" font-family="Helvetica,sans-Serif" font-size="10.00"> </text>
<polyline fill="none" stroke="#bfbfbf" points="92.5,-324 295.5,-324 "/>
<text text-anchor="middle" x="194" y="-312" font-family="Helvetica,sans-Serif" font-size="10.00"> </text>
</g>
<!-- Node3&#45;&gt;Node1 -->
<g id="edge2" class="edge"><title>Node3&#45;&gt;Node1</title>
<path fill="none" stroke="#404040" d="M191.678,-304.85C189.03,-278.073 183.474,-239.754 172,-208 171.135,-205.605 170.218,-203.202 169.258,-200.798"/>
<polygon fill="none" stroke="#404040" points="169.168,-200.588 163.135,-196.639 164.46,-189.55 170.494,-193.5 169.168,-200.588"/>
<text text-anchor="middle" x="235" y="-244.5" font-family="Helvetica,sans-Serif" font-size="10.00"> &#45;VALID_FORMATS</text>
</g>
</g>
</svg>
