<?xml version="1.0" encoding="UTF-8" standalone="no"?>
<!DOCTYPE svg PUBLIC "-//W3C//DTD SVG 1.1//EN"
 "http://www.w3.org/Graphics/SVG/1.1/DTD/svg11.dtd">
<!-- Generated by graphviz version 2.36.0 (20140111.2315)
 -->
<!-- Title: com.cloudera.impala.analysis.BinaryPredicate.Operator Pages: 1 -->
<svg width="167pt" height="304pt"
 viewBox="0.00 0.00 167.00 304.00" xmlns="http://www.w3.org/2000/svg" xmlns:xlink="http://www.w3.org/1999/xlink">
<g id="graph0" class="graph" transform="scale(1 1) rotate(0) translate(4 300)">
<title>com.cloudera.impala.analysis.BinaryPredicate.Operator</title>
<polygon fill="white" stroke="none" points="-4,4 -4,-300 163,-300 163,4 -4,4"/>
<!-- Node1 -->
<g id="node1" class="node"><title>Node1</title>
<polygon fill="#bfbfbf" stroke="black" points="-0.5,-1 -0.5,-179 148.5,-179 148.5,-1 -0.5,-1"/>
<text text-anchor="start" x="7.5" y="-167" font-family="Helvetica,sans-Serif" font-size="10.00">com.cloudera.impala.analysis.</text>
<text text-anchor="middle" x="74" y="-156" font-family="Helvetica,sans-Serif" font-size="10.00">BinaryPredicate.Operator</text>
<polyline fill="none" stroke="black" points="-0.5,-149 148.5,-149 "/>
<text text-anchor="start" x="7.5" y="-137" font-family="Helvetica,sans-Serif" font-size="10.00">+ EQ</text>
<text text-anchor="start" x="7.5" y="-126" font-family="Helvetica,sans-Serif" font-size="10.00">+ NE</text>
<text text-anchor="start" x="7.5" y="-115" font-family="Helvetica,sans-Serif" font-size="10.00">+ LE</text>
<text text-anchor="start" x="7.5" y="-104" font-family="Helvetica,sans-Serif" font-size="10.00">+ GE</text>
<text text-anchor="start" x="7.5" y="-93" font-family="Helvetica,sans-Serif" font-size="10.00">+ LT</text>
<text text-anchor="start" x="7.5" y="-82" font-family="Helvetica,sans-Serif" font-size="10.00">+ GT</text>
<text text-anchor="start" x="7.5" y="-71" font-family="Helvetica,sans-Serif" font-size="10.00">+ NULL_MATCHING_EQ</text>
<polyline fill="none" stroke="black" points="-0.5,-64 148.5,-64 "/>
<text text-anchor="start" x="7.5" y="-52" font-family="Helvetica,sans-Serif" font-size="10.00">+ toString()</text>
<text text-anchor="start" x="7.5" y="-41" font-family="Helvetica,sans-Serif" font-size="10.00">+ getName()</text>
<text text-anchor="start" x="7.5" y="-30" font-family="Helvetica,sans-Serif" font-size="10.00">+ getThriftOp()</text>
<text text-anchor="start" x="7.5" y="-19" font-family="Helvetica,sans-Serif" font-size="10.00">+ converse()</text>
<text text-anchor="start" x="7.5" y="-8" font-family="Helvetica,sans-Serif" font-size="10.00">&#45; Operator()</text>
</g>
<!-- Node2 -->
<g id="node2" class="node"><title>Node2</title>
<polygon fill="white" stroke="#bfbfbf" points="12,-238.5 12,-295.5 54,-295.5 54,-238.5 12,-238.5"/>
<text text-anchor="middle" x="33" y="-283.5" font-family="Helvetica,sans-Serif" font-size="10.00">String</text>
<polyline fill="none" stroke="#bfbfbf" points="12,-276.5 54,-276.5 "/>
<text text-anchor="middle" x="33" y="-264.5" font-family="Helvetica,sans-Serif" font-size="10.00"> </text>
<polyline fill="none" stroke="#bfbfbf" points="12,-257.5 54,-257.5 "/>
<text text-anchor="middle" x="33" y="-245.5" font-family="Helvetica,sans-Serif" font-size="10.00"> </text>
</g>
<!-- Node2&#45;&gt;Node1 -->
<g id="edge1" class="edge"><title>Node2&#45;&gt;Node1</title>
<path fill="none" stroke="#404040" d="M33.4624,-238.325C34.0719,-225.898 35.356,-211.112 38,-198 38.4649,-195.694 38.9653,-193.37 39.4969,-191.033"/>
<polygon fill="none" stroke="#404040" points="39.5218,-190.932 37.0744,-184.149 42.3944,-179.281 44.8418,-186.064 39.5218,-190.932"/>
<text text-anchor="middle" x="66" y="-212" font-family="Helvetica,sans-Serif" font-size="10.00"> &#45;name_</text>
<text text-anchor="middle" x="66" y="-201" font-family="Helvetica,sans-Serif" font-size="10.00">&#45;description_</text>
</g>
<!-- Node3 -->
<g id="node3" class="node"><title>Node3</title>
<polygon fill="white" stroke="#bfbfbf" points="72,-238.5 72,-295.5 160,-295.5 160,-238.5 72,-238.5"/>
<text text-anchor="middle" x="116" y="-283.5" font-family="Helvetica,sans-Serif" font-size="10.00">TComparisonOp</text>
<polyline fill="none" stroke="#bfbfbf" points="72,-276.5 160,-276.5 "/>
<text text-anchor="middle" x="116" y="-264.5" font-family="Helvetica,sans-Serif" font-size="10.00"> </text>
<polyline fill="none" stroke="#bfbfbf" points="72,-257.5 160,-257.5 "/>
<text text-anchor="middle" x="116" y="-245.5" font-family="Helvetica,sans-Serif" font-size="10.00"> </text>
</g>
<!-- Node3&#45;&gt;Node1 -->
<g id="edge2" class="edge"><title>Node3&#45;&gt;Node1</title>
<path fill="none" stroke="#404040" d="M109.345,-238.271C106.188,-225.115 102.202,-208.507 98.0532,-191.222"/>
<polygon fill="none" stroke="#404040" points="97.964,-190.85 92.6741,-185.949 95.1634,-179.181 100.453,-184.082 97.964,-190.85"/>
<text text-anchor="middle" x="127" y="-206.5" font-family="Helvetica,sans-Serif" font-size="10.00"> &#45;thriftOp_</text>
</g>
</g>
</svg>
