<?xml version="1.0" encoding="UTF-8" standalone="no"?>
<!DOCTYPE svg PUBLIC "-//W3C//DTD SVG 1.1//EN"
 "http://www.w3.org/Graphics/SVG/1.1/DTD/svg11.dtd">
<!-- Generated by graphviz version 2.36.0 (20140111.2315)
 -->
<!-- Title: com.cloudera.impala.analysis.AnalyticWindow.BoundaryType Pages: 1 -->
<svg width="164pt" height="304pt"
 viewBox="0.00 0.00 164.00 304.00" xmlns="http://www.w3.org/2000/svg" xmlns:xlink="http://www.w3.org/1999/xlink">
<g id="graph0" class="graph" transform="scale(1 1) rotate(0) translate(4 300)">
<title>com.cloudera.impala.analysis.AnalyticWindow.BoundaryType</title>
<polygon fill="white" stroke="none" points="-4,4 -4,-300 160,-300 160,4 -4,4"/>
<!-- Node1 -->
<g id="node1" class="node"><title>Node1</title>
<polygon fill="#bfbfbf" stroke="black" points="-1,-0.5 -1,-189.5 157,-189.5 157,-0.5 -1,-0.5"/>
<text text-anchor="start" x="7" y="-177.5" font-family="Helvetica,sans-Serif" font-size="10.00">com.cloudera.impala.analysis.</text>
<text text-anchor="middle" x="78" y="-166.5" font-family="Helvetica,sans-Serif" font-size="10.00">AnalyticWindow.BoundaryType</text>
<polyline fill="none" stroke="black" points="-1,-159.5 157,-159.5 "/>
<text text-anchor="start" x="7" y="-147.5" font-family="Helvetica,sans-Serif" font-size="10.00">+ UNBOUNDED_PRECEDING</text>
<text text-anchor="start" x="7" y="-136.5" font-family="Helvetica,sans-Serif" font-size="10.00">+ UNBOUNDED_FOLLOWING</text>
<text text-anchor="start" x="7" y="-125.5" font-family="Helvetica,sans-Serif" font-size="10.00">+ CURRENT_ROW</text>
<text text-anchor="start" x="7" y="-114.5" font-family="Helvetica,sans-Serif" font-size="10.00">+ PRECEDING</text>
<text text-anchor="start" x="7" y="-103.5" font-family="Helvetica,sans-Serif" font-size="10.00">+ FOLLOWING</text>
<polyline fill="none" stroke="black" points="-1,-96.5 157,-96.5 "/>
<text text-anchor="start" x="7" y="-84.5" font-family="Helvetica,sans-Serif" font-size="10.00">+ toString()</text>
<text text-anchor="start" x="7" y="-73.5" font-family="Helvetica,sans-Serif" font-size="10.00">+ toThrift()</text>
<text text-anchor="start" x="7" y="-62.5" font-family="Helvetica,sans-Serif" font-size="10.00">+ isAbsolutePos()</text>
<text text-anchor="start" x="7" y="-51.5" font-family="Helvetica,sans-Serif" font-size="10.00">+ isOffset()</text>
<text text-anchor="start" x="7" y="-40.5" font-family="Helvetica,sans-Serif" font-size="10.00">+ isPreceding()</text>
<text text-anchor="start" x="7" y="-29.5" font-family="Helvetica,sans-Serif" font-size="10.00">+ isFollowing()</text>
<text text-anchor="start" x="7" y="-18.5" font-family="Helvetica,sans-Serif" font-size="10.00">+ converse()</text>
<text text-anchor="start" x="7" y="-7.5" font-family="Helvetica,sans-Serif" font-size="10.00">&#45; BoundaryType()</text>
</g>
<!-- Node2 -->
<g id="node2" class="node"><title>Node2</title>
<polygon fill="white" stroke="#bfbfbf" points="57,-238.5 57,-295.5 99,-295.5 99,-238.5 57,-238.5"/>
<text text-anchor="middle" x="78" y="-283.5" font-family="Helvetica,sans-Serif" font-size="10.00">String</text>
<polyline fill="none" stroke="#bfbfbf" points="57,-276.5 99,-276.5 "/>
<text text-anchor="middle" x="78" y="-264.5" font-family="Helvetica,sans-Serif" font-size="10.00"> </text>
<polyline fill="none" stroke="#bfbfbf" points="57,-257.5 99,-257.5 "/>
<text text-anchor="middle" x="78" y="-245.5" font-family="Helvetica,sans-Serif" font-size="10.00"> </text>
</g>
<!-- Node2&#45;&gt;Node1 -->
<g id="edge1" class="edge"><title>Node2&#45;&gt;Node1</title>
<path fill="none" stroke="#404040" d="M78,-238.308C78,-227.757 78,-215 78,-201.51"/>
<polygon fill="none" stroke="#404040" points="78.0001,-201.504 74,-195.504 78,-189.504 82,-195.504 78.0001,-201.504"/>
<text text-anchor="middle" x="107.5" y="-211.5" font-family="Helvetica,sans-Serif" font-size="10.00"> &#45;description_</text>
</g>
</g>
</svg>
