<?xml version="1.0" encoding="UTF-8" standalone="no"?>
<!DOCTYPE svg PUBLIC "-//W3C//DTD SVG 1.1//EN"
 "http://www.w3.org/Graphics/SVG/1.1/DTD/svg11.dtd">
<!-- Generated by graphviz version 2.36.0 (20140111.2315)
 -->
<!-- Title: be/src/exec/exchange&#45;node.h Pages: 1 -->
<svg width="398pt" height="108pt"
 viewBox="0.00 0.00 398.00 108.00" xmlns="http://www.w3.org/2000/svg" xmlns:xlink="http://www.w3.org/1999/xlink">
<g id="graph0" class="graph" transform="scale(1 1) rotate(0) translate(4 104)">
<title>be/src/exec/exchange&#45;node.h</title>
<polygon fill="white" stroke="none" points="-4,4 -4,-104 394,-104 394,4 -4,4"/>
<!-- Node1 -->
<g id="node1" class="node"><title>Node1</title>
<polygon fill="#bfbfbf" stroke="black" points="138.5,-69 138.5,-99 251.5,-99 251.5,-69 138.5,-69"/>
<text text-anchor="start" x="146.5" y="-87" font-family="Helvetica,sans-Serif" font-size="10.00">be/src/exec/exchange</text>
<text text-anchor="middle" x="195" y="-76" font-family="Helvetica,sans-Serif" font-size="10.00">&#45;node.h</text>
</g>
<!-- Node2 -->
<g id="node2" class="node"><title>Node2</title>
<g id="a_node2"><a xlink:href="exchange-node_8cc.html" target="_top" xlink:title="be/src/exec/exchange\l&#45;node.cc">
<polygon fill="white" stroke="black" points="-0.5,-1 -0.5,-31 112.5,-31 112.5,-1 -0.5,-1"/>
<text text-anchor="start" x="7.5" y="-19" font-family="Helvetica,sans-Serif" font-size="10.00">be/src/exec/exchange</text>
<text text-anchor="middle" x="56" y="-8" font-family="Helvetica,sans-Serif" font-size="10.00">&#45;node.cc</text>
</a>
</g>
</g>
<!-- Node1&#45;&gt;Node2 -->
<g id="edge1" class="edge"><title>Node1&#45;&gt;Node2</title>
<path fill="none" stroke="midnightblue" d="M155.997,-64.4805C133.741,-53.9128 106.28,-40.8738 85.7697,-31.1352"/>
<polygon fill="midnightblue" stroke="midnightblue" points="154.646,-67.7137 165.181,-68.8413 157.649,-61.3904 154.646,-67.7137"/>
</g>
<!-- Node3 -->
<g id="node3" class="node"><title>Node3</title>
<g id="a_node3"><a xlink:href="exec-node_8cc.html" target="_top" xlink:title="be/src/exec/exec&#45;node.cc">
<polygon fill="white" stroke="black" points="130.5,-6.5 130.5,-25.5 259.5,-25.5 259.5,-6.5 130.5,-6.5"/>
<text text-anchor="middle" x="195" y="-13.5" font-family="Helvetica,sans-Serif" font-size="10.00">be/src/exec/exec&#45;node.cc</text>
</a>
</g>
</g>
<!-- Node1&#45;&gt;Node3 -->
<g id="edge2" class="edge"><title>Node1&#45;&gt;Node3</title>
<path fill="none" stroke="midnightblue" d="M195,-58.3764C195,-46.9711 195,-34.1364 195,-25.8283"/>
<polygon fill="midnightblue" stroke="midnightblue" points="191.5,-58.6789 195,-68.679 198.5,-58.679 191.5,-58.6789"/>
</g>
<!-- Node4 -->
<g id="node4" class="node"><title>Node4</title>
<g id="a_node4"><a xlink:href="plan-fragment-executor_8cc.html" target="_top" xlink:title="be/src/runtime/plan\l&#45;fragment&#45;executor.cc">
<polygon fill="white" stroke="black" points="278,-1 278,-31 390,-31 390,-1 278,-1"/>
<text text-anchor="start" x="286" y="-19" font-family="Helvetica,sans-Serif" font-size="10.00">be/src/runtime/plan</text>
<text text-anchor="middle" x="334" y="-8" font-family="Helvetica,sans-Serif" font-size="10.00">&#45;fragment&#45;executor.cc</text>
</a>
</g>
</g>
<!-- Node1&#45;&gt;Node4 -->
<g id="edge3" class="edge"><title>Node1&#45;&gt;Node4</title>
<path fill="none" stroke="midnightblue" d="M234.003,-64.4805C256.259,-53.9128 283.72,-40.8738 304.23,-31.1352"/>
<polygon fill="midnightblue" stroke="midnightblue" points="232.351,-61.3904 224.819,-68.8413 235.354,-67.7137 232.351,-61.3904"/>
</g>
</g>
</svg>
