<?xml version="1.0" encoding="UTF-8" standalone="no"?>
<!DOCTYPE svg PUBLIC "-//W3C//DTD SVG 1.1//EN"
 "http://www.w3.org/Graphics/SVG/1.1/DTD/svg11.dtd">
<!-- Generated by graphviz version 2.36.0 (20140111.2315)
 -->
<!-- Title: be/src/exec/exec&#45;node.h Pages: 1 -->
<svg width="2181pt" height="356pt"
 viewBox="0.00 0.00 2181.00 356.00" xmlns="http://www.w3.org/2000/svg" xmlns:xlink="http://www.w3.org/1999/xlink">
<g id="graph0" class="graph" transform="scale(1 1) rotate(0) translate(4 352)">
<title>be/src/exec/exec&#45;node.h</title>
<polygon fill="white" stroke="none" points="-4,4 -4,-352 2177,-352 2177,4 -4,4"/>
<!-- Node1 -->
<g id="node1" class="node"><title>Node1</title>
<polygon fill="#bfbfbf" stroke="black" points="660,-328.5 660,-347.5 784,-347.5 784,-328.5 660,-328.5"/>
<text text-anchor="middle" x="722" y="-335.5" font-family="Helvetica,sans-Serif" font-size="10.00">be/src/exec/exec&#45;node.h</text>
</g>
<!-- Node2 -->
<g id="node2" class="node"><title>Node2</title>
<polygon fill="white" stroke="#bfbfbf" points="910,-6.5 910,-25.5 954,-25.5 954,-6.5 910,-6.5"/>
<text text-anchor="middle" x="932" y="-13.5" font-family="Helvetica,sans-Serif" font-size="10.00">vector</text>
</g>
<!-- Node1&#45;&gt;Node2 -->
<g id="edge1" class="edge"><title>Node1&#45;&gt;Node2</title>
<path fill="none" stroke="midnightblue" d="M721.389,-328.346C720.206,-306.281 719.39,-246.654 741,-204 762.333,-161.892 870.379,-68.6156 913.848,-32.0874"/>
<polygon fill="midnightblue" stroke="midnightblue" points="916.214,-34.6722 921.636,-25.5704 911.721,-29.3038 916.214,-34.6722"/>
</g>
<!-- Node3 -->
<g id="node3" class="node"><title>Node3</title>
<polygon fill="white" stroke="#bfbfbf" points="604,-272.5 604,-291.5 656,-291.5 656,-272.5 604,-272.5"/>
<text text-anchor="middle" x="630" y="-279.5" font-family="Helvetica,sans-Serif" font-size="10.00">sstream</text>
</g>
<!-- Node1&#45;&gt;Node3 -->
<g id="edge2" class="edge"><title>Node1&#45;&gt;Node3</title>
<path fill="none" stroke="midnightblue" d="M707.219,-328.324C692.733,-319.822 670.427,-306.729 653.507,-296.797"/>
<polygon fill="midnightblue" stroke="midnightblue" points="655.141,-293.698 644.745,-291.655 651.597,-299.735 655.141,-293.698"/>
</g>
<!-- Node4 -->
<g id="node4" class="node"><title>Node4</title>
<g id="a_node4"><a xlink:href="status_8h.html" target="_top" xlink:title="common/status.h">
<polygon fill="white" stroke="black" points="642,-142.5 642,-161.5 734,-161.5 734,-142.5 642,-142.5"/>
<text text-anchor="middle" x="688" y="-149.5" font-family="Helvetica,sans-Serif" font-size="10.00">common/status.h</text>
</a>
</g>
</g>
<!-- Node1&#45;&gt;Node4 -->
<g id="edge3" class="edge"><title>Node1&#45;&gt;Node4</title>
<path fill="none" stroke="midnightblue" d="M718.905,-328.483C715.752,-319.515 710.922,-304.929 708,-292 698.403,-249.534 692.463,-198.677 689.748,-171.8"/>
<polygon fill="midnightblue" stroke="midnightblue" points="693.203,-171.163 688.753,-161.547 686.236,-171.839 693.203,-171.163"/>
</g>
<!-- Node20 -->
<g id="node20" class="node"><title>Node20</title>
<g id="a_node20"><a xlink:href="descriptors_8h.html" target="_top" xlink:title="runtime/descriptors.h">
<polygon fill="white" stroke="black" points="460,-210.5 460,-229.5 568,-229.5 568,-210.5 460,-210.5"/>
<text text-anchor="middle" x="514" y="-217.5" font-family="Helvetica,sans-Serif" font-size="10.00">runtime/descriptors.h</text>
</a>
</g>
</g>
<!-- Node1&#45;&gt;Node20 -->
<g id="edge24" class="edge"><title>Node1&#45;&gt;Node20</title>
<path fill="none" stroke="midnightblue" d="M687.032,-328.477C660.612,-321.141 624.061,-309.032 595,-292 569.171,-276.863 543.97,-252.891 528.712,-237.055"/>
<polygon fill="midnightblue" stroke="midnightblue" points="531.095,-234.48 521.689,-229.605 526.002,-239.282 531.095,-234.48"/>
</g>
<!-- Node28 -->
<g id="node28" class="node"><title>Node28</title>
<g id="a_node28"><a xlink:href="runtime-profile_8h.html" target="_top" xlink:title="util/runtime&#45;profile.h">
<polygon fill="white" stroke="black" points="1199,-272.5 1199,-291.5 1301,-291.5 1301,-272.5 1199,-272.5"/>
<text text-anchor="middle" x="1250" y="-279.5" font-family="Helvetica,sans-Serif" font-size="10.00">util/runtime&#45;profile.h</text>
</a>
</g>
</g>
<!-- Node1&#45;&gt;Node28 -->
<g id="edge38" class="edge"><title>Node1&#45;&gt;Node28</title>
<path fill="none" stroke="midnightblue" d="M784.121,-330.647C885.984,-320.229 1087.31,-299.639 1188.66,-289.273"/>
<polygon fill="midnightblue" stroke="midnightblue" points="1189.15,-292.742 1198.74,-288.243 1188.44,-285.778 1189.15,-292.742"/>
</g>
<!-- Node46 -->
<g id="node46" class="node"><title>Node46</title>
<g id="a_node46"><a xlink:href="blocking-queue_8h.html" target="_top" xlink:title="util/blocking&#45;queue.h">
<polygon fill="white" stroke="black" points="1830,-272.5 1830,-291.5 1936,-291.5 1936,-272.5 1830,-272.5"/>
<text text-anchor="middle" x="1883" y="-279.5" font-family="Helvetica,sans-Serif" font-size="10.00">util/blocking&#45;queue.h</text>
</a>
</g>
</g>
<!-- Node1&#45;&gt;Node46 -->
<g id="edge69" class="edge"><title>Node1&#45;&gt;Node46</title>
<path fill="none" stroke="midnightblue" d="M784.01,-334.116C984.922,-324.771 1616.68,-295.387 1819.59,-285.949"/>
<polygon fill="midnightblue" stroke="midnightblue" points="1819.95,-289.436 1829.78,-285.475 1819.63,-282.444 1819.95,-289.436"/>
</g>
<!-- Node50 -->
<g id="node50" class="node"><title>Node50</title>
<polygon fill="white" stroke="#bfbfbf" points="1954,-272.5 1954,-291.5 2094,-291.5 2094,-272.5 1954,-272.5"/>
<text text-anchor="middle" x="2024" y="-279.5" font-family="Helvetica,sans-Serif" font-size="10.00">gen&#45;cpp/PlanNodes_types.h</text>
</g>
<!-- Node1&#45;&gt;Node50 -->
<g id="edge75" class="edge"><title>Node1&#45;&gt;Node50</title>
<path fill="none" stroke="midnightblue" d="M784.084,-336.362C962.529,-334.177 1492.37,-325.22 1943.81,-291.942"/>
<polygon fill="midnightblue" stroke="midnightblue" points="1944.07,-295.432 1953.79,-291.201 1943.56,-288.451 1944.07,-295.432"/>
</g>
<!-- Node4&#45;&gt;Node2 -->
<g id="edge5" class="edge"><title>Node4&#45;&gt;Node2</title>
<path fill="none" stroke="midnightblue" d="M691.683,-142.384C699.439,-125.323 719.151,-87.232 748,-68 806.125,-29.2516 835.162,-55.3541 901,-32 902.86,-31.3404 904.755,-30.6016 906.646,-29.815"/>
<polygon fill="midnightblue" stroke="midnightblue" points="908.216,-32.9461 915.877,-25.6286 905.325,-26.571 908.216,-32.9461"/>
</g>
<!-- Node5 -->
<g id="node5" class="node"><title>Node5</title>
<polygon fill="white" stroke="#bfbfbf" points="27.5,-6.5 27.5,-25.5 68.5,-25.5 68.5,-6.5 27.5,-6.5"/>
<text text-anchor="middle" x="48" y="-13.5" font-family="Helvetica,sans-Serif" font-size="10.00">string</text>
</g>
<!-- Node4&#45;&gt;Node5 -->
<g id="edge4" class="edge"><title>Node4&#45;&gt;Node5</title>
<path fill="none" stroke="midnightblue" d="M659.624,-142.498C651.118,-140.156 641.729,-137.775 633,-136 516.525,-112.312 481.786,-134.357 368,-100 336.792,-90.5771 333.091,-77.8019 302,-68 205.833,-37.6818 173.98,-62.904 78,-32 76.0877,-31.3843 74.146,-30.6621 72.2175,-29.8733"/>
<polygon fill="midnightblue" stroke="midnightblue" points="73.4286,-26.5774 62.8828,-25.5591 70.4919,-32.9316 73.4286,-26.5774"/>
</g>
<!-- Node6 -->
<g id="node6" class="node"><title>Node6</title>
<polygon fill="white" stroke="#bfbfbf" points="778,-6.5 778,-25.5 892,-25.5 892,-6.5 778,-6.5"/>
<text text-anchor="middle" x="835" y="-13.5" font-family="Helvetica,sans-Serif" font-size="10.00">boost/lexical_cast.hpp</text>
</g>
<!-- Node4&#45;&gt;Node6 -->
<g id="edge6" class="edge"><title>Node4&#45;&gt;Node6</title>
<path fill="none" stroke="midnightblue" d="M687.89,-142.32C688.145,-125.81 691.002,-89.6064 710,-68 721.852,-54.5211 764.263,-38.9161 796.426,-28.5533"/>
<polygon fill="midnightblue" stroke="midnightblue" points="797.555,-31.8672 806.034,-25.5138 795.444,-25.1932 797.555,-31.8672"/>
</g>
<!-- Node7 -->
<g id="node7" class="node"><title>Node7</title>
<g id="a_node7"><a xlink:href="logging_8h.html" target="_top" xlink:title="common/logging.h">
<polygon fill="white" stroke="black" points="1500,-74.5 1500,-93.5 1596,-93.5 1596,-74.5 1500,-74.5"/>
<text text-anchor="middle" x="1548" y="-81.5" font-family="Helvetica,sans-Serif" font-size="10.00">common/logging.h</text>
</a>
</g>
</g>
<!-- Node4&#45;&gt;Node7 -->
<g id="edge7" class="edge"><title>Node4&#45;&gt;Node7</title>
<path fill="none" stroke="midnightblue" d="M734.024,-145.227C759.116,-142.206 790.734,-138.606 819,-136 1068.14,-113.033 1366.04,-95.1861 1489.73,-88.2002"/>
<polygon fill="midnightblue" stroke="midnightblue" points="1489.96,-91.6931 1499.74,-87.6369 1489.56,-84.7041 1489.96,-91.6931"/>
</g>
<!-- Node10 -->
<g id="node10" class="node"><title>Node10</title>
<g id="a_node10"><a xlink:href="compiler-util_8h.html" target="_top" xlink:title="common/compiler&#45;util.h">
<polygon fill="white" stroke="black" points="1743,-6.5 1743,-25.5 1861,-25.5 1861,-6.5 1743,-6.5"/>
<text text-anchor="middle" x="1802" y="-13.5" font-family="Helvetica,sans-Serif" font-size="10.00">common/compiler&#45;util.h</text>
</a>
</g>
</g>
<!-- Node4&#45;&gt;Node10 -->
<g id="edge10" class="edge"><title>Node4&#45;&gt;Node10</title>
<path fill="none" stroke="midnightblue" d="M734.001,-144.955C759.086,-141.855 790.705,-138.265 819,-136 993.292,-122.046 1434.45,-138.543 1605,-100 1670.46,-85.2055 1741.74,-49.8951 1777.96,-30.4365"/>
<polygon fill="midnightblue" stroke="midnightblue" points="1779.69,-33.4805 1786.8,-25.6256 1776.34,-27.3322 1779.69,-33.4805"/>
</g>
<!-- Node11 -->
<g id="node11" class="node"><title>Node11</title>
<polygon fill="white" stroke="#bfbfbf" points="538,-74.5 538,-93.5 658,-93.5 658,-74.5 538,-74.5"/>
<text text-anchor="middle" x="598" y="-81.5" font-family="Helvetica,sans-Serif" font-size="10.00">gen&#45;cpp/Status_types.h</text>
</g>
<!-- Node4&#45;&gt;Node11 -->
<g id="edge11" class="edge"><title>Node4&#45;&gt;Node11</title>
<path fill="none" stroke="midnightblue" d="M676.234,-142.372C661.411,-131.502 635.718,-112.66 617.837,-99.5474"/>
<polygon fill="midnightblue" stroke="midnightblue" points="619.903,-96.7217 609.769,-93.6305 615.763,-102.367 619.903,-96.7217"/>
</g>
<!-- Node12 -->
<g id="node12" class="node"><title>Node12</title>
<polygon fill="white" stroke="#bfbfbf" points="87,-1 87,-31 191,-31 191,-1 87,-1"/>
<text text-anchor="start" x="95" y="-19" font-family="Helvetica,sans-Serif" font-size="10.00">gen&#45;cpp/ErrorCodes</text>
<text text-anchor="middle" x="139" y="-8" font-family="Helvetica,sans-Serif" font-size="10.00">_types.h</text>
</g>
<!-- Node4&#45;&gt;Node12 -->
<g id="edge12" class="edge"><title>Node4&#45;&gt;Node12</title>
<path fill="none" stroke="midnightblue" d="M658.432,-142.432C650.232,-140.193 641.301,-137.883 633,-136 545.773,-116.215 520.105,-127.516 435,-100 403.601,-89.8478 399.237,-78.6414 368,-68 298.682,-44.3858 276.251,-48.699 201.152,-32.1868"/>
<polygon fill="midnightblue" stroke="midnightblue" points="201.743,-28.7325 191.219,-29.95 200.206,-35.5614 201.743,-28.7325"/>
</g>
<!-- Node13 -->
<g id="node13" class="node"><title>Node13</title>
<polygon fill="white" stroke="#bfbfbf" points="184.5,-69 184.5,-99 293.5,-99 293.5,-69 184.5,-69"/>
<text text-anchor="start" x="192.5" y="-87" font-family="Helvetica,sans-Serif" font-size="10.00">gen&#45;cpp/TCLIService</text>
<text text-anchor="middle" x="239" y="-76" font-family="Helvetica,sans-Serif" font-size="10.00">_types.h</text>
</g>
<!-- Node4&#45;&gt;Node13 -->
<g id="edge13" class="edge"><title>Node4&#45;&gt;Node13</title>
<path fill="none" stroke="midnightblue" d="M659.639,-142.427C651.133,-140.084 641.74,-137.719 633,-136 504.266,-110.674 470.01,-117.638 340,-100 328.266,-98.4081 315.78,-96.6257 303.732,-94.8606"/>
<polygon fill="midnightblue" stroke="midnightblue" points="304.145,-91.3837 293.741,-93.3866 303.123,-98.3088 304.145,-91.3837"/>
</g>
<!-- Node14 -->
<g id="node14" class="node"><title>Node14</title>
<g id="a_node14"><a xlink:href="error-util_8h.html" target="_top" xlink:title="util/error&#45;util.h">
<polygon fill="white" stroke="black" points="444,-74.5 444,-93.5 520,-93.5 520,-74.5 444,-74.5"/>
<text text-anchor="middle" x="482" y="-81.5" font-family="Helvetica,sans-Serif" font-size="10.00">util/error&#45;util.h</text>
</a>
</g>
</g>
<!-- Node4&#45;&gt;Node14 -->
<g id="edge14" class="edge"><title>Node4&#45;&gt;Node14</title>
<path fill="none" stroke="midnightblue" d="M661.069,-142.372C624.496,-130.654 559.012,-109.674 518.179,-96.5912"/>
<polygon fill="midnightblue" stroke="midnightblue" points="519.202,-93.2439 508.611,-93.5259 517.066,-99.9102 519.202,-93.2439"/>
</g>
<!-- Node8 -->
<g id="node8" class="node"><title>Node8</title>
<polygon fill="white" stroke="#bfbfbf" points="1371.5,-6.5 1371.5,-25.5 1448.5,-25.5 1448.5,-6.5 1371.5,-6.5"/>
<text text-anchor="middle" x="1410" y="-13.5" font-family="Helvetica,sans-Serif" font-size="10.00">glog/logging.h</text>
</g>
<!-- Node7&#45;&gt;Node8 -->
<g id="edge8" class="edge"><title>Node7&#45;&gt;Node8</title>
<path fill="none" stroke="midnightblue" d="M1529.96,-74.3717C1506.3,-63.0569 1464.58,-43.1053 1437.11,-29.9678"/>
<polygon fill="midnightblue" stroke="midnightblue" points="1438.58,-26.7876 1428.05,-25.6305 1435.56,-33.1025 1438.58,-26.7876"/>
</g>
<!-- Node9 -->
<g id="node9" class="node"><title>Node9</title>
<polygon fill="white" stroke="#bfbfbf" points="1577,-6.5 1577,-25.5 1657,-25.5 1657,-6.5 1577,-6.5"/>
<text text-anchor="middle" x="1617" y="-13.5" font-family="Helvetica,sans-Serif" font-size="10.00">gflags/gflags.h</text>
</g>
<!-- Node7&#45;&gt;Node9 -->
<g id="edge9" class="edge"><title>Node7&#45;&gt;Node9</title>
<path fill="none" stroke="midnightblue" d="M1557.02,-74.3717C1568.01,-63.8564 1586.81,-45.8819 1600.43,-32.8496"/>
<polygon fill="midnightblue" stroke="midnightblue" points="1602.95,-35.2826 1607.76,-25.8411 1598.11,-30.2241 1602.95,-35.2826"/>
</g>
<!-- Node14&#45;&gt;Node2 -->
<g id="edge16" class="edge"><title>Node14&#45;&gt;Node2</title>
<path fill="none" stroke="midnightblue" d="M505.649,-74.3725C513.04,-71.9698 521.281,-69.5864 529,-68 691.705,-34.5601 741.071,-76.8765 901,-32 903.198,-31.3832 905.431,-30.6166 907.638,-29.7586"/>
<polygon fill="midnightblue" stroke="midnightblue" points="909.265,-32.8654 916.97,-25.5939 906.412,-26.473 909.265,-32.8654"/>
</g>
<!-- Node14&#45;&gt;Node5 -->
<g id="edge15" class="edge"><title>Node14&#45;&gt;Node5</title>
<path fill="none" stroke="midnightblue" d="M443.749,-77.8959C421.623,-74.9613 393.246,-71.2279 368,-68 239.171,-51.5283 202.321,-69.5839 78,-32 76.0352,-31.406 74.0427,-30.6912 72.0673,-29.9001"/>
<polygon fill="midnightblue" stroke="midnightblue" points="73.0888,-26.5173 62.5415,-25.5151 70.1617,-32.876 73.0888,-26.5173"/>
</g>
<!-- Node14&#45;&gt;Node6 -->
<g id="edge18" class="edge"><title>Node14&#45;&gt;Node6</title>
<path fill="none" stroke="midnightblue" d="M506.187,-74.4648C513.455,-72.1225 521.492,-69.7492 529,-68 634.046,-43.5248 663.004,-51.9659 769,-32 775.75,-30.7286 782.858,-29.2557 789.81,-27.7397"/>
<polygon fill="midnightblue" stroke="midnightblue" points="790.824,-31.0996 799.821,-25.5062 789.299,-24.2676 790.824,-31.0996"/>
</g>
<!-- Node14&#45;&gt;Node12 -->
<g id="edge20" class="edge"><title>Node14&#45;&gt;Node12</title>
<path fill="none" stroke="midnightblue" d="M450.042,-74.4805C441.01,-72.2174 431.15,-69.8821 422,-68 327.249,-48.5098 299.704,-51.7118 201.257,-32.1549"/>
<polygon fill="midnightblue" stroke="midnightblue" points="201.676,-28.669 191.181,-30.1238 200.292,-35.5309 201.676,-28.669"/>
</g>
<!-- Node15 -->
<g id="node15" class="node"><title>Node15</title>
<polygon fill="white" stroke="#bfbfbf" points="1467,-6.5 1467,-25.5 1559,-25.5 1559,-6.5 1467,-6.5"/>
<text text-anchor="middle" x="1513" y="-13.5" font-family="Helvetica,sans-Serif" font-size="10.00">boost/cstdint.hpp</text>
</g>
<!-- Node14&#45;&gt;Node15 -->
<g id="edge17" class="edge"><title>Node14&#45;&gt;Node15</title>
<path fill="none" stroke="midnightblue" d="M504.638,-74.4129C512.267,-71.8873 520.901,-69.4223 529,-68 935.533,3.39738 1048.9,-93.7807 1457,-32 1463.27,-31.0509 1469.84,-29.6605 1476.2,-28.1035"/>
<polygon fill="midnightblue" stroke="midnightblue" points="1477.13,-31.4777 1485.91,-25.5591 1475.35,-24.7059 1477.13,-31.4777"/>
</g>
<!-- Node16 -->
<g id="node16" class="node"><title>Node16</title>
<polygon fill="white" stroke="#bfbfbf" points="638,-1 638,-31 760,-31 760,-1 638,-1"/>
<text text-anchor="start" x="646" y="-19" font-family="Helvetica,sans-Serif" font-size="10.00">gen&#45;cpp/CatalogObjects</text>
<text text-anchor="middle" x="699" y="-8" font-family="Helvetica,sans-Serif" font-size="10.00">_types.h</text>
</g>
<!-- Node14&#45;&gt;Node16 -->
<g id="edge19" class="edge"><title>Node14&#45;&gt;Node16</title>
<path fill="none" stroke="midnightblue" d="M508.817,-74.3521C515.41,-72.2509 522.454,-70.0262 529,-68 566.346,-56.4395 608.431,-43.8111 641.384,-34.0128"/>
<polygon fill="midnightblue" stroke="midnightblue" points="642.712,-37.2693 651.302,-31.0671 640.719,-30.559 642.712,-37.2693"/>
</g>
<!-- Node17 -->
<g id="node17" class="node"><title>Node17</title>
<polygon fill="white" stroke="#bfbfbf" points="209,-1 209,-31 313,-31 313,-1 209,-1"/>
<text text-anchor="start" x="217" y="-19" font-family="Helvetica,sans-Serif" font-size="10.00">gen&#45;cpp/ErrorCodes</text>
<text text-anchor="middle" x="261" y="-8" font-family="Helvetica,sans-Serif" font-size="10.00">_constants.h</text>
</g>
<!-- Node14&#45;&gt;Node17 -->
<g id="edge21" class="edge"><title>Node14&#45;&gt;Node17</title>
<path fill="none" stroke="midnightblue" d="M453.108,-74.3717C418.916,-64.1605 361.17,-46.9151 317.898,-33.9921"/>
<polygon fill="midnightblue" stroke="midnightblue" points="318.65,-30.5642 308.067,-31.0562 316.647,-37.2715 318.65,-30.5642"/>
</g>
<!-- Node18 -->
<g id="node18" class="node"><title>Node18</title>
<polygon fill="white" stroke="#bfbfbf" points="331.5,-1 331.5,-31 480.5,-31 480.5,-1 331.5,-1"/>
<text text-anchor="start" x="339.5" y="-19" font-family="Helvetica,sans-Serif" font-size="10.00">gen&#45;cpp/ImpalaInternalService</text>
<text text-anchor="middle" x="406" y="-8" font-family="Helvetica,sans-Serif" font-size="10.00">_types.h</text>
</g>
<!-- Node14&#45;&gt;Node18 -->
<g id="edge22" class="edge"><title>Node14&#45;&gt;Node18</title>
<path fill="none" stroke="midnightblue" d="M472.064,-74.3717C461.503,-65.2 444.407,-50.3536 430.253,-38.0615"/>
<polygon fill="midnightblue" stroke="midnightblue" points="432.175,-35.0957 422.33,-31.1815 427.586,-40.381 432.175,-35.0957"/>
</g>
<!-- Node19 -->
<g id="node19" class="node"><title>Node19</title>
<polygon fill="white" stroke="#bfbfbf" points="498.5,-6.5 498.5,-25.5 619.5,-25.5 619.5,-6.5 498.5,-6.5"/>
<text text-anchor="middle" x="559" y="-13.5" font-family="Helvetica,sans-Serif" font-size="10.00">gutil/strings/substitute.h</text>
</g>
<!-- Node14&#45;&gt;Node19 -->
<g id="edge23" class="edge"><title>Node14&#45;&gt;Node19</title>
<path fill="none" stroke="midnightblue" d="M492.066,-74.3717C504.449,-63.7581 525.697,-45.5453 540.934,-32.4855"/>
<polygon fill="midnightblue" stroke="midnightblue" points="543.371,-35.0065 548.685,-25.8411 538.815,-29.6917 543.371,-35.0065"/>
</g>
<!-- Node20&#45;&gt;Node2 -->
<g id="edge25" class="edge"><title>Node20&#45;&gt;Node2</title>
<path fill="none" stroke="midnightblue" d="M568.028,-212.697C627.071,-204.836 716.772,-189.732 743,-168 780.253,-137.133 750.08,-100.408 786,-68 825.765,-32.1236 851.205,-51.7171 901,-32 902.643,-31.3493 904.321,-30.6488 906.002,-29.9188"/>
<polygon fill="midnightblue" stroke="midnightblue" points="907.853,-32.9195 915.469,-25.5546 904.923,-26.5624 907.853,-32.9195"/>
</g>
<!-- Node20&#45;&gt;Node4 -->
<g id="edge29" class="edge"><title>Node20&#45;&gt;Node4</title>
<path fill="none" stroke="midnightblue" d="M536.747,-210.372C567.182,-198.827 621.319,-178.293 655.897,-165.177"/>
<polygon fill="midnightblue" stroke="midnightblue" points="657.414,-168.345 665.523,-161.526 654.931,-161.8 657.414,-168.345"/>
</g>
<!-- Node21 -->
<g id="node21" class="node"><title>Node21</title>
<polygon fill="white" stroke="#bfbfbf" points="320,-142.5 320,-161.5 418,-161.5 418,-142.5 320,-142.5"/>
<text text-anchor="middle" x="369" y="-149.5" font-family="Helvetica,sans-Serif" font-size="10.00">tr1/unordered_map</text>
</g>
<!-- Node20&#45;&gt;Node21 -->
<g id="edge26" class="edge"><title>Node20&#45;&gt;Node21</title>
<path fill="none" stroke="midnightblue" d="M495.044,-210.372C470.077,-199.007 425.969,-178.931 397.113,-165.796"/>
<polygon fill="midnightblue" stroke="midnightblue" points="398.512,-162.588 387.961,-161.63 395.612,-168.959 398.512,-162.588"/>
</g>
<!-- Node22 -->
<g id="node22" class="node"><title>Node22</title>
<polygon fill="white" stroke="#bfbfbf" points="828,-142.5 828,-161.5 938,-161.5 938,-142.5 828,-142.5"/>
<text text-anchor="middle" x="883" y="-149.5" font-family="Helvetica,sans-Serif" font-size="10.00">boost/scoped_ptr.hpp</text>
</g>
<!-- Node20&#45;&gt;Node22 -->
<g id="edge27" class="edge"><title>Node20&#45;&gt;Node22</title>
<path fill="none" stroke="midnightblue" d="M561.862,-210.439C629.469,-198.347 752.763,-176.294 825.331,-163.315"/>
<polygon fill="midnightblue" stroke="midnightblue" points="825.995,-166.752 835.223,-161.546 824.763,-159.861 825.995,-166.752"/>
</g>
<!-- Node23 -->
<g id="node23" class="node"><title>Node23</title>
<polygon fill="white" stroke="#bfbfbf" points="436,-142.5 436,-161.5 488,-161.5 488,-142.5 436,-142.5"/>
<text text-anchor="middle" x="462" y="-149.5" font-family="Helvetica,sans-Serif" font-size="10.00">ostream</text>
</g>
<!-- Node20&#45;&gt;Node23 -->
<g id="edge28" class="edge"><title>Node20&#45;&gt;Node23</title>
<path fill="none" stroke="midnightblue" d="M507.202,-210.372C499.149,-200.151 485.545,-182.884 475.36,-169.957"/>
<polygon fill="midnightblue" stroke="midnightblue" points="477.904,-167.53 468.966,-161.841 472.405,-171.862 477.904,-167.53"/>
</g>
<!-- Node24 -->
<g id="node24" class="node"><title>Node24</title>
<g id="a_node24"><a xlink:href="global-types_8h.html" target="_top" xlink:title="common/global&#45;types.h">
<polygon fill="white" stroke="black" points="506,-142.5 506,-161.5 624,-161.5 624,-142.5 506,-142.5"/>
<text text-anchor="middle" x="565" y="-149.5" font-family="Helvetica,sans-Serif" font-size="10.00">common/global&#45;types.h</text>
</a>
</g>
</g>
<!-- Node20&#45;&gt;Node24 -->
<g id="edge30" class="edge"><title>Node20&#45;&gt;Node24</title>
<path fill="none" stroke="midnightblue" d="M520.667,-210.372C528.565,-200.151 541.908,-182.884 551.897,-169.957"/>
<polygon fill="midnightblue" stroke="midnightblue" points="554.823,-171.894 558.168,-161.841 549.284,-167.614 554.823,-171.894"/>
</g>
<!-- Node25 -->
<g id="node25" class="node"><title>Node25</title>
<g id="a_node25"><a xlink:href="types_8h.html" target="_top" xlink:title="runtime/types.h">
<polygon fill="white" stroke="black" points="96,-142.5 96,-161.5 180,-161.5 180,-142.5 96,-142.5"/>
<text text-anchor="middle" x="138" y="-149.5" font-family="Helvetica,sans-Serif" font-size="10.00">runtime/types.h</text>
</a>
</g>
</g>
<!-- Node20&#45;&gt;Node25 -->
<g id="edge31" class="edge"><title>Node20&#45;&gt;Node25</title>
<path fill="none" stroke="midnightblue" d="M459.825,-212.695C394.979,-204.643 283.318,-189.176 189,-168 184.241,-166.932 179.274,-165.665 174.387,-164.328"/>
<polygon fill="midnightblue" stroke="midnightblue" points="175.138,-160.903 164.562,-161.524 173.218,-167.634 175.138,-160.903"/>
</g>
<!-- Node26 -->
<g id="node26" class="node"><title>Node26</title>
<polygon fill="white" stroke="#bfbfbf" points="-0.5,-74.5 -0.5,-93.5 118.5,-93.5 118.5,-74.5 -0.5,-74.5"/>
<text text-anchor="middle" x="59" y="-81.5" font-family="Helvetica,sans-Serif" font-size="10.00">gen&#45;cpp/Types_types.h</text>
</g>
<!-- Node20&#45;&gt;Node26 -->
<g id="edge37" class="edge"><title>Node20&#45;&gt;Node26</title>
<path fill="none" stroke="midnightblue" d="M459.704,-219.507C357.776,-219.359 142.996,-213.481 87,-168 67.758,-152.371 61.668,-122.993 59.7827,-103.712"/>
<polygon fill="midnightblue" stroke="midnightblue" points="63.2725,-103.442 59.0909,-93.7073 56.2891,-103.925 63.2725,-103.442"/>
</g>
<!-- Node27 -->
<g id="node27" class="node"><title>Node27</title>
<polygon fill="white" stroke="#bfbfbf" points="198,-137 198,-167 302,-167 302,-137 198,-137"/>
<text text-anchor="start" x="206" y="-155" font-family="Helvetica,sans-Serif" font-size="10.00">gen&#45;cpp/Descriptors</text>
<text text-anchor="middle" x="250" y="-144" font-family="Helvetica,sans-Serif" font-size="10.00">_types.h</text>
</g>
<!-- Node20&#45;&gt;Node27 -->
<g id="edge36" class="edge"><title>Node20&#45;&gt;Node27</title>
<path fill="none" stroke="midnightblue" d="M479.757,-210.439C437.422,-199.856 364.566,-181.641 312.236,-168.559"/>
<polygon fill="midnightblue" stroke="midnightblue" points="312.938,-165.127 302.388,-166.097 311.24,-171.918 312.938,-165.127"/>
</g>
<!-- Node25&#45;&gt;Node5 -->
<g id="edge32" class="edge"><title>Node25&#45;&gt;Node5</title>
<path fill="none" stroke="midnightblue" d="M139.081,-142.452C140.655,-126.476 141.934,-91.5765 127,-68 120.409,-57.5954 94.1423,-41.7381 73.6839,-30.4706"/>
<polygon fill="midnightblue" stroke="midnightblue" points="75.2447,-27.3356 64.7844,-25.6527 71.9121,-33.4914 75.2447,-27.3356"/>
</g>
<!-- Node25&#45;&gt;Node7 -->
<g id="edge33" class="edge"><title>Node25&#45;&gt;Node7</title>
<path fill="none" stroke="midnightblue" d="M162.358,-142.497C170.703,-139.945 180.165,-137.442 189,-136 445.045,-94.2116 1262.97,-86.586 1489.41,-85.2644"/>
<polygon fill="midnightblue" stroke="midnightblue" points="1489.76,-88.7626 1499.74,-85.2061 1489.72,-81.7627 1489.76,-88.7626"/>
</g>
<!-- Node25&#45;&gt;Node13 -->
<g id="edge35" class="edge"><title>Node25&#45;&gt;Node13</title>
<path fill="none" stroke="midnightblue" d="M151.204,-142.372C165.764,-132.857 189.67,-117.236 208.862,-104.694"/>
<polygon fill="midnightblue" stroke="midnightblue" points="210.842,-107.582 217.298,-99.1815 207.012,-101.722 210.842,-107.582"/>
</g>
<!-- Node25&#45;&gt;Node26 -->
<g id="edge34" class="edge"><title>Node25&#45;&gt;Node26</title>
<path fill="none" stroke="midnightblue" d="M127.672,-142.372C114.898,-131.699 92.9254,-113.343 77.2757,-100.268"/>
<polygon fill="midnightblue" stroke="midnightblue" points="79.2487,-97.3559 69.3304,-93.6305 74.7607,-102.728 79.2487,-97.3559"/>
</g>
<!-- Node28&#45;&gt;Node7 -->
<g id="edge49" class="edge"><title>Node28&#45;&gt;Node7</title>
<path fill="none" stroke="midnightblue" d="M1301.3,-281.732C1383.98,-281.692 1541,-276.166 1576,-236 1609.19,-197.911 1577.91,-133.476 1559.41,-102.567"/>
<polygon fill="midnightblue" stroke="midnightblue" points="1562.2,-100.431 1553.95,-93.7855 1556.26,-104.126 1562.2,-100.431"/>
</g>
<!-- Node28&#45;&gt;Node22 -->
<g id="edge40" class="edge"><title>Node28&#45;&gt;Node22</title>
<path fill="none" stroke="midnightblue" d="M1198.82,-279.454C1119.07,-276.136 969.842,-265.999 927,-236 905.009,-220.601 893.107,-190.688 887.411,-171.294"/>
<polygon fill="midnightblue" stroke="midnightblue" points="890.763,-170.279 884.803,-161.519 883.999,-172.084 890.763,-170.279"/>
</g>
<!-- Node29 -->
<g id="node29" class="node"><title>Node29</title>
<polygon fill="white" stroke="#bfbfbf" points="1161.5,-142.5 1161.5,-161.5 1258.5,-161.5 1258.5,-142.5 1161.5,-142.5"/>
<text text-anchor="middle" x="1210" y="-149.5" font-family="Helvetica,sans-Serif" font-size="10.00">boost/function.hpp</text>
</g>
<!-- Node28&#45;&gt;Node29 -->
<g id="edge39" class="edge"><title>Node28&#45;&gt;Node29</title>
<path fill="none" stroke="midnightblue" d="M1247.25,-272.202C1240.77,-251.459 1224.42,-199.144 1215.69,-171.222"/>
<polygon fill="midnightblue" stroke="midnightblue" points="1218.99,-170.023 1212.66,-161.522 1212.31,-172.111 1218.99,-170.023"/>
</g>
<!-- Node30 -->
<g id="node30" class="node"><title>Node30</title>
<polygon fill="white" stroke="#bfbfbf" points="1276.5,-142.5 1276.5,-161.5 1395.5,-161.5 1395.5,-142.5 1276.5,-142.5"/>
<text text-anchor="middle" x="1336" y="-149.5" font-family="Helvetica,sans-Serif" font-size="10.00">boost/thread/mutex.hpp</text>
</g>
<!-- Node28&#45;&gt;Node30 -->
<g id="edge41" class="edge"><title>Node28&#45;&gt;Node30</title>
<path fill="none" stroke="midnightblue" d="M1250.3,-272.168C1251.2,-257.022 1254.79,-225.638 1269,-204 1279.27,-188.363 1296.01,-175.615 1310.19,-166.776"/>
<polygon fill="midnightblue" stroke="midnightblue" points="1312.22,-169.643 1319.05,-161.54 1308.66,-163.617 1312.22,-169.643"/>
</g>
<!-- Node31 -->
<g id="node31" class="node"><title>Node31</title>
<polygon fill="white" stroke="#bfbfbf" points="750.5,-210.5 750.5,-229.5 879.5,-229.5 879.5,-210.5 750.5,-210.5"/>
<text text-anchor="middle" x="815" y="-217.5" font-family="Helvetica,sans-Serif" font-size="10.00">boost/unordered_map.hpp</text>
</g>
<!-- Node28&#45;&gt;Node31 -->
<g id="edge42" class="edge"><title>Node28&#45;&gt;Node31</title>
<path fill="none" stroke="midnightblue" d="M1198.86,-275.543C1129.59,-267.921 1002.15,-253.085 894,-236 885.284,-234.623 876.055,-233.011 867.099,-231.365"/>
<polygon fill="midnightblue" stroke="midnightblue" points="867.618,-227.902 857.145,-229.502 866.33,-234.782 867.618,-227.902"/>
</g>
<!-- Node32 -->
<g id="node32" class="node"><title>Node32</title>
<polygon fill="white" stroke="#bfbfbf" points="1720,-142.5 1720,-161.5 1774,-161.5 1774,-142.5 1720,-142.5"/>
<text text-anchor="middle" x="1747" y="-149.5" font-family="Helvetica,sans-Serif" font-size="10.00">iostream</text>
</g>
<!-- Node28&#45;&gt;Node32 -->
<g id="edge43" class="edge"><title>Node28&#45;&gt;Node32</title>
<path fill="none" stroke="midnightblue" d="M1301.09,-280.259C1423.15,-277.962 1723.84,-268.978 1754,-236 1769.9,-218.615 1762.73,-189.739 1755.41,-171.041"/>
<polygon fill="midnightblue" stroke="midnightblue" points="1758.52,-169.417 1751.36,-161.604 1752.09,-172.175 1758.52,-169.417"/>
</g>
<!-- Node33 -->
<g id="node33" class="node"><title>Node33</title>
<polygon fill="white" stroke="#bfbfbf" points="936,-210.5 936,-229.5 998,-229.5 998,-210.5 936,-210.5"/>
<text text-anchor="middle" x="967" y="-217.5" font-family="Helvetica,sans-Serif" font-size="10.00">sys/time.h</text>
</g>
<!-- Node28&#45;&gt;Node33 -->
<g id="edge44" class="edge"><title>Node28&#45;&gt;Node33</title>
<path fill="none" stroke="midnightblue" d="M1198.68,-274.173C1149.08,-266.951 1072.11,-254.086 1007,-236 1003.86,-235.127 1000.61,-234.11 997.392,-233.026"/>
<polygon fill="midnightblue" stroke="midnightblue" points="998.54,-229.719 987.945,-229.644 996.18,-236.31 998.54,-229.719"/>
</g>
<!-- Node34 -->
<g id="node34" class="node"><title>Node34</title>
<polygon fill="white" stroke="#bfbfbf" points="1016.5,-210.5 1016.5,-229.5 1097.5,-229.5 1097.5,-210.5 1016.5,-210.5"/>
<text text-anchor="middle" x="1057" y="-217.5" font-family="Helvetica,sans-Serif" font-size="10.00">sys/resource.h</text>
</g>
<!-- Node28&#45;&gt;Node34 -->
<g id="edge45" class="edge"><title>Node28&#45;&gt;Node34</title>
<path fill="none" stroke="midnightblue" d="M1222.35,-272.403C1188.67,-261.933 1131.64,-244.205 1094.15,-232.55"/>
<polygon fill="midnightblue" stroke="midnightblue" points="1095.19,-229.207 1084.6,-229.581 1093.11,-235.892 1095.19,-229.207"/>
</g>
<!-- Node35 -->
<g id="node35" class="node"><title>Node35</title>
<g id="a_node35"><a xlink:href="atomic_8h.html" target="_top" xlink:title="common/atomic.h">
<polygon fill="white" stroke="black" points="1830.5,-74.5 1830.5,-93.5 1925.5,-93.5 1925.5,-74.5 1830.5,-74.5"/>
<text text-anchor="middle" x="1878" y="-81.5" font-family="Helvetica,sans-Serif" font-size="10.00">common/atomic.h</text>
</a>
</g>
</g>
<!-- Node28&#45;&gt;Node35 -->
<g id="edge46" class="edge"><title>Node28&#45;&gt;Node35</title>
<path fill="none" stroke="midnightblue" d="M1301.45,-279.047C1425.3,-273.995 1732.82,-259.247 1773,-236 1825.87,-205.411 1858.36,-136.221 1871.4,-103.2"/>
<polygon fill="midnightblue" stroke="midnightblue" points="1874.67,-104.436 1874.95,-93.8444 1868.13,-101.95 1874.67,-104.436"/>
</g>
<!-- Node37 -->
<g id="node37" class="node"><title>Node37</title>
<g id="a_node37"><a xlink:href="object-pool_8h.html" target="_top" xlink:title="common/object&#45;pool.h">
<polygon fill="white" stroke="black" points="1454.5,-210.5 1454.5,-229.5 1567.5,-229.5 1567.5,-210.5 1454.5,-210.5"/>
<text text-anchor="middle" x="1511" y="-217.5" font-family="Helvetica,sans-Serif" font-size="10.00">common/object&#45;pool.h</text>
</a>
</g>
</g>
<!-- Node28&#45;&gt;Node37 -->
<g id="edge50" class="edge"><title>Node28&#45;&gt;Node37</title>
<path fill="none" stroke="midnightblue" d="M1287.12,-272.467C1333.6,-261.783 1413.26,-243.469 1463.96,-231.813"/>
<polygon fill="midnightblue" stroke="midnightblue" points="1465.05,-235.155 1474.01,-229.503 1463.48,-228.333 1465.05,-235.155"/>
</g>
<!-- Node40 -->
<g id="node40" class="node"><title>Node40</title>
<g id="a_node40"><a xlink:href="thread_8h.html" target="_top" xlink:title="util/thread.h">
<polygon fill="white" stroke="red" points="1116,-210.5 1116,-229.5 1184,-229.5 1184,-210.5 1116,-210.5"/>
<text text-anchor="middle" x="1150" y="-217.5" font-family="Helvetica,sans-Serif" font-size="10.00">util/thread.h</text>
</a>
</g>
</g>
<!-- Node28&#45;&gt;Node40 -->
<g id="edge57" class="edge"><title>Node28&#45;&gt;Node40</title>
<path fill="none" stroke="midnightblue" d="M1235.67,-272.403C1219.34,-262.601 1192.4,-246.439 1173.09,-234.853"/>
<polygon fill="midnightblue" stroke="midnightblue" points="1174.68,-231.724 1164.3,-229.581 1171.08,-237.727 1174.68,-231.724"/>
</g>
<!-- Node43 -->
<g id="node43" class="node"><title>Node43</title>
<g id="a_node43"><a xlink:href="stopwatch_8h.html" target="_top" xlink:title="util/stopwatch.h">
<polygon fill="white" stroke="red" points="1840,-210.5 1840,-229.5 1926,-229.5 1926,-210.5 1840,-210.5"/>
<text text-anchor="middle" x="1883" y="-217.5" font-family="Helvetica,sans-Serif" font-size="10.00">util/stopwatch.h</text>
</a>
</g>
</g>
<!-- Node28&#45;&gt;Node43 -->
<g id="edge63" class="edge"><title>Node28&#45;&gt;Node43</title>
<path fill="none" stroke="midnightblue" d="M1301.23,-280.074C1402.28,-277.57 1634.14,-268.47 1826,-236 1832.01,-234.983 1838.31,-233.627 1844.44,-232.144"/>
<polygon fill="midnightblue" stroke="midnightblue" points="1845.69,-235.437 1854.51,-229.568 1843.96,-228.655 1845.69,-235.437"/>
</g>
<!-- Node44 -->
<g id="node44" class="node"><title>Node44</title>
<g id="a_node44"><a xlink:href="streaming-sampler_8h.html" target="_top" xlink:title="util/streaming&#45;sampler.h">
<polygon fill="white" stroke="red" points="1624.5,-210.5 1624.5,-229.5 1745.5,-229.5 1745.5,-210.5 1624.5,-210.5"/>
<text text-anchor="middle" x="1685" y="-217.5" font-family="Helvetica,sans-Serif" font-size="10.00">util/streaming&#45;sampler.h</text>
</a>
</g>
</g>
<!-- Node28&#45;&gt;Node44 -->
<g id="edge65" class="edge"><title>Node28&#45;&gt;Node44</title>
<path fill="none" stroke="midnightblue" d="M1301.14,-275.797C1371.09,-268.409 1500.42,-253.782 1610,-236 1618.11,-234.684 1626.67,-233.129 1635.01,-231.526"/>
<polygon fill="midnightblue" stroke="midnightblue" points="1635.87,-234.924 1645.01,-229.561 1634.52,-228.055 1635.87,-234.924"/>
</g>
<!-- Node45 -->
<g id="node45" class="node"><title>Node45</title>
<polygon fill="white" stroke="#bfbfbf" points="1278.5,-205 1278.5,-235 1397.5,-235 1397.5,-205 1278.5,-205"/>
<text text-anchor="start" x="1286.5" y="-223" font-family="Helvetica,sans-Serif" font-size="10.00">gen&#45;cpp/RuntimeProfile</text>
<text text-anchor="middle" x="1338" y="-212" font-family="Helvetica,sans-Serif" font-size="10.00">_types.h</text>
</g>
<!-- Node28&#45;&gt;Node45 -->
<g id="edge68" class="edge"><title>Node28&#45;&gt;Node45</title>
<path fill="none" stroke="midnightblue" d="M1262.61,-272.403C1274.64,-264.201 1293.2,-251.545 1308.9,-240.844"/>
<polygon fill="midnightblue" stroke="midnightblue" points="1310.97,-243.666 1317.26,-235.141 1307.03,-237.882 1310.97,-243.666"/>
</g>
<!-- Node35&#45;&gt;Node10 -->
<g id="edge48" class="edge"><title>Node35&#45;&gt;Node10</title>
<path fill="none" stroke="midnightblue" d="M1868.06,-74.3717C1855.84,-63.7581 1834.87,-45.5453 1819.83,-32.4855"/>
<polygon fill="midnightblue" stroke="midnightblue" points="1822.03,-29.7554 1812.18,-25.8411 1817.44,-35.0406 1822.03,-29.7554"/>
</g>
<!-- Node36 -->
<g id="node36" class="node"><title>Node36</title>
<polygon fill="white" stroke="#bfbfbf" points="1879,-6.5 1879,-25.5 1935,-25.5 1935,-6.5 1879,-6.5"/>
<text text-anchor="middle" x="1907" y="-13.5" font-family="Helvetica,sans-Serif" font-size="10.00">algorithm</text>
</g>
<!-- Node35&#45;&gt;Node36 -->
<g id="edge47" class="edge"><title>Node35&#45;&gt;Node36</title>
<path fill="none" stroke="midnightblue" d="M1881.79,-74.3717C1886.15,-64.4461 1893.43,-47.8743 1899.05,-35.0864"/>
<polygon fill="midnightblue" stroke="midnightblue" points="1902.3,-36.4043 1903.12,-25.8411 1895.89,-33.5883 1902.3,-36.4043"/>
</g>
<!-- Node37&#45;&gt;Node2 -->
<g id="edge51" class="edge"><title>Node37&#45;&gt;Node2</title>
<path fill="none" stroke="midnightblue" d="M1499.33,-210.489C1485.69,-200.485 1462.5,-183.304 1443,-168 1425.36,-154.159 1424.02,-146.095 1404,-136 1250.86,-58.7755 1043.87,-29.2032 964.673,-20.2636"/>
<polygon fill="midnightblue" stroke="midnightblue" points="964.685,-16.7442 954.364,-19.1363 963.924,-23.7027 964.685,-16.7442"/>
</g>
<!-- Node37&#45;&gt;Node30 -->
<g id="edge53" class="edge"><title>Node37&#45;&gt;Node30</title>
<path fill="none" stroke="midnightblue" d="M1488.12,-210.372C1457.51,-198.827 1403.06,-178.293 1368.29,-165.177"/>
<polygon fill="midnightblue" stroke="midnightblue" points="1369.2,-161.78 1358.61,-161.526 1366.73,-168.33 1369.2,-161.78"/>
</g>
<!-- Node38 -->
<g id="node38" class="node"><title>Node38</title>
<polygon fill="white" stroke="#bfbfbf" points="1452,-142.5 1452,-161.5 1568,-161.5 1568,-142.5 1452,-142.5"/>
<text text-anchor="middle" x="1510" y="-149.5" font-family="Helvetica,sans-Serif" font-size="10.00">boost/thread/locks.hpp</text>
</g>
<!-- Node37&#45;&gt;Node38 -->
<g id="edge52" class="edge"><title>Node37&#45;&gt;Node38</title>
<path fill="none" stroke="midnightblue" d="M1510.87,-210.372C1510.72,-200.643 1510.48,-184.528 1510.29,-171.85"/>
<polygon fill="midnightblue" stroke="midnightblue" points="1513.79,-171.787 1510.13,-161.841 1506.79,-171.893 1513.79,-171.787"/>
</g>
<!-- Node39 -->
<g id="node39" class="node"><title>Node39</title>
<g id="a_node39"><a xlink:href="spinlock_8h.html" target="_top" xlink:title="util/spinlock.h">
<polygon fill="white" stroke="black" points="1624.5,-142.5 1624.5,-161.5 1701.5,-161.5 1701.5,-142.5 1624.5,-142.5"/>
<text text-anchor="middle" x="1663" y="-149.5" font-family="Helvetica,sans-Serif" font-size="10.00">util/spinlock.h</text>
</a>
</g>
</g>
<!-- Node37&#45;&gt;Node39 -->
<g id="edge54" class="edge"><title>Node37&#45;&gt;Node39</title>
<path fill="none" stroke="midnightblue" d="M1530.87,-210.372C1557.16,-198.958 1603.68,-178.756 1633.92,-165.625"/>
<polygon fill="midnightblue" stroke="midnightblue" points="1635.35,-168.824 1643.12,-161.63 1632.56,-162.403 1635.35,-168.824"/>
</g>
<!-- Node39&#45;&gt;Node7 -->
<g id="edge56" class="edge"><title>Node39&#45;&gt;Node7</title>
<path fill="none" stroke="midnightblue" d="M1647.97,-142.372C1628.59,-131.254 1594.7,-111.8 1571.81,-98.6624"/>
<polygon fill="midnightblue" stroke="midnightblue" points="1573.45,-95.5725 1563.04,-93.6305 1569.97,-101.644 1573.45,-95.5725"/>
</g>
<!-- Node39&#45;&gt;Node35 -->
<g id="edge55" class="edge"><title>Node39&#45;&gt;Node35</title>
<path fill="none" stroke="midnightblue" d="M1690.15,-142.481C1696.96,-140.356 1704.24,-138.087 1711,-136 1755.23,-122.336 1806.11,-106.827 1839.98,-96.5354"/>
<polygon fill="midnightblue" stroke="midnightblue" points="1841.36,-99.7726 1849.91,-93.517 1839.33,-93.0748 1841.36,-99.7726"/>
</g>
<!-- Node40&#45;&gt;Node4 -->
<g id="edge62" class="edge"><title>Node40&#45;&gt;Node4</title>
<path fill="none" stroke="midnightblue" d="M1127.87,-210.459C1120.96,-208.06 1113.24,-205.656 1106,-204 1088.61,-200.02 854.705,-172.457 744.586,-159.59"/>
<polygon fill="midnightblue" stroke="midnightblue" points="744.666,-156.075 734.327,-158.392 743.854,-163.028 744.666,-156.075"/>
</g>
<!-- Node40&#45;&gt;Node22 -->
<g id="edge60" class="edge"><title>Node40&#45;&gt;Node22</title>
<path fill="none" stroke="midnightblue" d="M1126.4,-210.44C1119.84,-208.201 1112.68,-205.889 1106,-204 1036.28,-184.283 1017.61,-184.267 947,-168 941.229,-166.67 935.169,-165.264 929.172,-163.865"/>
<polygon fill="midnightblue" stroke="midnightblue" points="929.739,-160.404 919.205,-161.536 928.146,-167.22 929.739,-160.404"/>
</g>
<!-- Node40&#45;&gt;Node29 -->
<g id="edge59" class="edge"><title>Node40&#45;&gt;Node29</title>
<path fill="none" stroke="midnightblue" d="M1157.84,-210.372C1167.22,-200.053 1183.14,-182.551 1194.92,-169.585"/>
<polygon fill="midnightblue" stroke="midnightblue" points="1197.83,-171.595 1201.96,-161.841 1192.65,-166.886 1197.83,-171.595"/>
</g>
<!-- Node41 -->
<g id="node41" class="node"><title>Node41</title>
<polygon fill="white" stroke="#bfbfbf" points="956,-142.5 956,-161.5 1036,-161.5 1036,-142.5 956,-142.5"/>
<text text-anchor="middle" x="996" y="-149.5" font-family="Helvetica,sans-Serif" font-size="10.00">boost/bind.hpp</text>
</g>
<!-- Node40&#45;&gt;Node41 -->
<g id="edge58" class="edge"><title>Node40&#45;&gt;Node41</title>
<path fill="none" stroke="midnightblue" d="M1129.87,-210.372C1103.24,-198.958 1056.1,-178.756 1025.46,-165.625"/>
<polygon fill="midnightblue" stroke="midnightblue" points="1026.71,-162.353 1016.14,-161.63 1023.95,-168.787 1026.71,-162.353"/>
</g>
<!-- Node42 -->
<g id="node42" class="node"><title>Node42</title>
<polygon fill="white" stroke="#bfbfbf" points="1054.5,-142.5 1054.5,-161.5 1143.5,-161.5 1143.5,-142.5 1054.5,-142.5"/>
<text text-anchor="middle" x="1099" y="-149.5" font-family="Helvetica,sans-Serif" font-size="10.00">boost/thread.hpp</text>
</g>
<!-- Node40&#45;&gt;Node42 -->
<g id="edge61" class="edge"><title>Node40&#45;&gt;Node42</title>
<path fill="none" stroke="midnightblue" d="M1143.33,-210.372C1135.44,-200.151 1122.09,-182.884 1112.1,-169.957"/>
<polygon fill="midnightblue" stroke="midnightblue" points="1114.72,-167.614 1105.83,-161.841 1109.18,-171.894 1114.72,-167.614"/>
</g>
<!-- Node43&#45;&gt;Node15 -->
<g id="edge64" class="edge"><title>Node43&#45;&gt;Node15</title>
<path fill="none" stroke="midnightblue" d="M1874.28,-210.304C1857.67,-194.082 1819.84,-158.788 1783,-136 1704.01,-87.1407 1601.47,-47.7973 1548.36,-28.9998"/>
<polygon fill="midnightblue" stroke="midnightblue" points="1549.33,-25.6284 1538.73,-25.6243 1547.01,-32.2345 1549.33,-25.6284"/>
</g>
<!-- Node44&#45;&gt;Node32 -->
<g id="edge66" class="edge"><title>Node44&#45;&gt;Node32</title>
<path fill="none" stroke="midnightblue" d="M1693.11,-210.372C1702.89,-199.955 1719.55,-182.217 1731.77,-169.216"/>
<polygon fill="midnightblue" stroke="midnightblue" points="1734.4,-171.526 1738.69,-161.841 1729.3,-166.733 1734.4,-171.526"/>
</g>
<!-- Node44&#45;&gt;Node39 -->
<g id="edge67" class="edge"><title>Node44&#45;&gt;Node39</title>
<path fill="none" stroke="midnightblue" d="M1682.12,-210.372C1678.85,-200.544 1673.4,-184.202 1669.16,-171.467"/>
<polygon fill="midnightblue" stroke="midnightblue" points="1672.43,-170.221 1665.95,-161.841 1665.79,-172.435 1672.43,-170.221"/>
</g>
<!-- Node46&#45;&gt;Node30 -->
<g id="edge71" class="edge"><title>Node46&#45;&gt;Node30</title>
<path fill="none" stroke="midnightblue" d="M1829.63,-279.349C1728.57,-275.598 1513.27,-264.443 1445,-236 1424.3,-227.377 1423.73,-217.718 1406,-204 1389.71,-191.397 1370.81,-177.678 1356.75,-167.647"/>
<polygon fill="midnightblue" stroke="midnightblue" points="1358.48,-164.576 1348.3,-161.636 1354.42,-170.282 1358.48,-164.576"/>
</g>
<!-- Node46&#45;&gt;Node43 -->
<g id="edge74" class="edge"><title>Node46&#45;&gt;Node43</title>
<path fill="none" stroke="midnightblue" d="M1883,-272.403C1883,-263.938 1883,-250.728 1883,-239.82"/>
<polygon fill="midnightblue" stroke="midnightblue" points="1886.5,-239.581 1883,-229.581 1879.5,-239.581 1886.5,-239.581"/>
</g>
<!-- Node47 -->
<g id="node47" class="node"><title>Node47</title>
<polygon fill="white" stroke="#bfbfbf" points="1944.5,-205 1944.5,-235 2057.5,-235 2057.5,-205 1944.5,-205"/>
<text text-anchor="start" x="1952.5" y="-223" font-family="Helvetica,sans-Serif" font-size="10.00">boost/thread/condition</text>
<text text-anchor="middle" x="2001" y="-212" font-family="Helvetica,sans-Serif" font-size="10.00">_variable.hpp</text>
</g>
<!-- Node46&#45;&gt;Node47 -->
<g id="edge70" class="edge"><title>Node46&#45;&gt;Node47</title>
<path fill="none" stroke="midnightblue" d="M1899.91,-272.403C1916.56,-263.936 1942.55,-250.72 1964.01,-239.81"/>
<polygon fill="midnightblue" stroke="midnightblue" points="1965.86,-242.793 1973.19,-235.141 1962.69,-236.553 1965.86,-242.793"/>
</g>
<!-- Node48 -->
<g id="node48" class="node"><title>Node48</title>
<polygon fill="white" stroke="#bfbfbf" points="2075.5,-210.5 2075.5,-229.5 2104.5,-229.5 2104.5,-210.5 2075.5,-210.5"/>
<text text-anchor="middle" x="2090" y="-217.5" font-family="Helvetica,sans-Serif" font-size="10.00">list</text>
</g>
<!-- Node46&#45;&gt;Node48 -->
<g id="edge72" class="edge"><title>Node46&#45;&gt;Node48</title>
<path fill="none" stroke="midnightblue" d="M1936.08,-272.563C1973.4,-265.533 2023.96,-253.767 2066,-236 2066.87,-235.632 2067.75,-235.234 2068.62,-234.814"/>
<polygon fill="midnightblue" stroke="midnightblue" points="2070.69,-237.667 2077.7,-229.726 2067.27,-231.56 2070.69,-237.667"/>
</g>
<!-- Node49 -->
<g id="node49" class="node"><title>Node49</title>
<polygon fill="white" stroke="#bfbfbf" points="2122.5,-210.5 2122.5,-229.5 2173.5,-229.5 2173.5,-210.5 2122.5,-210.5"/>
<text text-anchor="middle" x="2148" y="-217.5" font-family="Helvetica,sans-Serif" font-size="10.00">unistd.h</text>
</g>
<!-- Node46&#45;&gt;Node49 -->
<g id="edge73" class="edge"><title>Node46&#45;&gt;Node49</title>
<path fill="none" stroke="midnightblue" d="M1933,-272.495C1990.17,-262.544 2080.1,-246.144 2113,-236 2115.49,-235.233 2118.04,-234.347 2120.57,-233.397"/>
<polygon fill="midnightblue" stroke="midnightblue" points="2122.16,-236.532 2130.11,-229.531 2119.53,-230.045 2122.16,-236.532"/>
</g>
</g>
</svg>
