<?xml version="1.0" encoding="UTF-8" standalone="no"?>
<!DOCTYPE svg PUBLIC "-//W3C//DTD SVG 1.1//EN"
 "http://www.w3.org/Graphics/SVG/1.1/DTD/svg11.dtd">
<!-- Generated by graphviz version 2.36.0 (20140111.2315)
 -->
<!-- Title: be/src/exprs/expr&#45;context.h Pages: 1 -->
<svg width="4630pt" height="288pt"
 viewBox="0.00 0.00 4630.00 288.00" xmlns="http://www.w3.org/2000/svg" xmlns:xlink="http://www.w3.org/1999/xlink">
<g id="graph0" class="graph" transform="scale(1 1) rotate(0) translate(4 284)">
<title>be/src/exprs/expr&#45;context.h</title>
<polygon fill="white" stroke="none" points="-4,4 -4,-284 4626,-284 4626,4 -4,4"/>
<!-- Node1 -->
<g id="node1" class="node"><title>Node1</title>
<polygon fill="#bfbfbf" stroke="black" points="2033,-260.5 2033,-279.5 2169,-279.5 2169,-260.5 2033,-260.5"/>
<text text-anchor="middle" x="2101" y="-267.5" font-family="Helvetica,sans-Serif" font-size="10.00">be/src/exprs/expr&#45;context.h</text>
</g>
<!-- Node2 -->
<g id="node2" class="node"><title>Node2</title>
<g id="a_node2"><a xlink:href="aggregation-node_8cc.html" target="_top" xlink:title="be/src/exec/aggregation\l&#45;node.cc">
<polygon fill="white" stroke="black" points="-0.5,-193 -0.5,-223 120.5,-223 120.5,-193 -0.5,-193"/>
<text text-anchor="start" x="7.5" y="-211" font-family="Helvetica,sans-Serif" font-size="10.00">be/src/exec/aggregation</text>
<text text-anchor="middle" x="60" y="-200" font-family="Helvetica,sans-Serif" font-size="10.00">&#45;node.cc</text>
</a>
</g>
</g>
<!-- Node1&#45;&gt;Node2 -->
<g id="edge1" class="edge"><title>Node1&#45;&gt;Node2</title>
<path fill="none" stroke="midnightblue" d="M2022.84,-269.18C1704.69,-269.608 506.115,-268.192 130,-224 126.914,-223.637 123.763,-223.203 120.59,-222.713"/>
<polygon fill="midnightblue" stroke="midnightblue" points="2022.9,-272.68 2032.89,-269.165 2022.89,-265.68 2022.9,-272.68"/>
</g>
<!-- Node3 -->
<g id="node3" class="node"><title>Node3</title>
<g id="a_node3"><a xlink:href="analytic-eval-node_8h.html" target="_top" xlink:title="be/src/exec/analytic\l&#45;eval&#45;node.h">
<polygon fill="white" stroke="black" points="139,-193 139,-223 243,-223 243,-193 139,-193"/>
<text text-anchor="start" x="147" y="-211" font-family="Helvetica,sans-Serif" font-size="10.00">be/src/exec/analytic</text>
<text text-anchor="middle" x="191" y="-200" font-family="Helvetica,sans-Serif" font-size="10.00">&#45;eval&#45;node.h</text>
</a>
</g>
</g>
<!-- Node1&#45;&gt;Node3 -->
<g id="edge2" class="edge"><title>Node1&#45;&gt;Node3</title>
<path fill="none" stroke="midnightblue" d="M2022.88,-269.352C1717.26,-270.38 602.304,-270.769 252,-224 249.081,-223.61 246.1,-223.136 243.101,-222.599"/>
<polygon fill="midnightblue" stroke="midnightblue" points="2022.99,-272.852 2032.98,-269.317 2022.97,-265.852 2022.99,-272.852"/>
</g>
<!-- Node6 -->
<g id="node6" class="node"><title>Node6</title>
<g id="a_node6"><a xlink:href="hash-table-test_8cc.html" target="_top" xlink:title="be/src/exec/hash&#45;table\l&#45;test.cc">
<polygon fill="white" stroke="black" points="261,-193 261,-223 377,-223 377,-193 261,-193"/>
<text text-anchor="start" x="269" y="-211" font-family="Helvetica,sans-Serif" font-size="10.00">be/src/exec/hash&#45;table</text>
<text text-anchor="middle" x="319" y="-200" font-family="Helvetica,sans-Serif" font-size="10.00">&#45;test.cc</text>
</a>
</g>
</g>
<!-- Node1&#45;&gt;Node6 -->
<g id="edge5" class="edge"><title>Node1&#45;&gt;Node6</title>
<path fill="none" stroke="midnightblue" d="M2022.8,-268.962C1731.44,-268.507 709.161,-264.029 386,-224 383.161,-223.648 380.265,-223.231 377.349,-222.763"/>
<polygon fill="midnightblue" stroke="midnightblue" points="2022.85,-272.462 2032.85,-268.977 2022.86,-265.462 2022.85,-272.462"/>
</g>
<!-- Node7 -->
<g id="node7" class="node"><title>Node7</title>
<g id="a_node7"><a xlink:href="hash-table_8cc.html" target="_top" xlink:title="be/src/exec/hash&#45;table.cc">
<polygon fill="white" stroke="black" points="395.5,-198.5 395.5,-217.5 524.5,-217.5 524.5,-198.5 395.5,-198.5"/>
<text text-anchor="middle" x="460" y="-205.5" font-family="Helvetica,sans-Serif" font-size="10.00">be/src/exec/hash&#45;table.cc</text>
</a>
</g>
</g>
<!-- Node1&#45;&gt;Node7 -->
<g id="edge6" class="edge"><title>Node1&#45;&gt;Node7</title>
<path fill="none" stroke="midnightblue" d="M2022.26,-268.552C1746.63,-266.702 826.12,-258.059 533,-224 520.662,-222.566 507.312,-220.099 495.444,-217.574"/>
<polygon fill="midnightblue" stroke="midnightblue" points="2022.55,-272.054 2032.57,-268.62 2022.59,-265.054 2022.55,-272.054"/>
</g>
<!-- Node8 -->
<g id="node8" class="node"><title>Node8</title>
<g id="a_node8"><a xlink:href="hbase-table-sink_8cc.html" target="_top" xlink:title="be/src/exec/hbase&#45;table\l&#45;sink.cc">
<polygon fill="white" stroke="black" points="542.5,-193 542.5,-223 663.5,-223 663.5,-193 542.5,-193"/>
<text text-anchor="start" x="550.5" y="-211" font-family="Helvetica,sans-Serif" font-size="10.00">be/src/exec/hbase&#45;table</text>
<text text-anchor="middle" x="603" y="-200" font-family="Helvetica,sans-Serif" font-size="10.00">&#45;sink.cc</text>
</a>
</g>
</g>
<!-- Node1&#45;&gt;Node8 -->
<g id="edge7" class="edge"><title>Node1&#45;&gt;Node8</title>
<path fill="none" stroke="midnightblue" d="M2022.72,-268.418C1763.82,-266.196 936.672,-256.658 672,-224 669.323,-223.67 666.597,-223.285 663.85,-222.859"/>
<polygon fill="midnightblue" stroke="midnightblue" points="2022.76,-271.918 2032.79,-268.503 2022.82,-264.918 2022.76,-271.918"/>
</g>
<!-- Node9 -->
<g id="node9" class="node"><title>Node9</title>
<g id="a_node9"><a xlink:href="hbase-table-writer_8cc.html" target="_top" xlink:title="be/src/exec/hbase&#45;table\l&#45;writer.cc">
<polygon fill="white" stroke="black" points="681.5,-193 681.5,-223 802.5,-223 802.5,-193 681.5,-193"/>
<text text-anchor="start" x="689.5" y="-211" font-family="Helvetica,sans-Serif" font-size="10.00">be/src/exec/hbase&#45;table</text>
<text text-anchor="middle" x="742" y="-200" font-family="Helvetica,sans-Serif" font-size="10.00">&#45;writer.cc</text>
</a>
</g>
</g>
<!-- Node1&#45;&gt;Node9 -->
<g id="edge8" class="edge"><title>Node1&#45;&gt;Node9</title>
<path fill="none" stroke="midnightblue" d="M2022.63,-268.107C1780.63,-265.059 1047.34,-253.569 811,-224 808.324,-223.665 805.598,-223.277 802.851,-222.847"/>
<polygon fill="midnightblue" stroke="midnightblue" points="2022.71,-271.608 2032.75,-268.233 2022.79,-264.609 2022.71,-271.608"/>
</g>
<!-- Node10 -->
<g id="node10" class="node"><title>Node10</title>
<g id="a_node10"><a xlink:href="hdfs-avro-table-writer_8cc.html" target="_top" xlink:title="be/src/exec/hdfs&#45;avro\l&#45;table&#45;writer.cc">
<polygon fill="white" stroke="black" points="820.5,-193 820.5,-223 931.5,-223 931.5,-193 820.5,-193"/>
<text text-anchor="start" x="828.5" y="-211" font-family="Helvetica,sans-Serif" font-size="10.00">be/src/exec/hdfs&#45;avro</text>
<text text-anchor="middle" x="876" y="-200" font-family="Helvetica,sans-Serif" font-size="10.00">&#45;table&#45;writer.cc</text>
</a>
</g>
</g>
<!-- Node1&#45;&gt;Node10 -->
<g id="edge9" class="edge"><title>Node1&#45;&gt;Node10</title>
<path fill="none" stroke="midnightblue" d="M2022.81,-267.921C1797.57,-264.503 1150.03,-252.417 940,-224 937.286,-223.633 934.518,-223.203 931.731,-222.724"/>
<polygon fill="midnightblue" stroke="midnightblue" points="2022.84,-271.422 2032.89,-268.073 2022.95,-264.423 2022.84,-271.422"/>
</g>
<!-- Node11 -->
<g id="node11" class="node"><title>Node11</title>
<g id="a_node11"><a xlink:href="hdfs-parquet-table-writer_8cc.html" target="_top" xlink:title="be/src/exec/hdfs&#45;parquet\l&#45;table&#45;writer.cc">
<polygon fill="white" stroke="black" points="949.5,-193 949.5,-223 1074.5,-223 1074.5,-193 949.5,-193"/>
<text text-anchor="start" x="957.5" y="-211" font-family="Helvetica,sans-Serif" font-size="10.00">be/src/exec/hdfs&#45;parquet</text>
<text text-anchor="middle" x="1012" y="-200" font-family="Helvetica,sans-Serif" font-size="10.00">&#45;table&#45;writer.cc</text>
</a>
</g>
</g>
<!-- Node1&#45;&gt;Node11 -->
<g id="edge10" class="edge"><title>Node1&#45;&gt;Node11</title>
<path fill="none" stroke="midnightblue" d="M2022.64,-267.201C1816.84,-262.208 1264.43,-247.018 1083,-224 1080.25,-223.651 1077.45,-223.252 1074.63,-222.812"/>
<polygon fill="midnightblue" stroke="midnightblue" points="2022.68,-270.703 2032.76,-267.445 2022.85,-263.705 2022.68,-270.703"/>
</g>
<!-- Node12 -->
<g id="node12" class="node"><title>Node12</title>
<g id="a_node12"><a xlink:href="hdfs-scan-node_8cc.html" target="_top" xlink:title="be/src/exec/hdfs&#45;scan\l&#45;node.cc">
<polygon fill="white" stroke="black" points="1092.5,-193 1092.5,-223 1205.5,-223 1205.5,-193 1092.5,-193"/>
<text text-anchor="start" x="1100.5" y="-211" font-family="Helvetica,sans-Serif" font-size="10.00">be/src/exec/hdfs&#45;scan</text>
<text text-anchor="middle" x="1149" y="-200" font-family="Helvetica,sans-Serif" font-size="10.00">&#45;node.cc</text>
</a>
</g>
</g>
<!-- Node1&#45;&gt;Node12 -->
<g id="edge11" class="edge"><title>Node1&#45;&gt;Node12</title>
<path fill="none" stroke="midnightblue" d="M2022.45,-269.546C1867.33,-269.626 1511.05,-264.849 1215,-224 1211.97,-223.582 1208.88,-223.095 1205.77,-222.556"/>
<polygon fill="midnightblue" stroke="midnightblue" points="2022.83,-273.046 2032.82,-269.534 2022.82,-266.046 2022.83,-273.046"/>
</g>
<!-- Node13 -->
<g id="node13" class="node"><title>Node13</title>
<g id="a_node13"><a xlink:href="hdfs-scanner_8cc.html" target="_top" xlink:title="be/src/exec/hdfs&#45;scanner.cc">
<polygon fill="white" stroke="black" points="1224,-198.5 1224,-217.5 1364,-217.5 1364,-198.5 1224,-198.5"/>
<text text-anchor="middle" x="1294" y="-205.5" font-family="Helvetica,sans-Serif" font-size="10.00">be/src/exec/hdfs&#45;scanner.cc</text>
</a>
</g>
</g>
<!-- Node1&#45;&gt;Node13 -->
<g id="edge12" class="edge"><title>Node1&#45;&gt;Node13</title>
<path fill="none" stroke="midnightblue" d="M2022.85,-267.394C1889.21,-263.927 1608.42,-253.507 1373,-224 1360.12,-222.385 1346.17,-219.964 1333.63,-217.536"/>
<polygon fill="midnightblue" stroke="midnightblue" points="2022.9,-270.896 2032.99,-267.651 2023.08,-263.898 2022.9,-270.896"/>
</g>
<!-- Node14 -->
<g id="node14" class="node"><title>Node14</title>
<g id="a_node14"><a xlink:href="hdfs-sequence-table-writer_8cc.html" target="_top" xlink:title="be/src/exec/hdfs&#45;sequence\l&#45;table&#45;writer.cc">
<polygon fill="white" stroke="black" points="1382,-193 1382,-223 1516,-223 1516,-193 1382,-193"/>
<text text-anchor="start" x="1390" y="-211" font-family="Helvetica,sans-Serif" font-size="10.00">be/src/exec/hdfs&#45;sequence</text>
<text text-anchor="middle" x="1449" y="-200" font-family="Helvetica,sans-Serif" font-size="10.00">&#45;table&#45;writer.cc</text>
</a>
</g>
</g>
<!-- Node1&#45;&gt;Node14 -->
<g id="edge13" class="edge"><title>Node1&#45;&gt;Node14</title>
<path fill="none" stroke="midnightblue" d="M2022.78,-265.792C1911.7,-260.577 1702.07,-248.306 1525,-224 1522.07,-223.598 1519.08,-223.154 1516.07,-222.678"/>
<polygon fill="midnightblue" stroke="midnightblue" points="2022.74,-269.293 2032.89,-266.26 2023.06,-262.301 2022.74,-269.293"/>
</g>
<!-- Node15 -->
<g id="node15" class="node"><title>Node15</title>
<g id="a_node15"><a xlink:href="hdfs-table-sink_8cc.html" target="_top" xlink:title="be/src/exec/hdfs&#45;table\l&#45;sink.cc">
<polygon fill="white" stroke="black" points="1534.5,-193 1534.5,-223 1647.5,-223 1647.5,-193 1534.5,-193"/>
<text text-anchor="start" x="1542.5" y="-211" font-family="Helvetica,sans-Serif" font-size="10.00">be/src/exec/hdfs&#45;table</text>
<text text-anchor="middle" x="1591" y="-200" font-family="Helvetica,sans-Serif" font-size="10.00">&#45;sink.cc</text>
</a>
</g>
</g>
<!-- Node1&#45;&gt;Node15 -->
<g id="edge14" class="edge"><title>Node1&#45;&gt;Node15</title>
<path fill="none" stroke="midnightblue" d="M2022.76,-264.085C1933.57,-257.788 1783.62,-245.092 1656,-224 1653.26,-223.547 1650.46,-223.047 1647.64,-222.513"/>
<polygon fill="midnightblue" stroke="midnightblue" points="2022.58,-267.58 2032.8,-264.784 2023.06,-260.597 2022.58,-267.58"/>
</g>
<!-- Node16 -->
<g id="node16" class="node"><title>Node16</title>
<g id="a_node16"><a xlink:href="hdfs-text-table-writer_8cc.html" target="_top" xlink:title="be/src/exec/hdfs&#45;text\l&#45;table&#45;writer.cc">
<polygon fill="white" stroke="black" points="1665.5,-193 1665.5,-223 1774.5,-223 1774.5,-193 1665.5,-193"/>
<text text-anchor="start" x="1673.5" y="-211" font-family="Helvetica,sans-Serif" font-size="10.00">be/src/exec/hdfs&#45;text</text>
<text text-anchor="middle" x="1720" y="-200" font-family="Helvetica,sans-Serif" font-size="10.00">&#45;table&#45;writer.cc</text>
</a>
</g>
</g>
<!-- Node1&#45;&gt;Node16 -->
<g id="edge15" class="edge"><title>Node1&#45;&gt;Node16</title>
<path fill="none" stroke="midnightblue" d="M2022.67,-259.98C1958.1,-252.05 1864.25,-239.388 1783,-224 1780.24,-223.477 1777.42,-222.913 1774.57,-222.321"/>
<polygon fill="midnightblue" stroke="midnightblue" points="2022.42,-263.476 2032.77,-261.211 2023.27,-256.527 2022.42,-263.476"/>
</g>
<!-- Node17 -->
<g id="node17" class="node"><title>Node17</title>
<g id="a_node17"><a xlink:href="old-hash-table-test_8cc.html" target="_top" xlink:title="be/src/exec/old&#45;hash\l&#45;table&#45;test.cc">
<polygon fill="white" stroke="black" points="1792.5,-193 1792.5,-223 1899.5,-223 1899.5,-193 1792.5,-193"/>
<text text-anchor="start" x="1800.5" y="-211" font-family="Helvetica,sans-Serif" font-size="10.00">be/src/exec/old&#45;hash</text>
<text text-anchor="middle" x="1846" y="-200" font-family="Helvetica,sans-Serif" font-size="10.00">&#45;table&#45;test.cc</text>
</a>
</g>
</g>
<!-- Node1&#45;&gt;Node17 -->
<g id="edge16" class="edge"><title>Node1&#45;&gt;Node17</title>
<path fill="none" stroke="midnightblue" d="M2054.2,-258.202C2015.1,-249.153 1957.89,-235.85 1908,-224 1905.31,-223.36 1902.55,-222.702 1899.76,-222.036"/>
<polygon fill="midnightblue" stroke="midnightblue" points="2053.45,-261.621 2063.98,-260.464 2055.03,-254.801 2053.45,-261.621"/>
</g>
<!-- Node18 -->
<g id="node18" class="node"><title>Node18</title>
<g id="a_node18"><a xlink:href="old-hash-table_8cc.html" target="_top" xlink:title="be/src/exec/old&#45;hash\l&#45;table.cc">
<polygon fill="white" stroke="black" points="1917.5,-193 1917.5,-223 2024.5,-223 2024.5,-193 1917.5,-193"/>
<text text-anchor="start" x="1925.5" y="-211" font-family="Helvetica,sans-Serif" font-size="10.00">be/src/exec/old&#45;hash</text>
<text text-anchor="middle" x="1971" y="-200" font-family="Helvetica,sans-Serif" font-size="10.00">&#45;table.cc</text>
</a>
</g>
</g>
<!-- Node1&#45;&gt;Node18 -->
<g id="edge17" class="edge"><title>Node1&#45;&gt;Node18</title>
<path fill="none" stroke="midnightblue" d="M2073.03,-256.093C2052.03,-246.396 2023.27,-233.124 2001.64,-223.141"/>
<polygon fill="midnightblue" stroke="midnightblue" points="2071.83,-259.391 2082.37,-260.403 2074.76,-253.035 2071.83,-259.391"/>
</g>
<!-- Node19 -->
<g id="node19" class="node"><title>Node19</title>
<g id="a_node19"><a xlink:href="partitioned-aggregation-node_8cc.html" target="_top" xlink:title="be/src/exec/partitioned\l&#45;aggregation&#45;node.cc">
<polygon fill="white" stroke="black" points="2043,-193 2043,-223 2159,-223 2159,-193 2043,-193"/>
<text text-anchor="start" x="2051" y="-211" font-family="Helvetica,sans-Serif" font-size="10.00">be/src/exec/partitioned</text>
<text text-anchor="middle" x="2101" y="-200" font-family="Helvetica,sans-Serif" font-size="10.00">&#45;aggregation&#45;node.cc</text>
</a>
</g>
</g>
<!-- Node1&#45;&gt;Node19 -->
<g id="edge18" class="edge"><title>Node1&#45;&gt;Node19</title>
<path fill="none" stroke="midnightblue" d="M2101,-250.371C2101,-241.585 2101,-231.272 2101,-223.141"/>
<polygon fill="midnightblue" stroke="midnightblue" points="2097.5,-250.403 2101,-260.403 2104.5,-250.403 2097.5,-250.403"/>
</g>
<!-- Node20 -->
<g id="node20" class="node"><title>Node20</title>
<g id="a_node20"><a xlink:href="partitioned-hash-join-node_8cc.html" target="_top" xlink:title="be/src/exec/partitioned\l&#45;hash&#45;join&#45;node.cc">
<polygon fill="white" stroke="black" points="2177,-193 2177,-223 2293,-223 2293,-193 2177,-193"/>
<text text-anchor="start" x="2185" y="-211" font-family="Helvetica,sans-Serif" font-size="10.00">be/src/exec/partitioned</text>
<text text-anchor="middle" x="2235" y="-200" font-family="Helvetica,sans-Serif" font-size="10.00">&#45;hash&#45;join&#45;node.cc</text>
</a>
</g>
</g>
<!-- Node1&#45;&gt;Node20 -->
<g id="edge19" class="edge"><title>Node1&#45;&gt;Node20</title>
<path fill="none" stroke="midnightblue" d="M2129.57,-256.209C2151.33,-246.465 2181.26,-233.062 2203.68,-223.025"/>
<polygon fill="midnightblue" stroke="midnightblue" points="2127.9,-253.122 2120.2,-260.403 2130.76,-259.511 2127.9,-253.122"/>
</g>
<!-- Node21 -->
<g id="node21" class="node"><title>Node21</title>
<g id="a_node21"><a xlink:href="union-node_8cc.html" target="_top" xlink:title="be/src/exec/union&#45;node.cc">
<polygon fill="white" stroke="black" points="2311.5,-198.5 2311.5,-217.5 2442.5,-217.5 2442.5,-198.5 2311.5,-198.5"/>
<text text-anchor="middle" x="2377" y="-205.5" font-family="Helvetica,sans-Serif" font-size="10.00">be/src/exec/union&#45;node.cc</text>
</a>
</g>
</g>
<!-- Node1&#45;&gt;Node21 -->
<g id="edge20" class="edge"><title>Node1&#45;&gt;Node21</title>
<path fill="none" stroke="midnightblue" d="M2150.22,-258.301C2203.86,-246.64 2288.59,-228.219 2337.88,-217.503"/>
<polygon fill="midnightblue" stroke="midnightblue" points="2149.28,-254.923 2140.25,-260.467 2150.77,-261.763 2149.28,-254.923"/>
</g>
<!-- Node22 -->
<g id="node22" class="node"><title>Node22</title>
<g id="a_node22"><a xlink:href="agg-fn-evaluator_8cc.html" target="_top" xlink:title="be/src/exprs/agg&#45;fn\l&#45;evaluator.cc">
<polygon fill="white" stroke="black" points="2460.5,-193 2460.5,-223 2561.5,-223 2561.5,-193 2460.5,-193"/>
<text text-anchor="start" x="2468.5" y="-211" font-family="Helvetica,sans-Serif" font-size="10.00">be/src/exprs/agg&#45;fn</text>
<text text-anchor="middle" x="2511" y="-200" font-family="Helvetica,sans-Serif" font-size="10.00">&#45;evaluator.cc</text>
</a>
</g>
</g>
<!-- Node1&#45;&gt;Node22 -->
<g id="edge21" class="edge"><title>Node1&#45;&gt;Node22</title>
<path fill="none" stroke="midnightblue" d="M2179.36,-261.579C2250.56,-254.208 2358.33,-241.479 2451,-224 2454.06,-223.423 2457.2,-222.784 2460.35,-222.105"/>
<polygon fill="midnightblue" stroke="midnightblue" points="2178.71,-258.127 2169.12,-262.628 2179.43,-265.09 2178.71,-258.127"/>
</g>
<!-- Node23 -->
<g id="node23" class="node"><title>Node23</title>
<g id="a_node23"><a xlink:href="case-expr_8cc.html" target="_top" xlink:title="be/src/exprs/case&#45;expr.cc">
<polygon fill="white" stroke="black" points="2580,-198.5 2580,-217.5 2710,-217.5 2710,-198.5 2580,-198.5"/>
<text text-anchor="middle" x="2645" y="-205.5" font-family="Helvetica,sans-Serif" font-size="10.00">be/src/exprs/case&#45;expr.cc</text>
</a>
</g>
</g>
<!-- Node1&#45;&gt;Node23 -->
<g id="edge22" class="edge"><title>Node1&#45;&gt;Node23</title>
<path fill="none" stroke="midnightblue" d="M2179.44,-263.924C2272.81,-257.317 2433.31,-244.173 2570,-224 2581.82,-222.255 2594.6,-219.883 2606.2,-217.541"/>
<polygon fill="midnightblue" stroke="midnightblue" points="2178.95,-260.449 2169.22,-264.64 2179.44,-267.432 2178.95,-260.449"/>
</g>
<!-- Node24 -->
<g id="node24" class="node"><title>Node24</title>
<g id="a_node24"><a xlink:href="expr-benchmark_8cc.html" target="_top" xlink:title="be/src/exprs/expr&#45;benchmark.cc">
<polygon fill="white" stroke="black" points="2728.5,-198.5 2728.5,-217.5 2885.5,-217.5 2885.5,-198.5 2728.5,-198.5"/>
<text text-anchor="middle" x="2807" y="-205.5" font-family="Helvetica,sans-Serif" font-size="10.00">be/src/exprs/expr&#45;benchmark.cc</text>
</a>
</g>
</g>
<!-- Node1&#45;&gt;Node24 -->
<g id="edge23" class="edge"><title>Node1&#45;&gt;Node24</title>
<path fill="none" stroke="midnightblue" d="M2179.33,-265.714C2296.87,-260.236 2525.73,-247.453 2719,-224 2733,-222.301 2748.17,-219.915 2761.9,-217.544"/>
<polygon fill="midnightblue" stroke="midnightblue" points="2179.16,-262.217 2169.34,-266.174 2179.49,-269.21 2179.16,-262.217"/>
</g>
<!-- Node25 -->
<g id="node25" class="node"><title>Node25</title>
<g id="a_node25"><a xlink:href="expr-context_8cc.html" target="_top" xlink:title="be/src/exprs/expr&#45;context.cc">
<polygon fill="white" stroke="black" points="2903.5,-198.5 2903.5,-217.5 3044.5,-217.5 3044.5,-198.5 2903.5,-198.5"/>
<text text-anchor="middle" x="2974" y="-205.5" font-family="Helvetica,sans-Serif" font-size="10.00">be/src/exprs/expr&#45;context.cc</text>
</a>
</g>
</g>
<!-- Node1&#45;&gt;Node25 -->
<g id="edge24" class="edge"><title>Node1&#45;&gt;Node25</title>
<path fill="none" stroke="midnightblue" d="M2179.55,-267.887C2322.29,-265.12 2633.59,-255.669 2894,-224 2907.05,-222.414 2921.17,-220 2933.87,-217.57"/>
<polygon fill="midnightblue" stroke="midnightblue" points="2179.08,-264.395 2169.15,-268.082 2179.21,-271.393 2179.08,-264.395"/>
</g>
<!-- Node26 -->
<g id="node26" class="node"><title>Node26</title>
<g id="a_node26"><a xlink:href="expr-test_8cc.html" target="_top" xlink:title="be/src/exprs/expr&#45;test.cc">
<polygon fill="white" stroke="black" points="3062.5,-198.5 3062.5,-217.5 3187.5,-217.5 3187.5,-198.5 3062.5,-198.5"/>
<text text-anchor="middle" x="3125" y="-205.5" font-family="Helvetica,sans-Serif" font-size="10.00">be/src/exprs/expr&#45;test.cc</text>
</a>
</g>
</g>
<!-- Node1&#45;&gt;Node26 -->
<g id="edge25" class="edge"><title>Node1&#45;&gt;Node26</title>
<path fill="none" stroke="midnightblue" d="M2179.57,-269.475C2342.9,-269.544 2730.76,-264.921 3053,-224 3065.03,-222.472 3078.05,-220.012 3089.66,-217.523"/>
<polygon fill="midnightblue" stroke="midnightblue" points="2179.14,-265.975 2169.14,-269.464 2179.13,-272.975 2179.14,-265.975"/>
</g>
<!-- Node27 -->
<g id="node27" class="node"><title>Node27</title>
<g id="a_node27"><a xlink:href="expr_8cc.html" target="_top" xlink:title="be/src/exprs/expr.cc">
<polygon fill="white" stroke="black" points="3206,-198.5 3206,-217.5 3312,-217.5 3312,-198.5 3206,-198.5"/>
<text text-anchor="middle" x="3259" y="-205.5" font-family="Helvetica,sans-Serif" font-size="10.00">be/src/exprs/expr.cc</text>
</a>
</g>
</g>
<!-- Node1&#45;&gt;Node27 -->
<g id="edge26" class="edge"><title>Node1&#45;&gt;Node27</title>
<path fill="none" stroke="midnightblue" d="M2179.23,-267.744C2395.65,-263.955 2999.34,-251.194 3196,-224 3206.69,-222.522 3218.22,-220.043 3228.46,-217.521"/>
<polygon fill="midnightblue" stroke="midnightblue" points="2179.16,-264.244 2169.22,-267.917 2179.28,-271.243 2179.16,-264.244"/>
</g>
<!-- Node28 -->
<g id="node28" class="node"><title>Node28</title>
<g id="a_node28"><a xlink:href="hive-udf-call_8cc.html" target="_top" xlink:title="be/src/exprs/hive&#45;udf\l&#45;call.cc">
<polygon fill="white" stroke="black" points="3330,-193 3330,-223 3438,-223 3438,-193 3330,-193"/>
<text text-anchor="start" x="3338" y="-211" font-family="Helvetica,sans-Serif" font-size="10.00">be/src/exprs/hive&#45;udf</text>
<text text-anchor="middle" x="3384" y="-200" font-family="Helvetica,sans-Serif" font-size="10.00">&#45;call.cc</text>
</a>
</g>
</g>
<!-- Node1&#45;&gt;Node28 -->
<g id="edge27" class="edge"><title>Node1&#45;&gt;Node28</title>
<path fill="none" stroke="midnightblue" d="M2179.45,-268.085C2412.52,-265.055 3098.32,-253.785 3320,-224 3323.17,-223.574 3326.41,-223.063 3329.67,-222.488"/>
<polygon fill="midnightblue" stroke="midnightblue" points="2179.31,-264.587 2169.36,-268.215 2179.4,-271.586 2179.31,-264.587"/>
</g>
<!-- Node29 -->
<g id="node29" class="node"><title>Node29</title>
<g id="a_node29"><a xlink:href="scalar-fn-call_8cc.html" target="_top" xlink:title="be/src/exprs/scalar\l&#45;fn&#45;call.cc">
<polygon fill="white" stroke="black" points="3456,-193 3456,-223 3556,-223 3556,-193 3456,-193"/>
<text text-anchor="start" x="3464" y="-211" font-family="Helvetica,sans-Serif" font-size="10.00">be/src/exprs/scalar</text>
<text text-anchor="middle" x="3506" y="-200" font-family="Helvetica,sans-Serif" font-size="10.00">&#45;fn&#45;call.cc</text>
</a>
</g>
</g>
<!-- Node1&#45;&gt;Node29 -->
<g id="edge28" class="edge"><title>Node1&#45;&gt;Node29</title>
<path fill="none" stroke="midnightblue" d="M2179.4,-268.596C2428.48,-266.964 3199.84,-259.13 3447,-224 3449.93,-223.584 3452.92,-223.079 3455.94,-222.51"/>
<polygon fill="midnightblue" stroke="midnightblue" points="2179.33,-265.096 2169.35,-268.66 2179.37,-272.096 2179.33,-265.096"/>
</g>
<!-- Node30 -->
<g id="node30" class="node"><title>Node30</title>
<g id="a_node30"><a xlink:href="data-stream-sender_8cc.html" target="_top" xlink:title="be/src/runtime/data\l&#45;stream&#45;sender.cc">
<polygon fill="white" stroke="black" points="3574.5,-193 3574.5,-223 3675.5,-223 3675.5,-193 3574.5,-193"/>
<text text-anchor="start" x="3582.5" y="-211" font-family="Helvetica,sans-Serif" font-size="10.00">be/src/runtime/data</text>
<text text-anchor="middle" x="3625" y="-200" font-family="Helvetica,sans-Serif" font-size="10.00">&#45;stream&#45;sender.cc</text>
</a>
</g>
</g>
<!-- Node1&#45;&gt;Node30 -->
<g id="edge29" class="edge"><title>Node1&#45;&gt;Node30</title>
<path fill="none" stroke="midnightblue" d="M2179.42,-268.803C2442.71,-267.794 3293.77,-261.629 3565,-224 3568.08,-223.572 3571.24,-223.049 3574.41,-222.457"/>
<polygon fill="midnightblue" stroke="midnightblue" points="2179.17,-265.304 2169.18,-268.841 2179.2,-272.304 2179.17,-265.304"/>
</g>
<!-- Node31 -->
<g id="node31" class="node"><title>Node31</title>
<g id="a_node31"><a xlink:href="tuple_8cc.html" target="_top" xlink:title="be/src/runtime/tuple.cc">
<polygon fill="white" stroke="black" points="3694,-198.5 3694,-217.5 3810,-217.5 3810,-198.5 3694,-198.5"/>
<text text-anchor="middle" x="3752" y="-205.5" font-family="Helvetica,sans-Serif" font-size="10.00">be/src/runtime/tuple.cc</text>
</a>
</g>
</g>
<!-- Node1&#45;&gt;Node31 -->
<g id="edge30" class="edge"><title>Node1&#45;&gt;Node31</title>
<path fill="none" stroke="midnightblue" d="M2179.56,-268.728C2456.72,-267.461 3387.99,-260.523 3684,-224 3695.64,-222.564 3708.22,-220.063 3719.36,-217.509"/>
<polygon fill="midnightblue" stroke="midnightblue" points="2179.18,-265.229 2169.2,-268.774 2179.21,-272.229 2179.18,-265.229"/>
</g>
<!-- Node32 -->
<g id="node32" class="node"><title>Node32</title>
<g id="a_node32"><a xlink:href="fe-support_8cc.html" target="_top" xlink:title="be/src/service/fe&#45;support.cc">
<polygon fill="white" stroke="black" points="3828,-198.5 3828,-217.5 3966,-217.5 3966,-198.5 3828,-198.5"/>
<text text-anchor="middle" x="3897" y="-205.5" font-family="Helvetica,sans-Serif" font-size="10.00">be/src/service/fe&#45;support.cc</text>
</a>
</g>
</g>
<!-- Node1&#45;&gt;Node32 -->
<g id="edge31" class="edge"><title>Node1&#45;&gt;Node32</title>
<path fill="none" stroke="midnightblue" d="M2179.25,-268.628C2470.82,-266.979 3493.85,-258.791 3818,-224 3831.33,-222.57 3845.77,-220.103 3858.61,-217.578"/>
<polygon fill="midnightblue" stroke="midnightblue" points="2179.17,-265.128 2169.19,-268.684 2179.21,-272.128 2179.17,-265.128"/>
</g>
<!-- Node33 -->
<g id="node33" class="node"><title>Node33</title>
<g id="a_node33"><a xlink:href="query-exec-state_8cc.html" target="_top" xlink:title="be/src/service/query\l&#45;exec&#45;state.cc">
<polygon fill="white" stroke="black" points="3984.5,-193 3984.5,-223 4089.5,-223 4089.5,-193 3984.5,-193"/>
<text text-anchor="start" x="3992.5" y="-211" font-family="Helvetica,sans-Serif" font-size="10.00">be/src/service/query</text>
<text text-anchor="middle" x="4037" y="-200" font-family="Helvetica,sans-Serif" font-size="10.00">&#45;exec&#45;state.cc</text>
</a>
</g>
</g>
<!-- Node1&#45;&gt;Node33 -->
<g id="edge32" class="edge"><title>Node1&#45;&gt;Node33</title>
<path fill="none" stroke="midnightblue" d="M2179.65,-269.345C2488.63,-270.354 3619.67,-270.705 3975,-224 3978.07,-223.596 3981.22,-223.101 3984.38,-222.539"/>
<polygon fill="midnightblue" stroke="midnightblue" points="2179.45,-265.844 2169.44,-269.31 2179.43,-272.844 2179.45,-265.844"/>
</g>
<!-- Node34 -->
<g id="node34" class="node"><title>Node34</title>
<g id="a_node34"><a xlink:href="tuple-row-compare_8h.html" target="_top" xlink:title="be/src/util/tuple&#45;row\l&#45;compare.h">
<polygon fill="white" stroke="black" points="4108,-193 4108,-223 4210,-223 4210,-193 4108,-193"/>
<text text-anchor="start" x="4116" y="-211" font-family="Helvetica,sans-Serif" font-size="10.00">be/src/util/tuple&#45;row</text>
<text text-anchor="middle" x="4159" y="-200" font-family="Helvetica,sans-Serif" font-size="10.00">&#45;compare.h</text>
</a>
</g>
</g>
<!-- Node1&#45;&gt;Node34 -->
<g id="edge33" class="edge"><title>Node1&#45;&gt;Node34</title>
<path fill="none" stroke="midnightblue" d="M2179.28,-268.248C2524.92,-264.79 3905.76,-249.489 4098,-224 4101.24,-223.57 4104.56,-223.035 4107.9,-222.425"/>
<polygon fill="midnightblue" stroke="midnightblue" points="2179.08,-264.75 2169.12,-268.349 2179.15,-271.749 2179.08,-264.75"/>
</g>
<!-- Node4 -->
<g id="node4" class="node"><title>Node4</title>
<g id="a_node4"><a xlink:href="analytic-eval-node_8cc.html" target="_top" xlink:title="be/src/exec/analytic\l&#45;eval&#45;node.cc">
<polygon fill="white" stroke="black" points="139,-125 139,-155 243,-155 243,-125 139,-125"/>
<text text-anchor="start" x="147" y="-143" font-family="Helvetica,sans-Serif" font-size="10.00">be/src/exec/analytic</text>
<text text-anchor="middle" x="191" y="-132" font-family="Helvetica,sans-Serif" font-size="10.00">&#45;eval&#45;node.cc</text>
</a>
</g>
</g>
<!-- Node3&#45;&gt;Node4 -->
<g id="edge3" class="edge"><title>Node3&#45;&gt;Node4</title>
<path fill="none" stroke="midnightblue" d="M191,-182.532C191,-173.361 191,-163.245 191,-155.293"/>
<polygon fill="midnightblue" stroke="midnightblue" points="187.5,-182.679 191,-192.679 194.5,-182.679 187.5,-182.679"/>
</g>
<!-- Node5 -->
<g id="node5" class="node"><title>Node5</title>
<g id="a_node5"><a xlink:href="exec-node_8cc.html" target="_top" xlink:title="be/src/exec/exec&#45;node.cc">
<polygon fill="white" stroke="black" points="3339.5,-0.5 3339.5,-19.5 3468.5,-19.5 3468.5,-0.5 3339.5,-0.5"/>
<text text-anchor="middle" x="3404" y="-7.5" font-family="Helvetica,sans-Serif" font-size="10.00">be/src/exec/exec&#45;node.cc</text>
</a>
</g>
</g>
<!-- Node3&#45;&gt;Node5 -->
<g id="edge4" class="edge"><title>Node3&#45;&gt;Node5</title>
<path fill="none" stroke="midnightblue" d="M253.009,-192.045C900.048,-97.0085 2948.31,-25.9804 3339.2,-13.0954"/>
<polygon fill="midnightblue" stroke="midnightblue" points="252.494,-188.583 243.117,-193.516 253.524,-195.507 252.494,-188.583"/>
</g>
<!-- Node35 -->
<g id="node35" class="node"><title>Node35</title>
<g id="a_node35"><a xlink:href="topn-node_8h.html" target="_top" xlink:title="be/src/exec/topn&#45;node.h">
<polygon fill="white" stroke="black" points="3435,-130.5 3435,-149.5 3557,-149.5 3557,-130.5 3435,-130.5"/>
<text text-anchor="middle" x="3496" y="-137.5" font-family="Helvetica,sans-Serif" font-size="10.00">be/src/exec/topn&#45;node.h</text>
</a>
</g>
</g>
<!-- Node34&#45;&gt;Node35 -->
<g id="edge34" class="edge"><title>Node34&#45;&gt;Node35</title>
<path fill="none" stroke="midnightblue" d="M4098.3,-192.05C4098.2,-192.033 4098.1,-192.017 4098,-192 3901.87,-159.781 3666.24,-147.316 3557.06,-143.014"/>
<polygon fill="midnightblue" stroke="midnightblue" points="4097.4,-195.442 4107.87,-193.81 4098.66,-188.558 4097.4,-195.442"/>
</g>
<!-- Node37 -->
<g id="node37" class="node"><title>Node37</title>
<g id="a_node37"><a xlink:href="data-stream-recvr_8h.html" target="_top" xlink:title="be/src/runtime/data\l&#45;stream&#45;recvr.h">
<polygon fill="white" stroke="black" points="3912.5,-125 3912.5,-155 4013.5,-155 4013.5,-125 3912.5,-125"/>
<text text-anchor="start" x="3920.5" y="-143" font-family="Helvetica,sans-Serif" font-size="10.00">be/src/runtime/data</text>
<text text-anchor="middle" x="3963" y="-132" font-family="Helvetica,sans-Serif" font-size="10.00">&#45;stream&#45;recvr.h</text>
</a>
</g>
</g>
<!-- Node34&#45;&gt;Node37 -->
<g id="edge37" class="edge"><title>Node34&#45;&gt;Node37</title>
<path fill="none" stroke="midnightblue" d="M4107.3,-189.592C4075.25,-178.798 4034.62,-165.116 4004.64,-155.022"/>
<polygon fill="midnightblue" stroke="midnightblue" points="4106.36,-192.967 4116.95,-192.841 4108.59,-186.333 4106.36,-192.967"/>
</g>
<!-- Node41 -->
<g id="node41" class="node"><title>Node41</title>
<g id="a_node41"><a xlink:href="data-stream-test_8cc.html" target="_top" xlink:title="be/src/runtime/data\l&#45;stream&#45;test.cc">
<polygon fill="white" stroke="black" points="3960.5,-57 3960.5,-87 4061.5,-87 4061.5,-57 3960.5,-57"/>
<text text-anchor="start" x="3968.5" y="-75" font-family="Helvetica,sans-Serif" font-size="10.00">be/src/runtime/data</text>
<text text-anchor="middle" x="4011" y="-64" font-family="Helvetica,sans-Serif" font-size="10.00">&#45;stream&#45;test.cc</text>
</a>
</g>
</g>
<!-- Node34&#45;&gt;Node41 -->
<g id="edge43" class="edge"><title>Node34&#45;&gt;Node41</title>
<path fill="none" stroke="midnightblue" d="M4135.86,-186.053C4105.49,-158.556 4052.98,-111.009 4026.8,-87.3016"/>
<polygon fill="midnightblue" stroke="midnightblue" points="4133.68,-188.796 4143.44,-192.913 4138.38,-183.607 4133.68,-188.796"/>
</g>
<!-- Node43 -->
<g id="node43" class="node"><title>Node43</title>
<g id="a_node43"><a xlink:href="sorted-run-merger_8h.html" target="_top" xlink:title="be/src/runtime/sorted\l&#45;run&#45;merger.h">
<polygon fill="white" stroke="black" points="4154.5,-125 4154.5,-155 4263.5,-155 4263.5,-125 4154.5,-125"/>
<text text-anchor="start" x="4162.5" y="-143" font-family="Helvetica,sans-Serif" font-size="10.00">be/src/runtime/sorted</text>
<text text-anchor="middle" x="4209" y="-132" font-family="Helvetica,sans-Serif" font-size="10.00">&#45;run&#45;merger.h</text>
</a>
</g>
</g>
<!-- Node34&#45;&gt;Node43 -->
<g id="edge44" class="edge"><title>Node34&#45;&gt;Node43</title>
<path fill="none" stroke="midnightblue" d="M4175.96,-184.608C4183.31,-174.912 4191.69,-163.85 4198.17,-155.293"/>
<polygon fill="midnightblue" stroke="midnightblue" points="4173.1,-182.595 4169.85,-192.679 4178.68,-186.822 4173.1,-182.595"/>
</g>
<!-- Node47 -->
<g id="node47" class="node"><title>Node47</title>
<g id="a_node47"><a xlink:href="sorter_8h.html" target="_top" xlink:title="be/src/runtime/sorter.h">
<polygon fill="white" stroke="black" points="4324.5,-130.5 4324.5,-149.5 4439.5,-149.5 4439.5,-130.5 4324.5,-130.5"/>
<text text-anchor="middle" x="4382" y="-137.5" font-family="Helvetica,sans-Serif" font-size="10.00">be/src/runtime/sorter.h</text>
</a>
</g>
</g>
<!-- Node34&#45;&gt;Node47 -->
<g id="edge49" class="edge"><title>Node34&#45;&gt;Node47</title>
<path fill="none" stroke="midnightblue" d="M4216.24,-190.058C4260.09,-177.081 4318.74,-159.723 4353.23,-149.514"/>
<polygon fill="midnightblue" stroke="midnightblue" points="4215.16,-186.728 4206.57,-192.922 4217.15,-193.44 4215.16,-186.728"/>
</g>
<!-- Node35&#45;&gt;Node5 -->
<g id="edge35" class="edge"><title>Node35&#45;&gt;Node5</title>
<path fill="none" stroke="midnightblue" d="M3467.43,-125.472C3452.08,-116.808 3434.08,-104.151 3423,-88 3408.35,-66.6569 3404.97,-35.1348 3404.21,-19.8947"/>
<polygon fill="midnightblue" stroke="midnightblue" points="3466.09,-128.725 3476.56,-130.347 3469.38,-122.55 3466.09,-128.725"/>
</g>
<!-- Node36 -->
<g id="node36" class="node"><title>Node36</title>
<g id="a_node36"><a xlink:href="topn-node_8cc.html" target="_top" xlink:title="be/src/exec/topn&#45;node.cc">
<polygon fill="white" stroke="black" points="3432.5,-62.5 3432.5,-81.5 3559.5,-81.5 3559.5,-62.5 3432.5,-62.5"/>
<text text-anchor="middle" x="3496" y="-69.5" font-family="Helvetica,sans-Serif" font-size="10.00">be/src/exec/topn&#45;node.cc</text>
</a>
</g>
</g>
<!-- Node35&#45;&gt;Node36 -->
<g id="edge36" class="edge"><title>Node35&#45;&gt;Node36</title>
<path fill="none" stroke="midnightblue" d="M3496,-120.041C3496,-107.472 3496,-91.5631 3496,-81.8411"/>
<polygon fill="midnightblue" stroke="midnightblue" points="3492.5,-120.372 3496,-130.372 3499.5,-120.372 3492.5,-120.372"/>
</g>
<!-- Node38 -->
<g id="node38" class="node"><title>Node38</title>
<g id="a_node38"><a xlink:href="exchange-node_8cc.html" target="_top" xlink:title="be/src/exec/exchange\l&#45;node.cc">
<polygon fill="white" stroke="black" points="3577.5,-57 3577.5,-87 3690.5,-87 3690.5,-57 3577.5,-57"/>
<text text-anchor="start" x="3585.5" y="-75" font-family="Helvetica,sans-Serif" font-size="10.00">be/src/exec/exchange</text>
<text text-anchor="middle" x="3634" y="-64" font-family="Helvetica,sans-Serif" font-size="10.00">&#45;node.cc</text>
</a>
</g>
</g>
<!-- Node37&#45;&gt;Node38 -->
<g id="edge38" class="edge"><title>Node37&#45;&gt;Node38</title>
<path fill="none" stroke="midnightblue" d="M3902.26,-127.908C3848.67,-117.969 3768.5,-102.727 3699,-88 3696.28,-87.4238 3693.5,-86.8238 3690.69,-86.2095"/>
<polygon fill="midnightblue" stroke="midnightblue" points="3901.81,-131.384 3912.28,-129.762 3903.08,-124.501 3901.81,-131.384"/>
</g>
<!-- Node39 -->
<g id="node39" class="node"><title>Node39</title>
<g id="a_node39"><a xlink:href="data-stream-mgr_8cc.html" target="_top" xlink:title="be/src/runtime/data\l&#45;stream&#45;mgr.cc">
<polygon fill="white" stroke="black" points="3708.5,-57 3708.5,-87 3809.5,-87 3809.5,-57 3708.5,-57"/>
<text text-anchor="start" x="3716.5" y="-75" font-family="Helvetica,sans-Serif" font-size="10.00">be/src/runtime/data</text>
<text text-anchor="middle" x="3759" y="-64" font-family="Helvetica,sans-Serif" font-size="10.00">&#45;stream&#45;mgr.cc</text>
</a>
</g>
</g>
<!-- Node37&#45;&gt;Node39 -->
<g id="edge39" class="edge"><title>Node37&#45;&gt;Node39</title>
<path fill="none" stroke="midnightblue" d="M3909.88,-121.813C3876.45,-110.998 3833.85,-97.2157 3802.45,-87.0561"/>
<polygon fill="midnightblue" stroke="midnightblue" points="3908.9,-125.174 3919.49,-124.922 3911.05,-118.514 3908.9,-125.174"/>
</g>
<!-- Node40 -->
<g id="node40" class="node"><title>Node40</title>
<g id="a_node40"><a xlink:href="data-stream-recvr_8cc.html" target="_top" xlink:title="be/src/runtime/data\l&#45;stream&#45;recvr.cc">
<polygon fill="white" stroke="black" points="4079.5,-57 4079.5,-87 4180.5,-87 4180.5,-57 4079.5,-57"/>
<text text-anchor="start" x="4087.5" y="-75" font-family="Helvetica,sans-Serif" font-size="10.00">be/src/runtime/data</text>
<text text-anchor="middle" x="4130" y="-64" font-family="Helvetica,sans-Serif" font-size="10.00">&#45;stream&#45;recvr.cc</text>
</a>
</g>
</g>
<!-- Node37&#45;&gt;Node40 -->
<g id="edge40" class="edge"><title>Node37&#45;&gt;Node40</title>
<path fill="none" stroke="midnightblue" d="M4008.47,-121.031C4035.55,-110.328 4069.42,-96.9417 4094.52,-87.0218"/>
<polygon fill="midnightblue" stroke="midnightblue" points="4006.84,-117.911 3998.83,-124.841 4009.41,-124.421 4006.84,-117.911"/>
</g>
<!-- Node37&#45;&gt;Node41 -->
<g id="edge41" class="edge"><title>Node37&#45;&gt;Node41</title>
<path fill="none" stroke="midnightblue" d="M3979.5,-116.314C3986.5,-106.689 3994.44,-95.7635 4000.61,-87.2931"/>
<polygon fill="midnightblue" stroke="midnightblue" points="3976.47,-114.533 3973.42,-124.679 3982.13,-118.65 3976.47,-114.533"/>
</g>
<!-- Node42 -->
<g id="node42" class="node"><title>Node42</title>
<g id="a_node42"><a xlink:href="runtime-state_8cc.html" target="_top" xlink:title="be/src/runtime/runtime\l&#45;state.cc">
<polygon fill="white" stroke="black" points="3828,-57 3828,-87 3942,-87 3942,-57 3828,-57"/>
<text text-anchor="start" x="3836" y="-75" font-family="Helvetica,sans-Serif" font-size="10.00">be/src/runtime/runtime</text>
<text text-anchor="middle" x="3885" y="-64" font-family="Helvetica,sans-Serif" font-size="10.00">&#45;state.cc</text>
</a>
</g>
</g>
<!-- Node37&#45;&gt;Node42 -->
<g id="edge42" class="edge"><title>Node37&#45;&gt;Node42</title>
<path fill="none" stroke="midnightblue" d="M3938.2,-118.018C3926.26,-107.915 3912.26,-96.0696 3901.62,-87.0663"/>
<polygon fill="midnightblue" stroke="midnightblue" points="3936.18,-120.891 3946.08,-124.679 3940.7,-115.548 3936.18,-120.891"/>
</g>
<!-- Node43&#45;&gt;Node40 -->
<g id="edge46" class="edge"><title>Node43&#45;&gt;Node40</title>
<path fill="none" stroke="midnightblue" d="M4183.89,-118.018C4171.79,-107.915 4157.61,-96.0696 4146.84,-87.0663"/>
<polygon fill="midnightblue" stroke="midnightblue" points="4181.94,-120.954 4191.86,-124.679 4186.43,-115.582 4181.94,-120.954"/>
</g>
<!-- Node44 -->
<g id="node44" class="node"><title>Node44</title>
<g id="a_node44"><a xlink:href="sort-node_8cc.html" target="_top" xlink:title="be/src/exec/sort&#45;node.cc">
<polygon fill="white" stroke="black" points="4323.5,-0.5 4323.5,-19.5 4448.5,-19.5 4448.5,-0.5 4323.5,-0.5"/>
<text text-anchor="middle" x="4386" y="-7.5" font-family="Helvetica,sans-Serif" font-size="10.00">be/src/exec/sort&#45;node.cc</text>
</a>
</g>
</g>
<!-- Node43&#45;&gt;Node44 -->
<g id="edge45" class="edge"><title>Node43&#45;&gt;Node44</title>
<path fill="none" stroke="midnightblue" d="M4208.62,-114.701C4209.65,-96.2901 4214.07,-71.5829 4229,-56 4253.33,-30.6135 4290.92,-19.2624 4323.22,-14.3059"/>
<polygon fill="midnightblue" stroke="midnightblue" points="4205.11,-114.866 4208.35,-124.955 4212.11,-115.051 4205.11,-114.866"/>
</g>
<!-- Node45 -->
<g id="node45" class="node"><title>Node45</title>
<g id="a_node45"><a xlink:href="sorted-run-merger_8cc.html" target="_top" xlink:title="be/src/runtime/sorted\l&#45;run&#45;merger.cc">
<polygon fill="white" stroke="black" points="4237.5,-57 4237.5,-87 4346.5,-87 4346.5,-57 4237.5,-57"/>
<text text-anchor="start" x="4245.5" y="-75" font-family="Helvetica,sans-Serif" font-size="10.00">be/src/runtime/sorted</text>
<text text-anchor="middle" x="4292" y="-64" font-family="Helvetica,sans-Serif" font-size="10.00">&#45;run&#45;merger.cc</text>
</a>
</g>
</g>
<!-- Node43&#45;&gt;Node45 -->
<g id="edge47" class="edge"><title>Node43&#45;&gt;Node45</title>
<path fill="none" stroke="midnightblue" d="M4235.02,-118.309C4247.81,-108.143 4262.88,-96.1562 4274.31,-87.0663"/>
<polygon fill="midnightblue" stroke="midnightblue" points="4232.66,-115.716 4227.01,-124.679 4237.02,-121.194 4232.66,-115.716"/>
</g>
<!-- Node46 -->
<g id="node46" class="node"><title>Node46</title>
<g id="a_node46"><a xlink:href="sorter_8cc.html" target="_top" xlink:title="be/src/runtime/sorter.cc">
<polygon fill="white" stroke="black" points="4365,-62.5 4365,-81.5 4485,-81.5 4485,-62.5 4365,-62.5"/>
<text text-anchor="middle" x="4425" y="-69.5" font-family="Helvetica,sans-Serif" font-size="10.00">be/src/runtime/sorter.cc</text>
</a>
</g>
</g>
<!-- Node43&#45;&gt;Node46 -->
<g id="edge48" class="edge"><title>Node43&#45;&gt;Node46</title>
<path fill="none" stroke="midnightblue" d="M4264.71,-121.976C4307.15,-109.008 4363.79,-91.7018 4397.14,-81.5138"/>
<polygon fill="midnightblue" stroke="midnightblue" points="4263.61,-118.653 4255.07,-124.922 4265.66,-125.347 4263.61,-118.653"/>
</g>
<!-- Node47&#45;&gt;Node45 -->
<g id="edge53" class="edge"><title>Node47&#45;&gt;Node45</title>
<path fill="none" stroke="midnightblue" d="M4362.06,-124.378C4346.95,-113.296 4326.3,-98.154 4311.34,-87.1815"/>
<polygon fill="midnightblue" stroke="midnightblue" points="4360.1,-127.28 4370.23,-130.372 4364.24,-121.636 4360.1,-127.28"/>
</g>
<!-- Node47&#45;&gt;Node46 -->
<g id="edge54" class="edge"><title>Node47&#45;&gt;Node46</title>
<path fill="none" stroke="midnightblue" d="M4393.12,-121.938C4401.47,-109.112 4412.58,-92.0591 4419.24,-81.8411"/>
<polygon fill="midnightblue" stroke="midnightblue" points="4390.15,-120.082 4387.62,-130.372 4396.01,-123.904 4390.15,-120.082"/>
</g>
<!-- Node48 -->
<g id="node48" class="node"><title>Node48</title>
<g id="a_node48"><a xlink:href="sort-node_8h.html" target="_top" xlink:title="be/src/exec/sort&#45;node.h">
<polygon fill="white" stroke="black" points="4503.5,-62.5 4503.5,-81.5 4622.5,-81.5 4622.5,-62.5 4503.5,-62.5"/>
<text text-anchor="middle" x="4563" y="-69.5" font-family="Helvetica,sans-Serif" font-size="10.00">be/src/exec/sort&#45;node.h</text>
</a>
</g>
</g>
<!-- Node47&#45;&gt;Node48 -->
<g id="edge50" class="edge"><title>Node47&#45;&gt;Node48</title>
<path fill="none" stroke="midnightblue" d="M4415.25,-126.875C4451.32,-113.723 4507.97,-93.066 4539.62,-81.5259"/>
<polygon fill="midnightblue" stroke="midnightblue" points="4413.86,-123.658 4405.66,-130.372 4416.26,-130.234 4413.86,-123.658"/>
</g>
<!-- Node48&#45;&gt;Node5 -->
<g id="edge51" class="edge"><title>Node48&#45;&gt;Node5</title>
<path fill="none" stroke="midnightblue" d="M4518.86,-60.3551C4510.33,-58.6336 4501.42,-57.0681 4493,-56 4292.96,-30.6211 3671.22,-16.3101 3468.57,-12.2283"/>
<polygon fill="midnightblue" stroke="midnightblue" points="4518.16,-63.7827 4528.66,-62.4272 4519.6,-56.9341 4518.16,-63.7827"/>
</g>
<!-- Node48&#45;&gt;Node44 -->
<g id="edge52" class="edge"><title>Node48&#45;&gt;Node44</title>
<path fill="none" stroke="midnightblue" d="M4527.99,-59.1331C4493.59,-47.4699 4441.92,-29.9545 4411.31,-19.5806"/>
<polygon fill="midnightblue" stroke="midnightblue" points="4527.05,-62.5077 4537.64,-62.4035 4529.29,-55.8783 4527.05,-62.5077"/>
</g>
</g>
</svg>
