<?xml version="1.0" encoding="UTF-8" standalone="no"?>
<!DOCTYPE svg PUBLIC "-//W3C//DTD SVG 1.1//EN"
 "http://www.w3.org/Graphics/SVG/1.1/DTD/svg11.dtd">
<!-- Generated by graphviz version 2.36.0 (20140111.2315)
 -->
<!-- Title: be/src/util/filesystem&#45;util.cc Pages: 1 -->
<svg width="1360pt" height="288pt"
 viewBox="0.00 0.00 1360.00 288.00" xmlns="http://www.w3.org/2000/svg" xmlns:xlink="http://www.w3.org/1999/xlink">
<g id="graph0" class="graph" transform="scale(1 1) rotate(0) translate(4 284)">
<title>be/src/util/filesystem&#45;util.cc</title>
<polygon fill="white" stroke="none" points="-4,4 -4,-284 1356,-284 1356,4 -4,4"/>
<!-- Node1 -->
<g id="node1" class="node"><title>Node1</title>
<polygon fill="#bfbfbf" stroke="black" points="527.5,-249 527.5,-279 634.5,-279 634.5,-249 527.5,-249"/>
<text text-anchor="start" x="535.5" y="-267" font-family="Helvetica,sans-Serif" font-size="10.00">be/src/util/filesystem</text>
<text text-anchor="middle" x="581" y="-256" font-family="Helvetica,sans-Serif" font-size="10.00">&#45;util.cc</text>
</g>
<!-- Node2 -->
<g id="node2" class="node"><title>Node2</title>
<polygon fill="white" stroke="#bfbfbf" points="306,-192.5 306,-211.5 350,-211.5 350,-192.5 306,-192.5"/>
<text text-anchor="middle" x="328" y="-199.5" font-family="Helvetica,sans-Serif" font-size="10.00">fcntl.h</text>
</g>
<!-- Node1&#45;&gt;Node2 -->
<g id="edge1" class="edge"><title>Node1&#45;&gt;Node2</title>
<path fill="none" stroke="midnightblue" d="M527.413,-251.583C484.61,-242.261 422.88,-228.366 360.349,-212.247"/>
<polygon fill="midnightblue" stroke="midnightblue" points="360.868,-208.765 350.309,-209.641 359.109,-215.541 360.868,-208.765"/>
</g>
<!-- Node3 -->
<g id="node3" class="node"><title>Node3</title>
<polygon fill="white" stroke="#bfbfbf" points="368,-192.5 368,-211.5 428,-211.5 428,-192.5 368,-192.5"/>
<text text-anchor="middle" x="398" y="-199.5" font-family="Helvetica,sans-Serif" font-size="10.00">sys/stat.h</text>
</g>
<!-- Node1&#45;&gt;Node3 -->
<g id="edge2" class="edge"><title>Node1&#45;&gt;Node3</title>
<path fill="none" stroke="midnightblue" d="M538.095,-248.933C506.299,-238.508 463.473,-224.467 433.574,-214.663"/>
<polygon fill="midnightblue" stroke="midnightblue" points="434.556,-211.302 423.964,-211.513 432.376,-217.954 434.556,-211.302"/>
</g>
<!-- Node4 -->
<g id="node4" class="node"><title>Node4</title>
<polygon fill="white" stroke="#bfbfbf" points="445.5,-192.5 445.5,-211.5 552.5,-211.5 552.5,-192.5 445.5,-192.5"/>
<text text-anchor="middle" x="499" y="-199.5" font-family="Helvetica,sans-Serif" font-size="10.00">boost/filesystem.hpp</text>
</g>
<!-- Node1&#45;&gt;Node4 -->
<g id="edge3" class="edge"><title>Node1&#45;&gt;Node4</title>
<path fill="none" stroke="midnightblue" d="M561.567,-248.781C548.792,-239.433 532.111,-227.227 519.186,-217.77"/>
<polygon fill="midnightblue" stroke="midnightblue" points="521.069,-214.811 510.932,-211.731 516.935,-220.46 521.069,-214.811"/>
</g>
<!-- Node5 -->
<g id="node5" class="node"><title>Node5</title>
<polygon fill="white" stroke="#bfbfbf" points="-0.5,-6.5 -0.5,-25.5 120.5,-25.5 120.5,-6.5 -0.5,-6.5"/>
<text text-anchor="middle" x="60" y="-13.5" font-family="Helvetica,sans-Serif" font-size="10.00">gutil/strings/substitute.h</text>
</g>
<!-- Node1&#45;&gt;Node5 -->
<g id="edge4" class="edge"><title>Node1&#45;&gt;Node5</title>
<path fill="none" stroke="midnightblue" d="M580.741,-248.872C579.698,-233.047 575.65,-207.58 561,-192 497.118,-124.065 221.002,-54.1452 108.241,-27.8575"/>
<polygon fill="midnightblue" stroke="midnightblue" points="108.701,-24.3715 98.1689,-25.5245 107.121,-31.191 108.701,-24.3715"/>
</g>
<!-- Node6 -->
<g id="node6" class="node"><title>Node6</title>
<g id="a_node6"><a xlink:href="filesystem-util_8h.html" target="_top" xlink:title="util/filesystem&#45;util.h">
<polygon fill="white" stroke="black" points="697.5,-192.5 697.5,-211.5 798.5,-211.5 798.5,-192.5 697.5,-192.5"/>
<text text-anchor="middle" x="748" y="-199.5" font-family="Helvetica,sans-Serif" font-size="10.00">util/filesystem&#45;util.h</text>
</a>
</g>
</g>
<!-- Node1&#45;&gt;Node6 -->
<g id="edge5" class="edge"><title>Node1&#45;&gt;Node6</title>
<path fill="none" stroke="midnightblue" d="M620.154,-248.933C648.832,-238.629 687.341,-224.794 714.578,-215.008"/>
<polygon fill="midnightblue" stroke="midnightblue" points="715.836,-218.275 724.063,-211.6 713.469,-211.687 715.836,-218.275"/>
</g>
<!-- Node18 -->
<g id="node18" class="node"><title>Node18</title>
<g id="a_node18"><a xlink:href="error-util_8h.html" target="_top" xlink:title="util/error&#45;util.h">
<polygon fill="white" stroke="black" points="609,-74.5 609,-93.5 685,-93.5 685,-74.5 609,-74.5"/>
<text text-anchor="middle" x="647" y="-81.5" font-family="Helvetica,sans-Serif" font-size="10.00">util/error&#45;util.h</text>
</a>
</g>
</g>
<!-- Node1&#45;&gt;Node18 -->
<g id="edge27" class="edge"><title>Node1&#45;&gt;Node18</title>
<path fill="none" stroke="midnightblue" d="M586.289,-248.734C598.21,-216.586 627.153,-138.525 640.302,-103.064"/>
<polygon fill="midnightblue" stroke="midnightblue" points="643.644,-104.117 643.839,-93.5244 637.081,-101.684 643.644,-104.117"/>
</g>
<!-- Node23 -->
<g id="node23" class="node"><title>Node23</title>
<g id="a_node23"><a xlink:href="names_8h.html" target="_top" xlink:title="common/names.h">
<polygon fill="white" stroke="black" points="834.5,-192.5 834.5,-211.5 929.5,-211.5 929.5,-192.5 834.5,-192.5"/>
<text text-anchor="middle" x="882" y="-199.5" font-family="Helvetica,sans-Serif" font-size="10.00">common/names.h</text>
</a>
</g>
</g>
<!-- Node1&#45;&gt;Node23 -->
<g id="edge28" class="edge"><title>Node1&#45;&gt;Node23</title>
<path fill="none" stroke="midnightblue" d="M634.813,-252.273C689.893,-241.294 774.935,-224.342 829.524,-213.46"/>
<polygon fill="midnightblue" stroke="midnightblue" points="830.225,-216.889 839.348,-211.502 828.857,-210.025 830.225,-216.889"/>
</g>
<!-- Node7 -->
<g id="node7" class="node"><title>Node7</title>
<g id="a_node7"><a xlink:href="status_8h.html" target="_top" xlink:title="common/status.h">
<polygon fill="white" stroke="black" points="743,-136.5 743,-155.5 835,-155.5 835,-136.5 743,-136.5"/>
<text text-anchor="middle" x="789" y="-143.5" font-family="Helvetica,sans-Serif" font-size="10.00">common/status.h</text>
</a>
</g>
</g>
<!-- Node6&#45;&gt;Node7 -->
<g id="edge6" class="edge"><title>Node6&#45;&gt;Node7</title>
<path fill="none" stroke="midnightblue" d="M754.77,-192.083C760.562,-184.455 769.058,-173.264 776.138,-163.941"/>
<polygon fill="midnightblue" stroke="midnightblue" points="779.096,-165.832 782.356,-155.751 773.521,-161.599 779.096,-165.832"/>
</g>
<!-- Node8 -->
<g id="node8" class="node"><title>Node8</title>
<polygon fill="white" stroke="#bfbfbf" points="994.5,-6.5 994.5,-25.5 1035.5,-25.5 1035.5,-6.5 994.5,-6.5"/>
<text text-anchor="middle" x="1015" y="-13.5" font-family="Helvetica,sans-Serif" font-size="10.00">string</text>
</g>
<!-- Node7&#45;&gt;Node8 -->
<g id="edge7" class="edge"><title>Node7&#45;&gt;Node8</title>
<path fill="none" stroke="midnightblue" d="M792.943,-136.317C800.701,-120.242 819.527,-85.8593 846,-68 898.903,-32.3103 925.242,-54.3933 985,-32 986.649,-31.3819 988.328,-30.7004 990.006,-29.9792"/>
<polygon fill="midnightblue" stroke="midnightblue" points="991.827,-32.9908 999.397,-25.578 988.857,-26.6523 991.827,-32.9908"/>
</g>
<!-- Node9 -->
<g id="node9" class="node"><title>Node9</title>
<polygon fill="white" stroke="#bfbfbf" points="678,-6.5 678,-25.5 722,-25.5 722,-6.5 678,-6.5"/>
<text text-anchor="middle" x="700" y="-13.5" font-family="Helvetica,sans-Serif" font-size="10.00">vector</text>
</g>
<!-- Node7&#45;&gt;Node9 -->
<g id="edge8" class="edge"><title>Node7&#45;&gt;Node9</title>
<path fill="none" stroke="midnightblue" d="M782.883,-136.202C768.204,-115.092 730.79,-61.2823 711.655,-33.7623"/>
<polygon fill="midnightblue" stroke="midnightblue" points="714.508,-31.7347 705.926,-25.5224 708.761,-35.7309 714.508,-31.7347"/>
</g>
<!-- Node10 -->
<g id="node10" class="node"><title>Node10</title>
<polygon fill="white" stroke="#bfbfbf" points="740,-6.5 740,-25.5 854,-25.5 854,-6.5 740,-6.5"/>
<text text-anchor="middle" x="797" y="-13.5" font-family="Helvetica,sans-Serif" font-size="10.00">boost/lexical_cast.hpp</text>
</g>
<!-- Node7&#45;&gt;Node10 -->
<g id="edge9" class="edge"><title>Node7&#45;&gt;Node10</title>
<path fill="none" stroke="midnightblue" d="M785.286,-136.429C779.596,-122.183 769.889,-92.7501 775,-68 777.402,-56.3652 782.588,-44.1169 787.321,-34.5404"/>
<polygon fill="midnightblue" stroke="midnightblue" points="790.429,-36.15 791.955,-25.6655 784.224,-32.9103 790.429,-36.15"/>
</g>
<!-- Node11 -->
<g id="node11" class="node"><title>Node11</title>
<g id="a_node11"><a xlink:href="logging_8h.html" target="_top" xlink:title="common/logging.h">
<polygon fill="white" stroke="black" points="1129,-74.5 1129,-93.5 1225,-93.5 1225,-74.5 1129,-74.5"/>
<text text-anchor="middle" x="1177" y="-81.5" font-family="Helvetica,sans-Serif" font-size="10.00">common/logging.h</text>
</a>
</g>
</g>
<!-- Node7&#45;&gt;Node11 -->
<g id="edge10" class="edge"><title>Node7&#45;&gt;Node11</title>
<path fill="none" stroke="midnightblue" d="M835.197,-137.33C838.174,-136.87 841.128,-136.423 844,-136 965.95,-118.045 997.991,-123.476 1119,-100 1124.82,-98.8706 1130.93,-97.5002 1136.9,-96.0523"/>
<polygon fill="midnightblue" stroke="midnightblue" points="1137.91,-99.4064 1146.76,-93.571 1136.21,-92.6182 1137.91,-99.4064"/>
</g>
<!-- Node14 -->
<g id="node14" class="node"><title>Node14</title>
<g id="a_node14"><a xlink:href="compiler-util_8h.html" target="_top" xlink:title="common/compiler&#45;util.h">
<polygon fill="white" stroke="black" points="855,-74.5 855,-93.5 973,-93.5 973,-74.5 855,-74.5"/>
<text text-anchor="middle" x="914" y="-81.5" font-family="Helvetica,sans-Serif" font-size="10.00">common/compiler&#45;util.h</text>
</a>
</g>
</g>
<!-- Node7&#45;&gt;Node14 -->
<g id="edge13" class="edge"><title>Node7&#45;&gt;Node14</title>
<path fill="none" stroke="midnightblue" d="M806.909,-136.403C827.887,-126.334 862.85,-109.552 887.093,-97.9151"/>
<polygon fill="midnightblue" stroke="midnightblue" points="888.623,-101.063 896.124,-93.5806 885.594,-94.7526 888.623,-101.063"/>
</g>
<!-- Node15 -->
<g id="node15" class="node"><title>Node15</title>
<polygon fill="white" stroke="#bfbfbf" points="991,-74.5 991,-93.5 1111,-93.5 1111,-74.5 991,-74.5"/>
<text text-anchor="middle" x="1051" y="-81.5" font-family="Helvetica,sans-Serif" font-size="10.00">gen&#45;cpp/Status_types.h</text>
</g>
<!-- Node7&#45;&gt;Node15 -->
<g id="edge14" class="edge"><title>Node7&#45;&gt;Node15</title>
<path fill="none" stroke="midnightblue" d="M826.26,-136.467C873.014,-125.76 953.221,-107.392 1004.1,-95.74"/>
<polygon fill="midnightblue" stroke="midnightblue" points="1004.9,-99.1474 1013.87,-93.5034 1003.34,-92.3241 1004.9,-99.1474"/>
</g>
<!-- Node16 -->
<g id="node16" class="node"><title>Node16</title>
<polygon fill="white" stroke="#bfbfbf" points="872,-1 872,-31 976,-31 976,-1 872,-1"/>
<text text-anchor="start" x="880" y="-19" font-family="Helvetica,sans-Serif" font-size="10.00">gen&#45;cpp/ErrorCodes</text>
<text text-anchor="middle" x="924" y="-8" font-family="Helvetica,sans-Serif" font-size="10.00">_types.h</text>
</g>
<!-- Node7&#45;&gt;Node16 -->
<g id="edge15" class="edge"><title>Node7&#45;&gt;Node16</title>
<path fill="none" stroke="midnightblue" d="M789.461,-136.269C790.723,-120.718 795.435,-87.9817 813,-68 826.116,-53.0797 844.495,-42.25 862.529,-34.515"/>
<polygon fill="midnightblue" stroke="midnightblue" points="863.927,-37.7254 871.899,-30.7469 861.315,-31.2309 863.927,-37.7254"/>
</g>
<!-- Node17 -->
<g id="node17" class="node"><title>Node17</title>
<polygon fill="white" stroke="#bfbfbf" points="1243.5,-69 1243.5,-99 1352.5,-99 1352.5,-69 1243.5,-69"/>
<text text-anchor="start" x="1251.5" y="-87" font-family="Helvetica,sans-Serif" font-size="10.00">gen&#45;cpp/TCLIService</text>
<text text-anchor="middle" x="1298" y="-76" font-family="Helvetica,sans-Serif" font-size="10.00">_types.h</text>
</g>
<!-- Node7&#45;&gt;Node17 -->
<g id="edge16" class="edge"><title>Node7&#45;&gt;Node17</title>
<path fill="none" stroke="midnightblue" d="M835.179,-137.202C838.161,-136.773 841.121,-136.368 844,-136 1013.46,-114.341 1060.45,-127.42 1233.34,-99.9499"/>
<polygon fill="midnightblue" stroke="midnightblue" points="1233.97,-103.394 1243.29,-98.3479 1232.86,-96.4833 1233.97,-103.394"/>
</g>
<!-- Node7&#45;&gt;Node18 -->
<g id="edge17" class="edge"><title>Node7&#45;&gt;Node18</title>
<path fill="none" stroke="midnightblue" d="M768.655,-136.403C744.613,-126.245 704.403,-109.255 676.837,-97.6074"/>
<polygon fill="midnightblue" stroke="midnightblue" points="677.881,-94.2488 667.307,-93.5806 675.157,-100.697 677.881,-94.2488"/>
</g>
<!-- Node12 -->
<g id="node12" class="node"><title>Node12</title>
<polygon fill="white" stroke="#bfbfbf" points="1193.5,-6.5 1193.5,-25.5 1270.5,-25.5 1270.5,-6.5 1193.5,-6.5"/>
<text text-anchor="middle" x="1232" y="-13.5" font-family="Helvetica,sans-Serif" font-size="10.00">glog/logging.h</text>
</g>
<!-- Node11&#45;&gt;Node12 -->
<g id="edge11" class="edge"><title>Node11&#45;&gt;Node12</title>
<path fill="none" stroke="midnightblue" d="M1184.19,-74.3717C1192.79,-64.053 1207.37,-46.5513 1218.18,-33.5854"/>
<polygon fill="midnightblue" stroke="midnightblue" points="1220.92,-35.764 1224.63,-25.8411 1215.54,-31.2827 1220.92,-35.764"/>
</g>
<!-- Node13 -->
<g id="node13" class="node"><title>Node13</title>
<polygon fill="white" stroke="#bfbfbf" points="1095,-6.5 1095,-25.5 1175,-25.5 1175,-6.5 1095,-6.5"/>
<text text-anchor="middle" x="1135" y="-13.5" font-family="Helvetica,sans-Serif" font-size="10.00">gflags/gflags.h</text>
</g>
<!-- Node11&#45;&gt;Node13 -->
<g id="edge12" class="edge"><title>Node11&#45;&gt;Node13</title>
<path fill="none" stroke="midnightblue" d="M1171.51,-74.3717C1165.07,-64.2495 1154.23,-47.2154 1146.03,-34.3312"/>
<polygon fill="midnightblue" stroke="midnightblue" points="1148.95,-32.3987 1140.63,-25.8411 1143.04,-36.1568 1148.95,-32.3987"/>
</g>
<!-- Node18&#45;&gt;Node5 -->
<g id="edge26" class="edge"><title>Node18&#45;&gt;Node5</title>
<path fill="none" stroke="midnightblue" d="M621.325,-74.4708C613.011,-72.0123 603.691,-69.5723 595,-68 390.59,-31.0213 334.531,-62.1344 129,-32 121.154,-30.8496 112.867,-29.3229 104.864,-27.6834"/>
<polygon fill="midnightblue" stroke="midnightblue" points="105.442,-24.2281 94.932,-25.5663 103.983,-31.0742 105.442,-24.2281"/>
</g>
<!-- Node18&#45;&gt;Node8 -->
<g id="edge18" class="edge"><title>Node18&#45;&gt;Node8</title>
<path fill="none" stroke="midnightblue" d="M685.152,-78.769C761.311,-70.0735 929.627,-49.5365 985,-32 986.915,-31.3935 988.859,-30.678 990.789,-29.8939"/>
<polygon fill="midnightblue" stroke="midnightblue" points="992.511,-32.9544 1000.13,-25.5892 989.58,-26.5973 992.511,-32.9544"/>
</g>
<!-- Node18&#45;&gt;Node9 -->
<g id="edge19" class="edge"><title>Node18&#45;&gt;Node9</title>
<path fill="none" stroke="midnightblue" d="M653.929,-74.3717C662.136,-64.1512 676.002,-46.884 686.383,-33.9571"/>
<polygon fill="midnightblue" stroke="midnightblue" points="689.368,-35.8298 692.9,-25.8411 683.91,-31.4468 689.368,-35.8298"/>
</g>
<!-- Node18&#45;&gt;Node10 -->
<g id="edge21" class="edge"><title>Node18&#45;&gt;Node10</title>
<path fill="none" stroke="midnightblue" d="M666.61,-74.3717C692.438,-63.0075 738.066,-42.9309 767.918,-29.7961"/>
<polygon fill="midnightblue" stroke="midnightblue" points="769.642,-32.8615 777.385,-25.6305 766.823,-26.4543 769.642,-32.8615"/>
</g>
<!-- Node18&#45;&gt;Node16 -->
<g id="edge23" class="edge"><title>Node18&#45;&gt;Node16</title>
<path fill="none" stroke="midnightblue" d="M683.715,-74.4404C724.696,-64.8618 793.259,-48.7653 861.675,-32.3085"/>
<polygon fill="midnightblue" stroke="midnightblue" points="862.862,-35.6227 871.764,-29.8785 861.223,-28.8173 862.862,-35.6227"/>
</g>
<!-- Node19 -->
<g id="node19" class="node"><title>Node19</title>
<polygon fill="white" stroke="#bfbfbf" points="306,-6.5 306,-25.5 398,-25.5 398,-6.5 306,-6.5"/>
<text text-anchor="middle" x="352" y="-13.5" font-family="Helvetica,sans-Serif" font-size="10.00">boost/cstdint.hpp</text>
</g>
<!-- Node18&#45;&gt;Node19 -->
<g id="edge20" class="edge"><title>Node18&#45;&gt;Node19</title>
<path fill="none" stroke="midnightblue" d="M619.058,-74.4303C611.305,-72.1918 602.858,-69.8816 595,-68 512.265,-48.1897 489.877,-51.2064 407,-32 401.947,-30.829 396.658,-29.5088 391.441,-28.1497"/>
<polygon fill="midnightblue" stroke="midnightblue" points="392.144,-24.7147 381.58,-25.5167 390.338,-31.4779 392.144,-24.7147"/>
</g>
<!-- Node20 -->
<g id="node20" class="node"><title>Node20</title>
<polygon fill="white" stroke="#bfbfbf" points="416,-1 416,-31 538,-31 538,-1 416,-1"/>
<text text-anchor="start" x="424" y="-19" font-family="Helvetica,sans-Serif" font-size="10.00">gen&#45;cpp/CatalogObjects</text>
<text text-anchor="middle" x="477" y="-8" font-family="Helvetica,sans-Serif" font-size="10.00">_types.h</text>
</g>
<!-- Node18&#45;&gt;Node20 -->
<g id="edge22" class="edge"><title>Node18&#45;&gt;Node20</title>
<path fill="none" stroke="midnightblue" d="M624.775,-74.3717C598.972,-64.3539 555.731,-47.5661 522.671,-34.7312"/>
<polygon fill="midnightblue" stroke="midnightblue" points="523.794,-31.4127 513.205,-31.0562 521.261,-37.9382 523.794,-31.4127"/>
</g>
<!-- Node21 -->
<g id="node21" class="node"><title>Node21</title>
<polygon fill="white" stroke="#bfbfbf" points="556,-1 556,-31 660,-31 660,-1 556,-1"/>
<text text-anchor="start" x="564" y="-19" font-family="Helvetica,sans-Serif" font-size="10.00">gen&#45;cpp/ErrorCodes</text>
<text text-anchor="middle" x="608" y="-8" font-family="Helvetica,sans-Serif" font-size="10.00">_constants.h</text>
</g>
<!-- Node18&#45;&gt;Node21 -->
<g id="edge24" class="edge"><title>Node18&#45;&gt;Node21</title>
<path fill="none" stroke="midnightblue" d="M641.901,-74.3717C636.735,-65.6286 628.522,-51.7288 621.473,-39.8006"/>
<polygon fill="midnightblue" stroke="midnightblue" points="624.481,-38.0102 616.38,-31.1815 618.454,-41.5713 624.481,-38.0102"/>
</g>
<!-- Node22 -->
<g id="node22" class="node"><title>Node22</title>
<polygon fill="white" stroke="#bfbfbf" points="138.5,-1 138.5,-31 287.5,-31 287.5,-1 138.5,-1"/>
<text text-anchor="start" x="146.5" y="-19" font-family="Helvetica,sans-Serif" font-size="10.00">gen&#45;cpp/ImpalaInternalService</text>
<text text-anchor="middle" x="213" y="-8" font-family="Helvetica,sans-Serif" font-size="10.00">_types.h</text>
</g>
<!-- Node18&#45;&gt;Node22 -->
<g id="edge25" class="edge"><title>Node18&#45;&gt;Node22</title>
<path fill="none" stroke="midnightblue" d="M620.483,-74.4611C612.372,-72.0908 603.379,-69.7031 595,-68 467.458,-42.0755 430.722,-51.2525 297.783,-32.0466"/>
<polygon fill="midnightblue" stroke="midnightblue" points="298.022,-28.5442 287.619,-30.5504 297.003,-35.4696 298.022,-28.5442"/>
</g>
<!-- Node24 -->
<g id="node24" class="node"><title>Node24</title>
<polygon fill="white" stroke="#bfbfbf" points="853,-136.5 853,-155.5 947,-155.5 947,-136.5 853,-136.5"/>
<text text-anchor="middle" x="900" y="-143.5" font-family="Helvetica,sans-Serif" font-size="10.00">boost/version.hpp</text>
</g>
<!-- Node23&#45;&gt;Node24 -->
<g id="edge29" class="edge"><title>Node23&#45;&gt;Node24</title>
<path fill="none" stroke="midnightblue" d="M884.972,-192.083C887.384,-184.849 890.864,-174.409 893.868,-165.397"/>
<polygon fill="midnightblue" stroke="midnightblue" points="897.241,-166.345 897.083,-155.751 890.6,-164.131 897.241,-166.345"/>
</g>
</g>
</svg>
