<?xml version="1.0" encoding="UTF-8" standalone="no"?>
<!DOCTYPE svg PUBLIC "-//W3C//DTD SVG 1.1//EN"
 "http://www.w3.org/Graphics/SVG/1.1/DTD/svg11.dtd">
<!-- Generated by graphviz version 2.36.0 (20140111.2315)
 -->
<!-- Title: be/src/util/filesystem&#45;util.h Pages: 1 -->
<svg width="496pt" height="176pt"
 viewBox="0.00 0.00 496.00 176.00" xmlns="http://www.w3.org/2000/svg" xmlns:xlink="http://www.w3.org/1999/xlink">
<g id="graph0" class="graph" transform="scale(1 1) rotate(0) translate(4 172)">
<title>be/src/util/filesystem&#45;util.h</title>
<polygon fill="white" stroke="none" points="-4,4 -4,-172 492,-172 492,4 -4,4"/>
<!-- Node1 -->
<g id="node1" class="node"><title>Node1</title>
<polygon fill="#bfbfbf" stroke="black" points="202.5,-137 202.5,-167 309.5,-167 309.5,-137 202.5,-137"/>
<text text-anchor="start" x="210.5" y="-155" font-family="Helvetica,sans-Serif" font-size="10.00">be/src/util/filesystem</text>
<text text-anchor="middle" x="256" y="-144" font-family="Helvetica,sans-Serif" font-size="10.00">&#45;util.h</text>
</g>
<!-- Node2 -->
<g id="node2" class="node"><title>Node2</title>
<g id="a_node2"><a xlink:href="buffered-block-mgr_8cc.html" target="_top" xlink:title="be/src/runtime/buffered\l&#45;block&#45;mgr.cc">
<polygon fill="white" stroke="black" points="12.5,-69 12.5,-99 129.5,-99 129.5,-69 12.5,-69"/>
<text text-anchor="start" x="20.5" y="-87" font-family="Helvetica,sans-Serif" font-size="10.00">be/src/runtime/buffered</text>
<text text-anchor="middle" x="71" y="-76" font-family="Helvetica,sans-Serif" font-size="10.00">&#45;block&#45;mgr.cc</text>
</a>
</g>
</g>
<!-- Node1&#45;&gt;Node2 -->
<g id="edge1" class="edge"><title>Node1&#45;&gt;Node2</title>
<path fill="none" stroke="midnightblue" d="M206.812,-133.452C176.62,-122.68 138.475,-109.072 110.304,-99.0218"/>
<polygon fill="midnightblue" stroke="midnightblue" points="205.718,-136.778 216.313,-136.841 208.07,-130.185 205.718,-136.778"/>
</g>
<!-- Node3 -->
<g id="node3" class="node"><title>Node3</title>
<g id="a_node3"><a xlink:href="disk-io-mgr-internal_8h.html" target="_top" xlink:title="be/src/runtime/disk\l&#45;io&#45;mgr&#45;internal.h">
<polygon fill="white" stroke="black" points="148,-69 148,-99 248,-99 248,-69 148,-69"/>
<text text-anchor="start" x="156" y="-87" font-family="Helvetica,sans-Serif" font-size="10.00">be/src/runtime/disk</text>
<text text-anchor="middle" x="198" y="-76" font-family="Helvetica,sans-Serif" font-size="10.00">&#45;io&#45;mgr&#45;internal.h</text>
</a>
</g>
</g>
<!-- Node1&#45;&gt;Node3 -->
<g id="edge2" class="edge"><title>Node1&#45;&gt;Node3</title>
<path fill="none" stroke="midnightblue" d="M236.58,-128.901C227.998,-119.136 218.156,-107.936 210.561,-99.2931"/>
<polygon fill="midnightblue" stroke="midnightblue" points="234.185,-131.478 243.415,-136.679 239.443,-126.857 234.185,-131.478"/>
</g>
<!-- Node7 -->
<g id="node7" class="node"><title>Node7</title>
<g id="a_node7"><a xlink:href="tmp-file-mgr_8cc.html" target="_top" xlink:title="be/src/runtime/tmp\l&#45;file&#45;mgr.cc">
<polygon fill="white" stroke="black" points="266,-69 266,-99 364,-99 364,-69 266,-69"/>
<text text-anchor="start" x="274" y="-87" font-family="Helvetica,sans-Serif" font-size="10.00">be/src/runtime/tmp</text>
<text text-anchor="middle" x="315" y="-76" font-family="Helvetica,sans-Serif" font-size="10.00">&#45;file&#45;mgr.cc</text>
</a>
</g>
</g>
<!-- Node1&#45;&gt;Node7 -->
<g id="edge6" class="edge"><title>Node1&#45;&gt;Node7</title>
<path fill="none" stroke="midnightblue" d="M275.493,-129.194C284.284,-119.36 294.419,-108.023 302.223,-99.2931"/>
<polygon fill="midnightblue" stroke="midnightblue" points="272.857,-126.891 268.802,-136.679 278.076,-131.556 272.857,-126.891"/>
</g>
<!-- Node8 -->
<g id="node8" class="node"><title>Node8</title>
<g id="a_node8"><a xlink:href="filesystem-util_8cc.html" target="_top" xlink:title="be/src/util/filesystem\l&#45;util.cc">
<polygon fill="white" stroke="black" points="381.5,-69 381.5,-99 488.5,-99 488.5,-69 381.5,-69"/>
<text text-anchor="start" x="389.5" y="-87" font-family="Helvetica,sans-Serif" font-size="10.00">be/src/util/filesystem</text>
<text text-anchor="middle" x="435" y="-76" font-family="Helvetica,sans-Serif" font-size="10.00">&#45;util.cc</text>
</a>
</g>
</g>
<!-- Node1&#45;&gt;Node8 -->
<g id="edge7" class="edge"><title>Node1&#45;&gt;Node8</title>
<path fill="none" stroke="midnightblue" d="M303.972,-133.312C333.125,-122.563 369.831,-109.029 396.971,-99.0218"/>
<polygon fill="midnightblue" stroke="midnightblue" points="302.572,-130.098 294.4,-136.841 304.993,-136.666 302.572,-130.098"/>
</g>
<!-- Node4 -->
<g id="node4" class="node"><title>Node4</title>
<g id="a_node4"><a xlink:href="disk-io-mgr-reader-context_8cc.html" target="_top" xlink:title="be/src/runtime/disk\l&#45;io&#45;mgr&#45;reader&#45;context.cc">
<polygon fill="white" stroke="black" points="-0.5,-1 -0.5,-31 124.5,-31 124.5,-1 -0.5,-1"/>
<text text-anchor="start" x="7.5" y="-19" font-family="Helvetica,sans-Serif" font-size="10.00">be/src/runtime/disk</text>
<text text-anchor="middle" x="62" y="-8" font-family="Helvetica,sans-Serif" font-size="10.00">&#45;io&#45;mgr&#45;reader&#45;context.cc</text>
</a>
</g>
</g>
<!-- Node3&#45;&gt;Node4 -->
<g id="edge3" class="edge"><title>Node3&#45;&gt;Node4</title>
<path fill="none" stroke="midnightblue" d="M159.547,-64.3388C137.823,-53.7964 111.105,-40.8303 91.1272,-31.1352"/>
<polygon fill="midnightblue" stroke="midnightblue" points="158.3,-67.6241 168.825,-68.8413 161.356,-61.3265 158.3,-67.6241"/>
</g>
<!-- Node5 -->
<g id="node5" class="node"><title>Node5</title>
<g id="a_node5"><a xlink:href="disk-io-mgr-scan-range_8cc.html" target="_top" xlink:title="be/src/runtime/disk\l&#45;io&#45;mgr&#45;scan&#45;range.cc">
<polygon fill="white" stroke="black" points="142.5,-1 142.5,-31 253.5,-31 253.5,-1 142.5,-1"/>
<text text-anchor="start" x="150.5" y="-19" font-family="Helvetica,sans-Serif" font-size="10.00">be/src/runtime/disk</text>
<text text-anchor="middle" x="198" y="-8" font-family="Helvetica,sans-Serif" font-size="10.00">&#45;io&#45;mgr&#45;scan&#45;range.cc</text>
</a>
</g>
</g>
<!-- Node3&#45;&gt;Node5 -->
<g id="edge4" class="edge"><title>Node3&#45;&gt;Node5</title>
<path fill="none" stroke="midnightblue" d="M198,-58.5322C198,-49.3606 198,-39.2449 198,-31.2931"/>
<polygon fill="midnightblue" stroke="midnightblue" points="194.5,-58.6789 198,-68.679 201.5,-58.679 194.5,-58.6789"/>
</g>
<!-- Node6 -->
<g id="node6" class="node"><title>Node6</title>
<g id="a_node6"><a xlink:href="disk-io-mgr_8cc.html" target="_top" xlink:title="be/src/runtime/disk\l&#45;io&#45;mgr.cc">
<polygon fill="white" stroke="black" points="272,-1 272,-31 372,-31 372,-1 272,-1"/>
<text text-anchor="start" x="280" y="-19" font-family="Helvetica,sans-Serif" font-size="10.00">be/src/runtime/disk</text>
<text text-anchor="middle" x="322" y="-8" font-family="Helvetica,sans-Serif" font-size="10.00">&#45;io&#45;mgr.cc</text>
</a>
</g>
</g>
<!-- Node3&#45;&gt;Node6 -->
<g id="edge5" class="edge"><title>Node3&#45;&gt;Node6</title>
<path fill="none" stroke="midnightblue" d="M233.594,-64.0545C253.304,-53.5641 277.391,-40.7434 295.443,-31.1352"/>
<polygon fill="midnightblue" stroke="midnightblue" points="231.784,-61.0532 224.601,-68.8413 235.073,-67.2324 231.784,-61.0532"/>
</g>
</g>
</svg>
