<?xml version="1.0" encoding="UTF-8" standalone="no"?>
<!DOCTYPE svg PUBLIC "-//W3C//DTD SVG 1.1//EN"
 "http://www.w3.org/Graphics/SVG/1.1/DTD/svg11.dtd">
<!-- Generated by graphviz version 2.36.0 (20140111.2315)
 -->
<!-- Title: be/src/runtime/free&#45;pool.h Pages: 1 -->
<svg width="214pt" height="108pt"
 viewBox="0.00 0.00 214.00 108.00" xmlns="http://www.w3.org/2000/svg" xmlns:xlink="http://www.w3.org/1999/xlink">
<g id="graph0" class="graph" transform="scale(1 1) rotate(0) translate(4 104)">
<title>be/src/runtime/free&#45;pool.h</title>
<polygon fill="white" stroke="none" points="-4,4 -4,-104 210,-104 210,4 -4,4"/>
<!-- Node1 -->
<g id="node1" class="node"><title>Node1</title>
<polygon fill="#bfbfbf" stroke="black" points="56,-69 56,-99 154,-99 154,-69 56,-69"/>
<text text-anchor="start" x="64" y="-87" font-family="Helvetica,sans-Serif" font-size="10.00">be/src/runtime/free</text>
<text text-anchor="middle" x="105" y="-76" font-family="Helvetica,sans-Serif" font-size="10.00">&#45;pool.h</text>
</g>
<!-- Node2 -->
<g id="node2" class="node"><title>Node2</title>
<g id="a_node2"><a xlink:href="free-pool-test_8cc.html" target="_top" xlink:title="be/src/runtime/free\l&#45;pool&#45;test.cc">
<polygon fill="white" stroke="black" points="0,-1 0,-31 98,-31 98,-1 0,-1"/>
<text text-anchor="start" x="8" y="-19" font-family="Helvetica,sans-Serif" font-size="10.00">be/src/runtime/free</text>
<text text-anchor="middle" x="49" y="-8" font-family="Helvetica,sans-Serif" font-size="10.00">&#45;pool&#45;test.cc</text>
</a>
</g>
</g>
<!-- Node1&#45;&gt;Node2 -->
<g id="edge1" class="edge"><title>Node1&#45;&gt;Node2</title>
<path fill="none" stroke="midnightblue" d="M86.2496,-60.9013C77.964,-51.1362 68.4611,-39.9363 61.1275,-31.2931"/>
<polygon fill="midnightblue" stroke="midnightblue" points="83.7102,-63.3183 92.8488,-68.679 89.0478,-58.7894 83.7102,-63.3183"/>
</g>
<!-- Node3 -->
<g id="node3" class="node"><title>Node3</title>
<g id="a_node3"><a xlink:href="udf_8cc.html" target="_top" xlink:title="be/src/udf/udf.cc">
<polygon fill="white" stroke="black" points="116,-6.5 116,-25.5 206,-25.5 206,-6.5 116,-6.5"/>
<text text-anchor="middle" x="161" y="-13.5" font-family="Helvetica,sans-Serif" font-size="10.00">be/src/udf/udf.cc</text>
</a>
</g>
</g>
<!-- Node1&#45;&gt;Node3 -->
<g id="edge2" class="edge"><title>Node1&#45;&gt;Node3</title>
<path fill="none" stroke="midnightblue" d="M123.819,-60.821C133.978,-48.8471 145.951,-34.7359 153.509,-25.8283"/>
<polygon fill="midnightblue" stroke="midnightblue" points="120.952,-58.7894 117.151,-68.679 126.29,-63.3183 120.952,-58.7894"/>
</g>
</g>
</svg>
