<?xml version="1.0" encoding="UTF-8" standalone="no"?>
<!DOCTYPE svg PUBLIC "-//W3C//DTD SVG 1.1//EN"
 "http://www.w3.org/Graphics/SVG/1.1/DTD/svg11.dtd">
<!-- Generated by graphviz version 2.36.0 (20140111.2315)
 -->
<!-- Title: be/src/service/frontend.h Pages: 1 -->
<svg width="1586pt" height="232pt"
 viewBox="0.00 0.00 1586.00 232.00" xmlns="http://www.w3.org/2000/svg" xmlns:xlink="http://www.w3.org/1999/xlink">
<g id="graph0" class="graph" transform="scale(1 1) rotate(0) translate(4 228)">
<title>be/src/service/frontend.h</title>
<polygon fill="white" stroke="none" points="-4,4 -4,-228 1582,-228 1582,4 -4,4"/>
<!-- Node1 -->
<g id="node1" class="node"><title>Node1</title>
<polygon fill="#bfbfbf" stroke="black" points="283.5,-204.5 283.5,-223.5 408.5,-223.5 408.5,-204.5 283.5,-204.5"/>
<text text-anchor="middle" x="346" y="-211.5" font-family="Helvetica,sans-Serif" font-size="10.00">be/src/service/frontend.h</text>
</g>
<!-- Node2 -->
<g id="node2" class="node"><title>Node2</title>
<polygon fill="white" stroke="#bfbfbf" points="-0.5,-142.5 -0.5,-161.5 34.5,-161.5 34.5,-142.5 -0.5,-142.5"/>
<text text-anchor="middle" x="17" y="-149.5" font-family="Helvetica,sans-Serif" font-size="10.00">jni.h</text>
</g>
<!-- Node1&#45;&gt;Node2 -->
<g id="edge1" class="edge"><title>Node1&#45;&gt;Node2</title>
<path fill="none" stroke="midnightblue" d="M283.44,-210.538C221.008,-206.515 123.099,-195.916 43,-168 41.5852,-167.507 40.1603,-166.935 38.7454,-166.309"/>
<polygon fill="midnightblue" stroke="midnightblue" points="40.2525,-163.148 29.7658,-161.638 37.0219,-169.358 40.2525,-163.148"/>
</g>
<!-- Node3 -->
<g id="node3" class="node"><title>Node3</title>
<polygon fill="white" stroke="#bfbfbf" points="52.5,-142.5 52.5,-161.5 177.5,-161.5 177.5,-142.5 52.5,-142.5"/>
<text text-anchor="middle" x="115" y="-149.5" font-family="Helvetica,sans-Serif" font-size="10.00">gen&#45;cpp/ImpalaService.h</text>
</g>
<!-- Node1&#45;&gt;Node3 -->
<g id="edge2" class="edge"><title>Node1&#45;&gt;Node3</title>
<path fill="none" stroke="midnightblue" d="M312.903,-204.403C272.078,-193.799 202.592,-175.751 157.761,-164.107"/>
<polygon fill="midnightblue" stroke="midnightblue" points="158.594,-160.707 148.035,-161.581 156.834,-167.482 158.594,-160.707"/>
</g>
<!-- Node4 -->
<g id="node4" class="node"><title>Node4</title>
<polygon fill="white" stroke="#bfbfbf" points="195.5,-137 195.5,-167 332.5,-167 332.5,-137 195.5,-137"/>
<text text-anchor="start" x="203.5" y="-155" font-family="Helvetica,sans-Serif" font-size="10.00">gen&#45;cpp/ImpalaHiveServer2</text>
<text text-anchor="middle" x="264" y="-144" font-family="Helvetica,sans-Serif" font-size="10.00">Service.h</text>
</g>
<!-- Node1&#45;&gt;Node4 -->
<g id="edge3" class="edge"><title>Node1&#45;&gt;Node4</title>
<path fill="none" stroke="midnightblue" d="M334.251,-204.403C323.146,-196.277 306.065,-183.779 291.527,-173.142"/>
<polygon fill="midnightblue" stroke="midnightblue" points="293.463,-170.221 283.326,-167.141 289.329,-175.871 293.463,-170.221"/>
</g>
<!-- Node5 -->
<g id="node5" class="node"><title>Node5</title>
<polygon fill="white" stroke="#bfbfbf" points="350.5,-142.5 350.5,-161.5 507.5,-161.5 507.5,-142.5 350.5,-142.5"/>
<text text-anchor="middle" x="429" y="-149.5" font-family="Helvetica,sans-Serif" font-size="10.00">gen&#45;cpp/ImpalaInternalService.h</text>
</g>
<!-- Node1&#45;&gt;Node5 -->
<g id="edge4" class="edge"><title>Node1&#45;&gt;Node5</title>
<path fill="none" stroke="midnightblue" d="M357.892,-204.403C371.205,-194.78 393,-179.024 408.957,-167.489"/>
<polygon fill="midnightblue" stroke="midnightblue" points="411.076,-170.276 417.13,-161.581 406.975,-164.603 411.076,-170.276"/>
</g>
<!-- Node6 -->
<g id="node6" class="node"><title>Node6</title>
<polygon fill="white" stroke="#bfbfbf" points="526,-142.5 526,-161.5 656,-161.5 656,-142.5 526,-142.5"/>
<text text-anchor="middle" x="591" y="-149.5" font-family="Helvetica,sans-Serif" font-size="10.00">gen&#45;cpp/Frontend_types.h</text>
</g>
<!-- Node1&#45;&gt;Node6 -->
<g id="edge5" class="edge"><title>Node1&#45;&gt;Node6</title>
<path fill="none" stroke="midnightblue" d="M380.842,-204.467C424.38,-193.805 498.941,-175.545 546.549,-163.886"/>
<polygon fill="midnightblue" stroke="midnightblue" points="547.397,-167.282 556.278,-161.503 545.732,-160.483 547.397,-167.282"/>
</g>
<!-- Node7 -->
<g id="node7" class="node"><title>Node7</title>
<g id="a_node7"><a xlink:href="status_8h.html" target="_top" xlink:title="common/status.h">
<polygon fill="white" stroke="black" points="674,-142.5 674,-161.5 766,-161.5 766,-142.5 674,-142.5"/>
<text text-anchor="middle" x="720" y="-149.5" font-family="Helvetica,sans-Serif" font-size="10.00">common/status.h</text>
</a>
</g>
</g>
<!-- Node1&#45;&gt;Node7 -->
<g id="edge6" class="edge"><title>Node1&#45;&gt;Node7</title>
<path fill="none" stroke="midnightblue" d="M408.749,-206.516C473.371,-199.285 576.805,-186.172 665,-168 670.392,-166.889 676.038,-165.553 681.572,-164.141"/>
<polygon fill="midnightblue" stroke="midnightblue" points="682.566,-167.499 691.335,-161.552 680.772,-160.733 682.566,-167.499"/>
</g>
<!-- Node8 -->
<g id="node8" class="node"><title>Node8</title>
<polygon fill="white" stroke="#bfbfbf" points="348.5,-6.5 348.5,-25.5 389.5,-25.5 389.5,-6.5 348.5,-6.5"/>
<text text-anchor="middle" x="369" y="-13.5" font-family="Helvetica,sans-Serif" font-size="10.00">string</text>
</g>
<!-- Node7&#45;&gt;Node8 -->
<g id="edge7" class="edge"><title>Node7&#45;&gt;Node8</title>
<path fill="none" stroke="midnightblue" d="M688.893,-142.452C681.096,-140.327 672.746,-138.067 665,-136 603.756,-119.661 586.109,-122.888 527,-100 476.68,-80.515 421.703,-49.1295 391.693,-31.0523"/>
<polygon fill="midnightblue" stroke="midnightblue" points="393.227,-27.8887 382.865,-25.6826 389.59,-33.8694 393.227,-27.8887"/>
</g>
<!-- Node9 -->
<g id="node9" class="node"><title>Node9</title>
<polygon fill="white" stroke="#bfbfbf" points="408,-6.5 408,-25.5 452,-25.5 452,-6.5 408,-6.5"/>
<text text-anchor="middle" x="430" y="-13.5" font-family="Helvetica,sans-Serif" font-size="10.00">vector</text>
</g>
<!-- Node7&#45;&gt;Node9 -->
<g id="edge8" class="edge"><title>Node7&#45;&gt;Node9</title>
<path fill="none" stroke="midnightblue" d="M697.84,-142.455C672.869,-132.694 631.172,-116 596,-100 545.499,-77.0269 487.834,-47.4083 455.489,-30.4769"/>
<polygon fill="midnightblue" stroke="midnightblue" points="456.781,-27.2018 446.3,-25.651 453.526,-33.3992 456.781,-27.2018"/>
</g>
<!-- Node10 -->
<g id="node10" class="node"><title>Node10</title>
<polygon fill="white" stroke="#bfbfbf" points="470,-6.5 470,-25.5 584,-25.5 584,-6.5 470,-6.5"/>
<text text-anchor="middle" x="527" y="-13.5" font-family="Helvetica,sans-Serif" font-size="10.00">boost/lexical_cast.hpp</text>
</g>
<!-- Node7&#45;&gt;Node10 -->
<g id="edge9" class="edge"><title>Node7&#45;&gt;Node10</title>
<path fill="none" stroke="midnightblue" d="M707.633,-142.414C675.302,-119.966 587.99,-59.3452 547.783,-31.4299"/>
<polygon fill="midnightblue" stroke="midnightblue" points="549.724,-28.5163 539.513,-25.6881 545.732,-34.2663 549.724,-28.5163"/>
</g>
<!-- Node11 -->
<g id="node11" class="node"><title>Node11</title>
<g id="a_node11"><a xlink:href="logging_8h.html" target="_top" xlink:title="common/logging.h">
<polygon fill="white" stroke="black" points="776,-74.5 776,-93.5 872,-93.5 872,-74.5 776,-74.5"/>
<text text-anchor="middle" x="824" y="-81.5" font-family="Helvetica,sans-Serif" font-size="10.00">common/logging.h</text>
</a>
</g>
</g>
<!-- Node7&#45;&gt;Node11 -->
<g id="edge10" class="edge"><title>Node7&#45;&gt;Node11</title>
<path fill="none" stroke="midnightblue" d="M733.596,-142.372C750.958,-131.353 781.226,-112.145 801.917,-99.0142"/>
<polygon fill="midnightblue" stroke="midnightblue" points="803.833,-101.944 810.4,-93.6305 800.082,-96.0336 803.833,-101.944"/>
</g>
<!-- Node14 -->
<g id="node14" class="node"><title>Node14</title>
<g id="a_node14"><a xlink:href="compiler-util_8h.html" target="_top" xlink:title="common/compiler&#45;util.h">
<polygon fill="white" stroke="black" points="890,-74.5 890,-93.5 1008,-93.5 1008,-74.5 890,-74.5"/>
<text text-anchor="middle" x="949" y="-81.5" font-family="Helvetica,sans-Serif" font-size="10.00">common/compiler&#45;util.h</text>
</a>
</g>
</g>
<!-- Node7&#45;&gt;Node14 -->
<g id="edge13" class="edge"><title>Node7&#45;&gt;Node14</title>
<path fill="none" stroke="midnightblue" d="M749.938,-142.372C790.852,-130.58 864.315,-109.407 909.642,-96.3432"/>
<polygon fill="midnightblue" stroke="midnightblue" points="910.778,-99.6584 919.418,-93.5259 908.84,-92.9322 910.778,-99.6584"/>
</g>
<!-- Node15 -->
<g id="node15" class="node"><title>Node15</title>
<polygon fill="white" stroke="#bfbfbf" points="1026,-74.5 1026,-93.5 1146,-93.5 1146,-74.5 1026,-74.5"/>
<text text-anchor="middle" x="1086" y="-81.5" font-family="Helvetica,sans-Serif" font-size="10.00">gen&#45;cpp/Status_types.h</text>
</g>
<!-- Node7&#45;&gt;Node15 -->
<g id="edge14" class="edge"><title>Node7&#45;&gt;Node15</title>
<path fill="none" stroke="midnightblue" d="M766.16,-143.719C824.661,-134.344 928.541,-117.202 1017,-100 1023.79,-98.6794 1030.94,-97.212 1037.96,-95.7268"/>
<polygon fill="midnightblue" stroke="midnightblue" points="1039.06,-99.0719 1048.1,-93.553 1037.59,-92.2275 1039.06,-99.0719"/>
</g>
<!-- Node16 -->
<g id="node16" class="node"><title>Node16</title>
<polygon fill="white" stroke="#bfbfbf" points="602,-1 602,-31 706,-31 706,-1 602,-1"/>
<text text-anchor="start" x="610" y="-19" font-family="Helvetica,sans-Serif" font-size="10.00">gen&#45;cpp/ErrorCodes</text>
<text text-anchor="middle" x="654" y="-8" font-family="Helvetica,sans-Serif" font-size="10.00">_types.h</text>
</g>
<!-- Node7&#45;&gt;Node16 -->
<g id="edge15" class="edge"><title>Node7&#45;&gt;Node16</title>
<path fill="none" stroke="midnightblue" d="M709.32,-142.402C698.497,-133.097 682.091,-117.258 673,-100 663.393,-81.7611 658.614,-58.7636 656.255,-41.6041"/>
<polygon fill="midnightblue" stroke="midnightblue" points="659.683,-40.7964 655.027,-31.2796 652.732,-41.623 659.683,-40.7964"/>
</g>
<!-- Node17 -->
<g id="node17" class="node"><title>Node17</title>
<polygon fill="white" stroke="#bfbfbf" points="1164.5,-69 1164.5,-99 1273.5,-99 1273.5,-69 1164.5,-69"/>
<text text-anchor="start" x="1172.5" y="-87" font-family="Helvetica,sans-Serif" font-size="10.00">gen&#45;cpp/TCLIService</text>
<text text-anchor="middle" x="1219" y="-76" font-family="Helvetica,sans-Serif" font-size="10.00">_types.h</text>
</g>
<!-- Node7&#45;&gt;Node17 -->
<g id="edge16" class="edge"><title>Node7&#45;&gt;Node17</title>
<path fill="none" stroke="midnightblue" d="M766.169,-147.253C845.734,-140.422 1013.66,-124.363 1154,-100 1154.21,-99.9629 1154.43,-99.9255 1154.64,-99.8878"/>
<polygon fill="midnightblue" stroke="midnightblue" points="1155.29,-103.327 1164.47,-98.0409 1154,-96.4478 1155.29,-103.327"/>
</g>
<!-- Node18 -->
<g id="node18" class="node"><title>Node18</title>
<g id="a_node18"><a xlink:href="error-util_8h.html" target="_top" xlink:title="util/error&#45;util.h">
<polygon fill="white" stroke="black" points="682,-74.5 682,-93.5 758,-93.5 758,-74.5 682,-74.5"/>
<text text-anchor="middle" x="720" y="-81.5" font-family="Helvetica,sans-Serif" font-size="10.00">util/error&#45;util.h</text>
</a>
</g>
</g>
<!-- Node7&#45;&gt;Node18 -->
<g id="edge17" class="edge"><title>Node7&#45;&gt;Node18</title>
<path fill="none" stroke="midnightblue" d="M720,-142.372C720,-132.643 720,-116.528 720,-103.85"/>
<polygon fill="midnightblue" stroke="midnightblue" points="723.5,-103.841 720,-93.8411 716.5,-103.841 723.5,-103.841"/>
</g>
<!-- Node12 -->
<g id="node12" class="node"><title>Node12</title>
<polygon fill="white" stroke="#bfbfbf" points="1501.5,-6.5 1501.5,-25.5 1578.5,-25.5 1578.5,-6.5 1501.5,-6.5"/>
<text text-anchor="middle" x="1540" y="-13.5" font-family="Helvetica,sans-Serif" font-size="10.00">glog/logging.h</text>
</g>
<!-- Node11&#45;&gt;Node12 -->
<g id="edge11" class="edge"><title>Node11&#45;&gt;Node12</title>
<path fill="none" stroke="midnightblue" d="M851.886,-74.4798C861.076,-71.9906 871.4,-69.5304 881,-68 1149.63,-25.1748 1224.41,-80.9332 1492,-32 1496.79,-31.1235 1501.78,-29.9161 1506.64,-28.5639"/>
<polygon fill="midnightblue" stroke="midnightblue" points="1507.79,-31.8737 1516.36,-25.6445 1505.78,-25.1697 1507.79,-31.8737"/>
</g>
<!-- Node13 -->
<g id="node13" class="node"><title>Node13</title>
<polygon fill="white" stroke="#bfbfbf" points="1403,-6.5 1403,-25.5 1483,-25.5 1483,-6.5 1403,-6.5"/>
<text text-anchor="middle" x="1443" y="-13.5" font-family="Helvetica,sans-Serif" font-size="10.00">gflags/gflags.h</text>
</g>
<!-- Node11&#45;&gt;Node13 -->
<g id="edge12" class="edge"><title>Node11&#45;&gt;Node13</title>
<path fill="none" stroke="midnightblue" d="M852.187,-74.4651C861.304,-72.0063 871.51,-69.5675 881,-68 1106.51,-30.7533 1169.28,-73.7199 1394,-32 1399.06,-31.0599 1404.34,-29.7779 1409.48,-28.3568"/>
<polygon fill="midnightblue" stroke="midnightblue" points="1410.5,-31.7045 1419.1,-25.5056 1408.51,-24.9934 1410.5,-31.7045"/>
</g>
<!-- Node18&#45;&gt;Node8 -->
<g id="edge18" class="edge"><title>Node18&#45;&gt;Node8</title>
<path fill="none" stroke="midnightblue" d="M681.568,-80.6972C620.438,-76.1967 497.86,-63.7333 399,-32 397.087,-31.386 395.145,-30.665 393.216,-29.8771"/>
<polygon fill="midnightblue" stroke="midnightblue" points="394.427,-26.5811 383.881,-25.5647 391.491,-32.9358 394.427,-26.5811"/>
</g>
<!-- Node18&#45;&gt;Node9 -->
<g id="edge19" class="edge"><title>Node18&#45;&gt;Node9</title>
<path fill="none" stroke="midnightblue" d="M681.904,-78.6055C630.698,-72.0023 537.282,-57.4944 461,-32 459.086,-31.3604 457.138,-30.6287 455.198,-29.8403"/>
<polygon fill="midnightblue" stroke="midnightblue" points="456.317,-26.5057 445.762,-25.5902 453.442,-32.8882 456.317,-26.5057"/>
</g>
<!-- Node18&#45;&gt;Node10 -->
<g id="edge21" class="edge"><title>Node18&#45;&gt;Node10</title>
<path fill="none" stroke="midnightblue" d="M694.769,-74.3717C660.721,-62.7283 599.929,-41.9394 561.626,-28.8411"/>
<polygon fill="midnightblue" stroke="midnightblue" points="562.526,-25.45 551.932,-25.5259 560.261,-32.0734 562.526,-25.45"/>
</g>
<!-- Node18&#45;&gt;Node16 -->
<g id="edge23" class="edge"><title>Node18&#45;&gt;Node16</title>
<path fill="none" stroke="midnightblue" d="M711.372,-74.3717C702.286,-65.2858 687.631,-50.6306 675.407,-38.4068"/>
<polygon fill="midnightblue" stroke="midnightblue" points="677.727,-35.7777 668.181,-31.1815 672.778,-40.7274 677.727,-35.7777"/>
</g>
<!-- Node19 -->
<g id="node19" class="node"><title>Node19</title>
<polygon fill="white" stroke="#bfbfbf" points="1031,-6.5 1031,-25.5 1123,-25.5 1123,-6.5 1031,-6.5"/>
<text text-anchor="middle" x="1077" y="-13.5" font-family="Helvetica,sans-Serif" font-size="10.00">boost/cstdint.hpp</text>
</g>
<!-- Node18&#45;&gt;Node19 -->
<g id="edge20" class="edge"><title>Node18&#45;&gt;Node19</title>
<path fill="none" stroke="midnightblue" d="M744.178,-74.4264C751.445,-72.083 759.485,-69.7188 767,-68 878.147,-42.5773 909.284,-54.7918 1021,-32 1026.49,-30.8808 1032.23,-29.5398 1037.86,-28.1263"/>
<polygon fill="midnightblue" stroke="midnightblue" points="1039.01,-31.4447 1047.8,-25.5356 1037.24,-24.671 1039.01,-31.4447"/>
</g>
<!-- Node20 -->
<g id="node20" class="node"><title>Node20</title>
<polygon fill="white" stroke="#bfbfbf" points="1141,-1 1141,-31 1263,-31 1263,-1 1141,-1"/>
<text text-anchor="start" x="1149" y="-19" font-family="Helvetica,sans-Serif" font-size="10.00">gen&#45;cpp/CatalogObjects</text>
<text text-anchor="middle" x="1202" y="-8" font-family="Helvetica,sans-Serif" font-size="10.00">_types.h</text>
</g>
<!-- Node18&#45;&gt;Node20 -->
<g id="edge22" class="edge"><title>Node18&#45;&gt;Node20</title>
<path fill="none" stroke="midnightblue" d="M743.651,-74.3812C751.042,-71.9789 759.283,-69.5935 767,-68 923.368,-35.7127 969.072,-56.235 1130.69,-32.074"/>
<polygon fill="midnightblue" stroke="midnightblue" points="1131.64,-35.4694 1140.99,-30.4968 1130.58,-28.55 1131.64,-35.4694"/>
</g>
<!-- Node21 -->
<g id="node21" class="node"><title>Node21</title>
<polygon fill="white" stroke="#bfbfbf" points="1281,-1 1281,-31 1385,-31 1385,-1 1281,-1"/>
<text text-anchor="start" x="1289" y="-19" font-family="Helvetica,sans-Serif" font-size="10.00">gen&#45;cpp/ErrorCodes</text>
<text text-anchor="middle" x="1333" y="-8" font-family="Helvetica,sans-Serif" font-size="10.00">_constants.h</text>
</g>
<!-- Node18&#45;&gt;Node21 -->
<g id="edge24" class="edge"><title>Node18&#45;&gt;Node21</title>
<path fill="none" stroke="midnightblue" d="M743.145,-74.4092C750.657,-71.9473 759.094,-69.5209 767,-68 984.726,-26.116 1047.88,-65.7939 1270.83,-31.9921"/>
<polygon fill="midnightblue" stroke="midnightblue" points="1271.53,-35.425 1280.88,-30.4354 1270.46,-28.5075 1271.53,-35.425"/>
</g>
<!-- Node22 -->
<g id="node22" class="node"><title>Node22</title>
<polygon fill="white" stroke="#bfbfbf" points="724.5,-1 724.5,-31 873.5,-31 873.5,-1 724.5,-1"/>
<text text-anchor="start" x="732.5" y="-19" font-family="Helvetica,sans-Serif" font-size="10.00">gen&#45;cpp/ImpalaInternalService</text>
<text text-anchor="middle" x="799" y="-8" font-family="Helvetica,sans-Serif" font-size="10.00">_types.h</text>
</g>
<!-- Node18&#45;&gt;Node22 -->
<g id="edge25" class="edge"><title>Node18&#45;&gt;Node22</title>
<path fill="none" stroke="midnightblue" d="M730.328,-74.3717C741.409,-65.1143 759.409,-50.0756 774.202,-37.7175"/>
<polygon fill="midnightblue" stroke="midnightblue" points="776.595,-40.2789 782.025,-31.1815 772.107,-34.9069 776.595,-40.2789"/>
</g>
<!-- Node23 -->
<g id="node23" class="node"><title>Node23</title>
<polygon fill="white" stroke="#bfbfbf" points="891.5,-6.5 891.5,-25.5 1012.5,-25.5 1012.5,-6.5 891.5,-6.5"/>
<text text-anchor="middle" x="952" y="-13.5" font-family="Helvetica,sans-Serif" font-size="10.00">gutil/strings/substitute.h</text>
</g>
<!-- Node18&#45;&gt;Node23 -->
<g id="edge26" class="edge"><title>Node18&#45;&gt;Node23</title>
<path fill="none" stroke="midnightblue" d="M746.292,-74.4049C753.026,-72.2596 760.268,-70.0014 767,-68 815.602,-53.5514 871.801,-38.2573 909.386,-28.2296"/>
<polygon fill="midnightblue" stroke="midnightblue" points="910.708,-31.4997 919.472,-25.5459 908.908,-24.735 910.708,-31.4997"/>
</g>
</g>
</svg>
