<?xml version="1.0" encoding="UTF-8" standalone="no"?>
<!DOCTYPE svg PUBLIC "-//W3C//DTD SVG 1.1//EN"
 "http://www.w3.org/Graphics/SVG/1.1/DTD/svg11.dtd">
<!-- Generated by graphviz version 2.36.0 (20140111.2315)
 -->
<!-- Title: be/src/exec/hash&#45;table.h Pages: 1 -->
<!--zoomable 232 -->
<svg id="main" version="1.1" xmlns="http://www.w3.org/2000/svg" xmlns:xlink="http://www.w3.org/1999/xlink" xml:space="preserve" onload="init(evt)">
<style type="text/css"><![CDATA[
.edge:hover path { stroke: red; }
.edge:hover polygon { stroke: red; fill: red; }
]]></style>
<script type="text/javascript"><![CDATA[
var edges = document.getElementsByTagName('g');
if (edges && edges.length) {
  for (var i=0;i<edges.length;i++) {
    if (edges[i].id.substr(0,4)=='edge') {
      edges[i].setAttribute('class','edge');
    }
  }
}
]]></script>
        <defs>
                <circle id="rim" cx="0" cy="0" r="7"/>
                <circle id="rim2" cx="0" cy="0" r="3.5"/>
                <g id="zoomPlus">
                        <use xlink:href="#rim" fill="#404040">
                                <set attributeName="fill" to="#808080" begin="zoomplus.mouseover" end="zoomplus.mouseout"/>
                        </use>
                        <path d="M-4,0h8M0,-4v8" fill="none" stroke="white" stroke-width="1.5" pointer-events="none"/>
                </g>
                <g id="zoomMin">
                        <use xlink:href="#rim" fill="#404040">
                                <set attributeName="fill" to="#808080" begin="zoomminus.mouseover" end="zoomminus.mouseout"/>
                        </use>
                        <path d="M-4,0h8" fill="none" stroke="white" stroke-width="1.5" pointer-events="none"/>
                </g>
                <g id="dirArrow">
                        <path fill="none" stroke="white" stroke-width="1.5" d="M0,-3.0v7 M-2.5,-0.5L0,-3.0L2.5,-0.5"/>
                </g>
               <g id="resetDef">
                       <use xlink:href="#rim2" fill="#404040">
                               <set attributeName="fill" to="#808080" begin="reset.mouseover" end="reset.mouseout"/>
                       </use>
               </g>
        </defs>

<script type="text/javascript">
var viewWidth = 1516;
var viewHeight = 232;
var sectionId = 'dynsection-1';
</script>
<script xlink:href="svgpan.js"/>
<svg id="graph" class="graph">
<g id="viewport">
<title>be/src/exec/hash&#45;table.h</title>
<polygon fill="white" stroke="none" points="-4,4 -4,-228 1512,-228 1512,4 -4,4"/>
<!-- Node1 -->
<g id="node1" class="node"><title>Node1</title>
<polygon fill="#bfbfbf" stroke="black" points="1106,-204.5 1106,-223.5 1230,-223.5 1230,-204.5 1106,-204.5"/>
<text text-anchor="middle" x="1168" y="-211.5" font-family="Helvetica,sans-Serif" font-size="10.00">be/src/exec/hash&#45;table.h</text>
</g>
<!-- Node2 -->
<g id="node2" class="node"><title>Node2</title>
<g id="a_node2"><a xlink:href="hash-table_8inline_8h.html" target="_top" xlink:title="be/src/exec/hash&#45;table.inline.h">
<polygon fill="white" stroke="black" points="617.5,-142.5 617.5,-161.5 766.5,-161.5 766.5,-142.5 617.5,-142.5"/>
<text text-anchor="middle" x="692" y="-149.5" font-family="Helvetica,sans-Serif" font-size="10.00">be/src/exec/hash&#45;table.inline.h</text>
</a>
</g>
</g>
<!-- Node1&#45;&gt;Node2 -->
<g id="edge1" class="edge"><title>Node1&#45;&gt;Node2</title>
<path fill="none" stroke="midnightblue" d="M1095.79,-203.898C1004.53,-192.394 848.65,-172.746 759.623,-161.524"/>
<polygon fill="midnightblue" stroke="midnightblue" points="1095.41,-207.378 1105.77,-205.156 1096.29,-200.433 1095.41,-207.378"/>
</g>
<!-- Node13 -->
<g id="node13" class="node"><title>Node13</title>
<g id="a_node13"><a xlink:href="partitioned-aggregation-node_8h.html" target="_top" xlink:title="be/src/exec/partitioned\l&#45;aggregation&#45;node.h">
<polygon fill="white" stroke="black" points="1110,-137 1110,-167 1226,-167 1226,-137 1110,-137"/>
<text text-anchor="start" x="1118" y="-155" font-family="Helvetica,sans-Serif" font-size="10.00">be/src/exec/partitioned</text>
<text text-anchor="middle" x="1168" y="-144" font-family="Helvetica,sans-Serif" font-size="10.00">&#45;aggregation&#45;node.h</text>
</a>
</g>
</g>
<!-- Node1&#45;&gt;Node13 -->
<g id="edge12" class="edge"><title>Node1&#45;&gt;Node13</title>
<path fill="none" stroke="midnightblue" d="M1168,-194.371C1168,-185.585 1168,-175.272 1168,-167.141"/>
<polygon fill="midnightblue" stroke="midnightblue" points="1164.5,-194.403 1168,-204.403 1171.5,-194.403 1164.5,-194.403"/>
</g>
<!-- Node15 -->
<g id="node15" class="node"><title>Node15</title>
<g id="a_node15"><a xlink:href="partitioned-hash-join-node_8h.html" target="_top" xlink:title="be/src/exec/partitioned\l&#45;hash&#45;join&#45;node.h">
<polygon fill="white" stroke="black" points="1251,-137 1251,-167 1367,-167 1367,-137 1251,-137"/>
<text text-anchor="start" x="1259" y="-155" font-family="Helvetica,sans-Serif" font-size="10.00">be/src/exec/partitioned</text>
<text text-anchor="middle" x="1309" y="-144" font-family="Helvetica,sans-Serif" font-size="10.00">&#45;hash&#45;join&#45;node.h</text>
</a>
</g>
</g>
<!-- Node1&#45;&gt;Node15 -->
<g id="edge16" class="edge"><title>Node1&#45;&gt;Node15</title>
<path fill="none" stroke="midnightblue" d="M1197.44,-200.472C1220.39,-190.707 1252.24,-177.152 1276.04,-167.025"/>
<polygon fill="midnightblue" stroke="midnightblue" points="1196.03,-197.267 1188.2,-204.403 1198.77,-203.708 1196.03,-197.267"/>
</g>
<!-- Node3 -->
<g id="node3" class="node"><title>Node3</title>
<g id="a_node3"><a xlink:href="hash-join-node_8cc_8BACKUP_832326_8cc.html" target="_top" xlink:title="be/src/exec/hash&#45;join\l&#45;node.cc.BACKUP.32326.cc">
<polygon fill="white" stroke="black" points="282,-69 282,-99 424,-99 424,-69 282,-69"/>
<text text-anchor="start" x="290" y="-87" font-family="Helvetica,sans-Serif" font-size="10.00">be/src/exec/hash&#45;join</text>
<text text-anchor="middle" x="353" y="-76" font-family="Helvetica,sans-Serif" font-size="10.00">&#45;node.cc.BACKUP.32326.cc</text>
</a>
</g>
</g>
<!-- Node2&#45;&gt;Node3 -->
<g id="edge2" class="edge"><title>Node2&#45;&gt;Node3</title>
<path fill="none" stroke="midnightblue" d="M637.981,-140.483C580.062,-129.207 487.847,-111.253 424.074,-98.8375"/>
<polygon fill="midnightblue" stroke="midnightblue" points="637.545,-143.964 648.029,-142.439 638.882,-137.093 637.545,-143.964"/>
</g>
<!-- Node4 -->
<g id="node4" class="node"><title>Node4</title>
<g id="a_node4"><a xlink:href="hash-join-node_8cc_8BASE_832326_8cc.html" target="_top" xlink:title="be/src/exec/hash&#45;join\l&#45;node.cc.BASE.32326.cc">
<polygon fill="white" stroke="black" points="480.5,-69 480.5,-99 607.5,-99 607.5,-69 480.5,-69"/>
<text text-anchor="start" x="488.5" y="-87" font-family="Helvetica,sans-Serif" font-size="10.00">be/src/exec/hash&#45;join</text>
<text text-anchor="middle" x="544" y="-76" font-family="Helvetica,sans-Serif" font-size="10.00">&#45;node.cc.BASE.32326.cc</text>
</a>
</g>
</g>
<!-- Node2&#45;&gt;Node4 -->
<g id="edge3" class="edge"><title>Node2&#45;&gt;Node4</title>
<path fill="none" stroke="midnightblue" d="M663.271,-138.188C638.076,-126.953 601.512,-110.647 575.52,-99.0562"/>
<polygon fill="midnightblue" stroke="midnightblue" points="662.093,-141.495 672.652,-142.372 664.944,-135.102 662.093,-141.495"/>
</g>
<!-- Node5 -->
<g id="node5" class="node"><title>Node5</title>
<g id="a_node5"><a xlink:href="hash-join-node_8cc_8LOCAL_832326_8cc.html" target="_top" xlink:title="be/src/exec/hash&#45;join\l&#45;node.cc.LOCAL.32326.cc">
<polygon fill="white" stroke="black" points="626,-69 626,-99 758,-99 758,-69 626,-69"/>
<text text-anchor="start" x="634" y="-87" font-family="Helvetica,sans-Serif" font-size="10.00">be/src/exec/hash&#45;join</text>
<text text-anchor="middle" x="692" y="-76" font-family="Helvetica,sans-Serif" font-size="10.00">&#45;node.cc.LOCAL.32326.cc</text>
</a>
</g>
</g>
<!-- Node2&#45;&gt;Node5 -->
<g id="edge4" class="edge"><title>Node2&#45;&gt;Node5</title>
<path fill="none" stroke="midnightblue" d="M692,-132.174C692,-121.678 692,-108.821 692,-99.1815"/>
<polygon fill="midnightblue" stroke="midnightblue" points="688.5,-132.372 692,-142.372 695.5,-132.372 688.5,-132.372"/>
</g>
<!-- Node6 -->
<g id="node6" class="node"><title>Node6</title>
<g id="a_node6"><a xlink:href="hash-join-node_8cc_8REMOTE_832326_8cc.html" target="_top" xlink:title="be/src/exec/hash&#45;join\l&#45;node.cc.REMOTE.32326.cc">
<polygon fill="white" stroke="black" points="776.5,-69 776.5,-99 919.5,-99 919.5,-69 776.5,-69"/>
<text text-anchor="start" x="784.5" y="-87" font-family="Helvetica,sans-Serif" font-size="10.00">be/src/exec/hash&#45;join</text>
<text text-anchor="middle" x="848" y="-76" font-family="Helvetica,sans-Serif" font-size="10.00">&#45;node.cc.REMOTE.32326.cc</text>
</a>
</g>
</g>
<!-- Node2&#45;&gt;Node6 -->
<g id="edge5" class="edge"><title>Node2&#45;&gt;Node6</title>
<path fill="none" stroke="midnightblue" d="M721.93,-138.337C748.497,-127.097 787.258,-110.698 814.776,-99.0562"/>
<polygon fill="midnightblue" stroke="midnightblue" points="720.24,-135.252 712.394,-142.372 722.968,-141.699 720.24,-135.252"/>
</g>
<!-- Node7 -->
<g id="node7" class="node"><title>Node7</title>
<g id="a_node7"><a xlink:href="hash-table-test_8cc.html" target="_top" xlink:title="be/src/exec/hash&#45;table\l&#45;test.cc">
<polygon fill="white" stroke="black" points="0,-69 0,-99 116,-99 116,-69 0,-69"/>
<text text-anchor="start" x="8" y="-87" font-family="Helvetica,sans-Serif" font-size="10.00">be/src/exec/hash&#45;table</text>
<text text-anchor="middle" x="58" y="-76" font-family="Helvetica,sans-Serif" font-size="10.00">&#45;test.cc</text>
</a>
</g>
</g>
<!-- Node2&#45;&gt;Node7 -->
<g id="edge6" class="edge"><title>Node2&#45;&gt;Node7</title>
<path fill="none" stroke="midnightblue" d="M607.17,-146.832C495.942,-140.577 294.976,-126.555 125,-100 122.056,-99.54 119.048,-99.0268 116.016,-98.4752"/>
<polygon fill="midnightblue" stroke="midnightblue" points="607.143,-150.336 617.322,-147.395 607.531,-143.347 607.143,-150.336"/>
</g>
<!-- Node8 -->
<g id="node8" class="node"><title>Node8</title>
<g id="a_node8"><a xlink:href="hash-table_8cc.html" target="_top" xlink:title="be/src/exec/hash&#45;table.cc">
<polygon fill="white" stroke="black" points="134.5,-74.5 134.5,-93.5 263.5,-93.5 263.5,-74.5 134.5,-74.5"/>
<text text-anchor="middle" x="199" y="-81.5" font-family="Helvetica,sans-Serif" font-size="10.00">be/src/exec/hash&#45;table.cc</text>
</a>
</g>
</g>
<!-- Node2&#45;&gt;Node8 -->
<g id="edge7" class="edge"><title>Node2&#45;&gt;Node8</title>
<path fill="none" stroke="midnightblue" d="M607.099,-142.651C522.257,-133.842 388.216,-118.659 273,-100 261.613,-98.1558 249.31,-95.8071 238.067,-93.5185"/>
<polygon fill="midnightblue" stroke="midnightblue" points="606.89,-146.148 617.197,-143.694 607.609,-139.185 606.89,-146.148"/>
</g>
<!-- Node9 -->
<g id="node9" class="node"><title>Node9</title>
<g id="a_node9"><a xlink:href="partitioned-aggregation-node-ir_8cc.html" target="_top" xlink:title="be/src/exec/partitioned\l&#45;aggregation&#45;node&#45;ir.cc">
<polygon fill="white" stroke="black" points="1110,-69 1110,-99 1226,-99 1226,-69 1110,-69"/>
<text text-anchor="start" x="1118" y="-87" font-family="Helvetica,sans-Serif" font-size="10.00">be/src/exec/partitioned</text>
<text text-anchor="middle" x="1168" y="-76" font-family="Helvetica,sans-Serif" font-size="10.00">&#45;aggregation&#45;node&#45;ir.cc</text>
</a>
</g>
</g>
<!-- Node2&#45;&gt;Node9 -->
<g id="edge8" class="edge"><title>Node2&#45;&gt;Node9</title>
<path fill="none" stroke="midnightblue" d="M776.866,-142.711C859.628,-134.082 988.913,-119.153 1100,-100 1103.22,-99.4454 1106.51,-98.8409 1109.83,-98.2033"/>
<polygon fill="midnightblue" stroke="midnightblue" points="776.344,-139.247 766.757,-143.758 777.065,-146.209 776.344,-139.247"/>
</g>
<!-- Node10 -->
<g id="node10" class="node"><title>Node10</title>
<g id="a_node10"><a xlink:href="partitioned-aggregation-node_8cc.html" target="_top" xlink:title="be/src/exec/partitioned\l&#45;aggregation&#45;node.cc">
<polygon fill="white" stroke="black" points="976,-69 976,-99 1092,-99 1092,-69 976,-69"/>
<text text-anchor="start" x="984" y="-87" font-family="Helvetica,sans-Serif" font-size="10.00">be/src/exec/partitioned</text>
<text text-anchor="middle" x="1034" y="-76" font-family="Helvetica,sans-Serif" font-size="10.00">&#45;aggregation&#45;node.cc</text>
</a>
</g>
</g>
<!-- Node2&#45;&gt;Node10 -->
<g id="edge9" class="edge"><title>Node2&#45;&gt;Node10</title>
<path fill="none" stroke="midnightblue" d="M748.723,-140.604C803.4,-130.509 888.439,-114.609 962,-100 966.509,-99.1046 971.173,-98.1645 975.86,-97.2098"/>
<polygon fill="midnightblue" stroke="midnightblue" points="748.076,-137.165 738.877,-142.42 749.346,-144.049 748.076,-137.165"/>
</g>
<!-- Node11 -->
<g id="node11" class="node"><title>Node11</title>
<g id="a_node11"><a xlink:href="partitioned-hash-join-node-ir_8cc.html" target="_top" xlink:title="be/src/exec/partitioned\l&#45;hash&#45;join&#45;node&#45;ir.cc">
<polygon fill="white" stroke="black" points="700,-1 700,-31 816,-31 816,-1 700,-1"/>
<text text-anchor="start" x="708" y="-19" font-family="Helvetica,sans-Serif" font-size="10.00">be/src/exec/partitioned</text>
<text text-anchor="middle" x="758" y="-8" font-family="Helvetica,sans-Serif" font-size="10.00">&#45;hash&#45;join&#45;node&#45;ir.cc</text>
</a>
</g>
</g>
<!-- Node2&#45;&gt;Node11 -->
<g id="edge10" class="edge"><title>Node2&#45;&gt;Node11</title>
<path fill="none" stroke="midnightblue" d="M607.343,-146.24C528.267,-138.627 428.338,-118.912 471,-68 499.603,-33.8658 624.529,-22.5607 699.815,-18.8284"/>
<polygon fill="midnightblue" stroke="midnightblue" points="607.086,-149.731 617.362,-147.152 607.721,-142.76 607.086,-149.731"/>
</g>
<!-- Node12 -->
<g id="node12" class="node"><title>Node12</title>
<g id="a_node12"><a xlink:href="partitioned-hash-join-node_8cc.html" target="_top" xlink:title="be/src/exec/partitioned\l&#45;hash&#45;join&#45;node.cc">
<polygon fill="white" stroke="black" points="1141,-1 1141,-31 1257,-31 1257,-1 1141,-1"/>
<text text-anchor="start" x="1149" y="-19" font-family="Helvetica,sans-Serif" font-size="10.00">be/src/exec/partitioned</text>
<text text-anchor="middle" x="1199" y="-8" font-family="Helvetica,sans-Serif" font-size="10.00">&#45;hash&#45;join&#45;node.cc</text>
</a>
</g>
</g>
<!-- Node2&#45;&gt;Node12 -->
<g id="edge11" class="edge"><title>Node2&#45;&gt;Node12</title>
<path fill="none" stroke="midnightblue" d="M776.743,-142.558C823.165,-135.546 880.703,-122.846 928,-100 948.189,-90.248 946.828,-77.7879 967,-68 1022.47,-41.0857 1092.27,-28.2135 1140.75,-22.1615"/>
<polygon fill="midnightblue" stroke="midnightblue" points="776.107,-139.114 766.713,-144.012 777.111,-146.041 776.107,-139.114"/>
</g>
<!-- Node13&#45;&gt;Node9 -->
<g id="edge14" class="edge"><title>Node13&#45;&gt;Node9</title>
<path fill="none" stroke="midnightblue" d="M1168,-126.532C1168,-117.361 1168,-107.245 1168,-99.2931"/>
<polygon fill="midnightblue" stroke="midnightblue" points="1164.5,-126.679 1168,-136.679 1171.5,-126.679 1164.5,-126.679"/>
</g>
<!-- Node13&#45;&gt;Node10 -->
<g id="edge15" class="edge"><title>Node13&#45;&gt;Node10</title>
<path fill="none" stroke="midnightblue" d="M1130.11,-132.339C1108.71,-121.796 1082.38,-108.83 1062.7,-99.1352"/>
<polygon fill="midnightblue" stroke="midnightblue" points="1128.74,-135.563 1139.25,-136.841 1131.83,-129.283 1128.74,-135.563"/>
</g>
<!-- Node14 -->
<g id="node14" class="node"><title>Node14</title>
<g id="a_node14"><a xlink:href="exec-node_8cc.html" target="_top" xlink:title="be/src/exec/exec&#45;node.cc">
<polygon fill="white" stroke="black" points="1244.5,-74.5 1244.5,-93.5 1373.5,-93.5 1373.5,-74.5 1244.5,-74.5"/>
<text text-anchor="middle" x="1309" y="-81.5" font-family="Helvetica,sans-Serif" font-size="10.00">be/src/exec/exec&#45;node.cc</text>
</a>
</g>
</g>
<!-- Node13&#45;&gt;Node14 -->
<g id="edge13" class="edge"><title>Node13&#45;&gt;Node14</title>
<path fill="none" stroke="midnightblue" d="M1207.5,-132.512C1234.65,-119.804 1269.46,-103.51 1290.45,-93.6819"/>
<polygon fill="midnightblue" stroke="midnightblue" points="1205.82,-129.432 1198.25,-136.841 1208.79,-135.772 1205.82,-129.432"/>
</g>
<!-- Node15&#45;&gt;Node14 -->
<g id="edge17" class="edge"><title>Node15&#45;&gt;Node14</title>
<path fill="none" stroke="midnightblue" d="M1309,-126.376C1309,-114.971 1309,-102.136 1309,-93.8283"/>
<polygon fill="midnightblue" stroke="midnightblue" points="1305.5,-126.679 1309,-136.679 1312.5,-126.679 1305.5,-126.679"/>
</g>
<!-- Node16 -->
<g id="node16" class="node"><title>Node16</title>
<g id="a_node16"><a xlink:href="partitioned-hash-join-node_8inline_8h.html" target="_top" xlink:title="be/src/exec/partitioned\l&#45;hash&#45;join&#45;node.inline.h">
<polygon fill="white" stroke="black" points="1392,-69 1392,-99 1508,-99 1508,-69 1392,-69"/>
<text text-anchor="start" x="1400" y="-87" font-family="Helvetica,sans-Serif" font-size="10.00">be/src/exec/partitioned</text>
<text text-anchor="middle" x="1450" y="-76" font-family="Helvetica,sans-Serif" font-size="10.00">&#45;hash&#45;join&#45;node.inline.h</text>
</a>
</g>
</g>
<!-- Node15&#45;&gt;Node16 -->
<g id="edge18" class="edge"><title>Node15&#45;&gt;Node16</title>
<path fill="none" stroke="midnightblue" d="M1348.56,-132.48C1371.14,-121.913 1399,-108.874 1419.8,-99.1352"/>
<polygon fill="midnightblue" stroke="midnightblue" points="1346.82,-129.432 1339.25,-136.841 1349.79,-135.772 1346.82,-129.432"/>
</g>
<!-- Node16&#45;&gt;Node11 -->
<g id="edge19" class="edge"><title>Node16&#45;&gt;Node11</title>
<path fill="none" stroke="midnightblue" d="M1381.69,-68.1117C1167.64,-36.5019 925.438,-23.6817 816.373,-19.1291"/>
<polygon fill="midnightblue" stroke="midnightblue" points="1381.45,-71.6151 1391.86,-69.6311 1382.49,-64.6919 1381.45,-71.6151"/>
</g>
<!-- Node16&#45;&gt;Node12 -->
<g id="edge20" class="edge"><title>Node16&#45;&gt;Node12</title>
<path fill="none" stroke="midnightblue" d="M1386.74,-66.367C1345.31,-55.4721 1291.76,-41.3902 1252.46,-31.0561"/>
<polygon fill="midnightblue" stroke="midnightblue" points="1385.9,-69.7641 1396.46,-68.9223 1387.68,-62.9942 1385.9,-69.7641"/>
</g>
</g>
</svg>
        <g id="navigator" transform="translate(0 0)" fill="#404254">
                <rect fill="#f2f5e9" fill-opacity="0.5" stroke="#606060" stroke-width=".5" x="0" y="0" width="60" height="60"/>
                <use id="zoomplus" xlink:href="#zoomPlus" x="17" y="9" onmousedown="handleZoom(evt,'in')"/>
                <use id="zoomminus" xlink:href="#zoomMin" x="42" y="9" onmousedown="handleZoom(evt,'out')"/>
                <use id="reset" xlink:href="#resetDef" x="30" y="36" onmousedown="handleReset()"/>
                <g id="arrowUp" xlink:href="#dirArrow" transform="translate(30 24)" onmousedown="handlePan(0,-1)">
                  <use xlink:href="#rim" fill="#404040">
                        <set attributeName="fill" to="#808080" begin="arrowUp.mouseover" end="arrowUp.mouseout"/>
                  </use>
                  <path fill="none" stroke="white" stroke-width="1.5" d="M0,-3.0v7 M-2.5,-0.5L0,-3.0L2.5,-0.5"/>
                </g>
                <g id="arrowRight" xlink:href="#dirArrow" transform="rotate(90) translate(36 -43)" onmousedown="handlePan(1,0)">
                  <use xlink:href="#rim" fill="#404040">
                        <set attributeName="fill" to="#808080" begin="arrowRight.mouseover" end="arrowRight.mouseout"/>
                  </use>
                  <path fill="none" stroke="white" stroke-width="1.5" d="M0,-3.0v7 M-2.5,-0.5L0,-3.0L2.5,-0.5"/>
                </g>
                <g id="arrowDown" xlink:href="#dirArrow" transform="rotate(180) translate(-30 -48)" onmousedown="handlePan(0,1)">
                  <use xlink:href="#rim" fill="#404040">
                        <set attributeName="fill" to="#808080" begin="arrowDown.mouseover" end="arrowDown.mouseout"/>
                  </use>
                  <path fill="none" stroke="white" stroke-width="1.5" d="M0,-3.0v7 M-2.5,-0.5L0,-3.0L2.5,-0.5"/>
                </g>
                <g id="arrowLeft" xlink:href="#dirArrow" transform="rotate(270) translate(-36 17)" onmousedown="handlePan(-1,0)">
                  <use xlink:href="#rim" fill="#404040">
                        <set attributeName="fill" to="#808080" begin="arrowLeft.mouseover" end="arrowLeft.mouseout"/>
                  </use>
                  <path fill="none" stroke="white" stroke-width="1.5" d="M0,-3.0v7 M-2.5,-0.5L0,-3.0L2.5,-0.5"/>
                </g>
        </g>
        <svg viewBox="0 0 15 15" width="100%" height="30px" preserveAspectRatio="xMaxYMin meet">
         <g id="arrow_out" transform="scale(0.3 0.3)">
          <a xlink:href="hash-table_8h__dep__incl_org.svg" target="_base">
           <rect id="button" ry="5" rx="5" y="6" x="6" height="38" width="38"
                fill="#f2f5e9" fill-opacity="0.5" stroke="#606060" stroke-width="1.0"/>
           <path id="arrow"
             d="M 11.500037,31.436501 C 11.940474,20.09759 22.043105,11.32322 32.158766,21.979434 L 37.068811,17.246167 C 37.068811,17.246167 37.088388,32 37.088388,32 L 22.160133,31.978069 C 22.160133,31.978069 26.997745,27.140456 26.997745,27.140456 C 18.528582,18.264221 13.291696,25.230495 11.500037,31.436501 z"
             style="fill:#404040;"/>
          </a>
         </g>
        </svg>
</svg>
