<?xml version="1.0" encoding="UTF-8" standalone="no"?>
<!DOCTYPE svg PUBLIC "-//W3C//DTD SVG 1.1//EN"
 "http://www.w3.org/Graphics/SVG/1.1/DTD/svg11.dtd">
<!-- Generated by graphviz version 2.36.0 (20140111.2315)
 -->
<!-- Title: be/src/util/hash&#45;util.h Pages: 1 -->
<svg width="413pt" height="196pt"
 viewBox="0.00 0.00 413.00 196.00" xmlns="http://www.w3.org/2000/svg" xmlns:xlink="http://www.w3.org/1999/xlink">
<g id="graph0" class="graph" transform="scale(1 1) rotate(0) translate(4 192)">
<title>be/src/util/hash&#45;util.h</title>
<polygon fill="white" stroke="none" points="-4,4 -4,-192 409,-192 409,4 -4,4"/>
<!-- Node1 -->
<g id="node1" class="node"><title>Node1</title>
<polygon fill="#bfbfbf" stroke="black" points="161.5,-168.5 161.5,-187.5 268.5,-187.5 268.5,-168.5 161.5,-168.5"/>
<text text-anchor="middle" x="215" y="-175.5" font-family="Helvetica,sans-Serif" font-size="10.00">be/src/util/hash&#45;util.h</text>
</g>
<!-- Node2 -->
<g id="node2" class="node"><title>Node2</title>
<g id="a_node2"><a xlink:href="logging_8h.html" target="_top" xlink:title="common/logging.h">
<polygon fill="white" stroke="black" points="38,-56.5 38,-75.5 134,-75.5 134,-56.5 38,-56.5"/>
<text text-anchor="middle" x="86" y="-63.5" font-family="Helvetica,sans-Serif" font-size="10.00">common/logging.h</text>
</a>
</g>
</g>
<!-- Node1&#45;&gt;Node2 -->
<g id="edge1" class="edge"><title>Node1&#45;&gt;Node2</title>
<path fill="none" stroke="midnightblue" d="M161.345,-171.285C135.583,-165.604 106.742,-154.329 90,-132 80.153,-118.867 80.1886,-99.723 82.0645,-85.6109"/>
<polygon fill="midnightblue" stroke="midnightblue" points="85.5433,-86.0349 83.8098,-75.5829 78.6469,-84.8346 85.5433,-86.0349"/>
</g>
<!-- Node5 -->
<g id="node5" class="node"><title>Node5</title>
<g id="a_node5"><a xlink:href="compiler-util_8h.html" target="_top" xlink:title="common/compiler&#45;util.h">
<polygon fill="white" stroke="black" points="99,-112.5 99,-131.5 217,-131.5 217,-112.5 99,-112.5"/>
<text text-anchor="middle" x="158" y="-119.5" font-family="Helvetica,sans-Serif" font-size="10.00">common/compiler&#45;util.h</text>
</a>
</g>
</g>
<!-- Node1&#45;&gt;Node5 -->
<g id="edge4" class="edge"><title>Node1&#45;&gt;Node5</title>
<path fill="none" stroke="midnightblue" d="M205.842,-168.324C197.499,-160.42 184.968,-148.548 174.823,-138.938"/>
<polygon fill="midnightblue" stroke="midnightblue" points="176.991,-136.171 167.325,-131.834 172.177,-141.252 176.991,-136.171"/>
</g>
<!-- Node6 -->
<g id="node6" class="node"><title>Node6</title>
<g id="a_node6"><a xlink:href="cpu-info_8h.html" target="_top" xlink:title="util/cpu&#45;info.h">
<polygon fill="white" stroke="black" points="235.5,-112.5 235.5,-131.5 310.5,-131.5 310.5,-112.5 235.5,-112.5"/>
<text text-anchor="middle" x="273" y="-119.5" font-family="Helvetica,sans-Serif" font-size="10.00">util/cpu&#45;info.h</text>
</a>
</g>
</g>
<!-- Node1&#45;&gt;Node6 -->
<g id="edge5" class="edge"><title>Node1&#45;&gt;Node6</title>
<path fill="none" stroke="midnightblue" d="M224.319,-168.324C232.893,-160.341 245.812,-148.313 256.188,-138.653"/>
<polygon fill="midnightblue" stroke="midnightblue" points="258.578,-141.21 263.512,-131.834 253.808,-136.086 258.578,-141.21"/>
</g>
<!-- Node9 -->
<g id="node9" class="node"><title>Node9</title>
<g id="a_node9"><a xlink:href="sse-util_8h.html" target="_top" xlink:title="util/sse&#45;util.h">
<polygon fill="white" stroke="black" points="332,-112.5 332,-131.5 404,-131.5 404,-112.5 332,-112.5"/>
<text text-anchor="middle" x="368" y="-119.5" font-family="Helvetica,sans-Serif" font-size="10.00">util/sse&#45;util.h</text>
</a>
</g>
</g>
<!-- Node1&#45;&gt;Node9 -->
<g id="edge9" class="edge"><title>Node1&#45;&gt;Node9</title>
<path fill="none" stroke="midnightblue" d="M239.243,-168.444C264.871,-159.399 305.485,-145.064 334.238,-134.916"/>
<polygon fill="midnightblue" stroke="midnightblue" points="335.605,-138.145 343.87,-131.516 333.275,-131.544 335.605,-138.145"/>
</g>
<!-- Node3 -->
<g id="node3" class="node"><title>Node3</title>
<polygon fill="white" stroke="#bfbfbf" points="-0.5,-0.5 -0.5,-19.5 76.5,-19.5 76.5,-0.5 -0.5,-0.5"/>
<text text-anchor="middle" x="38" y="-7.5" font-family="Helvetica,sans-Serif" font-size="10.00">glog/logging.h</text>
</g>
<!-- Node2&#45;&gt;Node3 -->
<g id="edge2" class="edge"><title>Node2&#45;&gt;Node3</title>
<path fill="none" stroke="midnightblue" d="M78.0738,-56.083C71.1539,-48.2982 60.9346,-36.8015 52.548,-27.3665"/>
<polygon fill="midnightblue" stroke="midnightblue" points="55.0383,-24.8999 45.7787,-19.7511 49.8065,-29.5505 55.0383,-24.8999"/>
</g>
<!-- Node4 -->
<g id="node4" class="node"><title>Node4</title>
<polygon fill="white" stroke="#bfbfbf" points="95,-0.5 95,-19.5 175,-19.5 175,-0.5 95,-0.5"/>
<text text-anchor="middle" x="135" y="-7.5" font-family="Helvetica,sans-Serif" font-size="10.00">gflags/gflags.h</text>
</g>
<!-- Node2&#45;&gt;Node4 -->
<g id="edge3" class="edge"><title>Node2&#45;&gt;Node4</title>
<path fill="none" stroke="midnightblue" d="M94.0914,-56.083C101.155,-48.2982 111.588,-36.8015 120.149,-27.3665"/>
<polygon fill="midnightblue" stroke="midnightblue" points="122.931,-29.5087 127.059,-19.7511 117.747,-24.8047 122.931,-29.5087"/>
</g>
<!-- Node6&#45;&gt;Node2 -->
<g id="edge8" class="edge"><title>Node6&#45;&gt;Node2</title>
<path fill="none" stroke="midnightblue" d="M243.369,-112.444C211.5,-103.241 160.667,-88.5617 125.436,-78.3879"/>
<polygon fill="midnightblue" stroke="midnightblue" points="126.071,-74.9282 115.492,-75.5164 124.128,-81.6534 126.071,-74.9282"/>
</g>
<!-- Node7 -->
<g id="node7" class="node"><title>Node7</title>
<polygon fill="white" stroke="#bfbfbf" points="167.5,-56.5 167.5,-75.5 208.5,-75.5 208.5,-56.5 167.5,-56.5"/>
<text text-anchor="middle" x="188" y="-63.5" font-family="Helvetica,sans-Serif" font-size="10.00">string</text>
</g>
<!-- Node6&#45;&gt;Node7 -->
<g id="edge6" class="edge"><title>Node6&#45;&gt;Node7</title>
<path fill="none" stroke="midnightblue" d="M259.343,-112.324C246.084,-103.9 225.732,-90.9709 210.154,-81.0741"/>
<polygon fill="midnightblue" stroke="midnightblue" points="211.94,-78.0626 201.623,-75.6545 208.187,-83.9711 211.94,-78.0626"/>
</g>
<!-- Node8 -->
<g id="node8" class="node"><title>Node8</title>
<polygon fill="white" stroke="#bfbfbf" points="227,-56.5 227,-75.5 319,-75.5 319,-56.5 227,-56.5"/>
<text text-anchor="middle" x="273" y="-63.5" font-family="Helvetica,sans-Serif" font-size="10.00">boost/cstdint.hpp</text>
</g>
<!-- Node6&#45;&gt;Node8 -->
<g id="edge7" class="edge"><title>Node6&#45;&gt;Node8</title>
<path fill="none" stroke="midnightblue" d="M273,-112.083C273,-105.006 273,-94.8611 273,-85.9865"/>
<polygon fill="midnightblue" stroke="midnightblue" points="276.5,-85.751 273,-75.7511 269.5,-85.7511 276.5,-85.751"/>
</g>
<!-- Node10 -->
<g id="node10" class="node"><title>Node10</title>
<polygon fill="white" stroke="#bfbfbf" points="337,-56.5 337,-75.5 405,-75.5 405,-56.5 337,-56.5"/>
<text text-anchor="middle" x="371" y="-63.5" font-family="Helvetica,sans-Serif" font-size="10.00">emmintrin.h</text>
</g>
<!-- Node9&#45;&gt;Node10 -->
<g id="edge10" class="edge"><title>Node9&#45;&gt;Node10</title>
<path fill="none" stroke="midnightblue" d="M368.495,-112.083C368.889,-105.006 369.452,-94.8611 369.945,-85.9865"/>
<polygon fill="midnightblue" stroke="midnightblue" points="373.454,-85.9299 370.514,-75.7511 366.464,-85.5415 373.454,-85.9299"/>
</g>
</g>
</svg>
