<?xml version="1.0" encoding="UTF-8" standalone="no"?>
<!DOCTYPE svg PUBLIC "-//W3C//DTD SVG 1.1//EN"
 "http://www.w3.org/Graphics/SVG/1.1/DTD/svg11.dtd">
<!-- Generated by graphviz version 2.36.0 (20140111.2315)
 -->
<!-- Title: be/src/exec/hash&#45;table.inline.h Pages: 1 -->
<svg width="1426pt" height="96pt"
 viewBox="0.00 0.00 1426.00 96.00" xmlns="http://www.w3.org/2000/svg" xmlns:xlink="http://www.w3.org/1999/xlink">
<g id="graph0" class="graph" transform="scale(1 1) rotate(0) translate(4 92)">
<title>be/src/exec/hash&#45;table.inline.h</title>
<polygon fill="white" stroke="none" points="-4,4 -4,-92 1422,-92 1422,4 -4,4"/>
<!-- Node1 -->
<g id="node1" class="node"><title>Node1</title>
<polygon fill="#bfbfbf" stroke="black" points="671.5,-68.5 671.5,-87.5 820.5,-87.5 820.5,-68.5 671.5,-68.5"/>
<text text-anchor="middle" x="746" y="-75.5" font-family="Helvetica,sans-Serif" font-size="10.00">be/src/exec/hash&#45;table.inline.h</text>
</g>
<!-- Node2 -->
<g id="node2" class="node"><title>Node2</title>
<g id="a_node2"><a xlink:href="hash-join-node_8cc_8BACKUP_832326_8cc.html" target="_top" xlink:title="be/src/exec/hash&#45;join\l&#45;node.cc.BACKUP.32326.cc">
<polygon fill="white" stroke="black" points="0,-1 0,-31 142,-31 142,-1 0,-1"/>
<text text-anchor="start" x="8" y="-19" font-family="Helvetica,sans-Serif" font-size="10.00">be/src/exec/hash&#45;join</text>
<text text-anchor="middle" x="71" y="-8" font-family="Helvetica,sans-Serif" font-size="10.00">&#45;node.cc.BACKUP.32326.cc</text>
</a>
</g>
</g>
<!-- Node1&#45;&gt;Node2 -->
<g id="edge1" class="edge"><title>Node1&#45;&gt;Node2</title>
<path fill="none" stroke="midnightblue" d="M660.843,-73.504C545.07,-68.0804 331.715,-55.7029 151,-32 148.058,-31.6141 145.06,-31.1905 142.035,-30.7382"/>
<polygon fill="midnightblue" stroke="midnightblue" points="660.904,-77.0105 671.055,-73.9762 661.227,-70.0179 660.904,-77.0105"/>
</g>
<!-- Node3 -->
<g id="node3" class="node"><title>Node3</title>
<g id="a_node3"><a xlink:href="hash-join-node_8cc_8BASE_832326_8cc.html" target="_top" xlink:title="be/src/exec/hash&#45;join\l&#45;node.cc.BASE.32326.cc">
<polygon fill="white" stroke="black" points="160.5,-1 160.5,-31 287.5,-31 287.5,-1 160.5,-1"/>
<text text-anchor="start" x="168.5" y="-19" font-family="Helvetica,sans-Serif" font-size="10.00">be/src/exec/hash&#45;join</text>
<text text-anchor="middle" x="224" y="-8" font-family="Helvetica,sans-Serif" font-size="10.00">&#45;node.cc.BASE.32326.cc</text>
</a>
</g>
</g>
<!-- Node1&#45;&gt;Node3 -->
<g id="edge2" class="edge"><title>Node1&#45;&gt;Node3</title>
<path fill="none" stroke="midnightblue" d="M661.214,-71.1136C570.694,-64.2203 423.215,-51.24 297,-32 293.93,-31.5321 290.794,-31.02 287.632,-30.4762"/>
<polygon fill="midnightblue" stroke="midnightblue" points="661.187,-74.6214 671.422,-71.8834 661.714,-67.6412 661.187,-74.6214"/>
</g>
<!-- Node4 -->
<g id="node4" class="node"><title>Node4</title>
<g id="a_node4"><a xlink:href="hash-join-node_8cc_8LOCAL_832326_8cc.html" target="_top" xlink:title="be/src/exec/hash&#45;join\l&#45;node.cc.LOCAL.32326.cc">
<polygon fill="white" stroke="black" points="306,-1 306,-31 438,-31 438,-1 306,-1"/>
<text text-anchor="start" x="314" y="-19" font-family="Helvetica,sans-Serif" font-size="10.00">be/src/exec/hash&#45;join</text>
<text text-anchor="middle" x="372" y="-8" font-family="Helvetica,sans-Serif" font-size="10.00">&#45;node.cc.LOCAL.32326.cc</text>
</a>
</g>
</g>
<!-- Node1&#45;&gt;Node4 -->
<g id="edge3" class="edge"><title>Node1&#45;&gt;Node4</title>
<path fill="none" stroke="midnightblue" d="M673.201,-67.0401C612.558,-58.5045 523.985,-45.4837 447,-32 444.122,-31.496 441.186,-30.9679 438.221,-30.4234"/>
<polygon fill="midnightblue" stroke="midnightblue" points="673.048,-70.5528 683.437,-68.4756 674.02,-63.6207 673.048,-70.5528"/>
</g>
<!-- Node5 -->
<g id="node5" class="node"><title>Node5</title>
<g id="a_node5"><a xlink:href="hash-join-node_8cc_8REMOTE_832326_8cc.html" target="_top" xlink:title="be/src/exec/hash&#45;join\l&#45;node.cc.REMOTE.32326.cc">
<polygon fill="white" stroke="black" points="456.5,-1 456.5,-31 599.5,-31 599.5,-1 456.5,-1"/>
<text text-anchor="start" x="464.5" y="-19" font-family="Helvetica,sans-Serif" font-size="10.00">be/src/exec/hash&#45;join</text>
<text text-anchor="middle" x="528" y="-8" font-family="Helvetica,sans-Serif" font-size="10.00">&#45;node.cc.REMOTE.32326.cc</text>
</a>
</g>
</g>
<!-- Node1&#45;&gt;Node5 -->
<g id="edge4" class="edge"><title>Node1&#45;&gt;Node5</title>
<path fill="none" stroke="midnightblue" d="M704.689,-65.6299C668.98,-55.802 617.231,-41.5589 578.959,-31.0253"/>
<polygon fill="midnightblue" stroke="midnightblue" points="704.196,-69.1243 714.766,-68.4035 706.053,-62.3752 704.196,-69.1243"/>
</g>
<!-- Node6 -->
<g id="node6" class="node"><title>Node6</title>
<g id="a_node6"><a xlink:href="hash-table-test_8cc.html" target="_top" xlink:title="be/src/exec/hash&#45;table\l&#45;test.cc">
<polygon fill="white" stroke="black" points="618,-1 618,-31 734,-31 734,-1 618,-1"/>
<text text-anchor="start" x="626" y="-19" font-family="Helvetica,sans-Serif" font-size="10.00">be/src/exec/hash&#45;table</text>
<text text-anchor="middle" x="676" y="-8" font-family="Helvetica,sans-Serif" font-size="10.00">&#45;test.cc</text>
</a>
</g>
</g>
<!-- Node1&#45;&gt;Node6 -->
<g id="edge5" class="edge"><title>Node1&#45;&gt;Node6</title>
<path fill="none" stroke="midnightblue" d="M728.261,-61.7947C717.269,-52.3738 703.249,-40.3562 692.498,-31.1408"/>
<polygon fill="midnightblue" stroke="midnightblue" points="726.1,-64.5529 735.971,-68.4035 730.656,-59.2381 726.1,-64.5529"/>
</g>
<!-- Node7 -->
<g id="node7" class="node"><title>Node7</title>
<g id="a_node7"><a xlink:href="hash-table_8cc.html" target="_top" xlink:title="be/src/exec/hash&#45;table.cc">
<polygon fill="white" stroke="black" points="752.5,-6.5 752.5,-25.5 881.5,-25.5 881.5,-6.5 752.5,-6.5"/>
<text text-anchor="middle" x="817" y="-13.5" font-family="Helvetica,sans-Serif" font-size="10.00">be/src/exec/hash&#45;table.cc</text>
</a>
</g>
</g>
<!-- Node1&#45;&gt;Node7 -->
<g id="edge6" class="edge"><title>Node1&#45;&gt;Node7</title>
<path fill="none" stroke="midnightblue" d="M763.932,-61.8464C777.511,-50.3706 795.677,-35.0195 806.846,-25.5806"/>
<polygon fill="midnightblue" stroke="midnightblue" points="761.551,-59.2755 756.173,-68.4035 766.07,-64.6221 761.551,-59.2755"/>
</g>
<!-- Node8 -->
<g id="node8" class="node"><title>Node8</title>
<g id="a_node8"><a xlink:href="partitioned-aggregation-node-ir_8cc.html" target="_top" xlink:title="be/src/exec/partitioned\l&#45;aggregation&#45;node&#45;ir.cc">
<polygon fill="white" stroke="black" points="900,-1 900,-31 1016,-31 1016,-1 900,-1"/>
<text text-anchor="start" x="908" y="-19" font-family="Helvetica,sans-Serif" font-size="10.00">be/src/exec/partitioned</text>
<text text-anchor="middle" x="958" y="-8" font-family="Helvetica,sans-Serif" font-size="10.00">&#45;aggregation&#45;node&#45;ir.cc</text>
</a>
</g>
</g>
<!-- Node1&#45;&gt;Node8 -->
<g id="edge7" class="edge"><title>Node1&#45;&gt;Node8</title>
<path fill="none" stroke="midnightblue" d="M786.174,-65.6299C820.9,-55.802 871.225,-41.5589 908.444,-31.0253"/>
<polygon fill="midnightblue" stroke="midnightblue" points="785.043,-62.3124 776.374,-68.4035 786.95,-69.0479 785.043,-62.3124"/>
</g>
<!-- Node9 -->
<g id="node9" class="node"><title>Node9</title>
<g id="a_node9"><a xlink:href="partitioned-aggregation-node_8cc.html" target="_top" xlink:title="be/src/exec/partitioned\l&#45;aggregation&#45;node.cc">
<polygon fill="white" stroke="black" points="1034,-1 1034,-31 1150,-31 1150,-1 1034,-1"/>
<text text-anchor="start" x="1042" y="-19" font-family="Helvetica,sans-Serif" font-size="10.00">be/src/exec/partitioned</text>
<text text-anchor="middle" x="1092" y="-8" font-family="Helvetica,sans-Serif" font-size="10.00">&#45;aggregation&#45;node.cc</text>
</a>
</g>
</g>
<!-- Node1&#45;&gt;Node9 -->
<g id="edge8" class="edge"><title>Node1&#45;&gt;Node9</title>
<path fill="none" stroke="midnightblue" d="M814.966,-66.9472C871.336,-58.4638 953.021,-45.562 1024,-32 1027.21,-31.3874 1030.49,-30.7372 1033.81,-30.0641"/>
<polygon fill="midnightblue" stroke="midnightblue" points="814.114,-63.5357 804.743,-68.479 815.151,-70.4584 814.114,-63.5357"/>
</g>
<!-- Node10 -->
<g id="node10" class="node"><title>Node10</title>
<g id="a_node10"><a xlink:href="partitioned-hash-join-node-ir_8cc.html" target="_top" xlink:title="be/src/exec/partitioned\l&#45;hash&#45;join&#45;node&#45;ir.cc">
<polygon fill="white" stroke="black" points="1168,-1 1168,-31 1284,-31 1284,-1 1168,-1"/>
<text text-anchor="start" x="1176" y="-19" font-family="Helvetica,sans-Serif" font-size="10.00">be/src/exec/partitioned</text>
<text text-anchor="middle" x="1226" y="-8" font-family="Helvetica,sans-Serif" font-size="10.00">&#45;hash&#45;join&#45;node&#45;ir.cc</text>
</a>
</g>
</g>
<!-- Node1&#45;&gt;Node10 -->
<g id="edge9" class="edge"><title>Node1&#45;&gt;Node10</title>
<path fill="none" stroke="midnightblue" d="M830.962,-70.4268C914.522,-63.326 1045.54,-50.4894 1158,-32 1161.22,-31.4705 1164.52,-30.8858 1167.84,-30.2634"/>
<polygon fill="midnightblue" stroke="midnightblue" points="830.43,-66.9591 820.759,-71.2853 831.017,-73.9344 830.43,-66.9591"/>
</g>
<!-- Node11 -->
<g id="node11" class="node"><title>Node11</title>
<g id="a_node11"><a xlink:href="partitioned-hash-join-node_8cc.html" target="_top" xlink:title="be/src/exec/partitioned\l&#45;hash&#45;join&#45;node.cc">
<polygon fill="white" stroke="black" points="1302,-1 1302,-31 1418,-31 1418,-1 1302,-1"/>
<text text-anchor="start" x="1310" y="-19" font-family="Helvetica,sans-Serif" font-size="10.00">be/src/exec/partitioned</text>
<text text-anchor="middle" x="1360" y="-8" font-family="Helvetica,sans-Serif" font-size="10.00">&#45;hash&#45;join&#45;node.cc</text>
</a>
</g>
</g>
<!-- Node1&#45;&gt;Node11 -->
<g id="edge10" class="edge"><title>Node1&#45;&gt;Node11</title>
<path fill="none" stroke="midnightblue" d="M830.708,-73.5634C938.397,-68.383 1129.82,-56.4562 1292,-32 1295.23,-31.5133 1298.53,-30.9624 1301.86,-30.3662"/>
<polygon fill="midnightblue" stroke="midnightblue" points="830.375,-70.0752 820.551,-74.0439 830.706,-77.0673 830.375,-70.0752"/>
</g>
</g>
</svg>
