<?xml version="1.0" encoding="UTF-8" standalone="no"?>
<!DOCTYPE svg PUBLIC "-//W3C//DTD SVG 1.1//EN"
 "http://www.w3.org/Graphics/SVG/1.1/DTD/svg11.dtd">
<!-- Generated by graphviz version 2.36.0 (20140111.2315)
 -->
<!-- Title: be/src/exec/hbase&#45;table&#45;scanner.h Pages: 1 -->
<!--zoomable 176 -->
<svg id="main" version="1.1" xmlns="http://www.w3.org/2000/svg" xmlns:xlink="http://www.w3.org/1999/xlink" xml:space="preserve" onload="init(evt)">
<style type="text/css"><![CDATA[
.edge:hover path { stroke: red; }
.edge:hover polygon { stroke: red; fill: red; }
]]></style>
<script type="text/javascript"><![CDATA[
var edges = document.getElementsByTagName('g');
if (edges && edges.length) {
  for (var i=0;i<edges.length;i++) {
    if (edges[i].id.substr(0,4)=='edge') {
      edges[i].setAttribute('class','edge');
    }
  }
}
]]></script>
        <defs>
                <circle id="rim" cx="0" cy="0" r="7"/>
                <circle id="rim2" cx="0" cy="0" r="3.5"/>
                <g id="zoomPlus">
                        <use xlink:href="#rim" fill="#404040">
                                <set attributeName="fill" to="#808080" begin="zoomplus.mouseover" end="zoomplus.mouseout"/>
                        </use>
                        <path d="M-4,0h8M0,-4v8" fill="none" stroke="white" stroke-width="1.5" pointer-events="none"/>
                </g>
                <g id="zoomMin">
                        <use xlink:href="#rim" fill="#404040">
                                <set attributeName="fill" to="#808080" begin="zoomminus.mouseover" end="zoomminus.mouseout"/>
                        </use>
                        <path d="M-4,0h8" fill="none" stroke="white" stroke-width="1.5" pointer-events="none"/>
                </g>
                <g id="dirArrow">
                        <path fill="none" stroke="white" stroke-width="1.5" d="M0,-3.0v7 M-2.5,-0.5L0,-3.0L2.5,-0.5"/>
                </g>
               <g id="resetDef">
                       <use xlink:href="#rim2" fill="#404040">
                               <set attributeName="fill" to="#808080" begin="reset.mouseover" end="reset.mouseout"/>
                       </use>
               </g>
        </defs>

<script type="text/javascript">
var viewWidth = 729;
var viewHeight = 176;
var sectionId = 'dynsection-1';
</script>
<script xlink:href="svgpan.js"/>
<svg id="graph" class="graph">
<g id="viewport">
<title>be/src/exec/hbase&#45;table&#45;scanner.h</title>
<polygon fill="white" stroke="none" points="-4,4 -4,-172 725,-172 725,4 -4,4"/>
<!-- Node1 -->
<g id="node1" class="node"><title>Node1</title>
<polygon fill="#bfbfbf" stroke="black" points="356.5,-137 356.5,-167 477.5,-167 477.5,-137 356.5,-137"/>
<text text-anchor="start" x="364.5" y="-155" font-family="Helvetica,sans-Serif" font-size="10.00">be/src/exec/hbase&#45;table</text>
<text text-anchor="middle" x="417" y="-144" font-family="Helvetica,sans-Serif" font-size="10.00">&#45;scanner.h</text>
</g>
<!-- Node2 -->
<g id="node2" class="node"><title>Node2</title>
<g id="a_node2"><a xlink:href="hbase-scan-node_8h.html" target="_top" xlink:title="be/src/exec/hbase&#45;scan\l&#45;node.h">
<polygon fill="white" stroke="black" points="158.5,-69 158.5,-99 279.5,-99 279.5,-69 158.5,-69"/>
<text text-anchor="start" x="166.5" y="-87" font-family="Helvetica,sans-Serif" font-size="10.00">be/src/exec/hbase&#45;scan</text>
<text text-anchor="middle" x="219" y="-76" font-family="Helvetica,sans-Serif" font-size="10.00">&#45;node.h</text>
</a>
</g>
</g>
<!-- Node1&#45;&gt;Node2 -->
<g id="edge1" class="edge"><title>Node1&#45;&gt;Node2</title>
<path fill="none" stroke="midnightblue" d="M364.775,-133.592C332.395,-122.798 291.347,-109.116 261.065,-99.0218"/>
<polygon fill="midnightblue" stroke="midnightblue" points="363.93,-136.999 374.524,-136.841 366.144,-130.359 363.93,-136.999"/>
</g>
<!-- Node5 -->
<g id="node5" class="node"><title>Node5</title>
<g id="a_node5"><a xlink:href="hbase-table-scanner_8cc.html" target="_top" xlink:title="be/src/exec/hbase&#45;table\l&#45;scanner.cc">
<polygon fill="white" stroke="black" points="285.5,-1 285.5,-31 406.5,-31 406.5,-1 285.5,-1"/>
<text text-anchor="start" x="293.5" y="-19" font-family="Helvetica,sans-Serif" font-size="10.00">be/src/exec/hbase&#45;table</text>
<text text-anchor="middle" x="346" y="-8" font-family="Helvetica,sans-Serif" font-size="10.00">&#45;scanner.cc</text>
</a>
</g>
</g>
<!-- Node1&#45;&gt;Node5 -->
<g id="edge5" class="edge"><title>Node1&#45;&gt;Node5</title>
<path fill="none" stroke="midnightblue" d="M381.104,-131.082C369.858,-122.965 358.656,-112.513 352,-100 340.399,-78.1885 341.619,-48.4827 343.708,-31.1608"/>
<polygon fill="midnightblue" stroke="midnightblue" points="379.389,-134.147 389.639,-136.83 383.3,-128.341 379.389,-134.147"/>
</g>
<!-- Node6 -->
<g id="node6" class="node"><title>Node6</title>
<g id="a_node6"><a xlink:href="plan-fragment-executor_8cc.html" target="_top" xlink:title="be/src/runtime/plan\l&#45;fragment&#45;executor.cc">
<polygon fill="white" stroke="black" points="361,-69 361,-99 473,-99 473,-69 361,-69"/>
<text text-anchor="start" x="369" y="-87" font-family="Helvetica,sans-Serif" font-size="10.00">be/src/runtime/plan</text>
<text text-anchor="middle" x="417" y="-76" font-family="Helvetica,sans-Serif" font-size="10.00">&#45;fragment&#45;executor.cc</text>
</a>
</g>
</g>
<!-- Node1&#45;&gt;Node6 -->
<g id="edge6" class="edge"><title>Node1&#45;&gt;Node6</title>
<path fill="none" stroke="midnightblue" d="M417,-126.532C417,-117.361 417,-107.245 417,-99.2931"/>
<polygon fill="midnightblue" stroke="midnightblue" points="413.5,-126.679 417,-136.679 420.5,-126.679 413.5,-126.679"/>
</g>
<!-- Node7 -->
<g id="node7" class="node"><title>Node7</title>
<g id="a_node7"><a xlink:href="impalad-main_8cc.html" target="_top" xlink:title="be/src/service/impalad\l&#45;main.cc">
<polygon fill="white" stroke="black" points="491.5,-69 491.5,-99 606.5,-99 606.5,-69 491.5,-69"/>
<text text-anchor="start" x="499.5" y="-87" font-family="Helvetica,sans-Serif" font-size="10.00">be/src/service/impalad</text>
<text text-anchor="middle" x="549" y="-76" font-family="Helvetica,sans-Serif" font-size="10.00">&#45;main.cc</text>
</a>
</g>
</g>
<!-- Node1&#45;&gt;Node7 -->
<g id="edge7" class="edge"><title>Node1&#45;&gt;Node7</title>
<path fill="none" stroke="midnightblue" d="M454.322,-132.339C475.407,-121.796 501.339,-108.83 520.73,-99.1352"/>
<polygon fill="midnightblue" stroke="midnightblue" points="452.696,-129.239 445.317,-136.841 455.827,-135.5 452.696,-129.239"/>
</g>
<!-- Node8 -->
<g id="node8" class="node"><title>Node8</title>
<g id="a_node8"><a xlink:href="mini-impala-cluster_8cc.html" target="_top" xlink:title="be/src/testutil/mini\l&#45;impala&#45;cluster.cc">
<polygon fill="white" stroke="black" points="624.5,-69 624.5,-99 721.5,-99 721.5,-69 624.5,-69"/>
<text text-anchor="start" x="632.5" y="-87" font-family="Helvetica,sans-Serif" font-size="10.00">be/src/testutil/mini</text>
<text text-anchor="middle" x="673" y="-76" font-family="Helvetica,sans-Serif" font-size="10.00">&#45;impala&#45;cluster.cc</text>
</a>
</g>
</g>
<!-- Node1&#45;&gt;Node8 -->
<g id="edge8" class="edge"><title>Node1&#45;&gt;Node8</title>
<path fill="none" stroke="midnightblue" d="M481.715,-134.348C520.396,-124.391 570.513,-111.482 615,-100 618.021,-99.2202 621.131,-98.4172 624.267,-97.6071"/>
<polygon fill="midnightblue" stroke="midnightblue" points="480.443,-131.061 471.631,-136.944 482.188,-137.84 480.443,-131.061"/>
</g>
<!-- Node3 -->
<g id="node3" class="node"><title>Node3</title>
<g id="a_node3"><a xlink:href="exec-node_8cc.html" target="_top" xlink:title="be/src/exec/exec&#45;node.cc">
<polygon fill="white" stroke="black" points="-0.5,-6.5 -0.5,-25.5 128.5,-25.5 128.5,-6.5 -0.5,-6.5"/>
<text text-anchor="middle" x="64" y="-13.5" font-family="Helvetica,sans-Serif" font-size="10.00">be/src/exec/exec&#45;node.cc</text>
</a>
</g>
</g>
<!-- Node2&#45;&gt;Node3 -->
<g id="edge2" class="edge"><title>Node2&#45;&gt;Node3</title>
<path fill="none" stroke="midnightblue" d="M176.362,-64.8444C146.406,-52.0889 107.671,-35.5955 84.3893,-25.6819"/>
<polygon fill="midnightblue" stroke="midnightblue" points="175.177,-68.1438 185.749,-68.8413 177.919,-61.7034 175.177,-68.1438"/>
</g>
<!-- Node4 -->
<g id="node4" class="node"><title>Node4</title>
<g id="a_node4"><a xlink:href="hbase-scan-node_8cc.html" target="_top" xlink:title="be/src/exec/hbase&#45;scan\l&#45;node.cc">
<polygon fill="white" stroke="black" points="146.5,-1 146.5,-31 267.5,-31 267.5,-1 146.5,-1"/>
<text text-anchor="start" x="154.5" y="-19" font-family="Helvetica,sans-Serif" font-size="10.00">be/src/exec/hbase&#45;scan</text>
<text text-anchor="middle" x="207" y="-8" font-family="Helvetica,sans-Serif" font-size="10.00">&#45;node.cc</text>
</a>
</g>
</g>
<!-- Node2&#45;&gt;Node4 -->
<g id="edge3" class="edge"><title>Node2&#45;&gt;Node4</title>
<path fill="none" stroke="midnightblue" d="M214.606,-58.8309C212.924,-49.5807 211.06,-39.3313 209.599,-31.2931"/>
<polygon fill="midnightblue" stroke="midnightblue" points="211.164,-59.4664 216.396,-68.679 218.051,-58.2142 211.164,-59.4664"/>
</g>
<!-- Node2&#45;&gt;Node5 -->
<g id="edge4" class="edge"><title>Node2&#45;&gt;Node5</title>
<path fill="none" stroke="midnightblue" d="M255.182,-64.1968C275.418,-53.6802 300.228,-40.7868 318.8,-31.1352"/>
<polygon fill="midnightblue" stroke="midnightblue" points="253.504,-61.1243 246.245,-68.8413 256.732,-67.3356 253.504,-61.1243"/>
</g>
</g>
</svg>
        <g id="navigator" transform="translate(0 0)" fill="#404254">
                <rect fill="#f2f5e9" fill-opacity="0.5" stroke="#606060" stroke-width=".5" x="0" y="0" width="60" height="60"/>
                <use id="zoomplus" xlink:href="#zoomPlus" x="17" y="9" onmousedown="handleZoom(evt,'in')"/>
                <use id="zoomminus" xlink:href="#zoomMin" x="42" y="9" onmousedown="handleZoom(evt,'out')"/>
                <use id="reset" xlink:href="#resetDef" x="30" y="36" onmousedown="handleReset()"/>
                <g id="arrowUp" xlink:href="#dirArrow" transform="translate(30 24)" onmousedown="handlePan(0,-1)">
                  <use xlink:href="#rim" fill="#404040">
                        <set attributeName="fill" to="#808080" begin="arrowUp.mouseover" end="arrowUp.mouseout"/>
                  </use>
                  <path fill="none" stroke="white" stroke-width="1.5" d="M0,-3.0v7 M-2.5,-0.5L0,-3.0L2.5,-0.5"/>
                </g>
                <g id="arrowRight" xlink:href="#dirArrow" transform="rotate(90) translate(36 -43)" onmousedown="handlePan(1,0)">
                  <use xlink:href="#rim" fill="#404040">
                        <set attributeName="fill" to="#808080" begin="arrowRight.mouseover" end="arrowRight.mouseout"/>
                  </use>
                  <path fill="none" stroke="white" stroke-width="1.5" d="M0,-3.0v7 M-2.5,-0.5L0,-3.0L2.5,-0.5"/>
                </g>
                <g id="arrowDown" xlink:href="#dirArrow" transform="rotate(180) translate(-30 -48)" onmousedown="handlePan(0,1)">
                  <use xlink:href="#rim" fill="#404040">
                        <set attributeName="fill" to="#808080" begin="arrowDown.mouseover" end="arrowDown.mouseout"/>
                  </use>
                  <path fill="none" stroke="white" stroke-width="1.5" d="M0,-3.0v7 M-2.5,-0.5L0,-3.0L2.5,-0.5"/>
                </g>
                <g id="arrowLeft" xlink:href="#dirArrow" transform="rotate(270) translate(-36 17)" onmousedown="handlePan(-1,0)">
                  <use xlink:href="#rim" fill="#404040">
                        <set attributeName="fill" to="#808080" begin="arrowLeft.mouseover" end="arrowLeft.mouseout"/>
                  </use>
                  <path fill="none" stroke="white" stroke-width="1.5" d="M0,-3.0v7 M-2.5,-0.5L0,-3.0L2.5,-0.5"/>
                </g>
        </g>
        <svg viewBox="0 0 15 15" width="100%" height="30px" preserveAspectRatio="xMaxYMin meet">
         <g id="arrow_out" transform="scale(0.3 0.3)">
          <a xlink:href="hbase-table-scanner_8h__dep__incl_org.svg" target="_base">
           <rect id="button" ry="5" rx="5" y="6" x="6" height="38" width="38"
                fill="#f2f5e9" fill-opacity="0.5" stroke="#606060" stroke-width="1.0"/>
           <path id="arrow"
             d="M 11.500037,31.436501 C 11.940474,20.09759 22.043105,11.32322 32.158766,21.979434 L 37.068811,17.246167 C 37.068811,17.246167 37.088388,32 37.088388,32 L 22.160133,31.978069 C 22.160133,31.978069 26.997745,27.140456 26.997745,27.140456 C 18.528582,18.264221 13.291696,25.230495 11.500037,31.436501 z"
             style="fill:#404040;"/>
          </a>
         </g>
        </svg>
</svg>
