<?xml version="1.0" encoding="UTF-8" standalone="no"?>
<!DOCTYPE svg PUBLIC "-//W3C//DTD SVG 1.1//EN"
 "http://www.w3.org/Graphics/SVG/1.1/DTD/svg11.dtd">
<!-- Generated by graphviz version 2.36.0 (20140111.2315)
 -->
<!-- Title: be/src/exec/hdfs&#45;lzo&#45;text&#45;scanner.h Pages: 1 -->
<svg width="370pt" height="108pt"
 viewBox="0.00 0.00 370.00 108.00" xmlns="http://www.w3.org/2000/svg" xmlns:xlink="http://www.w3.org/1999/xlink">
<g id="graph0" class="graph" transform="scale(1 1) rotate(0) translate(4 104)">
<title>be/src/exec/hdfs&#45;lzo&#45;text&#45;scanner.h</title>
<polygon fill="white" stroke="none" points="-4,4 -4,-104 366,-104 366,4 -4,4"/>
<!-- Node1 -->
<g id="node1" class="node"><title>Node1</title>
<polygon fill="#bfbfbf" stroke="black" points="126.5,-69 126.5,-99 231.5,-99 231.5,-69 126.5,-69"/>
<text text-anchor="start" x="134.5" y="-87" font-family="Helvetica,sans-Serif" font-size="10.00">be/src/exec/hdfs&#45;lzo</text>
<text text-anchor="middle" x="179" y="-76" font-family="Helvetica,sans-Serif" font-size="10.00">&#45;text&#45;scanner.h</text>
</g>
<!-- Node2 -->
<g id="node2" class="node"><title>Node2</title>
<g id="a_node2"><a xlink:href="hdfs-lzo-text-scanner_8cc.html" target="_top" xlink:title="be/src/exec/hdfs&#45;lzo\l&#45;text&#45;scanner.cc">
<polygon fill="white" stroke="black" points="-0.5,-1 -0.5,-31 104.5,-31 104.5,-1 -0.5,-1"/>
<text text-anchor="start" x="7.5" y="-19" font-family="Helvetica,sans-Serif" font-size="10.00">be/src/exec/hdfs&#45;lzo</text>
<text text-anchor="middle" x="52" y="-8" font-family="Helvetica,sans-Serif" font-size="10.00">&#45;text&#45;scanner.cc</text>
</a>
</g>
</g>
<!-- Node1&#45;&gt;Node2 -->
<g id="edge1" class="edge"><title>Node1&#45;&gt;Node2</title>
<path fill="none" stroke="midnightblue" d="M142.818,-64.1968C122.582,-53.6802 97.7716,-40.7868 79.1996,-31.1352"/>
<polygon fill="midnightblue" stroke="midnightblue" points="141.268,-67.3356 151.755,-68.8413 144.496,-61.1243 141.268,-67.3356"/>
</g>
<!-- Node3 -->
<g id="node3" class="node"><title>Node3</title>
<g id="a_node3"><a xlink:href="hdfs-scan-node_8cc.html" target="_top" xlink:title="be/src/exec/hdfs&#45;scan\l&#45;node.cc">
<polygon fill="white" stroke="black" points="122.5,-1 122.5,-31 235.5,-31 235.5,-1 122.5,-1"/>
<text text-anchor="start" x="130.5" y="-19" font-family="Helvetica,sans-Serif" font-size="10.00">be/src/exec/hdfs&#45;scan</text>
<text text-anchor="middle" x="179" y="-8" font-family="Helvetica,sans-Serif" font-size="10.00">&#45;node.cc</text>
</a>
</g>
</g>
<!-- Node1&#45;&gt;Node3 -->
<g id="edge2" class="edge"><title>Node1&#45;&gt;Node3</title>
<path fill="none" stroke="midnightblue" d="M179,-58.5322C179,-49.3606 179,-39.2449 179,-31.2931"/>
<polygon fill="midnightblue" stroke="midnightblue" points="175.5,-58.6789 179,-68.679 182.5,-58.679 175.5,-58.6789"/>
</g>
<!-- Node4 -->
<g id="node4" class="node"><title>Node4</title>
<g id="a_node4"><a xlink:href="hdfs-text-scanner_8cc.html" target="_top" xlink:title="be/src/exec/hdfs&#45;text\l&#45;scanner.cc">
<polygon fill="white" stroke="black" points="253.5,-1 253.5,-31 362.5,-31 362.5,-1 253.5,-1"/>
<text text-anchor="start" x="261.5" y="-19" font-family="Helvetica,sans-Serif" font-size="10.00">be/src/exec/hdfs&#45;text</text>
<text text-anchor="middle" x="308" y="-8" font-family="Helvetica,sans-Serif" font-size="10.00">&#45;scanner.cc</text>
</a>
</g>
</g>
<!-- Node1&#45;&gt;Node4 -->
<g id="edge3" class="edge"><title>Node1&#45;&gt;Node4</title>
<path fill="none" stroke="midnightblue" d="M215.752,-64.1968C236.307,-53.6802 261.508,-40.7868 280.372,-31.1352"/>
<polygon fill="midnightblue" stroke="midnightblue" points="213.982,-61.1707 206.674,-68.8413 217.17,-67.4024 213.982,-61.1707"/>
</g>
</g>
</svg>
