<?xml version="1.0" encoding="UTF-8" standalone="no"?>
<!DOCTYPE svg PUBLIC "-//W3C//DTD SVG 1.1//EN"
 "http://www.w3.org/Graphics/SVG/1.1/DTD/svg11.dtd">
<!-- Generated by graphviz version 2.36.0 (20140111.2315)
 -->
<!-- Title: be/src/exec/hdfs&#45;avro&#45;scanner.h Pages: 1 -->
<svg width="378pt" height="108pt"
 viewBox="0.00 0.00 378.00 108.00" xmlns="http://www.w3.org/2000/svg" xmlns:xlink="http://www.w3.org/1999/xlink">
<g id="graph0" class="graph" transform="scale(1 1) rotate(0) translate(4 104)">
<title>be/src/exec/hdfs&#45;avro&#45;scanner.h</title>
<polygon fill="white" stroke="none" points="-4,4 -4,-104 374,-104 374,4 -4,4"/>
<!-- Node1 -->
<g id="node1" class="node"><title>Node1</title>
<polygon fill="#bfbfbf" stroke="black" points="128.5,-69 128.5,-99 239.5,-99 239.5,-69 128.5,-69"/>
<text text-anchor="start" x="136.5" y="-87" font-family="Helvetica,sans-Serif" font-size="10.00">be/src/exec/hdfs&#45;avro</text>
<text text-anchor="middle" x="184" y="-76" font-family="Helvetica,sans-Serif" font-size="10.00">&#45;scanner.h</text>
</g>
<!-- Node2 -->
<g id="node2" class="node"><title>Node2</title>
<g id="a_node2"><a xlink:href="hdfs-avro-scanner-ir_8cc.html" target="_top" xlink:title="be/src/exec/hdfs&#45;avro\l&#45;scanner&#45;ir.cc">
<polygon fill="white" stroke="black" points="-0.5,-1 -0.5,-31 110.5,-31 110.5,-1 -0.5,-1"/>
<text text-anchor="start" x="7.5" y="-19" font-family="Helvetica,sans-Serif" font-size="10.00">be/src/exec/hdfs&#45;avro</text>
<text text-anchor="middle" x="55" y="-8" font-family="Helvetica,sans-Serif" font-size="10.00">&#45;scanner&#45;ir.cc</text>
</a>
</g>
</g>
<!-- Node1&#45;&gt;Node2 -->
<g id="edge1" class="edge"><title>Node1&#45;&gt;Node2</title>
<path fill="none" stroke="midnightblue" d="M147.248,-64.1968C126.693,-53.6802 101.492,-40.7868 82.628,-31.1352"/>
<polygon fill="midnightblue" stroke="midnightblue" points="145.83,-67.4024 156.326,-68.8413 149.018,-61.1707 145.83,-67.4024"/>
</g>
<!-- Node3 -->
<g id="node3" class="node"><title>Node3</title>
<g id="a_node3"><a xlink:href="hdfs-avro-scanner_8cc.html" target="_top" xlink:title="be/src/exec/hdfs&#45;avro\l&#45;scanner.cc">
<polygon fill="white" stroke="black" points="128.5,-1 128.5,-31 239.5,-31 239.5,-1 128.5,-1"/>
<text text-anchor="start" x="136.5" y="-19" font-family="Helvetica,sans-Serif" font-size="10.00">be/src/exec/hdfs&#45;avro</text>
<text text-anchor="middle" x="184" y="-8" font-family="Helvetica,sans-Serif" font-size="10.00">&#45;scanner.cc</text>
</a>
</g>
</g>
<!-- Node1&#45;&gt;Node3 -->
<g id="edge2" class="edge"><title>Node1&#45;&gt;Node3</title>
<path fill="none" stroke="midnightblue" d="M184,-58.5322C184,-49.3606 184,-39.2449 184,-31.2931"/>
<polygon fill="midnightblue" stroke="midnightblue" points="180.5,-58.6789 184,-68.679 187.5,-58.679 180.5,-58.6789"/>
</g>
<!-- Node4 -->
<g id="node4" class="node"><title>Node4</title>
<g id="a_node4"><a xlink:href="hdfs-scan-node_8cc.html" target="_top" xlink:title="be/src/exec/hdfs&#45;scan\l&#45;node.cc">
<polygon fill="white" stroke="black" points="257.5,-1 257.5,-31 370.5,-31 370.5,-1 257.5,-1"/>
<text text-anchor="start" x="265.5" y="-19" font-family="Helvetica,sans-Serif" font-size="10.00">be/src/exec/hdfs&#45;scan</text>
<text text-anchor="middle" x="314" y="-8" font-family="Helvetica,sans-Serif" font-size="10.00">&#45;node.cc</text>
</a>
</g>
</g>
<!-- Node1&#45;&gt;Node4 -->
<g id="edge3" class="edge"><title>Node1&#45;&gt;Node4</title>
<path fill="none" stroke="midnightblue" d="M221.037,-64.1968C241.751,-53.6802 267.147,-40.7868 286.158,-31.1352"/>
<polygon fill="midnightblue" stroke="midnightblue" points="219.22,-61.1935 211.888,-68.8413 222.389,-67.4352 219.22,-61.1935"/>
</g>
</g>
</svg>
