<?xml version="1.0" encoding="UTF-8" standalone="no"?>
<!DOCTYPE svg PUBLIC "-//W3C//DTD SVG 1.1//EN"
 "http://www.w3.org/Graphics/SVG/1.1/DTD/svg11.dtd">
<!-- Generated by graphviz version 2.36.0 (20140111.2315)
 -->
<!-- Title: be/src/util/hdfs&#45;bulk&#45;ops.h Pages: 1 -->
<svg width="2090pt" height="548pt"
 viewBox="0.00 0.00 2090.00 548.00" xmlns="http://www.w3.org/2000/svg" xmlns:xlink="http://www.w3.org/1999/xlink">
<g id="graph0" class="graph" transform="scale(1 1) rotate(0) translate(4 544)">
<title>be/src/util/hdfs&#45;bulk&#45;ops.h</title>
<polygon fill="white" stroke="none" points="-4,4 -4,-544 2086,-544 2086,4 -4,4"/>
<!-- Node1 -->
<g id="node1" class="node"><title>Node1</title>
<polygon fill="#bfbfbf" stroke="black" points="1180,-509 1180,-539 1282,-539 1282,-509 1180,-509"/>
<text text-anchor="start" x="1188" y="-527" font-family="Helvetica,sans-Serif" font-size="10.00">be/src/util/hdfs&#45;bulk</text>
<text text-anchor="middle" x="1231" y="-516" font-family="Helvetica,sans-Serif" font-size="10.00">&#45;ops.h</text>
</g>
<!-- Node2 -->
<g id="node2" class="node"><title>Node2</title>
<polygon fill="white" stroke="#bfbfbf" points="1155.5,-6.5 1155.5,-25.5 1196.5,-25.5 1196.5,-6.5 1155.5,-6.5"/>
<text text-anchor="middle" x="1176" y="-13.5" font-family="Helvetica,sans-Serif" font-size="10.00">string</text>
</g>
<!-- Node1&#45;&gt;Node2 -->
<g id="edge1" class="edge"><title>Node1&#45;&gt;Node2</title>
<path fill="none" stroke="midnightblue" d="M1250.02,-508.812C1274.24,-488.957 1313,-450.406 1313,-407 1313,-407 1313,-407 1313,-219 1313,-136.618 1233.99,-62.8627 1195.97,-32.1436"/>
<polygon fill="midnightblue" stroke="midnightblue" points="1197.7,-29.0488 1187.68,-25.603 1193.36,-34.5445 1197.7,-29.0488"/>
</g>
<!-- Node3 -->
<g id="node3" class="node"><title>Node3</title>
<polygon fill="white" stroke="#bfbfbf" points="1007.5,-272.5 1007.5,-291.5 1096.5,-291.5 1096.5,-272.5 1007.5,-272.5"/>
<text text-anchor="middle" x="1052" y="-279.5" font-family="Helvetica,sans-Serif" font-size="10.00">boost/thread.hpp</text>
</g>
<!-- Node1&#45;&gt;Node3 -->
<g id="edge2" class="edge"><title>Node1&#45;&gt;Node3</title>
<path fill="none" stroke="midnightblue" d="M1242.13,-508.761C1252.11,-494.16 1263.89,-470.969 1255,-452 1218.57,-374.274 1126.88,-319.859 1080.22,-296.221"/>
<polygon fill="midnightblue" stroke="midnightblue" points="1081.5,-292.947 1070.98,-291.646 1078.39,-299.22 1081.5,-292.947"/>
</g>
<!-- Node4 -->
<g id="node4" class="node"><title>Node4</title>
<g id="a_node4"><a xlink:href="hdfs_8h.html" target="_top" xlink:title="common/hdfs.h">
<polygon fill="white" stroke="black" points="1145,-452.5 1145,-471.5 1229,-471.5 1229,-452.5 1145,-452.5"/>
<text text-anchor="middle" x="1187" y="-459.5" font-family="Helvetica,sans-Serif" font-size="10.00">common/hdfs.h</text>
</a>
</g>
</g>
<!-- Node1&#45;&gt;Node4 -->
<g id="edge3" class="edge"><title>Node1&#45;&gt;Node4</title>
<path fill="none" stroke="midnightblue" d="M1220.57,-508.781C1214.24,-500.152 1206.13,-489.088 1199.47,-479.999"/>
<polygon fill="midnightblue" stroke="midnightblue" points="1202.14,-477.725 1193.4,-471.731 1196.49,-481.864 1202.14,-477.725"/>
</g>
<!-- Node5 -->
<g id="node5" class="node"><title>Node5</title>
<g id="a_node5"><a xlink:href="atomic_8h.html" target="_top" xlink:title="common/atomic.h">
<polygon fill="white" stroke="black" points="1031.5,-452.5 1031.5,-471.5 1126.5,-471.5 1126.5,-452.5 1031.5,-452.5"/>
<text text-anchor="middle" x="1079" y="-459.5" font-family="Helvetica,sans-Serif" font-size="10.00">common/atomic.h</text>
</a>
</g>
</g>
<!-- Node1&#45;&gt;Node5 -->
<g id="edge5" class="edge"><title>Node1&#45;&gt;Node5</title>
<path fill="none" stroke="midnightblue" d="M1195.36,-508.933C1169.6,-498.765 1135.13,-485.157 1110.4,-475.396"/>
<polygon fill="midnightblue" stroke="midnightblue" points="1111.37,-472.016 1100.79,-471.6 1108.8,-478.527 1111.37,-472.016"/>
</g>
<!-- Node8 -->
<g id="node8" class="node"><title>Node8</title>
<g id="a_node8"><a xlink:href="status_8h.html" target="_top" xlink:title="common/status.h">
<polygon fill="white" stroke="black" points="1348,-142.5 1348,-161.5 1440,-161.5 1440,-142.5 1348,-142.5"/>
<text text-anchor="middle" x="1394" y="-149.5" font-family="Helvetica,sans-Serif" font-size="10.00">common/status.h</text>
</a>
</g>
</g>
<!-- Node1&#45;&gt;Node8 -->
<g id="edge8" class="edge"><title>Node1&#45;&gt;Node8</title>
<path fill="none" stroke="midnightblue" d="M1274.9,-508.846C1317.58,-492.006 1376,-459.387 1376,-407 1376,-407 1376,-407 1376,-281 1376,-241.69 1384.43,-196.245 1389.75,-171.466"/>
<polygon fill="midnightblue" stroke="midnightblue" points="1393.18,-172.153 1391.94,-161.632 1386.35,-170.635 1393.18,-172.153"/>
</g>
<!-- Node23 -->
<g id="node23" class="node"><title>Node23</title>
<g id="a_node23"><a xlink:href="thread-pool_8h.html" target="_top" xlink:title="util/thread&#45;pool.h">
<polygon fill="white" stroke="black" points="604.5,-452.5 604.5,-471.5 693.5,-471.5 693.5,-452.5 604.5,-452.5"/>
<text text-anchor="middle" x="649" y="-459.5" font-family="Helvetica,sans-Serif" font-size="10.00">util/thread&#45;pool.h</text>
</a>
</g>
</g>
<!-- Node1&#45;&gt;Node23 -->
<g id="edge29" class="edge"><title>Node1&#45;&gt;Node23</title>
<path fill="none" stroke="midnightblue" d="M1179.86,-517.728C1070.79,-506.483 816.127,-480.23 703.843,-468.654"/>
<polygon fill="midnightblue" stroke="midnightblue" points="704.058,-465.158 693.752,-467.614 703.34,-472.121 704.058,-465.158"/>
</g>
<!-- Node4&#45;&gt;Node4 -->
<g id="edge4" class="edge"><title>Node4&#45;&gt;Node4</title>
<path fill="none" stroke="midnightblue" d="M1212.16,-471.525C1229.26,-474.308 1246,-471.133 1246,-462 1246,-454.722 1235.37,-451.228 1222.4,-451.517"/>
<polygon fill="midnightblue" stroke="midnightblue" points="1221.79,-448.058 1212.16,-452.475 1222.45,-455.027 1221.79,-448.058"/>
</g>
<!-- Node6 -->
<g id="node6" class="node"><title>Node6</title>
<polygon fill="white" stroke="#bfbfbf" points="1051,-396.5 1051,-415.5 1107,-415.5 1107,-396.5 1051,-396.5"/>
<text text-anchor="middle" x="1079" y="-403.5" font-family="Helvetica,sans-Serif" font-size="10.00">algorithm</text>
</g>
<!-- Node5&#45;&gt;Node6 -->
<g id="edge6" class="edge"><title>Node5&#45;&gt;Node6</title>
<path fill="none" stroke="midnightblue" d="M1079,-452.083C1079,-445.006 1079,-434.861 1079,-425.986"/>
<polygon fill="midnightblue" stroke="midnightblue" points="1082.5,-425.751 1079,-415.751 1075.5,-425.751 1082.5,-425.751"/>
</g>
<!-- Node7 -->
<g id="node7" class="node"><title>Node7</title>
<g id="a_node7"><a xlink:href="compiler-util_8h.html" target="_top" xlink:title="common/compiler&#45;util.h">
<polygon fill="white" stroke="black" points="820,-74.5 820,-93.5 938,-93.5 938,-74.5 820,-74.5"/>
<text text-anchor="middle" x="879" y="-81.5" font-family="Helvetica,sans-Serif" font-size="10.00">common/compiler&#45;util.h</text>
</a>
</g>
</g>
<!-- Node5&#45;&gt;Node7 -->
<g id="edge7" class="edge"><title>Node5&#45;&gt;Node7</title>
<path fill="none" stroke="midnightblue" d="M1103.03,-452.371C1155.37,-431.863 1275,-374.932 1275,-283 1275,-283 1275,-283 1275,-219 1275,-173.997 1255.24,-159.726 1217,-136 1173.33,-108.904 1034.02,-95.127 948.485,-89.0501"/>
<polygon fill="midnightblue" stroke="midnightblue" points="948.548,-85.5462 938.331,-88.3468 948.065,-92.5295 948.548,-85.5462"/>
</g>
<!-- Node8&#45;&gt;Node2 -->
<g id="edge9" class="edge"><title>Node8&#45;&gt;Node2</title>
<path fill="none" stroke="midnightblue" d="M1383.3,-142.283C1358.62,-122.219 1299.07,-74.0238 1289,-68 1254.49,-47.3588 1242.44,-48.9974 1206,-32 1204.65,-31.3692 1203.27,-30.7144 1201.87,-30.0468"/>
<polygon fill="midnightblue" stroke="midnightblue" points="1203.26,-26.829 1192.74,-25.5715 1200.18,-33.1149 1203.26,-26.829"/>
</g>
<!-- Node8&#45;&gt;Node7 -->
<g id="edge15" class="edge"><title>Node8&#45;&gt;Node7</title>
<path fill="none" stroke="midnightblue" d="M1347.77,-144.21C1329.47,-141.573 1308.26,-138.573 1289,-136 1169.34,-120.012 1029.81,-103.003 948.253,-93.2259"/>
<polygon fill="midnightblue" stroke="midnightblue" points="948.458,-89.7255 938.113,-92.0117 947.626,-96.6759 948.458,-89.7255"/>
</g>
<!-- Node9 -->
<g id="node9" class="node"><title>Node9</title>
<polygon fill="white" stroke="#bfbfbf" points="1906,-6.5 1906,-25.5 1950,-25.5 1950,-6.5 1906,-6.5"/>
<text text-anchor="middle" x="1928" y="-13.5" font-family="Helvetica,sans-Serif" font-size="10.00">vector</text>
</g>
<!-- Node8&#45;&gt;Node9 -->
<g id="edge10" class="edge"><title>Node8&#45;&gt;Node9</title>
<path fill="none" stroke="midnightblue" d="M1440,-148.01C1506.9,-142.811 1634.45,-129.678 1739,-100 1800.45,-82.5566 1867.95,-49.1671 1903.29,-30.4928"/>
<polygon fill="midnightblue" stroke="midnightblue" points="1905.2,-33.4401 1912.37,-25.6413 1901.9,-27.2658 1905.2,-33.4401"/>
</g>
<!-- Node10 -->
<g id="node10" class="node"><title>Node10</title>
<polygon fill="white" stroke="#bfbfbf" points="1968,-6.5 1968,-25.5 2082,-25.5 2082,-6.5 1968,-6.5"/>
<text text-anchor="middle" x="2025" y="-13.5" font-family="Helvetica,sans-Serif" font-size="10.00">boost/lexical_cast.hpp</text>
</g>
<!-- Node8&#45;&gt;Node10 -->
<g id="edge11" class="edge"><title>Node8&#45;&gt;Node10</title>
<path fill="none" stroke="midnightblue" d="M1440.11,-148.477C1515.47,-143.616 1669.32,-130.593 1796,-100 1870.36,-82.0416 1953.99,-48.0156 1996.64,-29.5992"/>
<polygon fill="midnightblue" stroke="midnightblue" points="1998.07,-32.7952 2005.84,-25.5947 1995.28,-26.3769 1998.07,-32.7952"/>
</g>
<!-- Node11 -->
<g id="node11" class="node"><title>Node11</title>
<g id="a_node11"><a xlink:href="logging_8h.html" target="_top" xlink:title="common/logging.h">
<polygon fill="white" stroke="black" points="325,-74.5 325,-93.5 421,-93.5 421,-74.5 325,-74.5"/>
<text text-anchor="middle" x="373" y="-81.5" font-family="Helvetica,sans-Serif" font-size="10.00">common/logging.h</text>
</a>
</g>
</g>
<!-- Node8&#45;&gt;Node11 -->
<g id="edge12" class="edge"><title>Node8&#45;&gt;Node11</title>
<path fill="none" stroke="midnightblue" d="M1347.81,-146.778C1312.11,-143.589 1261.45,-139.226 1217,-136 921.983,-114.589 568.493,-95.2869 431.356,-88.0389"/>
<polygon fill="midnightblue" stroke="midnightblue" points="431.254,-84.5288 421.083,-87.4972 430.885,-91.519 431.254,-84.5288"/>
</g>
<!-- Node14 -->
<g id="node14" class="node"><title>Node14</title>
<polygon fill="white" stroke="#bfbfbf" points="1341,-74.5 1341,-93.5 1461,-93.5 1461,-74.5 1341,-74.5"/>
<text text-anchor="middle" x="1401" y="-81.5" font-family="Helvetica,sans-Serif" font-size="10.00">gen&#45;cpp/Status_types.h</text>
</g>
<!-- Node8&#45;&gt;Node14 -->
<g id="edge16" class="edge"><title>Node8&#45;&gt;Node14</title>
<path fill="none" stroke="midnightblue" d="M1394.92,-142.372C1395.95,-132.643 1397.66,-116.528 1399,-103.85"/>
<polygon fill="midnightblue" stroke="midnightblue" points="1402.49,-104.155 1400.06,-93.8411 1395.53,-103.416 1402.49,-104.155"/>
</g>
<!-- Node15 -->
<g id="node15" class="node"><title>Node15</title>
<polygon fill="white" stroke="#bfbfbf" points="1784,-1 1784,-31 1888,-31 1888,-1 1784,-1"/>
<text text-anchor="start" x="1792" y="-19" font-family="Helvetica,sans-Serif" font-size="10.00">gen&#45;cpp/ErrorCodes</text>
<text text-anchor="middle" x="1836" y="-8" font-family="Helvetica,sans-Serif" font-size="10.00">_types.h</text>
</g>
<!-- Node8&#45;&gt;Node15 -->
<g id="edge17" class="edge"><title>Node8&#45;&gt;Node15</title>
<path fill="none" stroke="midnightblue" d="M1440.21,-148.152C1499.91,-143.342 1606.34,-130.9 1692,-100 1735.11,-84.4505 1780.15,-56.2512 1808.13,-37.0812"/>
<polygon fill="midnightblue" stroke="midnightblue" points="1810.38,-39.7819 1816.6,-31.202 1806.39,-34.033 1810.38,-39.7819"/>
</g>
<!-- Node16 -->
<g id="node16" class="node"><title>Node16</title>
<polygon fill="white" stroke="#bfbfbf" points="1479.5,-69 1479.5,-99 1588.5,-99 1588.5,-69 1479.5,-69"/>
<text text-anchor="start" x="1487.5" y="-87" font-family="Helvetica,sans-Serif" font-size="10.00">gen&#45;cpp/TCLIService</text>
<text text-anchor="middle" x="1534" y="-76" font-family="Helvetica,sans-Serif" font-size="10.00">_types.h</text>
</g>
<!-- Node8&#45;&gt;Node16 -->
<g id="edge18" class="edge"><title>Node8&#45;&gt;Node16</title>
<path fill="none" stroke="midnightblue" d="M1412.3,-142.372C1433.19,-132.526 1467.94,-116.141 1494.98,-103.396"/>
<polygon fill="midnightblue" stroke="midnightblue" points="1496.63,-106.486 1504.18,-99.0562 1493.65,-100.155 1496.63,-106.486"/>
</g>
<!-- Node17 -->
<g id="node17" class="node"><title>Node17</title>
<g id="a_node17"><a xlink:href="error-util_8h.html" target="_top" xlink:title="util/error&#45;util.h">
<polygon fill="white" stroke="black" points="1607,-74.5 1607,-93.5 1683,-93.5 1683,-74.5 1607,-74.5"/>
<text text-anchor="middle" x="1645" y="-81.5" font-family="Helvetica,sans-Serif" font-size="10.00">util/error&#45;util.h</text>
</a>
</g>
</g>
<!-- Node8&#45;&gt;Node17 -->
<g id="edge19" class="edge"><title>Node8&#45;&gt;Node17</title>
<path fill="none" stroke="midnightblue" d="M1430.47,-142.498C1471.23,-132.841 1539.11,-116.302 1597,-100 1600.86,-98.9128 1604.88,-97.7328 1608.88,-96.5283"/>
<polygon fill="midnightblue" stroke="midnightblue" points="1610.14,-99.8029 1618.67,-93.5226 1608.09,-93.111 1610.14,-99.8029"/>
</g>
<!-- Node12 -->
<g id="node12" class="node"><title>Node12</title>
<polygon fill="white" stroke="#bfbfbf" points="334.5,-6.5 334.5,-25.5 411.5,-25.5 411.5,-6.5 334.5,-6.5"/>
<text text-anchor="middle" x="373" y="-13.5" font-family="Helvetica,sans-Serif" font-size="10.00">glog/logging.h</text>
</g>
<!-- Node11&#45;&gt;Node12 -->
<g id="edge13" class="edge"><title>Node11&#45;&gt;Node12</title>
<path fill="none" stroke="midnightblue" d="M373,-74.3717C373,-64.6426 373,-48.528 373,-35.8504"/>
<polygon fill="midnightblue" stroke="midnightblue" points="376.5,-35.8411 373,-25.8411 369.5,-35.8412 376.5,-35.8411"/>
</g>
<!-- Node13 -->
<g id="node13" class="node"><title>Node13</title>
<polygon fill="white" stroke="#bfbfbf" points="232,-6.5 232,-25.5 312,-25.5 312,-6.5 232,-6.5"/>
<text text-anchor="middle" x="272" y="-13.5" font-family="Helvetica,sans-Serif" font-size="10.00">gflags/gflags.h</text>
</g>
<!-- Node11&#45;&gt;Node13 -->
<g id="edge14" class="edge"><title>Node11&#45;&gt;Node13</title>
<path fill="none" stroke="midnightblue" d="M359.796,-74.3717C343.01,-63.4027 313.803,-44.317 293.717,-31.1912"/>
<polygon fill="midnightblue" stroke="midnightblue" points="295.493,-28.1709 285.207,-25.6305 291.664,-34.0307 295.493,-28.1709"/>
</g>
<!-- Node17&#45;&gt;Node2 -->
<g id="edge20" class="edge"><title>Node17&#45;&gt;Node2</title>
<path fill="none" stroke="midnightblue" d="M1620.84,-74.3584C1613.29,-71.9551 1604.88,-69.5749 1597,-68 1425.87,-33.7832 1373.83,-79.8468 1206,-32 1204.03,-31.4372 1202.03,-30.745 1200.05,-29.9697"/>
<polygon fill="midnightblue" stroke="midnightblue" points="1201.06,-26.5858 1190.51,-25.6151 1198.15,-32.9532 1201.06,-26.5858"/>
</g>
<!-- Node17&#45;&gt;Node9 -->
<g id="edge21" class="edge"><title>Node17&#45;&gt;Node9</title>
<path fill="none" stroke="midnightblue" d="M1683.35,-78.2917C1733.43,-71.4565 1823.4,-56.8129 1897,-32 1898.91,-31.3553 1900.86,-30.62 1902.8,-29.829"/>
<polygon fill="midnightblue" stroke="midnightblue" points="1904.56,-32.8756 1912.23,-25.5733 1901.68,-26.4947 1904.56,-32.8756"/>
</g>
<!-- Node17&#45;&gt;Node10 -->
<g id="edge23" class="edge"><title>Node17&#45;&gt;Node10</title>
<path fill="none" stroke="midnightblue" d="M1683.19,-77.5163C1742.28,-68.8655 1859.35,-51.0636 1958,-32 1964.68,-30.7085 1971.72,-29.2467 1978.62,-27.7549"/>
<polygon fill="midnightblue" stroke="midnightblue" points="1979.56,-31.1322 1988.57,-25.564 1978.05,-24.2959 1979.56,-31.1322"/>
</g>
<!-- Node17&#45;&gt;Node15 -->
<g id="edge25" class="edge"><title>Node17&#45;&gt;Node15</title>
<path fill="none" stroke="midnightblue" d="M1669.97,-74.3717C1699.21,-64.2679 1748.38,-47.2774 1785.64,-34.4016"/>
<polygon fill="midnightblue" stroke="midnightblue" points="1787.01,-37.6304 1795.32,-31.0562 1784.73,-31.0142 1787.01,-37.6304"/>
</g>
<!-- Node18 -->
<g id="node18" class="node"><title>Node18</title>
<polygon fill="white" stroke="#bfbfbf" points="95,-6.5 95,-25.5 187,-25.5 187,-6.5 95,-6.5"/>
<text text-anchor="middle" x="141" y="-13.5" font-family="Helvetica,sans-Serif" font-size="10.00">boost/cstdint.hpp</text>
</g>
<!-- Node17&#45;&gt;Node18 -->
<g id="edge22" class="edge"><title>Node17&#45;&gt;Node18</title>
<path fill="none" stroke="midnightblue" d="M1621.88,-74.3549C1614.09,-71.8255 1605.27,-69.3729 1597,-68 1295.69,-17.9697 526.802,-63.5749 223,-32 212.528,-30.9116 201.385,-29.2304 190.799,-27.3813"/>
<polygon fill="midnightblue" stroke="midnightblue" points="191.326,-23.9197 180.861,-25.5708 190.071,-30.8063 191.326,-23.9197"/>
</g>
<!-- Node19 -->
<g id="node19" class="node"><title>Node19</title>
<polygon fill="white" stroke="#bfbfbf" points="1644,-1 1644,-31 1766,-31 1766,-1 1644,-1"/>
<text text-anchor="start" x="1652" y="-19" font-family="Helvetica,sans-Serif" font-size="10.00">gen&#45;cpp/CatalogObjects</text>
<text text-anchor="middle" x="1705" y="-8" font-family="Helvetica,sans-Serif" font-size="10.00">_types.h</text>
</g>
<!-- Node17&#45;&gt;Node19 -->
<g id="edge24" class="edge"><title>Node17&#45;&gt;Node19</title>
<path fill="none" stroke="midnightblue" d="M1652.84,-74.3717C1661.03,-65.3715 1674.18,-50.9067 1685.22,-38.7534"/>
<polygon fill="midnightblue" stroke="midnightblue" points="1687.97,-40.9352 1692.11,-31.1815 1682.79,-36.2265 1687.97,-40.9352"/>
</g>
<!-- Node20 -->
<g id="node20" class="node"><title>Node20</title>
<polygon fill="white" stroke="#bfbfbf" points="1215,-1 1215,-31 1319,-31 1319,-1 1215,-1"/>
<text text-anchor="start" x="1223" y="-19" font-family="Helvetica,sans-Serif" font-size="10.00">gen&#45;cpp/ErrorCodes</text>
<text text-anchor="middle" x="1267" y="-8" font-family="Helvetica,sans-Serif" font-size="10.00">_constants.h</text>
</g>
<!-- Node17&#45;&gt;Node20 -->
<g id="edge26" class="edge"><title>Node17&#45;&gt;Node20</title>
<path fill="none" stroke="midnightblue" d="M1620.3,-74.4016C1612.88,-72.0575 1604.67,-69.6991 1597,-68 1482.34,-42.6046 1448.3,-53.801 1329.04,-32.0601"/>
<polygon fill="midnightblue" stroke="midnightblue" points="1329.63,-28.6103 1319.16,-30.22 1328.35,-35.4919 1329.63,-28.6103"/>
</g>
<!-- Node21 -->
<g id="node21" class="node"><title>Node21</title>
<polygon fill="white" stroke="#bfbfbf" points="1337.5,-1 1337.5,-31 1486.5,-31 1486.5,-1 1337.5,-1"/>
<text text-anchor="start" x="1345.5" y="-19" font-family="Helvetica,sans-Serif" font-size="10.00">gen&#45;cpp/ImpalaInternalService</text>
<text text-anchor="middle" x="1412" y="-8" font-family="Helvetica,sans-Serif" font-size="10.00">_types.h</text>
</g>
<!-- Node17&#45;&gt;Node21 -->
<g id="edge27" class="edge"><title>Node17&#45;&gt;Node21</title>
<path fill="none" stroke="midnightblue" d="M1618.14,-74.4297C1611.26,-72.284 1603.87,-70.0193 1597,-68 1556.39,-56.0605 1510.52,-43.41 1474.61,-33.6951"/>
<polygon fill="midnightblue" stroke="midnightblue" points="1475.33,-30.2633 1464.76,-31.0359 1473.51,-37.0214 1475.33,-30.2633"/>
</g>
<!-- Node22 -->
<g id="node22" class="node"><title>Node22</title>
<polygon fill="white" stroke="#bfbfbf" points="1504.5,-6.5 1504.5,-25.5 1625.5,-25.5 1625.5,-6.5 1504.5,-6.5"/>
<text text-anchor="middle" x="1565" y="-13.5" font-family="Helvetica,sans-Serif" font-size="10.00">gutil/strings/substitute.h</text>
</g>
<!-- Node17&#45;&gt;Node22 -->
<g id="edge28" class="edge"><title>Node17&#45;&gt;Node22</title>
<path fill="none" stroke="midnightblue" d="M1634.54,-74.3717C1621.61,-63.6992 1599.35,-45.3427 1583.51,-32.2683"/>
<polygon fill="midnightblue" stroke="midnightblue" points="1585.4,-29.2945 1575.46,-25.6305 1580.95,-34.6941 1585.4,-29.2945"/>
</g>
<!-- Node24 -->
<g id="node24" class="node"><title>Node24</title>
<g id="a_node24"><a xlink:href="blocking-queue_8h.html" target="_top" xlink:title="util/blocking&#45;queue.h">
<polygon fill="white" stroke="black" points="226,-396.5 226,-415.5 332,-415.5 332,-396.5 226,-396.5"/>
<text text-anchor="middle" x="279" y="-403.5" font-family="Helvetica,sans-Serif" font-size="10.00">util/blocking&#45;queue.h</text>
</a>
</g>
</g>
<!-- Node23&#45;&gt;Node24 -->
<g id="edge30" class="edge"><title>Node23&#45;&gt;Node24</title>
<path fill="none" stroke="midnightblue" d="M604.369,-454.486C539.018,-444.949 416.976,-427.137 342.357,-416.247"/>
<polygon fill="midnightblue" stroke="midnightblue" points="342.554,-412.738 332.153,-414.758 341.543,-419.665 342.554,-412.738"/>
</g>
<!-- Node26 -->
<g id="node26" class="node"><title>Node26</title>
<polygon fill="white" stroke="#bfbfbf" points="351.5,-334.5 351.5,-353.5 470.5,-353.5 470.5,-334.5 351.5,-334.5"/>
<text text-anchor="middle" x="411" y="-341.5" font-family="Helvetica,sans-Serif" font-size="10.00">boost/thread/mutex.hpp</text>
</g>
<!-- Node23&#45;&gt;Node26 -->
<g id="edge40" class="edge"><title>Node23&#45;&gt;Node26</title>
<path fill="none" stroke="midnightblue" d="M631.499,-452.47C590.237,-432.359 486.655,-381.874 437.58,-357.955"/>
<polygon fill="midnightblue" stroke="midnightblue" points="439.049,-354.777 428.526,-353.542 435.982,-361.07 439.049,-354.777"/>
</g>
<!-- Node32 -->
<g id="node32" class="node"><title>Node32</title>
<polygon fill="white" stroke="#bfbfbf" points="589.5,-396.5 589.5,-415.5 708.5,-415.5 708.5,-396.5 589.5,-396.5"/>
<text text-anchor="middle" x="649" y="-403.5" font-family="Helvetica,sans-Serif" font-size="10.00">boost/bind/mem_fn.hpp</text>
</g>
<!-- Node23&#45;&gt;Node32 -->
<g id="edge41" class="edge"><title>Node23&#45;&gt;Node32</title>
<path fill="none" stroke="midnightblue" d="M649,-452.083C649,-445.006 649,-434.861 649,-425.986"/>
<polygon fill="midnightblue" stroke="midnightblue" points="652.5,-425.751 649,-415.751 645.5,-425.751 652.5,-425.751"/>
</g>
<!-- Node33 -->
<g id="node33" class="node"><title>Node33</title>
<g id="a_node33"><a xlink:href="thread_8h.html" target="_top" xlink:title="util/thread.h">
<polygon fill="white" stroke="black" points="787,-396.5 787,-415.5 855,-415.5 855,-396.5 787,-396.5"/>
<text text-anchor="middle" x="821" y="-403.5" font-family="Helvetica,sans-Serif" font-size="10.00">util/thread.h</text>
</a>
</g>
</g>
<!-- Node23&#45;&gt;Node33 -->
<g id="edge42" class="edge"><title>Node23&#45;&gt;Node33</title>
<path fill="none" stroke="midnightblue" d="M676.254,-452.444C705.441,-443.28 751.921,-428.688 784.309,-418.519"/>
<polygon fill="midnightblue" stroke="midnightblue" points="785.381,-421.851 793.874,-415.516 783.284,-415.173 785.381,-421.851"/>
</g>
<!-- Node25 -->
<g id="node25" class="node"><title>Node25</title>
<polygon fill="white" stroke="#bfbfbf" points="104.5,-329 104.5,-359 217.5,-359 217.5,-329 104.5,-329"/>
<text text-anchor="start" x="112.5" y="-347" font-family="Helvetica,sans-Serif" font-size="10.00">boost/thread/condition</text>
<text text-anchor="middle" x="161" y="-336" font-family="Helvetica,sans-Serif" font-size="10.00">_variable.hpp</text>
</g>
<!-- Node24&#45;&gt;Node25 -->
<g id="edge31" class="edge"><title>Node24&#45;&gt;Node25</title>
<path fill="none" stroke="midnightblue" d="M262.093,-396.403C245.44,-387.936 219.45,-374.72 197.993,-363.81"/>
<polygon fill="midnightblue" stroke="midnightblue" points="199.311,-360.553 188.81,-359.141 196.138,-366.793 199.311,-360.553"/>
</g>
<!-- Node24&#45;&gt;Node26 -->
<g id="edge32" class="edge"><title>Node24&#45;&gt;Node26</title>
<path fill="none" stroke="midnightblue" d="M297.912,-396.403C320.163,-386.29 357.312,-369.404 382.926,-357.761"/>
<polygon fill="midnightblue" stroke="midnightblue" points="384.467,-360.905 392.123,-353.581 381.571,-354.532 384.467,-360.905"/>
</g>
<!-- Node27 -->
<g id="node27" class="node"><title>Node27</title>
<polygon fill="white" stroke="#bfbfbf" points="235.5,-334.5 235.5,-353.5 264.5,-353.5 264.5,-334.5 235.5,-334.5"/>
<text text-anchor="middle" x="250" y="-341.5" font-family="Helvetica,sans-Serif" font-size="10.00">list</text>
</g>
<!-- Node24&#45;&gt;Node27 -->
<g id="edge33" class="edge"><title>Node24&#45;&gt;Node27</title>
<path fill="none" stroke="midnightblue" d="M274.845,-396.403C270.624,-387.671 263.963,-373.889 258.6,-362.794"/>
<polygon fill="midnightblue" stroke="midnightblue" points="261.65,-361.061 254.147,-353.581 255.348,-364.107 261.65,-361.061"/>
</g>
<!-- Node28 -->
<g id="node28" class="node"><title>Node28</title>
<polygon fill="white" stroke="#bfbfbf" points="282.5,-334.5 282.5,-353.5 333.5,-353.5 333.5,-334.5 282.5,-334.5"/>
<text text-anchor="middle" x="308" y="-341.5" font-family="Helvetica,sans-Serif" font-size="10.00">unistd.h</text>
</g>
<!-- Node24&#45;&gt;Node28 -->
<g id="edge34" class="edge"><title>Node24&#45;&gt;Node28</title>
<path fill="none" stroke="midnightblue" d="M283.155,-396.403C287.376,-387.671 294.037,-373.889 299.4,-362.794"/>
<polygon fill="midnightblue" stroke="midnightblue" points="302.652,-364.107 303.853,-353.581 296.35,-361.061 302.652,-364.107"/>
</g>
<!-- Node29 -->
<g id="node29" class="node"><title>Node29</title>
<g id="a_node29"><a xlink:href="stopwatch_8h.html" target="_top" xlink:title="util/stopwatch.h">
<polygon fill="white" stroke="black" points="0,-334.5 0,-353.5 86,-353.5 86,-334.5 0,-334.5"/>
<text text-anchor="middle" x="43" y="-341.5" font-family="Helvetica,sans-Serif" font-size="10.00">util/stopwatch.h</text>
</a>
</g>
</g>
<!-- Node24&#45;&gt;Node29 -->
<g id="edge35" class="edge"><title>Node24&#45;&gt;Node29</title>
<path fill="none" stroke="midnightblue" d="M242.231,-396.476C205.008,-387.737 145.844,-373.545 95,-360 90.6434,-358.839 86.093,-357.587 81.5746,-356.318"/>
<polygon fill="midnightblue" stroke="midnightblue" points="82.3979,-352.913 71.8218,-353.542 80.4816,-359.646 82.3979,-352.913"/>
</g>
<!-- Node29&#45;&gt;Node18 -->
<g id="edge36" class="edge"><title>Node29&#45;&gt;Node18</title>
<path fill="none" stroke="midnightblue" d="M39.6893,-334.269C32.4795,-314.444 16,-264.386 16,-221 16,-221 16,-221 16,-151 16,-94.0509 77.116,-51.2269 113.879,-30.6185"/>
<polygon fill="midnightblue" stroke="midnightblue" points="115.963,-33.4706 123.091,-25.6317 112.63,-27.3148 115.963,-33.4706"/>
</g>
<!-- Node30 -->
<g id="node30" class="node"><title>Node30</title>
<g id="a_node30"><a xlink:href="time_8h.html" target="_top" xlink:title="time.h">
<polygon fill="white" stroke="black" points="47,-272.5 47,-291.5 91,-291.5 91,-272.5 47,-272.5"/>
<text text-anchor="middle" x="69" y="-279.5" font-family="Helvetica,sans-Serif" font-size="10.00">time.h</text>
</a>
</g>
</g>
<!-- Node29&#45;&gt;Node30 -->
<g id="edge37" class="edge"><title>Node29&#45;&gt;Node30</title>
<path fill="none" stroke="midnightblue" d="M46.7252,-334.403C50.5093,-325.671 56.4813,-311.889 61.2894,-300.794"/>
<polygon fill="midnightblue" stroke="midnightblue" points="64.5171,-302.148 65.2817,-291.581 58.0942,-299.365 64.5171,-302.148"/>
</g>
<!-- Node30&#45;&gt;Node30 -->
<g id="edge39" class="edge"><title>Node30&#45;&gt;Node30</title>
<path fill="none" stroke="midnightblue" d="M82.5902,-291.556C94.8588,-296.205 108,-293.02 108,-282 108,-273.994 101.063,-270.123 92.5635,-270.388"/>
<polygon fill="midnightblue" stroke="midnightblue" points="91.6774,-266.997 82.5902,-272.444 93.091,-273.853 91.6774,-266.997"/>
</g>
<!-- Node31 -->
<g id="node31" class="node"><title>Node31</title>
<polygon fill="white" stroke="#bfbfbf" points="44.5,-210.5 44.5,-229.5 93.5,-229.5 93.5,-210.5 44.5,-210.5"/>
<text text-anchor="middle" x="69" y="-217.5" font-family="Helvetica,sans-Serif" font-size="10.00">stdint.h</text>
</g>
<!-- Node30&#45;&gt;Node31 -->
<g id="edge38" class="edge"><title>Node30&#45;&gt;Node31</title>
<path fill="none" stroke="midnightblue" d="M69,-272.403C69,-263.938 69,-250.728 69,-239.82"/>
<polygon fill="midnightblue" stroke="midnightblue" points="72.5001,-239.581 69,-229.581 65.5001,-239.581 72.5001,-239.581"/>
</g>
<!-- Node33&#45;&gt;Node3 -->
<g id="edge46" class="edge"><title>Node33&#45;&gt;Node3</title>
<path fill="none" stroke="midnightblue" d="M855.104,-402.121C908.414,-396.926 1007.99,-384.203 1033,-360 1048.58,-344.919 1052.18,-319.249 1052.65,-301.728"/>
<polygon fill="midnightblue" stroke="midnightblue" points="1056.15,-301.565 1052.59,-291.584 1049.15,-301.603 1056.15,-301.565"/>
</g>
<!-- Node33&#45;&gt;Node8 -->
<g id="edge48" class="edge"><title>Node33&#45;&gt;Node8</title>
<path fill="none" stroke="midnightblue" d="M855.132,-402.334C901.827,-397.83 987.627,-386.469 1056,-360 1188,-308.902 1326.09,-206.276 1375.27,-167.917"/>
<polygon fill="midnightblue" stroke="midnightblue" points="1377.69,-170.462 1383.39,-161.53 1373.37,-164.958 1377.69,-170.462"/>
</g>
<!-- Node34 -->
<g id="node34" class="node"><title>Node34</title>
<polygon fill="white" stroke="#bfbfbf" points="582,-334.5 582,-353.5 662,-353.5 662,-334.5 582,-334.5"/>
<text text-anchor="middle" x="622" y="-341.5" font-family="Helvetica,sans-Serif" font-size="10.00">boost/bind.hpp</text>
</g>
<!-- Node33&#45;&gt;Node34 -->
<g id="edge43" class="edge"><title>Node33&#45;&gt;Node34</title>
<path fill="none" stroke="midnightblue" d="M792.23,-396.421C762.023,-387.402 713.152,-372.774 671,-360 667.228,-358.857 663.295,-357.66 659.369,-356.463"/>
<polygon fill="midnightblue" stroke="midnightblue" points="660.306,-353.09 649.719,-353.515 658.26,-359.784 660.306,-353.09"/>
</g>
<!-- Node35 -->
<g id="node35" class="node"><title>Node35</title>
<polygon fill="white" stroke="#bfbfbf" points="680.5,-334.5 680.5,-353.5 777.5,-353.5 777.5,-334.5 680.5,-334.5"/>
<text text-anchor="middle" x="729" y="-341.5" font-family="Helvetica,sans-Serif" font-size="10.00">boost/function.hpp</text>
</g>
<!-- Node33&#45;&gt;Node35 -->
<g id="edge44" class="edge"><title>Node33&#45;&gt;Node35</title>
<path fill="none" stroke="midnightblue" d="M807.819,-396.403C792.926,-386.691 768.456,-370.732 750.727,-359.17"/>
<polygon fill="midnightblue" stroke="midnightblue" points="752.445,-356.112 742.157,-353.581 748.621,-361.975 752.445,-356.112"/>
</g>
<!-- Node36 -->
<g id="node36" class="node"><title>Node36</title>
<polygon fill="white" stroke="#bfbfbf" points="796,-334.5 796,-353.5 906,-353.5 906,-334.5 796,-334.5"/>
<text text-anchor="middle" x="851" y="-341.5" font-family="Helvetica,sans-Serif" font-size="10.00">boost/scoped_ptr.hpp</text>
</g>
<!-- Node33&#45;&gt;Node36 -->
<g id="edge45" class="edge"><title>Node33&#45;&gt;Node36</title>
<path fill="none" stroke="midnightblue" d="M825.298,-396.403C829.665,-387.671 836.555,-373.889 842.103,-362.794"/>
<polygon fill="midnightblue" stroke="midnightblue" points="845.368,-364.09 846.71,-353.581 839.107,-360.96 845.368,-364.09"/>
</g>
<!-- Node37 -->
<g id="node37" class="node"><title>Node37</title>
<polygon fill="white" stroke="#bfbfbf" points="924,-329 924,-359 1024,-359 1024,-329 924,-329"/>
<text text-anchor="start" x="932" y="-347" font-family="Helvetica,sans-Serif" font-size="10.00">boost/ptr_container</text>
<text text-anchor="middle" x="974" y="-336" font-family="Helvetica,sans-Serif" font-size="10.00">/ptr_vector.hpp</text>
</g>
<!-- Node33&#45;&gt;Node37 -->
<g id="edge47" class="edge"><title>Node33&#45;&gt;Node37</title>
<path fill="none" stroke="midnightblue" d="M842.921,-396.403C865.266,-387.641 900.575,-373.794 928.919,-362.679"/>
<polygon fill="midnightblue" stroke="midnightblue" points="930.204,-365.935 938.235,-359.025 927.648,-359.418 930.204,-365.935"/>
</g>
<!-- Node38 -->
<g id="node38" class="node"><title>Node38</title>
<g id="a_node38"><a xlink:href="promise_8h.html" target="_top" xlink:title="util/promise.h">
<polygon fill="white" stroke="black" points="488.5,-334.5 488.5,-353.5 563.5,-353.5 563.5,-334.5 488.5,-334.5"/>
<text text-anchor="middle" x="526" y="-341.5" font-family="Helvetica,sans-Serif" font-size="10.00">util/promise.h</text>
</a>
</g>
</g>
<!-- Node33&#45;&gt;Node38 -->
<g id="edge49" class="edge"><title>Node33&#45;&gt;Node38</title>
<path fill="none" stroke="midnightblue" d="M786.604,-400.199C738.446,-393.151 648.367,-378.781 573,-360 568.886,-358.975 564.606,-357.785 560.377,-356.533"/>
<polygon fill="midnightblue" stroke="midnightblue" points="561.295,-353.154 550.708,-353.547 559.229,-359.842 561.295,-353.154"/>
</g>
<!-- Node38&#45;&gt;Node3 -->
<g id="edge50" class="edge"><title>Node38&#45;&gt;Node3</title>
<path fill="none" stroke="midnightblue" d="M549.647,-334.359C557.038,-331.956 565.279,-329.576 573,-328 724.541,-297.076 907.463,-287.344 997.086,-284.326"/>
<polygon fill="midnightblue" stroke="midnightblue" points="997.403,-287.818 1007.29,-283.999 997.178,-280.822 997.403,-287.818"/>
</g>
<!-- Node38&#45;&gt;Node11 -->
<g id="edge51" class="edge"><title>Node38&#45;&gt;Node11</title>
<path fill="none" stroke="midnightblue" d="M502.92,-334.476C473.784,-323.428 425.686,-304.143 411,-292 359.313,-249.261 345.024,-232.009 325,-168 320.754,-154.426 319.757,-149.221 325,-136 330.659,-121.73 342.41,-109.132 352.869,-100.026"/>
<polygon fill="midnightblue" stroke="midnightblue" points="355.314,-102.548 360.838,-93.5075 350.882,-97.1298 355.314,-102.548"/>
</g>
<!-- Node38&#45;&gt;Node30 -->
<g id="edge74" class="edge"><title>Node38&#45;&gt;Node30</title>
<path fill="none" stroke="midnightblue" d="M502.338,-334.434C494.946,-332.033 486.708,-329.636 479,-328 340.367,-298.578 171.04,-287.753 101.335,-284.355"/>
<polygon fill="midnightblue" stroke="midnightblue" points="101.176,-280.844 91.0234,-283.871 100.849,-287.836 101.176,-280.844"/>
</g>
<!-- Node39 -->
<g id="node39" class="node"><title>Node39</title>
<g id="a_node39"><a xlink:href="timestamp-value_8h.html" target="_top" xlink:title="runtime/timestamp&#45;value.h">
<polygon fill="white" stroke="black" points="420,-272.5 420,-291.5 552,-291.5 552,-272.5 420,-272.5"/>
<text text-anchor="middle" x="486" y="-279.5" font-family="Helvetica,sans-Serif" font-size="10.00">runtime/timestamp&#45;value.h</text>
</a>
</g>
</g>
<!-- Node38&#45;&gt;Node39 -->
<g id="edge52" class="edge"><title>Node38&#45;&gt;Node39</title>
<path fill="none" stroke="midnightblue" d="M520.269,-334.403C514.328,-325.493 504.883,-311.325 497.412,-300.118"/>
<polygon fill="midnightblue" stroke="midnightblue" points="500.18,-297.96 491.72,-291.581 494.355,-301.843 500.18,-297.96"/>
</g>
<!-- Node39&#45;&gt;Node2 -->
<g id="edge54" class="edge"><title>Node39&#45;&gt;Node2</title>
<path fill="none" stroke="midnightblue" d="M552.109,-281.426C715.915,-280.909 1133.4,-269.462 1217,-168 1249.87,-128.102 1211.21,-64.0738 1189.21,-33.8427"/>
<polygon fill="midnightblue" stroke="midnightblue" points="1191.82,-31.4946 1183.01,-25.6097 1186.23,-35.7042 1191.82,-31.4946"/>
</g>
<!-- Node39&#45;&gt;Node13 -->
<g id="edge57" class="edge"><title>Node39&#45;&gt;Node13</title>
<path fill="none" stroke="midnightblue" d="M466.269,-272.397C432.38,-256.629 363.095,-219.888 325,-168 294.528,-126.496 280.399,-65.9497 274.921,-35.6822"/>
<polygon fill="midnightblue" stroke="midnightblue" points="278.346,-34.9442 273.228,-25.6672 271.444,-36.1106 278.346,-34.9442"/>
</g>
<!-- Node39&#45;&gt;Node18 -->
<g id="edge55" class="edge"><title>Node39&#45;&gt;Node18</title>
<path fill="none" stroke="midnightblue" d="M419.787,-279.885C339.708,-277.126 211.35,-267.723 177,-236 120.093,-183.447 130.363,-78.3787 137.396,-35.6838"/>
<polygon fill="midnightblue" stroke="midnightblue" points="140.846,-36.2729 139.154,-25.8142 133.955,-35.0456 140.846,-36.2729"/>
</g>
<!-- Node40 -->
<g id="node40" class="node"><title>Node40</title>
<polygon fill="white" stroke="#bfbfbf" points="818.5,-210.5 818.5,-229.5 859.5,-229.5 859.5,-210.5 818.5,-210.5"/>
<text text-anchor="middle" x="839" y="-217.5" font-family="Helvetica,sans-Serif" font-size="10.00">ctime</text>
</g>
<!-- Node39&#45;&gt;Node40 -->
<g id="edge53" class="edge"><title>Node39&#45;&gt;Node40</title>
<path fill="none" stroke="midnightblue" d="M552.012,-278.073C618.269,-273.69 722.62,-262.819 809,-236 810.919,-235.404 812.865,-234.697 814.797,-233.918"/>
<polygon fill="midnightblue" stroke="midnightblue" points="816.513,-236.981 824.138,-229.625 813.59,-230.621 816.513,-236.981"/>
</g>
<!-- Node41 -->
<g id="node41" class="node"><title>Node41</title>
<polygon fill="white" stroke="#bfbfbf" points="429.5,-137 429.5,-167 542.5,-167 542.5,-137 429.5,-137"/>
<text text-anchor="start" x="437.5" y="-155" font-family="Helvetica,sans-Serif" font-size="10.00">boost/date_time/posix</text>
<text text-anchor="middle" x="486" y="-144" font-family="Helvetica,sans-Serif" font-size="10.00">_time/posix_time.hpp</text>
</g>
<!-- Node39&#45;&gt;Node41 -->
<g id="edge56" class="edge"><title>Node39&#45;&gt;Node41</title>
<path fill="none" stroke="midnightblue" d="M486,-272.202C486,-252.87 486,-206.114 486,-177.239"/>
<polygon fill="midnightblue" stroke="midnightblue" points="489.5,-177.143 486,-167.143 482.5,-177.143 489.5,-177.143"/>
</g>
<!-- Node42 -->
<g id="node42" class="node"><title>Node42</title>
<g id="a_node42"><a xlink:href="timestamp-parse-util_8h.html" target="_top" xlink:title="runtime/timestamp&#45;parse\l&#45;util.h">
<polygon fill="white" stroke="black" points="675.5,-205 675.5,-235 800.5,-235 800.5,-205 675.5,-205"/>
<text text-anchor="start" x="683.5" y="-223" font-family="Helvetica,sans-Serif" font-size="10.00">runtime/timestamp&#45;parse</text>
<text text-anchor="middle" x="738" y="-212" font-family="Helvetica,sans-Serif" font-size="10.00">&#45;util.h</text>
</a>
</g>
</g>
<!-- Node39&#45;&gt;Node42 -->
<g id="edge58" class="edge"><title>Node39&#45;&gt;Node42</title>
<path fill="none" stroke="midnightblue" d="M521.838,-272.467C560.023,-263.376 621.408,-248.76 669.024,-237.423"/>
<polygon fill="midnightblue" stroke="midnightblue" points="670.045,-240.778 678.963,-235.057 668.424,-233.968 670.045,-240.778"/>
</g>
<!-- Node48 -->
<g id="node48" class="node"><title>Node48</title>
<g id="a_node48"><a xlink:href="udf_8h.html" target="_top" xlink:title="udf/udf.h">
<polygon fill="white" stroke="red" points="186.5,-210.5 186.5,-229.5 241.5,-229.5 241.5,-210.5 186.5,-210.5"/>
<text text-anchor="middle" x="214" y="-217.5" font-family="Helvetica,sans-Serif" font-size="10.00">udf/udf.h</text>
</a>
</g>
</g>
<!-- Node39&#45;&gt;Node48 -->
<g id="edge68" class="edge"><title>Node39&#45;&gt;Node48</title>
<path fill="none" stroke="midnightblue" d="M447.318,-272.467C395.313,-260.996 303.441,-240.73 251.86,-229.352"/>
<polygon fill="midnightblue" stroke="midnightblue" points="252.319,-225.869 241.799,-227.132 250.811,-232.704 252.319,-225.869"/>
</g>
<!-- Node50 -->
<g id="node50" class="node"><title>Node50</title>
<g id="a_node50"><a xlink:href="hash-util_8h.html" target="_top" xlink:title="util/hash&#45;util.h">
<polygon fill="white" stroke="red" points="334.5,-142.5 334.5,-161.5 411.5,-161.5 411.5,-142.5 334.5,-142.5"/>
<text text-anchor="middle" x="373" y="-149.5" font-family="Helvetica,sans-Serif" font-size="10.00">util/hash&#45;util.h</text>
</a>
</g>
</g>
<!-- Node39&#45;&gt;Node50 -->
<g id="edge71" class="edge"><title>Node39&#45;&gt;Node50</title>
<path fill="none" stroke="midnightblue" d="M478.233,-272.202C459.435,-250.908 411.265,-196.344 387.169,-169.05"/>
<polygon fill="midnightblue" stroke="midnightblue" points="389.766,-166.703 380.524,-161.522 384.518,-171.335 389.766,-166.703"/>
</g>
<!-- Node42&#45;&gt;Node8 -->
<g id="edge63" class="edge"><title>Node42&#45;&gt;Node8</title>
<path fill="none" stroke="midnightblue" d="M800.645,-205.335C803.464,-204.856 806.258,-204.408 809,-204 821.989,-202.069 1193.21,-170.194 1337.45,-157.839"/>
<polygon fill="midnightblue" stroke="midnightblue" points="1338.18,-161.289 1347.84,-156.949 1337.58,-154.315 1338.18,-161.289"/>
</g>
<!-- Node42&#45;&gt;Node41 -->
<g id="edge60" class="edge"><title>Node42&#45;&gt;Node41</title>
<path fill="none" stroke="midnightblue" d="M684.249,-204.922C644.771,-194.583 591.002,-180.501 549.421,-169.61"/>
<polygon fill="midnightblue" stroke="midnightblue" points="550.229,-166.204 539.669,-167.056 548.456,-172.976 550.229,-166.204"/>
</g>
<!-- Node43 -->
<g id="node43" class="node"><title>Node43</title>
<polygon fill="white" stroke="#bfbfbf" points="975,-142.5 975,-161.5 1095,-161.5 1095,-142.5 975,-142.5"/>
<text text-anchor="middle" x="1035" y="-149.5" font-family="Helvetica,sans-Serif" font-size="10.00">boost/assign/list_of.hpp</text>
</g>
<!-- Node42&#45;&gt;Node43 -->
<g id="edge59" class="edge"><title>Node42&#45;&gt;Node43</title>
<path fill="none" stroke="midnightblue" d="M800.623,-205.084C856.031,-192.771 935.742,-175.057 986.445,-163.79"/>
<polygon fill="midnightblue" stroke="midnightblue" points="987.491,-167.143 996.494,-161.557 985.972,-160.31 987.491,-167.143"/>
</g>
<!-- Node44 -->
<g id="node44" class="node"><title>Node44</title>
<polygon fill="white" stroke="#bfbfbf" points="1113.5,-142.5 1113.5,-161.5 1208.5,-161.5 1208.5,-142.5 1113.5,-142.5"/>
<text text-anchor="middle" x="1161" y="-149.5" font-family="Helvetica,sans-Serif" font-size="10.00">boost/foreach.hpp</text>
</g>
<!-- Node42&#45;&gt;Node44 -->
<g id="edge61" class="edge"><title>Node42&#45;&gt;Node44</title>
<path fill="none" stroke="midnightblue" d="M800.664,-205.455C803.478,-204.943 806.266,-204.455 809,-204 938.854,-182.374 973.664,-192.533 1103,-168 1108.89,-166.882 1115.07,-165.507 1121.11,-164.048"/>
<polygon fill="midnightblue" stroke="midnightblue" points="1122.22,-167.377 1131.07,-161.541 1120.51,-160.589 1122.22,-167.377"/>
</g>
<!-- Node45 -->
<g id="node45" class="node"><title>Node45</title>
<polygon fill="white" stroke="#bfbfbf" points="673.5,-142.5 673.5,-161.5 802.5,-161.5 802.5,-142.5 673.5,-142.5"/>
<text text-anchor="middle" x="738" y="-149.5" font-family="Helvetica,sans-Serif" font-size="10.00">boost/unordered_map.hpp</text>
</g>
<!-- Node42&#45;&gt;Node45 -->
<g id="edge62" class="edge"><title>Node42&#45;&gt;Node45</title>
<path fill="none" stroke="midnightblue" d="M738,-204.679C738,-195.101 738,-182.394 738,-171.977"/>
<polygon fill="midnightblue" stroke="midnightblue" points="741.5,-171.828 738,-161.828 734.5,-171.828 741.5,-171.828"/>
</g>
<!-- Node46 -->
<g id="node46" class="node"><title>Node46</title>
<g id="a_node46"><a xlink:href="string-value_8inline_8h.html" target="_top" xlink:title="runtime/string&#45;value.inline.h">
<polygon fill="white" stroke="red" points="821,-142.5 821,-161.5 957,-161.5 957,-142.5 821,-142.5"/>
<text text-anchor="middle" x="889" y="-149.5" font-family="Helvetica,sans-Serif" font-size="10.00">runtime/string&#45;value.inline.h</text>
</a>
</g>
</g>
<!-- Node42&#45;&gt;Node46 -->
<g id="edge64" class="edge"><title>Node42&#45;&gt;Node46</title>
<path fill="none" stroke="midnightblue" d="M770.393,-204.841C796.98,-193.221 834.293,-176.912 859.93,-165.706"/>
<polygon fill="midnightblue" stroke="midnightblue" points="861.376,-168.894 869.137,-161.682 858.572,-162.48 861.376,-168.894"/>
</g>
<!-- Node47 -->
<g id="node47" class="node"><title>Node47</title>
<g id="a_node47"><a xlink:href="string-parser_8h.html" target="_top" xlink:title="util/string&#45;parser.h">
<polygon fill="white" stroke="red" points="560.5,-142.5 560.5,-161.5 655.5,-161.5 655.5,-142.5 560.5,-142.5"/>
<text text-anchor="middle" x="608" y="-149.5" font-family="Helvetica,sans-Serif" font-size="10.00">util/string&#45;parser.h</text>
</a>
</g>
</g>
<!-- Node42&#45;&gt;Node47 -->
<g id="edge65" class="edge"><title>Node42&#45;&gt;Node47</title>
<path fill="none" stroke="midnightblue" d="M710.112,-204.841C687.626,-193.425 656.228,-177.485 634.204,-166.303"/>
<polygon fill="midnightblue" stroke="midnightblue" points="635.602,-163.088 625.101,-161.682 632.433,-169.33 635.602,-163.088"/>
</g>
<!-- Node47&#45;&gt;Node7 -->
<g id="edge66" class="edge"><title>Node47&#45;&gt;Node7</title>
<path fill="none" stroke="midnightblue" d="M639.354,-142.431C647.376,-140.285 655.998,-138.02 664,-136 721.627,-121.451 788.25,-105.832 831.873,-95.7675"/>
<polygon fill="midnightblue" stroke="midnightblue" points="832.674,-99.1748 841.633,-93.5198 831.103,-92.3534 832.674,-99.1748"/>
</g>
<!-- Node47&#45;&gt;Node11 -->
<g id="edge67" class="edge"><title>Node47&#45;&gt;Node11</title>
<path fill="none" stroke="midnightblue" d="M577.278,-142.372C535.203,-130.555 459.587,-109.318 413.096,-96.261"/>
<polygon fill="midnightblue" stroke="midnightblue" points="413.931,-92.8602 403.357,-93.5259 412.038,-99.5995 413.931,-92.8602"/>
</g>
<!-- Node48&#45;&gt;Node18 -->
<g id="edge70" class="edge"><title>Node48&#45;&gt;Node18</title>
<path fill="none" stroke="midnightblue" d="M206.495,-210.194C198.572,-200.468 186.245,-184.052 179,-168 158.578,-122.757 147.902,-64.7289 143.498,-35.5344"/>
<polygon fill="midnightblue" stroke="midnightblue" points="146.947,-34.9337 142.067,-25.5299 140.018,-35.9247 146.947,-34.9337"/>
</g>
<!-- Node49 -->
<g id="node49" class="node"><title>Node49</title>
<polygon fill="white" stroke="#bfbfbf" points="188,-142.5 188,-161.5 240,-161.5 240,-142.5 188,-142.5"/>
<text text-anchor="middle" x="214" y="-149.5" font-family="Helvetica,sans-Serif" font-size="10.00">assert.h</text>
</g>
<!-- Node48&#45;&gt;Node49 -->
<g id="edge69" class="edge"><title>Node48&#45;&gt;Node49</title>
<path fill="none" stroke="midnightblue" d="M214,-210.372C214,-200.643 214,-184.528 214,-171.85"/>
<polygon fill="midnightblue" stroke="midnightblue" points="217.5,-171.841 214,-161.841 210.5,-171.841 217.5,-171.841"/>
</g>
<!-- Node50&#45;&gt;Node7 -->
<g id="edge73" class="edge"><title>Node50&#45;&gt;Node7</title>
<path fill="none" stroke="midnightblue" d="M396.664,-142.44C404.055,-140.04 412.293,-137.641 420,-136 556.295,-106.979 719.089,-93.8564 809.579,-88.4214"/>
<polygon fill="midnightblue" stroke="midnightblue" points="809.936,-91.9066 819.714,-87.8268 809.526,-84.9186 809.936,-91.9066"/>
</g>
<!-- Node50&#45;&gt;Node11 -->
<g id="edge72" class="edge"><title>Node50&#45;&gt;Node11</title>
<path fill="none" stroke="midnightblue" d="M373,-142.372C373,-132.643 373,-116.528 373,-103.85"/>
<polygon fill="midnightblue" stroke="midnightblue" points="376.5,-103.841 373,-93.8411 369.5,-103.841 376.5,-103.841"/>
</g>
</g>
</svg>
