<?xml version="1.0" encoding="UTF-8" standalone="no"?>
<!DOCTYPE svg PUBLIC "-//W3C//DTD SVG 1.1//EN"
 "http://www.w3.org/Graphics/SVG/1.1/DTD/svg11.dtd">
<!-- Generated by graphviz version 2.36.0 (20140111.2315)
 -->
<!-- Title: be/src/exec/hdfs&#45;rcfile&#45;scanner.h Pages: 1 -->
<svg width="251pt" height="108pt"
 viewBox="0.00 0.00 251.00 108.00" xmlns="http://www.w3.org/2000/svg" xmlns:xlink="http://www.w3.org/1999/xlink">
<g id="graph0" class="graph" transform="scale(1 1) rotate(0) translate(4 104)">
<title>be/src/exec/hdfs&#45;rcfile&#45;scanner.h</title>
<polygon fill="white" stroke="none" points="-4,4 -4,-104 247,-104 247,4 -4,4"/>
<!-- Node1 -->
<g id="node1" class="node"><title>Node1</title>
<polygon fill="#bfbfbf" stroke="black" points="64.5,-69 64.5,-99 177.5,-99 177.5,-69 64.5,-69"/>
<text text-anchor="start" x="72.5" y="-87" font-family="Helvetica,sans-Serif" font-size="10.00">be/src/exec/hdfs&#45;rcfile</text>
<text text-anchor="middle" x="121" y="-76" font-family="Helvetica,sans-Serif" font-size="10.00">&#45;scanner.h</text>
</g>
<!-- Node2 -->
<g id="node2" class="node"><title>Node2</title>
<g id="a_node2"><a xlink:href="hdfs-rcfile-scanner_8cc.html" target="_top" xlink:title="be/src/exec/hdfs&#45;rcfile\l&#45;scanner.cc">
<polygon fill="white" stroke="black" points="-0.5,-1 -0.5,-31 112.5,-31 112.5,-1 -0.5,-1"/>
<text text-anchor="start" x="7.5" y="-19" font-family="Helvetica,sans-Serif" font-size="10.00">be/src/exec/hdfs&#45;rcfile</text>
<text text-anchor="middle" x="56" y="-8" font-family="Helvetica,sans-Serif" font-size="10.00">&#45;scanner.cc</text>
</a>
</g>
</g>
<!-- Node1&#45;&gt;Node2 -->
<g id="edge1" class="edge"><title>Node1&#45;&gt;Node2</title>
<path fill="none" stroke="midnightblue" d="M99.8115,-61.4855C90.0612,-51.5852 78.759,-40.1092 70.0765,-31.2931"/>
<polygon fill="midnightblue" stroke="midnightblue" points="97.3853,-64.01 106.896,-68.679 102.373,-59.0982 97.3853,-64.01"/>
</g>
<!-- Node3 -->
<g id="node3" class="node"><title>Node3</title>
<g id="a_node3"><a xlink:href="hdfs-scan-node_8cc.html" target="_top" xlink:title="be/src/exec/hdfs&#45;scan\l&#45;node.cc">
<polygon fill="white" stroke="black" points="130.5,-1 130.5,-31 243.5,-31 243.5,-1 130.5,-1"/>
<text text-anchor="start" x="138.5" y="-19" font-family="Helvetica,sans-Serif" font-size="10.00">be/src/exec/hdfs&#45;scan</text>
<text text-anchor="middle" x="187" y="-8" font-family="Helvetica,sans-Serif" font-size="10.00">&#45;node.cc</text>
</a>
</g>
</g>
<!-- Node1&#45;&gt;Node3 -->
<g id="edge2" class="edge"><title>Node1&#45;&gt;Node3</title>
<path fill="none" stroke="midnightblue" d="M142.515,-61.4855C152.415,-51.5852 163.891,-40.1092 172.707,-31.2931"/>
<polygon fill="midnightblue" stroke="midnightblue" points="139.917,-59.133 135.321,-68.679 144.867,-64.0828 139.917,-59.133"/>
</g>
</g>
</svg>
