<?xml version="1.0" encoding="UTF-8" standalone="no"?>
<!DOCTYPE svg PUBLIC "-//W3C//DTD SVG 1.1//EN"
 "http://www.w3.org/Graphics/SVG/1.1/DTD/svg11.dtd">
<!-- Generated by graphviz version 2.36.0 (20140111.2315)
 -->
<!-- Title: be/src/runtime/hdfs&#45;fs&#45;cache.h Pages: 1 -->
<svg width="2229pt" height="108pt"
 viewBox="0.00 0.00 2229.00 108.00" xmlns="http://www.w3.org/2000/svg" xmlns:xlink="http://www.w3.org/1999/xlink">
<g id="graph0" class="graph" transform="scale(1 1) rotate(0) translate(4 104)">
<title>be/src/runtime/hdfs&#45;fs&#45;cache.h</title>
<polygon fill="white" stroke="none" points="-4,4 -4,-104 2225,-104 2225,4 -4,4"/>
<!-- Node1 -->
<g id="node1" class="node"><title>Node1</title>
<polygon fill="#bfbfbf" stroke="black" points="1082.5,-69 1082.5,-99 1183.5,-99 1183.5,-69 1082.5,-69"/>
<text text-anchor="start" x="1090.5" y="-87" font-family="Helvetica,sans-Serif" font-size="10.00">be/src/runtime/hdfs</text>
<text text-anchor="middle" x="1133" y="-76" font-family="Helvetica,sans-Serif" font-size="10.00">&#45;fs&#45;cache.h</text>
</g>
<!-- Node2 -->
<g id="node2" class="node"><title>Node2</title>
<g id="a_node2"><a xlink:href="llvm-codegen_8cc.html" target="_top" xlink:title="be/src/codegen/llvm\l&#45;codegen.cc">
<polygon fill="white" stroke="black" points="0,-1 0,-31 104,-31 104,-1 0,-1"/>
<text text-anchor="start" x="8" y="-19" font-family="Helvetica,sans-Serif" font-size="10.00">be/src/codegen/llvm</text>
<text text-anchor="middle" x="52" y="-8" font-family="Helvetica,sans-Serif" font-size="10.00">&#45;codegen.cc</text>
</a>
</g>
</g>
<!-- Node1&#45;&gt;Node2 -->
<g id="edge1" class="edge"><title>Node1&#45;&gt;Node2</title>
<path fill="none" stroke="midnightblue" d="M1072.36,-81.4902C882.321,-76.5185 299.903,-59.3952 113,-32 110.087,-31.573 107.109,-31.0692 104.114,-30.5095"/>
<polygon fill="midnightblue" stroke="midnightblue" points="1072.36,-84.9912 1082.45,-81.7522 1072.54,-77.9936 1072.36,-84.9912"/>
</g>
<!-- Node3 -->
<g id="node3" class="node"><title>Node3</title>
<g id="a_node3"><a xlink:href="init_8cc.html" target="_top" xlink:title="be/src/common/init.cc">
<polygon fill="white" stroke="black" points="122.5,-6.5 122.5,-25.5 235.5,-25.5 235.5,-6.5 122.5,-6.5"/>
<text text-anchor="middle" x="179" y="-13.5" font-family="Helvetica,sans-Serif" font-size="10.00">be/src/common/init.cc</text>
</a>
</g>
</g>
<!-- Node1&#45;&gt;Node3 -->
<g id="edge2" class="edge"><title>Node1&#45;&gt;Node3</title>
<path fill="none" stroke="midnightblue" d="M1072.08,-83.0502C927.57,-82.3992 552.988,-76.19 244,-32 233.223,-30.4588 221.597,-28.027 211.198,-25.5664"/>
<polygon fill="midnightblue" stroke="midnightblue" points="1072.07,-86.5501 1082.08,-83.0879 1072.1,-79.5501 1072.07,-86.5501"/>
</g>
<!-- Node4 -->
<g id="node4" class="node"><title>Node4</title>
<g id="a_node4"><a xlink:href="hdfs-avro-table-writer_8cc.html" target="_top" xlink:title="be/src/exec/hdfs&#45;avro\l&#45;table&#45;writer.cc">
<polygon fill="white" stroke="black" points="253.5,-1 253.5,-31 364.5,-31 364.5,-1 253.5,-1"/>
<text text-anchor="start" x="261.5" y="-19" font-family="Helvetica,sans-Serif" font-size="10.00">be/src/exec/hdfs&#45;avro</text>
<text text-anchor="middle" x="309" y="-8" font-family="Helvetica,sans-Serif" font-size="10.00">&#45;table&#45;writer.cc</text>
</a>
</g>
</g>
<!-- Node1&#45;&gt;Node4 -->
<g id="edge3" class="edge"><title>Node1&#45;&gt;Node4</title>
<path fill="none" stroke="midnightblue" d="M1072.35,-82.2825C943.09,-80.0195 631.172,-70.6525 373,-32 370.291,-31.5945 367.528,-31.1331 364.744,-30.63"/>
<polygon fill="midnightblue" stroke="midnightblue" points="1072.39,-85.7835 1082.45,-82.4511 1072.51,-78.7845 1072.39,-85.7835"/>
</g>
<!-- Node5 -->
<g id="node5" class="node"><title>Node5</title>
<g id="a_node5"><a xlink:href="hdfs-lzo-text-scanner_8cc.html" target="_top" xlink:title="be/src/exec/hdfs&#45;lzo\l&#45;text&#45;scanner.cc">
<polygon fill="white" stroke="black" points="382.5,-1 382.5,-31 487.5,-31 487.5,-1 382.5,-1"/>
<text text-anchor="start" x="390.5" y="-19" font-family="Helvetica,sans-Serif" font-size="10.00">be/src/exec/hdfs&#45;lzo</text>
<text text-anchor="middle" x="435" y="-8" font-family="Helvetica,sans-Serif" font-size="10.00">&#45;text&#45;scanner.cc</text>
</a>
</g>
</g>
<!-- Node1&#45;&gt;Node5 -->
<g id="edge4" class="edge"><title>Node1&#45;&gt;Node5</title>
<path fill="none" stroke="midnightblue" d="M1072.04,-81.3864C958.187,-77.6507 705.75,-65.9581 496,-32 493.309,-31.5643 490.561,-31.0706 487.794,-30.5344"/>
<polygon fill="midnightblue" stroke="midnightblue" points="1072.19,-84.8928 1082.3,-81.7135 1072.41,-77.8963 1072.19,-84.8928"/>
</g>
<!-- Node6 -->
<g id="node6" class="node"><title>Node6</title>
<g id="a_node6"><a xlink:href="hdfs-scan-node_8cc.html" target="_top" xlink:title="be/src/exec/hdfs&#45;scan\l&#45;node.cc">
<polygon fill="white" stroke="black" points="505.5,-1 505.5,-31 618.5,-31 618.5,-1 505.5,-1"/>
<text text-anchor="start" x="513.5" y="-19" font-family="Helvetica,sans-Serif" font-size="10.00">be/src/exec/hdfs&#45;scan</text>
<text text-anchor="middle" x="562" y="-8" font-family="Helvetica,sans-Serif" font-size="10.00">&#45;node.cc</text>
</a>
</g>
</g>
<!-- Node1&#45;&gt;Node6 -->
<g id="edge5" class="edge"><title>Node1&#45;&gt;Node6</title>
<path fill="none" stroke="midnightblue" d="M1072.17,-79.2796C976.983,-72.9134 787.215,-58.031 628,-32 624.985,-31.507 621.901,-30.9595 618.795,-30.3735"/>
<polygon fill="midnightblue" stroke="midnightblue" points="1071.99,-82.7749 1082.2,-79.9417 1072.45,-75.7901 1071.99,-82.7749"/>
</g>
<!-- Node7 -->
<g id="node7" class="node"><title>Node7</title>
<g id="a_node7"><a xlink:href="hdfs-scanner_8cc.html" target="_top" xlink:title="be/src/exec/hdfs&#45;scanner.cc">
<polygon fill="white" stroke="black" points="637,-6.5 637,-25.5 777,-25.5 777,-6.5 637,-6.5"/>
<text text-anchor="middle" x="707" y="-13.5" font-family="Helvetica,sans-Serif" font-size="10.00">be/src/exec/hdfs&#45;scanner.cc</text>
</a>
</g>
</g>
<!-- Node1&#45;&gt;Node7 -->
<g id="edge6" class="edge"><title>Node1&#45;&gt;Node7</title>
<path fill="none" stroke="midnightblue" d="M1072.02,-74.8217C1002.63,-65.3328 885.948,-48.8262 786,-32 774.298,-30.0301 761.658,-27.7146 749.992,-25.5003"/>
<polygon fill="midnightblue" stroke="midnightblue" points="1071.94,-78.3436 1082.33,-76.2267 1072.89,-71.4078 1071.94,-78.3436"/>
</g>
<!-- Node8 -->
<g id="node8" class="node"><title>Node8</title>
<g id="a_node8"><a xlink:href="hdfs-sequence-table-writer_8cc.html" target="_top" xlink:title="be/src/exec/hdfs&#45;sequence\l&#45;table&#45;writer.cc">
<polygon fill="white" stroke="black" points="795,-1 795,-31 929,-31 929,-1 795,-1"/>
<text text-anchor="start" x="803" y="-19" font-family="Helvetica,sans-Serif" font-size="10.00">be/src/exec/hdfs&#45;sequence</text>
<text text-anchor="middle" x="862" y="-8" font-family="Helvetica,sans-Serif" font-size="10.00">&#45;table&#45;writer.cc</text>
</a>
</g>
</g>
<!-- Node1&#45;&gt;Node8 -->
<g id="edge7" class="edge"><title>Node1&#45;&gt;Node8</title>
<path fill="none" stroke="midnightblue" d="M1072.59,-68.2886C1027.02,-57.1897 964.885,-42.0568 919.928,-31.1079"/>
<polygon fill="midnightblue" stroke="midnightblue" points="1071.8,-71.6976 1082.34,-70.6633 1073.46,-64.8964 1071.8,-71.6976"/>
</g>
<!-- Node9 -->
<g id="node9" class="node"><title>Node9</title>
<g id="a_node9"><a xlink:href="hdfs-table-sink_8cc.html" target="_top" xlink:title="be/src/exec/hdfs&#45;table\l&#45;sink.cc">
<polygon fill="white" stroke="black" points="947.5,-1 947.5,-31 1060.5,-31 1060.5,-1 947.5,-1"/>
<text text-anchor="start" x="955.5" y="-19" font-family="Helvetica,sans-Serif" font-size="10.00">be/src/exec/hdfs&#45;table</text>
<text text-anchor="middle" x="1004" y="-8" font-family="Helvetica,sans-Serif" font-size="10.00">&#45;sink.cc</text>
</a>
</g>
</g>
<!-- Node1&#45;&gt;Node9 -->
<g id="edge8" class="edge"><title>Node1&#45;&gt;Node9</title>
<path fill="none" stroke="midnightblue" d="M1096.25,-64.1968C1075.69,-53.6802 1050.49,-40.7868 1031.63,-31.1352"/>
<polygon fill="midnightblue" stroke="midnightblue" points="1094.83,-67.4024 1105.33,-68.8413 1098.02,-61.1707 1094.83,-67.4024"/>
</g>
<!-- Node10 -->
<g id="node10" class="node"><title>Node10</title>
<g id="a_node10"><a xlink:href="hdfs-text-table-writer_8cc.html" target="_top" xlink:title="be/src/exec/hdfs&#45;text\l&#45;table&#45;writer.cc">
<polygon fill="white" stroke="black" points="1078.5,-1 1078.5,-31 1187.5,-31 1187.5,-1 1078.5,-1"/>
<text text-anchor="start" x="1086.5" y="-19" font-family="Helvetica,sans-Serif" font-size="10.00">be/src/exec/hdfs&#45;text</text>
<text text-anchor="middle" x="1133" y="-8" font-family="Helvetica,sans-Serif" font-size="10.00">&#45;table&#45;writer.cc</text>
</a>
</g>
</g>
<!-- Node1&#45;&gt;Node10 -->
<g id="edge9" class="edge"><title>Node1&#45;&gt;Node10</title>
<path fill="none" stroke="midnightblue" d="M1133,-58.5322C1133,-49.3606 1133,-39.2449 1133,-31.2931"/>
<polygon fill="midnightblue" stroke="midnightblue" points="1129.5,-58.6789 1133,-68.679 1136.5,-58.679 1129.5,-58.6789"/>
</g>
<!-- Node11 -->
<g id="node11" class="node"><title>Node11</title>
<g id="a_node11"><a xlink:href="scalar-fn-call_8cc.html" target="_top" xlink:title="be/src/exprs/scalar\l&#45;fn&#45;call.cc">
<polygon fill="white" stroke="black" points="1206,-1 1206,-31 1306,-31 1306,-1 1206,-1"/>
<text text-anchor="start" x="1214" y="-19" font-family="Helvetica,sans-Serif" font-size="10.00">be/src/exprs/scalar</text>
<text text-anchor="middle" x="1256" y="-8" font-family="Helvetica,sans-Serif" font-size="10.00">&#45;fn&#45;call.cc</text>
</a>
</g>
</g>
<!-- Node1&#45;&gt;Node11 -->
<g id="edge10" class="edge"><title>Node1&#45;&gt;Node11</title>
<path fill="none" stroke="midnightblue" d="M1168.31,-64.0545C1187.86,-53.5641 1211.75,-40.7434 1229.66,-31.1352"/>
<polygon fill="midnightblue" stroke="midnightblue" points="1166.54,-61.029 1159.39,-68.8413 1169.85,-67.1972 1166.54,-61.029"/>
</g>
<!-- Node12 -->
<g id="node12" class="node"><title>Node12</title>
<g id="a_node12"><a xlink:href="coordinator_8cc.html" target="_top" xlink:title="be/src/runtime/coordinator.cc">
<polygon fill="white" stroke="black" points="1324.5,-6.5 1324.5,-25.5 1467.5,-25.5 1467.5,-6.5 1324.5,-6.5"/>
<text text-anchor="middle" x="1396" y="-13.5" font-family="Helvetica,sans-Serif" font-size="10.00">be/src/runtime/coordinator.cc</text>
</a>
</g>
</g>
<!-- Node1&#45;&gt;Node12 -->
<g id="edge11" class="edge"><title>Node1&#45;&gt;Node12</title>
<path fill="none" stroke="midnightblue" d="M1193.52,-67.8127C1245.7,-54.7177 1319.18,-36.2791 1361.77,-25.5903"/>
<polygon fill="midnightblue" stroke="midnightblue" points="1192.56,-64.4457 1183.71,-70.2745 1194.26,-71.2352 1192.56,-64.4457"/>
</g>
<!-- Node13 -->
<g id="node13" class="node"><title>Node13</title>
<g id="a_node13"><a xlink:href="exec-env_8cc.html" target="_top" xlink:title="be/src/runtime/exec\l&#45;env.cc">
<polygon fill="white" stroke="black" points="1485.5,-1 1485.5,-31 1588.5,-31 1588.5,-1 1485.5,-1"/>
<text text-anchor="start" x="1493.5" y="-19" font-family="Helvetica,sans-Serif" font-size="10.00">be/src/runtime/exec</text>
<text text-anchor="middle" x="1537" y="-8" font-family="Helvetica,sans-Serif" font-size="10.00">&#45;env.cc</text>
</a>
</g>
</g>
<!-- Node1&#45;&gt;Node13 -->
<g id="edge12" class="edge"><title>Node1&#45;&gt;Node13</title>
<path fill="none" stroke="midnightblue" d="M1193.74,-75.7128C1262.53,-67.0569 1377.82,-51.3273 1476,-32 1479.1,-31.3892 1482.29,-30.7242 1485.49,-30.0253"/>
<polygon fill="midnightblue" stroke="midnightblue" points="1193.02,-72.2765 1183.53,-76.9895 1193.88,-79.2225 1193.02,-72.2765"/>
</g>
<!-- Node14 -->
<g id="node14" class="node"><title>Node14</title>
<g id="a_node14"><a xlink:href="hdfs-fs-cache-test_8cc.html" target="_top" xlink:title="be/src/runtime/hdfs\l&#45;fs&#45;cache&#45;test.cc">
<polygon fill="white" stroke="black" points="1606.5,-1 1606.5,-31 1707.5,-31 1707.5,-1 1606.5,-1"/>
<text text-anchor="start" x="1614.5" y="-19" font-family="Helvetica,sans-Serif" font-size="10.00">be/src/runtime/hdfs</text>
<text text-anchor="middle" x="1657" y="-8" font-family="Helvetica,sans-Serif" font-size="10.00">&#45;fs&#45;cache&#45;test.cc</text>
</a>
</g>
</g>
<!-- Node1&#45;&gt;Node14 -->
<g id="edge13" class="edge"><title>Node1&#45;&gt;Node14</title>
<path fill="none" stroke="midnightblue" d="M1193.98,-78.9446C1283.04,-72.4239 1453.7,-57.6657 1597,-32 1600.07,-31.451 1603.21,-30.834 1606.37,-30.1712"/>
<polygon fill="midnightblue" stroke="midnightblue" points="1193.51,-75.4691 1183.79,-79.6806 1194.01,-82.451 1193.51,-75.4691"/>
</g>
<!-- Node15 -->
<g id="node15" class="node"><title>Node15</title>
<g id="a_node15"><a xlink:href="hdfs-fs-cache_8cc.html" target="_top" xlink:title="be/src/runtime/hdfs\l&#45;fs&#45;cache.cc">
<polygon fill="white" stroke="black" points="1725.5,-1 1725.5,-31 1826.5,-31 1826.5,-1 1725.5,-1"/>
<text text-anchor="start" x="1733.5" y="-19" font-family="Helvetica,sans-Serif" font-size="10.00">be/src/runtime/hdfs</text>
<text text-anchor="middle" x="1776" y="-8" font-family="Helvetica,sans-Serif" font-size="10.00">&#45;fs&#45;cache.cc</text>
</a>
</g>
</g>
<!-- Node1&#45;&gt;Node15 -->
<g id="edge14" class="edge"><title>Node1&#45;&gt;Node15</title>
<path fill="none" stroke="midnightblue" d="M1193.87,-80.836C1300.37,-76.3479 1527.14,-63.6642 1716,-32 1719.07,-31.4851 1722.22,-30.8944 1725.38,-30.2516"/>
<polygon fill="midnightblue" stroke="midnightblue" points="1193.49,-77.3488 1183.64,-81.2575 1193.77,-84.3429 1193.49,-77.3488"/>
</g>
<!-- Node16 -->
<g id="node16" class="node"><title>Node16</title>
<g id="a_node16"><a xlink:href="lib-cache_8cc.html" target="_top" xlink:title="be/src/runtime/lib\l&#45;cache.cc">
<polygon fill="white" stroke="black" points="1845,-1 1845,-31 1937,-31 1937,-1 1845,-1"/>
<text text-anchor="start" x="1853" y="-19" font-family="Helvetica,sans-Serif" font-size="10.00">be/src/runtime/lib</text>
<text text-anchor="middle" x="1891" y="-8" font-family="Helvetica,sans-Serif" font-size="10.00">&#45;cache.cc</text>
</a>
</g>
</g>
<!-- Node1&#45;&gt;Node16 -->
<g id="edge15" class="edge"><title>Node1&#45;&gt;Node16</title>
<path fill="none" stroke="midnightblue" d="M1193.89,-82.4389C1316.23,-80.4639 1600.25,-71.5999 1835,-32 1838.18,-31.4643 1841.43,-30.8281 1844.7,-30.1249"/>
<polygon fill="midnightblue" stroke="midnightblue" points="1193.56,-78.9435 1183.61,-82.5946 1193.66,-85.9427 1193.56,-78.9435"/>
</g>
<!-- Node17 -->
<g id="node17" class="node"><title>Node17</title>
<g id="a_node17"><a xlink:href="fe-support_8cc.html" target="_top" xlink:title="be/src/service/fe&#45;support.cc">
<polygon fill="white" stroke="black" points="1955,-6.5 1955,-25.5 2093,-25.5 2093,-6.5 1955,-6.5"/>
<text text-anchor="middle" x="2024" y="-13.5" font-family="Helvetica,sans-Serif" font-size="10.00">be/src/service/fe&#45;support.cc</text>
</a>
</g>
</g>
<!-- Node1&#45;&gt;Node17 -->
<g id="edge16" class="edge"><title>Node1&#45;&gt;Node17</title>
<path fill="none" stroke="midnightblue" d="M1193.81,-81.8289C1329.37,-78.6407 1666.38,-67.5104 1946,-32 1958.72,-30.3843 1972.5,-27.963 1984.88,-25.5345"/>
<polygon fill="midnightblue" stroke="midnightblue" points="1193.55,-78.3339 1183.64,-82.0622 1193.71,-85.332 1193.55,-78.3339"/>
</g>
<!-- Node18 -->
<g id="node18" class="node"><title>Node18</title>
<g id="a_node18"><a xlink:href="impala-beeswax-server_8cc.html" target="_top" xlink:title="be/src/service/impala\l&#45;beeswax&#45;server.cc">
<polygon fill="white" stroke="black" points="2111,-1 2111,-31 2221,-31 2221,-1 2111,-1"/>
<text text-anchor="start" x="2119" y="-19" font-family="Helvetica,sans-Serif" font-size="10.00">be/src/service/impala</text>
<text text-anchor="middle" x="2166" y="-8" font-family="Helvetica,sans-Serif" font-size="10.00">&#45;beeswax&#45;server.cc</text>
</a>
</g>
</g>
<!-- Node1&#45;&gt;Node18 -->
<g id="edge17" class="edge"><title>Node1&#45;&gt;Node18</title>
<path fill="none" stroke="midnightblue" d="M1193.9,-83.5347C1347.22,-84.072 1761.26,-80.5051 2102,-32 2104.94,-31.5818 2107.94,-31.0939 2110.96,-30.5546"/>
<polygon fill="midnightblue" stroke="midnightblue" points="1193.76,-80.0342 1183.74,-83.4916 1193.73,-87.0341 1193.76,-80.0342"/>
</g>
</g>
</svg>
