<?xml version="1.0" encoding="UTF-8" standalone="no"?>
<!DOCTYPE svg PUBLIC "-//W3C//DTD SVG 1.1//EN"
 "http://www.w3.org/Graphics/SVG/1.1/DTD/svg11.dtd">
<!-- Generated by graphviz version 2.36.0 (20140111.2315)
 -->
<!-- Title: be/src/exec/hdfs&#45;table&#45;writer.h Pages: 1 -->
<!--zoomable 176 -->
<svg id="main" version="1.1" xmlns="http://www.w3.org/2000/svg" xmlns:xlink="http://www.w3.org/1999/xlink" xml:space="preserve" onload="init(evt)">
<style type="text/css"><![CDATA[
.edge:hover path { stroke: red; }
.edge:hover polygon { stroke: red; fill: red; }
]]></style>
<script type="text/javascript"><![CDATA[
var edges = document.getElementsByTagName('g');
if (edges && edges.length) {
  for (var i=0;i<edges.length;i++) {
    if (edges[i].id.substr(0,4)=='edge') {
      edges[i].setAttribute('class','edge');
    }
  }
}
]]></script>
        <defs>
                <circle id="rim" cx="0" cy="0" r="7"/>
                <circle id="rim2" cx="0" cy="0" r="3.5"/>
                <g id="zoomPlus">
                        <use xlink:href="#rim" fill="#404040">
                                <set attributeName="fill" to="#808080" begin="zoomplus.mouseover" end="zoomplus.mouseout"/>
                        </use>
                        <path d="M-4,0h8M0,-4v8" fill="none" stroke="white" stroke-width="1.5" pointer-events="none"/>
                </g>
                <g id="zoomMin">
                        <use xlink:href="#rim" fill="#404040">
                                <set attributeName="fill" to="#808080" begin="zoomminus.mouseover" end="zoomminus.mouseout"/>
                        </use>
                        <path d="M-4,0h8" fill="none" stroke="white" stroke-width="1.5" pointer-events="none"/>
                </g>
                <g id="dirArrow">
                        <path fill="none" stroke="white" stroke-width="1.5" d="M0,-3.0v7 M-2.5,-0.5L0,-3.0L2.5,-0.5"/>
                </g>
               <g id="resetDef">
                       <use xlink:href="#rim2" fill="#404040">
                               <set attributeName="fill" to="#808080" begin="reset.mouseover" end="reset.mouseout"/>
                       </use>
               </g>
        </defs>

<script type="text/javascript">
var viewWidth = 737;
var viewHeight = 176;
var sectionId = 'dynsection-1';
</script>
<script xlink:href="svgpan.js"/>
<svg id="graph" class="graph">
<g id="viewport">
<title>be/src/exec/hdfs&#45;table&#45;writer.h</title>
<polygon fill="white" stroke="none" points="-4,4 -4,-172 733,-172 733,4 -4,4"/>
<!-- Node1 -->
<g id="node1" class="node"><title>Node1</title>
<polygon fill="#bfbfbf" stroke="black" points="347.5,-137 347.5,-167 460.5,-167 460.5,-137 347.5,-137"/>
<text text-anchor="start" x="355.5" y="-155" font-family="Helvetica,sans-Serif" font-size="10.00">be/src/exec/hdfs&#45;table</text>
<text text-anchor="middle" x="404" y="-144" font-family="Helvetica,sans-Serif" font-size="10.00">&#45;writer.h</text>
</g>
<!-- Node2 -->
<g id="node2" class="node"><title>Node2</title>
<g id="a_node2"><a xlink:href="hdfs-avro-table-writer_8h.html" target="_top" xlink:title="be/src/exec/hdfs&#45;avro\l&#45;table&#45;writer.h">
<polygon fill="white" stroke="black" points="64.5,-69 64.5,-99 175.5,-99 175.5,-69 64.5,-69"/>
<text text-anchor="start" x="72.5" y="-87" font-family="Helvetica,sans-Serif" font-size="10.00">be/src/exec/hdfs&#45;avro</text>
<text text-anchor="middle" x="120" y="-76" font-family="Helvetica,sans-Serif" font-size="10.00">&#45;table&#45;writer.h</text>
</a>
</g>
</g>
<!-- Node1&#45;&gt;Node2 -->
<g id="edge1" class="edge"><title>Node1&#45;&gt;Node2</title>
<path fill="none" stroke="midnightblue" d="M337.548,-135.639C293.896,-125.538 235.542,-112.014 184,-100 181.221,-99.3523 178.375,-98.6881 175.501,-98.0167"/>
<polygon fill="midnightblue" stroke="midnightblue" points="336.94,-139.091 347.471,-137.935 338.518,-132.271 336.94,-139.091"/>
</g>
<!-- Node5 -->
<g id="node5" class="node"><title>Node5</title>
<g id="a_node5"><a xlink:href="hdfs-parquet-table-writer_8h.html" target="_top" xlink:title="be/src/exec/hdfs&#45;parquet\l&#45;table&#45;writer.h">
<polygon fill="white" stroke="black" points="193.5,-69 193.5,-99 318.5,-99 318.5,-69 193.5,-69"/>
<text text-anchor="start" x="201.5" y="-87" font-family="Helvetica,sans-Serif" font-size="10.00">be/src/exec/hdfs&#45;parquet</text>
<text text-anchor="middle" x="256" y="-76" font-family="Helvetica,sans-Serif" font-size="10.00">&#45;table&#45;writer.h</text>
</a>
</g>
</g>
<!-- Node1&#45;&gt;Node5 -->
<g id="edge4" class="edge"><title>Node1&#45;&gt;Node5</title>
<path fill="none" stroke="midnightblue" d="M363.072,-132.749C339.178,-122.093 309.492,-108.855 287.443,-99.0218"/>
<polygon fill="midnightblue" stroke="midnightblue" points="361.692,-135.965 372.25,-136.841 364.543,-129.572 361.692,-135.965"/>
</g>
<!-- Node7 -->
<g id="node7" class="node"><title>Node7</title>
<g id="a_node7"><a xlink:href="hdfs-sequence-table-writer_8h.html" target="_top" xlink:title="be/src/exec/hdfs&#45;sequence\l&#45;table&#45;writer.h">
<polygon fill="white" stroke="black" points="337,-69 337,-99 471,-99 471,-69 337,-69"/>
<text text-anchor="start" x="345" y="-87" font-family="Helvetica,sans-Serif" font-size="10.00">be/src/exec/hdfs&#45;sequence</text>
<text text-anchor="middle" x="404" y="-76" font-family="Helvetica,sans-Serif" font-size="10.00">&#45;table&#45;writer.h</text>
</a>
</g>
</g>
<!-- Node1&#45;&gt;Node7 -->
<g id="edge7" class="edge"><title>Node1&#45;&gt;Node7</title>
<path fill="none" stroke="midnightblue" d="M404,-126.532C404,-117.361 404,-107.245 404,-99.2931"/>
<polygon fill="midnightblue" stroke="midnightblue" points="400.5,-126.679 404,-136.679 407.5,-126.679 400.5,-126.679"/>
</g>
<!-- Node9 -->
<g id="node9" class="node"><title>Node9</title>
<g id="a_node9"><a xlink:href="hdfs-table-writer_8cc.html" target="_top" xlink:title="be/src/exec/hdfs&#45;table\l&#45;writer.cc">
<polygon fill="white" stroke="black" points="616.5,-69 616.5,-99 729.5,-99 729.5,-69 616.5,-69"/>
<text text-anchor="start" x="624.5" y="-87" font-family="Helvetica,sans-Serif" font-size="10.00">be/src/exec/hdfs&#45;table</text>
<text text-anchor="middle" x="673" y="-76" font-family="Helvetica,sans-Serif" font-size="10.00">&#45;writer.cc</text>
</a>
</g>
</g>
<!-- Node1&#45;&gt;Node9 -->
<g id="edge10" class="edge"><title>Node1&#45;&gt;Node9</title>
<path fill="none" stroke="midnightblue" d="M470.635,-134.651C515.423,-123.662 573.816,-109.335 616.358,-98.8972"/>
<polygon fill="midnightblue" stroke="midnightblue" points="469.597,-131.302 460.719,-137.084 471.265,-138.1 469.597,-131.302"/>
</g>
<!-- Node10 -->
<g id="node10" class="node"><title>Node10</title>
<g id="a_node10"><a xlink:href="hdfs-text-table-writer_8h.html" target="_top" xlink:title="be/src/exec/hdfs&#45;text\l&#45;table&#45;writer.h">
<polygon fill="white" stroke="black" points="489.5,-69 489.5,-99 598.5,-99 598.5,-69 489.5,-69"/>
<text text-anchor="start" x="497.5" y="-87" font-family="Helvetica,sans-Serif" font-size="10.00">be/src/exec/hdfs&#45;text</text>
<text text-anchor="middle" x="544" y="-76" font-family="Helvetica,sans-Serif" font-size="10.00">&#45;table&#45;writer.h</text>
</a>
</g>
</g>
<!-- Node1&#45;&gt;Node10 -->
<g id="edge11" class="edge"><title>Node1&#45;&gt;Node10</title>
<path fill="none" stroke="midnightblue" d="M443.284,-132.48C465.7,-121.913 493.359,-108.874 514.016,-99.1352"/>
<polygon fill="midnightblue" stroke="midnightblue" points="441.586,-129.411 434.034,-136.841 444.571,-135.743 441.586,-129.411"/>
</g>
<!-- Node3 -->
<g id="node3" class="node"><title>Node3</title>
<g id="a_node3"><a xlink:href="hdfs-avro-table-writer_8cc.html" target="_top" xlink:title="be/src/exec/hdfs&#45;avro\l&#45;table&#45;writer.cc">
<polygon fill="white" stroke="black" points="-0.5,-1 -0.5,-31 110.5,-31 110.5,-1 -0.5,-1"/>
<text text-anchor="start" x="7.5" y="-19" font-family="Helvetica,sans-Serif" font-size="10.00">be/src/exec/hdfs&#45;avro</text>
<text text-anchor="middle" x="55" y="-8" font-family="Helvetica,sans-Serif" font-size="10.00">&#45;table&#45;writer.cc</text>
</a>
</g>
</g>
<!-- Node2&#45;&gt;Node3 -->
<g id="edge2" class="edge"><title>Node2&#45;&gt;Node3</title>
<path fill="none" stroke="midnightblue" d="M98.8115,-61.4855C89.0612,-51.5852 77.759,-40.1092 69.0765,-31.2931"/>
<polygon fill="midnightblue" stroke="midnightblue" points="96.3853,-64.01 105.896,-68.679 101.373,-59.0982 96.3853,-64.01"/>
</g>
<!-- Node4 -->
<g id="node4" class="node"><title>Node4</title>
<g id="a_node4"><a xlink:href="hdfs-table-sink_8cc.html" target="_top" xlink:title="be/src/exec/hdfs&#45;table\l&#45;sink.cc">
<polygon fill="white" stroke="black" points="271.5,-1 271.5,-31 384.5,-31 384.5,-1 271.5,-1"/>
<text text-anchor="start" x="279.5" y="-19" font-family="Helvetica,sans-Serif" font-size="10.00">be/src/exec/hdfs&#45;table</text>
<text text-anchor="middle" x="328" y="-8" font-family="Helvetica,sans-Serif" font-size="10.00">&#45;sink.cc</text>
</a>
</g>
</g>
<!-- Node2&#45;&gt;Node4 -->
<g id="edge3" class="edge"><title>Node2&#45;&gt;Node4</title>
<path fill="none" stroke="midnightblue" d="M174.166,-65.8127C208.249,-54.9979 251.684,-41.2157 283.702,-31.0561"/>
<polygon fill="midnightblue" stroke="midnightblue" points="172.839,-62.5617 164.366,-68.9223 174.956,-69.2338 172.839,-62.5617"/>
</g>
<!-- Node5&#45;&gt;Node4 -->
<g id="edge6" class="edge"><title>Node5&#45;&gt;Node4</title>
<path fill="none" stroke="midnightblue" d="M279.153,-61.7762C290.025,-51.8105 302.696,-40.1956 312.408,-31.2931"/>
<polygon fill="midnightblue" stroke="midnightblue" points="276.629,-59.3417 271.623,-68.679 281.36,-64.5018 276.629,-59.3417"/>
</g>
<!-- Node6 -->
<g id="node6" class="node"><title>Node6</title>
<g id="a_node6"><a xlink:href="hdfs-parquet-table-writer_8cc.html" target="_top" xlink:title="be/src/exec/hdfs&#45;parquet\l&#45;table&#45;writer.cc">
<polygon fill="white" stroke="black" points="128.5,-1 128.5,-31 253.5,-31 253.5,-1 128.5,-1"/>
<text text-anchor="start" x="136.5" y="-19" font-family="Helvetica,sans-Serif" font-size="10.00">be/src/exec/hdfs&#45;parquet</text>
<text text-anchor="middle" x="191" y="-8" font-family="Helvetica,sans-Serif" font-size="10.00">&#45;table&#45;writer.cc</text>
</a>
</g>
</g>
<!-- Node5&#45;&gt;Node6 -->
<g id="edge5" class="edge"><title>Node5&#45;&gt;Node6</title>
<path fill="none" stroke="midnightblue" d="M234.811,-61.4855C225.061,-51.5852 213.759,-40.1092 205.077,-31.2931"/>
<polygon fill="midnightblue" stroke="midnightblue" points="232.385,-64.01 241.896,-68.679 237.373,-59.0982 232.385,-64.01"/>
</g>
<!-- Node7&#45;&gt;Node4 -->
<g id="edge9" class="edge"><title>Node7&#45;&gt;Node4</title>
<path fill="none" stroke="midnightblue" d="M379.839,-62.0184C368.205,-51.9145 354.565,-40.0696 344.198,-31.0663"/>
<polygon fill="midnightblue" stroke="midnightblue" points="377.664,-64.7647 387.509,-68.679 382.254,-59.4795 377.664,-64.7647"/>
</g>
<!-- Node8 -->
<g id="node8" class="node"><title>Node8</title>
<g id="a_node8"><a xlink:href="hdfs-sequence-table-writer_8cc.html" target="_top" xlink:title="be/src/exec/hdfs&#45;sequence\l&#45;table&#45;writer.cc">
<polygon fill="white" stroke="black" points="403,-1 403,-31 537,-31 537,-1 403,-1"/>
<text text-anchor="start" x="411" y="-19" font-family="Helvetica,sans-Serif" font-size="10.00">be/src/exec/hdfs&#45;sequence</text>
<text text-anchor="middle" x="470" y="-8" font-family="Helvetica,sans-Serif" font-size="10.00">&#45;table&#45;writer.cc</text>
</a>
</g>
</g>
<!-- Node7&#45;&gt;Node8 -->
<g id="edge8" class="edge"><title>Node7&#45;&gt;Node8</title>
<path fill="none" stroke="midnightblue" d="M425.515,-61.4855C435.415,-51.5852 446.891,-40.1092 455.707,-31.2931"/>
<polygon fill="midnightblue" stroke="midnightblue" points="422.917,-59.133 418.321,-68.679 427.867,-64.0828 422.917,-59.133"/>
</g>
<!-- Node10&#45;&gt;Node4 -->
<g id="edge12" class="edge"><title>Node10&#45;&gt;Node4</title>
<path fill="none" stroke="midnightblue" d="M488.206,-65.9518C452.744,-55.1162 407.394,-41.2594 374.002,-31.0561"/>
<polygon fill="midnightblue" stroke="midnightblue" points="487.341,-69.3473 497.928,-68.9223 489.387,-62.6528 487.341,-69.3473"/>
</g>
<!-- Node11 -->
<g id="node11" class="node"><title>Node11</title>
<g id="a_node11"><a xlink:href="hdfs-text-table-writer_8cc.html" target="_top" xlink:title="be/src/exec/hdfs&#45;text\l&#45;table&#45;writer.cc">
<polygon fill="white" stroke="black" points="555.5,-1 555.5,-31 664.5,-31 664.5,-1 555.5,-1"/>
<text text-anchor="start" x="563.5" y="-19" font-family="Helvetica,sans-Serif" font-size="10.00">be/src/exec/hdfs&#45;text</text>
<text text-anchor="middle" x="610" y="-8" font-family="Helvetica,sans-Serif" font-size="10.00">&#45;table&#45;writer.cc</text>
</a>
</g>
</g>
<!-- Node10&#45;&gt;Node11 -->
<g id="edge13" class="edge"><title>Node10&#45;&gt;Node11</title>
<path fill="none" stroke="midnightblue" d="M565.515,-61.4855C575.415,-51.5852 586.891,-40.1092 595.707,-31.2931"/>
<polygon fill="midnightblue" stroke="midnightblue" points="562.917,-59.133 558.321,-68.679 567.867,-64.0828 562.917,-59.133"/>
</g>
</g>
</svg>
        <g id="navigator" transform="translate(0 0)" fill="#404254">
                <rect fill="#f2f5e9" fill-opacity="0.5" stroke="#606060" stroke-width=".5" x="0" y="0" width="60" height="60"/>
                <use id="zoomplus" xlink:href="#zoomPlus" x="17" y="9" onmousedown="handleZoom(evt,'in')"/>
                <use id="zoomminus" xlink:href="#zoomMin" x="42" y="9" onmousedown="handleZoom(evt,'out')"/>
                <use id="reset" xlink:href="#resetDef" x="30" y="36" onmousedown="handleReset()"/>
                <g id="arrowUp" xlink:href="#dirArrow" transform="translate(30 24)" onmousedown="handlePan(0,-1)">
                  <use xlink:href="#rim" fill="#404040">
                        <set attributeName="fill" to="#808080" begin="arrowUp.mouseover" end="arrowUp.mouseout"/>
                  </use>
                  <path fill="none" stroke="white" stroke-width="1.5" d="M0,-3.0v7 M-2.5,-0.5L0,-3.0L2.5,-0.5"/>
                </g>
                <g id="arrowRight" xlink:href="#dirArrow" transform="rotate(90) translate(36 -43)" onmousedown="handlePan(1,0)">
                  <use xlink:href="#rim" fill="#404040">
                        <set attributeName="fill" to="#808080" begin="arrowRight.mouseover" end="arrowRight.mouseout"/>
                  </use>
                  <path fill="none" stroke="white" stroke-width="1.5" d="M0,-3.0v7 M-2.5,-0.5L0,-3.0L2.5,-0.5"/>
                </g>
                <g id="arrowDown" xlink:href="#dirArrow" transform="rotate(180) translate(-30 -48)" onmousedown="handlePan(0,1)">
                  <use xlink:href="#rim" fill="#404040">
                        <set attributeName="fill" to="#808080" begin="arrowDown.mouseover" end="arrowDown.mouseout"/>
                  </use>
                  <path fill="none" stroke="white" stroke-width="1.5" d="M0,-3.0v7 M-2.5,-0.5L0,-3.0L2.5,-0.5"/>
                </g>
                <g id="arrowLeft" xlink:href="#dirArrow" transform="rotate(270) translate(-36 17)" onmousedown="handlePan(-1,0)">
                  <use xlink:href="#rim" fill="#404040">
                        <set attributeName="fill" to="#808080" begin="arrowLeft.mouseover" end="arrowLeft.mouseout"/>
                  </use>
                  <path fill="none" stroke="white" stroke-width="1.5" d="M0,-3.0v7 M-2.5,-0.5L0,-3.0L2.5,-0.5"/>
                </g>
        </g>
        <svg viewBox="0 0 15 15" width="100%" height="30px" preserveAspectRatio="xMaxYMin meet">
         <g id="arrow_out" transform="scale(0.3 0.3)">
          <a xlink:href="hdfs-table-writer_8h__dep__incl_org.svg" target="_base">
           <rect id="button" ry="5" rx="5" y="6" x="6" height="38" width="38"
                fill="#f2f5e9" fill-opacity="0.5" stroke="#606060" stroke-width="1.0"/>
           <path id="arrow"
             d="M 11.500037,31.436501 C 11.940474,20.09759 22.043105,11.32322 32.158766,21.979434 L 37.068811,17.246167 C 37.068811,17.246167 37.088388,32 37.088388,32 L 22.160133,31.978069 C 22.160133,31.978069 26.997745,27.140456 26.997745,27.140456 C 18.528582,18.264221 13.291696,25.230495 11.500037,31.436501 z"
             style="fill:#404040;"/>
          </a>
         </g>
        </svg>
</svg>
