<?xml version="1.0" encoding="UTF-8" standalone="no"?>
<!DOCTYPE svg PUBLIC "-//W3C//DTD SVG 1.1//EN"
 "http://www.w3.org/Graphics/SVG/1.1/DTD/svg11.dtd">
<!-- Generated by graphviz version 2.36.0 (20140111.2315)
 -->
<!-- Title: be/src/exprs/hive&#45;udf&#45;call.h Pages: 1 -->
<svg width="240pt" height="108pt"
 viewBox="0.00 0.00 240.00 108.00" xmlns="http://www.w3.org/2000/svg" xmlns:xlink="http://www.w3.org/1999/xlink">
<g id="graph0" class="graph" transform="scale(1 1) rotate(0) translate(4 104)">
<title>be/src/exprs/hive&#45;udf&#45;call.h</title>
<polygon fill="white" stroke="none" points="-4,4 -4,-104 236,-104 236,4 -4,4"/>
<!-- Node1 -->
<g id="node1" class="node"><title>Node1</title>
<polygon fill="#bfbfbf" stroke="black" points="61,-69 61,-99 169,-99 169,-69 61,-69"/>
<text text-anchor="start" x="69" y="-87" font-family="Helvetica,sans-Serif" font-size="10.00">be/src/exprs/hive&#45;udf</text>
<text text-anchor="middle" x="115" y="-76" font-family="Helvetica,sans-Serif" font-size="10.00">&#45;call.h</text>
</g>
<!-- Node2 -->
<g id="node2" class="node"><title>Node2</title>
<g id="a_node2"><a xlink:href="expr_8cc.html" target="_top" xlink:title="be/src/exprs/expr.cc">
<polygon fill="white" stroke="black" points="0,-6.5 0,-25.5 106,-25.5 106,-6.5 0,-6.5"/>
<text text-anchor="middle" x="53" y="-13.5" font-family="Helvetica,sans-Serif" font-size="10.00">be/src/exprs/expr.cc</text>
</a>
</g>
</g>
<!-- Node1&#45;&gt;Node2 -->
<g id="edge1" class="edge"><title>Node1&#45;&gt;Node2</title>
<path fill="none" stroke="midnightblue" d="M94.4891,-61.1658C83.1724,-49.119 69.7415,-34.8216 61.2932,-25.8283"/>
<polygon fill="midnightblue" stroke="midnightblue" points="92.1492,-63.7869 101.547,-68.679 97.2511,-58.9941 92.1492,-63.7869"/>
</g>
<!-- Node3 -->
<g id="node3" class="node"><title>Node3</title>
<g id="a_node3"><a xlink:href="hive-udf-call_8cc.html" target="_top" xlink:title="be/src/exprs/hive&#45;udf\l&#45;call.cc">
<polygon fill="white" stroke="black" points="124,-1 124,-31 232,-31 232,-1 124,-1"/>
<text text-anchor="start" x="132" y="-19" font-family="Helvetica,sans-Serif" font-size="10.00">be/src/exprs/hive&#45;udf</text>
<text text-anchor="middle" x="178" y="-8" font-family="Helvetica,sans-Serif" font-size="10.00">&#45;call.cc</text>
</a>
</g>
</g>
<!-- Node1&#45;&gt;Node3 -->
<g id="edge2" class="edge"><title>Node1&#45;&gt;Node3</title>
<path fill="none" stroke="midnightblue" d="M135.815,-61.1939C145.201,-51.3605 156.024,-40.0228 164.357,-31.2931"/>
<polygon fill="midnightblue" stroke="midnightblue" points="133.043,-59.0287 128.67,-68.679 138.107,-63.8621 133.043,-59.0287"/>
</g>
</g>
</svg>
