<?xml version="1.0" encoding="UTF-8" standalone="no"?>
<!DOCTYPE svg PUBLIC "-//W3C//DTD SVG 1.1//EN"
 "http://www.w3.org/Graphics/SVG/1.1/DTD/svg11.dtd">
<!-- Generated by graphviz version 2.36.0 (20140111.2315)
 -->
<!-- Title: be/src/service/hs2&#45;util.h Pages: 1 -->
<svg width="597pt" height="108pt"
 viewBox="0.00 0.00 597.00 108.00" xmlns="http://www.w3.org/2000/svg" xmlns:xlink="http://www.w3.org/1999/xlink">
<g id="graph0" class="graph" transform="scale(1 1) rotate(0) translate(4 104)">
<title>be/src/service/hs2&#45;util.h</title>
<polygon fill="white" stroke="none" points="-4,4 -4,-104 593,-104 593,4 -4,4"/>
<!-- Node1 -->
<g id="node1" class="node"><title>Node1</title>
<polygon fill="#bfbfbf" stroke="black" points="248.5,-69 248.5,-99 345.5,-99 345.5,-69 248.5,-69"/>
<text text-anchor="start" x="256.5" y="-87" font-family="Helvetica,sans-Serif" font-size="10.00">be/src/service/hs2</text>
<text text-anchor="middle" x="297" y="-76" font-family="Helvetica,sans-Serif" font-size="10.00">&#45;util.h</text>
</g>
<!-- Node2 -->
<g id="node2" class="node"><title>Node2</title>
<g id="a_node2"><a xlink:href="catalog-op-executor_8cc.html" target="_top" xlink:title="be/src/exec/catalog\l&#45;op&#45;executor.cc">
<polygon fill="white" stroke="black" points="0,-1 0,-31 102,-31 102,-1 0,-1"/>
<text text-anchor="start" x="8" y="-19" font-family="Helvetica,sans-Serif" font-size="10.00">be/src/exec/catalog</text>
<text text-anchor="middle" x="51" y="-8" font-family="Helvetica,sans-Serif" font-size="10.00">&#45;op&#45;executor.cc</text>
</a>
</g>
</g>
<!-- Node1&#45;&gt;Node2 -->
<g id="edge1" class="edge"><title>Node1&#45;&gt;Node2</title>
<path fill="none" stroke="midnightblue" d="M238.687,-67.3551C197.144,-56.2095 141.841,-41.372 102.041,-30.694"/>
<polygon fill="midnightblue" stroke="midnightblue" points="237.833,-70.7496 248.398,-69.9605 239.647,-63.9887 237.833,-70.7496"/>
</g>
<!-- Node3 -->
<g id="node3" class="node"><title>Node3</title>
<g id="a_node3"><a xlink:href="incr-stats-util_8cc.html" target="_top" xlink:title="be/src/exec/incr&#45;stats\l&#45;util.cc">
<polygon fill="white" stroke="black" points="119.5,-1 119.5,-31 230.5,-31 230.5,-1 119.5,-1"/>
<text text-anchor="start" x="127.5" y="-19" font-family="Helvetica,sans-Serif" font-size="10.00">be/src/exec/incr&#45;stats</text>
<text text-anchor="middle" x="175" y="-8" font-family="Helvetica,sans-Serif" font-size="10.00">&#45;util.cc</text>
</a>
</g>
</g>
<!-- Node1&#45;&gt;Node3 -->
<g id="edge2" class="edge"><title>Node1&#45;&gt;Node3</title>
<path fill="none" stroke="midnightblue" d="M261.98,-64.0545C242.588,-53.5641 218.889,-40.7434 201.129,-31.1352"/>
<polygon fill="midnightblue" stroke="midnightblue" points="260.367,-67.1615 270.828,-68.8413 263.698,-61.0047 260.367,-67.1615"/>
</g>
<!-- Node4 -->
<g id="node4" class="node"><title>Node4</title>
<g id="a_node4"><a xlink:href="hs2-util-test_8cc.html" target="_top" xlink:title="be/src/service/hs2\l&#45;util&#45;test.cc">
<polygon fill="white" stroke="black" points="248.5,-1 248.5,-31 345.5,-31 345.5,-1 248.5,-1"/>
<text text-anchor="start" x="256.5" y="-19" font-family="Helvetica,sans-Serif" font-size="10.00">be/src/service/hs2</text>
<text text-anchor="middle" x="297" y="-8" font-family="Helvetica,sans-Serif" font-size="10.00">&#45;util&#45;test.cc</text>
</a>
</g>
</g>
<!-- Node1&#45;&gt;Node4 -->
<g id="edge3" class="edge"><title>Node1&#45;&gt;Node4</title>
<path fill="none" stroke="midnightblue" d="M297,-58.5322C297,-49.3606 297,-39.2449 297,-31.2931"/>
<polygon fill="midnightblue" stroke="midnightblue" points="293.5,-58.6789 297,-68.679 300.5,-58.679 293.5,-58.6789"/>
</g>
<!-- Node5 -->
<g id="node5" class="node"><title>Node5</title>
<g id="a_node5"><a xlink:href="hs2-util_8cc.html" target="_top" xlink:title="be/src/service/hs2\l&#45;util.cc">
<polygon fill="white" stroke="black" points="363.5,-1 363.5,-31 460.5,-31 460.5,-1 363.5,-1"/>
<text text-anchor="start" x="371.5" y="-19" font-family="Helvetica,sans-Serif" font-size="10.00">be/src/service/hs2</text>
<text text-anchor="middle" x="412" y="-8" font-family="Helvetica,sans-Serif" font-size="10.00">&#45;util.cc</text>
</a>
</g>
</g>
<!-- Node1&#45;&gt;Node5 -->
<g id="edge4" class="edge"><title>Node1&#45;&gt;Node5</title>
<path fill="none" stroke="midnightblue" d="M330.758,-63.6261C348.895,-53.2166 370.856,-40.6129 387.37,-31.1352"/>
<polygon fill="midnightblue" stroke="midnightblue" points="328.601,-60.8281 321.67,-68.8413 332.086,-66.8993 328.601,-60.8281"/>
</g>
<!-- Node6 -->
<g id="node6" class="node"><title>Node6</title>
<g id="a_node6"><a xlink:href="impala-hs2-server_8cc.html" target="_top" xlink:title="be/src/service/impala\l&#45;hs2&#45;server.cc">
<polygon fill="white" stroke="black" points="479,-1 479,-31 589,-31 589,-1 479,-1"/>
<text text-anchor="start" x="487" y="-19" font-family="Helvetica,sans-Serif" font-size="10.00">be/src/service/impala</text>
<text text-anchor="middle" x="534" y="-8" font-family="Helvetica,sans-Serif" font-size="10.00">&#45;hs2&#45;server.cc</text>
</a>
</g>
</g>
<!-- Node1&#45;&gt;Node6 -->
<g id="edge5" class="edge"><title>Node1&#45;&gt;Node6</title>
<path fill="none" stroke="midnightblue" d="M355.25,-66.7784C394.557,-55.8322 445.914,-41.5304 483.488,-31.0666"/>
<polygon fill="midnightblue" stroke="midnightblue" points="354.227,-63.4302 345.532,-69.4847 356.105,-70.1736 354.227,-63.4302"/>
</g>
</g>
</svg>
