<?xml version="1.0" encoding="UTF-8" standalone="no"?>
<!DOCTYPE svg PUBLIC "-//W3C//DTD SVG 1.1//EN"
 "http://www.w3.org/Graphics/SVG/1.1/DTD/svg11.dtd">
<!-- Generated by graphviz version 2.36.0 (20140111.2315)
 -->
<!-- Title: be/src/udf_samples/hyperloglog&#45;uda.cc Pages: 1 -->
<svg width="471pt" height="152pt"
 viewBox="0.00 0.00 471.35 152.00" xmlns="http://www.w3.org/2000/svg" xmlns:xlink="http://www.w3.org/1999/xlink">
<g id="graph0" class="graph" transform="scale(1 1) rotate(0) translate(4 148)">
<title>be/src/udf_samples/hyperloglog&#45;uda.cc</title>
<polygon fill="white" stroke="none" points="-4,4 -4,-148 467.347,-148 467.347,4 -4,4"/>
<!-- Node1 -->
<g id="node1" class="node"><title>Node1</title>
<polygon fill="#bfbfbf" stroke="black" points="128.347,-113 128.347,-143 230.347,-143 230.347,-113 128.347,-113"/>
<text text-anchor="start" x="136.347" y="-131" font-family="Helvetica,sans-Serif" font-size="10.00">be/src/udf_samples</text>
<text text-anchor="middle" x="179.347" y="-120" font-family="Helvetica,sans-Serif" font-size="10.00">/hyperloglog&#45;uda.cc</text>
</g>
<!-- Node2 -->
<g id="node2" class="node"><title>Node2</title>
<polygon fill="white" stroke="#bfbfbf" points="38.3473,-0.5 38.3473,-19.5 90.3473,-19.5 90.3473,-0.5 38.3473,-0.5"/>
<text text-anchor="middle" x="64.3473" y="-7.5" font-family="Helvetica,sans-Serif" font-size="10.00">assert.h</text>
</g>
<!-- Node1&#45;&gt;Node2 -->
<g id="edge1" class="edge"><title>Node1&#45;&gt;Node2</title>
<path fill="none" stroke="midnightblue" d="M128.203,-119.013C82.0954,-110.645 19.3021,-95.9352 4.34731,-76 -9.98943,-56.8887 15.2548,-37.0016 37.2689,-24.3389"/>
<polygon fill="midnightblue" stroke="midnightblue" points="38.9691,-27.3984 46.0722,-19.5373 35.6172,-21.2531 38.9691,-27.3984"/>
</g>
<!-- Node3 -->
<g id="node3" class="node"><title>Node3</title>
<polygon fill="white" stroke="#bfbfbf" points="13.8473,-56.5 13.8473,-75.5 60.8473,-75.5 60.8473,-56.5 13.8473,-56.5"/>
<text text-anchor="middle" x="37.3473" y="-63.5" font-family="Helvetica,sans-Serif" font-size="10.00">math.h</text>
</g>
<!-- Node1&#45;&gt;Node3 -->
<g id="edge2" class="edge"><title>Node1&#45;&gt;Node3</title>
<path fill="none" stroke="midnightblue" d="M146.055,-112.933C122.098,-102.81 90.0716,-89.2779 66.9938,-79.5267"/>
<polygon fill="midnightblue" stroke="midnightblue" points="68.2745,-76.2682 57.7007,-75.6 65.5499,-82.7163 68.2745,-76.2682"/>
</g>
<!-- Node4 -->
<g id="node4" class="node"><title>Node4</title>
<polygon fill="white" stroke="#bfbfbf" points="79.3473,-56.5 79.3473,-75.5 135.347,-75.5 135.347,-56.5 79.3473,-56.5"/>
<text text-anchor="middle" x="107.347" y="-63.5" font-family="Helvetica,sans-Serif" font-size="10.00">algorithm</text>
</g>
<!-- Node1&#45;&gt;Node4 -->
<g id="edge3" class="edge"><title>Node1&#45;&gt;Node4</title>
<path fill="none" stroke="midnightblue" d="M162.284,-112.781C151.283,-103.613 136.982,-91.6957 125.73,-82.3186"/>
<polygon fill="midnightblue" stroke="midnightblue" points="127.747,-79.4436 117.824,-75.7305 123.266,-84.8212 127.747,-79.4436"/>
</g>
<!-- Node5 -->
<g id="node5" class="node"><title>Node5</title>
<polygon fill="white" stroke="#bfbfbf" points="153.347,-56.5 153.347,-75.5 205.347,-75.5 205.347,-56.5 153.347,-56.5"/>
<text text-anchor="middle" x="179.347" y="-63.5" font-family="Helvetica,sans-Serif" font-size="10.00">sstream</text>
</g>
<!-- Node1&#45;&gt;Node5 -->
<g id="edge4" class="edge"><title>Node1&#45;&gt;Node5</title>
<path fill="none" stroke="midnightblue" d="M179.347,-112.781C179.347,-104.781 179.347,-94.6887 179.347,-86.0168"/>
<polygon fill="midnightblue" stroke="midnightblue" points="182.847,-85.7305 179.347,-75.7305 175.847,-85.7306 182.847,-85.7305"/>
</g>
<!-- Node6 -->
<g id="node6" class="node"><title>Node6</title>
<polygon fill="white" stroke="#bfbfbf" points="223.347,-56.5 223.347,-75.5 277.347,-75.5 277.347,-56.5 223.347,-56.5"/>
<text text-anchor="middle" x="250.347" y="-63.5" font-family="Helvetica,sans-Serif" font-size="10.00">iostream</text>
</g>
<!-- Node1&#45;&gt;Node6 -->
<g id="edge5" class="edge"><title>Node1&#45;&gt;Node6</title>
<path fill="none" stroke="midnightblue" d="M196.173,-112.781C207.022,-103.613 221.124,-91.6957 232.22,-82.3186"/>
<polygon fill="midnightblue" stroke="midnightblue" points="234.637,-84.8585 240.016,-75.7305 230.119,-79.5119 234.637,-84.8585"/>
</g>
<!-- Node7 -->
<g id="node7" class="node"><title>Node7</title>
<g id="a_node7"><a xlink:href="udf_8h.html" target="_top" xlink:title="udf/udf.h">
<polygon fill="white" stroke="black" points="295.847,-56.5 295.847,-75.5 350.847,-75.5 350.847,-56.5 295.847,-56.5"/>
<text text-anchor="middle" x="323.347" y="-63.5" font-family="Helvetica,sans-Serif" font-size="10.00">udf/udf.h</text>
</a>
</g>
</g>
<!-- Node1&#45;&gt;Node7 -->
<g id="edge6" class="edge"><title>Node1&#45;&gt;Node7</title>
<path fill="none" stroke="midnightblue" d="M213.109,-112.933C237.403,-102.81 269.88,-89.2779 293.283,-79.5267"/>
<polygon fill="midnightblue" stroke="midnightblue" points="294.823,-82.677 302.707,-75.6 292.13,-76.2155 294.823,-82.677"/>
</g>
<!-- Node10 -->
<g id="node10" class="node"><title>Node10</title>
<g id="a_node10"><a xlink:href="names_8h.html" target="_top" xlink:title="common/names.h">
<polygon fill="white" stroke="black" points="368.847,-56.5 368.847,-75.5 463.847,-75.5 463.847,-56.5 368.847,-56.5"/>
<text text-anchor="middle" x="416.347" y="-63.5" font-family="Helvetica,sans-Serif" font-size="10.00">common/names.h</text>
</a>
</g>
</g>
<!-- Node1&#45;&gt;Node10 -->
<g id="edge10" class="edge"><title>Node1&#45;&gt;Node10</title>
<path fill="none" stroke="midnightblue" d="M230.481,-114.055C272.882,-103.32 332.513,-88.2238 372.699,-78.0501"/>
<polygon fill="midnightblue" stroke="midnightblue" points="373.639,-81.4226 382.475,-75.5754 371.921,-74.6367 373.639,-81.4226"/>
</g>
<!-- Node7&#45;&gt;Node2 -->
<g id="edge7" class="edge"><title>Node7&#45;&gt;Node2</title>
<path fill="none" stroke="midnightblue" d="M295.494,-58.1029C292.412,-57.376 289.315,-56.6616 286.347,-56 220.963,-41.4268 144.299,-26.3234 100.317,-17.8479"/>
<polygon fill="midnightblue" stroke="midnightblue" points="100.872,-14.3906 90.3913,-15.9409 99.5513,-21.2649 100.872,-14.3906"/>
</g>
<!-- Node8 -->
<g id="node8" class="node"><title>Node8</title>
<polygon fill="white" stroke="#bfbfbf" points="189.347,-0.5 189.347,-19.5 281.347,-19.5 281.347,-0.5 189.347,-0.5"/>
<text text-anchor="middle" x="235.347" y="-7.5" font-family="Helvetica,sans-Serif" font-size="10.00">boost/cstdint.hpp</text>
</g>
<!-- Node7&#45;&gt;Node8 -->
<g id="edge8" class="edge"><title>Node7&#45;&gt;Node8</title>
<path fill="none" stroke="midnightblue" d="M309.209,-56.324C295.481,-47.9002 274.411,-34.9709 258.283,-25.0741"/>
<polygon fill="midnightblue" stroke="midnightblue" points="259.805,-21.9016 249.451,-19.6545 256.144,-27.8678 259.805,-21.9016"/>
</g>
<!-- Node9 -->
<g id="node9" class="node"><title>Node9</title>
<polygon fill="white" stroke="#bfbfbf" points="299.847,-0.5 299.847,-19.5 348.847,-19.5 348.847,-0.5 299.847,-0.5"/>
<text text-anchor="middle" x="324.347" y="-7.5" font-family="Helvetica,sans-Serif" font-size="10.00">string.h</text>
</g>
<!-- Node7&#45;&gt;Node9 -->
<g id="edge9" class="edge"><title>Node7&#45;&gt;Node9</title>
<path fill="none" stroke="midnightblue" d="M323.512,-56.083C323.643,-49.0059 323.831,-38.8611 323.996,-29.9865"/>
<polygon fill="midnightblue" stroke="midnightblue" points="327.499,-29.8142 324.185,-19.7511 320.501,-29.6845 327.499,-29.8142"/>
</g>
<!-- Node11 -->
<g id="node11" class="node"><title>Node11</title>
<polygon fill="white" stroke="#bfbfbf" points="369.347,-0.5 369.347,-19.5 463.347,-19.5 463.347,-0.5 369.347,-0.5"/>
<text text-anchor="middle" x="416.347" y="-7.5" font-family="Helvetica,sans-Serif" font-size="10.00">boost/version.hpp</text>
</g>
<!-- Node10&#45;&gt;Node11 -->
<g id="edge11" class="edge"><title>Node10&#45;&gt;Node11</title>
<path fill="none" stroke="midnightblue" d="M416.347,-56.083C416.347,-49.0059 416.347,-38.8611 416.347,-29.9865"/>
<polygon fill="midnightblue" stroke="midnightblue" points="419.847,-29.751 416.347,-19.7511 412.847,-29.7511 419.847,-29.751"/>
</g>
</g>
</svg>
