<?xml version="1.0" encoding="UTF-8" standalone="no"?>
<!DOCTYPE svg PUBLIC "-//W3C//DTD SVG 1.1//EN"
 "http://www.w3.org/Graphics/SVG/1.1/DTD/svg11.dtd">
<!-- Generated by graphviz version 2.36.0 (20140111.2315)
 -->
<!-- Title: be/src/util/impalad&#45;metrics.h Pages: 1 -->
<!--zoomable 176 -->
<svg id="main" version="1.1" xmlns="http://www.w3.org/2000/svg" xmlns:xlink="http://www.w3.org/1999/xlink" xml:space="preserve" onload="init(evt)">
<style type="text/css"><![CDATA[
.edge:hover path { stroke: red; }
.edge:hover polygon { stroke: red; fill: red; }
]]></style>
<script type="text/javascript"><![CDATA[
var edges = document.getElementsByTagName('g');
if (edges && edges.length) {
  for (var i=0;i<edges.length;i++) {
    if (edges[i].id.substr(0,4)=='edge') {
      edges[i].setAttribute('class','edge');
    }
  }
}
]]></script>
        <defs>
                <circle id="rim" cx="0" cy="0" r="7"/>
                <circle id="rim2" cx="0" cy="0" r="3.5"/>
                <g id="zoomPlus">
                        <use xlink:href="#rim" fill="#404040">
                                <set attributeName="fill" to="#808080" begin="zoomplus.mouseover" end="zoomplus.mouseout"/>
                        </use>
                        <path d="M-4,0h8M0,-4v8" fill="none" stroke="white" stroke-width="1.5" pointer-events="none"/>
                </g>
                <g id="zoomMin">
                        <use xlink:href="#rim" fill="#404040">
                                <set attributeName="fill" to="#808080" begin="zoomminus.mouseover" end="zoomminus.mouseout"/>
                        </use>
                        <path d="M-4,0h8" fill="none" stroke="white" stroke-width="1.5" pointer-events="none"/>
                </g>
                <g id="dirArrow">
                        <path fill="none" stroke="white" stroke-width="1.5" d="M0,-3.0v7 M-2.5,-0.5L0,-3.0L2.5,-0.5"/>
                </g>
               <g id="resetDef">
                       <use xlink:href="#rim2" fill="#404040">
                               <set attributeName="fill" to="#808080" begin="reset.mouseover" end="reset.mouseout"/>
                       </use>
               </g>
        </defs>

<script type="text/javascript">
var viewWidth = 2051;
var viewHeight = 176;
var sectionId = 'dynsection-1';
</script>
<script xlink:href="svgpan.js"/>
<svg id="graph" class="graph">
<g id="viewport">
<title>be/src/util/impalad&#45;metrics.h</title>
<polygon fill="white" stroke="none" points="-4,4 -4,-172 2047,-172 2047,4 -4,4"/>
<!-- Node1 -->
<g id="node1" class="node"><title>Node1</title>
<polygon fill="#bfbfbf" stroke="black" points="987,-137 987,-167 1083,-167 1083,-137 987,-137"/>
<text text-anchor="start" x="995" y="-155" font-family="Helvetica,sans-Serif" font-size="10.00">be/src/util/impalad</text>
<text text-anchor="middle" x="1035" y="-144" font-family="Helvetica,sans-Serif" font-size="10.00">&#45;metrics.h</text>
</g>
<!-- Node2 -->
<g id="node2" class="node"><title>Node2</title>
<g id="a_node2"><a xlink:href="hash-table_8cc.html" target="_top" xlink:title="be/src/exec/hash&#45;table.cc">
<polygon fill="white" stroke="black" points="-0.5,-74.5 -0.5,-93.5 128.5,-93.5 128.5,-74.5 -0.5,-74.5"/>
<text text-anchor="middle" x="64" y="-81.5" font-family="Helvetica,sans-Serif" font-size="10.00">be/src/exec/hash&#45;table.cc</text>
</a>
</g>
</g>
<!-- Node1&#45;&gt;Node2 -->
<g id="edge1" class="edge"><title>Node1&#45;&gt;Node2</title>
<path fill="none" stroke="midnightblue" d="M976.31,-150.565C832.684,-148.87 452.291,-140.576 138,-100 125.779,-98.4223 112.556,-95.9808 100.714,-93.5226"/>
<polygon fill="midnightblue" stroke="midnightblue" points="976.605,-154.068 986.644,-150.68 976.683,-147.069 976.605,-154.068"/>
</g>
<!-- Node3 -->
<g id="node3" class="node"><title>Node3</title>
<g id="a_node3"><a xlink:href="hdfs-scan-node_8cc.html" target="_top" xlink:title="be/src/exec/hdfs&#45;scan\l&#45;node.cc">
<polygon fill="white" stroke="black" points="146.5,-69 146.5,-99 259.5,-99 259.5,-69 146.5,-69"/>
<text text-anchor="start" x="154.5" y="-87" font-family="Helvetica,sans-Serif" font-size="10.00">be/src/exec/hdfs&#45;scan</text>
<text text-anchor="middle" x="203" y="-76" font-family="Helvetica,sans-Serif" font-size="10.00">&#45;node.cc</text>
</a>
</g>
</g>
<!-- Node1&#45;&gt;Node3 -->
<g id="edge2" class="edge"><title>Node1&#45;&gt;Node3</title>
<path fill="none" stroke="midnightblue" d="M976.756,-150.235C848.304,-147.868 531.267,-138.292 269,-100 265.977,-99.5586 262.887,-99.0522 259.775,-98.4984"/>
<polygon fill="midnightblue" stroke="midnightblue" points="976.712,-153.735 986.772,-150.412 976.836,-146.736 976.712,-153.735"/>
</g>
<!-- Node4 -->
<g id="node4" class="node"><title>Node4</title>
<g id="a_node4"><a xlink:href="hdfs-table-sink_8cc.html" target="_top" xlink:title="be/src/exec/hdfs&#45;table\l&#45;sink.cc">
<polygon fill="white" stroke="black" points="277.5,-69 277.5,-99 390.5,-99 390.5,-69 277.5,-69"/>
<text text-anchor="start" x="285.5" y="-87" font-family="Helvetica,sans-Serif" font-size="10.00">be/src/exec/hdfs&#45;table</text>
<text text-anchor="middle" x="334" y="-76" font-family="Helvetica,sans-Serif" font-size="10.00">&#45;sink.cc</text>
</a>
</g>
</g>
<!-- Node1&#45;&gt;Node4 -->
<g id="edge3" class="edge"><title>Node1&#45;&gt;Node4</title>
<path fill="none" stroke="midnightblue" d="M976.85,-149.117C864.705,-144.872 610.973,-132.276 400,-100 396.98,-99.538 393.893,-99.0151 390.783,-98.4484"/>
<polygon fill="midnightblue" stroke="midnightblue" points="976.811,-152.618 986.934,-149.491 977.07,-145.623 976.811,-152.618"/>
</g>
<!-- Node5 -->
<g id="node5" class="node"><title>Node5</title>
<g id="a_node5"><a xlink:href="old-hash-table_8cc.html" target="_top" xlink:title="be/src/exec/old&#45;hash\l&#45;table.cc">
<polygon fill="white" stroke="black" points="408.5,-69 408.5,-99 515.5,-99 515.5,-69 408.5,-69"/>
<text text-anchor="start" x="416.5" y="-87" font-family="Helvetica,sans-Serif" font-size="10.00">be/src/exec/old&#45;hash</text>
<text text-anchor="middle" x="462" y="-76" font-family="Helvetica,sans-Serif" font-size="10.00">&#45;table.cc</text>
</a>
</g>
</g>
<!-- Node1&#45;&gt;Node5 -->
<g id="edge4" class="edge"><title>Node1&#45;&gt;Node5</title>
<path fill="none" stroke="midnightblue" d="M976.919,-147.735C881.909,-141.825 687.556,-127.353 525,-100 521.896,-99.4776 518.717,-98.8901 515.516,-98.2578"/>
<polygon fill="midnightblue" stroke="midnightblue" points="976.707,-151.228 986.902,-148.347 977.135,-144.241 976.707,-151.228"/>
</g>
<!-- Node6 -->
<g id="node6" class="node"><title>Node6</title>
<g id="a_node6"><a xlink:href="buffered-block-mgr_8cc.html" target="_top" xlink:title="be/src/runtime/buffered\l&#45;block&#45;mgr.cc">
<polygon fill="white" stroke="black" points="533.5,-69 533.5,-99 650.5,-99 650.5,-69 533.5,-69"/>
<text text-anchor="start" x="541.5" y="-87" font-family="Helvetica,sans-Serif" font-size="10.00">be/src/runtime/buffered</text>
<text text-anchor="middle" x="592" y="-76" font-family="Helvetica,sans-Serif" font-size="10.00">&#45;block&#45;mgr.cc</text>
</a>
</g>
</g>
<!-- Node1&#45;&gt;Node6 -->
<g id="edge5" class="edge"><title>Node1&#45;&gt;Node6</title>
<path fill="none" stroke="midnightblue" d="M976.814,-144.585C902.893,-136.092 771.515,-119.848 660,-100 656.905,-99.4492 653.738,-98.8556 650.544,-98.2335"/>
<polygon fill="midnightblue" stroke="midnightblue" points="976.522,-148.074 986.855,-145.731 977.316,-141.119 976.522,-148.074"/>
</g>
<!-- Node7 -->
<g id="node7" class="node"><title>Node7</title>
<g id="a_node7"><a xlink:href="disk-io-mgr-internal_8h.html" target="_top" xlink:title="be/src/runtime/disk\l&#45;io&#45;mgr&#45;internal.h">
<polygon fill="white" stroke="black" points="669,-69 669,-99 769,-99 769,-69 669,-69"/>
<text text-anchor="start" x="677" y="-87" font-family="Helvetica,sans-Serif" font-size="10.00">be/src/runtime/disk</text>
<text text-anchor="middle" x="719" y="-76" font-family="Helvetica,sans-Serif" font-size="10.00">&#45;io&#45;mgr&#45;internal.h</text>
</a>
</g>
</g>
<!-- Node1&#45;&gt;Node7 -->
<g id="edge6" class="edge"><title>Node1&#45;&gt;Node7</title>
<path fill="none" stroke="midnightblue" d="M976.922,-140.386C924.711,-130.627 846.007,-115.381 778,-100 775.114,-99.3472 772.153,-98.6577 769.168,-97.9474"/>
<polygon fill="midnightblue" stroke="midnightblue" points="976.528,-143.872 987,-142.263 977.81,-136.991 976.528,-143.872"/>
</g>
<!-- Node11 -->
<g id="node11" class="node"><title>Node11</title>
<g id="a_node11"><a xlink:href="mem-pool_8cc.html" target="_top" xlink:title="be/src/runtime/mem\l&#45;pool.cc">
<polygon fill="white" stroke="black" points="787,-69 787,-99 891,-99 891,-69 787,-69"/>
<text text-anchor="start" x="795" y="-87" font-family="Helvetica,sans-Serif" font-size="10.00">be/src/runtime/mem</text>
<text text-anchor="middle" x="839" y="-76" font-family="Helvetica,sans-Serif" font-size="10.00">&#45;pool.cc</text>
</a>
</g>
</g>
<!-- Node1&#45;&gt;Node11 -->
<g id="edge10" class="edge"><title>Node1&#45;&gt;Node11</title>
<path fill="none" stroke="midnightblue" d="M983.302,-133.592C951.25,-122.798 910.616,-109.116 880.641,-99.0218"/>
<polygon fill="midnightblue" stroke="midnightblue" points="982.359,-136.967 992.953,-136.841 984.593,-130.333 982.359,-136.967"/>
</g>
<!-- Node12 -->
<g id="node12" class="node"><title>Node12</title>
<g id="a_node12"><a xlink:href="fragment-mgr_8cc.html" target="_top" xlink:title="be/src/service/fragment\l&#45;mgr.cc">
<polygon fill="white" stroke="black" points="909.5,-69 909.5,-99 1028.5,-99 1028.5,-69 909.5,-69"/>
<text text-anchor="start" x="917.5" y="-87" font-family="Helvetica,sans-Serif" font-size="10.00">be/src/service/fragment</text>
<text text-anchor="middle" x="969" y="-76" font-family="Helvetica,sans-Serif" font-size="10.00">&#45;mgr.cc</text>
</a>
</g>
</g>
<!-- Node1&#45;&gt;Node12 -->
<g id="edge11" class="edge"><title>Node1&#45;&gt;Node12</title>
<path fill="none" stroke="midnightblue" d="M1013.49,-129.485C1003.59,-119.585 992.109,-108.109 983.293,-99.2931"/>
<polygon fill="midnightblue" stroke="midnightblue" points="1011.13,-132.083 1020.68,-136.679 1016.08,-127.133 1011.13,-132.083"/>
</g>
<!-- Node13 -->
<g id="node13" class="node"><title>Node13</title>
<g id="a_node13"><a xlink:href="impala-beeswax-server_8cc.html" target="_top" xlink:title="be/src/service/impala\l&#45;beeswax&#45;server.cc">
<polygon fill="white" stroke="black" points="1047,-69 1047,-99 1157,-99 1157,-69 1047,-69"/>
<text text-anchor="start" x="1055" y="-87" font-family="Helvetica,sans-Serif" font-size="10.00">be/src/service/impala</text>
<text text-anchor="middle" x="1102" y="-76" font-family="Helvetica,sans-Serif" font-size="10.00">&#45;beeswax&#45;server.cc</text>
</a>
</g>
</g>
<!-- Node1&#45;&gt;Node13 -->
<g id="edge12" class="edge"><title>Node1&#45;&gt;Node13</title>
<path fill="none" stroke="midnightblue" d="M1056.84,-129.485C1066.89,-119.585 1078.54,-108.109 1087.49,-99.2931"/>
<polygon fill="midnightblue" stroke="midnightblue" points="1054.21,-127.168 1049.54,-136.679 1059.12,-132.155 1054.21,-127.168"/>
</g>
<!-- Node14 -->
<g id="node14" class="node"><title>Node14</title>
<g id="a_node14"><a xlink:href="impala-hs2-server_8cc.html" target="_top" xlink:title="be/src/service/impala\l&#45;hs2&#45;server.cc">
<polygon fill="white" stroke="black" points="1175,-69 1175,-99 1285,-99 1285,-69 1175,-69"/>
<text text-anchor="start" x="1183" y="-87" font-family="Helvetica,sans-Serif" font-size="10.00">be/src/service/impala</text>
<text text-anchor="middle" x="1230" y="-76" font-family="Helvetica,sans-Serif" font-size="10.00">&#45;hs2&#45;server.cc</text>
</a>
</g>
</g>
<!-- Node1&#45;&gt;Node14 -->
<g id="edge13" class="edge"><title>Node1&#45;&gt;Node14</title>
<path fill="none" stroke="midnightblue" d="M1086.43,-133.592C1118.32,-122.798 1158.75,-109.116 1188.57,-99.0218"/>
<polygon fill="midnightblue" stroke="midnightblue" points="1085.18,-130.32 1076.83,-136.841 1087.43,-136.951 1085.18,-130.32"/>
</g>
<!-- Node15 -->
<g id="node15" class="node"><title>Node15</title>
<g id="a_node15"><a xlink:href="impala-server_8cc.html" target="_top" xlink:title="be/src/service/impala\l&#45;server.cc">
<polygon fill="white" stroke="black" points="1303,-69 1303,-99 1413,-99 1413,-69 1303,-69"/>
<text text-anchor="start" x="1311" y="-87" font-family="Helvetica,sans-Serif" font-size="10.00">be/src/service/impala</text>
<text text-anchor="middle" x="1358" y="-76" font-family="Helvetica,sans-Serif" font-size="10.00">&#45;server.cc</text>
</a>
</g>
</g>
<!-- Node1&#45;&gt;Node15 -->
<g id="edge14" class="edge"><title>Node1&#45;&gt;Node15</title>
<path fill="none" stroke="midnightblue" d="M1093.47,-140.106C1146.04,-130.163 1225.33,-114.803 1294,-100 1296.9,-99.3747 1299.87,-98.7217 1302.87,-98.0531"/>
<polygon fill="midnightblue" stroke="midnightblue" points="1092.5,-136.727 1083.32,-142.021 1093.79,-143.606 1092.5,-136.727"/>
</g>
<!-- Node16 -->
<g id="node16" class="node"><title>Node16</title>
<g id="a_node16"><a xlink:href="impalad-main_8cc.html" target="_top" xlink:title="be/src/service/impalad\l&#45;main.cc">
<polygon fill="white" stroke="black" points="1431.5,-69 1431.5,-99 1546.5,-99 1546.5,-69 1431.5,-69"/>
<text text-anchor="start" x="1439.5" y="-87" font-family="Helvetica,sans-Serif" font-size="10.00">be/src/service/impalad</text>
<text text-anchor="middle" x="1489" y="-76" font-family="Helvetica,sans-Serif" font-size="10.00">&#45;main.cc</text>
</a>
</g>
</g>
<!-- Node1&#45;&gt;Node16 -->
<g id="edge15" class="edge"><title>Node1&#45;&gt;Node16</title>
<path fill="none" stroke="midnightblue" d="M1093.49,-144.937C1169.49,-136.683 1306.17,-120.555 1422,-100 1425.05,-99.4585 1428.17,-98.8722 1431.32,-98.2559"/>
<polygon fill="midnightblue" stroke="midnightblue" points="1092.74,-141.497 1083.18,-146.049 1093.49,-148.457 1092.74,-141.497"/>
</g>
<!-- Node17 -->
<g id="node17" class="node"><title>Node17</title>
<g id="a_node17"><a xlink:href="query-exec-state_8cc.html" target="_top" xlink:title="be/src/service/query\l&#45;exec&#45;state.cc">
<polygon fill="white" stroke="black" points="1564.5,-69 1564.5,-99 1669.5,-99 1669.5,-69 1564.5,-69"/>
<text text-anchor="start" x="1572.5" y="-87" font-family="Helvetica,sans-Serif" font-size="10.00">be/src/service/query</text>
<text text-anchor="middle" x="1617" y="-76" font-family="Helvetica,sans-Serif" font-size="10.00">&#45;exec&#45;state.cc</text>
</a>
</g>
</g>
<!-- Node1&#45;&gt;Node17 -->
<g id="edge16" class="edge"><title>Node1&#45;&gt;Node17</title>
<path fill="none" stroke="midnightblue" d="M1093.48,-147.933C1190.09,-142.271 1388.88,-128.1 1555,-100 1558.06,-99.4828 1561.19,-98.8993 1564.34,-98.2702"/>
<polygon fill="midnightblue" stroke="midnightblue" points="1093.11,-144.449 1083.33,-148.519 1093.52,-151.437 1093.11,-144.449"/>
</g>
<!-- Node18 -->
<g id="node18" class="node"><title>Node18</title>
<g id="a_node18"><a xlink:href="session-expiry-test_8cc.html" target="_top" xlink:title="be/src/service/session\l&#45;expiry&#45;test.cc">
<polygon fill="white" stroke="black" points="1687.5,-69 1687.5,-99 1802.5,-99 1802.5,-69 1687.5,-69"/>
<text text-anchor="start" x="1695.5" y="-87" font-family="Helvetica,sans-Serif" font-size="10.00">be/src/service/session</text>
<text text-anchor="middle" x="1745" y="-76" font-family="Helvetica,sans-Serif" font-size="10.00">&#45;expiry&#45;test.cc</text>
</a>
</g>
</g>
<!-- Node1&#45;&gt;Node18 -->
<g id="edge17" class="edge"><title>Node1&#45;&gt;Node18</title>
<path fill="none" stroke="midnightblue" d="M1093.45,-149.125C1206.77,-144.88 1464.05,-132.27 1678,-100 1681.06,-99.5378 1684.2,-99.0147 1687.35,-98.448"/>
<polygon fill="midnightblue" stroke="midnightblue" points="1093.12,-145.634 1083.26,-149.498 1093.38,-152.63 1093.12,-145.634"/>
</g>
<!-- Node19 -->
<g id="node19" class="node"><title>Node19</title>
<g id="a_node19"><a xlink:href="impalad-metrics_8cc.html" target="_top" xlink:title="be/src/util/impalad\l&#45;metrics.cc">
<polygon fill="white" stroke="black" points="1821,-69 1821,-99 1917,-99 1917,-69 1821,-69"/>
<text text-anchor="start" x="1829" y="-87" font-family="Helvetica,sans-Serif" font-size="10.00">be/src/util/impalad</text>
<text text-anchor="middle" x="1869" y="-76" font-family="Helvetica,sans-Serif" font-size="10.00">&#45;metrics.cc</text>
</a>
</g>
</g>
<!-- Node1&#45;&gt;Node19 -->
<g id="edge18" class="edge"><title>Node1&#45;&gt;Node19</title>
<path fill="none" stroke="midnightblue" d="M1093.14,-150.887C1222.83,-149.828 1545.26,-142.708 1811,-100 1814.18,-99.4884 1817.45,-98.8807 1820.72,-98.2078"/>
<polygon fill="midnightblue" stroke="midnightblue" points="1093.01,-147.388 1083.03,-150.96 1093.06,-154.388 1093.01,-147.388"/>
</g>
<!-- Node20 -->
<g id="node20" class="node"><title>Node20</title>
<g id="a_node20"><a xlink:href="metrics_8cc.html" target="_top" xlink:title="be/src/util/metrics.cc">
<polygon fill="white" stroke="black" points="1935,-74.5 1935,-93.5 2043,-93.5 2043,-74.5 1935,-74.5"/>
<text text-anchor="middle" x="1989" y="-81.5" font-family="Helvetica,sans-Serif" font-size="10.00">be/src/util/metrics.cc</text>
</a>
</g>
</g>
<!-- Node1&#45;&gt;Node20 -->
<g id="edge19" class="edge"><title>Node1&#45;&gt;Node20</title>
<path fill="none" stroke="midnightblue" d="M1093.39,-151.21C1236.26,-150.955 1614.54,-145.628 1926,-100 1936.46,-98.4681 1947.73,-96.0388 1957.81,-93.5776"/>
<polygon fill="midnightblue" stroke="midnightblue" points="1093.11,-147.71 1083.11,-151.22 1093.11,-154.71 1093.11,-147.71"/>
</g>
<!-- Node8 -->
<g id="node8" class="node"><title>Node8</title>
<g id="a_node8"><a xlink:href="disk-io-mgr-reader-context_8cc.html" target="_top" xlink:title="be/src/runtime/disk\l&#45;io&#45;mgr&#45;reader&#45;context.cc">
<polygon fill="white" stroke="black" points="520.5,-1 520.5,-31 645.5,-31 645.5,-1 520.5,-1"/>
<text text-anchor="start" x="528.5" y="-19" font-family="Helvetica,sans-Serif" font-size="10.00">be/src/runtime/disk</text>
<text text-anchor="middle" x="583" y="-8" font-family="Helvetica,sans-Serif" font-size="10.00">&#45;io&#45;mgr&#45;reader&#45;context.cc</text>
</a>
</g>
</g>
<!-- Node7&#45;&gt;Node8 -->
<g id="edge7" class="edge"><title>Node7&#45;&gt;Node8</title>
<path fill="none" stroke="midnightblue" d="M680.547,-64.3388C658.823,-53.7964 632.105,-40.8303 612.127,-31.1352"/>
<polygon fill="midnightblue" stroke="midnightblue" points="679.3,-67.6241 689.825,-68.8413 682.356,-61.3265 679.3,-67.6241"/>
</g>
<!-- Node9 -->
<g id="node9" class="node"><title>Node9</title>
<g id="a_node9"><a xlink:href="disk-io-mgr-scan-range_8cc.html" target="_top" xlink:title="be/src/runtime/disk\l&#45;io&#45;mgr&#45;scan&#45;range.cc">
<polygon fill="white" stroke="black" points="663.5,-1 663.5,-31 774.5,-31 774.5,-1 663.5,-1"/>
<text text-anchor="start" x="671.5" y="-19" font-family="Helvetica,sans-Serif" font-size="10.00">be/src/runtime/disk</text>
<text text-anchor="middle" x="719" y="-8" font-family="Helvetica,sans-Serif" font-size="10.00">&#45;io&#45;mgr&#45;scan&#45;range.cc</text>
</a>
</g>
</g>
<!-- Node7&#45;&gt;Node9 -->
<g id="edge8" class="edge"><title>Node7&#45;&gt;Node9</title>
<path fill="none" stroke="midnightblue" d="M719,-58.5322C719,-49.3606 719,-39.2449 719,-31.2931"/>
<polygon fill="midnightblue" stroke="midnightblue" points="715.5,-58.6789 719,-68.679 722.5,-58.679 715.5,-58.6789"/>
</g>
<!-- Node10 -->
<g id="node10" class="node"><title>Node10</title>
<g id="a_node10"><a xlink:href="disk-io-mgr_8cc.html" target="_top" xlink:title="be/src/runtime/disk\l&#45;io&#45;mgr.cc">
<polygon fill="white" stroke="black" points="793,-1 793,-31 893,-31 893,-1 793,-1"/>
<text text-anchor="start" x="801" y="-19" font-family="Helvetica,sans-Serif" font-size="10.00">be/src/runtime/disk</text>
<text text-anchor="middle" x="843" y="-8" font-family="Helvetica,sans-Serif" font-size="10.00">&#45;io&#45;mgr.cc</text>
</a>
</g>
</g>
<!-- Node7&#45;&gt;Node10 -->
<g id="edge9" class="edge"><title>Node7&#45;&gt;Node10</title>
<path fill="none" stroke="midnightblue" d="M754.594,-64.0545C774.304,-53.5641 798.391,-40.7434 816.443,-31.1352"/>
<polygon fill="midnightblue" stroke="midnightblue" points="752.784,-61.0532 745.601,-68.8413 756.073,-67.2324 752.784,-61.0532"/>
</g>
</g>
</svg>
        <g id="navigator" transform="translate(0 0)" fill="#404254">
                <rect fill="#f2f5e9" fill-opacity="0.5" stroke="#606060" stroke-width=".5" x="0" y="0" width="60" height="60"/>
                <use id="zoomplus" xlink:href="#zoomPlus" x="17" y="9" onmousedown="handleZoom(evt,'in')"/>
                <use id="zoomminus" xlink:href="#zoomMin" x="42" y="9" onmousedown="handleZoom(evt,'out')"/>
                <use id="reset" xlink:href="#resetDef" x="30" y="36" onmousedown="handleReset()"/>
                <g id="arrowUp" xlink:href="#dirArrow" transform="translate(30 24)" onmousedown="handlePan(0,-1)">
                  <use xlink:href="#rim" fill="#404040">
                        <set attributeName="fill" to="#808080" begin="arrowUp.mouseover" end="arrowUp.mouseout"/>
                  </use>
                  <path fill="none" stroke="white" stroke-width="1.5" d="M0,-3.0v7 M-2.5,-0.5L0,-3.0L2.5,-0.5"/>
                </g>
                <g id="arrowRight" xlink:href="#dirArrow" transform="rotate(90) translate(36 -43)" onmousedown="handlePan(1,0)">
                  <use xlink:href="#rim" fill="#404040">
                        <set attributeName="fill" to="#808080" begin="arrowRight.mouseover" end="arrowRight.mouseout"/>
                  </use>
                  <path fill="none" stroke="white" stroke-width="1.5" d="M0,-3.0v7 M-2.5,-0.5L0,-3.0L2.5,-0.5"/>
                </g>
                <g id="arrowDown" xlink:href="#dirArrow" transform="rotate(180) translate(-30 -48)" onmousedown="handlePan(0,1)">
                  <use xlink:href="#rim" fill="#404040">
                        <set attributeName="fill" to="#808080" begin="arrowDown.mouseover" end="arrowDown.mouseout"/>
                  </use>
                  <path fill="none" stroke="white" stroke-width="1.5" d="M0,-3.0v7 M-2.5,-0.5L0,-3.0L2.5,-0.5"/>
                </g>
                <g id="arrowLeft" xlink:href="#dirArrow" transform="rotate(270) translate(-36 17)" onmousedown="handlePan(-1,0)">
                  <use xlink:href="#rim" fill="#404040">
                        <set attributeName="fill" to="#808080" begin="arrowLeft.mouseover" end="arrowLeft.mouseout"/>
                  </use>
                  <path fill="none" stroke="white" stroke-width="1.5" d="M0,-3.0v7 M-2.5,-0.5L0,-3.0L2.5,-0.5"/>
                </g>
        </g>
        <svg viewBox="0 0 15 15" width="100%" height="30px" preserveAspectRatio="xMaxYMin meet">
         <g id="arrow_out" transform="scale(0.3 0.3)">
          <a xlink:href="impalad-metrics_8h__dep__incl_org.svg" target="_base">
           <rect id="button" ry="5" rx="5" y="6" x="6" height="38" width="38"
                fill="#f2f5e9" fill-opacity="0.5" stroke="#606060" stroke-width="1.0"/>
           <path id="arrow"
             d="M 11.500037,31.436501 C 11.940474,20.09759 22.043105,11.32322 32.158766,21.979434 L 37.068811,17.246167 C 37.068811,17.246167 37.088388,32 37.088388,32 L 22.160133,31.978069 C 22.160133,31.978069 26.997745,27.140456 26.997745,27.140456 C 18.528582,18.264221 13.291696,25.230495 11.500037,31.436501 z"
             style="fill:#404040;"/>
          </a>
         </g>
        </svg>
</svg>
