<?xml version="1.0" encoding="UTF-8" standalone="no"?>
<!DOCTYPE svg PUBLIC "-//W3C//DTD SVG 1.1//EN"
 "http://www.w3.org/Graphics/SVG/1.1/DTD/svg11.dtd">
<!-- Generated by graphviz version 2.36.0 (20140111.2315)
 -->
<!-- Title: be/src/testutil/impalad&#45;query&#45;executor.h Pages: 1 -->
<svg width="263pt" height="108pt"
 viewBox="0.00 0.00 263.00 108.00" xmlns="http://www.w3.org/2000/svg" xmlns:xlink="http://www.w3.org/1999/xlink">
<g id="graph0" class="graph" transform="scale(1 1) rotate(0) translate(4 104)">
<title>be/src/testutil/impalad&#45;query&#45;executor.h</title>
<polygon fill="white" stroke="none" points="-4,4 -4,-104 259,-104 259,4 -4,4"/>
<!-- Node1 -->
<g id="node1" class="node"><title>Node1</title>
<polygon fill="#bfbfbf" stroke="black" points="73.5,-69 73.5,-99 186.5,-99 186.5,-69 73.5,-69"/>
<text text-anchor="start" x="81.5" y="-87" font-family="Helvetica,sans-Serif" font-size="10.00">be/src/testutil/impalad</text>
<text text-anchor="middle" x="130" y="-76" font-family="Helvetica,sans-Serif" font-size="10.00">&#45;query&#45;executor.h</text>
</g>
<!-- Node2 -->
<g id="node2" class="node"><title>Node2</title>
<g id="a_node2"><a xlink:href="expr-test_8cc.html" target="_top" xlink:title="be/src/exprs/expr&#45;test.cc">
<polygon fill="white" stroke="black" points="-0.5,-6.5 -0.5,-25.5 124.5,-25.5 124.5,-6.5 -0.5,-6.5"/>
<text text-anchor="middle" x="62" y="-13.5" font-family="Helvetica,sans-Serif" font-size="10.00">be/src/exprs/expr&#45;test.cc</text>
</a>
</g>
</g>
<!-- Node1&#45;&gt;Node2 -->
<g id="edge1" class="edge"><title>Node1&#45;&gt;Node2</title>
<path fill="none" stroke="midnightblue" d="M107.858,-61.5094C95.3734,-49.3918 80.4499,-34.9072 71.0958,-25.8283"/>
<polygon fill="midnightblue" stroke="midnightblue" points="105.632,-64.2257 115.245,-68.679 110.507,-59.2027 105.632,-64.2257"/>
</g>
<!-- Node3 -->
<g id="node3" class="node"><title>Node3</title>
<g id="a_node3"><a xlink:href="impalad-query-executor_8cc.html" target="_top" xlink:title="be/src/testutil/impalad\l&#45;query&#45;executor.cc">
<polygon fill="white" stroke="black" points="142.5,-1 142.5,-31 255.5,-31 255.5,-1 142.5,-1"/>
<text text-anchor="start" x="150.5" y="-19" font-family="Helvetica,sans-Serif" font-size="10.00">be/src/testutil/impalad</text>
<text text-anchor="middle" x="199" y="-8" font-family="Helvetica,sans-Serif" font-size="10.00">&#45;query&#45;executor.cc</text>
</a>
</g>
</g>
<!-- Node1&#45;&gt;Node3 -->
<g id="edge2" class="edge"><title>Node1&#45;&gt;Node3</title>
<path fill="none" stroke="midnightblue" d="M152.492,-61.4855C162.843,-51.5852 174.84,-40.1092 184.057,-31.2931"/>
<polygon fill="midnightblue" stroke="midnightblue" points="149.779,-59.2375 144.972,-68.679 154.618,-64.296 149.779,-59.2375"/>
</g>
</g>
</svg>
