<?xml version="1.0" encoding="UTF-8" standalone="no"?>
<!DOCTYPE svg PUBLIC "-//W3C//DTD SVG 1.1//EN"
 "http://www.w3.org/Graphics/SVG/1.1/DTD/svg11.dtd">
<!-- Generated by graphviz version 2.36.0 (20140111.2315)
 -->
<!-- Title: be/src/testutil/in&#45;process&#45;servers.h Pages: 1 -->
<svg width="920pt" height="108pt"
 viewBox="0.00 0.00 920.00 108.00" xmlns="http://www.w3.org/2000/svg" xmlns:xlink="http://www.w3.org/1999/xlink">
<g id="graph0" class="graph" transform="scale(1 1) rotate(0) translate(4 104)">
<title>be/src/testutil/in&#45;process&#45;servers.h</title>
<polygon fill="white" stroke="none" points="-4,4 -4,-104 916,-104 916,4 -4,4"/>
<!-- Node1 -->
<g id="node1" class="node"><title>Node1</title>
<polygon fill="#bfbfbf" stroke="black" points="415,-69 415,-99 513,-99 513,-69 415,-69"/>
<text text-anchor="start" x="423" y="-87" font-family="Helvetica,sans-Serif" font-size="10.00">be/src/testutil/in</text>
<text text-anchor="middle" x="464" y="-76" font-family="Helvetica,sans-Serif" font-size="10.00">&#45;process&#45;servers.h</text>
</g>
<!-- Node2 -->
<g id="node2" class="node"><title>Node2</title>
<g id="a_node2"><a xlink:href="expr-test_8cc.html" target="_top" xlink:title="be/src/exprs/expr&#45;test.cc">
<polygon fill="white" stroke="black" points="-0.5,-6.5 -0.5,-25.5 124.5,-25.5 124.5,-6.5 -0.5,-6.5"/>
<text text-anchor="middle" x="62" y="-13.5" font-family="Helvetica,sans-Serif" font-size="10.00">be/src/exprs/expr&#45;test.cc</text>
</a>
</g>
</g>
<!-- Node1&#45;&gt;Node2 -->
<g id="edge1" class="edge"><title>Node1&#45;&gt;Node2</title>
<path fill="none" stroke="midnightblue" d="M404.521,-74.8469C338.137,-65.5123 227.607,-49.2685 133,-32 122.465,-30.0771 111.099,-27.7775 100.615,-25.5633"/>
<polygon fill="midnightblue" stroke="midnightblue" points="404.398,-78.3638 414.787,-76.2848 405.369,-71.4315 404.398,-78.3638"/>
</g>
<!-- Node3 -->
<g id="node3" class="node"><title>Node3</title>
<g id="a_node3"><a xlink:href="thrift-server-test_8cc.html" target="_top" xlink:title="be/src/rpc/thrift&#45;server\l&#45;test.cc">
<polygon fill="white" stroke="black" points="142.5,-1 142.5,-31 255.5,-31 255.5,-1 142.5,-1"/>
<text text-anchor="start" x="150.5" y="-19" font-family="Helvetica,sans-Serif" font-size="10.00">be/src/rpc/thrift&#45;server</text>
<text text-anchor="middle" x="199" y="-8" font-family="Helvetica,sans-Serif" font-size="10.00">&#45;test.cc</text>
</a>
</g>
</g>
<!-- Node1&#45;&gt;Node3 -->
<g id="edge2" class="edge"><title>Node1&#45;&gt;Node3</title>
<path fill="none" stroke="midnightblue" d="M404.933,-68.2891C360.256,-57.1618 299.297,-41.9796 255.309,-31.024"/>
<polygon fill="midnightblue" stroke="midnightblue" points="404.227,-71.72 414.777,-70.7406 405.919,-64.9275 404.227,-71.72"/>
</g>
<!-- Node4 -->
<g id="node4" class="node"><title>Node4</title>
<g id="a_node4"><a xlink:href="session-expiry-test_8cc.html" target="_top" xlink:title="be/src/service/session\l&#45;expiry&#45;test.cc">
<polygon fill="white" stroke="black" points="273.5,-1 273.5,-31 388.5,-31 388.5,-1 273.5,-1"/>
<text text-anchor="start" x="281.5" y="-19" font-family="Helvetica,sans-Serif" font-size="10.00">be/src/service/session</text>
<text text-anchor="middle" x="331" y="-8" font-family="Helvetica,sans-Serif" font-size="10.00">&#45;expiry&#45;test.cc</text>
</a>
</g>
</g>
<!-- Node1&#45;&gt;Node4 -->
<g id="edge3" class="edge"><title>Node1&#45;&gt;Node4</title>
<path fill="none" stroke="midnightblue" d="M426.395,-64.3388C405.15,-53.7964 379.022,-40.8303 359.485,-31.1352"/>
<polygon fill="midnightblue" stroke="midnightblue" points="424.955,-67.5313 435.468,-68.8413 428.066,-61.2609 424.955,-67.5313"/>
</g>
<!-- Node5 -->
<g id="node5" class="node"><title>Node5</title>
<g id="a_node5"><a xlink:href="state-store-2_80-test_8cc.html" target="_top" xlink:title="be/src/statestore/state\l&#45;store&#45;2.0&#45;test.cc">
<polygon fill="white" stroke="black" points="406.5,-1 406.5,-31 521.5,-31 521.5,-1 406.5,-1"/>
<text text-anchor="start" x="414.5" y="-19" font-family="Helvetica,sans-Serif" font-size="10.00">be/src/statestore/state</text>
<text text-anchor="middle" x="464" y="-8" font-family="Helvetica,sans-Serif" font-size="10.00">&#45;store&#45;2.0&#45;test.cc</text>
</a>
</g>
</g>
<!-- Node1&#45;&gt;Node5 -->
<g id="edge4" class="edge"><title>Node1&#45;&gt;Node5</title>
<path fill="none" stroke="midnightblue" d="M464,-58.5322C464,-49.3606 464,-39.2449 464,-31.2931"/>
<polygon fill="midnightblue" stroke="midnightblue" points="460.5,-58.6789 464,-68.679 467.5,-58.679 460.5,-58.6789"/>
</g>
<!-- Node6 -->
<g id="node6" class="node"><title>Node6</title>
<g id="a_node6"><a xlink:href="statestore-test_8cc.html" target="_top" xlink:title="be/src/statestore/statestore\l&#45;test.cc">
<polygon fill="white" stroke="black" points="539.5,-1 539.5,-31 676.5,-31 676.5,-1 539.5,-1"/>
<text text-anchor="start" x="547.5" y="-19" font-family="Helvetica,sans-Serif" font-size="10.00">be/src/statestore/statestore</text>
<text text-anchor="middle" x="608" y="-8" font-family="Helvetica,sans-Serif" font-size="10.00">&#45;test.cc</text>
</a>
</g>
</g>
<!-- Node1&#45;&gt;Node6 -->
<g id="edge5" class="edge"><title>Node1&#45;&gt;Node6</title>
<path fill="none" stroke="midnightblue" d="M504.098,-64.6218C527.209,-54.0292 555.817,-40.9173 577.159,-31.1352"/>
<polygon fill="midnightblue" stroke="midnightblue" points="502.524,-61.493 494.892,-68.8413 505.441,-67.8565 502.524,-61.493"/>
</g>
<!-- Node7 -->
<g id="node7" class="node"><title>Node7</title>
<g id="a_node7"><a xlink:href="in-process-servers_8cc.html" target="_top" xlink:title="be/src/testutil/in\l&#45;process&#45;servers.cc">
<polygon fill="white" stroke="black" points="694.5,-1 694.5,-31 797.5,-31 797.5,-1 694.5,-1"/>
<text text-anchor="start" x="702.5" y="-19" font-family="Helvetica,sans-Serif" font-size="10.00">be/src/testutil/in</text>
<text text-anchor="middle" x="746" y="-8" font-family="Helvetica,sans-Serif" font-size="10.00">&#45;process&#45;servers.cc</text>
</a>
</g>
</g>
<!-- Node1&#45;&gt;Node7 -->
<g id="edge6" class="edge"><title>Node1&#45;&gt;Node7</title>
<path fill="none" stroke="midnightblue" d="M522.988,-69.6288C567.536,-59.4721 630.16,-45.0696 685,-32 688.077,-31.2668 691.239,-30.5072 694.428,-29.7367"/>
<polygon fill="midnightblue" stroke="midnightblue" points="522.175,-66.2243 513.202,-71.8579 523.729,-73.0495 522.175,-66.2243"/>
</g>
<!-- Node8 -->
<g id="node8" class="node"><title>Node8</title>
<g id="a_node8"><a xlink:href="mini-impala-cluster_8cc.html" target="_top" xlink:title="be/src/testutil/mini\l&#45;impala&#45;cluster.cc">
<polygon fill="white" stroke="black" points="815.5,-1 815.5,-31 912.5,-31 912.5,-1 815.5,-1"/>
<text text-anchor="start" x="823.5" y="-19" font-family="Helvetica,sans-Serif" font-size="10.00">be/src/testutil/mini</text>
<text text-anchor="middle" x="864" y="-8" font-family="Helvetica,sans-Serif" font-size="10.00">&#45;impala&#45;cluster.cc</text>
</a>
</g>
</g>
<!-- Node1&#45;&gt;Node8 -->
<g id="edge7" class="edge"><title>Node1&#45;&gt;Node8</title>
<path fill="none" stroke="midnightblue" d="M523.436,-76.0608C591.918,-67.6211 707.658,-51.9917 806,-32 809.058,-31.3784 812.195,-30.6965 815.352,-29.977"/>
<polygon fill="midnightblue" stroke="midnightblue" points="522.774,-72.6156 513.272,-77.3033 523.623,-79.5639 522.774,-72.6156"/>
</g>
</g>
</svg>
