<?xml version="1.0" encoding="UTF-8" standalone="no"?>
<!DOCTYPE svg PUBLIC "-//W3C//DTD SVG 1.1//EN"
 "http://www.w3.org/Graphics/SVG/1.1/DTD/svg11.dtd">
<!-- Generated by graphviz version 2.36.0 (20140111.2315)
 -->
<!-- Title: be/src/exec/incr&#45;stats&#45;util.h Pages: 1 -->
<svg width="238pt" height="108pt"
 viewBox="0.00 0.00 238.00 108.00" xmlns="http://www.w3.org/2000/svg" xmlns:xlink="http://www.w3.org/1999/xlink">
<g id="graph0" class="graph" transform="scale(1 1) rotate(0) translate(4 104)">
<title>be/src/exec/incr&#45;stats&#45;util.h</title>
<polygon fill="white" stroke="none" points="-4,4 -4,-104 234,-104 234,4 -4,4"/>
<!-- Node1 -->
<g id="node1" class="node"><title>Node1</title>
<polygon fill="#bfbfbf" stroke="black" points="57.5,-69 57.5,-99 168.5,-99 168.5,-69 57.5,-69"/>
<text text-anchor="start" x="65.5" y="-87" font-family="Helvetica,sans-Serif" font-size="10.00">be/src/exec/incr&#45;stats</text>
<text text-anchor="middle" x="113" y="-76" font-family="Helvetica,sans-Serif" font-size="10.00">&#45;util.h</text>
</g>
<!-- Node2 -->
<g id="node2" class="node"><title>Node2</title>
<g id="a_node2"><a xlink:href="catalog-op-executor_8cc.html" target="_top" xlink:title="be/src/exec/catalog\l&#45;op&#45;executor.cc">
<polygon fill="white" stroke="black" points="0,-1 0,-31 102,-31 102,-1 0,-1"/>
<text text-anchor="start" x="8" y="-19" font-family="Helvetica,sans-Serif" font-size="10.00">be/src/exec/catalog</text>
<text text-anchor="middle" x="51" y="-8" font-family="Helvetica,sans-Serif" font-size="10.00">&#45;op&#45;executor.cc</text>
</a>
</g>
</g>
<!-- Node1&#45;&gt;Node2 -->
<g id="edge1" class="edge"><title>Node1&#45;&gt;Node2</title>
<path fill="none" stroke="midnightblue" d="M92.5154,-61.1939C83.278,-51.3605 72.6274,-40.0228 64.4268,-31.2931"/>
<polygon fill="midnightblue" stroke="midnightblue" points="90.1492,-63.7869 99.5469,-68.679 95.2511,-58.9941 90.1492,-63.7869"/>
</g>
<!-- Node3 -->
<g id="node3" class="node"><title>Node3</title>
<g id="a_node3"><a xlink:href="incr-stats-util_8cc.html" target="_top" xlink:title="be/src/exec/incr&#45;stats\l&#45;util.cc">
<polygon fill="white" stroke="black" points="119.5,-1 119.5,-31 230.5,-31 230.5,-1 119.5,-1"/>
<text text-anchor="start" x="127.5" y="-19" font-family="Helvetica,sans-Serif" font-size="10.00">be/src/exec/incr&#45;stats</text>
<text text-anchor="middle" x="175" y="-8" font-family="Helvetica,sans-Serif" font-size="10.00">&#45;util.cc</text>
</a>
</g>
</g>
<!-- Node1&#45;&gt;Node3 -->
<g id="edge2" class="edge"><title>Node1&#45;&gt;Node3</title>
<path fill="none" stroke="midnightblue" d="M133.485,-61.1939C142.722,-51.3605 153.373,-40.0228 161.573,-31.2931"/>
<polygon fill="midnightblue" stroke="midnightblue" points="130.749,-58.9941 126.453,-68.679 135.851,-63.7869 130.749,-58.9941"/>
</g>
</g>
</svg>
