<?xml version="1.0" encoding="UTF-8" standalone="no"?>
<!DOCTYPE svg PUBLIC "-//W3C//DTD SVG 1.1//EN"
 "http://www.w3.org/Graphics/SVG/1.1/DTD/svg11.dtd">
<!-- Generated by graphviz version 2.36.0 (20140111.2315)
 -->
<!-- Title: be/src/exec/incr&#45;stats&#45;util.h Pages: 1 -->
<svg width="458pt" height="108pt"
 viewBox="0.00 0.00 458.00 108.00" xmlns="http://www.w3.org/2000/svg" xmlns:xlink="http://www.w3.org/1999/xlink">
<g id="graph0" class="graph" transform="scale(1 1) rotate(0) translate(4 104)">
<title>be/src/exec/incr&#45;stats&#45;util.h</title>
<polygon fill="white" stroke="none" points="-4,4 -4,-104 454,-104 454,4 -4,4"/>
<!-- Node1 -->
<g id="node1" class="node"><title>Node1</title>
<polygon fill="#bfbfbf" stroke="black" points="201.5,-69 201.5,-99 312.5,-99 312.5,-69 201.5,-69"/>
<text text-anchor="start" x="209.5" y="-87" font-family="Helvetica,sans-Serif" font-size="10.00">be/src/exec/incr&#45;stats</text>
<text text-anchor="middle" x="257" y="-76" font-family="Helvetica,sans-Serif" font-size="10.00">&#45;util.h</text>
</g>
<!-- Node2 -->
<g id="node2" class="node"><title>Node2</title>
<polygon fill="white" stroke="#bfbfbf" points="-0.5,-1 -0.5,-31 108.5,-31 108.5,-1 -0.5,-1"/>
<text text-anchor="start" x="7.5" y="-19" font-family="Helvetica,sans-Serif" font-size="10.00">gen&#45;cpp/TCLIService</text>
<text text-anchor="middle" x="54" y="-8" font-family="Helvetica,sans-Serif" font-size="10.00">_types.h</text>
</g>
<!-- Node1&#45;&gt;Node2 -->
<g id="edge1" class="edge"><title>Node1&#45;&gt;Node2</title>
<path fill="none" stroke="midnightblue" d="M213.451,-68.8413C182.172,-58.6715 139.849,-44.9115 106.667,-34.1234"/>
<polygon fill="midnightblue" stroke="midnightblue" points="107.72,-30.7853 97.1277,-31.0218 105.556,-37.4423 107.72,-30.7853"/>
</g>
<!-- Node3 -->
<g id="node3" class="node"><title>Node3</title>
<polygon fill="white" stroke="#bfbfbf" points="126.5,-1 126.5,-31 247.5,-31 247.5,-1 126.5,-1"/>
<text text-anchor="start" x="134.5" y="-19" font-family="Helvetica,sans-Serif" font-size="10.00">gen&#45;cpp/CatalogService</text>
<text text-anchor="middle" x="187" y="-8" font-family="Helvetica,sans-Serif" font-size="10.00">_types.h</text>
</g>
<!-- Node1&#45;&gt;Node3 -->
<g id="edge2" class="edge"><title>Node1&#45;&gt;Node3</title>
<path fill="none" stroke="midnightblue" d="M241.811,-68.679C232.363,-59.7708 220.043,-48.1548 209.477,-38.1925"/>
<polygon fill="midnightblue" stroke="midnightblue" points="211.836,-35.6067 202.159,-31.2931 207.034,-40.6998 211.836,-35.6067"/>
</g>
<!-- Node4 -->
<g id="node4" class="node"><title>Node4</title>
<polygon fill="white" stroke="#bfbfbf" points="266,-1 266,-31 388,-31 388,-1 266,-1"/>
<text text-anchor="start" x="274" y="-19" font-family="Helvetica,sans-Serif" font-size="10.00">gen&#45;cpp/CatalogObjects</text>
<text text-anchor="middle" x="327" y="-8" font-family="Helvetica,sans-Serif" font-size="10.00">_types.h</text>
</g>
<!-- Node1&#45;&gt;Node4 -->
<g id="edge3" class="edge"><title>Node1&#45;&gt;Node4</title>
<path fill="none" stroke="midnightblue" d="M272.189,-68.679C281.637,-59.7708 293.957,-48.1548 304.523,-38.1925"/>
<polygon fill="midnightblue" stroke="midnightblue" points="306.966,-40.6998 311.841,-31.2931 302.164,-35.6067 306.966,-40.6998"/>
</g>
<!-- Node5 -->
<g id="node5" class="node"><title>Node5</title>
<polygon fill="white" stroke="#bfbfbf" points="406,-6.5 406,-25.5 450,-25.5 450,-6.5 406,-6.5"/>
<text text-anchor="middle" x="428" y="-13.5" font-family="Helvetica,sans-Serif" font-size="10.00">vector</text>
</g>
<!-- Node1&#45;&gt;Node5 -->
<g id="edge4" class="edge"><title>Node1&#45;&gt;Node5</title>
<path fill="none" stroke="midnightblue" d="M299.086,-68.9183C327.11,-59.2373 364.597,-45.7 397,-32 398.59,-31.3277 400.216,-30.6162 401.849,-29.883"/>
<polygon fill="midnightblue" stroke="midnightblue" points="403.509,-32.9706 411.087,-25.5663 400.546,-26.6288 403.509,-32.9706"/>
</g>
</g>
</svg>
