<?xml version="1.0" encoding="UTF-8" standalone="no"?>
<!DOCTYPE svg PUBLIC "-//W3C//DTD SVG 1.1//EN"
 "http://www.w3.org/Graphics/SVG/1.1/DTD/svg11.dtd">
<!-- Generated by graphviz version 2.36.0 (20140111.2315)
 -->
<!-- Title: Graphical Class Hierarchy Pages: 1 -->
<svg width="328pt" height="87pt"
 viewBox="0.00 0.00 328.00 87.00" xmlns="http://www.w3.org/2000/svg" xmlns:xlink="http://www.w3.org/1999/xlink">
<g id="graph0" class="graph" transform="scale(1 1) rotate(0) translate(4 83)">
<title>Graphical Class Hierarchy</title>
<polygon fill="white" stroke="none" points="-4,4 -4,-83 324,-83 324,4 -4,4"/>
<!-- Node1 -->
<g id="node1" class="node"><title>Node1</title>
<g id="a_node1"><a xlink:href="classimpala_1_1HdfsParquetScanner_1_1BaseColumnReader.html" target="_top" xlink:title="impala::HdfsParquetScanner\l::BaseColumnReader">
<polygon fill="white" stroke="black" points="0,-24 0,-54 142,-54 142,-24 0,-24"/>
<text text-anchor="start" x="8" y="-42" font-family="Helvetica,sans-Serif" font-size="10.00">impala::HdfsParquetScanner</text>
<text text-anchor="middle" x="71" y="-31" font-family="Helvetica,sans-Serif" font-size="10.00">::BaseColumnReader</text>
</a>
</g>
</g>
<!-- Node2 -->
<g id="node2" class="node"><title>Node2</title>
<g id="a_node2"><a xlink:href="classimpala_1_1HdfsParquetScanner_1_1BoolColumnReader.html" target="_top" xlink:title="impala::HdfsParquetScanner\l::BoolColumnReader">
<polygon fill="white" stroke="black" points="178,-49 178,-79 320,-79 320,-49 178,-49"/>
<text text-anchor="start" x="186" y="-67" font-family="Helvetica,sans-Serif" font-size="10.00">impala::HdfsParquetScanner</text>
<text text-anchor="middle" x="249" y="-56" font-family="Helvetica,sans-Serif" font-size="10.00">::BoolColumnReader</text>
</a>
</g>
</g>
<!-- Node1&#45;&gt;Node2 -->
<g id="edge1" class="edge"><title>Node1&#45;&gt;Node2</title>
<path fill="none" stroke="midnightblue" d="M152.101,-50.3779C160.706,-51.6003 169.412,-52.837 177.888,-54.0409"/>
<polygon fill="midnightblue" stroke="midnightblue" points="152.458,-46.8937 142.066,-48.9525 151.474,-53.8241 152.458,-46.8937"/>
</g>
<!-- Node3 -->
<g id="node3" class="node"><title>Node3</title>
<g id="a_node3"><a xlink:href="classimpala_1_1HdfsParquetScanner_1_1ColumnReader.html" target="_top" xlink:title="impala::HdfsParquetScanner\l::ColumnReader\&lt; T \&gt;">
<polygon fill="white" stroke="black" points="178,-0 178,-30 320,-30 320,-0 178,-0"/>
<text text-anchor="start" x="186" y="-18" font-family="Helvetica,sans-Serif" font-size="10.00">impala::HdfsParquetScanner</text>
<text text-anchor="middle" x="249" y="-7" font-family="Helvetica,sans-Serif" font-size="10.00">::ColumnReader&lt; T &gt;</text>
</a>
</g>
</g>
<!-- Node1&#45;&gt;Node3 -->
<g id="edge2" class="edge"><title>Node1&#45;&gt;Node3</title>
<path fill="none" stroke="midnightblue" d="M152.101,-28.0772C160.706,-26.9038 169.412,-25.7165 177.888,-24.5607"/>
<polygon fill="midnightblue" stroke="midnightblue" points="151.501,-24.6265 142.066,-29.4456 152.447,-31.5623 151.501,-24.6265"/>
</g>
</g>
</svg>
