<?xml version="1.0" encoding="UTF-8" standalone="no"?>
<!DOCTYPE svg PUBLIC "-//W3C//DTD SVG 1.1//EN"
 "http://www.w3.org/Graphics/SVG/1.1/DTD/svg11.dtd">
<!-- Generated by graphviz version 2.36.0 (20140111.2315)
 -->
<!-- Title: Graphical Class Hierarchy Pages: 1 -->
<svg width="248pt" height="252pt"
 viewBox="0.00 0.00 248.00 252.00" xmlns="http://www.w3.org/2000/svg" xmlns:xlink="http://www.w3.org/1999/xlink">
<g id="graph0" class="graph" transform="scale(1 1) rotate(0) translate(4 248)">
<title>Graphical Class Hierarchy</title>
<polygon fill="white" stroke="none" points="-4,4 -4,-248 244,-248 244,4 -4,4"/>
<!-- Node1 -->
<g id="node1" class="node"><title>Node1</title>
<g id="a_node1"><a xlink:href="classimpala_1_1Metric.html" target="_top" xlink:title="TODO: Add ToThrift() for conversion to an RPC&#45;friendly format. ">
<polygon fill="white" stroke="black" points="0,-117.5 0,-136.5 78,-136.5 78,-117.5 0,-117.5"/>
<text text-anchor="middle" x="39" y="-124.5" font-family="Helvetica,sans-Serif" font-size="10.00">impala::Metric</text>
</a>
</g>
</g>
<!-- Node2 -->
<g id="node2" class="node"><title>Node2</title>
<g id="a_node2"><a xlink:href="classimpala_1_1SetMetric.html" target="_top" xlink:title="Metric whose value is a set of items. ">
<polygon fill="white" stroke="black" points="118.5,-224.5 118.5,-243.5 235.5,-243.5 235.5,-224.5 118.5,-224.5"/>
<text text-anchor="middle" x="177" y="-231.5" font-family="Helvetica,sans-Serif" font-size="10.00">impala::SetMetric&lt; T &gt;</text>
</a>
</g>
</g>
<!-- Node1&#45;&gt;Node2 -->
<g id="edge1" class="edge"><title>Node1&#45;&gt;Node2</title>
<path fill="none" stroke="midnightblue" d="M51.0913,-145.274C63.9181,-164.937 86.7954,-195.824 114,-214 120.395,-218.273 127.767,-221.686 135.146,-224.396"/>
<polygon fill="midnightblue" stroke="midnightblue" points="53.9282,-143.211 45.6269,-136.628 48.0109,-146.951 53.9282,-143.211"/>
</g>
<!-- Node3 -->
<g id="node3" class="node"><title>Node3</title>
<g id="a_node3"><a xlink:href="classimpala_1_1SimpleMetric.html" target="_top" xlink:title="impala::SimpleMetric\l\&lt; T, metric_kind \&gt;">
<polygon fill="white" stroke="black" points="123,-175 123,-205 231,-205 231,-175 123,-175"/>
<text text-anchor="start" x="131" y="-193" font-family="Helvetica,sans-Serif" font-size="10.00">impala::SimpleMetric</text>
<text text-anchor="middle" x="177" y="-182" font-family="Helvetica,sans-Serif" font-size="10.00">&lt; T, metric_kind &gt;</text>
</a>
</g>
</g>
<!-- Node1&#45;&gt;Node3 -->
<g id="edge2" class="edge"><title>Node1&#45;&gt;Node3</title>
<path fill="none" stroke="midnightblue" d="M66.4717,-141.336C80.4547,-148.718 97.9925,-157.681 114,-165 121.389,-168.378 129.372,-171.778 137.073,-174.935"/>
<polygon fill="midnightblue" stroke="midnightblue" points="67.8932,-138.127 57.4215,-136.517 64.6032,-144.306 67.8932,-138.127"/>
</g>
<!-- Node4 -->
<g id="node4" class="node"><title>Node4</title>
<g id="a_node4"><a xlink:href="classimpala_1_1StatsMetric.html" target="_top" xlink:title="impala::StatsMetric\&lt; T \&gt;">
<polygon fill="white" stroke="black" points="114.5,-136.5 114.5,-155.5 239.5,-155.5 239.5,-136.5 114.5,-136.5"/>
<text text-anchor="middle" x="177" y="-143.5" font-family="Helvetica,sans-Serif" font-size="10.00">impala::StatsMetric&lt; T &gt;</text>
</a>
</g>
</g>
<!-- Node1&#45;&gt;Node4 -->
<g id="edge3" class="edge"><title>Node1&#45;&gt;Node4</title>
<path fill="none" stroke="midnightblue" d="M88.2872,-133.746C96.7324,-134.926 105.622,-136.168 114.369,-137.39"/>
<polygon fill="midnightblue" stroke="midnightblue" points="88.6336,-130.26 78.2455,-132.343 87.665,-137.193 88.6336,-130.26"/>
</g>
<!-- Node5 -->
<g id="node5" class="node"><title>Node5</title>
<g id="a_node5"><a xlink:href="classimpala_1_1TimerMetric.html" target="_top" xlink:title="impala::TimerMetric">
<polygon fill="white" stroke="black" points="125.5,-98.5 125.5,-117.5 228.5,-117.5 228.5,-98.5 125.5,-98.5"/>
<text text-anchor="middle" x="177" y="-105.5" font-family="Helvetica,sans-Serif" font-size="10.00">impala::TimerMetric</text>
</a>
</g>
</g>
<!-- Node1&#45;&gt;Node5 -->
<g id="edge4" class="edge"><title>Node1&#45;&gt;Node5</title>
<path fill="none" stroke="midnightblue" d="M88.4878,-120.226C100.448,-118.555 113.288,-116.761 125.348,-115.076"/>
<polygon fill="midnightblue" stroke="midnightblue" points="87.665,-116.807 78.2455,-121.657 88.6336,-123.74 87.665,-116.807"/>
</g>
<!-- Node6 -->
<g id="node6" class="node"><title>Node6</title>
<g id="a_node6"><a xlink:href="classimpala_1_1SetMetric.html" target="_top" xlink:title="impala::SetMetric\&lt;\l std::string \&gt;">
<polygon fill="white" stroke="black" points="127.5,-49 127.5,-79 226.5,-79 226.5,-49 127.5,-49"/>
<text text-anchor="start" x="135.5" y="-67" font-family="Helvetica,sans-Serif" font-size="10.00">impala::SetMetric&lt;</text>
<text text-anchor="middle" x="177" y="-56" font-family="Helvetica,sans-Serif" font-size="10.00"> std::string &gt;</text>
</a>
</g>
</g>
<!-- Node1&#45;&gt;Node6 -->
<g id="edge5" class="edge"><title>Node1&#45;&gt;Node6</title>
<path fill="none" stroke="midnightblue" d="M66.4717,-112.664C80.4547,-105.282 97.9925,-96.3189 114,-89 121.389,-85.6218 129.372,-82.2219 137.073,-79.0646"/>
<polygon fill="midnightblue" stroke="midnightblue" points="64.6032,-109.694 57.4215,-117.483 67.8932,-115.873 64.6032,-109.694"/>
</g>
<!-- Node7 -->
<g id="node7" class="node"><title>Node7</title>
<g id="a_node7"><a xlink:href="classimpala_1_1StatsMetric.html" target="_top" xlink:title="impala::StatsMetric\l\&lt; double \&gt;">
<polygon fill="white" stroke="black" points="126.5,-0 126.5,-30 227.5,-30 227.5,-0 126.5,-0"/>
<text text-anchor="start" x="134.5" y="-18" font-family="Helvetica,sans-Serif" font-size="10.00">impala::StatsMetric</text>
<text text-anchor="middle" x="177" y="-7" font-family="Helvetica,sans-Serif" font-size="10.00">&lt; double &gt;</text>
</a>
</g>
</g>
<!-- Node1&#45;&gt;Node7 -->
<g id="edge6" class="edge"><title>Node1&#45;&gt;Node7</title>
<path fill="none" stroke="midnightblue" d="M51.5479,-108.786C64.631,-89.4255 87.5982,-59.0335 114,-40 119.178,-36.2671 124.993,-32.9842 130.932,-30.1303"/>
<polygon fill="midnightblue" stroke="midnightblue" points="48.5158,-107.027 45.9476,-117.305 54.3652,-110.872 48.5158,-107.027"/>
</g>
</g>
</svg>
