<?xml version="1.0" encoding="UTF-8" standalone="no"?>
<!DOCTYPE svg PUBLIC "-//W3C//DTD SVG 1.1//EN"
 "http://www.w3.org/Graphics/SVG/1.1/DTD/svg11.dtd">
<!-- Generated by graphviz version 2.36.0 (20140111.2315)
 -->
<!-- Title: Graphical Class Hierarchy Pages: 1 -->
<svg width="380pt" height="234pt"
 viewBox="0.00 0.00 380.00 234.00" xmlns="http://www.w3.org/2000/svg" xmlns:xlink="http://www.w3.org/1999/xlink">
<g id="graph0" class="graph" transform="scale(1 1) rotate(0) translate(4 230)">
<title>Graphical Class Hierarchy</title>
<polygon fill="white" stroke="none" points="-4,4 -4,-230 376,-230 376,4 -4,4"/>
<!-- Node1 -->
<g id="node1" class="node"><title>Node1</title>
<g id="a_node1"><a xlink:href="interfacecom_1_1cloudera_1_1impala_1_1authorization_1_1Authorizeable.html" target="_top" xlink:title="com.cloudera.impala.authorization.\lAuthorizeable">
<polygon fill="white" stroke="black" points="0,-98 0,-128 168,-128 168,-98 0,-98"/>
<text text-anchor="start" x="8" y="-116" font-family="Helvetica,sans-Serif" font-size="10.00">com.cloudera.impala.authorization.</text>
<text text-anchor="middle" x="84" y="-105" font-family="Helvetica,sans-Serif" font-size="10.00">Authorizeable</text>
</a>
</g>
</g>
<!-- Node2 -->
<g id="node2" class="node"><title>Node2</title>
<g id="a_node2"><a xlink:href="classcom_1_1cloudera_1_1impala_1_1authorization_1_1AuthorizeableDb.html" target="_top" xlink:title="com.cloudera.impala.authorization.\lAuthorizeableDb">
<polygon fill="white" stroke="black" points="204,-196 204,-226 372,-226 372,-196 204,-196"/>
<text text-anchor="start" x="212" y="-214" font-family="Helvetica,sans-Serif" font-size="10.00">com.cloudera.impala.authorization.</text>
<text text-anchor="middle" x="288" y="-203" font-family="Helvetica,sans-Serif" font-size="10.00">AuthorizeableDb</text>
</a>
</g>
</g>
<!-- Node1&#45;&gt;Node2 -->
<g id="edge1" class="edge"><title>Node1&#45;&gt;Node2</title>
<path fill="none" stroke="midnightblue" d="M114.425,-134.024C137.815,-149.989 171.837,-171.583 204,-186 212.24,-189.693 221.176,-193.029 230.03,-195.971"/>
<polygon fill="midnightblue" stroke="midnightblue" points="116.224,-131.013 106.007,-128.208 112.244,-136.772 116.224,-131.013"/>
</g>
<!-- Node3 -->
<g id="node3" class="node"><title>Node3</title>
<g id="a_node3"><a xlink:href="classcom_1_1cloudera_1_1impala_1_1authorization_1_1AuthorizeableFn.html" target="_top" xlink:title="com.cloudera.impala.authorization.\lAuthorizeableFn">
<polygon fill="white" stroke="black" points="204,-147 204,-177 372,-177 372,-147 204,-147"/>
<text text-anchor="start" x="212" y="-165" font-family="Helvetica,sans-Serif" font-size="10.00">com.cloudera.impala.authorization.</text>
<text text-anchor="middle" x="288" y="-154" font-family="Helvetica,sans-Serif" font-size="10.00">AuthorizeableFn</text>
</a>
</g>
</g>
<!-- Node1&#45;&gt;Node3 -->
<g id="edge2" class="edge"><title>Node1&#45;&gt;Node3</title>
<path fill="none" stroke="midnightblue" d="M156.746,-130.404C179.092,-135.824 203.529,-141.752 225.138,-146.994"/>
<polygon fill="midnightblue" stroke="midnightblue" points="157.523,-126.991 146.979,-128.035 155.872,-133.793 157.523,-126.991"/>
</g>
<!-- Node4 -->
<g id="node4" class="node"><title>Node4</title>
<g id="a_node4"><a xlink:href="classcom_1_1cloudera_1_1impala_1_1authorization_1_1AuthorizeableServer.html" target="_top" xlink:title="com.cloudera.impala.authorization.\lAuthorizeableServer">
<polygon fill="white" stroke="black" points="204,-98 204,-128 372,-128 372,-98 204,-98"/>
<text text-anchor="start" x="212" y="-116" font-family="Helvetica,sans-Serif" font-size="10.00">com.cloudera.impala.authorization.</text>
<text text-anchor="middle" x="288" y="-105" font-family="Helvetica,sans-Serif" font-size="10.00">AuthorizeableServer</text>
</a>
</g>
</g>
<!-- Node1&#45;&gt;Node4 -->
<g id="edge3" class="edge"><title>Node1&#45;&gt;Node4</title>
<path fill="none" stroke="midnightblue" d="M178.109,-113C186.734,-113 195.435,-113 203.96,-113"/>
<polygon fill="midnightblue" stroke="midnightblue" points="178.036,-109.5 168.036,-113 178.036,-116.5 178.036,-109.5"/>
</g>
<!-- Node5 -->
<g id="node5" class="node"><title>Node5</title>
<g id="a_node5"><a xlink:href="classcom_1_1cloudera_1_1impala_1_1authorization_1_1AuthorizeableTable.html" target="_top" xlink:title="com.cloudera.impala.authorization.\lAuthorizeableTable">
<polygon fill="white" stroke="black" points="204,-49 204,-79 372,-79 372,-49 204,-49"/>
<text text-anchor="start" x="212" y="-67" font-family="Helvetica,sans-Serif" font-size="10.00">com.cloudera.impala.authorization.</text>
<text text-anchor="middle" x="288" y="-56" font-family="Helvetica,sans-Serif" font-size="10.00">AuthorizeableTable</text>
</a>
</g>
</g>
<!-- Node1&#45;&gt;Node5 -->
<g id="edge4" class="edge"><title>Node1&#45;&gt;Node5</title>
<path fill="none" stroke="midnightblue" d="M156.746,-95.5962C179.092,-90.1757 203.529,-84.248 225.138,-79.0062"/>
<polygon fill="midnightblue" stroke="midnightblue" points="155.872,-92.2066 146.979,-97.9654 157.523,-99.0093 155.872,-92.2066"/>
</g>
<!-- Node6 -->
<g id="node6" class="node"><title>Node6</title>
<g id="a_node6"><a xlink:href="classcom_1_1cloudera_1_1impala_1_1authorization_1_1AuthorizeableUri.html" target="_top" xlink:title="com.cloudera.impala.authorization.\lAuthorizeableUri">
<polygon fill="white" stroke="black" points="204,-0 204,-30 372,-30 372,-0 204,-0"/>
<text text-anchor="start" x="212" y="-18" font-family="Helvetica,sans-Serif" font-size="10.00">com.cloudera.impala.authorization.</text>
<text text-anchor="middle" x="288" y="-7" font-family="Helvetica,sans-Serif" font-size="10.00">AuthorizeableUri</text>
</a>
</g>
</g>
<!-- Node1&#45;&gt;Node6 -->
<g id="edge5" class="edge"><title>Node1&#45;&gt;Node6</title>
<path fill="none" stroke="midnightblue" d="M114.425,-91.9757C137.815,-76.011 171.837,-54.4172 204,-40 212.24,-36.3065 221.176,-32.9711 230.03,-30.0288"/>
<polygon fill="midnightblue" stroke="midnightblue" points="112.244,-89.228 106.007,-97.792 116.224,-94.987 112.244,-89.228"/>
</g>
</g>
</svg>
