<?xml version="1.0" encoding="UTF-8" standalone="no"?>
<!DOCTYPE svg PUBLIC "-//W3C//DTD SVG 1.1//EN"
 "http://www.w3.org/Graphics/SVG/1.1/DTD/svg11.dtd">
<!-- Generated by graphviz version 2.36.0 (20140111.2315)
 -->
<!-- Title: Graphical Class Hierarchy Pages: 1 -->
<svg width="554pt" height="407pt"
 viewBox="0.00 0.00 554.00 407.00" xmlns="http://www.w3.org/2000/svg" xmlns:xlink="http://www.w3.org/1999/xlink">
<g id="graph0" class="graph" transform="scale(1 1) rotate(0) translate(4 403)">
<title>Graphical Class Hierarchy</title>
<polygon fill="white" stroke="none" points="-4,4 -4,-403 550,-403 550,4 -4,4"/>
<!-- Node1 -->
<g id="node1" class="node"><title>Node1</title>
<g id="a_node1"><a xlink:href="interfacecom_1_1cloudera_1_1impala_1_1catalog_1_1CatalogObject.html" target="_top" xlink:title="com.cloudera.impala.catalog.\lCatalogObject">
<polygon fill="white" stroke="black" points="0,-232 0,-262 144,-262 144,-232 0,-232"/>
<text text-anchor="start" x="8" y="-250" font-family="Helvetica,sans-Serif" font-size="10.00">com.cloudera.impala.catalog.</text>
<text text-anchor="middle" x="72" y="-239" font-family="Helvetica,sans-Serif" font-size="10.00">CatalogObject</text>
</a>
</g>
</g>
<!-- Node2 -->
<g id="node2" class="node"><title>Node2</title>
<g id="a_node2"><a xlink:href="classcom_1_1cloudera_1_1impala_1_1catalog_1_1DataSource.html" target="_top" xlink:title="com.cloudera.impala.catalog.\lDataSource">
<polygon fill="white" stroke="black" points="190,-369 190,-399 334,-399 334,-369 190,-369"/>
<text text-anchor="start" x="198" y="-387" font-family="Helvetica,sans-Serif" font-size="10.00">com.cloudera.impala.catalog.</text>
<text text-anchor="middle" x="262" y="-376" font-family="Helvetica,sans-Serif" font-size="10.00">DataSource</text>
</a>
</g>
</g>
<!-- Node1&#45;&gt;Node2 -->
<g id="edge1" class="edge"><title>Node1&#45;&gt;Node2</title>
<path fill="none" stroke="midnightblue" d="M89.4738,-270.325C108.521,-295.647 142.149,-335.595 180,-359 186.134,-362.793 192.887,-366.049 199.797,-368.836"/>
<polygon fill="midnightblue" stroke="midnightblue" points="92.1111,-268.003 83.3616,-262.029 86.4755,-272.156 92.1111,-268.003"/>
</g>
<!-- Node3 -->
<g id="node3" class="node"><title>Node3</title>
<g id="a_node3"><a xlink:href="classcom_1_1cloudera_1_1impala_1_1catalog_1_1Db.html" target="_top" xlink:title="com.cloudera.impala.catalog.Db">
<polygon fill="white" stroke="black" points="183.5,-330.5 183.5,-349.5 340.5,-349.5 340.5,-330.5 183.5,-330.5"/>
<text text-anchor="middle" x="262" y="-337.5" font-family="Helvetica,sans-Serif" font-size="10.00">com.cloudera.impala.catalog.Db</text>
</a>
</g>
</g>
<!-- Node1&#45;&gt;Node3 -->
<g id="edge2" class="edge"><title>Node1&#45;&gt;Node3</title>
<path fill="none" stroke="midnightblue" d="M98.7304,-268.464C119.482,-284.772 150.047,-306.61 180,-320 189.521,-324.256 200.094,-327.7 210.373,-330.453"/>
<polygon fill="midnightblue" stroke="midnightblue" points="100.736,-265.586 90.7394,-262.075 96.3642,-271.053 100.736,-265.586"/>
</g>
<!-- Node5 -->
<g id="node5" class="node"><title>Node5</title>
<g id="a_node5"><a xlink:href="classcom_1_1cloudera_1_1impala_1_1catalog_1_1Function.html" target="_top" xlink:title="com.cloudera.impala.catalog.\lFunction">
<polygon fill="white" stroke="black" points="190,-281 190,-311 334,-311 334,-281 190,-281"/>
<text text-anchor="start" x="198" y="-299" font-family="Helvetica,sans-Serif" font-size="10.00">com.cloudera.impala.catalog.</text>
<text text-anchor="middle" x="262" y="-288" font-family="Helvetica,sans-Serif" font-size="10.00">Function</text>
</a>
</g>
</g>
<!-- Node1&#45;&gt;Node5 -->
<g id="edge4" class="edge"><title>Node1&#45;&gt;Node5</title>
<path fill="none" stroke="midnightblue" d="M140.614,-264.623C161.182,-269.984 183.584,-275.823 203.425,-280.994"/>
<polygon fill="midnightblue" stroke="midnightblue" points="141.243,-261.17 130.684,-262.035 139.478,-267.944 141.243,-261.17"/>
</g>
<!-- Node8 -->
<g id="node8" class="node"><title>Node8</title>
<g id="a_node8"><a xlink:href="classcom_1_1cloudera_1_1impala_1_1catalog_1_1HdfsCachePool.html" target="_top" xlink:title="com.cloudera.impala.catalog.\lHdfsCachePool">
<polygon fill="white" stroke="black" points="190,-232 190,-262 334,-262 334,-232 190,-232"/>
<text text-anchor="start" x="198" y="-250" font-family="Helvetica,sans-Serif" font-size="10.00">com.cloudera.impala.catalog.</text>
<text text-anchor="middle" x="262" y="-239" font-family="Helvetica,sans-Serif" font-size="10.00">HdfsCachePool</text>
</a>
</g>
</g>
<!-- Node1&#45;&gt;Node8 -->
<g id="edge7" class="edge"><title>Node1&#45;&gt;Node8</title>
<path fill="none" stroke="midnightblue" d="M154.36,-247C166.165,-247 178.241,-247 189.825,-247"/>
<polygon fill="midnightblue" stroke="midnightblue" points="154.075,-243.5 144.075,-247 154.075,-250.5 154.075,-243.5"/>
</g>
<!-- Node9 -->
<g id="node9" class="node"><title>Node9</title>
<g id="a_node9"><a xlink:href="classcom_1_1cloudera_1_1impala_1_1catalog_1_1Role.html" target="_top" xlink:title="com.cloudera.impala.catalog.Role">
<polygon fill="white" stroke="black" points="180,-193.5 180,-212.5 344,-212.5 344,-193.5 180,-193.5"/>
<text text-anchor="middle" x="262" y="-200.5" font-family="Helvetica,sans-Serif" font-size="10.00">com.cloudera.impala.catalog.Role</text>
</a>
</g>
</g>
<!-- Node1&#45;&gt;Node9 -->
<g id="edge8" class="edge"><title>Node1&#45;&gt;Node9</title>
<path fill="none" stroke="midnightblue" d="M146.998,-229.681C171.977,-223.835 198.931,-217.527 220.356,-212.512"/>
<polygon fill="midnightblue" stroke="midnightblue" points="146.112,-226.294 137.173,-231.981 147.708,-233.11 146.112,-226.294"/>
</g>
<!-- Node10 -->
<g id="node10" class="node"><title>Node10</title>
<g id="a_node10"><a xlink:href="classcom_1_1cloudera_1_1impala_1_1catalog_1_1RolePrivilege.html" target="_top" xlink:title="com.cloudera.impala.catalog.\lRolePrivilege">
<polygon fill="white" stroke="black" points="190,-144 190,-174 334,-174 334,-144 190,-144"/>
<text text-anchor="start" x="198" y="-162" font-family="Helvetica,sans-Serif" font-size="10.00">com.cloudera.impala.catalog.</text>
<text text-anchor="middle" x="262" y="-151" font-family="Helvetica,sans-Serif" font-size="10.00">RolePrivilege</text>
</a>
</g>
</g>
<!-- Node1&#45;&gt;Node10 -->
<g id="edge9" class="edge"><title>Node1&#45;&gt;Node10</title>
<path fill="none" stroke="midnightblue" d="M103.582,-226.402C124.448,-213.006 153.081,-195.884 180,-184 188.213,-180.374 197.11,-177.057 205.901,-174.107"/>
<polygon fill="midnightblue" stroke="midnightblue" points="101.619,-223.503 95.1425,-231.888 105.434,-229.372 101.619,-223.503"/>
</g>
<!-- Node11 -->
<g id="node11" class="node"><title>Node11</title>
<g id="a_node11"><a xlink:href="classcom_1_1cloudera_1_1impala_1_1catalog_1_1Table.html" target="_top" xlink:title="com.cloudera.impala.catalog.\lTable">
<polygon fill="white" stroke="black" points="190,-90 190,-120 334,-120 334,-90 190,-90"/>
<text text-anchor="start" x="198" y="-108" font-family="Helvetica,sans-Serif" font-size="10.00">com.cloudera.impala.catalog.</text>
<text text-anchor="middle" x="262" y="-97" font-family="Helvetica,sans-Serif" font-size="10.00">Table</text>
</a>
</g>
</g>
<!-- Node1&#45;&gt;Node11 -->
<g id="edge10" class="edge"><title>Node1&#45;&gt;Node11</title>
<path fill="none" stroke="midnightblue" d="M89.9395,-223.365C109.175,-198.068 142.76,-158.305 180,-134 188.381,-128.53 197.923,-123.937 207.444,-120.137"/>
<polygon fill="midnightblue" stroke="midnightblue" points="86.9253,-221.552 83.7515,-231.66 92.5362,-225.737 86.9253,-221.552"/>
</g>
<!-- Node4 -->
<g id="node4" class="node"><title>Node4</title>
<g id="a_node4"><a xlink:href="classcom_1_1cloudera_1_1impala_1_1catalog_1_1BuiltinsDb.html" target="_top" xlink:title="com.cloudera.impala.catalog.\lBuiltinsDb">
<polygon fill="white" stroke="black" points="391,-333 391,-363 535,-363 535,-333 391,-333"/>
<text text-anchor="start" x="399" y="-351" font-family="Helvetica,sans-Serif" font-size="10.00">com.cloudera.impala.catalog.</text>
<text text-anchor="middle" x="463" y="-340" font-family="Helvetica,sans-Serif" font-size="10.00">BuiltinsDb</text>
</a>
</g>
</g>
<!-- Node3&#45;&gt;Node4 -->
<g id="edge3" class="edge"><title>Node3&#45;&gt;Node4</title>
<path fill="none" stroke="midnightblue" d="M350.707,-343.526C364.138,-344.066 377.861,-344.618 390.876,-345.141"/>
<polygon fill="midnightblue" stroke="midnightblue" points="350.641,-340.021 340.508,-343.116 350.36,-347.015 350.641,-340.021"/>
</g>
<!-- Node6 -->
<g id="node6" class="node"><title>Node6</title>
<g id="a_node6"><a xlink:href="classcom_1_1cloudera_1_1impala_1_1catalog_1_1AggregateFunction.html" target="_top" xlink:title="com.cloudera.impala.catalog.\lAggregateFunction">
<polygon fill="white" stroke="black" points="391,-284 391,-314 535,-314 535,-284 391,-284"/>
<text text-anchor="start" x="399" y="-302" font-family="Helvetica,sans-Serif" font-size="10.00">com.cloudera.impala.catalog.</text>
<text text-anchor="middle" x="463" y="-291" font-family="Helvetica,sans-Serif" font-size="10.00">AggregateFunction</text>
</a>
</g>
</g>
<!-- Node5&#45;&gt;Node6 -->
<g id="edge5" class="edge"><title>Node5&#45;&gt;Node6</title>
<path fill="none" stroke="midnightblue" d="M344.05,-297.222C359.503,-297.455 375.571,-297.697 390.692,-297.925"/>
<polygon fill="midnightblue" stroke="midnightblue" points="344.052,-293.722 334.001,-297.07 343.947,-300.721 344.052,-293.722"/>
</g>
<!-- Node7 -->
<g id="node7" class="node"><title>Node7</title>
<g id="a_node7"><a xlink:href="classcom_1_1cloudera_1_1impala_1_1catalog_1_1ScalarFunction.html" target="_top" xlink:title="com.cloudera.impala.catalog.\lScalarFunction">
<polygon fill="white" stroke="black" points="391,-235 391,-265 535,-265 535,-235 391,-235"/>
<text text-anchor="start" x="399" y="-253" font-family="Helvetica,sans-Serif" font-size="10.00">com.cloudera.impala.catalog.</text>
<text text-anchor="middle" x="463" y="-242" font-family="Helvetica,sans-Serif" font-size="10.00">ScalarFunction</text>
</a>
</g>
</g>
<!-- Node5&#45;&gt;Node7 -->
<g id="edge6" class="edge"><title>Node5&#45;&gt;Node7</title>
<path fill="none" stroke="midnightblue" d="M338.157,-278.627C357.534,-274.148 378.224,-269.365 397.034,-265.017"/>
<polygon fill="midnightblue" stroke="midnightblue" points="337.115,-275.276 328.16,-280.938 338.691,-282.096 337.115,-275.276"/>
</g>
<!-- Node12 -->
<g id="node12" class="node"><title>Node12</title>
<g id="a_node12"><a xlink:href="classcom_1_1cloudera_1_1impala_1_1catalog_1_1DataSourceTable.html" target="_top" xlink:title="com.cloudera.impala.catalog.\lDataSourceTable">
<polygon fill="white" stroke="black" points="391,-186 391,-216 535,-216 535,-186 391,-186"/>
<text text-anchor="start" x="399" y="-204" font-family="Helvetica,sans-Serif" font-size="10.00">com.cloudera.impala.catalog.</text>
<text text-anchor="middle" x="463" y="-193" font-family="Helvetica,sans-Serif" font-size="10.00">DataSourceTable</text>
</a>
</g>
</g>
<!-- Node11&#45;&gt;Node12 -->
<g id="edge11" class="edge"><title>Node11&#45;&gt;Node12</title>
<path fill="none" stroke="midnightblue" d="M327.069,-124.324C333.004,-127.172 338.752,-130.387 344,-134 364.25,-147.943 359.422,-162.546 380,-176 385.855,-179.828 392.324,-183.093 398.984,-185.873"/>
<polygon fill="midnightblue" stroke="midnightblue" points="328.193,-120.994 317.632,-120.146 325.359,-127.395 328.193,-120.994"/>
</g>
<!-- Node13 -->
<g id="node13" class="node"><title>Node13</title>
<g id="a_node13"><a xlink:href="classcom_1_1cloudera_1_1impala_1_1catalog_1_1HBaseTable.html" target="_top" xlink:title="com.cloudera.impala.catalog.\lHBaseTable">
<polygon fill="white" stroke="black" points="391,-137 391,-167 535,-167 535,-137 391,-137"/>
<text text-anchor="start" x="399" y="-155" font-family="Helvetica,sans-Serif" font-size="10.00">com.cloudera.impala.catalog.</text>
<text text-anchor="middle" x="463" y="-144" font-family="Helvetica,sans-Serif" font-size="10.00">HBaseTable</text>
</a>
</g>
</g>
<!-- Node11&#45;&gt;Node13 -->
<g id="edge12" class="edge"><title>Node11&#45;&gt;Node13</title>
<path fill="none" stroke="midnightblue" d="M336.365,-122.327C356.725,-127.136 378.657,-132.316 398.409,-136.981"/>
<polygon fill="midnightblue" stroke="midnightblue" points="337.049,-118.893 326.512,-120 335.44,-125.705 337.049,-118.893"/>
</g>
<!-- Node14 -->
<g id="node14" class="node"><title>Node14</title>
<g id="a_node14"><a xlink:href="classcom_1_1cloudera_1_1impala_1_1catalog_1_1HdfsTable.html" target="_top" xlink:title="com.cloudera.impala.catalog.\lHdfsTable">
<polygon fill="white" stroke="black" points="391,-88 391,-118 535,-118 535,-88 391,-88"/>
<text text-anchor="start" x="399" y="-106" font-family="Helvetica,sans-Serif" font-size="10.00">com.cloudera.impala.catalog.</text>
<text text-anchor="middle" x="463" y="-95" font-family="Helvetica,sans-Serif" font-size="10.00">HdfsTable</text>
</a>
</g>
</g>
<!-- Node11&#45;&gt;Node14 -->
<g id="edge13" class="edge"><title>Node11&#45;&gt;Node14</title>
<path fill="none" stroke="midnightblue" d="M344.05,-104.185C359.503,-104.03 375.571,-103.869 390.692,-103.717"/>
<polygon fill="midnightblue" stroke="midnightblue" points="343.965,-100.686 334.001,-104.286 344.035,-107.686 343.965,-100.686"/>
</g>
<!-- Node15 -->
<g id="node15" class="node"><title>Node15</title>
<g id="a_node15"><a xlink:href="classcom_1_1cloudera_1_1impala_1_1catalog_1_1IncompleteTable.html" target="_top" xlink:title="com.cloudera.impala.catalog.\lIncompleteTable">
<polygon fill="white" stroke="black" points="391,-39 391,-69 535,-69 535,-39 391,-39"/>
<text text-anchor="start" x="399" y="-57" font-family="Helvetica,sans-Serif" font-size="10.00">com.cloudera.impala.catalog.</text>
<text text-anchor="middle" x="463" y="-46" font-family="Helvetica,sans-Serif" font-size="10.00">IncompleteTable</text>
</a>
</g>
</g>
<!-- Node11&#45;&gt;Node15 -->
<g id="edge14" class="edge"><title>Node11&#45;&gt;Node15</title>
<path fill="none" stroke="midnightblue" d="M331.494,-87.4462C354.915,-81.444 380.881,-74.7892 403.445,-69.0065"/>
<polygon fill="midnightblue" stroke="midnightblue" points="330.448,-84.1011 321.63,-89.9742 332.186,-90.8819 330.448,-84.1011"/>
</g>
<!-- Node16 -->
<g id="node16" class="node"><title>Node16</title>
<g id="a_node16"><a xlink:href="classcom_1_1cloudera_1_1impala_1_1catalog_1_1View.html" target="_top" xlink:title="com.cloudera.impala.catalog.View">
<polygon fill="white" stroke="black" points="380,-0.5 380,-19.5 546,-19.5 546,-0.5 380,-0.5"/>
<text text-anchor="middle" x="463" y="-7.5" font-family="Helvetica,sans-Serif" font-size="10.00">com.cloudera.impala.catalog.View</text>
</a>
</g>
</g>
<!-- Node11&#45;&gt;Node16 -->
<g id="edge15" class="edge"><title>Node11&#45;&gt;Node16</title>
<path fill="none" stroke="midnightblue" d="M289.839,-83.6554C312.614,-66.5367 346.792,-43.1138 380,-29 389.011,-25.1703 398.922,-22.0437 408.644,-19.5146"/>
<polygon fill="midnightblue" stroke="midnightblue" points="287.518,-81.0241 281.695,-89.8751 291.767,-86.5873 287.518,-81.0241"/>
</g>
</g>
</svg>
