<?xml version="1.0" encoding="UTF-8" standalone="no"?>
<!DOCTYPE svg PUBLIC "-//W3C//DTD SVG 1.1//EN"
 "http://www.w3.org/Graphics/SVG/1.1/DTD/svg11.dtd">
<!-- Generated by graphviz version 2.36.0 (20140111.2315)
 -->
<!-- Title: Graphical Class Hierarchy Pages: 1 -->
<svg width="336pt" height="104pt"
 viewBox="0.00 0.00 336.00 104.00" xmlns="http://www.w3.org/2000/svg" xmlns:xlink="http://www.w3.org/1999/xlink">
<g id="graph0" class="graph" transform="scale(1 1) rotate(0) translate(4 100)">
<title>Graphical Class Hierarchy</title>
<polygon fill="white" stroke="none" points="-4,4 -4,-100 332,-100 332,4 -4,4"/>
<!-- Node1 -->
<g id="node1" class="node"><title>Node1</title>
<g id="a_node1"><a xlink:href="classimpala_1_1TableDescriptor.html" target="_top" xlink:title="Base class for table descriptors. ">
<polygon fill="white" stroke="black" points="0,-38.5 0,-57.5 120,-57.5 120,-38.5 0,-38.5"/>
<text text-anchor="middle" x="60" y="-45.5" font-family="Helvetica,sans-Serif" font-size="10.00">impala::TableDescriptor</text>
</a>
</g>
</g>
<!-- Node2 -->
<g id="node2" class="node"><title>Node2</title>
<g id="a_node2"><a xlink:href="classimpala_1_1DataSourceTableDescriptor.html" target="_top" xlink:title="Descriptor for a DataSourceTable. ">
<polygon fill="white" stroke="black" points="156,-76.5 156,-95.5 328,-95.5 328,-76.5 156,-76.5"/>
<text text-anchor="middle" x="242" y="-83.5" font-family="Helvetica,sans-Serif" font-size="10.00">impala::DataSourceTableDescriptor</text>
</a>
</g>
</g>
<!-- Node1&#45;&gt;Node2 -->
<g id="edge1" class="edge"><title>Node1&#45;&gt;Node2</title>
<path fill="none" stroke="midnightblue" d="M116.331,-59.681C141.857,-65.0699 171.776,-71.3861 195.905,-76.4799"/>
<polygon fill="midnightblue" stroke="midnightblue" points="116.929,-56.2301 106.422,-57.589 115.483,-63.0792 116.929,-56.2301"/>
</g>
<!-- Node3 -->
<g id="node3" class="node"><title>Node3</title>
<g id="a_node3"><a xlink:href="classimpala_1_1HBaseTableDescriptor.html" target="_top" xlink:title="impala::HBaseTableDescriptor">
<polygon fill="white" stroke="black" points="167,-38.5 167,-57.5 317,-57.5 317,-38.5 167,-38.5"/>
<text text-anchor="middle" x="242" y="-45.5" font-family="Helvetica,sans-Serif" font-size="10.00">impala::HBaseTableDescriptor</text>
</a>
</g>
</g>
<!-- Node1&#45;&gt;Node3 -->
<g id="edge2" class="edge"><title>Node1&#45;&gt;Node3</title>
<path fill="none" stroke="midnightblue" d="M130.702,-48C142.552,-48 154.897,-48 166.857,-48"/>
<polygon fill="midnightblue" stroke="midnightblue" points="130.438,-44.5001 120.438,-48 130.438,-51.5001 130.438,-44.5001"/>
</g>
<!-- Node4 -->
<g id="node4" class="node"><title>Node4</title>
<g id="a_node4"><a xlink:href="classimpala_1_1HdfsTableDescriptor.html" target="_top" xlink:title="impala::HdfsTableDescriptor">
<polygon fill="white" stroke="black" points="171.5,-0.5 171.5,-19.5 312.5,-19.5 312.5,-0.5 171.5,-0.5"/>
<text text-anchor="middle" x="242" y="-7.5" font-family="Helvetica,sans-Serif" font-size="10.00">impala::HdfsTableDescriptor</text>
</a>
</g>
</g>
<!-- Node1&#45;&gt;Node4 -->
<g id="edge3" class="edge"><title>Node1&#45;&gt;Node4</title>
<path fill="none" stroke="midnightblue" d="M116.331,-36.319C141.857,-30.9301 171.776,-24.6139 195.905,-19.5201"/>
<polygon fill="midnightblue" stroke="midnightblue" points="115.483,-32.9208 106.422,-38.411 116.929,-39.7699 115.483,-32.9208"/>
</g>
</g>
</svg>
