<?xml version="1.0" encoding="UTF-8" standalone="no"?>
<!DOCTYPE svg PUBLIC "-//W3C//DTD SVG 1.1//EN"
 "http://www.w3.org/Graphics/SVG/1.1/DTD/svg11.dtd">
<!-- Generated by graphviz version 2.36.0 (20140111.2315)
 -->
<!-- Title: Graphical Class Hierarchy Pages: 1 -->
<svg width="270pt" height="104pt"
 viewBox="0.00 0.00 270.00 104.00" xmlns="http://www.w3.org/2000/svg" xmlns:xlink="http://www.w3.org/1999/xlink">
<g id="graph0" class="graph" transform="scale(1 1) rotate(0) translate(4 100)">
<title>Graphical Class Hierarchy</title>
<polygon fill="white" stroke="none" points="-4,4 -4,-100 266,-100 266,4 -4,4"/>
<!-- Node1 -->
<g id="node1" class="node"><title>Node1</title>
<g id="a_node1"><a xlink:href="classimpala_1_1DataSink.html" target="_top" xlink:title="Superclass of all data sinks. ">
<polygon fill="white" stroke="black" points="0,-38.5 0,-57.5 92,-57.5 92,-38.5 0,-38.5"/>
<text text-anchor="middle" x="46" y="-45.5" font-family="Helvetica,sans-Serif" font-size="10.00">impala::DataSink</text>
</a>
</g>
</g>
<!-- Node2 -->
<g id="node2" class="node"><title>Node2</title>
<g id="a_node2"><a xlink:href="classimpala_1_1DataStreamSender.html" target="_top" xlink:title="impala::DataStreamSender">
<polygon fill="white" stroke="black" points="128,-76.5 128,-95.5 262,-95.5 262,-76.5 128,-76.5"/>
<text text-anchor="middle" x="195" y="-83.5" font-family="Helvetica,sans-Serif" font-size="10.00">impala::DataStreamSender</text>
</a>
</g>
</g>
<!-- Node1&#45;&gt;Node2 -->
<g id="edge1" class="edge"><title>Node1&#45;&gt;Node2</title>
<path fill="none" stroke="midnightblue" d="M93.8548,-60.1121C114.328,-65.4044 137.99,-71.5213 157.172,-76.4799"/>
<polygon fill="midnightblue" stroke="midnightblue" points="94.652,-56.7032 84.0943,-57.589 92.9001,-63.4805 94.652,-56.7032"/>
</g>
<!-- Node3 -->
<g id="node3" class="node"><title>Node3</title>
<g id="a_node3"><a xlink:href="classimpala_1_1HBaseTableSink.html" target="_top" xlink:title="impala::HBaseTableSink">
<polygon fill="white" stroke="black" points="132.5,-38.5 132.5,-57.5 257.5,-57.5 257.5,-38.5 132.5,-38.5"/>
<text text-anchor="middle" x="195" y="-45.5" font-family="Helvetica,sans-Serif" font-size="10.00">impala::HBaseTableSink</text>
</a>
</g>
</g>
<!-- Node1&#45;&gt;Node3 -->
<g id="edge2" class="edge"><title>Node1&#45;&gt;Node3</title>
<path fill="none" stroke="midnightblue" d="M102.322,-48C112.125,-48 122.388,-48 132.353,-48"/>
<polygon fill="midnightblue" stroke="midnightblue" points="102.304,-44.5001 92.3043,-48 102.304,-51.5001 102.304,-44.5001"/>
</g>
<!-- Node4 -->
<g id="node4" class="node"><title>Node4</title>
<g id="a_node4"><a xlink:href="classimpala_1_1HdfsTableSink.html" target="_top" xlink:title="impala::HdfsTableSink">
<polygon fill="white" stroke="black" points="137,-0.5 137,-19.5 253,-19.5 253,-0.5 137,-0.5"/>
<text text-anchor="middle" x="195" y="-7.5" font-family="Helvetica,sans-Serif" font-size="10.00">impala::HdfsTableSink</text>
</a>
</g>
</g>
<!-- Node1&#45;&gt;Node4 -->
<g id="edge3" class="edge"><title>Node1&#45;&gt;Node4</title>
<path fill="none" stroke="midnightblue" d="M93.8548,-35.8879C114.328,-30.5956 137.99,-24.4787 157.172,-19.5201"/>
<polygon fill="midnightblue" stroke="midnightblue" points="92.9001,-32.5195 84.0943,-38.411 94.652,-39.2968 92.9001,-32.5195"/>
</g>
</g>
</svg>
