<?xml version="1.0" encoding="UTF-8" standalone="no"?>
<!DOCTYPE svg PUBLIC "-//W3C//DTD SVG 1.1//EN"
 "http://www.w3.org/Graphics/SVG/1.1/DTD/svg11.dtd">
<!-- Generated by graphviz version 2.36.0 (20140111.2315)
 -->
<!-- Title: Graphical Class Hierarchy Pages: 1 -->
<svg width="318pt" height="77pt"
 viewBox="0.00 0.00 318.00 77.00" xmlns="http://www.w3.org/2000/svg" xmlns:xlink="http://www.w3.org/1999/xlink">
<g id="graph0" class="graph" transform="scale(1 1) rotate(0) translate(4 73)">
<title>Graphical Class Hierarchy</title>
<polygon fill="white" stroke="none" points="-4,4 -4,-73 314,-73 314,4 -4,4"/>
<!-- Node1 -->
<g id="node1" class="node"><title>Node1</title>
<g id="a_node1"><a xlink:href="classimpala_1_1FailureDetector.html" target="_top" xlink:title="impala::FailureDetector">
<polygon fill="white" stroke="black" points="0,-22.5 0,-41.5 118,-41.5 118,-22.5 0,-22.5"/>
<text text-anchor="middle" x="59" y="-29.5" font-family="Helvetica,sans-Serif" font-size="10.00">impala::FailureDetector</text>
</a>
</g>
</g>
<!-- Node2 -->
<g id="node2" class="node"><title>Node2</title>
<g id="a_node2"><a xlink:href="classimpala_1_1MissedHeartbeatFailureDetector.html" target="_top" xlink:title="impala::MissedHeartbeatFailure\lDetector">
<polygon fill="white" stroke="black" points="154.5,-39 154.5,-69 309.5,-69 309.5,-39 154.5,-39"/>
<text text-anchor="start" x="162.5" y="-57" font-family="Helvetica,sans-Serif" font-size="10.00">impala::MissedHeartbeatFailure</text>
<text text-anchor="middle" x="232" y="-46" font-family="Helvetica,sans-Serif" font-size="10.00">Detector</text>
</a>
</g>
</g>
<!-- Node1&#45;&gt;Node2 -->
<g id="edge1" class="edge"><title>Node1&#45;&gt;Node2</title>
<path fill="none" stroke="midnightblue" d="M128.321,-40.7899C136.911,-41.895 145.742,-43.0312 154.448,-44.1512"/>
<polygon fill="midnightblue" stroke="midnightblue" points="128.735,-37.3144 118.37,-39.5096 127.842,-44.2571 128.735,-37.3144"/>
</g>
<!-- Node3 -->
<g id="node3" class="node"><title>Node3</title>
<g id="a_node3"><a xlink:href="classimpala_1_1TimeoutFailureDetector.html" target="_top" xlink:title="impala::TimeoutFailureDetector">
<polygon fill="white" stroke="black" points="155.5,-0.5 155.5,-19.5 308.5,-19.5 308.5,-0.5 155.5,-0.5"/>
<text text-anchor="middle" x="232" y="-7.5" font-family="Helvetica,sans-Serif" font-size="10.00">impala::TimeoutFailureDetector</text>
</a>
</g>
</g>
<!-- Node1&#45;&gt;Node3 -->
<g id="edge2" class="edge"><title>Node1&#45;&gt;Node3</title>
<path fill="none" stroke="midnightblue" d="M128.396,-23.2005C137.759,-21.9959 147.408,-20.7546 156.867,-19.5376"/>
<polygon fill="midnightblue" stroke="midnightblue" points="127.842,-19.7429 118.37,-24.4904 128.735,-26.6856 127.842,-19.7429"/>
</g>
</g>
</svg>
