<?xml version="1.0" encoding="UTF-8" standalone="no"?>
<!DOCTYPE svg PUBLIC "-//W3C//DTD SVG 1.1//EN"
 "http://www.w3.org/Graphics/SVG/1.1/DTD/svg11.dtd">
<!-- Generated by graphviz version 2.36.0 (20140111.2315)
 -->
<!-- Title: Graphical Class Hierarchy Pages: 1 -->
<svg width="374pt" height="241pt"
 viewBox="0.00 0.00 374.00 241.00" xmlns="http://www.w3.org/2000/svg" xmlns:xlink="http://www.w3.org/1999/xlink">
<g id="graph0" class="graph" transform="scale(1 1) rotate(0) translate(4 237)">
<title>Graphical Class Hierarchy</title>
<polygon fill="white" stroke="none" points="-4,4 -4,-237 370,-237 370,4 -4,4"/>
<!-- Node1 -->
<g id="node1" class="node"><title>Node1</title>
<g id="a_node1"><a xlink:href="classimpala__udf_1_1UdaTestHarnessBase.html" target="_top" xlink:title="impala_udf::UdaTestHarness\lBase\&lt; RESULT, INTERMEDIATE \&gt;">
<polygon fill="white" stroke="black" points="0.5,-107 0.5,-137 179.5,-137 179.5,-107 0.5,-107"/>
<text text-anchor="start" x="8.5" y="-125" font-family="Helvetica,sans-Serif" font-size="10.00">impala_udf::UdaTestHarness</text>
<text text-anchor="middle" x="90" y="-114" font-family="Helvetica,sans-Serif" font-size="10.00">Base&lt; RESULT, INTERMEDIATE &gt;</text>
</a>
</g>
</g>
<!-- Node2 -->
<g id="node2" class="node"><title>Node2</title>
<g id="a_node2"><a xlink:href="classimpala__udf_1_1UdaTestHarness.html" target="_top" xlink:title="impala_udf::UdaTestHarness\l\&lt; RESULT, INTERMEDIATE,\l INPUT \&gt;">
<polygon fill="white" stroke="black" points="216,-191.5 216,-232.5 366,-232.5 366,-191.5 216,-191.5"/>
<text text-anchor="start" x="224" y="-220.5" font-family="Helvetica,sans-Serif" font-size="10.00">impala_udf::UdaTestHarness</text>
<text text-anchor="start" x="224" y="-209.5" font-family="Helvetica,sans-Serif" font-size="10.00">&lt; RESULT, INTERMEDIATE,</text>
<text text-anchor="middle" x="291" y="-198.5" font-family="Helvetica,sans-Serif" font-size="10.00"> INPUT &gt;</text>
</a>
</g>
</g>
<!-- Node1&#45;&gt;Node2 -->
<g id="edge1" class="edge"><title>Node1&#45;&gt;Node2</title>
<path fill="none" stroke="midnightblue" d="M131.202,-141.53C155.606,-153.246 187.453,-168.291 216,-181 223.762,-184.456 232.027,-188.025 240.114,-191.457"/>
<polygon fill="midnightblue" stroke="midnightblue" points="132.431,-138.237 121.903,-137.053 129.395,-144.544 132.431,-138.237"/>
</g>
<!-- Node3 -->
<g id="node3" class="node"><title>Node3</title>
<g id="a_node3"><a xlink:href="classimpala__udf_1_1UdaTestHarness2.html" target="_top" xlink:title="impala_udf::UdaTestHarness2\l\&lt; RESULT, INTERMEDIATE,\l INPUT1, INPUT2 \&gt;">
<polygon fill="white" stroke="black" points="216,-131.5 216,-172.5 366,-172.5 366,-131.5 216,-131.5"/>
<text text-anchor="start" x="224" y="-160.5" font-family="Helvetica,sans-Serif" font-size="10.00">impala_udf::UdaTestHarness2</text>
<text text-anchor="start" x="224" y="-149.5" font-family="Helvetica,sans-Serif" font-size="10.00">&lt; RESULT, INTERMEDIATE,</text>
<text text-anchor="middle" x="291" y="-138.5" font-family="Helvetica,sans-Serif" font-size="10.00"> INPUT1, INPUT2 &gt;</text>
</a>
</g>
</g>
<!-- Node1&#45;&gt;Node3 -->
<g id="edge2" class="edge"><title>Node1&#45;&gt;Node3</title>
<path fill="none" stroke="midnightblue" d="M189.629,-136.869C198.41,-138.192 207.2,-139.518 215.725,-140.803"/>
<polygon fill="midnightblue" stroke="midnightblue" points="190.143,-133.407 179.733,-135.377 189.1,-140.329 190.143,-133.407"/>
</g>
<!-- Node4 -->
<g id="node4" class="node"><title>Node4</title>
<g id="a_node4"><a xlink:href="classimpala__udf_1_1UdaTestHarness3.html" target="_top" xlink:title="impala_udf::UdaTestHarness3\l\&lt; RESULT, INTERMEDIATE,\l INPUT1, INPUT2, INPUT3 \&gt;">
<polygon fill="white" stroke="black" points="216,-71.5 216,-112.5 366,-112.5 366,-71.5 216,-71.5"/>
<text text-anchor="start" x="224" y="-100.5" font-family="Helvetica,sans-Serif" font-size="10.00">impala_udf::UdaTestHarness3</text>
<text text-anchor="start" x="224" y="-89.5" font-family="Helvetica,sans-Serif" font-size="10.00">&lt; RESULT, INTERMEDIATE,</text>
<text text-anchor="middle" x="291" y="-78.5" font-family="Helvetica,sans-Serif" font-size="10.00"> INPUT1, INPUT2, INPUT3 &gt;</text>
</a>
</g>
</g>
<!-- Node1&#45;&gt;Node4 -->
<g id="edge3" class="edge"><title>Node1&#45;&gt;Node4</title>
<path fill="none" stroke="midnightblue" d="M189.629,-107.131C198.41,-105.808 207.2,-104.482 215.725,-103.197"/>
<polygon fill="midnightblue" stroke="midnightblue" points="189.1,-103.671 179.733,-108.623 190.143,-110.593 189.1,-103.671"/>
</g>
<!-- Node5 -->
<g id="node5" class="node"><title>Node5</title>
<g id="a_node5"><a xlink:href="classimpala__udf_1_1UdaTestHarness4.html" target="_top" xlink:title="impala_udf::UdaTestHarness4\l\&lt; RESULT, INTERMEDIATE,\l INPUT1, INPUT2, INPUT3,\l INPUT4 \&gt;">
<polygon fill="white" stroke="black" points="216,-0 216,-52 366,-52 366,-0 216,-0"/>
<text text-anchor="start" x="224" y="-40" font-family="Helvetica,sans-Serif" font-size="10.00">impala_udf::UdaTestHarness4</text>
<text text-anchor="start" x="224" y="-29" font-family="Helvetica,sans-Serif" font-size="10.00">&lt; RESULT, INTERMEDIATE,</text>
<text text-anchor="start" x="224" y="-18" font-family="Helvetica,sans-Serif" font-size="10.00"> INPUT1, INPUT2, INPUT3,</text>
<text text-anchor="middle" x="291" y="-7" font-family="Helvetica,sans-Serif" font-size="10.00"> INPUT4 &gt;</text>
</a>
</g>
</g>
<!-- Node1&#45;&gt;Node5 -->
<g id="edge4" class="edge"><title>Node1&#45;&gt;Node5</title>
<path fill="none" stroke="midnightblue" d="M131.864,-102.287C161.88,-87.8067 202.964,-67.9874 235.732,-52.1794"/>
<polygon fill="midnightblue" stroke="midnightblue" points="130.018,-99.2911 122.532,-106.789 133.06,-105.596 130.018,-99.2911"/>
</g>
</g>
</svg>
