<?xml version="1.0" encoding="UTF-8" standalone="no"?>
<!DOCTYPE svg PUBLIC "-//W3C//DTD SVG 1.1//EN"
 "http://www.w3.org/Graphics/SVG/1.1/DTD/svg11.dtd">
<!-- Generated by graphviz version 2.36.0 (20140111.2315)
 -->
<!-- Title: Graphical Class Hierarchy Pages: 1 -->
<svg width="308pt" height="66pt"
 viewBox="0.00 0.00 308.00 66.00" xmlns="http://www.w3.org/2000/svg" xmlns:xlink="http://www.w3.org/1999/xlink">
<g id="graph0" class="graph" transform="scale(1 1) rotate(0) translate(4 62)">
<title>Graphical Class Hierarchy</title>
<polygon fill="white" stroke="none" points="-4,4 -4,-62 304,-62 304,4 -4,4"/>
<!-- Node1 -->
<g id="node1" class="node"><title>Node1</title>
<g id="a_node1"><a xlink:href="classImpalaInternalServiceIf.html" target="_top" xlink:title="ImpalaInternalServiceIf">
<polygon fill="white" stroke="black" points="0.5,-19.5 0.5,-38.5 117.5,-38.5 117.5,-19.5 0.5,-19.5"/>
<text text-anchor="middle" x="59" y="-26.5" font-family="Helvetica,sans-Serif" font-size="10.00">ImpalaInternalServiceIf</text>
</a>
</g>
</g>
<!-- Node2 -->
<g id="node2" class="node"><title>Node2</title>
<g id="a_node2"><a xlink:href="classimpala_1_1ImpalaInternalService.html" target="_top" xlink:title="impala::ImpalaInternalService">
<polygon fill="white" stroke="black" points="154,-38.5 154,-57.5 300,-57.5 300,-38.5 154,-38.5"/>
<text text-anchor="middle" x="227" y="-45.5" font-family="Helvetica,sans-Serif" font-size="10.00">impala::ImpalaInternalService</text>
</a>
</g>
</g>
<!-- Node1&#45;&gt;Node2 -->
<g id="edge1" class="edge"><title>Node1&#45;&gt;Node2</title>
<path fill="none" stroke="midnightblue" d="M127.623,-36.7399C136.277,-37.7305 145.163,-38.7475 153.885,-39.7459"/>
<polygon fill="midnightblue" stroke="midnightblue" points="127.926,-33.2519 117.593,-35.592 127.13,-40.2065 127.926,-33.2519"/>
</g>
<!-- Node3 -->
<g id="node3" class="node"><title>Node3</title>
<g id="a_node3"><a xlink:href="classimpala_1_1ImpalaTestBackend.html" target="_top" xlink:title="impala::ImpalaTestBackend">
<polygon fill="white" stroke="black" points="158,-0.5 158,-19.5 296,-19.5 296,-0.5 158,-0.5"/>
<text text-anchor="middle" x="227" y="-7.5" font-family="Helvetica,sans-Serif" font-size="10.00">impala::ImpalaTestBackend</text>
</a>
</g>
</g>
<!-- Node1&#45;&gt;Node3 -->
<g id="edge2" class="edge"><title>Node1&#45;&gt;Node3</title>
<path fill="none" stroke="midnightblue" d="M127.819,-21.2376C137.761,-20.0997 148.003,-18.9274 157.949,-17.789"/>
<polygon fill="midnightblue" stroke="midnightblue" points="127.13,-17.7935 117.593,-22.408 127.926,-24.7481 127.13,-17.7935"/>
</g>
</g>
</svg>
