<?xml version="1.0" encoding="UTF-8" standalone="no"?>
<!DOCTYPE svg PUBLIC "-//W3C//DTD SVG 1.1//EN"
 "http://www.w3.org/Graphics/SVG/1.1/DTD/svg11.dtd">
<!-- Generated by graphviz version 2.36.0 (20140111.2315)
 -->
<!-- Title: Graphical Class Hierarchy Pages: 1 -->
<svg width="310pt" height="87pt"
 viewBox="0.00 0.00 310.00 87.00" xmlns="http://www.w3.org/2000/svg" xmlns:xlink="http://www.w3.org/1999/xlink">
<g id="graph0" class="graph" transform="scale(1 1) rotate(0) translate(4 83)">
<title>Graphical Class Hierarchy</title>
<polygon fill="white" stroke="none" points="-4,4 -4,-83 306,-83 306,4 -4,4"/>
<!-- Node1 -->
<g id="node1" class="node"><title>Node1</title>
<g id="a_node1"><a xlink:href="classimpala_1_1HdfsParquetTableWriter_1_1BaseColumnWriter.html" target="_top" xlink:title="impala::HdfsParquetTable\lWriter::BaseColumnWriter">
<polygon fill="white" stroke="black" points="0.5,-24 0.5,-54 131.5,-54 131.5,-24 0.5,-24"/>
<text text-anchor="start" x="8.5" y="-42" font-family="Helvetica,sans-Serif" font-size="10.00">impala::HdfsParquetTable</text>
<text text-anchor="middle" x="66" y="-31" font-family="Helvetica,sans-Serif" font-size="10.00">Writer::BaseColumnWriter</text>
</a>
</g>
</g>
<!-- Node2 -->
<g id="node2" class="node"><title>Node2</title>
<g id="a_node2"><a xlink:href="classimpala_1_1HdfsParquetTableWriter_1_1BoolColumnWriter.html" target="_top" xlink:title="impala::HdfsParquetTable\lWriter::BoolColumnWriter">
<polygon fill="white" stroke="black" points="170,-49 170,-79 300,-79 300,-49 170,-49"/>
<text text-anchor="start" x="178" y="-67" font-family="Helvetica,sans-Serif" font-size="10.00">impala::HdfsParquetTable</text>
<text text-anchor="middle" x="235" y="-56" font-family="Helvetica,sans-Serif" font-size="10.00">Writer::BoolColumnWriter</text>
</a>
</g>
</g>
<!-- Node1&#45;&gt;Node2 -->
<g id="edge1" class="edge"><title>Node1&#45;&gt;Node2</title>
<path fill="none" stroke="midnightblue" d="M141.692,-50.1814C151.099,-51.5896 160.657,-53.0204 169.88,-54.4012"/>
<polygon fill="midnightblue" stroke="midnightblue" points="141.975,-46.6848 131.567,-48.6657 140.938,-53.6077 141.975,-46.6848"/>
</g>
<!-- Node3 -->
<g id="node3" class="node"><title>Node3</title>
<g id="a_node3"><a xlink:href="classimpala_1_1HdfsParquetTableWriter_1_1ColumnWriter.html" target="_top" xlink:title="impala::HdfsParquetTable\lWriter::ColumnWriter\&lt; T \&gt;">
<polygon fill="white" stroke="black" points="168.5,-0 168.5,-30 301.5,-30 301.5,-0 168.5,-0"/>
<text text-anchor="start" x="176.5" y="-18" font-family="Helvetica,sans-Serif" font-size="10.00">impala::HdfsParquetTable</text>
<text text-anchor="middle" x="235" y="-7" font-family="Helvetica,sans-Serif" font-size="10.00">Writer::ColumnWriter&lt; T &gt;</text>
</a>
</g>
</g>
<!-- Node1&#45;&gt;Node3 -->
<g id="edge2" class="edge"><title>Node1&#45;&gt;Node3</title>
<path fill="none" stroke="midnightblue" d="M141.532,-28.2888C150.43,-27.0101 159.465,-25.7117 168.227,-24.4525"/>
<polygon fill="midnightblue" stroke="midnightblue" points="140.967,-24.834 131.567,-29.721 141.963,-31.7628 140.967,-24.834"/>
</g>
</g>
</svg>
