<?xml version="1.0" encoding="UTF-8" standalone="no"?>
<!DOCTYPE svg PUBLIC "-//W3C//DTD SVG 1.1//EN"
 "http://www.w3.org/Graphics/SVG/1.1/DTD/svg11.dtd">
<!-- Generated by graphviz version 2.36.0 (20140111.2315)
 -->
<!-- Title: Graphical Class Hierarchy Pages: 1 -->
<svg width="422pt" height="484pt"
 viewBox="0.00 0.00 422.00 484.00" xmlns="http://www.w3.org/2000/svg" xmlns:xlink="http://www.w3.org/1999/xlink">
<g id="graph0" class="graph" transform="scale(1 1) rotate(0) translate(4 480)">
<title>Graphical Class Hierarchy</title>
<polygon fill="white" stroke="none" points="-4,4 -4,-480 418,-480 418,4 -4,4"/>
<!-- Node1 -->
<g id="node1" class="node"><title>Node1</title>
<polygon fill="white" stroke="#bfbfbf" points="0,-228.5 0,-247.5 36,-247.5 36,-228.5 0,-228.5"/>
<text text-anchor="middle" x="18" y="-235.5" font-family="Helvetica,sans-Serif" font-size="10.00">Test</text>
</g>
<!-- Node2 -->
<g id="node2" class="node"><title>Node2</title>
<g id="a_node2"><a xlink:href="classimpala_1_1BufferedBlockMgrTest.html" target="_top" xlink:title="impala::BufferedBlockMgrTest">
<polygon fill="white" stroke="black" points="75.5,-456.5 75.5,-475.5 224.5,-475.5 224.5,-456.5 75.5,-456.5"/>
<text text-anchor="middle" x="150" y="-463.5" font-family="Helvetica,sans-Serif" font-size="10.00">impala::BufferedBlockMgrTest</text>
</a>
</g>
</g>
<!-- Node1&#45;&gt;Node2 -->
<g id="edge1" class="edge"><title>Node1&#45;&gt;Node2</title>
<path fill="none" stroke="midnightblue" d="M21.3869,-257.555C27.4717,-304.216 45.0152,-420.188 72,-447 75.8093,-450.785 80.245,-453.858 85.0279,-456.347"/>
<polygon fill="midnightblue" stroke="midnightblue" points="24.8443,-256.996 20.1166,-247.515 17.8997,-257.875 24.8443,-256.996"/>
</g>
<!-- Node3 -->
<g id="node3" class="node"><title>Node3</title>
<g id="a_node3"><a xlink:href="classimpala_1_1DataStreamTest.html" target="_top" xlink:title="impala::DataStreamTest">
<polygon fill="white" stroke="black" points="88.5,-418.5 88.5,-437.5 211.5,-437.5 211.5,-418.5 88.5,-418.5"/>
<text text-anchor="middle" x="150" y="-425.5" font-family="Helvetica,sans-Serif" font-size="10.00">impala::DataStreamTest</text>
</a>
</g>
</g>
<!-- Node1&#45;&gt;Node3 -->
<g id="edge2" class="edge"><title>Node1&#45;&gt;Node3</title>
<path fill="none" stroke="midnightblue" d="M19.1759,-257.936C20.6178,-293.606 28.9477,-368.401 72,-409 76.7082,-413.44 82.283,-416.89 88.2475,-419.564"/>
<polygon fill="midnightblue" stroke="midnightblue" points="22.6718,-257.729 18.9145,-247.823 15.6741,-257.91 22.6718,-257.729"/>
</g>
<!-- Node4 -->
<g id="node4" class="node"><title>Node4</title>
<g id="a_node4"><a xlink:href="classimpala_1_1DecompressorTest.html" target="_top" xlink:title="impala::DecompressorTest">
<polygon fill="white" stroke="black" points="83,-380.5 83,-399.5 217,-399.5 217,-380.5 83,-380.5"/>
<text text-anchor="middle" x="150" y="-387.5" font-family="Helvetica,sans-Serif" font-size="10.00">impala::DecompressorTest</text>
</a>
</g>
</g>
<!-- Node1&#45;&gt;Node4 -->
<g id="edge3" class="edge"><title>Node1&#45;&gt;Node4</title>
<path fill="none" stroke="midnightblue" d="M21.2493,-257.959C25.6342,-287.211 38.0849,-341.448 72,-371 76.36,-374.799 81.362,-377.863 86.6779,-380.331"/>
<polygon fill="midnightblue" stroke="midnightblue" points="24.6797,-257.201 19.8982,-247.747 17.7402,-258.119 24.6797,-257.201"/>
</g>
<!-- Node5 -->
<g id="node5" class="node"><title>Node5</title>
<g id="a_node5"><a xlink:href="classimpala_1_1DiskIoMgrTest.html" target="_top" xlink:title="impala::DiskIoMgrTest">
<polygon fill="white" stroke="black" points="92,-342.5 92,-361.5 208,-361.5 208,-342.5 92,-342.5"/>
<text text-anchor="middle" x="150" y="-349.5" font-family="Helvetica,sans-Serif" font-size="10.00">impala::DiskIoMgrTest</text>
</a>
</g>
</g>
<!-- Node1&#45;&gt;Node5 -->
<g id="edge4" class="edge"><title>Node1&#45;&gt;Node5</title>
<path fill="none" stroke="midnightblue" d="M24.5843,-257.263C31.8932,-278.989 46.8274,-313.787 72,-333 77.9105,-337.511 84.7535,-340.964 91.8728,-343.606"/>
<polygon fill="midnightblue" stroke="midnightblue" points="27.8564,-256 21.5202,-247.508 21.1781,-258.098 27.8564,-256"/>
</g>
<!-- Node6 -->
<g id="node6" class="node"><title>Node6</title>
<g id="a_node6"><a xlink:href="classimpala_1_1ExprTest.html" target="_top" xlink:title="impala::ExprTest">
<polygon fill="white" stroke="black" points="104.5,-304.5 104.5,-323.5 195.5,-323.5 195.5,-304.5 104.5,-304.5"/>
<text text-anchor="middle" x="150" y="-311.5" font-family="Helvetica,sans-Serif" font-size="10.00">impala::ExprTest</text>
</a>
</g>
</g>
<!-- Node1&#45;&gt;Node6 -->
<g id="edge5" class="edge"><title>Node1&#45;&gt;Node6</title>
<path fill="none" stroke="midnightblue" d="M31.4076,-256.155C41.0407,-268.883 55.5059,-285.295 72,-295 81.7311,-300.726 93.1285,-304.733 104.126,-307.535"/>
<polygon fill="midnightblue" stroke="midnightblue" points="33.9817,-253.742 25.2874,-247.687 28.3083,-257.842 33.9817,-253.742"/>
</g>
<!-- Node7 -->
<g id="node7" class="node"><title>Node7</title>
<g id="a_node7"><a xlink:href="classimpala_1_1GrowingTest.html" target="_top" xlink:title="impala::GrowingTest">
<polygon fill="white" stroke="black" points="96.5,-266.5 96.5,-285.5 203.5,-285.5 203.5,-266.5 96.5,-266.5"/>
<text text-anchor="middle" x="150" y="-273.5" font-family="Helvetica,sans-Serif" font-size="10.00">impala::GrowingTest</text>
</a>
</g>
</g>
<!-- Node1&#45;&gt;Node7 -->
<g id="edge6" class="edge"><title>Node1&#45;&gt;Node7</title>
<path fill="none" stroke="midnightblue" d="M45.6704,-248.162C54.0393,-251.188 63.3512,-254.39 72,-257 83.2046,-260.381 95.4575,-263.612 106.827,-266.419"/>
<polygon fill="midnightblue" stroke="midnightblue" points="46.6312,-244.786 36.0378,-244.609 44.2089,-251.354 46.6312,-244.786"/>
</g>
<!-- Node8 -->
<g id="node8" class="node"><title>Node8</title>
<g id="a_node8"><a xlink:href="classimpala_1_1HashTableTest.html" target="_top" xlink:title="impala::HashTableTest">
<polygon fill="white" stroke="black" points="91,-228.5 91,-247.5 209,-247.5 209,-228.5 91,-228.5"/>
<text text-anchor="middle" x="150" y="-235.5" font-family="Helvetica,sans-Serif" font-size="10.00">impala::HashTableTest</text>
</a>
</g>
</g>
<!-- Node1&#45;&gt;Node8 -->
<g id="edge7" class="edge"><title>Node1&#45;&gt;Node8</title>
<path fill="none" stroke="midnightblue" d="M46.3878,-238C59.3927,-238 75.4602,-238 90.9892,-238"/>
<polygon fill="midnightblue" stroke="midnightblue" points="46.263,-234.5 36.263,-238 46.263,-241.5 46.263,-234.5"/>
</g>
<!-- Node9 -->
<g id="node9" class="node"><title>Node9</title>
<g id="a_node9"><a xlink:href="classimpala_1_1OldHashTableTest.html" target="_top" xlink:title="impala::OldHashTableTest">
<polygon fill="white" stroke="black" points="83.5,-190.5 83.5,-209.5 216.5,-209.5 216.5,-190.5 83.5,-190.5"/>
<text text-anchor="middle" x="150" y="-197.5" font-family="Helvetica,sans-Serif" font-size="10.00">impala::OldHashTableTest</text>
</a>
</g>
</g>
<!-- Node1&#45;&gt;Node9 -->
<g id="edge8" class="edge"><title>Node1&#45;&gt;Node9</title>
<path fill="none" stroke="midnightblue" d="M45.6704,-227.838C54.0393,-224.812 63.3512,-221.61 72,-219 83.2046,-215.619 95.4575,-212.388 106.827,-209.581"/>
<polygon fill="midnightblue" stroke="midnightblue" points="44.2089,-224.646 36.0378,-231.391 46.6312,-231.214 44.2089,-224.646"/>
</g>
<!-- Node10 -->
<g id="node10" class="node"><title>Node10</title>
<g id="a_node10"><a xlink:href="classimpala_1_1RawValueTest.html" target="_top" xlink:title="impala::RawValueTest">
<polygon fill="white" stroke="black" points="92,-152.5 92,-171.5 208,-171.5 208,-152.5 92,-152.5"/>
<text text-anchor="middle" x="150" y="-159.5" font-family="Helvetica,sans-Serif" font-size="10.00">impala::RawValueTest</text>
</a>
</g>
</g>
<!-- Node1&#45;&gt;Node10 -->
<g id="edge9" class="edge"><title>Node1&#45;&gt;Node10</title>
<path fill="none" stroke="midnightblue" d="M31.4076,-219.845C41.0407,-207.117 55.5059,-190.705 72,-181 78.6456,-177.09 86.0684,-173.981 93.6103,-171.51"/>
<polygon fill="midnightblue" stroke="midnightblue" points="28.3083,-218.158 25.2874,-228.313 33.9817,-222.258 28.3083,-218.158"/>
</g>
<!-- Node11 -->
<g id="node11" class="node"><title>Node11</title>
<g id="a_node11"><a xlink:href="classimpala_1_1RowBatchListTest.html" target="_top" xlink:title="impala::RowBatchListTest">
<polygon fill="white" stroke="black" points="84,-114.5 84,-133.5 216,-133.5 216,-114.5 84,-114.5"/>
<text text-anchor="middle" x="150" y="-121.5" font-family="Helvetica,sans-Serif" font-size="10.00">impala::RowBatchListTest</text>
</a>
</g>
</g>
<!-- Node1&#45;&gt;Node11 -->
<g id="edge10" class="edge"><title>Node1&#45;&gt;Node11</title>
<path fill="none" stroke="midnightblue" d="M24.5843,-218.737C31.8932,-197.011 46.8274,-162.213 72,-143 77.0348,-139.157 82.7464,-136.082 88.729,-133.623"/>
<polygon fill="midnightblue" stroke="midnightblue" points="21.1781,-217.902 21.5202,-228.492 27.8564,-220 21.1781,-217.902"/>
</g>
<!-- Node12 -->
<g id="node12" class="node"><title>Node12</title>
<g id="a_node12"><a xlink:href="classimpala_1_1SimpleSchedulerTest.html" target="_top" xlink:title="impala::SimpleSchedulerTest">
<polygon fill="white" stroke="black" points="78,-76.5 78,-95.5 222,-95.5 222,-76.5 78,-76.5"/>
<text text-anchor="middle" x="150" y="-83.5" font-family="Helvetica,sans-Serif" font-size="10.00">impala::SimpleSchedulerTest</text>
</a>
</g>
</g>
<!-- Node1&#45;&gt;Node12 -->
<g id="edge11" class="edge"><title>Node1&#45;&gt;Node12</title>
<path fill="none" stroke="midnightblue" d="M21.2493,-218.041C25.6342,-188.789 38.0849,-134.552 72,-105 76.36,-101.201 81.362,-98.137 86.6779,-95.6693"/>
<polygon fill="midnightblue" stroke="midnightblue" points="17.7402,-217.881 19.8982,-228.253 24.6797,-218.799 17.7402,-217.881"/>
</g>
<!-- Node13 -->
<g id="node13" class="node"><title>Node13</title>
<g id="a_node13"><a xlink:href="classimpala_1_1SimpleTupleStreamTest.html" target="_top" xlink:title="impala::SimpleTupleStreamTest">
<polygon fill="white" stroke="black" points="72,-38.5 72,-57.5 228,-57.5 228,-38.5 72,-38.5"/>
<text text-anchor="middle" x="150" y="-45.5" font-family="Helvetica,sans-Serif" font-size="10.00">impala::SimpleTupleStreamTest</text>
</a>
</g>
</g>
<!-- Node1&#45;&gt;Node13 -->
<g id="edge12" class="edge"><title>Node1&#45;&gt;Node13</title>
<path fill="none" stroke="midnightblue" d="M19.1759,-218.064C20.6178,-182.394 28.9477,-107.599 72,-67 76.0069,-63.2214 80.6416,-60.1597 85.61,-57.6832"/>
<polygon fill="midnightblue" stroke="midnightblue" points="15.6741,-218.09 18.9145,-228.177 22.6718,-218.271 15.6741,-218.09"/>
</g>
<!-- Node17 -->
<g id="node17" class="node"><title>Node17</title>
<g id="a_node17"><a xlink:href="classimpala_1_1StateStore2Test.html" target="_top" xlink:title="impala::StateStore2Test">
<polygon fill="white" stroke="black" points="89,-0.5 89,-19.5 211,-19.5 211,-0.5 89,-0.5"/>
<text text-anchor="middle" x="150" y="-7.5" font-family="Helvetica,sans-Serif" font-size="10.00">impala::StateStore2Test</text>
</a>
</g>
</g>
<!-- Node1&#45;&gt;Node17 -->
<g id="edge16" class="edge"><title>Node1&#45;&gt;Node17</title>
<path fill="none" stroke="midnightblue" d="M21.3869,-218.445C27.4717,-171.784 45.0152,-55.8117 72,-29 76.786,-24.2446 82.5609,-20.6136 88.7708,-17.8507"/>
<polygon fill="midnightblue" stroke="midnightblue" points="17.8997,-218.125 20.1166,-228.485 24.8443,-219.004 17.8997,-218.125"/>
</g>
<!-- Node14 -->
<g id="node14" class="node"><title>Node14</title>
<g id="a_node14"><a xlink:href="classimpala_1_1MultiNullableTupleStreamTest.html" target="_top" xlink:title="impala::MultiNullableTuple\lStreamTest">
<polygon fill="white" stroke="black" points="273.5,-77 273.5,-107 404.5,-107 404.5,-77 273.5,-77"/>
<text text-anchor="start" x="281.5" y="-95" font-family="Helvetica,sans-Serif" font-size="10.00">impala::MultiNullableTuple</text>
<text text-anchor="middle" x="339" y="-84" font-family="Helvetica,sans-Serif" font-size="10.00">StreamTest</text>
</a>
</g>
</g>
<!-- Node13&#45;&gt;Node14 -->
<g id="edge13" class="edge"><title>Node13&#45;&gt;Node14</title>
<path fill="none" stroke="midnightblue" d="M201.507,-59.884C223.816,-65.1331 250.298,-71.3642 273.972,-76.9346"/>
<polygon fill="midnightblue" stroke="midnightblue" points="202.112,-56.4309 191.576,-57.5473 200.509,-63.2448 202.112,-56.4309"/>
</g>
<!-- Node15 -->
<g id="node15" class="node"><title>Node15</title>
<g id="a_node15"><a xlink:href="classimpala_1_1MultiTupleStreamTest.html" target="_top" xlink:title="impala::MultiTupleStreamTest">
<polygon fill="white" stroke="black" points="265.5,-38.5 265.5,-57.5 412.5,-57.5 412.5,-38.5 265.5,-38.5"/>
<text text-anchor="middle" x="339" y="-45.5" font-family="Helvetica,sans-Serif" font-size="10.00">impala::MultiTupleStreamTest</text>
</a>
</g>
</g>
<!-- Node13&#45;&gt;Node15 -->
<g id="edge14" class="edge"><title>Node13&#45;&gt;Node15</title>
<path fill="none" stroke="midnightblue" d="M238.277,-48C247.302,-48 256.404,-48 265.245,-48"/>
<polygon fill="midnightblue" stroke="midnightblue" points="238.14,-44.5001 228.14,-48 238.14,-51.5001 238.14,-44.5001"/>
</g>
<!-- Node16 -->
<g id="node16" class="node"><title>Node16</title>
<g id="a_node16"><a xlink:href="classimpala_1_1SimpleNullStreamTest.html" target="_top" xlink:title="impala::SimpleNullStreamTest">
<polygon fill="white" stroke="black" points="264.5,-0.5 264.5,-19.5 413.5,-19.5 413.5,-0.5 264.5,-0.5"/>
<text text-anchor="middle" x="339" y="-7.5" font-family="Helvetica,sans-Serif" font-size="10.00">impala::SimpleNullStreamTest</text>
</a>
</g>
</g>
<!-- Node13&#45;&gt;Node16 -->
<g id="edge15" class="edge"><title>Node13&#45;&gt;Node16</title>
<path fill="none" stroke="midnightblue" d="M208.131,-36.3905C234.727,-30.986 265.973,-24.6365 291.151,-19.5201"/>
<polygon fill="midnightblue" stroke="midnightblue" points="207.291,-32.9896 198.188,-38.411 208.685,-39.8494 207.291,-32.9896"/>
</g>
</g>
</svg>
