<?xml version="1.0" encoding="UTF-8" standalone="no"?>
<!DOCTYPE svg PUBLIC "-//W3C//DTD SVG 1.1//EN"
 "http://www.w3.org/Graphics/SVG/1.1/DTD/svg11.dtd">
<!-- Generated by graphviz version 2.36.0 (20140111.2315)
 -->
<!-- Title: Graphical Class Hierarchy Pages: 1 -->
<svg width="494pt" height="142pt"
 viewBox="0.00 0.00 494.00 142.00" xmlns="http://www.w3.org/2000/svg" xmlns:xlink="http://www.w3.org/1999/xlink">
<g id="graph0" class="graph" transform="scale(1 1) rotate(0) translate(4 138)">
<title>Graphical Class Hierarchy</title>
<polygon fill="white" stroke="none" points="-4,4 -4,-138 490,-138 490,4 -4,4"/>
<!-- Node1 -->
<g id="node1" class="node"><title>Node1</title>
<g id="a_node1"><a xlink:href="classimpala_1_1HdfsScanner.html" target="_top" xlink:title="impala::HdfsScanner">
<polygon fill="white" stroke="black" points="0,-38.5 0,-57.5 108,-57.5 108,-38.5 0,-38.5"/>
<text text-anchor="middle" x="54" y="-45.5" font-family="Helvetica,sans-Serif" font-size="10.00">impala::HdfsScanner</text>
</a>
</g>
</g>
<!-- Node2 -->
<g id="node2" class="node"><title>Node2</title>
<g id="a_node2"><a xlink:href="classimpala_1_1BaseSequenceScanner.html" target="_top" xlink:title="impala::BaseSequenceScanner">
<polygon fill="white" stroke="black" points="144.5,-76.5 144.5,-95.5 297.5,-95.5 297.5,-76.5 144.5,-76.5"/>
<text text-anchor="middle" x="221" y="-83.5" font-family="Helvetica,sans-Serif" font-size="10.00">impala::BaseSequenceScanner</text>
</a>
</g>
</g>
<!-- Node1&#45;&gt;Node2 -->
<g id="edge1" class="edge"><title>Node1&#45;&gt;Node2</title>
<path fill="none" stroke="midnightblue" d="M106.654,-59.8961C129.846,-65.2374 156.838,-71.4537 178.663,-76.4799"/>
<polygon fill="midnightblue" stroke="midnightblue" points="107.167,-56.4226 96.6365,-57.589 105.596,-63.2441 107.167,-56.4226"/>
</g>
<!-- Node6 -->
<g id="node6" class="node"><title>Node6</title>
<g id="a_node6"><a xlink:href="classimpala_1_1HdfsParquetScanner.html" target="_top" xlink:title="impala::HdfsParquetScanner">
<polygon fill="white" stroke="black" points="150,-38.5 150,-57.5 292,-57.5 292,-38.5 150,-38.5"/>
<text text-anchor="middle" x="221" y="-45.5" font-family="Helvetica,sans-Serif" font-size="10.00">impala::HdfsParquetScanner</text>
</a>
</g>
</g>
<!-- Node1&#45;&gt;Node6 -->
<g id="edge5" class="edge"><title>Node1&#45;&gt;Node6</title>
<path fill="none" stroke="midnightblue" d="M118.271,-48C128.595,-48 139.344,-48 149.821,-48"/>
<polygon fill="midnightblue" stroke="midnightblue" points="118.115,-44.5001 108.115,-48 118.115,-51.5001 118.115,-44.5001"/>
</g>
<!-- Node7 -->
<g id="node7" class="node"><title>Node7</title>
<g id="a_node7"><a xlink:href="classimpala_1_1HdfsTextScanner.html" target="_top" xlink:title="impala::HdfsTextScanner">
<polygon fill="white" stroke="black" points="157,-0.5 157,-19.5 285,-19.5 285,-0.5 157,-0.5"/>
<text text-anchor="middle" x="221" y="-7.5" font-family="Helvetica,sans-Serif" font-size="10.00">impala::HdfsTextScanner</text>
</a>
</g>
</g>
<!-- Node1&#45;&gt;Node7 -->
<g id="edge6" class="edge"><title>Node1&#45;&gt;Node7</title>
<path fill="none" stroke="midnightblue" d="M106.654,-36.1039C129.846,-30.7626 156.838,-24.5463 178.663,-19.5201"/>
<polygon fill="midnightblue" stroke="midnightblue" points="105.596,-32.7559 96.6365,-38.411 107.167,-39.5774 105.596,-32.7559"/>
</g>
<!-- Node3 -->
<g id="node3" class="node"><title>Node3</title>
<g id="a_node3"><a xlink:href="classimpala_1_1HdfsAvroScanner.html" target="_top" xlink:title="impala::HdfsAvroScanner">
<polygon fill="white" stroke="black" points="346,-114.5 346,-133.5 474,-133.5 474,-114.5 346,-114.5"/>
<text text-anchor="middle" x="410" y="-121.5" font-family="Helvetica,sans-Serif" font-size="10.00">impala::HdfsAvroScanner</text>
</a>
</g>
</g>
<!-- Node2&#45;&gt;Node3 -->
<g id="edge2" class="edge"><title>Node2&#45;&gt;Node3</title>
<path fill="none" stroke="midnightblue" d="M279.131,-97.6095C305.727,-103.014 336.973,-109.364 362.151,-114.48"/>
<polygon fill="midnightblue" stroke="midnightblue" points="279.685,-94.1506 269.188,-95.589 278.291,-101.01 279.685,-94.1506"/>
</g>
<!-- Node4 -->
<g id="node4" class="node"><title>Node4</title>
<g id="a_node4"><a xlink:href="classimpala_1_1HdfsRCFileScanner.html" target="_top" xlink:title="A scanner for reading RCFiles into tuples. ">
<polygon fill="white" stroke="black" points="340.5,-76.5 340.5,-95.5 479.5,-95.5 479.5,-76.5 340.5,-76.5"/>
<text text-anchor="middle" x="410" y="-83.5" font-family="Helvetica,sans-Serif" font-size="10.00">impala::HdfsRCFileScanner</text>
</a>
</g>
</g>
<!-- Node2&#45;&gt;Node4 -->
<g id="edge3" class="edge"><title>Node2&#45;&gt;Node4</title>
<path fill="none" stroke="midnightblue" d="M307.576,-86C318.59,-86 329.751,-86 340.442,-86"/>
<polygon fill="midnightblue" stroke="midnightblue" points="307.521,-82.5001 297.521,-86 307.521,-89.5001 307.521,-82.5001"/>
</g>
<!-- Node5 -->
<g id="node5" class="node"><title>Node5</title>
<g id="a_node5"><a xlink:href="classimpala_1_1HdfsSequenceScanner.html" target="_top" xlink:title="impala::HdfsSequenceScanner">
<polygon fill="white" stroke="black" points="334,-38.5 334,-57.5 486,-57.5 486,-38.5 334,-38.5"/>
<text text-anchor="middle" x="410" y="-45.5" font-family="Helvetica,sans-Serif" font-size="10.00">impala::HdfsSequenceScanner</text>
</a>
</g>
</g>
<!-- Node2&#45;&gt;Node5 -->
<g id="edge4" class="edge"><title>Node2&#45;&gt;Node5</title>
<path fill="none" stroke="midnightblue" d="M279.131,-74.3905C305.727,-68.986 336.973,-62.6365 362.151,-57.5201"/>
<polygon fill="midnightblue" stroke="midnightblue" points="278.291,-70.9896 269.188,-76.411 279.685,-77.8494 278.291,-70.9896"/>
</g>
</g>
</svg>
