<?xml version="1.0" encoding="UTF-8" standalone="no"?>
<!DOCTYPE svg PUBLIC "-//W3C//DTD SVG 1.1//EN"
 "http://www.w3.org/Graphics/SVG/1.1/DTD/svg11.dtd">
<!-- Generated by graphviz version 2.36.0 (20140111.2315)
 -->
<!-- Title: be/src/codegen/llvm&#45;codegen.cc Pages: 1 -->
<svg width="4186pt" height="288pt"
 viewBox="0.00 0.00 4186.00 288.00" xmlns="http://www.w3.org/2000/svg" xmlns:xlink="http://www.w3.org/1999/xlink">
<g id="graph0" class="graph" transform="scale(1 1) rotate(0) translate(4 284)">
<title>be/src/codegen/llvm&#45;codegen.cc</title>
<polygon fill="white" stroke="none" points="-4,4 -4,-284 4182,-284 4182,4 -4,4"/>
<!-- Node1 -->
<g id="node1" class="node"><title>Node1</title>
<polygon fill="#bfbfbf" stroke="black" points="2155,-249 2155,-279 2259,-279 2259,-249 2155,-249"/>
<text text-anchor="start" x="2163" y="-267" font-family="Helvetica,sans-Serif" font-size="10.00">be/src/codegen/llvm</text>
<text text-anchor="middle" x="2207" y="-256" font-family="Helvetica,sans-Serif" font-size="10.00">&#45;codegen.cc</text>
</g>
<!-- Node2 -->
<g id="node2" class="node"><title>Node2</title>
<g id="a_node2"><a xlink:href="llvm-codegen_8h.html" target="_top" xlink:title="codegen/llvm&#45;codegen.h">
<polygon fill="white" stroke="red" points="441,-118.5 441,-137.5 563,-137.5 563,-118.5 441,-118.5"/>
<text text-anchor="middle" x="502" y="-125.5" font-family="Helvetica,sans-Serif" font-size="10.00">codegen/llvm&#45;codegen.h</text>
</a>
</g>
</g>
<!-- Node1&#45;&gt;Node2 -->
<g id="edge1" class="edge"><title>Node1&#45;&gt;Node2</title>
<path fill="none" stroke="midnightblue" d="M2154.92,-262.727C1835.14,-260.931 149.779,-249.686 113,-212 103.067,-201.822 103.62,-190.69 113,-180 133.59,-156.534 324.199,-140.522 430.746,-133.322"/>
<polygon fill="midnightblue" stroke="midnightblue" points="431.041,-136.811 440.786,-132.653 430.576,-129.826 431.041,-136.811"/>
</g>
<!-- Node6 -->
<g id="node6" class="node"><title>Node6</title>
<g id="a_node6"><a xlink:href="logging_8h.html" target="_top" xlink:title="common/logging.h">
<polygon fill="white" stroke="red" points="3816,-0.5 3816,-19.5 3912,-19.5 3912,-0.5 3816,-0.5"/>
<text text-anchor="middle" x="3864" y="-7.5" font-family="Helvetica,sans-Serif" font-size="10.00">common/logging.h</text>
</a>
</g>
</g>
<!-- Node1&#45;&gt;Node6 -->
<g id="edge45" class="edge"><title>Node1&#45;&gt;Node6</title>
<path fill="none" stroke="midnightblue" d="M2259.37,-263.278C2534.2,-264.503 3799.46,-267.124 3860,-212 3911.53,-165.074 3885.1,-69.0542 3870.98,-29.0845"/>
<polygon fill="midnightblue" stroke="midnightblue" points="3874.22,-27.7562 3867.48,-19.5852 3867.66,-30.1786 3874.22,-27.7562"/>
</g>
<!-- Node9 -->
<g id="node9" class="node"><title>Node9</title>
<polygon fill="white" stroke="#bfbfbf" points="1034.5,-56.5 1034.5,-75.5 1153.5,-75.5 1153.5,-56.5 1034.5,-56.5"/>
<text text-anchor="middle" x="1094" y="-63.5" font-family="Helvetica,sans-Serif" font-size="10.00">boost/thread/mutex.hpp</text>
</g>
<!-- Node1&#45;&gt;Node9 -->
<g id="edge21" class="edge"><title>Node1&#45;&gt;Node9</title>
<path fill="none" stroke="midnightblue" d="M2154.59,-262.595C1851.55,-260.131 336.213,-246.114 303,-212 293.079,-201.81 293.634,-190.703 303,-180 342.717,-134.614 512.277,-152.401 572,-144 736.054,-120.924 928.829,-92.0237 1027.87,-77.0448"/>
<polygon fill="midnightblue" stroke="midnightblue" points="1028.67,-80.4646 1038.03,-75.5077 1027.62,-73.5434 1028.67,-80.4646"/>
</g>
<!-- Node16 -->
<g id="node16" class="node"><title>Node16</title>
<polygon fill="white" stroke="#bfbfbf" points="-0.5,-56.5 -0.5,-75.5 138.5,-75.5 138.5,-56.5 -0.5,-56.5"/>
<text text-anchor="middle" x="69" y="-63.5" font-family="Helvetica,sans-Serif" font-size="10.00">llvm/Support/raw_ostream.h</text>
</g>
<!-- Node1&#45;&gt;Node16 -->
<g id="edge37" class="edge"><title>Node1&#45;&gt;Node16</title>
<path fill="none" stroke="midnightblue" d="M2154.76,-262.614C1833.94,-260.139 142.973,-245.516 102,-212 64.4471,-181.282 64.2448,-117.528 66.7929,-85.7918"/>
<polygon fill="midnightblue" stroke="midnightblue" points="70.2928,-85.9642 67.792,-75.6688 63.3266,-85.2766 70.2928,-85.9642"/>
</g>
<!-- Node17 -->
<g id="node17" class="node"><title>Node17</title>
<polygon fill="white" stroke="#bfbfbf" points="312,-186.5 312,-205.5 362,-205.5 362,-186.5 312,-186.5"/>
<text text-anchor="middle" x="337" y="-193.5" font-family="Helvetica,sans-Serif" font-size="10.00">fstream</text>
</g>
<!-- Node1&#45;&gt;Node17 -->
<g id="edge18" class="edge"><title>Node1&#45;&gt;Node17</title>
<path fill="none" stroke="midnightblue" d="M2154.61,-262.75C1873.36,-261.244 548.798,-252.064 371,-212 368.109,-211.349 365.16,-210.448 362.268,-209.408"/>
<polygon fill="midnightblue" stroke="midnightblue" points="363.397,-206.088 352.819,-205.5 360.722,-212.556 363.397,-206.088"/>
</g>
<!-- Node18 -->
<g id="node18" class="node"><title>Node18</title>
<polygon fill="white" stroke="#bfbfbf" points="380,-186.5 380,-205.5 434,-205.5 434,-186.5 380,-186.5"/>
<text text-anchor="middle" x="407" y="-193.5" font-family="Helvetica,sans-Serif" font-size="10.00">iostream</text>
</g>
<!-- Node1&#45;&gt;Node18 -->
<g id="edge19" class="edge"><title>Node1&#45;&gt;Node18</title>
<path fill="none" stroke="midnightblue" d="M2154.85,-262.656C1880.74,-260.691 612.734,-249.622 442,-212 439.095,-211.36 436.129,-210.481 433.215,-209.468"/>
<polygon fill="midnightblue" stroke="midnightblue" points="434.248,-206.112 423.663,-205.653 431.652,-212.612 434.248,-206.112"/>
</g>
<!-- Node19 -->
<g id="node19" class="node"><title>Node19</title>
<polygon fill="white" stroke="#bfbfbf" points="4006,-56.5 4006,-75.5 4058,-75.5 4058,-56.5 4006,-56.5"/>
<text text-anchor="middle" x="4032" y="-63.5" font-family="Helvetica,sans-Serif" font-size="10.00">sstream</text>
</g>
<!-- Node1&#45;&gt;Node19 -->
<g id="edge20" class="edge"><title>Node1&#45;&gt;Node19</title>
<path fill="none" stroke="midnightblue" d="M2259.38,-263.321C2531.82,-264.745 3780.66,-268.139 3943,-212 3991.05,-195.383 4012.1,-189.398 4035,-144 4044.2,-125.754 4041.36,-101.868 4037.56,-85.5687"/>
<polygon fill="midnightblue" stroke="midnightblue" points="4040.88,-84.4203 4034.92,-75.6591 4034.11,-86.2232 4040.88,-84.4203"/>
</g>
<!-- Node20 -->
<g id="node20" class="node"><title>Node20</title>
<polygon fill="white" stroke="#bfbfbf" points="618.5,-186.5 618.5,-205.5 711.5,-205.5 711.5,-186.5 618.5,-186.5"/>
<text text-anchor="middle" x="665" y="-193.5" font-family="Helvetica,sans-Serif" font-size="10.00">llvm/ADT/Triple.h</text>
</g>
<!-- Node1&#45;&gt;Node20 -->
<g id="edge22" class="edge"><title>Node1&#45;&gt;Node20</title>
<path fill="none" stroke="midnightblue" d="M2154.99,-262.832C1925.87,-261.845 1005.41,-255.214 720,-212 713.919,-211.079 707.55,-209.722 701.39,-208.194"/>
<polygon fill="midnightblue" stroke="midnightblue" points="701.874,-204.701 691.31,-205.508 700.072,-211.465 701.874,-204.701"/>
</g>
<!-- Node21 -->
<g id="node21" class="node"><title>Node21</title>
<polygon fill="white" stroke="#bfbfbf" points="729,-181 729,-211 853,-211 853,-181 729,-181"/>
<text text-anchor="start" x="737" y="-199" font-family="Helvetica,sans-Serif" font-size="10.00">llvm/Analysis/Instruction</text>
<text text-anchor="middle" x="791" y="-188" font-family="Helvetica,sans-Serif" font-size="10.00">Simplify.h</text>
</g>
<!-- Node1&#45;&gt;Node21 -->
<g id="edge23" class="edge"><title>Node1&#45;&gt;Node21</title>
<path fill="none" stroke="midnightblue" d="M2154.66,-262.207C1941.69,-258.801 1138.91,-244.147 863.215,-211.975"/>
<polygon fill="midnightblue" stroke="midnightblue" points="863.584,-208.495 853.237,-210.775 862.747,-215.444 863.584,-208.495"/>
</g>
<!-- Node22 -->
<g id="node22" class="node"><title>Node22</title>
<polygon fill="white" stroke="#bfbfbf" points="871.5,-186.5 871.5,-205.5 990.5,-205.5 990.5,-186.5 871.5,-186.5"/>
<text text-anchor="middle" x="931" y="-193.5" font-family="Helvetica,sans-Serif" font-size="10.00">llvm/Analysis/Passes.h</text>
</g>
<!-- Node1&#45;&gt;Node22 -->
<g id="edge24" class="edge"><title>Node1&#45;&gt;Node22</title>
<path fill="none" stroke="midnightblue" d="M2155,-261.993C1954.1,-257.92 1228.56,-241.45 1000,-212 991.788,-210.942 983.107,-209.398 974.775,-207.698"/>
<polygon fill="midnightblue" stroke="midnightblue" points="975.352,-204.243 964.841,-205.57 973.886,-211.087 975.352,-204.243"/>
</g>
<!-- Node23 -->
<g id="node23" class="node"><title>Node23</title>
<polygon fill="white" stroke="#bfbfbf" points="1009,-186.5 1009,-205.5 1149,-205.5 1149,-186.5 1009,-186.5"/>
<text text-anchor="middle" x="1079" y="-193.5" font-family="Helvetica,sans-Serif" font-size="10.00">llvm/Bitcode/ReaderWriter.h</text>
</g>
<!-- Node1&#45;&gt;Node23 -->
<g id="edge25" class="edge"><title>Node1&#45;&gt;Node23</title>
<path fill="none" stroke="midnightblue" d="M2155,-262.979C2001.85,-262.378 1539.37,-256.703 1159,-212 1149.11,-210.837 1138.59,-209.177 1128.55,-207.382"/>
<polygon fill="midnightblue" stroke="midnightblue" points="1129.18,-203.939 1118.71,-205.555 1127.91,-210.822 1129.18,-203.939"/>
</g>
<!-- Node24 -->
<g id="node24" class="node"><title>Node24</title>
<polygon fill="white" stroke="#bfbfbf" points="1167.5,-181 1167.5,-211 1278.5,-211 1278.5,-181 1167.5,-181"/>
<text text-anchor="start" x="1175.5" y="-199" font-family="Helvetica,sans-Serif" font-size="10.00">llvm/ExecutionEngine</text>
<text text-anchor="middle" x="1223" y="-188" font-family="Helvetica,sans-Serif" font-size="10.00">/ExecutionEngine.h</text>
</g>
<!-- Node1&#45;&gt;Node24 -->
<g id="edge26" class="edge"><title>Node1&#45;&gt;Node24</title>
<path fill="none" stroke="midnightblue" d="M2154.88,-263.223C2015.67,-263.156 1623.64,-258.618 1288.94,-211.943"/>
<polygon fill="midnightblue" stroke="midnightblue" points="1288.94,-208.41 1278.55,-210.479 1287.96,-215.341 1288.94,-208.41"/>
</g>
<!-- Node25 -->
<g id="node25" class="node"><title>Node25</title>
<polygon fill="white" stroke="#bfbfbf" points="1296.5,-181 1296.5,-211 1407.5,-211 1407.5,-181 1296.5,-181"/>
<text text-anchor="start" x="1304.5" y="-199" font-family="Helvetica,sans-Serif" font-size="10.00">llvm/ExecutionEngine</text>
<text text-anchor="middle" x="1352" y="-188" font-family="Helvetica,sans-Serif" font-size="10.00">/JIT.h</text>
</g>
<!-- Node1&#45;&gt;Node25 -->
<g id="edge27" class="edge"><title>Node1&#45;&gt;Node25</title>
<path fill="none" stroke="midnightblue" d="M2154.93,-262.553C2029.54,-260.854 1700.87,-252.683 1417.61,-211.91"/>
<polygon fill="midnightblue" stroke="midnightblue" points="1417.96,-208.423 1407.56,-210.445 1416.95,-215.35 1417.96,-208.423"/>
</g>
<!-- Node26 -->
<g id="node26" class="node"><title>Node26</title>
<polygon fill="white" stroke="#bfbfbf" points="1426,-186.5 1426,-205.5 1536,-205.5 1536,-186.5 1426,-186.5"/>
<text text-anchor="middle" x="1481" y="-193.5" font-family="Helvetica,sans-Serif" font-size="10.00">llvm/IR/DataLayout.h</text>
</g>
<!-- Node1&#45;&gt;Node26 -->
<g id="edge28" class="edge"><title>Node1&#45;&gt;Node26</title>
<path fill="none" stroke="midnightblue" d="M2154.76,-261.695C2042.53,-258.298 1770.27,-246.865 1545,-212 1537.79,-210.884 1530.19,-209.39 1522.84,-207.776"/>
<polygon fill="midnightblue" stroke="midnightblue" points="1523.57,-204.352 1513.04,-205.525 1522,-211.175 1523.57,-204.352"/>
</g>
<!-- Node27 -->
<g id="node27" class="node"><title>Node27</title>
<polygon fill="white" stroke="#bfbfbf" points="1554,-186.5 1554,-205.5 1626,-205.5 1626,-186.5 1554,-186.5"/>
<text text-anchor="middle" x="1590" y="-193.5" font-family="Helvetica,sans-Serif" font-size="10.00">llvm/Linker.h</text>
</g>
<!-- Node1&#45;&gt;Node27 -->
<g id="edge29" class="edge"><title>Node1&#45;&gt;Node27</title>
<path fill="none" stroke="midnightblue" d="M2154.75,-262.391C2053.42,-260.321 1823.62,-251.285 1635,-212 1630.74,-211.112 1626.32,-209.951 1621.98,-208.668"/>
<polygon fill="midnightblue" stroke="midnightblue" points="1622.74,-205.236 1612.15,-205.522 1620.61,-211.903 1622.74,-205.236"/>
</g>
<!-- Node28 -->
<g id="node28" class="node"><title>Node28</title>
<polygon fill="white" stroke="#bfbfbf" points="1644,-186.5 1644,-205.5 1750,-205.5 1750,-186.5 1644,-186.5"/>
<text text-anchor="middle" x="1697" y="-193.5" font-family="Helvetica,sans-Serif" font-size="10.00">llvm/PassManager.h</text>
</g>
<!-- Node1&#45;&gt;Node28 -->
<g id="edge30" class="edge"><title>Node1&#45;&gt;Node28</title>
<path fill="none" stroke="midnightblue" d="M2154.75,-259.088C2071.01,-252.358 1901.75,-236.868 1760,-212 1753.3,-210.825 1746.26,-209.368 1739.4,-207.829"/>
<polygon fill="midnightblue" stroke="midnightblue" points="1740.08,-204.393 1729.54,-205.536 1738.49,-211.211 1740.08,-204.393"/>
</g>
<!-- Node29 -->
<g id="node29" class="node"><title>Node29</title>
<polygon fill="white" stroke="#bfbfbf" points="1768.5,-186.5 1768.5,-205.5 1919.5,-205.5 1919.5,-186.5 1768.5,-186.5"/>
<text text-anchor="middle" x="1844" y="-193.5" font-family="Helvetica,sans-Serif" font-size="10.00">llvm/Support/DynamicLibrary.h</text>
</g>
<!-- Node1&#45;&gt;Node29 -->
<g id="edge31" class="edge"><title>Node1&#45;&gt;Node29</title>
<path fill="none" stroke="midnightblue" d="M2154.99,-253.544C2087.63,-241.297 1970.62,-220.022 1900.94,-207.352"/>
<polygon fill="midnightblue" stroke="midnightblue" points="1901.47,-203.893 1891.01,-205.547 1900.22,-210.78 1901.47,-203.893"/>
</g>
<!-- Node30 -->
<g id="node30" class="node"><title>Node30</title>
<polygon fill="white" stroke="#bfbfbf" points="1938,-186.5 1938,-205.5 2042,-205.5 2042,-186.5 1938,-186.5"/>
<text text-anchor="middle" x="1990" y="-193.5" font-family="Helvetica,sans-Serif" font-size="10.00">llvm/Support/Host.h</text>
</g>
<!-- Node1&#45;&gt;Node30 -->
<g id="edge32" class="edge"><title>Node1&#45;&gt;Node30</title>
<path fill="none" stroke="midnightblue" d="M2160.71,-248.922C2121.12,-236.88 2064.83,-219.76 2027.87,-208.519"/>
<polygon fill="midnightblue" stroke="midnightblue" points="2028.58,-205.075 2017.99,-205.514 2026.54,-211.772 2028.58,-205.075"/>
</g>
<!-- Node31 -->
<g id="node31" class="node"><title>Node31</title>
<polygon fill="white" stroke="#bfbfbf" points="2060,-186.5 2060,-205.5 2204,-205.5 2204,-186.5 2060,-186.5"/>
<text text-anchor="middle" x="2132" y="-193.5" font-family="Helvetica,sans-Serif" font-size="10.00">llvm/Support/MemoryBuffer.h</text>
</g>
<!-- Node1&#45;&gt;Node31 -->
<g id="edge33" class="edge"><title>Node1&#45;&gt;Node31</title>
<path fill="none" stroke="midnightblue" d="M2190.73,-248.679C2178.68,-238.082 2162.29,-223.655 2149.88,-212.736"/>
<polygon fill="midnightblue" stroke="midnightblue" points="2151.85,-209.807 2142.03,-205.828 2147.23,-215.062 2151.85,-209.807"/>
</g>
<!-- Node32 -->
<g id="node32" class="node"><title>Node32</title>
<polygon fill="white" stroke="#bfbfbf" points="2222,-186.5 2222,-205.5 2344,-205.5 2344,-186.5 2222,-186.5"/>
<text text-anchor="middle" x="2283" y="-193.5" font-family="Helvetica,sans-Serif" font-size="10.00">llvm/Support/NoFolder.h</text>
</g>
<!-- Node1&#45;&gt;Node32 -->
<g id="edge34" class="edge"><title>Node1&#45;&gt;Node32</title>
<path fill="none" stroke="midnightblue" d="M2223.49,-248.679C2235.81,-237.981 2252.63,-223.377 2265.24,-212.422"/>
<polygon fill="midnightblue" stroke="midnightblue" points="2267.58,-215.028 2272.83,-205.828 2262.99,-209.743 2267.58,-215.028"/>
</g>
<!-- Node33 -->
<g id="node33" class="node"><title>Node33</title>
<polygon fill="white" stroke="#bfbfbf" points="2362.5,-186.5 2362.5,-205.5 2509.5,-205.5 2509.5,-186.5 2362.5,-186.5"/>
<text text-anchor="middle" x="2436" y="-193.5" font-family="Helvetica,sans-Serif" font-size="10.00">llvm/Support/TargetRegistry.h</text>
</g>
<!-- Node1&#45;&gt;Node33 -->
<g id="edge35" class="edge"><title>Node1&#45;&gt;Node33</title>
<path fill="none" stroke="midnightblue" d="M2255.85,-248.922C2297.81,-236.828 2357.54,-219.613 2396.53,-208.375"/>
<polygon fill="midnightblue" stroke="midnightblue" points="2397.82,-211.646 2406.46,-205.514 2395.88,-204.92 2397.82,-211.646"/>
</g>
<!-- Node34 -->
<g id="node34" class="node"><title>Node34</title>
<polygon fill="white" stroke="#bfbfbf" points="2528,-186.5 2528,-205.5 2666,-205.5 2666,-186.5 2528,-186.5"/>
<text text-anchor="middle" x="2597" y="-193.5" font-family="Helvetica,sans-Serif" font-size="10.00">llvm/Support/TargetSelect.h</text>
</g>
<!-- Node1&#45;&gt;Node34 -->
<g id="edge36" class="edge"><title>Node1&#45;&gt;Node34</title>
<path fill="none" stroke="midnightblue" d="M2259.07,-254.871C2320.89,-245.124 2427.08,-228.084 2518,-212 2526.11,-210.565 2534.68,-208.995 2543.07,-207.427"/>
<polygon fill="midnightblue" stroke="midnightblue" points="2543.98,-210.817 2553.16,-205.527 2542.69,-203.938 2543.98,-210.817"/>
</g>
<!-- Node35 -->
<g id="node35" class="node"><title>Node35</title>
<polygon fill="white" stroke="#bfbfbf" points="2684.5,-181 2684.5,-211 2791.5,-211 2791.5,-181 2684.5,-181"/>
<text text-anchor="start" x="2692.5" y="-199" font-family="Helvetica,sans-Serif" font-size="10.00">llvm/Support/system</text>
<text text-anchor="middle" x="2738" y="-188" font-family="Helvetica,sans-Serif" font-size="10.00">_error.h</text>
</g>
<!-- Node1&#45;&gt;Node35 -->
<g id="edge38" class="edge"><title>Node1&#45;&gt;Node35</title>
<path fill="none" stroke="midnightblue" d="M2259.24,-259.453C2344.16,-253.218 2517.54,-238.539 2674.19,-211.991"/>
<polygon fill="midnightblue" stroke="midnightblue" points="2675.21,-215.366 2684.48,-210.225 2674.03,-208.467 2675.21,-215.366"/>
</g>
<!-- Node36 -->
<g id="node36" class="node"><title>Node36</title>
<polygon fill="white" stroke="#bfbfbf" points="2809.5,-181 2809.5,-211 2934.5,-211 2934.5,-181 2809.5,-181"/>
<text text-anchor="start" x="2817.5" y="-199" font-family="Helvetica,sans-Serif" font-size="10.00">llvm/Target/TargetLibrary</text>
<text text-anchor="middle" x="2872" y="-188" font-family="Helvetica,sans-Serif" font-size="10.00">Info.h</text>
</g>
<!-- Node1&#45;&gt;Node36 -->
<g id="edge39" class="edge"><title>Node1&#45;&gt;Node36</title>
<path fill="none" stroke="midnightblue" d="M2259.2,-260.612C2361.1,-255.496 2593.75,-241.579 2799.18,-212"/>
<polygon fill="midnightblue" stroke="midnightblue" points="2799.86,-215.438 2809.25,-210.534 2798.85,-208.511 2799.86,-215.438"/>
</g>
<!-- Node37 -->
<g id="node37" class="node"><title>Node37</title>
<polygon fill="white" stroke="#bfbfbf" points="2953,-186.5 2953,-205.5 3069,-205.5 3069,-186.5 2953,-186.5"/>
<text text-anchor="middle" x="3011" y="-193.5" font-family="Helvetica,sans-Serif" font-size="10.00">llvm/Transforms/IPO.h</text>
</g>
<!-- Node1&#45;&gt;Node37 -->
<g id="edge40" class="edge"><title>Node1&#45;&gt;Node37</title>
<path fill="none" stroke="midnightblue" d="M2259.03,-262.035C2379.79,-259.221 2688.18,-248.727 2943,-212 2950.82,-210.872 2959.09,-209.342 2967.06,-207.688"/>
<polygon fill="midnightblue" stroke="midnightblue" points="2967.9,-211.086 2976.94,-205.549 2966.42,-204.245 2967.9,-211.086"/>
</g>
<!-- Node38 -->
<g id="node38" class="node"><title>Node38</title>
<polygon fill="white" stroke="#bfbfbf" points="3087,-181 3087,-211 3205,-211 3205,-181 3087,-181"/>
<text text-anchor="start" x="3095" y="-199" font-family="Helvetica,sans-Serif" font-size="10.00">llvm/Transforms/IPO</text>
<text text-anchor="middle" x="3146" y="-188" font-family="Helvetica,sans-Serif" font-size="10.00">/PassManagerBuilder.h</text>
</g>
<!-- Node1&#45;&gt;Node38 -->
<g id="edge41" class="edge"><title>Node1&#45;&gt;Node38</title>
<path fill="none" stroke="midnightblue" d="M2259.25,-262.761C2393.4,-261.546 2760.95,-254.406 3076.38,-211.915"/>
<polygon fill="midnightblue" stroke="midnightblue" points="3077.2,-215.336 3086.64,-210.518 3076.26,-208.4 3077.2,-215.336"/>
</g>
<!-- Node39 -->
<g id="node39" class="node"><title>Node39</title>
<polygon fill="white" stroke="#bfbfbf" points="3223,-186.5 3223,-205.5 3349,-205.5 3349,-186.5 3223,-186.5"/>
<text text-anchor="middle" x="3286" y="-193.5" font-family="Helvetica,sans-Serif" font-size="10.00">llvm/Transforms/Scalar.h</text>
</g>
<!-- Node1&#45;&gt;Node39 -->
<g id="edge42" class="edge"><title>Node1&#45;&gt;Node39</title>
<path fill="none" stroke="midnightblue" d="M2259.14,-263.197C2408.52,-263.151 2850.7,-258.757 3214,-212 3222.56,-210.899 3231.61,-209.334 3240.31,-207.627"/>
<polygon fill="midnightblue" stroke="midnightblue" points="3241.2,-211.016 3250.29,-205.577 3239.8,-204.159 3241.2,-211.016"/>
</g>
<!-- Node40 -->
<g id="node40" class="node"><title>Node40</title>
<polygon fill="white" stroke="#bfbfbf" points="3367,-181 3367,-211 3477,-211 3477,-181 3367,-181"/>
<text text-anchor="start" x="3375" y="-199" font-family="Helvetica,sans-Serif" font-size="10.00">llvm/Transforms/Utils</text>
<text text-anchor="middle" x="3422" y="-188" font-family="Helvetica,sans-Serif" font-size="10.00">/BasicBlockUtils.h</text>
</g>
<!-- Node1&#45;&gt;Node40 -->
<g id="edge43" class="edge"><title>Node1&#45;&gt;Node40</title>
<path fill="none" stroke="midnightblue" d="M2259.25,-261.976C2451.66,-258.008 3121.27,-242.399 3356.75,-211.952"/>
<polygon fill="midnightblue" stroke="midnightblue" points="3357.52,-215.381 3366.96,-210.584 3356.59,-208.443 3357.52,-215.381"/>
</g>
<!-- Node41 -->
<g id="node41" class="node"><title>Node41</title>
<polygon fill="white" stroke="#bfbfbf" points="3495,-181 3495,-211 3605,-211 3605,-181 3495,-181"/>
<text text-anchor="start" x="3503" y="-199" font-family="Helvetica,sans-Serif" font-size="10.00">llvm/Transforms/Utils</text>
<text text-anchor="middle" x="3550" y="-188" font-family="Helvetica,sans-Serif" font-size="10.00">/Cloning.h</text>
</g>
<!-- Node1&#45;&gt;Node41 -->
<g id="edge44" class="edge"><title>Node1&#45;&gt;Node41</title>
<path fill="none" stroke="midnightblue" d="M2259.25,-262.244C2465.29,-259.058 3222.62,-245.388 3484.73,-211.951"/>
<polygon fill="midnightblue" stroke="midnightblue" points="3485.51,-215.378 3494.97,-210.6 3484.59,-208.438 3485.51,-215.378"/>
</g>
<!-- Node42 -->
<g id="node42" class="node"><title>Node42</title>
<g id="a_node42"><a xlink:href="codegen-anyval_8h.html" target="_top" xlink:title="codegen/codegen&#45;anyval.h">
<polygon fill="white" stroke="black" points="122.5,-186.5 122.5,-205.5 255.5,-205.5 255.5,-186.5 122.5,-186.5"/>
<text text-anchor="middle" x="189" y="-193.5" font-family="Helvetica,sans-Serif" font-size="10.00">codegen/codegen&#45;anyval.h</text>
</a>
</g>
</g>
<!-- Node1&#45;&gt;Node42 -->
<g id="edge46" class="edge"><title>Node1&#45;&gt;Node42</title>
<path fill="none" stroke="midnightblue" d="M2154.92,-262.734C1885.81,-261.192 650.769,-252.019 270,-212 259.759,-210.924 248.872,-209.266 238.511,-207.44"/>
<polygon fill="midnightblue" stroke="midnightblue" points="238.838,-203.941 228.37,-205.572 237.571,-210.825 238.838,-203.941"/>
</g>
<!-- Node43 -->
<g id="node43" class="node"><title>Node43</title>
<g id="a_node43"><a xlink:href="subexpr-elimination_8h.html" target="_top" xlink:title="codegen/subexpr&#45;elimination.h">
<polygon fill="white" stroke="black" points="451.5,-186.5 451.5,-205.5 600.5,-205.5 600.5,-186.5 451.5,-186.5"/>
<text text-anchor="middle" x="526" y="-193.5" font-family="Helvetica,sans-Serif" font-size="10.00">codegen/subexpr&#45;elimination.h</text>
</a>
</g>
</g>
<!-- Node1&#45;&gt;Node43 -->
<g id="edge48" class="edge"><title>Node1&#45;&gt;Node43</title>
<path fill="none" stroke="midnightblue" d="M2154.84,-262.367C1915.3,-259.3 919.019,-244.781 609,-212 598.406,-210.88 587.131,-209.185 576.416,-207.332"/>
<polygon fill="midnightblue" stroke="midnightblue" points="576.818,-203.849 566.356,-205.522 575.578,-210.738 576.818,-203.849"/>
</g>
<!-- Node44 -->
<g id="node44" class="node"><title>Node44</title>
<g id="a_node44"><a xlink:href="instruction-counter_8h.html" target="_top" xlink:title="codegen/instruction\l&#45;counter.h">
<polygon fill="white" stroke="red" points="3925.5,-113 3925.5,-143 4026.5,-143 4026.5,-113 3925.5,-113"/>
<text text-anchor="start" x="3933.5" y="-131" font-family="Helvetica,sans-Serif" font-size="10.00">codegen/instruction</text>
<text text-anchor="middle" x="3976" y="-120" font-family="Helvetica,sans-Serif" font-size="10.00">&#45;counter.h</text>
</a>
</g>
</g>
<!-- Node1&#45;&gt;Node44 -->
<g id="edge51" class="edge"><title>Node1&#45;&gt;Node44</title>
<path fill="none" stroke="midnightblue" d="M2259.15,-262.681C2537.22,-260.827 3835.56,-250.147 3911,-212 3935.98,-199.366 3954.32,-172.196 3965.03,-152.372"/>
<polygon fill="midnightblue" stroke="midnightblue" points="3968.22,-153.821 3969.67,-143.326 3961.99,-150.625 3968.22,-153.821"/>
</g>
<!-- Node45 -->
<g id="node45" class="node"><title>Node45</title>
<polygon fill="white" stroke="#bfbfbf" points="3737.5,-181 3737.5,-211 3830.5,-211 3830.5,-181 3737.5,-181"/>
<text text-anchor="start" x="3745.5" y="-199" font-family="Helvetica,sans-Serif" font-size="10.00">impala&#45;ir/impala&#45;ir</text>
<text text-anchor="middle" x="3784" y="-188" font-family="Helvetica,sans-Serif" font-size="10.00">&#45;names.h</text>
</g>
<!-- Node1&#45;&gt;Node45 -->
<g id="edge56" class="edge"><title>Node1&#45;&gt;Node45</title>
<path fill="none" stroke="midnightblue" d="M2259.22,-262.697C2491.37,-261.125 3431.16,-252.345 3723,-212 3724.31,-211.819 3725.63,-211.622 3726.95,-211.411"/>
<polygon fill="midnightblue" stroke="midnightblue" points="3728.02,-214.774 3737.23,-209.539 3726.77,-207.887 3728.02,-214.774"/>
</g>
<!-- Node46 -->
<g id="node46" class="node"><title>Node46</title>
<g id="a_node46"><a xlink:href="hdfs-fs-cache_8h.html" target="_top" xlink:title="runtime/hdfs&#45;fs&#45;cache.h">
<polygon fill="white" stroke="red" points="1836.5,-118.5 1836.5,-137.5 1955.5,-137.5 1955.5,-118.5 1836.5,-118.5"/>
<text text-anchor="middle" x="1896" y="-125.5" font-family="Helvetica,sans-Serif" font-size="10.00">runtime/hdfs&#45;fs&#45;cache.h</text>
</a>
</g>
</g>
<!-- Node1&#45;&gt;Node46 -->
<g id="edge57" class="edge"><title>Node1&#45;&gt;Node46</title>
<path fill="none" stroke="midnightblue" d="M2259.29,-263.112C2508.55,-263.393 3566.12,-261.649 3614,-212 3623.87,-201.763 3623.91,-190.205 3614,-180 3610.35,-176.24 2288.25,-139.754 1966.13,-130.919"/>
<polygon fill="midnightblue" stroke="midnightblue" points="1966.09,-127.417 1956,-130.641 1965.9,-134.414 1966.09,-127.417"/>
</g>
<!-- Node47 -->
<g id="node47" class="node"><title>Node47</title>
<g id="a_node47"><a xlink:href="cpu-info_8h.html" target="_top" xlink:title="util/cpu&#45;info.h">
<polygon fill="white" stroke="red" points="3793.5,-56.5 3793.5,-75.5 3868.5,-75.5 3868.5,-56.5 3793.5,-56.5"/>
<text text-anchor="middle" x="3831" y="-63.5" font-family="Helvetica,sans-Serif" font-size="10.00">util/cpu&#45;info.h</text>
</a>
</g>
</g>
<!-- Node1&#45;&gt;Node47 -->
<g id="edge62" class="edge"><title>Node1&#45;&gt;Node47</title>
<path fill="none" stroke="midnightblue" d="M2259.38,-262.356C2535.53,-258.838 3810.86,-241.038 3839,-212 3871.96,-177.992 3852.24,-115.818 3839.41,-85.1256"/>
<polygon fill="midnightblue" stroke="midnightblue" points="3842.48,-83.4242 3835.25,-75.6801 3836.07,-86.2429 3842.48,-83.4242"/>
</g>
<!-- Node48 -->
<g id="node48" class="node"><title>Node48</title>
<g id="a_node48"><a xlink:href="hdfs-util_8h.html" target="_top" xlink:title="util/hdfs&#45;util.h">
<polygon fill="white" stroke="red" points="2471.5,-118.5 2471.5,-137.5 2546.5,-137.5 2546.5,-118.5 2471.5,-118.5"/>
<text text-anchor="middle" x="2509" y="-125.5" font-family="Helvetica,sans-Serif" font-size="10.00">util/hdfs&#45;util.h</text>
</a>
</g>
</g>
<!-- Node1&#45;&gt;Node48 -->
<g id="edge65" class="edge"><title>Node1&#45;&gt;Node48</title>
<path fill="none" stroke="midnightblue" d="M2259.25,-263.157C2512.02,-263.665 3597.89,-262.876 3647,-212 3656.88,-201.767 3656.83,-190.279 3647,-180 3608.78,-140.027 2768.23,-130.97 2556.89,-129.321"/>
<polygon fill="midnightblue" stroke="midnightblue" points="2556.75,-125.82 2546.73,-129.244 2556.7,-132.82 2556.75,-125.82"/>
</g>
<!-- Node49 -->
<g id="node49" class="node"><title>Node49</title>
<g id="a_node49"><a xlink:href="path-builder_8h.html" target="_top" xlink:title="util/path&#45;builder.h">
<polygon fill="white" stroke="black" points="3600.5,-118.5 3600.5,-137.5 3691.5,-137.5 3691.5,-118.5 3600.5,-118.5"/>
<text text-anchor="middle" x="3646" y="-125.5" font-family="Helvetica,sans-Serif" font-size="10.00">util/path&#45;builder.h</text>
</a>
</g>
</g>
<!-- Node1&#45;&gt;Node49 -->
<g id="edge68" class="edge"><title>Node1&#45;&gt;Node49</title>
<path fill="none" stroke="midnightblue" d="M2259.02,-263.179C2513.19,-263.804 3614.25,-263.522 3664,-212 3680.92,-194.477 3668.51,-165.005 3657.57,-146.304"/>
<polygon fill="midnightblue" stroke="midnightblue" points="3660.42,-144.254 3652.15,-137.626 3654.48,-147.962 3660.42,-144.254"/>
</g>
<!-- Node50 -->
<g id="node50" class="node"><title>Node50</title>
<g id="a_node50"><a xlink:href="names_8h.html" target="_top" xlink:title="common/names.h">
<polygon fill="white" stroke="red" points="4083.5,-186.5 4083.5,-205.5 4178.5,-205.5 4178.5,-186.5 4083.5,-186.5"/>
<text text-anchor="middle" x="4131" y="-193.5" font-family="Helvetica,sans-Serif" font-size="10.00">common/names.h</text>
</a>
</g>
</g>
<!-- Node1&#45;&gt;Node50 -->
<g id="edge70" class="edge"><title>Node1&#45;&gt;Node50</title>
<path fill="none" stroke="midnightblue" d="M2259.26,-263.05C2522.53,-263.076 3705.17,-260.447 4069,-212 4076.32,-211.025 4084.03,-209.54 4091.44,-207.877"/>
<polygon fill="midnightblue" stroke="midnightblue" points="4092.37,-211.255 4101.28,-205.53 4090.74,-204.446 4092.37,-211.255"/>
</g>
<!-- Node3 -->
<g id="node3" class="node"><title>Node3</title>
<g id="a_node3"><a xlink:href="status_8h.html" target="_top" xlink:title="common/status.h">
<polygon fill="white" stroke="red" points="1938,-56.5 1938,-75.5 2030,-75.5 2030,-56.5 1938,-56.5"/>
<text text-anchor="middle" x="1984" y="-63.5" font-family="Helvetica,sans-Serif" font-size="10.00">common/status.h</text>
</a>
</g>
</g>
<!-- Node2&#45;&gt;Node3 -->
<g id="edge2" class="edge"><title>Node2&#45;&gt;Node3</title>
<path fill="none" stroke="midnightblue" d="M563.325,-124.517C805.55,-114.711 1693.85,-78.747 1927.42,-69.2906"/>
<polygon fill="midnightblue" stroke="midnightblue" points="1927.87,-72.7753 1937.72,-68.8736 1927.59,-65.7811 1927.87,-72.7753"/>
</g>
<!-- Node4 -->
<g id="node4" class="node"><title>Node4</title>
<polygon fill="white" stroke="#bfbfbf" points="2488.5,-0.5 2488.5,-19.5 2529.5,-19.5 2529.5,-0.5 2488.5,-0.5"/>
<text text-anchor="middle" x="2509" y="-7.5" font-family="Helvetica,sans-Serif" font-size="10.00">string</text>
</g>
<!-- Node2&#45;&gt;Node4 -->
<g id="edge7" class="edge"><title>Node2&#45;&gt;Node4</title>
<path fill="none" stroke="midnightblue" d="M540.4,-118.479C552.105,-116.109 565.039,-113.717 577,-112 757.629,-86.0674 810.412,-125.679 986,-76 1005.13,-70.5889 1006.73,-60.8595 1026,-56 1171.39,-19.3415 2279.12,-12.141 2478.36,-11.1382"/>
<polygon fill="midnightblue" stroke="midnightblue" points="2478.44,-14.6379 2488.42,-11.089 2478.4,-7.638 2478.44,-14.6379"/>
</g>
<!-- Node5 -->
<g id="node5" class="node"><title>Node5</title>
<polygon fill="white" stroke="#bfbfbf" points="1028,-0.5 1028,-19.5 1072,-19.5 1072,-0.5 1028,-0.5"/>
<text text-anchor="middle" x="1050" y="-7.5" font-family="Helvetica,sans-Serif" font-size="10.00">vector</text>
</g>
<!-- Node2&#45;&gt;Node5 -->
<g id="edge8" class="edge"><title>Node2&#45;&gt;Node5</title>
<path fill="none" stroke="midnightblue" d="M440.744,-125.717C361.077,-122.604 228.464,-112.001 198,-76 192.258,-69.2145 191.883,-62.449 198,-56 226.714,-25.7295 865.028,-13.8826 1017.5,-11.4792"/>
<polygon fill="midnightblue" stroke="midnightblue" points="1017.68,-14.9769 1027.63,-11.3223 1017.57,-7.97776 1017.68,-14.9769"/>
</g>
<!-- Node7 -->
<g id="node7" class="node"><title>Node7</title>
<polygon fill="white" stroke="#bfbfbf" points="2313.5,-56.5 2313.5,-75.5 2348.5,-75.5 2348.5,-56.5 2313.5,-56.5"/>
<text text-anchor="middle" x="2331" y="-63.5" font-family="Helvetica,sans-Serif" font-size="10.00">map</text>
</g>
<!-- Node2&#45;&gt;Node7 -->
<g id="edge6" class="edge"><title>Node2&#45;&gt;Node7</title>
<path fill="none" stroke="midnightblue" d="M563.115,-124.995C854.994,-115.42 2101.26,-74.5365 2303.28,-67.9092"/>
<polygon fill="midnightblue" stroke="midnightblue" points="2303.48,-71.4047 2313.36,-67.5786 2303.25,-64.4085 2303.48,-71.4047"/>
</g>
<!-- Node8 -->
<g id="node8" class="node"><title>Node8</title>
<polygon fill="white" stroke="#bfbfbf" points="1235,-56.5 1235,-75.5 1345,-75.5 1345,-56.5 1235,-56.5"/>
<text text-anchor="middle" x="1290" y="-63.5" font-family="Helvetica,sans-Serif" font-size="10.00">boost/scoped_ptr.hpp</text>
</g>
<!-- Node2&#45;&gt;Node8 -->
<g id="edge9" class="edge"><title>Node2&#45;&gt;Node8</title>
<path fill="none" stroke="midnightblue" d="M563.177,-122.342C708.757,-111.257 1074.77,-83.3879 1224.56,-71.983"/>
<polygon fill="midnightblue" stroke="midnightblue" points="1225.26,-75.44 1234.96,-71.1907 1224.72,-68.4602 1225.26,-75.44"/>
</g>
<!-- Node2&#45;&gt;Node9 -->
<g id="edge10" class="edge"><title>Node2&#45;&gt;Node9</title>
<path fill="none" stroke="midnightblue" d="M540.393,-118.429C552.097,-116.057 565.033,-113.677 577,-112 772.626,-84.5835 823.47,-95.9285 1020,-76 1021.3,-75.8678 1022.62,-75.732 1023.95,-75.593"/>
<polygon fill="midnightblue" stroke="midnightblue" points="1024.68,-79.0335 1034.25,-74.4747 1023.93,-72.0744 1024.68,-79.0335"/>
</g>
<!-- Node10 -->
<g id="node10" class="node"><title>Node10</title>
<polygon fill="white" stroke="#bfbfbf" points="580,-56.5 580,-75.5 704,-75.5 704,-56.5 580,-56.5"/>
<text text-anchor="middle" x="642" y="-63.5" font-family="Helvetica,sans-Serif" font-size="10.00">boost/unordered_set.hpp</text>
</g>
<!-- Node2&#45;&gt;Node10 -->
<g id="edge11" class="edge"><title>Node2&#45;&gt;Node10</title>
<path fill="none" stroke="midnightblue" d="M522.059,-118.403C545.762,-108.245 585.406,-91.2547 612.583,-79.6074"/>
<polygon fill="midnightblue" stroke="midnightblue" points="614.166,-82.7369 621.979,-75.5806 611.408,-76.3028 614.166,-82.7369"/>
</g>
<!-- Node11 -->
<g id="node11" class="node"><title>Node11</title>
<polygon fill="white" stroke="#bfbfbf" points="722.5,-56.5 722.5,-75.5 839.5,-75.5 839.5,-56.5 722.5,-56.5"/>
<text text-anchor="middle" x="781" y="-63.5" font-family="Helvetica,sans-Serif" font-size="10.00">llvm/Analysis/Verifier.h</text>
</g>
<!-- Node2&#45;&gt;Node11 -->
<g id="edge12" class="edge"><title>Node2&#45;&gt;Node11</title>
<path fill="none" stroke="midnightblue" d="M541.678,-118.467C591.569,-107.738 677.232,-89.3157 731.397,-77.6673"/>
<polygon fill="midnightblue" stroke="midnightblue" points="732.419,-81.0277 741.459,-75.5034 730.947,-74.1842 732.419,-81.0277"/>
</g>
<!-- Node12 -->
<g id="node12" class="node"><title>Node12</title>
<polygon fill="white" stroke="#bfbfbf" points="858,-56.5 858,-75.5 978,-75.5 978,-56.5 858,-56.5"/>
<text text-anchor="middle" x="918" y="-63.5" font-family="Helvetica,sans-Serif" font-size="10.00">llvm/IR/DerivedTypes.h</text>
</g>
<!-- Node2&#45;&gt;Node12 -->
<g id="edge13" class="edge"><title>Node2&#45;&gt;Node12</title>
<path fill="none" stroke="midnightblue" d="M542.001,-118.49C553.291,-116.227 565.603,-113.89 577,-112 590.193,-109.813 751.935,-88.6468 847.842,-76.1377"/>
<polygon fill="midnightblue" stroke="midnightblue" points="848.304,-79.6072 857.768,-74.8434 847.399,-72.666 848.304,-79.6072"/>
</g>
<!-- Node13 -->
<g id="node13" class="node"><title>Node13</title>
<polygon fill="white" stroke="#bfbfbf" points="207,-56.5 207,-75.5 307,-75.5 307,-56.5 207,-56.5"/>
<text text-anchor="middle" x="257" y="-63.5" font-family="Helvetica,sans-Serif" font-size="10.00">llvm/IR/IRBuilder.h</text>
</g>
<!-- Node2&#45;&gt;Node13 -->
<g id="edge14" class="edge"><title>Node2&#45;&gt;Node13</title>
<path fill="none" stroke="midnightblue" d="M467.158,-118.467C423.62,-107.805 349.059,-89.5452 301.451,-77.886"/>
<polygon fill="midnightblue" stroke="midnightblue" points="302.268,-74.4826 291.722,-75.5034 300.603,-81.2817 302.268,-74.4826"/>
</g>
<!-- Node14 -->
<g id="node14" class="node"><title>Node14</title>
<polygon fill="white" stroke="#bfbfbf" points="325.5,-56.5 325.5,-75.5 424.5,-75.5 424.5,-56.5 325.5,-56.5"/>
<text text-anchor="middle" x="375" y="-63.5" font-family="Helvetica,sans-Serif" font-size="10.00">llvm/IR/Intrinsics.h</text>
</g>
<!-- Node2&#45;&gt;Node14 -->
<g id="edge15" class="edge"><title>Node2&#45;&gt;Node14</title>
<path fill="none" stroke="midnightblue" d="M483.804,-118.403C462.491,-108.334 426.969,-91.5522 402.337,-79.9151"/>
<polygon fill="midnightblue" stroke="midnightblue" points="403.699,-76.6877 393.162,-75.5806 400.709,-83.0169 403.699,-76.6877"/>
</g>
<!-- Node15 -->
<g id="node15" class="node"><title>Node15</title>
<polygon fill="white" stroke="#bfbfbf" points="442.5,-56.5 442.5,-75.5 561.5,-75.5 561.5,-56.5 442.5,-56.5"/>
<text text-anchor="middle" x="502" y="-63.5" font-family="Helvetica,sans-Serif" font-size="10.00">llvm/IR/LLVMContext.h</text>
</g>
<!-- Node2&#45;&gt;Node15 -->
<g id="edge16" class="edge"><title>Node2&#45;&gt;Node15</title>
<path fill="none" stroke="midnightblue" d="M502,-118.403C502,-109.938 502,-96.7283 502,-85.8199"/>
<polygon fill="midnightblue" stroke="midnightblue" points="505.5,-85.5806 502,-75.5806 498.5,-85.5806 505.5,-85.5806"/>
</g>
<!-- Node2&#45;&gt;Node16 -->
<g id="edge17" class="edge"><title>Node2&#45;&gt;Node16</title>
<path fill="none" stroke="midnightblue" d="M440.88,-118.531C361.804,-107.573 224.276,-88.5163 140.457,-76.9016"/>
<polygon fill="midnightblue" stroke="midnightblue" points="140.894,-73.4289 130.509,-75.5231 139.933,-80.3627 140.894,-73.4289"/>
</g>
<!-- Node3&#45;&gt;Node4 -->
<g id="edge3" class="edge"><title>Node3&#45;&gt;Node4</title>
<path fill="none" stroke="midnightblue" d="M2030.13,-60.2552C2135.22,-49.4464 2390.11,-23.2283 2478.34,-14.1536"/>
<polygon fill="midnightblue" stroke="midnightblue" points="2478.9,-17.6148 2488.49,-13.1099 2478.18,-10.6515 2478.9,-17.6148"/>
</g>
<!-- Node3&#45;&gt;Node5 -->
<g id="edge4" class="edge"><title>Node3&#45;&gt;Node5</title>
<path fill="none" stroke="midnightblue" d="M1937.68,-62.3221C1773.56,-52.8331 1222.07,-20.9483 1082.37,-12.8717"/>
<polygon fill="midnightblue" stroke="midnightblue" points="1082.49,-9.3729 1072.31,-12.2898 1082.09,-16.3612 1082.49,-9.3729"/>
</g>
<!-- Node3&#45;&gt;Node6 -->
<g id="edge5" class="edge"><title>Node3&#45;&gt;Node6</title>
<path fill="none" stroke="midnightblue" d="M2030.01,-63.6786C2284.76,-56.3612 3521.23,-20.8454 3805.6,-12.6773"/>
<polygon fill="midnightblue" stroke="midnightblue" points="3805.81,-16.1729 3815.71,-12.3871 3805.61,-9.17578 3805.81,-16.1729"/>
</g>
<!-- Node42&#45;&gt;Node2 -->
<g id="edge47" class="edge"><title>Node42&#45;&gt;Node2</title>
<path fill="none" stroke="midnightblue" d="M229.598,-186.439C286.476,-174.446 389.821,-152.654 451.564,-139.635"/>
<polygon fill="midnightblue" stroke="midnightblue" points="452.411,-143.034 461.474,-137.546 450.967,-136.184 452.411,-143.034"/>
</g>
<!-- Node43&#45;&gt;Node2 -->
<g id="edge50" class="edge"><title>Node43&#45;&gt;Node2</title>
<path fill="none" stroke="midnightblue" d="M522.862,-186.372C519.289,-176.544 513.346,-160.202 508.715,-147.467"/>
<polygon fill="midnightblue" stroke="midnightblue" points="511.922,-146.043 505.215,-137.841 505.343,-148.435 511.922,-146.043"/>
</g>
<!-- Node43&#45;&gt;Node3 -->
<g id="edge49" class="edge"><title>Node43&#45;&gt;Node3</title>
<path fill="none" stroke="midnightblue" d="M566.352,-186.435C579.849,-183.91 595.017,-181.441 609,-180 683.908,-172.282 1905.05,-190.858 1964,-144 1981.11,-130.399 1984.71,-104.19 1984.96,-86.1573"/>
<polygon fill="midnightblue" stroke="midnightblue" points="1988.46,-85.8685 1984.77,-75.9373 1981.46,-86.0024 1988.46,-85.8685"/>
</g>
<!-- Node44&#45;&gt;Node4 -->
<g id="edge53" class="edge"><title>Node44&#45;&gt;Node4</title>
<path fill="none" stroke="midnightblue" d="M3925.08,-122.973C3691.4,-104.496 2725.25,-28.0991 2539.84,-13.4389"/>
<polygon fill="midnightblue" stroke="midnightblue" points="2539.95,-9.93653 2529.71,-12.6373 2539.4,-16.9147 2539.95,-9.93653"/>
</g>
<!-- Node44&#45;&gt;Node6 -->
<g id="edge55" class="edge"><title>Node44&#45;&gt;Node6</title>
<path fill="none" stroke="midnightblue" d="M3963.56,-112.872C3950.67,-98.3595 3929.81,-75.2369 3911,-56 3901.23,-46.005 3889.92,-35.1578 3880.84,-26.6179"/>
<polygon fill="midnightblue" stroke="midnightblue" points="3883.23,-24.0606 3873.54,-19.7865 3878.45,-29.1733 3883.23,-24.0606"/>
</g>
<!-- Node44&#45;&gt;Node7 -->
<g id="edge52" class="edge"><title>Node44&#45;&gt;Node7</title>
<path fill="none" stroke="midnightblue" d="M3925.4,-123.924C3870.06,-120.636 3778.74,-115.434 3700,-112 3160.5,-88.4756 2500.92,-71.2773 2358.8,-67.6923"/>
<polygon fill="midnightblue" stroke="midnightblue" points="2358.85,-64.1923 2348.76,-67.4399 2358.67,-71.1901 2358.85,-64.1923"/>
</g>
<!-- Node44&#45;&gt;Node19 -->
<g id="edge54" class="edge"><title>Node44&#45;&gt;Node19</title>
<path fill="none" stroke="midnightblue" d="M3989.27,-112.781C3997.58,-103.882 4008.3,-92.3943 4016.92,-83.1524"/>
<polygon fill="midnightblue" stroke="midnightblue" points="4019.59,-85.4292 4023.85,-75.7305 4014.47,-80.653 4019.59,-85.4292"/>
</g>
<!-- Node46&#45;&gt;Node3 -->
<g id="edge61" class="edge"><title>Node46&#45;&gt;Node3</title>
<path fill="none" stroke="midnightblue" d="M1908.61,-118.403C1922.72,-108.78 1945.83,-93.0242 1962.75,-81.4891"/>
<polygon fill="midnightblue" stroke="midnightblue" points="1965.12,-84.1058 1971.42,-75.5806 1961.18,-78.3222 1965.12,-84.1058"/>
</g>
<!-- Node46&#45;&gt;Node4 -->
<g id="edge58" class="edge"><title>Node46&#45;&gt;Node4</title>
<path fill="none" stroke="midnightblue" d="M1897.22,-118.211C1899.88,-102.701 1907.78,-70.7224 1929,-56 1974.32,-24.5571 2364.64,-14.0087 2478.15,-11.5909"/>
<polygon fill="midnightblue" stroke="midnightblue" points="2478.33,-15.0882 2488.26,-11.3819 2478.19,-8.08966 2478.33,-15.0882"/>
</g>
<!-- Node46&#45;&gt;Node8 -->
<g id="edge59" class="edge"><title>Node46&#45;&gt;Node8</title>
<path fill="none" stroke="midnightblue" d="M1836.24,-121.083C1722.06,-109.779 1473.78,-85.1964 1355.37,-73.4723"/>
<polygon fill="midnightblue" stroke="midnightblue" points="1355.65,-69.983 1345.35,-72.4806 1354.96,-76.9489 1355.65,-69.983"/>
</g>
<!-- Node46&#45;&gt;Node9 -->
<g id="edge60" class="edge"><title>Node46&#45;&gt;Node9</title>
<path fill="none" stroke="midnightblue" d="M1836.37,-122.539C1691.15,-111.674 1319.63,-83.88 1164.12,-72.2457"/>
<polygon fill="midnightblue" stroke="midnightblue" points="1163.98,-68.7256 1153.74,-71.4697 1163.46,-75.7061 1163.98,-68.7256"/>
</g>
<!-- Node47&#45;&gt;Node4 -->
<g id="edge63" class="edge"><title>Node47&#45;&gt;Node4</title>
<path fill="none" stroke="midnightblue" d="M3793.21,-63.4565C3599.05,-55.5253 2715.81,-19.4478 2539.63,-12.2511"/>
<polygon fill="midnightblue" stroke="midnightblue" points="2539.64,-8.74873 2529.51,-11.8376 2539.35,-15.7429 2539.64,-8.74873"/>
</g>
<!-- Node47&#45;&gt;Node6 -->
<g id="edge64" class="edge"><title>Node47&#45;&gt;Node6</title>
<path fill="none" stroke="midnightblue" d="M3836.45,-56.083C3841.01,-48.6127 3847.67,-37.7244 3853.29,-28.5199"/>
<polygon fill="midnightblue" stroke="midnightblue" points="3856.42,-30.109 3858.65,-19.7511 3850.45,-26.4588 3856.42,-30.109"/>
</g>
<!-- Node48&#45;&gt;Node3 -->
<g id="edge67" class="edge"><title>Node48&#45;&gt;Node3</title>
<path fill="none" stroke="midnightblue" d="M2471.24,-122.685C2380.14,-112.273 2147.84,-85.7249 2040.26,-73.4295"/>
<polygon fill="midnightblue" stroke="midnightblue" points="2040.58,-69.9433 2030.24,-72.2851 2039.78,-76.8981 2040.58,-69.9433"/>
</g>
<!-- Node48&#45;&gt;Node4 -->
<g id="edge66" class="edge"><title>Node48&#45;&gt;Node4</title>
<path fill="none" stroke="midnightblue" d="M2509,-118.281C2509,-99.5475 2509,-55.098 2509,-29.6822"/>
<polygon fill="midnightblue" stroke="midnightblue" points="2512.5,-29.5047 2509,-19.5048 2505.5,-29.5048 2512.5,-29.5047"/>
</g>
<!-- Node49&#45;&gt;Node4 -->
<g id="edge69" class="edge"><title>Node49&#45;&gt;Node4</title>
<path fill="none" stroke="midnightblue" d="M3600.37,-122.345C3412.06,-103.133 2697.8,-30.2617 2539.99,-14.1612"/>
<polygon fill="midnightblue" stroke="midnightblue" points="2539.9,-10.6347 2529.6,-13.1016 2539.19,-17.5986 2539.9,-10.6347"/>
</g>
</g>
</svg>
