<?xml version="1.0" encoding="UTF-8" standalone="no"?>
<!DOCTYPE svg PUBLIC "-//W3C//DTD SVG 1.1//EN"
 "http://www.w3.org/Graphics/SVG/1.1/DTD/svg11.dtd">
<!-- Generated by graphviz version 2.36.0 (20140111.2315)
 -->
<!-- Title: be/src/runtime/mem&#45;pool.h Pages: 1 -->
<svg width="1702pt" height="560pt"
 viewBox="0.00 0.00 1702.00 560.00" xmlns="http://www.w3.org/2000/svg" xmlns:xlink="http://www.w3.org/1999/xlink">
<g id="graph0" class="graph" transform="scale(1 1) rotate(0) translate(4 556)">
<title>be/src/runtime/mem&#45;pool.h</title>
<polygon fill="white" stroke="none" points="-4,4 -4,-556 1698,-556 1698,4 -4,4"/>
<!-- Node1 -->
<g id="node1" class="node"><title>Node1</title>
<polygon fill="#bfbfbf" stroke="black" points="79,-521 79,-551 183,-551 183,-521 79,-521"/>
<text text-anchor="start" x="87" y="-539" font-family="Helvetica,sans-Serif" font-size="10.00">be/src/runtime/mem</text>
<text text-anchor="middle" x="131" y="-528" font-family="Helvetica,sans-Serif" font-size="10.00">&#45;pool.h</text>
</g>
<!-- Node2 -->
<g id="node2" class="node"><title>Node2</title>
<polygon fill="white" stroke="#bfbfbf" points="0,-464.5 0,-483.5 46,-483.5 46,-464.5 0,-464.5"/>
<text text-anchor="middle" x="23" y="-471.5" font-family="Helvetica,sans-Serif" font-size="10.00">stdio.h</text>
</g>
<!-- Node1&#45;&gt;Node2 -->
<g id="edge1" class="edge"><title>Node1&#45;&gt;Node2</title>
<path fill="none" stroke="midnightblue" d="M105.679,-520.933C88.1087,-511.171 64.8322,-498.24 47.454,-488.586"/>
<polygon fill="midnightblue" stroke="midnightblue" points="48.9214,-485.397 38.48,-483.6 45.5219,-491.516 48.9214,-485.397"/>
</g>
<!-- Node3 -->
<g id="node3" class="node"><title>Node3</title>
<polygon fill="white" stroke="#bfbfbf" points="480,-210.5 480,-229.5 536,-229.5 536,-210.5 480,-210.5"/>
<text text-anchor="middle" x="508" y="-217.5" font-family="Helvetica,sans-Serif" font-size="10.00">algorithm</text>
</g>
<!-- Node1&#45;&gt;Node3 -->
<g id="edge2" class="edge"><title>Node1&#45;&gt;Node3</title>
<path fill="none" stroke="midnightblue" d="M129.577,-520.852C128.641,-506.122 128.706,-482.642 136,-464 164.226,-391.863 182.904,-374.308 245,-328 315.719,-275.261 416.094,-243.967 470.099,-229.909"/>
<polygon fill="midnightblue" stroke="midnightblue" points="471.115,-233.262 479.943,-227.404 469.389,-226.478 471.115,-233.262"/>
</g>
<!-- Node4 -->
<g id="node4" class="node"><title>Node4</title>
<polygon fill="white" stroke="#bfbfbf" points="657,-6.5 657,-25.5 701,-25.5 701,-6.5 657,-6.5"/>
<text text-anchor="middle" x="679" y="-13.5" font-family="Helvetica,sans-Serif" font-size="10.00">vector</text>
</g>
<!-- Node1&#45;&gt;Node4 -->
<g id="edge3" class="edge"><title>Node1&#45;&gt;Node4</title>
<path fill="none" stroke="midnightblue" d="M119.465,-520.977C102.81,-499.261 74,-455.548 74,-413 74,-413 74,-413 74,-151 74,-71.6782 155.878,-90.3026 232,-68 410.093,-15.8212 469.069,-81.2303 648,-32 650.201,-31.3943 652.436,-30.6356 654.644,-29.7829"/>
<polygon fill="midnightblue" stroke="midnightblue" points="656.267,-32.8916 663.979,-25.6269 653.42,-26.4967 656.267,-32.8916"/>
</g>
<!-- Node5 -->
<g id="node5" class="node"><title>Node5</title>
<polygon fill="white" stroke="#bfbfbf" points="1653.5,-6.5 1653.5,-25.5 1694.5,-25.5 1694.5,-6.5 1653.5,-6.5"/>
<text text-anchor="middle" x="1674" y="-13.5" font-family="Helvetica,sans-Serif" font-size="10.00">string</text>
</g>
<!-- Node1&#45;&gt;Node5 -->
<g id="edge4" class="edge"><title>Node1&#45;&gt;Node5</title>
<path fill="none" stroke="midnightblue" d="M183.121,-533.66C452.13,-526.411 1671,-489.353 1671,-413 1671,-413 1671,-413 1671,-151 1671,-110.036 1672.42,-62.0461 1673.3,-36.0634"/>
<polygon fill="midnightblue" stroke="midnightblue" points="1676.81,-35.8954 1673.67,-25.7783 1669.82,-35.6487 1676.81,-35.8954"/>
</g>
<!-- Node6 -->
<g id="node6" class="node"><title>Node6</title>
<g id="a_node6"><a xlink:href="logging_8h.html" target="_top" xlink:title="common/logging.h">
<polygon fill="white" stroke="black" points="461,-74.5 461,-93.5 557,-93.5 557,-74.5 461,-74.5"/>
<text text-anchor="middle" x="509" y="-81.5" font-family="Helvetica,sans-Serif" font-size="10.00">common/logging.h</text>
</a>
</g>
</g>
<!-- Node1&#45;&gt;Node6 -->
<g id="edge5" class="edge"><title>Node1&#45;&gt;Node6</title>
<path fill="none" stroke="midnightblue" d="M136.807,-520.999C151.626,-486.201 193.349,-393.856 245,-328 322.649,-228.996 442.112,-134.949 489.069,-99.6678"/>
<polygon fill="midnightblue" stroke="midnightblue" points="491.291,-102.377 497.214,-93.593 487.106,-96.766 491.291,-102.377"/>
</g>
<!-- Node9 -->
<g id="node9" class="node"><title>Node9</title>
<g id="a_node9"><a xlink:href="runtime-profile_8h.html" target="_top" xlink:title="util/runtime&#45;profile.h">
<polygon fill="white" stroke="black" points="739,-464.5 739,-483.5 841,-483.5 841,-464.5 739,-464.5"/>
<text text-anchor="middle" x="790" y="-471.5" font-family="Helvetica,sans-Serif" font-size="10.00">util/runtime&#45;profile.h</text>
</a>
</g>
</g>
<!-- Node1&#45;&gt;Node9 -->
<g id="edge8" class="edge"><title>Node1&#45;&gt;Node9</title>
<path fill="none" stroke="midnightblue" d="M183.261,-530.242C303.601,-519.285 599.785,-492.319 728.556,-480.594"/>
<polygon fill="midnightblue" stroke="midnightblue" points="729.002,-484.068 738.643,-479.676 728.367,-477.097 729.002,-484.068"/>
</g>
<!-- Node7 -->
<g id="node7" class="node"><title>Node7</title>
<polygon fill="white" stroke="#bfbfbf" points="463.5,-6.5 463.5,-25.5 540.5,-25.5 540.5,-6.5 463.5,-6.5"/>
<text text-anchor="middle" x="502" y="-13.5" font-family="Helvetica,sans-Serif" font-size="10.00">glog/logging.h</text>
</g>
<!-- Node6&#45;&gt;Node7 -->
<g id="edge6" class="edge"><title>Node6&#45;&gt;Node7</title>
<path fill="none" stroke="midnightblue" d="M508.085,-74.3717C507.053,-64.6426 505.344,-48.528 503.999,-35.8504"/>
<polygon fill="midnightblue" stroke="midnightblue" points="507.473,-35.4162 502.938,-25.8411 500.512,-36.1545 507.473,-35.4162"/>
</g>
<!-- Node8 -->
<g id="node8" class="node"><title>Node8</title>
<polygon fill="white" stroke="#bfbfbf" points="559,-6.5 559,-25.5 639,-25.5 639,-6.5 559,-6.5"/>
<text text-anchor="middle" x="599" y="-13.5" font-family="Helvetica,sans-Serif" font-size="10.00">gflags/gflags.h</text>
</g>
<!-- Node6&#45;&gt;Node8 -->
<g id="edge7" class="edge"><title>Node6&#45;&gt;Node8</title>
<path fill="none" stroke="midnightblue" d="M520.766,-74.3717C535.589,-63.5015 561.282,-44.6602 579.163,-31.5474"/>
<polygon fill="midnightblue" stroke="midnightblue" points="581.237,-34.3666 587.231,-25.6305 577.097,-28.7217 581.237,-34.3666"/>
</g>
<!-- Node9&#45;&gt;Node6 -->
<g id="edge19" class="edge"><title>Node9&#45;&gt;Node6</title>
<path fill="none" stroke="midnightblue" d="M738.645,-470.89C635.556,-466.175 406.965,-453.167 333,-428 278.945,-409.608 252.431,-409.517 224,-360 174.095,-273.084 178.826,-206.563 250,-136 277.744,-108.494 383.416,-95.0044 450.908,-89.0621"/>
<polygon fill="midnightblue" stroke="midnightblue" points="451.317,-92.54 460.985,-88.2057 450.725,-85.5652 451.317,-92.54"/>
</g>
<!-- Node10 -->
<g id="node10" class="node"><title>Node10</title>
<polygon fill="white" stroke="#bfbfbf" points="1259.5,-334.5 1259.5,-353.5 1356.5,-353.5 1356.5,-334.5 1259.5,-334.5"/>
<text text-anchor="middle" x="1308" y="-341.5" font-family="Helvetica,sans-Serif" font-size="10.00">boost/function.hpp</text>
</g>
<!-- Node9&#45;&gt;Node10 -->
<g id="edge9" class="edge"><title>Node9&#45;&gt;Node10</title>
<path fill="none" stroke="midnightblue" d="M841.323,-470.687C935.81,-465.879 1133.44,-453.099 1197,-428 1235.55,-412.776 1272.48,-380.457 1292.52,-360.944"/>
<polygon fill="midnightblue" stroke="midnightblue" points="1295.19,-363.226 1299.79,-353.686 1290.24,-358.269 1295.19,-363.226"/>
</g>
<!-- Node11 -->
<g id="node11" class="node"><title>Node11</title>
<polygon fill="white" stroke="#bfbfbf" points="1375,-334.5 1375,-353.5 1485,-353.5 1485,-334.5 1375,-334.5"/>
<text text-anchor="middle" x="1430" y="-341.5" font-family="Helvetica,sans-Serif" font-size="10.00">boost/scoped_ptr.hpp</text>
</g>
<!-- Node9&#45;&gt;Node11 -->
<g id="edge10" class="edge"><title>Node9&#45;&gt;Node11</title>
<path fill="none" stroke="midnightblue" d="M841.161,-472.889C925.151,-471.593 1096.93,-464.249 1237,-428 1300.26,-411.628 1369.5,-377.521 1405.37,-358.52"/>
<polygon fill="midnightblue" stroke="midnightblue" points="1407.41,-361.399 1414.57,-353.589 1404.1,-355.229 1407.41,-361.399"/>
</g>
<!-- Node12 -->
<g id="node12" class="node"><title>Node12</title>
<polygon fill="white" stroke="#bfbfbf" points="388.5,-334.5 388.5,-353.5 507.5,-353.5 507.5,-334.5 388.5,-334.5"/>
<text text-anchor="middle" x="448" y="-341.5" font-family="Helvetica,sans-Serif" font-size="10.00">boost/thread/mutex.hpp</text>
</g>
<!-- Node9&#45;&gt;Node12 -->
<g id="edge11" class="edge"><title>Node9&#45;&gt;Node12</title>
<path fill="none" stroke="midnightblue" d="M738.772,-469.523C668.263,-463.952 545.739,-451.219 508,-428 482.84,-412.52 465.066,-382.175 455.688,-362.778"/>
<polygon fill="midnightblue" stroke="midnightblue" points="458.799,-361.165 451.451,-353.531 452.435,-364.08 458.799,-361.165"/>
</g>
<!-- Node13 -->
<g id="node13" class="node"><title>Node13</title>
<polygon fill="white" stroke="#bfbfbf" points="869.5,-142.5 869.5,-161.5 998.5,-161.5 998.5,-142.5 869.5,-142.5"/>
<text text-anchor="middle" x="934" y="-149.5" font-family="Helvetica,sans-Serif" font-size="10.00">boost/unordered_map.hpp</text>
</g>
<!-- Node9&#45;&gt;Node13 -->
<g id="edge12" class="edge"><title>Node9&#45;&gt;Node13</title>
<path fill="none" stroke="midnightblue" d="M841.091,-473.596C990.029,-474.072 1418.05,-466.046 1494,-360 1502.28,-348.437 1503.66,-338.438 1494,-328 1423.76,-252.095 1119.65,-343.559 1030,-292 982.014,-264.404 952.602,-201.94 940.46,-171.026"/>
<polygon fill="midnightblue" stroke="midnightblue" points="943.68,-169.643 936.883,-161.515 937.128,-172.107 943.68,-169.643"/>
</g>
<!-- Node14 -->
<g id="node14" class="node"><title>Node14</title>
<polygon fill="white" stroke="#bfbfbf" points="697,-334.5 697,-353.5 751,-353.5 751,-334.5 697,-334.5"/>
<text text-anchor="middle" x="724" y="-341.5" font-family="Helvetica,sans-Serif" font-size="10.00">iostream</text>
</g>
<!-- Node9&#45;&gt;Node14 -->
<g id="edge13" class="edge"><title>Node9&#45;&gt;Node14</title>
<path fill="none" stroke="midnightblue" d="M813.788,-464.499C829.721,-457.413 849.463,-445.605 859,-428 865.774,-415.495 867.159,-407.649 859,-396 832.14,-357.652 803.62,-377.008 760,-360 757.899,-359.181 755.734,-358.32 753.56,-357.444"/>
<polygon fill="midnightblue" stroke="midnightblue" points="754.697,-354.128 744.116,-353.574 752.042,-360.605 754.697,-354.128"/>
</g>
<!-- Node15 -->
<g id="node15" class="node"><title>Node15</title>
<polygon fill="white" stroke="#bfbfbf" points="550,-402.5 550,-421.5 612,-421.5 612,-402.5 550,-402.5"/>
<text text-anchor="middle" x="581" y="-409.5" font-family="Helvetica,sans-Serif" font-size="10.00">sys/time.h</text>
</g>
<!-- Node9&#45;&gt;Node15 -->
<g id="edge14" class="edge"><title>Node9&#45;&gt;Node15</title>
<path fill="none" stroke="midnightblue" d="M753.767,-464.45C719.341,-456.068 666.26,-442.473 621,-428 618.218,-427.111 615.346,-426.14 612.477,-425.134"/>
<polygon fill="midnightblue" stroke="midnightblue" points="613.464,-421.769 602.87,-421.645 611.075,-428.348 613.464,-421.769"/>
</g>
<!-- Node16 -->
<g id="node16" class="node"><title>Node16</title>
<polygon fill="white" stroke="#bfbfbf" points="630.5,-402.5 630.5,-421.5 711.5,-421.5 711.5,-402.5 630.5,-402.5"/>
<text text-anchor="middle" x="671" y="-409.5" font-family="Helvetica,sans-Serif" font-size="10.00">sys/resource.h</text>
</g>
<!-- Node9&#45;&gt;Node16 -->
<g id="edge15" class="edge"><title>Node9&#45;&gt;Node16</title>
<path fill="none" stroke="midnightblue" d="M772.95,-464.403C753.156,-454.423 720.283,-437.849 697.23,-426.225"/>
<polygon fill="midnightblue" stroke="midnightblue" points="698.523,-422.958 688.018,-421.581 695.372,-429.208 698.523,-422.958"/>
</g>
<!-- Node17 -->
<g id="node17" class="node"><title>Node17</title>
<g id="a_node17"><a xlink:href="atomic_8h.html" target="_top" xlink:title="common/atomic.h">
<polygon fill="white" stroke="black" points="516.5,-272.5 516.5,-291.5 611.5,-291.5 611.5,-272.5 516.5,-272.5"/>
<text text-anchor="middle" x="564" y="-279.5" font-family="Helvetica,sans-Serif" font-size="10.00">common/atomic.h</text>
</a>
</g>
</g>
<!-- Node9&#45;&gt;Node17 -->
<g id="edge16" class="edge"><title>Node9&#45;&gt;Node17</title>
<path fill="none" stroke="midnightblue" d="M738.952,-471.225C673.567,-467.753 565.715,-457.582 541,-428 496.532,-374.775 607.596,-365.579 611,-360 618.408,-347.86 616.585,-341.08 611,-328 605.853,-315.947 595.719,-305.576 586.174,-297.839"/>
<polygon fill="midnightblue" stroke="midnightblue" points="588.172,-294.962 578.078,-291.741 583.96,-300.553 588.172,-294.962"/>
</g>
<!-- Node19 -->
<g id="node19" class="node"><title>Node19</title>
<g id="a_node19"><a xlink:href="object-pool_8h.html" target="_top" xlink:title="common/object&#45;pool.h">
<polygon fill="white" stroke="black" points="342.5,-402.5 342.5,-421.5 455.5,-421.5 455.5,-402.5 342.5,-402.5"/>
<text text-anchor="middle" x="399" y="-409.5" font-family="Helvetica,sans-Serif" font-size="10.00">common/object&#45;pool.h</text>
</a>
</g>
</g>
<!-- Node9&#45;&gt;Node19 -->
<g id="edge20" class="edge"><title>Node9&#45;&gt;Node19</title>
<path fill="none" stroke="midnightblue" d="M738.842,-466.903C675.523,-459.105 564.487,-444.605 470,-428 462.58,-426.696 454.753,-425.183 447.113,-423.629"/>
<polygon fill="midnightblue" stroke="midnightblue" points="447.731,-420.183 437.228,-421.578 446.308,-427.037 447.731,-420.183"/>
</g>
<!-- Node22 -->
<g id="node22" class="node"><title>Node22</title>
<g id="a_node22"><a xlink:href="thread_8h.html" target="_top" xlink:title="util/thread.h">
<polygon fill="white" stroke="black" points="1120,-402.5 1120,-421.5 1188,-421.5 1188,-402.5 1120,-402.5"/>
<text text-anchor="middle" x="1154" y="-409.5" font-family="Helvetica,sans-Serif" font-size="10.00">util/thread.h</text>
</a>
</g>
</g>
<!-- Node9&#45;&gt;Node22 -->
<g id="edge27" class="edge"><title>Node9&#45;&gt;Node22</title>
<path fill="none" stroke="midnightblue" d="M841.189,-465.261C897.923,-456.59 992.103,-441.92 1073,-428 1084.88,-425.955 1097.72,-423.631 1109.6,-421.432"/>
<polygon fill="midnightblue" stroke="midnightblue" points="1110.56,-424.815 1119.75,-419.543 1109.27,-417.933 1110.56,-424.815"/>
</g>
<!-- Node48 -->
<g id="node48" class="node"><title>Node48</title>
<g id="a_node48"><a xlink:href="stopwatch_8h.html" target="_top" xlink:title="util/stopwatch.h">
<polygon fill="white" stroke="black" points="769,-334.5 769,-353.5 855,-353.5 855,-334.5 769,-334.5"/>
<text text-anchor="middle" x="812" y="-341.5" font-family="Helvetica,sans-Serif" font-size="10.00">util/stopwatch.h</text>
</a>
</g>
</g>
<!-- Node9&#45;&gt;Node48 -->
<g id="edge75" class="edge"><title>Node9&#45;&gt;Node48</title>
<path fill="none" stroke="midnightblue" d="M837.333,-464.422C858.102,-458.051 880.552,-447.023 893,-428 900.788,-416.099 899.874,-408.451 893,-396 883.174,-378.201 864.24,-365.767 847.147,-357.634"/>
<polygon fill="midnightblue" stroke="midnightblue" points="848.472,-354.393 837.911,-353.552 845.642,-360.796 848.472,-354.393"/>
</g>
<!-- Node49 -->
<g id="node49" class="node"><title>Node49</title>
<g id="a_node49"><a xlink:href="streaming-sampler_8h.html" target="_top" xlink:title="util/streaming&#45;sampler.h">
<polygon fill="white" stroke="black" points="729.5,-402.5 729.5,-421.5 850.5,-421.5 850.5,-402.5 729.5,-402.5"/>
<text text-anchor="middle" x="790" y="-409.5" font-family="Helvetica,sans-Serif" font-size="10.00">util/streaming&#45;sampler.h</text>
</a>
</g>
</g>
<!-- Node9&#45;&gt;Node49 -->
<g id="edge78" class="edge"><title>Node9&#45;&gt;Node49</title>
<path fill="none" stroke="midnightblue" d="M790,-464.403C790,-455.938 790,-442.728 790,-431.82"/>
<polygon fill="midnightblue" stroke="midnightblue" points="793.5,-431.581 790,-421.581 786.5,-431.581 793.5,-431.581"/>
</g>
<!-- Node50 -->
<g id="node50" class="node"><title>Node50</title>
<polygon fill="white" stroke="#bfbfbf" points="945.5,-397 945.5,-427 1064.5,-427 1064.5,-397 945.5,-397"/>
<text text-anchor="start" x="953.5" y="-415" font-family="Helvetica,sans-Serif" font-size="10.00">gen&#45;cpp/RuntimeProfile</text>
<text text-anchor="middle" x="1005" y="-404" font-family="Helvetica,sans-Serif" font-size="10.00">_types.h</text>
</g>
<!-- Node9&#45;&gt;Node50 -->
<g id="edge82" class="edge"><title>Node9&#45;&gt;Node50</title>
<path fill="none" stroke="midnightblue" d="M820.804,-464.403C853.092,-455.393 904.64,-441.007 945.004,-429.743"/>
<polygon fill="midnightblue" stroke="midnightblue" points="946.051,-433.085 954.743,-427.025 944.17,-426.342 946.051,-433.085"/>
</g>
<!-- Node17&#45;&gt;Node3 -->
<g id="edge17" class="edge"><title>Node17&#45;&gt;Node3</title>
<path fill="none" stroke="midnightblue" d="M555.977,-272.403C547.41,-263.225 533.639,-248.47 523.043,-237.117"/>
<polygon fill="midnightblue" stroke="midnightblue" points="525.39,-234.503 516.009,-229.581 520.273,-239.279 525.39,-234.503"/>
</g>
<!-- Node18 -->
<g id="node18" class="node"><title>Node18</title>
<g id="a_node18"><a xlink:href="compiler-util_8h.html" target="_top" xlink:title="common/compiler&#45;util.h">
<polygon fill="white" stroke="black" points="581,-74.5 581,-93.5 699,-93.5 699,-74.5 581,-74.5"/>
<text text-anchor="middle" x="640" y="-81.5" font-family="Helvetica,sans-Serif" font-size="10.00">common/compiler&#45;util.h</text>
</a>
</g>
</g>
<!-- Node17&#45;&gt;Node18 -->
<g id="edge18" class="edge"><title>Node17&#45;&gt;Node18</title>
<path fill="none" stroke="midnightblue" d="M563.126,-272.205C561.187,-248.597 558.471,-182.479 583,-136 590.88,-121.069 604.992,-108.389 617.202,-99.4077"/>
<polygon fill="midnightblue" stroke="midnightblue" points="619.428,-102.123 625.641,-93.5419 615.432,-96.3757 619.428,-102.123"/>
</g>
<!-- Node19&#45;&gt;Node4 -->
<g id="edge21" class="edge"><title>Node19&#45;&gt;Node4</title>
<path fill="none" stroke="midnightblue" d="M342.25,-405.7C309.489,-399.707 269.958,-386.981 245,-360 221.065,-334.124 226,-318.249 226,-283 226,-283 226,-283 226,-151 226,43.87 462.788,-92.5879 648,-32 649.918,-31.3726 651.869,-30.6499 653.811,-29.868"/>
<polygon fill="midnightblue" stroke="midnightblue" points="655.561,-32.9189 663.252,-25.6313 652.695,-26.5324 655.561,-32.9189"/>
</g>
<!-- Node19&#45;&gt;Node12 -->
<g id="edge23" class="edge"><title>Node19&#45;&gt;Node12</title>
<path fill="none" stroke="midnightblue" d="M405.406,-402.372C412.994,-392.151 425.813,-374.884 435.411,-361.957"/>
<polygon fill="midnightblue" stroke="midnightblue" points="438.285,-363.957 441.436,-353.841 432.665,-359.784 438.285,-363.957"/>
</g>
<!-- Node20 -->
<g id="node20" class="node"><title>Node20</title>
<polygon fill="white" stroke="#bfbfbf" points="254,-334.5 254,-353.5 370,-353.5 370,-334.5 254,-334.5"/>
<text text-anchor="middle" x="312" y="-341.5" font-family="Helvetica,sans-Serif" font-size="10.00">boost/thread/locks.hpp</text>
</g>
<!-- Node19&#45;&gt;Node20 -->
<g id="edge22" class="edge"><title>Node19&#45;&gt;Node20</title>
<path fill="none" stroke="midnightblue" d="M387.626,-402.372C373.428,-391.6 348.912,-373.002 331.649,-359.906"/>
<polygon fill="midnightblue" stroke="midnightblue" points="333.459,-356.886 323.377,-353.63 329.228,-362.463 333.459,-356.886"/>
</g>
<!-- Node21 -->
<g id="node21" class="node"><title>Node21</title>
<g id="a_node21"><a xlink:href="spinlock_8h.html" target="_top" xlink:title="util/spinlock.h">
<polygon fill="white" stroke="black" points="525.5,-334.5 525.5,-353.5 602.5,-353.5 602.5,-334.5 525.5,-334.5"/>
<text text-anchor="middle" x="564" y="-341.5" font-family="Helvetica,sans-Serif" font-size="10.00">util/spinlock.h</text>
</a>
</g>
</g>
<!-- Node19&#45;&gt;Node21 -->
<g id="edge24" class="edge"><title>Node19&#45;&gt;Node21</title>
<path fill="none" stroke="midnightblue" d="M420.571,-402.372C449.308,-390.877 500.328,-370.469 533.134,-357.346"/>
<polygon fill="midnightblue" stroke="midnightblue" points="534.7,-360.49 542.685,-353.526 532.101,-353.99 534.7,-360.49"/>
</g>
<!-- Node21&#45;&gt;Node6 -->
<g id="edge26" class="edge"><title>Node21&#45;&gt;Node6</title>
<path fill="none" stroke="midnightblue" d="M551.271,-334.278C529.023,-318.075 484.178,-280.868 471,-236 456.894,-187.973 483.075,-130.423 498.643,-102.253"/>
<polygon fill="midnightblue" stroke="midnightblue" points="501.68,-103.993 503.623,-93.5775 495.609,-100.507 501.68,-103.993"/>
</g>
<!-- Node21&#45;&gt;Node17 -->
<g id="edge25" class="edge"><title>Node21&#45;&gt;Node17</title>
<path fill="none" stroke="midnightblue" d="M564,-334.403C564,-325.938 564,-312.728 564,-301.82"/>
<polygon fill="midnightblue" stroke="midnightblue" points="567.5,-301.581 564,-291.581 560.5,-301.581 567.5,-301.581"/>
</g>
<!-- Node22&#45;&gt;Node10 -->
<g id="edge29" class="edge"><title>Node22&#45;&gt;Node10</title>
<path fill="none" stroke="midnightblue" d="M1174.13,-402.372C1200.76,-390.958 1247.9,-370.756 1278.54,-357.625"/>
<polygon fill="midnightblue" stroke="midnightblue" points="1280.05,-360.787 1287.86,-353.63 1277.29,-354.353 1280.05,-360.787"/>
</g>
<!-- Node22&#45;&gt;Node11 -->
<g id="edge30" class="edge"><title>Node22&#45;&gt;Node11</title>
<path fill="none" stroke="midnightblue" d="M1188.12,-402.841C1237.54,-391.023 1329.16,-369.115 1384.35,-355.917"/>
<polygon fill="midnightblue" stroke="midnightblue" points="1385.3,-359.288 1394.21,-353.558 1383.67,-352.48 1385.3,-359.288"/>
</g>
<!-- Node23 -->
<g id="node23" class="node"><title>Node23</title>
<polygon fill="white" stroke="#bfbfbf" points="967,-334.5 967,-353.5 1047,-353.5 1047,-334.5 967,-334.5"/>
<text text-anchor="middle" x="1007" y="-341.5" font-family="Helvetica,sans-Serif" font-size="10.00">boost/bind.hpp</text>
</g>
<!-- Node22&#45;&gt;Node23 -->
<g id="edge28" class="edge"><title>Node22&#45;&gt;Node23</title>
<path fill="none" stroke="midnightblue" d="M1134.78,-402.372C1109.47,-391.007 1064.76,-370.931 1035.5,-357.796"/>
<polygon fill="midnightblue" stroke="midnightblue" points="1036.78,-354.533 1026.22,-353.63 1033.91,-360.919 1036.78,-354.533"/>
</g>
<!-- Node24 -->
<g id="node24" class="node"><title>Node24</title>
<polygon fill="white" stroke="#bfbfbf" points="885.5,-272.5 885.5,-291.5 974.5,-291.5 974.5,-272.5 885.5,-272.5"/>
<text text-anchor="middle" x="930" y="-279.5" font-family="Helvetica,sans-Serif" font-size="10.00">boost/thread.hpp</text>
</g>
<!-- Node22&#45;&gt;Node24 -->
<g id="edge31" class="edge"><title>Node22&#45;&gt;Node24</title>
<path fill="none" stroke="midnightblue" d="M1160.54,-402.132C1171.85,-385.624 1192.21,-349.872 1174,-328 1167.93,-320.713 1054.77,-302.159 984.708,-291.287"/>
<polygon fill="midnightblue" stroke="midnightblue" points="985.12,-287.809 974.702,-289.74 984.051,-294.727 985.12,-287.809"/>
</g>
<!-- Node25 -->
<g id="node25" class="node"><title>Node25</title>
<polygon fill="white" stroke="#bfbfbf" points="1065,-329 1065,-359 1165,-359 1165,-329 1065,-329"/>
<text text-anchor="start" x="1073" y="-347" font-family="Helvetica,sans-Serif" font-size="10.00">boost/ptr_container</text>
<text text-anchor="middle" x="1115" y="-336" font-family="Helvetica,sans-Serif" font-size="10.00">/ptr_vector.hpp</text>
</g>
<!-- Node22&#45;&gt;Node25 -->
<g id="edge32" class="edge"><title>Node22&#45;&gt;Node25</title>
<path fill="none" stroke="midnightblue" d="M1148.9,-402.372C1143.74,-393.629 1135.52,-379.729 1128.47,-367.801"/>
<polygon fill="midnightblue" stroke="midnightblue" points="1131.48,-366.01 1123.38,-359.181 1125.45,-369.571 1131.48,-366.01"/>
</g>
<!-- Node26 -->
<g id="node26" class="node"><title>Node26</title>
<g id="a_node26"><a xlink:href="status_8h.html" target="_top" xlink:title="common/status.h">
<polygon fill="white" stroke="black" points="1325,-142.5 1325,-161.5 1417,-161.5 1417,-142.5 1325,-142.5"/>
<text text-anchor="middle" x="1371" y="-149.5" font-family="Helvetica,sans-Serif" font-size="10.00">common/status.h</text>
</a>
</g>
</g>
<!-- Node22&#45;&gt;Node26 -->
<g id="edge33" class="edge"><title>Node22&#45;&gt;Node26</title>
<path fill="none" stroke="midnightblue" d="M1162.52,-402.185C1186.7,-377.025 1257.45,-302.408 1311,-236 1328.7,-214.044 1347.5,-187.43 1359.25,-170.36"/>
<polygon fill="midnightblue" stroke="midnightblue" points="1362.24,-172.181 1364.99,-161.949 1356.46,-168.233 1362.24,-172.181"/>
</g>
<!-- Node37 -->
<g id="node37" class="node"><title>Node37</title>
<g id="a_node37"><a xlink:href="promise_8h.html" target="_top" xlink:title="util/promise.h">
<polygon fill="white" stroke="black" points="873.5,-334.5 873.5,-353.5 948.5,-353.5 948.5,-334.5 873.5,-334.5"/>
<text text-anchor="middle" x="911" y="-341.5" font-family="Helvetica,sans-Serif" font-size="10.00">util/promise.h</text>
</a>
</g>
</g>
<!-- Node22&#45;&gt;Node37 -->
<g id="edge52" class="edge"><title>Node22&#45;&gt;Node37</title>
<path fill="none" stroke="midnightblue" d="M1119.85,-402.713C1080.63,-393.055 1014.4,-376.326 958,-360 954.22,-358.906 950.284,-357.722 946.369,-356.515"/>
<polygon fill="midnightblue" stroke="midnightblue" points="947.37,-353.161 936.781,-353.506 945.274,-359.839 947.37,-353.161"/>
</g>
<!-- Node26&#45;&gt;Node4 -->
<g id="edge35" class="edge"><title>Node26&#45;&gt;Node4</title>
<path fill="none" stroke="midnightblue" d="M1324.84,-143.438C1184.49,-120.341 768.839,-51.1331 710,-32 708.081,-31.376 706.129,-30.6558 704.187,-29.8757"/>
<polygon fill="midnightblue" stroke="midnightblue" points="705.301,-26.5398 694.745,-25.6427 702.438,-32.9273 705.301,-26.5398"/>
</g>
<!-- Node26&#45;&gt;Node5 -->
<g id="edge34" class="edge"><title>Node26&#45;&gt;Node5</title>
<path fill="none" stroke="midnightblue" d="M1417.3,-145.087C1459.38,-138.385 1522.3,-124.981 1572,-100 1590.25,-90.828 1632.81,-53.939 1656.78,-32.5527"/>
<polygon fill="midnightblue" stroke="midnightblue" points="1659.31,-34.9873 1664.42,-25.7055 1654.64,-29.7756 1659.31,-34.9873"/>
</g>
<!-- Node26&#45;&gt;Node6 -->
<g id="edge37" class="edge"><title>Node26&#45;&gt;Node6</title>
<path fill="none" stroke="midnightblue" d="M1324.75,-142.609C1309.58,-140.128 1292.61,-137.64 1277,-136 964.974,-103.233 882.567,-144.52 572,-100 564.731,-98.958 557.07,-97.4713 549.691,-95.8347"/>
<polygon fill="midnightblue" stroke="midnightblue" points="550.4,-92.4062 539.866,-93.5377 548.807,-99.2224 550.4,-92.4062"/>
</g>
<!-- Node26&#45;&gt;Node18 -->
<g id="edge38" class="edge"><title>Node26&#45;&gt;Node18</title>
<path fill="none" stroke="midnightblue" d="M1324.73,-142.819C1309.56,-140.35 1292.59,-137.816 1277,-136 1060.98,-110.842 1005.66,-118.894 789,-100 762.935,-97.727 734.337,-94.9231 709.226,-92.3569"/>
<polygon fill="midnightblue" stroke="midnightblue" points="709.367,-88.853 699.061,-91.3118 708.651,-95.8163 709.367,-88.853"/>
</g>
<!-- Node27 -->
<g id="node27" class="node"><title>Node27</title>
<polygon fill="white" stroke="#bfbfbf" points="1521,-6.5 1521,-25.5 1635,-25.5 1635,-6.5 1521,-6.5"/>
<text text-anchor="middle" x="1578" y="-13.5" font-family="Helvetica,sans-Serif" font-size="10.00">boost/lexical_cast.hpp</text>
</g>
<!-- Node26&#45;&gt;Node27 -->
<g id="edge36" class="edge"><title>Node26&#45;&gt;Node27</title>
<path fill="none" stroke="midnightblue" d="M1355.6,-142.334C1330.31,-127.031 1284.9,-94.3462 1307,-68 1336.59,-32.734 1465.86,-41.0309 1511,-32 1517.6,-30.6802 1524.54,-29.2134 1531.36,-27.7284"/>
<polygon fill="midnightblue" stroke="midnightblue" points="1532.19,-31.1286 1541.2,-25.5547 1530.68,-24.2933 1532.19,-31.1286"/>
</g>
<!-- Node28 -->
<g id="node28" class="node"><title>Node28</title>
<polygon fill="white" stroke="#bfbfbf" points="1316,-74.5 1316,-93.5 1436,-93.5 1436,-74.5 1316,-74.5"/>
<text text-anchor="middle" x="1376" y="-81.5" font-family="Helvetica,sans-Serif" font-size="10.00">gen&#45;cpp/Status_types.h</text>
</g>
<!-- Node26&#45;&gt;Node28 -->
<g id="edge39" class="edge"><title>Node26&#45;&gt;Node28</title>
<path fill="none" stroke="midnightblue" d="M1371.65,-142.372C1372.39,-132.643 1373.61,-116.528 1374.57,-103.85"/>
<polygon fill="midnightblue" stroke="midnightblue" points="1378.06,-104.077 1375.33,-93.8411 1371.08,-103.548 1378.06,-104.077"/>
</g>
<!-- Node29 -->
<g id="node29" class="node"><title>Node29</title>
<polygon fill="white" stroke="#bfbfbf" points="829,-1 829,-31 933,-31 933,-1 829,-1"/>
<text text-anchor="start" x="837" y="-19" font-family="Helvetica,sans-Serif" font-size="10.00">gen&#45;cpp/ErrorCodes</text>
<text text-anchor="middle" x="881" y="-8" font-family="Helvetica,sans-Serif" font-size="10.00">_types.h</text>
</g>
<!-- Node26&#45;&gt;Node29 -->
<g id="edge40" class="edge"><title>Node26&#45;&gt;Node29</title>
<path fill="none" stroke="midnightblue" d="M1336.7,-142.439C1282.5,-128.856 1182.37,-103.535 1175,-100 1153.52,-89.6989 1153.81,-77.5725 1132,-68 1056.14,-34.712 1028.02,-49.1208 943.007,-32.0848"/>
<polygon fill="midnightblue" stroke="midnightblue" points="943.705,-28.6552 933.2,-30.0322 942.271,-35.5068 943.705,-28.6552"/>
</g>
<!-- Node30 -->
<g id="node30" class="node"><title>Node30</title>
<polygon fill="white" stroke="#bfbfbf" points="1454.5,-69 1454.5,-99 1563.5,-99 1563.5,-69 1454.5,-69"/>
<text text-anchor="start" x="1462.5" y="-87" font-family="Helvetica,sans-Serif" font-size="10.00">gen&#45;cpp/TCLIService</text>
<text text-anchor="middle" x="1509" y="-76" font-family="Helvetica,sans-Serif" font-size="10.00">_types.h</text>
</g>
<!-- Node26&#45;&gt;Node30 -->
<g id="edge41" class="edge"><title>Node26&#45;&gt;Node30</title>
<path fill="none" stroke="midnightblue" d="M1389.04,-142.372C1409.63,-132.526 1443.89,-116.141 1470.54,-103.396"/>
<polygon fill="midnightblue" stroke="midnightblue" points="1472.1,-106.528 1479.61,-99.0562 1469.08,-100.213 1472.1,-106.528"/>
</g>
<!-- Node31 -->
<g id="node31" class="node"><title>Node31</title>
<g id="a_node31"><a xlink:href="error-util_8h.html" target="_top" xlink:title="util/error&#45;util.h">
<polygon fill="white" stroke="black" points="1184,-74.5 1184,-93.5 1260,-93.5 1260,-74.5 1184,-74.5"/>
<text text-anchor="middle" x="1222" y="-81.5" font-family="Helvetica,sans-Serif" font-size="10.00">util/error&#45;util.h</text>
</a>
</g>
</g>
<!-- Node26&#45;&gt;Node31 -->
<g id="edge42" class="edge"><title>Node26&#45;&gt;Node31</title>
<path fill="none" stroke="midnightblue" d="M1351.52,-142.372C1325.87,-131.007 1280.54,-110.931 1250.89,-97.7961"/>
<polygon fill="midnightblue" stroke="midnightblue" points="1252.04,-94.4804 1241.48,-93.6305 1249.21,-100.881 1252.04,-94.4804"/>
</g>
<!-- Node31&#45;&gt;Node4 -->
<g id="edge44" class="edge"><title>Node31&#45;&gt;Node4</title>
<path fill="none" stroke="midnightblue" d="M1183.9,-83.7101C1097.73,-84.3506 881.946,-80.509 710,-32 707.803,-31.3801 705.571,-30.6113 703.364,-29.7519"/>
<polygon fill="midnightblue" stroke="midnightblue" points="704.59,-26.4665 694.032,-25.5848 701.736,-32.8581 704.59,-26.4665"/>
</g>
<!-- Node31&#45;&gt;Node5 -->
<g id="edge43" class="edge"><title>Node31&#45;&gt;Node5</title>
<path fill="none" stroke="midnightblue" d="M1260.42,-75.6476C1274.97,-73.0126 1291.72,-70.1621 1307,-68 1456.14,-46.8991 1499.45,-74.3557 1644,-32 1645.97,-31.4228 1647.97,-30.7202 1649.94,-29.9376"/>
<polygon fill="midnightblue" stroke="midnightblue" points="1651.84,-32.9175 1659.47,-25.5689 1648.93,-26.5542 1651.84,-32.9175"/>
</g>
<!-- Node31&#45;&gt;Node27 -->
<g id="edge46" class="edge"><title>Node31&#45;&gt;Node27</title>
<path fill="none" stroke="midnightblue" d="M1249.09,-74.4643C1257.06,-72.1491 1265.83,-69.7906 1274,-68 1378.07,-45.1872 1406.29,-51.6501 1511,-32 1517.77,-30.7297 1524.9,-29.2687 1531.87,-27.7677"/>
<polygon fill="midnightblue" stroke="midnightblue" points="1532.92,-31.1223 1541.93,-25.5577 1531.41,-24.2854 1532.92,-31.1223"/>
</g>
<!-- Node31&#45;&gt;Node29 -->
<g id="edge48" class="edge"><title>Node31&#45;&gt;Node29</title>
<path fill="none" stroke="midnightblue" d="M1194.91,-74.4948C1186.94,-72.1803 1178.16,-69.8145 1170,-68 1072.98,-46.4359 1044.34,-51.8868 943.198,-32.1306"/>
<polygon fill="midnightblue" stroke="midnightblue" points="943.669,-28.6558 933.178,-30.1382 942.304,-35.5214 943.669,-28.6558"/>
</g>
<!-- Node32 -->
<g id="node32" class="node"><title>Node32</title>
<polygon fill="white" stroke="#bfbfbf" points="719,-6.5 719,-25.5 811,-25.5 811,-6.5 719,-6.5"/>
<text text-anchor="middle" x="765" y="-13.5" font-family="Helvetica,sans-Serif" font-size="10.00">boost/cstdint.hpp</text>
</g>
<!-- Node31&#45;&gt;Node32 -->
<g id="edge45" class="edge"><title>Node31&#45;&gt;Node32</title>
<path fill="none" stroke="midnightblue" d="M1183.97,-76.2259C1167.95,-73.4866 1149.1,-70.4096 1132,-68 993.779,-48.5199 957.06,-58.4395 820,-32 814.473,-30.9338 808.687,-29.6009 803.03,-28.1726"/>
<polygon fill="midnightblue" stroke="midnightblue" points="803.633,-24.7118 793.07,-25.5353 801.841,-31.4785 803.633,-24.7118"/>
</g>
<!-- Node33 -->
<g id="node33" class="node"><title>Node33</title>
<polygon fill="white" stroke="#bfbfbf" points="1091,-1 1091,-31 1213,-31 1213,-1 1091,-1"/>
<text text-anchor="start" x="1099" y="-19" font-family="Helvetica,sans-Serif" font-size="10.00">gen&#45;cpp/CatalogObjects</text>
<text text-anchor="middle" x="1152" y="-8" font-family="Helvetica,sans-Serif" font-size="10.00">_types.h</text>
</g>
<!-- Node31&#45;&gt;Node33 -->
<g id="edge47" class="edge"><title>Node31&#45;&gt;Node33</title>
<path fill="none" stroke="midnightblue" d="M1212.85,-74.3717C1203.12,-65.2 1187.38,-50.3536 1174.34,-38.0615"/>
<polygon fill="midnightblue" stroke="midnightblue" points="1176.72,-35.495 1167.04,-31.1815 1171.92,-40.5882 1176.72,-35.495"/>
</g>
<!-- Node34 -->
<g id="node34" class="node"><title>Node34</title>
<polygon fill="white" stroke="#bfbfbf" points="1231,-1 1231,-31 1335,-31 1335,-1 1231,-1"/>
<text text-anchor="start" x="1239" y="-19" font-family="Helvetica,sans-Serif" font-size="10.00">gen&#45;cpp/ErrorCodes</text>
<text text-anchor="middle" x="1283" y="-8" font-family="Helvetica,sans-Serif" font-size="10.00">_constants.h</text>
</g>
<!-- Node31&#45;&gt;Node34 -->
<g id="edge49" class="edge"><title>Node31&#45;&gt;Node34</title>
<path fill="none" stroke="midnightblue" d="M1229.97,-74.3717C1238.29,-65.3715 1251.66,-50.9067 1262.89,-38.7534"/>
<polygon fill="midnightblue" stroke="midnightblue" points="1265.68,-40.9009 1269.89,-31.1815 1260.54,-36.1496 1265.68,-40.9009"/>
</g>
<!-- Node35 -->
<g id="node35" class="node"><title>Node35</title>
<polygon fill="white" stroke="#bfbfbf" points="1353.5,-1 1353.5,-31 1502.5,-31 1502.5,-1 1353.5,-1"/>
<text text-anchor="start" x="1361.5" y="-19" font-family="Helvetica,sans-Serif" font-size="10.00">gen&#45;cpp/ImpalaInternalService</text>
<text text-anchor="middle" x="1428" y="-8" font-family="Helvetica,sans-Serif" font-size="10.00">_types.h</text>
</g>
<!-- Node31&#45;&gt;Node35 -->
<g id="edge50" class="edge"><title>Node31&#45;&gt;Node35</title>
<path fill="none" stroke="midnightblue" d="M1248.93,-74.3717C1280.67,-64.2035 1334.18,-47.0602 1374.45,-34.1556"/>
<polygon fill="midnightblue" stroke="midnightblue" points="1375.67,-37.4405 1384.13,-31.0562 1373.54,-30.7743 1375.67,-37.4405"/>
</g>
<!-- Node36 -->
<g id="node36" class="node"><title>Node36</title>
<polygon fill="white" stroke="#bfbfbf" points="951.5,-6.5 951.5,-25.5 1072.5,-25.5 1072.5,-6.5 951.5,-6.5"/>
<text text-anchor="middle" x="1012" y="-13.5" font-family="Helvetica,sans-Serif" font-size="10.00">gutil/strings/substitute.h</text>
</g>
<!-- Node31&#45;&gt;Node36 -->
<g id="edge51" class="edge"><title>Node31&#45;&gt;Node36</title>
<path fill="none" stroke="midnightblue" d="M1194.55,-74.3717C1157.26,-62.654 1090.51,-41.6737 1048.88,-28.5912"/>
<polygon fill="midnightblue" stroke="midnightblue" points="1049.72,-25.1852 1039.13,-25.5259 1047.62,-31.8632 1049.72,-25.1852"/>
</g>
<!-- Node37&#45;&gt;Node6 -->
<g id="edge54" class="edge"><title>Node37&#45;&gt;Node6</title>
<path fill="none" stroke="midnightblue" d="M905.135,-334.497C885.123,-305.589 819.991,-212.424 806,-204 719.992,-152.216 671.039,-216.251 583,-168 554.614,-152.443 531.667,-121.659 519.212,-102.268"/>
<polygon fill="midnightblue" stroke="midnightblue" points="522.055,-100.211 513.821,-93.5439 516.1,-103.891 522.055,-100.211"/>
</g>
<!-- Node37&#45;&gt;Node24 -->
<g id="edge53" class="edge"><title>Node37&#45;&gt;Node24</title>
<path fill="none" stroke="midnightblue" d="M913.722,-334.403C916.459,-325.76 920.763,-312.17 924.258,-301.134"/>
<polygon fill="midnightblue" stroke="midnightblue" points="927.601,-302.171 927.283,-291.581 920.927,-300.057 927.601,-302.171"/>
</g>
<!-- Node38 -->
<g id="node38" class="node"><title>Node38</title>
<g id="a_node38"><a xlink:href="timestamp-value_8h.html" target="_top" xlink:title="runtime/timestamp&#45;value.h">
<polygon fill="white" stroke="black" points="1039,-272.5 1039,-291.5 1171,-291.5 1171,-272.5 1039,-272.5"/>
<text text-anchor="middle" x="1105" y="-279.5" font-family="Helvetica,sans-Serif" font-size="10.00">runtime/timestamp&#45;value.h</text>
</a>
</g>
</g>
<!-- Node37&#45;&gt;Node38 -->
<g id="edge55" class="edge"><title>Node37&#45;&gt;Node38</title>
<path fill="none" stroke="midnightblue" d="M937.826,-334.378C944.418,-332.276 951.46,-330.045 958,-328 994.915,-316.459 1037.14,-303.565 1066.84,-294.547"/>
<polygon fill="midnightblue" stroke="midnightblue" points="1068.24,-297.78 1076.79,-291.528 1066.2,-291.082 1068.24,-297.78"/>
</g>
<!-- Node46 -->
<g id="node46" class="node"><title>Node46</title>
<g id="a_node46"><a xlink:href="time_8h.html" target="_top" xlink:title="util/time.h">
<polygon fill="white" stroke="black" points="748.5,-272.5 748.5,-291.5 807.5,-291.5 807.5,-272.5 748.5,-272.5"/>
<text text-anchor="middle" x="778" y="-279.5" font-family="Helvetica,sans-Serif" font-size="10.00">util/time.h</text>
</a>
</g>
</g>
<!-- Node37&#45;&gt;Node46 -->
<g id="edge72" class="edge"><title>Node37&#45;&gt;Node46</title>
<path fill="none" stroke="midnightblue" d="M891.944,-334.403C869.525,-324.29 832.095,-307.404 806.287,-295.761"/>
<polygon fill="midnightblue" stroke="midnightblue" points="807.575,-292.502 797.02,-291.581 804.696,-298.883 807.575,-292.502"/>
</g>
<!-- Node38&#45;&gt;Node5 -->
<g id="edge57" class="edge"><title>Node38&#45;&gt;Node5</title>
<path fill="none" stroke="midnightblue" d="M1157.32,-272.442C1254.03,-254.526 1463.87,-205.662 1606,-100 1630.57,-81.7342 1651.62,-52.7122 1663.54,-34.2734"/>
<polygon fill="midnightblue" stroke="midnightblue" points="1666.57,-36.0399 1668.91,-25.7088 1660.64,-32.3198 1666.57,-36.0399"/>
</g>
<!-- Node38&#45;&gt;Node8 -->
<g id="edge60" class="edge"><title>Node38&#45;&gt;Node8</title>
<path fill="none" stroke="midnightblue" d="M1090.89,-272.315C1061.83,-254.514 996.019,-214.666 972,-204 924.213,-182.78 907.161,-190.575 860,-168 787.061,-133.085 778.583,-107.46 708,-68 681.948,-53.4354 651.028,-39.2441 628.786,-29.5451"/>
<polygon fill="midnightblue" stroke="midnightblue" points="630.095,-26.2977 619.526,-25.5477 627.32,-32.7244 630.095,-26.2977"/>
</g>
<!-- Node38&#45;&gt;Node32 -->
<g id="edge58" class="edge"><title>Node38&#45;&gt;Node32</title>
<path fill="none" stroke="midnightblue" d="M1171.23,-273.886C1199.16,-267.827 1230.19,-256.637 1252,-236 1285.28,-204.513 1305.57,-171.808 1277,-136 1272.94,-130.912 826.315,-33.579 820,-32 815.268,-30.8169 810.32,-29.5334 805.414,-28.2321"/>
<polygon fill="midnightblue" stroke="midnightblue" points="806.052,-24.7793 795.486,-25.5622 804.234,-31.5392 806.052,-24.7793"/>
</g>
<!-- Node39 -->
<g id="node39" class="node"><title>Node39</title>
<polygon fill="white" stroke="#bfbfbf" points="1185.5,-210.5 1185.5,-229.5 1226.5,-229.5 1226.5,-210.5 1185.5,-210.5"/>
<text text-anchor="middle" x="1206" y="-217.5" font-family="Helvetica,sans-Serif" font-size="10.00">ctime</text>
</g>
<!-- Node38&#45;&gt;Node39 -->
<g id="edge56" class="edge"><title>Node38&#45;&gt;Node39</title>
<path fill="none" stroke="midnightblue" d="M1119.47,-272.403C1136.05,-262.557 1163.43,-246.291 1182.95,-234.695"/>
<polygon fill="midnightblue" stroke="midnightblue" points="1184.75,-237.697 1191.56,-229.581 1181.17,-231.679 1184.75,-237.697"/>
</g>
<!-- Node40 -->
<g id="node40" class="node"><title>Node40</title>
<polygon fill="white" stroke="#bfbfbf" points="1155.5,-137 1155.5,-167 1268.5,-167 1268.5,-137 1155.5,-137"/>
<text text-anchor="start" x="1163.5" y="-155" font-family="Helvetica,sans-Serif" font-size="10.00">boost/date_time/posix</text>
<text text-anchor="middle" x="1212" y="-144" font-family="Helvetica,sans-Serif" font-size="10.00">_time/posix_time.hpp</text>
</g>
<!-- Node38&#45;&gt;Node40 -->
<g id="edge59" class="edge"><title>Node38&#45;&gt;Node40</title>
<path fill="none" stroke="midnightblue" d="M1171.13,-274.083C1195.27,-267.988 1220.25,-256.72 1235,-236 1247.7,-218.16 1238.34,-193.564 1228,-175.783"/>
<polygon fill="midnightblue" stroke="midnightblue" points="1230.89,-173.8 1222.62,-167.178 1224.96,-177.512 1230.89,-173.8"/>
</g>
<!-- Node41 -->
<g id="node41" class="node"><title>Node41</title>
<g id="a_node41"><a xlink:href="timestamp-parse-util_8h.html" target="_top" xlink:title="runtime/timestamp&#45;parse\l&#45;util.h">
<polygon fill="white" stroke="red" points="1042.5,-205 1042.5,-235 1167.5,-235 1167.5,-205 1042.5,-205"/>
<text text-anchor="start" x="1050.5" y="-223" font-family="Helvetica,sans-Serif" font-size="10.00">runtime/timestamp&#45;parse</text>
<text text-anchor="middle" x="1105" y="-212" font-family="Helvetica,sans-Serif" font-size="10.00">&#45;util.h</text>
</a>
</g>
</g>
<!-- Node38&#45;&gt;Node41 -->
<g id="edge61" class="edge"><title>Node38&#45;&gt;Node41</title>
<path fill="none" stroke="midnightblue" d="M1105,-272.403C1105,-265.341 1105,-254.975 1105,-245.399"/>
<polygon fill="midnightblue" stroke="midnightblue" points="1108.5,-245.141 1105,-235.141 1101.5,-245.141 1108.5,-245.141"/>
</g>
<!-- Node43 -->
<g id="node43" class="node"><title>Node43</title>
<g id="a_node43"><a xlink:href="udf_8h.html" target="_top" xlink:title="udf/udf.h">
<polygon fill="white" stroke="red" points="854.5,-210.5 854.5,-229.5 909.5,-229.5 909.5,-210.5 854.5,-210.5"/>
<text text-anchor="middle" x="882" y="-217.5" font-family="Helvetica,sans-Serif" font-size="10.00">udf/udf.h</text>
</a>
</g>
</g>
<!-- Node38&#45;&gt;Node43 -->
<g id="edge66" class="edge"><title>Node38&#45;&gt;Node43</title>
<path fill="none" stroke="midnightblue" d="M1073.05,-272.403C1032.47,-261.484 962.543,-242.671 919.482,-231.085"/>
<polygon fill="midnightblue" stroke="midnightblue" points="920.239,-227.664 909.673,-228.446 918.42,-234.424 920.239,-227.664"/>
</g>
<!-- Node45 -->
<g id="node45" class="node"><title>Node45</title>
<g id="a_node45"><a xlink:href="hash-util_8h.html" target="_top" xlink:title="util/hash&#45;util.h">
<polygon fill="white" stroke="red" points="659.5,-142.5 659.5,-161.5 736.5,-161.5 736.5,-142.5 659.5,-142.5"/>
<text text-anchor="middle" x="698" y="-149.5" font-family="Helvetica,sans-Serif" font-size="10.00">util/hash&#45;util.h</text>
</a>
</g>
</g>
<!-- Node38&#45;&gt;Node45 -->
<g id="edge69" class="edge"><title>Node38&#45;&gt;Node45</title>
<path fill="none" stroke="midnightblue" d="M1085.34,-272.428C1044.39,-254.651 951.027,-214.55 918,-204 860.136,-185.516 791.732,-170.725 746.739,-161.928"/>
<polygon fill="midnightblue" stroke="midnightblue" points="747.149,-158.442 736.667,-159.982 745.821,-165.315 747.149,-158.442"/>
</g>
<!-- Node41&#45;&gt;Node13 -->
<g id="edge64" class="edge"><title>Node41&#45;&gt;Node13</title>
<path fill="none" stroke="midnightblue" d="M1068.32,-204.841C1037.94,-193.118 995.208,-176.624 966.156,-165.411"/>
<polygon fill="midnightblue" stroke="midnightblue" points="967.083,-162.017 956.494,-161.682 964.563,-168.548 967.083,-162.017"/>
</g>
<!-- Node41&#45;&gt;Node26 -->
<g id="edge65" class="edge"><title>Node41&#45;&gt;Node26</title>
<path fill="none" stroke="midnightblue" d="M1161.74,-204.922C1211.1,-192.674 1281.64,-175.173 1326.88,-163.948"/>
<polygon fill="midnightblue" stroke="midnightblue" points="1327.82,-167.319 1336.69,-161.514 1326.14,-160.525 1327.82,-167.319"/>
</g>
<!-- Node41&#45;&gt;Node40 -->
<g id="edge63" class="edge"><title>Node41&#45;&gt;Node40</title>
<path fill="none" stroke="midnightblue" d="M1127.95,-204.841C1143.19,-195.446 1163.39,-182.985 1180.17,-172.635"/>
<polygon fill="midnightblue" stroke="midnightblue" points="1182.41,-175.364 1189.08,-167.135 1178.74,-169.406 1182.41,-175.364"/>
</g>
<!-- Node42 -->
<g id="node42" class="node"><title>Node42</title>
<polygon fill="white" stroke="#bfbfbf" points="1017,-142.5 1017,-161.5 1137,-161.5 1137,-142.5 1017,-142.5"/>
<text text-anchor="middle" x="1077" y="-149.5" font-family="Helvetica,sans-Serif" font-size="10.00">boost/assign/list_of.hpp</text>
</g>
<!-- Node41&#45;&gt;Node42 -->
<g id="edge62" class="edge"><title>Node41&#45;&gt;Node42</title>
<path fill="none" stroke="midnightblue" d="M1098.92,-204.679C1094.77,-194.898 1089.24,-181.852 1084.77,-171.315"/>
<polygon fill="midnightblue" stroke="midnightblue" points="1087.87,-169.667 1080.75,-161.828 1081.43,-172.401 1087.87,-169.667"/>
</g>
<!-- Node43&#45;&gt;Node32 -->
<g id="edge67" class="edge"><title>Node43&#45;&gt;Node32</title>
<path fill="none" stroke="midnightblue" d="M876.973,-210.32C859.237,-179.699 799.361,-76.3247 775.218,-34.6412"/>
<polygon fill="midnightblue" stroke="midnightblue" points="778.181,-32.7739 770.14,-25.8748 772.124,-36.2824 778.181,-32.7739"/>
</g>
<!-- Node44 -->
<g id="node44" class="node"><title>Node44</title>
<polygon fill="white" stroke="#bfbfbf" points="592.5,-142.5 592.5,-161.5 641.5,-161.5 641.5,-142.5 592.5,-142.5"/>
<text text-anchor="middle" x="617" y="-149.5" font-family="Helvetica,sans-Serif" font-size="10.00">string.h</text>
</g>
<!-- Node43&#45;&gt;Node44 -->
<g id="edge68" class="edge"><title>Node43&#45;&gt;Node44</title>
<path fill="none" stroke="midnightblue" d="M859.972,-210.406C853.593,-208.116 846.576,-205.785 840,-204 757.056,-181.478 731.93,-193.968 650,-168 647.722,-167.278 645.394,-166.44 643.081,-165.537"/>
<polygon fill="midnightblue" stroke="midnightblue" points="644.392,-162.291 633.821,-161.583 641.643,-168.729 644.392,-162.291"/>
</g>
<!-- Node45&#45;&gt;Node6 -->
<g id="edge70" class="edge"><title>Node45&#45;&gt;Node6</title>
<path fill="none" stroke="midnightblue" d="M673.292,-142.372C639.949,-130.728 580.417,-109.939 542.909,-96.8411"/>
<polygon fill="midnightblue" stroke="midnightblue" points="544.01,-93.5184 533.415,-93.5259 541.702,-100.127 544.01,-93.5184"/>
</g>
<!-- Node45&#45;&gt;Node18 -->
<g id="edge71" class="edge"><title>Node45&#45;&gt;Node18</title>
<path fill="none" stroke="midnightblue" d="M690.418,-142.372C681.35,-132.053 665.969,-114.551 654.575,-101.585"/>
<polygon fill="midnightblue" stroke="midnightblue" points="657,-99.0424 647.769,-93.8411 651.742,-103.663 657,-99.0424"/>
</g>
<!-- Node46&#45;&gt;Node46 -->
<g id="edge74" class="edge"><title>Node46&#45;&gt;Node46</title>
<path fill="none" stroke="midnightblue" d="M794.378,-291.556C809.163,-296.205 825,-293.02 825,-282 825,-273.477 815.526,-269.641 804.393,-270.491"/>
<polygon fill="midnightblue" stroke="midnightblue" points="803.523,-267.094 794.378,-272.444 804.863,-273.965 803.523,-267.094"/>
</g>
<!-- Node47 -->
<g id="node47" class="node"><title>Node47</title>
<polygon fill="white" stroke="#bfbfbf" points="748.5,-210.5 748.5,-229.5 797.5,-229.5 797.5,-210.5 748.5,-210.5"/>
<text text-anchor="middle" x="773" y="-217.5" font-family="Helvetica,sans-Serif" font-size="10.00">stdint.h</text>
</g>
<!-- Node46&#45;&gt;Node47 -->
<g id="edge73" class="edge"><title>Node46&#45;&gt;Node47</title>
<path fill="none" stroke="midnightblue" d="M777.284,-272.403C776.578,-263.938 775.477,-250.728 774.568,-239.82"/>
<polygon fill="midnightblue" stroke="midnightblue" points="778.034,-239.255 773.715,-229.581 771.058,-239.837 778.034,-239.255"/>
</g>
<!-- Node48&#45;&gt;Node32 -->
<g id="edge76" class="edge"><title>Node48&#45;&gt;Node32</title>
<path fill="none" stroke="midnightblue" d="M789.982,-334.425C772.63,-326.353 749.647,-312.427 739,-292 720.922,-257.318 735.774,-242.978 739,-204 740.338,-187.835 742.601,-184.042 745,-168 752.114,-120.418 759.218,-64.2024 762.733,-35.6565"/>
<polygon fill="midnightblue" stroke="midnightblue" points="766.232,-35.8793 763.972,-25.5283 759.283,-35.0292 766.232,-35.8793"/>
</g>
<!-- Node48&#45;&gt;Node46 -->
<g id="edge77" class="edge"><title>Node48&#45;&gt;Node46</title>
<path fill="none" stroke="midnightblue" d="M807.129,-334.403C802.13,-325.582 794.211,-311.608 787.891,-300.455"/>
<polygon fill="midnightblue" stroke="midnightblue" points="790.838,-298.555 782.862,-291.581 784.747,-302.006 790.838,-298.555"/>
</g>
<!-- Node49&#45;&gt;Node14 -->
<g id="edge80" class="edge"><title>Node49&#45;&gt;Node14</title>
<path fill="none" stroke="midnightblue" d="M781.372,-402.372C770.955,-391.955 753.217,-374.217 740.216,-361.216"/>
<polygon fill="midnightblue" stroke="midnightblue" points="742.387,-358.437 732.841,-353.841 737.437,-363.387 742.387,-358.437"/>
</g>
<!-- Node49&#45;&gt;Node21 -->
<g id="edge81" class="edge"><title>Node49&#45;&gt;Node21</title>
<path fill="none" stroke="midnightblue" d="M760.454,-402.372C720.076,-390.58 647.576,-369.407 602.842,-356.343"/>
<polygon fill="midnightblue" stroke="midnightblue" points="603.775,-352.97 593.195,-353.526 601.813,-359.689 603.775,-352.97"/>
</g>
<!-- Node49&#45;&gt;Node44 -->
<g id="edge79" class="edge"><title>Node49&#45;&gt;Node44</title>
<path fill="none" stroke="midnightblue" d="M758.821,-402.417C736.285,-394.724 706.643,-381.308 688,-360 638.59,-303.527 623.16,-210.983 618.688,-171.639"/>
<polygon fill="midnightblue" stroke="midnightblue" points="622.163,-171.22 617.662,-161.629 615.2,-171.933 622.163,-171.22"/>
</g>
</g>
</svg>
