<?xml version="1.0" encoding="UTF-8" standalone="no"?>
<!DOCTYPE svg PUBLIC "-//W3C//DTD SVG 1.1//EN"
 "http://www.w3.org/Graphics/SVG/1.1/DTD/svg11.dtd">
<!-- Generated by graphviz version 2.36.0 (20140111.2315)
 -->
<!-- Title: be/src/util/mem&#45;info.h Pages: 1 -->
<svg width="2091pt" height="96pt"
 viewBox="0.00 0.00 2091.00 96.00" xmlns="http://www.w3.org/2000/svg" xmlns:xlink="http://www.w3.org/1999/xlink">
<g id="graph0" class="graph" transform="scale(1 1) rotate(0) translate(4 92)">
<title>be/src/util/mem&#45;info.h</title>
<polygon fill="white" stroke="none" points="-4,4 -4,-92 2087,-92 2087,4 -4,4"/>
<!-- Node1 -->
<g id="node1" class="node"><title>Node1</title>
<polygon fill="#bfbfbf" stroke="black" points="984.5,-68.5 984.5,-87.5 1095.5,-87.5 1095.5,-68.5 984.5,-68.5"/>
<text text-anchor="middle" x="1040" y="-75.5" font-family="Helvetica,sans-Serif" font-size="10.00">be/src/util/mem&#45;info.h</text>
</g>
<!-- Node2 -->
<g id="node2" class="node"><title>Node2</title>
<g id="a_node2"><a xlink:href="init_8cc.html" target="_top" xlink:title="be/src/common/init.cc">
<polygon fill="white" stroke="black" points="-0.5,-6.5 -0.5,-25.5 112.5,-25.5 112.5,-6.5 -0.5,-6.5"/>
<text text-anchor="middle" x="56" y="-13.5" font-family="Helvetica,sans-Serif" font-size="10.00">be/src/common/init.cc</text>
</a>
</g>
</g>
<!-- Node1&#45;&gt;Node2 -->
<g id="edge1" class="edge"><title>Node1&#45;&gt;Node2</title>
<path fill="none" stroke="midnightblue" d="M974.196,-77.7762C822.81,-78.6916 438.461,-76.0455 121,-32 110.102,-30.488 98.3414,-28.0325 87.8588,-25.542"/>
<polygon fill="midnightblue" stroke="midnightblue" points="974.282,-81.2758 984.258,-77.708 974.235,-74.276 974.282,-81.2758"/>
</g>
<!-- Node3 -->
<g id="node3" class="node"><title>Node3</title>
<g id="a_node3"><a xlink:href="data-stream-test_8cc.html" target="_top" xlink:title="be/src/runtime/data\l&#45;stream&#45;test.cc">
<polygon fill="white" stroke="black" points="130.5,-1 130.5,-31 231.5,-31 231.5,-1 130.5,-1"/>
<text text-anchor="start" x="138.5" y="-19" font-family="Helvetica,sans-Serif" font-size="10.00">be/src/runtime/data</text>
<text text-anchor="middle" x="181" y="-8" font-family="Helvetica,sans-Serif" font-size="10.00">&#45;stream&#45;test.cc</text>
</a>
</g>
</g>
<!-- Node1&#45;&gt;Node3 -->
<g id="edge2" class="edge"><title>Node1&#45;&gt;Node3</title>
<path fill="none" stroke="midnightblue" d="M973.981,-77.5705C836.542,-77.8198 510.013,-73.5204 240,-32 237.284,-31.5824 234.511,-31.0948 231.721,-30.5559"/>
<polygon fill="midnightblue" stroke="midnightblue" points="974.343,-81.0696 984.333,-77.5423 974.324,-74.0697 974.343,-81.0696"/>
</g>
<!-- Node4 -->
<g id="node4" class="node"><title>Node4</title>
<g id="a_node4"><a xlink:href="exec-env_8cc.html" target="_top" xlink:title="be/src/runtime/exec\l&#45;env.cc">
<polygon fill="white" stroke="black" points="249.5,-1 249.5,-31 352.5,-31 352.5,-1 249.5,-1"/>
<text text-anchor="start" x="257.5" y="-19" font-family="Helvetica,sans-Serif" font-size="10.00">be/src/runtime/exec</text>
<text text-anchor="middle" x="301" y="-8" font-family="Helvetica,sans-Serif" font-size="10.00">&#45;env.cc</text>
</a>
</g>
</g>
<!-- Node1&#45;&gt;Node4 -->
<g id="edge3" class="edge"><title>Node1&#45;&gt;Node4</title>
<path fill="none" stroke="midnightblue" d="M974.007,-76.4394C852.301,-74.5606 584.586,-66.4825 362,-32 358.982,-31.5325 355.895,-30.9879 352.79,-30.3885"/>
<polygon fill="midnightblue" stroke="midnightblue" points="974.222,-79.9428 984.272,-76.5884 974.324,-72.9436 974.222,-79.9428"/>
</g>
<!-- Node5 -->
<g id="node5" class="node"><title>Node5</title>
<g id="a_node5"><a xlink:href="mem-tracker_8cc.html" target="_top" xlink:title="be/src/runtime/mem\l&#45;tracker.cc">
<polygon fill="white" stroke="black" points="371,-1 371,-31 475,-31 475,-1 371,-1"/>
<text text-anchor="start" x="379" y="-19" font-family="Helvetica,sans-Serif" font-size="10.00">be/src/runtime/mem</text>
<text text-anchor="middle" x="423" y="-8" font-family="Helvetica,sans-Serif" font-size="10.00">&#45;tracker.cc</text>
</a>
</g>
</g>
<!-- Node1&#45;&gt;Node5 -->
<g id="edge4" class="edge"><title>Node1&#45;&gt;Node5</title>
<path fill="none" stroke="midnightblue" d="M974.327,-75.092C869.887,-71.2945 659.772,-60.5352 484,-32 481.093,-31.5282 478.122,-30.989 475.13,-30.4019"/>
<polygon fill="midnightblue" stroke="midnightblue" points="974.287,-78.5927 984.404,-75.4486 974.534,-71.597 974.287,-78.5927"/>
</g>
<!-- Node6 -->
<g id="node6" class="node"><title>Node6</title>
<g id="a_node6"><a xlink:href="plan-fragment-executor_8cc.html" target="_top" xlink:title="be/src/runtime/plan\l&#45;fragment&#45;executor.cc">
<polygon fill="white" stroke="black" points="493,-1 493,-31 605,-31 605,-1 493,-1"/>
<text text-anchor="start" x="501" y="-19" font-family="Helvetica,sans-Serif" font-size="10.00">be/src/runtime/plan</text>
<text text-anchor="middle" x="549" y="-8" font-family="Helvetica,sans-Serif" font-size="10.00">&#45;fragment&#45;executor.cc</text>
</a>
</g>
</g>
<!-- Node1&#45;&gt;Node6 -->
<g id="edge5" class="edge"><title>Node1&#45;&gt;Node6</title>
<path fill="none" stroke="midnightblue" d="M974.06,-72.533C890.052,-66.2702 740.563,-53.2073 614,-32 611.144,-31.5215 608.227,-30.9934 605.286,-30.43"/>
<polygon fill="midnightblue" stroke="midnightblue" points="973.994,-76.0375 984.224,-73.2812 974.508,-69.0564 973.994,-76.0375"/>
</g>
<!-- Node7 -->
<g id="node7" class="node"><title>Node7</title>
<g id="a_node7"><a xlink:href="runtime-state_8cc.html" target="_top" xlink:title="be/src/runtime/runtime\l&#45;state.cc">
<polygon fill="white" stroke="black" points="623,-1 623,-31 737,-31 737,-1 623,-1"/>
<text text-anchor="start" x="631" y="-19" font-family="Helvetica,sans-Serif" font-size="10.00">be/src/runtime/runtime</text>
<text text-anchor="middle" x="680" y="-8" font-family="Helvetica,sans-Serif" font-size="10.00">&#45;state.cc</text>
</a>
</g>
</g>
<!-- Node1&#45;&gt;Node7 -->
<g id="edge6" class="edge"><title>Node1&#45;&gt;Node7</title>
<path fill="none" stroke="midnightblue" d="M974.205,-68.3032C914.47,-60.0816 824.047,-46.8223 746,-32 743.114,-31.4519 740.162,-30.8678 737.185,-30.26"/>
<polygon fill="midnightblue" stroke="midnightblue" points="973.873,-71.7904 984.256,-69.6788 974.823,-64.855 973.873,-71.7904"/>
</g>
<!-- Node8 -->
<g id="node8" class="node"><title>Node8</title>
<g id="a_node8"><a xlink:href="request-pool-service_8cc.html" target="_top" xlink:title="be/src/scheduling/request\l&#45;pool&#45;service.cc">
<polygon fill="white" stroke="black" points="755,-1 755,-31 883,-31 883,-1 755,-1"/>
<text text-anchor="start" x="763" y="-19" font-family="Helvetica,sans-Serif" font-size="10.00">be/src/scheduling/request</text>
<text text-anchor="middle" x="819" y="-8" font-family="Helvetica,sans-Serif" font-size="10.00">&#45;pool&#45;service.cc</text>
</a>
</g>
</g>
<!-- Node1&#45;&gt;Node8 -->
<g id="edge7" class="edge"><title>Node1&#45;&gt;Node8</title>
<path fill="none" stroke="midnightblue" d="M998.585,-65.7562C962.371,-55.9243 909.625,-41.6041 870.66,-31.0253"/>
<polygon fill="midnightblue" stroke="midnightblue" points="997.768,-69.161 1008.34,-68.4035 999.602,-62.4056 997.768,-69.161"/>
</g>
<!-- Node9 -->
<g id="node9" class="node"><title>Node9</title>
<g id="a_node9"><a xlink:href="fe-support_8cc.html" target="_top" xlink:title="be/src/service/fe&#45;support.cc">
<polygon fill="white" stroke="black" points="901,-6.5 901,-25.5 1039,-25.5 1039,-6.5 901,-6.5"/>
<text text-anchor="middle" x="970" y="-13.5" font-family="Helvetica,sans-Serif" font-size="10.00">be/src/service/fe&#45;support.cc</text>
</a>
</g>
</g>
<!-- Node1&#45;&gt;Node9 -->
<g id="edge8" class="edge"><title>Node1&#45;&gt;Node9</title>
<path fill="none" stroke="midnightblue" d="M1022.32,-61.8464C1008.93,-50.3706 991.023,-35.0195 980.011,-25.5806"/>
<polygon fill="midnightblue" stroke="midnightblue" points="1020.1,-64.5529 1029.97,-68.4035 1024.66,-59.2381 1020.1,-64.5529"/>
</g>
<!-- Node10 -->
<g id="node10" class="node"><title>Node10</title>
<g id="a_node10"><a xlink:href="query-options_8cc.html" target="_top" xlink:title="be/src/service/query\l&#45;options.cc">
<polygon fill="white" stroke="black" points="1057.5,-1 1057.5,-31 1162.5,-31 1162.5,-1 1057.5,-1"/>
<text text-anchor="start" x="1065.5" y="-19" font-family="Helvetica,sans-Serif" font-size="10.00">be/src/service/query</text>
<text text-anchor="middle" x="1110" y="-8" font-family="Helvetica,sans-Serif" font-size="10.00">&#45;options.cc</text>
</a>
</g>
</g>
<!-- Node1&#45;&gt;Node10 -->
<g id="edge9" class="edge"><title>Node1&#45;&gt;Node10</title>
<path fill="none" stroke="midnightblue" d="M1057.74,-61.7947C1068.73,-52.3738 1082.75,-40.3562 1093.5,-31.1408"/>
<polygon fill="midnightblue" stroke="midnightblue" points="1055.34,-59.2381 1050.03,-68.4035 1059.9,-64.5529 1055.34,-59.2381"/>
</g>
<!-- Node11 -->
<g id="node11" class="node"><title>Node11</title>
<g id="a_node11"><a xlink:href="query-schedule_8cc.html" target="_top" xlink:title="be/src/statestore/query\l&#45;schedule.cc">
<polygon fill="white" stroke="black" points="1180.5,-1 1180.5,-31 1297.5,-31 1297.5,-1 1180.5,-1"/>
<text text-anchor="start" x="1188.5" y="-19" font-family="Helvetica,sans-Serif" font-size="10.00">be/src/statestore/query</text>
<text text-anchor="middle" x="1239" y="-8" font-family="Helvetica,sans-Serif" font-size="10.00">&#45;schedule.cc</text>
</a>
</g>
</g>
<!-- Node1&#45;&gt;Node11 -->
<g id="edge10" class="edge"><title>Node1&#45;&gt;Node11</title>
<path fill="none" stroke="midnightblue" d="M1078.13,-65.5031C1110.71,-55.6798 1157.7,-41.5137 1192.48,-31.0253"/>
<polygon fill="midnightblue" stroke="midnightblue" points="1077.08,-62.1657 1068.51,-68.4035 1079.1,-68.8677 1077.08,-62.1657"/>
</g>
<!-- Node12 -->
<g id="node12" class="node"><title>Node12</title>
<g id="a_node12"><a xlink:href="simple-scheduler_8cc.html" target="_top" xlink:title="be/src/statestore/simple\l&#45;scheduler.cc">
<polygon fill="white" stroke="black" points="1316,-1 1316,-31 1438,-31 1438,-1 1316,-1"/>
<text text-anchor="start" x="1324" y="-19" font-family="Helvetica,sans-Serif" font-size="10.00">be/src/statestore/simple</text>
<text text-anchor="middle" x="1377" y="-8" font-family="Helvetica,sans-Serif" font-size="10.00">&#45;scheduler.cc</text>
</a>
</g>
</g>
<!-- Node1&#45;&gt;Node12 -->
<g id="edge11" class="edge"><title>Node1&#45;&gt;Node12</title>
<path fill="none" stroke="midnightblue" d="M1104.48,-66.8435C1158.43,-58.1655 1237.38,-45.0477 1306,-32 1309.22,-31.3881 1312.51,-30.7458 1315.84,-30.0856"/>
<polygon fill="midnightblue" stroke="midnightblue" points="1103.69,-63.4254 1094.37,-68.4648 1104.8,-70.3371 1103.69,-63.4254"/>
</g>
<!-- Node13 -->
<g id="node13" class="node"><title>Node13</title>
<g id="a_node13"><a xlink:href="mem-info_8cc.html" target="_top" xlink:title="be/src/util/mem&#45;info.cc">
<polygon fill="white" stroke="black" points="1456,-6.5 1456,-25.5 1572,-25.5 1572,-6.5 1456,-6.5"/>
<text text-anchor="middle" x="1514" y="-13.5" font-family="Helvetica,sans-Serif" font-size="10.00">be/src/util/mem&#45;info.cc</text>
</a>
</g>
</g>
<!-- Node1&#45;&gt;Node13 -->
<g id="edge12" class="edge"><title>Node1&#45;&gt;Node13</title>
<path fill="none" stroke="midnightblue" d="M1105.58,-71.9872C1186.27,-65.3053 1327.3,-51.9541 1447,-32 1457.58,-30.236 1469,-27.8583 1479.37,-25.5166"/>
<polygon fill="midnightblue" stroke="midnightblue" points="1105.24,-68.5029 1095.56,-72.808 1105.82,-75.4795 1105.24,-68.5029"/>
</g>
<!-- Node14 -->
<g id="node14" class="node"><title>Node14</title>
<g id="a_node14"><a xlink:href="parse-util-test_8cc.html" target="_top" xlink:title="be/src/util/parse&#45;util\l&#45;test.cc">
<polygon fill="white" stroke="black" points="1590,-1 1590,-31 1692,-31 1692,-1 1590,-1"/>
<text text-anchor="start" x="1598" y="-19" font-family="Helvetica,sans-Serif" font-size="10.00">be/src/util/parse&#45;util</text>
<text text-anchor="middle" x="1641" y="-8" font-family="Helvetica,sans-Serif" font-size="10.00">&#45;test.cc</text>
</a>
</g>
</g>
<!-- Node1&#45;&gt;Node14 -->
<g id="edge13" class="edge"><title>Node1&#45;&gt;Node14</title>
<path fill="none" stroke="midnightblue" d="M1105.7,-74.8702C1207.77,-70.8105 1410.36,-59.7478 1580,-32 1583.23,-31.4719 1586.54,-30.8615 1589.87,-30.1955"/>
<polygon fill="midnightblue" stroke="midnightblue" points="1105.4,-71.3791 1095.55,-75.2641 1105.67,-78.3738 1105.4,-71.3791"/>
</g>
<!-- Node15 -->
<g id="node15" class="node"><title>Node15</title>
<g id="a_node15"><a xlink:href="parse-util_8cc.html" target="_top" xlink:title="be/src/util/parse&#45;util.cc">
<polygon fill="white" stroke="black" points="1710,-6.5 1710,-25.5 1826,-25.5 1826,-6.5 1710,-6.5"/>
<text text-anchor="middle" x="1768" y="-13.5" font-family="Helvetica,sans-Serif" font-size="10.00">be/src/util/parse&#45;util.cc</text>
</a>
</g>
</g>
<!-- Node1&#45;&gt;Node15 -->
<g id="edge14" class="edge"><title>Node1&#45;&gt;Node15</title>
<path fill="none" stroke="midnightblue" d="M1105.98,-75.751C1225.17,-72.774 1484.04,-63.0046 1700,-32 1711.13,-30.4022 1723.15,-27.9857 1733.94,-25.5562"/>
<polygon fill="midnightblue" stroke="midnightblue" points="1105.84,-72.2535 1095.92,-75.9944 1106,-79.2514 1105.84,-72.2535"/>
</g>
<!-- Node16 -->
<g id="node16" class="node"><title>Node16</title>
<g id="a_node16"><a xlink:href="proc-info-test_8cc.html" target="_top" xlink:title="be/src/util/proc&#45;info\l&#45;test.cc">
<polygon fill="white" stroke="black" points="1844,-1 1844,-31 1944,-31 1944,-1 1844,-1"/>
<text text-anchor="start" x="1852" y="-19" font-family="Helvetica,sans-Serif" font-size="10.00">be/src/util/proc&#45;info</text>
<text text-anchor="middle" x="1894" y="-8" font-family="Helvetica,sans-Serif" font-size="10.00">&#45;test.cc</text>
</a>
</g>
</g>
<!-- Node1&#45;&gt;Node16 -->
<g id="edge15" class="edge"><title>Node1&#45;&gt;Node16</title>
<path fill="none" stroke="midnightblue" d="M1106.02,-77.4424C1242.7,-77.4412 1566.27,-72.6823 1834,-32 1837.18,-31.5161 1840.45,-30.9396 1843.72,-30.2989"/>
<polygon fill="midnightblue" stroke="midnightblue" points="1105.72,-73.9422 1095.72,-77.4334 1105.72,-80.9422 1105.72,-73.9422"/>
</g>
<!-- Node17 -->
<g id="node17" class="node"><title>Node17</title>
<g id="a_node17"><a xlink:href="webserver_8cc.html" target="_top" xlink:title="be/src/util/webserver.cc">
<polygon fill="white" stroke="black" points="1962.5,-6.5 1962.5,-25.5 2083.5,-25.5 2083.5,-6.5 1962.5,-6.5"/>
<text text-anchor="middle" x="2023" y="-13.5" font-family="Helvetica,sans-Serif" font-size="10.00">be/src/util/webserver.cc</text>
</a>
</g>
</g>
<!-- Node1&#45;&gt;Node17 -->
<g id="edge16" class="edge"><title>Node1&#45;&gt;Node17</title>
<path fill="none" stroke="midnightblue" d="M1105.6,-77.3957C1256.09,-77.5125 1637.47,-73.3061 1953,-32 1964.71,-30.4674 1977.37,-28.0066 1988.66,-25.5176"/>
<polygon fill="midnightblue" stroke="midnightblue" points="1105.6,-73.8958 1095.6,-77.3812 1105.59,-80.8958 1105.6,-73.8958"/>
</g>
</g>
</svg>
