<?xml version="1.0" encoding="UTF-8" standalone="no"?>
<!DOCTYPE svg PUBLIC "-//W3C//DTD SVG 1.1//EN"
 "http://www.w3.org/Graphics/SVG/1.1/DTD/svg11.dtd">
<!-- Generated by graphviz version 2.36.0 (20140111.2315)
 -->
<!-- Title: be/src/util/memory&#45;metrics.cc Pages: 1 -->
<svg width="2675pt" height="412pt"
 viewBox="0.00 0.00 2675.00 412.00" xmlns="http://www.w3.org/2000/svg" xmlns:xlink="http://www.w3.org/1999/xlink">
<g id="graph0" class="graph" transform="scale(1 1) rotate(0) translate(4 408)">
<title>be/src/util/memory&#45;metrics.cc</title>
<polygon fill="white" stroke="none" points="-4,4 -4,-408 2671,-408 2671,4 -4,4"/>
<!-- Node1 -->
<g id="node1" class="node"><title>Node1</title>
<polygon fill="#bfbfbf" stroke="black" points="1484,-373 1484,-403 1582,-403 1582,-373 1484,-373"/>
<text text-anchor="start" x="1492" y="-391" font-family="Helvetica,sans-Serif" font-size="10.00">be/src/util/memory</text>
<text text-anchor="middle" x="1533" y="-380" font-family="Helvetica,sans-Serif" font-size="10.00">&#45;metrics.cc</text>
</g>
<!-- Node2 -->
<g id="node2" class="node"><title>Node2</title>
<g id="a_node2"><a xlink:href="memory-metrics_8h.html" target="_top" xlink:title="util/memory&#45;metrics.h">
<polygon fill="white" stroke="black" points="1405.5,-316.5 1405.5,-335.5 1516.5,-335.5 1516.5,-316.5 1405.5,-316.5"/>
<text text-anchor="middle" x="1461" y="-323.5" font-family="Helvetica,sans-Serif" font-size="10.00">util/memory&#45;metrics.h</text>
</a>
</g>
</g>
<!-- Node1&#45;&gt;Node2 -->
<g id="edge1" class="edge"><title>Node1&#45;&gt;Node2</title>
<path fill="none" stroke="midnightblue" d="M1515.94,-372.781C1504.94,-363.613 1490.63,-351.696 1479.38,-342.319"/>
<polygon fill="midnightblue" stroke="midnightblue" points="1481.4,-339.444 1471.48,-335.731 1476.92,-344.821 1481.4,-339.444"/>
</g>
<!-- Node8 -->
<g id="node8" class="node"><title>Node8</title>
<polygon fill="white" stroke="#bfbfbf" points="1848.5,-204.5 1848.5,-223.5 1943.5,-223.5 1943.5,-204.5 1848.5,-204.5"/>
<text text-anchor="middle" x="1896" y="-211.5" font-family="Helvetica,sans-Serif" font-size="10.00">boost/foreach.hpp</text>
</g>
<!-- Node1&#45;&gt;Node8 -->
<g id="edge71" class="edge"><title>Node1&#45;&gt;Node8</title>
<path fill="none" stroke="midnightblue" d="M1562.71,-372.925C1631.64,-340.262 1801.67,-259.698 1868.44,-228.058"/>
<polygon fill="midnightblue" stroke="midnightblue" points="1870.34,-231.03 1877.88,-223.585 1867.35,-224.704 1870.34,-231.03"/>
</g>
<!-- Node24 -->
<g id="node24" class="node"><title>Node24</title>
<polygon fill="white" stroke="#bfbfbf" points="193.5,-6.5 193.5,-25.5 314.5,-25.5 314.5,-6.5 193.5,-6.5"/>
<text text-anchor="middle" x="254" y="-13.5" font-family="Helvetica,sans-Serif" font-size="10.00">gutil/strings/substitute.h</text>
</g>
<!-- Node1&#45;&gt;Node24 -->
<g id="edge72" class="edge"><title>Node1&#45;&gt;Node24</title>
<path fill="none" stroke="midnightblue" d="M1483.96,-385.899C1222.76,-379.721 7,-346.889 7,-271 7,-271 7,-271 7,-151 7,-103.92 147.4,-51.6621 216.494,-28.7954"/>
<polygon fill="midnightblue" stroke="midnightblue" points="217.729,-32.074 226.146,-25.639 215.554,-25.4208 217.729,-32.074"/>
</g>
<!-- Node42 -->
<g id="node42" class="node"><title>Node42</title>
<polygon fill="white" stroke="#bfbfbf" points="2220.5,-74.5 2220.5,-93.5 2349.5,-93.5 2349.5,-74.5 2220.5,-74.5"/>
<text text-anchor="middle" x="2285" y="-81.5" font-family="Helvetica,sans-Serif" font-size="10.00">boost/algorithm/string.hpp</text>
</g>
<!-- Node1&#45;&gt;Node42 -->
<g id="edge70" class="edge"><title>Node1&#45;&gt;Node42</title>
<path fill="none" stroke="midnightblue" d="M1582.24,-386.683C1787.06,-384.727 2561,-370.737 2561,-271 2561,-271 2561,-271 2561,-213 2561,-177.751 2567.49,-160.344 2542,-136 2516.26,-111.422 2425.98,-97.8361 2359.67,-90.9873"/>
<polygon fill="midnightblue" stroke="midnightblue" points="2359.96,-87.4987 2349.66,-89.9852 2359.26,-94.4639 2359.96,-87.4987"/>
</g>
<!-- Node47 -->
<g id="node47" class="node"><title>Node47</title>
<g id="a_node47"><a xlink:href="jni-util_8h.html" target="_top" xlink:title="util/jni&#45;util.h">
<polygon fill="white" stroke="black" points="610,-204.5 610,-223.5 676,-223.5 676,-204.5 610,-204.5"/>
<text text-anchor="middle" x="643" y="-211.5" font-family="Helvetica,sans-Serif" font-size="10.00">util/jni&#45;util.h</text>
</a>
</g>
</g>
<!-- Node1&#45;&gt;Node47 -->
<g id="edge73" class="edge"><title>Node1&#45;&gt;Node47</title>
<path fill="none" stroke="midnightblue" d="M1483.88,-377.508C1326.41,-347.075 835.758,-252.252 686.509,-223.408"/>
<polygon fill="midnightblue" stroke="midnightblue" points="686.845,-219.909 676.362,-221.448 685.516,-226.781 686.845,-219.909"/>
</g>
<!-- Node49 -->
<g id="node49" class="node"><title>Node49</title>
<g id="a_node49"><a xlink:href="time_8h.html" target="_top" xlink:title="util/time.h">
<polygon fill="white" stroke="black" points="2589.5,-316.5 2589.5,-335.5 2648.5,-335.5 2648.5,-316.5 2589.5,-316.5"/>
<text text-anchor="middle" x="2619" y="-323.5" font-family="Helvetica,sans-Serif" font-size="10.00">util/time.h</text>
</a>
</g>
</g>
<!-- Node1&#45;&gt;Node49 -->
<g id="edge79" class="edge"><title>Node1&#45;&gt;Node49</title>
<path fill="none" stroke="midnightblue" d="M1582.06,-387.253C1731.64,-387.458 2194.94,-383.886 2575,-336 2576.45,-335.817 2577.92,-335.613 2579.41,-335.391"/>
<polygon fill="midnightblue" stroke="midnightblue" points="2580.01,-338.841 2589.28,-333.72 2578.84,-331.939 2580.01,-338.841"/>
</g>
<!-- Node3 -->
<g id="node3" class="node"><title>Node3</title>
<g id="a_node3"><a xlink:href="metrics_8h.html" target="_top" xlink:title="util/metrics.h">
<polygon fill="white" stroke="black" points="1068.5,-260.5 1068.5,-279.5 1141.5,-279.5 1141.5,-260.5 1068.5,-260.5"/>
<text text-anchor="middle" x="1105" y="-267.5" font-family="Helvetica,sans-Serif" font-size="10.00">util/metrics.h</text>
</a>
</g>
</g>
<!-- Node2&#45;&gt;Node3 -->
<g id="edge2" class="edge"><title>Node2&#45;&gt;Node3</title>
<path fill="none" stroke="midnightblue" d="M1405.38,-316.562C1335.58,-305.976 1217.13,-288.009 1151.78,-278.095"/>
<polygon fill="midnightblue" stroke="midnightblue" points="1152.17,-274.615 1141.76,-276.576 1151.12,-281.536 1152.17,-274.615"/>
</g>
<!-- Node12 -->
<g id="node12" class="node"><title>Node12</title>
<polygon fill="white" stroke="#bfbfbf" points="35.5,-142.5 35.5,-161.5 154.5,-161.5 154.5,-142.5 35.5,-142.5"/>
<text text-anchor="middle" x="95" y="-149.5" font-family="Helvetica,sans-Serif" font-size="10.00">boost/thread/mutex.hpp</text>
</g>
<!-- Node2&#45;&gt;Node12 -->
<g id="edge65" class="edge"><title>Node2&#45;&gt;Node12</title>
<path fill="none" stroke="midnightblue" d="M1405.38,-323.511C1169.14,-316.816 255.87,-287.027 145,-224 124.269,-212.215 110.068,-187.889 102.242,-171.018"/>
<polygon fill="midnightblue" stroke="midnightblue" points="105.375,-169.443 98.1918,-161.655 98.9502,-172.223 105.375,-169.443"/>
</g>
<!-- Node27 -->
<g id="node27" class="node"><title>Node27</title>
<g id="a_node27"><a xlink:href="debug-util_8h.html" target="_top" xlink:title="util/debug&#45;util.h">
<polygon fill="white" stroke="black" points="1747.5,-204.5 1747.5,-223.5 1830.5,-223.5 1830.5,-204.5 1747.5,-204.5"/>
<text text-anchor="middle" x="1789" y="-211.5" font-family="Helvetica,sans-Serif" font-size="10.00">util/debug&#45;util.h</text>
</a>
</g>
</g>
<!-- Node2&#45;&gt;Node27 -->
<g id="edge68" class="edge"><title>Node2&#45;&gt;Node27</title>
<path fill="none" stroke="midnightblue" d="M1486.46,-316.46C1544.59,-296.966 1687.14,-249.159 1753.7,-226.839"/>
<polygon fill="midnightblue" stroke="midnightblue" points="1754.96,-230.108 1763.33,-223.61 1752.73,-223.472 1754.96,-230.108"/>
</g>
<!-- Node32 -->
<g id="node32" class="node"><title>Node32</title>
<polygon fill="white" stroke="#bfbfbf" points="1407,-142.5 1407,-161.5 1537,-161.5 1537,-142.5 1407,-142.5"/>
<text text-anchor="middle" x="1472" y="-149.5" font-family="Helvetica,sans-Serif" font-size="10.00">gen&#45;cpp/Frontend_types.h</text>
</g>
<!-- Node2&#45;&gt;Node32 -->
<g id="edge69" class="edge"><title>Node2&#45;&gt;Node32</title>
<path fill="none" stroke="midnightblue" d="M1475.66,-316.402C1487.41,-308.585 1503.03,-295.862 1510,-280 1523.59,-249.075 1520.63,-236.061 1510,-204 1505.65,-190.868 1496.45,-178.374 1488.2,-169.038"/>
<polygon fill="midnightblue" stroke="midnightblue" points="1490.72,-166.615 1481.33,-161.711 1485.61,-171.401 1490.72,-166.615"/>
</g>
<!-- Node45 -->
<g id="node45" class="node"><title>Node45</title>
<polygon fill="white" stroke="#bfbfbf" points="1421,-260.5 1421,-279.5 1501,-279.5 1501,-260.5 1421,-260.5"/>
<text text-anchor="middle" x="1461" y="-267.5" font-family="Helvetica,sans-Serif" font-size="10.00">boost/bind.hpp</text>
</g>
<!-- Node2&#45;&gt;Node45 -->
<g id="edge66" class="edge"><title>Node2&#45;&gt;Node45</title>
<path fill="none" stroke="midnightblue" d="M1461,-316.083C1461,-309.006 1461,-298.861 1461,-289.986"/>
<polygon fill="midnightblue" stroke="midnightblue" points="1464.5,-289.751 1461,-279.751 1457.5,-289.751 1464.5,-289.751"/>
</g>
<!-- Node46 -->
<g id="node46" class="node"><title>Node46</title>
<polygon fill="white" stroke="#bfbfbf" points="1271,-260.5 1271,-279.5 1403,-279.5 1403,-260.5 1271,-260.5"/>
<text text-anchor="middle" x="1337" y="-267.5" font-family="Helvetica,sans-Serif" font-size="10.00">google/malloc_extension.h</text>
</g>
<!-- Node2&#45;&gt;Node46 -->
<g id="edge67" class="edge"><title>Node2&#45;&gt;Node46</title>
<path fill="none" stroke="midnightblue" d="M1441.35,-316.444C1421.04,-307.596 1389.1,-293.687 1365.9,-283.586"/>
<polygon fill="midnightblue" stroke="midnightblue" points="1367.12,-280.3 1356.56,-279.516 1364.33,-286.718 1367.12,-280.3"/>
</g>
<!-- Node4 -->
<g id="node4" class="node"><title>Node4</title>
<polygon fill="white" stroke="#bfbfbf" points="873.5,-142.5 873.5,-161.5 908.5,-161.5 908.5,-142.5 873.5,-142.5"/>
<text text-anchor="middle" x="891" y="-149.5" font-family="Helvetica,sans-Serif" font-size="10.00">map</text>
</g>
<!-- Node3&#45;&gt;Node4 -->
<g id="edge3" class="edge"><title>Node3&#45;&gt;Node4</title>
<path fill="none" stroke="midnightblue" d="M1088.96,-260.417C1056.57,-243.076 981.103,-202.568 918,-168 917.177,-167.549 916.34,-167.09 915.496,-166.625"/>
<polygon fill="midnightblue" stroke="midnightblue" points="916.848,-163.374 906.403,-161.599 913.461,-169.5 916.848,-163.374"/>
</g>
<!-- Node5 -->
<g id="node5" class="node"><title>Node5</title>
<polygon fill="white" stroke="#bfbfbf" points="1019.5,-6.5 1019.5,-25.5 1060.5,-25.5 1060.5,-6.5 1019.5,-6.5"/>
<text text-anchor="middle" x="1040" y="-13.5" font-family="Helvetica,sans-Serif" font-size="10.00">string</text>
</g>
<!-- Node3&#45;&gt;Node5 -->
<g id="edge4" class="edge"><title>Node3&#45;&gt;Node5</title>
<path fill="none" stroke="midnightblue" d="M1119.35,-260.327C1142.96,-245.101 1189.17,-211.055 1207,-168 1215.58,-147.296 1205.02,-75.3132 1199,-68 1167.56,-29.8061 1107.38,-19.8703 1070.75,-17.4905"/>
<polygon fill="midnightblue" stroke="midnightblue" points="1070.8,-13.9889 1060.64,-16.9867 1070.45,-20.9802 1070.8,-13.9889"/>
</g>
<!-- Node6 -->
<g id="node6" class="node"><title>Node6</title>
<polygon fill="white" stroke="#bfbfbf" points="1349,-74.5 1349,-93.5 1401,-93.5 1401,-74.5 1349,-74.5"/>
<text text-anchor="middle" x="1375" y="-81.5" font-family="Helvetica,sans-Serif" font-size="10.00">sstream</text>
</g>
<!-- Node3&#45;&gt;Node6 -->
<g id="edge5" class="edge"><title>Node3&#45;&gt;Node6</title>
<path fill="none" stroke="midnightblue" d="M1141.79,-264.763C1171.6,-259.621 1213.09,-248.376 1241,-224 1273.79,-195.365 1254.1,-167.635 1284,-136 1293.57,-125.878 1324.49,-109.509 1347.65,-98.0535"/>
<polygon fill="midnightblue" stroke="midnightblue" points="1349.26,-101.163 1356.7,-93.6275 1346.18,-94.8744 1349.26,-101.163"/>
</g>
<!-- Node7 -->
<g id="node7" class="node"><title>Node7</title>
<polygon fill="white" stroke="#bfbfbf" points="1293.5,-204.5 1293.5,-223.5 1334.5,-223.5 1334.5,-204.5 1293.5,-204.5"/>
<text text-anchor="middle" x="1314" y="-211.5" font-family="Helvetica,sans-Serif" font-size="10.00">stack</text>
</g>
<!-- Node3&#45;&gt;Node7 -->
<g id="edge6" class="edge"><title>Node3&#45;&gt;Node7</title>
<path fill="none" stroke="midnightblue" d="M1138.12,-260.444C1177.99,-250.141 1244.43,-232.976 1283.23,-222.951"/>
<polygon fill="midnightblue" stroke="midnightblue" points="1284.59,-226.215 1293.39,-220.325 1282.83,-219.437 1284.59,-226.215"/>
</g>
<!-- Node3&#45;&gt;Node8 -->
<g id="edge7" class="edge"><title>Node3&#45;&gt;Node8</title>
<path fill="none" stroke="midnightblue" d="M1141.9,-266.836C1278.76,-258.798 1753.38,-230.81 1838.41,-223.78"/>
<polygon fill="midnightblue" stroke="midnightblue" points="1838.82,-227.257 1848.46,-222.854 1838.18,-220.286 1838.82,-227.257"/>
</g>
<!-- Node9 -->
<g id="node9" class="node"><title>Node9</title>
<polygon fill="white" stroke="#bfbfbf" points="719.5,-142.5 719.5,-161.5 816.5,-161.5 816.5,-142.5 719.5,-142.5"/>
<text text-anchor="middle" x="768" y="-149.5" font-family="Helvetica,sans-Serif" font-size="10.00">boost/function.hpp</text>
</g>
<!-- Node3&#45;&gt;Node9 -->
<g id="edge8" class="edge"><title>Node3&#45;&gt;Node9</title>
<path fill="none" stroke="midnightblue" d="M1068.36,-266.918C1000.25,-262.466 857.322,-250.218 816,-224 796.232,-211.457 782.631,-187.512 775.084,-170.918"/>
<polygon fill="midnightblue" stroke="midnightblue" points="778.3,-169.537 771.166,-161.704 771.858,-172.276 778.3,-169.537"/>
</g>
<!-- Node10 -->
<g id="node10" class="node"><title>Node10</title>
<polygon fill="white" stroke="#bfbfbf" points="1391,-204.5 1391,-223.5 1501,-223.5 1501,-204.5 1391,-204.5"/>
<text text-anchor="middle" x="1446" y="-211.5" font-family="Helvetica,sans-Serif" font-size="10.00">boost/scoped_ptr.hpp</text>
</g>
<!-- Node3&#45;&gt;Node10 -->
<g id="edge9" class="edge"><title>Node3&#45;&gt;Node10</title>
<path fill="none" stroke="midnightblue" d="M1141.82,-263.17C1199.35,-254.059 1311.3,-236.33 1382.17,-225.108"/>
<polygon fill="midnightblue" stroke="midnightblue" points="1382.99,-228.522 1392.32,-223.501 1381.89,-221.609 1382.99,-228.522"/>
</g>
<!-- Node11 -->
<g id="node11" class="node"><title>Node11</title>
<polygon fill="white" stroke="#bfbfbf" points="307,-142.5 307,-161.5 423,-161.5 423,-142.5 307,-142.5"/>
<text text-anchor="middle" x="365" y="-149.5" font-family="Helvetica,sans-Serif" font-size="10.00">boost/thread/locks.hpp</text>
</g>
<!-- Node3&#45;&gt;Node11 -->
<g id="edge10" class="edge"><title>Node3&#45;&gt;Node11</title>
<path fill="none" stroke="midnightblue" d="M1068.13,-268.013C936.522,-264.283 494.637,-249.935 437,-224 411.065,-212.33 389.121,-186.998 376.503,-169.968"/>
<polygon fill="midnightblue" stroke="midnightblue" points="379.132,-167.625 370.487,-161.5 373.426,-171.679 379.132,-167.625"/>
</g>
<!-- Node3&#45;&gt;Node12 -->
<g id="edge11" class="edge"><title>Node3&#45;&gt;Node12</title>
<path fill="none" stroke="midnightblue" d="M1068.28,-268.536C907.243,-266.323 267.68,-255.602 184,-224 153.49,-212.478 125.337,-186.313 109.177,-169.168"/>
<polygon fill="midnightblue" stroke="midnightblue" points="111.576,-166.606 102.249,-161.58 106.407,-171.325 111.576,-166.606"/>
</g>
<!-- Node13 -->
<g id="node13" class="node"><title>Node13</title>
<g id="a_node13"><a xlink:href="logging_8h.html" target="_top" xlink:title="common/logging.h">
<polygon fill="white" stroke="black" points="211,-74.5 211,-93.5 307,-93.5 307,-74.5 211,-74.5"/>
<text text-anchor="middle" x="259" y="-81.5" font-family="Helvetica,sans-Serif" font-size="10.00">common/logging.h</text>
</a>
</g>
</g>
<!-- Node3&#45;&gt;Node13 -->
<g id="edge12" class="edge"><title>Node3&#45;&gt;Node13</title>
<path fill="none" stroke="midnightblue" d="M1068.33,-269.471C984.343,-269.744 772.094,-265.838 601,-224 537.503,-208.473 519.933,-203.432 465,-168 447.561,-156.752 448.991,-146.341 431,-136 395.732,-115.728 351.681,-102.866 316.988,-95.1301"/>
<polygon fill="midnightblue" stroke="midnightblue" points="317.517,-91.6641 307.005,-92.9868 316.048,-98.5081 317.517,-91.6641"/>
</g>
<!-- Node16 -->
<g id="node16" class="node"><title>Node16</title>
<g id="a_node16"><a xlink:href="status_8h.html" target="_top" xlink:title="common/status.h">
<polygon fill="white" stroke="black" points="571,-142.5 571,-161.5 663,-161.5 663,-142.5 571,-142.5"/>
<text text-anchor="middle" x="617" y="-149.5" font-family="Helvetica,sans-Serif" font-size="10.00">common/status.h</text>
</a>
</g>
</g>
<!-- Node3&#45;&gt;Node16 -->
<g id="edge15" class="edge"><title>Node3&#45;&gt;Node16</title>
<path fill="none" stroke="midnightblue" d="M1068.27,-266.618C1009.19,-262.143 889.777,-250.441 792,-224 737.555,-209.277 677.263,-182.282 643.565,-166.156"/>
<polygon fill="midnightblue" stroke="midnightblue" points="644.92,-162.924 634.394,-161.72 641.872,-169.225 644.92,-162.924"/>
</g>
<!-- Node25 -->
<g id="node25" class="node"><title>Node25</title>
<g id="a_node25"><a xlink:href="object-pool_8h.html" target="_top" xlink:title="common/object&#45;pool.h">
<polygon fill="white" stroke="black" points="193.5,-204.5 193.5,-223.5 306.5,-223.5 306.5,-204.5 193.5,-204.5"/>
<text text-anchor="middle" x="250" y="-211.5" font-family="Helvetica,sans-Serif" font-size="10.00">common/object&#45;pool.h</text>
</a>
</g>
</g>
<!-- Node3&#45;&gt;Node25 -->
<g id="edge30" class="edge"><title>Node3&#45;&gt;Node25</title>
<path fill="none" stroke="midnightblue" d="M1068.15,-266.863C961.077,-260.625 640.741,-241.757 375,-224 356.046,-222.733 335.481,-221.284 316.609,-219.924"/>
<polygon fill="midnightblue" stroke="midnightblue" points="316.843,-216.432 306.617,-219.201 316.338,-223.413 316.843,-216.432"/>
</g>
<!-- Node3&#45;&gt;Node27 -->
<g id="edge36" class="edge"><title>Node3&#45;&gt;Node27</title>
<path fill="none" stroke="midnightblue" d="M1141.77,-266.097C1255.92,-257.085 1604.44,-229.571 1737.04,-219.102"/>
<polygon fill="midnightblue" stroke="midnightblue" points="1737.64,-222.566 1747.33,-218.29 1737.09,-215.588 1737.64,-222.566"/>
</g>
<!-- Node37 -->
<g id="node37" class="node"><title>Node37</title>
<g id="a_node37"><a xlink:href="json-util_8h.html" target="_top" xlink:title="util/json&#45;util.h">
<polygon fill="white" stroke="black" points="1068,-204.5 1068,-223.5 1142,-223.5 1142,-204.5 1068,-204.5"/>
<text text-anchor="middle" x="1105" y="-211.5" font-family="Helvetica,sans-Serif" font-size="10.00">util/json&#45;util.h</text>
</a>
</g>
</g>
<!-- Node3&#45;&gt;Node37 -->
<g id="edge48" class="edge"><title>Node3&#45;&gt;Node37</title>
<path fill="none" stroke="midnightblue" d="M1105,-260.083C1105,-253.006 1105,-242.861 1105,-233.986"/>
<polygon fill="midnightblue" stroke="midnightblue" points="1108.5,-233.751 1105,-223.751 1101.5,-233.751 1108.5,-233.751"/>
</g>
<!-- Node41 -->
<g id="node41" class="node"><title>Node41</title>
<g id="a_node41"><a xlink:href="pretty-printer_8h.html" target="_top" xlink:title="util/pretty&#45;printer.h">
<polygon fill="white" stroke="red" points="1293.5,-142.5 1293.5,-161.5 1388.5,-161.5 1388.5,-142.5 1293.5,-142.5"/>
<text text-anchor="middle" x="1341" y="-149.5" font-family="Helvetica,sans-Serif" font-size="10.00">util/pretty&#45;printer.h</text>
</a>
</g>
</g>
<!-- Node3&#45;&gt;Node41 -->
<g id="edge58" class="edge"><title>Node3&#45;&gt;Node41</title>
<path fill="none" stroke="midnightblue" d="M1141.6,-267.579C1201.87,-264.385 1317.85,-254.356 1343,-224 1355.02,-209.496 1351.98,-187.023 1347.58,-171.254"/>
<polygon fill="midnightblue" stroke="midnightblue" points="1350.87,-170.043 1344.48,-161.589 1344.2,-172.18 1350.87,-170.043"/>
</g>
<!-- Node44 -->
<g id="node44" class="node"><title>Node44</title>
<g id="a_node44"><a xlink:href="webserver_8h.html" target="_top" xlink:title="util/webserver.h">
<polygon fill="white" stroke="red" points="825,-204.5 825,-223.5 911,-223.5 911,-204.5 825,-204.5"/>
<text text-anchor="middle" x="868" y="-211.5" font-family="Helvetica,sans-Serif" font-size="10.00">util/webserver.h</text>
</a>
</g>
</g>
<!-- Node3&#45;&gt;Node44 -->
<g id="edge59" class="edge"><title>Node3&#45;&gt;Node44</title>
<path fill="none" stroke="midnightblue" d="M1068.49,-260.681C1027.32,-251.302 960.271,-236.024 915.171,-225.748"/>
<polygon fill="midnightblue" stroke="midnightblue" points="915.864,-222.316 905.336,-223.507 914.308,-229.141 915.864,-222.316"/>
</g>
<!-- Node14 -->
<g id="node14" class="node"><title>Node14</title>
<polygon fill="white" stroke="#bfbfbf" points="98.5,-6.5 98.5,-25.5 175.5,-25.5 175.5,-6.5 98.5,-6.5"/>
<text text-anchor="middle" x="137" y="-13.5" font-family="Helvetica,sans-Serif" font-size="10.00">glog/logging.h</text>
</g>
<!-- Node13&#45;&gt;Node14 -->
<g id="edge13" class="edge"><title>Node13&#45;&gt;Node14</title>
<path fill="none" stroke="midnightblue" d="M243.051,-74.3717C222.409,-63.2051 186.219,-43.6266 161.932,-30.4876"/>
<polygon fill="midnightblue" stroke="midnightblue" points="163.414,-27.3103 152.953,-25.6305 160.083,-33.4671 163.414,-27.3103"/>
</g>
<!-- Node15 -->
<g id="node15" class="node"><title>Node15</title>
<polygon fill="white" stroke="#bfbfbf" points="0,-6.5 0,-25.5 80,-25.5 80,-6.5 0,-6.5"/>
<text text-anchor="middle" x="40" y="-13.5" font-family="Helvetica,sans-Serif" font-size="10.00">gflags/gflags.h</text>
</g>
<!-- Node13&#45;&gt;Node15 -->
<g id="edge14" class="edge"><title>Node13&#45;&gt;Node15</title>
<path fill="none" stroke="midnightblue" d="M230.41,-74.4763C196.616,-64.3888 138.689,-47.0586 89,-32 85.2285,-30.857 81.295,-29.6605 77.3687,-28.4631"/>
<polygon fill="midnightblue" stroke="midnightblue" points="78.3057,-25.0897 67.7195,-25.5152 76.2605,-31.7843 78.3057,-25.0897"/>
</g>
<!-- Node16&#45;&gt;Node5 -->
<g id="edge16" class="edge"><title>Node16&#45;&gt;Node5</title>
<path fill="none" stroke="midnightblue" d="M650.607,-142.466C659.203,-140.32 668.436,-138.046 677,-136 747.051,-119.265 770.324,-131.688 835,-100 855.135,-90.1351 854.244,-78.6035 874,-68 918.176,-44.2894 975.007,-29.8627 1009.41,-22.6636"/>
<polygon fill="midnightblue" stroke="midnightblue" points="1010.22,-26.0708 1019.33,-20.6592 1008.83,-19.2095 1010.22,-26.0708"/>
</g>
<!-- Node16&#45;&gt;Node13 -->
<g id="edge19" class="edge"><title>Node16&#45;&gt;Node13</title>
<path fill="none" stroke="midnightblue" d="M587.193,-142.457C578.764,-140.193 569.556,-137.864 561,-136 515.597,-126.109 391.421,-105.951 317.197,-94.1565"/>
<polygon fill="midnightblue" stroke="midnightblue" points="317.494,-90.6598 307.069,-92.5496 316.397,-97.5733 317.494,-90.6598"/>
</g>
<!-- Node17 -->
<g id="node17" class="node"><title>Node17</title>
<polygon fill="white" stroke="#bfbfbf" points="332,-6.5 332,-25.5 376,-25.5 376,-6.5 332,-6.5"/>
<text text-anchor="middle" x="354" y="-13.5" font-family="Helvetica,sans-Serif" font-size="10.00">vector</text>
</g>
<!-- Node16&#45;&gt;Node17 -->
<g id="edge17" class="edge"><title>Node16&#45;&gt;Node17</title>
<path fill="none" stroke="midnightblue" d="M585.331,-142.438C577.392,-140.313 568.889,-138.056 561,-136 497.998,-119.577 473.554,-135.537 419,-100 393.534,-83.4115 373.756,-53.4212 363.003,-34.3949"/>
<polygon fill="midnightblue" stroke="midnightblue" points="366.063,-32.696 358.219,-25.5738 359.909,-36.0329 366.063,-32.696"/>
</g>
<!-- Node18 -->
<g id="node18" class="node"><title>Node18</title>
<polygon fill="white" stroke="#bfbfbf" points="516,-6.5 516,-25.5 630,-25.5 630,-6.5 516,-6.5"/>
<text text-anchor="middle" x="573" y="-13.5" font-family="Helvetica,sans-Serif" font-size="10.00">boost/lexical_cast.hpp</text>
</g>
<!-- Node16&#45;&gt;Node18 -->
<g id="edge18" class="edge"><title>Node16&#45;&gt;Node18</title>
<path fill="none" stroke="midnightblue" d="M602.355,-142.424C589.012,-133.674 570.179,-118.737 562,-100 552.851,-79.0387 559.104,-52.4897 565.282,-35.1401"/>
<polygon fill="midnightblue" stroke="midnightblue" points="568.607,-36.2468 568.981,-25.6586 562.086,-33.7028 568.607,-36.2468"/>
</g>
<!-- Node19 -->
<g id="node19" class="node"><title>Node19</title>
<g id="a_node19"><a xlink:href="compiler-util_8h.html" target="_top" xlink:title="common/compiler&#45;util.h">
<polygon fill="white" stroke="black" points="571,-74.5 571,-93.5 689,-93.5 689,-74.5 571,-74.5"/>
<text text-anchor="middle" x="630" y="-81.5" font-family="Helvetica,sans-Serif" font-size="10.00">common/compiler&#45;util.h</text>
</a>
</g>
</g>
<!-- Node16&#45;&gt;Node19 -->
<g id="edge20" class="edge"><title>Node16&#45;&gt;Node19</title>
<path fill="none" stroke="midnightblue" d="M618.7,-142.372C620.616,-132.643 623.79,-116.528 626.287,-103.85"/>
<polygon fill="midnightblue" stroke="midnightblue" points="629.76,-104.329 628.259,-93.8411 622.892,-102.976 629.76,-104.329"/>
</g>
<!-- Node20 -->
<g id="node20" class="node"><title>Node20</title>
<polygon fill="white" stroke="#bfbfbf" points="707,-74.5 707,-93.5 827,-93.5 827,-74.5 707,-74.5"/>
<text text-anchor="middle" x="767" y="-81.5" font-family="Helvetica,sans-Serif" font-size="10.00">gen&#45;cpp/Status_types.h</text>
</g>
<!-- Node16&#45;&gt;Node20 -->
<g id="edge21" class="edge"><title>Node16&#45;&gt;Node20</title>
<path fill="none" stroke="midnightblue" d="M636.61,-142.372C662.438,-131.007 708.066,-110.931 737.918,-97.7961"/>
<polygon fill="midnightblue" stroke="midnightblue" points="739.642,-100.862 747.385,-93.6305 736.823,-94.4543 739.642,-100.862"/>
</g>
<!-- Node21 -->
<g id="node21" class="node"><title>Node21</title>
<polygon fill="white" stroke="#bfbfbf" points="394,-1 394,-31 498,-31 498,-1 394,-1"/>
<text text-anchor="start" x="402" y="-19" font-family="Helvetica,sans-Serif" font-size="10.00">gen&#45;cpp/ErrorCodes</text>
<text text-anchor="middle" x="446" y="-8" font-family="Helvetica,sans-Serif" font-size="10.00">_types.h</text>
</g>
<!-- Node16&#45;&gt;Node21 -->
<g id="edge22" class="edge"><title>Node16&#45;&gt;Node21</title>
<path fill="none" stroke="midnightblue" d="M584.979,-142.397C531.705,-128.066 430.602,-100.788 430,-100 416.998,-82.9766 424.025,-58.3817 432.467,-40.3842"/>
<polygon fill="midnightblue" stroke="midnightblue" points="435.75,-41.6516 437.185,-31.1543 429.517,-38.4656 435.75,-41.6516"/>
</g>
<!-- Node22 -->
<g id="node22" class="node"><title>Node22</title>
<polygon fill="white" stroke="#bfbfbf" points="883.5,-69 883.5,-99 992.5,-99 992.5,-69 883.5,-69"/>
<text text-anchor="start" x="891.5" y="-87" font-family="Helvetica,sans-Serif" font-size="10.00">gen&#45;cpp/TCLIService</text>
<text text-anchor="middle" x="938" y="-76" font-family="Helvetica,sans-Serif" font-size="10.00">_types.h</text>
</g>
<!-- Node16&#45;&gt;Node22 -->
<g id="edge23" class="edge"><title>Node16&#45;&gt;Node22</title>
<path fill="none" stroke="midnightblue" d="M649.614,-142.471C658.474,-140.257 668.084,-137.949 677,-136 761.818,-117.463 783.905,-117.223 869,-100 870.464,-99.7036 871.946,-99.4014 873.439,-99.0947"/>
<polygon fill="midnightblue" stroke="midnightblue" points="874.341,-102.482 883.417,-97.0172 872.914,-95.6291 874.341,-102.482"/>
</g>
<!-- Node23 -->
<g id="node23" class="node"><title>Node23</title>
<g id="a_node23"><a xlink:href="error-util_8h.html" target="_top" xlink:title="util/error&#45;util.h">
<polygon fill="white" stroke="red" points="439,-74.5 439,-93.5 515,-93.5 515,-74.5 439,-74.5"/>
<text text-anchor="middle" x="477" y="-81.5" font-family="Helvetica,sans-Serif" font-size="10.00">util/error&#45;util.h</text>
</a>
</g>
</g>
<!-- Node16&#45;&gt;Node23 -->
<g id="edge24" class="edge"><title>Node16&#45;&gt;Node23</title>
<path fill="none" stroke="midnightblue" d="M598.697,-142.372C574.696,-131.057 532.375,-111.105 504.508,-97.9678"/>
<polygon fill="midnightblue" stroke="midnightblue" points="505.845,-94.7289 495.307,-93.6305 502.86,-101.061 505.845,-94.7289"/>
</g>
<!-- Node23&#45;&gt;Node5 -->
<g id="edge25" class="edge"><title>Node23&#45;&gt;Node5</title>
<path fill="none" stroke="midnightblue" d="M515.416,-75.6465C529.973,-73.0115 546.718,-70.1612 562,-68 730.156,-44.2205 933.006,-26.0208 1009.14,-19.5553"/>
<polygon fill="midnightblue" stroke="midnightblue" points="1009.77,-23.0152 1019.44,-18.6873 1009.18,-16.0399 1009.77,-23.0152"/>
</g>
<!-- Node23&#45;&gt;Node17 -->
<g id="edge26" class="edge"><title>Node23&#45;&gt;Node17</title>
<path fill="none" stroke="midnightblue" d="M460.92,-74.3717C440.109,-63.2051 403.622,-43.6266 379.136,-30.4876"/>
<polygon fill="midnightblue" stroke="midnightblue" points="380.551,-27.2746 370.084,-25.6305 377.241,-33.4428 380.551,-27.2746"/>
</g>
<!-- Node23&#45;&gt;Node18 -->
<g id="edge27" class="edge"><title>Node23&#45;&gt;Node18</title>
<path fill="none" stroke="midnightblue" d="M489.55,-74.3717C505.433,-63.4521 533.016,-44.4888 552.1,-31.369"/>
<polygon fill="midnightblue" stroke="midnightblue" points="554.189,-34.1799 560.447,-25.6305 550.223,-28.4116 554.189,-34.1799"/>
</g>
<!-- Node23&#45;&gt;Node21 -->
<g id="edge28" class="edge"><title>Node23&#45;&gt;Node21</title>
<path fill="none" stroke="midnightblue" d="M472.947,-74.3717C468.921,-65.8 462.567,-52.2719 457.04,-40.5045"/>
<polygon fill="midnightblue" stroke="midnightblue" points="460.08,-38.7448 452.661,-31.1815 453.744,-41.7208 460.08,-38.7448"/>
</g>
<!-- Node23&#45;&gt;Node24 -->
<g id="edge29" class="edge"><title>Node23&#45;&gt;Node24</title>
<path fill="none" stroke="midnightblue" d="M447.847,-74.3717C408.088,-62.6045 336.767,-41.4961 292.605,-28.4257"/>
<polygon fill="midnightblue" stroke="midnightblue" points="293.389,-25.0078 282.807,-25.5259 291.403,-31.72 293.389,-25.0078"/>
</g>
<!-- Node25&#45;&gt;Node11 -->
<g id="edge32" class="edge"><title>Node25&#45;&gt;Node11</title>
<path fill="none" stroke="midnightblue" d="M266.477,-204.403C285.605,-194.423 317.373,-177.849 339.652,-166.225"/>
<polygon fill="midnightblue" stroke="midnightblue" points="341.307,-169.309 348.554,-161.581 338.069,-163.103 341.307,-169.309"/>
</g>
<!-- Node25&#45;&gt;Node12 -->
<g id="edge33" class="edge"><title>Node25&#45;&gt;Node12</title>
<path fill="none" stroke="midnightblue" d="M227.792,-204.403C201.319,-194.156 156.886,-176.956 126.78,-165.302"/>
<polygon fill="midnightblue" stroke="midnightblue" points="127.756,-161.927 117.167,-161.581 125.229,-168.455 127.756,-161.927"/>
</g>
<!-- Node25&#45;&gt;Node17 -->
<g id="edge31" class="edge"><title>Node25&#45;&gt;Node17</title>
<path fill="none" stroke="midnightblue" d="M235.63,-204.33C224.12,-196.469 208.811,-183.722 202,-168 184.332,-127.218 175.429,-103.627 202,-68 235.543,-23.0235 270.688,-52.2852 323,-32 324.648,-31.361 326.329,-30.6695 328.013,-29.9462"/>
<polygon fill="midnightblue" stroke="midnightblue" points="329.857,-32.9507 337.487,-25.5996 326.938,-26.5883 329.857,-32.9507"/>
</g>
<!-- Node26 -->
<g id="node26" class="node"><title>Node26</title>
<g id="a_node26"><a xlink:href="spinlock_8h.html" target="_top" xlink:title="util/spinlock.h">
<polygon fill="white" stroke="red" points="211.5,-142.5 211.5,-161.5 288.5,-161.5 288.5,-142.5 211.5,-142.5"/>
<text text-anchor="middle" x="250" y="-149.5" font-family="Helvetica,sans-Serif" font-size="10.00">util/spinlock.h</text>
</a>
</g>
</g>
<!-- Node25&#45;&gt;Node26 -->
<g id="edge34" class="edge"><title>Node25&#45;&gt;Node26</title>
<path fill="none" stroke="midnightblue" d="M250,-204.403C250,-195.938 250,-182.728 250,-171.82"/>
<polygon fill="midnightblue" stroke="midnightblue" points="253.5,-171.581 250,-161.581 246.5,-171.581 253.5,-171.581"/>
</g>
<!-- Node26&#45;&gt;Node13 -->
<g id="edge35" class="edge"><title>Node26&#45;&gt;Node13</title>
<path fill="none" stroke="midnightblue" d="M251.177,-142.372C252.503,-132.643 254.701,-116.528 256.429,-103.85"/>
<polygon fill="midnightblue" stroke="midnightblue" points="259.911,-104.222 257.794,-93.8411 252.975,-103.276 259.911,-104.222"/>
</g>
<!-- Node27&#45;&gt;Node5 -->
<g id="edge38" class="edge"><title>Node27&#45;&gt;Node5</title>
<path fill="none" stroke="midnightblue" d="M1824.01,-204.445C1842.93,-197.844 1864.68,-186.594 1876,-168 1883.39,-155.851 1883.76,-147.916 1876,-136 1835.15,-73.3133 1794.58,-86.1645 1722,-68 1595.91,-36.445 1186.67,-21.5613 1070.82,-17.9132"/>
<polygon fill="midnightblue" stroke="midnightblue" points="1070.64,-14.4062 1060.54,-17.595 1070.43,-21.4029 1070.64,-14.4062"/>
</g>
<!-- Node27&#45;&gt;Node6 -->
<g id="edge39" class="edge"><title>Node27&#45;&gt;Node6</title>
<path fill="none" stroke="midnightblue" d="M1747.4,-209.768C1704.55,-205.118 1636.78,-194.019 1584,-168 1564.2,-158.238 1565.43,-146.486 1546,-136 1502.58,-112.566 1446.99,-98.5498 1411.19,-91.3038"/>
<polygon fill="midnightblue" stroke="midnightblue" points="1411.68,-87.8338 1401.2,-89.3533 1410.34,-94.7042 1411.68,-87.8338"/>
</g>
<!-- Node28 -->
<g id="node28" class="node"><title>Node28</title>
<polygon fill="white" stroke="#bfbfbf" points="1945,-142.5 1945,-161.5 1997,-161.5 1997,-142.5 1945,-142.5"/>
<text text-anchor="middle" x="1971" y="-149.5" font-family="Helvetica,sans-Serif" font-size="10.00">ostream</text>
</g>
<!-- Node27&#45;&gt;Node28 -->
<g id="edge37" class="edge"><title>Node27&#45;&gt;Node28</title>
<path fill="none" stroke="midnightblue" d="M1817.43,-204.465C1846.2,-195.717 1891.89,-181.519 1931,-168 1933.6,-167.1 1936.3,-166.145 1938.99,-165.17"/>
<polygon fill="midnightblue" stroke="midnightblue" points="1940.47,-168.354 1948.65,-161.615 1938.06,-161.785 1940.47,-168.354"/>
</g>
<!-- Node29 -->
<g id="node29" class="node"><title>Node29</title>
<polygon fill="white" stroke="#bfbfbf" points="2015.5,-137 2015.5,-167 2116.5,-167 2116.5,-137 2015.5,-137"/>
<text text-anchor="start" x="2023.5" y="-155" font-family="Helvetica,sans-Serif" font-size="10.00">gen&#45;cpp/JniCatalog</text>
<text text-anchor="middle" x="2066" y="-144" font-family="Helvetica,sans-Serif" font-size="10.00">_types.h</text>
</g>
<!-- Node27&#45;&gt;Node29 -->
<g id="edge40" class="edge"><title>Node27&#45;&gt;Node29</title>
<path fill="none" stroke="midnightblue" d="M1830.71,-204.872C1872.43,-196.626 1938.66,-183.221 2005.44,-168.076"/>
<polygon fill="midnightblue" stroke="midnightblue" points="2006.32,-171.465 2015.3,-165.829 2004.77,-164.64 2006.32,-171.465"/>
</g>
<!-- Node30 -->
<g id="node30" class="node"><title>Node30</title>
<polygon fill="white" stroke="#bfbfbf" points="2135,-137 2135,-167 2239,-167 2239,-137 2135,-137"/>
<text text-anchor="start" x="2143" y="-155" font-family="Helvetica,sans-Serif" font-size="10.00">gen&#45;cpp/Descriptors</text>
<text text-anchor="middle" x="2187" y="-144" font-family="Helvetica,sans-Serif" font-size="10.00">_types.h</text>
</g>
<!-- Node27&#45;&gt;Node30 -->
<g id="edge41" class="edge"><title>Node27&#45;&gt;Node30</title>
<path fill="none" stroke="midnightblue" d="M1830.71,-205.321C1833.52,-204.858 1836.3,-204.413 1839,-204 1965.64,-184.645 1998.99,-191.099 2125,-168 2125.1,-167.981 2125.2,-167.962 2125.31,-167.944"/>
<polygon fill="midnightblue" stroke="midnightblue" points="2125.86,-171.401 2135,-166.03 2124.51,-164.534 2125.86,-171.401"/>
</g>
<!-- Node31 -->
<g id="node31" class="node"><title>Node31</title>
<polygon fill="white" stroke="#bfbfbf" points="2257.5,-142.5 2257.5,-161.5 2374.5,-161.5 2374.5,-142.5 2257.5,-142.5"/>
<text text-anchor="middle" x="2316" y="-149.5" font-family="Helvetica,sans-Serif" font-size="10.00">gen&#45;cpp/Exprs_types.h</text>
</g>
<!-- Node27&#45;&gt;Node31 -->
<g id="edge42" class="edge"><title>Node27&#45;&gt;Node31</title>
<path fill="none" stroke="midnightblue" d="M1830.7,-205.204C1833.5,-204.769 1836.29,-204.362 1839,-204 2019.87,-179.812 2067.64,-195.712 2248,-168 2255.73,-166.812 2263.89,-165.267 2271.78,-163.621"/>
<polygon fill="midnightblue" stroke="midnightblue" points="2272.54,-167.039 2281.57,-161.501 2271.06,-160.197 2272.54,-167.039"/>
</g>
<!-- Node27&#45;&gt;Node32 -->
<g id="edge43" class="edge"><title>Node27&#45;&gt;Node32</title>
<path fill="none" stroke="midnightblue" d="M1747.29,-205.125C1699.78,-196.149 1619.79,-181.034 1551,-168 1543.28,-166.538 1535.15,-164.994 1527.14,-163.476"/>
<polygon fill="midnightblue" stroke="midnightblue" points="1527.6,-159.999 1517.12,-161.573 1526.29,-166.876 1527.6,-159.999"/>
</g>
<!-- Node33 -->
<g id="node33" class="node"><title>Node33</title>
<polygon fill="white" stroke="#bfbfbf" points="2393,-142.5 2393,-161.5 2533,-161.5 2533,-142.5 2393,-142.5"/>
<text text-anchor="middle" x="2463" y="-149.5" font-family="Helvetica,sans-Serif" font-size="10.00">gen&#45;cpp/PlanNodes_types.h</text>
</g>
<!-- Node27&#45;&gt;Node33 -->
<g id="edge44" class="edge"><title>Node27&#45;&gt;Node33</title>
<path fill="none" stroke="midnightblue" d="M1830.69,-205.136C1833.5,-204.717 1836.29,-204.333 1839,-204 2079.5,-174.491 2142.61,-198.381 2383,-168 2392.57,-166.79 2402.73,-165.159 2412.48,-163.416"/>
<polygon fill="midnightblue" stroke="midnightblue" points="2413.25,-166.833 2422.45,-161.574 2411.98,-159.949 2413.25,-166.833"/>
</g>
<!-- Node34 -->
<g id="node34" class="node"><title>Node34</title>
<polygon fill="white" stroke="#bfbfbf" points="1594.5,-69 1594.5,-99 1713.5,-99 1713.5,-69 1594.5,-69"/>
<text text-anchor="start" x="1602.5" y="-87" font-family="Helvetica,sans-Serif" font-size="10.00">gen&#45;cpp/RuntimeProfile</text>
<text text-anchor="middle" x="1654" y="-76" font-family="Helvetica,sans-Serif" font-size="10.00">_types.h</text>
</g>
<!-- Node27&#45;&gt;Node34 -->
<g id="edge45" class="edge"><title>Node27&#45;&gt;Node34</title>
<path fill="none" stroke="midnightblue" d="M1813.47,-204.438C1829.57,-197.378 1849.38,-185.626 1859,-168 1865.82,-155.517 1867.76,-147.205 1859,-136 1842.26,-114.589 1776.2,-100.877 1723.54,-93.1243"/>
<polygon fill="midnightblue" stroke="midnightblue" points="1723.93,-89.6452 1713.54,-91.6992 1722.94,-96.5752 1723.93,-89.6452"/>
</g>
<!-- Node35 -->
<g id="node35" class="node"><title>Node35</title>
<polygon fill="white" stroke="#bfbfbf" points="1593,-137 1593,-167 1709,-167 1709,-137 1593,-137"/>
<text text-anchor="start" x="1601" y="-155" font-family="Helvetica,sans-Serif" font-size="10.00">gen&#45;cpp/ImpalaService</text>
<text text-anchor="middle" x="1651" y="-144" font-family="Helvetica,sans-Serif" font-size="10.00">_types.h</text>
</g>
<!-- Node27&#45;&gt;Node35 -->
<g id="edge46" class="edge"><title>Node27&#45;&gt;Node35</title>
<path fill="none" stroke="midnightblue" d="M1769.23,-204.403C1749.34,-195.755 1718.06,-182.155 1692.66,-171.115"/>
<polygon fill="midnightblue" stroke="midnightblue" points="1693.82,-167.803 1683.26,-167.025 1691.03,-174.222 1693.82,-167.803"/>
</g>
<!-- Node36 -->
<g id="node36" class="node"><title>Node36</title>
<polygon fill="white" stroke="#bfbfbf" points="1727,-142.5 1727,-161.5 1851,-161.5 1851,-142.5 1727,-142.5"/>
<text text-anchor="middle" x="1789" y="-149.5" font-family="Helvetica,sans-Serif" font-size="10.00">gen&#45;cpp/parquet_types.h</text>
</g>
<!-- Node27&#45;&gt;Node36 -->
<g id="edge47" class="edge"><title>Node27&#45;&gt;Node36</title>
<path fill="none" stroke="midnightblue" d="M1789,-204.403C1789,-195.938 1789,-182.728 1789,-171.82"/>
<polygon fill="midnightblue" stroke="midnightblue" points="1792.5,-171.581 1789,-161.581 1785.5,-171.581 1792.5,-171.581"/>
</g>
<!-- Node38 -->
<g id="node38" class="node"><title>Node38</title>
<polygon fill="white" stroke="#bfbfbf" points="1093,-142.5 1093,-161.5 1199,-161.5 1199,-142.5 1093,-142.5"/>
<text text-anchor="middle" x="1146" y="-149.5" font-family="Helvetica,sans-Serif" font-size="10.00">rapidjson/rapidjson.h</text>
</g>
<!-- Node37&#45;&gt;Node38 -->
<g id="edge49" class="edge"><title>Node37&#45;&gt;Node38</title>
<path fill="none" stroke="midnightblue" d="M1110.87,-204.403C1116.96,-195.493 1126.64,-181.325 1134.3,-170.118"/>
<polygon fill="midnightblue" stroke="midnightblue" points="1137.38,-171.812 1140.14,-161.581 1131.6,-167.862 1137.38,-171.812"/>
</g>
<!-- Node39 -->
<g id="node39" class="node"><title>Node39</title>
<polygon fill="white" stroke="#bfbfbf" points="927,-142.5 927,-161.5 1037,-161.5 1037,-142.5 927,-142.5"/>
<text text-anchor="middle" x="982" y="-149.5" font-family="Helvetica,sans-Serif" font-size="10.00">rapidjson/document.h</text>
</g>
<!-- Node37&#45;&gt;Node39 -->
<g id="edge50" class="edge"><title>Node37&#45;&gt;Node39</title>
<path fill="none" stroke="midnightblue" d="M1087.38,-204.403C1066.83,-194.379 1032.64,-177.701 1008.79,-166.07"/>
<polygon fill="midnightblue" stroke="midnightblue" points="1010.11,-162.819 999.59,-161.581 1007.04,-169.111 1010.11,-162.819"/>
</g>
<!-- Node40 -->
<g id="node40" class="node"><title>Node40</title>
<g id="a_node40"><a xlink:href="template-util_8h.html" target="_top" xlink:title="util/template&#45;util.h">
<polygon fill="white" stroke="red" points="1096,-74.5 1096,-93.5 1190,-93.5 1190,-74.5 1096,-74.5"/>
<text text-anchor="middle" x="1143" y="-81.5" font-family="Helvetica,sans-Serif" font-size="10.00">util/template&#45;util.h</text>
</a>
</g>
</g>
<!-- Node37&#45;&gt;Node40 -->
<g id="edge51" class="edge"><title>Node37&#45;&gt;Node40</title>
<path fill="none" stroke="midnightblue" d="M1098.74,-204.134C1089.22,-189.465 1073.28,-159.437 1084,-136 1091.09,-120.494 1105.49,-107.902 1118.28,-99.1089"/>
<polygon fill="midnightblue" stroke="midnightblue" points="1120.26,-101.997 1126.77,-93.6396 1116.47,-96.1115 1120.26,-101.997"/>
</g>
<!-- Node37&#45;&gt;Node41 -->
<g id="edge52" class="edge"><title>Node37&#45;&gt;Node41</title>
<path fill="none" stroke="midnightblue" d="M1138.56,-204.467C1180.33,-193.849 1251.72,-175.698 1297.6,-164.033"/>
<polygon fill="midnightblue" stroke="midnightblue" points="1298.72,-167.36 1307.55,-161.503 1297,-160.575 1298.72,-167.36"/>
</g>
<!-- Node41&#45;&gt;Node6 -->
<g id="edge55" class="edge"><title>Node41&#45;&gt;Node6</title>
<path fill="none" stroke="midnightblue" d="M1345.44,-142.372C1350.56,-132.446 1359.1,-115.874 1365.68,-103.086"/>
<polygon fill="midnightblue" stroke="midnightblue" points="1368.98,-104.334 1370.45,-93.8411 1362.75,-101.128 1368.98,-104.334"/>
</g>
<!-- Node41&#45;&gt;Node34 -->
<g id="edge56" class="edge"><title>Node41&#45;&gt;Node34</title>
<path fill="none" stroke="midnightblue" d="M1371.98,-142.483C1380.39,-140.269 1389.53,-137.957 1398,-136 1460.71,-121.515 1532.64,-107.405 1584.25,-97.7114"/>
<polygon fill="midnightblue" stroke="midnightblue" points="1585.11,-101.112 1594.29,-95.8329 1583.82,-94.2313 1585.11,-101.112"/>
</g>
<!-- Node41&#45;&gt;Node40 -->
<g id="edge57" class="edge"><title>Node41&#45;&gt;Node40</title>
<path fill="none" stroke="midnightblue" d="M1315.11,-142.372C1280.11,-130.704 1217.55,-109.851 1178.27,-96.7576"/>
<polygon fill="midnightblue" stroke="midnightblue" points="1179.17,-93.3678 1168.58,-93.5259 1176.96,-100.009 1179.17,-93.3678"/>
</g>
<!-- Node41&#45;&gt;Node42 -->
<g id="edge53" class="edge"><title>Node41&#45;&gt;Node42</title>
<path fill="none" stroke="midnightblue" d="M1368.89,-142.472C1378.07,-139.982 1388.4,-137.524 1398,-136 1696.02,-88.7061 2056.54,-83.9118 2210,-84.2806"/>
<polygon fill="midnightblue" stroke="midnightblue" points="2210.24,-87.7813 2220.25,-84.3138 2210.26,-80.7814 2210.24,-87.7813"/>
</g>
<!-- Node43 -->
<g id="node43" class="node"><title>Node43</title>
<polygon fill="white" stroke="#bfbfbf" points="1287,-74.5 1287,-93.5 1331,-93.5 1331,-74.5 1287,-74.5"/>
<text text-anchor="middle" x="1309" y="-81.5" font-family="Helvetica,sans-Serif" font-size="10.00">cmath</text>
</g>
<!-- Node41&#45;&gt;Node43 -->
<g id="edge54" class="edge"><title>Node41&#45;&gt;Node43</title>
<path fill="none" stroke="midnightblue" d="M1336.82,-142.372C1332,-132.446 1323.97,-115.874 1317.77,-103.086"/>
<polygon fill="midnightblue" stroke="midnightblue" points="1320.8,-101.312 1313.29,-93.8411 1314.5,-104.366 1320.8,-101.312"/>
</g>
<!-- Node44&#45;&gt;Node4 -->
<g id="edge61" class="edge"><title>Node44&#45;&gt;Node4</title>
<path fill="none" stroke="midnightblue" d="M871.295,-204.403C874.609,-195.76 879.818,-182.17 884.049,-171.134"/>
<polygon fill="midnightblue" stroke="midnightblue" points="887.399,-172.171 887.711,-161.581 880.863,-169.665 887.399,-172.171"/>
</g>
<!-- Node44&#45;&gt;Node5 -->
<g id="edge60" class="edge"><title>Node44&#45;&gt;Node5</title>
<path fill="none" stroke="midnightblue" d="M864.144,-204.223C857.94,-188.598 847.975,-155.75 864,-136 912.935,-75.6897 984.273,-158.811 1035,-100 1050.22,-82.3554 1048.23,-53.964 1044.69,-35.3928"/>
<polygon fill="midnightblue" stroke="midnightblue" points="1048.08,-34.5105 1042.48,-25.5153 1041.25,-36.0381 1048.08,-34.5105"/>
</g>
<!-- Node44&#45;&gt;Node9 -->
<g id="edge62" class="edge"><title>Node44&#45;&gt;Node9</title>
<path fill="none" stroke="midnightblue" d="M853.672,-204.403C837.336,-194.601 810.398,-178.439 791.088,-166.853"/>
<polygon fill="midnightblue" stroke="midnightblue" points="792.677,-163.724 782.301,-161.581 789.075,-169.727 792.677,-163.724"/>
</g>
<!-- Node44&#45;&gt;Node16 -->
<g id="edge64" class="edge"><title>Node44&#45;&gt;Node16</title>
<path fill="none" stroke="midnightblue" d="M832.304,-204.467C787.7,-193.805 711.314,-175.545 662.54,-163.886"/>
<polygon fill="midnightblue" stroke="midnightblue" points="663.112,-160.424 652.572,-161.503 661.485,-167.232 663.112,-160.424"/>
</g>
<!-- Node44&#45;&gt;Node39 -->
<g id="edge63" class="edge"><title>Node44&#45;&gt;Node39</title>
<path fill="none" stroke="midnightblue" d="M884.333,-204.403C903.211,-194.468 934.507,-177.997 956.576,-166.381"/>
<polygon fill="midnightblue" stroke="midnightblue" points="958.478,-169.335 965.697,-161.581 955.218,-163.141 958.478,-169.335"/>
</g>
<!-- Node47&#45;&gt;Node5 -->
<g id="edge75" class="edge"><title>Node47&#45;&gt;Node5</title>
<path fill="none" stroke="midnightblue" d="M647.546,-204.479C656.823,-188.04 679.65,-152.146 710,-136 825.052,-74.7939 895.492,-176.493 1001,-100 1022.12,-84.6884 1032.18,-54.9777 1036.69,-35.5712"/>
<polygon fill="midnightblue" stroke="midnightblue" points="1040.17,-36.0206 1038.74,-25.5223 1033.31,-34.6191 1040.17,-36.0206"/>
</g>
<!-- Node47&#45;&gt;Node16 -->
<g id="edge77" class="edge"><title>Node47&#45;&gt;Node16</title>
<path fill="none" stroke="midnightblue" d="M639.275,-204.403C635.491,-195.671 629.519,-181.889 624.711,-170.794"/>
<polygon fill="midnightblue" stroke="midnightblue" points="627.906,-169.365 620.718,-161.581 621.483,-172.148 627.906,-169.365"/>
</g>
<!-- Node47&#45;&gt;Node17 -->
<g id="edge76" class="edge"><title>Node47&#45;&gt;Node17</title>
<path fill="none" stroke="midnightblue" d="M609.911,-205.132C581.83,-197.725 540.967,-185.195 508,-168 486.878,-156.983 485.62,-147.93 465,-136 430.196,-115.864 409.215,-129.599 382,-100 365.549,-82.1075 358.726,-54.2044 355.921,-35.7647"/>
<polygon fill="midnightblue" stroke="midnightblue" points="359.372,-35.1613 354.643,-25.6804 352.428,-36.041 359.372,-35.1613"/>
</g>
<!-- Node47&#45;&gt;Node32 -->
<g id="edge78" class="edge"><title>Node47&#45;&gt;Node32</title>
<path fill="none" stroke="midnightblue" d="M676.006,-211.299C811.966,-204.257 1324.9,-177.316 1397,-168 1405.9,-166.85 1415.32,-165.262 1424.38,-163.548"/>
<polygon fill="midnightblue" stroke="midnightblue" points="1425.26,-166.941 1434.4,-161.575 1423.91,-160.073 1425.26,-166.941"/>
</g>
<!-- Node48 -->
<g id="node48" class="node"><title>Node48</title>
<polygon fill="white" stroke="#bfbfbf" points="517.5,-142.5 517.5,-161.5 552.5,-161.5 552.5,-142.5 517.5,-142.5"/>
<text text-anchor="middle" x="535" y="-149.5" font-family="Helvetica,sans-Serif" font-size="10.00">jni.h</text>
</g>
<!-- Node47&#45;&gt;Node48 -->
<g id="edge74" class="edge"><title>Node47&#45;&gt;Node48</title>
<path fill="none" stroke="midnightblue" d="M627.526,-204.403C609.722,-194.512 580.259,-178.144 559.368,-166.538"/>
<polygon fill="midnightblue" stroke="midnightblue" points="560.886,-163.378 550.445,-161.581 557.487,-169.497 560.886,-163.378"/>
</g>
<!-- Node49&#45;&gt;Node49 -->
<g id="edge81" class="edge"><title>Node49&#45;&gt;Node49</title>
<path fill="none" stroke="midnightblue" d="M2639.29,-335.575C2652.83,-338.27 2666,-335.078 2666,-326 2666,-319.262 2658.74,-315.767 2649.47,-315.515"/>
<polygon fill="midnightblue" stroke="midnightblue" points="2648.94,-312.048 2639.29,-316.425 2649.56,-319.02 2648.94,-312.048"/>
</g>
<!-- Node50 -->
<g id="node50" class="node"><title>Node50</title>
<polygon fill="white" stroke="#bfbfbf" points="2594.5,-260.5 2594.5,-279.5 2643.5,-279.5 2643.5,-260.5 2594.5,-260.5"/>
<text text-anchor="middle" x="2619" y="-267.5" font-family="Helvetica,sans-Serif" font-size="10.00">stdint.h</text>
</g>
<!-- Node49&#45;&gt;Node50 -->
<g id="edge80" class="edge"><title>Node49&#45;&gt;Node50</title>
<path fill="none" stroke="midnightblue" d="M2619,-316.083C2619,-309.006 2619,-298.861 2619,-289.986"/>
<polygon fill="midnightblue" stroke="midnightblue" points="2622.5,-289.751 2619,-279.751 2615.5,-289.751 2622.5,-289.751"/>
</g>
</g>
</svg>
