<?xml version="1.0" encoding="UTF-8" standalone="no"?>
<!DOCTYPE svg PUBLIC "-//W3C//DTD SVG 1.1//EN"
 "http://www.w3.org/Graphics/SVG/1.1/DTD/svg11.dtd">
<!-- Generated by graphviz version 2.36.0 (20140111.2315)
 -->
<!-- Title: be/src/benchmarks/name&#45;resolution&#45;benchmark.cc Pages: 1 -->
<!--zoomable 300 -->
<svg id="main" version="1.1" xmlns="http://www.w3.org/2000/svg" xmlns:xlink="http://www.w3.org/1999/xlink" xml:space="preserve" onload="init(evt)">
<style type="text/css"><![CDATA[
.edge:hover path { stroke: red; }
.edge:hover polygon { stroke: red; fill: red; }
]]></style>
<script type="text/javascript"><![CDATA[
var edges = document.getElementsByTagName('g');
if (edges && edges.length) {
  for (var i=0;i<edges.length;i++) {
    if (edges[i].id.substr(0,4)=='edge') {
      edges[i].setAttribute('class','edge');
    }
  }
}
]]></script>
        <defs>
                <circle id="rim" cx="0" cy="0" r="7"/>
                <circle id="rim2" cx="0" cy="0" r="3.5"/>
                <g id="zoomPlus">
                        <use xlink:href="#rim" fill="#404040">
                                <set attributeName="fill" to="#808080" begin="zoomplus.mouseover" end="zoomplus.mouseout"/>
                        </use>
                        <path d="M-4,0h8M0,-4v8" fill="none" stroke="white" stroke-width="1.5" pointer-events="none"/>
                </g>
                <g id="zoomMin">
                        <use xlink:href="#rim" fill="#404040">
                                <set attributeName="fill" to="#808080" begin="zoomminus.mouseover" end="zoomminus.mouseout"/>
                        </use>
                        <path d="M-4,0h8" fill="none" stroke="white" stroke-width="1.5" pointer-events="none"/>
                </g>
                <g id="dirArrow">
                        <path fill="none" stroke="white" stroke-width="1.5" d="M0,-3.0v7 M-2.5,-0.5L0,-3.0L2.5,-0.5"/>
                </g>
               <g id="resetDef">
                       <use xlink:href="#rim2" fill="#404040">
                               <set attributeName="fill" to="#808080" begin="reset.mouseover" end="reset.mouseout"/>
                       </use>
               </g>
        </defs>

<script type="text/javascript">
var viewWidth = 2262;
var viewHeight = 300;
var sectionId = 'dynsection-0';
</script>
<script xlink:href="svgpan.js"/>
<svg id="graph" class="graph">
<g id="viewport">
<title>be/src/benchmarks/name&#45;resolution&#45;benchmark.cc</title>
<polygon fill="white" stroke="none" points="-4,4 -4,-296 2258.29,-296 2258.29,4 -4,4"/>
<!-- Node1 -->
<g id="node1" class="node"><title>Node1</title>
<polygon fill="#bfbfbf" stroke="black" points="1280.79,-261 1280.79,-291 1407.79,-291 1407.79,-261 1280.79,-261"/>
<text text-anchor="start" x="1288.79" y="-279" font-family="Helvetica,sans-Serif" font-size="10.00">be/src/benchmarks/name</text>
<text text-anchor="middle" x="1344.29" y="-268" font-family="Helvetica,sans-Serif" font-size="10.00">&#45;resolution&#45;benchmark.cc</text>
</g>
<!-- Node2 -->
<g id="node2" class="node"><title>Node2</title>
<polygon fill="white" stroke="#bfbfbf" points="588.295,-204.5 588.295,-223.5 636.295,-223.5 636.295,-204.5 588.295,-204.5"/>
<text text-anchor="middle" x="612.295" y="-211.5" font-family="Helvetica,sans-Serif" font-size="10.00">stdlib.h</text>
</g>
<!-- Node1&#45;&gt;Node2 -->
<g id="edge1" class="edge"><title>Node1&#45;&gt;Node2</title>
<path fill="none" stroke="midnightblue" d="M1280.67,-274.461C1158.93,-272.539 884.695,-263.916 646.22,-223.817"/>
<polygon fill="midnightblue" stroke="midnightblue" points="646.77,-220.36 636.325,-222.131 645.595,-227.261 646.77,-220.36"/>
</g>
<!-- Node3 -->
<g id="node3" class="node"><title>Node3</title>
<polygon fill="white" stroke="#bfbfbf" points="654.295,-204.5 654.295,-223.5 700.295,-223.5 700.295,-204.5 654.295,-204.5"/>
<text text-anchor="middle" x="677.295" y="-211.5" font-family="Helvetica,sans-Serif" font-size="10.00">stdio.h</text>
</g>
<!-- Node1&#45;&gt;Node3 -->
<g id="edge2" class="edge"><title>Node1&#45;&gt;Node3</title>
<path fill="none" stroke="midnightblue" d="M1280.68,-273.963C1167.53,-271.231 923.909,-261.348 710.72,-223.92"/>
<polygon fill="midnightblue" stroke="midnightblue" points="711.05,-220.423 700.592,-222.116 709.823,-227.315 711.05,-220.423"/>
</g>
<!-- Node4 -->
<g id="node4" class="node"><title>Node4</title>
<polygon fill="white" stroke="#bfbfbf" points="718.295,-204.5 718.295,-223.5 772.295,-223.5 772.295,-204.5 718.295,-204.5"/>
<text text-anchor="middle" x="745.295" y="-211.5" font-family="Helvetica,sans-Serif" font-size="10.00">iostream</text>
</g>
<!-- Node1&#45;&gt;Node4 -->
<g id="edge3" class="edge"><title>Node1&#45;&gt;Node4</title>
<path fill="none" stroke="midnightblue" d="M1280.56,-272.439C1177.61,-267.598 968.321,-254.84 782.289,-223.912"/>
<polygon fill="midnightblue" stroke="midnightblue" points="782.769,-220.444 772.327,-222.234 781.607,-227.346 782.769,-220.444"/>
</g>
<!-- Node5 -->
<g id="node5" class="node"><title>Node5</title>
<g id="a_node5"><a xlink:href="cpu-info_8h.html" target="_top" xlink:title="util/cpu&#45;info.h">
<polygon fill="white" stroke="black" points="1253.79,-142.5 1253.79,-161.5 1328.79,-161.5 1328.79,-142.5 1253.79,-142.5"/>
<text text-anchor="middle" x="1291.29" y="-149.5" font-family="Helvetica,sans-Serif" font-size="10.00">util/cpu&#45;info.h</text>
</a>
</g>
</g>
<!-- Node1&#45;&gt;Node5 -->
<g id="edge4" class="edge"><title>Node1&#45;&gt;Node5</title>
<path fill="none" stroke="midnightblue" d="M1338.01,-260.526C1328.31,-238.203 1309.72,-195.415 1299.15,-171.085"/>
<polygon fill="midnightblue" stroke="midnightblue" points="1302.24,-169.4 1295.04,-161.623 1295.82,-172.189 1302.24,-169.4"/>
</g>
<!-- Node11 -->
<g id="node11" class="node"><title>Node11</title>
<g id="a_node11"><a xlink:href="debug-util_8h.html" target="_top" xlink:title="util/debug&#45;util.h">
<polygon fill="white" stroke="black" points="790.795,-204.5 790.795,-223.5 873.795,-223.5 873.795,-204.5 790.795,-204.5"/>
<text text-anchor="middle" x="832.295" y="-211.5" font-family="Helvetica,sans-Serif" font-size="10.00">util/debug&#45;util.h</text>
</a>
</g>
</g>
<!-- Node1&#45;&gt;Node11 -->
<g id="edge10" class="edge"><title>Node1&#45;&gt;Node11</title>
<path fill="none" stroke="midnightblue" d="M1280.74,-267.552C1178.26,-255.543 978.477,-232.131 884.074,-221.068"/>
<polygon fill="midnightblue" stroke="midnightblue" points="884.251,-217.565 873.912,-219.877 883.437,-224.517 884.251,-217.565"/>
</g>
<!-- Node22 -->
<g id="node22" class="node"><title>Node22</title>
<g id="a_node22"><a xlink:href="network-util_8h.html" target="_top" xlink:title="util/network&#45;util.h">
<polygon fill="white" stroke="black" points="1336.79,-204.5 1336.79,-223.5 1427.79,-223.5 1427.79,-204.5 1336.79,-204.5"/>
<text text-anchor="middle" x="1382.29" y="-211.5" font-family="Helvetica,sans-Serif" font-size="10.00">util/network&#45;util.h</text>
</a>
</g>
</g>
<!-- Node1&#45;&gt;Node22 -->
<g id="edge22" class="edge"><title>Node1&#45;&gt;Node22</title>
<path fill="none" stroke="midnightblue" d="M1353.3,-260.781C1358.71,-252.242 1365.63,-241.318 1371.35,-232.283"/>
<polygon fill="midnightblue" stroke="midnightblue" points="1374.37,-234.051 1376.77,-223.731 1368.46,-230.306 1374.37,-234.051"/>
</g>
<!-- Node36 -->
<g id="node36" class="node"><title>Node36</title>
<g id="a_node36"><a xlink:href="stopwatch_8h.html" target="_top" xlink:title="util/stopwatch.h">
<polygon fill="white" stroke="black" points="1446.29,-204.5 1446.29,-223.5 1532.29,-223.5 1532.29,-204.5 1446.29,-204.5"/>
<text text-anchor="middle" x="1489.29" y="-211.5" font-family="Helvetica,sans-Serif" font-size="10.00">util/stopwatch.h</text>
</a>
</g>
</g>
<!-- Node1&#45;&gt;Node36 -->
<g id="edge44" class="edge"><title>Node1&#45;&gt;Node36</title>
<path fill="none" stroke="midnightblue" d="M1378.29,-260.933C1402.75,-250.81 1435.46,-237.278 1459.02,-227.527"/>
<polygon fill="midnightblue" stroke="midnightblue" points="1460.61,-230.658 1468.51,-223.6 1457.93,-224.19 1460.61,-230.658"/>
</g>
<!-- Node39 -->
<g id="node39" class="node"><title>Node39</title>
<polygon fill="white" stroke="#bfbfbf" points="1550.79,-204.5 1550.79,-223.5 1645.79,-223.5 1645.79,-204.5 1550.79,-204.5"/>
<text text-anchor="middle" x="1598.29" y="-211.5" font-family="Helvetica,sans-Serif" font-size="10.00">boost/foreach.hpp</text>
</g>
<!-- Node1&#45;&gt;Node39 -->
<g id="edge49" class="edge"><title>Node1&#45;&gt;Node39</title>
<path fill="none" stroke="midnightblue" d="M1403.85,-260.933C1449.23,-250.213 1510.79,-235.67 1552.39,-225.843"/>
<polygon fill="midnightblue" stroke="midnightblue" points="1553.33,-229.218 1562.26,-223.513 1551.72,-222.405 1553.33,-229.218"/>
</g>
<!-- Node40 -->
<g id="node40" class="node"><title>Node40</title>
<polygon fill="white" stroke="#bfbfbf" points="1663.79,-204.5 1663.79,-223.5 1692.79,-223.5 1692.79,-204.5 1663.79,-204.5"/>
<text text-anchor="middle" x="1678.29" y="-211.5" font-family="Helvetica,sans-Serif" font-size="10.00">list</text>
</g>
<!-- Node1&#45;&gt;Node40 -->
<g id="edge50" class="edge"><title>Node1&#45;&gt;Node40</title>
<path fill="none" stroke="midnightblue" d="M1408,-268.218C1468.99,-260.894 1563.57,-247.365 1653.87,-223.62"/>
<polygon fill="midnightblue" stroke="midnightblue" points="1654.96,-226.95 1663.72,-220.984 1653.15,-220.188 1654.96,-226.95"/>
</g>
<!-- Node41 -->
<g id="node41" class="node"><title>Node41</title>
<polygon fill="white" stroke="#bfbfbf" points="1710.29,-204.5 1710.29,-223.5 1830.29,-223.5 1830.29,-204.5 1710.29,-204.5"/>
<text text-anchor="middle" x="1770.29" y="-211.5" font-family="Helvetica,sans-Serif" font-size="10.00">boost/assign/list_of.hpp</text>
</g>
<!-- Node1&#45;&gt;Node41 -->
<g id="edge51" class="edge"><title>Node1&#45;&gt;Node41</title>
<path fill="none" stroke="midnightblue" d="M1408.07,-266.017C1486.42,-254.982 1618.91,-236.322 1700.09,-224.888"/>
<polygon fill="midnightblue" stroke="midnightblue" points="1700.81,-228.322 1710.22,-223.461 1699.83,-221.39 1700.81,-228.322"/>
</g>
<!-- Node6 -->
<g id="node6" class="node"><title>Node6</title>
<polygon fill="white" stroke="#bfbfbf" points="1170.79,-6.5 1170.79,-25.5 1211.79,-25.5 1211.79,-6.5 1170.79,-6.5"/>
<text text-anchor="middle" x="1191.29" y="-13.5" font-family="Helvetica,sans-Serif" font-size="10.00">string</text>
</g>
<!-- Node5&#45;&gt;Node6 -->
<g id="edge5" class="edge"><title>Node5&#45;&gt;Node6</title>
<path fill="none" stroke="midnightblue" d="M1274.34,-142.488C1258.58,-133.783 1235.47,-118.878 1221.29,-100 1206.74,-80.6094 1198.71,-53.4754 1194.71,-35.5811"/>
<polygon fill="midnightblue" stroke="midnightblue" points="1198.09,-34.6596 1192.67,-25.5576 1191.23,-36.0545 1198.09,-34.6596"/>
</g>
<!-- Node7 -->
<g id="node7" class="node"><title>Node7</title>
<polygon fill="white" stroke="#bfbfbf" points="1230.29,-6.5 1230.29,-25.5 1322.29,-25.5 1322.29,-6.5 1230.29,-6.5"/>
<text text-anchor="middle" x="1276.29" y="-13.5" font-family="Helvetica,sans-Serif" font-size="10.00">boost/cstdint.hpp</text>
</g>
<!-- Node5&#45;&gt;Node7 -->
<g id="edge6" class="edge"><title>Node5&#45;&gt;Node7</title>
<path fill="none" stroke="midnightblue" d="M1290.31,-142.208C1287.91,-120.722 1281.69,-65.1671 1278.4,-35.8137"/>
<polygon fill="midnightblue" stroke="midnightblue" points="1281.85,-35.1988 1277.26,-25.6503 1274.9,-35.9776 1281.85,-35.1988"/>
</g>
<!-- Node8 -->
<g id="node8" class="node"><title>Node8</title>
<g id="a_node8"><a xlink:href="logging_8h.html" target="_top" xlink:title="common/logging.h">
<polygon fill="white" stroke="black" points="1066.29,-74.5 1066.29,-93.5 1162.29,-93.5 1162.29,-74.5 1066.29,-74.5"/>
<text text-anchor="middle" x="1114.29" y="-81.5" font-family="Helvetica,sans-Serif" font-size="10.00">common/logging.h</text>
</a>
</g>
</g>
<!-- Node5&#45;&gt;Node8 -->
<g id="edge7" class="edge"><title>Node5&#45;&gt;Node8</title>
<path fill="none" stroke="midnightblue" d="M1268.16,-142.372C1237.2,-130.827 1182.12,-110.293 1146.95,-97.1772"/>
<polygon fill="midnightblue" stroke="midnightblue" points="1147.75,-93.7403 1137.16,-93.5259 1145.31,-100.299 1147.75,-93.7403"/>
</g>
<!-- Node9 -->
<g id="node9" class="node"><title>Node9</title>
<polygon fill="white" stroke="#bfbfbf" points="1075.79,-6.5 1075.79,-25.5 1152.79,-25.5 1152.79,-6.5 1075.79,-6.5"/>
<text text-anchor="middle" x="1114.29" y="-13.5" font-family="Helvetica,sans-Serif" font-size="10.00">glog/logging.h</text>
</g>
<!-- Node8&#45;&gt;Node9 -->
<g id="edge8" class="edge"><title>Node8&#45;&gt;Node9</title>
<path fill="none" stroke="midnightblue" d="M1114.29,-74.3717C1114.29,-64.6426 1114.29,-48.528 1114.29,-35.8504"/>
<polygon fill="midnightblue" stroke="midnightblue" points="1117.79,-35.8411 1114.29,-25.8411 1110.79,-35.8412 1117.79,-35.8411"/>
</g>
<!-- Node10 -->
<g id="node10" class="node"><title>Node10</title>
<polygon fill="white" stroke="#bfbfbf" points="977.295,-6.5 977.295,-25.5 1057.29,-25.5 1057.29,-6.5 977.295,-6.5"/>
<text text-anchor="middle" x="1017.29" y="-13.5" font-family="Helvetica,sans-Serif" font-size="10.00">gflags/gflags.h</text>
</g>
<!-- Node8&#45;&gt;Node10 -->
<g id="edge9" class="edge"><title>Node8&#45;&gt;Node10</title>
<path fill="none" stroke="midnightblue" d="M1101.61,-74.3717C1085.57,-63.4521 1057.69,-44.4888 1038.41,-31.369"/>
<polygon fill="midnightblue" stroke="midnightblue" points="1040.22,-28.3622 1029.98,-25.6305 1036.28,-34.1496 1040.22,-28.3622"/>
</g>
<!-- Node11&#45;&gt;Node6 -->
<g id="edge12" class="edge"><title>Node11&#45;&gt;Node6</title>
<path fill="none" stroke="midnightblue" d="M790.609,-205.195C787.464,-204.744 784.333,-204.337 781.295,-204 738.511,-199.25 37.0176,-199.138 7.29469,-168 -2.52554,-157.712 -2.3,-146.498 7.29469,-136 181,54.064 913.61,-102.356 1161.29,-32 1163.27,-31.4391 1165.27,-30.7483 1167.25,-29.974"/>
<polygon fill="midnightblue" stroke="midnightblue" points="1169.14,-32.9579 1176.78,-25.6212 1166.23,-26.59 1169.14,-32.9579"/>
</g>
<!-- Node12 -->
<g id="node12" class="node"><title>Node12</title>
<polygon fill="white" stroke="#bfbfbf" points="736.295,-142.5 736.295,-161.5 788.295,-161.5 788.295,-142.5 736.295,-142.5"/>
<text text-anchor="middle" x="762.295" y="-149.5" font-family="Helvetica,sans-Serif" font-size="10.00">ostream</text>
</g>
<!-- Node11&#45;&gt;Node12 -->
<g id="edge11" class="edge"><title>Node11&#45;&gt;Node12</title>
<path fill="none" stroke="midnightblue" d="M822.265,-204.403C811.246,-194.958 793.335,-179.606 779.951,-168.134"/>
<polygon fill="midnightblue" stroke="midnightblue" points="782.176,-165.431 772.305,-161.581 777.62,-170.746 782.176,-165.431"/>
</g>
<!-- Node13 -->
<g id="node13" class="node"><title>Node13</title>
<polygon fill="white" stroke="#bfbfbf" points="806.295,-142.5 806.295,-161.5 858.295,-161.5 858.295,-142.5 806.295,-142.5"/>
<text text-anchor="middle" x="832.295" y="-149.5" font-family="Helvetica,sans-Serif" font-size="10.00">sstream</text>
</g>
<!-- Node11&#45;&gt;Node13 -->
<g id="edge13" class="edge"><title>Node11&#45;&gt;Node13</title>
<path fill="none" stroke="midnightblue" d="M832.295,-204.403C832.295,-195.938 832.295,-182.728 832.295,-171.82"/>
<polygon fill="midnightblue" stroke="midnightblue" points="835.795,-171.581 832.295,-161.581 828.795,-171.581 835.795,-171.581"/>
</g>
<!-- Node14 -->
<g id="node14" class="node"><title>Node14</title>
<polygon fill="white" stroke="#bfbfbf" points="876.795,-137 876.795,-167 977.795,-167 977.795,-137 876.795,-137"/>
<text text-anchor="start" x="884.795" y="-155" font-family="Helvetica,sans-Serif" font-size="10.00">gen&#45;cpp/JniCatalog</text>
<text text-anchor="middle" x="927.295" y="-144" font-family="Helvetica,sans-Serif" font-size="10.00">_types.h</text>
</g>
<!-- Node11&#45;&gt;Node14 -->
<g id="edge14" class="edge"><title>Node11&#45;&gt;Node14</title>
<path fill="none" stroke="midnightblue" d="M845.906,-204.403C859.013,-196.125 879.303,-183.311 896.345,-172.547"/>
<polygon fill="midnightblue" stroke="midnightblue" points="898.319,-175.44 904.905,-167.141 894.581,-169.522 898.319,-175.44"/>
</g>
<!-- Node15 -->
<g id="node15" class="node"><title>Node15</title>
<polygon fill="white" stroke="#bfbfbf" points="996.295,-137 996.295,-167 1100.29,-167 1100.29,-137 996.295,-137"/>
<text text-anchor="start" x="1004.29" y="-155" font-family="Helvetica,sans-Serif" font-size="10.00">gen&#45;cpp/Descriptors</text>
<text text-anchor="middle" x="1048.29" y="-144" font-family="Helvetica,sans-Serif" font-size="10.00">_types.h</text>
</g>
<!-- Node11&#45;&gt;Node15 -->
<g id="edge15" class="edge"><title>Node11&#45;&gt;Node15</title>
<path fill="none" stroke="midnightblue" d="M863.242,-204.403C895.68,-195.393 947.468,-181.007 988.019,-169.743"/>
<polygon fill="midnightblue" stroke="midnightblue" points="989.105,-173.074 997.804,-167.025 987.232,-166.33 989.105,-173.074"/>
</g>
<!-- Node16 -->
<g id="node16" class="node"><title>Node16</title>
<polygon fill="white" stroke="#bfbfbf" points="1118.79,-142.5 1118.79,-161.5 1235.79,-161.5 1235.79,-142.5 1118.79,-142.5"/>
<text text-anchor="middle" x="1177.29" y="-149.5" font-family="Helvetica,sans-Serif" font-size="10.00">gen&#45;cpp/Exprs_types.h</text>
</g>
<!-- Node11&#45;&gt;Node16 -->
<g id="edge16" class="edge"><title>Node11&#45;&gt;Node16</title>
<path fill="none" stroke="midnightblue" d="M874.189,-206.942C928.55,-198.91 1026.27,-183.888 1109.29,-168 1116.08,-166.702 1123.22,-165.237 1130.22,-163.744"/>
<polygon fill="midnightblue" stroke="midnightblue" points="1131.29,-167.093 1140.32,-161.552 1129.8,-160.252 1131.29,-167.093"/>
</g>
<!-- Node17 -->
<g id="node17" class="node"><title>Node17</title>
<polygon fill="white" stroke="#bfbfbf" points="16.2947,-142.5 16.2947,-161.5 146.295,-161.5 146.295,-142.5 16.2947,-142.5"/>
<text text-anchor="middle" x="81.2947" y="-149.5" font-family="Helvetica,sans-Serif" font-size="10.00">gen&#45;cpp/Frontend_types.h</text>
</g>
<!-- Node11&#45;&gt;Node17 -->
<g id="edge17" class="edge"><title>Node11&#45;&gt;Node17</title>
<path fill="none" stroke="midnightblue" d="M790.605,-205.233C787.46,-204.773 784.331,-204.354 781.295,-204 504.488,-171.729 431.671,-203.773 155.295,-168 146.416,-166.851 137.008,-165.247 127.985,-163.513"/>
<polygon fill="midnightblue" stroke="midnightblue" points="128.502,-160.048 118.01,-161.518 127.129,-166.912 128.502,-160.048"/>
</g>
<!-- Node18 -->
<g id="node18" class="node"><title>Node18</title>
<polygon fill="white" stroke="#bfbfbf" points="164.295,-142.5 164.295,-161.5 304.295,-161.5 304.295,-142.5 164.295,-142.5"/>
<text text-anchor="middle" x="234.295" y="-149.5" font-family="Helvetica,sans-Serif" font-size="10.00">gen&#45;cpp/PlanNodes_types.h</text>
</g>
<!-- Node11&#45;&gt;Node18 -->
<g id="edge18" class="edge"><title>Node11&#45;&gt;Node18</title>
<path fill="none" stroke="midnightblue" d="M790.597,-205.299C787.454,-204.824 784.327,-204.383 781.295,-204 574.327,-177.842 520.089,-195.5 313.295,-168 304.047,-166.77 294.244,-165.16 284.805,-163.452"/>
<polygon fill="midnightblue" stroke="midnightblue" points="285.223,-159.97 274.75,-161.574 283.938,-166.851 285.223,-159.97"/>
</g>
<!-- Node19 -->
<g id="node19" class="node"><title>Node19</title>
<polygon fill="white" stroke="#bfbfbf" points="322.795,-137 322.795,-167 441.795,-167 441.795,-137 322.795,-137"/>
<text text-anchor="start" x="330.795" y="-155" font-family="Helvetica,sans-Serif" font-size="10.00">gen&#45;cpp/RuntimeProfile</text>
<text text-anchor="middle" x="382.295" y="-144" font-family="Helvetica,sans-Serif" font-size="10.00">_types.h</text>
</g>
<!-- Node11&#45;&gt;Node19 -->
<g id="edge19" class="edge"><title>Node11&#45;&gt;Node19</title>
<path fill="none" stroke="midnightblue" d="M790.582,-205.408C787.443,-204.907 784.321,-204.432 781.295,-204 638.517,-183.637 598.691,-191.335 452.321,-168.051"/>
<polygon fill="midnightblue" stroke="midnightblue" points="452.49,-164.533 442.06,-166.396 451.375,-171.444 452.49,-164.533"/>
</g>
<!-- Node20 -->
<g id="node20" class="node"><title>Node20</title>
<polygon fill="white" stroke="#bfbfbf" points="460.295,-137 460.295,-167 576.295,-167 576.295,-137 460.295,-137"/>
<text text-anchor="start" x="468.295" y="-155" font-family="Helvetica,sans-Serif" font-size="10.00">gen&#45;cpp/ImpalaService</text>
<text text-anchor="middle" x="518.295" y="-144" font-family="Helvetica,sans-Serif" font-size="10.00">_types.h</text>
</g>
<!-- Node11&#45;&gt;Node20 -->
<g id="edge20" class="edge"><title>Node11&#45;&gt;Node20</title>
<path fill="none" stroke="midnightblue" d="M790.575,-205.608C734.678,-195.671 637.441,-178.259 586.262,-168.135"/>
<polygon fill="midnightblue" stroke="midnightblue" points="586.862,-164.685 576.369,-166.151 585.486,-171.549 586.862,-164.685"/>
</g>
<!-- Node21 -->
<g id="node21" class="node"><title>Node21</title>
<polygon fill="white" stroke="#bfbfbf" points="594.295,-142.5 594.295,-161.5 718.295,-161.5 718.295,-142.5 594.295,-142.5"/>
<text text-anchor="middle" x="656.295" y="-149.5" font-family="Helvetica,sans-Serif" font-size="10.00">gen&#45;cpp/parquet_types.h</text>
</g>
<!-- Node11&#45;&gt;Node21 -->
<g id="edge21" class="edge"><title>Node11&#45;&gt;Node21</title>
<path fill="none" stroke="midnightblue" d="M807.078,-204.403C776.627,-194.022 725.246,-176.506 691.052,-164.849"/>
<polygon fill="midnightblue" stroke="midnightblue" points="692.059,-161.495 681.464,-161.581 689.8,-168.12 692.059,-161.495"/>
</g>
<!-- Node23 -->
<g id="node23" class="node"><title>Node23</title>
<g id="a_node23"><a xlink:href="status_8h.html" target="_top" xlink:title="common/status.h">
<polygon fill="white" stroke="black" points="1719.29,-142.5 1719.29,-161.5 1811.29,-161.5 1811.29,-142.5 1719.29,-142.5"/>
<text text-anchor="middle" x="1765.29" y="-149.5" font-family="Helvetica,sans-Serif" font-size="10.00">common/status.h</text>
</a>
</g>
</g>
<!-- Node22&#45;&gt;Node23 -->
<g id="edge23" class="edge"><title>Node22&#45;&gt;Node23</title>
<path fill="none" stroke="midnightblue" d="M1427.91,-205.507C1431.08,-204.994 1434.24,-204.488 1437.29,-204 1532.64,-188.787 1643.67,-171.643 1709.02,-161.611"/>
<polygon fill="midnightblue" stroke="midnightblue" points="1709.75,-165.04 1719.11,-160.064 1708.69,-158.121 1709.75,-165.04"/>
</g>
<!-- Node24 -->
<g id="node24" class="node"><title>Node24</title>
<polygon fill="white" stroke="#bfbfbf" points="2163.29,-6.5 2163.29,-25.5 2207.29,-25.5 2207.29,-6.5 2163.29,-6.5"/>
<text text-anchor="middle" x="2185.29" y="-13.5" font-family="Helvetica,sans-Serif" font-size="10.00">vector</text>
</g>
<!-- Node22&#45;&gt;Node24 -->
<g id="edge43" class="edge"><title>Node22&#45;&gt;Node24</title>
<path fill="none" stroke="midnightblue" d="M1427.88,-205.294C1431.06,-204.832 1434.22,-204.395 1437.29,-204 1745.33,-164.368 1870.78,-273.603 2128.29,-100 2152.14,-83.9232 2168.88,-54.2273 2177.8,-35.059"/>
<polygon fill="midnightblue" stroke="midnightblue" points="2181.12,-36.2089 2181.94,-25.6463 2174.71,-33.388 2181.12,-36.2089"/>
</g>
<!-- Node35 -->
<g id="node35" class="node"><title>Node35</title>
<polygon fill="white" stroke="#bfbfbf" points="1346.79,-142.5 1346.79,-161.5 1465.79,-161.5 1465.79,-142.5 1346.79,-142.5"/>
<text text-anchor="middle" x="1406.29" y="-149.5" font-family="Helvetica,sans-Serif" font-size="10.00">gen&#45;cpp/Types_types.h</text>
</g>
<!-- Node22&#45;&gt;Node35 -->
<g id="edge42" class="edge"><title>Node22&#45;&gt;Node35</title>
<path fill="none" stroke="midnightblue" d="M1385.73,-204.403C1389.19,-195.76 1394.63,-182.17 1399.04,-171.134"/>
<polygon fill="midnightblue" stroke="midnightblue" points="1402.4,-172.165 1402.86,-161.581 1395.9,-169.565 1402.4,-172.165"/>
</g>
<!-- Node23&#45;&gt;Node6 -->
<g id="edge24" class="edge"><title>Node23&#45;&gt;Node6</title>
<path fill="none" stroke="midnightblue" d="M1719.1,-144.853C1623.93,-131.335 1399.97,-95.103 1221.29,-32 1219.44,-31.3455 1217.56,-30.6029 1215.68,-29.8068"/>
<polygon fill="midnightblue" stroke="midnightblue" points="1217.09,-26.6017 1206.54,-25.5402 1214.12,-32.9438 1217.09,-26.6017"/>
</g>
<!-- Node23&#45;&gt;Node8 -->
<g id="edge27" class="edge"><title>Node23&#45;&gt;Node8</title>
<path fill="none" stroke="midnightblue" d="M1719.01,-147.38C1625.05,-139.874 1405.25,-121.506 1221.29,-100 1205.48,-98.1507 1188.38,-95.8782 1172.6,-93.6666"/>
<polygon fill="midnightblue" stroke="midnightblue" points="1172.83,-90.165 1162.44,-92.2271 1171.85,-97.0957 1172.83,-90.165"/>
</g>
<!-- Node23&#45;&gt;Node24 -->
<g id="edge25" class="edge"><title>Node23&#45;&gt;Node24</title>
<path fill="none" stroke="midnightblue" d="M1811.39,-151.764C1876.77,-151.124 1998.75,-143.486 2091.29,-100 2124.94,-84.1928 2155.52,-52.552 2172.15,-33.2285"/>
<polygon fill="midnightblue" stroke="midnightblue" points="2174.85,-35.4627 2178.59,-25.5504 2169.48,-30.9663 2174.85,-35.4627"/>
</g>
<!-- Node25 -->
<g id="node25" class="node"><title>Node25</title>
<polygon fill="white" stroke="#bfbfbf" points="1909.29,-6.5 1909.29,-25.5 2023.29,-25.5 2023.29,-6.5 1909.29,-6.5"/>
<text text-anchor="middle" x="1966.29" y="-13.5" font-family="Helvetica,sans-Serif" font-size="10.00">boost/lexical_cast.hpp</text>
</g>
<!-- Node23&#45;&gt;Node25 -->
<g id="edge26" class="edge"><title>Node23&#45;&gt;Node25</title>
<path fill="none" stroke="midnightblue" d="M1804.4,-142.424C1833.19,-134.735 1872.21,-121.32 1901.29,-100 1925.57,-82.2049 1945.48,-53.0232 1956.61,-34.4265"/>
<polygon fill="midnightblue" stroke="midnightblue" points="1959.77,-35.9623 1961.74,-25.5529 1953.71,-32.4595 1959.77,-35.9623"/>
</g>
<!-- Node26 -->
<g id="node26" class="node"><title>Node26</title>
<g id="a_node26"><a xlink:href="compiler-util_8h.html" target="_top" xlink:title="common/compiler&#45;util.h">
<polygon fill="white" stroke="black" points="1637.29,-74.5 1637.29,-93.5 1755.29,-93.5 1755.29,-74.5 1637.29,-74.5"/>
<text text-anchor="middle" x="1696.29" y="-81.5" font-family="Helvetica,sans-Serif" font-size="10.00">common/compiler&#45;util.h</text>
</a>
</g>
</g>
<!-- Node23&#45;&gt;Node26 -->
<g id="edge28" class="edge"><title>Node23&#45;&gt;Node26</title>
<path fill="none" stroke="midnightblue" d="M1756.27,-142.372C1745.28,-131.856 1726.49,-113.882 1712.86,-100.85"/>
<polygon fill="midnightblue" stroke="midnightblue" points="1715.18,-98.2241 1705.54,-93.8411 1710.34,-103.283 1715.18,-98.2241"/>
</g>
<!-- Node27 -->
<g id="node27" class="node"><title>Node27</title>
<polygon fill="white" stroke="#bfbfbf" points="1773.29,-74.5 1773.29,-93.5 1893.29,-93.5 1893.29,-74.5 1773.29,-74.5"/>
<text text-anchor="middle" x="1833.29" y="-81.5" font-family="Helvetica,sans-Serif" font-size="10.00">gen&#45;cpp/Status_types.h</text>
</g>
<!-- Node23&#45;&gt;Node27 -->
<g id="edge29" class="edge"><title>Node23&#45;&gt;Node27</title>
<path fill="none" stroke="midnightblue" d="M1774.18,-142.372C1785.02,-131.856 1803.54,-113.882 1816.96,-100.85"/>
<polygon fill="midnightblue" stroke="midnightblue" points="1819.45,-103.317 1824.19,-93.8411 1814.57,-98.2944 1819.45,-103.317"/>
</g>
<!-- Node28 -->
<g id="node28" class="node"><title>Node28</title>
<polygon fill="white" stroke="#bfbfbf" points="2041.29,-1 2041.29,-31 2145.29,-31 2145.29,-1 2041.29,-1"/>
<text text-anchor="start" x="2049.29" y="-19" font-family="Helvetica,sans-Serif" font-size="10.00">gen&#45;cpp/ErrorCodes</text>
<text text-anchor="middle" x="2093.29" y="-8" font-family="Helvetica,sans-Serif" font-size="10.00">_types.h</text>
</g>
<!-- Node23&#45;&gt;Node28 -->
<g id="edge30" class="edge"><title>Node23&#45;&gt;Node28</title>
<path fill="none" stroke="midnightblue" d="M1811.42,-148.988C1886.34,-144.797 2029.88,-132.636 2067.29,-100 2084.04,-85.3968 2090.12,-60.1648 2092.27,-41.3442"/>
<polygon fill="midnightblue" stroke="midnightblue" points="2095.78,-41.3912 2093.13,-31.1326 2088.8,-40.8032 2095.78,-41.3912"/>
</g>
<!-- Node29 -->
<g id="node29" class="node"><title>Node29</title>
<polygon fill="white" stroke="#bfbfbf" points="1949.79,-69 1949.79,-99 2058.79,-99 2058.79,-69 1949.79,-69"/>
<text text-anchor="start" x="1957.79" y="-87" font-family="Helvetica,sans-Serif" font-size="10.00">gen&#45;cpp/TCLIService</text>
<text text-anchor="middle" x="2004.29" y="-76" font-family="Helvetica,sans-Serif" font-size="10.00">_types.h</text>
</g>
<!-- Node23&#45;&gt;Node29 -->
<g id="edge31" class="edge"><title>Node23&#45;&gt;Node29</title>
<path fill="none" stroke="midnightblue" d="M1796.54,-142.372C1833.75,-132.096 1896.76,-114.697 1943.65,-101.748"/>
<polygon fill="midnightblue" stroke="midnightblue" points="1944.69,-105.092 1953.39,-99.0562 1942.82,-98.3444 1944.69,-105.092"/>
</g>
<!-- Node30 -->
<g id="node30" class="node"><title>Node30</title>
<g id="a_node30"><a xlink:href="error-util_8h.html" target="_top" xlink:title="util/error&#45;util.h">
<polygon fill="white" stroke="black" points="1543.29,-74.5 1543.29,-93.5 1619.29,-93.5 1619.29,-74.5 1543.29,-74.5"/>
<text text-anchor="middle" x="1581.29" y="-81.5" font-family="Helvetica,sans-Serif" font-size="10.00">util/error&#45;util.h</text>
</a>
</g>
</g>
<!-- Node23&#45;&gt;Node30 -->
<g id="edge32" class="edge"><title>Node23&#45;&gt;Node30</title>
<path fill="none" stroke="midnightblue" d="M1741.24,-142.372C1708.92,-130.778 1651.32,-110.116 1614.77,-97.0087"/>
<polygon fill="midnightblue" stroke="midnightblue" points="1615.66,-93.6078 1605.06,-93.5259 1613.29,-100.197 1615.66,-93.6078"/>
</g>
<!-- Node30&#45;&gt;Node6 -->
<g id="edge33" class="edge"><title>Node30&#45;&gt;Node6</title>
<path fill="none" stroke="midnightblue" d="M1543.1,-81.6187C1476.38,-78.3256 1334.89,-67.4123 1221.29,-32 1219.38,-31.4021 1217.43,-30.6929 1215.5,-29.9134"/>
<polygon fill="midnightblue" stroke="midnightblue" points="1216.71,-26.6162 1206.16,-25.6176 1213.78,-32.9758 1216.71,-26.6162"/>
</g>
<!-- Node30&#45;&gt;Node7 -->
<g id="edge35" class="edge"><title>Node30&#45;&gt;Node7</title>
<path fill="none" stroke="midnightblue" d="M1543.03,-75.1228C1531.84,-72.8221 1519.58,-70.3064 1508.29,-68 1429.64,-51.9211 1409.39,-50.5712 1331.29,-32 1326.31,-30.814 1321.09,-29.4939 1315.93,-28.1425"/>
<polygon fill="midnightblue" stroke="midnightblue" points="1316.74,-24.736 1306.18,-25.5321 1314.93,-31.4981 1316.74,-24.736"/>
</g>
<!-- Node30&#45;&gt;Node24 -->
<g id="edge34" class="edge"><title>Node30&#45;&gt;Node24</title>
<path fill="none" stroke="midnightblue" d="M1604.44,-74.3957C1611.95,-71.9332 1620.39,-69.5097 1628.29,-68 1858.46,-24.0604 1927.82,-92.1266 2154.29,-32 2156.64,-31.3787 2159.01,-30.5785 2161.35,-29.6716"/>
<polygon fill="midnightblue" stroke="midnightblue" points="2162.91,-32.8097 2170.6,-25.528 2160.05,-26.4211 2162.91,-32.8097"/>
</g>
<!-- Node30&#45;&gt;Node25 -->
<g id="edge36" class="edge"><title>Node30&#45;&gt;Node25</title>
<path fill="none" stroke="midnightblue" d="M1605.46,-74.3828C1612.73,-72.0382 1620.77,-69.6842 1628.29,-68 1747.29,-41.3575 1780.27,-53.5353 1900.29,-32 1907.13,-30.7731 1914.33,-29.3127 1921.36,-27.7923"/>
<polygon fill="midnightblue" stroke="midnightblue" points="1922.48,-31.1299 1931.48,-25.5418 1920.96,-24.297 1922.48,-31.1299"/>
</g>
<!-- Node30&#45;&gt;Node28 -->
<g id="edge38" class="edge"><title>Node30&#45;&gt;Node28</title>
<path fill="none" stroke="midnightblue" d="M1604.46,-74.4932C1611.97,-72.0359 1620.4,-69.5909 1628.29,-68 1801.82,-33.0239 1852.65,-60.5736 2031.17,-32.0081"/>
<polygon fill="midnightblue" stroke="midnightblue" points="2031.86,-35.4431 2041.16,-30.3736 2030.73,-28.535 2031.86,-35.4431"/>
</g>
<!-- Node31 -->
<g id="node31" class="node"><title>Node31</title>
<polygon fill="white" stroke="#bfbfbf" points="1769.29,-1 1769.29,-31 1891.29,-31 1891.29,-1 1769.29,-1"/>
<text text-anchor="start" x="1777.29" y="-19" font-family="Helvetica,sans-Serif" font-size="10.00">gen&#45;cpp/CatalogObjects</text>
<text text-anchor="middle" x="1830.29" y="-8" font-family="Helvetica,sans-Serif" font-size="10.00">_types.h</text>
</g>
<!-- Node30&#45;&gt;Node31 -->
<g id="edge37" class="edge"><title>Node30&#45;&gt;Node31</title>
<path fill="none" stroke="midnightblue" d="M1607.07,-74.4602C1613.94,-72.2693 1621.38,-69.9753 1628.29,-68 1671.88,-55.557 1721.19,-43.0765 1760.18,-33.5762"/>
<polygon fill="midnightblue" stroke="midnightblue" points="1761.48,-36.862 1770.37,-31.1029 1759.83,-30.0593 1761.48,-36.862"/>
</g>
<!-- Node32 -->
<g id="node32" class="node"><title>Node32</title>
<polygon fill="white" stroke="#bfbfbf" points="1340.29,-1 1340.29,-31 1444.29,-31 1444.29,-1 1340.29,-1"/>
<text text-anchor="start" x="1348.29" y="-19" font-family="Helvetica,sans-Serif" font-size="10.00">gen&#45;cpp/ErrorCodes</text>
<text text-anchor="middle" x="1392.29" y="-8" font-family="Helvetica,sans-Serif" font-size="10.00">_constants.h</text>
</g>
<!-- Node30&#45;&gt;Node32 -->
<g id="edge39" class="edge"><title>Node30&#45;&gt;Node32</title>
<path fill="none" stroke="midnightblue" d="M1556.59,-74.3717C1527.65,-64.2679 1479,-47.2774 1442.13,-34.4016"/>
<polygon fill="midnightblue" stroke="midnightblue" points="1443.14,-31.0488 1432.55,-31.0562 1440.83,-37.6574 1443.14,-31.0488"/>
</g>
<!-- Node33 -->
<g id="node33" class="node"><title>Node33</title>
<polygon fill="white" stroke="#bfbfbf" points="1462.79,-1 1462.79,-31 1611.79,-31 1611.79,-1 1462.79,-1"/>
<text text-anchor="start" x="1470.79" y="-19" font-family="Helvetica,sans-Serif" font-size="10.00">gen&#45;cpp/ImpalaInternalService</text>
<text text-anchor="middle" x="1537.29" y="-8" font-family="Helvetica,sans-Serif" font-size="10.00">_types.h</text>
</g>
<!-- Node30&#45;&gt;Node33 -->
<g id="edge40" class="edge"><title>Node30&#45;&gt;Node33</title>
<path fill="none" stroke="midnightblue" d="M1575.54,-74.3717C1569.71,-65.6286 1560.45,-51.7288 1552.5,-39.8006"/>
<polygon fill="midnightblue" stroke="midnightblue" points="1555.21,-37.5605 1546.75,-31.1815 1549.38,-41.4434 1555.21,-37.5605"/>
</g>
<!-- Node34 -->
<g id="node34" class="node"><title>Node34</title>
<polygon fill="white" stroke="#bfbfbf" points="1629.79,-6.5 1629.79,-25.5 1750.79,-25.5 1750.79,-6.5 1629.79,-6.5"/>
<text text-anchor="middle" x="1690.29" y="-13.5" font-family="Helvetica,sans-Serif" font-size="10.00">gutil/strings/substitute.h</text>
</g>
<!-- Node30&#45;&gt;Node34 -->
<g id="edge41" class="edge"><title>Node30&#45;&gt;Node34</title>
<path fill="none" stroke="midnightblue" d="M1595.54,-74.3717C1613.82,-63.3039 1645.75,-43.9724 1667.44,-30.838"/>
<polygon fill="midnightblue" stroke="midnightblue" points="1669.3,-33.804 1676.04,-25.6305 1665.67,-27.8161 1669.3,-33.804"/>
</g>
<!-- Node36&#45;&gt;Node7 -->
<g id="edge45" class="edge"><title>Node36&#45;&gt;Node7</title>
<path fill="none" stroke="midnightblue" d="M1489.79,-204.027C1490.19,-188.668 1488.98,-156.972 1474.29,-136 1434.85,-79.6893 1359.45,-45.4338 1313.94,-28.9454"/>
<polygon fill="midnightblue" stroke="midnightblue" points="1315.02,-25.6165 1304.42,-25.6011 1312.7,-32.2202 1315.02,-25.6165"/>
</g>
<!-- Node37 -->
<g id="node37" class="node"><title>Node37</title>
<g id="a_node37"><a xlink:href="time_8h.html" target="_top" xlink:title="time.h">
<polygon fill="white" stroke="black" points="2192.29,-142.5 2192.29,-161.5 2236.29,-161.5 2236.29,-142.5 2192.29,-142.5"/>
<text text-anchor="middle" x="2214.29" y="-149.5" font-family="Helvetica,sans-Serif" font-size="10.00">time.h</text>
</a>
</g>
</g>
<!-- Node36&#45;&gt;Node37 -->
<g id="edge46" class="edge"><title>Node36&#45;&gt;Node37</title>
<path fill="none" stroke="midnightblue" d="M1532.37,-205.152C1535.38,-204.724 1538.38,-204.333 1541.29,-204 1822.58,-171.805 1901.05,-230.02 2177.29,-168 2180.54,-167.271 2183.87,-166.288 2187.14,-165.172"/>
<polygon fill="midnightblue" stroke="midnightblue" points="2188.52,-168.39 2196.61,-161.546 2186.02,-161.853 2188.52,-168.39"/>
</g>
<!-- Node37&#45;&gt;Node37 -->
<g id="edge48" class="edge"><title>Node37&#45;&gt;Node37</title>
<path fill="none" stroke="midnightblue" d="M2227.88,-161.556C2240.15,-166.205 2253.29,-163.02 2253.29,-152 2253.29,-143.994 2246.36,-140.123 2237.86,-140.388"/>
<polygon fill="midnightblue" stroke="midnightblue" points="2236.97,-136.997 2227.88,-142.444 2238.39,-143.853 2236.97,-136.997"/>
</g>
<!-- Node38 -->
<g id="node38" class="node"><title>Node38</title>
<polygon fill="white" stroke="#bfbfbf" points="2191.79,-74.5 2191.79,-93.5 2240.79,-93.5 2240.79,-74.5 2191.79,-74.5"/>
<text text-anchor="middle" x="2216.29" y="-81.5" font-family="Helvetica,sans-Serif" font-size="10.00">stdint.h</text>
</g>
<!-- Node37&#45;&gt;Node38 -->
<g id="edge47" class="edge"><title>Node37&#45;&gt;Node38</title>
<path fill="none" stroke="midnightblue" d="M2214.56,-142.372C2214.85,-132.643 2215.34,-116.528 2215.72,-103.85"/>
<polygon fill="midnightblue" stroke="midnightblue" points="2219.22,-103.943 2216.03,-93.8411 2212.23,-103.73 2219.22,-103.943"/>
</g>
</g>
</svg>
        <g id="navigator" transform="translate(0 0)" fill="#404254">
                <rect fill="#f2f5e9" fill-opacity="0.5" stroke="#606060" stroke-width=".5" x="0" y="0" width="60" height="60"/>
                <use id="zoomplus" xlink:href="#zoomPlus" x="17" y="9" onmousedown="handleZoom(evt,'in')"/>
                <use id="zoomminus" xlink:href="#zoomMin" x="42" y="9" onmousedown="handleZoom(evt,'out')"/>
                <use id="reset" xlink:href="#resetDef" x="30" y="36" onmousedown="handleReset()"/>
                <g id="arrowUp" xlink:href="#dirArrow" transform="translate(30 24)" onmousedown="handlePan(0,-1)">
                  <use xlink:href="#rim" fill="#404040">
                        <set attributeName="fill" to="#808080" begin="arrowUp.mouseover" end="arrowUp.mouseout"/>
                  </use>
                  <path fill="none" stroke="white" stroke-width="1.5" d="M0,-3.0v7 M-2.5,-0.5L0,-3.0L2.5,-0.5"/>
                </g>
                <g id="arrowRight" xlink:href="#dirArrow" transform="rotate(90) translate(36 -43)" onmousedown="handlePan(1,0)">
                  <use xlink:href="#rim" fill="#404040">
                        <set attributeName="fill" to="#808080" begin="arrowRight.mouseover" end="arrowRight.mouseout"/>
                  </use>
                  <path fill="none" stroke="white" stroke-width="1.5" d="M0,-3.0v7 M-2.5,-0.5L0,-3.0L2.5,-0.5"/>
                </g>
                <g id="arrowDown" xlink:href="#dirArrow" transform="rotate(180) translate(-30 -48)" onmousedown="handlePan(0,1)">
                  <use xlink:href="#rim" fill="#404040">
                        <set attributeName="fill" to="#808080" begin="arrowDown.mouseover" end="arrowDown.mouseout"/>
                  </use>
                  <path fill="none" stroke="white" stroke-width="1.5" d="M0,-3.0v7 M-2.5,-0.5L0,-3.0L2.5,-0.5"/>
                </g>
                <g id="arrowLeft" xlink:href="#dirArrow" transform="rotate(270) translate(-36 17)" onmousedown="handlePan(-1,0)">
                  <use xlink:href="#rim" fill="#404040">
                        <set attributeName="fill" to="#808080" begin="arrowLeft.mouseover" end="arrowLeft.mouseout"/>
                  </use>
                  <path fill="none" stroke="white" stroke-width="1.5" d="M0,-3.0v7 M-2.5,-0.5L0,-3.0L2.5,-0.5"/>
                </g>
        </g>
        <svg viewBox="0 0 15 15" width="100%" height="30px" preserveAspectRatio="xMaxYMin meet">
         <g id="arrow_out" transform="scale(0.3 0.3)">
          <a xlink:href="name-resolution-benchmark_8cc__incl_org.svg" target="_base">
           <rect id="button" ry="5" rx="5" y="6" x="6" height="38" width="38"
                fill="#f2f5e9" fill-opacity="0.5" stroke="#606060" stroke-width="1.0"/>
           <path id="arrow"
             d="M 11.500037,31.436501 C 11.940474,20.09759 22.043105,11.32322 32.158766,21.979434 L 37.068811,17.246167 C 37.068811,17.246167 37.088388,32 37.088388,32 L 22.160133,31.978069 C 22.160133,31.978069 26.997745,27.140456 26.997745,27.140456 C 18.528582,18.264221 13.291696,25.230495 11.500037,31.436501 z"
             style="fill:#404040;"/>
          </a>
         </g>
        </svg>
</svg>
