<?xml version="1.0" encoding="UTF-8" standalone="no"?>
<!DOCTYPE svg PUBLIC "-//W3C//DTD SVG 1.1//EN"
 "http://www.w3.org/Graphics/SVG/1.1/DTD/svg11.dtd">
<!-- Generated by graphviz version 2.36.0 (20140111.2315)
 -->
<!-- Title: be/src/util/os&#45;info.h Pages: 1 -->
<svg width="204pt" height="140pt"
 viewBox="0.00 0.00 204.00 140.00" xmlns="http://www.w3.org/2000/svg" xmlns:xlink="http://www.w3.org/1999/xlink">
<g id="graph0" class="graph" transform="scale(1 1) rotate(0) translate(4 136)">
<title>be/src/util/os&#45;info.h</title>
<polygon fill="white" stroke="none" points="-4,4 -4,-136 200,-136 200,4 -4,4"/>
<!-- Node1 -->
<g id="node1" class="node"><title>Node1</title>
<polygon fill="#bfbfbf" stroke="black" points="13,-112.5 13,-131.5 113,-131.5 113,-112.5 13,-112.5"/>
<text text-anchor="middle" x="63" y="-119.5" font-family="Helvetica,sans-Serif" font-size="10.00">be/src/util/os&#45;info.h</text>
</g>
<!-- Node2 -->
<g id="node2" class="node"><title>Node2</title>
<polygon fill="white" stroke="#bfbfbf" points="-0.5,-56.5 -0.5,-75.5 40.5,-75.5 40.5,-56.5 -0.5,-56.5"/>
<text text-anchor="middle" x="20" y="-63.5" font-family="Helvetica,sans-Serif" font-size="10.00">string</text>
</g>
<!-- Node1&#45;&gt;Node2 -->
<g id="edge1" class="edge"><title>Node1&#45;&gt;Node2</title>
<path fill="none" stroke="midnightblue" d="M55.8994,-112.083C49.763,-104.377 40.7303,-93.0333 33.2608,-83.6531"/>
<polygon fill="midnightblue" stroke="midnightblue" points="35.9357,-81.3936 26.9685,-75.7511 30.4598,-85.7542 35.9357,-81.3936"/>
</g>
<!-- Node3 -->
<g id="node3" class="node"><title>Node3</title>
<g id="a_node3"><a xlink:href="logging_8h.html" target="_top" xlink:title="common/logging.h">
<polygon fill="white" stroke="black" points="59,-56.5 59,-75.5 155,-75.5 155,-56.5 59,-56.5"/>
<text text-anchor="middle" x="107" y="-63.5" font-family="Helvetica,sans-Serif" font-size="10.00">common/logging.h</text>
</a>
</g>
</g>
<!-- Node1&#45;&gt;Node3 -->
<g id="edge2" class="edge"><title>Node1&#45;&gt;Node3</title>
<path fill="none" stroke="midnightblue" d="M70.2657,-112.083C76.5448,-104.377 85.7876,-93.0333 93.4308,-83.6531"/>
<polygon fill="midnightblue" stroke="midnightblue" points="96.2661,-85.7143 99.8695,-75.7511 90.8394,-81.2926 96.2661,-85.7143"/>
</g>
<!-- Node4 -->
<g id="node4" class="node"><title>Node4</title>
<polygon fill="white" stroke="#bfbfbf" points="20.5,-0.5 20.5,-19.5 97.5,-19.5 97.5,-0.5 20.5,-0.5"/>
<text text-anchor="middle" x="59" y="-7.5" font-family="Helvetica,sans-Serif" font-size="10.00">glog/logging.h</text>
</g>
<!-- Node3&#45;&gt;Node4 -->
<g id="edge3" class="edge"><title>Node3&#45;&gt;Node4</title>
<path fill="none" stroke="midnightblue" d="M99.0738,-56.083C92.1539,-48.2982 81.9346,-36.8015 73.548,-27.3665"/>
<polygon fill="midnightblue" stroke="midnightblue" points="76.0383,-24.8999 66.7787,-19.7511 70.8065,-29.5505 76.0383,-24.8999"/>
</g>
<!-- Node5 -->
<g id="node5" class="node"><title>Node5</title>
<polygon fill="white" stroke="#bfbfbf" points="116,-0.5 116,-19.5 196,-19.5 196,-0.5 116,-0.5"/>
<text text-anchor="middle" x="156" y="-7.5" font-family="Helvetica,sans-Serif" font-size="10.00">gflags/gflags.h</text>
</g>
<!-- Node3&#45;&gt;Node5 -->
<g id="edge4" class="edge"><title>Node3&#45;&gt;Node5</title>
<path fill="none" stroke="midnightblue" d="M115.091,-56.083C122.155,-48.2982 132.588,-36.8015 141.149,-27.3665"/>
<polygon fill="midnightblue" stroke="midnightblue" points="143.931,-29.5087 148.059,-19.7511 138.747,-24.8047 143.931,-29.5087"/>
</g>
</g>
</svg>
