<?xml version="1.0" encoding="UTF-8" standalone="no"?>
<!DOCTYPE svg PUBLIC "-//W3C//DTD SVG 1.1//EN"
 "http://www.w3.org/Graphics/SVG/1.1/DTD/svg11.dtd">
<!-- Generated by graphviz version 2.36.0 (20140111.2315)
 -->
<!-- Title: be/src/runtime/parallel&#45;executor.h Pages: 1 -->
<svg width="412pt" height="108pt"
 viewBox="0.00 0.00 412.00 108.00" xmlns="http://www.w3.org/2000/svg" xmlns:xlink="http://www.w3.org/1999/xlink">
<g id="graph0" class="graph" transform="scale(1 1) rotate(0) translate(4 104)">
<title>be/src/runtime/parallel&#45;executor.h</title>
<polygon fill="white" stroke="none" points="-4,4 -4,-104 408,-104 408,4 -4,4"/>
<!-- Node1 -->
<g id="node1" class="node"><title>Node1</title>
<polygon fill="#bfbfbf" stroke="black" points="160.5,-69 160.5,-99 273.5,-99 273.5,-69 160.5,-69"/>
<text text-anchor="start" x="168.5" y="-87" font-family="Helvetica,sans-Serif" font-size="10.00">be/src/runtime/parallel</text>
<text text-anchor="middle" x="217" y="-76" font-family="Helvetica,sans-Serif" font-size="10.00">&#45;executor.h</text>
</g>
<!-- Node2 -->
<g id="node2" class="node"><title>Node2</title>
<g id="a_node2"><a xlink:href="coordinator_8cc.html" target="_top" xlink:title="be/src/runtime/coordinator.cc">
<polygon fill="white" stroke="black" points="-0.5,-6.5 -0.5,-25.5 142.5,-25.5 142.5,-6.5 -0.5,-6.5"/>
<text text-anchor="middle" x="71" y="-13.5" font-family="Helvetica,sans-Serif" font-size="10.00">be/src/runtime/coordinator.cc</text>
</a>
</g>
</g>
<!-- Node1&#45;&gt;Node2 -->
<g id="edge1" class="edge"><title>Node1&#45;&gt;Node2</title>
<path fill="none" stroke="midnightblue" d="M176.471,-64.6785C148.305,-51.9462 112.041,-35.5526 90.2054,-25.6819"/>
<polygon fill="midnightblue" stroke="midnightblue" points="175.125,-67.9113 185.679,-68.8413 178.009,-61.5328 175.125,-67.9113"/>
</g>
<!-- Node3 -->
<g id="node3" class="node"><title>Node3</title>
<g id="a_node3"><a xlink:href="parallel-executor-test_8cc.html" target="_top" xlink:title="be/src/runtime/parallel\l&#45;executor&#45;test.cc">
<polygon fill="white" stroke="black" points="160.5,-1 160.5,-31 273.5,-31 273.5,-1 160.5,-1"/>
<text text-anchor="start" x="168.5" y="-19" font-family="Helvetica,sans-Serif" font-size="10.00">be/src/runtime/parallel</text>
<text text-anchor="middle" x="217" y="-8" font-family="Helvetica,sans-Serif" font-size="10.00">&#45;executor&#45;test.cc</text>
</a>
</g>
</g>
<!-- Node1&#45;&gt;Node3 -->
<g id="edge2" class="edge"><title>Node1&#45;&gt;Node3</title>
<path fill="none" stroke="midnightblue" d="M217,-58.5322C217,-49.3606 217,-39.2449 217,-31.2931"/>
<polygon fill="midnightblue" stroke="midnightblue" points="213.5,-58.6789 217,-68.679 220.5,-58.679 213.5,-58.6789"/>
</g>
<!-- Node4 -->
<g id="node4" class="node"><title>Node4</title>
<g id="a_node4"><a xlink:href="parallel-executor_8cc.html" target="_top" xlink:title="be/src/runtime/parallel\l&#45;executor.cc">
<polygon fill="white" stroke="black" points="291.5,-1 291.5,-31 404.5,-31 404.5,-1 291.5,-1"/>
<text text-anchor="start" x="299.5" y="-19" font-family="Helvetica,sans-Serif" font-size="10.00">be/src/runtime/parallel</text>
<text text-anchor="middle" x="348" y="-8" font-family="Helvetica,sans-Serif" font-size="10.00">&#45;executor.cc</text>
</a>
</g>
</g>
<!-- Node1&#45;&gt;Node4 -->
<g id="edge3" class="edge"><title>Node1&#45;&gt;Node4</title>
<path fill="none" stroke="midnightblue" d="M254.04,-64.3388C274.965,-53.7964 300.7,-40.8303 319.944,-31.1352"/>
<polygon fill="midnightblue" stroke="midnightblue" points="252.459,-61.2162 245.103,-68.8413 255.608,-67.4676 252.459,-61.2162"/>
</g>
</g>
</svg>
