<?xml version="1.0" encoding="UTF-8" standalone="no"?>
<!DOCTYPE svg PUBLIC "-//W3C//DTD SVG 1.1//EN"
 "http://www.w3.org/Graphics/SVG/1.1/DTD/svg11.dtd">
<!-- Generated by graphviz version 2.36.0 (20140111.2315)
 -->
<!-- Title: be/src/util/parse&#45;util.h Pages: 1 -->
<!--zoomable 96 -->
<svg id="main" version="1.1" xmlns="http://www.w3.org/2000/svg" xmlns:xlink="http://www.w3.org/1999/xlink" xml:space="preserve" onload="init(evt)">
<style type="text/css"><![CDATA[
.edge:hover path { stroke: red; }
.edge:hover polygon { stroke: red; fill: red; }
]]></style>
<script type="text/javascript"><![CDATA[
var edges = document.getElementsByTagName('g');
if (edges && edges.length) {
  for (var i=0;i<edges.length;i++) {
    if (edges[i].id.substr(0,4)=='edge') {
      edges[i].setAttribute('class','edge');
    }
  }
}
]]></script>
        <defs>
                <circle id="rim" cx="0" cy="0" r="7"/>
                <circle id="rim2" cx="0" cy="0" r="3.5"/>
                <g id="zoomPlus">
                        <use xlink:href="#rim" fill="#404040">
                                <set attributeName="fill" to="#808080" begin="zoomplus.mouseover" end="zoomplus.mouseout"/>
                        </use>
                        <path d="M-4,0h8M0,-4v8" fill="none" stroke="white" stroke-width="1.5" pointer-events="none"/>
                </g>
                <g id="zoomMin">
                        <use xlink:href="#rim" fill="#404040">
                                <set attributeName="fill" to="#808080" begin="zoomminus.mouseover" end="zoomminus.mouseout"/>
                        </use>
                        <path d="M-4,0h8" fill="none" stroke="white" stroke-width="1.5" pointer-events="none"/>
                </g>
                <g id="dirArrow">
                        <path fill="none" stroke="white" stroke-width="1.5" d="M0,-3.0v7 M-2.5,-0.5L0,-3.0L2.5,-0.5"/>
                </g>
               <g id="resetDef">
                       <use xlink:href="#rim2" fill="#404040">
                               <set attributeName="fill" to="#808080" begin="reset.mouseover" end="reset.mouseout"/>
                       </use>
               </g>
        </defs>

<script type="text/javascript">
var viewWidth = 1311;
var viewHeight = 96;
var sectionId = 'dynsection-1';
</script>
<script xlink:href="svgpan.js"/>
<svg id="graph" class="graph">
<g id="viewport">
<title>be/src/util/parse&#45;util.h</title>
<polygon fill="white" stroke="none" points="-4,4 -4,-92 1307,-92 1307,4 -4,4"/>
<!-- Node1 -->
<g id="node1" class="node"><title>Node1</title>
<polygon fill="#bfbfbf" stroke="black" points="603,-68.5 603,-87.5 713,-87.5 713,-68.5 603,-68.5"/>
<text text-anchor="middle" x="658" y="-75.5" font-family="Helvetica,sans-Serif" font-size="10.00">be/src/util/parse&#45;util.h</text>
</g>
<!-- Node2 -->
<g id="node2" class="node"><title>Node2</title>
<g id="a_node2"><a xlink:href="external-data-source-executor_8cc.html" target="_top" xlink:title="be/src/exec/external\l&#45;data&#45;source&#45;executor.cc">
<polygon fill="white" stroke="black" points="-0.5,-1 -0.5,-31 124.5,-31 124.5,-1 -0.5,-1"/>
<text text-anchor="start" x="7.5" y="-19" font-family="Helvetica,sans-Serif" font-size="10.00">be/src/exec/external</text>
<text text-anchor="middle" x="62" y="-8" font-family="Helvetica,sans-Serif" font-size="10.00">&#45;data&#45;source&#45;executor.cc</text>
</a>
</g>
</g>
<!-- Node1&#45;&gt;Node2 -->
<g id="edge1" class="edge"><title>Node1&#45;&gt;Node2</title>
<path fill="none" stroke="midnightblue" d="M592.742,-73.9849C493.173,-68.8039 297.535,-56.3381 133,-32 130.258,-31.5944 127.463,-31.1478 124.645,-30.6701"/>
<polygon fill="midnightblue" stroke="midnightblue" points="592.78,-77.4914 602.946,-74.5078 593.138,-70.5005 592.78,-77.4914"/>
</g>
<!-- Node3 -->
<g id="node3" class="node"><title>Node3</title>
<g id="a_node3"><a xlink:href="exec-env_8cc.html" target="_top" xlink:title="be/src/runtime/exec\l&#45;env.cc">
<polygon fill="white" stroke="black" points="142.5,-1 142.5,-31 245.5,-31 245.5,-1 142.5,-1"/>
<text text-anchor="start" x="150.5" y="-19" font-family="Helvetica,sans-Serif" font-size="10.00">be/src/runtime/exec</text>
<text text-anchor="middle" x="194" y="-8" font-family="Helvetica,sans-Serif" font-size="10.00">&#45;env.cc</text>
</a>
</g>
</g>
<!-- Node1&#45;&gt;Node3 -->
<g id="edge2" class="edge"><title>Node1&#45;&gt;Node3</title>
<path fill="none" stroke="midnightblue" d="M592.505,-72.317C512.455,-65.9895 373.072,-53.0173 255,-32 251.994,-31.4649 248.915,-30.8673 245.816,-30.2275"/>
<polygon fill="midnightblue" stroke="midnightblue" points="592.679,-75.8411 602.921,-73.1292 593.223,-68.8623 592.679,-75.8411"/>
</g>
<!-- Node4 -->
<g id="node4" class="node"><title>Node4</title>
<g id="a_node4"><a xlink:href="plan-fragment-executor_8cc.html" target="_top" xlink:title="be/src/runtime/plan\l&#45;fragment&#45;executor.cc">
<polygon fill="white" stroke="black" points="264,-1 264,-31 376,-31 376,-1 264,-1"/>
<text text-anchor="start" x="272" y="-19" font-family="Helvetica,sans-Serif" font-size="10.00">be/src/runtime/plan</text>
<text text-anchor="middle" x="320" y="-8" font-family="Helvetica,sans-Serif" font-size="10.00">&#45;fragment&#45;executor.cc</text>
</a>
</g>
</g>
<!-- Node1&#45;&gt;Node4 -->
<g id="edge3" class="edge"><title>Node1&#45;&gt;Node4</title>
<path fill="none" stroke="midnightblue" d="M592.873,-67.4536C537.432,-59.043 455.759,-45.9817 385,-32 382.16,-31.4387 379.254,-30.8441 376.323,-30.2278"/>
<polygon fill="midnightblue" stroke="midnightblue" points="592.501,-70.937 602.911,-68.9691 593.546,-64.0154 592.501,-70.937"/>
</g>
<!-- Node5 -->
<g id="node5" class="node"><title>Node5</title>
<g id="a_node5"><a xlink:href="request-pool-service_8cc.html" target="_top" xlink:title="be/src/scheduling/request\l&#45;pool&#45;service.cc">
<polygon fill="white" stroke="black" points="394,-1 394,-31 522,-31 522,-1 394,-1"/>
<text text-anchor="start" x="402" y="-19" font-family="Helvetica,sans-Serif" font-size="10.00">be/src/scheduling/request</text>
<text text-anchor="middle" x="458" y="-8" font-family="Helvetica,sans-Serif" font-size="10.00">&#45;pool&#45;service.cc</text>
</a>
</g>
</g>
<!-- Node1&#45;&gt;Node5 -->
<g id="edge4" class="edge"><title>Node1&#45;&gt;Node5</title>
<path fill="none" stroke="midnightblue" d="M619.677,-65.5031C586.933,-55.6798 539.712,-41.5137 504.751,-31.0253"/>
<polygon fill="midnightblue" stroke="midnightblue" points="618.761,-68.8823 629.345,-68.4035 620.772,-62.1775 618.761,-68.8823"/>
</g>
<!-- Node6 -->
<g id="node6" class="node"><title>Node6</title>
<g id="a_node6"><a xlink:href="impala-server_8cc.html" target="_top" xlink:title="be/src/service/impala\l&#45;server.cc">
<polygon fill="white" stroke="black" points="540,-1 540,-31 650,-31 650,-1 540,-1"/>
<text text-anchor="start" x="548" y="-19" font-family="Helvetica,sans-Serif" font-size="10.00">be/src/service/impala</text>
<text text-anchor="middle" x="595" y="-8" font-family="Helvetica,sans-Serif" font-size="10.00">&#45;server.cc</text>
</a>
</g>
</g>
<!-- Node1&#45;&gt;Node6 -->
<g id="edge5" class="edge"><title>Node1&#45;&gt;Node6</title>
<path fill="none" stroke="midnightblue" d="M641.45,-61.2376C631.649,-51.9036 619.334,-40.1755 609.848,-31.1408"/>
<polygon fill="midnightblue" stroke="midnightblue" points="639.318,-64.0414 648.974,-68.4035 644.146,-58.9724 639.318,-64.0414"/>
</g>
<!-- Node7 -->
<g id="node7" class="node"><title>Node7</title>
<g id="a_node7"><a xlink:href="query-options_8cc.html" target="_top" xlink:title="be/src/service/query\l&#45;options.cc">
<polygon fill="white" stroke="black" points="668.5,-1 668.5,-31 773.5,-31 773.5,-1 668.5,-1"/>
<text text-anchor="start" x="676.5" y="-19" font-family="Helvetica,sans-Serif" font-size="10.00">be/src/service/query</text>
<text text-anchor="middle" x="721" y="-8" font-family="Helvetica,sans-Serif" font-size="10.00">&#45;options.cc</text>
</a>
</g>
</g>
<!-- Node1&#45;&gt;Node7 -->
<g id="edge6" class="edge"><title>Node1&#45;&gt;Node7</title>
<path fill="none" stroke="midnightblue" d="M674.55,-61.2376C684.351,-51.9036 696.666,-40.1755 706.152,-31.1408"/>
<polygon fill="midnightblue" stroke="midnightblue" points="671.854,-58.9724 667.026,-68.4035 676.682,-64.0414 671.854,-58.9724"/>
</g>
<!-- Node8 -->
<g id="node8" class="node"><title>Node8</title>
<g id="a_node8"><a xlink:href="query-schedule_8cc.html" target="_top" xlink:title="be/src/statestore/query\l&#45;schedule.cc">
<polygon fill="white" stroke="black" points="791.5,-1 791.5,-31 908.5,-31 908.5,-1 791.5,-1"/>
<text text-anchor="start" x="799.5" y="-19" font-family="Helvetica,sans-Serif" font-size="10.00">be/src/statestore/query</text>
<text text-anchor="middle" x="850" y="-8" font-family="Helvetica,sans-Serif" font-size="10.00">&#45;schedule.cc</text>
</a>
</g>
</g>
<!-- Node1&#45;&gt;Node8 -->
<g id="edge7" class="edge"><title>Node1&#45;&gt;Node8</title>
<path fill="none" stroke="midnightblue" d="M695.197,-65.3759C726.615,-55.5577 771.701,-41.4685 805.119,-31.0253"/>
<polygon fill="midnightblue" stroke="midnightblue" points="694.01,-62.08 685.509,-68.4035 696.098,-68.7613 694.01,-62.08"/>
</g>
<!-- Node9 -->
<g id="node9" class="node"><title>Node9</title>
<g id="a_node9"><a xlink:href="simple-scheduler_8cc.html" target="_top" xlink:title="be/src/statestore/simple\l&#45;scheduler.cc">
<polygon fill="white" stroke="black" points="927,-1 927,-31 1049,-31 1049,-1 927,-1"/>
<text text-anchor="start" x="935" y="-19" font-family="Helvetica,sans-Serif" font-size="10.00">be/src/statestore/simple</text>
<text text-anchor="middle" x="988" y="-8" font-family="Helvetica,sans-Serif" font-size="10.00">&#45;scheduler.cc</text>
</a>
</g>
</g>
<!-- Node1&#45;&gt;Node9 -->
<g id="edge8" class="edge"><title>Node1&#45;&gt;Node9</title>
<path fill="none" stroke="midnightblue" d="M720.853,-66.7333C773.375,-57.9975 850.195,-44.856 917,-32 920.217,-31.381 923.512,-30.733 926.838,-30.0683"/>
<polygon fill="midnightblue" stroke="midnightblue" points="719.976,-63.331 710.683,-68.4204 721.121,-70.2367 719.976,-63.331"/>
</g>
<!-- Node10 -->
<g id="node10" class="node"><title>Node10</title>
<g id="a_node10"><a xlink:href="parse-util-test_8cc.html" target="_top" xlink:title="be/src/util/parse&#45;util\l&#45;test.cc">
<polygon fill="white" stroke="black" points="1067,-1 1067,-31 1169,-31 1169,-1 1067,-1"/>
<text text-anchor="start" x="1075" y="-19" font-family="Helvetica,sans-Serif" font-size="10.00">be/src/util/parse&#45;util</text>
<text text-anchor="middle" x="1118" y="-8" font-family="Helvetica,sans-Serif" font-size="10.00">&#45;test.cc</text>
</a>
</g>
</g>
<!-- Node1&#45;&gt;Node10 -->
<g id="edge9" class="edge"><title>Node1&#45;&gt;Node10</title>
<path fill="none" stroke="midnightblue" d="M723.356,-72.3308C802.875,-66.0336 941.01,-53.1078 1058,-32 1060.85,-31.4853 1063.77,-30.9122 1066.71,-30.2989"/>
<polygon fill="midnightblue" stroke="midnightblue" points="722.704,-68.871 713.006,-73.1391 723.249,-75.8498 722.704,-68.871"/>
</g>
<!-- Node11 -->
<g id="node11" class="node"><title>Node11</title>
<g id="a_node11"><a xlink:href="parse-util_8cc.html" target="_top" xlink:title="be/src/util/parse&#45;util.cc">
<polygon fill="white" stroke="black" points="1187,-6.5 1187,-25.5 1303,-25.5 1303,-6.5 1187,-6.5"/>
<text text-anchor="middle" x="1245" y="-13.5" font-family="Helvetica,sans-Serif" font-size="10.00">be/src/util/parse&#45;util.cc</text>
</a>
</g>
</g>
<!-- Node1&#45;&gt;Node11 -->
<g id="edge10" class="edge"><title>Node1&#45;&gt;Node11</title>
<path fill="none" stroke="midnightblue" d="M723.326,-74.0778C822.033,-69.0447 1014.88,-56.7999 1177,-32 1187.99,-30.3181 1199.87,-27.9078 1210.57,-25.5099"/>
<polygon fill="midnightblue" stroke="midnightblue" points="723.018,-70.5888 713.206,-74.5853 723.369,-77.58 723.018,-70.5888"/>
</g>
</g>
</svg>
        <g id="navigator" transform="translate(0 0)" fill="#404254">
                <rect fill="#f2f5e9" fill-opacity="0.5" stroke="#606060" stroke-width=".5" x="0" y="0" width="60" height="60"/>
                <use id="zoomplus" xlink:href="#zoomPlus" x="17" y="9" onmousedown="handleZoom(evt,'in')"/>
                <use id="zoomminus" xlink:href="#zoomMin" x="42" y="9" onmousedown="handleZoom(evt,'out')"/>
                <use id="reset" xlink:href="#resetDef" x="30" y="36" onmousedown="handleReset()"/>
                <g id="arrowUp" xlink:href="#dirArrow" transform="translate(30 24)" onmousedown="handlePan(0,-1)">
                  <use xlink:href="#rim" fill="#404040">
                        <set attributeName="fill" to="#808080" begin="arrowUp.mouseover" end="arrowUp.mouseout"/>
                  </use>
                  <path fill="none" stroke="white" stroke-width="1.5" d="M0,-3.0v7 M-2.5,-0.5L0,-3.0L2.5,-0.5"/>
                </g>
                <g id="arrowRight" xlink:href="#dirArrow" transform="rotate(90) translate(36 -43)" onmousedown="handlePan(1,0)">
                  <use xlink:href="#rim" fill="#404040">
                        <set attributeName="fill" to="#808080" begin="arrowRight.mouseover" end="arrowRight.mouseout"/>
                  </use>
                  <path fill="none" stroke="white" stroke-width="1.5" d="M0,-3.0v7 M-2.5,-0.5L0,-3.0L2.5,-0.5"/>
                </g>
                <g id="arrowDown" xlink:href="#dirArrow" transform="rotate(180) translate(-30 -48)" onmousedown="handlePan(0,1)">
                  <use xlink:href="#rim" fill="#404040">
                        <set attributeName="fill" to="#808080" begin="arrowDown.mouseover" end="arrowDown.mouseout"/>
                  </use>
                  <path fill="none" stroke="white" stroke-width="1.5" d="M0,-3.0v7 M-2.5,-0.5L0,-3.0L2.5,-0.5"/>
                </g>
                <g id="arrowLeft" xlink:href="#dirArrow" transform="rotate(270) translate(-36 17)" onmousedown="handlePan(-1,0)">
                  <use xlink:href="#rim" fill="#404040">
                        <set attributeName="fill" to="#808080" begin="arrowLeft.mouseover" end="arrowLeft.mouseout"/>
                  </use>
                  <path fill="none" stroke="white" stroke-width="1.5" d="M0,-3.0v7 M-2.5,-0.5L0,-3.0L2.5,-0.5"/>
                </g>
        </g>
        <svg viewBox="0 0 15 15" width="100%" height="30px" preserveAspectRatio="xMaxYMin meet">
         <g id="arrow_out" transform="scale(0.3 0.3)">
          <a xlink:href="parse-util_8h__dep__incl_org.svg" target="_base">
           <rect id="button" ry="5" rx="5" y="6" x="6" height="38" width="38"
                fill="#f2f5e9" fill-opacity="0.5" stroke="#606060" stroke-width="1.0"/>
           <path id="arrow"
             d="M 11.500037,31.436501 C 11.940474,20.09759 22.043105,11.32322 32.158766,21.979434 L 37.068811,17.246167 C 37.068811,17.246167 37.088388,32 37.088388,32 L 22.160133,31.978069 C 22.160133,31.978069 26.997745,27.140456 26.997745,27.140456 C 18.528582,18.264221 13.291696,25.230495 11.500037,31.436501 z"
             style="fill:#404040;"/>
          </a>
         </g>
        </svg>
</svg>
