<?xml version="1.0" encoding="UTF-8" standalone="no"?>
<!DOCTYPE svg PUBLIC "-//W3C//DTD SVG 1.1//EN"
 "http://www.w3.org/Graphics/SVG/1.1/DTD/svg11.dtd">
<!-- Generated by graphviz version 2.36.0 (20140111.2315)
 -->
<!-- Title: be/src/exec/partitioned&#45;hash&#45;join&#45;node.inline.h Pages: 1 -->
<svg width="258pt" height="108pt"
 viewBox="0.00 0.00 258.00 108.00" xmlns="http://www.w3.org/2000/svg" xmlns:xlink="http://www.w3.org/1999/xlink">
<g id="graph0" class="graph" transform="scale(1 1) rotate(0) translate(4 104)">
<title>be/src/exec/partitioned&#45;hash&#45;join&#45;node.inline.h</title>
<polygon fill="white" stroke="none" points="-4,4 -4,-104 254,-104 254,4 -4,4"/>
<!-- Node1 -->
<g id="node1" class="node"><title>Node1</title>
<polygon fill="#bfbfbf" stroke="black" points="67,-69 67,-99 183,-99 183,-69 67,-69"/>
<text text-anchor="start" x="75" y="-87" font-family="Helvetica,sans-Serif" font-size="10.00">be/src/exec/partitioned</text>
<text text-anchor="middle" x="125" y="-76" font-family="Helvetica,sans-Serif" font-size="10.00">&#45;hash&#45;join&#45;node.inline.h</text>
</g>
<!-- Node2 -->
<g id="node2" class="node"><title>Node2</title>
<g id="a_node2"><a xlink:href="partitioned-hash-join-node-ir_8cc.html" target="_top" xlink:title="be/src/exec/partitioned\l&#45;hash&#45;join&#45;node&#45;ir.cc">
<polygon fill="white" stroke="black" points="0,-1 0,-31 116,-31 116,-1 0,-1"/>
<text text-anchor="start" x="8" y="-19" font-family="Helvetica,sans-Serif" font-size="10.00">be/src/exec/partitioned</text>
<text text-anchor="middle" x="58" y="-8" font-family="Helvetica,sans-Serif" font-size="10.00">&#45;hash&#45;join&#45;node&#45;ir.cc</text>
</a>
</g>
</g>
<!-- Node1&#45;&gt;Node2 -->
<g id="edge1" class="edge"><title>Node1&#45;&gt;Node2</title>
<path fill="none" stroke="midnightblue" d="M103.16,-61.4855C93.1092,-51.5852 81.4593,-40.1092 72.5096,-31.2931"/>
<polygon fill="midnightblue" stroke="midnightblue" points="100.882,-64.1547 110.462,-68.679 105.794,-59.1678 100.882,-64.1547"/>
</g>
<!-- Node3 -->
<g id="node3" class="node"><title>Node3</title>
<g id="a_node3"><a xlink:href="partitioned-hash-join-node_8cc.html" target="_top" xlink:title="be/src/exec/partitioned\l&#45;hash&#45;join&#45;node.cc">
<polygon fill="white" stroke="black" points="134,-1 134,-31 250,-31 250,-1 134,-1"/>
<text text-anchor="start" x="142" y="-19" font-family="Helvetica,sans-Serif" font-size="10.00">be/src/exec/partitioned</text>
<text text-anchor="middle" x="192" y="-8" font-family="Helvetica,sans-Serif" font-size="10.00">&#45;hash&#45;join&#45;node.cc</text>
</a>
</g>
</g>
<!-- Node1&#45;&gt;Node3 -->
<g id="edge2" class="edge"><title>Node1&#45;&gt;Node3</title>
<path fill="none" stroke="midnightblue" d="M146.84,-61.4855C156.891,-51.5852 168.541,-40.1092 177.49,-31.2931"/>
<polygon fill="midnightblue" stroke="midnightblue" points="144.206,-59.1678 139.538,-68.679 149.118,-64.1547 144.206,-59.1678"/>
</g>
</g>
</svg>
