<?xml version="1.0" encoding="UTF-8" standalone="no"?>
<!DOCTYPE svg PUBLIC "-//W3C//DTD SVG 1.1//EN"
 "http://www.w3.org/Graphics/SVG/1.1/DTD/svg11.dtd">
<!-- Generated by graphviz version 2.36.0 (20140111.2315)
 -->
<!-- Title: be/src/exec/partitioned&#45;aggregation&#45;node.cc Pages: 1 -->
<svg width="3309pt" height="536pt"
 viewBox="0.00 0.00 3308.56 536.00" xmlns="http://www.w3.org/2000/svg" xmlns:xlink="http://www.w3.org/1999/xlink">
<g id="graph0" class="graph" transform="scale(1 1) rotate(0) translate(4 532)">
<title>be/src/exec/partitioned&#45;aggregation&#45;node.cc</title>
<polygon fill="white" stroke="none" points="-4,4 -4,-532 3304.56,-532 3304.56,4 -4,4"/>
<!-- Node1 -->
<g id="node1" class="node"><title>Node1</title>
<polygon fill="#bfbfbf" stroke="black" points="1315.56,-497 1315.56,-527 1431.56,-527 1431.56,-497 1315.56,-497"/>
<text text-anchor="start" x="1323.56" y="-515" font-family="Helvetica,sans-Serif" font-size="10.00">be/src/exec/partitioned</text>
<text text-anchor="middle" x="1373.56" y="-504" font-family="Helvetica,sans-Serif" font-size="10.00">&#45;aggregation&#45;node.cc</text>
</g>
<!-- Node2 -->
<g id="node2" class="node"><title>Node2</title>
<g id="a_node2"><a xlink:href="partitioned-aggregation-node_8h.html" target="_top" xlink:title="exec/partitioned&#45;aggregation\l&#45;node.h">
<polygon fill="white" stroke="black" points="809.061,-429 809.061,-459 948.061,-459 948.061,-429 809.061,-429"/>
<text text-anchor="start" x="817.061" y="-447" font-family="Helvetica,sans-Serif" font-size="10.00">exec/partitioned&#45;aggregation</text>
<text text-anchor="middle" x="878.561" y="-436" font-family="Helvetica,sans-Serif" font-size="10.00">&#45;node.h</text>
</a>
</g>
</g>
<!-- Node1&#45;&gt;Node2 -->
<g id="edge1" class="edge"><title>Node1&#45;&gt;Node2</title>
<path fill="none" stroke="midnightblue" d="M1315.41,-504.302C1237,-495.12 1093.05,-477.731 970.561,-460 966.62,-459.429 962.586,-458.83 958.514,-458.212"/>
<polygon fill="midnightblue" stroke="midnightblue" points="958.76,-454.709 948.344,-456.646 957.695,-461.628 958.76,-454.709"/>
</g>
<!-- Node7 -->
<g id="node7" class="node"><title>Node7</title>
<polygon fill="white" stroke="#bfbfbf" points="578.561,-112.5 578.561,-131.5 630.561,-131.5 630.561,-112.5 578.561,-112.5"/>
<text text-anchor="middle" x="604.561" y="-119.5" font-family="Helvetica,sans-Serif" font-size="10.00">sstream</text>
</g>
<!-- Node1&#45;&gt;Node7 -->
<g id="edge53" class="edge"><title>Node1&#45;&gt;Node7</title>
<path fill="none" stroke="midnightblue" d="M1315.31,-509.779C1132.28,-505.638 576.423,-490.652 501.561,-460 453.467,-440.308 413.561,-434.97 413.561,-383 413.561,-383 413.561,-383 413.561,-251 413.561,-213.157 406.218,-195.169 432.561,-168 451.249,-148.727 523.954,-134.868 568.64,-127.965"/>
<polygon fill="midnightblue" stroke="midnightblue" points="569.164,-131.426 578.534,-126.479 568.125,-124.503 569.164,-131.426"/>
</g>
<!-- Node10 -->
<g id="node10" class="node"><title>Node10</title>
<g id="a_node10"><a xlink:href="descriptors_8h.html" target="_top" xlink:title="runtime/descriptors.h">
<polygon fill="white" stroke="red" points="991.561,-112.5 991.561,-131.5 1099.56,-131.5 1099.56,-112.5 991.561,-112.5"/>
<text text-anchor="middle" x="1045.56" y="-119.5" font-family="Helvetica,sans-Serif" font-size="10.00">runtime/descriptors.h</text>
</a>
</g>
</g>
<!-- Node1&#45;&gt;Node10 -->
<g id="edge113" class="edge"><title>Node1&#45;&gt;Node10</title>
<path fill="none" stroke="midnightblue" d="M1373.37,-496.709C1372.45,-478.986 1368.58,-448.6 1353.56,-428 1307.26,-364.501 1252.18,-396.943 1202.56,-336 1152.5,-274.515 1196.01,-226.565 1142.56,-168 1128.39,-152.47 1107.77,-141.873 1089.18,-134.884"/>
<polygon fill="midnightblue" stroke="midnightblue" points="1090.29,-131.563 1079.69,-131.552 1087.97,-138.168 1090.29,-131.563"/>
</g>
<!-- Node12 -->
<g id="node12" class="node"><title>Node12</title>
<g id="a_node12"><a xlink:href="runtime-profile_8h.html" target="_top" xlink:title="util/runtime&#45;profile.h">
<polygon fill="white" stroke="red" points="652.561,-56.5 652.561,-75.5 754.561,-75.5 754.561,-56.5 652.561,-56.5"/>
<text text-anchor="middle" x="703.561" y="-63.5" font-family="Helvetica,sans-Serif" font-size="10.00">util/runtime&#45;profile.h</text>
</a>
</g>
</g>
<!-- Node1&#45;&gt;Node12 -->
<g id="edge134" class="edge"><title>Node1&#45;&gt;Node12</title>
<path fill="none" stroke="midnightblue" d="M1315.19,-510.477C1083.04,-508.144 232.137,-497.119 117.561,-460 58.6932,-440.929 1.56106,-444.88 1.56106,-383 1.56106,-383 1.56106,-383 1.56106,-183 1.56106,-150.334 -4.68318,-132.731 20.5611,-112 67.9911,-73.0489 483.661,-67.6586 642.352,-67.0289"/>
<polygon fill="midnightblue" stroke="midnightblue" points="642.438,-70.5287 652.426,-66.994 642.414,-63.5288 642.438,-70.5287"/>
</g>
<!-- Node14 -->
<g id="node14" class="node"><title>Node14</title>
<polygon fill="white" stroke="#bfbfbf" points="2826.56,-112.5 2826.56,-131.5 2966.56,-131.5 2966.56,-112.5 2826.56,-112.5"/>
<text text-anchor="middle" x="2896.56" y="-119.5" font-family="Helvetica,sans-Serif" font-size="10.00">gen&#45;cpp/PlanNodes_types.h</text>
</g>
<!-- Node1&#45;&gt;Node14 -->
<g id="edge136" class="edge"><title>Node1&#45;&gt;Node14</title>
<path fill="none" stroke="midnightblue" d="M1431.81,-510.823C1689.65,-509.793 2721.71,-502.995 2859.56,-460 2938.28,-435.448 2976.4,-415.694 2997.56,-336 3002.81,-316.225 2996.04,-244.495 2992.56,-236 2975.7,-194.843 2937.87,-157.767 2915.05,-138.012"/>
<polygon fill="midnightblue" stroke="midnightblue" points="2917.29,-135.321 2907.39,-131.542 2912.78,-140.669 2917.29,-135.321"/>
</g>
<!-- Node18 -->
<g id="node18" class="node"><title>Node18</title>
<g id="a_node18"><a xlink:href="buffered-tuple-stream_8inline_8h.html" target="_top" xlink:title="runtime/buffered&#45;tuple\l&#45;stream.inline.h">
<polygon fill="white" stroke="black" points="814.061,-305 814.061,-335 925.061,-335 925.061,-305 814.061,-305"/>
<text text-anchor="start" x="822.061" y="-323" font-family="Helvetica,sans-Serif" font-size="10.00">runtime/buffered&#45;tuple</text>
<text text-anchor="middle" x="869.561" y="-312" font-family="Helvetica,sans-Serif" font-size="10.00">&#45;stream.inline.h</text>
</a>
</g>
</g>
<!-- Node1&#45;&gt;Node18 -->
<g id="edge112" class="edge"><title>Node1&#45;&gt;Node18</title>
<path fill="none" stroke="midnightblue" d="M1315.33,-507.369C1226.31,-501.069 1061.18,-486.209 1008.56,-460 953.832,-432.74 907.628,-375.558 884.821,-343.685"/>
<polygon fill="midnightblue" stroke="midnightblue" points="887.628,-341.592 879.021,-335.413 881.896,-345.61 887.628,-341.592"/>
</g>
<!-- Node19 -->
<g id="node19" class="node"><title>Node19</title>
<g id="a_node19"><a xlink:href="tuple-row_8h.html" target="_top" xlink:title="runtime/tuple&#45;row.h">
<polygon fill="white" stroke="black" points="903.561,-242.5 903.561,-261.5 1003.56,-261.5 1003.56,-242.5 903.561,-242.5"/>
<text text-anchor="middle" x="953.561" y="-249.5" font-family="Helvetica,sans-Serif" font-size="10.00">runtime/tuple&#45;row.h</text>
</a>
</g>
</g>
<!-- Node1&#45;&gt;Node19 -->
<g id="edge127" class="edge"><title>Node1&#45;&gt;Node19</title>
<path fill="none" stroke="midnightblue" d="M1315.38,-509.325C1177.6,-504.868 839.896,-490.89 799.561,-460 609.955,-314.795 933.828,-363.67 956.561,-336 971.329,-318.025 966.291,-289.741 960.546,-271.281"/>
<polygon fill="midnightblue" stroke="midnightblue" points="963.807,-270.002 957.226,-261.699 957.193,-272.294 963.807,-270.002"/>
</g>
<!-- Node20 -->
<g id="node20" class="node"><title>Node20</title>
<g id="a_node20"><a xlink:href="mem-pool_8h.html" target="_top" xlink:title="runtime/mem&#45;pool.h">
<polygon fill="white" stroke="red" points="650.061,-112.5 650.061,-131.5 753.061,-131.5 753.061,-112.5 650.061,-112.5"/>
<text text-anchor="middle" x="701.561" y="-119.5" font-family="Helvetica,sans-Serif" font-size="10.00">runtime/mem&#45;pool.h</text>
</a>
</g>
</g>
<!-- Node1&#45;&gt;Node20 -->
<g id="edge114" class="edge"><title>Node1&#45;&gt;Node20</title>
<path fill="none" stroke="midnightblue" d="M1315.32,-511.467C1142.91,-512.268 643.909,-510.191 592.561,-460 547.757,-416.206 527.139,-262.743 592.561,-168 603.805,-151.717 622.095,-141.315 640.509,-134.674"/>
<polygon fill="midnightblue" stroke="midnightblue" points="641.697,-137.968 650.113,-131.533 639.521,-131.315 641.697,-137.968"/>
</g>
<!-- Node21 -->
<g id="node21" class="node"><title>Node21</title>
<g id="a_node21"><a xlink:href="row-batch_8h.html" target="_top" xlink:title="runtime/row&#45;batch.h">
<polygon fill="white" stroke="red" points="442.061,-174.5 442.061,-193.5 545.061,-193.5 545.061,-174.5 442.061,-174.5"/>
<text text-anchor="middle" x="493.561" y="-181.5" font-family="Helvetica,sans-Serif" font-size="10.00">runtime/row&#45;batch.h</text>
</a>
</g>
</g>
<!-- Node1&#45;&gt;Node21 -->
<g id="edge116" class="edge"><title>Node1&#45;&gt;Node21</title>
<path fill="none" stroke="midnightblue" d="M1315.5,-510.036C1139.69,-506.753 621.01,-494.239 553.561,-460 513.881,-439.857 489.561,-427.5 489.561,-383 489.561,-383 489.561,-383 489.561,-319 489.561,-278.028 491.453,-230.041 492.634,-204.061"/>
<polygon fill="midnightblue" stroke="midnightblue" points="496.144,-203.93 493.118,-193.777 489.152,-203.602 496.144,-203.93"/>
</g>
<!-- Node22 -->
<g id="node22" class="node"><title>Node22</title>
<g id="a_node22"><a xlink:href="tuple_8h.html" target="_top" xlink:title="runtime/tuple.h">
<polygon fill="white" stroke="red" points="1036.06,-174.5 1036.06,-193.5 1117.06,-193.5 1117.06,-174.5 1036.06,-174.5"/>
<text text-anchor="middle" x="1076.56" y="-181.5" font-family="Helvetica,sans-Serif" font-size="10.00">runtime/tuple.h</text>
</a>
</g>
</g>
<!-- Node1&#45;&gt;Node22 -->
<g id="edge126" class="edge"><title>Node1&#45;&gt;Node22</title>
<path fill="none" stroke="midnightblue" d="M1315.39,-510.781C1229.76,-509.083 1076.17,-500.327 1041.56,-460 1008.43,-421.388 1053.9,-258.97 1070.74,-203.59"/>
<polygon fill="midnightblue" stroke="midnightblue" points="1074.17,-204.332 1073.77,-193.744 1067.48,-202.268 1074.17,-204.332"/>
</g>
<!-- Node24 -->
<g id="node24" class="node"><title>Node24</title>
<polygon fill="white" stroke="#bfbfbf" points="2142.06,-174.5 2142.06,-193.5 2189.06,-193.5 2189.06,-174.5 2142.06,-174.5"/>
<text text-anchor="middle" x="2165.56" y="-181.5" font-family="Helvetica,sans-Serif" font-size="10.00">math.h</text>
</g>
<!-- Node1&#45;&gt;Node24 -->
<g id="edge52" class="edge"><title>Node1&#45;&gt;Node24</title>
<path fill="none" stroke="midnightblue" d="M1399.41,-496.886C1413.78,-487.932 1431.03,-475.182 1442.56,-460 1462.14,-434.237 1460.2,-423.256 1468.56,-392 1478.8,-353.743 1454.76,-332.209 1482.56,-304 1494.23,-292.157 1994.83,-212.066 2131.43,-190.396"/>
<polygon fill="midnightblue" stroke="midnightblue" points="2132.39,-193.789 2141.71,-188.767 2131.29,-186.876 2132.39,-193.789"/>
</g>
<!-- Node25 -->
<g id="node25" class="node"><title>Node25</title>
<polygon fill="white" stroke="#bfbfbf" points="1051.06,-434.5 1051.06,-453.5 1172.06,-453.5 1172.06,-434.5 1051.06,-434.5"/>
<text text-anchor="middle" x="1111.56" y="-441.5" font-family="Helvetica,sans-Serif" font-size="10.00">gutil/strings/substitute.h</text>
</g>
<!-- Node1&#45;&gt;Node25 -->
<g id="edge54" class="edge"><title>Node1&#45;&gt;Node25</title>
<path fill="none" stroke="midnightblue" d="M1317.68,-496.922C1269.16,-484.7 1199.87,-467.246 1155.3,-456.019"/>
<polygon fill="midnightblue" stroke="midnightblue" points="1155.91,-452.563 1145.36,-453.514 1154.2,-459.351 1155.91,-452.563"/>
</g>
<!-- Node26 -->
<g id="node26" class="node"><title>Node26</title>
<polygon fill="white" stroke="#bfbfbf" points="1190.06,-434.5 1190.06,-453.5 1345.06,-453.5 1345.06,-434.5 1190.06,-434.5"/>
<text text-anchor="middle" x="1267.56" y="-441.5" font-family="Helvetica,sans-Serif" font-size="10.00">thrift/protocol/TDebugProtocol.h</text>
</g>
<!-- Node1&#45;&gt;Node26 -->
<g id="edge55" class="edge"><title>Node1&#45;&gt;Node26</title>
<path fill="none" stroke="midnightblue" d="M1350.82,-496.841C1332.9,-485.681 1308.03,-470.198 1290.15,-459.063"/>
<polygon fill="midnightblue" stroke="midnightblue" points="1291.84,-455.996 1281.5,-453.682 1288.14,-461.939 1291.84,-455.996"/>
</g>
<!-- Node27 -->
<g id="node27" class="node"><title>Node27</title>
<g id="a_node27"><a xlink:href="codegen-anyval_8h.html" target="_top" xlink:title="codegen/codegen&#45;anyval.h">
<polygon fill="white" stroke="black" points="1641.06,-434.5 1641.06,-453.5 1774.06,-453.5 1774.06,-434.5 1641.06,-434.5"/>
<text text-anchor="middle" x="1707.56" y="-441.5" font-family="Helvetica,sans-Serif" font-size="10.00">codegen/codegen&#45;anyval.h</text>
</a>
</g>
</g>
<!-- Node1&#45;&gt;Node27 -->
<g id="edge56" class="edge"><title>Node1&#45;&gt;Node27</title>
<path fill="none" stroke="midnightblue" d="M1431.74,-499.504C1494.46,-487.11 1593.46,-467.548 1654.23,-455.539"/>
<polygon fill="midnightblue" stroke="midnightblue" points="1655.25,-458.906 1664.38,-453.533 1653.89,-452.038 1655.25,-458.906"/>
</g>
<!-- Node28 -->
<g id="node28" class="node"><title>Node28</title>
<g id="a_node28"><a xlink:href="llvm-codegen_8h.html" target="_top" xlink:title="codegen/llvm&#45;codegen.h">
<polygon fill="white" stroke="black" points="1770.56,-372.5 1770.56,-391.5 1892.56,-391.5 1892.56,-372.5 1770.56,-372.5"/>
<text text-anchor="middle" x="1831.56" y="-379.5" font-family="Helvetica,sans-Serif" font-size="10.00">codegen/llvm&#45;codegen.h</text>
</a>
</g>
</g>
<!-- Node1&#45;&gt;Node28 -->
<g id="edge90" class="edge"><title>Node1&#45;&gt;Node28</title>
<path fill="none" stroke="midnightblue" d="M1413.45,-496.934C1463.86,-479.443 1553.48,-449.296 1631.56,-428 1680.94,-414.531 1737.96,-401.994 1778.45,-393.592"/>
<polygon fill="midnightblue" stroke="midnightblue" points="1779.28,-396.993 1788.37,-391.547 1777.87,-390.138 1779.28,-396.993"/>
</g>
<!-- Node38 -->
<g id="node38" class="node"><title>Node38</title>
<g id="a_node38"><a xlink:href="expr_8h.html" target="_top" xlink:title="exprs/expr.h">
<polygon fill="white" stroke="red" points="1212.06,-310.5 1212.06,-329.5 1283.06,-329.5 1283.06,-310.5 1212.06,-310.5"/>
<text text-anchor="middle" x="1247.56" y="-317.5" font-family="Helvetica,sans-Serif" font-size="10.00">exprs/expr.h</text>
</a>
</g>
</g>
<!-- Node1&#45;&gt;Node38 -->
<g id="edge106" class="edge"><title>Node1&#45;&gt;Node38</title>
<path fill="none" stroke="midnightblue" d="M1380.97,-496.733C1388.78,-479.564 1398.57,-450.27 1387.56,-428 1364.8,-381.949 1311.66,-350.273 1277.79,-333.928"/>
<polygon fill="midnightblue" stroke="midnightblue" points="1278.91,-330.59 1268.37,-329.537 1275.95,-336.935 1278.91,-330.59"/>
</g>
<!-- Node40 -->
<g id="node40" class="node"><title>Node40</title>
<g id="a_node40"><a xlink:href="raw-value_8h.html" target="_top" xlink:title="runtime/raw&#45;value.h">
<polygon fill="white" stroke="red" points="2127.56,-242.5 2127.56,-261.5 2229.56,-261.5 2229.56,-242.5 2127.56,-242.5"/>
<text text-anchor="middle" x="2178.56" y="-249.5" font-family="Helvetica,sans-Serif" font-size="10.00">runtime/raw&#45;value.h</text>
</a>
</g>
</g>
<!-- Node1&#45;&gt;Node40 -->
<g id="edge115" class="edge"><title>Node1&#45;&gt;Node40</title>
<path fill="none" stroke="midnightblue" d="M1431.8,-507.712C1675.71,-493.359 2606.29,-432.558 2690.56,-336 2699.91,-325.285 2700.11,-314.543 2690.56,-304 2660.79,-271.118 2369.01,-258.56 2239.71,-254.582"/>
<polygon fill="midnightblue" stroke="midnightblue" points="2239.67,-251.079 2229.57,-254.278 2239.46,-258.076 2239.67,-251.079"/>
</g>
<!-- Node41 -->
<g id="node41" class="node"><title>Node41</title>
<g id="a_node41"><a xlink:href="string-value_8inline_8h.html" target="_top" xlink:title="runtime/string&#45;value.inline.h">
<polygon fill="white" stroke="red" points="2293.56,-174.5 2293.56,-193.5 2429.56,-193.5 2429.56,-174.5 2293.56,-174.5"/>
<text text-anchor="middle" x="2361.56" y="-181.5" font-family="Helvetica,sans-Serif" font-size="10.00">runtime/string&#45;value.inline.h</text>
</a>
</g>
</g>
<!-- Node1&#45;&gt;Node41 -->
<g id="edge125" class="edge"><title>Node1&#45;&gt;Node41</title>
<path fill="none" stroke="midnightblue" d="M1431.58,-509.716C1567.47,-506.214 1916.82,-494.344 2206.56,-460 2379.11,-439.547 2426.12,-445.108 2591.56,-392 2646.45,-374.38 2677.83,-384.776 2708.56,-336 2716.14,-323.967 2716.83,-315.573 2708.56,-304 2690.14,-278.207 2490.53,-220.566 2402.67,-196.208"/>
<polygon fill="midnightblue" stroke="midnightblue" points="2403.59,-192.833 2393.02,-193.544 2401.73,-199.581 2403.59,-192.833"/>
</g>
<!-- Node42 -->
<g id="node42" class="node"><title>Node42</title>
<g id="a_node42"><a xlink:href="hash-table_8inline_8h.html" target="_top" xlink:title="exec/hash&#45;table.inline.h">
<polygon fill="white" stroke="black" points="602.061,-434.5 602.061,-453.5 721.061,-453.5 721.061,-434.5 602.061,-434.5"/>
<text text-anchor="middle" x="661.561" y="-441.5" font-family="Helvetica,sans-Serif" font-size="10.00">exec/hash&#45;table.inline.h</text>
</a>
</g>
</g>
<!-- Node1&#45;&gt;Node42 -->
<g id="edge91" class="edge"><title>Node1&#45;&gt;Node42</title>
<path fill="none" stroke="midnightblue" d="M1315.4,-508.349C1203.76,-502.809 951.866,-488.123 741.561,-460 732.101,-458.735 722.065,-457.093 712.414,-455.362"/>
<polygon fill="midnightblue" stroke="midnightblue" points="713.007,-451.912 702.537,-453.537 711.735,-458.796 713.007,-451.912"/>
</g>
<!-- Node43 -->
<g id="node43" class="node"><title>Node43</title>
<g id="a_node43"><a xlink:href="agg-fn-evaluator_8h.html" target="_top" xlink:title="exprs/agg&#45;fn&#45;evaluator.h">
<polygon fill="white" stroke="red" points="2851.56,-310.5 2851.56,-329.5 2973.56,-329.5 2973.56,-310.5 2851.56,-310.5"/>
<text text-anchor="middle" x="2912.56" y="-317.5" font-family="Helvetica,sans-Serif" font-size="10.00">exprs/agg&#45;fn&#45;evaluator.h</text>
</a>
</g>
</g>
<!-- Node1&#45;&gt;Node43 -->
<g id="edge93" class="edge"><title>Node1&#45;&gt;Node43</title>
<path fill="none" stroke="midnightblue" d="M1431.86,-511.23C1679.52,-511.885 2637.45,-511.072 2761.56,-460 2824.57,-434.072 2877.7,-369.325 2900.55,-338.217"/>
<polygon fill="midnightblue" stroke="midnightblue" points="2903.66,-339.887 2906.65,-329.723 2897.97,-335.805 2903.66,-339.887"/>
</g>
<!-- Node44 -->
<g id="node44" class="node"><title>Node44</title>
<g id="a_node44"><a xlink:href="udf-internal_8h.html" target="_top" xlink:title="udf/udf&#45;internal.h">
<polygon fill="white" stroke="red" points="2895.06,-242.5 2895.06,-261.5 2984.06,-261.5 2984.06,-242.5 2895.06,-242.5"/>
<text text-anchor="middle" x="2939.56" y="-249.5" font-family="Helvetica,sans-Serif" font-size="10.00">udf/udf&#45;internal.h</text>
</a>
</g>
</g>
<!-- Node1&#45;&gt;Node44 -->
<g id="edge128" class="edge"><title>Node1&#45;&gt;Node44</title>
<path fill="none" stroke="midnightblue" d="M1431.62,-510.825C1682.79,-509.81 2669.16,-503.092 2800.56,-460 2893.57,-429.499 2936.81,-422.529 2982.56,-336 2994.99,-312.486 2973.88,-285.059 2957.08,-268.369"/>
<polygon fill="midnightblue" stroke="midnightblue" points="2959.48,-265.819 2949.8,-261.508 2954.68,-270.914 2959.48,-265.819"/>
</g>
<!-- Node45 -->
<g id="node45" class="node"><title>Node45</title>
<polygon fill="white" stroke="#bfbfbf" points="3079.06,-242.5 3079.06,-261.5 3196.06,-261.5 3196.06,-242.5 3079.06,-242.5"/>
<text text-anchor="middle" x="3137.56" y="-249.5" font-family="Helvetica,sans-Serif" font-size="10.00">gen&#45;cpp/Exprs_types.h</text>
</g>
<!-- Node1&#45;&gt;Node45 -->
<g id="edge135" class="edge"><title>Node1&#45;&gt;Node45</title>
<path fill="none" stroke="midnightblue" d="M1431.69,-511.005C1720.02,-510.805 2985.67,-507.233 3053.56,-460 3117.29,-415.663 3132.72,-314.095 3136.41,-271.909"/>
<polygon fill="midnightblue" stroke="midnightblue" points="3139.92,-271.915 3137.17,-261.683 3132.94,-271.395 3139.92,-271.915"/>
</g>
<!-- Node46 -->
<g id="node46" class="node"><title>Node46</title>
<g id="a_node46"><a xlink:href="expr-context_8h.html" target="_top" xlink:title="exprs/expr&#45;context.h">
<polygon fill="white" stroke="red" points="29.5611,-112.5 29.5611,-131.5 135.561,-131.5 135.561,-112.5 29.5611,-112.5"/>
<text text-anchor="middle" x="82.5611" y="-119.5" font-family="Helvetica,sans-Serif" font-size="10.00">exprs/expr&#45;context.h</text>
</a>
</g>
</g>
<!-- Node1&#45;&gt;Node46 -->
<g id="edge107" class="edge"><title>Node1&#45;&gt;Node46</title>
<path fill="none" stroke="midnightblue" d="M1315.36,-511.452C1116.16,-512.515 462.927,-511.863 260.561,-460 185.276,-440.706 103.561,-460.718 103.561,-383 103.561,-383 103.561,-383 103.561,-251 103.561,-211.553 93.7285,-166.158 87.5195,-141.425"/>
<polygon fill="midnightblue" stroke="midnightblue" points="90.8719,-140.41 84.97,-131.611 84.0968,-142.17 90.8719,-140.41"/>
</g>
<!-- Node47 -->
<g id="node47" class="node"><title>Node47</title>
<g id="a_node47"><a xlink:href="slot-ref_8h.html" target="_top" xlink:title="exprs/slot&#45;ref.h">
<polygon fill="white" stroke="black" points="1377.56,-372.5 1377.56,-391.5 1459.56,-391.5 1459.56,-372.5 1377.56,-372.5"/>
<text text-anchor="middle" x="1418.56" y="-379.5" font-family="Helvetica,sans-Serif" font-size="10.00">exprs/slot&#45;ref.h</text>
</a>
</g>
</g>
<!-- Node1&#45;&gt;Node47 -->
<g id="edge110" class="edge"><title>Node1&#45;&gt;Node47</title>
<path fill="none" stroke="midnightblue" d="M1394.59,-496.903C1406.09,-487.872 1419.25,-475.04 1425.56,-460 1433.41,-441.296 1429.56,-417.841 1425.08,-401.763"/>
<polygon fill="midnightblue" stroke="midnightblue" points="1428.34,-400.46 1422.01,-391.96 1421.66,-402.548 1428.34,-400.46"/>
</g>
<!-- Node48 -->
<g id="node48" class="node"><title>Node48</title>
<g id="a_node48"><a xlink:href="runtime-state_8h.html" target="_top" xlink:title="runtime/runtime&#45;state.h">
<polygon fill="white" stroke="red" points="268.061,-174.5 268.061,-193.5 385.061,-193.5 385.061,-174.5 268.061,-174.5"/>
<text text-anchor="middle" x="326.561" y="-181.5" font-family="Helvetica,sans-Serif" font-size="10.00">runtime/runtime&#45;state.h</text>
</a>
</g>
</g>
<!-- Node1&#45;&gt;Node48 -->
<g id="edge117" class="edge"><title>Node1&#45;&gt;Node48</title>
<path fill="none" stroke="midnightblue" d="M1315.44,-510.828C1078.96,-509.374 201.561,-496.343 201.561,-383 201.561,-383 201.561,-383 201.561,-319 201.561,-262.051 262.677,-219.227 299.44,-198.619"/>
<polygon fill="midnightblue" stroke="midnightblue" points="301.524,-201.471 308.652,-193.632 298.191,-195.315 301.524,-201.471"/>
</g>
<!-- Node49 -->
<g id="node49" class="node"><title>Node49</title>
<g id="a_node49"><a xlink:href="debug-util_8h.html" target="_top" xlink:title="util/debug&#45;util.h">
<polygon fill="white" stroke="red" points="3183.06,-310.5 3183.06,-329.5 3266.06,-329.5 3266.06,-310.5 3183.06,-310.5"/>
<text text-anchor="middle" x="3224.56" y="-317.5" font-family="Helvetica,sans-Serif" font-size="10.00">util/debug&#45;util.h</text>
</a>
</g>
</g>
<!-- Node1&#45;&gt;Node49 -->
<g id="edge129" class="edge"><title>Node1&#45;&gt;Node49</title>
<path fill="none" stroke="midnightblue" d="M1431.73,-510.51C1723.22,-507.897 3014.2,-494.414 3091.56,-460 3121.53,-446.666 3183.82,-371.946 3211.18,-337.903"/>
<polygon fill="midnightblue" stroke="midnightblue" points="3214.13,-339.822 3217.63,-329.824 3208.66,-335.455 3214.13,-339.822"/>
</g>
<!-- Node50 -->
<g id="node50" class="node"><title>Node50</title>
<g id="a_node50"><a xlink:href="names_8h.html" target="_top" xlink:title="common/names.h">
<polygon fill="white" stroke="red" points="3144.06,-434.5 3144.06,-453.5 3239.06,-453.5 3239.06,-434.5 3144.06,-434.5"/>
<text text-anchor="middle" x="3191.56" y="-441.5" font-family="Helvetica,sans-Serif" font-size="10.00">common/names.h</text>
</a>
</g>
</g>
<!-- Node1&#45;&gt;Node50 -->
<g id="edge137" class="edge"><title>Node1&#45;&gt;Node50</title>
<path fill="none" stroke="midnightblue" d="M1431.81,-510.938C1696.83,-510.405 2790.43,-505.443 3129.56,-460 3136.88,-459.019 3144.59,-457.531 3152,-455.867"/>
<polygon fill="midnightblue" stroke="midnightblue" points="3152.93,-459.245 3161.84,-453.52 3151.3,-452.436 3152.93,-459.245"/>
</g>
<!-- Node3 -->
<g id="node3" class="node"><title>Node3</title>
<polygon fill="white" stroke="#bfbfbf" points="784.061,-372.5 784.061,-391.5 843.061,-391.5 843.061,-372.5 784.061,-372.5"/>
<text text-anchor="middle" x="813.561" y="-379.5" font-family="Helvetica,sans-Serif" font-size="10.00">functional</text>
</g>
<!-- Node2&#45;&gt;Node3 -->
<g id="edge2" class="edge"><title>Node2&#45;&gt;Node3</title>
<path fill="none" stroke="midnightblue" d="M863.157,-428.781C853.322,-419.703 840.568,-407.929 830.456,-398.595"/>
<polygon fill="midnightblue" stroke="midnightblue" points="832.741,-395.942 823.019,-391.731 827.993,-401.085 832.741,-395.942"/>
</g>
<!-- Node4 -->
<g id="node4" class="node"><title>Node4</title>
<polygon fill="white" stroke="#bfbfbf" points="455.561,-0.5 455.561,-19.5 565.561,-19.5 565.561,-0.5 455.561,-0.5"/>
<text text-anchor="middle" x="510.561" y="-7.5" font-family="Helvetica,sans-Serif" font-size="10.00">boost/scoped_ptr.hpp</text>
</g>
<!-- Node2&#45;&gt;Node4 -->
<g id="edge3" class="edge"><title>Node2&#45;&gt;Node4</title>
<path fill="none" stroke="midnightblue" d="M808.618,-433.931C680.63,-416.587 414.199,-376.799 330.561,-336 240.627,-292.129 163.561,-285.064 163.561,-185 163.561,-185 163.561,-185 163.561,-121 163.561,-86.1146 178.034,-74.5774 207.561,-56 246.063,-31.7763 368.411,-19.8326 445.353,-14.5739"/>
<polygon fill="midnightblue" stroke="midnightblue" points="445.684,-18.0597 455.431,-13.9055 445.221,-11.075 445.684,-18.0597"/>
</g>
<!-- Node5 -->
<g id="node5" class="node"><title>Node5</title>
<g id="a_node5"><a xlink:href="exec-node_8h.html" target="_top" xlink:title="exec/exec&#45;node.h">
<polygon fill="white" stroke="red" points="847.561,-174.5 847.561,-193.5 941.561,-193.5 941.561,-174.5 847.561,-174.5"/>
<text text-anchor="middle" x="894.561" y="-181.5" font-family="Helvetica,sans-Serif" font-size="10.00">exec/exec&#45;node.h</text>
</a>
</g>
</g>
<!-- Node2&#45;&gt;Node5 -->
<g id="edge4" class="edge"><title>Node2&#45;&gt;Node5</title>
<path fill="none" stroke="midnightblue" d="M905.235,-428.939C935.294,-411.515 982.91,-378.813 1005.56,-336 1019.77,-309.145 1011,-298.342 1012.56,-268 1013.29,-253.796 1020.37,-247.885 1012.56,-236 998.833,-215.111 974.531,-202.739 951.535,-195.429"/>
<polygon fill="midnightblue" stroke="midnightblue" points="952.374,-192.028 941.794,-192.596 950.419,-198.749 952.374,-192.028"/>
</g>
<!-- Node2&#45;&gt;Node10 -->
<g id="edge47" class="edge"><title>Node2&#45;&gt;Node10</title>
<path fill="none" stroke="midnightblue" d="M918.608,-428.902C939.397,-420.321 964.385,-407.926 983.561,-392 1065.21,-324.189 1092.34,-300.801 1125.56,-200 1130.01,-186.493 1132.74,-180.277 1125.56,-168 1116.7,-152.85 1100.66,-142.406 1085.25,-135.424"/>
<polygon fill="midnightblue" stroke="midnightblue" points="1086.39,-132.106 1075.81,-131.512 1083.71,-138.573 1086.39,-132.106"/>
</g>
<!-- Node15 -->
<g id="node15" class="node"><title>Node15</title>
<g id="a_node15"><a xlink:href="hash-table_8h.html" target="_top" xlink:title="exec/hash&#45;table.h">
<polygon fill="white" stroke="red" points="595.561,-372.5 595.561,-391.5 689.561,-391.5 689.561,-372.5 595.561,-372.5"/>
<text text-anchor="middle" x="642.561" y="-379.5" font-family="Helvetica,sans-Serif" font-size="10.00">exec/hash&#45;table.h</text>
</a>
</g>
</g>
<!-- Node2&#45;&gt;Node15 -->
<g id="edge20" class="edge"><title>Node2&#45;&gt;Node15</title>
<path fill="none" stroke="midnightblue" d="M823.23,-428.933C781.333,-418.281 724.589,-403.855 685.947,-394.03"/>
<polygon fill="midnightblue" stroke="midnightblue" points="686.598,-390.585 676.044,-391.513 684.874,-397.369 686.598,-390.585"/>
</g>
<!-- Node16 -->
<g id="node16" class="node"><title>Node16</title>
<g id="a_node16"><a xlink:href="buffered-block-mgr_8h.html" target="_top" xlink:title="runtime/buffered&#45;block\l&#45;mgr.h">
<polygon fill="white" stroke="red" points="602.061,-169 602.061,-199 715.061,-199 715.061,-169 602.061,-169"/>
<text text-anchor="start" x="610.061" y="-187" font-family="Helvetica,sans-Serif" font-size="10.00">runtime/buffered&#45;block</text>
<text text-anchor="middle" x="658.561" y="-176" font-family="Helvetica,sans-Serif" font-size="10.00">&#45;mgr.h</text>
</a>
</g>
</g>
<!-- Node2&#45;&gt;Node16 -->
<g id="edge45" class="edge"><title>Node2&#45;&gt;Node16</title>
<path fill="none" stroke="midnightblue" d="M839.119,-428.974C818.472,-420.38 793.598,-407.95 774.561,-392 714.32,-341.53 679.445,-251.329 665.583,-208.639"/>
<polygon fill="midnightblue" stroke="midnightblue" points="668.921,-207.585 662.581,-199.097 662.244,-209.687 668.921,-207.585"/>
</g>
<!-- Node17 -->
<g id="node17" class="node"><title>Node17</title>
<g id="a_node17"><a xlink:href="buffered-tuple-stream_8h.html" target="_top" xlink:title="runtime/buffered&#45;tuple\l&#45;stream.h">
<polygon fill="white" stroke="black" points="736.061,-237 736.061,-267 847.061,-267 847.061,-237 736.061,-237"/>
<text text-anchor="start" x="744.061" y="-255" font-family="Helvetica,sans-Serif" font-size="10.00">runtime/buffered&#45;tuple</text>
<text text-anchor="middle" x="791.561" y="-244" font-family="Helvetica,sans-Serif" font-size="10.00">&#45;stream.h</text>
</a>
</g>
</g>
<!-- Node2&#45;&gt;Node17 -->
<g id="edge46" class="edge"><title>Node2&#45;&gt;Node17</title>
<path fill="none" stroke="midnightblue" d="M884.807,-428.96C890.57,-413.678 896.698,-389.136 885.561,-372 864.094,-338.967 828.527,-367.267 804.561,-336 791.789,-319.337 789.27,-295.172 789.512,-277.209"/>
<polygon fill="midnightblue" stroke="midnightblue" points="793.009,-277.34 789.934,-267.201 786.015,-277.045 793.009,-277.34"/>
</g>
<!-- Node2&#45;&gt;Node20 -->
<g id="edge48" class="edge"><title>Node2&#45;&gt;Node20</title>
<path fill="none" stroke="midnightblue" d="M876.113,-428.732C872.832,-413.251 865.704,-388.537 851.561,-372 830.601,-347.492 813.731,-356.161 788.561,-336 756.64,-310.432 741.907,-305.91 726.561,-268 709.877,-226.784 734.232,-211.165 723.561,-168 721.187,-158.397 716.579,-148.444 712.191,-140.347"/>
<polygon fill="midnightblue" stroke="midnightblue" points="715.141,-138.455 707.113,-131.54 709.076,-141.951 715.141,-138.455"/>
</g>
<!-- Node23 -->
<g id="node23" class="node"><title>Node23</title>
<g id="a_node23"><a xlink:href="string-value_8h.html" target="_top" xlink:title="runtime/string&#45;value.h">
<polygon fill="white" stroke="red" points="2127.56,-112.5 2127.56,-131.5 2237.56,-131.5 2237.56,-112.5 2127.56,-112.5"/>
<text text-anchor="middle" x="2182.56" y="-119.5" font-family="Helvetica,sans-Serif" font-size="10.00">runtime/string&#45;value.h</text>
</a>
</g>
</g>
<!-- Node2&#45;&gt;Node23 -->
<g id="edge49" class="edge"><title>Node2&#45;&gt;Node23</title>
<path fill="none" stroke="midnightblue" d="M942.584,-428.988C1024.37,-410.503 1169.9,-375.637 1291.56,-336 1349.04,-317.273 1486.39,-252.466 1544.56,-236 1749.7,-177.931 2000.79,-143.908 2117.35,-130.154"/>
<polygon fill="midnightblue" stroke="midnightblue" points="2118,-133.601 2127.53,-128.964 2117.19,-126.649 2118,-133.601"/>
</g>
<!-- Node6 -->
<g id="node6" class="node"><title>Node6</title>
<polygon fill="white" stroke="#bfbfbf" points="929.561,-0.5 929.561,-19.5 973.561,-19.5 973.561,-0.5 929.561,-0.5"/>
<text text-anchor="middle" x="951.561" y="-7.5" font-family="Helvetica,sans-Serif" font-size="10.00">vector</text>
</g>
<!-- Node5&#45;&gt;Node6 -->
<g id="edge5" class="edge"><title>Node5&#45;&gt;Node6</title>
<path fill="none" stroke="midnightblue" d="M897.466,-174.234C906.348,-147.433 933.275,-66.1778 945.458,-29.4153"/>
<polygon fill="midnightblue" stroke="midnightblue" points="948.906,-30.1376 948.73,-19.5442 942.261,-27.9355 948.906,-30.1376"/>
</g>
<!-- Node5&#45;&gt;Node7 -->
<g id="edge6" class="edge"><title>Node5&#45;&gt;Node7</title>
<path fill="none" stroke="midnightblue" d="M848.538,-174.431C799.64,-165.177 719.842,-149.649 640.984,-132.004"/>
<polygon fill="midnightblue" stroke="midnightblue" points="641.398,-128.51 630.873,-129.729 639.861,-135.339 641.398,-128.51"/>
</g>
<!-- Node8 -->
<g id="node8" class="node"><title>Node8</title>
<g id="a_node8"><a xlink:href="status_8h.html" target="_top" xlink:title="common/status.h">
<polygon fill="white" stroke="red" points="1036.56,-56.5 1036.56,-75.5 1128.56,-75.5 1128.56,-56.5 1036.56,-56.5"/>
<text text-anchor="middle" x="1082.56" y="-63.5" font-family="Helvetica,sans-Serif" font-size="10.00">common/status.h</text>
</a>
</g>
</g>
<!-- Node5&#45;&gt;Node8 -->
<g id="edge7" class="edge"><title>Node5&#45;&gt;Node8</title>
<path fill="none" stroke="midnightblue" d="M903.723,-174.264C919.093,-159.932 951.45,-131.112 982.561,-112 1003.89,-98.8976 1029.69,-87.3834 1049.74,-79.2824"/>
<polygon fill="midnightblue" stroke="midnightblue" points="1051.07,-82.5218 1059.08,-75.5877 1048.49,-76.0129 1051.07,-82.5218"/>
</g>
<!-- Node5&#45;&gt;Node10 -->
<g id="edge10" class="edge"><title>Node5&#45;&gt;Node10</title>
<path fill="none" stroke="midnightblue" d="M916.196,-174.403C941.985,-164.156 985.272,-146.956 1014.6,-135.302"/>
<polygon fill="midnightblue" stroke="midnightblue" points="1015.97,-138.526 1023.97,-131.581 1013.38,-132.021 1015.97,-138.526"/>
</g>
<!-- Node5&#45;&gt;Node12 -->
<g id="edge16" class="edge"><title>Node5&#45;&gt;Node12</title>
<path fill="none" stroke="midnightblue" d="M880.516,-174.47C847.816,-154.61 766.346,-105.131 726.389,-80.8643"/>
<polygon fill="midnightblue" stroke="midnightblue" points="727.99,-77.7417 717.626,-75.5423 724.357,-83.7248 727.99,-77.7417"/>
</g>
<!-- Node5&#45;&gt;Node14 -->
<g id="edge19" class="edge"><title>Node5&#45;&gt;Node14</title>
<path fill="none" stroke="midnightblue" d="M941.816,-176.597C966.938,-173.455 998.374,-169.937 1026.56,-168 1382.54,-143.539 2505.32,-127.914 2816.12,-123.98"/>
<polygon fill="midnightblue" stroke="midnightblue" points="2816.44,-127.476 2826.4,-123.85 2816.35,-120.477 2816.44,-127.476"/>
</g>
<!-- Node8&#45;&gt;Node6 -->
<g id="edge9" class="edge"><title>Node8&#45;&gt;Node6</title>
<path fill="none" stroke="midnightblue" d="M1061.8,-56.4435C1040.24,-47.5566 1006.3,-33.5632 981.767,-23.4514"/>
<polygon fill="midnightblue" stroke="midnightblue" points="982.8,-20.0917 972.221,-19.5164 980.133,-26.5634 982.8,-20.0917"/>
</g>
<!-- Node9 -->
<g id="node9" class="node"><title>Node9</title>
<polygon fill="white" stroke="#bfbfbf" points="2245.06,-0.5 2245.06,-19.5 2286.06,-19.5 2286.06,-0.5 2245.06,-0.5"/>
<text text-anchor="middle" x="2265.56" y="-7.5" font-family="Helvetica,sans-Serif" font-size="10.00">string</text>
</g>
<!-- Node8&#45;&gt;Node9 -->
<g id="edge8" class="edge"><title>Node8&#45;&gt;Node9</title>
<path fill="none" stroke="midnightblue" d="M1128.57,-62.8997C1322.8,-54.0341 2073,-19.7896 2234.72,-12.4076"/>
<polygon fill="midnightblue" stroke="midnightblue" points="2235.1,-15.8943 2244.93,-11.9419 2234.78,-8.90162 2235.1,-15.8943"/>
</g>
<!-- Node10&#45;&gt;Node4 -->
<g id="edge12" class="edge"><title>Node10&#45;&gt;Node4</title>
<path fill="none" stroke="midnightblue" d="M1010.83,-112.443C957.57,-99.4552 852.458,-74.3389 762.561,-56 698.06,-42.8418 623.833,-29.8449 572.73,-21.228"/>
<polygon fill="midnightblue" stroke="midnightblue" points="573.269,-17.7696 562.828,-19.5642 572.11,-24.6728 573.269,-17.7696"/>
</g>
<!-- Node10&#45;&gt;Node6 -->
<g id="edge11" class="edge"><title>Node10&#45;&gt;Node6</title>
<path fill="none" stroke="midnightblue" d="M1038.19,-112.368C1022.54,-94.0547 985.785,-51.0489 965.543,-27.3624"/>
<polygon fill="midnightblue" stroke="midnightblue" points="968.06,-24.92 958.903,-19.5914 962.739,-29.4676 968.06,-24.92"/>
</g>
<!-- Node10&#45;&gt;Node8 -->
<g id="edge13" class="edge"><title>Node10&#45;&gt;Node8</title>
<path fill="none" stroke="midnightblue" d="M1051.67,-112.083C1056.84,-104.534 1064.41,-93.4948 1070.76,-84.2298"/>
<polygon fill="midnightblue" stroke="midnightblue" points="1073.8,-85.9787 1076.56,-75.7511 1068.03,-82.0221 1073.8,-85.9787"/>
</g>
<!-- Node11 -->
<g id="node11" class="node"><title>Node11</title>
<g id="a_node11"><a xlink:href="types_8h.html" target="_top" xlink:title="runtime/types.h">
<polygon fill="white" stroke="red" points="2223.56,-56.5 2223.56,-75.5 2307.56,-75.5 2307.56,-56.5 2223.56,-56.5"/>
<text text-anchor="middle" x="2265.56" y="-63.5" font-family="Helvetica,sans-Serif" font-size="10.00">runtime/types.h</text>
</a>
</g>
</g>
<!-- Node10&#45;&gt;Node11 -->
<g id="edge14" class="edge"><title>Node10&#45;&gt;Node11</title>
<path fill="none" stroke="midnightblue" d="M1099.95,-118.592C1302.79,-109.615 2013.63,-78.151 2213.14,-69.3204"/>
<polygon fill="midnightblue" stroke="midnightblue" points="2213.51,-72.8072 2223.35,-68.8684 2213.2,-65.8141 2213.51,-72.8072"/>
</g>
<!-- Node11&#45;&gt;Node9 -->
<g id="edge15" class="edge"><title>Node11&#45;&gt;Node9</title>
<path fill="none" stroke="midnightblue" d="M2265.56,-56.083C2265.56,-49.0059 2265.56,-38.8611 2265.56,-29.9865"/>
<polygon fill="midnightblue" stroke="midnightblue" points="2269.06,-29.751 2265.56,-19.7511 2262.06,-29.7511 2269.06,-29.751"/>
</g>
<!-- Node12&#45;&gt;Node4 -->
<g id="edge17" class="edge"><title>Node12&#45;&gt;Node4</title>
<path fill="none" stroke="midnightblue" d="M672.98,-56.4435C639.947,-47.2011 587.173,-32.4356 550.795,-22.2572"/>
<polygon fill="midnightblue" stroke="midnightblue" points="551.573,-18.8404 540.999,-19.5164 549.686,-25.5815 551.573,-18.8404"/>
</g>
<!-- Node13 -->
<g id="node13" class="node"><title>Node13</title>
<polygon fill="white" stroke="#bfbfbf" points="1488.06,-0.5 1488.06,-19.5 1607.06,-19.5 1607.06,-0.5 1488.06,-0.5"/>
<text text-anchor="middle" x="1547.56" y="-7.5" font-family="Helvetica,sans-Serif" font-size="10.00">boost/thread/mutex.hpp</text>
</g>
<!-- Node12&#45;&gt;Node13 -->
<g id="edge18" class="edge"><title>Node12&#45;&gt;Node13</title>
<path fill="none" stroke="midnightblue" d="M754.771,-61.7235C899.598,-52.4573 1312.32,-26.0511 1477.74,-15.4675"/>
<polygon fill="midnightblue" stroke="midnightblue" points="1478.04,-18.9553 1487.8,-14.8238 1477.59,-11.9696 1478.04,-18.9553"/>
</g>
<!-- Node15&#45;&gt;Node4 -->
<g id="edge22" class="edge"><title>Node15&#45;&gt;Node4</title>
<path fill="none" stroke="midnightblue" d="M595.387,-378.069C502.686,-369.375 299.371,-335.042 225.561,-200 194.866,-143.841 183.985,-104.656 225.561,-56 253.222,-23.6291 369.83,-14.4068 445.051,-11.8637"/>
<polygon fill="midnightblue" stroke="midnightblue" points="445.488,-15.3521 455.376,-11.5475 445.274,-8.35534 445.488,-15.3521"/>
</g>
<!-- Node15&#45;&gt;Node6 -->
<g id="edge21" class="edge"><title>Node15&#45;&gt;Node6</title>
<path fill="none" stroke="midnightblue" d="M615.57,-372.46C535.175,-346.426 300.302,-265.82 258.561,-200 250.944,-187.989 250.874,-179.966 258.561,-168 323.271,-67.2668 387.996,-87.2935 503.561,-56 654.942,-15.0081 844.212,-10.6288 919.001,-10.652"/>
<polygon fill="midnightblue" stroke="midnightblue" points="919.176,-14.1524 929.187,-10.6835 919.198,-7.15244 919.176,-14.1524"/>
</g>
<!-- Node15&#45;&gt;Node16 -->
<g id="edge23" class="edge"><title>Node15&#45;&gt;Node16</title>
<path fill="none" stroke="midnightblue" d="M643.269,-372.325C645.589,-343.913 653.013,-252.968 656.593,-209.107"/>
<polygon fill="midnightblue" stroke="midnightblue" points="660.09,-209.288 657.415,-199.037 653.113,-208.719 660.09,-209.288"/>
</g>
<!-- Node15&#45;&gt;Node17 -->
<g id="edge24" class="edge"><title>Node15&#45;&gt;Node17</title>
<path fill="none" stroke="midnightblue" d="M652.802,-372.202C676.199,-352.103 734.099,-302.363 767.241,-273.892"/>
<polygon fill="midnightblue" stroke="midnightblue" points="769.793,-276.314 775.098,-267.143 765.232,-271.005 769.793,-276.314"/>
</g>
<!-- Node15&#45;&gt;Node18 -->
<g id="edge27" class="edge"><title>Node15&#45;&gt;Node18</title>
<path fill="none" stroke="midnightblue" d="M675.085,-372.403C709.318,-363.355 764.06,-348.886 806.756,-337.6"/>
<polygon fill="midnightblue" stroke="midnightblue" points="807.725,-340.965 816.499,-335.025 805.936,-334.197 807.725,-340.965"/>
</g>
<!-- Node15&#45;&gt;Node19 -->
<g id="edge44" class="edge"><title>Node15&#45;&gt;Node19</title>
<path fill="none" stroke="midnightblue" d="M689.817,-376.575C767.625,-368.868 915.904,-352.248 933.561,-336 951.257,-319.716 954.556,-290.734 954.599,-271.69"/>
<polygon fill="midnightblue" stroke="midnightblue" points="958.094,-271.457 954.318,-261.558 951.096,-271.651 958.094,-271.457"/>
</g>
<!-- Node17&#45;&gt;Node8 -->
<g id="edge25" class="edge"><title>Node17&#45;&gt;Node8</title>
<path fill="none" stroke="midnightblue" d="M796.628,-236.704C803.627,-218.697 817.788,-187.728 838.561,-168 891.452,-117.77 972.842,-90.9643 1026.88,-77.8678"/>
<polygon fill="midnightblue" stroke="midnightblue" points="1027.7,-81.27 1036.64,-75.5793 1026.1,-74.4549 1027.7,-81.27"/>
</g>
<!-- Node17&#45;&gt;Node16 -->
<g id="edge26" class="edge"><title>Node17&#45;&gt;Node16</title>
<path fill="none" stroke="midnightblue" d="M763.029,-236.841C743.482,-227.141 717.352,-214.174 696.115,-203.636"/>
<polygon fill="midnightblue" stroke="midnightblue" points="697.559,-200.445 687.046,-199.135 694.448,-206.716 697.559,-200.445"/>
</g>
<!-- Node18&#45;&gt;Node10 -->
<g id="edge29" class="edge"><title>Node18&#45;&gt;Node10</title>
<path fill="none" stroke="midnightblue" d="M870.836,-304.732C873.05,-287.031 878.978,-256.669 894.561,-236 912.373,-212.374 926.867,-217.722 950.561,-200 967.971,-186.978 970.744,-181.78 987.561,-168 1000.13,-157.701 1014.57,-146.499 1025.89,-137.847"/>
<polygon fill="midnightblue" stroke="midnightblue" points="1028.02,-140.625 1033.86,-131.786 1023.78,-135.052 1028.02,-140.625"/>
</g>
<!-- Node18&#45;&gt;Node17 -->
<g id="edge28" class="edge"><title>Node18&#45;&gt;Node17</title>
<path fill="none" stroke="midnightblue" d="M852.636,-304.679C841.933,-295.623 827.923,-283.768 816.021,-273.697"/>
<polygon fill="midnightblue" stroke="midnightblue" points="818.08,-270.854 808.185,-267.066 813.558,-276.198 818.08,-270.854"/>
</g>
<!-- Node18&#45;&gt;Node19 -->
<g id="edge30" class="edge"><title>Node18&#45;&gt;Node19</title>
<path fill="none" stroke="midnightblue" d="M887.788,-304.679C901.534,-293.879 920.345,-279.098 934.33,-268.11"/>
<polygon fill="midnightblue" stroke="midnightblue" points="936.624,-270.759 942.325,-261.828 932.299,-265.254 936.624,-270.759"/>
</g>
<!-- Node19&#45;&gt;Node10 -->
<g id="edge31" class="edge"><title>Node19&#45;&gt;Node10</title>
<path fill="none" stroke="midnightblue" d="M959.885,-242.202C975.058,-221.092 1013.73,-167.282 1033.51,-139.762"/>
<polygon fill="midnightblue" stroke="midnightblue" points="1036.44,-141.685 1039.44,-131.522 1030.76,-137.6 1036.44,-141.685"/>
</g>
<!-- Node19&#45;&gt;Node20 -->
<g id="edge32" class="edge"><title>Node19&#45;&gt;Node20</title>
<path fill="none" stroke="midnightblue" d="M932.51,-242.371C909.237,-232.669 870.776,-216.151 838.561,-200 797.543,-179.436 751.295,-152.661 724.389,-136.709"/>
<polygon fill="midnightblue" stroke="midnightblue" points="726.102,-133.656 715.719,-131.546 722.52,-139.67 726.102,-133.656"/>
</g>
<!-- Node19&#45;&gt;Node21 -->
<g id="edge36" class="edge"><title>Node19&#45;&gt;Node21</title>
<path fill="none" stroke="midnightblue" d="M903.477,-243.178C888.111,-240.82 871.147,-238.259 855.561,-236 738.803,-219.074 709.332,-216.837 592.561,-200 580.53,-198.265 567.686,-196.359 555.37,-194.505"/>
<polygon fill="midnightblue" stroke="midnightblue" points="555.59,-190.998 545.179,-192.964 554.543,-197.92 555.59,-190.998"/>
</g>
<!-- Node19&#45;&gt;Node22 -->
<g id="edge41" class="edge"><title>Node19&#45;&gt;Node22</title>
<path fill="none" stroke="midnightblue" d="M969.641,-242.372C990.452,-231.205 1026.94,-211.627 1051.43,-198.488"/>
<polygon fill="midnightblue" stroke="midnightblue" points="1053.32,-201.443 1060.48,-193.63 1050.01,-195.275 1053.32,-201.443"/>
</g>
<!-- Node20&#45;&gt;Node6 -->
<g id="edge33" class="edge"><title>Node20&#45;&gt;Node6</title>
<path fill="none" stroke="midnightblue" d="M684.171,-112.454C661.267,-100.099 625.856,-76.4799 643.561,-56 678.942,-15.0738 847.384,-10.6389 919.106,-10.6493"/>
<polygon fill="midnightblue" stroke="midnightblue" points="919.345,-14.1499 929.356,-10.6817 919.367,-7.14996 919.345,-14.1499"/>
</g>
<!-- Node20&#45;&gt;Node9 -->
<g id="edge34" class="edge"><title>Node20&#45;&gt;Node9</title>
<path fill="none" stroke="midnightblue" d="M735.067,-112.465C793.833,-97.9138 919.514,-68.6524 1027.56,-56 1271.86,-27.3929 2067.89,-13.982 2234.72,-11.4493"/>
<polygon fill="midnightblue" stroke="midnightblue" points="2234.84,-14.948 2244.79,-11.2982 2234.74,-7.94879 2234.84,-14.948"/>
</g>
<!-- Node20&#45;&gt;Node12 -->
<g id="edge35" class="edge"><title>Node20&#45;&gt;Node12</title>
<path fill="none" stroke="midnightblue" d="M701.891,-112.083C702.153,-105.006 702.529,-94.8611 702.858,-85.9865"/>
<polygon fill="midnightblue" stroke="midnightblue" points="706.364,-85.8738 703.237,-75.7511 699.369,-85.6147 706.364,-85.8738"/>
</g>
<!-- Node21&#45;&gt;Node4 -->
<g id="edge38" class="edge"><title>Node21&#45;&gt;Node4</title>
<path fill="none" stroke="midnightblue" d="M494.427,-174.234C497.065,-147.548 505.038,-66.8773 508.694,-29.8931"/>
<polygon fill="midnightblue" stroke="midnightblue" points="512.216,-29.84 509.717,-19.5442 505.25,-29.1514 512.216,-29.84"/>
</g>
<!-- Node21&#45;&gt;Node6 -->
<g id="edge37" class="edge"><title>Node21&#45;&gt;Node6</title>
<path fill="none" stroke="midnightblue" d="M500.048,-174.255C518.29,-150.419 572.817,-84.2107 635.561,-56 685.918,-33.3589 849.346,-18.6996 919.304,-13.3145"/>
<polygon fill="midnightblue" stroke="midnightblue" points="919.603,-16.802 929.311,-12.5587 919.076,-9.82187 919.603,-16.802"/>
</g>
<!-- Node21&#45;&gt;Node10 -->
<g id="edge39" class="edge"><title>Node21&#45;&gt;Node10</title>
<path fill="none" stroke="midnightblue" d="M545.13,-174.674C560.38,-172.35 577.123,-169.935 592.561,-168 730.791,-150.674 893.435,-135.873 981.336,-128.334"/>
<polygon fill="midnightblue" stroke="midnightblue" points="981.753,-131.811 991.419,-127.473 981.157,-124.837 981.753,-131.811"/>
</g>
<!-- Node21&#45;&gt;Node20 -->
<g id="edge40" class="edge"><title>Node21&#45;&gt;Node20</title>
<path fill="none" stroke="midnightblue" d="M523.362,-174.403C559.814,-163.889 621.641,-146.054 662.035,-134.402"/>
<polygon fill="midnightblue" stroke="midnightblue" points="663.177,-137.715 671.815,-131.581 661.237,-130.989 663.177,-137.715"/>
</g>
<!-- Node22&#45;&gt;Node10 -->
<g id="edge42" class="edge"><title>Node22&#45;&gt;Node10</title>
<path fill="none" stroke="midnightblue" d="M1072.12,-174.403C1067.61,-165.671 1060.49,-151.889 1054.75,-140.794"/>
<polygon fill="midnightblue" stroke="midnightblue" points="1057.69,-138.858 1049.99,-131.581 1051.48,-142.071 1057.69,-138.858"/>
</g>
<!-- Node22&#45;&gt;Node20 -->
<g id="edge43" class="edge"><title>Node22&#45;&gt;Node20</title>
<path fill="none" stroke="midnightblue" d="M1035.72,-176.465C969.951,-165.942 840.191,-145.181 763.151,-132.854"/>
<polygon fill="midnightblue" stroke="midnightblue" points="763.531,-129.371 753.104,-131.247 762.425,-136.283 763.531,-129.371"/>
</g>
<!-- Node23&#45;&gt;Node9 -->
<g id="edge50" class="edge"><title>Node23&#45;&gt;Node9</title>
<path fill="none" stroke="midnightblue" d="M2185.55,-112.405C2190.35,-99.3677 2200.66,-74.1874 2214.56,-56 2223.3,-44.5665 2235.28,-33.8203 2245.43,-25.6984"/>
<polygon fill="midnightblue" stroke="midnightblue" points="2247.64,-28.4157 2253.42,-19.5357 2243.36,-22.8738 2247.64,-28.4157"/>
</g>
<!-- Node23&#45;&gt;Node11 -->
<g id="edge51" class="edge"><title>Node23&#45;&gt;Node11</title>
<path fill="none" stroke="midnightblue" d="M2195.9,-112.324C2208.72,-103.979 2228.35,-91.2122 2243.5,-81.3524"/>
<polygon fill="midnightblue" stroke="midnightblue" points="2245.79,-84.0417 2252.26,-75.6545 2241.97,-78.1742 2245.79,-84.0417"/>
</g>
<!-- Node27&#45;&gt;Node28 -->
<g id="edge57" class="edge"><title>Node27&#45;&gt;Node28</title>
<path fill="none" stroke="midnightblue" d="M1725.33,-434.403C1746.05,-424.379 1780.51,-407.701 1804.55,-396.07"/>
<polygon fill="midnightblue" stroke="midnightblue" points="1806.35,-399.087 1813.83,-391.581 1803.3,-392.786 1806.35,-399.087"/>
</g>
<!-- Node28&#45;&gt;Node4 -->
<g id="edge62" class="edge"><title>Node28&#45;&gt;Node4</title>
<path fill="none" stroke="midnightblue" d="M1770.42,-377.54C1682.14,-371.84 1523.82,-358.775 1471.56,-336 1293.99,-258.606 1317.11,-128.687 1137.56,-56 1037.14,-15.3485 715.385,-10.6846 575.984,-10.6393"/>
<polygon fill="midnightblue" stroke="midnightblue" points="575.866,-7.13923 565.868,-10.6441 575.87,-14.1392 575.866,-7.13923"/>
</g>
<!-- Node28&#45;&gt;Node6 -->
<g id="edge61" class="edge"><title>Node28&#45;&gt;Node6</title>
<path fill="none" stroke="midnightblue" d="M1770.22,-377.432C1675.17,-371.27 1501.22,-357.218 1482.56,-336 1454.42,-304.002 1518.12,-283.747 1539.56,-200 1555.44,-138 1583.05,-102.95 1539.56,-56 1501.61,-15.0317 1101.22,-11.2093 983.771,-10.9739"/>
<polygon fill="midnightblue" stroke="midnightblue" points="983.622,-7.47378 973.618,-10.9613 983.614,-14.4738 983.622,-7.47378"/>
</g>
<!-- Node28&#45;&gt;Node8 -->
<g id="edge58" class="edge"><title>Node28&#45;&gt;Node8</title>
<path fill="none" stroke="midnightblue" d="M1826.18,-372.032C1816.65,-356.682 1795.52,-324.998 1771.56,-304 1726.61,-264.616 1709.68,-261.351 1655.56,-236 1508.39,-167.058 1468.19,-155.349 1311.56,-112 1253.35,-95.8904 1185.29,-83.2843 1138.58,-75.5635"/>
<polygon fill="midnightblue" stroke="midnightblue" points="1139.09,-72.1004 1128.66,-73.9434 1137.97,-79.0089 1139.09,-72.1004"/>
</g>
<!-- Node28&#45;&gt;Node9 -->
<g id="edge60" class="edge"><title>Node28&#45;&gt;Node9</title>
<path fill="none" stroke="midnightblue" d="M1892.77,-380.149C2087.49,-377.145 2681.46,-365.583 2709.56,-336 2761.65,-281.174 2733.26,-224.114 2682.56,-168 2576.32,-50.4096 2373.07,-20.4798 2296.11,-13.2147"/>
<polygon fill="midnightblue" stroke="midnightblue" points="2296.38,-9.72514 2286.11,-12.3333 2295.77,-16.6981 2296.38,-9.72514"/>
</g>
<!-- Node28&#45;&gt;Node11 -->
<g id="edge88" class="edge"><title>Node28&#45;&gt;Node11</title>
<path fill="none" stroke="midnightblue" d="M1892.79,-380.076C2084.67,-376.883 2663.14,-364.892 2690.56,-336 2707.94,-317.688 2708.3,-220.143 2656.56,-168 2609.15,-120.221 2412.91,-87.2973 2317.76,-73.8221"/>
<polygon fill="midnightblue" stroke="midnightblue" points="2318.16,-70.3443 2307.77,-72.4268 2317.19,-77.277 2318.16,-70.3443"/>
</g>
<!-- Node28&#45;&gt;Node12 -->
<g id="edge89" class="edge"><title>Node28&#45;&gt;Node12</title>
<path fill="none" stroke="midnightblue" d="M1770.28,-380.438C1661.9,-378.553 1441.41,-370.461 1373.56,-336 1284.31,-290.672 1303.4,-228.382 1223.56,-168 1178.22,-133.707 1163.17,-127.815 1108.56,-112 990.364,-77.7676 845.814,-69.2793 765.289,-67.3549"/>
<polygon fill="midnightblue" stroke="midnightblue" points="764.91,-63.8462 754.839,-67.1336 764.762,-70.8446 764.91,-63.8462"/>
</g>
<!-- Node28&#45;&gt;Node13 -->
<g id="edge63" class="edge"><title>Node28&#45;&gt;Node13</title>
<path fill="none" stroke="midnightblue" d="M1892.76,-377.427C1957.3,-372.388 2053.24,-360.865 2079.56,-336 2107.15,-309.944 2099.56,-290.945 2099.56,-253 2099.56,-253 2099.56,-253 2099.56,-121 2099.56,-23.7834 1766.09,-11.2369 1617.53,-10.4712"/>
<polygon fill="midnightblue" stroke="midnightblue" points="1617.17,-6.97009 1607.16,-10.4355 1617.15,-13.97 1617.17,-6.97009"/>
</g>
<!-- Node29 -->
<g id="node29" class="node"><title>Node29</title>
<polygon fill="white" stroke="#bfbfbf" points="2613.06,-174.5 2613.06,-193.5 2648.06,-193.5 2648.06,-174.5 2613.06,-174.5"/>
<text text-anchor="middle" x="2630.56" y="-181.5" font-family="Helvetica,sans-Serif" font-size="10.00">map</text>
</g>
<!-- Node28&#45;&gt;Node29 -->
<g id="edge59" class="edge"><title>Node28&#45;&gt;Node29</title>
<path fill="none" stroke="midnightblue" d="M1892.72,-379.614C1951.45,-376.378 2041.61,-366.336 2113.56,-336 2135.51,-326.745 2135.04,-314.209 2156.56,-304 2198.04,-284.329 2508.12,-212.876 2603.03,-191.247"/>
<polygon fill="midnightblue" stroke="midnightblue" points="2604.05,-194.605 2613.02,-188.974 2602.49,-187.78 2604.05,-194.605"/>
</g>
<!-- Node30 -->
<g id="node30" class="node"><title>Node30</title>
<polygon fill="white" stroke="#bfbfbf" points="2165.56,-310.5 2165.56,-329.5 2289.56,-329.5 2289.56,-310.5 2165.56,-310.5"/>
<text text-anchor="middle" x="2227.56" y="-317.5" font-family="Helvetica,sans-Serif" font-size="10.00">boost/unordered_set.hpp</text>
</g>
<!-- Node28&#45;&gt;Node30 -->
<g id="edge64" class="edge"><title>Node28&#45;&gt;Node30</title>
<path fill="none" stroke="midnightblue" d="M1892.76,-373.413C1957.28,-365.177 2061.81,-351.156 2151.56,-336 2159.67,-334.631 2168.24,-333.06 2176.59,-331.462"/>
<polygon fill="midnightblue" stroke="midnightblue" points="2177.47,-334.856 2186.62,-329.511 2176.13,-327.985 2177.47,-334.856"/>
</g>
<!-- Node31 -->
<g id="node31" class="node"><title>Node31</title>
<polygon fill="white" stroke="#bfbfbf" points="2308.06,-310.5 2308.06,-329.5 2425.06,-329.5 2425.06,-310.5 2308.06,-310.5"/>
<text text-anchor="middle" x="2366.56" y="-317.5" font-family="Helvetica,sans-Serif" font-size="10.00">llvm/Analysis/Verifier.h</text>
</g>
<!-- Node28&#45;&gt;Node31 -->
<g id="edge65" class="edge"><title>Node28&#45;&gt;Node31</title>
<path fill="none" stroke="midnightblue" d="M1892.91,-377.387C1982.31,-371.599 2153.42,-358.547 2297.56,-336 2305.31,-334.788 2313.5,-333.245 2321.42,-331.611"/>
<polygon fill="midnightblue" stroke="midnightblue" points="2322.2,-335.022 2331.25,-329.513 2320.74,-328.176 2322.2,-335.022"/>
</g>
<!-- Node32 -->
<g id="node32" class="node"><title>Node32</title>
<polygon fill="white" stroke="#bfbfbf" points="2443.56,-310.5 2443.56,-329.5 2563.56,-329.5 2563.56,-310.5 2443.56,-310.5"/>
<text text-anchor="middle" x="2503.56" y="-317.5" font-family="Helvetica,sans-Serif" font-size="10.00">llvm/IR/DerivedTypes.h</text>
</g>
<!-- Node28&#45;&gt;Node32 -->
<g id="edge66" class="edge"><title>Node28&#45;&gt;Node32</title>
<path fill="none" stroke="midnightblue" d="M1892.96,-379.177C2002.19,-375.318 2237.24,-364.238 2433.56,-336 2441.61,-334.843 2450.11,-333.298 2458.31,-331.638"/>
<polygon fill="midnightblue" stroke="midnightblue" points="2459.05,-335.06 2468.12,-329.576 2457.61,-328.209 2459.05,-335.06"/>
</g>
<!-- Node33 -->
<g id="node33" class="node"><title>Node33</title>
<polygon fill="white" stroke="#bfbfbf" points="2581.56,-310.5 2581.56,-329.5 2681.56,-329.5 2681.56,-310.5 2581.56,-310.5"/>
<text text-anchor="middle" x="2631.56" y="-317.5" font-family="Helvetica,sans-Serif" font-size="10.00">llvm/IR/IRBuilder.h</text>
</g>
<!-- Node28&#45;&gt;Node33 -->
<g id="edge67" class="edge"><title>Node28&#45;&gt;Node33</title>
<path fill="none" stroke="midnightblue" d="M1892.88,-381.076C2020.14,-380.399 2321.91,-374.46 2571.56,-336 2578.26,-334.967 2585.31,-333.531 2592.12,-331.954"/>
<polygon fill="midnightblue" stroke="midnightblue" points="2592.99,-335.345 2601.87,-329.572 2591.33,-328.546 2592.99,-335.345"/>
</g>
<!-- Node34 -->
<g id="node34" class="node"><title>Node34</title>
<polygon fill="white" stroke="#bfbfbf" points="1492.06,-310.5 1492.06,-329.5 1591.06,-329.5 1591.06,-310.5 1492.06,-310.5"/>
<text text-anchor="middle" x="1541.56" y="-317.5" font-family="Helvetica,sans-Serif" font-size="10.00">llvm/IR/Intrinsics.h</text>
</g>
<!-- Node28&#45;&gt;Node34 -->
<g id="edge68" class="edge"><title>Node28&#45;&gt;Node34</title>
<path fill="none" stroke="midnightblue" d="M1782.95,-372.469C1735.88,-363.998 1662.59,-350.249 1599.56,-336 1594.17,-334.782 1588.52,-333.423 1582.95,-332.035"/>
<polygon fill="midnightblue" stroke="midnightblue" points="1583.64,-328.598 1573.08,-329.528 1581.91,-335.382 1583.64,-328.598"/>
</g>
<!-- Node35 -->
<g id="node35" class="node"><title>Node35</title>
<polygon fill="white" stroke="#bfbfbf" points="1609.06,-310.5 1609.06,-329.5 1728.06,-329.5 1728.06,-310.5 1609.06,-310.5"/>
<text text-anchor="middle" x="1668.56" y="-317.5" font-family="Helvetica,sans-Serif" font-size="10.00">llvm/IR/LLVMContext.h</text>
</g>
<!-- Node28&#45;&gt;Node35 -->
<g id="edge69" class="edge"><title>Node28&#45;&gt;Node35</title>
<path fill="none" stroke="midnightblue" d="M1808.21,-372.403C1780.25,-362.111 1733.23,-344.806 1701.57,-333.15"/>
<polygon fill="midnightblue" stroke="midnightblue" points="1702.47,-329.75 1691.87,-329.581 1700.05,-336.32 1702.47,-329.75"/>
</g>
<!-- Node36 -->
<g id="node36" class="node"><title>Node36</title>
<polygon fill="white" stroke="#bfbfbf" points="1823.06,-310.5 1823.06,-329.5 1914.06,-329.5 1914.06,-310.5 1823.06,-310.5"/>
<text text-anchor="middle" x="1868.56" y="-317.5" font-family="Helvetica,sans-Serif" font-size="10.00">llvm/IR/Module.h</text>
</g>
<!-- Node28&#45;&gt;Node36 -->
<g id="edge70" class="edge"><title>Node28&#45;&gt;Node36</title>
<path fill="none" stroke="midnightblue" d="M1836.86,-372.403C1842.36,-363.493 1851.09,-349.325 1858.01,-338.118"/>
<polygon fill="midnightblue" stroke="midnightblue" points="1861,-339.929 1863.27,-329.581 1855.04,-336.255 1861,-339.929"/>
</g>
<!-- Node37 -->
<g id="node37" class="node"><title>Node37</title>
<polygon fill="white" stroke="#bfbfbf" points="1932.06,-310.5 1932.06,-329.5 2071.06,-329.5 2071.06,-310.5 1932.06,-310.5"/>
<text text-anchor="middle" x="2001.56" y="-317.5" font-family="Helvetica,sans-Serif" font-size="10.00">llvm/Support/raw_ostream.h</text>
</g>
<!-- Node28&#45;&gt;Node37 -->
<g id="edge71" class="edge"><title>Node28&#45;&gt;Node37</title>
<path fill="none" stroke="midnightblue" d="M1855.92,-372.403C1885.21,-362.067 1934.53,-344.656 1967.56,-332.999"/>
<polygon fill="midnightblue" stroke="midnightblue" points="1968.98,-336.209 1977.25,-329.581 1966.65,-329.608 1968.98,-336.209"/>
</g>
<!-- Node28&#45;&gt;Node38 -->
<g id="edge72" class="edge"><title>Node28&#45;&gt;Node38</title>
<path fill="none" stroke="midnightblue" d="M1770.3,-376.994C1676.47,-370.507 1491.61,-356.346 1335.56,-336 1321.85,-334.212 1307,-331.847 1293.47,-329.525"/>
<polygon fill="midnightblue" stroke="midnightblue" points="1293.88,-326.044 1283.43,-327.769 1292.68,-332.939 1293.88,-326.044"/>
</g>
<!-- Node39 -->
<g id="node39" class="node"><title>Node39</title>
<polygon fill="white" stroke="#bfbfbf" points="1554.06,-237 1554.06,-267 1647.06,-267 1647.06,-237 1554.06,-237"/>
<text text-anchor="start" x="1562.06" y="-255" font-family="Helvetica,sans-Serif" font-size="10.00">impala&#45;ir/impala&#45;ir</text>
<text text-anchor="middle" x="1600.56" y="-244" font-family="Helvetica,sans-Serif" font-size="10.00">&#45;functions.h</text>
</g>
<!-- Node28&#45;&gt;Node39 -->
<g id="edge87" class="edge"><title>Node28&#45;&gt;Node39</title>
<path fill="none" stroke="midnightblue" d="M1821.64,-372.271C1801.18,-354.387 1754.71,-314.39 1736.56,-304 1711.74,-289.787 1682.21,-278.156 1657.02,-269.61"/>
<polygon fill="midnightblue" stroke="midnightblue" points="1657.83,-266.192 1647.24,-266.37 1655.63,-272.837 1657.83,-266.192"/>
</g>
<!-- Node38&#45;&gt;Node6 -->
<g id="edge74" class="edge"><title>Node38&#45;&gt;Node6</title>
<path fill="none" stroke="midnightblue" d="M1251.47,-310.192C1255.67,-300.197 1262.08,-283.293 1264.56,-268 1271.81,-223.345 1268.03,-207.263 1245.56,-168 1211.21,-107.984 1197.56,-90.3882 1137.56,-56 1088.56,-27.9105 1022.6,-17.2831 983.83,-13.313"/>
<polygon fill="midnightblue" stroke="midnightblue" points="983.933,-9.80744 973.651,-12.3607 983.281,-16.777 983.933,-9.80744"/>
</g>
<!-- Node38&#45;&gt;Node8 -->
<g id="edge75" class="edge"><title>Node38&#45;&gt;Node8</title>
<path fill="none" stroke="midnightblue" d="M1248.7,-310.485C1251.53,-285.784 1256.45,-213.007 1223.56,-168 1193.78,-127.239 1142.53,-96.5482 1110.71,-80.2199"/>
<polygon fill="midnightblue" stroke="midnightblue" points="1112.01,-76.9582 1101.5,-75.6184 1108.88,-83.2197 1112.01,-76.9582"/>
</g>
<!-- Node38&#45;&gt;Node9 -->
<g id="edge73" class="edge"><title>Node38&#45;&gt;Node9</title>
<path fill="none" stroke="midnightblue" d="M1253.08,-310.379C1270.42,-284.073 1326.79,-204.417 1395.56,-168 1547.27,-87.6681 2098.12,-27.8509 2234.74,-14.0321"/>
<polygon fill="midnightblue" stroke="midnightblue" points="2235.31,-17.4924 2244.91,-13.0112 2234.61,-10.5274 2235.31,-17.4924"/>
</g>
<!-- Node38&#45;&gt;Node10 -->
<g id="edge77" class="edge"><title>Node38&#45;&gt;Node10</title>
<path fill="none" stroke="midnightblue" d="M1247.35,-310.401C1246.24,-284.832 1239.42,-208.539 1197.56,-168 1174.12,-145.293 1139.77,-133.967 1109.66,-128.35"/>
<polygon fill="midnightblue" stroke="midnightblue" points="1110.08,-124.871 1099.63,-126.656 1108.91,-131.773 1110.08,-124.871"/>
</g>
<!-- Node38&#45;&gt;Node19 -->
<g id="edge85" class="edge"><title>Node38&#45;&gt;Node19</title>
<path fill="none" stroke="midnightblue" d="M1211.8,-310.973C1159.15,-299.152 1060.63,-277.036 1001.68,-263.801"/>
<polygon fill="midnightblue" stroke="midnightblue" points="1002.38,-260.373 991.857,-261.597 1000.85,-267.203 1002.38,-260.373"/>
</g>
<!-- Node38&#45;&gt;Node22 -->
<g id="edge84" class="edge"><title>Node38&#45;&gt;Node22</title>
<path fill="none" stroke="midnightblue" d="M1236.6,-310.414C1208.2,-288.155 1131.9,-228.361 1095.88,-200.141"/>
<polygon fill="midnightblue" stroke="midnightblue" points="1097.68,-197.101 1087.65,-193.688 1093.36,-202.611 1097.68,-197.101"/>
</g>
<!-- Node38&#45;&gt;Node23 -->
<g id="edge86" class="edge"><title>Node38&#45;&gt;Node23</title>
<path fill="none" stroke="midnightblue" d="M1270.94,-310.425C1292.65,-301.772 1325.2,-286.987 1349.56,-268 1395.79,-231.963 1383.04,-194.042 1435.56,-168 1495.77,-138.145 1946.58,-127.154 2117.3,-124.036"/>
<polygon fill="midnightblue" stroke="midnightblue" points="2117.48,-127.534 2127.41,-123.855 2117.35,-120.535 2117.48,-127.534"/>
</g>
<!-- Node38&#45;&gt;Node39 -->
<g id="edge76" class="edge"><title>Node38&#45;&gt;Node39</title>
<path fill="none" stroke="midnightblue" d="M1283.35,-312.308C1344.71,-300.837 1470.43,-277.33 1543.83,-263.606"/>
<polygon fill="midnightblue" stroke="midnightblue" points="1544.65,-267.015 1553.83,-261.737 1543.36,-260.134 1544.65,-267.015"/>
</g>
<!-- Node38&#45;&gt;Node40 -->
<g id="edge78" class="edge"><title>Node38&#45;&gt;Node40</title>
<path fill="none" stroke="midnightblue" d="M1283.2,-316.473C1423.57,-306.522 1939.22,-269.967 2117.46,-257.331"/>
<polygon fill="midnightblue" stroke="midnightblue" points="2117.73,-260.821 2127.46,-256.623 2117.24,-253.839 2117.73,-260.821"/>
</g>
<!-- Node40&#45;&gt;Node9 -->
<g id="edge79" class="edge"><title>Node40&#45;&gt;Node9</title>
<path fill="none" stroke="midnightblue" d="M2229.81,-242.654C2303.66,-230.387 2431.92,-208.069 2438.56,-200 2495.31,-131.042 2356.66,-54.0057 2294.18,-23.9703"/>
<polygon fill="midnightblue" stroke="midnightblue" points="2295.38,-20.6687 2284.85,-19.5618 2292.39,-26.998 2295.38,-20.6687"/>
</g>
<!-- Node40&#45;&gt;Node11 -->
<g id="edge83" class="edge"><title>Node40&#45;&gt;Node11</title>
<path fill="none" stroke="midnightblue" d="M2184.42,-242.41C2197.23,-223.315 2228.04,-175.581 2246.56,-132 2253.03,-116.783 2258.12,-98.6705 2261.4,-85.435"/>
<polygon fill="midnightblue" stroke="midnightblue" points="2264.82,-86.1721 2263.72,-75.6349 2258.01,-84.5607 2264.82,-86.1721"/>
</g>
<!-- Node40&#45;&gt;Node24 -->
<g id="edge80" class="edge"><title>Node40&#45;&gt;Node24</title>
<path fill="none" stroke="midnightblue" d="M2176.86,-242.372C2174.95,-232.643 2171.77,-216.528 2169.27,-203.85"/>
<polygon fill="midnightblue" stroke="midnightblue" points="2172.67,-202.976 2167.3,-193.841 2165.8,-204.329 2172.67,-202.976"/>
</g>
<!-- Node40&#45;&gt;Node41 -->
<g id="edge81" class="edge"><title>Node40&#45;&gt;Node41</title>
<path fill="none" stroke="midnightblue" d="M2202.49,-242.372C2234.63,-230.778 2291.92,-210.116 2328.26,-197.009"/>
<polygon fill="midnightblue" stroke="midnightblue" points="2329.7,-200.211 2337.92,-193.526 2327.33,-193.626 2329.7,-200.211"/>
</g>
<!-- Node41&#45;&gt;Node23 -->
<g id="edge82" class="edge"><title>Node41&#45;&gt;Node23</title>
<path fill="none" stroke="midnightblue" d="M2335.91,-174.403C2304.94,-164.022 2252.69,-146.506 2217.91,-134.849"/>
<polygon fill="midnightblue" stroke="midnightblue" points="2218.75,-131.44 2208.16,-131.581 2216.53,-138.077 2218.75,-131.44"/>
</g>
<!-- Node42&#45;&gt;Node15 -->
<g id="edge92" class="edge"><title>Node42&#45;&gt;Node15</title>
<path fill="none" stroke="midnightblue" d="M658.839,-434.403C656.102,-425.76 651.798,-412.17 648.304,-401.134"/>
<polygon fill="midnightblue" stroke="midnightblue" points="651.634,-400.057 645.278,-391.581 644.961,-402.171 651.634,-400.057"/>
</g>
<!-- Node43&#45;&gt;Node4 -->
<g id="edge95" class="edge"><title>Node43&#45;&gt;Node4</title>
<path fill="none" stroke="midnightblue" d="M2906.65,-310.274C2883.75,-277.307 2796.99,-159.806 2692.56,-112 2538.54,-41.491 2484.33,-70.5827 2315.56,-56 2271.39,-52.1834 894.922,-19.9522 576.055,-12.5231"/>
<polygon fill="midnightblue" stroke="midnightblue" points="576.123,-9.02385 566.045,-12.2899 575.96,-16.022 576.123,-9.02385"/>
</g>
<!-- Node43&#45;&gt;Node8 -->
<g id="edge96" class="edge"><title>Node43&#45;&gt;Node8</title>
<path fill="none" stroke="midnightblue" d="M2880.98,-310.461C2852.53,-302.013 2810.13,-287.523 2776.56,-268 2716.55,-233.098 2720.09,-196.007 2656.56,-168 2488.28,-93.807 2429.78,-128.016 2246.56,-112 1821.8,-74.8696 1307.17,-68.3761 1138.8,-67.2406"/>
<polygon fill="midnightblue" stroke="midnightblue" points="1138.71,-63.74 1128.69,-67.1761 1138.67,-70.7399 1138.71,-63.74"/>
</g>
<!-- Node43&#45;&gt;Node9 -->
<g id="edge94" class="edge"><title>Node43&#45;&gt;Node9</title>
<path fill="none" stroke="midnightblue" d="M2931.62,-310.334C2949.16,-301.616 2975.03,-286.787 2992.56,-268 3057.81,-198.068 3105.63,-113.98 3029.56,-56 2970.47,-10.9573 2431.31,-10.2725 2296.17,-10.8171"/>
<polygon fill="midnightblue" stroke="midnightblue" points="2296.08,-7.31733 2286.1,-10.8631 2296.11,-14.3173 2296.08,-7.31733"/>
</g>
<!-- Node43&#45;&gt;Node10 -->
<g id="edge97" class="edge"><title>Node43&#45;&gt;Node10</title>
<path fill="none" stroke="midnightblue" d="M2882.28,-310.489C2847.49,-300.625 2788.73,-283.708 2738.56,-268 2604.44,-226.005 2576.91,-192.75 2438.56,-168 2178.49,-121.474 1348.46,-121.58 1110.12,-122.616"/>
<polygon fill="midnightblue" stroke="midnightblue" points="1109.87,-119.117 1099.89,-122.662 1109.9,-126.116 1109.87,-119.117"/>
</g>
<!-- Node43&#45;&gt;Node11 -->
<g id="edge99" class="edge"><title>Node43&#45;&gt;Node11</title>
<path fill="none" stroke="midnightblue" d="M2890.52,-310.409C2869.67,-301.648 2838.16,-286.704 2814.56,-268 2738.21,-207.486 2750.25,-150.045 2660.56,-112 2600.01,-86.3135 2410.65,-73.9308 2317.86,-69.2807"/>
<polygon fill="midnightblue" stroke="midnightblue" points="2318.01,-65.7836 2307.85,-68.79 2317.67,-72.7752 2318.01,-65.7836"/>
</g>
<!-- Node43&#45;&gt;Node14 -->
<g id="edge105" class="edge"><title>Node43&#45;&gt;Node14</title>
<path fill="none" stroke="midnightblue" d="M2906.61,-310.47C2900.2,-300.723 2890.41,-284.041 2886.56,-268 2875.89,-223.577 2885.32,-169.462 2891.75,-141.584"/>
<polygon fill="midnightblue" stroke="midnightblue" points="2895.2,-142.194 2894.18,-131.649 2888.4,-140.532 2895.2,-142.194"/>
</g>
<!-- Node43&#45;&gt;Node19 -->
<g id="edge98" class="edge"><title>Node43&#45;&gt;Node19</title>
<path fill="none" stroke="midnightblue" d="M2851.35,-314.234C2806.79,-310.918 2744.96,-306.636 2690.56,-304 2520.62,-295.767 1301.38,-262.442 1014.09,-254.64"/>
<polygon fill="midnightblue" stroke="midnightblue" points="1013.96,-251.135 1003.87,-254.362 1013.77,-258.132 1013.96,-251.135"/>
</g>
<!-- Node43&#45;&gt;Node44 -->
<g id="edge100" class="edge"><title>Node43&#45;&gt;Node44</title>
<path fill="none" stroke="midnightblue" d="M2916.09,-310.372C2920.11,-300.544 2926.8,-284.202 2932.01,-271.467"/>
<polygon fill="midnightblue" stroke="midnightblue" points="2935.4,-272.422 2935.94,-261.841 2928.92,-269.771 2935.4,-272.422"/>
</g>
<!-- Node43&#45;&gt;Node45 -->
<g id="edge104" class="edge"><title>Node43&#45;&gt;Node45</title>
<path fill="none" stroke="midnightblue" d="M2941.98,-310.372C2982.18,-298.58 3054.35,-277.407 3098.89,-264.343"/>
<polygon fill="midnightblue" stroke="midnightblue" points="3099.89,-267.699 3108.5,-261.526 3097.91,-260.982 3099.89,-267.699"/>
</g>
<!-- Node44&#45;&gt;Node6 -->
<g id="edge103" class="edge"><title>Node44&#45;&gt;Node6</title>
<path fill="none" stroke="midnightblue" d="M2946.28,-242.458C2963.87,-218.998 3007.77,-152.631 2975.56,-112 2907.78,-26.5074 2844.77,-69.8921 2736.56,-56 2646.28,-44.4099 1218.84,-16.2025 984.111,-11.6307"/>
<polygon fill="midnightblue" stroke="midnightblue" points="983.911,-8.12625 973.845,-11.431 983.775,-15.1249 983.911,-8.12625"/>
</g>
<!-- Node44&#45;&gt;Node9 -->
<g id="edge102" class="edge"><title>Node44&#45;&gt;Node9</title>
<path fill="none" stroke="midnightblue" d="M2959.75,-242.435C2976.25,-234.218 2998.43,-220.083 3008.56,-200 3037.38,-142.857 3052.43,-102.603 3008.56,-56 2983.77,-29.6594 2433.82,-14.9683 2296.44,-11.7013"/>
<polygon fill="midnightblue" stroke="midnightblue" points="2296.29,-8.19683 2286.21,-11.4611 2296.12,-15.1949 2296.29,-8.19683"/>
</g>
<!-- Node44&#45;&gt;Node29 -->
<g id="edge101" class="edge"><title>Node44&#45;&gt;Node29</title>
<path fill="none" stroke="midnightblue" d="M2899.48,-242.439C2835.8,-228.837 2713.1,-202.63 2658.24,-190.913"/>
<polygon fill="midnightblue" stroke="midnightblue" points="2658.72,-187.437 2648.21,-188.77 2657.26,-194.282 2658.72,-187.437"/>
</g>
<!-- Node46&#45;&gt;Node4 -->
<g id="edge108" class="edge"><title>Node46&#45;&gt;Node4</title>
<path fill="none" stroke="midnightblue" d="M88.4164,-112.466C98.8326,-98.0535 122.088,-69.1738 149.561,-56 200.422,-31.6112 356.049,-19.3489 445.487,-14.1641"/>
<polygon fill="midnightblue" stroke="midnightblue" points="445.737,-17.6557 455.524,-13.5959 445.342,-10.6669 445.737,-17.6557"/>
</g>
<!-- Node46&#45;&gt;Node8 -->
<g id="edge109" class="edge"><title>Node46&#45;&gt;Node8</title>
<path fill="none" stroke="midnightblue" d="M135.619,-118.135C307.735,-108.841 849.607,-79.5795 1026.27,-70.0398"/>
<polygon fill="midnightblue" stroke="midnightblue" points="1026.59,-73.5277 1036.38,-69.4935 1026.21,-66.5379 1026.59,-73.5277"/>
</g>
<!-- Node47&#45;&gt;Node38 -->
<g id="edge111" class="edge"><title>Node47&#45;&gt;Node38</title>
<path fill="none" stroke="midnightblue" d="M1394.06,-372.403C1364.6,-362.067 1314.98,-344.656 1281.76,-332.999"/>
<polygon fill="midnightblue" stroke="midnightblue" points="1282.61,-329.589 1272.02,-329.581 1280.29,-336.194 1282.61,-329.589"/>
</g>
<!-- Node48&#45;&gt;Node4 -->
<g id="edge118" class="edge"><title>Node48&#45;&gt;Node4</title>
<path fill="none" stroke="midnightblue" d="M327.328,-174.205C329.791,-151.364 339.517,-89.609 374.561,-56 393.814,-37.5356 420.809,-26.6442 445.678,-20.2211"/>
<polygon fill="midnightblue" stroke="midnightblue" points="446.53,-23.6161 455.446,-17.8922 444.907,-16.8069 446.53,-23.6161"/>
</g>
<!-- Node48&#45;&gt;Node6 -->
<g id="edge119" class="edge"><title>Node48&#45;&gt;Node6</title>
<path fill="none" stroke="midnightblue" d="M335.697,-174.355C351.702,-159.633 386.37,-129.586 420.561,-112 593.018,-23.2991 833.081,-11.9892 919.21,-10.9244"/>
<polygon fill="midnightblue" stroke="midnightblue" points="919.429,-14.4228 929.399,-10.8388 919.37,-7.42307 919.429,-14.4228"/>
</g>
<!-- Node48&#45;&gt;Node7 -->
<g id="edge121" class="edge"><title>Node48&#45;&gt;Node7</title>
<path fill="none" stroke="midnightblue" d="M366.096,-174.467C420.202,-162.79 516.532,-141.999 568.665,-130.747"/>
<polygon fill="midnightblue" stroke="midnightblue" points="569.44,-134.161 578.476,-128.63 567.963,-127.318 569.44,-134.161"/>
</g>
<!-- Node48&#45;&gt;Node9 -->
<g id="edge120" class="edge"><title>Node48&#45;&gt;Node9</title>
<path fill="none" stroke="midnightblue" d="M341.739,-174.417C386.286,-149.788 521.234,-79.1731 643.561,-56 724.707,-40.6281 2018.63,-15.651 2234.99,-11.5716"/>
<polygon fill="midnightblue" stroke="midnightblue" points="2235.08,-15.0705 2245.02,-11.383 2234.95,-8.07177 2235.08,-15.0705"/>
</g>
<!-- Node48&#45;&gt;Node10 -->
<g id="edge122" class="edge"><title>Node48&#45;&gt;Node10</title>
<path fill="none" stroke="midnightblue" d="M381.763,-174.471C398.091,-172.143 416.021,-169.775 432.561,-168 632.165,-146.575 869.444,-132.338 981.233,-126.294"/>
<polygon fill="midnightblue" stroke="midnightblue" points="981.532,-129.783 991.33,-125.752 981.157,-122.793 981.532,-129.783"/>
</g>
<!-- Node48&#45;&gt;Node12 -->
<g id="edge124" class="edge"><title>Node48&#45;&gt;Node12</title>
<path fill="none" stroke="midnightblue" d="M354.283,-174.47C421.006,-153.94 590.6,-101.757 666.202,-78.4951"/>
<polygon fill="midnightblue" stroke="midnightblue" points="667.27,-81.8284 675.799,-75.5423 665.212,-75.138 667.27,-81.8284"/>
</g>
<!-- Node48&#45;&gt;Node14 -->
<g id="edge123" class="edge"><title>Node48&#45;&gt;Node14</title>
<path fill="none" stroke="midnightblue" d="M377.64,-174.484C395.018,-171.93 414.589,-169.43 432.561,-168 553.865,-158.346 2406.02,-130.304 2816.43,-124.187"/>
<polygon fill="midnightblue" stroke="midnightblue" points="2816.49,-127.687 2826.43,-124.038 2816.38,-120.688 2816.49,-127.687"/>
</g>
<!-- Node49&#45;&gt;Node7 -->
<g id="edge131" class="edge"><title>Node49&#45;&gt;Node7</title>
<path fill="none" stroke="midnightblue" d="M3225.37,-310.387C3226.44,-293.332 3226.12,-255.251 3204.56,-236 3113.03,-154.268 2778.97,-176.663 2656.56,-168 2212.88,-136.599 1101.21,-189.923 640.857,-131.594"/>
<polygon fill="midnightblue" stroke="midnightblue" points="641.142,-128.101 630.774,-130.284 640.24,-135.043 641.142,-128.101"/>
</g>
<!-- Node49&#45;&gt;Node9 -->
<g id="edge130" class="edge"><title>Node49&#45;&gt;Node9</title>
<path fill="none" stroke="midnightblue" d="M3233.88,-310.248C3254.17,-290.189 3300.56,-238.49 3300.56,-185 3300.56,-185 3300.56,-185 3300.56,-121 3300.56,-17.2892 2468.19,-11.1264 2296.36,-10.9591"/>
<polygon fill="midnightblue" stroke="midnightblue" points="2296.24,-7.45914 2286.24,-10.9557 2296.23,-14.4591 2296.24,-7.45914"/>
</g>
<!-- Node49&#45;&gt;Node14 -->
<g id="edge133" class="edge"><title>Node49&#45;&gt;Node14</title>
<path fill="none" stroke="midnightblue" d="M3229.83,-310.295C3238.9,-294.057 3255,-258.74 3238.56,-236 3179.2,-153.863 3057.93,-130.435 2976.93,-124.301"/>
<polygon fill="midnightblue" stroke="midnightblue" points="2976.98,-120.797 2966.76,-123.606 2976.5,-127.78 2976.98,-120.797"/>
</g>
<!-- Node49&#45;&gt;Node45 -->
<g id="edge132" class="edge"><title>Node49&#45;&gt;Node45</title>
<path fill="none" stroke="midnightblue" d="M3213.19,-310.372C3198.99,-299.6 3174.47,-281.002 3157.21,-267.906"/>
<polygon fill="midnightblue" stroke="midnightblue" points="3159.02,-264.886 3148.94,-261.63 3154.79,-270.463 3159.02,-264.886"/>
</g>
</g>
</svg>
