<?xml version="1.0" encoding="UTF-8" standalone="no"?>
<!DOCTYPE svg PUBLIC "-//W3C//DTD SVG 1.1//EN"
 "http://www.w3.org/Graphics/SVG/1.1/DTD/svg11.dtd">
<!-- Generated by graphviz version 2.36.0 (20140111.2315)
 -->
<!-- Title: be/src/util/path&#45;builder.h Pages: 1 -->
<!--zoomable 96 -->
<svg id="main" version="1.1" xmlns="http://www.w3.org/2000/svg" xmlns:xlink="http://www.w3.org/1999/xlink" xml:space="preserve" onload="init(evt)">
<style type="text/css"><![CDATA[
.edge:hover path { stroke: red; }
.edge:hover polygon { stroke: red; fill: red; }
]]></style>
<script type="text/javascript"><![CDATA[
var edges = document.getElementsByTagName('g');
if (edges && edges.length) {
  for (var i=0;i<edges.length;i++) {
    if (edges[i].id.substr(0,4)=='edge') {
      edges[i].setAttribute('class','edge');
    }
  }
}
]]></script>
        <defs>
                <circle id="rim" cx="0" cy="0" r="7"/>
                <circle id="rim2" cx="0" cy="0" r="3.5"/>
                <g id="zoomPlus">
                        <use xlink:href="#rim" fill="#404040">
                                <set attributeName="fill" to="#808080" begin="zoomplus.mouseover" end="zoomplus.mouseout"/>
                        </use>
                        <path d="M-4,0h8M0,-4v8" fill="none" stroke="white" stroke-width="1.5" pointer-events="none"/>
                </g>
                <g id="zoomMin">
                        <use xlink:href="#rim" fill="#404040">
                                <set attributeName="fill" to="#808080" begin="zoomminus.mouseover" end="zoomminus.mouseout"/>
                        </use>
                        <path d="M-4,0h8" fill="none" stroke="white" stroke-width="1.5" pointer-events="none"/>
                </g>
                <g id="dirArrow">
                        <path fill="none" stroke="white" stroke-width="1.5" d="M0,-3.0v7 M-2.5,-0.5L0,-3.0L2.5,-0.5"/>
                </g>
               <g id="resetDef">
                       <use xlink:href="#rim2" fill="#404040">
                               <set attributeName="fill" to="#808080" begin="reset.mouseover" end="reset.mouseout"/>
                       </use>
               </g>
        </defs>

<script type="text/javascript">
var viewWidth = 765;
var viewHeight = 96;
var sectionId = 'dynsection-1';
</script>
<script xlink:href="svgpan.js"/>
<svg id="graph" class="graph">
<g id="viewport">
<title>be/src/util/path&#45;builder.h</title>
<polygon fill="white" stroke="none" points="-4,4 -4,-92 761,-92 761,4 -4,4"/>
<!-- Node1 -->
<g id="node1" class="node"><title>Node1</title>
<polygon fill="#bfbfbf" stroke="black" points="313.5,-68.5 313.5,-87.5 434.5,-87.5 434.5,-68.5 313.5,-68.5"/>
<text text-anchor="middle" x="374" y="-75.5" font-family="Helvetica,sans-Serif" font-size="10.00">be/src/util/path&#45;builder.h</text>
</g>
<!-- Node2 -->
<g id="node2" class="node"><title>Node2</title>
<g id="a_node2"><a xlink:href="llvm-codegen-test_8cc.html" target="_top" xlink:title="be/src/codegen/llvm\l&#45;codegen&#45;test.cc">
<polygon fill="white" stroke="black" points="0,-1 0,-31 104,-31 104,-1 0,-1"/>
<text text-anchor="start" x="8" y="-19" font-family="Helvetica,sans-Serif" font-size="10.00">be/src/codegen/llvm</text>
<text text-anchor="middle" x="52" y="-8" font-family="Helvetica,sans-Serif" font-size="10.00">&#45;codegen&#45;test.cc</text>
</a>
</g>
</g>
<!-- Node1&#45;&gt;Node2 -->
<g id="edge1" class="edge"><title>Node1&#45;&gt;Node2</title>
<path fill="none" stroke="midnightblue" d="M307.846,-66.9134C254.94,-58.5296 178.964,-45.779 113,-32 110.118,-31.3979 107.165,-30.756 104.188,-30.0893"/>
<polygon fill="midnightblue" stroke="midnightblue" points="307.356,-70.3793 317.779,-68.4791 308.446,-63.4647 307.356,-70.3793"/>
</g>
<!-- Node3 -->
<g id="node3" class="node"><title>Node3</title>
<g id="a_node3"><a xlink:href="llvm-codegen_8cc.html" target="_top" xlink:title="be/src/codegen/llvm\l&#45;codegen.cc">
<polygon fill="white" stroke="black" points="122,-1 122,-31 226,-31 226,-1 122,-1"/>
<text text-anchor="start" x="130" y="-19" font-family="Helvetica,sans-Serif" font-size="10.00">be/src/codegen/llvm</text>
<text text-anchor="middle" x="174" y="-8" font-family="Helvetica,sans-Serif" font-size="10.00">&#45;codegen.cc</text>
</a>
</g>
</g>
<!-- Node1&#45;&gt;Node3 -->
<g id="edge2" class="edge"><title>Node1&#45;&gt;Node3</title>
<path fill="none" stroke="midnightblue" d="M335.677,-65.5031C302.933,-55.6798 255.712,-41.5137 220.751,-31.0253"/>
<polygon fill="midnightblue" stroke="midnightblue" points="334.761,-68.8823 345.345,-68.4035 336.772,-62.1775 334.761,-68.8823"/>
</g>
<!-- Node4 -->
<g id="node4" class="node"><title>Node4</title>
<g id="a_node4"><a xlink:href="subexpr-elimination_8cc.html" target="_top" xlink:title="be/src/codegen/subexpr\l&#45;elimination.cc">
<polygon fill="white" stroke="black" points="244.5,-1 244.5,-31 365.5,-31 365.5,-1 244.5,-1"/>
<text text-anchor="start" x="252.5" y="-19" font-family="Helvetica,sans-Serif" font-size="10.00">be/src/codegen/subexpr</text>
<text text-anchor="middle" x="305" y="-8" font-family="Helvetica,sans-Serif" font-size="10.00">&#45;elimination.cc</text>
</a>
</g>
</g>
<!-- Node1&#45;&gt;Node4 -->
<g id="edge3" class="edge"><title>Node1&#45;&gt;Node4</title>
<path fill="none" stroke="midnightblue" d="M356.514,-61.7947C345.68,-52.3738 331.86,-40.3562 321.262,-31.1408"/>
<polygon fill="midnightblue" stroke="midnightblue" points="354.271,-64.4828 364.114,-68.4035 358.865,-59.2005 354.271,-64.4828"/>
</g>
<!-- Node5 -->
<g id="node5" class="node"><title>Node5</title>
<g id="a_node5"><a xlink:href="timestamp-functions_8cc.html" target="_top" xlink:title="be/src/exprs/timestamp\l&#45;functions.cc">
<polygon fill="white" stroke="black" points="383.5,-1 383.5,-31 502.5,-31 502.5,-1 383.5,-1"/>
<text text-anchor="start" x="391.5" y="-19" font-family="Helvetica,sans-Serif" font-size="10.00">be/src/exprs/timestamp</text>
<text text-anchor="middle" x="443" y="-8" font-family="Helvetica,sans-Serif" font-size="10.00">&#45;functions.cc</text>
</a>
</g>
</g>
<!-- Node1&#45;&gt;Node5 -->
<g id="edge4" class="edge"><title>Node1&#45;&gt;Node5</title>
<path fill="none" stroke="midnightblue" d="M391.486,-61.7947C402.32,-52.3738 416.14,-40.3562 426.738,-31.1408"/>
<polygon fill="midnightblue" stroke="midnightblue" points="389.135,-59.2005 383.886,-68.4035 393.729,-64.4828 389.135,-59.2005"/>
</g>
<!-- Node6 -->
<g id="node6" class="node"><title>Node6</title>
<g id="a_node6"><a xlink:href="lib-cache_8cc.html" target="_top" xlink:title="be/src/runtime/lib\l&#45;cache.cc">
<polygon fill="white" stroke="black" points="521,-1 521,-31 613,-31 613,-1 521,-1"/>
<text text-anchor="start" x="529" y="-19" font-family="Helvetica,sans-Serif" font-size="10.00">be/src/runtime/lib</text>
<text text-anchor="middle" x="567" y="-8" font-family="Helvetica,sans-Serif" font-size="10.00">&#45;cache.cc</text>
</a>
</g>
</g>
<!-- Node1&#45;&gt;Node6 -->
<g id="edge5" class="edge"><title>Node1&#45;&gt;Node6</title>
<path fill="none" stroke="midnightblue" d="M411.391,-65.3759C442.973,-55.5577 488.293,-41.4685 521.885,-31.0253"/>
<polygon fill="midnightblue" stroke="midnightblue" points="410.162,-62.0925 401.652,-68.4035 412.24,-68.777 410.162,-62.0925"/>
</g>
<!-- Node7 -->
<g id="node7" class="node"><title>Node7</title>
<g id="a_node7"><a xlink:href="path-builder_8cc.html" target="_top" xlink:title="be/src/util/path&#45;builder.cc">
<polygon fill="white" stroke="black" points="631,-6.5 631,-25.5 757,-25.5 757,-6.5 631,-6.5"/>
<text text-anchor="middle" x="694" y="-13.5" font-family="Helvetica,sans-Serif" font-size="10.00">be/src/util/path&#45;builder.cc</text>
</a>
</g>
</g>
<!-- Node1&#45;&gt;Node7 -->
<g id="edge6" class="edge"><title>Node1&#45;&gt;Node7</title>
<path fill="none" stroke="midnightblue" d="M433.053,-66.7282C483.35,-57.8733 557.507,-44.567 622,-32 632.402,-29.9731 643.628,-27.6837 654.049,-25.5151"/>
<polygon fill="midnightblue" stroke="midnightblue" points="432.251,-63.3153 423.008,-68.4933 433.463,-70.2097 432.251,-63.3153"/>
</g>
</g>
</svg>
        <g id="navigator" transform="translate(0 0)" fill="#404254">
                <rect fill="#f2f5e9" fill-opacity="0.5" stroke="#606060" stroke-width=".5" x="0" y="0" width="60" height="60"/>
                <use id="zoomplus" xlink:href="#zoomPlus" x="17" y="9" onmousedown="handleZoom(evt,'in')"/>
                <use id="zoomminus" xlink:href="#zoomMin" x="42" y="9" onmousedown="handleZoom(evt,'out')"/>
                <use id="reset" xlink:href="#resetDef" x="30" y="36" onmousedown="handleReset()"/>
                <g id="arrowUp" xlink:href="#dirArrow" transform="translate(30 24)" onmousedown="handlePan(0,-1)">
                  <use xlink:href="#rim" fill="#404040">
                        <set attributeName="fill" to="#808080" begin="arrowUp.mouseover" end="arrowUp.mouseout"/>
                  </use>
                  <path fill="none" stroke="white" stroke-width="1.5" d="M0,-3.0v7 M-2.5,-0.5L0,-3.0L2.5,-0.5"/>
                </g>
                <g id="arrowRight" xlink:href="#dirArrow" transform="rotate(90) translate(36 -43)" onmousedown="handlePan(1,0)">
                  <use xlink:href="#rim" fill="#404040">
                        <set attributeName="fill" to="#808080" begin="arrowRight.mouseover" end="arrowRight.mouseout"/>
                  </use>
                  <path fill="none" stroke="white" stroke-width="1.5" d="M0,-3.0v7 M-2.5,-0.5L0,-3.0L2.5,-0.5"/>
                </g>
                <g id="arrowDown" xlink:href="#dirArrow" transform="rotate(180) translate(-30 -48)" onmousedown="handlePan(0,1)">
                  <use xlink:href="#rim" fill="#404040">
                        <set attributeName="fill" to="#808080" begin="arrowDown.mouseover" end="arrowDown.mouseout"/>
                  </use>
                  <path fill="none" stroke="white" stroke-width="1.5" d="M0,-3.0v7 M-2.5,-0.5L0,-3.0L2.5,-0.5"/>
                </g>
                <g id="arrowLeft" xlink:href="#dirArrow" transform="rotate(270) translate(-36 17)" onmousedown="handlePan(-1,0)">
                  <use xlink:href="#rim" fill="#404040">
                        <set attributeName="fill" to="#808080" begin="arrowLeft.mouseover" end="arrowLeft.mouseout"/>
                  </use>
                  <path fill="none" stroke="white" stroke-width="1.5" d="M0,-3.0v7 M-2.5,-0.5L0,-3.0L2.5,-0.5"/>
                </g>
        </g>
        <svg viewBox="0 0 15 15" width="100%" height="30px" preserveAspectRatio="xMaxYMin meet">
         <g id="arrow_out" transform="scale(0.3 0.3)">
          <a xlink:href="path-builder_8h__dep__incl_org.svg" target="_base">
           <rect id="button" ry="5" rx="5" y="6" x="6" height="38" width="38"
                fill="#f2f5e9" fill-opacity="0.5" stroke="#606060" stroke-width="1.0"/>
           <path id="arrow"
             d="M 11.500037,31.436501 C 11.940474,20.09759 22.043105,11.32322 32.158766,21.979434 L 37.068811,17.246167 C 37.068811,17.246167 37.088388,32 37.088388,32 L 22.160133,31.978069 C 22.160133,31.978069 26.997745,27.140456 26.997745,27.140456 C 18.528582,18.264221 13.291696,25.230495 11.500037,31.436501 z"
             style="fill:#404040;"/>
          </a>
         </g>
        </svg>
</svg>
