<?xml version="1.0" encoding="UTF-8" standalone="no"?>
<!DOCTYPE svg PUBLIC "-//W3C//DTD SVG 1.1//EN"
 "http://www.w3.org/Graphics/SVG/1.1/DTD/svg11.dtd">
<!-- Generated by graphviz version 2.36.0 (20140111.2315)
 -->
<!-- Title: be/src/util/perf&#45;counters.cc Pages: 1 -->
<!--zoomable 208 -->
<svg id="main" version="1.1" xmlns="http://www.w3.org/2000/svg" xmlns:xlink="http://www.w3.org/1999/xlink" xml:space="preserve" onload="init(evt)">
<style type="text/css"><![CDATA[
.edge:hover path { stroke: red; }
.edge:hover polygon { stroke: red; fill: red; }
]]></style>
<script type="text/javascript"><![CDATA[
var edges = document.getElementsByTagName('g');
if (edges && edges.length) {
  for (var i=0;i<edges.length;i++) {
    if (edges[i].id.substr(0,4)=='edge') {
      edges[i].setAttribute('class','edge');
    }
  }
}
]]></script>
        <defs>
                <circle id="rim" cx="0" cy="0" r="7"/>
                <circle id="rim2" cx="0" cy="0" r="3.5"/>
                <g id="zoomPlus">
                        <use xlink:href="#rim" fill="#404040">
                                <set attributeName="fill" to="#808080" begin="zoomplus.mouseover" end="zoomplus.mouseout"/>
                        </use>
                        <path d="M-4,0h8M0,-4v8" fill="none" stroke="white" stroke-width="1.5" pointer-events="none"/>
                </g>
                <g id="zoomMin">
                        <use xlink:href="#rim" fill="#404040">
                                <set attributeName="fill" to="#808080" begin="zoomminus.mouseover" end="zoomminus.mouseout"/>
                        </use>
                        <path d="M-4,0h8" fill="none" stroke="white" stroke-width="1.5" pointer-events="none"/>
                </g>
                <g id="dirArrow">
                        <path fill="none" stroke="white" stroke-width="1.5" d="M0,-3.0v7 M-2.5,-0.5L0,-3.0L2.5,-0.5"/>
                </g>
               <g id="resetDef">
                       <use xlink:href="#rim2" fill="#404040">
                               <set attributeName="fill" to="#808080" begin="reset.mouseover" end="reset.mouseout"/>
                       </use>
               </g>
        </defs>

<script type="text/javascript">
var viewWidth = 1287;
var viewHeight = 208;
var sectionId = 'dynsection-0';
</script>
<script xlink:href="svgpan.js"/>
<svg id="graph" class="graph">
<g id="viewport">
<title>be/src/util/perf&#45;counters.cc</title>
<polygon fill="white" stroke="none" points="-4,4 -4,-204 1283,-204 1283,4 -4,4"/>
<!-- Node1 -->
<g id="node1" class="node"><title>Node1</title>
<polygon fill="#bfbfbf" stroke="black" points="376.5,-180.5 376.5,-199.5 509.5,-199.5 509.5,-180.5 376.5,-180.5"/>
<text text-anchor="middle" x="443" y="-187.5" font-family="Helvetica,sans-Serif" font-size="10.00">be/src/util/perf&#45;counters.cc</text>
</g>
<!-- Node2 -->
<g id="node2" class="node"><title>Node2</title>
<g id="a_node2"><a xlink:href="perf-counters_8h.html" target="_top" xlink:title="util/perf&#45;counters.h">
<polygon fill="white" stroke="black" points="130,-124.5 130,-143.5 228,-143.5 228,-124.5 130,-124.5"/>
<text text-anchor="middle" x="179" y="-131.5" font-family="Helvetica,sans-Serif" font-size="10.00">util/perf&#45;counters.h</text>
</a>
</g>
</g>
<!-- Node1&#45;&gt;Node2 -->
<g id="edge1" class="edge"><title>Node1&#45;&gt;Node2</title>
<path fill="none" stroke="midnightblue" d="M401.168,-180.444C354.921,-170.984 280.388,-155.738 230.564,-145.547"/>
<polygon fill="midnightblue" stroke="midnightblue" points="231.134,-142.091 220.636,-143.516 229.732,-148.949 231.134,-142.091"/>
</g>
<!-- Node3 -->
<g id="node3" class="node"><title>Node3</title>
<polygon fill="white" stroke="#bfbfbf" points="74,-68.5 74,-87.5 128,-87.5 128,-68.5 74,-68.5"/>
<text text-anchor="middle" x="101" y="-75.5" font-family="Helvetica,sans-Serif" font-size="10.00">iostream</text>
</g>
<!-- Node1&#45;&gt;Node3 -->
<g id="edge23" class="edge"><title>Node1&#45;&gt;Node3</title>
<path fill="none" stroke="midnightblue" d="M376.202,-187.897C293.316,-185.163 158.329,-175.799 121,-144 107.678,-132.652 103.078,-112.655 101.566,-97.8289"/>
<polygon fill="midnightblue" stroke="midnightblue" points="105.051,-97.4832 100.919,-87.7277 98.0657,-97.9312 105.051,-97.4832"/>
</g>
<!-- Node6 -->
<g id="node6" class="node"><title>Node6</title>
<g id="a_node6"><a xlink:href="debug-util_8h.html" target="_top" xlink:title="util/debug&#45;util.h">
<polygon fill="white" stroke="black" points="421.5,-68.5 421.5,-87.5 504.5,-87.5 504.5,-68.5 421.5,-68.5"/>
<text text-anchor="middle" x="463" y="-75.5" font-family="Helvetica,sans-Serif" font-size="10.00">util/debug&#45;util.h</text>
</a>
</g>
</g>
<!-- Node1&#45;&gt;Node6 -->
<g id="edge17" class="edge"><title>Node1&#45;&gt;Node6</title>
<path fill="none" stroke="midnightblue" d="M382.972,-180.415C338.921,-171.464 290.406,-154.367 313,-124 335.43,-93.8538 377.358,-83.1418 411.196,-79.6666"/>
<polygon fill="midnightblue" stroke="midnightblue" points="411.736,-83.1336 421.407,-78.8069 411.148,-76.1583 411.736,-83.1336"/>
</g>
<!-- Node8 -->
<g id="node8" class="node"><title>Node8</title>
<polygon fill="white" stroke="#bfbfbf" points="59,-6.5 59,-25.5 111,-25.5 111,-6.5 59,-6.5"/>
<text text-anchor="middle" x="85" y="-13.5" font-family="Helvetica,sans-Serif" font-size="10.00">sstream</text>
</g>
<!-- Node1&#45;&gt;Node8 -->
<g id="edge24" class="edge"><title>Node1&#45;&gt;Node8</title>
<path fill="none" stroke="midnightblue" d="M396.83,-180.487C368.414,-173.744 332.168,-162.334 304,-144 266.013,-119.275 274.137,-92.4933 236,-68 190.58,-38.8287 170.655,-50.6573 120,-32 117.883,-31.2203 115.709,-30.3819 113.53,-29.5143"/>
<polygon fill="midnightblue" stroke="midnightblue" points="114.689,-26.2065 104.111,-25.6156 112.012,-32.6743 114.689,-26.2065"/>
</g>
<!-- Node17 -->
<g id="node17" class="node"><title>Node17</title>
<polygon fill="white" stroke="#bfbfbf" points="322,-124.5 322,-143.5 368,-143.5 368,-124.5 322,-124.5"/>
<text text-anchor="middle" x="345" y="-131.5" font-family="Helvetica,sans-Serif" font-size="10.00">stdio.h</text>
</g>
<!-- Node1&#45;&gt;Node17 -->
<g id="edge18" class="edge"><title>Node1&#45;&gt;Node17</title>
<path fill="none" stroke="midnightblue" d="M427.255,-180.324C411.681,-171.743 387.623,-158.486 369.541,-148.522"/>
<polygon fill="midnightblue" stroke="midnightblue" points="371.154,-145.415 360.706,-143.655 367.776,-151.546 371.154,-145.415"/>
</g>
<!-- Node18 -->
<g id="node18" class="node"><title>Node18</title>
<polygon fill="white" stroke="#bfbfbf" points="386,-124.5 386,-143.5 434,-143.5 434,-124.5 386,-124.5"/>
<text text-anchor="middle" x="410" y="-131.5" font-family="Helvetica,sans-Serif" font-size="10.00">stdlib.h</text>
</g>
<!-- Node1&#45;&gt;Node18 -->
<g id="edge19" class="edge"><title>Node1&#45;&gt;Node18</title>
<path fill="none" stroke="midnightblue" d="M437.551,-180.083C432.986,-172.613 426.332,-161.724 420.707,-152.52"/>
<polygon fill="midnightblue" stroke="midnightblue" points="423.549,-150.459 415.348,-143.751 417.576,-154.109 423.549,-150.459"/>
</g>
<!-- Node19 -->
<g id="node19" class="node"><title>Node19</title>
<polygon fill="white" stroke="#bfbfbf" points="452.5,-124.5 452.5,-143.5 501.5,-143.5 501.5,-124.5 452.5,-124.5"/>
<text text-anchor="middle" x="477" y="-131.5" font-family="Helvetica,sans-Serif" font-size="10.00">string.h</text>
</g>
<!-- Node1&#45;&gt;Node19 -->
<g id="edge20" class="edge"><title>Node1&#45;&gt;Node19</title>
<path fill="none" stroke="midnightblue" d="M448.614,-180.083C453.367,-172.534 460.318,-161.495 466.152,-152.23"/>
<polygon fill="midnightblue" stroke="midnightblue" points="469.124,-154.078 471.49,-143.751 463.2,-150.349 469.124,-154.078"/>
</g>
<!-- Node20 -->
<g id="node20" class="node"><title>Node20</title>
<polygon fill="white" stroke="#bfbfbf" points="520,-124.5 520,-143.5 570,-143.5 570,-124.5 520,-124.5"/>
<text text-anchor="middle" x="545" y="-131.5" font-family="Helvetica,sans-Serif" font-size="10.00">fstream</text>
</g>
<!-- Node1&#45;&gt;Node20 -->
<g id="edge21" class="edge"><title>Node1&#45;&gt;Node20</title>
<path fill="none" stroke="midnightblue" d="M459.388,-180.324C475.671,-171.703 500.867,-158.364 519.716,-148.386"/>
<polygon fill="midnightblue" stroke="midnightblue" points="521.452,-151.427 528.653,-143.655 518.177,-145.24 521.452,-151.427"/>
</g>
<!-- Node21 -->
<g id="node21" class="node"><title>Node21</title>
<polygon fill="white" stroke="#bfbfbf" points="588,-124.5 588,-143.5 638,-143.5 638,-124.5 588,-124.5"/>
<text text-anchor="middle" x="613" y="-131.5" font-family="Helvetica,sans-Serif" font-size="10.00">iomanip</text>
</g>
<!-- Node1&#45;&gt;Node21 -->
<g id="edge22" class="edge"><title>Node1&#45;&gt;Node21</title>
<path fill="none" stroke="midnightblue" d="M469.937,-180.444C499.167,-171.159 545.946,-156.3 578.002,-146.117"/>
<polygon fill="midnightblue" stroke="midnightblue" points="579.38,-149.352 587.852,-142.988 577.261,-142.68 579.38,-149.352"/>
</g>
<!-- Node22 -->
<g id="node22" class="node"><title>Node22</title>
<polygon fill="white" stroke="#bfbfbf" points="656,-124.5 656,-143.5 730,-143.5 730,-124.5 656,-124.5"/>
<text text-anchor="middle" x="693" y="-131.5" font-family="Helvetica,sans-Serif" font-size="10.00">sys/syscall.h</text>
</g>
<!-- Node1&#45;&gt;Node22 -->
<g id="edge25" class="edge"><title>Node1&#45;&gt;Node22</title>
<path fill="none" stroke="midnightblue" d="M482.613,-180.444C526.866,-170.885 598.47,-155.419 645.644,-145.229"/>
<polygon fill="midnightblue" stroke="midnightblue" points="646.578,-148.608 655.614,-143.075 645.1,-141.766 646.578,-148.608"/>
</g>
<!-- Node23 -->
<g id="node23" class="node"><title>Node23</title>
<polygon fill="white" stroke="#bfbfbf" points="748,-124.5 748,-143.5 842,-143.5 842,-124.5 748,-124.5"/>
<text text-anchor="middle" x="795" y="-131.5" font-family="Helvetica,sans-Serif" font-size="10.00">linux/perf_event.h</text>
</g>
<!-- Node1&#45;&gt;Node23 -->
<g id="edge26" class="edge"><title>Node1&#45;&gt;Node23</title>
<path fill="none" stroke="midnightblue" d="M500.043,-180.474C557.513,-171.852 649.024,-158.032 737.962,-144.152"/>
<polygon fill="midnightblue" stroke="midnightblue" points="738.611,-147.593 747.951,-142.591 737.53,-140.677 738.611,-147.593"/>
</g>
<!-- Node24 -->
<g id="node24" class="node"><title>Node24</title>
<g id="a_node24"><a xlink:href="names_8h.html" target="_top" xlink:title="common/names.h">
<polygon fill="white" stroke="black" points="860.5,-124.5 860.5,-143.5 955.5,-143.5 955.5,-124.5 860.5,-124.5"/>
<text text-anchor="middle" x="908" y="-131.5" font-family="Helvetica,sans-Serif" font-size="10.00">common/names.h</text>
</a>
</g>
</g>
<!-- Node1&#45;&gt;Node24 -->
<g id="edge27" class="edge"><title>Node1&#45;&gt;Node24</title>
<path fill="none" stroke="midnightblue" d="M509.545,-182.625C588.274,-174.866 723.558,-160.856 850.172,-144.051"/>
<polygon fill="midnightblue" stroke="midnightblue" points="850.99,-147.473 860.439,-142.68 850.063,-140.535 850.99,-147.473"/>
</g>
<!-- Node2&#45;&gt;Node3 -->
<g id="edge2" class="edge"><title>Node2&#45;&gt;Node3</title>
<path fill="none" stroke="midnightblue" d="M166.468,-124.324C154.414,-115.979 135.973,-103.212 121.731,-93.3524"/>
<polygon fill="midnightblue" stroke="midnightblue" points="123.715,-90.469 113.501,-87.6545 119.731,-96.2243 123.715,-90.469"/>
</g>
<!-- Node4 -->
<g id="node4" class="node"><title>Node4</title>
<polygon fill="white" stroke="#bfbfbf" points="-0.5,-6.5 -0.5,-25.5 40.5,-25.5 40.5,-6.5 -0.5,-6.5"/>
<text text-anchor="middle" x="20" y="-13.5" font-family="Helvetica,sans-Serif" font-size="10.00">string</text>
</g>
<!-- Node2&#45;&gt;Node4 -->
<g id="edge3" class="edge"><title>Node2&#45;&gt;Node4</title>
<path fill="none" stroke="midnightblue" d="M175.409,-124.223C169.38,-110.481 155.992,-83.8262 137,-68 104.853,-41.2108 88.0718,-49.3682 50,-32 48.6424,-31.3807 47.256,-30.7351 45.8602,-30.0746"/>
<polygon fill="midnightblue" stroke="midnightblue" points="47.2401,-26.8536 36.717,-25.6223 44.1754,-33.1471 47.2401,-26.8536"/>
</g>
<!-- Node5 -->
<g id="node5" class="node"><title>Node5</title>
<polygon fill="white" stroke="#bfbfbf" points="184,-68.5 184,-87.5 228,-87.5 228,-68.5 184,-68.5"/>
<text text-anchor="middle" x="206" y="-75.5" font-family="Helvetica,sans-Serif" font-size="10.00">vector</text>
</g>
<!-- Node2&#45;&gt;Node5 -->
<g id="edge4" class="edge"><title>Node2&#45;&gt;Node5</title>
<path fill="none" stroke="midnightblue" d="M183.459,-124.083C187.154,-116.691 192.523,-105.953 197.094,-96.8111"/>
<polygon fill="midnightblue" stroke="midnightblue" points="200.283,-98.2606 201.624,-87.7511 194.022,-95.1301 200.283,-98.2606"/>
</g>
<!-- Node2&#45;&gt;Node6 -->
<g id="edge5" class="edge"><title>Node2&#45;&gt;Node6</title>
<path fill="none" stroke="midnightblue" d="M224.001,-124.444C274.988,-114.749 357.935,-98.9771 411.475,-88.797"/>
<polygon fill="midnightblue" stroke="midnightblue" points="412.274,-92.2079 421.444,-86.9015 410.966,-85.3312 412.274,-92.2079"/>
</g>
<!-- Node6&#45;&gt;Node4 -->
<g id="edge7" class="edge"><title>Node6&#45;&gt;Node4</title>
<path fill="none" stroke="midnightblue" d="M421.315,-77.2827C345.718,-76.7444 181.642,-70.7236 50,-32 48.0308,-31.4207 46.0351,-30.7166 44.0575,-29.933"/>
<polygon fill="midnightblue" stroke="midnightblue" points="45.0761,-26.5496 34.5274,-25.5623 42.158,-32.9124 45.0761,-26.5496"/>
</g>
<!-- Node7 -->
<g id="node7" class="node"><title>Node7</title>
<polygon fill="white" stroke="#bfbfbf" points="543,-6.5 543,-25.5 595,-25.5 595,-6.5 543,-6.5"/>
<text text-anchor="middle" x="569" y="-13.5" font-family="Helvetica,sans-Serif" font-size="10.00">ostream</text>
</g>
<!-- Node6&#45;&gt;Node7 -->
<g id="edge6" class="edge"><title>Node6&#45;&gt;Node7</title>
<path fill="none" stroke="midnightblue" d="M478.187,-68.4035C495.662,-58.5123 524.579,-42.1442 545.083,-30.5378"/>
<polygon fill="midnightblue" stroke="midnightblue" points="546.862,-33.5525 553.841,-25.5806 543.414,-27.4607 546.862,-33.5525"/>
</g>
<!-- Node6&#45;&gt;Node8 -->
<g id="edge8" class="edge"><title>Node6&#45;&gt;Node8</title>
<path fill="none" stroke="midnightblue" d="M421.358,-75.2155C356.078,-71.6022 226.139,-61.1088 120,-32 117.342,-31.2711 114.622,-30.3818 111.93,-29.4037"/>
<polygon fill="midnightblue" stroke="midnightblue" points="113.05,-26.082 102.467,-25.6001 110.44,-32.577 113.05,-26.082"/>
</g>
<!-- Node9 -->
<g id="node9" class="node"><title>Node9</title>
<polygon fill="white" stroke="#bfbfbf" points="613.5,-1 613.5,-31 714.5,-31 714.5,-1 613.5,-1"/>
<text text-anchor="start" x="621.5" y="-19" font-family="Helvetica,sans-Serif" font-size="10.00">gen&#45;cpp/JniCatalog</text>
<text text-anchor="middle" x="664" y="-8" font-family="Helvetica,sans-Serif" font-size="10.00">_types.h</text>
</g>
<!-- Node6&#45;&gt;Node9 -->
<g id="edge9" class="edge"><title>Node6&#45;&gt;Node9</title>
<path fill="none" stroke="midnightblue" d="M491.798,-68.4035C521.792,-59.4501 569.564,-45.1897 607.191,-33.9579"/>
<polygon fill="midnightblue" stroke="midnightblue" points="608.434,-37.2395 617.015,-31.0253 606.432,-30.532 608.434,-37.2395"/>
</g>
<!-- Node10 -->
<g id="node10" class="node"><title>Node10</title>
<polygon fill="white" stroke="#bfbfbf" points="733,-1 733,-31 837,-31 837,-1 733,-1"/>
<text text-anchor="start" x="741" y="-19" font-family="Helvetica,sans-Serif" font-size="10.00">gen&#45;cpp/Descriptors</text>
<text text-anchor="middle" x="785" y="-8" font-family="Helvetica,sans-Serif" font-size="10.00">_types.h</text>
</g>
<!-- Node6&#45;&gt;Node10 -->
<g id="edge10" class="edge"><title>Node6&#45;&gt;Node10</title>
<path fill="none" stroke="midnightblue" d="M504.588,-70.6696C556.056,-62.6359 646.295,-47.8986 723,-32 723.102,-31.9789 723.203,-31.9578 723.305,-31.9366"/>
<polygon fill="midnightblue" stroke="midnightblue" points="723.924,-35.3838 732.961,-29.8538 722.448,-28.5412 723.924,-35.3838"/>
</g>
<!-- Node11 -->
<g id="node11" class="node"><title>Node11</title>
<polygon fill="white" stroke="#bfbfbf" points="855.5,-6.5 855.5,-25.5 972.5,-25.5 972.5,-6.5 855.5,-6.5"/>
<text text-anchor="middle" x="914" y="-13.5" font-family="Helvetica,sans-Serif" font-size="10.00">gen&#45;cpp/Exprs_types.h</text>
</g>
<!-- Node6&#45;&gt;Node11 -->
<g id="edge11" class="edge"><title>Node6&#45;&gt;Node11</title>
<path fill="none" stroke="midnightblue" d="M504.567,-73.4914C575.087,-67.232 722.545,-52.8151 846,-32 853.294,-30.7702 860.986,-29.2713 868.469,-27.7023"/>
<polygon fill="midnightblue" stroke="midnightblue" points="869.452,-31.0709 878.487,-25.5379 867.973,-24.2288 869.452,-31.0709"/>
</g>
<!-- Node12 -->
<g id="node12" class="node"><title>Node12</title>
<polygon fill="white" stroke="#bfbfbf" points="991,-6.5 991,-25.5 1121,-25.5 1121,-6.5 991,-6.5"/>
<text text-anchor="middle" x="1056" y="-13.5" font-family="Helvetica,sans-Serif" font-size="10.00">gen&#45;cpp/Frontend_types.h</text>
</g>
<!-- Node6&#45;&gt;Node12 -->
<g id="edge12" class="edge"><title>Node6&#45;&gt;Node12</title>
<path fill="none" stroke="midnightblue" d="M504.808,-74.9421C593.108,-70.2506 804.96,-57.1716 981,-32 989.691,-30.7573 998.896,-29.1559 1007.77,-27.4641"/>
<polygon fill="midnightblue" stroke="midnightblue" points="1008.46,-30.8944 1017.6,-25.5298 1007.11,-24.026 1008.46,-30.8944"/>
</g>
<!-- Node13 -->
<g id="node13" class="node"><title>Node13</title>
<polygon fill="white" stroke="#bfbfbf" points="1139,-6.5 1139,-25.5 1279,-25.5 1279,-6.5 1139,-6.5"/>
<text text-anchor="middle" x="1209" y="-13.5" font-family="Helvetica,sans-Serif" font-size="10.00">gen&#45;cpp/PlanNodes_types.h</text>
</g>
<!-- Node6&#45;&gt;Node13 -->
<g id="edge13" class="edge"><title>Node6&#45;&gt;Node13</title>
<path fill="none" stroke="midnightblue" d="M504.538,-75.9335C609.65,-72.8585 894.58,-62.1802 1130,-32 1139.45,-30.7879 1149.49,-29.1553 1159.11,-27.4127"/>
<polygon fill="midnightblue" stroke="midnightblue" points="1159.77,-30.8499 1168.96,-25.5699 1158.49,-23.9694 1159.77,-30.8499"/>
</g>
<!-- Node14 -->
<g id="node14" class="node"><title>Node14</title>
<polygon fill="white" stroke="#bfbfbf" points="129.5,-1 129.5,-31 248.5,-31 248.5,-1 129.5,-1"/>
<text text-anchor="start" x="137.5" y="-19" font-family="Helvetica,sans-Serif" font-size="10.00">gen&#45;cpp/RuntimeProfile</text>
<text text-anchor="middle" x="189" y="-8" font-family="Helvetica,sans-Serif" font-size="10.00">_types.h</text>
</g>
<!-- Node6&#45;&gt;Node14 -->
<g id="edge14" class="edge"><title>Node6&#45;&gt;Node14</title>
<path fill="none" stroke="midnightblue" d="M424.033,-68.4672C381.074,-59.0601 311.109,-43.7392 258.665,-32.2551"/>
<polygon fill="midnightblue" stroke="midnightblue" points="259.272,-28.8053 248.755,-30.0851 257.775,-35.6432 259.272,-28.8053"/>
</g>
<!-- Node15 -->
<g id="node15" class="node"><title>Node15</title>
<polygon fill="white" stroke="#bfbfbf" points="267,-1 267,-31 383,-31 383,-1 267,-1"/>
<text text-anchor="start" x="275" y="-19" font-family="Helvetica,sans-Serif" font-size="10.00">gen&#45;cpp/ImpalaService</text>
<text text-anchor="middle" x="325" y="-8" font-family="Helvetica,sans-Serif" font-size="10.00">_types.h</text>
</g>
<!-- Node6&#45;&gt;Node15 -->
<g id="edge15" class="edge"><title>Node6&#45;&gt;Node15</title>
<path fill="none" stroke="midnightblue" d="M443.228,-68.4035C423.336,-59.7549 392.055,-46.1545 366.665,-35.1152"/>
<polygon fill="midnightblue" stroke="midnightblue" points="367.824,-31.8029 357.258,-31.0253 365.033,-38.2224 367.824,-31.8029"/>
</g>
<!-- Node16 -->
<g id="node16" class="node"><title>Node16</title>
<polygon fill="white" stroke="#bfbfbf" points="401,-6.5 401,-25.5 525,-25.5 525,-6.5 401,-6.5"/>
<text text-anchor="middle" x="463" y="-13.5" font-family="Helvetica,sans-Serif" font-size="10.00">gen&#45;cpp/parquet_types.h</text>
</g>
<!-- Node6&#45;&gt;Node16 -->
<g id="edge16" class="edge"><title>Node6&#45;&gt;Node16</title>
<path fill="none" stroke="midnightblue" d="M463,-68.4035C463,-59.9381 463,-46.7283 463,-35.8199"/>
<polygon fill="midnightblue" stroke="midnightblue" points="466.5,-35.5806 463,-25.5806 459.5,-35.5806 466.5,-35.5806"/>
</g>
<!-- Node25 -->
<g id="node25" class="node"><title>Node25</title>
<polygon fill="white" stroke="#bfbfbf" points="861,-68.5 861,-87.5 955,-87.5 955,-68.5 861,-68.5"/>
<text text-anchor="middle" x="908" y="-75.5" font-family="Helvetica,sans-Serif" font-size="10.00">boost/version.hpp</text>
</g>
<!-- Node24&#45;&gt;Node25 -->
<g id="edge28" class="edge"><title>Node24&#45;&gt;Node25</title>
<path fill="none" stroke="midnightblue" d="M908,-124.083C908,-117.006 908,-106.861 908,-97.9865"/>
<polygon fill="midnightblue" stroke="midnightblue" points="911.5,-97.751 908,-87.7511 904.5,-97.7511 911.5,-97.751"/>
</g>
</g>
</svg>
        <g id="navigator" transform="translate(0 0)" fill="#404254">
                <rect fill="#f2f5e9" fill-opacity="0.5" stroke="#606060" stroke-width=".5" x="0" y="0" width="60" height="60"/>
                <use id="zoomplus" xlink:href="#zoomPlus" x="17" y="9" onmousedown="handleZoom(evt,'in')"/>
                <use id="zoomminus" xlink:href="#zoomMin" x="42" y="9" onmousedown="handleZoom(evt,'out')"/>
                <use id="reset" xlink:href="#resetDef" x="30" y="36" onmousedown="handleReset()"/>
                <g id="arrowUp" xlink:href="#dirArrow" transform="translate(30 24)" onmousedown="handlePan(0,-1)">
                  <use xlink:href="#rim" fill="#404040">
                        <set attributeName="fill" to="#808080" begin="arrowUp.mouseover" end="arrowUp.mouseout"/>
                  </use>
                  <path fill="none" stroke="white" stroke-width="1.5" d="M0,-3.0v7 M-2.5,-0.5L0,-3.0L2.5,-0.5"/>
                </g>
                <g id="arrowRight" xlink:href="#dirArrow" transform="rotate(90) translate(36 -43)" onmousedown="handlePan(1,0)">
                  <use xlink:href="#rim" fill="#404040">
                        <set attributeName="fill" to="#808080" begin="arrowRight.mouseover" end="arrowRight.mouseout"/>
                  </use>
                  <path fill="none" stroke="white" stroke-width="1.5" d="M0,-3.0v7 M-2.5,-0.5L0,-3.0L2.5,-0.5"/>
                </g>
                <g id="arrowDown" xlink:href="#dirArrow" transform="rotate(180) translate(-30 -48)" onmousedown="handlePan(0,1)">
                  <use xlink:href="#rim" fill="#404040">
                        <set attributeName="fill" to="#808080" begin="arrowDown.mouseover" end="arrowDown.mouseout"/>
                  </use>
                  <path fill="none" stroke="white" stroke-width="1.5" d="M0,-3.0v7 M-2.5,-0.5L0,-3.0L2.5,-0.5"/>
                </g>
                <g id="arrowLeft" xlink:href="#dirArrow" transform="rotate(270) translate(-36 17)" onmousedown="handlePan(-1,0)">
                  <use xlink:href="#rim" fill="#404040">
                        <set attributeName="fill" to="#808080" begin="arrowLeft.mouseover" end="arrowLeft.mouseout"/>
                  </use>
                  <path fill="none" stroke="white" stroke-width="1.5" d="M0,-3.0v7 M-2.5,-0.5L0,-3.0L2.5,-0.5"/>
                </g>
        </g>
        <svg viewBox="0 0 15 15" width="100%" height="30px" preserveAspectRatio="xMaxYMin meet">
         <g id="arrow_out" transform="scale(0.3 0.3)">
          <a xlink:href="perf-counters_8cc__incl_org.svg" target="_base">
           <rect id="button" ry="5" rx="5" y="6" x="6" height="38" width="38"
                fill="#f2f5e9" fill-opacity="0.5" stroke="#606060" stroke-width="1.0"/>
           <path id="arrow"
             d="M 11.500037,31.436501 C 11.940474,20.09759 22.043105,11.32322 32.158766,21.979434 L 37.068811,17.246167 C 37.068811,17.246167 37.088388,32 37.088388,32 L 22.160133,31.978069 C 22.160133,31.978069 26.997745,27.140456 26.997745,27.140456 C 18.528582,18.264221 13.291696,25.230495 11.500037,31.436501 z"
             style="fill:#404040;"/>
          </a>
         </g>
        </svg>
</svg>
