<?xml version="1.0" encoding="UTF-8" standalone="no"?>
<!DOCTYPE svg PUBLIC "-//W3C//DTD SVG 1.1//EN"
 "http://www.w3.org/Graphics/SVG/1.1/DTD/svg11.dtd">
<!-- Generated by graphviz version 2.36.0 (20140111.2315)
 -->
<!-- Title: be/src/util/process&#45;state&#45;info.h Pages: 1 -->
<svg width="362pt" height="108pt"
 viewBox="0.00 0.00 362.00 108.00" xmlns="http://www.w3.org/2000/svg" xmlns:xlink="http://www.w3.org/1999/xlink">
<g id="graph0" class="graph" transform="scale(1 1) rotate(0) translate(4 104)">
<title>be/src/util/process&#45;state&#45;info.h</title>
<polygon fill="white" stroke="none" points="-4,4 -4,-104 358,-104 358,4 -4,4"/>
<!-- Node1 -->
<g id="node1" class="node"><title>Node1</title>
<polygon fill="#bfbfbf" stroke="black" points="118.5,-69 118.5,-99 215.5,-99 215.5,-69 118.5,-69"/>
<text text-anchor="start" x="126.5" y="-87" font-family="Helvetica,sans-Serif" font-size="10.00">be/src/util/process</text>
<text text-anchor="middle" x="167" y="-76" font-family="Helvetica,sans-Serif" font-size="10.00">&#45;state&#45;info.h</text>
</g>
<!-- Node2 -->
<g id="node2" class="node"><title>Node2</title>
<g id="a_node2"><a xlink:href="proc-info-test_8cc.html" target="_top" xlink:title="be/src/util/proc&#45;info\l&#45;test.cc">
<polygon fill="white" stroke="black" points="0,-1 0,-31 100,-31 100,-1 0,-1"/>
<text text-anchor="start" x="8" y="-19" font-family="Helvetica,sans-Serif" font-size="10.00">be/src/util/proc&#45;info</text>
<text text-anchor="middle" x="50" y="-8" font-family="Helvetica,sans-Serif" font-size="10.00">&#45;test.cc</text>
</a>
</g>
</g>
<!-- Node1&#45;&gt;Node2 -->
<g id="edge1" class="edge"><title>Node1&#45;&gt;Node2</title>
<path fill="none" stroke="midnightblue" d="M133.162,-63.912C114.613,-53.4481 92.0134,-40.6999 75.0579,-31.1352"/>
<polygon fill="midnightblue" stroke="midnightblue" points="131.471,-66.9765 141.901,-68.8413 134.91,-60.8797 131.471,-66.9765"/>
</g>
<!-- Node3 -->
<g id="node3" class="node"><title>Node3</title>
<g id="a_node3"><a xlink:href="process-state-info_8cc.html" target="_top" xlink:title="be/src/util/process\l&#45;state&#45;info.cc">
<polygon fill="white" stroke="black" points="118.5,-1 118.5,-31 215.5,-31 215.5,-1 118.5,-1"/>
<text text-anchor="start" x="126.5" y="-19" font-family="Helvetica,sans-Serif" font-size="10.00">be/src/util/process</text>
<text text-anchor="middle" x="167" y="-8" font-family="Helvetica,sans-Serif" font-size="10.00">&#45;state&#45;info.cc</text>
</a>
</g>
</g>
<!-- Node1&#45;&gt;Node3 -->
<g id="edge2" class="edge"><title>Node1&#45;&gt;Node3</title>
<path fill="none" stroke="midnightblue" d="M167,-58.5322C167,-49.3606 167,-39.2449 167,-31.2931"/>
<polygon fill="midnightblue" stroke="midnightblue" points="163.5,-58.6789 167,-68.679 170.5,-58.679 163.5,-58.6789"/>
</g>
<!-- Node4 -->
<g id="node4" class="node"><title>Node4</title>
<g id="a_node4"><a xlink:href="webserver_8cc.html" target="_top" xlink:title="be/src/util/webserver.cc">
<polygon fill="white" stroke="black" points="233.5,-6.5 233.5,-25.5 354.5,-25.5 354.5,-6.5 233.5,-6.5"/>
<text text-anchor="middle" x="294" y="-13.5" font-family="Helvetica,sans-Serif" font-size="10.00">be/src/util/webserver.cc</text>
</a>
</g>
</g>
<!-- Node1&#45;&gt;Node4 -->
<g id="edge3" class="edge"><title>Node1&#45;&gt;Node4</title>
<path fill="none" stroke="midnightblue" d="M203.217,-64.1784C227.576,-51.5196 258.548,-35.4238 277.294,-25.6819"/>
<polygon fill="midnightblue" stroke="midnightblue" points="201.504,-61.1243 194.245,-68.8413 204.732,-67.3356 201.504,-61.1243"/>
</g>
</g>
</svg>
