<?xml version="1.0" encoding="UTF-8" standalone="no"?>
<!DOCTYPE svg PUBLIC "-//W3C//DTD SVG 1.1//EN"
 "http://www.w3.org/Graphics/SVG/1.1/DTD/svg11.dtd">
<!-- Generated by graphviz version 2.36.0 (20140111.2315)
 -->
<!-- Title: be/src/service/query&#45;options.cc Pages: 1 -->
<!--zoomable 300 -->
<svg id="main" version="1.1" xmlns="http://www.w3.org/2000/svg" xmlns:xlink="http://www.w3.org/1999/xlink" xml:space="preserve" onload="init(evt)">
<style type="text/css"><![CDATA[
.edge:hover path { stroke: red; }
.edge:hover polygon { stroke: red; fill: red; }
]]></style>
<script type="text/javascript"><![CDATA[
var edges = document.getElementsByTagName('g');
if (edges && edges.length) {
  for (var i=0;i<edges.length;i++) {
    if (edges[i].id.substr(0,4)=='edge') {
      edges[i].setAttribute('class','edge');
    }
  }
}
]]></script>
        <defs>
                <circle id="rim" cx="0" cy="0" r="7"/>
                <circle id="rim2" cx="0" cy="0" r="3.5"/>
                <g id="zoomPlus">
                        <use xlink:href="#rim" fill="#404040">
                                <set attributeName="fill" to="#808080" begin="zoomplus.mouseover" end="zoomplus.mouseout"/>
                        </use>
                        <path d="M-4,0h8M0,-4v8" fill="none" stroke="white" stroke-width="1.5" pointer-events="none"/>
                </g>
                <g id="zoomMin">
                        <use xlink:href="#rim" fill="#404040">
                                <set attributeName="fill" to="#808080" begin="zoomminus.mouseover" end="zoomminus.mouseout"/>
                        </use>
                        <path d="M-4,0h8" fill="none" stroke="white" stroke-width="1.5" pointer-events="none"/>
                </g>
                <g id="dirArrow">
                        <path fill="none" stroke="white" stroke-width="1.5" d="M0,-3.0v7 M-2.5,-0.5L0,-3.0L2.5,-0.5"/>
                </g>
               <g id="resetDef">
                       <use xlink:href="#rim2" fill="#404040">
                               <set attributeName="fill" to="#808080" begin="reset.mouseover" end="reset.mouseout"/>
                       </use>
               </g>
        </defs>

<script type="text/javascript">
var viewWidth = 2428;
var viewHeight = 300;
var sectionId = 'dynsection-0';
</script>
<script xlink:href="svgpan.js"/>
<svg id="graph" class="graph">
<g id="viewport">
<title>be/src/service/query&#45;options.cc</title>
<polygon fill="white" stroke="none" points="-4,4 -4,-296 2424,-296 2424,4 -4,4"/>
<!-- Node1 -->
<g id="node1" class="node"><title>Node1</title>
<polygon fill="#bfbfbf" stroke="black" points="1030.5,-261 1030.5,-291 1135.5,-291 1135.5,-261 1030.5,-261"/>
<text text-anchor="start" x="1038.5" y="-279" font-family="Helvetica,sans-Serif" font-size="10.00">be/src/service/query</text>
<text text-anchor="middle" x="1083" y="-268" font-family="Helvetica,sans-Serif" font-size="10.00">&#45;options.cc</text>
</g>
<!-- Node2 -->
<g id="node2" class="node"><title>Node2</title>
<g id="a_node2"><a xlink:href="query-options_8h.html" target="_top" xlink:title="service/query&#45;options.h">
<polygon fill="white" stroke="black" points="384,-204.5 384,-223.5 502,-223.5 502,-204.5 384,-204.5"/>
<text text-anchor="middle" x="443" y="-211.5" font-family="Helvetica,sans-Serif" font-size="10.00">service/query&#45;options.h</text>
</a>
</g>
</g>
<!-- Node1&#45;&gt;Node2 -->
<g id="edge1" class="edge"><title>Node1&#45;&gt;Node2</title>
<path fill="none" stroke="midnightblue" d="M1030.35,-270.064C915.213,-259.27 641.032,-233.566 512.166,-221.484"/>
<polygon fill="midnightblue" stroke="midnightblue" points="512.305,-217.982 502.022,-220.533 511.652,-224.952 512.305,-217.982"/>
</g>
<!-- Node19 -->
<g id="node19" class="node"><title>Node19</title>
<polygon fill="white" stroke="#bfbfbf" points="1040.5,-1 1040.5,-31 1189.5,-31 1189.5,-1 1040.5,-1"/>
<text text-anchor="start" x="1048.5" y="-19" font-family="Helvetica,sans-Serif" font-size="10.00">gen&#45;cpp/ImpalaInternalService</text>
<text text-anchor="middle" x="1115" y="-8" font-family="Helvetica,sans-Serif" font-size="10.00">_types.h</text>
</g>
<!-- Node1&#45;&gt;Node19 -->
<g id="edge44" class="edge"><title>Node1&#45;&gt;Node19</title>
<path fill="none" stroke="midnightblue" d="M1068.88,-260.791C1060.45,-251.262 1050.52,-237.942 1046,-224 1024.6,-158.053 1014.78,-129.905 1046,-68 1052.53,-55.05 1064.08,-44.5732 1075.88,-36.5616"/>
<polygon fill="midnightblue" stroke="midnightblue" points="1077.85,-39.4551 1084.44,-31.1635 1074.12,-33.5324 1077.85,-39.4551"/>
</g>
<!-- Node20 -->
<g id="node20" class="node"><title>Node20</title>
<polygon fill="white" stroke="#bfbfbf" points="1207.5,-6.5 1207.5,-25.5 1328.5,-25.5 1328.5,-6.5 1207.5,-6.5"/>
<text text-anchor="middle" x="1268" y="-13.5" font-family="Helvetica,sans-Serif" font-size="10.00">gutil/strings/substitute.h</text>
</g>
<!-- Node1&#45;&gt;Node20 -->
<g id="edge48" class="edge"><title>Node1&#45;&gt;Node20</title>
<path fill="none" stroke="midnightblue" d="M1078.17,-260.89C1070.05,-234.477 1056.6,-176.579 1079,-136 1110.78,-78.4429 1183.37,-44.926 1228.77,-28.8536"/>
<polygon fill="midnightblue" stroke="midnightblue" points="1229.97,-32.1427 1238.3,-25.5949 1227.71,-25.5194 1229.97,-32.1427"/>
</g>
<!-- Node21 -->
<g id="node21" class="node"><title>Node21</title>
<g id="a_node21"><a xlink:href="debug-util_8h.html" target="_top" xlink:title="util/debug&#45;util.h">
<polygon fill="white" stroke="black" points="1381.5,-204.5 1381.5,-223.5 1464.5,-223.5 1464.5,-204.5 1381.5,-204.5"/>
<text text-anchor="middle" x="1423" y="-211.5" font-family="Helvetica,sans-Serif" font-size="10.00">util/debug&#45;util.h</text>
</a>
</g>
</g>
<!-- Node1&#45;&gt;Node21 -->
<g id="edge25" class="edge"><title>Node1&#45;&gt;Node21</title>
<path fill="none" stroke="midnightblue" d="M1135.75,-265.691C1199.89,-254.372 1307.44,-235.393 1371.16,-224.148"/>
<polygon fill="midnightblue" stroke="midnightblue" points="1372.14,-227.529 1381.38,-222.345 1370.92,-220.636 1372.14,-227.529"/>
</g>
<!-- Node23 -->
<g id="node23" class="node"><title>Node23</title>
<polygon fill="white" stroke="#bfbfbf" points="1088,-142.5 1088,-161.5 1140,-161.5 1140,-142.5 1088,-142.5"/>
<text text-anchor="middle" x="1114" y="-149.5" font-family="Helvetica,sans-Serif" font-size="10.00">sstream</text>
</g>
<!-- Node1&#45;&gt;Node23 -->
<g id="edge45" class="edge"><title>Node1&#45;&gt;Node23</title>
<path fill="none" stroke="midnightblue" d="M1086.68,-260.526C1092.32,-238.303 1103.13,-195.798 1109.32,-171.414"/>
<polygon fill="midnightblue" stroke="midnightblue" points="1112.74,-172.177 1111.81,-161.623 1105.95,-170.453 1112.74,-172.177"/>
</g>
<!-- Node32 -->
<g id="node32" class="node"><title>Node32</title>
<g id="a_node32"><a xlink:href="mem-info_8h.html" target="_top" xlink:title="util/mem&#45;info.h">
<polygon fill="white" stroke="black" points="135.5,-142.5 135.5,-161.5 216.5,-161.5 216.5,-142.5 135.5,-142.5"/>
<text text-anchor="middle" x="176" y="-149.5" font-family="Helvetica,sans-Serif" font-size="10.00">util/mem&#45;info.h</text>
</a>
</g>
</g>
<!-- Node1&#45;&gt;Node32 -->
<g id="edge37" class="edge"><title>Node1&#45;&gt;Node32</title>
<path fill="none" stroke="midnightblue" d="M1030.38,-273.056C888.489,-267.519 500.27,-250.348 375,-224 312.062,-210.762 241.99,-182.353 204.078,-165.763"/>
<polygon fill="midnightblue" stroke="midnightblue" points="205.274,-162.465 194.713,-161.618 202.44,-168.866 205.274,-162.465"/>
</g>
<!-- Node33 -->
<g id="node33" class="node"><title>Node33</title>
<g id="a_node33"><a xlink:href="parse-util_8h.html" target="_top" xlink:title="util/parse&#45;util.h">
<polygon fill="white" stroke="black" points="0,-74.5 0,-93.5 80,-93.5 80,-74.5 0,-74.5"/>
<text text-anchor="middle" x="40" y="-81.5" font-family="Helvetica,sans-Serif" font-size="10.00">util/parse&#45;util.h</text>
</a>
</g>
</g>
<!-- Node1&#45;&gt;Node33 -->
<g id="edge41" class="edge"><title>Node1&#45;&gt;Node33</title>
<path fill="none" stroke="midnightblue" d="M1030.4,-273.198C878.985,-267.751 443.962,-250.205 304,-224 222.483,-208.737 197.294,-210.371 126,-168 96.1262,-150.246 68.533,-120.199 53.0218,-101.541"/>
<polygon fill="midnightblue" stroke="midnightblue" points="55.6193,-99.1876 46.6004,-93.628 50.1838,-103.598 55.6193,-99.1876"/>
</g>
<!-- Node34 -->
<g id="node34" class="node"><title>Node34</title>
<polygon fill="white" stroke="#bfbfbf" points="1482.5,-204.5 1482.5,-223.5 1577.5,-223.5 1577.5,-204.5 1482.5,-204.5"/>
<text text-anchor="middle" x="1530" y="-211.5" font-family="Helvetica,sans-Serif" font-size="10.00">boost/foreach.hpp</text>
</g>
<!-- Node1&#45;&gt;Node34 -->
<g id="edge46" class="edge"><title>Node1&#45;&gt;Node34</title>
<path fill="none" stroke="midnightblue" d="M1135.73,-268.555C1208.84,-259.521 1345.37,-242.288 1472.51,-224.036"/>
<polygon fill="midnightblue" stroke="midnightblue" points="1473.03,-227.498 1482.43,-222.608 1472.03,-220.57 1473.03,-227.498"/>
</g>
<!-- Node35 -->
<g id="node35" class="node"><title>Node35</title>
<polygon fill="white" stroke="#bfbfbf" points="1595.5,-204.5 1595.5,-223.5 1724.5,-223.5 1724.5,-204.5 1595.5,-204.5"/>
<text text-anchor="middle" x="1660" y="-211.5" font-family="Helvetica,sans-Serif" font-size="10.00">boost/algorithm/string.hpp</text>
</g>
<!-- Node1&#45;&gt;Node35 -->
<g id="edge47" class="edge"><title>Node1&#45;&gt;Node35</title>
<path fill="none" stroke="midnightblue" d="M1135.54,-270.022C1225.34,-261.436 1414.41,-243.028 1585.49,-224.036"/>
<polygon fill="midnightblue" stroke="midnightblue" points="1585.88,-227.514 1595.43,-222.93 1585.11,-220.557 1585.88,-227.514"/>
</g>
<!-- Node36 -->
<g id="node36" class="node"><title>Node36</title>
<g id="a_node36"><a xlink:href="names_8h.html" target="_top" xlink:title="common/names.h">
<polygon fill="white" stroke="black" points="2068.5,-204.5 2068.5,-223.5 2163.5,-223.5 2163.5,-204.5 2068.5,-204.5"/>
<text text-anchor="middle" x="2116" y="-211.5" font-family="Helvetica,sans-Serif" font-size="10.00">common/names.h</text>
</a>
</g>
</g>
<!-- Node1&#45;&gt;Node36 -->
<g id="edge49" class="edge"><title>Node1&#45;&gt;Node36</title>
<path fill="none" stroke="midnightblue" d="M1135.65,-271.942C1311.09,-261.752 1875.05,-228.995 2058.06,-218.365"/>
<polygon fill="midnightblue" stroke="midnightblue" points="2058.51,-221.845 2068.29,-217.771 2058.1,-214.857 2058.51,-221.845"/>
</g>
<!-- Node3 -->
<g id="node3" class="node"><title>Node3</title>
<polygon fill="white" stroke="#bfbfbf" points="315.5,-6.5 315.5,-25.5 356.5,-25.5 356.5,-6.5 315.5,-6.5"/>
<text text-anchor="middle" x="336" y="-13.5" font-family="Helvetica,sans-Serif" font-size="10.00">string</text>
</g>
<!-- Node2&#45;&gt;Node3 -->
<g id="edge2" class="edge"><title>Node2&#45;&gt;Node3</title>
<path fill="none" stroke="midnightblue" d="M383.868,-205.623C360.611,-199.501 336.134,-188.337 322,-168 293.909,-127.582 314.314,-65.6642 327.364,-35.2059"/>
<polygon fill="midnightblue" stroke="midnightblue" points="330.671,-36.3869 331.582,-25.8313 324.287,-33.5148 330.671,-36.3869"/>
</g>
<!-- Node4 -->
<g id="node4" class="node"><title>Node4</title>
<polygon fill="white" stroke="#bfbfbf" points="234.5,-142.5 234.5,-161.5 269.5,-161.5 269.5,-142.5 234.5,-142.5"/>
<text text-anchor="middle" x="252" y="-149.5" font-family="Helvetica,sans-Serif" font-size="10.00">map</text>
</g>
<!-- Node2&#45;&gt;Node4 -->
<g id="edge3" class="edge"><title>Node2&#45;&gt;Node4</title>
<path fill="none" stroke="midnightblue" d="M406.467,-204.459C373.886,-196.419 325.125,-183.342 284,-168 282.146,-167.308 280.251,-166.553 278.356,-165.761"/>
<polygon fill="midnightblue" stroke="midnightblue" points="279.611,-162.489 269.052,-161.619 276.764,-168.883 279.611,-162.489"/>
</g>
<!-- Node5 -->
<g id="node5" class="node"><title>Node5</title>
<g id="a_node5"><a xlink:href="status_8h.html" target="_top" xlink:title="common/status.h">
<polygon fill="white" stroke="black" points="611,-142.5 611,-161.5 703,-161.5 703,-142.5 611,-142.5"/>
<text text-anchor="middle" x="657" y="-149.5" font-family="Helvetica,sans-Serif" font-size="10.00">common/status.h</text>
</a>
</g>
</g>
<!-- Node2&#45;&gt;Node5 -->
<g id="edge4" class="edge"><title>Node2&#45;&gt;Node5</title>
<path fill="none" stroke="midnightblue" d="M473.661,-204.403C511.244,-193.866 575.044,-175.978 616.598,-164.328"/>
<polygon fill="midnightblue" stroke="midnightblue" points="617.712,-167.65 626.396,-161.581 615.822,-160.91 617.712,-167.65"/>
</g>
<!-- Node5&#45;&gt;Node3 -->
<g id="edge5" class="edge"><title>Node5&#45;&gt;Node3</title>
<path fill="none" stroke="midnightblue" d="M610.853,-146.333C545.031,-138.971 428.241,-123.085 393,-100 368.83,-84.1672 352.109,-54.1776 343.294,-34.9133"/>
<polygon fill="midnightblue" stroke="midnightblue" points="346.495,-33.4968 339.31,-25.7103 340.071,-36.2778 346.495,-33.4968"/>
</g>
<!-- Node6 -->
<g id="node6" class="node"><title>Node6</title>
<polygon fill="white" stroke="#bfbfbf" points="979,-6.5 979,-25.5 1023,-25.5 1023,-6.5 979,-6.5"/>
<text text-anchor="middle" x="1001" y="-13.5" font-family="Helvetica,sans-Serif" font-size="10.00">vector</text>
</g>
<!-- Node5&#45;&gt;Node6 -->
<g id="edge6" class="edge"><title>Node5&#45;&gt;Node6</title>
<path fill="none" stroke="midnightblue" d="M703.055,-148.697C778.732,-144.057 925,-131.226 965,-100 985.182,-84.2452 994.258,-54.9018 998.189,-35.6626"/>
<polygon fill="midnightblue" stroke="midnightblue" points="1001.66,-36.1383 999.954,-25.6816 994.766,-34.9193 1001.66,-36.1383"/>
</g>
<!-- Node7 -->
<g id="node7" class="node"><title>Node7</title>
<polygon fill="white" stroke="#bfbfbf" points="463,-6.5 463,-25.5 577,-25.5 577,-6.5 463,-6.5"/>
<text text-anchor="middle" x="520" y="-13.5" font-family="Helvetica,sans-Serif" font-size="10.00">boost/lexical_cast.hpp</text>
</g>
<!-- Node5&#45;&gt;Node7 -->
<g id="edge7" class="edge"><title>Node5&#45;&gt;Node7</title>
<path fill="none" stroke="midnightblue" d="M699.317,-142.407C750.243,-130.203 825.251,-105.125 794,-68 763.791,-32.1129 631.998,-41.2012 586,-32 579.42,-30.6837 572.491,-29.2082 565.696,-27.7101"/>
<polygon fill="midnightblue" stroke="midnightblue" points="566.417,-24.2849 555.894,-25.5148 564.887,-31.1156 566.417,-24.2849"/>
</g>
<!-- Node8 -->
<g id="node8" class="node"><title>Node8</title>
<g id="a_node8"><a xlink:href="logging_8h.html" target="_top" xlink:title="common/logging.h">
<polygon fill="white" stroke="black" points="136,-74.5 136,-93.5 232,-93.5 232,-74.5 136,-74.5"/>
<text text-anchor="middle" x="184" y="-81.5" font-family="Helvetica,sans-Serif" font-size="10.00">common/logging.h</text>
</a>
</g>
</g>
<!-- Node5&#45;&gt;Node8 -->
<g id="edge8" class="edge"><title>Node5&#45;&gt;Node8</title>
<path fill="none" stroke="midnightblue" d="M610.786,-144.551C524.099,-132.456 337.284,-106.389 242.183,-93.1185"/>
<polygon fill="midnightblue" stroke="midnightblue" points="242.55,-89.6359 232.162,-91.7203 241.582,-96.5687 242.55,-89.6359"/>
</g>
<!-- Node11 -->
<g id="node11" class="node"><title>Node11</title>
<g id="a_node11"><a xlink:href="compiler-util_8h.html" target="_top" xlink:title="common/compiler&#45;util.h">
<polygon fill="white" stroke="black" points="530,-74.5 530,-93.5 648,-93.5 648,-74.5 530,-74.5"/>
<text text-anchor="middle" x="589" y="-81.5" font-family="Helvetica,sans-Serif" font-size="10.00">common/compiler&#45;util.h</text>
</a>
</g>
</g>
<!-- Node5&#45;&gt;Node11 -->
<g id="edge11" class="edge"><title>Node5&#45;&gt;Node11</title>
<path fill="none" stroke="midnightblue" d="M648.11,-142.372C637.276,-131.856 618.757,-113.882 605.33,-100.85"/>
<polygon fill="midnightblue" stroke="midnightblue" points="607.723,-98.2944 598.109,-93.8411 602.847,-103.317 607.723,-98.2944"/>
</g>
<!-- Node12 -->
<g id="node12" class="node"><title>Node12</title>
<polygon fill="white" stroke="#bfbfbf" points="666,-74.5 666,-93.5 786,-93.5 786,-74.5 666,-74.5"/>
<text text-anchor="middle" x="726" y="-81.5" font-family="Helvetica,sans-Serif" font-size="10.00">gen&#45;cpp/Status_types.h</text>
</g>
<!-- Node5&#45;&gt;Node12 -->
<g id="edge12" class="edge"><title>Node5&#45;&gt;Node12</title>
<path fill="none" stroke="midnightblue" d="M666.021,-142.372C677.014,-131.856 695.805,-113.882 709.43,-100.85"/>
<polygon fill="midnightblue" stroke="midnightblue" points="711.95,-103.283 716.757,-93.8411 707.111,-98.2241 711.95,-103.283"/>
</g>
<!-- Node13 -->
<g id="node13" class="node"><title>Node13</title>
<polygon fill="white" stroke="#bfbfbf" points="595,-1 595,-31 699,-31 699,-1 595,-1"/>
<text text-anchor="start" x="603" y="-19" font-family="Helvetica,sans-Serif" font-size="10.00">gen&#45;cpp/ErrorCodes</text>
<text text-anchor="middle" x="647" y="-8" font-family="Helvetica,sans-Serif" font-size="10.00">_types.h</text>
</g>
<!-- Node5&#45;&gt;Node13 -->
<g id="edge13" class="edge"><title>Node5&#45;&gt;Node13</title>
<path fill="none" stroke="midnightblue" d="M703.004,-145.882C765.025,-137.091 863.807,-115.29 828,-68 824.224,-63.013 760.08,-45.7141 709.213,-32.6348"/>
<polygon fill="midnightblue" stroke="midnightblue" points="709.794,-29.1708 699.238,-30.0801 708.057,-35.9519 709.794,-29.1708"/>
</g>
<!-- Node14 -->
<g id="node14" class="node"><title>Node14</title>
<polygon fill="white" stroke="#bfbfbf" points="402.5,-69 402.5,-99 511.5,-99 511.5,-69 402.5,-69"/>
<text text-anchor="start" x="410.5" y="-87" font-family="Helvetica,sans-Serif" font-size="10.00">gen&#45;cpp/TCLIService</text>
<text text-anchor="middle" x="457" y="-76" font-family="Helvetica,sans-Serif" font-size="10.00">_types.h</text>
</g>
<!-- Node5&#45;&gt;Node14 -->
<g id="edge14" class="edge"><title>Node5&#45;&gt;Node14</title>
<path fill="none" stroke="midnightblue" d="M630.853,-142.372C600.106,-132.225 548.311,-115.133 509.235,-102.237"/>
<polygon fill="midnightblue" stroke="midnightblue" points="510.188,-98.8664 499.595,-99.0562 507.994,-105.514 510.188,-98.8664"/>
</g>
<!-- Node15 -->
<g id="node15" class="node"><title>Node15</title>
<g id="a_node15"><a xlink:href="error-util_8h.html" target="_top" xlink:title="util/error&#45;util.h">
<polygon fill="white" stroke="black" points="880,-74.5 880,-93.5 956,-93.5 956,-74.5 880,-74.5"/>
<text text-anchor="middle" x="918" y="-81.5" font-family="Helvetica,sans-Serif" font-size="10.00">util/error&#45;util.h</text>
</a>
</g>
</g>
<!-- Node5&#45;&gt;Node15 -->
<g id="edge15" class="edge"><title>Node5&#45;&gt;Node15</title>
<path fill="none" stroke="midnightblue" d="M694.116,-142.434C735.994,-132.655 806.085,-115.944 866,-100 870.357,-98.8405 874.907,-97.5887 879.426,-96.32"/>
<polygon fill="midnightblue" stroke="midnightblue" points="880.519,-99.648 889.179,-93.5445 878.603,-92.9153 880.519,-99.648"/>
</g>
<!-- Node9 -->
<g id="node9" class="node"><title>Node9</title>
<polygon fill="white" stroke="#bfbfbf" points="220.5,-6.5 220.5,-25.5 297.5,-25.5 297.5,-6.5 220.5,-6.5"/>
<text text-anchor="middle" x="259" y="-13.5" font-family="Helvetica,sans-Serif" font-size="10.00">glog/logging.h</text>
</g>
<!-- Node8&#45;&gt;Node9 -->
<g id="edge9" class="edge"><title>Node8&#45;&gt;Node9</title>
<path fill="none" stroke="midnightblue" d="M193.805,-74.3717C205.866,-63.7581 226.562,-45.5453 241.403,-32.4855"/>
<polygon fill="midnightblue" stroke="midnightblue" points="243.758,-35.0749 248.953,-25.8411 239.134,-29.8199 243.758,-35.0749"/>
</g>
<!-- Node10 -->
<g id="node10" class="node"><title>Node10</title>
<polygon fill="white" stroke="#bfbfbf" points="122,-6.5 122,-25.5 202,-25.5 202,-6.5 122,-6.5"/>
<text text-anchor="middle" x="162" y="-13.5" font-family="Helvetica,sans-Serif" font-size="10.00">gflags/gflags.h</text>
</g>
<!-- Node8&#45;&gt;Node10 -->
<g id="edge10" class="edge"><title>Node8&#45;&gt;Node10</title>
<path fill="none" stroke="midnightblue" d="M181.124,-74.3717C177.848,-64.5443 172.401,-48.2018 168.156,-35.4673"/>
<polygon fill="midnightblue" stroke="midnightblue" points="171.43,-34.2211 164.947,-25.8411 164.789,-36.4348 171.43,-34.2211"/>
</g>
<!-- Node15&#45;&gt;Node3 -->
<g id="edge16" class="edge"><title>Node15&#45;&gt;Node3</title>
<path fill="none" stroke="midnightblue" d="M879.753,-78.2242C855.25,-75.2015 822.765,-71.2625 794,-68 643.012,-50.8752 604.935,-49.5821 454,-32 424.472,-28.5604 390.841,-24.246 367.057,-21.1284"/>
<polygon fill="midnightblue" stroke="midnightblue" points="367.244,-17.6229 356.873,-19.7876 366.331,-24.563 367.244,-17.6229"/>
</g>
<!-- Node15&#45;&gt;Node6 -->
<g id="edge17" class="edge"><title>Node15&#45;&gt;Node6</title>
<path fill="none" stroke="midnightblue" d="M928.851,-74.3717C942.397,-63.6004 965.785,-45.0021 982.254,-31.9065"/>
<polygon fill="midnightblue" stroke="midnightblue" points="984.498,-34.5939 990.147,-25.6305 980.141,-29.1149 984.498,-34.5939"/>
</g>
<!-- Node15&#45;&gt;Node7 -->
<g id="edge19" class="edge"><title>Node15&#45;&gt;Node7</title>
<path fill="none" stroke="midnightblue" d="M879.925,-76.5029C863.903,-73.8082 845.055,-70.6897 828,-68 720.588,-51.0611 692.872,-52.0639 586,-32 579.249,-30.7327 572.141,-29.262 565.189,-27.747"/>
<polygon fill="midnightblue" stroke="midnightblue" points="565.699,-24.2749 555.177,-25.5141 564.175,-31.107 565.699,-24.2749"/>
</g>
<!-- Node15&#45;&gt;Node13 -->
<g id="edge21" class="edge"><title>Node15&#45;&gt;Node13</title>
<path fill="none" stroke="midnightblue" d="M889.472,-74.4547C881.868,-72.2638 873.642,-69.9712 866,-68 799.257,-50.7848 779.74,-48.7516 709.067,-32.2222"/>
<polygon fill="midnightblue" stroke="midnightblue" points="709.765,-28.791 699.229,-29.9055 708.161,-35.6046 709.765,-28.791"/>
</g>
<!-- Node16 -->
<g id="node16" class="node"><title>Node16</title>
<polygon fill="white" stroke="#bfbfbf" points="12,-6.5 12,-25.5 104,-25.5 104,-6.5 12,-6.5"/>
<text text-anchor="middle" x="58" y="-13.5" font-family="Helvetica,sans-Serif" font-size="10.00">boost/cstdint.hpp</text>
</g>
<!-- Node15&#45;&gt;Node16 -->
<g id="edge18" class="edge"><title>Node15&#45;&gt;Node16</title>
<path fill="none" stroke="midnightblue" d="M879.805,-77.7031C855.323,-74.4754 822.841,-70.5038 794,-68 492.046,-41.7857 412.241,-80.1479 113,-32 107.053,-31.0431 100.825,-29.6935 94.7862,-28.1919"/>
<polygon fill="midnightblue" stroke="midnightblue" points="95.4474,-24.7462 84.8841,-25.5638 93.6516,-31.512 95.4474,-24.7462"/>
</g>
<!-- Node17 -->
<g id="node17" class="node"><title>Node17</title>
<polygon fill="white" stroke="#bfbfbf" points="839,-1 839,-31 961,-31 961,-1 839,-1"/>
<text text-anchor="start" x="847" y="-19" font-family="Helvetica,sans-Serif" font-size="10.00">gen&#45;cpp/CatalogObjects</text>
<text text-anchor="middle" x="900" y="-8" font-family="Helvetica,sans-Serif" font-size="10.00">_types.h</text>
</g>
<!-- Node15&#45;&gt;Node17 -->
<g id="edge20" class="edge"><title>Node15&#45;&gt;Node17</title>
<path fill="none" stroke="midnightblue" d="M915.647,-74.3717C913.332,-65.8858 909.693,-52.5419 906.507,-40.858"/>
<polygon fill="midnightblue" stroke="midnightblue" points="909.876,-39.9082 903.868,-31.1815 903.122,-41.75 909.876,-39.9082"/>
</g>
<!-- Node18 -->
<g id="node18" class="node"><title>Node18</title>
<polygon fill="white" stroke="#bfbfbf" points="717,-1 717,-31 821,-31 821,-1 717,-1"/>
<text text-anchor="start" x="725" y="-19" font-family="Helvetica,sans-Serif" font-size="10.00">gen&#45;cpp/ErrorCodes</text>
<text text-anchor="middle" x="769" y="-8" font-family="Helvetica,sans-Serif" font-size="10.00">_constants.h</text>
</g>
<!-- Node15&#45;&gt;Node18 -->
<g id="edge22" class="edge"><title>Node15&#45;&gt;Node18</title>
<path fill="none" stroke="midnightblue" d="M898.521,-74.3717C876.196,-64.4829 838.979,-47.9973 810.153,-35.2289"/>
<polygon fill="midnightblue" stroke="midnightblue" points="811.294,-31.9062 800.733,-31.0562 808.459,-38.3064 811.294,-31.9062"/>
</g>
<!-- Node15&#45;&gt;Node19 -->
<g id="edge23" class="edge"><title>Node15&#45;&gt;Node19</title>
<path fill="none" stroke="midnightblue" d="M943.754,-74.3717C974.041,-64.2249 1025.06,-47.1327 1063.55,-34.2375"/>
<polygon fill="midnightblue" stroke="midnightblue" points="1064.67,-37.5517 1073.04,-31.0562 1062.45,-30.9143 1064.67,-37.5517"/>
</g>
<!-- Node15&#45;&gt;Node20 -->
<g id="edge24" class="edge"><title>Node15&#45;&gt;Node20</title>
<path fill="none" stroke="midnightblue" d="M956.114,-76.4429C1010.06,-67.0746 1111.73,-49.0964 1198,-32 1204.8,-30.6527 1211.96,-29.1806 1219,-27.7021"/>
<polygon fill="midnightblue" stroke="midnightblue" points="1220.11,-31.0435 1229.17,-25.5449 1218.66,-24.1959 1220.11,-31.0435"/>
</g>
<!-- Node21&#45;&gt;Node3 -->
<g id="edge27" class="edge"><title>Node21&#45;&gt;Node3</title>
<path fill="none" stroke="midnightblue" d="M1381.28,-211.916C1236.24,-207.961 754.457,-193.199 602,-168 491.352,-149.711 438.201,-179.402 359,-100 342.035,-82.992 337.305,-54.6428 336.135,-35.8855"/>
<polygon fill="midnightblue" stroke="midnightblue" points="339.624,-35.5092 335.789,-25.633 332.628,-35.7454 339.624,-35.5092"/>
</g>
<!-- Node22 -->
<g id="node22" class="node"><title>Node22</title>
<polygon fill="white" stroke="#bfbfbf" points="1572,-142.5 1572,-161.5 1624,-161.5 1624,-142.5 1572,-142.5"/>
<text text-anchor="middle" x="1598" y="-149.5" font-family="Helvetica,sans-Serif" font-size="10.00">ostream</text>
</g>
<!-- Node21&#45;&gt;Node22 -->
<g id="edge26" class="edge"><title>Node21&#45;&gt;Node22</title>
<path fill="none" stroke="midnightblue" d="M1451.72,-204.454C1479.99,-195.864 1524.29,-181.934 1562,-168 1564.25,-167.168 1566.57,-166.28 1568.89,-165.365"/>
<polygon fill="midnightblue" stroke="midnightblue" points="1570.36,-168.547 1578.31,-161.545 1567.73,-162.06 1570.36,-168.547"/>
</g>
<!-- Node21&#45;&gt;Node23 -->
<g id="edge28" class="edge"><title>Node21&#45;&gt;Node23</title>
<path fill="none" stroke="midnightblue" d="M1381.46,-209.337C1327.17,-203.837 1229.52,-191.49 1149,-168 1146.5,-167.271 1143.94,-166.411 1141.4,-165.479"/>
<polygon fill="midnightblue" stroke="midnightblue" points="1142.44,-162.125 1131.86,-161.64 1139.83,-168.619 1142.44,-162.125"/>
</g>
<!-- Node24 -->
<g id="node24" class="node"><title>Node24</title>
<polygon fill="white" stroke="#bfbfbf" points="1642.5,-137 1642.5,-167 1743.5,-167 1743.5,-137 1642.5,-137"/>
<text text-anchor="start" x="1650.5" y="-155" font-family="Helvetica,sans-Serif" font-size="10.00">gen&#45;cpp/JniCatalog</text>
<text text-anchor="middle" x="1693" y="-144" font-family="Helvetica,sans-Serif" font-size="10.00">_types.h</text>
</g>
<!-- Node21&#45;&gt;Node24 -->
<g id="edge29" class="edge"><title>Node21&#45;&gt;Node24</title>
<path fill="none" stroke="midnightblue" d="M1464.53,-204.533C1504.89,-196.209 1568.15,-182.907 1632.39,-168.098"/>
<polygon fill="midnightblue" stroke="midnightblue" points="1633.34,-171.472 1642.29,-165.806 1631.76,-164.652 1633.34,-171.472"/>
</g>
<!-- Node25 -->
<g id="node25" class="node"><title>Node25</title>
<polygon fill="white" stroke="#bfbfbf" points="1762,-137 1762,-167 1866,-167 1866,-137 1762,-137"/>
<text text-anchor="start" x="1770" y="-155" font-family="Helvetica,sans-Serif" font-size="10.00">gen&#45;cpp/Descriptors</text>
<text text-anchor="middle" x="1814" y="-144" font-family="Helvetica,sans-Serif" font-size="10.00">_types.h</text>
</g>
<!-- Node21&#45;&gt;Node25 -->
<g id="edge30" class="edge"><title>Node21&#45;&gt;Node25</title>
<path fill="none" stroke="midnightblue" d="M1464.72,-205.331C1467.52,-204.865 1470.3,-204.417 1473,-204 1596.56,-184.92 1629.06,-190.734 1752,-168 1752.1,-167.981 1752.2,-167.962 1752.31,-167.943"/>
<polygon fill="midnightblue" stroke="midnightblue" points="1752.87,-171.4 1761.99,-166.018 1751.5,-164.535 1752.87,-171.4"/>
</g>
<!-- Node26 -->
<g id="node26" class="node"><title>Node26</title>
<polygon fill="white" stroke="#bfbfbf" points="1884.5,-142.5 1884.5,-161.5 2001.5,-161.5 2001.5,-142.5 1884.5,-142.5"/>
<text text-anchor="middle" x="1943" y="-149.5" font-family="Helvetica,sans-Serif" font-size="10.00">gen&#45;cpp/Exprs_types.h</text>
</g>
<!-- Node21&#45;&gt;Node26 -->
<g id="edge31" class="edge"><title>Node21&#45;&gt;Node26</title>
<path fill="none" stroke="midnightblue" d="M1464.7,-205.209C1467.5,-204.773 1470.29,-204.364 1473,-204 1650.78,-180.087 1697.72,-195.376 1875,-168 1882.56,-166.833 1890.54,-165.326 1898.26,-163.719"/>
<polygon fill="midnightblue" stroke="midnightblue" points="1899.18,-167.101 1908.22,-161.569 1897.7,-160.259 1899.18,-167.101"/>
</g>
<!-- Node27 -->
<g id="node27" class="node"><title>Node27</title>
<polygon fill="white" stroke="#bfbfbf" points="2020,-142.5 2020,-161.5 2150,-161.5 2150,-142.5 2020,-142.5"/>
<text text-anchor="middle" x="2085" y="-149.5" font-family="Helvetica,sans-Serif" font-size="10.00">gen&#45;cpp/Frontend_types.h</text>
</g>
<!-- Node21&#45;&gt;Node27 -->
<g id="edge32" class="edge"><title>Node21&#45;&gt;Node27</title>
<path fill="none" stroke="midnightblue" d="M1464.69,-205.138C1467.5,-204.719 1470.29,-204.334 1473,-204 1710.41,-174.767 1772.88,-199.523 2010,-168 2018.89,-166.818 2028.32,-165.214 2037.37,-163.495"/>
<polygon fill="midnightblue" stroke="midnightblue" points="2038.26,-166.888 2047.39,-161.52 2036.9,-160.02 2038.26,-166.888"/>
</g>
<!-- Node28 -->
<g id="node28" class="node"><title>Node28</title>
<polygon fill="white" stroke="#bfbfbf" points="2168,-142.5 2168,-161.5 2308,-161.5 2308,-142.5 2168,-142.5"/>
<text text-anchor="middle" x="2238" y="-149.5" font-family="Helvetica,sans-Serif" font-size="10.00">gen&#45;cpp/PlanNodes_types.h</text>
</g>
<!-- Node21&#45;&gt;Node28 -->
<g id="edge33" class="edge"><title>Node21&#45;&gt;Node28</title>
<path fill="none" stroke="midnightblue" d="M1464.68,-205.093C1467.49,-204.685 1470.28,-204.314 1473,-204 1776.28,-168.888 1855.89,-204.56 2159,-168 2168.67,-166.834 2178.94,-165.189 2188.76,-163.413"/>
<polygon fill="midnightblue" stroke="midnightblue" points="2189.6,-166.816 2198.78,-161.53 2188.31,-159.936 2189.6,-166.816"/>
</g>
<!-- Node29 -->
<g id="node29" class="node"><title>Node29</title>
<polygon fill="white" stroke="#bfbfbf" points="1158.5,-137 1158.5,-167 1277.5,-167 1277.5,-137 1158.5,-137"/>
<text text-anchor="start" x="1166.5" y="-155" font-family="Helvetica,sans-Serif" font-size="10.00">gen&#45;cpp/RuntimeProfile</text>
<text text-anchor="middle" x="1218" y="-144" font-family="Helvetica,sans-Serif" font-size="10.00">_types.h</text>
</g>
<!-- Node21&#45;&gt;Node29 -->
<g id="edge34" class="edge"><title>Node21&#45;&gt;Node29</title>
<path fill="none" stroke="midnightblue" d="M1393.63,-204.403C1363.04,-195.45 1314.31,-181.19 1275.94,-169.958"/>
<polygon fill="midnightblue" stroke="midnightblue" points="1276.5,-166.475 1265.92,-167.025 1274.53,-173.193 1276.5,-166.475"/>
</g>
<!-- Node30 -->
<g id="node30" class="node"><title>Node30</title>
<polygon fill="white" stroke="#bfbfbf" points="1296,-137 1296,-167 1412,-167 1412,-137 1296,-137"/>
<text text-anchor="start" x="1304" y="-155" font-family="Helvetica,sans-Serif" font-size="10.00">gen&#45;cpp/ImpalaService</text>
<text text-anchor="middle" x="1354" y="-144" font-family="Helvetica,sans-Serif" font-size="10.00">_types.h</text>
</g>
<!-- Node21&#45;&gt;Node30 -->
<g id="edge35" class="edge"><title>Node21&#45;&gt;Node30</title>
<path fill="none" stroke="midnightblue" d="M1413.11,-204.403C1403.94,-196.429 1389.93,-184.245 1377.85,-173.74"/>
<polygon fill="midnightblue" stroke="midnightblue" points="1380.1,-171.062 1370.26,-167.141 1375.51,-176.344 1380.1,-171.062"/>
</g>
<!-- Node31 -->
<g id="node31" class="node"><title>Node31</title>
<polygon fill="white" stroke="#bfbfbf" points="1430,-142.5 1430,-161.5 1554,-161.5 1554,-142.5 1430,-142.5"/>
<text text-anchor="middle" x="1492" y="-149.5" font-family="Helvetica,sans-Serif" font-size="10.00">gen&#45;cpp/parquet_types.h</text>
</g>
<!-- Node21&#45;&gt;Node31 -->
<g id="edge36" class="edge"><title>Node21&#45;&gt;Node31</title>
<path fill="none" stroke="midnightblue" d="M1432.89,-204.403C1443.65,-195.047 1461.07,-179.895 1474.22,-168.46"/>
<polygon fill="midnightblue" stroke="midnightblue" points="1476.88,-170.784 1482.13,-161.581 1472.29,-165.501 1476.88,-170.784"/>
</g>
<!-- Node32&#45;&gt;Node3 -->
<g id="edge38" class="edge"><title>Node32&#45;&gt;Node3</title>
<path fill="none" stroke="midnightblue" d="M187.653,-142.153C200.775,-132.123 222.662,-115.187 241,-100 268.77,-77.0013 300.113,-49.2558 318.948,-32.3811"/>
<polygon fill="midnightblue" stroke="midnightblue" points="321.336,-34.941 326.436,-25.6544 316.657,-29.7337 321.336,-34.941"/>
</g>
<!-- Node32&#45;&gt;Node8 -->
<g id="edge40" class="edge"><title>Node32&#45;&gt;Node8</title>
<path fill="none" stroke="midnightblue" d="M177.046,-142.372C178.225,-132.643 180.178,-116.528 181.715,-103.85"/>
<polygon fill="midnightblue" stroke="midnightblue" points="185.2,-104.19 182.928,-93.8411 178.25,-103.347 185.2,-104.19"/>
</g>
<!-- Node32&#45;&gt;Node16 -->
<g id="edge39" class="edge"><title>Node32&#45;&gt;Node16</title>
<path fill="none" stroke="midnightblue" d="M167.127,-142.156C157.155,-132.128 140.585,-115.196 127,-100 107.006,-77.6346 85.0344,-50.7825 71.378,-33.802"/>
<polygon fill="midnightblue" stroke="midnightblue" points="74.0316,-31.5164 65.049,-25.8982 68.5675,-35.8918 74.0316,-31.5164"/>
</g>
<!-- Node33&#45;&gt;Node3 -->
<g id="edge42" class="edge"><title>Node33&#45;&gt;Node3</title>
<path fill="none" stroke="midnightblue" d="M80.2512,-75.9103C149.284,-63.6576 284.901,-39.1456 306,-32 307.861,-31.3696 309.753,-30.6447 311.636,-29.8612"/>
<polygon fill="midnightblue" stroke="midnightblue" points="313.179,-33.0037 320.778,-25.6212 310.234,-26.6534 313.179,-33.0037"/>
</g>
<!-- Node33&#45;&gt;Node16 -->
<g id="edge43" class="edge"><title>Node33&#45;&gt;Node16</title>
<path fill="none" stroke="midnightblue" d="M42.3532,-74.3717C45.0066,-64.6426 49.4014,-48.528 52.859,-35.8504"/>
<polygon fill="midnightblue" stroke="midnightblue" points="56.3342,-36.4097 55.5888,-25.8411 49.5809,-34.5678 56.3342,-36.4097"/>
</g>
<!-- Node37 -->
<g id="node37" class="node"><title>Node37</title>
<polygon fill="white" stroke="#bfbfbf" points="2326,-142.5 2326,-161.5 2420,-161.5 2420,-142.5 2326,-142.5"/>
<text text-anchor="middle" x="2373" y="-149.5" font-family="Helvetica,sans-Serif" font-size="10.00">boost/version.hpp</text>
</g>
<!-- Node36&#45;&gt;Node37 -->
<g id="edge50" class="edge"><title>Node36&#45;&gt;Node37</title>
<path fill="none" stroke="midnightblue" d="M2156.54,-204.441C2197.22,-195.731 2261.61,-181.612 2317,-168 2321.94,-166.785 2327.12,-165.465 2332.24,-164.128"/>
<polygon fill="midnightblue" stroke="midnightblue" points="2333.18,-167.5 2341.96,-161.561 2331.39,-160.732 2333.18,-167.5"/>
</g>
</g>
</svg>
        <g id="navigator" transform="translate(0 0)" fill="#404254">
                <rect fill="#f2f5e9" fill-opacity="0.5" stroke="#606060" stroke-width=".5" x="0" y="0" width="60" height="60"/>
                <use id="zoomplus" xlink:href="#zoomPlus" x="17" y="9" onmousedown="handleZoom(evt,'in')"/>
                <use id="zoomminus" xlink:href="#zoomMin" x="42" y="9" onmousedown="handleZoom(evt,'out')"/>
                <use id="reset" xlink:href="#resetDef" x="30" y="36" onmousedown="handleReset()"/>
                <g id="arrowUp" xlink:href="#dirArrow" transform="translate(30 24)" onmousedown="handlePan(0,-1)">
                  <use xlink:href="#rim" fill="#404040">
                        <set attributeName="fill" to="#808080" begin="arrowUp.mouseover" end="arrowUp.mouseout"/>
                  </use>
                  <path fill="none" stroke="white" stroke-width="1.5" d="M0,-3.0v7 M-2.5,-0.5L0,-3.0L2.5,-0.5"/>
                </g>
                <g id="arrowRight" xlink:href="#dirArrow" transform="rotate(90) translate(36 -43)" onmousedown="handlePan(1,0)">
                  <use xlink:href="#rim" fill="#404040">
                        <set attributeName="fill" to="#808080" begin="arrowRight.mouseover" end="arrowRight.mouseout"/>
                  </use>
                  <path fill="none" stroke="white" stroke-width="1.5" d="M0,-3.0v7 M-2.5,-0.5L0,-3.0L2.5,-0.5"/>
                </g>
                <g id="arrowDown" xlink:href="#dirArrow" transform="rotate(180) translate(-30 -48)" onmousedown="handlePan(0,1)">
                  <use xlink:href="#rim" fill="#404040">
                        <set attributeName="fill" to="#808080" begin="arrowDown.mouseover" end="arrowDown.mouseout"/>
                  </use>
                  <path fill="none" stroke="white" stroke-width="1.5" d="M0,-3.0v7 M-2.5,-0.5L0,-3.0L2.5,-0.5"/>
                </g>
                <g id="arrowLeft" xlink:href="#dirArrow" transform="rotate(270) translate(-36 17)" onmousedown="handlePan(-1,0)">
                  <use xlink:href="#rim" fill="#404040">
                        <set attributeName="fill" to="#808080" begin="arrowLeft.mouseover" end="arrowLeft.mouseout"/>
                  </use>
                  <path fill="none" stroke="white" stroke-width="1.5" d="M0,-3.0v7 M-2.5,-0.5L0,-3.0L2.5,-0.5"/>
                </g>
        </g>
        <svg viewBox="0 0 15 15" width="100%" height="30px" preserveAspectRatio="xMaxYMin meet">
         <g id="arrow_out" transform="scale(0.3 0.3)">
          <a xlink:href="query-options_8cc__incl_org.svg" target="_base">
           <rect id="button" ry="5" rx="5" y="6" x="6" height="38" width="38"
                fill="#f2f5e9" fill-opacity="0.5" stroke="#606060" stroke-width="1.0"/>
           <path id="arrow"
             d="M 11.500037,31.436501 C 11.940474,20.09759 22.043105,11.32322 32.158766,21.979434 L 37.068811,17.246167 C 37.068811,17.246167 37.088388,32 37.088388,32 L 22.160133,31.978069 C 22.160133,31.978069 26.997745,27.140456 26.997745,27.140456 C 18.528582,18.264221 13.291696,25.230495 11.500037,31.436501 z"
             style="fill:#404040;"/>
          </a>
         </g>
        </svg>
</svg>
