<?xml version="1.0" encoding="UTF-8" standalone="no"?>
<!DOCTYPE svg PUBLIC "-//W3C//DTD SVG 1.1//EN"
 "http://www.w3.org/Graphics/SVG/1.1/DTD/svg11.dtd">
<!-- Generated by graphviz version 2.36.0 (20140111.2315)
 -->
<!-- Title: be/src/service/query&#45;exec&#45;state.h Pages: 1 -->
<!--zoomable 108 -->
<svg id="main" version="1.1" xmlns="http://www.w3.org/2000/svg" xmlns:xlink="http://www.w3.org/1999/xlink" xml:space="preserve" onload="init(evt)">
<style type="text/css"><![CDATA[
.edge:hover path { stroke: red; }
.edge:hover polygon { stroke: red; fill: red; }
]]></style>
<script type="text/javascript"><![CDATA[
var edges = document.getElementsByTagName('g');
if (edges && edges.length) {
  for (var i=0;i<edges.length;i++) {
    if (edges[i].id.substr(0,4)=='edge') {
      edges[i].setAttribute('class','edge');
    }
  }
}
]]></script>
        <defs>
                <circle id="rim" cx="0" cy="0" r="7"/>
                <circle id="rim2" cx="0" cy="0" r="3.5"/>
                <g id="zoomPlus">
                        <use xlink:href="#rim" fill="#404040">
                                <set attributeName="fill" to="#808080" begin="zoomplus.mouseover" end="zoomplus.mouseout"/>
                        </use>
                        <path d="M-4,0h8M0,-4v8" fill="none" stroke="white" stroke-width="1.5" pointer-events="none"/>
                </g>
                <g id="zoomMin">
                        <use xlink:href="#rim" fill="#404040">
                                <set attributeName="fill" to="#808080" begin="zoomminus.mouseover" end="zoomminus.mouseout"/>
                        </use>
                        <path d="M-4,0h8" fill="none" stroke="white" stroke-width="1.5" pointer-events="none"/>
                </g>
                <g id="dirArrow">
                        <path fill="none" stroke="white" stroke-width="1.5" d="M0,-3.0v7 M-2.5,-0.5L0,-3.0L2.5,-0.5"/>
                </g>
               <g id="resetDef">
                       <use xlink:href="#rim2" fill="#404040">
                               <set attributeName="fill" to="#808080" begin="reset.mouseover" end="reset.mouseout"/>
                       </use>
               </g>
        </defs>

<script type="text/javascript">
var viewWidth = 744;
var viewHeight = 108;
var sectionId = 'dynsection-1';
</script>
<script xlink:href="svgpan.js"/>
<svg id="graph" class="graph">
<g id="viewport">
<title>be/src/service/query&#45;exec&#45;state.h</title>
<polygon fill="white" stroke="none" points="-4,4 -4,-104 740,-104 740,4 -4,4"/>
<!-- Node1 -->
<g id="node1" class="node"><title>Node1</title>
<polygon fill="#bfbfbf" stroke="black" points="313.5,-69 313.5,-99 418.5,-99 418.5,-69 313.5,-69"/>
<text text-anchor="start" x="321.5" y="-87" font-family="Helvetica,sans-Serif" font-size="10.00">be/src/service/query</text>
<text text-anchor="middle" x="366" y="-76" font-family="Helvetica,sans-Serif" font-size="10.00">&#45;exec&#45;state.h</text>
</g>
<!-- Node2 -->
<g id="node2" class="node"><title>Node2</title>
<g id="a_node2"><a xlink:href="child-query_8cc.html" target="_top" xlink:title="be/src/service/child\l&#45;query.cc">
<polygon fill="white" stroke="black" points="-0.5,-1 -0.5,-31 100.5,-31 100.5,-1 -0.5,-1"/>
<text text-anchor="start" x="7.5" y="-19" font-family="Helvetica,sans-Serif" font-size="10.00">be/src/service/child</text>
<text text-anchor="middle" x="50" y="-8" font-family="Helvetica,sans-Serif" font-size="10.00">&#45;query.cc</text>
</a>
</g>
</g>
<!-- Node1&#45;&gt;Node2 -->
<g id="edge1" class="edge"><title>Node1&#45;&gt;Node2</title>
<path fill="none" stroke="midnightblue" d="M303.321,-71.3894C251.384,-61.5586 175.704,-46.7488 110,-32 106.962,-31.318 103.842,-30.598 100.698,-29.8575"/>
<polygon fill="midnightblue" stroke="midnightblue" points="302.907,-74.8729 313.382,-73.2877 304.205,-67.9943 302.907,-74.8729"/>
</g>
<!-- Node3 -->
<g id="node3" class="node"><title>Node3</title>
<g id="a_node3"><a xlink:href="impala-beeswax-server_8cc.html" target="_top" xlink:title="be/src/service/impala\l&#45;beeswax&#45;server.cc">
<polygon fill="white" stroke="black" points="119,-1 119,-31 229,-31 229,-1 119,-1"/>
<text text-anchor="start" x="127" y="-19" font-family="Helvetica,sans-Serif" font-size="10.00">be/src/service/impala</text>
<text text-anchor="middle" x="174" y="-8" font-family="Helvetica,sans-Serif" font-size="10.00">&#45;beeswax&#45;server.cc</text>
</a>
</g>
</g>
<!-- Node1&#45;&gt;Node3 -->
<g id="edge2" class="edge"><title>Node1&#45;&gt;Node3</title>
<path fill="none" stroke="midnightblue" d="M314.951,-65.4519C283.616,-54.6805 244.028,-41.0722 214.791,-31.0218"/>
<polygon fill="midnightblue" stroke="midnightblue" points="314.217,-68.9004 324.811,-68.8413 316.492,-62.2806 314.217,-68.9004"/>
</g>
<!-- Node4 -->
<g id="node4" class="node"><title>Node4</title>
<g id="a_node4"><a xlink:href="impala-hs2-server_8cc.html" target="_top" xlink:title="be/src/service/impala\l&#45;hs2&#45;server.cc">
<polygon fill="white" stroke="black" points="247,-1 247,-31 357,-31 357,-1 247,-1"/>
<text text-anchor="start" x="255" y="-19" font-family="Helvetica,sans-Serif" font-size="10.00">be/src/service/impala</text>
<text text-anchor="middle" x="302" y="-8" font-family="Helvetica,sans-Serif" font-size="10.00">&#45;hs2&#45;server.cc</text>
</a>
</g>
</g>
<!-- Node1&#45;&gt;Node4 -->
<g id="edge3" class="edge"><title>Node1&#45;&gt;Node4</title>
<path fill="none" stroke="midnightblue" d="M345.137,-61.4855C335.537,-51.5852 324.409,-40.1092 315.86,-31.2931"/>
<polygon fill="midnightblue" stroke="midnightblue" points="342.639,-63.9365 352.113,-68.679 347.664,-59.0634 342.639,-63.9365"/>
</g>
<!-- Node5 -->
<g id="node5" class="node"><title>Node5</title>
<g id="a_node5"><a xlink:href="impala-server-callbacks_8cc.html" target="_top" xlink:title="be/src/service/impala\l&#45;server&#45;callbacks.cc">
<polygon fill="white" stroke="black" points="375,-1 375,-31 485,-31 485,-1 375,-1"/>
<text text-anchor="start" x="383" y="-19" font-family="Helvetica,sans-Serif" font-size="10.00">be/src/service/impala</text>
<text text-anchor="middle" x="430" y="-8" font-family="Helvetica,sans-Serif" font-size="10.00">&#45;server&#45;callbacks.cc</text>
</a>
</g>
</g>
<!-- Node1&#45;&gt;Node5 -->
<g id="edge4" class="edge"><title>Node1&#45;&gt;Node5</title>
<path fill="none" stroke="midnightblue" d="M386.863,-61.4855C396.463,-51.5852 407.591,-40.1092 416.14,-31.2931"/>
<polygon fill="midnightblue" stroke="midnightblue" points="384.336,-59.0634 379.887,-68.679 389.361,-63.9365 384.336,-59.0634"/>
</g>
<!-- Node6 -->
<g id="node6" class="node"><title>Node6</title>
<g id="a_node6"><a xlink:href="impala-server_8cc.html" target="_top" xlink:title="be/src/service/impala\l&#45;server.cc">
<polygon fill="white" stroke="black" points="503,-1 503,-31 613,-31 613,-1 503,-1"/>
<text text-anchor="start" x="511" y="-19" font-family="Helvetica,sans-Serif" font-size="10.00">be/src/service/impala</text>
<text text-anchor="middle" x="558" y="-8" font-family="Helvetica,sans-Serif" font-size="10.00">&#45;server.cc</text>
</a>
</g>
</g>
<!-- Node1&#45;&gt;Node6 -->
<g id="edge5" class="edge"><title>Node1&#45;&gt;Node6</title>
<path fill="none" stroke="midnightblue" d="M417.049,-65.4519C448.384,-54.6805 487.972,-41.0722 517.209,-31.0218"/>
<polygon fill="midnightblue" stroke="midnightblue" points="415.508,-62.2806 407.189,-68.8413 417.783,-68.9004 415.508,-62.2806"/>
</g>
<!-- Node7 -->
<g id="node7" class="node"><title>Node7</title>
<g id="a_node7"><a xlink:href="query-exec-state_8cc.html" target="_top" xlink:title="be/src/service/query\l&#45;exec&#45;state.cc">
<polygon fill="white" stroke="black" points="631.5,-1 631.5,-31 736.5,-31 736.5,-1 631.5,-1"/>
<text text-anchor="start" x="639.5" y="-19" font-family="Helvetica,sans-Serif" font-size="10.00">be/src/service/query</text>
<text text-anchor="middle" x="684" y="-8" font-family="Helvetica,sans-Serif" font-size="10.00">&#45;exec&#45;state.cc</text>
</a>
</g>
</g>
<!-- Node1&#45;&gt;Node7 -->
<g id="edge6" class="edge"><title>Node1&#45;&gt;Node7</title>
<path fill="none" stroke="midnightblue" d="M428.649,-71.2575C480.57,-61.3489 556.24,-46.4989 622,-32 625.028,-31.3324 628.136,-30.6313 631.269,-29.9122"/>
<polygon fill="midnightblue" stroke="midnightblue" points="427.761,-67.8636 418.592,-73.1717 429.07,-74.7402 427.761,-67.8636"/>
</g>
</g>
</svg>
        <g id="navigator" transform="translate(0 0)" fill="#404254">
                <rect fill="#f2f5e9" fill-opacity="0.5" stroke="#606060" stroke-width=".5" x="0" y="0" width="60" height="60"/>
                <use id="zoomplus" xlink:href="#zoomPlus" x="17" y="9" onmousedown="handleZoom(evt,'in')"/>
                <use id="zoomminus" xlink:href="#zoomMin" x="42" y="9" onmousedown="handleZoom(evt,'out')"/>
                <use id="reset" xlink:href="#resetDef" x="30" y="36" onmousedown="handleReset()"/>
                <g id="arrowUp" xlink:href="#dirArrow" transform="translate(30 24)" onmousedown="handlePan(0,-1)">
                  <use xlink:href="#rim" fill="#404040">
                        <set attributeName="fill" to="#808080" begin="arrowUp.mouseover" end="arrowUp.mouseout"/>
                  </use>
                  <path fill="none" stroke="white" stroke-width="1.5" d="M0,-3.0v7 M-2.5,-0.5L0,-3.0L2.5,-0.5"/>
                </g>
                <g id="arrowRight" xlink:href="#dirArrow" transform="rotate(90) translate(36 -43)" onmousedown="handlePan(1,0)">
                  <use xlink:href="#rim" fill="#404040">
                        <set attributeName="fill" to="#808080" begin="arrowRight.mouseover" end="arrowRight.mouseout"/>
                  </use>
                  <path fill="none" stroke="white" stroke-width="1.5" d="M0,-3.0v7 M-2.5,-0.5L0,-3.0L2.5,-0.5"/>
                </g>
                <g id="arrowDown" xlink:href="#dirArrow" transform="rotate(180) translate(-30 -48)" onmousedown="handlePan(0,1)">
                  <use xlink:href="#rim" fill="#404040">
                        <set attributeName="fill" to="#808080" begin="arrowDown.mouseover" end="arrowDown.mouseout"/>
                  </use>
                  <path fill="none" stroke="white" stroke-width="1.5" d="M0,-3.0v7 M-2.5,-0.5L0,-3.0L2.5,-0.5"/>
                </g>
                <g id="arrowLeft" xlink:href="#dirArrow" transform="rotate(270) translate(-36 17)" onmousedown="handlePan(-1,0)">
                  <use xlink:href="#rim" fill="#404040">
                        <set attributeName="fill" to="#808080" begin="arrowLeft.mouseover" end="arrowLeft.mouseout"/>
                  </use>
                  <path fill="none" stroke="white" stroke-width="1.5" d="M0,-3.0v7 M-2.5,-0.5L0,-3.0L2.5,-0.5"/>
                </g>
        </g>
        <svg viewBox="0 0 15 15" width="100%" height="30px" preserveAspectRatio="xMaxYMin meet">
         <g id="arrow_out" transform="scale(0.3 0.3)">
          <a xlink:href="query-exec-state_8h__dep__incl_org.svg" target="_base">
           <rect id="button" ry="5" rx="5" y="6" x="6" height="38" width="38"
                fill="#f2f5e9" fill-opacity="0.5" stroke="#606060" stroke-width="1.0"/>
           <path id="arrow"
             d="M 11.500037,31.436501 C 11.940474,20.09759 22.043105,11.32322 32.158766,21.979434 L 37.068811,17.246167 C 37.068811,17.246167 37.088388,32 37.088388,32 L 22.160133,31.978069 C 22.160133,31.978069 26.997745,27.140456 26.997745,27.140456 C 18.528582,18.264221 13.291696,25.230495 11.500037,31.436501 z"
             style="fill:#404040;"/>
          </a>
         </g>
        </svg>
</svg>
