<?xml version="1.0" encoding="UTF-8" standalone="no"?>
<!DOCTYPE svg PUBLIC "-//W3C//DTD SVG 1.1//EN"
 "http://www.w3.org/Graphics/SVG/1.1/DTD/svg11.dtd">
<!-- Generated by graphviz version 2.36.0 (20140111.2315)
 -->
<!-- Title: be/src/exec/read&#45;write&#45;util.h Pages: 1 -->
<svg width="1245pt" height="288pt"
 viewBox="0.00 0.00 1245.00 288.00" xmlns="http://www.w3.org/2000/svg" xmlns:xlink="http://www.w3.org/1999/xlink">
<g id="graph0" class="graph" transform="scale(1 1) rotate(0) translate(4 284)">
<title>be/src/exec/read&#45;write&#45;util.h</title>
<polygon fill="white" stroke="none" points="-4,4 -4,-284 1241,-284 1241,4 -4,4"/>
<!-- Node1 -->
<g id="node1" class="node"><title>Node1</title>
<polygon fill="#bfbfbf" stroke="black" points="204.5,-249 204.5,-279 317.5,-279 317.5,-249 204.5,-249"/>
<text text-anchor="start" x="212.5" y="-267" font-family="Helvetica,sans-Serif" font-size="10.00">be/src/exec/read&#45;write</text>
<text text-anchor="middle" x="261" y="-256" font-family="Helvetica,sans-Serif" font-size="10.00">&#45;util.h</text>
</g>
<!-- Node2 -->
<g id="node2" class="node"><title>Node2</title>
<polygon fill="white" stroke="#bfbfbf" points="200,-62.5 200,-81.5 292,-81.5 292,-62.5 200,-62.5"/>
<text text-anchor="middle" x="246" y="-69.5" font-family="Helvetica,sans-Serif" font-size="10.00">boost/cstdint.hpp</text>
</g>
<!-- Node1&#45;&gt;Node2 -->
<g id="edge1" class="edge"><title>Node1&#45;&gt;Node2</title>
<path fill="none" stroke="midnightblue" d="M212.591,-248.892C169.965,-233.609 110.516,-204.645 83,-156 75.9978,-143.621 74.5777,-135.46 83,-124 86.7705,-118.87 158.875,-97.6607 205.908,-84.2614"/>
<polygon fill="midnightblue" stroke="midnightblue" points="206.867,-87.6276 215.53,-81.5292 204.955,-80.8938 206.867,-87.6276"/>
</g>
<!-- Node3 -->
<g id="node3" class="node"><title>Node3</title>
<polygon fill="white" stroke="#bfbfbf" points="662,-192.5 662,-211.5 714,-211.5 714,-192.5 662,-192.5"/>
<text text-anchor="middle" x="688" y="-199.5" font-family="Helvetica,sans-Serif" font-size="10.00">sstream</text>
</g>
<!-- Node1&#45;&gt;Node3 -->
<g id="edge2" class="edge"><title>Node1&#45;&gt;Node3</title>
<path fill="none" stroke="midnightblue" d="M317.824,-257.809C392.374,-250.512 527.379,-235.622 651.635,-212.062"/>
<polygon fill="midnightblue" stroke="midnightblue" points="652.544,-215.452 661.705,-210.129 651.224,-208.577 652.544,-215.452"/>
</g>
<!-- Node4 -->
<g id="node4" class="node"><title>Node4</title>
<g id="a_node4"><a xlink:href="logging_8h.html" target="_top" xlink:title="common/logging.h">
<polygon fill="white" stroke="black" points="86,-62.5 86,-81.5 182,-81.5 182,-62.5 86,-62.5"/>
<text text-anchor="middle" x="134" y="-69.5" font-family="Helvetica,sans-Serif" font-size="10.00">common/logging.h</text>
</a>
</g>
</g>
<!-- Node1&#45;&gt;Node4 -->
<g id="edge3" class="edge"><title>Node1&#45;&gt;Node4</title>
<path fill="none" stroke="midnightblue" d="M204.154,-253.621C173.491,-246.316 136.425,-233.637 109,-212 75.9549,-185.929 56.333,-162.204 74,-124 81.2266,-108.373 95.8636,-95.7786 108.871,-87.0151"/>
<polygon fill="midnightblue" stroke="midnightblue" points="110.914,-89.865 117.505,-81.57 107.179,-83.9441 110.914,-89.865"/>
</g>
<!-- Node7 -->
<g id="node7" class="node"><title>Node7</title>
<g id="a_node7"><a xlink:href="status_8h.html" target="_top" xlink:title="common/status.h">
<polygon fill="white" stroke="black" points="552,-192.5 552,-211.5 644,-211.5 644,-192.5 552,-192.5"/>
<text text-anchor="middle" x="598" y="-199.5" font-family="Helvetica,sans-Serif" font-size="10.00">common/status.h</text>
</a>
</g>
</g>
<!-- Node1&#45;&gt;Node7 -->
<g id="edge6" class="edge"><title>Node1&#45;&gt;Node7</title>
<path fill="none" stroke="midnightblue" d="M317.786,-252.89C380.156,-241.785 479.69,-224.064 541.818,-213.003"/>
<polygon fill="midnightblue" stroke="midnightblue" points="542.602,-216.418 551.834,-211.22 541.375,-209.527 542.602,-216.418"/>
</g>
<!-- Node20 -->
<g id="node20" class="node"><title>Node20</title>
<g id="a_node20"><a xlink:href="bit-util_8h.html" target="_top" xlink:title="util/bit&#45;util.h">
<polygon fill="white" stroke="black" points="227.5,-192.5 227.5,-211.5 294.5,-211.5 294.5,-192.5 227.5,-192.5"/>
<text text-anchor="middle" x="261" y="-199.5" font-family="Helvetica,sans-Serif" font-size="10.00">util/bit&#45;util.h</text>
</a>
</g>
</g>
<!-- Node1&#45;&gt;Node20 -->
<g id="edge25" class="edge"><title>Node1&#45;&gt;Node20</title>
<path fill="none" stroke="midnightblue" d="M261,-248.781C261,-240.781 261,-230.689 261,-222.017"/>
<polygon fill="midnightblue" stroke="midnightblue" points="264.5,-221.73 261,-211.731 257.5,-221.731 264.5,-221.73"/>
</g>
<!-- Node5 -->
<g id="node5" class="node"><title>Node5</title>
<polygon fill="white" stroke="#bfbfbf" points="47.5,-0.5 47.5,-19.5 124.5,-19.5 124.5,-0.5 47.5,-0.5"/>
<text text-anchor="middle" x="86" y="-7.5" font-family="Helvetica,sans-Serif" font-size="10.00">glog/logging.h</text>
</g>
<!-- Node4&#45;&gt;Node5 -->
<g id="edge4" class="edge"><title>Node4&#45;&gt;Node5</title>
<path fill="none" stroke="midnightblue" d="M127.123,-62.4035C119.851,-53.3143 108.205,-38.7559 99.1591,-27.4489"/>
<polygon fill="midnightblue" stroke="midnightblue" points="101.845,-25.2029 92.8645,-19.5806 96.3784,-29.5757 101.845,-25.2029"/>
</g>
<!-- Node6 -->
<g id="node6" class="node"><title>Node6</title>
<polygon fill="white" stroke="#bfbfbf" points="143,-0.5 143,-19.5 223,-19.5 223,-0.5 143,-0.5"/>
<text text-anchor="middle" x="183" y="-7.5" font-family="Helvetica,sans-Serif" font-size="10.00">gflags/gflags.h</text>
</g>
<!-- Node4&#45;&gt;Node6 -->
<g id="edge5" class="edge"><title>Node4&#45;&gt;Node6</title>
<path fill="none" stroke="midnightblue" d="M141.021,-62.4035C148.443,-53.3143 160.333,-38.7559 169.567,-27.4489"/>
<polygon fill="midnightblue" stroke="midnightblue" points="172.378,-29.5398 175.993,-19.5806 166.956,-25.1121 172.378,-29.5398"/>
</g>
<!-- Node7&#45;&gt;Node4 -->
<g id="edge10" class="edge"><title>Node7&#45;&gt;Node4</title>
<path fill="none" stroke="midnightblue" d="M551.846,-195.268C514.446,-189.272 461.215,-177.608 419,-156 399.346,-145.94 400.943,-133.476 381,-124 303.371,-87.1142 274.832,-106.948 191,-88 185.698,-86.8015 180.141,-85.4545 174.665,-84.0722"/>
<polygon fill="midnightblue" stroke="midnightblue" points="175.522,-80.6789 164.965,-81.5704 173.774,-87.4571 175.522,-80.6789"/>
</g>
<!-- Node8 -->
<g id="node8" class="node"><title>Node8</title>
<polygon fill="white" stroke="#bfbfbf" points="310.5,-62.5 310.5,-81.5 351.5,-81.5 351.5,-62.5 310.5,-62.5"/>
<text text-anchor="middle" x="331" y="-69.5" font-family="Helvetica,sans-Serif" font-size="10.00">string</text>
</g>
<!-- Node7&#45;&gt;Node8 -->
<g id="edge7" class="edge"><title>Node7&#45;&gt;Node8</title>
<path fill="none" stroke="midnightblue" d="M588.729,-192.225C568.374,-173.03 520.878,-128.646 512,-124 450.873,-92.01 425.837,-111.582 361,-88 359.345,-87.3979 357.662,-86.7287 355.98,-86.0165"/>
<polygon fill="midnightblue" stroke="midnightblue" points="357.123,-82.6878 346.581,-81.6382 354.168,-89.0333 357.123,-82.6878"/>
</g>
<!-- Node9 -->
<g id="node9" class="node"><title>Node9</title>
<polygon fill="white" stroke="#bfbfbf" points="939,-62.5 939,-81.5 983,-81.5 983,-62.5 939,-62.5"/>
<text text-anchor="middle" x="961" y="-69.5" font-family="Helvetica,sans-Serif" font-size="10.00">vector</text>
</g>
<!-- Node7&#45;&gt;Node9 -->
<g id="edge8" class="edge"><title>Node7&#45;&gt;Node9</title>
<path fill="none" stroke="midnightblue" d="M642.442,-192.498C688.73,-183.225 757.805,-168.093 782,-156 802.056,-145.976 801.356,-134.81 821,-124 865.698,-99.4036 882.713,-107.152 930,-88 931.638,-87.3365 933.312,-86.6262 934.99,-85.8887"/>
<polygon fill="midnightblue" stroke="midnightblue" points="936.848,-88.8853 944.45,-81.5053 933.905,-82.534 936.848,-88.8853"/>
</g>
<!-- Node10 -->
<g id="node10" class="node"><title>Node10</title>
<polygon fill="white" stroke="#bfbfbf" points="1001,-62.5 1001,-81.5 1115,-81.5 1115,-62.5 1001,-62.5"/>
<text text-anchor="middle" x="1058" y="-69.5" font-family="Helvetica,sans-Serif" font-size="10.00">boost/lexical_cast.hpp</text>
</g>
<!-- Node7&#45;&gt;Node10 -->
<g id="edge9" class="edge"><title>Node7&#45;&gt;Node10</title>
<path fill="none" stroke="midnightblue" d="M644.193,-193.301C647.171,-192.848 650.126,-192.41 653,-192 783.758,-173.331 825.531,-205.473 948,-156 986.212,-140.564 1022.81,-108.319 1042.66,-88.8762"/>
<polygon fill="midnightblue" stroke="midnightblue" points="1045.29,-91.1981 1049.87,-81.6465 1040.33,-86.2544 1045.29,-91.1981"/>
</g>
<!-- Node11 -->
<g id="node11" class="node"><title>Node11</title>
<g id="a_node11"><a xlink:href="compiler-util_8h.html" target="_top" xlink:title="common/compiler&#45;util.h">
<polygon fill="white" stroke="black" points="254,-130.5 254,-149.5 372,-149.5 372,-130.5 254,-130.5"/>
<text text-anchor="middle" x="313" y="-137.5" font-family="Helvetica,sans-Serif" font-size="10.00">common/compiler&#45;util.h</text>
</a>
</g>
</g>
<!-- Node7&#45;&gt;Node11 -->
<g id="edge11" class="edge"><title>Node7&#45;&gt;Node11</title>
<path fill="none" stroke="midnightblue" d="M557.469,-192.467C506.399,-181.716 418.635,-163.239 363.325,-151.595"/>
<polygon fill="midnightblue" stroke="midnightblue" points="363.898,-148.139 353.391,-149.503 362.456,-154.988 363.898,-148.139"/>
</g>
<!-- Node12 -->
<g id="node12" class="node"><title>Node12</title>
<polygon fill="white" stroke="#bfbfbf" points="654,-130.5 654,-149.5 774,-149.5 774,-130.5 654,-130.5"/>
<text text-anchor="middle" x="714" y="-137.5" font-family="Helvetica,sans-Serif" font-size="10.00">gen&#45;cpp/Status_types.h</text>
</g>
<!-- Node7&#45;&gt;Node12 -->
<g id="edge12" class="edge"><title>Node7&#45;&gt;Node12</title>
<path fill="none" stroke="midnightblue" d="M614.62,-192.403C633.915,-182.423 665.959,-165.849 688.431,-154.225"/>
<polygon fill="midnightblue" stroke="midnightblue" points="690.137,-157.284 697.411,-149.581 686.921,-151.066 690.137,-157.284"/>
</g>
<!-- Node13 -->
<g id="node13" class="node"><title>Node13</title>
<polygon fill="white" stroke="#bfbfbf" points="1133,-57 1133,-87 1237,-87 1237,-57 1133,-57"/>
<text text-anchor="start" x="1141" y="-75" font-family="Helvetica,sans-Serif" font-size="10.00">gen&#45;cpp/ErrorCodes</text>
<text text-anchor="middle" x="1185" y="-64" font-family="Helvetica,sans-Serif" font-size="10.00">_types.h</text>
</g>
<!-- Node7&#45;&gt;Node13 -->
<g id="edge13" class="edge"><title>Node7&#45;&gt;Node13</title>
<path fill="none" stroke="midnightblue" d="M644.186,-193.253C647.166,-192.811 650.124,-192.39 653,-192 801.391,-171.901 843.017,-193.468 988,-156 1046.63,-140.848 1110.56,-111.291 1149.2,-91.8484"/>
<polygon fill="midnightblue" stroke="midnightblue" points="1151.14,-94.7907 1158.47,-87.1382 1147.97,-88.5511 1151.14,-94.7907"/>
</g>
<!-- Node14 -->
<g id="node14" class="node"><title>Node14</title>
<polygon fill="white" stroke="#bfbfbf" points="830.5,-125 830.5,-155 939.5,-155 939.5,-125 830.5,-125"/>
<text text-anchor="start" x="838.5" y="-143" font-family="Helvetica,sans-Serif" font-size="10.00">gen&#45;cpp/TCLIService</text>
<text text-anchor="middle" x="885" y="-132" font-family="Helvetica,sans-Serif" font-size="10.00">_types.h</text>
</g>
<!-- Node7&#45;&gt;Node14 -->
<g id="edge14" class="edge"><title>Node7&#45;&gt;Node14</title>
<path fill="none" stroke="midnightblue" d="M640.227,-192.42C684.163,-183.461 754.944,-168.938 816,-156 817.462,-155.69 818.94,-155.376 820.432,-155.058"/>
<polygon fill="midnightblue" stroke="midnightblue" points="821.352,-158.441 830.398,-152.925 819.887,-151.596 821.352,-158.441"/>
</g>
<!-- Node15 -->
<g id="node15" class="node"><title>Node15</title>
<g id="a_node15"><a xlink:href="error-util_8h.html" target="_top" xlink:title="util/error&#45;util.h">
<polygon fill="white" stroke="black" points="560,-130.5 560,-149.5 636,-149.5 636,-130.5 560,-130.5"/>
<text text-anchor="middle" x="598" y="-137.5" font-family="Helvetica,sans-Serif" font-size="10.00">util/error&#45;util.h</text>
</a>
</g>
</g>
<!-- Node7&#45;&gt;Node15 -->
<g id="edge15" class="edge"><title>Node7&#45;&gt;Node15</title>
<path fill="none" stroke="midnightblue" d="M598,-192.403C598,-183.938 598,-170.728 598,-159.82"/>
<polygon fill="midnightblue" stroke="midnightblue" points="601.5,-159.581 598,-149.581 594.5,-159.581 601.5,-159.581"/>
</g>
<!-- Node15&#45;&gt;Node2 -->
<g id="edge18" class="edge"><title>Node15&#45;&gt;Node2</title>
<path fill="none" stroke="midnightblue" d="M559.903,-132.324C544.968,-129.715 527.682,-126.705 512,-124 418.252,-107.827 393.889,-108.54 301,-88 295.877,-86.8671 290.516,-85.5601 285.237,-84.1998"/>
<polygon fill="midnightblue" stroke="midnightblue" points="285.832,-80.7364 275.269,-81.5496 284.034,-87.5015 285.832,-80.7364"/>
</g>
<!-- Node15&#45;&gt;Node8 -->
<g id="edge16" class="edge"><title>Node15&#45;&gt;Node8</title>
<path fill="none" stroke="midnightblue" d="M570.055,-130.446C562.301,-128.207 553.855,-125.893 546,-124 464.567,-104.373 440.301,-114.978 361,-88 359.139,-87.367 357.248,-86.6402 355.366,-85.8554"/>
<polygon fill="midnightblue" stroke="midnightblue" points="356.769,-82.6479 346.225,-81.6126 353.822,-88.9973 356.769,-82.6479"/>
</g>
<!-- Node15&#45;&gt;Node9 -->
<g id="edge17" class="edge"><title>Node15&#45;&gt;Node9</title>
<path fill="none" stroke="midnightblue" d="M622.162,-130.355C629.429,-128.009 637.473,-125.662 645,-124 769.671,-96.4756 807.591,-124.283 930,-88 932.142,-87.365 934.32,-86.5956 936.477,-85.7447"/>
<polygon fill="midnightblue" stroke="midnightblue" points="937.925,-88.9315 945.626,-81.656 935.069,-82.5406 937.925,-88.9315"/>
</g>
<!-- Node15&#45;&gt;Node10 -->
<g id="edge19" class="edge"><title>Node15&#45;&gt;Node10</title>
<path fill="none" stroke="midnightblue" d="M621.657,-130.407C629.048,-128.005 637.287,-125.614 645,-124 796.329,-92.3299 838.415,-112.931 991,-88 998.279,-86.8107 1005.95,-85.32 1013.41,-83.7431"/>
<polygon fill="midnightblue" stroke="midnightblue" points="1014.36,-87.1182 1023.38,-81.5596 1012.86,-80.2803 1014.36,-87.1182"/>
</g>
<!-- Node15&#45;&gt;Node13 -->
<g id="edge21" class="edge"><title>Node15&#45;&gt;Node13</title>
<path fill="none" stroke="midnightblue" d="M621.148,-130.427C628.66,-127.967 637.097,-125.536 645,-124 851.293,-83.9035 911.304,-120.426 1122.69,-88.0179"/>
<polygon fill="midnightblue" stroke="midnightblue" points="1123.54,-91.4284 1132.87,-86.422 1122.45,-84.5128 1123.54,-91.4284"/>
</g>
<!-- Node16 -->
<g id="node16" class="node"><title>Node16</title>
<polygon fill="white" stroke="#bfbfbf" points="799,-57 799,-87 921,-87 921,-57 799,-57"/>
<text text-anchor="start" x="807" y="-75" font-family="Helvetica,sans-Serif" font-size="10.00">gen&#45;cpp/CatalogObjects</text>
<text text-anchor="middle" x="860" y="-64" font-family="Helvetica,sans-Serif" font-size="10.00">_types.h</text>
</g>
<!-- Node15&#45;&gt;Node16 -->
<g id="edge20" class="edge"><title>Node15&#45;&gt;Node16</title>
<path fill="none" stroke="midnightblue" d="M623.752,-130.393C630.624,-128.202 638.068,-125.925 645,-124 692.736,-110.741 747.026,-97.8807 789.108,-88.3908"/>
<polygon fill="midnightblue" stroke="midnightblue" points="789.993,-91.7794 798.984,-86.1749 788.46,-84.9492 789.993,-91.7794"/>
</g>
<!-- Node17 -->
<g id="node17" class="node"><title>Node17</title>
<polygon fill="white" stroke="#bfbfbf" points="370,-57 370,-87 474,-87 474,-57 370,-57"/>
<text text-anchor="start" x="378" y="-75" font-family="Helvetica,sans-Serif" font-size="10.00">gen&#45;cpp/ErrorCodes</text>
<text text-anchor="middle" x="422" y="-64" font-family="Helvetica,sans-Serif" font-size="10.00">_constants.h</text>
</g>
<!-- Node15&#45;&gt;Node17 -->
<g id="edge22" class="edge"><title>Node15&#45;&gt;Node17</title>
<path fill="none" stroke="midnightblue" d="M574.991,-130.372C548.277,-120.354 503.51,-103.566 469.283,-90.7312"/>
<polygon fill="midnightblue" stroke="midnightblue" points="470.076,-87.2904 459.483,-87.0562 467.618,-93.8447 470.076,-87.2904"/>
</g>
<!-- Node18 -->
<g id="node18" class="node"><title>Node18</title>
<polygon fill="white" stroke="#bfbfbf" points="492.5,-57 492.5,-87 641.5,-87 641.5,-57 492.5,-57"/>
<text text-anchor="start" x="500.5" y="-75" font-family="Helvetica,sans-Serif" font-size="10.00">gen&#45;cpp/ImpalaInternalService</text>
<text text-anchor="middle" x="567" y="-64" font-family="Helvetica,sans-Serif" font-size="10.00">_types.h</text>
</g>
<!-- Node15&#45;&gt;Node18 -->
<g id="edge23" class="edge"><title>Node15&#45;&gt;Node18</title>
<path fill="none" stroke="midnightblue" d="M593.947,-130.372C589.921,-121.8 583.567,-108.272 578.04,-96.5045"/>
<polygon fill="midnightblue" stroke="midnightblue" points="581.08,-94.7448 573.661,-87.1815 574.744,-97.7208 581.08,-94.7448"/>
</g>
<!-- Node19 -->
<g id="node19" class="node"><title>Node19</title>
<polygon fill="white" stroke="#bfbfbf" points="659.5,-62.5 659.5,-81.5 780.5,-81.5 780.5,-62.5 659.5,-62.5"/>
<text text-anchor="middle" x="720" y="-69.5" font-family="Helvetica,sans-Serif" font-size="10.00">gutil/strings/substitute.h</text>
</g>
<!-- Node15&#45;&gt;Node19 -->
<g id="edge24" class="edge"><title>Node15&#45;&gt;Node19</title>
<path fill="none" stroke="midnightblue" d="M613.949,-130.372C634.591,-119.205 670.781,-99.6266 695.068,-86.4876"/>
<polygon fill="midnightblue" stroke="midnightblue" points="696.917,-89.4671 704.047,-81.6305 693.586,-83.3103 696.917,-89.4671"/>
</g>
<!-- Node20&#45;&gt;Node11 -->
<g id="edge27" class="edge"><title>Node20&#45;&gt;Node11</title>
<path fill="none" stroke="midnightblue" d="M268.45,-192.403C276.328,-183.314 288.945,-168.756 298.744,-157.449"/>
<polygon fill="midnightblue" stroke="midnightblue" points="301.659,-159.43 305.563,-149.581 296.369,-154.845 301.659,-159.43"/>
</g>
<!-- Node21 -->
<g id="node21" class="node"><title>Node21</title>
<polygon fill="white" stroke="#bfbfbf" points="182.5,-130.5 182.5,-149.5 235.5,-149.5 235.5,-130.5 182.5,-130.5"/>
<text text-anchor="middle" x="209" y="-137.5" font-family="Helvetica,sans-Serif" font-size="10.00">endian.h</text>
</g>
<!-- Node20&#45;&gt;Node21 -->
<g id="edge26" class="edge"><title>Node20&#45;&gt;Node21</title>
<path fill="none" stroke="midnightblue" d="M253.55,-192.403C245.672,-183.314 233.055,-168.756 223.256,-157.449"/>
<polygon fill="midnightblue" stroke="midnightblue" points="225.631,-154.845 216.437,-149.581 220.341,-159.43 225.631,-154.845"/>
</g>
<!-- Node22 -->
<g id="node22" class="node"><title>Node22</title>
<g id="a_node22"><a xlink:href="cpu-info_8h.html" target="_top" xlink:title="util/cpu&#45;info.h">
<polygon fill="white" stroke="black" points="428.5,-130.5 428.5,-149.5 503.5,-149.5 503.5,-130.5 428.5,-130.5"/>
<text text-anchor="middle" x="466" y="-137.5" font-family="Helvetica,sans-Serif" font-size="10.00">util/cpu&#45;info.h</text>
</a>
</g>
</g>
<!-- Node20&#45;&gt;Node22 -->
<g id="edge28" class="edge"><title>Node20&#45;&gt;Node22</title>
<path fill="none" stroke="midnightblue" d="M290.372,-192.403C326.297,-181.889 387.232,-164.054 427.044,-152.402"/>
<polygon fill="midnightblue" stroke="midnightblue" points="428.069,-155.749 436.683,-149.581 426.102,-149.031 428.069,-155.749"/>
</g>
<!-- Node23 -->
<g id="node23" class="node"><title>Node23</title>
<g id="a_node23"><a xlink:href="sse-util_8h.html" target="_top" xlink:title="util/sse&#45;util.h">
<polygon fill="white" stroke="black" points="92,-130.5 92,-149.5 164,-149.5 164,-130.5 92,-130.5"/>
<text text-anchor="middle" x="128" y="-137.5" font-family="Helvetica,sans-Serif" font-size="10.00">util/sse&#45;util.h</text>
</a>
</g>
</g>
<!-- Node20&#45;&gt;Node23 -->
<g id="edge32" class="edge"><title>Node20&#45;&gt;Node23</title>
<path fill="none" stroke="midnightblue" d="M241.944,-192.403C219.525,-182.29 182.095,-165.404 156.287,-153.761"/>
<polygon fill="midnightblue" stroke="midnightblue" points="157.575,-150.502 147.02,-149.581 154.696,-156.883 157.575,-150.502"/>
</g>
<!-- Node22&#45;&gt;Node2 -->
<g id="edge30" class="edge"><title>Node22&#45;&gt;Node2</title>
<path fill="none" stroke="midnightblue" d="M437.239,-130.372C398.015,-118.604 327.654,-97.4961 284.086,-84.4257"/>
<polygon fill="midnightblue" stroke="midnightblue" points="285.004,-81.047 274.42,-81.5259 282.992,-87.7518 285.004,-81.047"/>
</g>
<!-- Node22&#45;&gt;Node4 -->
<g id="edge31" class="edge"><title>Node22&#45;&gt;Node4</title>
<path fill="none" stroke="midnightblue" d="M438.633,-130.435C430.734,-128.145 422.068,-125.808 414,-124 316.035,-102.047 289.216,-108.799 191,-88 185.557,-86.8473 179.854,-85.5075 174.248,-84.1121"/>
<polygon fill="midnightblue" stroke="midnightblue" points="174.894,-80.6647 164.338,-81.5689 173.154,-87.4449 174.894,-80.6647"/>
</g>
<!-- Node22&#45;&gt;Node8 -->
<g id="edge29" class="edge"><title>Node22&#45;&gt;Node8</title>
<path fill="none" stroke="midnightblue" d="M448.134,-130.399C427.215,-120.311 391.539,-103.051 361,-88 359.825,-87.4208 358.624,-86.8276 357.412,-86.2272"/>
<polygon fill="midnightblue" stroke="midnightblue" points="358.629,-82.9232 348.117,-81.6009 355.51,-89.1899 358.629,-82.9232"/>
</g>
<!-- Node24 -->
<g id="node24" class="node"><title>Node24</title>
<polygon fill="white" stroke="#bfbfbf" points="0,-62.5 0,-81.5 68,-81.5 68,-62.5 0,-62.5"/>
<text text-anchor="middle" x="34" y="-69.5" font-family="Helvetica,sans-Serif" font-size="10.00">emmintrin.h</text>
</g>
<!-- Node23&#45;&gt;Node24 -->
<g id="edge33" class="edge"><title>Node23&#45;&gt;Node24</title>
<path fill="none" stroke="midnightblue" d="M115.711,-130.372C100.229,-119.502 73.3949,-100.66 54.7191,-87.5474"/>
<polygon fill="midnightblue" stroke="midnightblue" points="56.4872,-84.5124 46.2919,-81.6305 52.4648,-90.2413 56.4872,-84.5124"/>
</g>
</g>
</svg>
