<?xml version="1.0" encoding="UTF-8" standalone="no"?>
<!DOCTYPE svg PUBLIC "-//W3C//DTD SVG 1.1//EN"
 "http://www.w3.org/Graphics/SVG/1.1/DTD/svg11.dtd">
<!-- Generated by graphviz version 2.36.0 (20140111.2315)
 -->
<!-- Title: be/src/util/redactor.h Pages: 1 -->
<!--zoomable 164 -->
<svg id="main" version="1.1" xmlns="http://www.w3.org/2000/svg" xmlns:xlink="http://www.w3.org/1999/xlink" xml:space="preserve" onload="init(evt)">
<style type="text/css"><![CDATA[
.edge:hover path { stroke: red; }
.edge:hover polygon { stroke: red; fill: red; }
]]></style>
<script type="text/javascript"><![CDATA[
var edges = document.getElementsByTagName('g');
if (edges && edges.length) {
  for (var i=0;i<edges.length;i++) {
    if (edges[i].id.substr(0,4)=='edge') {
      edges[i].setAttribute('class','edge');
    }
  }
}
]]></script>
        <defs>
                <circle id="rim" cx="0" cy="0" r="7"/>
                <circle id="rim2" cx="0" cy="0" r="3.5"/>
                <g id="zoomPlus">
                        <use xlink:href="#rim" fill="#404040">
                                <set attributeName="fill" to="#808080" begin="zoomplus.mouseover" end="zoomplus.mouseout"/>
                        </use>
                        <path d="M-4,0h8M0,-4v8" fill="none" stroke="white" stroke-width="1.5" pointer-events="none"/>
                </g>
                <g id="zoomMin">
                        <use xlink:href="#rim" fill="#404040">
                                <set attributeName="fill" to="#808080" begin="zoomminus.mouseover" end="zoomminus.mouseout"/>
                        </use>
                        <path d="M-4,0h8" fill="none" stroke="white" stroke-width="1.5" pointer-events="none"/>
                </g>
                <g id="dirArrow">
                        <path fill="none" stroke="white" stroke-width="1.5" d="M0,-3.0v7 M-2.5,-0.5L0,-3.0L2.5,-0.5"/>
                </g>
               <g id="resetDef">
                       <use xlink:href="#rim2" fill="#404040">
                               <set attributeName="fill" to="#808080" begin="reset.mouseover" end="reset.mouseout"/>
                       </use>
               </g>
        </defs>

<script type="text/javascript">
var viewWidth = 889;
var viewHeight = 164;
var sectionId = 'dynsection-1';
</script>
<script xlink:href="svgpan.js"/>
<svg id="graph" class="graph">
<g id="viewport">
<title>be/src/util/redactor.h</title>
<polygon fill="white" stroke="none" points="-4,4 -4,-160 885,-160 885,4 -4,4"/>
<!-- Node1 -->
<g id="node1" class="node"><title>Node1</title>
<polygon fill="#bfbfbf" stroke="black" points="410,-136.5 410,-155.5 516,-155.5 516,-136.5 410,-136.5"/>
<text text-anchor="middle" x="463" y="-143.5" font-family="Helvetica,sans-Serif" font-size="10.00">be/src/util/redactor.h</text>
</g>
<!-- Node2 -->
<g id="node2" class="node"><title>Node2</title>
<g id="a_node2"><a xlink:href="init_8cc.html" target="_top" xlink:title="be/src/common/init.cc">
<polygon fill="white" stroke="black" points="-0.5,-74.5 -0.5,-93.5 112.5,-93.5 112.5,-74.5 -0.5,-74.5"/>
<text text-anchor="middle" x="56" y="-81.5" font-family="Helvetica,sans-Serif" font-size="10.00">be/src/common/init.cc</text>
</a>
</g>
</g>
<!-- Node1&#45;&gt;Node2 -->
<g id="edge1" class="edge"><title>Node1&#45;&gt;Node2</title>
<path fill="none" stroke="midnightblue" d="M399.68,-138.414C331.01,-130.859 218.302,-117.26 122,-100 111.822,-98.1758 100.842,-95.8333 90.8149,-93.5443"/>
<polygon fill="midnightblue" stroke="midnightblue" points="399.578,-141.923 409.899,-139.529 400.338,-134.964 399.578,-141.923"/>
</g>
<!-- Node3 -->
<g id="node3" class="node"><title>Node3</title>
<g id="a_node3"><a xlink:href="logging_8cc.html" target="_top" xlink:title="be/src/common/logging.cc">
<polygon fill="white" stroke="black" points="130.5,-74.5 130.5,-93.5 261.5,-93.5 261.5,-74.5 130.5,-74.5"/>
<text text-anchor="middle" x="196" y="-81.5" font-family="Helvetica,sans-Serif" font-size="10.00">be/src/common/logging.cc</text>
</a>
</g>
</g>
<!-- Node1&#45;&gt;Node3 -->
<g id="edge2" class="edge"><title>Node1&#45;&gt;Node3</title>
<path fill="none" stroke="midnightblue" d="M415.064,-134.228C363.157,-122.563 281.423,-104.196 233.84,-93.5034"/>
<polygon fill="midnightblue" stroke="midnightblue" points="414.505,-137.689 425.029,-136.467 416.04,-130.86 414.505,-137.689"/>
</g>
<!-- Node4 -->
<g id="node4" class="node"><title>Node4</title>
<g id="a_node4"><a xlink:href="impala-server-callbacks_8cc.html" target="_top" xlink:title="be/src/service/impala\l&#45;server&#45;callbacks.cc">
<polygon fill="white" stroke="black" points="280,-69 280,-99 390,-99 390,-69 280,-69"/>
<text text-anchor="start" x="288" y="-87" font-family="Helvetica,sans-Serif" font-size="10.00">be/src/service/impala</text>
<text text-anchor="middle" x="335" y="-76" font-family="Helvetica,sans-Serif" font-size="10.00">&#45;server&#45;callbacks.cc</text>
</a>
</g>
</g>
<!-- Node1&#45;&gt;Node4 -->
<g id="edge3" class="edge"><title>Node1&#45;&gt;Node4</title>
<path fill="none" stroke="midnightblue" d="M435.465,-132.093C414.778,-122.396 386.465,-109.124 365.167,-99.1408"/>
<polygon fill="midnightblue" stroke="midnightblue" points="434.121,-135.328 444.661,-136.403 437.092,-128.99 434.121,-135.328"/>
</g>
<!-- Node5 -->
<g id="node5" class="node"><title>Node5</title>
<g id="a_node5"><a xlink:href="impala-server_8cc.html" target="_top" xlink:title="be/src/service/impala\l&#45;server.cc">
<polygon fill="white" stroke="black" points="408,-69 408,-99 518,-99 518,-69 408,-69"/>
<text text-anchor="start" x="416" y="-87" font-family="Helvetica,sans-Serif" font-size="10.00">be/src/service/impala</text>
<text text-anchor="middle" x="463" y="-76" font-family="Helvetica,sans-Serif" font-size="10.00">&#45;server.cc</text>
</a>
</g>
</g>
<!-- Node1&#45;&gt;Node5 -->
<g id="edge4" class="edge"><title>Node1&#45;&gt;Node5</title>
<path fill="none" stroke="midnightblue" d="M463,-126.371C463,-117.585 463,-107.272 463,-99.1408"/>
<polygon fill="midnightblue" stroke="midnightblue" points="459.5,-126.403 463,-136.403 466.5,-126.403 459.5,-126.403"/>
</g>
<!-- Node6 -->
<g id="node6" class="node"><title>Node6</title>
<g id="a_node6"><a xlink:href="redactor_8cc.html" target="_top" xlink:title="be/src/util/redactor.cc">
<polygon fill="white" stroke="black" points="536.5,-74.5 536.5,-93.5 647.5,-93.5 647.5,-74.5 536.5,-74.5"/>
<text text-anchor="middle" x="592" y="-81.5" font-family="Helvetica,sans-Serif" font-size="10.00">be/src/util/redactor.cc</text>
</a>
</g>
</g>
<!-- Node1&#45;&gt;Node6 -->
<g id="edge5" class="edge"><title>Node1&#45;&gt;Node6</title>
<path fill="none" stroke="midnightblue" d="M490.807,-132.066C515.839,-120.424 551.918,-103.643 573.552,-93.5806"/>
<polygon fill="midnightblue" stroke="midnightblue" points="489.074,-129.013 481.483,-136.403 492.026,-135.36 489.074,-129.013"/>
</g>
<!-- Node10 -->
<g id="node10" class="node"><title>Node10</title>
<g id="a_node10"><a xlink:href="runtime-profile_8cc.html" target="_top" xlink:title="be/src/util/runtime\l&#45;profile.cc">
<polygon fill="white" stroke="black" points="665.5,-69 665.5,-99 760.5,-99 760.5,-69 665.5,-69"/>
<text text-anchor="start" x="673.5" y="-87" font-family="Helvetica,sans-Serif" font-size="10.00">be/src/util/runtime</text>
<text text-anchor="middle" x="713" y="-76" font-family="Helvetica,sans-Serif" font-size="10.00">&#45;profile.cc</text>
</a>
</g>
</g>
<!-- Node1&#45;&gt;Node10 -->
<g id="edge9" class="edge"><title>Node1&#45;&gt;Node10</title>
<path fill="none" stroke="midnightblue" d="M510.959,-134.214C550.065,-125.324 606.696,-112.233 656,-100 659.079,-99.2361 662.248,-98.4373 665.44,-97.6232"/>
<polygon fill="midnightblue" stroke="midnightblue" points="510.139,-130.811 501.161,-136.437 511.687,-137.637 510.139,-130.811"/>
</g>
<!-- Node11 -->
<g id="node11" class="node"><title>Node11</title>
<g id="a_node11"><a xlink:href="summary-util_8cc.html" target="_top" xlink:title="be/src/util/summary\l&#45;util.cc">
<polygon fill="white" stroke="black" points="778.5,-69 778.5,-99 881.5,-99 881.5,-69 778.5,-69"/>
<text text-anchor="start" x="786.5" y="-87" font-family="Helvetica,sans-Serif" font-size="10.00">be/src/util/summary</text>
<text text-anchor="middle" x="830" y="-76" font-family="Helvetica,sans-Serif" font-size="10.00">&#45;util.cc</text>
</a>
</g>
</g>
<!-- Node1&#45;&gt;Node11 -->
<g id="edge10" class="edge"><title>Node1&#45;&gt;Node11</title>
<path fill="none" stroke="midnightblue" d="M526.087,-137.504C588.167,-129.709 685.517,-116.364 769,-100 772.104,-99.3916 775.287,-98.7286 778.492,-98.0311"/>
<polygon fill="midnightblue" stroke="midnightblue" points="525.546,-134.044 516.056,-138.753 526.412,-140.99 525.546,-134.044"/>
</g>
<!-- Node7 -->
<g id="node7" class="node"><title>Node7</title>
<g id="a_node7"><a xlink:href="redactor-config-parser-test_8cc.html" target="_top" xlink:title="be/src/util/redactor\l&#45;config&#45;parser&#45;test.cc">
<polygon fill="white" stroke="black" points="415.5,-1 415.5,-31 524.5,-31 524.5,-1 415.5,-1"/>
<text text-anchor="start" x="423.5" y="-19" font-family="Helvetica,sans-Serif" font-size="10.00">be/src/util/redactor</text>
<text text-anchor="middle" x="470" y="-8" font-family="Helvetica,sans-Serif" font-size="10.00">&#45;config&#45;parser&#45;test.cc</text>
</a>
</g>
</g>
<!-- Node6&#45;&gt;Node7 -->
<g id="edge6" class="edge"><title>Node6&#45;&gt;Node7</title>
<path fill="none" stroke="midnightblue" d="M567.237,-69.6034C546.59,-58.4338 517.255,-42.5642 496.214,-31.1815"/>
<polygon fill="midnightblue" stroke="midnightblue" points="565.59,-72.6918 576.051,-74.3717 568.921,-66.535 565.59,-72.6918"/>
</g>
<!-- Node8 -->
<g id="node8" class="node"><title>Node8</title>
<g id="a_node8"><a xlink:href="redactor-test_8cc.html" target="_top" xlink:title="be/src/util/redactor\l&#45;test.cc">
<polygon fill="white" stroke="black" points="543,-1 543,-31 641,-31 641,-1 543,-1"/>
<text text-anchor="start" x="551" y="-19" font-family="Helvetica,sans-Serif" font-size="10.00">be/src/util/redactor</text>
<text text-anchor="middle" x="592" y="-8" font-family="Helvetica,sans-Serif" font-size="10.00">&#45;test.cc</text>
</a>
</g>
</g>
<!-- Node6&#45;&gt;Node8 -->
<g id="edge7" class="edge"><title>Node6&#45;&gt;Node8</title>
<path fill="none" stroke="midnightblue" d="M592,-64.1737C592,-53.6781 592,-40.8209 592,-31.1815"/>
<polygon fill="midnightblue" stroke="midnightblue" points="588.5,-64.3716 592,-74.3717 595.5,-64.3717 588.5,-64.3716"/>
</g>
<!-- Node9 -->
<g id="node9" class="node"><title>Node9</title>
<g id="a_node9"><a xlink:href="redactor-unconfigured-test_8cc.html" target="_top" xlink:title="be/src/util/redactor\l&#45;unconfigured&#45;test.cc">
<polygon fill="white" stroke="black" points="659,-1 659,-31 767,-31 767,-1 659,-1"/>
<text text-anchor="start" x="667" y="-19" font-family="Helvetica,sans-Serif" font-size="10.00">be/src/util/redactor</text>
<text text-anchor="middle" x="713" y="-8" font-family="Helvetica,sans-Serif" font-size="10.00">&#45;unconfigured&#45;test.cc</text>
</a>
</g>
</g>
<!-- Node6&#45;&gt;Node9 -->
<g id="edge8" class="edge"><title>Node6&#45;&gt;Node9</title>
<path fill="none" stroke="midnightblue" d="M616.838,-69.4522C637.3,-58.2909 666.226,-42.5129 687.001,-31.1815"/>
<polygon fill="midnightblue" stroke="midnightblue" points="614.922,-66.5104 607.819,-74.3717 618.274,-72.6557 614.922,-66.5104"/>
</g>
</g>
</svg>
        <g id="navigator" transform="translate(0 0)" fill="#404254">
                <rect fill="#f2f5e9" fill-opacity="0.5" stroke="#606060" stroke-width=".5" x="0" y="0" width="60" height="60"/>
                <use id="zoomplus" xlink:href="#zoomPlus" x="17" y="9" onmousedown="handleZoom(evt,'in')"/>
                <use id="zoomminus" xlink:href="#zoomMin" x="42" y="9" onmousedown="handleZoom(evt,'out')"/>
                <use id="reset" xlink:href="#resetDef" x="30" y="36" onmousedown="handleReset()"/>
                <g id="arrowUp" xlink:href="#dirArrow" transform="translate(30 24)" onmousedown="handlePan(0,-1)">
                  <use xlink:href="#rim" fill="#404040">
                        <set attributeName="fill" to="#808080" begin="arrowUp.mouseover" end="arrowUp.mouseout"/>
                  </use>
                  <path fill="none" stroke="white" stroke-width="1.5" d="M0,-3.0v7 M-2.5,-0.5L0,-3.0L2.5,-0.5"/>
                </g>
                <g id="arrowRight" xlink:href="#dirArrow" transform="rotate(90) translate(36 -43)" onmousedown="handlePan(1,0)">
                  <use xlink:href="#rim" fill="#404040">
                        <set attributeName="fill" to="#808080" begin="arrowRight.mouseover" end="arrowRight.mouseout"/>
                  </use>
                  <path fill="none" stroke="white" stroke-width="1.5" d="M0,-3.0v7 M-2.5,-0.5L0,-3.0L2.5,-0.5"/>
                </g>
                <g id="arrowDown" xlink:href="#dirArrow" transform="rotate(180) translate(-30 -48)" onmousedown="handlePan(0,1)">
                  <use xlink:href="#rim" fill="#404040">
                        <set attributeName="fill" to="#808080" begin="arrowDown.mouseover" end="arrowDown.mouseout"/>
                  </use>
                  <path fill="none" stroke="white" stroke-width="1.5" d="M0,-3.0v7 M-2.5,-0.5L0,-3.0L2.5,-0.5"/>
                </g>
                <g id="arrowLeft" xlink:href="#dirArrow" transform="rotate(270) translate(-36 17)" onmousedown="handlePan(-1,0)">
                  <use xlink:href="#rim" fill="#404040">
                        <set attributeName="fill" to="#808080" begin="arrowLeft.mouseover" end="arrowLeft.mouseout"/>
                  </use>
                  <path fill="none" stroke="white" stroke-width="1.5" d="M0,-3.0v7 M-2.5,-0.5L0,-3.0L2.5,-0.5"/>
                </g>
        </g>
        <svg viewBox="0 0 15 15" width="100%" height="30px" preserveAspectRatio="xMaxYMin meet">
         <g id="arrow_out" transform="scale(0.3 0.3)">
          <a xlink:href="redactor_8h__dep__incl_org.svg" target="_base">
           <rect id="button" ry="5" rx="5" y="6" x="6" height="38" width="38"
                fill="#f2f5e9" fill-opacity="0.5" stroke="#606060" stroke-width="1.0"/>
           <path id="arrow"
             d="M 11.500037,31.436501 C 11.940474,20.09759 22.043105,11.32322 32.158766,21.979434 L 37.068811,17.246167 C 37.068811,17.246167 37.088388,32 37.088388,32 L 22.160133,31.978069 C 22.160133,31.978069 26.997745,27.140456 26.997745,27.140456 C 18.528582,18.264221 13.291696,25.230495 11.500037,31.436501 z"
             style="fill:#404040;"/>
          </a>
         </g>
        </svg>
</svg>
