<?xml version="1.0" encoding="UTF-8" standalone="no"?>
<!DOCTYPE svg PUBLIC "-//W3C//DTD SVG 1.1//EN"
 "http://www.w3.org/Graphics/SVG/1.1/DTD/svg11.dtd">
<!-- Generated by graphviz version 2.36.0 (20140111.2315)
 -->
<!-- Title: be/src/rpc/rpc&#45;trace.h Pages: 1 -->
<svg width="837pt" height="96pt"
 viewBox="0.00 0.00 837.00 96.00" xmlns="http://www.w3.org/2000/svg" xmlns:xlink="http://www.w3.org/1999/xlink">
<g id="graph0" class="graph" transform="scale(1 1) rotate(0) translate(4 92)">
<title>be/src/rpc/rpc&#45;trace.h</title>
<polygon fill="white" stroke="none" points="-4,4 -4,-92 833,-92 833,4 -4,4"/>
<!-- Node1 -->
<g id="node1" class="node"><title>Node1</title>
<polygon fill="#bfbfbf" stroke="black" points="335,-68.5 335,-87.5 445,-87.5 445,-68.5 335,-68.5"/>
<text text-anchor="middle" x="390" y="-75.5" font-family="Helvetica,sans-Serif" font-size="10.00">be/src/rpc/rpc&#45;trace.h</text>
</g>
<!-- Node2 -->
<g id="node2" class="node"><title>Node2</title>
<g id="a_node2"><a xlink:href="catalogd-main_8cc.html" target="_top" xlink:title="be/src/catalog/catalogd\l&#45;main.cc">
<polygon fill="white" stroke="black" points="0,-1 0,-31 118,-31 118,-1 0,-1"/>
<text text-anchor="start" x="8" y="-19" font-family="Helvetica,sans-Serif" font-size="10.00">be/src/catalog/catalogd</text>
<text text-anchor="middle" x="59" y="-8" font-family="Helvetica,sans-Serif" font-size="10.00">&#45;main.cc</text>
</a>
</g>
</g>
<!-- Node1&#45;&gt;Node2 -->
<g id="edge1" class="edge"><title>Node1&#45;&gt;Node2</title>
<path fill="none" stroke="midnightblue" d="M325.715,-66.8784C272.37,-58.269 194.586,-45.2285 127,-32 124.153,-31.4427 121.241,-30.858 118.303,-30.256"/>
<polygon fill="midnightblue" stroke="midnightblue" points="325.286,-70.3543 335.715,-68.4866 326.397,-63.4431 325.286,-70.3543"/>
</g>
<!-- Node3 -->
<g id="node3" class="node"><title>Node3</title>
<g id="a_node3"><a xlink:href="rpc-trace_8cc.html" target="_top" xlink:title="be/src/rpc/rpc&#45;trace.cc">
<polygon fill="white" stroke="black" points="136.5,-6.5 136.5,-25.5 251.5,-25.5 251.5,-6.5 136.5,-6.5"/>
<text text-anchor="middle" x="194" y="-13.5" font-family="Helvetica,sans-Serif" font-size="10.00">be/src/rpc/rpc&#45;trace.cc</text>
</a>
</g>
</g>
<!-- Node1&#45;&gt;Node3 -->
<g id="edge2" class="edge"><title>Node1&#45;&gt;Node3</title>
<path fill="none" stroke="midnightblue" d="M352.212,-65.4322C314.119,-53.7711 256.209,-36.0436 222.03,-25.5806"/>
<polygon fill="midnightblue" stroke="midnightblue" points="351.331,-68.823 361.918,-68.4035 353.38,-62.1295 351.331,-68.823"/>
</g>
<!-- Node4 -->
<g id="node4" class="node"><title>Node4</title>
<g id="a_node4"><a xlink:href="impala-server_8cc.html" target="_top" xlink:title="be/src/service/impala\l&#45;server.cc">
<polygon fill="white" stroke="black" points="270,-1 270,-31 380,-31 380,-1 270,-1"/>
<text text-anchor="start" x="278" y="-19" font-family="Helvetica,sans-Serif" font-size="10.00">be/src/service/impala</text>
<text text-anchor="middle" x="325" y="-8" font-family="Helvetica,sans-Serif" font-size="10.00">&#45;server.cc</text>
</a>
</g>
</g>
<!-- Node1&#45;&gt;Node4 -->
<g id="edge3" class="edge"><title>Node1&#45;&gt;Node4</title>
<path fill="none" stroke="midnightblue" d="M373.227,-61.5169C363.067,-52.1384 350.205,-40.2659 340.319,-31.1408"/>
<polygon fill="midnightblue" stroke="midnightblue" points="370.965,-64.1925 380.687,-68.4035 375.713,-59.0488 370.965,-64.1925"/>
</g>
<!-- Node5 -->
<g id="node5" class="node"><title>Node5</title>
<g id="a_node5"><a xlink:href="impalad-main_8cc.html" target="_top" xlink:title="be/src/service/impalad\l&#45;main.cc">
<polygon fill="white" stroke="black" points="398.5,-1 398.5,-31 513.5,-31 513.5,-1 398.5,-1"/>
<text text-anchor="start" x="406.5" y="-19" font-family="Helvetica,sans-Serif" font-size="10.00">be/src/service/impalad</text>
<text text-anchor="middle" x="456" y="-8" font-family="Helvetica,sans-Serif" font-size="10.00">&#45;main.cc</text>
</a>
</g>
</g>
<!-- Node1&#45;&gt;Node5 -->
<g id="edge4" class="edge"><title>Node1&#45;&gt;Node5</title>
<path fill="none" stroke="midnightblue" d="M407.031,-61.5169C417.348,-52.1384 430.408,-40.2659 440.445,-31.1408"/>
<polygon fill="midnightblue" stroke="midnightblue" points="404.501,-59.0869 399.456,-68.4035 409.21,-64.2665 404.501,-59.0869"/>
</g>
<!-- Node6 -->
<g id="node6" class="node"><title>Node6</title>
<g id="a_node6"><a xlink:href="statestore-subscriber_8cc.html" target="_top" xlink:title="be/src/statestore/statestore\l&#45;subscriber.cc">
<polygon fill="white" stroke="black" points="531.5,-1 531.5,-31 668.5,-31 668.5,-1 531.5,-1"/>
<text text-anchor="start" x="539.5" y="-19" font-family="Helvetica,sans-Serif" font-size="10.00">be/src/statestore/statestore</text>
<text text-anchor="middle" x="600" y="-8" font-family="Helvetica,sans-Serif" font-size="10.00">&#45;subscriber.cc</text>
</a>
</g>
</g>
<!-- Node1&#45;&gt;Node6 -->
<g id="edge5" class="edge"><title>Node1&#45;&gt;Node6</title>
<path fill="none" stroke="midnightblue" d="M429.795,-65.6299C464.193,-55.802 514.044,-41.5589 550.911,-31.0253"/>
<polygon fill="midnightblue" stroke="midnightblue" points="428.742,-62.2908 420.088,-68.4035 430.665,-69.0215 428.742,-62.2908"/>
</g>
<!-- Node7 -->
<g id="node7" class="node"><title>Node7</title>
<g id="a_node7"><a xlink:href="statestored-main_8cc.html" target="_top" xlink:title="be/src/statestore/statestored\l&#45;main.cc">
<polygon fill="white" stroke="black" points="687,-1 687,-31 829,-31 829,-1 687,-1"/>
<text text-anchor="start" x="695" y="-19" font-family="Helvetica,sans-Serif" font-size="10.00">be/src/statestore/statestored</text>
<text text-anchor="middle" x="758" y="-8" font-family="Helvetica,sans-Serif" font-size="10.00">&#45;main.cc</text>
</a>
</g>
</g>
<!-- Node1&#45;&gt;Node7 -->
<g id="edge6" class="edge"><title>Node1&#45;&gt;Node7</title>
<path fill="none" stroke="midnightblue" d="M455.255,-67.2926C513.481,-58.5062 601.025,-44.9884 677,-32 680.242,-31.4457 683.556,-30.8699 686.902,-30.281"/>
<polygon fill="midnightblue" stroke="midnightblue" points="454.461,-63.8727 445.094,-68.823 455.503,-70.7947 454.461,-63.8727"/>
</g>
</g>
</svg>
