<?xml version="1.0" encoding="UTF-8" standalone="no"?>
<!DOCTYPE svg PUBLIC "-//W3C//DTD SVG 1.1//EN"
 "http://www.w3.org/Graphics/SVG/1.1/DTD/svg11.dtd">
<!-- Generated by graphviz version 2.36.0 (20140111.2315)
 -->
<!-- Title: be/src/exec/select&#45;node.h Pages: 1 -->
<svg width="251pt" height="108pt"
 viewBox="0.00 0.00 251.00 108.00" xmlns="http://www.w3.org/2000/svg" xmlns:xlink="http://www.w3.org/1999/xlink">
<g id="graph0" class="graph" transform="scale(1 1) rotate(0) translate(4 104)">
<title>be/src/exec/select&#45;node.h</title>
<polygon fill="white" stroke="none" points="-4,4 -4,-104 247,-104 247,4 -4,4"/>
<!-- Node1 -->
<g id="node1" class="node"><title>Node1</title>
<polygon fill="#bfbfbf" stroke="black" points="80.5,-69 80.5,-99 177.5,-99 177.5,-69 80.5,-69"/>
<text text-anchor="start" x="88.5" y="-87" font-family="Helvetica,sans-Serif" font-size="10.00">be/src/exec/select</text>
<text text-anchor="middle" x="129" y="-76" font-family="Helvetica,sans-Serif" font-size="10.00">&#45;node.h</text>
</g>
<!-- Node2 -->
<g id="node2" class="node"><title>Node2</title>
<g id="a_node2"><a xlink:href="exec-node_8cc.html" target="_top" xlink:title="be/src/exec/exec&#45;node.cc">
<polygon fill="white" stroke="black" points="-0.5,-6.5 -0.5,-25.5 128.5,-25.5 128.5,-6.5 -0.5,-6.5"/>
<text text-anchor="middle" x="64" y="-13.5" font-family="Helvetica,sans-Serif" font-size="10.00">be/src/exec/exec&#45;node.cc</text>
</a>
</g>
</g>
<!-- Node1&#45;&gt;Node2 -->
<g id="edge1" class="edge"><title>Node1&#45;&gt;Node2</title>
<path fill="none" stroke="midnightblue" d="M107.835,-61.5094C95.901,-49.3918 81.6359,-34.9072 72.6945,-25.8283"/>
<polygon fill="midnightblue" stroke="midnightblue" points="105.385,-64.01 114.896,-68.679 110.373,-59.0982 105.385,-64.01"/>
</g>
<!-- Node3 -->
<g id="node3" class="node"><title>Node3</title>
<g id="a_node3"><a xlink:href="select-node_8cc.html" target="_top" xlink:title="be/src/exec/select\l&#45;node.cc">
<polygon fill="white" stroke="black" points="146.5,-1 146.5,-31 243.5,-31 243.5,-1 146.5,-1"/>
<text text-anchor="start" x="154.5" y="-19" font-family="Helvetica,sans-Serif" font-size="10.00">be/src/exec/select</text>
<text text-anchor="middle" x="195" y="-8" font-family="Helvetica,sans-Serif" font-size="10.00">&#45;node.cc</text>
</a>
</g>
</g>
<!-- Node1&#45;&gt;Node3 -->
<g id="edge2" class="edge"><title>Node1&#45;&gt;Node3</title>
<path fill="none" stroke="midnightblue" d="M150.515,-61.4855C160.415,-51.5852 171.891,-40.1092 180.707,-31.2931"/>
<polygon fill="midnightblue" stroke="midnightblue" points="147.917,-59.133 143.321,-68.679 152.867,-64.0828 147.917,-59.133"/>
</g>
</g>
</svg>
