<?xml version="1.0" encoding="UTF-8" standalone="no"?>
<!DOCTYPE svg PUBLIC "-//W3C//DTD SVG 1.1//EN"
 "http://www.w3.org/Graphics/SVG/1.1/DTD/svg11.dtd">
<!-- Generated by graphviz version 2.36.0 (20140111.2315)
 -->
<!-- Title: be/src/statestore/simple&#45;scheduler.h Pages: 1 -->
<svg width="2426pt" height="380pt"
 viewBox="0.00 0.00 2426.00 380.00" xmlns="http://www.w3.org/2000/svg" xmlns:xlink="http://www.w3.org/1999/xlink">
<g id="graph0" class="graph" transform="scale(1 1) rotate(0) translate(4 376)">
<title>be/src/statestore/simple&#45;scheduler.h</title>
<polygon fill="white" stroke="none" points="-4,4 -4,-376 2422,-376 2422,4 -4,4"/>
<!-- Node1 -->
<g id="node1" class="node"><title>Node1</title>
<polygon fill="#bfbfbf" stroke="black" points="1927,-341 1927,-371 2049,-371 2049,-341 1927,-341"/>
<text text-anchor="start" x="1935" y="-359" font-family="Helvetica,sans-Serif" font-size="10.00">be/src/statestore/simple</text>
<text text-anchor="middle" x="1988" y="-348" font-family="Helvetica,sans-Serif" font-size="10.00">&#45;scheduler.h</text>
</g>
<!-- Node2 -->
<g id="node2" class="node"><title>Node2</title>
<g id="a_node2"><a xlink:href="coordinator_8h.html" target="_top" xlink:title="be/src/runtime/coordinator.h">
<polygon fill="white" stroke="black" points="1100,-278.5 1100,-297.5 1238,-297.5 1238,-278.5 1100,-278.5"/>
<text text-anchor="middle" x="1169" y="-285.5" font-family="Helvetica,sans-Serif" font-size="10.00">be/src/runtime/coordinator.h</text>
</a>
</g>
</g>
<!-- Node1&#45;&gt;Node2 -->
<g id="edge1" class="edge"><title>Node1&#45;&gt;Node2</title>
<path fill="none" stroke="midnightblue" d="M1916.37,-349.228C1760.44,-336.662 1391.95,-306.967 1238.23,-294.579"/>
<polygon fill="midnightblue" stroke="midnightblue" points="1916.53,-352.752 1926.78,-350.066 1917.09,-345.774 1916.53,-352.752"/>
</g>
<!-- Node12 -->
<g id="node12" class="node"><title>Node12</title>
<g id="a_node12"><a xlink:href="impala-beeswax-server_8cc.html" target="_top" xlink:title="be/src/service/impala\l&#45;beeswax&#45;server.cc">
<polygon fill="white" stroke="black" points="1717,-1 1717,-31 1827,-31 1827,-1 1717,-1"/>
<text text-anchor="start" x="1725" y="-19" font-family="Helvetica,sans-Serif" font-size="10.00">be/src/service/impala</text>
<text text-anchor="middle" x="1772" y="-8" font-family="Helvetica,sans-Serif" font-size="10.00">&#45;beeswax&#45;server.cc</text>
</a>
</g>
</g>
<!-- Node1&#45;&gt;Node12 -->
<g id="edge39" class="edge"><title>Node1&#45;&gt;Node12</title>
<path fill="none" stroke="midnightblue" d="M1988,-330.907C1988,-304.083 1988,-259.44 1988,-221 1988,-221 1988,-221 1988,-151 1988,-75.317 1891.06,-40.8988 1827.06,-26.4232"/>
<polygon fill="midnightblue" stroke="midnightblue" points="1984.5,-330.917 1988,-340.917 1991.5,-330.917 1984.5,-330.917"/>
</g>
<!-- Node15 -->
<g id="node15" class="node"><title>Node15</title>
<g id="a_node15"><a xlink:href="impala-server_8cc.html" target="_top" xlink:title="be/src/service/impala\l&#45;server.cc">
<polygon fill="white" stroke="black" points="763,-1 763,-31 873,-31 873,-1 763,-1"/>
<text text-anchor="start" x="771" y="-19" font-family="Helvetica,sans-Serif" font-size="10.00">be/src/service/impala</text>
<text text-anchor="middle" x="818" y="-8" font-family="Helvetica,sans-Serif" font-size="10.00">&#45;server.cc</text>
</a>
</g>
</g>
<!-- Node1&#45;&gt;Node15 -->
<g id="edge40" class="edge"><title>Node1&#45;&gt;Node15</title>
<path fill="none" stroke="midnightblue" d="M1985.13,-330.624C1978.53,-279.033 1960.53,-161.449 1931,-136 1850.04,-66.2221 1086.25,-28.4904 873.037,-19.2583"/>
<polygon fill="midnightblue" stroke="midnightblue" points="1981.69,-331.359 1986.4,-340.851 1988.64,-330.497 1981.69,-331.359"/>
</g>
<!-- Node23 -->
<g id="node23" class="node"><title>Node23</title>
<g id="a_node23"><a xlink:href="simple-scheduler_8cc.html" target="_top" xlink:title="be/src/statestore/simple\l&#45;scheduler.cc">
<polygon fill="white" stroke="black" points="1800,-137 1800,-167 1922,-167 1922,-137 1800,-137"/>
<text text-anchor="start" x="1808" y="-155" font-family="Helvetica,sans-Serif" font-size="10.00">be/src/statestore/simple</text>
<text text-anchor="middle" x="1861" y="-144" font-family="Helvetica,sans-Serif" font-size="10.00">&#45;scheduler.cc</text>
</a>
</g>
</g>
<!-- Node1&#45;&gt;Node23 -->
<g id="edge42" class="edge"><title>Node1&#45;&gt;Node23</title>
<path fill="none" stroke="midnightblue" d="M1963.13,-333.837C1953.89,-325.191 1943.78,-314.712 1936,-304 1902.63,-258.051 1876.77,-195.027 1866.2,-167.195"/>
<polygon fill="midnightblue" stroke="midnightblue" points="1960.85,-336.501 1970.61,-340.633 1965.56,-331.319 1960.85,-336.501"/>
</g>
<!-- Node26 -->
<g id="node26" class="node"><title>Node26</title>
<g id="a_node26"><a xlink:href="exec-env_8cc.html" target="_top" xlink:title="be/src/runtime/exec\l&#45;env.cc">
<polygon fill="white" stroke="black" points="2016.5,-273 2016.5,-303 2119.5,-303 2119.5,-273 2016.5,-273"/>
<text text-anchor="start" x="2024.5" y="-291" font-family="Helvetica,sans-Serif" font-size="10.00">be/src/runtime/exec</text>
<text text-anchor="middle" x="2068" y="-280" font-family="Helvetica,sans-Serif" font-size="10.00">&#45;env.cc</text>
</a>
</g>
</g>
<!-- Node1&#45;&gt;Node26 -->
<g id="edge37" class="edge"><title>Node1&#45;&gt;Node26</title>
<path fill="none" stroke="midnightblue" d="M2013.08,-334.309C2025.4,-324.143 2039.93,-312.156 2050.95,-303.066"/>
<polygon fill="midnightblue" stroke="midnightblue" points="2010.85,-331.615 2005.36,-340.679 2015.3,-337.015 2010.85,-331.615"/>
</g>
<!-- Node27 -->
<g id="node27" class="node"><title>Node27</title>
<g id="a_node27"><a xlink:href="admission-controller_8cc.html" target="_top" xlink:title="be/src/scheduling/admission\l&#45;controller.cc">
<polygon fill="white" stroke="black" points="2138,-273 2138,-303 2278,-303 2278,-273 2138,-273"/>
<text text-anchor="start" x="2146" y="-291" font-family="Helvetica,sans-Serif" font-size="10.00">be/src/scheduling/admission</text>
<text text-anchor="middle" x="2208" y="-280" font-family="Helvetica,sans-Serif" font-size="10.00">&#45;controller.cc</text>
</a>
</g>
</g>
<!-- Node1&#45;&gt;Node27 -->
<g id="edge38" class="edge"><title>Node1&#45;&gt;Node27</title>
<path fill="none" stroke="midnightblue" d="M2044.83,-337.952C2080.95,-327.116 2127.14,-313.259 2161.15,-303.056"/>
<polygon fill="midnightblue" stroke="midnightblue" points="2043.5,-334.696 2034.93,-340.922 2045.51,-341.401 2043.5,-334.696"/>
</g>
<!-- Node28 -->
<g id="node28" class="node"><title>Node28</title>
<g id="a_node28"><a xlink:href="simple-scheduler-test_8cc.html" target="_top" xlink:title="be/src/statestore/simple\l&#45;scheduler&#45;test.cc">
<polygon fill="white" stroke="black" points="2296,-273 2296,-303 2418,-303 2418,-273 2296,-273"/>
<text text-anchor="start" x="2304" y="-291" font-family="Helvetica,sans-Serif" font-size="10.00">be/src/statestore/simple</text>
<text text-anchor="middle" x="2357" y="-280" font-family="Helvetica,sans-Serif" font-size="10.00">&#45;scheduler&#45;test.cc</text>
</a>
</g>
</g>
<!-- Node1&#45;&gt;Node28 -->
<g id="edge41" class="edge"><title>Node1&#45;&gt;Node28</title>
<path fill="none" stroke="midnightblue" d="M2059.36,-343.696C2120.03,-333.878 2209.4,-318.926 2287,-304 2289.93,-303.437 2292.92,-302.847 2295.95,-302.241"/>
<polygon fill="midnightblue" stroke="midnightblue" points="2058.44,-340.299 2049.12,-345.348 2059.55,-347.21 2058.44,-340.299"/>
</g>
<!-- Node3 -->
<g id="node3" class="node"><title>Node3</title>
<g id="a_node3"><a xlink:href="coordinator_8cc.html" target="_top" xlink:title="be/src/runtime/coordinator.cc">
<polygon fill="white" stroke="black" points="1097.5,-210.5 1097.5,-229.5 1240.5,-229.5 1240.5,-210.5 1097.5,-210.5"/>
<text text-anchor="middle" x="1169" y="-217.5" font-family="Helvetica,sans-Serif" font-size="10.00">be/src/runtime/coordinator.cc</text>
</a>
</g>
</g>
<!-- Node2&#45;&gt;Node3 -->
<g id="edge2" class="edge"><title>Node2&#45;&gt;Node3</title>
<path fill="none" stroke="midnightblue" d="M1169,-268.041C1169,-255.472 1169,-239.563 1169,-229.841"/>
<polygon fill="midnightblue" stroke="midnightblue" points="1165.5,-268.372 1169,-278.372 1172.5,-268.372 1165.5,-268.372"/>
</g>
<!-- Node4 -->
<g id="node4" class="node"><title>Node4</title>
<g id="a_node4"><a xlink:href="impala-server_8h.html" target="_top" xlink:title="be/src/service/impala\l&#45;server.h">
<polygon fill="white" stroke="black" points="771,-205 771,-235 881,-235 881,-205 771,-205"/>
<text text-anchor="start" x="779" y="-223" font-family="Helvetica,sans-Serif" font-size="10.00">be/src/service/impala</text>
<text text-anchor="middle" x="826" y="-212" font-family="Helvetica,sans-Serif" font-size="10.00">&#45;server.h</text>
</a>
</g>
</g>
<!-- Node2&#45;&gt;Node4 -->
<g id="edge3" class="edge"><title>Node2&#45;&gt;Node4</title>
<path fill="none" stroke="midnightblue" d="M1114.63,-276.538C1050.76,-264.249 945.402,-243.975 881.186,-231.619"/>
<polygon fill="midnightblue" stroke="midnightblue" points="1114.03,-279.987 1124.51,-278.439 1115.35,-273.113 1114.03,-279.987"/>
</g>
<!-- Node21 -->
<g id="node21" class="node"><title>Node21</title>
<g id="a_node21"><a xlink:href="impalad-main_8cc.html" target="_top" xlink:title="be/src/service/impalad\l&#45;main.cc">
<polygon fill="white" stroke="black" points="-0.5,-137 -0.5,-167 114.5,-167 114.5,-137 -0.5,-137"/>
<text text-anchor="start" x="7.5" y="-155" font-family="Helvetica,sans-Serif" font-size="10.00">be/src/service/impalad</text>
<text text-anchor="middle" x="57" y="-144" font-family="Helvetica,sans-Serif" font-size="10.00">&#45;main.cc</text>
</a>
</g>
</g>
<!-- Node2&#45;&gt;Node21 -->
<g id="edge35" class="edge"><title>Node2&#45;&gt;Node21</title>
<path fill="none" stroke="midnightblue" d="M1089.83,-280.432C915.525,-265.427 485.674,-225.436 129,-168 124.336,-167.249 119.516,-166.402 114.682,-165.502"/>
<polygon fill="midnightblue" stroke="midnightblue" points="1089.68,-283.932 1099.95,-281.299 1090.28,-276.958 1089.68,-283.932"/>
</g>
<!-- Node2&#45;&gt;Node23 -->
<g id="edge36" class="edge"><title>Node2&#45;&gt;Node23</title>
<path fill="none" stroke="midnightblue" d="M1223.91,-276.54C1331.72,-255.977 1578.6,-208.74 1786,-168 1790.43,-167.13 1795.01,-166.226 1799.61,-165.313"/>
<polygon fill="midnightblue" stroke="midnightblue" points="1223.09,-273.134 1213.92,-278.445 1224.4,-280.01 1223.09,-273.134"/>
</g>
<!-- Node5 -->
<g id="node5" class="node"><title>Node5</title>
<g id="a_node5"><a xlink:href="catalog-op-executor_8cc.html" target="_top" xlink:title="be/src/exec/catalog\l&#45;op&#45;executor.cc">
<polygon fill="white" stroke="black" points="451,-137 451,-167 553,-167 553,-137 451,-137"/>
<text text-anchor="start" x="459" y="-155" font-family="Helvetica,sans-Serif" font-size="10.00">be/src/exec/catalog</text>
<text text-anchor="middle" x="502" y="-144" font-family="Helvetica,sans-Serif" font-size="10.00">&#45;op&#45;executor.cc</text>
</a>
</g>
</g>
<!-- Node4&#45;&gt;Node5 -->
<g id="edge4" class="edge"><title>Node4&#45;&gt;Node5</title>
<path fill="none" stroke="midnightblue" d="M760.978,-206.801C708.525,-196.814 632.891,-182.086 567,-168 562.47,-167.032 557.768,-166 553.06,-164.947"/>
<polygon fill="midnightblue" stroke="midnightblue" points="760.345,-210.243 770.822,-208.671 761.651,-203.366 760.345,-210.243"/>
</g>
<!-- Node6 -->
<g id="node6" class="node"><title>Node6</title>
<g id="a_node6"><a xlink:href="expr-benchmark_8cc.html" target="_top" xlink:title="be/src/exprs/expr&#45;benchmark.cc">
<polygon fill="white" stroke="black" points="1312.5,-142.5 1312.5,-161.5 1469.5,-161.5 1469.5,-142.5 1312.5,-142.5"/>
<text text-anchor="middle" x="1391" y="-149.5" font-family="Helvetica,sans-Serif" font-size="10.00">be/src/exprs/expr&#45;benchmark.cc</text>
</a>
</g>
</g>
<!-- Node4&#45;&gt;Node6 -->
<g id="edge5" class="edge"><title>Node4&#45;&gt;Node6</title>
<path fill="none" stroke="midnightblue" d="M891.532,-213.011C982.799,-204.422 1153.28,-187.476 1298,-168 1311.94,-166.124 1327.01,-163.816 1340.88,-161.577"/>
<polygon fill="midnightblue" stroke="midnightblue" points="890.969,-209.549 881.339,-213.967 891.622,-216.518 890.969,-209.549"/>
</g>
<!-- Node7 -->
<g id="node7" class="node"><title>Node7</title>
<g id="a_node7"><a xlink:href="expr-test_8cc.html" target="_top" xlink:title="be/src/exprs/expr&#45;test.cc">
<polygon fill="white" stroke="black" points="1487.5,-142.5 1487.5,-161.5 1612.5,-161.5 1612.5,-142.5 1487.5,-142.5"/>
<text text-anchor="middle" x="1550" y="-149.5" font-family="Helvetica,sans-Serif" font-size="10.00">be/src/exprs/expr&#45;test.cc</text>
</a>
</g>
</g>
<!-- Node4&#45;&gt;Node7 -->
<g id="edge6" class="edge"><title>Node4&#45;&gt;Node7</title>
<path fill="none" stroke="midnightblue" d="M891.379,-214.95C1033.34,-205.982 1366.01,-183.979 1478,-168 1489.63,-166.341 1502.2,-163.937 1513.53,-161.538"/>
<polygon fill="midnightblue" stroke="midnightblue" points="890.846,-211.476 881.086,-215.598 891.286,-218.463 890.846,-211.476"/>
</g>
<!-- Node8 -->
<g id="node8" class="node"><title>Node8</title>
<g id="a_node8"><a xlink:href="thrift-server-test_8cc.html" target="_top" xlink:title="be/src/rpc/thrift&#45;server\l&#45;test.cc">
<polygon fill="white" stroke="black" points="1630.5,-137 1630.5,-167 1743.5,-167 1743.5,-137 1630.5,-137"/>
<text text-anchor="start" x="1638.5" y="-155" font-family="Helvetica,sans-Serif" font-size="10.00">be/src/rpc/thrift&#45;server</text>
<text text-anchor="middle" x="1687" y="-144" font-family="Helvetica,sans-Serif" font-size="10.00">&#45;test.cc</text>
</a>
</g>
</g>
<!-- Node4&#45;&gt;Node8 -->
<g id="edge7" class="edge"><title>Node4&#45;&gt;Node8</title>
<path fill="none" stroke="midnightblue" d="M891.188,-215.102C1074.77,-204.088 1585.13,-173.193 1621,-168 1624.02,-167.562 1627.11,-167.059 1630.23,-166.507"/>
<polygon fill="midnightblue" stroke="midnightblue" points="890.904,-211.613 881.132,-215.705 891.323,-218.6 890.904,-211.613"/>
</g>
<!-- Node9 -->
<g id="node9" class="node"><title>Node9</title>
<g id="a_node9"><a xlink:href="child-query_8h.html" target="_top" xlink:title="be/src/service/child\l&#45;query.h">
<polygon fill="white" stroke="black" points="217.5,-137 217.5,-167 318.5,-167 318.5,-137 217.5,-137"/>
<text text-anchor="start" x="225.5" y="-155" font-family="Helvetica,sans-Serif" font-size="10.00">be/src/service/child</text>
<text text-anchor="middle" x="268" y="-144" font-family="Helvetica,sans-Serif" font-size="10.00">&#45;query.h</text>
</a>
</g>
</g>
<!-- Node4&#45;&gt;Node9 -->
<g id="edge8" class="edge"><title>Node4&#45;&gt;Node9</title>
<path fill="none" stroke="midnightblue" d="M760.993,-214.849C666.359,-208.224 485.325,-193.355 333,-168 328.316,-167.22 323.465,-166.306 318.621,-165.319"/>
<polygon fill="midnightblue" stroke="midnightblue" points="760.771,-218.342 770.988,-215.54 761.254,-211.358 760.771,-218.342"/>
</g>
<!-- Node11 -->
<g id="node11" class="node"><title>Node11</title>
<g id="a_node11"><a xlink:href="query-exec-state_8h.html" target="_top" xlink:title="be/src/service/query\l&#45;exec&#45;state.h">
<polygon fill="white" stroke="black" points="375.5,-69 375.5,-99 480.5,-99 480.5,-69 375.5,-69"/>
<text text-anchor="start" x="383.5" y="-87" font-family="Helvetica,sans-Serif" font-size="10.00">be/src/service/query</text>
<text text-anchor="middle" x="428" y="-76" font-family="Helvetica,sans-Serif" font-size="10.00">&#45;exec&#45;state.h</text>
</a>
</g>
</g>
<!-- Node4&#45;&gt;Node11 -->
<g id="edge30" class="edge"><title>Node4&#45;&gt;Node11</title>
<path fill="none" stroke="midnightblue" d="M760.556,-215.685C649.023,-209.361 431.882,-193.851 409,-168 391.952,-148.74 406.856,-117.318 418.153,-99.1637"/>
<polygon fill="midnightblue" stroke="midnightblue" points="760.504,-219.188 770.683,-216.251 760.894,-212.199 760.504,-219.188"/>
</g>
<!-- Node4&#45;&gt;Node12 -->
<g id="edge18" class="edge"><title>Node4&#45;&gt;Node12</title>
<path fill="none" stroke="midnightblue" d="M891.475,-215.196C944.472,-212.131 1021.04,-207.732 1088,-204 1124.89,-201.944 1724.88,-193.091 1752,-168 1790.43,-132.439 1781.38,-61.5572 1775.3,-31.2645"/>
<polygon fill="midnightblue" stroke="midnightblue" points="890.981,-211.719 881.2,-215.791 891.385,-218.707 890.981,-211.719"/>
</g>
<!-- Node13 -->
<g id="node13" class="node"><title>Node13</title>
<g id="a_node13"><a xlink:href="impala-hs2-server_8cc.html" target="_top" xlink:title="be/src/service/impala\l&#45;hs2&#45;server.cc">
<polygon fill="white" stroke="black" points="107,-1 107,-31 217,-31 217,-1 107,-1"/>
<text text-anchor="start" x="115" y="-19" font-family="Helvetica,sans-Serif" font-size="10.00">be/src/service/impala</text>
<text text-anchor="middle" x="162" y="-8" font-family="Helvetica,sans-Serif" font-size="10.00">&#45;hs2&#45;server.cc</text>
</a>
</g>
</g>
<!-- Node4&#45;&gt;Node13 -->
<g id="edge19" class="edge"><title>Node4&#45;&gt;Node13</title>
<path fill="none" stroke="midnightblue" d="M760.466,-215.425C603.859,-206.651 219.141,-183.627 196,-168 151.461,-137.923 155.762,-62.6781 159.775,-31.1978"/>
<polygon fill="midnightblue" stroke="midnightblue" points="760.713,-218.945 770.892,-216.007 761.103,-211.955 760.713,-218.945"/>
</g>
<!-- Node14 -->
<g id="node14" class="node"><title>Node14</title>
<g id="a_node14"><a xlink:href="impala-server-callbacks_8cc.html" target="_top" xlink:title="be/src/service/impala\l&#45;server&#45;callbacks.cc">
<polygon fill="white" stroke="black" points="355,-1 355,-31 465,-31 465,-1 355,-1"/>
<text text-anchor="start" x="363" y="-19" font-family="Helvetica,sans-Serif" font-size="10.00">be/src/service/impala</text>
<text text-anchor="middle" x="410" y="-8" font-family="Helvetica,sans-Serif" font-size="10.00">&#45;server&#45;callbacks.cc</text>
</a>
</g>
</g>
<!-- Node4&#45;&gt;Node14 -->
<g id="edge23" class="edge"><title>Node4&#45;&gt;Node14</title>
<path fill="none" stroke="midnightblue" d="M760.76,-214.702C648.215,-206.78 426.803,-188.771 398,-168 360.151,-140.705 349.739,-111.74 366,-68 371.379,-53.5314 382.909,-40.4242 392.817,-31.1213"/>
<polygon fill="midnightblue" stroke="midnightblue" points="760.754,-218.21 770.974,-215.414 761.241,-211.227 760.754,-218.21"/>
</g>
<!-- Node4&#45;&gt;Node15 -->
<g id="edge24" class="edge"><title>Node4&#45;&gt;Node15</title>
<path fill="none" stroke="midnightblue" d="M760.839,-213.225C701.387,-206.447 619.855,-192.835 600,-168 547.245,-102.013 682.127,-53.0413 762.756,-30.5956"/>
<polygon fill="midnightblue" stroke="midnightblue" points="760.597,-216.72 770.92,-214.334 761.362,-209.762 760.597,-216.72"/>
</g>
<!-- Node16 -->
<g id="node16" class="node"><title>Node16</title>
<g id="a_node16"><a xlink:href="query-exec-state_8cc.html" target="_top" xlink:title="be/src/service/query\l&#45;exec&#45;state.cc">
<polygon fill="white" stroke="black" points="483.5,-1 483.5,-31 588.5,-31 588.5,-1 483.5,-1"/>
<text text-anchor="start" x="491.5" y="-19" font-family="Helvetica,sans-Serif" font-size="10.00">be/src/service/query</text>
<text text-anchor="middle" x="536" y="-8" font-family="Helvetica,sans-Serif" font-size="10.00">&#45;exec&#45;state.cc</text>
</a>
</g>
</g>
<!-- Node4&#45;&gt;Node16 -->
<g id="edge29" class="edge"><title>Node4&#45;&gt;Node16</title>
<path fill="none" stroke="midnightblue" d="M760.688,-214.956C656.596,-207.839 462.639,-191.561 442,-168 432.629,-157.302 435.704,-148.753 442,-136 453.648,-112.406 471.725,-119.848 489,-100 507.7,-78.5155 522.488,-48.4333 530.18,-31.0049"/>
<polygon fill="midnightblue" stroke="midnightblue" points="760.565,-218.456 770.778,-215.637 761.036,-211.472 760.565,-218.456"/>
</g>
<!-- Node17 -->
<g id="node17" class="node"><title>Node17</title>
<g id="a_node17"><a xlink:href="fe-support_8cc.html" target="_top" xlink:title="be/src/service/fe&#45;support.cc">
<polygon fill="white" stroke="black" points="609,-142.5 609,-161.5 747,-161.5 747,-142.5 609,-142.5"/>
<text text-anchor="middle" x="678" y="-149.5" font-family="Helvetica,sans-Serif" font-size="10.00">be/src/service/fe&#45;support.cc</text>
</a>
</g>
</g>
<!-- Node4&#45;&gt;Node17 -->
<g id="edge17" class="edge"><title>Node4&#45;&gt;Node17</title>
<path fill="none" stroke="midnightblue" d="M784.915,-200.679C756.364,-187.946 719.603,-171.553 697.468,-161.682"/>
<polygon fill="midnightblue" stroke="midnightblue" points="783.692,-203.965 794.25,-204.841 786.543,-197.572 783.692,-203.965"/>
</g>
<!-- Node18 -->
<g id="node18" class="node"><title>Node18</title>
<g id="a_node18"><a xlink:href="impala-internal-service-proxy_8h.html" target="_top" xlink:title="be/src/service/impala\l&#45;internal&#45;service&#45;proxy.h">
<polygon fill="white" stroke="black" points="765.5,-137 765.5,-167 886.5,-167 886.5,-137 765.5,-137"/>
<text text-anchor="start" x="773.5" y="-155" font-family="Helvetica,sans-Serif" font-size="10.00">be/src/service/impala</text>
<text text-anchor="middle" x="826" y="-144" font-family="Helvetica,sans-Serif" font-size="10.00">&#45;internal&#45;service&#45;proxy.h</text>
</a>
</g>
</g>
<!-- Node4&#45;&gt;Node18 -->
<g id="edge20" class="edge"><title>Node4&#45;&gt;Node18</title>
<path fill="none" stroke="midnightblue" d="M826,-194.532C826,-185.361 826,-175.245 826,-167.293"/>
<polygon fill="midnightblue" stroke="midnightblue" points="822.5,-194.679 826,-204.679 829.5,-194.679 822.5,-194.679"/>
</g>
<!-- Node19 -->
<g id="node19" class="node"><title>Node19</title>
<g id="a_node19"><a xlink:href="impala-internal-service_8h.html" target="_top" xlink:title="be/src/service/impala\l&#45;internal&#45;service.h">
<polygon fill="white" stroke="black" points="1074,-69 1074,-99 1184,-99 1184,-69 1074,-69"/>
<text text-anchor="start" x="1082" y="-87" font-family="Helvetica,sans-Serif" font-size="10.00">be/src/service/impala</text>
<text text-anchor="middle" x="1129" y="-76" font-family="Helvetica,sans-Serif" font-size="10.00">&#45;internal&#45;service.h</text>
</a>
</g>
</g>
<!-- Node4&#45;&gt;Node19 -->
<g id="edge21" class="edge"><title>Node4&#45;&gt;Node19</title>
<path fill="none" stroke="midnightblue" d="M891.255,-216.107C1007.29,-210.29 1239.66,-195.335 1264,-168 1293.27,-135.122 1233.22,-110.92 1184.06,-97.3913"/>
<polygon fill="midnightblue" stroke="midnightblue" points="890.891,-212.621 881.076,-216.609 891.236,-219.612 890.891,-212.621"/>
</g>
<!-- Node20 -->
<g id="node20" class="node"><title>Node20</title>
<g id="a_node20"><a xlink:href="impala-server_8inline_8h.html" target="_top" xlink:title="be/src/service/impala\l&#45;server.inline.h">
<polygon fill="white" stroke="black" points="171,-69 171,-99 281,-99 281,-69 171,-69"/>
<text text-anchor="start" x="179" y="-87" font-family="Helvetica,sans-Serif" font-size="10.00">be/src/service/impala</text>
<text text-anchor="middle" x="226" y="-76" font-family="Helvetica,sans-Serif" font-size="10.00">&#45;server.inline.h</text>
</a>
</g>
</g>
<!-- Node4&#45;&gt;Node20 -->
<g id="edge25" class="edge"><title>Node4&#45;&gt;Node20</title>
<path fill="none" stroke="midnightblue" d="M760.634,-215.968C605.483,-208.455 226.535,-188.128 208,-168 190.621,-149.127 205.182,-117.566 216.293,-99.283"/>
<polygon fill="midnightblue" stroke="midnightblue" points="760.811,-219.48 770.968,-216.465 761.147,-212.488 760.811,-219.48"/>
</g>
<!-- Node4&#45;&gt;Node21 -->
<g id="edge28" class="edge"><title>Node4&#45;&gt;Node21</title>
<path fill="none" stroke="midnightblue" d="M760.543,-217.099C636.7,-212.864 359.82,-200.344 129,-168 124.321,-167.344 119.491,-166.565 114.651,-165.711"/>
<polygon fill="midnightblue" stroke="midnightblue" points="760.509,-220.6 770.62,-217.437 760.743,-213.604 760.509,-220.6"/>
</g>
<!-- Node22 -->
<g id="node22" class="node"><title>Node22</title>
<g id="a_node22"><a xlink:href="session-expiry-test_8cc.html" target="_top" xlink:title="be/src/service/session\l&#45;expiry&#45;test.cc">
<polygon fill="white" stroke="black" points="904.5,-137 904.5,-167 1019.5,-167 1019.5,-137 904.5,-137"/>
<text text-anchor="start" x="912.5" y="-155" font-family="Helvetica,sans-Serif" font-size="10.00">be/src/service/session</text>
<text text-anchor="middle" x="962" y="-144" font-family="Helvetica,sans-Serif" font-size="10.00">&#45;expiry&#45;test.cc</text>
</a>
</g>
</g>
<!-- Node4&#45;&gt;Node22 -->
<g id="edge31" class="edge"><title>Node4&#45;&gt;Node22</title>
<path fill="none" stroke="midnightblue" d="M864.453,-200.339C886.177,-189.796 912.895,-176.83 932.873,-167.135"/>
<polygon fill="midnightblue" stroke="midnightblue" points="862.644,-197.327 855.175,-204.841 865.7,-203.624 862.644,-197.327"/>
</g>
<!-- Node4&#45;&gt;Node23 -->
<g id="edge32" class="edge"><title>Node4&#45;&gt;Node23</title>
<path fill="none" stroke="midnightblue" d="M891.472,-215.149C944.468,-212.056 1021.04,-207.644 1088,-204 1398.18,-187.122 1477.77,-206.563 1786,-168 1790.48,-167.44 1795.09,-166.763 1799.72,-166.012"/>
<polygon fill="midnightblue" stroke="midnightblue" points="890.976,-211.671 881.197,-215.749 891.384,-218.66 890.976,-211.671"/>
</g>
<!-- Node24 -->
<g id="node24" class="node"><title>Node24</title>
<g id="a_node24"><a xlink:href="in-process-servers_8cc.html" target="_top" xlink:title="be/src/testutil/in\l&#45;process&#45;servers.cc">
<polygon fill="white" stroke="black" points="1037.5,-137 1037.5,-167 1140.5,-167 1140.5,-137 1037.5,-137"/>
<text text-anchor="start" x="1045.5" y="-155" font-family="Helvetica,sans-Serif" font-size="10.00">be/src/testutil/in</text>
<text text-anchor="middle" x="1089" y="-144" font-family="Helvetica,sans-Serif" font-size="10.00">&#45;process&#45;servers.cc</text>
</a>
</g>
</g>
<!-- Node4&#45;&gt;Node24 -->
<g id="edge33" class="edge"><title>Node4&#45;&gt;Node24</title>
<path fill="none" stroke="midnightblue" d="M891.093,-202.665C936.112,-191.367 995.211,-176.537 1037.07,-166.032"/>
<polygon fill="midnightblue" stroke="midnightblue" points="889.981,-199.335 881.133,-205.164 891.685,-206.125 889.981,-199.335"/>
</g>
<!-- Node25 -->
<g id="node25" class="node"><title>Node25</title>
<g id="a_node25"><a xlink:href="mini-impala-cluster_8cc.html" target="_top" xlink:title="be/src/testutil/mini\l&#45;impala&#45;cluster.cc">
<polygon fill="white" stroke="black" points="1158.5,-137 1158.5,-167 1255.5,-167 1255.5,-137 1158.5,-137"/>
<text text-anchor="start" x="1166.5" y="-155" font-family="Helvetica,sans-Serif" font-size="10.00">be/src/testutil/mini</text>
<text text-anchor="middle" x="1207" y="-144" font-family="Helvetica,sans-Serif" font-size="10.00">&#45;impala&#45;cluster.cc</text>
</a>
</g>
</g>
<!-- Node4&#45;&gt;Node25 -->
<g id="edge34" class="edge"><title>Node4&#45;&gt;Node25</title>
<path fill="none" stroke="midnightblue" d="M891.333,-210.569C956.817,-201.678 1060.36,-186.415 1149,-168 1152.05,-167.365 1155.19,-166.673 1158.35,-165.946"/>
<polygon fill="midnightblue" stroke="midnightblue" points="890.601,-207.136 881.158,-211.941 891.536,-214.074 890.601,-207.136"/>
</g>
<!-- Node10 -->
<g id="node10" class="node"><title>Node10</title>
<g id="a_node10"><a xlink:href="child-query_8cc.html" target="_top" xlink:title="be/src/service/child\l&#45;query.cc">
<polygon fill="white" stroke="black" points="235.5,-1 235.5,-31 336.5,-31 336.5,-1 235.5,-1"/>
<text text-anchor="start" x="243.5" y="-19" font-family="Helvetica,sans-Serif" font-size="10.00">be/src/service/child</text>
<text text-anchor="middle" x="286" y="-8" font-family="Helvetica,sans-Serif" font-size="10.00">&#45;query.cc</text>
</a>
</g>
</g>
<!-- Node9&#45;&gt;Node10 -->
<g id="edge9" class="edge"><title>Node9&#45;&gt;Node10</title>
<path fill="none" stroke="midnightblue" d="M280.474,-127.579C284.328,-119.131 288.066,-109.367 290,-100 294.901,-76.2643 291.647,-47.9366 288.83,-31.266"/>
<polygon fill="midnightblue" stroke="midnightblue" points="277.222,-126.265 275.998,-136.789 283.517,-129.325 277.222,-126.265"/>
</g>
<!-- Node9&#45;&gt;Node11 -->
<g id="edge10" class="edge"><title>Node9&#45;&gt;Node11</title>
<path fill="none" stroke="midnightblue" d="M311.903,-132.89C337.793,-122.21 370.065,-108.898 394.008,-99.0218"/>
<polygon fill="midnightblue" stroke="midnightblue" points="310.234,-129.792 302.324,-136.841 312.903,-136.264 310.234,-129.792"/>
</g>
<!-- Node11&#45;&gt;Node10 -->
<g id="edge11" class="edge"><title>Node11&#45;&gt;Node10</title>
<path fill="none" stroke="midnightblue" d="M388.459,-64.6218C365.669,-54.0292 337.458,-40.9173 316.412,-31.1352"/>
<polygon fill="midnightblue" stroke="midnightblue" points="386.994,-67.8003 397.537,-68.8413 389.944,-61.4525 386.994,-67.8003"/>
</g>
<!-- Node11&#45;&gt;Node12 -->
<g id="edge12" class="edge"><title>Node11&#45;&gt;Node12</title>
<path fill="none" stroke="midnightblue" d="M490.806,-79.9158C718.9,-68.7147 1501.36,-30.2902 1716.74,-19.7137"/>
<polygon fill="midnightblue" stroke="midnightblue" points="490.503,-76.4264 480.686,-80.4127 490.846,-83.4179 490.503,-76.4264"/>
</g>
<!-- Node11&#45;&gt;Node13 -->
<g id="edge13" class="edge"><title>Node11&#45;&gt;Node13</title>
<path fill="none" stroke="midnightblue" d="M365.514,-67.496C320.531,-56.3348 260.408,-41.4171 217.191,-30.694"/>
<polygon fill="midnightblue" stroke="midnightblue" points="364.898,-70.9493 375.447,-69.9605 366.584,-64.1553 364.898,-70.9493"/>
</g>
<!-- Node11&#45;&gt;Node14 -->
<g id="edge14" class="edge"><title>Node11&#45;&gt;Node14</title>
<path fill="none" stroke="midnightblue" d="M421.408,-58.8309C418.886,-49.5807 416.09,-39.3313 413.898,-31.2931"/>
<polygon fill="midnightblue" stroke="midnightblue" points="418.086,-59.9523 424.094,-68.679 424.84,-58.1104 418.086,-59.9523"/>
</g>
<!-- Node11&#45;&gt;Node15 -->
<g id="edge15" class="edge"><title>Node11&#45;&gt;Node15</title>
<path fill="none" stroke="midnightblue" d="M490.881,-72.3586C566.17,-59.6174 691.066,-38.4811 762.784,-26.3443"/>
<polygon fill="midnightblue" stroke="midnightblue" points="489.873,-68.9793 480.597,-74.0989 491.041,-75.8812 489.873,-68.9793"/>
</g>
<!-- Node11&#45;&gt;Node16 -->
<g id="edge16" class="edge"><title>Node11&#45;&gt;Node16</title>
<path fill="none" stroke="midnightblue" d="M459.703,-63.6261C476.736,-53.2166 497.361,-40.6129 512.87,-31.1352"/>
<polygon fill="midnightblue" stroke="midnightblue" points="457.876,-60.6403 451.169,-68.8413 461.527,-66.6133 457.876,-60.6403"/>
</g>
<!-- Node19&#45;&gt;Node15 -->
<g id="edge22" class="edge"><title>Node19&#45;&gt;Node15</title>
<path fill="none" stroke="midnightblue" d="M1063.86,-69.1766C1007.4,-57.1948 926.604,-40.0478 873.251,-28.7252"/>
<polygon fill="midnightblue" stroke="midnightblue" points="1063.25,-72.6243 1073.76,-71.2766 1064.7,-65.7768 1063.25,-72.6243"/>
</g>
<!-- Node20&#45;&gt;Node10 -->
<g id="edge26" class="edge"><title>Node20&#45;&gt;Node10</title>
<path fill="none" stroke="midnightblue" d="M245.824,-61.1939C254.763,-51.3605 265.07,-40.0228 273.006,-31.2931"/>
<polygon fill="midnightblue" stroke="midnightblue" points="243.156,-58.9252 239.019,-68.679 248.336,-63.6339 243.156,-58.9252"/>
</g>
<!-- Node20&#45;&gt;Node13 -->
<g id="edge27" class="edge"><title>Node20&#45;&gt;Node13</title>
<path fill="none" stroke="midnightblue" d="M205.137,-61.4855C195.537,-51.5852 184.409,-40.1092 175.86,-31.2931"/>
<polygon fill="midnightblue" stroke="midnightblue" points="202.639,-63.9365 212.113,-68.679 207.664,-59.0634 202.639,-63.9365"/>
</g>
</g>
</svg>
