<?xml version="1.0" encoding="UTF-8" standalone="no"?>
<!DOCTYPE svg PUBLIC "-//W3C//DTD SVG 1.1//EN"
 "http://www.w3.org/Graphics/SVG/1.1/DTD/svg11.dtd">
<!-- Generated by graphviz version 2.36.0 (20140111.2315)
 -->
<!-- Title: be/src/util/simple&#45;logger.h Pages: 1 -->
<!--zoomable 312 -->
<svg id="main" version="1.1" xmlns="http://www.w3.org/2000/svg" xmlns:xlink="http://www.w3.org/1999/xlink" xml:space="preserve" onload="init(evt)">
<style type="text/css"><![CDATA[
.edge:hover path { stroke: red; }
.edge:hover polygon { stroke: red; fill: red; }
]]></style>
<script type="text/javascript"><![CDATA[
var edges = document.getElementsByTagName('g');
if (edges && edges.length) {
  for (var i=0;i<edges.length;i++) {
    if (edges[i].id.substr(0,4)=='edge') {
      edges[i].setAttribute('class','edge');
    }
  }
}
]]></script>
        <defs>
                <circle id="rim" cx="0" cy="0" r="7"/>
                <circle id="rim2" cx="0" cy="0" r="3.5"/>
                <g id="zoomPlus">
                        <use xlink:href="#rim" fill="#404040">
                                <set attributeName="fill" to="#808080" begin="zoomplus.mouseover" end="zoomplus.mouseout"/>
                        </use>
                        <path d="M-4,0h8M0,-4v8" fill="none" stroke="white" stroke-width="1.5" pointer-events="none"/>
                </g>
                <g id="zoomMin">
                        <use xlink:href="#rim" fill="#404040">
                                <set attributeName="fill" to="#808080" begin="zoomminus.mouseover" end="zoomminus.mouseout"/>
                        </use>
                        <path d="M-4,0h8" fill="none" stroke="white" stroke-width="1.5" pointer-events="none"/>
                </g>
                <g id="dirArrow">
                        <path fill="none" stroke="white" stroke-width="1.5" d="M0,-3.0v7 M-2.5,-0.5L0,-3.0L2.5,-0.5"/>
                </g>
               <g id="resetDef">
                       <use xlink:href="#rim2" fill="#404040">
                               <set attributeName="fill" to="#808080" begin="reset.mouseover" end="reset.mouseout"/>
                       </use>
               </g>
        </defs>

<script type="text/javascript">
var viewWidth = 2007;
var viewHeight = 312;
var sectionId = 'dynsection-1';
</script>
<script xlink:href="svgpan.js"/>
<svg id="graph" class="graph">
<g id="viewport">
<title>be/src/util/simple&#45;logger.h</title>
<polygon fill="white" stroke="none" points="-4,4 -4,-308 2003,-308 2003,4 -4,4"/>
<!-- Node1 -->
<g id="node1" class="node"><title>Node1</title>
<polygon fill="#bfbfbf" stroke="black" points="969.5,-273 969.5,-303 1060.5,-303 1060.5,-273 969.5,-273"/>
<text text-anchor="start" x="977.5" y="-291" font-family="Helvetica,sans-Serif" font-size="10.00">be/src/util/simple</text>
<text text-anchor="middle" x="1015" y="-280" font-family="Helvetica,sans-Serif" font-size="10.00">&#45;logger.h</text>
</g>
<!-- Node2 -->
<g id="node2" class="node"><title>Node2</title>
<g id="a_node2"><a xlink:href="impala-server_8h.html" target="_top" xlink:title="be/src/service/impala\l&#45;server.h">
<polygon fill="white" stroke="black" points="901,-205 901,-235 1011,-235 1011,-205 901,-205"/>
<text text-anchor="start" x="909" y="-223" font-family="Helvetica,sans-Serif" font-size="10.00">be/src/service/impala</text>
<text text-anchor="middle" x="956" y="-212" font-family="Helvetica,sans-Serif" font-size="10.00">&#45;server.h</text>
</a>
</g>
</g>
<!-- Node1&#45;&gt;Node2 -->
<g id="edge1" class="edge"><title>Node1&#45;&gt;Node2</title>
<path fill="none" stroke="midnightblue" d="M995.507,-265.194C986.716,-255.36 976.581,-244.023 968.777,-235.293"/>
<polygon fill="midnightblue" stroke="midnightblue" points="992.924,-267.556 1002.2,-272.679 998.143,-262.891 992.924,-267.556"/>
</g>
<!-- Node24 -->
<g id="node24" class="node"><title>Node24</title>
<g id="a_node24"><a xlink:href="simple-logger_8cc.html" target="_top" xlink:title="be/src/util/simple\l&#45;logger.cc">
<polygon fill="white" stroke="black" points="1029.5,-205 1029.5,-235 1120.5,-235 1120.5,-205 1029.5,-205"/>
<text text-anchor="start" x="1037.5" y="-223" font-family="Helvetica,sans-Serif" font-size="10.00">be/src/util/simple</text>
<text text-anchor="middle" x="1075" y="-212" font-family="Helvetica,sans-Serif" font-size="10.00">&#45;logger.cc</text>
</a>
</g>
</g>
<!-- Node1&#45;&gt;Node24 -->
<g id="edge33" class="edge"><title>Node1&#45;&gt;Node24</title>
<path fill="none" stroke="midnightblue" d="M1034.82,-265.194C1043.76,-255.36 1054.07,-244.023 1062.01,-235.293"/>
<polygon fill="midnightblue" stroke="midnightblue" points="1032.16,-262.925 1028.02,-272.679 1037.34,-267.634 1032.16,-262.925"/>
</g>
<!-- Node3 -->
<g id="node3" class="node"><title>Node3</title>
<g id="a_node3"><a xlink:href="catalog-op-executor_8cc.html" target="_top" xlink:title="be/src/exec/catalog\l&#45;op&#45;executor.cc">
<polygon fill="white" stroke="black" points="0,-137 0,-167 102,-167 102,-137 0,-137"/>
<text text-anchor="start" x="8" y="-155" font-family="Helvetica,sans-Serif" font-size="10.00">be/src/exec/catalog</text>
<text text-anchor="middle" x="51" y="-144" font-family="Helvetica,sans-Serif" font-size="10.00">&#45;op&#45;executor.cc</text>
</a>
</g>
</g>
<!-- Node2&#45;&gt;Node3 -->
<g id="edge2" class="edge"><title>Node2&#45;&gt;Node3</title>
<path fill="none" stroke="midnightblue" d="M890.444,-219.148C747.821,-218.574 399.032,-212.307 111,-168 108.135,-167.559 105.206,-167.045 102.26,-166.477"/>
<polygon fill="midnightblue" stroke="midnightblue" points="890.748,-222.649 900.759,-219.181 890.771,-215.649 890.748,-222.649"/>
</g>
<!-- Node4 -->
<g id="node4" class="node"><title>Node4</title>
<g id="a_node4"><a xlink:href="expr-benchmark_8cc.html" target="_top" xlink:title="be/src/exprs/expr&#45;benchmark.cc">
<polygon fill="white" stroke="black" points="120.5,-142.5 120.5,-161.5 277.5,-161.5 277.5,-142.5 120.5,-142.5"/>
<text text-anchor="middle" x="199" y="-149.5" font-family="Helvetica,sans-Serif" font-size="10.00">be/src/exprs/expr&#45;benchmark.cc</text>
</a>
</g>
</g>
<!-- Node2&#45;&gt;Node4 -->
<g id="edge3" class="edge"><title>Node2&#45;&gt;Node4</title>
<path fill="none" stroke="midnightblue" d="M890.641,-216.034C770.686,-210.142 507.46,-195.133 287,-168 273.002,-166.277 257.837,-163.884 244.102,-161.514"/>
<polygon fill="midnightblue" stroke="midnightblue" points="890.601,-219.536 900.759,-216.526 890.941,-212.544 890.601,-219.536"/>
</g>
<!-- Node5 -->
<g id="node5" class="node"><title>Node5</title>
<g id="a_node5"><a xlink:href="expr-test_8cc.html" target="_top" xlink:title="be/src/exprs/expr&#45;test.cc">
<polygon fill="white" stroke="black" points="295.5,-142.5 295.5,-161.5 420.5,-161.5 420.5,-142.5 295.5,-142.5"/>
<text text-anchor="middle" x="358" y="-149.5" font-family="Helvetica,sans-Serif" font-size="10.00">be/src/exprs/expr&#45;test.cc</text>
</a>
</g>
</g>
<!-- Node2&#45;&gt;Node5 -->
<g id="edge4" class="edge"><title>Node2&#45;&gt;Node5</title>
<path fill="none" stroke="midnightblue" d="M890.634,-214.957C790.897,-208.27 594.913,-193.097 430,-168 418.639,-166.271 406.368,-163.904 395.23,-161.561"/>
<polygon fill="midnightblue" stroke="midnightblue" points="890.646,-218.465 900.855,-215.635 891.109,-211.48 890.646,-218.465"/>
</g>
<!-- Node6 -->
<g id="node6" class="node"><title>Node6</title>
<g id="a_node6"><a xlink:href="thrift-server-test_8cc.html" target="_top" xlink:title="be/src/rpc/thrift&#45;server\l&#45;test.cc">
<polygon fill="white" stroke="black" points="438.5,-137 438.5,-167 551.5,-167 551.5,-137 438.5,-137"/>
<text text-anchor="start" x="446.5" y="-155" font-family="Helvetica,sans-Serif" font-size="10.00">be/src/rpc/thrift&#45;server</text>
<text text-anchor="middle" x="495" y="-144" font-family="Helvetica,sans-Serif" font-size="10.00">&#45;test.cc</text>
</a>
</g>
</g>
<!-- Node2&#45;&gt;Node6 -->
<g id="edge5" class="edge"><title>Node2&#45;&gt;Node6</title>
<path fill="none" stroke="midnightblue" d="M890.561,-212.478C811.975,-204.201 676.321,-188.502 561,-168 557.992,-167.465 554.914,-166.884 551.812,-166.272"/>
<polygon fill="midnightblue" stroke="midnightblue" points="890.484,-215.989 900.794,-213.547 891.212,-209.027 890.484,-215.989"/>
</g>
<!-- Node7 -->
<g id="node7" class="node"><title>Node7</title>
<g id="a_node7"><a xlink:href="child-query_8h.html" target="_top" xlink:title="be/src/service/child\l&#45;query.h">
<polygon fill="white" stroke="black" points="569.5,-137 569.5,-167 670.5,-167 670.5,-137 569.5,-137"/>
<text text-anchor="start" x="577.5" y="-155" font-family="Helvetica,sans-Serif" font-size="10.00">be/src/service/child</text>
<text text-anchor="middle" x="620" y="-144" font-family="Helvetica,sans-Serif" font-size="10.00">&#45;query.h</text>
</a>
</g>
</g>
<!-- Node2&#45;&gt;Node7 -->
<g id="edge6" class="edge"><title>Node2&#45;&gt;Node7</title>
<path fill="none" stroke="midnightblue" d="M890.893,-207.517C835.906,-197.634 755.139,-182.686 685,-168 680.352,-167.027 675.526,-165.981 670.698,-164.91"/>
<polygon fill="midnightblue" stroke="midnightblue" points="890.391,-210.982 900.852,-209.302 891.627,-204.092 890.391,-210.982"/>
</g>
<!-- Node9 -->
<g id="node9" class="node"><title>Node9</title>
<g id="a_node9"><a xlink:href="query-exec-state_8h.html" target="_top" xlink:title="be/src/service/query\l&#45;exec&#45;state.h">
<polygon fill="white" stroke="black" points="803.5,-69 803.5,-99 908.5,-99 908.5,-69 803.5,-69"/>
<text text-anchor="start" x="811.5" y="-87" font-family="Helvetica,sans-Serif" font-size="10.00">be/src/service/query</text>
<text text-anchor="middle" x="856" y="-76" font-family="Helvetica,sans-Serif" font-size="10.00">&#45;exec&#45;state.h</text>
</a>
</g>
</g>
<!-- Node2&#45;&gt;Node9 -->
<g id="edge28" class="edge"><title>Node2&#45;&gt;Node9</title>
<path fill="none" stroke="midnightblue" d="M939.098,-196.351C918.393,-168.607 883.942,-122.442 866.625,-99.2372"/>
<polygon fill="midnightblue" stroke="midnightblue" points="936.512,-198.739 945.298,-204.66 942.122,-194.552 936.512,-198.739"/>
</g>
<!-- Node10 -->
<g id="node10" class="node"><title>Node10</title>
<g id="a_node10"><a xlink:href="impala-beeswax-server_8cc.html" target="_top" xlink:title="be/src/service/impala\l&#45;beeswax&#45;server.cc">
<polygon fill="white" stroke="black" points="724,-1 724,-31 834,-31 834,-1 724,-1"/>
<text text-anchor="start" x="732" y="-19" font-family="Helvetica,sans-Serif" font-size="10.00">be/src/service/impala</text>
<text text-anchor="middle" x="779" y="-8" font-family="Helvetica,sans-Serif" font-size="10.00">&#45;beeswax&#45;server.cc</text>
</a>
</g>
</g>
<!-- Node2&#45;&gt;Node10 -->
<g id="edge16" class="edge"><title>Node2&#45;&gt;Node10</title>
<path fill="none" stroke="midnightblue" d="M915.9,-200.327C878.499,-180.744 824.215,-146.354 795,-100 781.542,-78.6461 778.945,-48.519 778.691,-31.0471"/>
<polygon fill="midnightblue" stroke="midnightblue" points="914.522,-203.553 925.02,-204.985 917.706,-197.319 914.522,-203.553"/>
</g>
<!-- Node11 -->
<g id="node11" class="node"><title>Node11</title>
<g id="a_node11"><a xlink:href="impala-hs2-server_8cc.html" target="_top" xlink:title="be/src/service/impala\l&#45;hs2&#45;server.cc">
<polygon fill="white" stroke="black" points="596,-1 596,-31 706,-31 706,-1 596,-1"/>
<text text-anchor="start" x="604" y="-19" font-family="Helvetica,sans-Serif" font-size="10.00">be/src/service/impala</text>
<text text-anchor="middle" x="651" y="-8" font-family="Helvetica,sans-Serif" font-size="10.00">&#45;hs2&#45;server.cc</text>
</a>
</g>
</g>
<!-- Node2&#45;&gt;Node11 -->
<g id="edge17" class="edge"><title>Node2&#45;&gt;Node11</title>
<path fill="none" stroke="midnightblue" d="M896.557,-201.642C872.723,-193.321 845.607,-182.065 823,-168 767.456,-133.443 764.614,-110.635 715,-68 700.022,-55.1289 682.441,-41.1994 669.5,-31.1555"/>
<polygon fill="midnightblue" stroke="midnightblue" points="895.607,-205.015 906.201,-204.914 897.856,-198.386 895.607,-205.015"/>
</g>
<!-- Node12 -->
<g id="node12" class="node"><title>Node12</title>
<g id="a_node12"><a xlink:href="impala-server-callbacks_8cc.html" target="_top" xlink:title="be/src/service/impala\l&#45;server&#45;callbacks.cc">
<polygon fill="white" stroke="black" points="852,-1 852,-31 962,-31 962,-1 852,-1"/>
<text text-anchor="start" x="860" y="-19" font-family="Helvetica,sans-Serif" font-size="10.00">be/src/service/impala</text>
<text text-anchor="middle" x="907" y="-8" font-family="Helvetica,sans-Serif" font-size="10.00">&#45;server&#45;callbacks.cc</text>
</a>
</g>
</g>
<!-- Node2&#45;&gt;Node12 -->
<g id="edge21" class="edge"><title>Node2&#45;&gt;Node12</title>
<path fill="none" stroke="midnightblue" d="M950.183,-195.021C939.881,-152.549 918.732,-65.3637 910.442,-31.1886"/>
<polygon fill="midnightblue" stroke="midnightblue" points="946.796,-195.903 952.554,-204.796 953.598,-194.252 946.796,-195.903"/>
</g>
<!-- Node13 -->
<g id="node13" class="node"><title>Node13</title>
<g id="a_node13"><a xlink:href="impala-server_8cc.html" target="_top" xlink:title="be/src/service/impala\l&#45;server.cc">
<polygon fill="white" stroke="black" points="1104,-1 1104,-31 1214,-31 1214,-1 1104,-1"/>
<text text-anchor="start" x="1112" y="-19" font-family="Helvetica,sans-Serif" font-size="10.00">be/src/service/impala</text>
<text text-anchor="middle" x="1159" y="-8" font-family="Helvetica,sans-Serif" font-size="10.00">&#45;server.cc</text>
</a>
</g>
</g>
<!-- Node2&#45;&gt;Node13 -->
<g id="edge22" class="edge"><title>Node2&#45;&gt;Node13</title>
<path fill="none" stroke="midnightblue" d="M983.525,-198.679C1006.53,-181.76 1040.26,-157.114 1070,-136 1092.92,-119.726 1104.06,-121.638 1122,-100 1139.32,-79.1113 1150.07,-48.8243 1155.26,-31.1974"/>
<polygon fill="midnightblue" stroke="midnightblue" points="981.241,-196.014 975.263,-204.761 985.391,-201.651 981.241,-196.014"/>
</g>
<!-- Node14 -->
<g id="node14" class="node"><title>Node14</title>
<g id="a_node14"><a xlink:href="query-exec-state_8cc.html" target="_top" xlink:title="be/src/service/query\l&#45;exec&#45;state.cc">
<polygon fill="white" stroke="black" points="980.5,-1 980.5,-31 1085.5,-31 1085.5,-1 980.5,-1"/>
<text text-anchor="start" x="988.5" y="-19" font-family="Helvetica,sans-Serif" font-size="10.00">be/src/service/query</text>
<text text-anchor="middle" x="1033" y="-8" font-family="Helvetica,sans-Serif" font-size="10.00">&#45;exec&#45;state.cc</text>
</a>
</g>
</g>
<!-- Node2&#45;&gt;Node14 -->
<g id="edge27" class="edge"><title>Node2&#45;&gt;Node14</title>
<path fill="none" stroke="midnightblue" d="M959.069,-194.363C963.596,-163.575 973.802,-109.847 994,-68 1000.59,-54.3481 1011.18,-40.8078 1019.67,-31.1134"/>
<polygon fill="midnightblue" stroke="midnightblue" points="955.556,-194.217 957.651,-204.603 962.49,-195.178 955.556,-194.217"/>
</g>
<!-- Node15 -->
<g id="node15" class="node"><title>Node15</title>
<g id="a_node15"><a xlink:href="fe-support_8cc.html" target="_top" xlink:title="be/src/service/fe&#45;support.cc">
<polygon fill="white" stroke="black" points="1079,-142.5 1079,-161.5 1217,-161.5 1217,-142.5 1079,-142.5"/>
<text text-anchor="middle" x="1148" y="-149.5" font-family="Helvetica,sans-Serif" font-size="10.00">be/src/service/fe&#45;support.cc</text>
</a>
</g>
</g>
<!-- Node2&#45;&gt;Node15 -->
<g id="edge15" class="edge"><title>Node2&#45;&gt;Node15</title>
<path fill="none" stroke="midnightblue" d="M1006.93,-201.494C1044.4,-188.613 1093.72,-171.658 1123.02,-161.587"/>
<polygon fill="midnightblue" stroke="midnightblue" points="1005.51,-198.281 997.189,-204.841 1007.78,-204.9 1005.51,-198.281"/>
</g>
<!-- Node16 -->
<g id="node16" class="node"><title>Node16</title>
<g id="a_node16"><a xlink:href="impala-internal-service-proxy_8h.html" target="_top" xlink:title="be/src/service/impala\l&#45;internal&#45;service&#45;proxy.h">
<polygon fill="white" stroke="black" points="1235.5,-137 1235.5,-167 1356.5,-167 1356.5,-137 1235.5,-137"/>
<text text-anchor="start" x="1243.5" y="-155" font-family="Helvetica,sans-Serif" font-size="10.00">be/src/service/impala</text>
<text text-anchor="middle" x="1296" y="-144" font-family="Helvetica,sans-Serif" font-size="10.00">&#45;internal&#45;service&#45;proxy.h</text>
</a>
</g>
</g>
<!-- Node2&#45;&gt;Node16 -->
<g id="edge18" class="edge"><title>Node2&#45;&gt;Node16</title>
<path fill="none" stroke="midnightblue" d="M1021.3,-204.009C1113.34,-185.579 1138.31,-185.09 1226,-168 1229.05,-167.406 1232.17,-166.784 1235.32,-166.147"/>
<polygon fill="midnightblue" stroke="midnightblue" points="1020.38,-200.624 1011.28,-206.035 1021.77,-207.486 1020.38,-200.624"/>
</g>
<!-- Node17 -->
<g id="node17" class="node"><title>Node17</title>
<g id="a_node17"><a xlink:href="impala-internal-service_8h.html" target="_top" xlink:title="be/src/service/impala\l&#45;internal&#45;service.h">
<polygon fill="white" stroke="black" points="1003,-69 1003,-99 1113,-99 1113,-69 1003,-69"/>
<text text-anchor="start" x="1011" y="-87" font-family="Helvetica,sans-Serif" font-size="10.00">be/src/service/impala</text>
<text text-anchor="middle" x="1058" y="-76" font-family="Helvetica,sans-Serif" font-size="10.00">&#45;internal&#45;service.h</text>
</a>
</g>
</g>
<!-- Node2&#45;&gt;Node17 -->
<g id="edge19" class="edge"><title>Node2&#45;&gt;Node17</title>
<path fill="none" stroke="midnightblue" d="M973.24,-196.351C994.359,-168.607 1029.5,-122.442 1047.16,-99.2372"/>
<polygon fill="midnightblue" stroke="midnightblue" points="970.188,-194.583 966.916,-204.66 975.758,-198.823 970.188,-194.583"/>
</g>
<!-- Node18 -->
<g id="node18" class="node"><title>Node18</title>
<g id="a_node18"><a xlink:href="impala-server_8inline_8h.html" target="_top" xlink:title="be/src/service/impala\l&#45;server.inline.h">
<polygon fill="white" stroke="black" points="596,-69 596,-99 706,-99 706,-69 596,-69"/>
<text text-anchor="start" x="604" y="-87" font-family="Helvetica,sans-Serif" font-size="10.00">be/src/service/impala</text>
<text text-anchor="middle" x="651" y="-76" font-family="Helvetica,sans-Serif" font-size="10.00">&#45;server.inline.h</text>
</a>
</g>
</g>
<!-- Node2&#45;&gt;Node18 -->
<g id="edge23" class="edge"><title>Node2&#45;&gt;Node18</title>
<path fill="none" stroke="midnightblue" d="M890.439,-215.715C841.373,-210.738 774.19,-198.398 723,-168 694.133,-150.858 670.927,-118.056 659.242,-99.2284"/>
<polygon fill="midnightblue" stroke="midnightblue" points="890.339,-219.221 900.622,-216.67 890.992,-212.252 890.339,-219.221"/>
</g>
<!-- Node19 -->
<g id="node19" class="node"><title>Node19</title>
<g id="a_node19"><a xlink:href="impalad-main_8cc.html" target="_top" xlink:title="be/src/service/impalad\l&#45;main.cc">
<polygon fill="white" stroke="black" points="1374.5,-137 1374.5,-167 1489.5,-167 1489.5,-137 1374.5,-137"/>
<text text-anchor="start" x="1382.5" y="-155" font-family="Helvetica,sans-Serif" font-size="10.00">be/src/service/impalad</text>
<text text-anchor="middle" x="1432" y="-144" font-family="Helvetica,sans-Serif" font-size="10.00">&#45;main.cc</text>
</a>
</g>
</g>
<!-- Node2&#45;&gt;Node19 -->
<g id="edge26" class="edge"><title>Node2&#45;&gt;Node19</title>
<path fill="none" stroke="midnightblue" d="M1021.46,-204.08C1174.42,-179.26 1216.55,-192.3 1365,-168 1368.06,-167.499 1371.19,-166.946 1374.34,-166.355"/>
<polygon fill="midnightblue" stroke="midnightblue" points="1020.52,-200.688 1011.23,-205.771 1021.66,-207.595 1020.52,-200.688"/>
</g>
<!-- Node20 -->
<g id="node20" class="node"><title>Node20</title>
<g id="a_node20"><a xlink:href="session-expiry-test_8cc.html" target="_top" xlink:title="be/src/service/session\l&#45;expiry&#45;test.cc">
<polygon fill="white" stroke="black" points="1507.5,-137 1507.5,-167 1622.5,-167 1622.5,-137 1507.5,-137"/>
<text text-anchor="start" x="1515.5" y="-155" font-family="Helvetica,sans-Serif" font-size="10.00">be/src/service/session</text>
<text text-anchor="middle" x="1565" y="-144" font-family="Helvetica,sans-Serif" font-size="10.00">&#45;expiry&#45;test.cc</text>
</a>
</g>
</g>
<!-- Node2&#45;&gt;Node20 -->
<g id="edge29" class="edge"><title>Node2&#45;&gt;Node20</title>
<path fill="none" stroke="midnightblue" d="M1021.4,-204.127C1232.99,-172.844 1291,-198.817 1498,-168 1501.07,-167.544 1504.2,-167.025 1507.36,-166.462"/>
<polygon fill="midnightblue" stroke="midnightblue" points="1020.58,-200.712 1011.21,-205.66 1021.62,-207.634 1020.58,-200.712"/>
</g>
<!-- Node21 -->
<g id="node21" class="node"><title>Node21</title>
<g id="a_node21"><a xlink:href="simple-scheduler_8cc.html" target="_top" xlink:title="be/src/statestore/simple\l&#45;scheduler.cc">
<polygon fill="white" stroke="black" points="1641,-137 1641,-167 1763,-167 1763,-137 1641,-137"/>
<text text-anchor="start" x="1649" y="-155" font-family="Helvetica,sans-Serif" font-size="10.00">be/src/statestore/simple</text>
<text text-anchor="middle" x="1702" y="-144" font-family="Helvetica,sans-Serif" font-size="10.00">&#45;scheduler.cc</text>
</a>
</g>
</g>
<!-- Node2&#45;&gt;Node21 -->
<g id="edge30" class="edge"><title>Node2&#45;&gt;Node21</title>
<path fill="none" stroke="midnightblue" d="M1021.31,-204.158C1291.6,-166.267 1365.12,-203.728 1631,-168 1634.25,-167.564 1637.57,-167.061 1640.91,-166.511"/>
<polygon fill="midnightblue" stroke="midnightblue" points="1020.61,-200.723 1011.2,-205.598 1021.59,-207.653 1020.61,-200.723"/>
</g>
<!-- Node22 -->
<g id="node22" class="node"><title>Node22</title>
<g id="a_node22"><a xlink:href="in-process-servers_8cc.html" target="_top" xlink:title="be/src/testutil/in\l&#45;process&#45;servers.cc">
<polygon fill="white" stroke="black" points="1781.5,-137 1781.5,-167 1884.5,-167 1884.5,-137 1781.5,-137"/>
<text text-anchor="start" x="1789.5" y="-155" font-family="Helvetica,sans-Serif" font-size="10.00">be/src/testutil/in</text>
<text text-anchor="middle" x="1833" y="-144" font-family="Helvetica,sans-Serif" font-size="10.00">&#45;process&#45;servers.cc</text>
</a>
</g>
</g>
<!-- Node2&#45;&gt;Node22 -->
<g id="edge31" class="edge"><title>Node2&#45;&gt;Node22</title>
<path fill="none" stroke="midnightblue" d="M1021.11,-204.2C1353.78,-159.368 1444.55,-215.651 1772,-168 1775.02,-167.56 1778.11,-167.037 1781.22,-166.455"/>
<polygon fill="midnightblue" stroke="midnightblue" points="1020.63,-200.733 1011.19,-205.556 1021.58,-207.668 1020.63,-200.733"/>
</g>
<!-- Node23 -->
<g id="node23" class="node"><title>Node23</title>
<g id="a_node23"><a xlink:href="mini-impala-cluster_8cc.html" target="_top" xlink:title="be/src/testutil/mini\l&#45;impala&#45;cluster.cc">
<polygon fill="white" stroke="black" points="1902.5,-137 1902.5,-167 1999.5,-167 1999.5,-137 1902.5,-137"/>
<text text-anchor="start" x="1910.5" y="-155" font-family="Helvetica,sans-Serif" font-size="10.00">be/src/testutil/mini</text>
<text text-anchor="middle" x="1951" y="-144" font-family="Helvetica,sans-Serif" font-size="10.00">&#45;impala&#45;cluster.cc</text>
</a>
</g>
</g>
<!-- Node2&#45;&gt;Node23 -->
<g id="edge32" class="edge"><title>Node2&#45;&gt;Node23</title>
<path fill="none" stroke="midnightblue" d="M1021.23,-204.19C1407.2,-153.4 1512.59,-224.393 1893,-168 1896.09,-167.542 1899.25,-166.986 1902.42,-166.361"/>
<polygon fill="midnightblue" stroke="midnightblue" points="1020.64,-200.738 1011.19,-205.53 1021.57,-207.676 1020.64,-200.738"/>
</g>
<!-- Node8 -->
<g id="node8" class="node"><title>Node8</title>
<g id="a_node8"><a xlink:href="child-query_8cc.html" target="_top" xlink:title="be/src/service/child\l&#45;query.cc">
<polygon fill="white" stroke="black" points="476.5,-1 476.5,-31 577.5,-31 577.5,-1 476.5,-1"/>
<text text-anchor="start" x="484.5" y="-19" font-family="Helvetica,sans-Serif" font-size="10.00">be/src/service/child</text>
<text text-anchor="middle" x="527" y="-8" font-family="Helvetica,sans-Serif" font-size="10.00">&#45;query.cc</text>
</a>
</g>
</g>
<!-- Node7&#45;&gt;Node8 -->
<g id="edge7" class="edge"><title>Node7&#45;&gt;Node8</title>
<path fill="none" stroke="midnightblue" d="M604.281,-128.351C585.026,-100.607 552.986,-54.442 536.881,-31.2372"/>
<polygon fill="midnightblue" stroke="midnightblue" points="601.47,-130.44 610.047,-136.66 607.221,-126.449 601.47,-130.44"/>
</g>
<!-- Node7&#45;&gt;Node9 -->
<g id="edge8" class="edge"><title>Node7&#45;&gt;Node9</title>
<path fill="none" stroke="midnightblue" d="M679.969,-134.229C718.858,-123.353 768.943,-109.347 805.739,-99.0561"/>
<polygon fill="midnightblue" stroke="midnightblue" points="679.026,-130.858 670.338,-136.922 680.912,-137.6 679.026,-130.858"/>
</g>
<!-- Node9&#45;&gt;Node8 -->
<g id="edge9" class="edge"><title>Node9&#45;&gt;Node8</title>
<path fill="none" stroke="midnightblue" d="M793.611,-72.2229C738.958,-62.5317 657.477,-47.4771 587,-32 583.959,-31.3321 580.836,-30.623 577.691,-29.8907"/>
<polygon fill="midnightblue" stroke="midnightblue" points="793.038,-75.6759 803.495,-73.9689 794.256,-68.7826 793.038,-75.6759"/>
</g>
<!-- Node9&#45;&gt;Node10 -->
<g id="edge10" class="edge"><title>Node9&#45;&gt;Node10</title>
<path fill="none" stroke="midnightblue" d="M831.522,-62.0184C819.734,-51.9145 805.915,-40.0696 795.411,-31.0663"/>
<polygon fill="midnightblue" stroke="midnightblue" points="829.422,-64.8284 839.292,-68.679 833.977,-59.5136 829.422,-64.8284"/>
</g>
<!-- Node9&#45;&gt;Node11 -->
<g id="edge11" class="edge"><title>Node9&#45;&gt;Node11</title>
<path fill="none" stroke="midnightblue" d="M802.615,-65.8127C769.024,-54.9979 726.216,-41.2157 694.659,-31.0561"/>
<polygon fill="midnightblue" stroke="midnightblue" points="801.682,-69.1892 812.274,-68.9223 803.828,-62.526 801.682,-69.1892"/>
</g>
<!-- Node9&#45;&gt;Node12 -->
<g id="edge12" class="edge"><title>Node9&#45;&gt;Node12</title>
<path fill="none" stroke="midnightblue" d="M873.303,-60.608C880.795,-50.9125 889.343,-39.8499 895.955,-31.2931"/>
<polygon fill="midnightblue" stroke="midnightblue" points="870.411,-58.626 867.066,-68.679 875.95,-62.9062 870.411,-58.626"/>
</g>
<!-- Node9&#45;&gt;Node13 -->
<g id="edge13" class="edge"><title>Node9&#45;&gt;Node13</title>
<path fill="none" stroke="midnightblue" d="M918.456,-69.8964C966.496,-59.7498 1034.5,-45.2389 1094,-32 1097.17,-31.2957 1100.42,-30.566 1103.7,-29.8249"/>
<polygon fill="midnightblue" stroke="midnightblue" points="917.58,-66.5041 908.518,-71.9934 919.025,-73.3533 917.58,-66.5041"/>
</g>
<!-- Node9&#45;&gt;Node14 -->
<g id="edge14" class="edge"><title>Node9&#45;&gt;Node14</title>
<path fill="none" stroke="midnightblue" d="M903.436,-65.3119C932.264,-54.5627 968.559,-41.0287 995.396,-31.0218"/>
<polygon fill="midnightblue" stroke="midnightblue" points="902.118,-62.068 893.971,-68.8413 904.564,-68.6269 902.118,-62.068"/>
</g>
<!-- Node17&#45;&gt;Node13 -->
<g id="edge20" class="edge"><title>Node17&#45;&gt;Node13</title>
<path fill="none" stroke="midnightblue" d="M1088.34,-63.1763C1104.17,-52.8299 1123.17,-40.4159 1137.47,-31.0663"/>
<polygon fill="midnightblue" stroke="midnightblue" points="1086.37,-60.2788 1079.92,-68.679 1090.2,-66.1386 1086.37,-60.2788"/>
</g>
<!-- Node18&#45;&gt;Node8 -->
<g id="edge24" class="edge"><title>Node18&#45;&gt;Node8</title>
<path fill="none" stroke="midnightblue" d="M615.406,-64.0545C595.696,-53.5641 571.609,-40.7434 553.557,-31.1352"/>
<polygon fill="midnightblue" stroke="midnightblue" points="613.927,-67.2324 624.399,-68.8413 617.216,-61.0532 613.927,-67.2324"/>
</g>
<!-- Node18&#45;&gt;Node11 -->
<g id="edge25" class="edge"><title>Node18&#45;&gt;Node11</title>
<path fill="none" stroke="midnightblue" d="M651,-58.5322C651,-49.3606 651,-39.2449 651,-31.2931"/>
<polygon fill="midnightblue" stroke="midnightblue" points="647.5,-58.6789 651,-68.679 654.5,-58.679 647.5,-58.6789"/>
</g>
</g>
</svg>
        <g id="navigator" transform="translate(0 0)" fill="#404254">
                <rect fill="#f2f5e9" fill-opacity="0.5" stroke="#606060" stroke-width=".5" x="0" y="0" width="60" height="60"/>
                <use id="zoomplus" xlink:href="#zoomPlus" x="17" y="9" onmousedown="handleZoom(evt,'in')"/>
                <use id="zoomminus" xlink:href="#zoomMin" x="42" y="9" onmousedown="handleZoom(evt,'out')"/>
                <use id="reset" xlink:href="#resetDef" x="30" y="36" onmousedown="handleReset()"/>
                <g id="arrowUp" xlink:href="#dirArrow" transform="translate(30 24)" onmousedown="handlePan(0,-1)">
                  <use xlink:href="#rim" fill="#404040">
                        <set attributeName="fill" to="#808080" begin="arrowUp.mouseover" end="arrowUp.mouseout"/>
                  </use>
                  <path fill="none" stroke="white" stroke-width="1.5" d="M0,-3.0v7 M-2.5,-0.5L0,-3.0L2.5,-0.5"/>
                </g>
                <g id="arrowRight" xlink:href="#dirArrow" transform="rotate(90) translate(36 -43)" onmousedown="handlePan(1,0)">
                  <use xlink:href="#rim" fill="#404040">
                        <set attributeName="fill" to="#808080" begin="arrowRight.mouseover" end="arrowRight.mouseout"/>
                  </use>
                  <path fill="none" stroke="white" stroke-width="1.5" d="M0,-3.0v7 M-2.5,-0.5L0,-3.0L2.5,-0.5"/>
                </g>
                <g id="arrowDown" xlink:href="#dirArrow" transform="rotate(180) translate(-30 -48)" onmousedown="handlePan(0,1)">
                  <use xlink:href="#rim" fill="#404040">
                        <set attributeName="fill" to="#808080" begin="arrowDown.mouseover" end="arrowDown.mouseout"/>
                  </use>
                  <path fill="none" stroke="white" stroke-width="1.5" d="M0,-3.0v7 M-2.5,-0.5L0,-3.0L2.5,-0.5"/>
                </g>
                <g id="arrowLeft" xlink:href="#dirArrow" transform="rotate(270) translate(-36 17)" onmousedown="handlePan(-1,0)">
                  <use xlink:href="#rim" fill="#404040">
                        <set attributeName="fill" to="#808080" begin="arrowLeft.mouseover" end="arrowLeft.mouseout"/>
                  </use>
                  <path fill="none" stroke="white" stroke-width="1.5" d="M0,-3.0v7 M-2.5,-0.5L0,-3.0L2.5,-0.5"/>
                </g>
        </g>
        <svg viewBox="0 0 15 15" width="100%" height="30px" preserveAspectRatio="xMaxYMin meet">
         <g id="arrow_out" transform="scale(0.3 0.3)">
          <a xlink:href="simple-logger_8h__dep__incl_org.svg" target="_base">
           <rect id="button" ry="5" rx="5" y="6" x="6" height="38" width="38"
                fill="#f2f5e9" fill-opacity="0.5" stroke="#606060" stroke-width="1.0"/>
           <path id="arrow"
             d="M 11.500037,31.436501 C 11.940474,20.09759 22.043105,11.32322 32.158766,21.979434 L 37.068811,17.246167 C 37.068811,17.246167 37.088388,32 37.088388,32 L 22.160133,31.978069 C 22.160133,31.978069 26.997745,27.140456 26.997745,27.140456 C 18.528582,18.264221 13.291696,25.230495 11.500037,31.436501 z"
             style="fill:#404040;"/>
          </a>
         </g>
        </svg>
</svg>
