<?xml version="1.0" encoding="UTF-8" standalone="no"?>
<!DOCTYPE svg PUBLIC "-//W3C//DTD SVG 1.1//EN"
 "http://www.w3.org/Graphics/SVG/1.1/DTD/svg11.dtd">
<!-- Generated by graphviz version 2.36.0 (20140111.2315)
 -->
<!-- Title: be/src/statestore/statestore&#45;subscriber.h Pages: 1 -->
<svg width="2283pt" height="516pt"
 viewBox="0.00 0.00 2282.92 516.00" xmlns="http://www.w3.org/2000/svg" xmlns:xlink="http://www.w3.org/1999/xlink">
<g id="graph0" class="graph" transform="scale(1 1) rotate(0) translate(4 512)">
<title>be/src/statestore/statestore&#45;subscriber.h</title>
<polygon fill="white" stroke="none" points="-4,4 -4,-512 2278.92,-512 2278.92,4 -4,4"/>
<!-- Node1 -->
<g id="node1" class="node"><title>Node1</title>
<polygon fill="#bfbfbf" stroke="black" points="582.5,-477 582.5,-507 719.5,-507 719.5,-477 582.5,-477"/>
<text text-anchor="start" x="590.5" y="-495" font-family="Helvetica,sans-Serif" font-size="10.00">be/src/statestore/statestore</text>
<text text-anchor="middle" x="651" y="-484" font-family="Helvetica,sans-Serif" font-size="10.00">&#45;subscriber.h</text>
</g>
<!-- Node2 -->
<g id="node2" class="node"><title>Node2</title>
<g id="a_node2"><a xlink:href="catalog-server_8cc.html" target="_top" xlink:title="be/src/catalog/catalog\l&#45;server.cc">
<polygon fill="white" stroke="black" points="-0.5,-341 -0.5,-371 112.5,-371 112.5,-341 -0.5,-341"/>
<text text-anchor="start" x="7.5" y="-359" font-family="Helvetica,sans-Serif" font-size="10.00">be/src/catalog/catalog</text>
<text text-anchor="middle" x="56" y="-348" font-family="Helvetica,sans-Serif" font-size="10.00">&#45;server.cc</text>
</a>
</g>
</g>
<!-- Node1&#45;&gt;Node2 -->
<g id="edge1" class="edge"><title>Node1&#45;&gt;Node2</title>
<path fill="none" stroke="midnightblue" d="M571.941,-489.221C448.966,-485.427 218.265,-473.899 144,-440 109.993,-424.477 80.7326,-390.414 66.059,-371.097"/>
<polygon fill="midnightblue" stroke="midnightblue" points="571.951,-492.723 582.051,-489.523 572.16,-485.726 571.951,-492.723"/>
</g>
<!-- Node3 -->
<g id="node3" class="node"><title>Node3</title>
<g id="a_node3"><a xlink:href="catalog-server_8h.html" target="_top" xlink:title="be/src/catalog/catalog\l&#45;server.h">
<polygon fill="white" stroke="black" points="153.5,-409 153.5,-439 266.5,-439 266.5,-409 153.5,-409"/>
<text text-anchor="start" x="161.5" y="-427" font-family="Helvetica,sans-Serif" font-size="10.00">be/src/catalog/catalog</text>
<text text-anchor="middle" x="210" y="-416" font-family="Helvetica,sans-Serif" font-size="10.00">&#45;server.h</text>
</a>
</g>
</g>
<!-- Node1&#45;&gt;Node3 -->
<g id="edge2" class="edge"><title>Node1&#45;&gt;Node3</title>
<path fill="none" stroke="midnightblue" d="M572.003,-479.918C501.024,-469.859 393.969,-454.434 301,-440 289.924,-438.28 278.102,-436.38 266.769,-434.525"/>
<polygon fill="midnightblue" stroke="midnightblue" points="571.815,-483.426 582.207,-481.363 572.796,-476.496 571.815,-483.426"/>
</g>
<!-- Node6 -->
<g id="node6" class="node"><title>Node6</title>
<g id="a_node6"><a xlink:href="exec-env_8cc.html" target="_top" xlink:title="be/src/runtime/exec\l&#45;env.cc">
<polygon fill="white" stroke="black" points="1020.5,-273 1020.5,-303 1123.5,-303 1123.5,-273 1020.5,-273"/>
<text text-anchor="start" x="1028.5" y="-291" font-family="Helvetica,sans-Serif" font-size="10.00">be/src/runtime/exec</text>
<text text-anchor="middle" x="1072" y="-280" font-family="Helvetica,sans-Serif" font-size="10.00">&#45;env.cc</text>
</a>
</g>
</g>
<!-- Node1&#45;&gt;Node6 -->
<g id="edge6" class="edge"><title>Node1&#45;&gt;Node6</title>
<path fill="none" stroke="midnightblue" d="M705.274,-473.582C728.728,-465.003 756.005,-453.571 779,-440 798.31,-428.605 799.035,-419.96 818,-408 890.701,-362.153 983.892,-322.959 1034.76,-303.037"/>
<polygon fill="midnightblue" stroke="midnightblue" points="704.057,-470.3 695.819,-476.963 706.414,-476.891 704.057,-470.3"/>
</g>
<!-- Node7 -->
<g id="node7" class="node"><title>Node7</title>
<g id="a_node7"><a xlink:href="admission-controller_8h.html" target="_top" xlink:title="be/src/scheduling/admission\l&#45;controller.h">
<polygon fill="white" stroke="black" points="630,-409 630,-439 770,-439 770,-409 630,-409"/>
<text text-anchor="start" x="638" y="-427" font-family="Helvetica,sans-Serif" font-size="10.00">be/src/scheduling/admission</text>
<text text-anchor="middle" x="700" y="-416" font-family="Helvetica,sans-Serif" font-size="10.00">&#45;controller.h</text>
</a>
</g>
</g>
<!-- Node1&#45;&gt;Node7 -->
<g id="edge7" class="edge"><title>Node1&#45;&gt;Node7</title>
<path fill="none" stroke="midnightblue" d="M667.624,-468.608C674.823,-458.912 683.036,-447.85 689.388,-439.293"/>
<polygon fill="midnightblue" stroke="midnightblue" points="664.783,-466.563 661.632,-476.679 670.404,-470.736 664.783,-466.563"/>
</g>
<!-- Node9 -->
<g id="node9" class="node"><title>Node9</title>
<g id="a_node9"><a xlink:href="simple-scheduler_8h.html" target="_top" xlink:title="be/src/statestore/simple\l&#45;scheduler.h">
<polygon fill="white" stroke="black" points="610,-341 610,-371 732,-371 732,-341 610,-341"/>
<text text-anchor="start" x="618" y="-359" font-family="Helvetica,sans-Serif" font-size="10.00">be/src/statestore/simple</text>
<text text-anchor="middle" x="671" y="-348" font-family="Helvetica,sans-Serif" font-size="10.00">&#45;scheduler.h</text>
</a>
</g>
</g>
<!-- Node1&#45;&gt;Node9 -->
<g id="edge52" class="edge"><title>Node1&#45;&gt;Node9</title>
<path fill="none" stroke="midnightblue" d="M633.501,-468.175C622.868,-451.394 612.788,-428.107 621,-408 627.095,-393.077 639.893,-380.159 651.015,-371.057"/>
<polygon fill="midnightblue" stroke="midnightblue" points="630.83,-470.472 639.352,-476.767 636.616,-466.532 630.83,-470.472"/>
</g>
<!-- Node30 -->
<g id="node30" class="node"><title>Node30</title>
<g id="a_node30"><a xlink:href="simple-scheduler_8cc.html" target="_top" xlink:title="be/src/statestore/simple\l&#45;scheduler.cc">
<polygon fill="white" stroke="black" points="343,-137 343,-167 465,-167 465,-137 343,-137"/>
<text text-anchor="start" x="351" y="-155" font-family="Helvetica,sans-Serif" font-size="10.00">be/src/statestore/simple</text>
<text text-anchor="middle" x="404" y="-144" font-family="Helvetica,sans-Serif" font-size="10.00">&#45;scheduler.cc</text>
</a>
</g>
</g>
<!-- Node1&#45;&gt;Node30 -->
<g id="edge53" class="edge"><title>Node1&#45;&gt;Node30</title>
<path fill="none" stroke="midnightblue" d="M572.178,-475.921C472.864,-454.622 315,-412.1 315,-357 315,-357 315,-357 315,-287 315,-235.892 360.479,-189.378 386.416,-167.007"/>
<polygon fill="midnightblue" stroke="midnightblue" points="571.687,-479.394 582.195,-478.04 573.136,-472.546 571.687,-479.394"/>
</g>
<!-- Node34 -->
<g id="node34" class="node"><title>Node34</title>
<g id="a_node34"><a xlink:href="statestore-subscriber_8cc.html" target="_top" xlink:title="be/src/statestore/statestore\l&#45;subscriber.cc">
<polygon fill="white" stroke="black" points="826.5,-409 826.5,-439 963.5,-439 963.5,-409 826.5,-409"/>
<text text-anchor="start" x="834.5" y="-427" font-family="Helvetica,sans-Serif" font-size="10.00">be/src/statestore/statestore</text>
<text text-anchor="middle" x="895" y="-416" font-family="Helvetica,sans-Serif" font-size="10.00">&#45;subscriber.cc</text>
</a>
</g>
</g>
<!-- Node1&#45;&gt;Node34 -->
<g id="edge54" class="edge"><title>Node1&#45;&gt;Node34</title>
<path fill="none" stroke="midnightblue" d="M712.747,-474.298C752.989,-463.413 804.911,-449.368 843.035,-439.056"/>
<polygon fill="midnightblue" stroke="midnightblue" points="711.784,-470.933 703.045,-476.922 713.612,-477.69 711.784,-470.933"/>
</g>
<!-- Node35 -->
<g id="node35" class="node"><title>Node35</title>
<g id="a_node35"><a xlink:href="statestore-test_8cc.html" target="_top" xlink:title="be/src/statestore/statestore\l&#45;test.cc">
<polygon fill="white" stroke="black" points="981.5,-409 981.5,-439 1118.5,-439 1118.5,-409 981.5,-409"/>
<text text-anchor="start" x="989.5" y="-427" font-family="Helvetica,sans-Serif" font-size="10.00">be/src/statestore/statestore</text>
<text text-anchor="middle" x="1050" y="-416" font-family="Helvetica,sans-Serif" font-size="10.00">&#45;test.cc</text>
</a>
</g>
</g>
<!-- Node1&#45;&gt;Node35 -->
<g id="edge55" class="edge"><title>Node1&#45;&gt;Node35</title>
<path fill="none" stroke="midnightblue" d="M729.854,-479.201C794.907,-469.292 889.569,-454.47 972,-440 974.988,-439.475 978.039,-438.93 981.119,-438.372"/>
<polygon fill="midnightblue" stroke="midnightblue" points="729.035,-475.785 719.674,-480.748 730.087,-482.706 729.035,-475.785"/>
</g>
<!-- Node3&#45;&gt;Node2 -->
<g id="edge3" class="edge"><title>Node3&#45;&gt;Node2</title>
<path fill="none" stroke="midnightblue" d="M167.743,-404.89C142.824,-394.21 111.762,-380.898 88.7176,-371.022"/>
<polygon fill="midnightblue" stroke="midnightblue" points="166.393,-408.119 176.963,-408.841 169.15,-401.685 166.393,-408.119"/>
</g>
<!-- Node4 -->
<g id="node4" class="node"><title>Node4</title>
<g id="a_node4"><a xlink:href="catalogd-main_8cc.html" target="_top" xlink:title="be/src/catalog/catalogd\l&#45;main.cc">
<polygon fill="white" stroke="black" points="131,-341 131,-371 249,-371 249,-341 131,-341"/>
<text text-anchor="start" x="139" y="-359" font-family="Helvetica,sans-Serif" font-size="10.00">be/src/catalog/catalogd</text>
<text text-anchor="middle" x="190" y="-348" font-family="Helvetica,sans-Serif" font-size="10.00">&#45;main.cc</text>
</a>
</g>
</g>
<!-- Node3&#45;&gt;Node4 -->
<g id="edge4" class="edge"><title>Node3&#45;&gt;Node4</title>
<path fill="none" stroke="midnightblue" d="M202.676,-398.831C199.873,-389.581 196.767,-379.331 194.331,-371.293"/>
<polygon fill="midnightblue" stroke="midnightblue" points="199.411,-400.124 205.66,-408.679 206.11,-398.094 199.411,-400.124"/>
</g>
<!-- Node5 -->
<g id="node5" class="node"><title>Node5</title>
<g id="a_node5"><a xlink:href="impala-server_8cc.html" target="_top" xlink:title="be/src/service/impala\l&#45;server.cc">
<polygon fill="white" stroke="black" points="482,-1 482,-31 592,-31 592,-1 482,-1"/>
<text text-anchor="start" x="490" y="-19" font-family="Helvetica,sans-Serif" font-size="10.00">be/src/service/impala</text>
<text text-anchor="middle" x="537" y="-8" font-family="Helvetica,sans-Serif" font-size="10.00">&#45;server.cc</text>
</a>
</g>
</g>
<!-- Node3&#45;&gt;Node5 -->
<g id="edge5" class="edge"><title>Node3&#45;&gt;Node5</title>
<path fill="none" stroke="midnightblue" d="M234.851,-401.74C243.34,-393.28 252.157,-382.952 258,-372 275.812,-338.611 277,-326.843 277,-289 277,-289 277,-289 277,-151 277,-59.5939 405.54,-30.4801 481.861,-21.2498"/>
<polygon fill="midnightblue" stroke="midnightblue" points="232.402,-399.239 227.558,-408.662 237.221,-404.316 232.402,-399.239"/>
</g>
<!-- Node8 -->
<g id="node8" class="node"><title>Node8</title>
<g id="a_node8"><a xlink:href="admission-controller_8cc.html" target="_top" xlink:title="be/src/scheduling/admission\l&#45;controller.cc">
<polygon fill="white" stroke="black" points="862,-273 862,-303 1002,-303 1002,-273 862,-273"/>
<text text-anchor="start" x="870" y="-291" font-family="Helvetica,sans-Serif" font-size="10.00">be/src/scheduling/admission</text>
<text text-anchor="middle" x="932" y="-280" font-family="Helvetica,sans-Serif" font-size="10.00">&#45;controller.cc</text>
</a>
</g>
</g>
<!-- Node7&#45;&gt;Node8 -->
<g id="edge8" class="edge"><title>Node7&#45;&gt;Node8</title>
<path fill="none" stroke="midnightblue" d="M717.562,-400.766C733.236,-382.235 757.719,-356.318 784,-340 810.899,-323.299 843.965,-311.237 872.016,-303.05"/>
<polygon fill="midnightblue" stroke="midnightblue" points="714.678,-398.762 711.006,-408.7 720.074,-403.221 714.678,-398.762"/>
</g>
<!-- Node7&#45;&gt;Node9 -->
<g id="edge9" class="edge"><title>Node7&#45;&gt;Node9</title>
<path fill="none" stroke="midnightblue" d="M689.642,-399.426C685.51,-390.023 680.888,-379.504 677.28,-371.293"/>
<polygon fill="midnightblue" stroke="midnightblue" points="686.48,-400.932 693.707,-408.679 692.889,-398.116 686.48,-400.932"/>
</g>
<!-- Node9&#45;&gt;Node5 -->
<g id="edge49" class="edge"><title>Node9&#45;&gt;Node5</title>
<path fill="none" stroke="midnightblue" d="M599.39,-351.053C552.249,-345.658 490.83,-333.09 444,-304 377.963,-262.979 359.929,-241.289 334,-168 308.289,-95.3276 413.235,-51.3297 481.779,-30.8451"/>
<polygon fill="midnightblue" stroke="midnightblue" points="599.211,-354.553 609.525,-352.128 599.95,-347.592 599.211,-354.553"/>
</g>
<!-- Node9&#45;&gt;Node6 -->
<g id="edge46" class="edge"><title>Node9&#45;&gt;Node6</title>
<path fill="none" stroke="midnightblue" d="M742.285,-345.097C826.356,-333.278 960.99,-313.878 1011,-304 1014.1,-303.387 1017.29,-302.721 1020.49,-302.021"/>
<polygon fill="midnightblue" stroke="midnightblue" points="741.709,-341.643 732.292,-346.499 742.682,-348.575 741.709,-341.643"/>
</g>
<!-- Node9&#45;&gt;Node8 -->
<g id="edge47" class="edge"><title>Node9&#45;&gt;Node8</title>
<path fill="none" stroke="midnightblue" d="M736.503,-338.436C779.625,-327.532 835.462,-313.412 876.415,-303.056"/>
<polygon fill="midnightblue" stroke="midnightblue" points="735.508,-335.077 726.671,-340.922 737.224,-341.864 735.508,-335.077"/>
</g>
<!-- Node10 -->
<g id="node10" class="node"><title>Node10</title>
<g id="a_node10"><a xlink:href="coordinator_8h.html" target="_top" xlink:title="be/src/runtime/coordinator.h">
<polygon fill="white" stroke="black" points="528,-278.5 528,-297.5 666,-297.5 666,-278.5 528,-278.5"/>
<text text-anchor="middle" x="597" y="-285.5" font-family="Helvetica,sans-Serif" font-size="10.00">be/src/runtime/coordinator.h</text>
</a>
</g>
</g>
<!-- Node9&#45;&gt;Node10 -->
<g id="edge10" class="edge"><title>Node9&#45;&gt;Node10</title>
<path fill="none" stroke="midnightblue" d="M647.288,-333.852C633.625,-321.666 617.174,-306.993 606.898,-297.828"/>
<polygon fill="midnightblue" stroke="midnightblue" points="645.15,-336.635 654.943,-340.679 649.81,-331.411 645.15,-336.635"/>
</g>
<!-- Node20 -->
<g id="node20" class="node"><title>Node20</title>
<g id="a_node20"><a xlink:href="impala-beeswax-server_8cc.html" target="_top" xlink:title="be/src/service/impala\l&#45;beeswax&#45;server.cc">
<polygon fill="white" stroke="black" points="1635,-1 1635,-31 1745,-31 1745,-1 1635,-1"/>
<text text-anchor="start" x="1643" y="-19" font-family="Helvetica,sans-Serif" font-size="10.00">be/src/service/impala</text>
<text text-anchor="middle" x="1690" y="-8" font-family="Helvetica,sans-Serif" font-size="10.00">&#45;beeswax&#45;server.cc</text>
</a>
</g>
</g>
<!-- Node9&#45;&gt;Node20 -->
<g id="edge48" class="edge"><title>Node9&#45;&gt;Node20</title>
<path fill="none" stroke="midnightblue" d="M734.687,-337.887C760.534,-329.575 790.103,-318.259 815,-304 834.16,-293.026 832.551,-280.327 853,-272 1144.6,-153.265 2051.69,-398.658 2266,-168 2340.06,-88.2884 1902.88,-37.5708 1745.14,-22.0603"/>
<polygon fill="midnightblue" stroke="midnightblue" points="733.478,-334.598 724.98,-340.926 735.569,-341.279 733.478,-334.598"/>
</g>
<!-- Node9&#45;&gt;Node30 -->
<g id="edge51" class="edge"><title>Node9&#45;&gt;Node30</title>
<path fill="none" stroke="midnightblue" d="M600.089,-343.421C539.55,-329.379 456.106,-299.204 416,-236 402.583,-214.855 401.778,-184.656 402.694,-167.115"/>
<polygon fill="midnightblue" stroke="midnightblue" points="599.454,-346.865 609.975,-345.619 600.973,-340.032 599.454,-346.865"/>
</g>
<!-- Node33 -->
<g id="node33" class="node"><title>Node33</title>
<g id="a_node33"><a xlink:href="simple-scheduler-test_8cc.html" target="_top" xlink:title="be/src/statestore/simple\l&#45;scheduler&#45;test.cc">
<polygon fill="white" stroke="black" points="684,-273 684,-303 806,-303 806,-273 684,-273"/>
<text text-anchor="start" x="692" y="-291" font-family="Helvetica,sans-Serif" font-size="10.00">be/src/statestore/simple</text>
<text text-anchor="middle" x="745" y="-280" font-family="Helvetica,sans-Serif" font-size="10.00">&#45;scheduler&#45;test.cc</text>
</a>
</g>
</g>
<!-- Node9&#45;&gt;Node33 -->
<g id="edge50" class="edge"><title>Node9&#45;&gt;Node33</title>
<path fill="none" stroke="midnightblue" d="M694.525,-334.018C705.853,-323.915 719.134,-312.07 729.229,-303.066"/>
<polygon fill="midnightblue" stroke="midnightblue" points="692.19,-331.411 687.057,-340.679 696.85,-336.635 692.19,-331.411"/>
</g>
<!-- Node11 -->
<g id="node11" class="node"><title>Node11</title>
<g id="a_node11"><a xlink:href="coordinator_8cc.html" target="_top" xlink:title="be/src/runtime/coordinator.cc">
<polygon fill="white" stroke="black" points="425.5,-210.5 425.5,-229.5 568.5,-229.5 568.5,-210.5 425.5,-210.5"/>
<text text-anchor="middle" x="497" y="-217.5" font-family="Helvetica,sans-Serif" font-size="10.00">be/src/runtime/coordinator.cc</text>
</a>
</g>
</g>
<!-- Node10&#45;&gt;Node11 -->
<g id="edge11" class="edge"><title>Node10&#45;&gt;Node11</title>
<path fill="none" stroke="midnightblue" d="M575.502,-272.811C555.616,-259.686 526.698,-240.6 510.076,-229.63"/>
<polygon fill="midnightblue" stroke="midnightblue" points="573.653,-275.784 583.927,-278.372 577.509,-269.942 573.653,-275.784"/>
</g>
<!-- Node12 -->
<g id="node12" class="node"><title>Node12</title>
<g id="a_node12"><a xlink:href="impala-server_8h.html" target="_top" xlink:title="be/src/service/impala\l&#45;server.h">
<polygon fill="white" stroke="black" points="1105,-205 1105,-235 1215,-235 1215,-205 1105,-205"/>
<text text-anchor="start" x="1113" y="-223" font-family="Helvetica,sans-Serif" font-size="10.00">be/src/service/impala</text>
<text text-anchor="middle" x="1160" y="-212" font-family="Helvetica,sans-Serif" font-size="10.00">&#45;server.h</text>
</a>
</g>
</g>
<!-- Node10&#45;&gt;Node12 -->
<g id="edge12" class="edge"><title>Node10&#45;&gt;Node12</title>
<path fill="none" stroke="midnightblue" d="M647.802,-276.582C656.839,-274.914 666.18,-273.309 675,-272 830.143,-248.968 1014.72,-232.564 1104.89,-225.255"/>
<polygon fill="midnightblue" stroke="midnightblue" points="646.949,-273.181 637.774,-278.479 648.251,-280.059 646.949,-273.181"/>
</g>
<!-- Node28 -->
<g id="node28" class="node"><title>Node28</title>
<g id="a_node28"><a xlink:href="impalad-main_8cc.html" target="_top" xlink:title="be/src/service/impalad\l&#45;main.cc">
<polygon fill="white" stroke="black" points="483.5,-137 483.5,-167 598.5,-167 598.5,-137 483.5,-137"/>
<text text-anchor="start" x="491.5" y="-155" font-family="Helvetica,sans-Serif" font-size="10.00">be/src/service/impalad</text>
<text text-anchor="middle" x="541" y="-144" font-family="Helvetica,sans-Serif" font-size="10.00">&#45;main.cc</text>
</a>
</g>
</g>
<!-- Node10&#45;&gt;Node28 -->
<g id="edge44" class="edge"><title>Node10&#45;&gt;Node28</title>
<path fill="none" stroke="midnightblue" d="M605.95,-269.42C613.516,-251.938 621.579,-224.796 611,-204 602.751,-187.784 586.662,-175.503 571.986,-167.061"/>
<polygon fill="midnightblue" stroke="midnightblue" points="602.78,-267.937 601.697,-278.476 609.116,-270.912 602.78,-267.937"/>
</g>
<!-- Node10&#45;&gt;Node30 -->
<g id="edge45" class="edge"><title>Node10&#45;&gt;Node30</title>
<path fill="none" stroke="midnightblue" d="M597.573,-268.218C597.1,-249.542 593.41,-221.256 577,-204 568.773,-195.349 508.957,-178.907 461.934,-167.026"/>
<polygon fill="midnightblue" stroke="midnightblue" points="594.072,-268.407 597.536,-278.42 601.072,-268.432 594.072,-268.407"/>
</g>
<!-- Node12&#45;&gt;Node5 -->
<g id="edge33" class="edge"><title>Node12&#45;&gt;Node5</title>
<path fill="none" stroke="midnightblue" d="M1094.62,-216.794C975.836,-212.075 729.512,-198.814 650,-168 627.787,-159.392 626.288,-149.981 607,-136 584.536,-119.717 571.45,-123.045 556,-100 541.842,-78.8809 538.132,-48.6731 537.221,-31.123"/>
<polygon fill="midnightblue" stroke="midnightblue" points="1094.55,-220.294 1104.68,-217.185 1094.82,-213.299 1094.55,-220.294"/>
</g>
<!-- Node13 -->
<g id="node13" class="node"><title>Node13</title>
<g id="a_node13"><a xlink:href="catalog-op-executor_8cc.html" target="_top" xlink:title="be/src/exec/catalog\l&#45;op&#45;executor.cc">
<polygon fill="white" stroke="black" points="1706,-137 1706,-167 1808,-167 1808,-137 1706,-137"/>
<text text-anchor="start" x="1714" y="-155" font-family="Helvetica,sans-Serif" font-size="10.00">be/src/exec/catalog</text>
<text text-anchor="middle" x="1757" y="-144" font-family="Helvetica,sans-Serif" font-size="10.00">&#45;op&#45;executor.cc</text>
</a>
</g>
</g>
<!-- Node12&#45;&gt;Node13 -->
<g id="edge13" class="edge"><title>Node12&#45;&gt;Node13</title>
<path fill="none" stroke="midnightblue" d="M1225.08,-215.521C1325.69,-209.521 1524.88,-195.173 1692,-168 1696.46,-167.275 1701.07,-166.423 1705.68,-165.499"/>
<polygon fill="midnightblue" stroke="midnightblue" points="1224.84,-212.028 1215.06,-216.11 1225.25,-219.016 1224.84,-212.028"/>
</g>
<!-- Node14 -->
<g id="node14" class="node"><title>Node14</title>
<g id="a_node14"><a xlink:href="expr-benchmark_8cc.html" target="_top" xlink:title="be/src/exprs/expr&#45;benchmark.cc">
<polygon fill="white" stroke="black" points="1826.5,-142.5 1826.5,-161.5 1983.5,-161.5 1983.5,-142.5 1826.5,-142.5"/>
<text text-anchor="middle" x="1905" y="-149.5" font-family="Helvetica,sans-Serif" font-size="10.00">be/src/exprs/expr&#45;benchmark.cc</text>
</a>
</g>
</g>
<!-- Node12&#45;&gt;Node14 -->
<g id="edge14" class="edge"><title>Node12&#45;&gt;Node14</title>
<path fill="none" stroke="midnightblue" d="M1225.34,-215.859C1343.53,-209.746 1600.56,-194.476 1816,-168 1830,-166.28 1845.15,-163.915 1858.92,-161.572"/>
<polygon fill="midnightblue" stroke="midnightblue" points="1224.83,-212.38 1215.02,-216.387 1225.19,-219.371 1224.83,-212.38"/>
</g>
<!-- Node15 -->
<g id="node15" class="node"><title>Node15</title>
<g id="a_node15"><a xlink:href="expr-test_8cc.html" target="_top" xlink:title="be/src/exprs/expr&#45;test.cc">
<polygon fill="white" stroke="black" points="2001.5,-142.5 2001.5,-161.5 2126.5,-161.5 2126.5,-142.5 2001.5,-142.5"/>
<text text-anchor="middle" x="2064" y="-149.5" font-family="Helvetica,sans-Serif" font-size="10.00">be/src/exprs/expr&#45;test.cc</text>
</a>
</g>
</g>
<!-- Node12&#45;&gt;Node15 -->
<g id="edge15" class="edge"><title>Node12&#45;&gt;Node15</title>
<path fill="none" stroke="midnightblue" d="M1225.46,-218.19C1366.3,-215.746 1708.29,-206.046 1992,-168 2003.9,-166.405 2016.76,-163.959 2028.28,-161.502"/>
<polygon fill="midnightblue" stroke="midnightblue" points="1225.21,-214.694 1215.27,-218.36 1225.33,-221.693 1225.21,-214.694"/>
</g>
<!-- Node16 -->
<g id="node16" class="node"><title>Node16</title>
<g id="a_node16"><a xlink:href="thrift-server-test_8cc.html" target="_top" xlink:title="be/src/rpc/thrift&#45;server\l&#45;test.cc">
<polygon fill="white" stroke="black" points="2144.5,-137 2144.5,-167 2257.5,-167 2257.5,-137 2144.5,-137"/>
<text text-anchor="start" x="2152.5" y="-155" font-family="Helvetica,sans-Serif" font-size="10.00">be/src/rpc/thrift&#45;server</text>
<text text-anchor="middle" x="2201" y="-144" font-family="Helvetica,sans-Serif" font-size="10.00">&#45;test.cc</text>
</a>
</g>
</g>
<!-- Node12&#45;&gt;Node16 -->
<g id="edge16" class="edge"><title>Node12&#45;&gt;Node16</title>
<path fill="none" stroke="midnightblue" d="M1225.36,-217.043C1414.23,-211.154 1958.5,-192.49 2135,-168 2138.03,-167.58 2141.12,-167.091 2144.23,-166.551"/>
<polygon fill="midnightblue" stroke="midnightblue" points="1225.19,-213.546 1215.3,-217.355 1225.4,-220.543 1225.19,-213.546"/>
</g>
<!-- Node17 -->
<g id="node17" class="node"><title>Node17</title>
<g id="a_node17"><a xlink:href="child-query_8h.html" target="_top" xlink:title="be/src/service/child\l&#45;query.h">
<polygon fill="white" stroke="black" points="1510.5,-137 1510.5,-167 1611.5,-167 1611.5,-137 1510.5,-137"/>
<text text-anchor="start" x="1518.5" y="-155" font-family="Helvetica,sans-Serif" font-size="10.00">be/src/service/child</text>
<text text-anchor="middle" x="1561" y="-144" font-family="Helvetica,sans-Serif" font-size="10.00">&#45;query.h</text>
</a>
</g>
</g>
<!-- Node12&#45;&gt;Node17 -->
<g id="edge17" class="edge"><title>Node12&#45;&gt;Node17</title>
<path fill="none" stroke="midnightblue" d="M1225.34,-210.583C1293.23,-201.487 1402.43,-185.872 1496,-168 1500.66,-167.109 1505.5,-166.119 1510.34,-165.084"/>
<polygon fill="midnightblue" stroke="midnightblue" points="1224.67,-207.142 1215.22,-211.932 1225.59,-214.08 1224.67,-207.142"/>
</g>
<!-- Node19 -->
<g id="node19" class="node"><title>Node19</title>
<g id="a_node19"><a xlink:href="query-exec-state_8h.html" target="_top" xlink:title="be/src/service/query\l&#45;exec&#45;state.h">
<polygon fill="white" stroke="black" points="1391.5,-69 1391.5,-99 1496.5,-99 1496.5,-69 1391.5,-69"/>
<text text-anchor="start" x="1399.5" y="-87" font-family="Helvetica,sans-Serif" font-size="10.00">be/src/service/query</text>
<text text-anchor="middle" x="1444" y="-76" font-family="Helvetica,sans-Serif" font-size="10.00">&#45;exec&#45;state.h</text>
</a>
</g>
</g>
<!-- Node12&#45;&gt;Node19 -->
<g id="edge39" class="edge"><title>Node12&#45;&gt;Node19</title>
<path fill="none" stroke="midnightblue" d="M1094.64,-219.596C1000.97,-218.895 835.669,-211.348 798,-168 788.671,-157.265 788.258,-146.361 798,-136 842.534,-88.6364 1317.71,-109.681 1382,-100 1385.07,-99.5382 1388.2,-98.998 1391.36,-98.4021"/>
<polygon fill="midnightblue" stroke="midnightblue" points="1094.85,-223.097 1104.86,-219.648 1094.88,-216.097 1094.85,-223.097"/>
</g>
<!-- Node12&#45;&gt;Node20 -->
<g id="edge27" class="edge"><title>Node12&#45;&gt;Node20</title>
<path fill="none" stroke="midnightblue" d="M1225.17,-215.968C1348.9,-209.651 1608.35,-193.513 1640,-168 1682.57,-133.685 1689.2,-62.122 1690.02,-31.4564"/>
<polygon fill="midnightblue" stroke="midnightblue" points="1224.88,-212.478 1215.07,-216.477 1225.23,-219.469 1224.88,-212.478"/>
</g>
<!-- Node21 -->
<g id="node21" class="node"><title>Node21</title>
<g id="a_node21"><a xlink:href="impala-hs2-server_8cc.html" target="_top" xlink:title="be/src/service/impala\l&#45;hs2&#45;server.cc">
<polygon fill="white" stroke="black" points="1263,-1 1263,-31 1373,-31 1373,-1 1263,-1"/>
<text text-anchor="start" x="1271" y="-19" font-family="Helvetica,sans-Serif" font-size="10.00">be/src/service/impala</text>
<text text-anchor="middle" x="1318" y="-8" font-family="Helvetica,sans-Serif" font-size="10.00">&#45;hs2&#45;server.cc</text>
</a>
</g>
</g>
<!-- Node12&#45;&gt;Node21 -->
<g id="edge28" class="edge"><title>Node12&#45;&gt;Node21</title>
<path fill="none" stroke="midnightblue" d="M1094.5,-219.914C998.349,-219.694 826.129,-212.843 787,-168 777.649,-157.284 778.111,-147.102 787,-136 846.27,-61.9767 1139.12,-30.8709 1262.76,-20.8923"/>
<polygon fill="midnightblue" stroke="midnightblue" points="1094.7,-223.414 1104.7,-219.913 1094.7,-216.414 1094.7,-223.414"/>
</g>
<!-- Node22 -->
<g id="node22" class="node"><title>Node22</title>
<g id="a_node22"><a xlink:href="impala-server-callbacks_8cc.html" target="_top" xlink:title="be/src/service/impala\l&#45;server&#45;callbacks.cc">
<polygon fill="white" stroke="black" points="891,-1 891,-31 1001,-31 1001,-1 891,-1"/>
<text text-anchor="start" x="899" y="-19" font-family="Helvetica,sans-Serif" font-size="10.00">be/src/service/impala</text>
<text text-anchor="middle" x="946" y="-8" font-family="Helvetica,sans-Serif" font-size="10.00">&#45;server&#45;callbacks.cc</text>
</a>
</g>
</g>
<!-- Node12&#45;&gt;Node22 -->
<g id="edge32" class="edge"><title>Node12&#45;&gt;Node22</title>
<path fill="none" stroke="midnightblue" d="M1094.86,-214.944C991.036,-207.808 797.582,-191.504 777,-168 727.945,-111.98 843.778,-56.2647 907.517,-31.0186"/>
<polygon fill="midnightblue" stroke="midnightblue" points="1094.71,-218.441 1104.92,-215.626 1095.18,-211.457 1094.71,-218.441"/>
</g>
<!-- Node23 -->
<g id="node23" class="node"><title>Node23</title>
<g id="a_node23"><a xlink:href="query-exec-state_8cc.html" target="_top" xlink:title="be/src/service/query\l&#45;exec&#45;state.cc">
<polygon fill="white" stroke="black" points="1511.5,-1 1511.5,-31 1616.5,-31 1616.5,-1 1511.5,-1"/>
<text text-anchor="start" x="1519.5" y="-19" font-family="Helvetica,sans-Serif" font-size="10.00">be/src/service/query</text>
<text text-anchor="middle" x="1564" y="-8" font-family="Helvetica,sans-Serif" font-size="10.00">&#45;exec&#45;state.cc</text>
</a>
</g>
</g>
<!-- Node12&#45;&gt;Node23 -->
<g id="edge38" class="edge"><title>Node12&#45;&gt;Node23</title>
<path fill="none" stroke="midnightblue" d="M1225.39,-216.492C1346.13,-211.186 1594.16,-196.867 1620,-168 1656.55,-127.17 1604.31,-60.3476 1577.81,-31.2673"/>
<polygon fill="midnightblue" stroke="midnightblue" points="1225.01,-213.005 1215.17,-216.933 1225.31,-219.999 1225.01,-213.005"/>
</g>
<!-- Node24 -->
<g id="node24" class="node"><title>Node24</title>
<g id="a_node24"><a xlink:href="fe-support_8cc.html" target="_top" xlink:title="be/src/service/fe&#45;support.cc">
<polygon fill="white" stroke="black" points="807,-142.5 807,-161.5 945,-161.5 945,-142.5 807,-142.5"/>
<text text-anchor="middle" x="876" y="-149.5" font-family="Helvetica,sans-Serif" font-size="10.00">be/src/service/fe&#45;support.cc</text>
</a>
</g>
</g>
<!-- Node12&#45;&gt;Node24 -->
<g id="edge26" class="edge"><title>Node12&#45;&gt;Node24</title>
<path fill="none" stroke="midnightblue" d="M1095.01,-203.896C1038.6,-190.788 958.951,-172.277 912.873,-161.569"/>
<polygon fill="midnightblue" stroke="midnightblue" points="1094.37,-207.342 1104.91,-206.196 1095.96,-200.523 1094.37,-207.342"/>
</g>
<!-- Node25 -->
<g id="node25" class="node"><title>Node25</title>
<g id="a_node25"><a xlink:href="impala-internal-service-proxy_8h.html" target="_top" xlink:title="be/src/service/impala\l&#45;internal&#45;service&#45;proxy.h">
<polygon fill="white" stroke="black" points="963.5,-137 963.5,-167 1084.5,-167 1084.5,-137 963.5,-137"/>
<text text-anchor="start" x="971.5" y="-155" font-family="Helvetica,sans-Serif" font-size="10.00">be/src/service/impala</text>
<text text-anchor="middle" x="1024" y="-144" font-family="Helvetica,sans-Serif" font-size="10.00">&#45;internal&#45;service&#45;proxy.h</text>
</a>
</g>
</g>
<!-- Node12&#45;&gt;Node25 -->
<g id="edge29" class="edge"><title>Node12&#45;&gt;Node25</title>
<path fill="none" stroke="midnightblue" d="M1121.55,-200.339C1099.82,-189.796 1073.1,-176.83 1053.13,-167.135"/>
<polygon fill="midnightblue" stroke="midnightblue" points="1120.3,-203.624 1130.82,-204.841 1123.36,-197.327 1120.3,-203.624"/>
</g>
<!-- Node26 -->
<g id="node26" class="node"><title>Node26</title>
<g id="a_node26"><a xlink:href="impala-internal-service_8h.html" target="_top" xlink:title="be/src/service/impala\l&#45;internal&#45;service.h">
<polygon fill="white" stroke="black" points="565,-69 565,-99 675,-99 675,-69 565,-69"/>
<text text-anchor="start" x="573" y="-87" font-family="Helvetica,sans-Serif" font-size="10.00">be/src/service/impala</text>
<text text-anchor="middle" x="620" y="-76" font-family="Helvetica,sans-Serif" font-size="10.00">&#45;internal&#45;service.h</text>
</a>
</g>
</g>
<!-- Node12&#45;&gt;Node26 -->
<g id="edge30" class="edge"><title>Node12&#45;&gt;Node26</title>
<path fill="none" stroke="midnightblue" d="M1094.78,-217.917C982.376,-215.073 757.609,-204.82 689,-168 659.61,-152.227 637.732,-118.261 627.128,-99.0276"/>
<polygon fill="midnightblue" stroke="midnightblue" points="1094.89,-221.42 1104.97,-218.162 1095.06,-214.422 1094.89,-221.42"/>
</g>
<!-- Node27 -->
<g id="node27" class="node"><title>Node27</title>
<g id="a_node27"><a xlink:href="impala-server_8inline_8h.html" target="_top" xlink:title="be/src/service/impala\l&#45;server.inline.h">
<polygon fill="white" stroke="black" points="1263,-69 1263,-99 1373,-99 1373,-69 1263,-69"/>
<text text-anchor="start" x="1271" y="-87" font-family="Helvetica,sans-Serif" font-size="10.00">be/src/service/impala</text>
<text text-anchor="middle" x="1318" y="-76" font-family="Helvetica,sans-Serif" font-size="10.00">&#45;server.inline.h</text>
</a>
</g>
</g>
<!-- Node12&#45;&gt;Node27 -->
<g id="edge34" class="edge"><title>Node12&#45;&gt;Node27</title>
<path fill="none" stroke="midnightblue" d="M1225.64,-217.455C1305.21,-214.036 1432.35,-203.075 1462,-168 1471.18,-157.138 1470.21,-147.615 1462,-136 1451.29,-120.839 1409.22,-107.007 1373.3,-97.5857"/>
<polygon fill="midnightblue" stroke="midnightblue" points="1225.08,-213.975 1215.23,-217.872 1225.36,-220.969 1225.08,-213.975"/>
</g>
<!-- Node12&#45;&gt;Node28 -->
<g id="edge37" class="edge"><title>Node12&#45;&gt;Node28</title>
<path fill="none" stroke="midnightblue" d="M1094.39,-215.274C991.422,-208.89 785.798,-193.971 613,-168 608.328,-167.298 603.503,-166.485 598.666,-165.609"/>
<polygon fill="midnightblue" stroke="midnightblue" points="1094.43,-218.783 1104.63,-215.902 1094.86,-211.796 1094.43,-218.783"/>
</g>
<!-- Node29 -->
<g id="node29" class="node"><title>Node29</title>
<g id="a_node29"><a xlink:href="session-expiry-test_8cc.html" target="_top" xlink:title="be/src/service/session\l&#45;expiry&#45;test.cc">
<polygon fill="white" stroke="black" points="1102.5,-137 1102.5,-167 1217.5,-167 1217.5,-137 1102.5,-137"/>
<text text-anchor="start" x="1110.5" y="-155" font-family="Helvetica,sans-Serif" font-size="10.00">be/src/service/session</text>
<text text-anchor="middle" x="1160" y="-144" font-family="Helvetica,sans-Serif" font-size="10.00">&#45;expiry&#45;test.cc</text>
</a>
</g>
</g>
<!-- Node12&#45;&gt;Node29 -->
<g id="edge40" class="edge"><title>Node12&#45;&gt;Node29</title>
<path fill="none" stroke="midnightblue" d="M1160,-194.532C1160,-185.361 1160,-175.245 1160,-167.293"/>
<polygon fill="midnightblue" stroke="midnightblue" points="1156.5,-194.679 1160,-204.679 1163.5,-194.679 1156.5,-194.679"/>
</g>
<!-- Node12&#45;&gt;Node30 -->
<g id="edge41" class="edge"><title>Node12&#45;&gt;Node30</title>
<path fill="none" stroke="midnightblue" d="M1094.26,-217.106C971.717,-212.912 700.284,-200.5 474,-168 471.17,-167.594 468.284,-167.139 465.375,-166.649"/>
<polygon fill="midnightblue" stroke="midnightblue" points="1094.48,-220.615 1104.59,-217.452 1094.71,-213.619 1094.48,-220.615"/>
</g>
<!-- Node31 -->
<g id="node31" class="node"><title>Node31</title>
<g id="a_node31"><a xlink:href="in-process-servers_8cc.html" target="_top" xlink:title="be/src/testutil/in\l&#45;process&#45;servers.cc">
<polygon fill="white" stroke="black" points="1235.5,-137 1235.5,-167 1338.5,-167 1338.5,-137 1235.5,-137"/>
<text text-anchor="start" x="1243.5" y="-155" font-family="Helvetica,sans-Serif" font-size="10.00">be/src/testutil/in</text>
<text text-anchor="middle" x="1287" y="-144" font-family="Helvetica,sans-Serif" font-size="10.00">&#45;process&#45;servers.cc</text>
</a>
</g>
</g>
<!-- Node12&#45;&gt;Node31 -->
<g id="edge42" class="edge"><title>Node12&#45;&gt;Node31</title>
<path fill="none" stroke="midnightblue" d="M1196.18,-200.197C1216.42,-189.68 1241.23,-176.787 1259.8,-167.135"/>
<polygon fill="midnightblue" stroke="midnightblue" points="1194.5,-197.124 1187.24,-204.841 1197.73,-203.336 1194.5,-197.124"/>
</g>
<!-- Node32 -->
<g id="node32" class="node"><title>Node32</title>
<g id="a_node32"><a xlink:href="mini-impala-cluster_8cc.html" target="_top" xlink:title="be/src/testutil/mini\l&#45;impala&#45;cluster.cc">
<polygon fill="white" stroke="black" points="1356.5,-137 1356.5,-167 1453.5,-167 1453.5,-137 1356.5,-137"/>
<text text-anchor="start" x="1364.5" y="-155" font-family="Helvetica,sans-Serif" font-size="10.00">be/src/testutil/mini</text>
<text text-anchor="middle" x="1405" y="-144" font-family="Helvetica,sans-Serif" font-size="10.00">&#45;impala&#45;cluster.cc</text>
</a>
</g>
</g>
<!-- Node12&#45;&gt;Node32 -->
<g id="edge43" class="edge"><title>Node12&#45;&gt;Node32</title>
<path fill="none" stroke="midnightblue" d="M1222.01,-202.296C1263.6,-191.091 1317.61,-176.54 1356.16,-166.158"/>
<polygon fill="midnightblue" stroke="midnightblue" points="1221,-198.942 1212.26,-204.922 1222.82,-205.701 1221,-198.942"/>
</g>
<!-- Node18 -->
<g id="node18" class="node"><title>Node18</title>
<g id="a_node18"><a xlink:href="child-query_8cc.html" target="_top" xlink:title="be/src/service/child\l&#45;query.cc">
<polygon fill="white" stroke="black" points="1392.5,-1 1392.5,-31 1493.5,-31 1493.5,-1 1392.5,-1"/>
<text text-anchor="start" x="1400.5" y="-19" font-family="Helvetica,sans-Serif" font-size="10.00">be/src/service/child</text>
<text text-anchor="middle" x="1443" y="-8" font-family="Helvetica,sans-Serif" font-size="10.00">&#45;query.cc</text>
</a>
</g>
</g>
<!-- Node17&#45;&gt;Node18 -->
<g id="edge18" class="edge"><title>Node17&#45;&gt;Node18</title>
<path fill="none" stroke="midnightblue" d="M1547.95,-127.976C1537.52,-110.559 1521.87,-86.5548 1505,-68 1492.34,-54.0796 1475.79,-40.6583 1462.98,-31.0807"/>
<polygon fill="midnightblue" stroke="midnightblue" points="1545.11,-130.047 1553.19,-136.899 1551.15,-126.503 1545.11,-130.047"/>
</g>
<!-- Node17&#45;&gt;Node19 -->
<g id="edge19" class="edge"><title>Node17&#45;&gt;Node19</title>
<path fill="none" stroke="midnightblue" d="M1527.16,-131.912C1508.61,-121.448 1486.01,-108.7 1469.06,-99.1352"/>
<polygon fill="midnightblue" stroke="midnightblue" points="1525.47,-134.977 1535.9,-136.841 1528.91,-128.88 1525.47,-134.977"/>
</g>
<!-- Node19&#45;&gt;Node5 -->
<g id="edge24" class="edge"><title>Node19&#45;&gt;Node5</title>
<path fill="none" stroke="midnightblue" d="M1381.23,-68.2277C1269.07,-54.5325 761.448,-28.3074 592.104,-19.7573"/>
<polygon fill="midnightblue" stroke="midnightblue" points="1380.98,-71.7256 1391.36,-69.5932 1381.92,-64.7883 1380.98,-71.7256"/>
</g>
<!-- Node19&#45;&gt;Node18 -->
<g id="edge20" class="edge"><title>Node19&#45;&gt;Node18</title>
<path fill="none" stroke="midnightblue" d="M1443.63,-58.5322C1443.49,-49.3606 1443.34,-39.2449 1443.22,-31.2931"/>
<polygon fill="midnightblue" stroke="midnightblue" points="1440.13,-58.7332 1443.78,-68.679 1447.13,-58.6271 1440.13,-58.7332"/>
</g>
<!-- Node19&#45;&gt;Node20 -->
<g id="edge21" class="edge"><title>Node19&#45;&gt;Node20</title>
<path fill="none" stroke="midnightblue" d="M1506.25,-66.298C1546.83,-55.4127 1599.17,-41.3684 1637.61,-31.0561"/>
<polygon fill="midnightblue" stroke="midnightblue" points="1505.22,-62.9505 1496.47,-68.9223 1507.04,-69.7114 1505.22,-62.9505"/>
</g>
<!-- Node19&#45;&gt;Node21 -->
<g id="edge22" class="edge"><title>Node19&#45;&gt;Node21</title>
<path fill="none" stroke="midnightblue" d="M1408.1,-64.1968C1388.03,-53.6802 1363.41,-40.7868 1344.99,-31.1352"/>
<polygon fill="midnightblue" stroke="midnightblue" points="1406.49,-67.3016 1416.97,-68.8413 1409.74,-61.1008 1406.49,-67.3016"/>
</g>
<!-- Node19&#45;&gt;Node22 -->
<g id="edge23" class="edge"><title>Node19&#45;&gt;Node22</title>
<path fill="none" stroke="midnightblue" d="M1381.08,-67.9795C1238.47,-42.9709 1082.09,-28.0757 1001.03,-21.2876"/>
<polygon fill="midnightblue" stroke="midnightblue" points="1380.87,-71.496 1391.33,-69.7977 1382.09,-64.6038 1380.87,-71.496"/>
</g>
<!-- Node19&#45;&gt;Node23 -->
<g id="edge25" class="edge"><title>Node19&#45;&gt;Node23</title>
<path fill="none" stroke="midnightblue" d="M1478.71,-63.912C1497.73,-53.4481 1520.91,-40.6999 1538.3,-31.1352"/>
<polygon fill="midnightblue" stroke="midnightblue" points="1476.82,-60.9553 1469.74,-68.8413 1480.19,-67.0889 1476.82,-60.9553"/>
</g>
<!-- Node26&#45;&gt;Node5 -->
<g id="edge31" class="edge"><title>Node26&#45;&gt;Node5</title>
<path fill="none" stroke="midnightblue" d="M593.98,-62.3094C581.194,-52.1426 566.121,-40.1562 554.689,-31.0663"/>
<polygon fill="midnightblue" stroke="midnightblue" points="591.985,-65.1945 601.99,-68.679 596.342,-59.7155 591.985,-65.1945"/>
</g>
<!-- Node27&#45;&gt;Node18 -->
<g id="edge35" class="edge"><title>Node27&#45;&gt;Node18</title>
<path fill="none" stroke="midnightblue" d="M1353.88,-64.0545C1373.75,-53.5641 1398.03,-40.7434 1416.23,-31.1352"/>
<polygon fill="midnightblue" stroke="midnightblue" points="1352.02,-61.0771 1344.82,-68.8413 1355.29,-67.2672 1352.02,-61.0771"/>
</g>
<!-- Node27&#45;&gt;Node21 -->
<g id="edge36" class="edge"><title>Node27&#45;&gt;Node21</title>
<path fill="none" stroke="midnightblue" d="M1318,-58.5322C1318,-49.3606 1318,-39.2449 1318,-31.2931"/>
<polygon fill="midnightblue" stroke="midnightblue" points="1314.5,-58.6789 1318,-68.679 1321.5,-58.679 1314.5,-58.6789"/>
</g>
</g>
</svg>
