<?xml version="1.0" encoding="UTF-8" standalone="no"?>
<!DOCTYPE svg PUBLIC "-//W3C//DTD SVG 1.1//EN"
 "http://www.w3.org/Graphics/SVG/1.1/DTD/svg11.dtd">
<!-- Generated by graphviz version 2.36.0 (20140111.2315)
 -->
<!-- Title: be/src/runtime/string&#45;value.cc Pages: 1 -->
<svg width="834pt" height="332pt"
 viewBox="0.00 0.00 834.14 332.00" xmlns="http://www.w3.org/2000/svg" xmlns:xlink="http://www.w3.org/1999/xlink">
<g id="graph0" class="graph" transform="scale(1 1) rotate(0) translate(4 328)">
<title>be/src/runtime/string&#45;value.cc</title>
<polygon fill="white" stroke="none" points="-4,4 -4,-328 830.136,-328 830.136,4 -4,4"/>
<!-- Node1 -->
<g id="node1" class="node"><title>Node1</title>
<polygon fill="#bfbfbf" stroke="black" points="554.136,-293 554.136,-323 660.136,-323 660.136,-293 554.136,-293"/>
<text text-anchor="start" x="562.136" y="-311" font-family="Helvetica,sans-Serif" font-size="10.00">be/src/runtime/string</text>
<text text-anchor="middle" x="607.136" y="-300" font-family="Helvetica,sans-Serif" font-size="10.00">&#45;value.cc</text>
</g>
<!-- Node2 -->
<g id="node2" class="node"><title>Node2</title>
<g id="a_node2"><a xlink:href="string-value_8h.html" target="_top" xlink:title="runtime/string&#45;value.h">
<polygon fill="white" stroke="black" points="456.136,-236.5 456.136,-255.5 566.136,-255.5 566.136,-236.5 456.136,-236.5"/>
<text text-anchor="middle" x="511.136" y="-243.5" font-family="Helvetica,sans-Serif" font-size="10.00">runtime/string&#45;value.h</text>
</a>
</g>
</g>
<!-- Node1&#45;&gt;Node2 -->
<g id="edge1" class="edge"><title>Node1&#45;&gt;Node2</title>
<path fill="none" stroke="midnightblue" d="M584.385,-292.781C569.049,-283.196 548.906,-270.606 533.625,-261.056"/>
<polygon fill="midnightblue" stroke="midnightblue" points="535.16,-257.888 524.825,-255.556 531.45,-263.824 535.16,-257.888"/>
</g>
<!-- Node19 -->
<g id="node19" class="node"><title>Node19</title>
<polygon fill="white" stroke="#bfbfbf" points="584.136,-236.5 584.136,-255.5 630.136,-255.5 630.136,-236.5 584.136,-236.5"/>
<text text-anchor="middle" x="607.136" y="-243.5" font-family="Helvetica,sans-Serif" font-size="10.00">cstring</text>
</g>
<!-- Node1&#45;&gt;Node19 -->
<g id="edge25" class="edge"><title>Node1&#45;&gt;Node19</title>
<path fill="none" stroke="midnightblue" d="M607.136,-292.781C607.136,-284.781 607.136,-274.689 607.136,-266.017"/>
<polygon fill="midnightblue" stroke="midnightblue" points="610.636,-265.73 607.136,-255.731 603.636,-265.731 610.636,-265.73"/>
</g>
<!-- Node20 -->
<g id="node20" class="node"><title>Node20</title>
<g id="a_node20"><a xlink:href="names_8h.html" target="_top" xlink:title="common/names.h">
<polygon fill="white" stroke="black" points="648.636,-236.5 648.636,-255.5 743.636,-255.5 743.636,-236.5 648.636,-236.5"/>
<text text-anchor="middle" x="696.136" y="-243.5" font-family="Helvetica,sans-Serif" font-size="10.00">common/names.h</text>
</a>
</g>
</g>
<!-- Node1&#45;&gt;Node20 -->
<g id="edge26" class="edge"><title>Node1&#45;&gt;Node20</title>
<path fill="none" stroke="midnightblue" d="M628.227,-292.781C642.311,-283.286 660.768,-270.843 674.885,-261.327"/>
<polygon fill="midnightblue" stroke="midnightblue" points="677.11,-264.048 683.445,-255.556 673.197,-258.244 677.11,-264.048"/>
</g>
<!-- Node3 -->
<g id="node3" class="node"><title>Node3</title>
<polygon fill="white" stroke="#bfbfbf" points="84.6357,-124.5 84.6357,-143.5 133.636,-143.5 133.636,-124.5 84.6357,-124.5"/>
<text text-anchor="middle" x="109.136" y="-131.5" font-family="Helvetica,sans-Serif" font-size="10.00">string.h</text>
</g>
<!-- Node2&#45;&gt;Node3 -->
<g id="edge2" class="edge"><title>Node2&#45;&gt;Node3</title>
<path fill="none" stroke="midnightblue" d="M477.99,-236.455C443.508,-227.524 387.972,-213.024 340.136,-200 270.21,-180.963 188.657,-157.786 143.564,-144.884"/>
<polygon fill="midnightblue" stroke="midnightblue" points="144.29,-141.452 133.713,-142.063 142.363,-148.181 144.29,-141.452"/>
</g>
<!-- Node4 -->
<g id="node4" class="node"><title>Node4</title>
<polygon fill="white" stroke="#bfbfbf" points="520.636,-62.5 520.636,-81.5 561.636,-81.5 561.636,-62.5 520.636,-62.5"/>
<text text-anchor="middle" x="541.136" y="-69.5" font-family="Helvetica,sans-Serif" font-size="10.00">string</text>
</g>
<!-- Node2&#45;&gt;Node4 -->
<g id="edge3" class="edge"><title>Node2&#45;&gt;Node4</title>
<path fill="none" stroke="midnightblue" d="M516.869,-236.479C522.406,-227.743 530.476,-213.553 534.136,-200 544.226,-162.641 543.782,-116.916 542.498,-91.7865"/>
<polygon fill="midnightblue" stroke="midnightblue" points="545.973,-91.2769 541.863,-81.5118 538.986,-91.7086 545.973,-91.2769"/>
</g>
<!-- Node5 -->
<g id="node5" class="node"><title>Node5</title>
<g id="a_node5"><a xlink:href="logging_8h.html" target="_top" xlink:title="common/logging.h">
<polygon fill="white" stroke="black" points="406.136,-62.5 406.136,-81.5 502.136,-81.5 502.136,-62.5 406.136,-62.5"/>
<text text-anchor="middle" x="454.136" y="-69.5" font-family="Helvetica,sans-Serif" font-size="10.00">common/logging.h</text>
</a>
</g>
</g>
<!-- Node2&#45;&gt;Node5 -->
<g id="edge4" class="edge"><title>Node2&#45;&gt;Node5</title>
<path fill="none" stroke="midnightblue" d="M512.153,-236.331C514.187,-215.806 517.209,-163.039 500.136,-124 494.104,-110.208 482.834,-97.6154 472.959,-88.3939"/>
<polygon fill="midnightblue" stroke="midnightblue" points="475.274,-85.7687 465.465,-81.7626 470.635,-91.0108 475.274,-85.7687"/>
</g>
<!-- Node8 -->
<g id="node8" class="node"><title>Node8</title>
<g id="a_node8"><a xlink:href="udf_8h.html" target="_top" xlink:title="udf/udf.h">
<polygon fill="white" stroke="black" points="47.6357,-180.5 47.6357,-199.5 102.636,-199.5 102.636,-180.5 47.6357,-180.5"/>
<text text-anchor="middle" x="75.1357" y="-187.5" font-family="Helvetica,sans-Serif" font-size="10.00">udf/udf.h</text>
</a>
</g>
</g>
<!-- Node2&#45;&gt;Node8 -->
<g id="edge7" class="edge"><title>Node2&#45;&gt;Node8</title>
<path fill="none" stroke="midnightblue" d="M455.916,-238.161C365.969,-227.021 190.123,-205.242 112.962,-195.685"/>
<polygon fill="midnightblue" stroke="midnightblue" points="113.102,-192.176 102.748,-194.42 112.242,-199.123 113.102,-192.176"/>
</g>
<!-- Node11 -->
<g id="node11" class="node"><title>Node11</title>
<g id="a_node11"><a xlink:href="hash-util_8h.html" target="_top" xlink:title="util/hash&#45;util.h">
<polygon fill="white" stroke="black" points="349.636,-180.5 349.636,-199.5 426.636,-199.5 426.636,-180.5 349.636,-180.5"/>
<text text-anchor="middle" x="388.136" y="-187.5" font-family="Helvetica,sans-Serif" font-size="10.00">util/hash&#45;util.h</text>
</a>
</g>
</g>
<!-- Node2&#45;&gt;Node11 -->
<g id="edge11" class="edge"><title>Node2&#45;&gt;Node11</title>
<path fill="none" stroke="midnightblue" d="M491.646,-236.444C471.493,-227.596 439.813,-213.687 416.805,-203.586"/>
<polygon fill="midnightblue" stroke="midnightblue" points="418.098,-200.332 407.534,-199.516 415.284,-206.741 418.098,-200.332"/>
</g>
<!-- Node16 -->
<g id="node16" class="node"><title>Node16</title>
<g id="a_node16"><a xlink:href="types_8h.html" target="_top" xlink:title="runtime/types.h">
<polygon fill="white" stroke="black" points="586.136,-124.5 586.136,-143.5 670.136,-143.5 670.136,-124.5 586.136,-124.5"/>
<text text-anchor="middle" x="628.136" y="-131.5" font-family="Helvetica,sans-Serif" font-size="10.00">runtime/types.h</text>
</a>
</g>
</g>
<!-- Node2&#45;&gt;Node16 -->
<g id="edge20" class="edge"><title>Node2&#45;&gt;Node16</title>
<path fill="none" stroke="midnightblue" d="M524.406,-236.48C537.226,-227.965 556.888,-214.137 572.136,-200 588.443,-184.881 604.776,-165.289 615.559,-151.584"/>
<polygon fill="midnightblue" stroke="midnightblue" points="618.436,-153.585 621.787,-143.534 612.899,-149.301 618.436,-153.585"/>
</g>
<!-- Node6 -->
<g id="node6" class="node"><title>Node6</title>
<polygon fill="white" stroke="#bfbfbf" points="367.636,-0.5 367.636,-19.5 444.636,-19.5 444.636,-0.5 367.636,-0.5"/>
<text text-anchor="middle" x="406.136" y="-7.5" font-family="Helvetica,sans-Serif" font-size="10.00">glog/logging.h</text>
</g>
<!-- Node5&#45;&gt;Node6 -->
<g id="edge5" class="edge"><title>Node5&#45;&gt;Node6</title>
<path fill="none" stroke="midnightblue" d="M447.259,-62.4035C439.987,-53.3143 428.34,-38.7559 419.295,-27.4489"/>
<polygon fill="midnightblue" stroke="midnightblue" points="421.98,-25.2029 413,-19.5806 416.514,-29.5757 421.98,-25.2029"/>
</g>
<!-- Node7 -->
<g id="node7" class="node"><title>Node7</title>
<polygon fill="white" stroke="#bfbfbf" points="463.136,-0.5 463.136,-19.5 543.136,-19.5 543.136,-0.5 463.136,-0.5"/>
<text text-anchor="middle" x="503.136" y="-7.5" font-family="Helvetica,sans-Serif" font-size="10.00">gflags/gflags.h</text>
</g>
<!-- Node5&#45;&gt;Node7 -->
<g id="edge6" class="edge"><title>Node5&#45;&gt;Node7</title>
<path fill="none" stroke="midnightblue" d="M461.156,-62.4035C468.579,-53.3143 480.468,-38.7559 489.702,-27.4489"/>
<polygon fill="midnightblue" stroke="midnightblue" points="492.514,-29.5398 496.128,-19.5806 487.092,-25.1121 492.514,-29.5398"/>
</g>
<!-- Node8&#45;&gt;Node3 -->
<g id="edge10" class="edge"><title>Node8&#45;&gt;Node3</title>
<path fill="none" stroke="midnightblue" d="M80.7501,-180.083C85.5032,-172.534 92.4538,-161.495 98.2874,-152.23"/>
<polygon fill="midnightblue" stroke="midnightblue" points="101.259,-154.078 103.626,-143.751 95.3358,-150.349 101.259,-154.078"/>
</g>
<!-- Node9 -->
<g id="node9" class="node"><title>Node9</title>
<polygon fill="white" stroke="#bfbfbf" points="14.1357,-124.5 14.1357,-143.5 66.1357,-143.5 66.1357,-124.5 14.1357,-124.5"/>
<text text-anchor="middle" x="40.1357" y="-131.5" font-family="Helvetica,sans-Serif" font-size="10.00">assert.h</text>
</g>
<!-- Node8&#45;&gt;Node9 -->
<g id="edge8" class="edge"><title>Node8&#45;&gt;Node9</title>
<path fill="none" stroke="midnightblue" d="M69.3562,-180.083C64.4634,-172.534 57.3083,-161.495 51.3032,-152.23"/>
<polygon fill="midnightblue" stroke="midnightblue" points="54.1838,-150.239 45.8077,-143.751 48.3097,-154.046 54.1838,-150.239"/>
</g>
<!-- Node10 -->
<g id="node10" class="node"><title>Node10</title>
<polygon fill="white" stroke="#bfbfbf" points="268.136,-62.5 268.136,-81.5 360.136,-81.5 360.136,-62.5 268.136,-62.5"/>
<text text-anchor="middle" x="314.136" y="-69.5" font-family="Helvetica,sans-Serif" font-size="10.00">boost/cstdint.hpp</text>
</g>
<!-- Node8&#45;&gt;Node10 -->
<g id="edge9" class="edge"><title>Node8&#45;&gt;Node10</title>
<path fill="none" stroke="midnightblue" d="M53.3497,-180.429C26.3802,-168.6 -13.8106,-146.203 5.13574,-124 38.1466,-85.3146 181,-96.5226 231.136,-88 239.841,-86.5201 249.051,-84.9051 258.045,-83.3008"/>
<polygon fill="midnightblue" stroke="midnightblue" points="258.844,-86.7133 268.068,-81.5016 257.607,-79.8234 258.844,-86.7133"/>
</g>
<!-- Node11&#45;&gt;Node5 -->
<g id="edge12" class="edge"><title>Node11&#45;&gt;Node5</title>
<path fill="none" stroke="midnightblue" d="M389.412,-180.086C391.559,-167.074 396.722,-142.423 407.136,-124 414.71,-110.601 426.438,-97.8674 436.284,-88.4753"/>
<polygon fill="midnightblue" stroke="midnightblue" points="438.656,-91.0487 443.661,-81.7105 433.925,-85.8894 438.656,-91.0487"/>
</g>
<!-- Node12 -->
<g id="node12" class="node"><title>Node12</title>
<g id="a_node12"><a xlink:href="compiler-util_8h.html" target="_top" xlink:title="common/compiler&#45;util.h">
<polygon fill="white" stroke="black" points="242.136,-124.5 242.136,-143.5 360.136,-143.5 360.136,-124.5 242.136,-124.5"/>
<text text-anchor="middle" x="301.136" y="-131.5" font-family="Helvetica,sans-Serif" font-size="10.00">common/compiler&#45;util.h</text>
</a>
</g>
</g>
<!-- Node11&#45;&gt;Node12 -->
<g id="edge13" class="edge"><title>Node11&#45;&gt;Node12</title>
<path fill="none" stroke="midnightblue" d="M374.158,-180.324C360.586,-171.9 339.756,-158.971 323.811,-149.074"/>
<polygon fill="midnightblue" stroke="midnightblue" points="325.421,-145.954 315.079,-143.655 321.73,-151.902 325.421,-145.954"/>
</g>
<!-- Node13 -->
<g id="node13" class="node"><title>Node13</title>
<g id="a_node13"><a xlink:href="cpu-info_8h.html" target="_top" xlink:title="util/cpu&#45;info.h">
<polygon fill="white" stroke="black" points="416.636,-124.5 416.636,-143.5 491.636,-143.5 491.636,-124.5 416.636,-124.5"/>
<text text-anchor="middle" x="454.136" y="-131.5" font-family="Helvetica,sans-Serif" font-size="10.00">util/cpu&#45;info.h</text>
</a>
</g>
</g>
<!-- Node11&#45;&gt;Node13 -->
<g id="edge14" class="edge"><title>Node11&#45;&gt;Node13</title>
<path fill="none" stroke="midnightblue" d="M398.74,-180.324C408.592,-172.263 423.487,-160.077 435.351,-150.369"/>
<polygon fill="midnightblue" stroke="midnightblue" points="437.816,-152.875 443.339,-143.834 433.383,-147.457 437.816,-152.875"/>
</g>
<!-- Node14 -->
<g id="node14" class="node"><title>Node14</title>
<g id="a_node14"><a xlink:href="sse-util_8h.html" target="_top" xlink:title="util/sse&#45;util.h">
<polygon fill="white" stroke="black" points="152.136,-124.5 152.136,-143.5 224.136,-143.5 224.136,-124.5 152.136,-124.5"/>
<text text-anchor="middle" x="188.136" y="-131.5" font-family="Helvetica,sans-Serif" font-size="10.00">util/sse&#45;util.h</text>
</a>
</g>
</g>
<!-- Node11&#45;&gt;Node14 -->
<g id="edge18" class="edge"><title>Node11&#45;&gt;Node14</title>
<path fill="none" stroke="midnightblue" d="M356.445,-180.444C322.068,-171.162 267.059,-156.309 229.347,-146.127"/>
<polygon fill="midnightblue" stroke="midnightblue" points="230.245,-142.744 219.678,-143.516 228.42,-149.502 230.245,-142.744"/>
</g>
<!-- Node13&#45;&gt;Node4 -->
<g id="edge15" class="edge"><title>Node13&#45;&gt;Node4</title>
<path fill="none" stroke="midnightblue" d="M466.601,-124.403C480.555,-114.78 503.401,-99.0242 520.127,-87.4891"/>
<polygon fill="midnightblue" stroke="midnightblue" points="522.449,-90.1392 528.694,-81.5806 518.475,-84.3767 522.449,-90.1392"/>
</g>
<!-- Node13&#45;&gt;Node5 -->
<g id="edge17" class="edge"><title>Node13&#45;&gt;Node5</title>
<path fill="none" stroke="midnightblue" d="M454.136,-124.403C454.136,-115.938 454.136,-102.728 454.136,-91.8199"/>
<polygon fill="midnightblue" stroke="midnightblue" points="457.636,-91.5806 454.136,-81.5806 450.636,-91.5806 457.636,-91.5806"/>
</g>
<!-- Node13&#45;&gt;Node10 -->
<g id="edge16" class="edge"><title>Node13&#45;&gt;Node10</title>
<path fill="none" stroke="midnightblue" d="M434.077,-124.403C410.374,-114.245 370.73,-97.2547 343.553,-85.6074"/>
<polygon fill="midnightblue" stroke="midnightblue" points="344.727,-82.3028 334.157,-81.5806 341.97,-88.7369 344.727,-82.3028"/>
</g>
<!-- Node15 -->
<g id="node15" class="node"><title>Node15</title>
<polygon fill="white" stroke="#bfbfbf" points="154.136,-62.5 154.136,-81.5 222.136,-81.5 222.136,-62.5 154.136,-62.5"/>
<text text-anchor="middle" x="188.136" y="-69.5" font-family="Helvetica,sans-Serif" font-size="10.00">emmintrin.h</text>
</g>
<!-- Node14&#45;&gt;Node15 -->
<g id="edge19" class="edge"><title>Node14&#45;&gt;Node15</title>
<path fill="none" stroke="midnightblue" d="M188.136,-124.403C188.136,-115.938 188.136,-102.728 188.136,-91.8199"/>
<polygon fill="midnightblue" stroke="midnightblue" points="191.636,-91.5806 188.136,-81.5806 184.636,-91.5806 191.636,-91.5806"/>
</g>
<!-- Node16&#45;&gt;Node4 -->
<g id="edge21" class="edge"><title>Node16&#45;&gt;Node4</title>
<path fill="none" stroke="midnightblue" d="M615.671,-124.403C601.716,-114.78 578.871,-99.0242 562.145,-87.4891"/>
<polygon fill="midnightblue" stroke="midnightblue" points="563.797,-84.3767 553.578,-81.5806 559.823,-90.1392 563.797,-84.3767"/>
</g>
<!-- Node16&#45;&gt;Node5 -->
<g id="edge22" class="edge"><title>Node16&#45;&gt;Node5</title>
<path fill="none" stroke="midnightblue" d="M603.206,-124.403C573.1,-114.022 522.304,-96.5062 488.498,-84.849"/>
<polygon fill="midnightblue" stroke="midnightblue" points="489.614,-81.5318 479.019,-81.5806 487.332,-88.1494 489.614,-81.5318"/>
</g>
<!-- Node17 -->
<g id="node17" class="node"><title>Node17</title>
<polygon fill="white" stroke="#bfbfbf" points="706.636,-62.5 706.636,-81.5 825.636,-81.5 825.636,-62.5 706.636,-62.5"/>
<text text-anchor="middle" x="766.136" y="-69.5" font-family="Helvetica,sans-Serif" font-size="10.00">gen&#45;cpp/Types_types.h</text>
</g>
<!-- Node16&#45;&gt;Node17 -->
<g id="edge23" class="edge"><title>Node16&#45;&gt;Node17</title>
<path fill="none" stroke="midnightblue" d="M647.908,-124.403C671.272,-114.245 710.35,-97.2547 737.139,-85.6074"/>
<polygon fill="midnightblue" stroke="midnightblue" points="738.625,-88.7777 746.4,-81.5806 735.834,-82.3582 738.625,-88.7777"/>
</g>
<!-- Node18 -->
<g id="node18" class="node"><title>Node18</title>
<polygon fill="white" stroke="#bfbfbf" points="579.636,-57 579.636,-87 688.636,-87 688.636,-57 579.636,-57"/>
<text text-anchor="start" x="587.636" y="-75" font-family="Helvetica,sans-Serif" font-size="10.00">gen&#45;cpp/TCLIService</text>
<text text-anchor="middle" x="634.136" y="-64" font-family="Helvetica,sans-Serif" font-size="10.00">_types.h</text>
</g>
<!-- Node16&#45;&gt;Node18 -->
<g id="edge24" class="edge"><title>Node16&#45;&gt;Node18</title>
<path fill="none" stroke="midnightblue" d="M628.995,-124.403C629.702,-117.341 630.738,-106.975 631.696,-97.399"/>
<polygon fill="midnightblue" stroke="midnightblue" points="635.209,-97.4395 632.722,-87.1408 628.244,-96.7429 635.209,-97.4395"/>
</g>
<!-- Node21 -->
<g id="node21" class="node"><title>Node21</title>
<polygon fill="white" stroke="#bfbfbf" points="649.136,-180.5 649.136,-199.5 743.136,-199.5 743.136,-180.5 649.136,-180.5"/>
<text text-anchor="middle" x="696.136" y="-187.5" font-family="Helvetica,sans-Serif" font-size="10.00">boost/version.hpp</text>
</g>
<!-- Node20&#45;&gt;Node21 -->
<g id="edge27" class="edge"><title>Node20&#45;&gt;Node21</title>
<path fill="none" stroke="midnightblue" d="M696.136,-236.083C696.136,-229.006 696.136,-218.861 696.136,-209.986"/>
<polygon fill="midnightblue" stroke="midnightblue" points="699.636,-209.751 696.136,-199.751 692.636,-209.751 699.636,-209.751"/>
</g>
</g>
</svg>
