<?xml version="1.0" encoding="UTF-8" standalone="no"?>
<!DOCTYPE svg PUBLIC "-//W3C//DTD SVG 1.1//EN"
 "http://www.w3.org/Graphics/SVG/1.1/DTD/svg11.dtd">
<!-- Generated by graphviz version 2.36.0 (20140111.2315)
 -->
<!-- Title: be/src/experiments/string&#45;search&#45;sse.h Pages: 1 -->
<svg width="261pt" height="108pt"
 viewBox="0.00 0.00 261.00 108.00" xmlns="http://www.w3.org/2000/svg" xmlns:xlink="http://www.w3.org/1999/xlink">
<g id="graph0" class="graph" transform="scale(1 1) rotate(0) translate(4 104)">
<title>be/src/experiments/string&#45;search&#45;sse.h</title>
<polygon fill="white" stroke="none" points="-4,4 -4,-104 257,-104 257,4 -4,4"/>
<!-- Node1 -->
<g id="node1" class="node"><title>Node1</title>
<polygon fill="#bfbfbf" stroke="black" points="79.5,-69 79.5,-99 182.5,-99 182.5,-69 79.5,-69"/>
<text text-anchor="start" x="87.5" y="-87" font-family="Helvetica,sans-Serif" font-size="10.00">be/src/experiments</text>
<text text-anchor="middle" x="131" y="-76" font-family="Helvetica,sans-Serif" font-size="10.00">/string&#45;search&#45;sse.h</text>
</g>
<!-- Node2 -->
<g id="node2" class="node"><title>Node2</title>
<g id="a_node2"><a xlink:href="string-search-benchmark_8cc.html" target="_top" xlink:title="be/src/benchmarks/string\l&#45;search&#45;benchmark.cc">
<polygon fill="white" stroke="black" points="-0.5,-1 -0.5,-31 126.5,-31 126.5,-1 -0.5,-1"/>
<text text-anchor="start" x="7.5" y="-19" font-family="Helvetica,sans-Serif" font-size="10.00">be/src/benchmarks/string</text>
<text text-anchor="middle" x="63" y="-8" font-family="Helvetica,sans-Serif" font-size="10.00">&#45;search&#45;benchmark.cc</text>
</a>
</g>
</g>
<!-- Node1&#45;&gt;Node2 -->
<g id="edge1" class="edge"><title>Node1&#45;&gt;Node2</title>
<path fill="none" stroke="midnightblue" d="M108.834,-61.4855C98.6333,-51.5852 86.8095,-40.1092 77.7262,-31.2931"/>
<polygon fill="midnightblue" stroke="midnightblue" points="106.632,-64.2257 116.245,-68.679 111.507,-59.2027 106.632,-64.2257"/>
</g>
<!-- Node3 -->
<g id="node3" class="node"><title>Node3</title>
<g id="a_node3"><a xlink:href="string-search-test_8cc.html" target="_top" xlink:title="be/src/experiments\l/string&#45;search&#45;test.cc">
<polygon fill="white" stroke="black" points="144.5,-1 144.5,-31 253.5,-31 253.5,-1 144.5,-1"/>
<text text-anchor="start" x="152.5" y="-19" font-family="Helvetica,sans-Serif" font-size="10.00">be/src/experiments</text>
<text text-anchor="middle" x="199" y="-8" font-family="Helvetica,sans-Serif" font-size="10.00">/string&#45;search&#45;test.cc</text>
</a>
</g>
</g>
<!-- Node1&#45;&gt;Node3 -->
<g id="edge2" class="edge"><title>Node1&#45;&gt;Node3</title>
<path fill="none" stroke="midnightblue" d="M153.166,-61.4855C163.367,-51.5852 175.191,-40.1092 184.274,-31.2931"/>
<polygon fill="midnightblue" stroke="midnightblue" points="150.493,-59.2027 145.755,-68.679 155.368,-64.2257 150.493,-59.2027"/>
</g>
</g>
</svg>
