<?xml version="1.0" encoding="UTF-8" standalone="no"?>
<!DOCTYPE svg PUBLIC "-//W3C//DTD SVG 1.1//EN"
 "http://www.w3.org/Graphics/SVG/1.1/DTD/svg11.dtd">
<!-- Generated by graphviz version 2.36.0 (20140111.2315)
 -->
<!-- Title: be/src/benchmarks/string&#45;compare&#45;benchmark.cc Pages: 1 -->
<!--zoomable 332 -->
<svg id="main" version="1.1" xmlns="http://www.w3.org/2000/svg" xmlns:xlink="http://www.w3.org/1999/xlink" xml:space="preserve" onload="init(evt)">
<style type="text/css"><![CDATA[
.edge:hover path { stroke: red; }
.edge:hover polygon { stroke: red; fill: red; }
]]></style>
<script type="text/javascript"><![CDATA[
var edges = document.getElementsByTagName('g');
if (edges && edges.length) {
  for (var i=0;i<edges.length;i++) {
    if (edges[i].id.substr(0,4)=='edge') {
      edges[i].setAttribute('class','edge');
    }
  }
}
]]></script>
        <defs>
                <circle id="rim" cx="0" cy="0" r="7"/>
                <circle id="rim2" cx="0" cy="0" r="3.5"/>
                <g id="zoomPlus">
                        <use xlink:href="#rim" fill="#404040">
                                <set attributeName="fill" to="#808080" begin="zoomplus.mouseover" end="zoomplus.mouseout"/>
                        </use>
                        <path d="M-4,0h8M0,-4v8" fill="none" stroke="white" stroke-width="1.5" pointer-events="none"/>
                </g>
                <g id="zoomMin">
                        <use xlink:href="#rim" fill="#404040">
                                <set attributeName="fill" to="#808080" begin="zoomminus.mouseover" end="zoomminus.mouseout"/>
                        </use>
                        <path d="M-4,0h8" fill="none" stroke="white" stroke-width="1.5" pointer-events="none"/>
                </g>
                <g id="dirArrow">
                        <path fill="none" stroke="white" stroke-width="1.5" d="M0,-3.0v7 M-2.5,-0.5L0,-3.0L2.5,-0.5"/>
                </g>
               <g id="resetDef">
                       <use xlink:href="#rim2" fill="#404040">
                               <set attributeName="fill" to="#808080" begin="reset.mouseover" end="reset.mouseout"/>
                       </use>
               </g>
        </defs>

<script type="text/javascript">
var viewWidth = 892;
var viewHeight = 332;
var sectionId = 'dynsection-0';
</script>
<script xlink:href="svgpan.js"/>
<svg id="graph" class="graph">
<g id="viewport">
<title>be/src/benchmarks/string&#45;compare&#45;benchmark.cc</title>
<polygon fill="white" stroke="none" points="-4,4 -4,-328 888,-328 888,4 -4,4"/>
<!-- Node1 -->
<g id="node1" class="node"><title>Node1</title>
<polygon fill="#bfbfbf" stroke="black" points="504.5,-293 504.5,-323 631.5,-323 631.5,-293 504.5,-293"/>
<text text-anchor="start" x="512.5" y="-311" font-family="Helvetica,sans-Serif" font-size="10.00">be/src/benchmarks/string</text>
<text text-anchor="middle" x="568" y="-300" font-family="Helvetica,sans-Serif" font-size="10.00">&#45;compare&#45;benchmark.cc</text>
</g>
<!-- Node2 -->
<g id="node2" class="node"><title>Node2</title>
<polygon fill="white" stroke="#bfbfbf" points="264,-236.5 264,-255.5 312,-255.5 312,-236.5 264,-236.5"/>
<text text-anchor="middle" x="288" y="-243.5" font-family="Helvetica,sans-Serif" font-size="10.00">stdlib.h</text>
</g>
<!-- Node1&#45;&gt;Node2 -->
<g id="edge1" class="edge"><title>Node1&#45;&gt;Node2</title>
<path fill="none" stroke="midnightblue" d="M504.301,-294.986C456.622,-285.732 389.599,-272.174 322.07,-256.144"/>
<polygon fill="midnightblue" stroke="midnightblue" points="322.646,-252.683 312.106,-253.762 321.018,-259.491 322.646,-252.683"/>
</g>
<!-- Node3 -->
<g id="node3" class="node"><title>Node3</title>
<polygon fill="white" stroke="#bfbfbf" points="330,-236.5 330,-255.5 376,-255.5 376,-236.5 330,-236.5"/>
<text text-anchor="middle" x="353" y="-243.5" font-family="Helvetica,sans-Serif" font-size="10.00">stdio.h</text>
</g>
<!-- Node1&#45;&gt;Node3 -->
<g id="edge2" class="edge"><title>Node1&#45;&gt;Node3</title>
<path fill="none" stroke="midnightblue" d="M517.502,-292.962C482.974,-283.355 435.902,-270.242 385.794,-256.218"/>
<polygon fill="midnightblue" stroke="midnightblue" points="386.644,-252.821 376.07,-253.496 384.756,-259.562 386.644,-252.821"/>
</g>
<!-- Node4 -->
<g id="node4" class="node"><title>Node4</title>
<polygon fill="white" stroke="#bfbfbf" points="394,-236.5 394,-255.5 448,-255.5 448,-236.5 394,-236.5"/>
<text text-anchor="middle" x="421" y="-243.5" font-family="Helvetica,sans-Serif" font-size="10.00">iostream</text>
</g>
<!-- Node1&#45;&gt;Node4 -->
<g id="edge3" class="edge"><title>Node1&#45;&gt;Node4</title>
<path fill="none" stroke="midnightblue" d="M533.535,-292.933C508.624,-282.765 475.285,-269.157 451.371,-259.396"/>
<polygon fill="midnightblue" stroke="midnightblue" points="452.651,-256.139 442.07,-255.6 450.006,-262.62 452.651,-256.139"/>
</g>
<!-- Node5 -->
<g id="node5" class="node"><title>Node5</title>
<g id="a_node5"><a xlink:href="string-value_8h.html" target="_top" xlink:title="runtime/string&#45;value.h">
<polygon fill="white" stroke="black" points="466,-236.5 466,-255.5 576,-255.5 576,-236.5 466,-236.5"/>
<text text-anchor="middle" x="521" y="-243.5" font-family="Helvetica,sans-Serif" font-size="10.00">runtime/string&#45;value.h</text>
</a>
</g>
</g>
<!-- Node1&#45;&gt;Node5 -->
<g id="edge4" class="edge"><title>Node1&#45;&gt;Node5</title>
<path fill="none" stroke="midnightblue" d="M556.862,-292.781C550.032,-284.062 541.255,-272.857 534.094,-263.715"/>
<polygon fill="midnightblue" stroke="midnightblue" points="536.761,-261.445 527.839,-255.731 531.25,-265.761 536.761,-261.445"/>
</g>
<!-- Node16 -->
<g id="node16" class="node"><title>Node16</title>
<g id="a_node16"><a xlink:href="cpu-info_8h.html" target="_top" xlink:title="util/cpu&#45;info.h">
<polygon fill="white" stroke="black" points="573.5,-124.5 573.5,-143.5 648.5,-143.5 648.5,-124.5 573.5,-124.5"/>
<text text-anchor="middle" x="611" y="-131.5" font-family="Helvetica,sans-Serif" font-size="10.00">util/cpu&#45;info.h</text>
</a>
</g>
</g>
<!-- Node1&#45;&gt;Node16 -->
<g id="edge31" class="edge"><title>Node1&#45;&gt;Node16</title>
<path fill="none" stroke="midnightblue" d="M573.187,-292.839C576.795,-282.675 581.556,-268.604 585,-256 594.782,-220.198 603.2,-177.621 607.642,-153.713"/>
<polygon fill="midnightblue" stroke="midnightblue" points="611.138,-154.053 609.492,-143.587 604.252,-152.795 611.138,-154.053"/>
</g>
<!-- Node17 -->
<g id="node17" class="node"><title>Node17</title>
<g id="a_node17"><a xlink:href="sse-util_8h.html" target="_top" xlink:title="util/sse&#45;util.h">
<polygon fill="white" stroke="black" points="743,-124.5 743,-143.5 815,-143.5 815,-124.5 743,-124.5"/>
<text text-anchor="middle" x="779" y="-131.5" font-family="Helvetica,sans-Serif" font-size="10.00">util/sse&#45;util.h</text>
</a>
</g>
</g>
<!-- Node1&#45;&gt;Node17 -->
<g id="edge32" class="edge"><title>Node1&#45;&gt;Node17</title>
<path fill="none" stroke="midnightblue" d="M631.792,-302.766C668.145,-297.137 712.075,-284.419 741,-256 769.047,-228.443 776.455,-180.454 778.371,-153.947"/>
<polygon fill="midnightblue" stroke="midnightblue" points="781.879,-153.897 778.91,-143.727 774.888,-153.529 781.879,-153.897"/>
</g>
<!-- Node22 -->
<g id="node22" class="node"><title>Node22</title>
<g id="a_node22"><a xlink:href="benchmark_8h.html" target="_top" xlink:title="util/benchmark.h">
<polygon fill="white" stroke="black" points="643.5,-236.5 643.5,-255.5 732.5,-255.5 732.5,-236.5 643.5,-236.5"/>
<text text-anchor="middle" x="688" y="-243.5" font-family="Helvetica,sans-Serif" font-size="10.00">util/benchmark.h</text>
</a>
</g>
</g>
<!-- Node1&#45;&gt;Node22 -->
<g id="edge28" class="edge"><title>Node1&#45;&gt;Node22</title>
<path fill="none" stroke="midnightblue" d="M596.135,-292.933C615.928,-283.036 642.239,-269.88 661.63,-260.185"/>
<polygon fill="midnightblue" stroke="midnightblue" points="663.421,-263.203 670.8,-255.6 660.29,-256.942 663.421,-263.203"/>
</g>
<!-- Node24 -->
<g id="node24" class="node"><title>Node24</title>
<g id="a_node24"><a xlink:href="names_8h.html" target="_top" xlink:title="common/names.h">
<polygon fill="white" stroke="black" points="789.5,-236.5 789.5,-255.5 884.5,-255.5 884.5,-236.5 789.5,-236.5"/>
<text text-anchor="middle" x="837" y="-243.5" font-family="Helvetica,sans-Serif" font-size="10.00">common/names.h</text>
</a>
</g>
</g>
<!-- Node1&#45;&gt;Node24 -->
<g id="edge33" class="edge"><title>Node1&#45;&gt;Node24</title>
<path fill="none" stroke="midnightblue" d="M631.069,-292.933C679.331,-282.168 744.88,-267.547 788.947,-257.718"/>
<polygon fill="midnightblue" stroke="midnightblue" points="789.837,-261.106 798.835,-255.513 788.313,-254.274 789.837,-261.106"/>
</g>
<!-- Node6 -->
<g id="node6" class="node"><title>Node6</title>
<polygon fill="white" stroke="#bfbfbf" points="223.5,-124.5 223.5,-143.5 272.5,-143.5 272.5,-124.5 223.5,-124.5"/>
<text text-anchor="middle" x="248" y="-131.5" font-family="Helvetica,sans-Serif" font-size="10.00">string.h</text>
</g>
<!-- Node5&#45;&gt;Node6 -->
<g id="edge5" class="edge"><title>Node5&#45;&gt;Node6</title>
<path fill="none" stroke="midnightblue" d="M465.919,-237.364C411.805,-229.165 333.597,-215.246 307,-200 286.634,-188.326 269.416,-167.168 258.931,-152.166"/>
<polygon fill="midnightblue" stroke="midnightblue" points="261.776,-150.123 253.305,-143.76 255.959,-154.017 261.776,-150.123"/>
</g>
<!-- Node7 -->
<g id="node7" class="node"><title>Node7</title>
<polygon fill="white" stroke="#bfbfbf" points="623.5,-62.5 623.5,-81.5 664.5,-81.5 664.5,-62.5 623.5,-62.5"/>
<text text-anchor="middle" x="644" y="-69.5" font-family="Helvetica,sans-Serif" font-size="10.00">string</text>
</g>
<!-- Node5&#45;&gt;Node7 -->
<g id="edge6" class="edge"><title>Node5&#45;&gt;Node7</title>
<path fill="none" stroke="midnightblue" d="M542.756,-236.433C574.679,-222.524 633.015,-191.687 657,-144 665.418,-127.263 659.57,-105.861 653.248,-90.95"/>
<polygon fill="midnightblue" stroke="midnightblue" points="656.375,-89.3739 648.965,-81.8013 650.035,-92.3419 656.375,-89.3739"/>
</g>
<!-- Node8 -->
<g id="node8" class="node"><title>Node8</title>
<g id="a_node8"><a xlink:href="logging_8h.html" target="_top" xlink:title="common/logging.h">
<polygon fill="white" stroke="black" points="323,-62.5 323,-81.5 419,-81.5 419,-62.5 323,-62.5"/>
<text text-anchor="middle" x="371" y="-69.5" font-family="Helvetica,sans-Serif" font-size="10.00">common/logging.h</text>
</a>
</g>
</g>
<!-- Node5&#45;&gt;Node8 -->
<g id="edge7" class="edge"><title>Node5&#45;&gt;Node8</title>
<path fill="none" stroke="midnightblue" d="M467.007,-236.491C400.927,-225.839 295.711,-208.021 279,-200 244.623,-183.5 229.89,-178.663 214,-144 194.092,-100.57 260.127,-83.6952 312.621,-77.1451"/>
<polygon fill="midnightblue" stroke="midnightblue" points="313.04,-80.6202 322.575,-76.003 312.242,-73.6658 313.04,-80.6202"/>
</g>
<!-- Node11 -->
<g id="node11" class="node"><title>Node11</title>
<g id="a_node11"><a xlink:href="udf_8h.html" target="_top" xlink:title="udf/udf.h">
<polygon fill="white" stroke="black" points="316.5,-180.5 316.5,-199.5 371.5,-199.5 371.5,-180.5 316.5,-180.5"/>
<text text-anchor="middle" x="344" y="-187.5" font-family="Helvetica,sans-Serif" font-size="10.00">udf/udf.h</text>
</a>
</g>
</g>
<!-- Node5&#45;&gt;Node11 -->
<g id="edge10" class="edge"><title>Node5&#45;&gt;Node11</title>
<path fill="none" stroke="midnightblue" d="M492.954,-236.444C462.83,-227.253 414.805,-212.602 381.464,-202.43"/>
<polygon fill="midnightblue" stroke="midnightblue" points="382.21,-198.998 371.624,-199.428 380.167,-205.693 382.21,-198.998"/>
</g>
<!-- Node14 -->
<g id="node14" class="node"><title>Node14</title>
<g id="a_node14"><a xlink:href="hash-util_8h.html" target="_top" xlink:title="util/hash&#45;util.h">
<polygon fill="white" stroke="black" points="471.5,-180.5 471.5,-199.5 548.5,-199.5 548.5,-180.5 471.5,-180.5"/>
<text text-anchor="middle" x="510" y="-187.5" font-family="Helvetica,sans-Serif" font-size="10.00">util/hash&#45;util.h</text>
</a>
</g>
</g>
<!-- Node5&#45;&gt;Node14 -->
<g id="edge14" class="edge"><title>Node5&#45;&gt;Node14</title>
<path fill="none" stroke="midnightblue" d="M519.184,-236.083C517.726,-228.927 515.629,-218.635 513.807,-209.691"/>
<polygon fill="midnightblue" stroke="midnightblue" points="517.208,-208.851 511.783,-199.751 510.349,-210.248 517.208,-208.851"/>
</g>
<!-- Node19 -->
<g id="node19" class="node"><title>Node19</title>
<g id="a_node19"><a xlink:href="types_8h.html" target="_top" xlink:title="runtime/types.h">
<polygon fill="white" stroke="black" points="83,-124.5 83,-143.5 167,-143.5 167,-124.5 83,-124.5"/>
<text text-anchor="middle" x="125" y="-131.5" font-family="Helvetica,sans-Serif" font-size="10.00">runtime/types.h</text>
</a>
</g>
</g>
<!-- Node5&#45;&gt;Node19 -->
<g id="edge23" class="edge"><title>Node5&#45;&gt;Node19</title>
<path fill="none" stroke="midnightblue" d="M465.847,-237.208C462.855,-236.797 459.891,-236.392 457,-236 334.415,-219.386 289.876,-258.728 181,-200 160.783,-189.095 144.601,-167.739 134.93,-152.482"/>
<polygon fill="midnightblue" stroke="midnightblue" points="137.688,-150.277 129.538,-143.508 131.688,-153.883 137.688,-150.277"/>
</g>
<!-- Node9 -->
<g id="node9" class="node"><title>Node9</title>
<polygon fill="white" stroke="#bfbfbf" points="284.5,-0.5 284.5,-19.5 361.5,-19.5 361.5,-0.5 284.5,-0.5"/>
<text text-anchor="middle" x="323" y="-7.5" font-family="Helvetica,sans-Serif" font-size="10.00">glog/logging.h</text>
</g>
<!-- Node8&#45;&gt;Node9 -->
<g id="edge8" class="edge"><title>Node8&#45;&gt;Node9</title>
<path fill="none" stroke="midnightblue" d="M364.123,-62.4035C356.851,-53.3143 345.205,-38.7559 336.159,-27.4489"/>
<polygon fill="midnightblue" stroke="midnightblue" points="338.845,-25.2029 329.864,-19.5806 333.378,-29.5757 338.845,-25.2029"/>
</g>
<!-- Node10 -->
<g id="node10" class="node"><title>Node10</title>
<polygon fill="white" stroke="#bfbfbf" points="380,-0.5 380,-19.5 460,-19.5 460,-0.5 380,-0.5"/>
<text text-anchor="middle" x="420" y="-7.5" font-family="Helvetica,sans-Serif" font-size="10.00">gflags/gflags.h</text>
</g>
<!-- Node8&#45;&gt;Node10 -->
<g id="edge9" class="edge"><title>Node8&#45;&gt;Node10</title>
<path fill="none" stroke="midnightblue" d="M378.021,-62.4035C385.443,-53.3143 397.333,-38.7559 406.567,-27.4489"/>
<polygon fill="midnightblue" stroke="midnightblue" points="409.378,-29.5398 412.993,-19.5806 403.956,-25.1121 409.378,-29.5398"/>
</g>
<!-- Node11&#45;&gt;Node6 -->
<g id="edge13" class="edge"><title>Node11&#45;&gt;Node6</title>
<path fill="none" stroke="midnightblue" d="M328.576,-180.324C313.46,-171.822 290.185,-158.729 272.529,-148.797"/>
<polygon fill="midnightblue" stroke="midnightblue" points="273.817,-145.507 263.386,-143.655 270.386,-151.608 273.817,-145.507"/>
</g>
<!-- Node12 -->
<g id="node12" class="node"><title>Node12</title>
<polygon fill="white" stroke="#bfbfbf" points="291,-124.5 291,-143.5 343,-143.5 343,-124.5 291,-124.5"/>
<text text-anchor="middle" x="317" y="-131.5" font-family="Helvetica,sans-Serif" font-size="10.00">assert.h</text>
</g>
<!-- Node11&#45;&gt;Node12 -->
<g id="edge11" class="edge"><title>Node11&#45;&gt;Node12</title>
<path fill="none" stroke="midnightblue" d="M339.541,-180.083C335.846,-172.691 330.477,-161.953 325.906,-152.811"/>
<polygon fill="midnightblue" stroke="midnightblue" points="328.978,-151.13 321.376,-143.751 322.717,-154.261 328.978,-151.13"/>
</g>
<!-- Node13 -->
<g id="node13" class="node"><title>Node13</title>
<polygon fill="white" stroke="#bfbfbf" points="488,-62.5 488,-81.5 580,-81.5 580,-62.5 488,-62.5"/>
<text text-anchor="middle" x="534" y="-69.5" font-family="Helvetica,sans-Serif" font-size="10.00">boost/cstdint.hpp</text>
</g>
<!-- Node11&#45;&gt;Node13 -->
<g id="edge12" class="edge"><title>Node11&#45;&gt;Node13</title>
<path fill="none" stroke="midnightblue" d="M348.055,-180.109C354.825,-166.212 369.714,-139.347 390,-124 416.015,-104.319 450.273,-91.7771 478.848,-84.0572"/>
<polygon fill="midnightblue" stroke="midnightblue" points="479.883,-87.405 488.695,-81.5238 478.139,-80.6257 479.883,-87.405"/>
</g>
<!-- Node14&#45;&gt;Node8 -->
<g id="edge15" class="edge"><title>Node14&#45;&gt;Node8</title>
<path fill="none" stroke="midnightblue" d="M516.346,-180.141C525.082,-166.759 538.401,-141.135 526,-124 504.1,-93.7389 463.638,-81.1209 429.546,-75.9992"/>
<polygon fill="midnightblue" stroke="midnightblue" points="429.569,-72.4722 419.198,-74.6392 428.657,-79.4125 429.569,-72.4722"/>
</g>
<!-- Node15 -->
<g id="node15" class="node"><title>Node15</title>
<g id="a_node15"><a xlink:href="compiler-util_8h.html" target="_top" xlink:title="common/compiler&#45;util.h">
<polygon fill="white" stroke="black" points="399,-124.5 399,-143.5 517,-143.5 517,-124.5 399,-124.5"/>
<text text-anchor="middle" x="458" y="-131.5" font-family="Helvetica,sans-Serif" font-size="10.00">common/compiler&#45;util.h</text>
</a>
</g>
</g>
<!-- Node14&#45;&gt;Node15 -->
<g id="edge16" class="edge"><title>Node14&#45;&gt;Node15</title>
<path fill="none" stroke="midnightblue" d="M501.413,-180.083C493.841,-172.22 482.622,-160.569 473.486,-151.081"/>
<polygon fill="midnightblue" stroke="midnightblue" points="475.885,-148.527 466.427,-143.751 470.842,-153.382 475.885,-148.527"/>
</g>
<!-- Node14&#45;&gt;Node16 -->
<g id="edge17" class="edge"><title>Node14&#45;&gt;Node16</title>
<path fill="none" stroke="midnightblue" d="M526.227,-180.324C542.351,-171.703 567.3,-158.364 585.964,-148.386"/>
<polygon fill="midnightblue" stroke="midnightblue" points="587.644,-151.456 594.813,-143.655 584.344,-145.283 587.644,-151.456"/>
</g>
<!-- Node14&#45;&gt;Node17 -->
<g id="edge21" class="edge"><title>Node14&#45;&gt;Node17</title>
<path fill="none" stroke="midnightblue" d="M548.541,-181.263C597.163,-171.503 680.694,-154.734 732.719,-144.291"/>
<polygon fill="midnightblue" stroke="midnightblue" points="733.569,-147.69 742.684,-142.29 732.191,-140.827 733.569,-147.69"/>
</g>
<!-- Node16&#45;&gt;Node7 -->
<g id="edge18" class="edge"><title>Node16&#45;&gt;Node7</title>
<path fill="none" stroke="midnightblue" d="M615.728,-124.403C620.58,-115.582 628.266,-101.608 634.4,-90.4548"/>
<polygon fill="midnightblue" stroke="midnightblue" points="637.528,-92.0295 639.281,-81.5806 631.395,-88.656 637.528,-92.0295"/>
</g>
<!-- Node16&#45;&gt;Node8 -->
<g id="edge20" class="edge"><title>Node16&#45;&gt;Node8</title>
<path fill="none" stroke="midnightblue" d="M576.869,-124.467C534.309,-113.827 461.486,-95.6215 414.837,-83.9593"/>
<polygon fill="midnightblue" stroke="midnightblue" points="415.564,-80.5333 405.014,-81.5034 413.866,-87.3243 415.564,-80.5333"/>
</g>
<!-- Node16&#45;&gt;Node13 -->
<g id="edge19" class="edge"><title>Node16&#45;&gt;Node13</title>
<path fill="none" stroke="midnightblue" d="M599.968,-124.403C587.732,-114.869 567.771,-99.3154 553.007,-87.8106"/>
<polygon fill="midnightblue" stroke="midnightblue" points="555.051,-84.9663 545.012,-81.5806 550.748,-90.4879 555.051,-84.9663"/>
</g>
<!-- Node18 -->
<g id="node18" class="node"><title>Node18</title>
<polygon fill="white" stroke="#bfbfbf" points="745,-62.5 745,-81.5 813,-81.5 813,-62.5 745,-62.5"/>
<text text-anchor="middle" x="779" y="-69.5" font-family="Helvetica,sans-Serif" font-size="10.00">emmintrin.h</text>
</g>
<!-- Node17&#45;&gt;Node18 -->
<g id="edge22" class="edge"><title>Node17&#45;&gt;Node18</title>
<path fill="none" stroke="midnightblue" d="M779,-124.403C779,-115.938 779,-102.728 779,-91.8199"/>
<polygon fill="midnightblue" stroke="midnightblue" points="782.5,-91.5806 779,-81.5806 775.5,-91.5806 782.5,-91.5806"/>
</g>
<!-- Node19&#45;&gt;Node7 -->
<g id="edge24" class="edge"><title>Node19&#45;&gt;Node7</title>
<path fill="none" stroke="midnightblue" d="M167.1,-128.698C181.923,-127.196 198.699,-125.508 214,-124 380.626,-107.577 424.302,-118.137 589,-88 597.078,-86.5219 605.696,-84.4264 613.657,-82.2688"/>
<polygon fill="midnightblue" stroke="midnightblue" points="614.627,-85.6319 623.299,-79.5446 612.724,-78.8956 614.627,-85.6319"/>
</g>
<!-- Node19&#45;&gt;Node8 -->
<g id="edge25" class="edge"><title>Node19&#45;&gt;Node8</title>
<path fill="none" stroke="midnightblue" d="M159.985,-124.467C203.7,-113.805 278.565,-95.5452 326.367,-83.886"/>
<polygon fill="midnightblue" stroke="midnightblue" points="327.25,-87.2733 336.136,-81.5034 325.592,-80.4727 327.25,-87.2733"/>
</g>
<!-- Node20 -->
<g id="node20" class="node"><title>Node20</title>
<polygon fill="white" stroke="#bfbfbf" points="-0.5,-62.5 -0.5,-81.5 118.5,-81.5 118.5,-62.5 -0.5,-62.5"/>
<text text-anchor="middle" x="59" y="-69.5" font-family="Helvetica,sans-Serif" font-size="10.00">gen&#45;cpp/Types_types.h</text>
</g>
<!-- Node19&#45;&gt;Node20 -->
<g id="edge26" class="edge"><title>Node19&#45;&gt;Node20</title>
<path fill="none" stroke="midnightblue" d="M115.544,-124.403C105.252,-115.047 88.5842,-99.8948 76.0059,-88.4599"/>
<polygon fill="midnightblue" stroke="midnightblue" points="78.1924,-85.7176 68.4386,-81.5806 73.4837,-90.8971 78.1924,-85.7176"/>
</g>
<!-- Node21 -->
<g id="node21" class="node"><title>Node21</title>
<polygon fill="white" stroke="#bfbfbf" points="136.5,-57 136.5,-87 245.5,-87 245.5,-57 136.5,-57"/>
<text text-anchor="start" x="144.5" y="-75" font-family="Helvetica,sans-Serif" font-size="10.00">gen&#45;cpp/TCLIService</text>
<text text-anchor="middle" x="191" y="-64" font-family="Helvetica,sans-Serif" font-size="10.00">_types.h</text>
</g>
<!-- Node19&#45;&gt;Node21 -->
<g id="edge27" class="edge"><title>Node19&#45;&gt;Node21</title>
<path fill="none" stroke="midnightblue" d="M134.456,-124.403C143.144,-116.505 156.376,-104.477 167.855,-94.0409"/>
<polygon fill="midnightblue" stroke="midnightblue" points="170.4,-96.4574 175.445,-87.1408 165.691,-91.2778 170.4,-96.4574"/>
</g>
<!-- Node22&#45;&gt;Node7 -->
<g id="edge29" class="edge"><title>Node22&#45;&gt;Node7</title>
<path fill="none" stroke="midnightblue" d="M690.592,-236.321C696.237,-215.775 707.84,-162.964 691,-124 684.969,-110.046 673.456,-97.4517 663.334,-88.2694"/>
<polygon fill="midnightblue" stroke="midnightblue" points="665.516,-85.5297 655.647,-81.6763 660.959,-90.8432 665.516,-85.5297"/>
</g>
<!-- Node23 -->
<g id="node23" class="node"><title>Node23</title>
<polygon fill="white" stroke="#bfbfbf" points="643,-180.5 643,-199.5 687,-199.5 687,-180.5 643,-180.5"/>
<text text-anchor="middle" x="665" y="-187.5" font-family="Helvetica,sans-Serif" font-size="10.00">vector</text>
</g>
<!-- Node22&#45;&gt;Node23 -->
<g id="edge30" class="edge"><title>Node22&#45;&gt;Node23</title>
<path fill="none" stroke="midnightblue" d="M684.202,-236.083C681.087,-228.77 676.577,-218.181 672.711,-209.103"/>
<polygon fill="midnightblue" stroke="midnightblue" points="675.866,-207.58 668.727,-199.751 669.426,-210.323 675.866,-207.58"/>
</g>
<!-- Node25 -->
<g id="node25" class="node"><title>Node25</title>
<polygon fill="white" stroke="#bfbfbf" points="790,-180.5 790,-199.5 884,-199.5 884,-180.5 790,-180.5"/>
<text text-anchor="middle" x="837" y="-187.5" font-family="Helvetica,sans-Serif" font-size="10.00">boost/version.hpp</text>
</g>
<!-- Node24&#45;&gt;Node25 -->
<g id="edge34" class="edge"><title>Node24&#45;&gt;Node25</title>
<path fill="none" stroke="midnightblue" d="M837,-236.083C837,-229.006 837,-218.861 837,-209.986"/>
<polygon fill="midnightblue" stroke="midnightblue" points="840.5,-209.751 837,-199.751 833.5,-209.751 840.5,-209.751"/>
</g>
</g>
</svg>
        <g id="navigator" transform="translate(0 0)" fill="#404254">
                <rect fill="#f2f5e9" fill-opacity="0.5" stroke="#606060" stroke-width=".5" x="0" y="0" width="60" height="60"/>
                <use id="zoomplus" xlink:href="#zoomPlus" x="17" y="9" onmousedown="handleZoom(evt,'in')"/>
                <use id="zoomminus" xlink:href="#zoomMin" x="42" y="9" onmousedown="handleZoom(evt,'out')"/>
                <use id="reset" xlink:href="#resetDef" x="30" y="36" onmousedown="handleReset()"/>
                <g id="arrowUp" xlink:href="#dirArrow" transform="translate(30 24)" onmousedown="handlePan(0,-1)">
                  <use xlink:href="#rim" fill="#404040">
                        <set attributeName="fill" to="#808080" begin="arrowUp.mouseover" end="arrowUp.mouseout"/>
                  </use>
                  <path fill="none" stroke="white" stroke-width="1.5" d="M0,-3.0v7 M-2.5,-0.5L0,-3.0L2.5,-0.5"/>
                </g>
                <g id="arrowRight" xlink:href="#dirArrow" transform="rotate(90) translate(36 -43)" onmousedown="handlePan(1,0)">
                  <use xlink:href="#rim" fill="#404040">
                        <set attributeName="fill" to="#808080" begin="arrowRight.mouseover" end="arrowRight.mouseout"/>
                  </use>
                  <path fill="none" stroke="white" stroke-width="1.5" d="M0,-3.0v7 M-2.5,-0.5L0,-3.0L2.5,-0.5"/>
                </g>
                <g id="arrowDown" xlink:href="#dirArrow" transform="rotate(180) translate(-30 -48)" onmousedown="handlePan(0,1)">
                  <use xlink:href="#rim" fill="#404040">
                        <set attributeName="fill" to="#808080" begin="arrowDown.mouseover" end="arrowDown.mouseout"/>
                  </use>
                  <path fill="none" stroke="white" stroke-width="1.5" d="M0,-3.0v7 M-2.5,-0.5L0,-3.0L2.5,-0.5"/>
                </g>
                <g id="arrowLeft" xlink:href="#dirArrow" transform="rotate(270) translate(-36 17)" onmousedown="handlePan(-1,0)">
                  <use xlink:href="#rim" fill="#404040">
                        <set attributeName="fill" to="#808080" begin="arrowLeft.mouseover" end="arrowLeft.mouseout"/>
                  </use>
                  <path fill="none" stroke="white" stroke-width="1.5" d="M0,-3.0v7 M-2.5,-0.5L0,-3.0L2.5,-0.5"/>
                </g>
        </g>
        <svg viewBox="0 0 15 15" width="100%" height="30px" preserveAspectRatio="xMaxYMin meet">
         <g id="arrow_out" transform="scale(0.3 0.3)">
          <a xlink:href="string-compare-benchmark_8cc__incl_org.svg" target="_base">
           <rect id="button" ry="5" rx="5" y="6" x="6" height="38" width="38"
                fill="#f2f5e9" fill-opacity="0.5" stroke="#606060" stroke-width="1.0"/>
           <path id="arrow"
             d="M 11.500037,31.436501 C 11.940474,20.09759 22.043105,11.32322 32.158766,21.979434 L 37.068811,17.246167 C 37.068811,17.246167 37.088388,32 37.088388,32 L 22.160133,31.978069 C 22.160133,31.978069 26.997745,27.140456 26.997745,27.140456 C 18.528582,18.264221 13.291696,25.230495 11.500037,31.436501 z"
             style="fill:#404040;"/>
          </a>
         </g>
        </svg>
</svg>
