<?xml version="1.0" encoding="UTF-8" standalone="no"?>
<!DOCTYPE svg PUBLIC "-//W3C//DTD SVG 1.1//EN"
 "http://www.w3.org/Graphics/SVG/1.1/DTD/svg11.dtd">
<!-- Generated by graphviz version 2.36.0 (20140111.2315)
 -->
<!-- Title: be/src/runtime/string&#45;value.inline.h Pages: 1 -->
<!--zoomable 332 -->
<svg id="main" version="1.1" xmlns="http://www.w3.org/2000/svg" xmlns:xlink="http://www.w3.org/1999/xlink" xml:space="preserve" onload="init(evt)">
<style type="text/css"><![CDATA[
.edge:hover path { stroke: red; }
.edge:hover polygon { stroke: red; fill: red; }
]]></style>
<script type="text/javascript"><![CDATA[
var edges = document.getElementsByTagName('g');
if (edges && edges.length) {
  for (var i=0;i<edges.length;i++) {
    if (edges[i].id.substr(0,4)=='edge') {
      edges[i].setAttribute('class','edge');
    }
  }
}
]]></script>
        <defs>
                <circle id="rim" cx="0" cy="0" r="7"/>
                <circle id="rim2" cx="0" cy="0" r="3.5"/>
                <g id="zoomPlus">
                        <use xlink:href="#rim" fill="#404040">
                                <set attributeName="fill" to="#808080" begin="zoomplus.mouseover" end="zoomplus.mouseout"/>
                        </use>
                        <path d="M-4,0h8M0,-4v8" fill="none" stroke="white" stroke-width="1.5" pointer-events="none"/>
                </g>
                <g id="zoomMin">
                        <use xlink:href="#rim" fill="#404040">
                                <set attributeName="fill" to="#808080" begin="zoomminus.mouseover" end="zoomminus.mouseout"/>
                        </use>
                        <path d="M-4,0h8" fill="none" stroke="white" stroke-width="1.5" pointer-events="none"/>
                </g>
                <g id="dirArrow">
                        <path fill="none" stroke="white" stroke-width="1.5" d="M0,-3.0v7 M-2.5,-0.5L0,-3.0L2.5,-0.5"/>
                </g>
               <g id="resetDef">
                       <use xlink:href="#rim2" fill="#404040">
                               <set attributeName="fill" to="#808080" begin="reset.mouseover" end="reset.mouseout"/>
                       </use>
               </g>
        </defs>

<script type="text/javascript">
var viewWidth = 704;
var viewHeight = 332;
var sectionId = 'dynsection-0';
</script>
<script xlink:href="svgpan.js"/>
<svg id="graph" class="graph">
<g id="viewport">
<title>be/src/runtime/string&#45;value.inline.h</title>
<polygon fill="white" stroke="none" points="-4,4 -4,-328 700,-328 700,4 -4,4"/>
<!-- Node1 -->
<g id="node1" class="node"><title>Node1</title>
<polygon fill="#bfbfbf" stroke="black" points="398,-293 398,-323 504,-323 504,-293 398,-293"/>
<text text-anchor="start" x="406" y="-311" font-family="Helvetica,sans-Serif" font-size="10.00">be/src/runtime/string</text>
<text text-anchor="middle" x="451" y="-300" font-family="Helvetica,sans-Serif" font-size="10.00">&#45;value.inline.h</text>
</g>
<!-- Node2 -->
<g id="node2" class="node"><title>Node2</title>
<g id="a_node2"><a xlink:href="string-value_8h.html" target="_top" xlink:title="runtime/string&#45;value.h">
<polygon fill="white" stroke="black" points="294,-236.5 294,-255.5 404,-255.5 404,-236.5 294,-236.5"/>
<text text-anchor="middle" x="349" y="-243.5" font-family="Helvetica,sans-Serif" font-size="10.00">runtime/string&#45;value.h</text>
</a>
</g>
</g>
<!-- Node1&#45;&gt;Node2 -->
<g id="edge1" class="edge"><title>Node1&#45;&gt;Node2</title>
<path fill="none" stroke="midnightblue" d="M427.086,-292.933C410.645,-283.262 388.915,-270.479 372.553,-260.855"/>
<polygon fill="midnightblue" stroke="midnightblue" points="374.014,-257.654 363.62,-255.6 370.465,-263.687 374.014,-257.654"/>
</g>
<!-- Node13 -->
<g id="node13" class="node"><title>Node13</title>
<g id="a_node13"><a xlink:href="cpu-info_8h.html" target="_top" xlink:title="util/cpu&#45;info.h">
<polygon fill="white" stroke="black" points="175.5,-124.5 175.5,-143.5 250.5,-143.5 250.5,-124.5 175.5,-124.5"/>
<text text-anchor="middle" x="213" y="-131.5" font-family="Helvetica,sans-Serif" font-size="10.00">util/cpu&#45;info.h</text>
</a>
</g>
</g>
<!-- Node1&#45;&gt;Node13 -->
<g id="edge26" class="edge"><title>Node1&#45;&gt;Node13</title>
<path fill="none" stroke="midnightblue" d="M397.792,-300.729C362.734,-294.333 317.476,-281.521 285,-256 250.37,-228.786 228.821,-179.942 219.094,-153.395"/>
<polygon fill="midnightblue" stroke="midnightblue" points="222.346,-152.092 215.743,-143.807 215.738,-154.402 222.346,-152.092"/>
</g>
<!-- Node14 -->
<g id="node14" class="node"><title>Node14</title>
<g id="a_node14"><a xlink:href="sse-util_8h.html" target="_top" xlink:title="util/sse&#45;util.h">
<polygon fill="white" stroke="black" points="624,-124.5 624,-143.5 696,-143.5 696,-124.5 624,-124.5"/>
<text text-anchor="middle" x="660" y="-131.5" font-family="Helvetica,sans-Serif" font-size="10.00">util/sse&#45;util.h</text>
</a>
</g>
</g>
<!-- Node1&#45;&gt;Node14 -->
<g id="edge27" class="edge"><title>Node1&#45;&gt;Node14</title>
<path fill="none" stroke="midnightblue" d="M468.103,-292.925C506.977,-260.933 601.691,-182.987 641.691,-150.068"/>
<polygon fill="midnightblue" stroke="midnightblue" points="644.071,-152.642 649.569,-143.585 639.623,-147.237 644.071,-152.642"/>
</g>
<!-- Node19 -->
<g id="node19" class="node"><title>Node19</title>
<polygon fill="white" stroke="#bfbfbf" points="581,-236.5 581,-255.5 627,-255.5 627,-236.5 581,-236.5"/>
<text text-anchor="middle" x="604" y="-243.5" font-family="Helvetica,sans-Serif" font-size="10.00">cstring</text>
</g>
<!-- Node1&#45;&gt;Node19 -->
<g id="edge25" class="edge"><title>Node1&#45;&gt;Node19</title>
<path fill="none" stroke="midnightblue" d="M486.872,-292.933C512.915,-282.72 547.808,-269.036 572.721,-259.266"/>
<polygon fill="midnightblue" stroke="midnightblue" points="574.038,-262.509 582.07,-255.6 571.482,-255.993 574.038,-262.509"/>
</g>
<!-- Node3 -->
<g id="node3" class="node"><title>Node3</title>
<polygon fill="white" stroke="#bfbfbf" points="-0.5,-124.5 -0.5,-143.5 48.5,-143.5 48.5,-124.5 -0.5,-124.5"/>
<text text-anchor="middle" x="24" y="-131.5" font-family="Helvetica,sans-Serif" font-size="10.00">string.h</text>
</g>
<!-- Node2&#45;&gt;Node3 -->
<g id="edge2" class="edge"><title>Node2&#45;&gt;Node3</title>
<path fill="none" stroke="midnightblue" d="M293.962,-244.353C240.098,-241.7 157.038,-232.11 93,-200 70.1258,-188.53 49.5842,-167.016 36.9797,-151.889"/>
<polygon fill="midnightblue" stroke="midnightblue" points="39.5092,-149.449 30.5179,-143.844 34.0518,-153.833 39.5092,-149.449"/>
</g>
<!-- Node4 -->
<g id="node4" class="node"><title>Node4</title>
<polygon fill="white" stroke="#bfbfbf" points="190.5,-62.5 190.5,-81.5 231.5,-81.5 231.5,-62.5 190.5,-62.5"/>
<text text-anchor="middle" x="211" y="-69.5" font-family="Helvetica,sans-Serif" font-size="10.00">string</text>
</g>
<!-- Node2&#45;&gt;Node4 -->
<g id="edge3" class="edge"><title>Node2&#45;&gt;Node4</title>
<path fill="none" stroke="midnightblue" d="M343.002,-236.231C329.003,-215.926 292.793,-164.339 259,-124 248.773,-111.791 236.445,-98.7245 226.844,-88.8738"/>
<polygon fill="midnightblue" stroke="midnightblue" points="229.331,-86.411 219.821,-81.7412 224.343,-91.3224 229.331,-86.411"/>
</g>
<!-- Node5 -->
<g id="node5" class="node"><title>Node5</title>
<g id="a_node5"><a xlink:href="logging_8h.html" target="_top" xlink:title="common/logging.h">
<polygon fill="white" stroke="black" points="514,-62.5 514,-81.5 610,-81.5 610,-62.5 514,-62.5"/>
<text text-anchor="middle" x="562" y="-69.5" font-family="Helvetica,sans-Serif" font-size="10.00">common/logging.h</text>
</a>
</g>
</g>
<!-- Node2&#45;&gt;Node5 -->
<g id="edge4" class="edge"><title>Node2&#45;&gt;Node5</title>
<path fill="none" stroke="midnightblue" d="M356.305,-236.277C374.265,-215.181 422.647,-160.458 471,-124 490.826,-109.051 515.516,-95.4867 534.175,-86.1111"/>
<polygon fill="midnightblue" stroke="midnightblue" points="535.9,-89.1631 543.324,-81.6049 532.807,-82.8834 535.9,-89.1631"/>
</g>
<!-- Node8 -->
<g id="node8" class="node"><title>Node8</title>
<g id="a_node8"><a xlink:href="udf_8h.html" target="_top" xlink:title="udf/udf.h">
<polygon fill="white" stroke="black" points="102.5,-180.5 102.5,-199.5 157.5,-199.5 157.5,-180.5 102.5,-180.5"/>
<text text-anchor="middle" x="130" y="-187.5" font-family="Helvetica,sans-Serif" font-size="10.00">udf/udf.h</text>
</a>
</g>
</g>
<!-- Node2&#45;&gt;Node8 -->
<g id="edge7" class="edge"><title>Node2&#45;&gt;Node8</title>
<path fill="none" stroke="midnightblue" d="M314.299,-236.444C274.272,-226.574 208.701,-210.406 167.519,-200.251"/>
<polygon fill="midnightblue" stroke="midnightblue" points="168.152,-196.803 157.605,-197.807 166.476,-203.599 168.152,-196.803"/>
</g>
<!-- Node11 -->
<g id="node11" class="node"><title>Node11</title>
<g id="a_node11"><a xlink:href="hash-util_8h.html" target="_top" xlink:title="util/hash&#45;util.h">
<polygon fill="white" stroke="black" points="447.5,-180.5 447.5,-199.5 524.5,-199.5 524.5,-180.5 447.5,-180.5"/>
<text text-anchor="middle" x="486" y="-187.5" font-family="Helvetica,sans-Serif" font-size="10.00">util/hash&#45;util.h</text>
</a>
</g>
</g>
<!-- Node2&#45;&gt;Node11 -->
<g id="edge11" class="edge"><title>Node2&#45;&gt;Node11</title>
<path fill="none" stroke="midnightblue" d="M370.708,-236.444C393.355,-227.517 429.072,-213.439 454.752,-203.317"/>
<polygon fill="midnightblue" stroke="midnightblue" points="456.374,-206.44 464.394,-199.516 453.807,-199.927 456.374,-206.44"/>
</g>
<!-- Node16 -->
<g id="node16" class="node"><title>Node16</title>
<g id="a_node16"><a xlink:href="types_8h.html" target="_top" xlink:title="runtime/types.h">
<polygon fill="white" stroke="black" points="307,-124.5 307,-143.5 391,-143.5 391,-124.5 307,-124.5"/>
<text text-anchor="middle" x="349" y="-131.5" font-family="Helvetica,sans-Serif" font-size="10.00">runtime/types.h</text>
</a>
</g>
</g>
<!-- Node2&#45;&gt;Node16 -->
<g id="edge20" class="edge"><title>Node2&#45;&gt;Node16</title>
<path fill="none" stroke="midnightblue" d="M349,-236.368C349,-218.617 349,-177.666 349,-153.597"/>
<polygon fill="midnightblue" stroke="midnightblue" points="352.5,-153.591 349,-143.591 345.5,-153.591 352.5,-153.591"/>
</g>
<!-- Node6 -->
<g id="node6" class="node"><title>Node6</title>
<polygon fill="white" stroke="#bfbfbf" points="475.5,-0.5 475.5,-19.5 552.5,-19.5 552.5,-0.5 475.5,-0.5"/>
<text text-anchor="middle" x="514" y="-7.5" font-family="Helvetica,sans-Serif" font-size="10.00">glog/logging.h</text>
</g>
<!-- Node5&#45;&gt;Node6 -->
<g id="edge5" class="edge"><title>Node5&#45;&gt;Node6</title>
<path fill="none" stroke="midnightblue" d="M555.123,-62.4035C547.851,-53.3143 536.205,-38.7559 527.159,-27.4489"/>
<polygon fill="midnightblue" stroke="midnightblue" points="529.845,-25.2029 520.864,-19.5806 524.378,-29.5757 529.845,-25.2029"/>
</g>
<!-- Node7 -->
<g id="node7" class="node"><title>Node7</title>
<polygon fill="white" stroke="#bfbfbf" points="571,-0.5 571,-19.5 651,-19.5 651,-0.5 571,-0.5"/>
<text text-anchor="middle" x="611" y="-7.5" font-family="Helvetica,sans-Serif" font-size="10.00">gflags/gflags.h</text>
</g>
<!-- Node5&#45;&gt;Node7 -->
<g id="edge6" class="edge"><title>Node5&#45;&gt;Node7</title>
<path fill="none" stroke="midnightblue" d="M569.021,-62.4035C576.443,-53.3143 588.333,-38.7559 597.567,-27.4489"/>
<polygon fill="midnightblue" stroke="midnightblue" points="600.378,-29.5398 603.993,-19.5806 594.956,-25.1121 600.378,-29.5398"/>
</g>
<!-- Node8&#45;&gt;Node3 -->
<g id="edge10" class="edge"><title>Node8&#45;&gt;Node3</title>
<path fill="none" stroke="midnightblue" d="M112.969,-180.324C95.9702,-171.664 69.6239,-158.242 50.0074,-148.249"/>
<polygon fill="midnightblue" stroke="midnightblue" points="51.4876,-145.075 40.9885,-143.655 48.3101,-151.312 51.4876,-145.075"/>
</g>
<!-- Node9 -->
<g id="node9" class="node"><title>Node9</title>
<polygon fill="white" stroke="#bfbfbf" points="67,-124.5 67,-143.5 119,-143.5 119,-124.5 67,-124.5"/>
<text text-anchor="middle" x="93" y="-131.5" font-family="Helvetica,sans-Serif" font-size="10.00">assert.h</text>
</g>
<!-- Node8&#45;&gt;Node9 -->
<g id="edge8" class="edge"><title>Node8&#45;&gt;Node9</title>
<path fill="none" stroke="midnightblue" d="M123.89,-180.083C118.718,-172.534 111.154,-161.495 104.806,-152.23"/>
<polygon fill="midnightblue" stroke="midnightblue" points="107.536,-150.022 98.9961,-143.751 101.761,-153.979 107.536,-150.022"/>
</g>
<!-- Node10 -->
<g id="node10" class="node"><title>Node10</title>
<polygon fill="white" stroke="#bfbfbf" points="80,-62.5 80,-81.5 172,-81.5 172,-62.5 80,-62.5"/>
<text text-anchor="middle" x="126" y="-69.5" font-family="Helvetica,sans-Serif" font-size="10.00">boost/cstdint.hpp</text>
</g>
<!-- Node8&#45;&gt;Node10 -->
<g id="edge9" class="edge"><title>Node8&#45;&gt;Node10</title>
<path fill="none" stroke="midnightblue" d="M129.752,-180.168C129.395,-167.664 128.703,-144.084 128,-124 127.626,-113.307 127.16,-101.355 126.772,-91.7102"/>
<polygon fill="midnightblue" stroke="midnightblue" points="130.266,-91.5112 126.362,-81.6621 123.272,-91.7964 130.266,-91.5112"/>
</g>
<!-- Node11&#45;&gt;Node5 -->
<g id="edge12" class="edge"><title>Node11&#45;&gt;Node5</title>
<path fill="none" stroke="midnightblue" d="M482.056,-180.366C476.709,-167.276 468.917,-142.029 479,-124 489.03,-106.065 508.235,-93.6665 525.647,-85.5888"/>
<polygon fill="midnightblue" stroke="midnightblue" points="527.263,-88.7041 535.067,-81.538 524.497,-82.2735 527.263,-88.7041"/>
</g>
<!-- Node12 -->
<g id="node12" class="node"><title>Node12</title>
<g id="a_node12"><a xlink:href="compiler-util_8h.html" target="_top" xlink:title="common/compiler&#45;util.h">
<polygon fill="white" stroke="black" points="488,-124.5 488,-143.5 606,-143.5 606,-124.5 488,-124.5"/>
<text text-anchor="middle" x="547" y="-131.5" font-family="Helvetica,sans-Serif" font-size="10.00">common/compiler&#45;util.h</text>
</a>
</g>
</g>
<!-- Node11&#45;&gt;Node12 -->
<g id="edge13" class="edge"><title>Node11&#45;&gt;Node12</title>
<path fill="none" stroke="midnightblue" d="M495.801,-180.324C504.818,-172.341 518.406,-160.313 529.318,-150.653"/>
<polygon fill="midnightblue" stroke="midnightblue" points="531.853,-153.083 537.021,-143.834 527.213,-147.842 531.853,-153.083"/>
</g>
<!-- Node11&#45;&gt;Node13 -->
<g id="edge14" class="edge"><title>Node11&#45;&gt;Node13</title>
<path fill="none" stroke="midnightblue" d="M447.465,-181.378C398.447,-171.682 313.805,-154.94 260.747,-144.444"/>
<polygon fill="midnightblue" stroke="midnightblue" points="261.389,-141.004 250.9,-142.497 260.031,-147.871 261.389,-141.004"/>
</g>
<!-- Node11&#45;&gt;Node14 -->
<g id="edge18" class="edge"><title>Node11&#45;&gt;Node14</title>
<path fill="none" stroke="midnightblue" d="M513.571,-180.444C543.097,-171.28 590.118,-156.688 622.883,-146.519"/>
<polygon fill="midnightblue" stroke="midnightblue" points="624.045,-149.823 632.558,-143.516 621.97,-143.138 624.045,-149.823"/>
</g>
<!-- Node13&#45;&gt;Node4 -->
<g id="edge15" class="edge"><title>Node13&#45;&gt;Node4</title>
<path fill="none" stroke="midnightblue" d="M212.713,-124.403C212.431,-115.938 211.991,-102.728 211.627,-91.8199"/>
<polygon fill="midnightblue" stroke="midnightblue" points="215.117,-91.4584 211.286,-81.5806 208.121,-91.6917 215.117,-91.4584"/>
</g>
<!-- Node13&#45;&gt;Node5 -->
<g id="edge17" class="edge"><title>Node13&#45;&gt;Node5</title>
<path fill="none" stroke="midnightblue" d="M250.884,-128.368C306.623,-121.276 413.876,-106.574 504,-88 509.743,-86.8164 515.769,-85.4268 521.675,-83.9791"/>
<polygon fill="midnightblue" stroke="midnightblue" points="522.593,-87.3574 531.43,-81.5142 520.878,-80.5706 522.593,-87.3574"/>
</g>
<!-- Node13&#45;&gt;Node10 -->
<g id="edge16" class="edge"><title>Node13&#45;&gt;Node10</title>
<path fill="none" stroke="midnightblue" d="M200.535,-124.403C186.581,-114.78 163.735,-99.0242 147.009,-87.4891"/>
<polygon fill="midnightblue" stroke="midnightblue" points="148.661,-84.3767 138.442,-81.5806 144.687,-90.1392 148.661,-84.3767"/>
</g>
<!-- Node15 -->
<g id="node15" class="node"><title>Node15</title>
<polygon fill="white" stroke="#bfbfbf" points="628,-62.5 628,-81.5 696,-81.5 696,-62.5 628,-62.5"/>
<text text-anchor="middle" x="662" y="-69.5" font-family="Helvetica,sans-Serif" font-size="10.00">emmintrin.h</text>
</g>
<!-- Node14&#45;&gt;Node15 -->
<g id="edge19" class="edge"><title>Node14&#45;&gt;Node15</title>
<path fill="none" stroke="midnightblue" d="M660.287,-124.403C660.569,-115.938 661.009,-102.728 661.373,-91.8199"/>
<polygon fill="midnightblue" stroke="midnightblue" points="664.879,-91.6917 661.714,-81.5806 657.883,-91.4584 664.879,-91.6917"/>
</g>
<!-- Node16&#45;&gt;Node4 -->
<g id="edge21" class="edge"><title>Node16&#45;&gt;Node4</title>
<path fill="none" stroke="midnightblue" d="M326.63,-124.415C304.424,-115.742 269.528,-101.701 240,-88 238.65,-87.3737 237.272,-86.7182 235.886,-86.0459"/>
<polygon fill="midnightblue" stroke="midnightblue" points="237.34,-82.8595 226.833,-81.5008 234.2,-89.1155 237.34,-82.8595"/>
</g>
<!-- Node16&#45;&gt;Node5 -->
<g id="edge22" class="edge"><title>Node16&#45;&gt;Node5</title>
<path fill="none" stroke="midnightblue" d="M379.518,-124.403C416.925,-113.866 480.427,-95.9783 521.787,-84.3276"/>
<polygon fill="midnightblue" stroke="midnightblue" points="522.863,-87.6609 531.539,-81.5806 520.964,-80.9232 522.863,-87.6609"/>
</g>
<!-- Node17 -->
<g id="node17" class="node"><title>Node17</title>
<polygon fill="white" stroke="#bfbfbf" points="249.5,-62.5 249.5,-81.5 368.5,-81.5 368.5,-62.5 249.5,-62.5"/>
<text text-anchor="middle" x="309" y="-69.5" font-family="Helvetica,sans-Serif" font-size="10.00">gen&#45;cpp/Types_types.h</text>
</g>
<!-- Node16&#45;&gt;Node17 -->
<g id="edge23" class="edge"><title>Node16&#45;&gt;Node17</title>
<path fill="none" stroke="midnightblue" d="M343.269,-124.403C337.328,-115.493 327.883,-101.325 320.412,-90.1177"/>
<polygon fill="midnightblue" stroke="midnightblue" points="323.18,-87.9596 314.72,-81.5806 317.355,-91.8426 323.18,-87.9596"/>
</g>
<!-- Node18 -->
<g id="node18" class="node"><title>Node18</title>
<polygon fill="white" stroke="#bfbfbf" points="386.5,-57 386.5,-87 495.5,-87 495.5,-57 386.5,-57"/>
<text text-anchor="start" x="394.5" y="-75" font-family="Helvetica,sans-Serif" font-size="10.00">gen&#45;cpp/TCLIService</text>
<text text-anchor="middle" x="441" y="-64" font-family="Helvetica,sans-Serif" font-size="10.00">_types.h</text>
</g>
<!-- Node16&#45;&gt;Node18 -->
<g id="edge24" class="edge"><title>Node16&#45;&gt;Node18</title>
<path fill="none" stroke="midnightblue" d="M362.181,-124.403C374.758,-116.201 394.164,-103.545 410.572,-92.8441"/>
<polygon fill="midnightblue" stroke="midnightblue" points="412.853,-95.5352 419.317,-87.1408 409.029,-89.6719 412.853,-95.5352"/>
</g>
</g>
</svg>
        <g id="navigator" transform="translate(0 0)" fill="#404254">
                <rect fill="#f2f5e9" fill-opacity="0.5" stroke="#606060" stroke-width=".5" x="0" y="0" width="60" height="60"/>
                <use id="zoomplus" xlink:href="#zoomPlus" x="17" y="9" onmousedown="handleZoom(evt,'in')"/>
                <use id="zoomminus" xlink:href="#zoomMin" x="42" y="9" onmousedown="handleZoom(evt,'out')"/>
                <use id="reset" xlink:href="#resetDef" x="30" y="36" onmousedown="handleReset()"/>
                <g id="arrowUp" xlink:href="#dirArrow" transform="translate(30 24)" onmousedown="handlePan(0,-1)">
                  <use xlink:href="#rim" fill="#404040">
                        <set attributeName="fill" to="#808080" begin="arrowUp.mouseover" end="arrowUp.mouseout"/>
                  </use>
                  <path fill="none" stroke="white" stroke-width="1.5" d="M0,-3.0v7 M-2.5,-0.5L0,-3.0L2.5,-0.5"/>
                </g>
                <g id="arrowRight" xlink:href="#dirArrow" transform="rotate(90) translate(36 -43)" onmousedown="handlePan(1,0)">
                  <use xlink:href="#rim" fill="#404040">
                        <set attributeName="fill" to="#808080" begin="arrowRight.mouseover" end="arrowRight.mouseout"/>
                  </use>
                  <path fill="none" stroke="white" stroke-width="1.5" d="M0,-3.0v7 M-2.5,-0.5L0,-3.0L2.5,-0.5"/>
                </g>
                <g id="arrowDown" xlink:href="#dirArrow" transform="rotate(180) translate(-30 -48)" onmousedown="handlePan(0,1)">
                  <use xlink:href="#rim" fill="#404040">
                        <set attributeName="fill" to="#808080" begin="arrowDown.mouseover" end="arrowDown.mouseout"/>
                  </use>
                  <path fill="none" stroke="white" stroke-width="1.5" d="M0,-3.0v7 M-2.5,-0.5L0,-3.0L2.5,-0.5"/>
                </g>
                <g id="arrowLeft" xlink:href="#dirArrow" transform="rotate(270) translate(-36 17)" onmousedown="handlePan(-1,0)">
                  <use xlink:href="#rim" fill="#404040">
                        <set attributeName="fill" to="#808080" begin="arrowLeft.mouseover" end="arrowLeft.mouseout"/>
                  </use>
                  <path fill="none" stroke="white" stroke-width="1.5" d="M0,-3.0v7 M-2.5,-0.5L0,-3.0L2.5,-0.5"/>
                </g>
        </g>
        <svg viewBox="0 0 15 15" width="100%" height="30px" preserveAspectRatio="xMaxYMin meet">
         <g id="arrow_out" transform="scale(0.3 0.3)">
          <a xlink:href="string-value_8inline_8h__incl_org.svg" target="_base">
           <rect id="button" ry="5" rx="5" y="6" x="6" height="38" width="38"
                fill="#f2f5e9" fill-opacity="0.5" stroke="#606060" stroke-width="1.0"/>
           <path id="arrow"
             d="M 11.500037,31.436501 C 11.940474,20.09759 22.043105,11.32322 32.158766,21.979434 L 37.068811,17.246167 C 37.068811,17.246167 37.088388,32 37.088388,32 L 22.160133,31.978069 C 22.160133,31.978069 26.997745,27.140456 26.997745,27.140456 C 18.528582,18.264221 13.291696,25.230495 11.500037,31.436501 z"
             style="fill:#404040;"/>
          </a>
         </g>
        </svg>
</svg>
