<?xml version="1.0" encoding="UTF-8" standalone="no"?>
<!DOCTYPE svg PUBLIC "-//W3C//DTD SVG 1.1//EN"
 "http://www.w3.org/Graphics/SVG/1.1/DTD/svg11.dtd">
<!-- Generated by graphviz version 2.36.0 (20140111.2315)
 -->
<!-- Title: impala::PeriodicCounterUpdater::BucketCountersInfo Pages: 1 -->
<svg width="234pt" height="618pt"
 viewBox="0.00 0.00 234.00 618.00" xmlns="http://www.w3.org/2000/svg" xmlns:xlink="http://www.w3.org/1999/xlink">
<g id="graph0" class="graph" transform="scale(1 1) rotate(0) translate(4 614)">
<title>impala::PeriodicCounterUpdater::BucketCountersInfo</title>
<polygon fill="white" stroke="none" points="-4,4 -4,-614 230,-614 230,4 -4,4"/>
<!-- Node1 -->
<g id="node1" class="node"><title>Node1</title>
<polygon fill="#bfbfbf" stroke="black" points="-0.5,-1 -0.5,-69 154.5,-69 154.5,-1 -0.5,-1"/>
<text text-anchor="start" x="7.5" y="-57" font-family="Helvetica,sans-Serif" font-size="10.00">impala::PeriodicCounterUpdater</text>
<text text-anchor="middle" x="77" y="-46" font-family="Helvetica,sans-Serif" font-size="10.00">::BucketCountersInfo</text>
<polyline fill="none" stroke="black" points="-0.5,-39 154.5,-39 "/>
<text text-anchor="middle" x="77" y="-27" font-family="Helvetica,sans-Serif" font-size="10.00"> </text>
<polyline fill="none" stroke="black" points="-0.5,-20 154.5,-20 "/>
<text text-anchor="middle" x="77" y="-8" font-family="Helvetica,sans-Serif" font-size="10.00"> </text>
</g>
<!-- Node2 -->
<g id="node2" class="node"><title>Node2</title>
<polygon fill="white" stroke="#bfbfbf" points="50,-552.5 50,-609.5 96,-609.5 96,-552.5 50,-552.5"/>
<text text-anchor="middle" x="73" y="-597.5" font-family="Helvetica,sans-Serif" font-size="10.00">int64_t</text>
<polyline fill="none" stroke="#bfbfbf" points="50,-590.5 96,-590.5 "/>
<text text-anchor="middle" x="73" y="-578.5" font-family="Helvetica,sans-Serif" font-size="10.00"> </text>
<polyline fill="none" stroke="#bfbfbf" points="50,-571.5 96,-571.5 "/>
<text text-anchor="middle" x="73" y="-559.5" font-family="Helvetica,sans-Serif" font-size="10.00"> </text>
</g>
<!-- Node2&#45;&gt;Node1 -->
<g id="edge1" class="edge"><title>Node2&#45;&gt;Node1</title>
<path fill="none" stroke="#404040" d="M69.6104,-552.246C67.9733,-537.869 66.1246,-520.014 65,-504 58.4583,-410.844 54.5684,-387.322 58,-294 60.7445,-219.365 67.9403,-132.831 72.6466,-81.3479"/>
<polygon fill="none" stroke="#404040" points="72.6506,-81.3033 69.2204,-74.9603 73.7561,-69.3543 77.1863,-75.6972 72.6506,-81.3033"/>
<text text-anchor="middle" x="93" y="-297.5" font-family="Helvetica,sans-Serif" font-size="10.00"> +num_sampled</text>
</g>
<!-- Node5 -->
<g id="node5" class="node"><title>Node5</title>
<g id="a_node5"><a xlink:href="classimpala_1_1AtomicInt.html" target="_top" xlink:title="{impala::AtomicInt\&lt;\l int64_t \&gt;\n||+ AtomicInt()\l+ operator int64_t()\l+ operator=()\l+ operator=()\l+ operator+=()\l+ operator&#45;=()\l+ operator\|=()\l+ operator&amp;=()\l+ operator++()\l+ operator++()\land 10 more...\l}">
<polygon fill="white" stroke="black" points="74.5,-325 74.5,-503 173.5,-503 173.5,-325 74.5,-325"/>
<text text-anchor="start" x="82.5" y="-491" font-family="Helvetica,sans-Serif" font-size="10.00">impala::AtomicInt&lt;</text>
<text text-anchor="middle" x="124" y="-480" font-family="Helvetica,sans-Serif" font-size="10.00"> int64_t &gt;</text>
<polyline fill="none" stroke="black" points="74.5,-473 173.5,-473 "/>
<text text-anchor="middle" x="124" y="-461" font-family="Helvetica,sans-Serif" font-size="10.00"> </text>
<polyline fill="none" stroke="black" points="74.5,-454 173.5,-454 "/>
<text text-anchor="start" x="82.5" y="-442" font-family="Helvetica,sans-Serif" font-size="10.00">+ AtomicInt()</text>
<text text-anchor="start" x="82.5" y="-431" font-family="Helvetica,sans-Serif" font-size="10.00">+ operator int64_t()</text>
<text text-anchor="start" x="82.5" y="-420" font-family="Helvetica,sans-Serif" font-size="10.00">+ operator=()</text>
<text text-anchor="start" x="82.5" y="-409" font-family="Helvetica,sans-Serif" font-size="10.00">+ operator=()</text>
<text text-anchor="start" x="82.5" y="-398" font-family="Helvetica,sans-Serif" font-size="10.00">+ operator+=()</text>
<text text-anchor="start" x="82.5" y="-387" font-family="Helvetica,sans-Serif" font-size="10.00">+ operator&#45;=()</text>
<text text-anchor="start" x="82.5" y="-376" font-family="Helvetica,sans-Serif" font-size="10.00">+ operator|=()</text>
<text text-anchor="start" x="82.5" y="-365" font-family="Helvetica,sans-Serif" font-size="10.00">+ operator&amp;=()</text>
<text text-anchor="start" x="82.5" y="-354" font-family="Helvetica,sans-Serif" font-size="10.00">+ operator++()</text>
<text text-anchor="start" x="82.5" y="-343" font-family="Helvetica,sans-Serif" font-size="10.00">+ operator++()</text>
<text text-anchor="start" x="82.5" y="-332" font-family="Helvetica,sans-Serif" font-size="10.00">and 10 more...</text>
</a>
</g>
</g>
<!-- Node2&#45;&gt;Node5 -->
<g id="edge5" class="edge"><title>Node2&#45;&gt;Node5</title>
<path fill="none" stroke="#404040" d="M81.5363,-552.383C84.8593,-541.632 88.8857,-528.605 93.1194,-514.908"/>
<polygon fill="none" stroke="#404040" points="93.1698,-514.744 91.1201,-507.831 96.7136,-503.28 98.7633,-510.193 93.1698,-514.744"/>
<text text-anchor="middle" x="107.5" y="-525.5" font-family="Helvetica,sans-Serif" font-size="10.00"> &#45;value_</text>
</g>
<!-- Node3 -->
<g id="node3" class="node"><title>Node3</title>
<g id="a_node3"><a xlink:href="classimpala_1_1RuntimeProfile_1_1Counter.html" target="_top" xlink:title="{impala::RuntimeProfile\l::Counter\n||+ Counter()\l+ ~Counter()\l+ Add()\l+ BitOr()\l+ Set()\l+ Set()\l+ value()\l+ double_value()\l+ unit()\l}">
<polygon fill="white" stroke="black" points="81,-119 81,-275 197,-275 197,-119 81,-119"/>
<text text-anchor="start" x="89" y="-263" font-family="Helvetica,sans-Serif" font-size="10.00">impala::RuntimeProfile</text>
<text text-anchor="middle" x="139" y="-252" font-family="Helvetica,sans-Serif" font-size="10.00">::Counter</text>
<polyline fill="none" stroke="black" points="81,-245 197,-245 "/>
<text text-anchor="middle" x="139" y="-233" font-family="Helvetica,sans-Serif" font-size="10.00"> </text>
<polyline fill="none" stroke="black" points="81,-226 197,-226 "/>
<text text-anchor="start" x="89" y="-214" font-family="Helvetica,sans-Serif" font-size="10.00">+ Counter()</text>
<text text-anchor="start" x="89" y="-203" font-family="Helvetica,sans-Serif" font-size="10.00">+ ~Counter()</text>
<text text-anchor="start" x="89" y="-192" font-family="Helvetica,sans-Serif" font-size="10.00">+ Add()</text>
<text text-anchor="start" x="89" y="-181" font-family="Helvetica,sans-Serif" font-size="10.00">+ BitOr()</text>
<text text-anchor="start" x="89" y="-170" font-family="Helvetica,sans-Serif" font-size="10.00">+ Set()</text>
<text text-anchor="start" x="89" y="-159" font-family="Helvetica,sans-Serif" font-size="10.00">+ Set()</text>
<text text-anchor="start" x="89" y="-148" font-family="Helvetica,sans-Serif" font-size="10.00">+ value()</text>
<text text-anchor="start" x="89" y="-137" font-family="Helvetica,sans-Serif" font-size="10.00">+ double_value()</text>
<text text-anchor="start" x="89" y="-126" font-family="Helvetica,sans-Serif" font-size="10.00">+ unit()</text>
</a>
</g>
</g>
<!-- Node3&#45;&gt;Node1 -->
<g id="edge2" class="edge"><title>Node3&#45;&gt;Node1</title>
<path fill="none" stroke="#404040" d="M109.09,-118.812C104.027,-105.746 98.925,-92.5806 94.3255,-80.711"/>
<polygon fill="none" stroke="#404040" points="94.2494,-80.5145 88.3517,-76.3652 89.9135,-69.3252 95.8112,-73.4746 94.2494,-80.5145"/>
<text text-anchor="middle" x="131.5" y="-91.5" font-family="Helvetica,sans-Serif" font-size="10.00"> +src_counter</text>
</g>
<!-- Node4 -->
<g id="node4" class="node"><title>Node4</title>
<polygon fill="white" stroke="#bfbfbf" points="191.5,-385.5 191.5,-442.5 226.5,-442.5 226.5,-385.5 191.5,-385.5"/>
<text text-anchor="middle" x="209" y="-430.5" font-family="Helvetica,sans-Serif" font-size="10.00">type</text>
<polyline fill="none" stroke="#bfbfbf" points="191.5,-423.5 226.5,-423.5 "/>
<text text-anchor="middle" x="209" y="-411.5" font-family="Helvetica,sans-Serif" font-size="10.00"> </text>
<polyline fill="none" stroke="#bfbfbf" points="191.5,-404.5 226.5,-404.5 "/>
<text text-anchor="middle" x="209" y="-392.5" font-family="Helvetica,sans-Serif" font-size="10.00"> </text>
</g>
<!-- Node4&#45;&gt;Node3 -->
<g id="edge3" class="edge"><title>Node4&#45;&gt;Node3</title>
<path fill="none" stroke="#404040" d="M201.068,-385.472C194.003,-361.28 183.229,-325.173 173,-294 172.214,-291.605 171.41,-289.178 170.593,-286.732"/>
<polygon fill="none" stroke="#404040" points="170.53,-286.546 164.818,-282.143 166.686,-275.178 172.397,-279.58 170.53,-286.546"/>
<text text-anchor="middle" x="192" y="-297.5" font-family="Helvetica,sans-Serif" font-size="10.00"> #unit_</text>
</g>
<!-- Node5&#45;&gt;Node3 -->
<g id="edge4" class="edge"><title>Node5&#45;&gt;Node3</title>
<path fill="none" stroke="#404040" d="M130.144,-324.931C131.006,-312.58 131.892,-299.876 132.756,-287.499"/>
<polygon fill="none" stroke="#404040" points="132.775,-287.228 129.202,-280.964 133.61,-275.257 137.183,-281.521 132.775,-287.228"/>
<text text-anchor="middle" x="150.5" y="-297.5" font-family="Helvetica,sans-Serif" font-size="10.00"> #value_</text>
</g>
</g>
</svg>
