<?xml version="1.0" encoding="UTF-8" standalone="no"?>
<!DOCTYPE svg PUBLIC "-//W3C//DTD SVG 1.1//EN"
 "http://www.w3.org/Graphics/SVG/1.1/DTD/svg11.dtd">
<!-- Generated by graphviz version 2.36.0 (20140111.2315)
 -->
<!-- Title: impala::HashTable::Bucket Pages: 1 -->
<!--zoomable 736 -->
<svg id="main" version="1.1" xmlns="http://www.w3.org/2000/svg" xmlns:xlink="http://www.w3.org/1999/xlink" xml:space="preserve" onload="init(evt)">
<style type="text/css"><![CDATA[
.edge:hover path { stroke: red; }
.edge:hover polygon { stroke: red; fill: red; }
]]></style>
<script type="text/javascript"><![CDATA[
var edges = document.getElementsByTagName('g');
if (edges && edges.length) {
  for (var i=0;i<edges.length;i++) {
    if (edges[i].id.substr(0,4)=='edge') {
      edges[i].setAttribute('class','edge');
    }
  }
}
]]></script>
        <defs>
                <circle id="rim" cx="0" cy="0" r="7"/>
                <circle id="rim2" cx="0" cy="0" r="3.5"/>
                <g id="zoomPlus">
                        <use xlink:href="#rim" fill="#404040">
                                <set attributeName="fill" to="#808080" begin="zoomplus.mouseover" end="zoomplus.mouseout"/>
                        </use>
                        <path d="M-4,0h8M0,-4v8" fill="none" stroke="white" stroke-width="1.5" pointer-events="none"/>
                </g>
                <g id="zoomMin">
                        <use xlink:href="#rim" fill="#404040">
                                <set attributeName="fill" to="#808080" begin="zoomminus.mouseover" end="zoomminus.mouseout"/>
                        </use>
                        <path d="M-4,0h8" fill="none" stroke="white" stroke-width="1.5" pointer-events="none"/>
                </g>
                <g id="dirArrow">
                        <path fill="none" stroke="white" stroke-width="1.5" d="M0,-3.0v7 M-2.5,-0.5L0,-3.0L2.5,-0.5"/>
                </g>
               <g id="resetDef">
                       <use xlink:href="#rim2" fill="#404040">
                               <set attributeName="fill" to="#808080" begin="reset.mouseover" end="reset.mouseout"/>
                       </use>
               </g>
        </defs>

<script type="text/javascript">
var viewWidth = 536;
var viewHeight = 736;
var sectionId = 'dynsection-0';
</script>
<script xlink:href="svgpan.js"/>
<svg id="graph" class="graph">
<g id="viewport">
<title>impala::HashTable::Bucket</title>
<polygon fill="white" stroke="none" points="-4,4 -4,-732 532,-732 532,4 -4,4"/>
<!-- Node1 -->
<g id="node1" class="node"><title>Node1</title>
<polygon fill="#bfbfbf" stroke="black" points="176,-1 176,-69 280,-69 280,-1 176,-1"/>
<text text-anchor="start" x="184" y="-57" font-family="Helvetica,sans-Serif" font-size="10.00">impala::HashTable::</text>
<text text-anchor="middle" x="228" y="-46" font-family="Helvetica,sans-Serif" font-size="10.00">Bucket</text>
<polyline fill="none" stroke="black" points="176,-39 280,-39 "/>
<text text-anchor="middle" x="228" y="-27" font-family="Helvetica,sans-Serif" font-size="10.00"> </text>
<polyline fill="none" stroke="black" points="176,-20 280,-20 "/>
<text text-anchor="middle" x="228" y="-8" font-family="Helvetica,sans-Serif" font-size="10.00"> </text>
</g>
<!-- Node2 -->
<g id="node2" class="node"><title>Node2</title>
<polygon fill="white" stroke="#bfbfbf" points="-0.5,-124 -0.5,-182 28.5,-182 28.5,-124 -0.5,-124"/>
<polyline fill="none" stroke="#bfbfbf" points="-0.5,-162 28.5,-162 "/>
<text text-anchor="middle" x="14" y="-150" font-family="Helvetica,sans-Serif" font-size="10.00"> </text>
<polyline fill="none" stroke="#bfbfbf" points="-0.5,-143 28.5,-143 "/>
<text text-anchor="middle" x="14" y="-131" font-family="Helvetica,sans-Serif" font-size="10.00"> </text>
</g>
<!-- Node2&#45;&gt;Node1 -->
<g id="edge1" class="edge"><title>Node2&#45;&gt;Node1</title>
<path fill="none" stroke="#404040" d="M7.28848,-123.911C6.03614,-111.677 7.09865,-97.9021 15,-88 33.4692,-64.854 108.163,-50.6352 163.918,-43.0419"/>
<polygon fill="none" stroke="#404040" points="163.958,-43.0368 169.387,-38.2906 175.856,-41.4765 170.427,-46.2227 163.958,-43.0368"/>
<text text-anchor="middle" x="45" y="-91.5" font-family="Helvetica,sans-Serif" font-size="10.00"> +bucketData</text>
</g>
<!-- Node3 -->
<g id="node3" class="node"><title>Node3</title>
<g id="a_node3"><a xlink:href="structimpala_1_1HashTable_1_1DuplicateNode.html" target="_top" xlink:title="Linked list of entries used for duplicates. ">
<polygon fill="white" stroke="black" points="176,-119 176,-187 280,-187 280,-119 176,-119"/>
<text text-anchor="start" x="184" y="-175" font-family="Helvetica,sans-Serif" font-size="10.00">impala::HashTable::</text>
<text text-anchor="middle" x="228" y="-164" font-family="Helvetica,sans-Serif" font-size="10.00">DuplicateNode</text>
<polyline fill="none" stroke="black" points="176,-157 280,-157 "/>
<text text-anchor="middle" x="228" y="-145" font-family="Helvetica,sans-Serif" font-size="10.00"> </text>
<polyline fill="none" stroke="black" points="176,-138 280,-138 "/>
<text text-anchor="middle" x="228" y="-126" font-family="Helvetica,sans-Serif" font-size="10.00"> </text>
</a>
</g>
</g>
<!-- Node3&#45;&gt;Node1 -->
<g id="edge2" class="edge"><title>Node3&#45;&gt;Node1</title>
<path fill="none" stroke="#404040" d="M228,-118.759C228,-107.11 228,-93.8205 228,-81.3509"/>
<polygon fill="none" stroke="#404040" points="228,-81.2458 224,-75.2458 228,-69.2458 232,-75.2458 228,-81.2458"/>
<text text-anchor="middle" x="255" y="-91.5" font-family="Helvetica,sans-Serif" font-size="10.00"> +duplicates</text>
</g>
<!-- Node3&#45;&gt;Node3 -->
<g id="edge3" class="edge"><title>Node3&#45;&gt;Node3</title>
<path fill="none" stroke="#404040" d="M280.202,-163.426C290.592,-162.253 298,-158.777 298,-153 298,-149.841 295.784,-147.369 292.077,-145.587"/>
<polygon fill="none" stroke="#404040" points="291.834,-145.525 285.034,-147.927 280.202,-142.574 287.002,-140.172 291.834,-145.525"/>
<text text-anchor="middle" x="312" y="-150.5" font-family="Helvetica,sans-Serif" font-size="10.00"> +next</text>
</g>
<!-- Node4 -->
<g id="node4" class="node"><title>Node4</title>
<g id="a_node4"><a xlink:href="classbool.html" target="_top" xlink:title="{bool\n||}">
<polygon fill="white" stroke="black" points="143.5,-242.5 143.5,-299.5 178.5,-299.5 178.5,-242.5 143.5,-242.5"/>
<text text-anchor="middle" x="161" y="-287.5" font-family="Helvetica,sans-Serif" font-size="10.00">bool</text>
<polyline fill="none" stroke="black" points="143.5,-280.5 178.5,-280.5 "/>
<text text-anchor="middle" x="161" y="-268.5" font-family="Helvetica,sans-Serif" font-size="10.00"> </text>
<polyline fill="none" stroke="black" points="143.5,-261.5 178.5,-261.5 "/>
<text text-anchor="middle" x="161" y="-249.5" font-family="Helvetica,sans-Serif" font-size="10.00"> </text>
</a>
</g>
</g>
<!-- Node4&#45;&gt;Node1 -->
<g id="edge11" class="edge"><title>Node4&#45;&gt;Node1</title>
<path fill="none" stroke="#404040" d="M143.499,-254.083C128.159,-238.85 106.953,-214.347 98,-188 87.9907,-158.543 82.9746,-145.242 98,-118 112.49,-91.728 139.33,-72.7156 164.875,-59.6539"/>
<polygon fill="none" stroke="#404040" points="164.901,-59.6413 168.561,-53.4279 175.704,-54.4165 172.044,-60.6299 164.901,-59.6413"/>
<text text-anchor="middle" x="132.5" y="-161.5" font-family="Helvetica,sans-Serif" font-size="10.00"> +filled</text>
<text text-anchor="middle" x="132.5" y="-150.5" font-family="Helvetica,sans-Serif" font-size="10.00">+hasDuplicates</text>
<text text-anchor="middle" x="132.5" y="-139.5" font-family="Helvetica,sans-Serif" font-size="10.00">+matched</text>
</g>
<!-- Node4&#45;&gt;Node3 -->
<g id="edge4" class="edge"><title>Node4&#45;&gt;Node3</title>
<path fill="none" stroke="#404040" d="M177.048,-242.215C184.712,-228.947 194.066,-212.752 202.657,-197.877"/>
<polygon fill="none" stroke="#404040" points="202.742,-197.731 202.279,-190.534 208.744,-187.339 209.206,-194.536 202.742,-197.731"/>
<text text-anchor="middle" x="220.5" y="-209.5" font-family="Helvetica,sans-Serif" font-size="10.00"> +matched</text>
</g>
<!-- Node5 -->
<g id="node5" class="node"><title>Node5</title>
<g id="a_node5"><a xlink:href="unionimpala_1_1HashTable_1_1HtData.html" target="_top" xlink:title="Either the row in the tuple stream or a pointer to the single tuple of this row. ">
<polygon fill="white" stroke="black" points="242,-237 242,-305 346,-305 346,-237 242,-237"/>
<text text-anchor="start" x="250" y="-293" font-family="Helvetica,sans-Serif" font-size="10.00">impala::HashTable::</text>
<text text-anchor="middle" x="294" y="-282" font-family="Helvetica,sans-Serif" font-size="10.00">HtData</text>
<polyline fill="none" stroke="black" points="242,-275 346,-275 "/>
<text text-anchor="middle" x="294" y="-263" font-family="Helvetica,sans-Serif" font-size="10.00"> </text>
<polyline fill="none" stroke="black" points="242,-256 346,-256 "/>
<text text-anchor="middle" x="294" y="-244" font-family="Helvetica,sans-Serif" font-size="10.00"> </text>
</a>
</g>
</g>
<!-- Node5&#45;&gt;Node1 -->
<g id="edge12" class="edge"><title>Node5&#45;&gt;Node1</title>
<path fill="none" stroke="#404040" d="M316,-236.953C334.142,-205.24 354.051,-156.603 335,-118 325.259,-98.2629 308.235,-81.961 290.594,-69.2339"/>
<polygon fill="none" stroke="#404040" points="290.108,-68.9036 282.898,-68.8365 280.186,-62.1545 287.397,-62.2216 290.108,-68.9036"/>
<text text-anchor="middle" x="361.5" y="-150.5" font-family="Helvetica,sans-Serif" font-size="10.00"> +htdata</text>
</g>
<!-- Node5&#45;&gt;Node3 -->
<g id="edge5" class="edge"><title>Node5&#45;&gt;Node3</title>
<path fill="none" stroke="#404040" d="M275.087,-236.759C268.183,-224.625 260.266,-210.71 252.919,-197.797"/>
<polygon fill="none" stroke="#404040" points="252.85,-197.676 246.406,-194.439 246.916,-187.246 253.36,-190.483 252.85,-197.676"/>
<text text-anchor="middle" x="281.5" y="-209.5" font-family="Helvetica,sans-Serif" font-size="10.00"> +htdata</text>
</g>
<!-- Node6 -->
<g id="node6" class="node"><title>Node6</title>
<g id="a_node6"><a xlink:href="structimpala_1_1BufferedTupleStream_1_1RowIdx.html" target="_top" xlink:title="{impala::BufferedTupleStream\l::RowIdx\n||+ block()\l+ offset()\l+ idx()\l+ set()\l+ DebugString()\l}">
<polygon fill="white" stroke="black" points="166.5,-399 166.5,-511 309.5,-511 309.5,-399 166.5,-399"/>
<text text-anchor="start" x="174.5" y="-499" font-family="Helvetica,sans-Serif" font-size="10.00">impala::BufferedTupleStream</text>
<text text-anchor="middle" x="238" y="-488" font-family="Helvetica,sans-Serif" font-size="10.00">::RowIdx</text>
<polyline fill="none" stroke="black" points="166.5,-481 309.5,-481 "/>
<text text-anchor="middle" x="238" y="-469" font-family="Helvetica,sans-Serif" font-size="10.00"> </text>
<polyline fill="none" stroke="black" points="166.5,-462 309.5,-462 "/>
<text text-anchor="start" x="174.5" y="-450" font-family="Helvetica,sans-Serif" font-size="10.00">+ block()</text>
<text text-anchor="start" x="174.5" y="-439" font-family="Helvetica,sans-Serif" font-size="10.00">+ offset()</text>
<text text-anchor="start" x="174.5" y="-428" font-family="Helvetica,sans-Serif" font-size="10.00">+ idx()</text>
<text text-anchor="start" x="174.5" y="-417" font-family="Helvetica,sans-Serif" font-size="10.00">+ set()</text>
<text text-anchor="start" x="174.5" y="-406" font-family="Helvetica,sans-Serif" font-size="10.00">+ DebugString()</text>
</a>
</g>
</g>
<!-- Node6&#45;&gt;Node5 -->
<g id="edge6" class="edge"><title>Node6&#45;&gt;Node5</title>
<path fill="none" stroke="#404040" d="M254.954,-398.9C263.032,-372.646 272.571,-341.644 280.198,-316.855"/>
<polygon fill="none" stroke="#404040" points="280.245,-316.702 278.187,-309.791 283.775,-305.233 285.833,-312.144 280.245,-316.702"/>
<text text-anchor="middle" x="289" y="-327.5" font-family="Helvetica,sans-Serif" font-size="10.00"> +idx</text>
</g>
<!-- Node7 -->
<g id="node7" class="node"><title>Node7</title>
<g id="a_node7"><a xlink:href="classuint64__t.html" target="_top" xlink:title="{uint64_t\n||}">
<polygon fill="white" stroke="black" points="212.5,-670.5 212.5,-727.5 263.5,-727.5 263.5,-670.5 212.5,-670.5"/>
<text text-anchor="middle" x="238" y="-715.5" font-family="Helvetica,sans-Serif" font-size="10.00">uint64_t</text>
<polyline fill="none" stroke="black" points="212.5,-708.5 263.5,-708.5 "/>
<text text-anchor="middle" x="238" y="-696.5" font-family="Helvetica,sans-Serif" font-size="10.00"> </text>
<polyline fill="none" stroke="black" points="212.5,-689.5 263.5,-689.5 "/>
<text text-anchor="middle" x="238" y="-677.5" font-family="Helvetica,sans-Serif" font-size="10.00"> </text>
</a>
</g>
</g>
<!-- Node7&#45;&gt;Node6 -->
<g id="edge7" class="edge"><title>Node7&#45;&gt;Node6</title>
<path fill="none" stroke="#404040" d="M238,-670.24C238,-634.72 238,-572.003 238,-523.573"/>
<polygon fill="none" stroke="#404040" points="238,-523.278 234,-517.278 238,-511.278 242,-517.278 238,-523.278"/>
<text text-anchor="middle" x="278" y="-643.5" font-family="Helvetica,sans-Serif" font-size="10.00"> +data</text>
<text text-anchor="middle" x="278" y="-632.5" font-family="Helvetica,sans-Serif" font-size="10.00">+OFFSET_SHIFT</text>
<text text-anchor="middle" x="278" y="-621.5" font-family="Helvetica,sans-Serif" font-size="10.00">+IDX_MASK</text>
<text text-anchor="middle" x="278" y="-610.5" font-family="Helvetica,sans-Serif" font-size="10.00">+BLOCK_MASK</text>
<text text-anchor="middle" x="278" y="-599.5" font-family="Helvetica,sans-Serif" font-size="10.00">+BLOCK_SHIFT</text>
<text text-anchor="middle" x="278" y="-588.5" font-family="Helvetica,sans-Serif" font-size="10.00">+OFFSET_MASK</text>
<text text-anchor="middle" x="278" y="-577.5" font-family="Helvetica,sans-Serif" font-size="10.00">+IDX_SHIFT</text>
</g>
<!-- Node8 -->
<g id="node8" class="node"><title>Node8</title>
<g id="a_node8"><a xlink:href="classimpala_1_1Tuple.html" target="_top" xlink:title="A tuple with 0 materialised slots is represented as NULL. ">
<polygon fill="white" stroke="black" points="327.5,-355 327.5,-555 512.5,-555 512.5,-355 327.5,-355"/>
<text text-anchor="middle" x="420" y="-543" font-family="Helvetica,sans-Serif" font-size="10.00">impala::Tuple</text>
<polyline fill="none" stroke="black" points="327.5,-536 512.5,-536 "/>
<text text-anchor="middle" x="420" y="-524" font-family="Helvetica,sans-Serif" font-size="10.00"> </text>
<polyline fill="none" stroke="black" points="327.5,-517 512.5,-517 "/>
<text text-anchor="start" x="335.5" y="-505" font-family="Helvetica,sans-Serif" font-size="10.00">+ Init()</text>
<text text-anchor="start" x="335.5" y="-494" font-family="Helvetica,sans-Serif" font-size="10.00">+ DeepCopy()</text>
<text text-anchor="start" x="335.5" y="-483" font-family="Helvetica,sans-Serif" font-size="10.00">+ DeepCopy()</text>
<text text-anchor="start" x="335.5" y="-472" font-family="Helvetica,sans-Serif" font-size="10.00">+ DeepCopy()</text>
<text text-anchor="start" x="335.5" y="-461" font-family="Helvetica,sans-Serif" font-size="10.00">+ MaterializeExprs()</text>
<text text-anchor="start" x="335.5" y="-450" font-family="Helvetica,sans-Serif" font-size="10.00">+ SetNull()</text>
<text text-anchor="start" x="335.5" y="-439" font-family="Helvetica,sans-Serif" font-size="10.00">+ SetNotNull()</text>
<text text-anchor="start" x="335.5" y="-428" font-family="Helvetica,sans-Serif" font-size="10.00">+ IsNull()</text>
<text text-anchor="start" x="335.5" y="-417" font-family="Helvetica,sans-Serif" font-size="10.00">+ GetSlot()</text>
<text text-anchor="start" x="335.5" y="-406" font-family="Helvetica,sans-Serif" font-size="10.00">+ GetSlot()</text>
<text text-anchor="start" x="335.5" y="-395" font-family="Helvetica,sans-Serif" font-size="10.00">+ GetStringSlot()</text>
<text text-anchor="start" x="335.5" y="-384" font-family="Helvetica,sans-Serif" font-size="10.00">+ MaterializeExprs()</text>
<text text-anchor="start" x="335.5" y="-373" font-family="Helvetica,sans-Serif" font-size="10.00">+ Create()</text>
<text text-anchor="start" x="335.5" y="-362" font-family="Helvetica,sans-Serif" font-size="10.00">&#45; DISALLOW_COPY_AND_ASSIGN()</text>
</a>
</g>
</g>
<!-- Node8&#45;&gt;Node5 -->
<g id="edge8" class="edge"><title>Node8&#45;&gt;Node5</title>
<path fill="none" stroke="#404040" d="M351.285,-354.745C341.754,-340.978 332.398,-327.464 324.101,-315.479"/>
<polygon fill="none" stroke="#404040" points="323.935,-315.239 317.231,-312.583 317.104,-305.373 323.808,-308.029 323.935,-315.239"/>
<text text-anchor="middle" x="350.5" y="-327.5" font-family="Helvetica,sans-Serif" font-size="10.00"> +tuple</text>
</g>
<!-- Node9 -->
<g id="node9" class="node"><title>Node9</title>
<polygon fill="white" stroke="#bfbfbf" points="402.5,-670.5 402.5,-727.5 437.5,-727.5 437.5,-670.5 402.5,-670.5"/>
<text text-anchor="middle" x="420" y="-715.5" font-family="Helvetica,sans-Serif" font-size="10.00">char</text>
<polyline fill="none" stroke="#bfbfbf" points="402.5,-708.5 437.5,-708.5 "/>
<text text-anchor="middle" x="420" y="-696.5" font-family="Helvetica,sans-Serif" font-size="10.00"> </text>
<polyline fill="none" stroke="#bfbfbf" points="402.5,-689.5 437.5,-689.5 "/>
<text text-anchor="middle" x="420" y="-677.5" font-family="Helvetica,sans-Serif" font-size="10.00"> </text>
</g>
<!-- Node9&#45;&gt;Node8 -->
<g id="edge9" class="edge"><title>Node9&#45;&gt;Node8</title>
<path fill="none" stroke="#404040" d="M420,-670.24C420,-644.809 420,-605.437 420,-567.349"/>
<polygon fill="none" stroke="#404040" points="420,-567.047 416,-561.047 420,-555.047 424,-561.047 420,-567.047"/>
<text text-anchor="middle" x="474" y="-610.5" font-family="Helvetica,sans-Serif" font-size="10.00"> +LLVM_CLASS_NAME</text>
</g>
<!-- Node10 -->
<g id="node10" class="node"><title>Node10</title>
<polygon fill="white" stroke="#bfbfbf" points="417.5,-124.5 417.5,-181.5 468.5,-181.5 468.5,-124.5 417.5,-124.5"/>
<text text-anchor="middle" x="443" y="-169.5" font-family="Helvetica,sans-Serif" font-size="10.00">uint32_t</text>
<polyline fill="none" stroke="#bfbfbf" points="417.5,-162.5 468.5,-162.5 "/>
<text text-anchor="middle" x="443" y="-150.5" font-family="Helvetica,sans-Serif" font-size="10.00"> </text>
<polyline fill="none" stroke="#bfbfbf" points="417.5,-143.5 468.5,-143.5 "/>
<text text-anchor="middle" x="443" y="-131.5" font-family="Helvetica,sans-Serif" font-size="10.00"> </text>
</g>
<!-- Node10&#45;&gt;Node1 -->
<g id="edge10" class="edge"><title>Node10&#45;&gt;Node1</title>
<path fill="none" stroke="#404040" d="M419.074,-124.267C407.154,-111.811 391.906,-97.7562 376,-88 350.216,-72.1851 318.948,-60.3051 291.807,-51.9224"/>
<polygon fill="none" stroke="#404040" points="291.563,-51.8498 284.671,-53.9736 280.06,-48.4293 286.952,-46.3055 291.563,-51.8498"/>
<text text-anchor="middle" x="408.5" y="-91.5" font-family="Helvetica,sans-Serif" font-size="10.00"> +hash</text>
</g>
</g>
</svg>
        <g id="navigator" transform="translate(0 0)" fill="#404254">
                <rect fill="#f2f5e9" fill-opacity="0.5" stroke="#606060" stroke-width=".5" x="0" y="0" width="60" height="60"/>
                <use id="zoomplus" xlink:href="#zoomPlus" x="17" y="9" onmousedown="handleZoom(evt,'in')"/>
                <use id="zoomminus" xlink:href="#zoomMin" x="42" y="9" onmousedown="handleZoom(evt,'out')"/>
                <use id="reset" xlink:href="#resetDef" x="30" y="36" onmousedown="handleReset()"/>
                <g id="arrowUp" xlink:href="#dirArrow" transform="translate(30 24)" onmousedown="handlePan(0,-1)">
                  <use xlink:href="#rim" fill="#404040">
                        <set attributeName="fill" to="#808080" begin="arrowUp.mouseover" end="arrowUp.mouseout"/>
                  </use>
                  <path fill="none" stroke="white" stroke-width="1.5" d="M0,-3.0v7 M-2.5,-0.5L0,-3.0L2.5,-0.5"/>
                </g>
                <g id="arrowRight" xlink:href="#dirArrow" transform="rotate(90) translate(36 -43)" onmousedown="handlePan(1,0)">
                  <use xlink:href="#rim" fill="#404040">
                        <set attributeName="fill" to="#808080" begin="arrowRight.mouseover" end="arrowRight.mouseout"/>
                  </use>
                  <path fill="none" stroke="white" stroke-width="1.5" d="M0,-3.0v7 M-2.5,-0.5L0,-3.0L2.5,-0.5"/>
                </g>
                <g id="arrowDown" xlink:href="#dirArrow" transform="rotate(180) translate(-30 -48)" onmousedown="handlePan(0,1)">
                  <use xlink:href="#rim" fill="#404040">
                        <set attributeName="fill" to="#808080" begin="arrowDown.mouseover" end="arrowDown.mouseout"/>
                  </use>
                  <path fill="none" stroke="white" stroke-width="1.5" d="M0,-3.0v7 M-2.5,-0.5L0,-3.0L2.5,-0.5"/>
                </g>
                <g id="arrowLeft" xlink:href="#dirArrow" transform="rotate(270) translate(-36 17)" onmousedown="handlePan(-1,0)">
                  <use xlink:href="#rim" fill="#404040">
                        <set attributeName="fill" to="#808080" begin="arrowLeft.mouseover" end="arrowLeft.mouseout"/>
                  </use>
                  <path fill="none" stroke="white" stroke-width="1.5" d="M0,-3.0v7 M-2.5,-0.5L0,-3.0L2.5,-0.5"/>
                </g>
        </g>
        <svg viewBox="0 0 15 15" width="100%" height="30px" preserveAspectRatio="xMaxYMin meet">
         <g id="arrow_out" transform="scale(0.3 0.3)">
          <a xlink:href="structimpala_1_1HashTable_1_1Bucket__coll__graph_org.svg" target="_base">
           <rect id="button" ry="5" rx="5" y="6" x="6" height="38" width="38"
                fill="#f2f5e9" fill-opacity="0.5" stroke="#606060" stroke-width="1.0"/>
           <path id="arrow"
             d="M 11.500037,31.436501 C 11.940474,20.09759 22.043105,11.32322 32.158766,21.979434 L 37.068811,17.246167 C 37.068811,17.246167 37.088388,32 37.088388,32 L 22.160133,31.978069 C 22.160133,31.978069 26.997745,27.140456 26.997745,27.140456 C 18.528582,18.264221 13.291696,25.230495 11.500037,31.436501 z"
             style="fill:#404040;"/>
          </a>
         </g>
        </svg>
</svg>
