<?xml version="1.0" encoding="UTF-8" standalone="no"?>
<!DOCTYPE svg PUBLIC "-//W3C//DTD SVG 1.1//EN"
 "http://www.w3.org/Graphics/SVG/1.1/DTD/svg11.dtd">
<!-- Generated by graphviz version 2.36.0 (20140111.2315)
 -->
<!-- Title: impala::HashTNetworkAddressPtr Pages: 1 -->
<svg width="174pt" height="182pt"
 viewBox="0.00 0.00 174.00 182.00" xmlns="http://www.w3.org/2000/svg" xmlns:xlink="http://www.w3.org/1999/xlink">
<g id="graph0" class="graph" transform="scale(1 1) rotate(0) translate(4 178)">
<title>impala::HashTNetworkAddressPtr</title>
<polygon fill="white" stroke="none" points="-4,4 -4,-178 170,-178 170,4 -4,4"/>
<!-- Node1 -->
<g id="node1" class="node"><title>Node1</title>
<polygon fill="#bfbfbf" stroke="black" points="0,-0.5 0,-57.5 166,-57.5 166,-0.5 0,-0.5"/>
<text text-anchor="middle" x="83" y="-45.5" font-family="Helvetica,sans-Serif" font-size="10.00">impala::HashTNetworkAddressPtr</text>
<polyline fill="none" stroke="black" points="0,-38.5 166,-38.5 "/>
<text text-anchor="middle" x="83" y="-26.5" font-family="Helvetica,sans-Serif" font-size="10.00"> </text>
<polyline fill="none" stroke="black" points="0,-19.5 166,-19.5 "/>
<text text-anchor="start" x="8" y="-7.5" font-family="Helvetica,sans-Serif" font-size="10.00">+ operator()()</text>
</g>
<!-- Node2 -->
<g id="node2" class="node"><title>Node2</title>
<polygon fill="white" stroke="#bfbfbf" points="26,-94.5 26,-173.5 140,-173.5 140,-94.5 26,-94.5"/>
<text text-anchor="start" x="34" y="-161.5" font-family="Helvetica,sans-Serif" font-size="10.00">std::unary_function</text>
<text text-anchor="start" x="34" y="-150.5" font-family="Helvetica,sans-Serif" font-size="10.00">&lt; TNetworkAddress *,</text>
<text text-anchor="middle" x="83" y="-139.5" font-family="Helvetica,sans-Serif" font-size="10.00"> size_t &gt;</text>
<polyline fill="none" stroke="#bfbfbf" points="26,-132.5 140,-132.5 "/>
<text text-anchor="middle" x="83" y="-120.5" font-family="Helvetica,sans-Serif" font-size="10.00"> </text>
<polyline fill="none" stroke="#bfbfbf" points="26,-113.5 140,-113.5 "/>
<text text-anchor="middle" x="83" y="-101.5" font-family="Helvetica,sans-Serif" font-size="10.00"> </text>
</g>
<!-- Node2&#45;&gt;Node1 -->
<g id="edge1" class="edge"><title>Node2&#45;&gt;Node1</title>
<path fill="none" stroke="midnightblue" d="M83,-84.1628C83,-75.0404 83,-65.8063 83,-57.6095"/>
<polygon fill="none" stroke="midnightblue" points="79.5001,-84.3535 83,-94.3536 86.5001,-84.3536 79.5001,-84.3535"/>
</g>
</g>
</svg>
