<?xml version="1.0" encoding="UTF-8" standalone="no"?>
<!DOCTYPE svg PUBLIC "-//W3C//DTD SVG 1.1//EN"
 "http://www.w3.org/Graphics/SVG/1.1/DTD/svg11.dtd">
<!-- Generated by graphviz version 2.36.0 (20140111.2315)
 -->
<!-- Title: impala::LlvmCodeGen::NamedVariable Pages: 1 -->
<svg width="120pt" height="184pt"
 viewBox="0.00 0.00 120.00 184.00" xmlns="http://www.w3.org/2000/svg" xmlns:xlink="http://www.w3.org/1999/xlink">
<g id="graph0" class="graph" transform="scale(1 1) rotate(0) translate(4 180)">
<title>impala::LlvmCodeGen::NamedVariable</title>
<polygon fill="white" stroke="none" points="-4,4 -4,-180 116,-180 116,4 -4,4"/>
<!-- Node1 -->
<g id="node1" class="node"><title>Node1</title>
<polygon fill="#bfbfbf" stroke="black" points="-0.5,-1 -0.5,-69 112.5,-69 112.5,-1 -0.5,-1"/>
<text text-anchor="start" x="7.5" y="-57" font-family="Helvetica,sans-Serif" font-size="10.00">impala::LlvmCodeGen</text>
<text text-anchor="middle" x="56" y="-46" font-family="Helvetica,sans-Serif" font-size="10.00">::NamedVariable</text>
<polyline fill="none" stroke="black" points="-0.5,-39 112.5,-39 "/>
<text text-anchor="middle" x="56" y="-27" font-family="Helvetica,sans-Serif" font-size="10.00"> </text>
<polyline fill="none" stroke="black" points="-0.5,-20 112.5,-20 "/>
<text text-anchor="start" x="7.5" y="-8" font-family="Helvetica,sans-Serif" font-size="10.00">+ NamedVariable()</text>
</g>
<!-- Node2 -->
<g id="node2" class="node"><title>Node2</title>
<polygon fill="white" stroke="#bfbfbf" points="3.5,-118.5 3.5,-175.5 48.5,-175.5 48.5,-118.5 3.5,-118.5"/>
<text text-anchor="middle" x="26" y="-163.5" font-family="Helvetica,sans-Serif" font-size="10.00">Type *</text>
<polyline fill="none" stroke="#bfbfbf" points="3.5,-156.5 48.5,-156.5 "/>
<text text-anchor="middle" x="26" y="-144.5" font-family="Helvetica,sans-Serif" font-size="10.00"> </text>
<polyline fill="none" stroke="#bfbfbf" points="3.5,-137.5 48.5,-137.5 "/>
<text text-anchor="middle" x="26" y="-125.5" font-family="Helvetica,sans-Serif" font-size="10.00"> </text>
</g>
<!-- Node2&#45;&gt;Node1 -->
<g id="edge1" class="edge"><title>Node2&#45;&gt;Node1</title>
<path fill="none" stroke="#404040" d="M30.2959,-118.35C32.0489,-108.672 34.3047,-97.7819 37,-88 37.6682,-85.5749 38.3984,-83.1021 39.1709,-80.6168"/>
<polygon fill="none" stroke="#404040" points="39.2377,-80.4154 37.3329,-73.4604 43.0203,-69.0271 44.9251,-75.9821 39.2377,-80.4154"/>
<text text-anchor="middle" x="51" y="-91.5" font-family="Helvetica,sans-Serif" font-size="10.00"> +type</text>
</g>
<!-- Node3 -->
<g id="node3" class="node"><title>Node3</title>
<polygon fill="white" stroke="#bfbfbf" points="66.5,-118.5 66.5,-175.5 107.5,-175.5 107.5,-118.5 66.5,-118.5"/>
<text text-anchor="middle" x="87" y="-163.5" font-family="Helvetica,sans-Serif" font-size="10.00">string</text>
<polyline fill="none" stroke="#bfbfbf" points="66.5,-156.5 107.5,-156.5 "/>
<text text-anchor="middle" x="87" y="-144.5" font-family="Helvetica,sans-Serif" font-size="10.00"> </text>
<polyline fill="none" stroke="#bfbfbf" points="66.5,-137.5 107.5,-137.5 "/>
<text text-anchor="middle" x="87" y="-125.5" font-family="Helvetica,sans-Serif" font-size="10.00"> </text>
</g>
<!-- Node3&#45;&gt;Node1 -->
<g id="edge2" class="edge"><title>Node3&#45;&gt;Node1</title>
<path fill="none" stroke="#404040" d="M79.1774,-118.242C75.9967,-106.956 72.2391,-93.6225 68.6856,-81.0134"/>
<polygon fill="none" stroke="#404040" points="68.6218,-80.7869 63.1442,-76.0969 65.3667,-69.2368 70.8443,-73.9268 68.6218,-80.7869"/>
<text text-anchor="middle" x="90" y="-91.5" font-family="Helvetica,sans-Serif" font-size="10.00"> +name</text>
</g>
</g>
</svg>
