<?xml version="1.0" encoding="UTF-8" standalone="no"?>
<!DOCTYPE svg PUBLIC "-//W3C//DTD SVG 1.1//EN"
 "http://www.w3.org/Graphics/SVG/1.1/DTD/svg11.dtd">
<!-- Generated by graphviz version 2.36.0 (20140111.2315)
 -->
<!-- Title: impala::ScopedLimitResetter Pages: 1 -->
<svg width="150pt" height="184pt"
 viewBox="0.00 0.00 150.00 184.00" xmlns="http://www.w3.org/2000/svg" xmlns:xlink="http://www.w3.org/1999/xlink">
<g id="graph0" class="graph" transform="scale(1 1) rotate(0) translate(4 180)">
<title>impala::ScopedLimitResetter</title>
<polygon fill="white" stroke="none" points="-4,4 -4,-180 146,-180 146,4 -4,4"/>
<!-- Node1 -->
<g id="node1" class="node"><title>Node1</title>
<polygon fill="#bfbfbf" stroke="black" points="-0.5,-1 -0.5,-69 142.5,-69 142.5,-1 -0.5,-1"/>
<text text-anchor="middle" x="71" y="-57" font-family="Helvetica,sans-Serif" font-size="10.00">impala::ScopedLimitResetter</text>
<polyline fill="none" stroke="black" points="-0.5,-50 142.5,-50 "/>
<text text-anchor="middle" x="71" y="-38" font-family="Helvetica,sans-Serif" font-size="10.00"> </text>
<polyline fill="none" stroke="black" points="-0.5,-31 142.5,-31 "/>
<text text-anchor="start" x="7.5" y="-19" font-family="Helvetica,sans-Serif" font-size="10.00">+ ScopedLimitResetter()</text>
<text text-anchor="start" x="7.5" y="-8" font-family="Helvetica,sans-Serif" font-size="10.00">+ ~ScopedLimitResetter()</text>
</g>
<!-- Node2 -->
<g id="node2" class="node"><title>Node2</title>
<polygon fill="white" stroke="#bfbfbf" points="52,-118.5 52,-175.5 90,-175.5 90,-118.5 52,-118.5"/>
<text text-anchor="middle" x="71" y="-163.5" font-family="Helvetica,sans-Serif" font-size="10.00">rlimit</text>
<polyline fill="none" stroke="#bfbfbf" points="52,-156.5 90,-156.5 "/>
<text text-anchor="middle" x="71" y="-144.5" font-family="Helvetica,sans-Serif" font-size="10.00"> </text>
<polyline fill="none" stroke="#bfbfbf" points="52,-137.5 90,-137.5 "/>
<text text-anchor="middle" x="71" y="-125.5" font-family="Helvetica,sans-Serif" font-size="10.00"> </text>
</g>
<!-- Node2&#45;&gt;Node1 -->
<g id="edge1" class="edge"><title>Node2&#45;&gt;Node1</title>
<path fill="none" stroke="#404040" d="M71,-118.242C71,-107.073 71,-93.8972 71,-81.4036"/>
<polygon fill="none" stroke="#404040" points="71.0001,-81.2368 67,-75.2368 71,-69.2368 75,-75.2367 71.0001,-81.2368"/>
<text text-anchor="middle" x="102" y="-91.5" font-family="Helvetica,sans-Serif" font-size="10.00"> &#45;limit_before_</text>
</g>
</g>
</svg>
