<?xml version="1.0" encoding="UTF-8" standalone="no"?>
<!DOCTYPE svg PUBLIC "-//W3C//DTD SVG 1.1//EN"
 "http://www.w3.org/Graphics/SVG/1.1/DTD/svg11.dtd">
<!-- Generated by graphviz version 2.36.0 (20140111.2315)
 -->
<!-- Title: impala_udf::AnyVal Pages: 1 -->
<!--zoomable 260 -->
<svg id="main" version="1.1" xmlns="http://www.w3.org/2000/svg" xmlns:xlink="http://www.w3.org/1999/xlink" xml:space="preserve" onload="init(evt)">
<style type="text/css"><![CDATA[
.edge:hover path { stroke: red; }
.edge:hover polygon { stroke: red; fill: red; }
]]></style>
<script type="text/javascript"><![CDATA[
var edges = document.getElementsByTagName('g');
if (edges && edges.length) {
  for (var i=0;i<edges.length;i++) {
    if (edges[i].id.substr(0,4)=='edge') {
      edges[i].setAttribute('class','edge');
    }
  }
}
]]></script>
        <defs>
                <circle id="rim" cx="0" cy="0" r="7"/>
                <circle id="rim2" cx="0" cy="0" r="3.5"/>
                <g id="zoomPlus">
                        <use xlink:href="#rim" fill="#404040">
                                <set attributeName="fill" to="#808080" begin="zoomplus.mouseover" end="zoomplus.mouseout"/>
                        </use>
                        <path d="M-4,0h8M0,-4v8" fill="none" stroke="white" stroke-width="1.5" pointer-events="none"/>
                </g>
                <g id="zoomMin">
                        <use xlink:href="#rim" fill="#404040">
                                <set attributeName="fill" to="#808080" begin="zoomminus.mouseover" end="zoomminus.mouseout"/>
                        </use>
                        <path d="M-4,0h8" fill="none" stroke="white" stroke-width="1.5" pointer-events="none"/>
                </g>
                <g id="dirArrow">
                        <path fill="none" stroke="white" stroke-width="1.5" d="M0,-3.0v7 M-2.5,-0.5L0,-3.0L2.5,-0.5"/>
                </g>
               <g id="resetDef">
                       <use xlink:href="#rim2" fill="#404040">
                               <set attributeName="fill" to="#808080" begin="reset.mouseover" end="reset.mouseout"/>
                       </use>
               </g>
        </defs>

<script type="text/javascript">
var viewWidth = 1316;
var viewHeight = 260;
var sectionId = 'dynsection-0';
</script>
<script xlink:href="svgpan.js"/>
<svg id="graph" class="graph">
<g id="viewport">
<title>impala_udf::AnyVal</title>
<polygon fill="white" stroke="none" points="-4,4 -4,-256 1312,-256 1312,4 -4,4"/>
<!-- Node1 -->
<g id="node1" class="node"><title>Node1</title>
<polygon fill="#bfbfbf" stroke="black" points="599.5,-194.5 599.5,-251.5 700.5,-251.5 700.5,-194.5 599.5,-194.5"/>
<text text-anchor="middle" x="650" y="-239.5" font-family="Helvetica,sans-Serif" font-size="10.00">impala_udf::AnyVal</text>
<polyline fill="none" stroke="black" points="599.5,-232.5 700.5,-232.5 "/>
<text text-anchor="start" x="607.5" y="-220.5" font-family="Helvetica,sans-Serif" font-size="10.00">+ is_null</text>
<polyline fill="none" stroke="black" points="599.5,-213.5 700.5,-213.5 "/>
<text text-anchor="start" x="607.5" y="-201.5" font-family="Helvetica,sans-Serif" font-size="10.00">+ AnyVal()</text>
</g>
<!-- Node2 -->
<g id="node2" class="node"><title>Node2</title>
<g id="a_node2"><a xlink:href="structimpala__udf_1_1BigIntVal.html" target="_top" xlink:title="{impala_udf::BigIntVal\n|+ val\l|+ BigIntVal()\l+ operator==()\l+ operator!=()\l+ null()\l}">
<polygon fill="white" stroke="black" points="0,-34 0,-124 110,-124 110,-34 0,-34"/>
<text text-anchor="middle" x="55" y="-112" font-family="Helvetica,sans-Serif" font-size="10.00">impala_udf::BigIntVal</text>
<polyline fill="none" stroke="black" points="0,-105 110,-105 "/>
<text text-anchor="start" x="8" y="-93" font-family="Helvetica,sans-Serif" font-size="10.00">+ val</text>
<polyline fill="none" stroke="black" points="0,-86 110,-86 "/>
<text text-anchor="start" x="8" y="-74" font-family="Helvetica,sans-Serif" font-size="10.00">+ BigIntVal()</text>
<text text-anchor="start" x="8" y="-63" font-family="Helvetica,sans-Serif" font-size="10.00">+ operator==()</text>
<text text-anchor="start" x="8" y="-52" font-family="Helvetica,sans-Serif" font-size="10.00">+ operator!=()</text>
<text text-anchor="start" x="8" y="-41" font-family="Helvetica,sans-Serif" font-size="10.00">+ null()</text>
</a>
</g>
</g>
<!-- Node1&#45;&gt;Node2 -->
<g id="edge1" class="edge"><title>Node1&#45;&gt;Node2</title>
<path fill="none" stroke="midnightblue" d="M588.929,-220.301C467.092,-216.003 198.695,-201.725 119,-158 104.411,-149.996 91.836,-137.19 81.7897,-124.25"/>
<polygon fill="none" stroke="midnightblue" points="589.086,-223.808 599.2,-220.652 589.325,-216.812 589.086,-223.808"/>
</g>
<!-- Node3 -->
<g id="node3" class="node"><title>Node3</title>
<g id="a_node3"><a xlink:href="structimpala__udf_1_1BooleanVal.html" target="_top" xlink:title="{impala_udf::BooleanVal\n|+ val\l|+ BooleanVal()\l+ operator==()\l+ operator!=()\l+ null()\l}">
<polygon fill="white" stroke="black" points="128.5,-34 128.5,-124 247.5,-124 247.5,-34 128.5,-34"/>
<text text-anchor="middle" x="188" y="-112" font-family="Helvetica,sans-Serif" font-size="10.00">impala_udf::BooleanVal</text>
<polyline fill="none" stroke="black" points="128.5,-105 247.5,-105 "/>
<text text-anchor="start" x="136.5" y="-93" font-family="Helvetica,sans-Serif" font-size="10.00">+ val</text>
<polyline fill="none" stroke="black" points="128.5,-86 247.5,-86 "/>
<text text-anchor="start" x="136.5" y="-74" font-family="Helvetica,sans-Serif" font-size="10.00">+ BooleanVal()</text>
<text text-anchor="start" x="136.5" y="-63" font-family="Helvetica,sans-Serif" font-size="10.00">+ operator==()</text>
<text text-anchor="start" x="136.5" y="-52" font-family="Helvetica,sans-Serif" font-size="10.00">+ operator!=()</text>
<text text-anchor="start" x="136.5" y="-41" font-family="Helvetica,sans-Serif" font-size="10.00">+ null()</text>
</a>
</g>
</g>
<!-- Node1&#45;&gt;Node3 -->
<g id="edge2" class="edge"><title>Node1&#45;&gt;Node3</title>
<path fill="none" stroke="midnightblue" d="M589.388,-217.122C493.783,-208.605 313.069,-188.921 257,-158 242.118,-149.793 228.862,-137.096 218.044,-124.314"/>
<polygon fill="none" stroke="midnightblue" points="589.222,-220.621 599.49,-218.009 589.834,-213.648 589.222,-220.621"/>
</g>
<!-- Node4 -->
<g id="node4" class="node"><title>Node4</title>
<g id="a_node4"><a xlink:href="structimpala__udf_1_1DecimalVal.html" target="_top" xlink:title="{impala_udf::DecimalVal\n|+ val4\l+ val8\l+ val16\l+ @18\l|+ DecimalVal()\l+ DecimalVal()\l+ DecimalVal()\l+ DecimalVal()\l+ operator=()\l+ DecimalVal()\l+ null()\l}">
<polygon fill="white" stroke="black" points="266,-1 266,-157 386,-157 386,-1 266,-1"/>
<text text-anchor="middle" x="326" y="-145" font-family="Helvetica,sans-Serif" font-size="10.00">impala_udf::DecimalVal</text>
<polyline fill="none" stroke="black" points="266,-138 386,-138 "/>
<text text-anchor="start" x="274" y="-126" font-family="Helvetica,sans-Serif" font-size="10.00">+ val4</text>
<text text-anchor="start" x="274" y="-115" font-family="Helvetica,sans-Serif" font-size="10.00">+ val8</text>
<text text-anchor="start" x="274" y="-104" font-family="Helvetica,sans-Serif" font-size="10.00">+ val16</text>
<text text-anchor="start" x="274" y="-93" font-family="Helvetica,sans-Serif" font-size="10.00">+ @18</text>
<polyline fill="none" stroke="black" points="266,-86 386,-86 "/>
<text text-anchor="start" x="274" y="-74" font-family="Helvetica,sans-Serif" font-size="10.00">+ DecimalVal()</text>
<text text-anchor="start" x="274" y="-63" font-family="Helvetica,sans-Serif" font-size="10.00">+ DecimalVal()</text>
<text text-anchor="start" x="274" y="-52" font-family="Helvetica,sans-Serif" font-size="10.00">+ DecimalVal()</text>
<text text-anchor="start" x="274" y="-41" font-family="Helvetica,sans-Serif" font-size="10.00">+ DecimalVal()</text>
<text text-anchor="start" x="274" y="-30" font-family="Helvetica,sans-Serif" font-size="10.00">+ operator=()</text>
<text text-anchor="start" x="274" y="-19" font-family="Helvetica,sans-Serif" font-size="10.00">+ DecimalVal()</text>
<text text-anchor="start" x="274" y="-8" font-family="Helvetica,sans-Serif" font-size="10.00">+ null()</text>
</a>
</g>
</g>
<!-- Node1&#45;&gt;Node4 -->
<g id="edge3" class="edge"><title>Node1&#45;&gt;Node4</title>
<path fill="none" stroke="midnightblue" d="M588.996,-216.953C534.727,-210.175 454.908,-194.419 395,-158 392.065,-156.216 389.185,-154.266 386.369,-152.187"/>
<polygon fill="none" stroke="midnightblue" points="588.817,-220.456 599.159,-218.155 589.639,-213.505 588.817,-220.456"/>
</g>
<!-- Node5 -->
<g id="node5" class="node"><title>Node5</title>
<g id="a_node5"><a xlink:href="structimpala__udf_1_1DoubleVal.html" target="_top" xlink:title="{impala_udf::DoubleVal\n|+ val\l|+ DoubleVal()\l+ operator==()\l+ operator!=()\l+ null()\l}">
<polygon fill="white" stroke="black" points="404.5,-34 404.5,-124 519.5,-124 519.5,-34 404.5,-34"/>
<text text-anchor="middle" x="462" y="-112" font-family="Helvetica,sans-Serif" font-size="10.00">impala_udf::DoubleVal</text>
<polyline fill="none" stroke="black" points="404.5,-105 519.5,-105 "/>
<text text-anchor="start" x="412.5" y="-93" font-family="Helvetica,sans-Serif" font-size="10.00">+ val</text>
<polyline fill="none" stroke="black" points="404.5,-86 519.5,-86 "/>
<text text-anchor="start" x="412.5" y="-74" font-family="Helvetica,sans-Serif" font-size="10.00">+ DoubleVal()</text>
<text text-anchor="start" x="412.5" y="-63" font-family="Helvetica,sans-Serif" font-size="10.00">+ operator==()</text>
<text text-anchor="start" x="412.5" y="-52" font-family="Helvetica,sans-Serif" font-size="10.00">+ operator!=()</text>
<text text-anchor="start" x="412.5" y="-41" font-family="Helvetica,sans-Serif" font-size="10.00">+ null()</text>
</a>
</g>
</g>
<!-- Node1&#45;&gt;Node5 -->
<g id="edge4" class="edge"><title>Node1&#45;&gt;Node5</title>
<path fill="none" stroke="midnightblue" d="M590.217,-195.967C569.778,-185.654 547.439,-172.724 529,-158 516.724,-148.198 504.971,-135.918 494.831,-124.022"/>
<polygon fill="none" stroke="midnightblue" points="588.936,-199.237 599.453,-200.518 592.03,-192.958 588.936,-199.237"/>
</g>
<!-- Node6 -->
<g id="node6" class="node"><title>Node6</title>
<g id="a_node6"><a xlink:href="structimpala__udf_1_1FloatVal.html" target="_top" xlink:title="{impala_udf::FloatVal\n|+ val\l|+ FloatVal()\l+ operator==()\l+ operator!=()\l+ null()\l}">
<polygon fill="white" stroke="black" points="538,-34 538,-124 644,-124 644,-34 538,-34"/>
<text text-anchor="middle" x="591" y="-112" font-family="Helvetica,sans-Serif" font-size="10.00">impala_udf::FloatVal</text>
<polyline fill="none" stroke="black" points="538,-105 644,-105 "/>
<text text-anchor="start" x="546" y="-93" font-family="Helvetica,sans-Serif" font-size="10.00">+ val</text>
<polyline fill="none" stroke="black" points="538,-86 644,-86 "/>
<text text-anchor="start" x="546" y="-74" font-family="Helvetica,sans-Serif" font-size="10.00">+ FloatVal()</text>
<text text-anchor="start" x="546" y="-63" font-family="Helvetica,sans-Serif" font-size="10.00">+ operator==()</text>
<text text-anchor="start" x="546" y="-52" font-family="Helvetica,sans-Serif" font-size="10.00">+ operator!=()</text>
<text text-anchor="start" x="546" y="-41" font-family="Helvetica,sans-Serif" font-size="10.00">+ null()</text>
</a>
</g>
</g>
<!-- Node1&#45;&gt;Node6 -->
<g id="edge5" class="edge"><title>Node1&#45;&gt;Node6</title>
<path fill="none" stroke="midnightblue" d="M634.609,-184.958C626.874,-166.34 617.445,-143.648 609.337,-124.132"/>
<polygon fill="none" stroke="midnightblue" points="631.415,-186.392 638.484,-194.284 637.879,-183.706 631.415,-186.392"/>
</g>
<!-- Node7 -->
<g id="node7" class="node"><title>Node7</title>
<g id="a_node7"><a xlink:href="structimpala__udf_1_1IntVal.html" target="_top" xlink:title="{impala_udf::IntVal\n|+ val\l|+ IntVal()\l+ operator==()\l+ operator!=()\l+ null()\l}">
<polygon fill="white" stroke="black" points="662.5,-34 662.5,-124 757.5,-124 757.5,-34 662.5,-34"/>
<text text-anchor="middle" x="710" y="-112" font-family="Helvetica,sans-Serif" font-size="10.00">impala_udf::IntVal</text>
<polyline fill="none" stroke="black" points="662.5,-105 757.5,-105 "/>
<text text-anchor="start" x="670.5" y="-93" font-family="Helvetica,sans-Serif" font-size="10.00">+ val</text>
<polyline fill="none" stroke="black" points="662.5,-86 757.5,-86 "/>
<text text-anchor="start" x="670.5" y="-74" font-family="Helvetica,sans-Serif" font-size="10.00">+ IntVal()</text>
<text text-anchor="start" x="670.5" y="-63" font-family="Helvetica,sans-Serif" font-size="10.00">+ operator==()</text>
<text text-anchor="start" x="670.5" y="-52" font-family="Helvetica,sans-Serif" font-size="10.00">+ operator!=()</text>
<text text-anchor="start" x="670.5" y="-41" font-family="Helvetica,sans-Serif" font-size="10.00">+ null()</text>
</a>
</g>
</g>
<!-- Node1&#45;&gt;Node7 -->
<g id="edge6" class="edge"><title>Node1&#45;&gt;Node7</title>
<path fill="none" stroke="midnightblue" d="M665.652,-184.958C673.518,-166.34 683.107,-143.648 691.353,-124.132"/>
<polygon fill="none" stroke="midnightblue" points="662.379,-183.71 661.711,-194.284 668.827,-186.435 662.379,-183.71"/>
</g>
<!-- Node8 -->
<g id="node8" class="node"><title>Node8</title>
<g id="a_node8"><a xlink:href="structimpala__udf_1_1SmallIntVal.html" target="_top" xlink:title="{impala_udf::SmallIntVal\n|+ val\l|+ SmallIntVal()\l+ operator==()\l+ operator!=()\l+ null()\l}">
<polygon fill="white" stroke="black" points="776,-34 776,-124 896,-124 896,-34 776,-34"/>
<text text-anchor="middle" x="836" y="-112" font-family="Helvetica,sans-Serif" font-size="10.00">impala_udf::SmallIntVal</text>
<polyline fill="none" stroke="black" points="776,-105 896,-105 "/>
<text text-anchor="start" x="784" y="-93" font-family="Helvetica,sans-Serif" font-size="10.00">+ val</text>
<polyline fill="none" stroke="black" points="776,-86 896,-86 "/>
<text text-anchor="start" x="784" y="-74" font-family="Helvetica,sans-Serif" font-size="10.00">+ SmallIntVal()</text>
<text text-anchor="start" x="784" y="-63" font-family="Helvetica,sans-Serif" font-size="10.00">+ operator==()</text>
<text text-anchor="start" x="784" y="-52" font-family="Helvetica,sans-Serif" font-size="10.00">+ operator!=()</text>
<text text-anchor="start" x="784" y="-41" font-family="Helvetica,sans-Serif" font-size="10.00">+ null()</text>
</a>
</g>
</g>
<!-- Node1&#45;&gt;Node8 -->
<g id="edge7" class="edge"><title>Node1&#45;&gt;Node8</title>
<path fill="none" stroke="midnightblue" d="M709.405,-194.161C728.345,-184.021 748.827,-171.656 766,-158 778.39,-148.148 790.444,-135.983 800.958,-124.216"/>
<polygon fill="none" stroke="midnightblue" points="707.773,-191.065 700.542,-198.808 711.024,-197.264 707.773,-191.065"/>
</g>
<!-- Node9 -->
<g id="node9" class="node"><title>Node9</title>
<g id="a_node9"><a xlink:href="structimpala__udf_1_1StringVal.html" target="_top" xlink:title="{impala_udf::StringVal\n|+ len\l+ ptr\l|+ StringVal()\l+ StringVal()\l+ StringVal()\l+ operator==()\l+ operator!=()\l+ null()\l}">
<polygon fill="white" stroke="black" points="914,-17.5 914,-140.5 1024,-140.5 1024,-17.5 914,-17.5"/>
<text text-anchor="middle" x="969" y="-128.5" font-family="Helvetica,sans-Serif" font-size="10.00">impala_udf::StringVal</text>
<polyline fill="none" stroke="black" points="914,-121.5 1024,-121.5 "/>
<text text-anchor="start" x="922" y="-109.5" font-family="Helvetica,sans-Serif" font-size="10.00">+ len</text>
<text text-anchor="start" x="922" y="-98.5" font-family="Helvetica,sans-Serif" font-size="10.00">+ ptr</text>
<polyline fill="none" stroke="black" points="914,-91.5 1024,-91.5 "/>
<text text-anchor="start" x="922" y="-79.5" font-family="Helvetica,sans-Serif" font-size="10.00">+ StringVal()</text>
<text text-anchor="start" x="922" y="-68.5" font-family="Helvetica,sans-Serif" font-size="10.00">+ StringVal()</text>
<text text-anchor="start" x="922" y="-57.5" font-family="Helvetica,sans-Serif" font-size="10.00">+ StringVal()</text>
<text text-anchor="start" x="922" y="-46.5" font-family="Helvetica,sans-Serif" font-size="10.00">+ operator==()</text>
<text text-anchor="start" x="922" y="-35.5" font-family="Helvetica,sans-Serif" font-size="10.00">+ operator!=()</text>
<text text-anchor="start" x="922" y="-24.5" font-family="Helvetica,sans-Serif" font-size="10.00">+ null()</text>
</a>
</g>
</g>
<!-- Node1&#45;&gt;Node9 -->
<g id="edge8" class="edge"><title>Node1&#45;&gt;Node9</title>
<path fill="none" stroke="midnightblue" d="M711.026,-217.323C765.257,-210.791 844.872,-195.189 904,-158 911.61,-153.214 918.767,-147.239 925.351,-140.739"/>
<polygon fill="none" stroke="midnightblue" points="710.411,-213.87 700.869,-218.476 711.2,-220.825 710.411,-213.87"/>
</g>
<!-- Node10 -->
<g id="node10" class="node"><title>Node10</title>
<g id="a_node10"><a xlink:href="structimpala__udf_1_1TimestampVal.html" target="_top" xlink:title="This object has a compatible storage format with boost::ptime. ">
<polygon fill="white" stroke="black" points="1042.5,-28.5 1042.5,-129.5 1175.5,-129.5 1175.5,-28.5 1042.5,-28.5"/>
<text text-anchor="middle" x="1109" y="-117.5" font-family="Helvetica,sans-Serif" font-size="10.00">impala_udf::TimestampVal</text>
<polyline fill="none" stroke="black" points="1042.5,-110.5 1175.5,-110.5 "/>
<text text-anchor="start" x="1050.5" y="-98.5" font-family="Helvetica,sans-Serif" font-size="10.00">+ date</text>
<text text-anchor="start" x="1050.5" y="-87.5" font-family="Helvetica,sans-Serif" font-size="10.00">+ time_of_day</text>
<polyline fill="none" stroke="black" points="1042.5,-80.5 1175.5,-80.5 "/>
<text text-anchor="start" x="1050.5" y="-68.5" font-family="Helvetica,sans-Serif" font-size="10.00">+ TimestampVal()</text>
<text text-anchor="start" x="1050.5" y="-57.5" font-family="Helvetica,sans-Serif" font-size="10.00">+ operator==()</text>
<text text-anchor="start" x="1050.5" y="-46.5" font-family="Helvetica,sans-Serif" font-size="10.00">+ operator!=()</text>
<text text-anchor="start" x="1050.5" y="-35.5" font-family="Helvetica,sans-Serif" font-size="10.00">+ null()</text>
</a>
</g>
</g>
<!-- Node1&#45;&gt;Node10 -->
<g id="edge9" class="edge"><title>Node1&#45;&gt;Node10</title>
<path fill="none" stroke="midnightblue" d="M710.655,-216.497C804.042,-207.256 978.014,-186.765 1033,-158 1046.57,-150.901 1059.16,-140.486 1070.03,-129.563"/>
<polygon fill="none" stroke="midnightblue" points="710.115,-213.033 700.502,-217.489 710.795,-220 710.115,-213.033"/>
</g>
<!-- Node11 -->
<g id="node11" class="node"><title>Node11</title>
<g id="a_node11"><a xlink:href="structimpala__udf_1_1TinyIntVal.html" target="_top" xlink:title="{impala_udf::TinyIntVal\n|+ val\l|+ TinyIntVal()\l+ operator==()\l+ operator!=()\l+ null()\l}">
<polygon fill="white" stroke="black" points="1194,-34 1194,-124 1308,-124 1308,-34 1194,-34"/>
<text text-anchor="middle" x="1251" y="-112" font-family="Helvetica,sans-Serif" font-size="10.00">impala_udf::TinyIntVal</text>
<polyline fill="none" stroke="black" points="1194,-105 1308,-105 "/>
<text text-anchor="start" x="1202" y="-93" font-family="Helvetica,sans-Serif" font-size="10.00">+ val</text>
<polyline fill="none" stroke="black" points="1194,-86 1308,-86 "/>
<text text-anchor="start" x="1202" y="-74" font-family="Helvetica,sans-Serif" font-size="10.00">+ TinyIntVal()</text>
<text text-anchor="start" x="1202" y="-63" font-family="Helvetica,sans-Serif" font-size="10.00">+ operator==()</text>
<text text-anchor="start" x="1202" y="-52" font-family="Helvetica,sans-Serif" font-size="10.00">+ operator!=()</text>
<text text-anchor="start" x="1202" y="-41" font-family="Helvetica,sans-Serif" font-size="10.00">+ null()</text>
</a>
</g>
</g>
<!-- Node1&#45;&gt;Node11 -->
<g id="edge10" class="edge"><title>Node1&#45;&gt;Node11</title>
<path fill="none" stroke="midnightblue" d="M710.879,-220.203C833.037,-215.715 1103.26,-201.088 1184,-158 1198.96,-150.016 1212.05,-137.216 1222.59,-124.274"/>
<polygon fill="none" stroke="midnightblue" points="710.452,-216.716 700.583,-220.57 710.702,-223.711 710.452,-216.716"/>
</g>
</g>
</svg>
        <g id="navigator" transform="translate(0 0)" fill="#404254">
                <rect fill="#f2f5e9" fill-opacity="0.5" stroke="#606060" stroke-width=".5" x="0" y="0" width="60" height="60"/>
                <use id="zoomplus" xlink:href="#zoomPlus" x="17" y="9" onmousedown="handleZoom(evt,'in')"/>
                <use id="zoomminus" xlink:href="#zoomMin" x="42" y="9" onmousedown="handleZoom(evt,'out')"/>
                <use id="reset" xlink:href="#resetDef" x="30" y="36" onmousedown="handleReset()"/>
                <g id="arrowUp" xlink:href="#dirArrow" transform="translate(30 24)" onmousedown="handlePan(0,-1)">
                  <use xlink:href="#rim" fill="#404040">
                        <set attributeName="fill" to="#808080" begin="arrowUp.mouseover" end="arrowUp.mouseout"/>
                  </use>
                  <path fill="none" stroke="white" stroke-width="1.5" d="M0,-3.0v7 M-2.5,-0.5L0,-3.0L2.5,-0.5"/>
                </g>
                <g id="arrowRight" xlink:href="#dirArrow" transform="rotate(90) translate(36 -43)" onmousedown="handlePan(1,0)">
                  <use xlink:href="#rim" fill="#404040">
                        <set attributeName="fill" to="#808080" begin="arrowRight.mouseover" end="arrowRight.mouseout"/>
                  </use>
                  <path fill="none" stroke="white" stroke-width="1.5" d="M0,-3.0v7 M-2.5,-0.5L0,-3.0L2.5,-0.5"/>
                </g>
                <g id="arrowDown" xlink:href="#dirArrow" transform="rotate(180) translate(-30 -48)" onmousedown="handlePan(0,1)">
                  <use xlink:href="#rim" fill="#404040">
                        <set attributeName="fill" to="#808080" begin="arrowDown.mouseover" end="arrowDown.mouseout"/>
                  </use>
                  <path fill="none" stroke="white" stroke-width="1.5" d="M0,-3.0v7 M-2.5,-0.5L0,-3.0L2.5,-0.5"/>
                </g>
                <g id="arrowLeft" xlink:href="#dirArrow" transform="rotate(270) translate(-36 17)" onmousedown="handlePan(-1,0)">
                  <use xlink:href="#rim" fill="#404040">
                        <set attributeName="fill" to="#808080" begin="arrowLeft.mouseover" end="arrowLeft.mouseout"/>
                  </use>
                  <path fill="none" stroke="white" stroke-width="1.5" d="M0,-3.0v7 M-2.5,-0.5L0,-3.0L2.5,-0.5"/>
                </g>
        </g>
        <svg viewBox="0 0 15 15" width="100%" height="30px" preserveAspectRatio="xMaxYMin meet">
         <g id="arrow_out" transform="scale(0.3 0.3)">
          <a xlink:href="structimpala__udf_1_1AnyVal__inherit__graph_org.svg" target="_base">
           <rect id="button" ry="5" rx="5" y="6" x="6" height="38" width="38"
                fill="#f2f5e9" fill-opacity="0.5" stroke="#606060" stroke-width="1.0"/>
           <path id="arrow"
             d="M 11.500037,31.436501 C 11.940474,20.09759 22.043105,11.32322 32.158766,21.979434 L 37.068811,17.246167 C 37.068811,17.246167 37.088388,32 37.088388,32 L 22.160133,31.978069 C 22.160133,31.978069 26.997745,27.140456 26.997745,27.140456 C 18.528582,18.264221 13.291696,25.230495 11.500037,31.436501 z"
             style="fill:#404040;"/>
          </a>
         </g>
        </svg>
</svg>
