<?xml version="1.0" encoding="UTF-8" standalone="no"?>
<!DOCTYPE svg PUBLIC "-//W3C//DTD SVG 1.1//EN"
 "http://www.w3.org/Graphics/SVG/1.1/DTD/svg11.dtd">
<!-- Generated by graphviz version 2.36.0 (20140111.2315)
 -->
<!-- Title: impala::DecimalAvgState Pages: 1 -->
<!--zoomable 452 -->
<svg id="main" version="1.1" xmlns="http://www.w3.org/2000/svg" xmlns:xlink="http://www.w3.org/1999/xlink" xml:space="preserve" onload="init(evt)">
<style type="text/css"><![CDATA[
.edge:hover path { stroke: red; }
.edge:hover polygon { stroke: red; fill: red; }
]]></style>
<script type="text/javascript"><![CDATA[
var edges = document.getElementsByTagName('g');
if (edges && edges.length) {
  for (var i=0;i<edges.length;i++) {
    if (edges[i].id.substr(0,4)=='edge') {
      edges[i].setAttribute('class','edge');
    }
  }
}
]]></script>
        <defs>
                <circle id="rim" cx="0" cy="0" r="7"/>
                <circle id="rim2" cx="0" cy="0" r="3.5"/>
                <g id="zoomPlus">
                        <use xlink:href="#rim" fill="#404040">
                                <set attributeName="fill" to="#808080" begin="zoomplus.mouseover" end="zoomplus.mouseout"/>
                        </use>
                        <path d="M-4,0h8M0,-4v8" fill="none" stroke="white" stroke-width="1.5" pointer-events="none"/>
                </g>
                <g id="zoomMin">
                        <use xlink:href="#rim" fill="#404040">
                                <set attributeName="fill" to="#808080" begin="zoomminus.mouseover" end="zoomminus.mouseout"/>
                        </use>
                        <path d="M-4,0h8" fill="none" stroke="white" stroke-width="1.5" pointer-events="none"/>
                </g>
                <g id="dirArrow">
                        <path fill="none" stroke="white" stroke-width="1.5" d="M0,-3.0v7 M-2.5,-0.5L0,-3.0L2.5,-0.5"/>
                </g>
               <g id="resetDef">
                       <use xlink:href="#rim2" fill="#404040">
                               <set attributeName="fill" to="#808080" begin="reset.mouseover" end="reset.mouseout"/>
                       </use>
               </g>
        </defs>

<script type="text/javascript">
var viewWidth = 367;
var viewHeight = 452;
var sectionId = 'dynsection-0';
</script>
<script xlink:href="svgpan.js"/>
<svg id="graph" class="graph">
<g id="viewport">
<title>impala::DecimalAvgState</title>
<polygon fill="white" stroke="none" points="-4,4 -4,-448 363,-448 363,4 -4,4"/>
<!-- Node1 -->
<g id="node1" class="node"><title>Node1</title>
<polygon fill="#bfbfbf" stroke="black" points="227,-0.5 227,-57.5 355,-57.5 355,-0.5 227,-0.5"/>
<text text-anchor="middle" x="291" y="-45.5" font-family="Helvetica,sans-Serif" font-size="10.00">impala::DecimalAvgState</text>
<polyline fill="none" stroke="black" points="227,-38.5 355,-38.5 "/>
<text text-anchor="middle" x="291" y="-26.5" font-family="Helvetica,sans-Serif" font-size="10.00"> </text>
<polyline fill="none" stroke="black" points="227,-19.5 355,-19.5 "/>
<text text-anchor="middle" x="291" y="-7.5" font-family="Helvetica,sans-Serif" font-size="10.00"> </text>
</g>
<!-- Node2 -->
<g id="node2" class="node"><title>Node2</title>
<g id="a_node2"><a xlink:href="structimpala__udf_1_1DecimalVal.html" target="_top" xlink:title="{impala_udf::DecimalVal\n||+ DecimalVal()\l+ DecimalVal()\l+ DecimalVal()\l+ DecimalVal()\l+ operator=()\l+ DecimalVal()\l+ null()\l}">
<polygon fill="white" stroke="black" points="154,-106.5 154,-229.5 274,-229.5 274,-106.5 154,-106.5"/>
<text text-anchor="middle" x="214" y="-217.5" font-family="Helvetica,sans-Serif" font-size="10.00">impala_udf::DecimalVal</text>
<polyline fill="none" stroke="black" points="154,-210.5 274,-210.5 "/>
<text text-anchor="middle" x="214" y="-198.5" font-family="Helvetica,sans-Serif" font-size="10.00"> </text>
<polyline fill="none" stroke="black" points="154,-191.5 274,-191.5 "/>
<text text-anchor="start" x="162" y="-179.5" font-family="Helvetica,sans-Serif" font-size="10.00">+ DecimalVal()</text>
<text text-anchor="start" x="162" y="-168.5" font-family="Helvetica,sans-Serif" font-size="10.00">+ DecimalVal()</text>
<text text-anchor="start" x="162" y="-157.5" font-family="Helvetica,sans-Serif" font-size="10.00">+ DecimalVal()</text>
<text text-anchor="start" x="162" y="-146.5" font-family="Helvetica,sans-Serif" font-size="10.00">+ DecimalVal()</text>
<text text-anchor="start" x="162" y="-135.5" font-family="Helvetica,sans-Serif" font-size="10.00">+ operator=()</text>
<text text-anchor="start" x="162" y="-124.5" font-family="Helvetica,sans-Serif" font-size="10.00">+ DecimalVal()</text>
<text text-anchor="start" x="162" y="-113.5" font-family="Helvetica,sans-Serif" font-size="10.00">+ null()</text>
</a>
</g>
</g>
<!-- Node2&#45;&gt;Node1 -->
<g id="edge1" class="edge"><title>Node2&#45;&gt;Node1</title>
<path fill="none" stroke="#404040" d="M248.222,-106.112C255.405,-93.3312 262.79,-80.1925 269.358,-68.5053"/>
<polygon fill="none" stroke="#404040" points="269.493,-68.2649 268.946,-61.0746 275.373,-57.8039 275.92,-64.9943 269.493,-68.2649"/>
<text text-anchor="middle" x="278" y="-79.5" font-family="Helvetica,sans-Serif" font-size="10.00"> +sum</text>
</g>
<!-- Node3 -->
<g id="node3" class="node"><title>Node3</title>
<g id="a_node3"><a xlink:href="structimpala__udf_1_1AnyVal.html" target="_top" xlink:title="{impala_udf::AnyVal\n||+ AnyVal()\l}">
<polygon fill="white" stroke="black" points="46.5,-279.5 46.5,-336.5 147.5,-336.5 147.5,-279.5 46.5,-279.5"/>
<text text-anchor="middle" x="97" y="-324.5" font-family="Helvetica,sans-Serif" font-size="10.00">impala_udf::AnyVal</text>
<polyline fill="none" stroke="black" points="46.5,-317.5 147.5,-317.5 "/>
<text text-anchor="middle" x="97" y="-305.5" font-family="Helvetica,sans-Serif" font-size="10.00"> </text>
<polyline fill="none" stroke="black" points="46.5,-298.5 147.5,-298.5 "/>
<text text-anchor="start" x="54.5" y="-286.5" font-family="Helvetica,sans-Serif" font-size="10.00">+ AnyVal()</text>
</a>
</g>
</g>
<!-- Node3&#45;&gt;Node2 -->
<g id="edge2" class="edge"><title>Node3&#45;&gt;Node2</title>
<path fill="none" stroke="midnightblue" d="M126.918,-271.712C137.786,-258.893 150.4,-244.016 162.596,-229.631"/>
<polygon fill="none" stroke="midnightblue" points="124.193,-269.514 120.395,-279.405 129.532,-274.041 124.193,-269.514"/>
</g>
<!-- Node4 -->
<g id="node4" class="node"><title>Node4</title>
<g id="a_node4"><a xlink:href="classbool.html" target="_top" xlink:title="{bool\n||}">
<polygon fill="white" stroke="black" points="79.5,-386.5 79.5,-443.5 114.5,-443.5 114.5,-386.5 79.5,-386.5"/>
<text text-anchor="middle" x="97" y="-431.5" font-family="Helvetica,sans-Serif" font-size="10.00">bool</text>
<polyline fill="none" stroke="black" points="79.5,-424.5 114.5,-424.5 "/>
<text text-anchor="middle" x="97" y="-412.5" font-family="Helvetica,sans-Serif" font-size="10.00"> </text>
<polyline fill="none" stroke="black" points="79.5,-405.5 114.5,-405.5 "/>
<text text-anchor="middle" x="97" y="-393.5" font-family="Helvetica,sans-Serif" font-size="10.00"> </text>
</a>
</g>
</g>
<!-- Node4&#45;&gt;Node3 -->
<g id="edge3" class="edge"><title>Node4&#45;&gt;Node3</title>
<path fill="none" stroke="#404040" d="M97,-386.412C97,-374.929 97,-361.374 97,-348.843"/>
<polygon fill="none" stroke="#404040" points="97.0001,-348.768 93,-342.768 97,-336.768 101,-342.768 97.0001,-348.768"/>
<text text-anchor="middle" x="115.5" y="-359.5" font-family="Helvetica,sans-Serif" font-size="10.00"> +is_null</text>
</g>
<!-- Node5 -->
<g id="node5" class="node"><title>Node5</title>
<polygon fill="white" stroke="#bfbfbf" points="-0.5,-279 -0.5,-337 28.5,-337 28.5,-279 -0.5,-279"/>
<polyline fill="none" stroke="#bfbfbf" points="-0.5,-317 28.5,-317 "/>
<text text-anchor="middle" x="14" y="-305" font-family="Helvetica,sans-Serif" font-size="10.00"> </text>
<polyline fill="none" stroke="#bfbfbf" points="-0.5,-298 28.5,-298 "/>
<text text-anchor="middle" x="14" y="-286" font-family="Helvetica,sans-Serif" font-size="10.00"> </text>
</g>
<!-- Node5&#45;&gt;Node2 -->
<g id="edge4" class="edge"><title>Node5&#45;&gt;Node2</title>
<path fill="none" stroke="#404040" d="M28.732,-286.534C31.3219,-283.513 34.117,-280.56 37,-278 68.8986,-249.675 109.077,-224.268 143.088,-205.124"/>
<polygon fill="none" stroke="#404040" points="143.401,-204.951 146.709,-198.543 153.896,-199.132 150.588,-205.54 143.401,-204.951"/>
<text text-anchor="middle" x="88.5" y="-251.5" font-family="Helvetica,sans-Serif" font-size="10.00"> +@18</text>
</g>
<!-- Node6 -->
<g id="node6" class="node"><title>Node6</title>
<polygon fill="white" stroke="#bfbfbf" points="313,-279.5 313,-336.5 359,-336.5 359,-279.5 313,-279.5"/>
<text text-anchor="middle" x="336" y="-324.5" font-family="Helvetica,sans-Serif" font-size="10.00">int64_t</text>
<polyline fill="none" stroke="#bfbfbf" points="313,-317.5 359,-317.5 "/>
<text text-anchor="middle" x="336" y="-305.5" font-family="Helvetica,sans-Serif" font-size="10.00"> </text>
<polyline fill="none" stroke="#bfbfbf" points="313,-298.5 359,-298.5 "/>
<text text-anchor="middle" x="336" y="-286.5" font-family="Helvetica,sans-Serif" font-size="10.00"> </text>
</g>
<!-- Node6&#45;&gt;Node1 -->
<g id="edge8" class="edge"><title>Node6&#45;&gt;Node1</title>
<path fill="none" stroke="#404040" d="M331.521,-279.427C323.522,-230.193 306.756,-126.985 297.494,-69.9719"/>
<polygon fill="none" stroke="#404040" points="297.452,-69.7168 292.542,-64.4359 295.528,-57.8721 300.438,-63.153 297.452,-69.7168"/>
<text text-anchor="middle" x="340" y="-165.5" font-family="Helvetica,sans-Serif" font-size="10.00"> +count</text>
</g>
<!-- Node6&#45;&gt;Node2 -->
<g id="edge5" class="edge"><title>Node6&#45;&gt;Node2</title>
<path fill="none" stroke="#404040" d="M312.766,-280.718C302.117,-268.673 288.936,-253.764 275.711,-238.804"/>
<polygon fill="none" stroke="#404040" points="275.441,-238.499 268.47,-236.653 267.493,-229.508 274.464,-231.354 275.441,-238.499"/>
<text text-anchor="middle" x="308" y="-251.5" font-family="Helvetica,sans-Serif" font-size="10.00"> +val8</text>
</g>
<!-- Node7 -->
<g id="node7" class="node"><title>Node7</title>
<polygon fill="white" stroke="#bfbfbf" points="166,-279.5 166,-336.5 212,-336.5 212,-279.5 166,-279.5"/>
<text text-anchor="middle" x="189" y="-324.5" font-family="Helvetica,sans-Serif" font-size="10.00">int32_t</text>
<polyline fill="none" stroke="#bfbfbf" points="166,-317.5 212,-317.5 "/>
<text text-anchor="middle" x="189" y="-305.5" font-family="Helvetica,sans-Serif" font-size="10.00"> </text>
<polyline fill="none" stroke="#bfbfbf" points="166,-298.5 212,-298.5 "/>
<text text-anchor="middle" x="189" y="-286.5" font-family="Helvetica,sans-Serif" font-size="10.00"> </text>
</g>
<!-- Node7&#45;&gt;Node2 -->
<g id="edge6" class="edge"><title>Node7&#45;&gt;Node2</title>
<path fill="none" stroke="#404040" d="M187.889,-279.249C187.908,-269.337 188.409,-258.12 190,-248 190.321,-245.956 190.683,-243.891 191.079,-241.814"/>
<polygon fill="none" stroke="#404040" points="191.131,-241.575 188.5,-234.861 193.686,-229.851 196.317,-236.565 191.131,-241.575"/>
<text text-anchor="middle" x="204" y="-251.5" font-family="Helvetica,sans-Serif" font-size="10.00"> +val4</text>
</g>
<!-- Node8 -->
<g id="node8" class="node"><title>Node8</title>
<polygon fill="white" stroke="#bfbfbf" points="230,-279.5 230,-336.5 292,-336.5 292,-279.5 230,-279.5"/>
<text text-anchor="middle" x="261" y="-324.5" font-family="Helvetica,sans-Serif" font-size="10.00">__int128_t</text>
<polyline fill="none" stroke="#bfbfbf" points="230,-317.5 292,-317.5 "/>
<text text-anchor="middle" x="261" y="-305.5" font-family="Helvetica,sans-Serif" font-size="10.00"> </text>
<polyline fill="none" stroke="#bfbfbf" points="230,-298.5 292,-298.5 "/>
<text text-anchor="middle" x="261" y="-286.5" font-family="Helvetica,sans-Serif" font-size="10.00"> </text>
</g>
<!-- Node8&#45;&gt;Node2 -->
<g id="edge7" class="edge"><title>Node8&#45;&gt;Node2</title>
<path fill="none" stroke="#404040" d="M248.626,-279.373C245.971,-273.06 243.282,-266.342 241,-260 238.803,-253.894 236.643,-247.514 234.561,-241.088"/>
<polygon fill="none" stroke="#404040" points="234.522,-240.964 228.9,-236.448 230.906,-229.522 236.528,-234.038 234.522,-240.964"/>
<text text-anchor="middle" x="257.5" y="-251.5" font-family="Helvetica,sans-Serif" font-size="10.00"> +val16</text>
</g>
</g>
</svg>
        <g id="navigator" transform="translate(0 0)" fill="#404254">
                <rect fill="#f2f5e9" fill-opacity="0.5" stroke="#606060" stroke-width=".5" x="0" y="0" width="60" height="60"/>
                <use id="zoomplus" xlink:href="#zoomPlus" x="17" y="9" onmousedown="handleZoom(evt,'in')"/>
                <use id="zoomminus" xlink:href="#zoomMin" x="42" y="9" onmousedown="handleZoom(evt,'out')"/>
                <use id="reset" xlink:href="#resetDef" x="30" y="36" onmousedown="handleReset()"/>
                <g id="arrowUp" xlink:href="#dirArrow" transform="translate(30 24)" onmousedown="handlePan(0,-1)">
                  <use xlink:href="#rim" fill="#404040">
                        <set attributeName="fill" to="#808080" begin="arrowUp.mouseover" end="arrowUp.mouseout"/>
                  </use>
                  <path fill="none" stroke="white" stroke-width="1.5" d="M0,-3.0v7 M-2.5,-0.5L0,-3.0L2.5,-0.5"/>
                </g>
                <g id="arrowRight" xlink:href="#dirArrow" transform="rotate(90) translate(36 -43)" onmousedown="handlePan(1,0)">
                  <use xlink:href="#rim" fill="#404040">
                        <set attributeName="fill" to="#808080" begin="arrowRight.mouseover" end="arrowRight.mouseout"/>
                  </use>
                  <path fill="none" stroke="white" stroke-width="1.5" d="M0,-3.0v7 M-2.5,-0.5L0,-3.0L2.5,-0.5"/>
                </g>
                <g id="arrowDown" xlink:href="#dirArrow" transform="rotate(180) translate(-30 -48)" onmousedown="handlePan(0,1)">
                  <use xlink:href="#rim" fill="#404040">
                        <set attributeName="fill" to="#808080" begin="arrowDown.mouseover" end="arrowDown.mouseout"/>
                  </use>
                  <path fill="none" stroke="white" stroke-width="1.5" d="M0,-3.0v7 M-2.5,-0.5L0,-3.0L2.5,-0.5"/>
                </g>
                <g id="arrowLeft" xlink:href="#dirArrow" transform="rotate(270) translate(-36 17)" onmousedown="handlePan(-1,0)">
                  <use xlink:href="#rim" fill="#404040">
                        <set attributeName="fill" to="#808080" begin="arrowLeft.mouseover" end="arrowLeft.mouseout"/>
                  </use>
                  <path fill="none" stroke="white" stroke-width="1.5" d="M0,-3.0v7 M-2.5,-0.5L0,-3.0L2.5,-0.5"/>
                </g>
        </g>
        <svg viewBox="0 0 15 15" width="100%" height="30px" preserveAspectRatio="xMaxYMin meet">
         <g id="arrow_out" transform="scale(0.3 0.3)">
          <a xlink:href="structimpala_1_1DecimalAvgState__coll__graph_org.svg" target="_base">
           <rect id="button" ry="5" rx="5" y="6" x="6" height="38" width="38"
                fill="#f2f5e9" fill-opacity="0.5" stroke="#606060" stroke-width="1.0"/>
           <path id="arrow"
             d="M 11.500037,31.436501 C 11.940474,20.09759 22.043105,11.32322 32.158766,21.979434 L 37.068811,17.246167 C 37.068811,17.246167 37.088388,32 37.088388,32 L 22.160133,31.978069 C 22.160133,31.978069 26.997745,27.140456 26.997745,27.140456 C 18.528582,18.264221 13.291696,25.230495 11.500037,31.436501 z"
             style="fill:#404040;"/>
          </a>
         </g>
        </svg>
</svg>
