<?xml version="1.0" encoding="UTF-8" standalone="no"?>
<!DOCTYPE svg PUBLIC "-//W3C//DTD SVG 1.1//EN"
 "http://www.w3.org/Graphics/SVG/1.1/DTD/svg11.dtd">
<!-- Generated by graphviz version 2.36.0 (20140111.2315)
 -->
<!-- Title: impala::HdfsParquetScanner::FileVersion Pages: 1 -->
<svg width="297pt" height="240pt"
 viewBox="0.00 0.00 297.00 240.00" xmlns="http://www.w3.org/2000/svg" xmlns:xlink="http://www.w3.org/1999/xlink">
<g id="graph0" class="graph" transform="scale(1 1) rotate(0) translate(4 236)">
<title>impala::HdfsParquetScanner::FileVersion</title>
<polygon fill="white" stroke="none" points="-4,4 -4,-236 293,-236 293,4 -4,4"/>
<!-- Node1 -->
<g id="node1" class="node"><title>Node1</title>
<polygon fill="#bfbfbf" stroke="black" points="55,-0.5 55,-101.5 197,-101.5 197,-0.5 55,-0.5"/>
<text text-anchor="start" x="63" y="-89.5" font-family="Helvetica,sans-Serif" font-size="10.00">impala::HdfsParquetScanner</text>
<text text-anchor="middle" x="126" y="-78.5" font-family="Helvetica,sans-Serif" font-size="10.00">::FileVersion</text>
<polyline fill="none" stroke="black" points="55,-71.5 197,-71.5 "/>
<text text-anchor="middle" x="126" y="-59.5" font-family="Helvetica,sans-Serif" font-size="10.00"> </text>
<polyline fill="none" stroke="black" points="55,-52.5 197,-52.5 "/>
<text text-anchor="start" x="63" y="-40.5" font-family="Helvetica,sans-Serif" font-size="10.00">+ FileVersion()</text>
<text text-anchor="start" x="63" y="-29.5" font-family="Helvetica,sans-Serif" font-size="10.00">+ FileVersion()</text>
<text text-anchor="start" x="63" y="-18.5" font-family="Helvetica,sans-Serif" font-size="10.00">+ VersionLt()</text>
<text text-anchor="start" x="63" y="-7.5" font-family="Helvetica,sans-Serif" font-size="10.00">+ VersionEq()</text>
</g>
<!-- Node2 -->
<g id="node2" class="node"><title>Node2</title>
<polygon fill="white" stroke="#bfbfbf" points="-0.5,-173.5 -0.5,-230.5 28.5,-230.5 28.5,-173.5 -0.5,-173.5"/>
<text text-anchor="middle" x="14" y="-218.5" font-family="Helvetica,sans-Serif" font-size="10.00">int</text>
<polyline fill="none" stroke="#bfbfbf" points="-0.5,-211.5 28.5,-211.5 "/>
<text text-anchor="middle" x="14" y="-199.5" font-family="Helvetica,sans-Serif" font-size="10.00"> </text>
<polyline fill="none" stroke="#bfbfbf" points="-0.5,-192.5 28.5,-192.5 "/>
<text text-anchor="middle" x="14" y="-180.5" font-family="Helvetica,sans-Serif" font-size="10.00"> </text>
</g>
<!-- Node2&#45;&gt;Node1 -->
<g id="edge1" class="edge"><title>Node2&#45;&gt;Node1</title>
<path fill="none" stroke="#404040" d="M13.9911,-173.196C15.1799,-156.601 18.8703,-135.76 29,-120 33.6633,-112.744 39.4019,-106.041 45.7383,-99.9041"/>
<polygon fill="none" stroke="#404040" points="45.7588,-99.8857 47.5655,-92.9046 54.7046,-91.8873 52.8978,-98.8685 45.7588,-99.8857"/>
<text text-anchor="middle" x="46" y="-145.5" font-family="Helvetica,sans-Serif" font-size="10.00"> +minor</text>
<text text-anchor="middle" x="46" y="-134.5" font-family="Helvetica,sans-Serif" font-size="10.00">+patch</text>
<text text-anchor="middle" x="46" y="-123.5" font-family="Helvetica,sans-Serif" font-size="10.00">+major</text>
</g>
<!-- Node3 -->
<g id="node3" class="node"><title>Node3</title>
<g id="a_node3"><a xlink:href="classbool.html" target="_top" xlink:title="{bool\n||}">
<polygon fill="white" stroke="black" points="53.5,-173.5 53.5,-230.5 88.5,-230.5 88.5,-173.5 53.5,-173.5"/>
<text text-anchor="middle" x="71" y="-218.5" font-family="Helvetica,sans-Serif" font-size="10.00">bool</text>
<polyline fill="none" stroke="black" points="53.5,-211.5 88.5,-211.5 "/>
<text text-anchor="middle" x="71" y="-199.5" font-family="Helvetica,sans-Serif" font-size="10.00"> </text>
<polyline fill="none" stroke="black" points="53.5,-192.5 88.5,-192.5 "/>
<text text-anchor="middle" x="71" y="-180.5" font-family="Helvetica,sans-Serif" font-size="10.00"> </text>
</a>
</g>
</g>
<!-- Node3&#45;&gt;Node1 -->
<g id="edge2" class="edge"><title>Node3&#45;&gt;Node1</title>
<path fill="none" stroke="#404040" d="M66.9754,-173.22C65.7172,-157.21 65.9672,-136.96 72,-120 72.9031,-117.461 73.9433,-114.945 75.0971,-112.462"/>
<polygon fill="none" stroke="#404040" points="75.1398,-112.382 74.4501,-105.204 80.8107,-101.807 81.5004,-108.985 75.1398,-112.382"/>
<text text-anchor="middle" x="116" y="-134.5" font-family="Helvetica,sans-Serif" font-size="10.00"> +is_impala_internal</text>
</g>
<!-- Node4 -->
<g id="node4" class="node"><title>Node4</title>
<polygon fill="white" stroke="#bfbfbf" points="161.5,-173.5 161.5,-230.5 202.5,-230.5 202.5,-173.5 161.5,-173.5"/>
<text text-anchor="middle" x="182" y="-218.5" font-family="Helvetica,sans-Serif" font-size="10.00">string</text>
<polyline fill="none" stroke="#bfbfbf" points="161.5,-211.5 202.5,-211.5 "/>
<text text-anchor="middle" x="182" y="-199.5" font-family="Helvetica,sans-Serif" font-size="10.00"> </text>
<polyline fill="none" stroke="#bfbfbf" points="161.5,-192.5 202.5,-192.5 "/>
<text text-anchor="middle" x="182" y="-180.5" font-family="Helvetica,sans-Serif" font-size="10.00"> </text>
</g>
<!-- Node4&#45;&gt;Node1 -->
<g id="edge3" class="edge"><title>Node4&#45;&gt;Node1</title>
<path fill="none" stroke="#404040" d="M175.896,-173.197C172.062,-157.361 166.596,-137.291 160,-120 159.1,-117.64 158.144,-115.252 157.146,-112.854"/>
<polygon fill="none" stroke="#404040" points="157.041,-112.616 150.967,-108.729 152.219,-101.627 158.293,-105.514 157.041,-112.616"/>
<text text-anchor="middle" x="198" y="-134.5" font-family="Helvetica,sans-Serif" font-size="10.00"> +application</text>
</g>
<!-- Node5 -->
<g id="node5" class="node"><title>Node5</title>
<polygon fill="white" stroke="#bfbfbf" points="246.5,-173 246.5,-231 275.5,-231 275.5,-173 246.5,-173"/>
<polyline fill="none" stroke="#bfbfbf" points="246.5,-211 275.5,-211 "/>
<text text-anchor="middle" x="261" y="-199" font-family="Helvetica,sans-Serif" font-size="10.00"> </text>
<polyline fill="none" stroke="#bfbfbf" points="246.5,-192 275.5,-192 "/>
<text text-anchor="middle" x="261" y="-180" font-family="Helvetica,sans-Serif" font-size="10.00"> </text>
</g>
<!-- Node5&#45;&gt;Node1 -->
<g id="edge4" class="edge"><title>Node5&#45;&gt;Node1</title>
<path fill="none" stroke="#404040" d="M254.901,-172.906C250.209,-156.205 242.382,-135.355 230,-120 223.359,-111.764 215.445,-104.188 206.991,-97.3218"/>
<polygon fill="none" stroke="#404040" points="206.785,-97.1646 199.589,-96.6959 197.254,-89.8732 204.45,-90.3419 206.785,-97.1646"/>
<text text-anchor="middle" x="268.5" y="-134.5" font-family="Helvetica,sans-Serif" font-size="10.00"> +version</text>
</g>
</g>
</svg>
