<?xml version="1.0" encoding="UTF-8" standalone="no"?>
<!DOCTYPE svg PUBLIC "-//W3C//DTD SVG 1.1//EN"
 "http://www.w3.org/Graphics/SVG/1.1/DTD/svg11.dtd">
<!-- Generated by graphviz version 2.36.0 (20140111.2315)
 -->
<!-- Title: impala::DebugOptions Pages: 1 -->
<svg width="177pt" height="182pt"
 viewBox="0.00 0.00 177.04 182.00" xmlns="http://www.w3.org/2000/svg" xmlns:xlink="http://www.w3.org/1999/xlink">
<g id="graph0" class="graph" transform="scale(1 1) rotate(0) translate(4 178)">
<title>impala::DebugOptions</title>
<polygon fill="white" stroke="none" points="-4,4 -4,-178 173.039,-178 173.039,4 -4,4"/>
<!-- Node1 -->
<g id="node1" class="node"><title>Node1</title>
<polygon fill="#bfbfbf" stroke="black" points="4.53904,-0.5 4.53904,-57.5 117.539,-57.5 117.539,-0.5 4.53904,-0.5"/>
<text text-anchor="middle" x="61.039" y="-45.5" font-family="Helvetica,sans-Serif" font-size="10.00">impala::DebugOptions</text>
<polyline fill="none" stroke="black" points="4.53904,-38.5 117.539,-38.5 "/>
<text text-anchor="middle" x="61.039" y="-26.5" font-family="Helvetica,sans-Serif" font-size="10.00"> </text>
<polyline fill="none" stroke="black" points="4.53904,-19.5 117.539,-19.5 "/>
<text text-anchor="start" x="12.539" y="-7.5" font-family="Helvetica,sans-Serif" font-size="10.00">+ DebugOptions()</text>
</g>
<!-- Node2 -->
<g id="node2" class="node"><title>Node2</title>
<polygon fill="white" stroke="#bfbfbf" points="13.539,-116.5 13.539,-173.5 48.539,-173.5 48.539,-116.5 13.539,-116.5"/>
<text text-anchor="middle" x="31.039" y="-161.5" font-family="Helvetica,sans-Serif" font-size="10.00">type</text>
<polyline fill="none" stroke="#bfbfbf" points="13.539,-154.5 48.539,-154.5 "/>
<text text-anchor="middle" x="31.039" y="-142.5" font-family="Helvetica,sans-Serif" font-size="10.00"> </text>
<polyline fill="none" stroke="#bfbfbf" points="13.539,-135.5 48.539,-135.5 "/>
<text text-anchor="middle" x="31.039" y="-123.5" font-family="Helvetica,sans-Serif" font-size="10.00"> </text>
</g>
<!-- Node2&#45;&gt;Node1 -->
<g id="edge1" class="edge"><title>Node2&#45;&gt;Node1</title>
<path fill="none" stroke="#404040" d="M13.37,-123.489C3.85892,-109.848 -4.51559,-91.6338 3.03904,-76 4.5855,-72.7997 6.47475,-69.754 8.61466,-66.8669"/>
<polygon fill="none" stroke="#404040" points="8.78806,-66.6701 9.75418,-59.524 16.7222,-57.6673 15.7561,-64.8134 8.78806,-66.6701"/>
<text text-anchor="middle" x="21.039" y="-84.5" font-family="Helvetica,sans-Serif" font-size="10.00"> +action</text>
</g>
<!-- Node2&#45;&gt;Node1 -->
<g id="edge3" class="edge"><title>Node2&#45;&gt;Node1</title>
<path fill="none" stroke="#404040" d="M38.3012,-116.404C41.9956,-102.365 46.5525,-85.049 50.6143,-69.614"/>
<polygon fill="none" stroke="#404040" points="50.6858,-69.3421 48.3445,-62.5217 53.7398,-57.7372 56.0811,-64.5577 50.6858,-69.3421"/>
<text text-anchor="middle" x="67.039" y="-84.5" font-family="Helvetica,sans-Serif" font-size="10.00"> +phase</text>
</g>
<!-- Node3 -->
<g id="node3" class="node"><title>Node3</title>
<polygon fill="white" stroke="#bfbfbf" points="105.539,-116.5 105.539,-173.5 134.539,-173.5 134.539,-116.5 105.539,-116.5"/>
<text text-anchor="middle" x="120.039" y="-161.5" font-family="Helvetica,sans-Serif" font-size="10.00">int</text>
<polyline fill="none" stroke="#bfbfbf" points="105.539,-154.5 134.539,-154.5 "/>
<text text-anchor="middle" x="120.039" y="-142.5" font-family="Helvetica,sans-Serif" font-size="10.00"> </text>
<polyline fill="none" stroke="#bfbfbf" points="105.539,-135.5 134.539,-135.5 "/>
<text text-anchor="middle" x="120.039" y="-123.5" font-family="Helvetica,sans-Serif" font-size="10.00"> </text>
</g>
<!-- Node3&#45;&gt;Node1 -->
<g id="edge2" class="edge"><title>Node3&#45;&gt;Node1</title>
<path fill="none" stroke="#404040" d="M108.253,-116.178C102.748,-103.722 95.9035,-88.9548 89.039,-76 87.7094,-73.4907 86.3011,-70.9292 84.8515,-68.3633"/>
<polygon fill="none" stroke="#404040" points="84.8018,-68.2781 78.3236,-65.1106 78.7558,-57.9124 85.234,-61.0799 84.8018,-68.2781"/>
<text text-anchor="middle" x="134.039" y="-90" font-family="Helvetica,sans-Serif" font-size="10.00"> +backend_num</text>
<text text-anchor="middle" x="134.039" y="-79" font-family="Helvetica,sans-Serif" font-size="10.00">+node_id</text>
</g>
</g>
</svg>
