<?xml version="1.0" encoding="UTF-8" standalone="no"?>
<!DOCTYPE svg PUBLIC "-//W3C//DTD SVG 1.1//EN"
 "http://www.w3.org/Graphics/SVG/1.1/DTD/svg11.dtd">
<!-- Generated by graphviz version 2.36.0 (20140111.2315)
 -->
<!-- Title: impala::ClientCacheHelper::PerHostCache Pages: 1 -->
<svg width="162pt" height="184pt"
 viewBox="0.00 0.00 162.00 184.00" xmlns="http://www.w3.org/2000/svg" xmlns:xlink="http://www.w3.org/1999/xlink">
<g id="graph0" class="graph" transform="scale(1 1) rotate(0) translate(4 180)">
<title>impala::ClientCacheHelper::PerHostCache</title>
<polygon fill="white" stroke="none" points="-4,4 -4,-180 158,-180 158,4 -4,4"/>
<!-- Node1 -->
<g id="node1" class="node"><title>Node1</title>
<polygon fill="#bfbfbf" stroke="black" points="20,-1 20,-69 154,-69 154,-1 20,-1"/>
<text text-anchor="start" x="28" y="-57" font-family="Helvetica,sans-Serif" font-size="10.00">impala::ClientCacheHelper</text>
<text text-anchor="middle" x="87" y="-46" font-family="Helvetica,sans-Serif" font-size="10.00">::PerHostCache</text>
<polyline fill="none" stroke="black" points="20,-39 154,-39 "/>
<text text-anchor="middle" x="87" y="-27" font-family="Helvetica,sans-Serif" font-size="10.00"> </text>
<polyline fill="none" stroke="black" points="20,-20 154,-20 "/>
<text text-anchor="middle" x="87" y="-8" font-family="Helvetica,sans-Serif" font-size="10.00"> </text>
</g>
<!-- Node2 -->
<g id="node2" class="node"><title>Node2</title>
<polygon fill="white" stroke="#bfbfbf" points="0,-118.5 0,-175.5 90,-175.5 90,-118.5 0,-118.5"/>
<text text-anchor="middle" x="45" y="-163.5" font-family="Helvetica,sans-Serif" font-size="10.00">list&lt; ClientKey &gt;</text>
<polyline fill="none" stroke="#bfbfbf" points="0,-156.5 90,-156.5 "/>
<text text-anchor="middle" x="45" y="-144.5" font-family="Helvetica,sans-Serif" font-size="10.00"> </text>
<polyline fill="none" stroke="#bfbfbf" points="0,-137.5 90,-137.5 "/>
<text text-anchor="middle" x="45" y="-125.5" font-family="Helvetica,sans-Serif" font-size="10.00"> </text>
</g>
<!-- Node2&#45;&gt;Node1 -->
<g id="edge1" class="edge"><title>Node2&#45;&gt;Node1</title>
<path fill="none" stroke="#404040" d="M55.5984,-118.242C59.9521,-106.84 65.1037,-93.3474 69.9619,-80.6237"/>
<polygon fill="none" stroke="#404040" points="70.0291,-80.4474 68.4325,-73.4153 74.3096,-69.2368 75.9062,-76.2689 70.0291,-80.4474"/>
<text text-anchor="middle" x="85" y="-91.5" font-family="Helvetica,sans-Serif" font-size="10.00"> +clients</text>
</g>
<!-- Node3 -->
<g id="node3" class="node"><title>Node3</title>
<polygon fill="white" stroke="#bfbfbf" points="108,-118.5 108,-175.5 152,-175.5 152,-118.5 108,-118.5"/>
<text text-anchor="middle" x="130" y="-163.5" font-family="Helvetica,sans-Serif" font-size="10.00">mutex</text>
<polyline fill="none" stroke="#bfbfbf" points="108,-156.5 152,-156.5 "/>
<text text-anchor="middle" x="130" y="-144.5" font-family="Helvetica,sans-Serif" font-size="10.00"> </text>
<polyline fill="none" stroke="#bfbfbf" points="108,-137.5 152,-137.5 "/>
<text text-anchor="middle" x="130" y="-125.5" font-family="Helvetica,sans-Serif" font-size="10.00"> </text>
</g>
<!-- Node3&#45;&gt;Node1 -->
<g id="edge2" class="edge"><title>Node3&#45;&gt;Node1</title>
<path fill="none" stroke="#404040" d="M119.601,-118.222C115.974,-108.631 111.848,-97.8277 108,-88 107.034,-85.5323 106.036,-83.0016 105.023,-80.449"/>
<polygon fill="none" stroke="#404040" points="105,-80.3904 99.0598,-76.3021 100.549,-69.2464 106.489,-73.3347 105,-80.3904"/>
<text text-anchor="middle" x="126" y="-91.5" font-family="Helvetica,sans-Serif" font-size="10.00"> +lock</text>
</g>
</g>
</svg>
