<?xml version="1.0" encoding="UTF-8" standalone="no"?>
<!DOCTYPE svg PUBLIC "-//W3C//DTD SVG 1.1//EN"
 "http://www.w3.org/Graphics/SVG/1.1/DTD/svg11.dtd">
<!-- Generated by graphviz version 2.36.0 (20140111.2315)
 -->
<!-- Title: impala::LibCache::LibCacheEntry Pages: 1 -->
<!--zoomable 670 -->
<svg id="main" version="1.1" xmlns="http://www.w3.org/2000/svg" xmlns:xlink="http://www.w3.org/1999/xlink" xml:space="preserve" onload="init(evt)">
<style type="text/css"><![CDATA[
.edge:hover path { stroke: red; }
.edge:hover polygon { stroke: red; fill: red; }
]]></style>
<script type="text/javascript"><![CDATA[
var edges = document.getElementsByTagName('g');
if (edges && edges.length) {
  for (var i=0;i<edges.length;i++) {
    if (edges[i].id.substr(0,4)=='edge') {
      edges[i].setAttribute('class','edge');
    }
  }
}
]]></script>
        <defs>
                <circle id="rim" cx="0" cy="0" r="7"/>
                <circle id="rim2" cx="0" cy="0" r="3.5"/>
                <g id="zoomPlus">
                        <use xlink:href="#rim" fill="#404040">
                                <set attributeName="fill" to="#808080" begin="zoomplus.mouseover" end="zoomplus.mouseout"/>
                        </use>
                        <path d="M-4,0h8M0,-4v8" fill="none" stroke="white" stroke-width="1.5" pointer-events="none"/>
                </g>
                <g id="zoomMin">
                        <use xlink:href="#rim" fill="#404040">
                                <set attributeName="fill" to="#808080" begin="zoomminus.mouseover" end="zoomminus.mouseout"/>
                        </use>
                        <path d="M-4,0h8" fill="none" stroke="white" stroke-width="1.5" pointer-events="none"/>
                </g>
                <g id="dirArrow">
                        <path fill="none" stroke="white" stroke-width="1.5" d="M0,-3.0v7 M-2.5,-0.5L0,-3.0L2.5,-0.5"/>
                </g>
               <g id="resetDef">
                       <use xlink:href="#rim2" fill="#404040">
                               <set attributeName="fill" to="#808080" begin="reset.mouseover" end="reset.mouseout"/>
                       </use>
               </g>
        </defs>

<script type="text/javascript">
var viewWidth = 996;
var viewHeight = 670;
var sectionId = 'dynsection-0';
</script>
<script xlink:href="svgpan.js"/>
<svg id="graph" class="graph">
<g id="viewport">
<title>impala::LibCache::LibCacheEntry</title>
<polygon fill="white" stroke="none" points="-4,4 -4,-666 992,-666 992,4 -4,4"/>
<!-- Node1 -->
<g id="node1" class="node"><title>Node1</title>
<polygon fill="#bfbfbf" stroke="black" points="452,-0.5 452,-79.5 592,-79.5 592,-0.5 452,-0.5"/>
<text text-anchor="start" x="460" y="-67.5" font-family="Helvetica,sans-Serif" font-size="10.00">impala::LibCache::LibCache</text>
<text text-anchor="middle" x="522" y="-56.5" font-family="Helvetica,sans-Serif" font-size="10.00">Entry</text>
<polyline fill="none" stroke="black" points="452,-49.5 592,-49.5 "/>
<text text-anchor="middle" x="522" y="-37.5" font-family="Helvetica,sans-Serif" font-size="10.00"> </text>
<polyline fill="none" stroke="black" points="452,-30.5 592,-30.5 "/>
<text text-anchor="start" x="460" y="-18.5" font-family="Helvetica,sans-Serif" font-size="10.00">+ LibCacheEntry()</text>
<text text-anchor="start" x="460" y="-7.5" font-family="Helvetica,sans-Serif" font-size="10.00">+ ~LibCacheEntry()</text>
</g>
<!-- Node2 -->
<g id="node2" class="node"><title>Node2</title>
<g id="a_node2"><a xlink:href="classimpala_1_1Status.html" target="_top" xlink:title="{impala::Status\n||+ Status()\l+ Status()\l+ Status()\l+ Status()\l+ Status()\l+ Status()\l+ Status()\l+ Status()\l+ Status()\l+ Status()\land 23 more...\l+ Expected()\l&#45; Status()\l}">
<polygon fill="white" stroke="black" points="24,-138.5 24,-327.5 104,-327.5 104,-138.5 24,-138.5"/>
<text text-anchor="middle" x="64" y="-315.5" font-family="Helvetica,sans-Serif" font-size="10.00">impala::Status</text>
<polyline fill="none" stroke="black" points="24,-308.5 104,-308.5 "/>
<text text-anchor="middle" x="64" y="-296.5" font-family="Helvetica,sans-Serif" font-size="10.00"> </text>
<polyline fill="none" stroke="black" points="24,-289.5 104,-289.5 "/>
<text text-anchor="start" x="32" y="-277.5" font-family="Helvetica,sans-Serif" font-size="10.00">+ Status()</text>
<text text-anchor="start" x="32" y="-266.5" font-family="Helvetica,sans-Serif" font-size="10.00">+ Status()</text>
<text text-anchor="start" x="32" y="-255.5" font-family="Helvetica,sans-Serif" font-size="10.00">+ Status()</text>
<text text-anchor="start" x="32" y="-244.5" font-family="Helvetica,sans-Serif" font-size="10.00">+ Status()</text>
<text text-anchor="start" x="32" y="-233.5" font-family="Helvetica,sans-Serif" font-size="10.00">+ Status()</text>
<text text-anchor="start" x="32" y="-222.5" font-family="Helvetica,sans-Serif" font-size="10.00">+ Status()</text>
<text text-anchor="start" x="32" y="-211.5" font-family="Helvetica,sans-Serif" font-size="10.00">+ Status()</text>
<text text-anchor="start" x="32" y="-200.5" font-family="Helvetica,sans-Serif" font-size="10.00">+ Status()</text>
<text text-anchor="start" x="32" y="-189.5" font-family="Helvetica,sans-Serif" font-size="10.00">+ Status()</text>
<text text-anchor="start" x="32" y="-178.5" font-family="Helvetica,sans-Serif" font-size="10.00">+ Status()</text>
<text text-anchor="start" x="32" y="-167.5" font-family="Helvetica,sans-Serif" font-size="10.00">and 23 more...</text>
<text text-anchor="start" x="32" y="-156.5" font-family="Helvetica,sans-Serif" font-size="10.00">+ Expected()</text>
<text text-anchor="start" x="32" y="-145.5" font-family="Helvetica,sans-Serif" font-size="10.00">&#45; Status()</text>
</a>
</g>
</g>
<!-- Node2&#45;&gt;Node1 -->
<g id="edge1" class="edge"><title>Node2&#45;&gt;Node1</title>
<path fill="none" stroke="#404040" d="M104.025,-168.853C123.752,-142.864 149.81,-114.935 180,-98 223.327,-73.6958 352.959,-57.0365 439.591,-48.2675"/>
<polygon fill="none" stroke="#404040" points="439.84,-48.2429 445.415,-43.6694 451.781,-47.0568 446.206,-51.6303 439.84,-48.2429"/>
<text text-anchor="middle" x="219" y="-112" font-family="Helvetica,sans-Serif" font-size="10.00"> +loading_status</text>
<text text-anchor="middle" x="219" y="-101" font-family="Helvetica,sans-Serif" font-size="10.00">+copy_file_status</text>
</g>
<!-- Node2&#45;&gt;Node2 -->
<g id="edge6" class="edge"><title>Node2&#45;&gt;Node2</title>
<path fill="none" stroke="#404040" d="M104.119,-254.86C114.332,-253.423 122,-246.137 122,-233 122,-225.405 119.437,-219.766 115.301,-216.082"/>
<polygon fill="none" stroke="#404040" points="115.095,-215.99 107.99,-217.224 104.119,-211.14 111.223,-209.906 115.095,-215.99"/>
<text text-anchor="middle" x="183" y="-247" font-family="Helvetica,sans-Serif" font-size="10.00"> +CANCELLED</text>
<text text-anchor="middle" x="183" y="-236" font-family="Helvetica,sans-Serif" font-size="10.00">+OK</text>
<text text-anchor="middle" x="183" y="-225" font-family="Helvetica,sans-Serif" font-size="10.00">+MEM_LIMIT_EXCEEDED</text>
<text text-anchor="middle" x="183" y="-214" font-family="Helvetica,sans-Serif" font-size="10.00">+DEPRECATED_RPC</text>
</g>
<!-- Node3 -->
<g id="node3" class="node"><title>Node3</title>
<g id="a_node3"><a xlink:href="classimpala_1_1ErrorMsg.html" target="_top" xlink:title="{impala::ErrorMsg\n||+ ErrorMsg()\l+ ErrorMsg()\l+ ErrorMsg()\l+ ErrorMsg()\l+ ErrorMsg()\l+ ErrorMsg()\l+ ErrorMsg()\l+ ErrorMsg()\l+ ErrorMsg()\l+ ErrorMsg()\land 9 more...\l+ Init()\l}">
<polygon fill="white" stroke="black" points="83.5,-377 83.5,-555 174.5,-555 174.5,-377 83.5,-377"/>
<text text-anchor="middle" x="129" y="-543" font-family="Helvetica,sans-Serif" font-size="10.00">impala::ErrorMsg</text>
<polyline fill="none" stroke="black" points="83.5,-536 174.5,-536 "/>
<text text-anchor="middle" x="129" y="-524" font-family="Helvetica,sans-Serif" font-size="10.00"> </text>
<polyline fill="none" stroke="black" points="83.5,-517 174.5,-517 "/>
<text text-anchor="start" x="91.5" y="-505" font-family="Helvetica,sans-Serif" font-size="10.00">+ ErrorMsg()</text>
<text text-anchor="start" x="91.5" y="-494" font-family="Helvetica,sans-Serif" font-size="10.00">+ ErrorMsg()</text>
<text text-anchor="start" x="91.5" y="-483" font-family="Helvetica,sans-Serif" font-size="10.00">+ ErrorMsg()</text>
<text text-anchor="start" x="91.5" y="-472" font-family="Helvetica,sans-Serif" font-size="10.00">+ ErrorMsg()</text>
<text text-anchor="start" x="91.5" y="-461" font-family="Helvetica,sans-Serif" font-size="10.00">+ ErrorMsg()</text>
<text text-anchor="start" x="91.5" y="-450" font-family="Helvetica,sans-Serif" font-size="10.00">+ ErrorMsg()</text>
<text text-anchor="start" x="91.5" y="-439" font-family="Helvetica,sans-Serif" font-size="10.00">+ ErrorMsg()</text>
<text text-anchor="start" x="91.5" y="-428" font-family="Helvetica,sans-Serif" font-size="10.00">+ ErrorMsg()</text>
<text text-anchor="start" x="91.5" y="-417" font-family="Helvetica,sans-Serif" font-size="10.00">+ ErrorMsg()</text>
<text text-anchor="start" x="91.5" y="-406" font-family="Helvetica,sans-Serif" font-size="10.00">+ ErrorMsg()</text>
<text text-anchor="start" x="91.5" y="-395" font-family="Helvetica,sans-Serif" font-size="10.00">and 9 more...</text>
<text text-anchor="start" x="91.5" y="-384" font-family="Helvetica,sans-Serif" font-size="10.00">+ Init()</text>
</a>
</g>
</g>
<!-- Node3&#45;&gt;Node2 -->
<g id="edge2" class="edge"><title>Node3&#45;&gt;Node2</title>
<path fill="none" stroke="#404040" d="M104.148,-376.68C100.726,-364.518 97.1839,-351.931 93.6857,-339.498"/>
<polygon fill="none" stroke="#404040" points="93.601,-339.197 88.1253,-334.505 90.3505,-327.646 95.8262,-332.338 93.601,-339.197"/>
<text text-anchor="middle" x="114.5" y="-349.5" font-family="Helvetica,sans-Serif" font-size="10.00"> &#45;msg_</text>
</g>
<!-- Node4 -->
<g id="node4" class="node"><title>Node4</title>
<polygon fill="white" stroke="#bfbfbf" points="-0.5,-604.5 -0.5,-661.5 104.5,-661.5 104.5,-604.5 -0.5,-604.5"/>
<text text-anchor="middle" x="52" y="-649.5" font-family="Helvetica,sans-Serif" font-size="10.00">vector&lt; std::string &gt;</text>
<polyline fill="none" stroke="#bfbfbf" points="-0.5,-642.5 104.5,-642.5 "/>
<text text-anchor="middle" x="52" y="-630.5" font-family="Helvetica,sans-Serif" font-size="10.00"> </text>
<polyline fill="none" stroke="#bfbfbf" points="-0.5,-623.5 104.5,-623.5 "/>
<text text-anchor="middle" x="52" y="-611.5" font-family="Helvetica,sans-Serif" font-size="10.00"> </text>
</g>
<!-- Node4&#45;&gt;Node3 -->
<g id="edge3" class="edge"><title>Node4&#45;&gt;Node3</title>
<path fill="none" stroke="#404040" d="M64.8881,-604.383C69.9553,-593.524 76.1059,-580.344 82.5682,-566.497"/>
<polygon fill="none" stroke="#404040" points="82.7282,-566.154 81.6408,-559.025 87.8029,-555.28 88.8903,-562.408 82.7282,-566.154"/>
<text text-anchor="middle" x="97" y="-577.5" font-family="Helvetica,sans-Serif" font-size="10.00"> &#45;details_</text>
</g>
<!-- Node5 -->
<g id="node5" class="node"><title>Node5</title>
<polygon fill="white" stroke="#bfbfbf" points="122.5,-604.5 122.5,-661.5 157.5,-661.5 157.5,-604.5 122.5,-604.5"/>
<text text-anchor="middle" x="140" y="-649.5" font-family="Helvetica,sans-Serif" font-size="10.00">type</text>
<polyline fill="none" stroke="#bfbfbf" points="122.5,-642.5 157.5,-642.5 "/>
<text text-anchor="middle" x="140" y="-630.5" font-family="Helvetica,sans-Serif" font-size="10.00"> </text>
<polyline fill="none" stroke="#bfbfbf" points="122.5,-623.5 157.5,-623.5 "/>
<text text-anchor="middle" x="140" y="-611.5" font-family="Helvetica,sans-Serif" font-size="10.00"> </text>
</g>
<!-- Node5&#45;&gt;Node3 -->
<g id="edge4" class="edge"><title>Node5&#45;&gt;Node3</title>
<path fill="none" stroke="#404040" d="M138.159,-604.383C137.449,-593.739 136.591,-580.866 135.688,-567.319"/>
<polygon fill="none" stroke="#404040" points="135.684,-567.253 131.293,-561.532 134.885,-555.28 139.276,-561 135.684,-567.253"/>
<text text-anchor="middle" x="152.5" y="-577.5" font-family="Helvetica,sans-Serif" font-size="10.00"> &#45;error_</text>
</g>
<!-- Node6 -->
<g id="node6" class="node"><title>Node6</title>
<polygon fill="white" stroke="#bfbfbf" points="213.5,-604.5 213.5,-661.5 254.5,-661.5 254.5,-604.5 213.5,-604.5"/>
<text text-anchor="middle" x="234" y="-649.5" font-family="Helvetica,sans-Serif" font-size="10.00">string</text>
<polyline fill="none" stroke="#bfbfbf" points="213.5,-642.5 254.5,-642.5 "/>
<text text-anchor="middle" x="234" y="-630.5" font-family="Helvetica,sans-Serif" font-size="10.00"> </text>
<polyline fill="none" stroke="#bfbfbf" points="213.5,-623.5 254.5,-623.5 "/>
<text text-anchor="middle" x="234" y="-611.5" font-family="Helvetica,sans-Serif" font-size="10.00"> </text>
</g>
<!-- Node6&#45;&gt;Node1 -->
<g id="edge12" class="edge"><title>Node6&#45;&gt;Node1</title>
<path fill="none" stroke="#404040" d="M250.865,-604.042C253.698,-598.252 256.274,-592.065 258,-586 285.319,-489.986 242.09,-225.022 291,-138 320.62,-85.2985 386.168,-61.2305 439.901,-50.239"/>
<polygon fill="none" stroke="#404040" points="440.08,-50.2049 445.227,-45.1543 451.869,-47.9628 446.722,-53.0134 440.08,-50.2049"/>
<text text-anchor="middle" x="294" y="-349.5" font-family="Helvetica,sans-Serif" font-size="10.00"> +local_path</text>
</g>
<!-- Node6&#45;&gt;Node3 -->
<g id="edge5" class="edge"><title>Node6&#45;&gt;Node3</title>
<path fill="none" stroke="#404040" d="M216.425,-604.383C206.681,-589.071 194,-569.142 181.331,-549.234"/>
<polygon fill="none" stroke="#404040" points="181.165,-548.974 174.569,-546.06 174.723,-538.85 181.319,-541.765 181.165,-548.974"/>
<text text-anchor="middle" x="229" y="-577.5" font-family="Helvetica,sans-Serif" font-size="10.00"> &#45;message_</text>
</g>
<!-- Node7 -->
<g id="node7" class="node"><title>Node7</title>
<polygon fill="white" stroke="#bfbfbf" points="300.5,-204.5 300.5,-261.5 351.5,-261.5 351.5,-204.5 300.5,-204.5"/>
<text text-anchor="middle" x="326" y="-249.5" font-family="Helvetica,sans-Serif" font-size="10.00">LibType</text>
<polyline fill="none" stroke="#bfbfbf" points="300.5,-242.5 351.5,-242.5 "/>
<text text-anchor="middle" x="326" y="-230.5" font-family="Helvetica,sans-Serif" font-size="10.00"> </text>
<polyline fill="none" stroke="#bfbfbf" points="300.5,-223.5 351.5,-223.5 "/>
<text text-anchor="middle" x="326" y="-211.5" font-family="Helvetica,sans-Serif" font-size="10.00"> </text>
</g>
<!-- Node7&#45;&gt;Node1 -->
<g id="edge7" class="edge"><title>Node7&#45;&gt;Node1</title>
<path fill="none" stroke="#404040" d="M327.16,-204.298C329.861,-174.402 338.54,-127.166 366,-98 385.542,-77.2436 413.258,-64.0179 439.92,-55.6019"/>
<polygon fill="none" stroke="#404040" points="440.138,-55.5382 444.776,-50.016 451.657,-52.1729 447.019,-57.695 440.138,-55.5382"/>
<text text-anchor="middle" x="380" y="-106.5" font-family="Helvetica,sans-Serif" font-size="10.00"> +type</text>
</g>
<!-- Node8 -->
<g id="node8" class="node"><title>Node8</title>
<polygon fill="white" stroke="#bfbfbf" points="370,-204.5 370,-261.5 414,-261.5 414,-204.5 370,-204.5"/>
<text text-anchor="middle" x="392" y="-249.5" font-family="Helvetica,sans-Serif" font-size="10.00">time_t</text>
<polyline fill="none" stroke="#bfbfbf" points="370,-242.5 414,-242.5 "/>
<text text-anchor="middle" x="392" y="-230.5" font-family="Helvetica,sans-Serif" font-size="10.00"> </text>
<polyline fill="none" stroke="#bfbfbf" points="370,-223.5 414,-223.5 "/>
<text text-anchor="middle" x="392" y="-211.5" font-family="Helvetica,sans-Serif" font-size="10.00"> </text>
</g>
<!-- Node8&#45;&gt;Node1 -->
<g id="edge8" class="edge"><title>Node8&#45;&gt;Node1</title>
<path fill="none" stroke="#404040" d="M388.125,-204.43C385.547,-175.301 385.961,-129.332 408,-98 416.454,-85.9812 428.193,-76.3623 440.943,-68.707"/>
<polygon fill="none" stroke="#404040" points="441.321,-68.4999 444.658,-62.1073 451.842,-62.7288 448.505,-69.1214 441.321,-68.4999"/>
<text text-anchor="middle" x="444.5" y="-106.5" font-family="Helvetica,sans-Serif" font-size="10.00"> +last_mod_time</text>
</g>
<!-- Node9 -->
<g id="node9" class="node"><title>Node9</title>
<polygon fill="white" stroke="#bfbfbf" points="432.5,-199 432.5,-267 533.5,-267 533.5,-199 432.5,-199"/>
<text text-anchor="start" x="440.5" y="-255" font-family="Helvetica,sans-Serif" font-size="10.00">unordered_set&lt; std</text>
<text text-anchor="middle" x="483" y="-244" font-family="Helvetica,sans-Serif" font-size="10.00">::string &gt;</text>
<polyline fill="none" stroke="#bfbfbf" points="432.5,-237 533.5,-237 "/>
<text text-anchor="middle" x="483" y="-225" font-family="Helvetica,sans-Serif" font-size="10.00"> </text>
<polyline fill="none" stroke="#bfbfbf" points="432.5,-218 533.5,-218 "/>
<text text-anchor="middle" x="483" y="-206" font-family="Helvetica,sans-Serif" font-size="10.00"> </text>
</g>
<!-- Node9&#45;&gt;Node1 -->
<g id="edge9" class="edge"><title>Node9&#45;&gt;Node1</title>
<path fill="none" stroke="#404040" d="M480.16,-198.793C478.819,-171.231 479.252,-131.301 489,-98 489.703,-95.5994 490.526,-93.1929 491.445,-90.799"/>
<polygon fill="none" stroke="#404040" points="491.476,-90.728 490.252,-83.6216 496.34,-79.7579 497.565,-86.8643 491.476,-90.728"/>
<text text-anchor="middle" x="512" y="-106.5" font-family="Helvetica,sans-Serif" font-size="10.00"> +symbols</text>
</g>
<!-- Node10 -->
<g id="node10" class="node"><title>Node10</title>
<polygon fill="white" stroke="#bfbfbf" points="552,-204.5 552,-261.5 596,-261.5 596,-204.5 552,-204.5"/>
<text text-anchor="middle" x="574" y="-249.5" font-family="Helvetica,sans-Serif" font-size="10.00">mutex</text>
<polyline fill="none" stroke="#bfbfbf" points="552,-242.5 596,-242.5 "/>
<text text-anchor="middle" x="574" y="-230.5" font-family="Helvetica,sans-Serif" font-size="10.00"> </text>
<polyline fill="none" stroke="#bfbfbf" points="552,-223.5 596,-223.5 "/>
<text text-anchor="middle" x="574" y="-211.5" font-family="Helvetica,sans-Serif" font-size="10.00"> </text>
</g>
<!-- Node10&#45;&gt;Node1 -->
<g id="edge10" class="edge"><title>Node10&#45;&gt;Node1</title>
<path fill="none" stroke="#404040" d="M566.439,-204.227C558.416,-174.76 545.569,-127.569 535.746,-91.4905"/>
<polygon fill="none" stroke="#404040" points="535.695,-91.3013 530.259,-86.5628 532.542,-79.7227 537.978,-84.4612 535.695,-91.3013"/>
<text text-anchor="middle" x="558" y="-106.5" font-family="Helvetica,sans-Serif" font-size="10.00"> +lock</text>
</g>
<!-- Node11 -->
<g id="node11" class="node"><title>Node11</title>
<polygon fill="white" stroke="#bfbfbf" points="613.5,-204.5 613.5,-261.5 642.5,-261.5 642.5,-204.5 613.5,-204.5"/>
<text text-anchor="middle" x="628" y="-249.5" font-family="Helvetica,sans-Serif" font-size="10.00">int</text>
<polyline fill="none" stroke="#bfbfbf" points="613.5,-242.5 642.5,-242.5 "/>
<text text-anchor="middle" x="628" y="-230.5" font-family="Helvetica,sans-Serif" font-size="10.00"> </text>
<polyline fill="none" stroke="#bfbfbf" points="613.5,-223.5 642.5,-223.5 "/>
<text text-anchor="middle" x="628" y="-211.5" font-family="Helvetica,sans-Serif" font-size="10.00"> </text>
</g>
<!-- Node11&#45;&gt;Node1 -->
<g id="edge11" class="edge"><title>Node11&#45;&gt;Node1</title>
<path fill="none" stroke="#404040" d="M623.663,-204.377C620.003,-185.161 613.767,-159.277 604,-138 595.925,-120.41 583.748,-103.479 571.231,-88.8225"/>
<polygon fill="none" stroke="#404040" points="570.957,-88.5142 563.984,-86.6789 562.995,-79.5358 569.969,-81.3711 570.957,-88.5142"/>
<text text-anchor="middle" x="622.5" y="-106.5" font-family="Helvetica,sans-Serif" font-size="10.00"> +use_count</text>
</g>
<!-- Node12 -->
<g id="node12" class="node"><title>Node12</title>
<g id="a_node12"><a xlink:href="classbool.html" target="_top" xlink:title="{bool\n||}">
<polygon fill="white" stroke="black" points="668.5,-204.5 668.5,-261.5 703.5,-261.5 703.5,-204.5 668.5,-204.5"/>
<text text-anchor="middle" x="686" y="-249.5" font-family="Helvetica,sans-Serif" font-size="10.00">bool</text>
<polyline fill="none" stroke="black" points="668.5,-242.5 703.5,-242.5 "/>
<text text-anchor="middle" x="686" y="-230.5" font-family="Helvetica,sans-Serif" font-size="10.00"> </text>
<polyline fill="none" stroke="black" points="668.5,-223.5 703.5,-223.5 "/>
<text text-anchor="middle" x="686" y="-211.5" font-family="Helvetica,sans-Serif" font-size="10.00"> </text>
</a>
</g>
</g>
<!-- Node12&#45;&gt;Node1 -->
<g id="edge13" class="edge"><title>Node12&#45;&gt;Node1</title>
<path fill="none" stroke="#404040" d="M686.359,-204.426C685.306,-174.863 679.31,-128.123 654,-98 640.711,-82.1838 622.219,-70.6367 603.277,-62.2514"/>
<polygon fill="none" stroke="#404040" points="603.211,-62.2243 596.142,-63.6487 592.108,-57.6712 599.177,-56.2469 603.211,-62.2243"/>
<text text-anchor="middle" x="718" y="-112" font-family="Helvetica,sans-Serif" font-size="10.00"> +should_remove</text>
<text text-anchor="middle" x="718" y="-101" font-family="Helvetica,sans-Serif" font-size="10.00">+check_needs_refresh</text>
</g>
<!-- Node13 -->
<g id="node13" class="node"><title>Node13</title>
<polygon fill="white" stroke="#bfbfbf" points="788.5,-204.5 788.5,-261.5 829.5,-261.5 829.5,-204.5 788.5,-204.5"/>
<text text-anchor="middle" x="809" y="-249.5" font-family="Helvetica,sans-Serif" font-size="10.00">void *</text>
<polyline fill="none" stroke="#bfbfbf" points="788.5,-242.5 829.5,-242.5 "/>
<text text-anchor="middle" x="809" y="-230.5" font-family="Helvetica,sans-Serif" font-size="10.00"> </text>
<polyline fill="none" stroke="#bfbfbf" points="788.5,-223.5 829.5,-223.5 "/>
<text text-anchor="middle" x="809" y="-211.5" font-family="Helvetica,sans-Serif" font-size="10.00"> </text>
</g>
<!-- Node13&#45;&gt;Node1 -->
<g id="edge14" class="edge"><title>Node13&#45;&gt;Node1</title>
<path fill="none" stroke="#404040" d="M809.247,-204.498C807.963,-174.096 801.05,-125.764 772,-98 748.04,-75.1002 667.373,-59.5556 604.072,-50.5573"/>
<polygon fill="none" stroke="#404040" points="603.956,-50.5414 597.465,-53.6825 592.069,-48.8989 598.56,-45.7578 603.956,-50.5414"/>
<text text-anchor="middle" x="840" y="-106.5" font-family="Helvetica,sans-Serif" font-size="10.00"> +shared_object_handle</text>
</g>
<!-- Node14 -->
<g id="node14" class="node"><title>Node14</title>
<polygon fill="white" stroke="#bfbfbf" points="883,-199 883,-267 989,-267 989,-199 883,-199"/>
<text text-anchor="start" x="891" y="-255" font-family="Helvetica,sans-Serif" font-size="10.00">unordered_map&lt; std</text>
<text text-anchor="middle" x="936" y="-244" font-family="Helvetica,sans-Serif" font-size="10.00">::string, void * &gt;</text>
<polyline fill="none" stroke="#bfbfbf" points="883,-237 989,-237 "/>
<text text-anchor="middle" x="936" y="-225" font-family="Helvetica,sans-Serif" font-size="10.00"> </text>
<polyline fill="none" stroke="#bfbfbf" points="883,-218 989,-218 "/>
<text text-anchor="middle" x="936" y="-206" font-family="Helvetica,sans-Serif" font-size="10.00"> </text>
</g>
<!-- Node14&#45;&gt;Node1 -->
<g id="edge15" class="edge"><title>Node14&#45;&gt;Node1</title>
<path fill="none" stroke="#404040" d="M935.604,-198.899C933.341,-168.034 924.849,-123.098 896,-98 853.648,-61.1545 701.102,-48.1005 604.405,-43.4934"/>
<polygon fill="none" stroke="#404040" points="604.306,-43.489 598.131,-47.2142 592.318,-42.9475 598.492,-39.2223 604.306,-43.489"/>
<text text-anchor="middle" x="949.5" y="-106.5" font-family="Helvetica,sans-Serif" font-size="10.00"> +symbol_cache</text>
</g>
</g>
</svg>
        <g id="navigator" transform="translate(0 0)" fill="#404254">
                <rect fill="#f2f5e9" fill-opacity="0.5" stroke="#606060" stroke-width=".5" x="0" y="0" width="60" height="60"/>
                <use id="zoomplus" xlink:href="#zoomPlus" x="17" y="9" onmousedown="handleZoom(evt,'in')"/>
                <use id="zoomminus" xlink:href="#zoomMin" x="42" y="9" onmousedown="handleZoom(evt,'out')"/>
                <use id="reset" xlink:href="#resetDef" x="30" y="36" onmousedown="handleReset()"/>
                <g id="arrowUp" xlink:href="#dirArrow" transform="translate(30 24)" onmousedown="handlePan(0,-1)">
                  <use xlink:href="#rim" fill="#404040">
                        <set attributeName="fill" to="#808080" begin="arrowUp.mouseover" end="arrowUp.mouseout"/>
                  </use>
                  <path fill="none" stroke="white" stroke-width="1.5" d="M0,-3.0v7 M-2.5,-0.5L0,-3.0L2.5,-0.5"/>
                </g>
                <g id="arrowRight" xlink:href="#dirArrow" transform="rotate(90) translate(36 -43)" onmousedown="handlePan(1,0)">
                  <use xlink:href="#rim" fill="#404040">
                        <set attributeName="fill" to="#808080" begin="arrowRight.mouseover" end="arrowRight.mouseout"/>
                  </use>
                  <path fill="none" stroke="white" stroke-width="1.5" d="M0,-3.0v7 M-2.5,-0.5L0,-3.0L2.5,-0.5"/>
                </g>
                <g id="arrowDown" xlink:href="#dirArrow" transform="rotate(180) translate(-30 -48)" onmousedown="handlePan(0,1)">
                  <use xlink:href="#rim" fill="#404040">
                        <set attributeName="fill" to="#808080" begin="arrowDown.mouseover" end="arrowDown.mouseout"/>
                  </use>
                  <path fill="none" stroke="white" stroke-width="1.5" d="M0,-3.0v7 M-2.5,-0.5L0,-3.0L2.5,-0.5"/>
                </g>
                <g id="arrowLeft" xlink:href="#dirArrow" transform="rotate(270) translate(-36 17)" onmousedown="handlePan(-1,0)">
                  <use xlink:href="#rim" fill="#404040">
                        <set attributeName="fill" to="#808080" begin="arrowLeft.mouseover" end="arrowLeft.mouseout"/>
                  </use>
                  <path fill="none" stroke="white" stroke-width="1.5" d="M0,-3.0v7 M-2.5,-0.5L0,-3.0L2.5,-0.5"/>
                </g>
        </g>
        <svg viewBox="0 0 15 15" width="100%" height="30px" preserveAspectRatio="xMaxYMin meet">
         <g id="arrow_out" transform="scale(0.3 0.3)">
          <a xlink:href="structLibCache_1_1LibCacheEntry__coll__graph_org.svg" target="_base">
           <rect id="button" ry="5" rx="5" y="6" x="6" height="38" width="38"
                fill="#f2f5e9" fill-opacity="0.5" stroke="#606060" stroke-width="1.0"/>
           <path id="arrow"
             d="M 11.500037,31.436501 C 11.940474,20.09759 22.043105,11.32322 32.158766,21.979434 L 37.068811,17.246167 C 37.068811,17.246167 37.088388,32 37.088388,32 L 22.160133,31.978069 C 22.160133,31.978069 26.997745,27.140456 26.997745,27.140456 C 18.528582,18.264221 13.291696,25.230495 11.500037,31.436501 z"
             style="fill:#404040;"/>
          </a>
         </g>
        </svg>
</svg>
