<?xml version="1.0" encoding="UTF-8" standalone="no"?>
<!DOCTYPE svg PUBLIC "-//W3C//DTD SVG 1.1//EN"
 "http://www.w3.org/Graphics/SVG/1.1/DTD/svg11.dtd">
<!-- Generated by graphviz version 2.36.0 (20140111.2315)
 -->
<!-- Title: impala::ReservoirSampleState&lt; T &gt; Pages: 1 -->
<svg width="363pt" height="172pt"
 viewBox="0.00 0.00 363.00 172.00" xmlns="http://www.w3.org/2000/svg" xmlns:xlink="http://www.w3.org/1999/xlink">
<g id="graph0" class="graph" transform="scale(1 1) rotate(0) translate(4 168)">
<title>impala::ReservoirSampleState&lt; T &gt;</title>
<polygon fill="white" stroke="none" points="-4,4 -4,-168 359,-168 359,4 -4,4"/>
<!-- Node1 -->
<g id="node1" class="node"><title>Node1</title>
<polygon fill="#bfbfbf" stroke="black" points="88.5,-0.5 88.5,-57.5 261.5,-57.5 261.5,-0.5 88.5,-0.5"/>
<text text-anchor="middle" x="175" y="-45.5" font-family="Helvetica,sans-Serif" font-size="10.00">impala::ReservoirSampleState&lt; T &gt;</text>
<polyline fill="none" stroke="black" points="88.5,-38.5 261.5,-38.5 "/>
<text text-anchor="middle" x="175" y="-26.5" font-family="Helvetica,sans-Serif" font-size="10.00"> </text>
<polyline fill="none" stroke="black" points="88.5,-19.5 261.5,-19.5 "/>
<text text-anchor="start" x="96.5" y="-7.5" font-family="Helvetica,sans-Serif" font-size="10.00">+ GetNext64()</text>
</g>
<!-- Node2 -->
<g id="node2" class="node"><title>Node2</title>
<polygon fill="white" stroke="#bfbfbf" points="0,-106.5 0,-163.5 64,-163.5 64,-106.5 0,-106.5"/>
<text text-anchor="middle" x="32" y="-151.5" font-family="Helvetica,sans-Serif" font-size="10.00">ranlux64_3</text>
<polyline fill="none" stroke="#bfbfbf" points="0,-144.5 64,-144.5 "/>
<text text-anchor="middle" x="32" y="-132.5" font-family="Helvetica,sans-Serif" font-size="10.00"> </text>
<polyline fill="none" stroke="#bfbfbf" points="0,-125.5 64,-125.5 "/>
<text text-anchor="middle" x="32" y="-113.5" font-family="Helvetica,sans-Serif" font-size="10.00"> </text>
</g>
<!-- Node2&#45;&gt;Node1 -->
<g id="edge1" class="edge"><title>Node2&#45;&gt;Node1</title>
<path fill="none" stroke="#404040" d="M64.092,-110.66C82.7035,-97.1247 106.496,-79.8214 127.268,-64.7143"/>
<polygon fill="none" stroke="#404040" points="127.482,-64.5588 129.981,-57.7948 137.187,-57.5007 134.687,-64.2647 127.482,-64.5588"/>
<text text-anchor="middle" x="119.5" y="-79.5" font-family="Helvetica,sans-Serif" font-size="10.00"> +rng</text>
</g>
<!-- Node3 -->
<g id="node3" class="node"><title>Node3</title>
<polygon fill="white" stroke="#bfbfbf" points="82,-106.5 82,-163.5 198,-163.5 198,-106.5 82,-106.5"/>
<text text-anchor="middle" x="140" y="-151.5" font-family="Helvetica,sans-Serif" font-size="10.00">ReservoirSample&lt; T &gt;</text>
<polyline fill="none" stroke="#bfbfbf" points="82,-144.5 198,-144.5 "/>
<text text-anchor="middle" x="140" y="-132.5" font-family="Helvetica,sans-Serif" font-size="10.00"> </text>
<polyline fill="none" stroke="#bfbfbf" points="82,-125.5 198,-125.5 "/>
<text text-anchor="middle" x="140" y="-113.5" font-family="Helvetica,sans-Serif" font-size="10.00"> </text>
</g>
<!-- Node3&#45;&gt;Node1 -->
<g id="edge2" class="edge"><title>Node3&#45;&gt;Node1</title>
<path fill="none" stroke="#404040" d="M146.886,-106.35C149.492,-96.6718 152.645,-85.7817 156,-76 156.81,-73.6375 157.68,-71.222 158.585,-68.7956"/>
<polygon fill="none" stroke="#404040" points="158.623,-68.6976 157.081,-61.6533 162.991,-57.5205 164.533,-64.5648 158.623,-68.6976"/>
<text text-anchor="middle" x="179" y="-79.5" font-family="Helvetica,sans-Serif" font-size="10.00"> +samples</text>
</g>
<!-- Node4 -->
<g id="node4" class="node"><title>Node4</title>
<polygon fill="white" stroke="#bfbfbf" points="216,-106.5 216,-163.5 262,-163.5 262,-106.5 216,-106.5"/>
<text text-anchor="middle" x="239" y="-151.5" font-family="Helvetica,sans-Serif" font-size="10.00">int64_t</text>
<polyline fill="none" stroke="#bfbfbf" points="216,-144.5 262,-144.5 "/>
<text text-anchor="middle" x="239" y="-132.5" font-family="Helvetica,sans-Serif" font-size="10.00"> </text>
<polyline fill="none" stroke="#bfbfbf" points="216,-125.5 262,-125.5 "/>
<text text-anchor="middle" x="239" y="-113.5" font-family="Helvetica,sans-Serif" font-size="10.00"> </text>
</g>
<!-- Node4&#45;&gt;Node1 -->
<g id="edge3" class="edge"><title>Node4&#45;&gt;Node1</title>
<path fill="none" stroke="#404040" d="M222.017,-106.403C214.784,-94.6497 206.228,-80.7453 198.41,-68.0414"/>
<polygon fill="none" stroke="#404040" points="198.351,-67.9459 191.8,-64.9324 192.062,-57.726 198.613,-60.7396 198.351,-67.9459"/>
<text text-anchor="middle" x="240" y="-79.5" font-family="Helvetica,sans-Serif" font-size="10.00"> +source_size</text>
</g>
<!-- Node5 -->
<g id="node5" class="node"><title>Node5</title>
<polygon fill="white" stroke="#bfbfbf" points="294.5,-106.5 294.5,-163.5 323.5,-163.5 323.5,-106.5 294.5,-106.5"/>
<text text-anchor="middle" x="309" y="-151.5" font-family="Helvetica,sans-Serif" font-size="10.00">int</text>
<polyline fill="none" stroke="#bfbfbf" points="294.5,-144.5 323.5,-144.5 "/>
<text text-anchor="middle" x="309" y="-132.5" font-family="Helvetica,sans-Serif" font-size="10.00"> </text>
<polyline fill="none" stroke="#bfbfbf" points="294.5,-125.5 323.5,-125.5 "/>
<text text-anchor="middle" x="309" y="-113.5" font-family="Helvetica,sans-Serif" font-size="10.00"> </text>
</g>
<!-- Node5&#45;&gt;Node1 -->
<g id="edge4" class="edge"><title>Node5&#45;&gt;Node1</title>
<path fill="none" stroke="#404040" d="M297.262,-106.447C291.716,-95.8908 284.258,-84.383 275,-76 270.175,-71.6308 264.864,-67.6099 259.281,-63.922"/>
<polygon fill="none" stroke="#404040" points="259.228,-63.8901 252.023,-64.1797 248.984,-57.6401 256.19,-57.3505 259.228,-63.8901"/>
<text text-anchor="middle" x="320" y="-79.5" font-family="Helvetica,sans-Serif" font-size="10.00"> +num_samples</text>
</g>
</g>
</svg>
