<?xml version="1.0" encoding="UTF-8" standalone="no"?>
<!DOCTYPE svg PUBLIC "-//W3C//DTD SVG 1.1//EN"
 "http://www.w3.org/Graphics/SVG/1.1/DTD/svg11.dtd">
<!-- Generated by graphviz version 2.36.0 (20140111.2315)
 -->
<!-- Title: impala_udf::FloatVal Pages: 1 -->
<svg width="174pt" height="312pt"
 viewBox="0.00 0.00 174.00 312.00" xmlns="http://www.w3.org/2000/svg" xmlns:xlink="http://www.w3.org/1999/xlink">
<g id="graph0" class="graph" transform="scale(1 1) rotate(0) translate(4 308)">
<title>impala_udf::FloatVal</title>
<polygon fill="white" stroke="none" points="-4,4 -4,-308 170,-308 170,4 -4,4"/>
<!-- Node1 -->
<g id="node1" class="node"><title>Node1</title>
<polygon fill="#bfbfbf" stroke="black" points="61,-1 61,-91 167,-91 167,-1 61,-1"/>
<text text-anchor="middle" x="114" y="-79" font-family="Helvetica,sans-Serif" font-size="10.00">impala_udf::FloatVal</text>
<polyline fill="none" stroke="black" points="61,-72 167,-72 "/>
<text text-anchor="middle" x="114" y="-60" font-family="Helvetica,sans-Serif" font-size="10.00"> </text>
<polyline fill="none" stroke="black" points="61,-53 167,-53 "/>
<text text-anchor="start" x="69" y="-41" font-family="Helvetica,sans-Serif" font-size="10.00">+ FloatVal()</text>
<text text-anchor="start" x="69" y="-30" font-family="Helvetica,sans-Serif" font-size="10.00">+ operator==()</text>
<text text-anchor="start" x="69" y="-19" font-family="Helvetica,sans-Serif" font-size="10.00">+ operator!=()</text>
<text text-anchor="start" x="69" y="-8" font-family="Helvetica,sans-Serif" font-size="10.00">+ null()</text>
</g>
<!-- Node2 -->
<g id="node2" class="node"><title>Node2</title>
<g id="a_node2"><a xlink:href="structimpala__udf_1_1AnyVal.html" target="_top" xlink:title="{impala_udf::AnyVal\n||+ AnyVal()\l}">
<polygon fill="white" stroke="black" points="-0.5,-140.5 -0.5,-197.5 100.5,-197.5 100.5,-140.5 -0.5,-140.5"/>
<text text-anchor="middle" x="50" y="-185.5" font-family="Helvetica,sans-Serif" font-size="10.00">impala_udf::AnyVal</text>
<polyline fill="none" stroke="black" points="-0.5,-178.5 100.5,-178.5 "/>
<text text-anchor="middle" x="50" y="-166.5" font-family="Helvetica,sans-Serif" font-size="10.00"> </text>
<polyline fill="none" stroke="black" points="-0.5,-159.5 100.5,-159.5 "/>
<text text-anchor="start" x="7.5" y="-147.5" font-family="Helvetica,sans-Serif" font-size="10.00">+ AnyVal()</text>
</a>
</g>
</g>
<!-- Node2&#45;&gt;Node1 -->
<g id="edge1" class="edge"><title>Node2&#45;&gt;Node1</title>
<path fill="none" stroke="midnightblue" d="M69.3774,-131.365C76.0659,-118.719 83.6305,-104.417 90.6059,-91.2295"/>
<polygon fill="none" stroke="midnightblue" points="66.2646,-129.764 64.6829,-140.24 72.4523,-133.037 66.2646,-129.764"/>
</g>
<!-- Node3 -->
<g id="node3" class="node"><title>Node3</title>
<g id="a_node3"><a xlink:href="classbool.html" target="_top" xlink:title="{bool\n||}">
<polygon fill="white" stroke="black" points="32.5,-246.5 32.5,-303.5 67.5,-303.5 67.5,-246.5 32.5,-246.5"/>
<text text-anchor="middle" x="50" y="-291.5" font-family="Helvetica,sans-Serif" font-size="10.00">bool</text>
<polyline fill="none" stroke="black" points="32.5,-284.5 67.5,-284.5 "/>
<text text-anchor="middle" x="50" y="-272.5" font-family="Helvetica,sans-Serif" font-size="10.00"> </text>
<polyline fill="none" stroke="black" points="32.5,-265.5 67.5,-265.5 "/>
<text text-anchor="middle" x="50" y="-253.5" font-family="Helvetica,sans-Serif" font-size="10.00"> </text>
</a>
</g>
</g>
<!-- Node3&#45;&gt;Node2 -->
<g id="edge2" class="edge"><title>Node3&#45;&gt;Node2</title>
<path fill="none" stroke="#404040" d="M50,-246.403C50,-235.237 50,-222.13 50,-209.956"/>
<polygon fill="none" stroke="#404040" points="50.0001,-209.726 46,-203.726 50,-197.726 54,-203.726 50.0001,-209.726"/>
<text text-anchor="middle" x="68.5" y="-219.5" font-family="Helvetica,sans-Serif" font-size="10.00"> +is_null</text>
</g>
<!-- Node4 -->
<g id="node4" class="node"><title>Node4</title>
<polygon fill="white" stroke="#bfbfbf" points="118.5,-140.5 118.5,-197.5 153.5,-197.5 153.5,-140.5 118.5,-140.5"/>
<text text-anchor="middle" x="136" y="-185.5" font-family="Helvetica,sans-Serif" font-size="10.00">float</text>
<polyline fill="none" stroke="#bfbfbf" points="118.5,-178.5 153.5,-178.5 "/>
<text text-anchor="middle" x="136" y="-166.5" font-family="Helvetica,sans-Serif" font-size="10.00"> </text>
<polyline fill="none" stroke="#bfbfbf" points="118.5,-159.5 153.5,-159.5 "/>
<text text-anchor="middle" x="136" y="-147.5" font-family="Helvetica,sans-Serif" font-size="10.00"> </text>
</g>
<!-- Node4&#45;&gt;Node1 -->
<g id="edge3" class="edge"><title>Node4&#45;&gt;Node1</title>
<path fill="none" stroke="#404040" d="M130.953,-140.24C128.953,-129.242 126.578,-116.179 124.248,-103.364"/>
<polygon fill="none" stroke="#404040" points="124.188,-103.036 119.18,-97.8483 122.042,-91.2295 127.051,-96.4172 124.188,-103.036"/>
<text text-anchor="middle" x="138" y="-113.5" font-family="Helvetica,sans-Serif" font-size="10.00"> +val</text>
</g>
</g>
</svg>
