<?xml version="1.0" encoding="UTF-8" standalone="no"?>
<!DOCTYPE svg PUBLIC "-//W3C//DTD SVG 1.1//EN"
 "http://www.w3.org/Graphics/SVG/1.1/DTD/svg11.dtd">
<!-- Generated by graphviz version 2.36.0 (20140111.2315)
 -->
<!-- Title: impala::HdfsParquetScanner::SchemaNode Pages: 1 -->
<!--zoomable 868 -->
<svg id="main" version="1.1" xmlns="http://www.w3.org/2000/svg" xmlns:xlink="http://www.w3.org/1999/xlink" xml:space="preserve" onload="init(evt)">
<style type="text/css"><![CDATA[
.edge:hover path { stroke: red; }
.edge:hover polygon { stroke: red; fill: red; }
]]></style>
<script type="text/javascript"><![CDATA[
var edges = document.getElementsByTagName('g');
if (edges && edges.length) {
  for (var i=0;i<edges.length;i++) {
    if (edges[i].id.substr(0,4)=='edge') {
      edges[i].setAttribute('class','edge');
    }
  }
}
]]></script>
        <defs>
                <circle id="rim" cx="0" cy="0" r="7"/>
                <circle id="rim2" cx="0" cy="0" r="3.5"/>
                <g id="zoomPlus">
                        <use xlink:href="#rim" fill="#404040">
                                <set attributeName="fill" to="#808080" begin="zoomplus.mouseover" end="zoomplus.mouseout"/>
                        </use>
                        <path d="M-4,0h8M0,-4v8" fill="none" stroke="white" stroke-width="1.5" pointer-events="none"/>
                </g>
                <g id="zoomMin">
                        <use xlink:href="#rim" fill="#404040">
                                <set attributeName="fill" to="#808080" begin="zoomminus.mouseover" end="zoomminus.mouseout"/>
                        </use>
                        <path d="M-4,0h8" fill="none" stroke="white" stroke-width="1.5" pointer-events="none"/>
                </g>
                <g id="dirArrow">
                        <path fill="none" stroke="white" stroke-width="1.5" d="M0,-3.0v7 M-2.5,-0.5L0,-3.0L2.5,-0.5"/>
                </g>
               <g id="resetDef">
                       <use xlink:href="#rim2" fill="#404040">
                               <set attributeName="fill" to="#808080" begin="reset.mouseover" end="reset.mouseout"/>
                       </use>
               </g>
        </defs>

<script type="text/javascript">
var viewWidth = 810;
var viewHeight = 868;
var sectionId = 'dynsection-0';
</script>
<script xlink:href="svgpan.js"/>
<svg id="graph" class="graph">
<g id="viewport">
<title>impala::HdfsParquetScanner::SchemaNode</title>
<polygon fill="white" stroke="none" points="-4,4 -4,-864 806,-864 806,4 -4,4"/>
<!-- Node1 -->
<g id="node1" class="node"><title>Node1</title>
<polygon fill="#bfbfbf" stroke="black" points="523,-0.5 523,-79.5 665,-79.5 665,-0.5 523,-0.5"/>
<text text-anchor="start" x="531" y="-67.5" font-family="Helvetica,sans-Serif" font-size="10.00">impala::HdfsParquetScanner</text>
<text text-anchor="middle" x="594" y="-56.5" font-family="Helvetica,sans-Serif" font-size="10.00">::SchemaNode</text>
<polyline fill="none" stroke="black" points="523,-49.5 665,-49.5 "/>
<text text-anchor="middle" x="594" y="-37.5" font-family="Helvetica,sans-Serif" font-size="10.00"> </text>
<polyline fill="none" stroke="black" points="523,-30.5 665,-30.5 "/>
<text text-anchor="start" x="531" y="-18.5" font-family="Helvetica,sans-Serif" font-size="10.00">+ SchemaNode()</text>
<text text-anchor="start" x="531" y="-7.5" font-family="Helvetica,sans-Serif" font-size="10.00">+ DebugString()</text>
</g>
<!-- Node2 -->
<g id="node2" class="node"><title>Node2</title>
<polygon fill="white" stroke="#bfbfbf" points="454.5,-802.5 454.5,-859.5 483.5,-859.5 483.5,-802.5 454.5,-802.5"/>
<text text-anchor="middle" x="469" y="-847.5" font-family="Helvetica,sans-Serif" font-size="10.00">int</text>
<polyline fill="none" stroke="#bfbfbf" points="454.5,-840.5 483.5,-840.5 "/>
<text text-anchor="middle" x="469" y="-828.5" font-family="Helvetica,sans-Serif" font-size="10.00"> </text>
<polyline fill="none" stroke="#bfbfbf" points="454.5,-821.5 483.5,-821.5 "/>
<text text-anchor="middle" x="469" y="-809.5" font-family="Helvetica,sans-Serif" font-size="10.00"> </text>
</g>
<!-- Node2&#45;&gt;Node1 -->
<g id="edge1" class="edge"><title>Node2&#45;&gt;Node1</title>
<path fill="none" stroke="#404040" d="M483.663,-825.919C502.766,-819.865 535.963,-806.707 555,-784 600.057,-730.254 591.993,-703.098 604,-634 643.885,-404.468 615.113,-342.954 618,-110 618.066,-104.667 619.056,-103.228 618,-98 617.538,-95.7109 616.981,-93.3992 616.349,-91.0855"/>
<polygon fill="none" stroke="#404040" points="616.326,-91.0163 610.681,-86.5301 612.65,-79.5932 618.296,-84.0794 616.326,-91.0163"/>
<text text-anchor="middle" x="661" y="-390" font-family="Helvetica,sans-Serif" font-size="10.00"> +col_idx</text>
<text text-anchor="middle" x="661" y="-379" font-family="Helvetica,sans-Serif" font-size="10.00">+max_def_level</text>
</g>
<!-- Node4 -->
<g id="node4" class="node"><title>Node4</title>
<g id="a_node4"><a xlink:href="classimpala_1_1SlotDescriptor.html" target="_top" xlink:title="{impala::SlotDescriptor\n||+ id()\l+ type()\l+ parent()\l+ col_pos()\l+ col_path()\l+ field_idx()\l+ tuple_offset()\l+ null_indicator_offset()\l+ is_materialized()\l+ is_nullable()\l+ slot_size()\l+ DebugString()\l+ CodegenIsNull()\l+ CodegenUpdateNull()\l+ ColPathLessThan()\l&#45; SlotDescriptor()\l}">
<polygon fill="white" stroke="black" points="294.5,-129 294.5,-351 413.5,-351 413.5,-129 294.5,-129"/>
<text text-anchor="middle" x="354" y="-339" font-family="Helvetica,sans-Serif" font-size="10.00">impala::SlotDescriptor</text>
<polyline fill="none" stroke="black" points="294.5,-332 413.5,-332 "/>
<text text-anchor="middle" x="354" y="-320" font-family="Helvetica,sans-Serif" font-size="10.00"> </text>
<polyline fill="none" stroke="black" points="294.5,-313 413.5,-313 "/>
<text text-anchor="start" x="302.5" y="-301" font-family="Helvetica,sans-Serif" font-size="10.00">+ id()</text>
<text text-anchor="start" x="302.5" y="-290" font-family="Helvetica,sans-Serif" font-size="10.00">+ type()</text>
<text text-anchor="start" x="302.5" y="-279" font-family="Helvetica,sans-Serif" font-size="10.00">+ parent()</text>
<text text-anchor="start" x="302.5" y="-268" font-family="Helvetica,sans-Serif" font-size="10.00">+ col_pos()</text>
<text text-anchor="start" x="302.5" y="-257" font-family="Helvetica,sans-Serif" font-size="10.00">+ col_path()</text>
<text text-anchor="start" x="302.5" y="-246" font-family="Helvetica,sans-Serif" font-size="10.00">+ field_idx()</text>
<text text-anchor="start" x="302.5" y="-235" font-family="Helvetica,sans-Serif" font-size="10.00">+ tuple_offset()</text>
<text text-anchor="start" x="302.5" y="-224" font-family="Helvetica,sans-Serif" font-size="10.00">+ null_indicator_offset()</text>
<text text-anchor="start" x="302.5" y="-213" font-family="Helvetica,sans-Serif" font-size="10.00">+ is_materialized()</text>
<text text-anchor="start" x="302.5" y="-202" font-family="Helvetica,sans-Serif" font-size="10.00">+ is_nullable()</text>
<text text-anchor="start" x="302.5" y="-191" font-family="Helvetica,sans-Serif" font-size="10.00">+ slot_size()</text>
<text text-anchor="start" x="302.5" y="-180" font-family="Helvetica,sans-Serif" font-size="10.00">+ DebugString()</text>
<text text-anchor="start" x="302.5" y="-169" font-family="Helvetica,sans-Serif" font-size="10.00">+ CodegenIsNull()</text>
<text text-anchor="start" x="302.5" y="-158" font-family="Helvetica,sans-Serif" font-size="10.00">+ CodegenUpdateNull()</text>
<text text-anchor="start" x="302.5" y="-147" font-family="Helvetica,sans-Serif" font-size="10.00">+ ColPathLessThan()</text>
<text text-anchor="start" x="302.5" y="-136" font-family="Helvetica,sans-Serif" font-size="10.00">&#45; SlotDescriptor()</text>
</a>
</g>
</g>
<!-- Node2&#45;&gt;Node4 -->
<g id="edge12" class="edge"><title>Node2&#45;&gt;Node4</title>
<path fill="none" stroke="#404040" d="M483.759,-824.562C499.706,-817.793 524.272,-804.554 535,-784 557.896,-740.135 538.736,-466.21 521,-422 500.747,-371.518 459.382,-326.51 422.889,-294.003"/>
<polygon fill="none" stroke="#404040" points="422.773,-293.902 415.623,-292.971 413.732,-286.012 420.883,-286.944 422.773,-293.902"/>
<text text-anchor="middle" x="572.5" y="-558.5" font-family="Helvetica,sans-Serif" font-size="10.00"> &#45;parent_</text>
<text text-anchor="middle" x="572.5" y="-547.5" font-family="Helvetica,sans-Serif" font-size="10.00">&#45;id_</text>
<text text-anchor="start" x="545" y="-536.5" font-family="Helvetica,sans-Serif" font-size="10.00">&#45;tuple_offset</text>
<text text-anchor="middle" x="572.5" y="-525.5" font-family="Helvetica,sans-Serif" font-size="10.00">_</text>
<text text-anchor="middle" x="572.5" y="-514.5" font-family="Helvetica,sans-Serif" font-size="10.00">&#45;slot_idx_</text>
<text text-anchor="middle" x="572.5" y="-503.5" font-family="Helvetica,sans-Serif" font-size="10.00">&#45;field_idx_</text>
<text text-anchor="middle" x="572.5" y="-492.5" font-family="Helvetica,sans-Serif" font-size="10.00">&#45;slot_size_</text>
</g>
<!-- Node5 -->
<g id="node5" class="node"><title>Node5</title>
<g id="a_node5"><a xlink:href="structimpala_1_1NullIndicatorOffset.html" target="_top" xlink:title="{impala::NullIndicatorOffset\n||+ NullIndicatorOffset()\l+ DebugString()\l}">
<polygon fill="white" stroke="black" points="-0.5,-494 -0.5,-562 132.5,-562 132.5,-494 -0.5,-494"/>
<text text-anchor="middle" x="66" y="-550" font-family="Helvetica,sans-Serif" font-size="10.00">impala::NullIndicatorOffset</text>
<polyline fill="none" stroke="black" points="-0.5,-543 132.5,-543 "/>
<text text-anchor="middle" x="66" y="-531" font-family="Helvetica,sans-Serif" font-size="10.00"> </text>
<polyline fill="none" stroke="black" points="-0.5,-524 132.5,-524 "/>
<text text-anchor="start" x="7.5" y="-512" font-family="Helvetica,sans-Serif" font-size="10.00">+ NullIndicatorOffset()</text>
<text text-anchor="start" x="7.5" y="-501" font-family="Helvetica,sans-Serif" font-size="10.00">+ DebugString()</text>
</a>
</g>
</g>
<!-- Node2&#45;&gt;Node5 -->
<g id="edge5" class="edge"><title>Node2&#45;&gt;Node5</title>
<path fill="none" stroke="#404040" d="M454.429,-830.327C423.456,-830.175 350.818,-825.176 313,-784 272.494,-739.897 329.914,-692.71 286,-652 239.347,-608.75 198.921,-666.104 144,-634 119.739,-619.818 100.707,-594.812 87.5176,-572.759"/>
<polygon fill="none" stroke="#404040" points="87.4588,-572.656 81.012,-569.425 81.5149,-562.231 87.9617,-565.462 87.4588,-572.656"/>
<text text-anchor="middle" x="342" y="-715.5" font-family="Helvetica,sans-Serif" font-size="10.00"> +byte_offset</text>
</g>
<!-- Node7 -->
<g id="node7" class="node"><title>Node7</title>
<g id="a_node7"><a xlink:href="structimpala_1_1ColumnType.html" target="_top" xlink:title="{impala::ColumnType\n||+ ColumnType()\l+ ColumnType()\l+ operator==()\l+ operator!=()\l+ ToThrift()\l+ IsStringType()\l+ IsVarLen()\l+ GetByteSize()\l+ GetSlotSize()\l+ ToHs2Type()\l+ DebugString()\l+ CreateCharType()\l+ CreateVarcharType()\l+ CreateDecimalType()\l+ GetDecimalByteSize()\l}">
<polygon fill="white" stroke="black" points="389.5,-422.5 389.5,-633.5 512.5,-633.5 512.5,-422.5 389.5,-422.5"/>
<text text-anchor="middle" x="451" y="-621.5" font-family="Helvetica,sans-Serif" font-size="10.00">impala::ColumnType</text>
<polyline fill="none" stroke="black" points="389.5,-614.5 512.5,-614.5 "/>
<text text-anchor="middle" x="451" y="-602.5" font-family="Helvetica,sans-Serif" font-size="10.00"> </text>
<polyline fill="none" stroke="black" points="389.5,-595.5 512.5,-595.5 "/>
<text text-anchor="start" x="397.5" y="-583.5" font-family="Helvetica,sans-Serif" font-size="10.00">+ ColumnType()</text>
<text text-anchor="start" x="397.5" y="-572.5" font-family="Helvetica,sans-Serif" font-size="10.00">+ ColumnType()</text>
<text text-anchor="start" x="397.5" y="-561.5" font-family="Helvetica,sans-Serif" font-size="10.00">+ operator==()</text>
<text text-anchor="start" x="397.5" y="-550.5" font-family="Helvetica,sans-Serif" font-size="10.00">+ operator!=()</text>
<text text-anchor="start" x="397.5" y="-539.5" font-family="Helvetica,sans-Serif" font-size="10.00">+ ToThrift()</text>
<text text-anchor="start" x="397.5" y="-528.5" font-family="Helvetica,sans-Serif" font-size="10.00">+ IsStringType()</text>
<text text-anchor="start" x="397.5" y="-517.5" font-family="Helvetica,sans-Serif" font-size="10.00">+ IsVarLen()</text>
<text text-anchor="start" x="397.5" y="-506.5" font-family="Helvetica,sans-Serif" font-size="10.00">+ GetByteSize()</text>
<text text-anchor="start" x="397.5" y="-495.5" font-family="Helvetica,sans-Serif" font-size="10.00">+ GetSlotSize()</text>
<text text-anchor="start" x="397.5" y="-484.5" font-family="Helvetica,sans-Serif" font-size="10.00">+ ToHs2Type()</text>
<text text-anchor="start" x="397.5" y="-473.5" font-family="Helvetica,sans-Serif" font-size="10.00">+ DebugString()</text>
<text text-anchor="start" x="397.5" y="-462.5" font-family="Helvetica,sans-Serif" font-size="10.00">+ CreateCharType()</text>
<text text-anchor="start" x="397.5" y="-451.5" font-family="Helvetica,sans-Serif" font-size="10.00">+ CreateVarcharType()</text>
<text text-anchor="start" x="397.5" y="-440.5" font-family="Helvetica,sans-Serif" font-size="10.00">+ CreateDecimalType()</text>
<text text-anchor="start" x="397.5" y="-429.5" font-family="Helvetica,sans-Serif" font-size="10.00">+ GetDecimalByteSize()</text>
</a>
</g>
</g>
<!-- Node2&#45;&gt;Node7 -->
<g id="edge8" class="edge"><title>Node2&#45;&gt;Node7</title>
<path fill="none" stroke="#404040" d="M454.436,-826.33C435.677,-820.733 403.843,-808.079 390,-784 365.791,-741.89 372.362,-690.58 388.26,-645.057"/>
<polygon fill="none" stroke="#404040" points="388.328,-644.872 386.657,-637.858 392.489,-633.617 394.16,-640.632 388.328,-644.872"/>
<text text-anchor="middle" x="462.5" y="-776" font-family="Helvetica,sans-Serif" font-size="10.00"> +precision</text>
<text text-anchor="middle" x="462.5" y="-765" font-family="Helvetica,sans-Serif" font-size="10.00">+MAX_CHAR_LENGTH</text>
<text text-anchor="start" x="390" y="-754" font-family="Helvetica,sans-Serif" font-size="10.00">+MAX_CHAR_INLINE</text>
<text text-anchor="middle" x="462.5" y="-743" font-family="Helvetica,sans-Serif" font-size="10.00">_LENGTH</text>
<text text-anchor="middle" x="462.5" y="-732" font-family="Helvetica,sans-Serif" font-size="10.00">+MAX_VARCHAR_LENGTH</text>
<text text-anchor="middle" x="462.5" y="-721" font-family="Helvetica,sans-Serif" font-size="10.00">+len</text>
<text text-anchor="middle" x="462.5" y="-710" font-family="Helvetica,sans-Serif" font-size="10.00">+MAX_PRECISION</text>
<text text-anchor="middle" x="462.5" y="-699" font-family="Helvetica,sans-Serif" font-size="10.00">+MAX_DECIMAL8_PRECISION</text>
<text text-anchor="middle" x="462.5" y="-688" font-family="Helvetica,sans-Serif" font-size="10.00">+MAX_SCALE</text>
<text text-anchor="middle" x="462.5" y="-677" font-family="Helvetica,sans-Serif" font-size="10.00">+scale</text>
<text text-anchor="middle" x="462.5" y="-666" font-family="Helvetica,sans-Serif" font-size="10.00">+MAX_DECIMAL4_PRECISION</text>
<text text-anchor="middle" x="462.5" y="-655" font-family="Helvetica,sans-Serif" font-size="10.00">...</text>
</g>
<!-- Node3 -->
<g id="node3" class="node"><title>Node3</title>
<polygon fill="white" stroke="#bfbfbf" points="508.5,-211.5 508.5,-268.5 603.5,-268.5 603.5,-211.5 508.5,-211.5"/>
<text text-anchor="middle" x="556" y="-256.5" font-family="Helvetica,sans-Serif" font-size="10.00">SchemaElement *</text>
<polyline fill="none" stroke="#bfbfbf" points="508.5,-249.5 603.5,-249.5 "/>
<text text-anchor="middle" x="556" y="-237.5" font-family="Helvetica,sans-Serif" font-size="10.00"> </text>
<polyline fill="none" stroke="#bfbfbf" points="508.5,-230.5 603.5,-230.5 "/>
<text text-anchor="middle" x="556" y="-218.5" font-family="Helvetica,sans-Serif" font-size="10.00"> </text>
</g>
<!-- Node3&#45;&gt;Node1 -->
<g id="edge2" class="edge"><title>Node3&#45;&gt;Node1</title>
<path fill="none" stroke="#404040" d="M557.798,-211.4C560.065,-182.75 564.828,-136.785 574,-98 574.534,-95.742 575.125,-93.4485 575.759,-91.1425"/>
<polygon fill="none" stroke="#404040" points="575.77,-91.1067 573.668,-84.2088 579.227,-79.6154 581.329,-86.5134 575.77,-91.1067"/>
<text text-anchor="middle" x="596" y="-101.5" font-family="Helvetica,sans-Serif" font-size="10.00"> +element</text>
</g>
<!-- Node4&#45;&gt;Node1 -->
<g id="edge3" class="edge"><title>Node4&#45;&gt;Node1</title>
<path fill="none" stroke="#404040" d="M413.734,-184.859C443.879,-158.093 481.322,-125.68 516,-98 520.514,-94.3968 525.225,-90.7315 529.999,-87.0861"/>
<polygon fill="none" stroke="#404040" points="530.263,-86.8866 532.643,-80.0793 539.841,-79.6575 537.462,-86.4648 530.263,-86.8866"/>
<text text-anchor="middle" x="542" y="-101.5" font-family="Helvetica,sans-Serif" font-size="10.00"> +slot_desc</text>
</g>
<!-- Node5&#45;&gt;Node4 -->
<g id="edge4" class="edge"><title>Node5&#45;&gt;Node4</title>
<path fill="none" stroke="#404040" d="M64.9598,-493.835C65.5687,-459.483 71.4359,-405.899 99,-370 144.37,-310.912 224.245,-276.759 282.54,-258.618"/>
<polygon fill="none" stroke="#404040" points="282.771,-258.549 287.365,-252.991 294.262,-255.094 289.668,-260.652 282.771,-258.549"/>
<text text-anchor="middle" x="148.5" y="-384.5" font-family="Helvetica,sans-Serif" font-size="10.00"> &#45;null_indicator_offset_</text>
</g>
<!-- Node6 -->
<g id="node6" class="node"><title>Node6</title>
<polygon fill="white" stroke="#bfbfbf" points="43,-802.5 43,-859.5 89,-859.5 89,-802.5 43,-802.5"/>
<text text-anchor="middle" x="66" y="-847.5" font-family="Helvetica,sans-Serif" font-size="10.00">uint8_t</text>
<polyline fill="none" stroke="#bfbfbf" points="43,-840.5 89,-840.5 "/>
<text text-anchor="middle" x="66" y="-828.5" font-family="Helvetica,sans-Serif" font-size="10.00"> </text>
<polyline fill="none" stroke="#bfbfbf" points="43,-821.5 89,-821.5 "/>
<text text-anchor="middle" x="66" y="-809.5" font-family="Helvetica,sans-Serif" font-size="10.00"> </text>
</g>
<!-- Node6&#45;&gt;Node5 -->
<g id="edge6" class="edge"><title>Node6&#45;&gt;Node5</title>
<path fill="none" stroke="#404040" d="M66,-802.49C66,-750.625 66,-637.916 66,-574.572"/>
<polygon fill="none" stroke="#404040" points="66.0001,-574.219 62,-568.219 66,-562.219 70,-568.219 66.0001,-574.219"/>
<text text-anchor="middle" x="90.5" y="-715.5" font-family="Helvetica,sans-Serif" font-size="10.00"> +bit_mask</text>
</g>
<!-- Node7&#45;&gt;Node4 -->
<g id="edge7" class="edge"><title>Node7&#45;&gt;Node4</title>
<path fill="none" stroke="#404040" d="M444.57,-422.145C441.718,-404.447 437.685,-386.482 432,-370 428.491,-359.825 424.096,-349.59 419.191,-339.577"/>
<polygon fill="none" stroke="#404040" points="419.149,-339.497 412.856,-335.976 413.685,-328.813 419.979,-332.333 419.149,-339.497"/>
<text text-anchor="middle" x="457.5" y="-384.5" font-family="Helvetica,sans-Serif" font-size="10.00"> &#45;type_</text>
</g>
<!-- Node8 -->
<g id="node8" class="node"><title>Node8</title>
<polygon fill="white" stroke="#bfbfbf" points="218.5,-802.5 218.5,-859.5 295.5,-859.5 295.5,-802.5 218.5,-802.5"/>
<text text-anchor="middle" x="257" y="-847.5" font-family="Helvetica,sans-Serif" font-size="10.00">PrimitiveType</text>
<polyline fill="none" stroke="#bfbfbf" points="218.5,-840.5 295.5,-840.5 "/>
<text text-anchor="middle" x="257" y="-828.5" font-family="Helvetica,sans-Serif" font-size="10.00"> </text>
<polyline fill="none" stroke="#bfbfbf" points="218.5,-821.5 295.5,-821.5 "/>
<text text-anchor="middle" x="257" y="-809.5" font-family="Helvetica,sans-Serif" font-size="10.00"> </text>
</g>
<!-- Node8&#45;&gt;Node7 -->
<g id="edge9" class="edge"><title>Node8&#45;&gt;Node7</title>
<path fill="none" stroke="#404040" d="M247.276,-802.39C235.618,-763.76 221.836,-693.654 258,-652 291.616,-613.28 328.504,-656.791 378.84,-633.149"/>
<polygon fill="none" stroke="#404040" points="378.95,-633.088 382.251,-626.676 389.439,-627.257 386.138,-633.669 378.95,-633.088"/>
<text text-anchor="middle" x="272" y="-715.5" font-family="Helvetica,sans-Serif" font-size="10.00"> +type</text>
</g>
<!-- Node9 -->
<g id="node9" class="node"><title>Node9</title>
<polygon fill="white" stroke="#bfbfbf" points="153.5,-499.5 153.5,-556.5 214.5,-556.5 214.5,-499.5 153.5,-499.5"/>
<text text-anchor="middle" x="184" y="-544.5" font-family="Helvetica,sans-Serif" font-size="10.00">Function *</text>
<polyline fill="none" stroke="#bfbfbf" points="153.5,-537.5 214.5,-537.5 "/>
<text text-anchor="middle" x="184" y="-525.5" font-family="Helvetica,sans-Serif" font-size="10.00"> </text>
<polyline fill="none" stroke="#bfbfbf" points="153.5,-518.5 214.5,-518.5 "/>
<text text-anchor="middle" x="184" y="-506.5" font-family="Helvetica,sans-Serif" font-size="10.00"> </text>
</g>
<!-- Node9&#45;&gt;Node4 -->
<g id="edge10" class="edge"><title>Node9&#45;&gt;Node4</title>
<path fill="none" stroke="#404040" d="M184.369,-499.425C185.907,-466.62 192.059,-411.127 215,-370 232.141,-339.271 259.196,-311.716 284.9,-290.041"/>
<polygon fill="none" stroke="#404040" points="285.017,-289.945 287.113,-283.045 294.288,-282.326 292.192,-289.226 285.017,-289.945"/>
<text text-anchor="middle" x="252.5" y="-395.5" font-family="Helvetica,sans-Serif" font-size="10.00"> &#45;set_null_fn_</text>
<text text-anchor="middle" x="252.5" y="-384.5" font-family="Helvetica,sans-Serif" font-size="10.00">&#45;is_null_fn_</text>
<text text-anchor="middle" x="252.5" y="-373.5" font-family="Helvetica,sans-Serif" font-size="10.00">&#45;set_not_null_fn_</text>
</g>
<!-- Node10 -->
<g id="node10" class="node"><title>Node10</title>
<polygon fill="white" stroke="#bfbfbf" points="246,-499.5 246,-556.5 318,-556.5 318,-499.5 246,-499.5"/>
<text text-anchor="middle" x="282" y="-544.5" font-family="Helvetica,sans-Serif" font-size="10.00">vector&lt; int &gt;</text>
<polyline fill="none" stroke="#bfbfbf" points="246,-537.5 318,-537.5 "/>
<text text-anchor="middle" x="282" y="-525.5" font-family="Helvetica,sans-Serif" font-size="10.00"> </text>
<polyline fill="none" stroke="#bfbfbf" points="246,-518.5 318,-518.5 "/>
<text text-anchor="middle" x="282" y="-506.5" font-family="Helvetica,sans-Serif" font-size="10.00"> </text>
</g>
<!-- Node10&#45;&gt;Node4 -->
<g id="edge11" class="edge"><title>Node10&#45;&gt;Node4</title>
<path fill="none" stroke="#404040" d="M283.097,-499.354C284.869,-467.661 289.428,-414.367 301,-370 301.633,-367.575 302.301,-365.135 303,-362.685"/>
<polygon fill="none" stroke="#404040" points="303.01,-362.654 300.922,-355.752 306.49,-351.17 308.578,-358.072 303.01,-362.654"/>
<text text-anchor="middle" x="325.5" y="-384.5" font-family="Helvetica,sans-Serif" font-size="10.00"> &#45;col_path_</text>
</g>
<!-- Node11 -->
<g id="node11" class="node"><title>Node11</title>
<g id="a_node11"><a xlink:href="classbool.html" target="_top" xlink:title="{bool\n||}">
<polygon fill="white" stroke="black" points="336.5,-499.5 336.5,-556.5 371.5,-556.5 371.5,-499.5 336.5,-499.5"/>
<text text-anchor="middle" x="354" y="-544.5" font-family="Helvetica,sans-Serif" font-size="10.00">bool</text>
<polyline fill="none" stroke="black" points="336.5,-537.5 371.5,-537.5 "/>
<text text-anchor="middle" x="354" y="-525.5" font-family="Helvetica,sans-Serif" font-size="10.00"> </text>
<polyline fill="none" stroke="black" points="336.5,-518.5 371.5,-518.5 "/>
<text text-anchor="middle" x="354" y="-506.5" font-family="Helvetica,sans-Serif" font-size="10.00"> </text>
</a>
</g>
</g>
<!-- Node11&#45;&gt;Node4 -->
<g id="edge13" class="edge"><title>Node11&#45;&gt;Node4</title>
<path fill="none" stroke="#404040" d="M354,-499.317C354,-467.651 354,-413.644 354,-363.175"/>
<polygon fill="none" stroke="#404040" points="354,-363.118 350,-357.118 354,-351.118 358,-357.118 354,-363.118"/>
<text text-anchor="middle" x="392.5" y="-384.5" font-family="Helvetica,sans-Serif" font-size="10.00"> &#45;is_materialized_</text>
</g>
<!-- Node12 -->
<g id="node12" class="node"><title>Node12</title>
<polygon fill="white" stroke="#bfbfbf" points="660,-206 660,-274 802,-274 802,-206 660,-206"/>
<text text-anchor="start" x="668" y="-262" font-family="Helvetica,sans-Serif" font-size="10.00">vector&lt; impala::HdfsParquet</text>
<text text-anchor="middle" x="731" y="-251" font-family="Helvetica,sans-Serif" font-size="10.00">Scanner::SchemaNode &gt;</text>
<polyline fill="none" stroke="#bfbfbf" points="660,-244 802,-244 "/>
<text text-anchor="middle" x="731" y="-232" font-family="Helvetica,sans-Serif" font-size="10.00"> </text>
<polyline fill="none" stroke="#bfbfbf" points="660,-225 802,-225 "/>
<text text-anchor="middle" x="731" y="-213" font-family="Helvetica,sans-Serif" font-size="10.00"> </text>
</g>
<!-- Node12&#45;&gt;Node1 -->
<g id="edge14" class="edge"><title>Node12&#45;&gt;Node1</title>
<path fill="none" stroke="#404040" d="M713.494,-205.914C697.406,-176.569 672.153,-133.051 646,-98 643.788,-95.0359 641.449,-92.0481 639.035,-89.0763"/>
<polygon fill="none" stroke="#404040" points="638.862,-88.8706 631.938,-86.8541 631.137,-79.6876 638.06,-81.7041 638.862,-88.8706"/>
<text text-anchor="middle" x="675.5" y="-101.5" font-family="Helvetica,sans-Serif" font-size="10.00"> +children</text>
</g>
</g>
</svg>
        <g id="navigator" transform="translate(0 0)" fill="#404254">
                <rect fill="#f2f5e9" fill-opacity="0.5" stroke="#606060" stroke-width=".5" x="0" y="0" width="60" height="60"/>
                <use id="zoomplus" xlink:href="#zoomPlus" x="17" y="9" onmousedown="handleZoom(evt,'in')"/>
                <use id="zoomminus" xlink:href="#zoomMin" x="42" y="9" onmousedown="handleZoom(evt,'out')"/>
                <use id="reset" xlink:href="#resetDef" x="30" y="36" onmousedown="handleReset()"/>
                <g id="arrowUp" xlink:href="#dirArrow" transform="translate(30 24)" onmousedown="handlePan(0,-1)">
                  <use xlink:href="#rim" fill="#404040">
                        <set attributeName="fill" to="#808080" begin="arrowUp.mouseover" end="arrowUp.mouseout"/>
                  </use>
                  <path fill="none" stroke="white" stroke-width="1.5" d="M0,-3.0v7 M-2.5,-0.5L0,-3.0L2.5,-0.5"/>
                </g>
                <g id="arrowRight" xlink:href="#dirArrow" transform="rotate(90) translate(36 -43)" onmousedown="handlePan(1,0)">
                  <use xlink:href="#rim" fill="#404040">
                        <set attributeName="fill" to="#808080" begin="arrowRight.mouseover" end="arrowRight.mouseout"/>
                  </use>
                  <path fill="none" stroke="white" stroke-width="1.5" d="M0,-3.0v7 M-2.5,-0.5L0,-3.0L2.5,-0.5"/>
                </g>
                <g id="arrowDown" xlink:href="#dirArrow" transform="rotate(180) translate(-30 -48)" onmousedown="handlePan(0,1)">
                  <use xlink:href="#rim" fill="#404040">
                        <set attributeName="fill" to="#808080" begin="arrowDown.mouseover" end="arrowDown.mouseout"/>
                  </use>
                  <path fill="none" stroke="white" stroke-width="1.5" d="M0,-3.0v7 M-2.5,-0.5L0,-3.0L2.5,-0.5"/>
                </g>
                <g id="arrowLeft" xlink:href="#dirArrow" transform="rotate(270) translate(-36 17)" onmousedown="handlePan(-1,0)">
                  <use xlink:href="#rim" fill="#404040">
                        <set attributeName="fill" to="#808080" begin="arrowLeft.mouseover" end="arrowLeft.mouseout"/>
                  </use>
                  <path fill="none" stroke="white" stroke-width="1.5" d="M0,-3.0v7 M-2.5,-0.5L0,-3.0L2.5,-0.5"/>
                </g>
        </g>
        <svg viewBox="0 0 15 15" width="100%" height="30px" preserveAspectRatio="xMaxYMin meet">
         <g id="arrow_out" transform="scale(0.3 0.3)">
          <a xlink:href="structimpala_1_1HdfsParquetScanner_1_1SchemaNode__coll__graph_org.svg" target="_base">
           <rect id="button" ry="5" rx="5" y="6" x="6" height="38" width="38"
                fill="#f2f5e9" fill-opacity="0.5" stroke="#606060" stroke-width="1.0"/>
           <path id="arrow"
             d="M 11.500037,31.436501 C 11.940474,20.09759 22.043105,11.32322 32.158766,21.979434 L 37.068811,17.246167 C 37.068811,17.246167 37.088388,32 37.088388,32 L 22.160133,31.978069 C 22.160133,31.978069 26.997745,27.140456 26.997745,27.140456 C 18.528582,18.264221 13.291696,25.230495 11.500037,31.436501 z"
             style="fill:#404040;"/>
          </a>
         </g>
        </svg>
</svg>
