<?xml version="1.0" encoding="UTF-8" standalone="no"?>
<!DOCTYPE svg PUBLIC "-//W3C//DTD SVG 1.1//EN"
 "http://www.w3.org/Graphics/SVG/1.1/DTD/svg11.dtd">
<!-- Generated by graphviz version 2.36.0 (20140111.2315)
 -->
<!-- Title: impala::DictEncoder&lt; T &gt;::Node Pages: 1 -->
<svg width="114pt" height="184pt"
 viewBox="0.00 0.00 114.00 184.00" xmlns="http://www.w3.org/2000/svg" xmlns:xlink="http://www.w3.org/1999/xlink">
<g id="graph0" class="graph" transform="scale(1 1) rotate(0) translate(4 180)">
<title>impala::DictEncoder&lt; T &gt;::Node</title>
<polygon fill="white" stroke="none" points="-4,4 -4,-180 110,-180 110,4 -4,4"/>
<!-- Node1 -->
<g id="node1" class="node"><title>Node1</title>
<polygon fill="#bfbfbf" stroke="black" points="1.5,-1 1.5,-69 106.5,-69 106.5,-1 1.5,-1"/>
<text text-anchor="start" x="9.5" y="-57" font-family="Helvetica,sans-Serif" font-size="10.00">impala::DictEncoder</text>
<text text-anchor="middle" x="54" y="-46" font-family="Helvetica,sans-Serif" font-size="10.00">&lt; T &gt;::Node</text>
<polyline fill="none" stroke="black" points="1.5,-39 106.5,-39 "/>
<text text-anchor="middle" x="54" y="-27" font-family="Helvetica,sans-Serif" font-size="10.00"> </text>
<polyline fill="none" stroke="black" points="1.5,-20 106.5,-20 "/>
<text text-anchor="start" x="9.5" y="-8" font-family="Helvetica,sans-Serif" font-size="10.00">+ Node()</text>
</g>
<!-- Node2 -->
<g id="node2" class="node"><title>Node2</title>
<polygon fill="white" stroke="#bfbfbf" points="-0.5,-118.5 -0.5,-175.5 50.5,-175.5 50.5,-118.5 -0.5,-118.5"/>
<text text-anchor="middle" x="25" y="-163.5" font-family="Helvetica,sans-Serif" font-size="10.00">uint16_t</text>
<polyline fill="none" stroke="#bfbfbf" points="-0.5,-156.5 50.5,-156.5 "/>
<text text-anchor="middle" x="25" y="-144.5" font-family="Helvetica,sans-Serif" font-size="10.00"> </text>
<polyline fill="none" stroke="#bfbfbf" points="-0.5,-137.5 50.5,-137.5 "/>
<text text-anchor="middle" x="25" y="-125.5" font-family="Helvetica,sans-Serif" font-size="10.00"> </text>
</g>
<!-- Node2&#45;&gt;Node1 -->
<g id="edge1" class="edge"><title>Node2&#45;&gt;Node1</title>
<path fill="none" stroke="#404040" d="M27.4122,-118.285C28.6252,-108.601 30.4087,-97.7238 33,-88 33.6464,-85.5745 34.3755,-83.1102 35.1643,-80.6395"/>
<polygon fill="none" stroke="#404040" points="35.2226,-80.4734 33.4387,-73.4864 39.2022,-69.1524 40.986,-76.1394 35.2226,-80.4734"/>
<text text-anchor="middle" x="47" y="-91.5" font-family="Helvetica,sans-Serif" font-size="10.00"> +next</text>
</g>
<!-- Node3 -->
<g id="node3" class="node"><title>Node3</title>
<polygon fill="white" stroke="#bfbfbf" points="68.5,-118.5 68.5,-175.5 97.5,-175.5 97.5,-118.5 68.5,-118.5"/>
<text text-anchor="middle" x="83" y="-163.5" font-family="Helvetica,sans-Serif" font-size="10.00">T</text>
<polyline fill="none" stroke="#bfbfbf" points="68.5,-156.5 97.5,-156.5 "/>
<text text-anchor="middle" x="83" y="-144.5" font-family="Helvetica,sans-Serif" font-size="10.00"> </text>
<polyline fill="none" stroke="#bfbfbf" points="68.5,-137.5 97.5,-137.5 "/>
<text text-anchor="middle" x="83" y="-125.5" font-family="Helvetica,sans-Serif" font-size="10.00"> </text>
</g>
<!-- Node3&#45;&gt;Node1 -->
<g id="edge2" class="edge"><title>Node3&#45;&gt;Node1</title>
<path fill="none" stroke="#404040" d="M75.6821,-118.242C72.7066,-106.956 69.1914,-93.6225 65.8672,-81.0134"/>
<polygon fill="none" stroke="#404040" points="65.8216,-80.8403 60.4242,-76.0583 62.7624,-69.2368 68.1599,-74.0188 65.8216,-80.8403"/>
<text text-anchor="middle" x="87.5" y="-91.5" font-family="Helvetica,sans-Serif" font-size="10.00"> +value</text>
</g>
</g>
</svg>
