<?xml version="1.0" encoding="UTF-8" standalone="no"?>
<!DOCTYPE svg PUBLIC "-//W3C//DTD SVG 1.1//EN"
 "http://www.w3.org/Graphics/SVG/1.1/DTD/svg11.dtd">
<!-- Generated by graphviz version 2.36.0 (20140111.2315)
 -->
<!-- Title: impala::DateTimeFormatContext Pages: 1 -->
<svg width="322pt" height="216pt"
 viewBox="0.00 0.00 322.00 216.00" xmlns="http://www.w3.org/2000/svg" xmlns:xlink="http://www.w3.org/1999/xlink">
<g id="graph0" class="graph" transform="scale(1 1) rotate(0) translate(4 212)">
<title>impala::DateTimeFormatContext</title>
<polygon fill="white" stroke="none" points="-4,4 -4,-212 318,-212 318,4 -4,4"/>
<!-- Node1 -->
<g id="node1" class="node"><title>Node1</title>
<polygon fill="#bfbfbf" stroke="black" points="27.5,-0.5 27.5,-79.5 186.5,-79.5 186.5,-0.5 27.5,-0.5"/>
<text text-anchor="middle" x="107" y="-67.5" font-family="Helvetica,sans-Serif" font-size="10.00">impala::DateTimeFormatContext</text>
<polyline fill="none" stroke="black" points="27.5,-60.5 186.5,-60.5 "/>
<text text-anchor="middle" x="107" y="-48.5" font-family="Helvetica,sans-Serif" font-size="10.00"> </text>
<polyline fill="none" stroke="black" points="27.5,-41.5 186.5,-41.5 "/>
<text text-anchor="start" x="35.5" y="-29.5" font-family="Helvetica,sans-Serif" font-size="10.00">+ DateTimeFormatContext()</text>
<text text-anchor="start" x="35.5" y="-18.5" font-family="Helvetica,sans-Serif" font-size="10.00">+ DateTimeFormatContext()</text>
<text text-anchor="start" x="35.5" y="-7.5" font-family="Helvetica,sans-Serif" font-size="10.00">+ Reset()</text>
</g>
<!-- Node2 -->
<g id="node2" class="node"><title>Node2</title>
<polygon fill="white" stroke="#bfbfbf" points="-0.5,-144.5 -0.5,-201.5 34.5,-201.5 34.5,-144.5 -0.5,-144.5"/>
<text text-anchor="middle" x="17" y="-189.5" font-family="Helvetica,sans-Serif" font-size="10.00">char</text>
<polyline fill="none" stroke="#bfbfbf" points="-0.5,-182.5 34.5,-182.5 "/>
<text text-anchor="middle" x="17" y="-170.5" font-family="Helvetica,sans-Serif" font-size="10.00"> </text>
<polyline fill="none" stroke="#bfbfbf" points="-0.5,-163.5 34.5,-163.5 "/>
<text text-anchor="middle" x="17" y="-151.5" font-family="Helvetica,sans-Serif" font-size="10.00"> </text>
</g>
<!-- Node2&#45;&gt;Node1 -->
<g id="edge1" class="edge"><title>Node2&#45;&gt;Node1</title>
<path fill="none" stroke="#404040" d="M19.8347,-144.291C22.349,-129.616 27.0853,-111.822 36,-98 38.0335,-94.8472 40.3002,-91.789 42.7395,-88.835"/>
<polygon fill="none" stroke="#404040" points="42.9386,-88.6175 44.0404,-81.4911 51.0424,-79.7672 49.9406,-86.8937 42.9386,-88.6175"/>
<text text-anchor="middle" x="48" y="-106.5" font-family="Helvetica,sans-Serif" font-size="10.00"> +fmt</text>
</g>
<!-- Node3 -->
<g id="node3" class="node"><title>Node3</title>
<polygon fill="white" stroke="#bfbfbf" points="52.5,-144.5 52.5,-201.5 81.5,-201.5 81.5,-144.5 52.5,-144.5"/>
<text text-anchor="middle" x="67" y="-189.5" font-family="Helvetica,sans-Serif" font-size="10.00">int</text>
<polyline fill="none" stroke="#bfbfbf" points="52.5,-182.5 81.5,-182.5 "/>
<text text-anchor="middle" x="67" y="-170.5" font-family="Helvetica,sans-Serif" font-size="10.00"> </text>
<polyline fill="none" stroke="#bfbfbf" points="52.5,-163.5 81.5,-163.5 "/>
<text text-anchor="middle" x="67" y="-151.5" font-family="Helvetica,sans-Serif" font-size="10.00"> </text>
</g>
<!-- Node3&#45;&gt;Node1 -->
<g id="edge2" class="edge"><title>Node3&#45;&gt;Node1</title>
<path fill="none" stroke="#404040" d="M63.6241,-144.332C62.8249,-130.163 63.3051,-112.821 68,-98 68.8091,-95.446 69.774,-92.9035 70.8614,-90.3902"/>
<polygon fill="none" stroke="#404040" points="70.8968,-90.3201 70.0336,-83.1609 76.3102,-79.6105 77.1734,-86.7698 70.8968,-90.3201"/>
<text text-anchor="middle" x="97" y="-112" font-family="Helvetica,sans-Serif" font-size="10.00"> +fmt_len</text>
<text text-anchor="middle" x="97" y="-101" font-family="Helvetica,sans-Serif" font-size="10.00">+fmt_out_len</text>
</g>
<!-- Node4 -->
<g id="node4" class="node"><title>Node4</title>
<g id="a_node4"><a xlink:href="classbool.html" target="_top" xlink:title="{bool\n||}">
<polygon fill="white" stroke="black" points="130.5,-144.5 130.5,-201.5 165.5,-201.5 165.5,-144.5 130.5,-144.5"/>
<text text-anchor="middle" x="148" y="-189.5" font-family="Helvetica,sans-Serif" font-size="10.00">bool</text>
<polyline fill="none" stroke="black" points="130.5,-182.5 165.5,-182.5 "/>
<text text-anchor="middle" x="148" y="-170.5" font-family="Helvetica,sans-Serif" font-size="10.00"> </text>
<polyline fill="none" stroke="black" points="130.5,-163.5 165.5,-163.5 "/>
<text text-anchor="middle" x="148" y="-151.5" font-family="Helvetica,sans-Serif" font-size="10.00"> </text>
</a>
</g>
</g>
<!-- Node4&#45;&gt;Node1 -->
<g id="edge3" class="edge"><title>Node4&#45;&gt;Node1</title>
<path fill="none" stroke="#404040" d="M139.962,-144.174C135.886,-130.271 130.795,-113.212 126,-98 125.294,-95.7616 124.566,-93.4763 123.824,-91.1697"/>
<polygon fill="none" stroke="#404040" points="123.765,-90.9876 118.104,-86.5211 120.049,-79.5774 125.711,-84.0439 123.765,-90.9876"/>
<text text-anchor="middle" x="169.5" y="-112" font-family="Helvetica,sans-Serif" font-size="10.00"> +has_date_toks</text>
<text text-anchor="middle" x="169.5" y="-101" font-family="Helvetica,sans-Serif" font-size="10.00">+has_time_toks</text>
</g>
<!-- Node5 -->
<g id="node5" class="node"><title>Node5</title>
<polygon fill="white" stroke="#bfbfbf" points="184,-139 184,-207 314,-207 314,-139 184,-139"/>
<text text-anchor="start" x="192" y="-195" font-family="Helvetica,sans-Serif" font-size="10.00">vector&lt; impala::DateTime</text>
<text text-anchor="middle" x="249" y="-184" font-family="Helvetica,sans-Serif" font-size="10.00">FormatToken &gt;</text>
<polyline fill="none" stroke="#bfbfbf" points="184,-177 314,-177 "/>
<text text-anchor="middle" x="249" y="-165" font-family="Helvetica,sans-Serif" font-size="10.00"> </text>
<polyline fill="none" stroke="#bfbfbf" points="184,-158 314,-158 "/>
<text text-anchor="middle" x="249" y="-146" font-family="Helvetica,sans-Serif" font-size="10.00"> </text>
</g>
<!-- Node5&#45;&gt;Node1 -->
<g id="edge4" class="edge"><title>Node5&#45;&gt;Node1</title>
<path fill="none" stroke="#404040" d="M236.496,-138.754C230.112,-124.956 221.281,-109.514 210,-98 205.881,-93.7962 201.386,-89.8168 196.65,-86.0647"/>
<polygon fill="none" stroke="#404040" points="196.296,-85.8038 189.093,-85.463 186.637,-78.6829 193.84,-79.0237 196.296,-85.8038"/>
<text text-anchor="middle" x="241" y="-106.5" font-family="Helvetica,sans-Serif" font-size="10.00"> +toks</text>
</g>
</g>
</svg>
