<?xml version="1.0" encoding="UTF-8" standalone="no"?>
<!DOCTYPE svg PUBLIC "-//W3C//DTD SVG 1.1//EN"
 "http://www.w3.org/Graphics/SVG/1.1/DTD/svg11.dtd">
<!-- Generated by graphviz version 2.36.0 (20140111.2315)
 -->
<!-- Title: impala::FieldLocation Pages: 1 -->
<svg width="167pt" height="182pt"
 viewBox="0.00 0.00 167.00 182.00" xmlns="http://www.w3.org/2000/svg" xmlns:xlink="http://www.w3.org/1999/xlink">
<g id="graph0" class="graph" transform="scale(1 1) rotate(0) translate(4 178)">
<title>impala::FieldLocation</title>
<polygon fill="white" stroke="none" points="-4,4 -4,-178 163,-178 163,4 -4,4"/>
<!-- Node1 -->
<g id="node1" class="node"><title>Node1</title>
<polygon fill="#bfbfbf" stroke="black" points="26.5,-0.5 26.5,-57.5 135.5,-57.5 135.5,-0.5 26.5,-0.5"/>
<text text-anchor="middle" x="81" y="-45.5" font-family="Helvetica,sans-Serif" font-size="10.00">impala::FieldLocation</text>
<polyline fill="none" stroke="black" points="26.5,-38.5 135.5,-38.5 "/>
<text text-anchor="middle" x="81" y="-26.5" font-family="Helvetica,sans-Serif" font-size="10.00"> </text>
<polyline fill="none" stroke="black" points="26.5,-19.5 135.5,-19.5 "/>
<text text-anchor="middle" x="81" y="-7.5" font-family="Helvetica,sans-Serif" font-size="10.00"> </text>
</g>
<!-- Node2 -->
<g id="node2" class="node"><title>Node2</title>
<polygon fill="white" stroke="#bfbfbf" points="-0.5,-116.5 -0.5,-173.5 34.5,-173.5 34.5,-116.5 -0.5,-116.5"/>
<text text-anchor="middle" x="17" y="-161.5" font-family="Helvetica,sans-Serif" font-size="10.00">char</text>
<polyline fill="none" stroke="#bfbfbf" points="-0.5,-154.5 34.5,-154.5 "/>
<text text-anchor="middle" x="17" y="-142.5" font-family="Helvetica,sans-Serif" font-size="10.00"> </text>
<polyline fill="none" stroke="#bfbfbf" points="-0.5,-135.5 34.5,-135.5 "/>
<text text-anchor="middle" x="17" y="-123.5" font-family="Helvetica,sans-Serif" font-size="10.00"> </text>
</g>
<!-- Node2&#45;&gt;Node1 -->
<g id="edge1" class="edge"><title>Node2&#45;&gt;Node1</title>
<path fill="none" stroke="#404040" d="M11.9505,-116.48C10.8984,-103.528 11.6527,-88.2694 18,-76 19.718,-72.679 21.7983,-69.5393 24.1426,-66.5804"/>
<polygon fill="none" stroke="#404040" points="24.2104,-66.5079 25.3886,-59.3937 32.4088,-57.7451 31.2305,-64.8593 24.2104,-66.5079"/>
<text text-anchor="middle" x="70.5" y="-90" font-family="Helvetica,sans-Serif" font-size="10.00"> +start</text>
<text text-anchor="middle" x="70.5" y="-79" font-family="Helvetica,sans-Serif" font-size="10.00">+LLVM_CLASS_NAME</text>
</g>
<!-- Node3 -->
<g id="node3" class="node"><title>Node3</title>
<polygon fill="white" stroke="#bfbfbf" points="130.5,-116.5 130.5,-173.5 159.5,-173.5 159.5,-116.5 130.5,-116.5"/>
<text text-anchor="middle" x="145" y="-161.5" font-family="Helvetica,sans-Serif" font-size="10.00">int</text>
<polyline fill="none" stroke="#bfbfbf" points="130.5,-154.5 159.5,-154.5 "/>
<text text-anchor="middle" x="145" y="-142.5" font-family="Helvetica,sans-Serif" font-size="10.00"> </text>
<polyline fill="none" stroke="#bfbfbf" points="130.5,-135.5 159.5,-135.5 "/>
<text text-anchor="middle" x="145" y="-123.5" font-family="Helvetica,sans-Serif" font-size="10.00"> </text>
</g>
<!-- Node3&#45;&gt;Node1 -->
<g id="edge2" class="edge"><title>Node3&#45;&gt;Node1</title>
<path fill="none" stroke="#404040" d="M138.946,-116.398C135.427,-103.573 130.232,-88.4445 123,-76 121.268,-73.0197 119.316,-70.0684 117.226,-67.1851"/>
<polygon fill="none" stroke="#404040" points="117.162,-67.1037 110.3,-64.8874 109.706,-57.7007 116.568,-59.917 117.162,-67.1037"/>
<text text-anchor="middle" x="143" y="-84.5" font-family="Helvetica,sans-Serif" font-size="10.00"> +len</text>
</g>
</g>
</svg>
