<?xml version="1.0" encoding="UTF-8" standalone="no"?>
<!DOCTYPE svg PUBLIC "-//W3C//DTD SVG 1.1//EN"
 "http://www.w3.org/Graphics/SVG/1.1/DTD/svg11.dtd">
<!-- Generated by graphviz version 2.36.0 (20140111.2315)
 -->
<!-- Title: impala::StringValue Pages: 1 -->
<svg width="170pt" height="348pt"
 viewBox="0.00 0.00 170.00 348.00" xmlns="http://www.w3.org/2000/svg" xmlns:xlink="http://www.w3.org/1999/xlink">
<g id="graph0" class="graph" transform="scale(1 1) rotate(0) translate(4 344)">
<title>impala::StringValue</title>
<polygon fill="white" stroke="none" points="-4,4 -4,-344 166,-344 166,4 -4,4"/>
<!-- Node1 -->
<g id="node1" class="node"><title>Node1</title>
<polygon fill="#bfbfbf" stroke="black" points="19,-1 19,-223 145,-223 145,-1 19,-1"/>
<text text-anchor="middle" x="82" y="-211" font-family="Helvetica,sans-Serif" font-size="10.00">impala::StringValue</text>
<polyline fill="none" stroke="black" points="19,-204 145,-204 "/>
<text text-anchor="middle" x="82" y="-192" font-family="Helvetica,sans-Serif" font-size="10.00"> </text>
<polyline fill="none" stroke="black" points="19,-185 145,-185 "/>
<text text-anchor="start" x="27" y="-173" font-family="Helvetica,sans-Serif" font-size="10.00">+ StringValue()</text>
<text text-anchor="start" x="27" y="-162" font-family="Helvetica,sans-Serif" font-size="10.00">+ StringValue()</text>
<text text-anchor="start" x="27" y="-151" font-family="Helvetica,sans-Serif" font-size="10.00">+ StringValue()</text>
<text text-anchor="start" x="27" y="-140" font-family="Helvetica,sans-Serif" font-size="10.00">+ StringValue()</text>
<text text-anchor="start" x="27" y="-129" font-family="Helvetica,sans-Serif" font-size="10.00">+ Compare()</text>
<text text-anchor="start" x="27" y="-118" font-family="Helvetica,sans-Serif" font-size="10.00">+ Eq()</text>
<text text-anchor="start" x="27" y="-107" font-family="Helvetica,sans-Serif" font-size="10.00">+ operator==()</text>
<text text-anchor="start" x="27" y="-96" font-family="Helvetica,sans-Serif" font-size="10.00">+ Ne()</text>
<text text-anchor="start" x="27" y="-85" font-family="Helvetica,sans-Serif" font-size="10.00">+ operator!=()</text>
<text text-anchor="start" x="27" y="-74" font-family="Helvetica,sans-Serif" font-size="10.00">+ Le()</text>
<text text-anchor="start" x="27" y="-63" font-family="Helvetica,sans-Serif" font-size="10.00">and 12 more...</text>
<text text-anchor="start" x="27" y="-52" font-family="Helvetica,sans-Serif" font-size="10.00">+ FromStringVal()</text>
<text text-anchor="start" x="27" y="-41" font-family="Helvetica,sans-Serif" font-size="10.00">+ PadWithSpaces()</text>
<text text-anchor="start" x="27" y="-30" font-family="Helvetica,sans-Serif" font-size="10.00">+ UnpaddedCharLength()</text>
<text text-anchor="start" x="27" y="-19" font-family="Helvetica,sans-Serif" font-size="10.00">+ CharSlotToPtr()</text>
<text text-anchor="start" x="27" y="-8" font-family="Helvetica,sans-Serif" font-size="10.00">+ CharSlotToPtr()</text>
</g>
<!-- Node2 -->
<g id="node2" class="node"><title>Node2</title>
<polygon fill="white" stroke="#bfbfbf" points="-0.5,-282.5 -0.5,-339.5 34.5,-339.5 34.5,-282.5 -0.5,-282.5"/>
<text text-anchor="middle" x="17" y="-327.5" font-family="Helvetica,sans-Serif" font-size="10.00">char</text>
<polyline fill="none" stroke="#bfbfbf" points="-0.5,-320.5 34.5,-320.5 "/>
<text text-anchor="middle" x="17" y="-308.5" font-family="Helvetica,sans-Serif" font-size="10.00"> </text>
<polyline fill="none" stroke="#bfbfbf" points="-0.5,-301.5 34.5,-301.5 "/>
<text text-anchor="middle" x="17" y="-289.5" font-family="Helvetica,sans-Serif" font-size="10.00"> </text>
</g>
<!-- Node2&#45;&gt;Node1 -->
<g id="edge1" class="edge"><title>Node2&#45;&gt;Node1</title>
<path fill="none" stroke="#404040" d="M14.6477,-282.189C14.2966,-269.735 14.8594,-254.967 18,-242 18.5628,-239.676 19.1728,-237.347 19.8257,-235.014"/>
<polygon fill="none" stroke="#404040" points="19.8881,-234.812 17.8362,-227.899 23.4283,-223.346 25.4802,-230.259 19.8881,-234.812"/>
<text text-anchor="middle" x="72" y="-256" font-family="Helvetica,sans-Serif" font-size="10.00"> +LLVM_CLASS_NAME</text>
<text text-anchor="middle" x="72" y="-245" font-family="Helvetica,sans-Serif" font-size="10.00">+ptr</text>
</g>
<!-- Node3 -->
<g id="node3" class="node"><title>Node3</title>
<polygon fill="white" stroke="#bfbfbf" points="133.5,-282.5 133.5,-339.5 162.5,-339.5 162.5,-282.5 133.5,-282.5"/>
<text text-anchor="middle" x="148" y="-327.5" font-family="Helvetica,sans-Serif" font-size="10.00">int</text>
<polyline fill="none" stroke="#bfbfbf" points="133.5,-320.5 162.5,-320.5 "/>
<text text-anchor="middle" x="148" y="-308.5" font-family="Helvetica,sans-Serif" font-size="10.00"> </text>
<polyline fill="none" stroke="#bfbfbf" points="133.5,-301.5 162.5,-301.5 "/>
<text text-anchor="middle" x="148" y="-289.5" font-family="Helvetica,sans-Serif" font-size="10.00"> </text>
</g>
<!-- Node3&#45;&gt;Node1 -->
<g id="edge2" class="edge"><title>Node3&#45;&gt;Node1</title>
<path fill="none" stroke="#404040" d="M139.108,-282.176C135.141,-269.852 130.382,-255.188 126,-242 125.198,-239.588 124.387,-237.151 123.567,-234.696"/>
<polygon fill="none" stroke="#404040" points="123.493,-234.473 117.794,-230.054 119.682,-223.095 125.38,-227.514 123.493,-234.473"/>
<text text-anchor="middle" x="143" y="-250.5" font-family="Helvetica,sans-Serif" font-size="10.00"> +len</text>
</g>
</g>
</svg>
