<?xml version="1.0" encoding="UTF-8" standalone="no"?>
<!DOCTYPE svg PUBLIC "-//W3C//DTD SVG 1.1//EN"
 "http://www.w3.org/Graphics/SVG/1.1/DTD/svg11.dtd">
<!-- Generated by graphviz version 2.36.0 (20140111.2315)
 -->
<!-- Title: impala::RowEqualityChecker Pages: 1 -->
<svg width="162pt" height="196pt"
 viewBox="0.00 0.00 162.00 196.00" xmlns="http://www.w3.org/2000/svg" xmlns:xlink="http://www.w3.org/1999/xlink">
<g id="graph0" class="graph" transform="scale(1 1) rotate(0) translate(4 192)">
<title>impala::RowEqualityChecker</title>
<polygon fill="white" stroke="none" points="-4,4 -4,-192 158,-192 158,4 -4,4"/>
<!-- Node1 -->
<g id="node1" class="node"><title>Node1</title>
<polygon fill="#bfbfbf" stroke="black" points="1.5,-1 1.5,-69 144.5,-69 144.5,-1 1.5,-1"/>
<text text-anchor="middle" x="73" y="-57" font-family="Helvetica,sans-Serif" font-size="10.00">impala::RowEqualityChecker</text>
<polyline fill="none" stroke="black" points="1.5,-50 144.5,-50 "/>
<text text-anchor="middle" x="73" y="-38" font-family="Helvetica,sans-Serif" font-size="10.00"> </text>
<polyline fill="none" stroke="black" points="1.5,-31 144.5,-31 "/>
<text text-anchor="start" x="9.5" y="-19" font-family="Helvetica,sans-Serif" font-size="10.00">+ RowEqualityChecker()</text>
<text text-anchor="start" x="9.5" y="-8" font-family="Helvetica,sans-Serif" font-size="10.00">+ operator()()</text>
</g>
<!-- Node2 -->
<g id="node2" class="node"><title>Node2</title>
<polygon fill="white" stroke="#bfbfbf" points="0,-119 0,-187 146,-187 146,-119 0,-119"/>
<text text-anchor="start" x="8" y="-175" font-family="Helvetica,sans-Serif" font-size="10.00">vector&lt; impala::TupleEquality</text>
<text text-anchor="middle" x="73" y="-164" font-family="Helvetica,sans-Serif" font-size="10.00">Checker &gt;</text>
<polyline fill="none" stroke="#bfbfbf" points="0,-157 146,-157 "/>
<text text-anchor="middle" x="73" y="-145" font-family="Helvetica,sans-Serif" font-size="10.00"> </text>
<polyline fill="none" stroke="#bfbfbf" points="0,-138 146,-138 "/>
<text text-anchor="middle" x="73" y="-126" font-family="Helvetica,sans-Serif" font-size="10.00"> </text>
</g>
<!-- Node2&#45;&gt;Node1 -->
<g id="edge1" class="edge"><title>Node2&#45;&gt;Node1</title>
<path fill="none" stroke="#404040" d="M73,-118.759C73,-107.11 73,-93.8205 73,-81.3509"/>
<polygon fill="none" stroke="#404040" points="73.0001,-81.2458 69,-75.2458 73,-69.2458 77,-75.2458 73.0001,-81.2458"/>
<text text-anchor="middle" x="113.5" y="-91.5" font-family="Helvetica,sans-Serif" font-size="10.00"> +tuple_checkers_</text>
</g>
</g>
</svg>
