<?xml version="1.0" encoding="UTF-8" standalone="no"?>
<!DOCTYPE svg PUBLIC "-//W3C//DTD SVG 1.1//EN"
 "http://www.w3.org/Graphics/SVG/1.1/DTD/svg11.dtd">
<!-- Generated by graphviz version 2.36.0 (20140111.2315)
 -->
<!-- Title: CompactStringValue&lt; STORAGE_SIZE &gt; Pages: 1 -->
<svg width="207pt" height="252pt"
 viewBox="0.00 0.00 207.00 252.00" xmlns="http://www.w3.org/2000/svg" xmlns:xlink="http://www.w3.org/1999/xlink">
<g id="graph0" class="graph" transform="scale(1 1) rotate(0) translate(4 248)">
<title>CompactStringValue&lt; STORAGE_SIZE &gt;</title>
<polygon fill="white" stroke="none" points="-4,4 -4,-248 203,-248 203,4 -4,4"/>
<!-- Node1 -->
<g id="node1" class="node"><title>Node1</title>
<polygon fill="#bfbfbf" stroke="black" points="37,-1 37,-91 159,-91 159,-1 37,-1"/>
<text text-anchor="start" x="45" y="-79" font-family="Helvetica,sans-Serif" font-size="10.00">CompactStringValue</text>
<text text-anchor="middle" x="98" y="-68" font-family="Helvetica,sans-Serif" font-size="10.00">&lt; STORAGE_SIZE &gt;</text>
<polyline fill="none" stroke="black" points="37,-61 159,-61 "/>
<text text-anchor="middle" x="98" y="-49" font-family="Helvetica,sans-Serif" font-size="10.00"> </text>
<polyline fill="none" stroke="black" points="37,-42 159,-42 "/>
<text text-anchor="start" x="45" y="-30" font-family="Helvetica,sans-Serif" font-size="10.00">+ CompactStringValue()</text>
<text text-anchor="start" x="45" y="-19" font-family="Helvetica,sans-Serif" font-size="10.00">+ ptr()</text>
<text text-anchor="start" x="45" y="-8" font-family="Helvetica,sans-Serif" font-size="10.00">+ len()</text>
</g>
<!-- Node2 -->
<g id="node2" class="node"><title>Node2</title>
<polygon fill="white" stroke="#bfbfbf" points="-0.5,-185.5 -0.5,-242.5 34.5,-242.5 34.5,-185.5 -0.5,-185.5"/>
<text text-anchor="middle" x="17" y="-230.5" font-family="Helvetica,sans-Serif" font-size="10.00">char</text>
<polyline fill="none" stroke="#bfbfbf" points="-0.5,-223.5 34.5,-223.5 "/>
<text text-anchor="middle" x="17" y="-211.5" font-family="Helvetica,sans-Serif" font-size="10.00"> </text>
<polyline fill="none" stroke="#bfbfbf" points="-0.5,-204.5 34.5,-204.5 "/>
<text text-anchor="middle" x="17" y="-192.5" font-family="Helvetica,sans-Serif" font-size="10.00"> </text>
</g>
<!-- Node2&#45;&gt;Node1 -->
<g id="edge1" class="edge"><title>Node2&#45;&gt;Node1</title>
<path fill="none" stroke="#404040" d="M17.7201,-185.335C19.2866,-163.739 23.7428,-133.549 36,-110 37.5941,-106.937 39.387,-103.926 41.3313,-100.981"/>
<polygon fill="none" stroke="#404040" points="41.3694,-100.929 41.6854,-93.7251 48.4569,-91.2459 48.141,-98.4501 41.3694,-100.929"/>
<text text-anchor="middle" x="65" y="-141" font-family="Helvetica,sans-Serif" font-size="10.00"> +bytes_</text>
<text text-anchor="middle" x="65" y="-130" font-family="Helvetica,sans-Serif" font-size="10.00">+inline_data_</text>
</g>
<!-- Node3 -->
<g id="node3" class="node"><title>Node3</title>
<polygon fill="white" stroke="#bfbfbf" points="80.5,-185.5 80.5,-242.5 115.5,-242.5 115.5,-185.5 80.5,-185.5"/>
<text text-anchor="middle" x="98" y="-230.5" font-family="Helvetica,sans-Serif" font-size="10.00">long</text>
<polyline fill="none" stroke="#bfbfbf" points="80.5,-223.5 115.5,-223.5 "/>
<text text-anchor="middle" x="98" y="-211.5" font-family="Helvetica,sans-Serif" font-size="10.00"> </text>
<polyline fill="none" stroke="#bfbfbf" points="80.5,-204.5 115.5,-204.5 "/>
<text text-anchor="middle" x="98" y="-192.5" font-family="Helvetica,sans-Serif" font-size="10.00"> </text>
</g>
<!-- Node3&#45;&gt;Node1 -->
<g id="edge2" class="edge"><title>Node3&#45;&gt;Node1</title>
<path fill="none" stroke="#404040" d="M98,-185.215C98,-162.965 98,-131.024 98,-103.453"/>
<polygon fill="none" stroke="#404040" points="98.0001,-103.143 94,-97.1427 98,-91.1427 102,-97.1426 98.0001,-103.143"/>
<text text-anchor="middle" x="128.5" y="-157.5" font-family="Helvetica,sans-Serif" font-size="10.00"> +inline_len_</text>
<text text-anchor="middle" x="128.5" y="-146.5" font-family="Helvetica,sans-Serif" font-size="10.00">+indirect_ptr_</text>
<text text-anchor="middle" x="128.5" y="-135.5" font-family="Helvetica,sans-Serif" font-size="10.00">+dummy_</text>
<text text-anchor="middle" x="128.5" y="-124.5" font-family="Helvetica,sans-Serif" font-size="10.00">+is_inline_</text>
<text text-anchor="middle" x="128.5" y="-113.5" font-family="Helvetica,sans-Serif" font-size="10.00">+indirect_len_</text>
</g>
<!-- Node4 -->
<g id="node4" class="node"><title>Node4</title>
<polygon fill="white" stroke="#bfbfbf" points="167.5,-185 167.5,-243 196.5,-243 196.5,-185 167.5,-185"/>
<polyline fill="none" stroke="#bfbfbf" points="167.5,-223 196.5,-223 "/>
<text text-anchor="middle" x="182" y="-211" font-family="Helvetica,sans-Serif" font-size="10.00"> </text>
<polyline fill="none" stroke="#bfbfbf" points="167.5,-204 196.5,-204 "/>
<text text-anchor="middle" x="182" y="-192" font-family="Helvetica,sans-Serif" font-size="10.00"> </text>
</g>
<!-- Node4&#45;&gt;Node1 -->
<g id="edge3" class="edge"><title>Node4&#45;&gt;Node1</title>
<path fill="none" stroke="#404040" d="M180.268,-184.866C177.958,-163.288 172.569,-133.345 160,-110 158.363,-106.96 156.535,-103.968 154.562,-101.038"/>
<polygon fill="none" stroke="#404040" points="154.516,-100.976 147.728,-98.5434 147.363,-91.3415 154.151,-93.7743 154.516,-100.976"/>
<text text-anchor="middle" x="188" y="-135.5" font-family="Helvetica,sans-Serif" font-size="10.00"> &#45;@1</text>
</g>
</g>
</svg>
