<?xml version="1.0" encoding="UTF-8" standalone="no"?>
<!DOCTYPE svg PUBLIC "-//W3C//DTD SVG 1.1//EN"
 "http://www.w3.org/Graphics/SVG/1.1/DTD/svg11.dtd">
<!-- Generated by graphviz version 2.36.0 (20140111.2315)
 -->
<!-- Title: impala::BaseSequenceScanner::FileHeader Pages: 1 -->
<svg width="464pt" height="260pt"
 viewBox="0.00 0.00 464.00 260.00" xmlns="http://www.w3.org/2000/svg" xmlns:xlink="http://www.w3.org/1999/xlink">
<g id="graph0" class="graph" transform="scale(1 1) rotate(0) translate(4 256)">
<title>impala::BaseSequenceScanner::FileHeader</title>
<polygon fill="white" stroke="none" points="-4,4 -4,-256 460,-256 460,4 -4,4"/>
<!-- Node1 -->
<g id="node1" class="node"><title>Node1</title>
<polygon fill="#bfbfbf" stroke="black" points="139.5,-139 139.5,-251 292.5,-251 292.5,-139 139.5,-139"/>
<text text-anchor="start" x="147.5" y="-239" font-family="Helvetica,sans-Serif" font-size="10.00">impala::BaseSequenceScanner</text>
<text text-anchor="middle" x="216" y="-228" font-family="Helvetica,sans-Serif" font-size="10.00">::FileHeader</text>
<polyline fill="none" stroke="black" points="139.5,-221 292.5,-221 "/>
<text text-anchor="start" x="147.5" y="-209" font-family="Helvetica,sans-Serif" font-size="10.00">+ sync</text>
<text text-anchor="start" x="147.5" y="-198" font-family="Helvetica,sans-Serif" font-size="10.00">+ is_compressed</text>
<text text-anchor="start" x="147.5" y="-187" font-family="Helvetica,sans-Serif" font-size="10.00">+ codec</text>
<text text-anchor="start" x="147.5" y="-176" font-family="Helvetica,sans-Serif" font-size="10.00">+ compression_type</text>
<text text-anchor="start" x="147.5" y="-165" font-family="Helvetica,sans-Serif" font-size="10.00">+ header_size</text>
<polyline fill="none" stroke="black" points="139.5,-158 292.5,-158 "/>
<text text-anchor="start" x="147.5" y="-146" font-family="Helvetica,sans-Serif" font-size="10.00">+ ~FileHeader()</text>
</g>
<!-- Node2 -->
<g id="node2" class="node"><title>Node2</title>
<g id="a_node2"><a xlink:href="structimpala_1_1HdfsAvroScanner_1_1AvroFileHeader.html" target="_top" xlink:title="{impala::HdfsAvroScanner\l::AvroFileHeader\n|+ schema\l+ template_tuple\l+ use_codegend_decode\l_avro_data\l|}">
<polygon fill="white" stroke="black" points="0,-0.5 0,-101.5 128,-101.5 128,-0.5 0,-0.5"/>
<text text-anchor="start" x="8" y="-89.5" font-family="Helvetica,sans-Serif" font-size="10.00">impala::HdfsAvroScanner</text>
<text text-anchor="middle" x="64" y="-78.5" font-family="Helvetica,sans-Serif" font-size="10.00">::AvroFileHeader</text>
<polyline fill="none" stroke="black" points="0,-71.5 128,-71.5 "/>
<text text-anchor="start" x="8" y="-59.5" font-family="Helvetica,sans-Serif" font-size="10.00">+ schema</text>
<text text-anchor="start" x="8" y="-48.5" font-family="Helvetica,sans-Serif" font-size="10.00">+ template_tuple</text>
<text text-anchor="start" x="8" y="-37.5" font-family="Helvetica,sans-Serif" font-size="10.00">+ use_codegend_decode</text>
<text text-anchor="start" x="8" y="-26.5" font-family="Helvetica,sans-Serif" font-size="10.00">_avro_data</text>
<polyline fill="none" stroke="black" points="0,-19.5 128,-19.5 "/>
<text text-anchor="middle" x="64" y="-7.5" font-family="Helvetica,sans-Serif" font-size="10.00"> </text>
</a>
</g>
</g>
<!-- Node1&#45;&gt;Node2 -->
<g id="edge1" class="edge"><title>Node1&#45;&gt;Node2</title>
<path fill="none" stroke="midnightblue" d="M149.421,-131.801C138.691,-121.777 127.707,-111.516 117.342,-101.833"/>
<polygon fill="none" stroke="midnightblue" points="147.101,-134.423 156.798,-138.692 151.88,-129.308 147.101,-134.423"/>
</g>
<!-- Node3 -->
<g id="node3" class="node"><title>Node3</title>
<g id="a_node3"><a xlink:href="structimpala_1_1HdfsRCFileScanner_1_1RcFileHeader.html" target="_top" xlink:title="Data that is fixed across headers. This struct is shared between scan ranges. ">
<polygon fill="white" stroke="black" points="146.5,-11.5 146.5,-90.5 285.5,-90.5 285.5,-11.5 146.5,-11.5"/>
<text text-anchor="start" x="154.5" y="-78.5" font-family="Helvetica,sans-Serif" font-size="10.00">impala::HdfsRCFileScanner</text>
<text text-anchor="middle" x="216" y="-67.5" font-family="Helvetica,sans-Serif" font-size="10.00">::RcFileHeader</text>
<polyline fill="none" stroke="black" points="146.5,-60.5 285.5,-60.5 "/>
<text text-anchor="start" x="154.5" y="-48.5" font-family="Helvetica,sans-Serif" font-size="10.00">+ version</text>
<text text-anchor="start" x="154.5" y="-37.5" font-family="Helvetica,sans-Serif" font-size="10.00">+ num_cols</text>
<polyline fill="none" stroke="black" points="146.5,-30.5 285.5,-30.5 "/>
<text text-anchor="middle" x="216" y="-18.5" font-family="Helvetica,sans-Serif" font-size="10.00"> </text>
</a>
</g>
</g>
<!-- Node1&#45;&gt;Node3 -->
<g id="edge2" class="edge"><title>Node1&#45;&gt;Node3</title>
<path fill="none" stroke="midnightblue" d="M216,-128.424C216,-115.514 216,-102.364 216,-90.6937"/>
<polygon fill="none" stroke="midnightblue" points="212.5,-128.692 216,-138.692 219.5,-128.693 212.5,-128.692"/>
</g>
<!-- Node4 -->
<g id="node4" class="node"><title>Node4</title>
<g id="a_node4"><a xlink:href="structimpala_1_1HdfsSequenceScanner_1_1SeqFileHeader.html" target="_top" xlink:title="Data that is fixed across headers. This struct is shared between scan ranges. ">
<polygon fill="white" stroke="black" points="304,-17 304,-85 456,-85 456,-17 304,-17"/>
<text text-anchor="start" x="312" y="-73" font-family="Helvetica,sans-Serif" font-size="10.00">impala::HdfsSequenceScanner</text>
<text text-anchor="middle" x="380" y="-62" font-family="Helvetica,sans-Serif" font-size="10.00">::SeqFileHeader</text>
<polyline fill="none" stroke="black" points="304,-55 456,-55 "/>
<text text-anchor="start" x="312" y="-43" font-family="Helvetica,sans-Serif" font-size="10.00">+ is_row_compressed</text>
<polyline fill="none" stroke="black" points="304,-36 456,-36 "/>
<text text-anchor="middle" x="380" y="-24" font-family="Helvetica,sans-Serif" font-size="10.00"> </text>
</a>
</g>
</g>
<!-- Node1&#45;&gt;Node4 -->
<g id="edge3" class="edge"><title>Node1&#45;&gt;Node4</title>
<path fill="none" stroke="midnightblue" d="M287.767,-131.86C306.306,-115.808 325.554,-99.1424 341.64,-85.2142"/>
<polygon fill="none" stroke="midnightblue" points="285.145,-129.501 279.876,-138.692 289.727,-134.793 285.145,-129.501"/>
</g>
</g>
</svg>
