<?xml version="1.0" encoding="UTF-8" standalone="no"?>
<!DOCTYPE svg PUBLIC "-//W3C//DTD SVG 1.1//EN"
 "http://www.w3.org/Graphics/SVG/1.1/DTD/svg11.dtd">
<!-- Generated by graphviz version 2.36.0 (20140111.2315)
 -->
<!-- Title: impala::DataStreamTest::SenderInfo Pages: 1 -->
<!--zoomable 650 -->
<svg id="main" version="1.1" xmlns="http://www.w3.org/2000/svg" xmlns:xlink="http://www.w3.org/1999/xlink" xml:space="preserve" onload="init(evt)">
<style type="text/css"><![CDATA[
.edge:hover path { stroke: red; }
.edge:hover polygon { stroke: red; fill: red; }
]]></style>
<script type="text/javascript"><![CDATA[
var edges = document.getElementsByTagName('g');
if (edges && edges.length) {
  for (var i=0;i<edges.length;i++) {
    if (edges[i].id.substr(0,4)=='edge') {
      edges[i].setAttribute('class','edge');
    }
  }
}
]]></script>
        <defs>
                <circle id="rim" cx="0" cy="0" r="7"/>
                <circle id="rim2" cx="0" cy="0" r="3.5"/>
                <g id="zoomPlus">
                        <use xlink:href="#rim" fill="#404040">
                                <set attributeName="fill" to="#808080" begin="zoomplus.mouseover" end="zoomplus.mouseout"/>
                        </use>
                        <path d="M-4,0h8M0,-4v8" fill="none" stroke="white" stroke-width="1.5" pointer-events="none"/>
                </g>
                <g id="zoomMin">
                        <use xlink:href="#rim" fill="#404040">
                                <set attributeName="fill" to="#808080" begin="zoomminus.mouseover" end="zoomminus.mouseout"/>
                        </use>
                        <path d="M-4,0h8" fill="none" stroke="white" stroke-width="1.5" pointer-events="none"/>
                </g>
                <g id="dirArrow">
                        <path fill="none" stroke="white" stroke-width="1.5" d="M0,-3.0v7 M-2.5,-0.5L0,-3.0L2.5,-0.5"/>
                </g>
               <g id="resetDef">
                       <use xlink:href="#rim2" fill="#404040">
                               <set attributeName="fill" to="#808080" begin="reset.mouseover" end="reset.mouseout"/>
                       </use>
               </g>
        </defs>

<script type="text/javascript">
var viewWidth = 527;
var viewHeight = 650;
var sectionId = 'dynsection-0';
</script>
<script xlink:href="svgpan.js"/>
<svg id="graph" class="graph">
<g id="viewport">
<title>impala::DataStreamTest::SenderInfo</title>
<polygon fill="white" stroke="none" points="-4,4 -4,-646 523,-646 523,4 -4,4"/>
<!-- Node1 -->
<g id="node1" class="node"><title>Node1</title>
<polygon fill="#bfbfbf" stroke="black" points="298.5,-1 298.5,-69 421.5,-69 421.5,-1 298.5,-1"/>
<text text-anchor="start" x="306.5" y="-57" font-family="Helvetica,sans-Serif" font-size="10.00">impala::DataStreamTest</text>
<text text-anchor="middle" x="360" y="-46" font-family="Helvetica,sans-Serif" font-size="10.00">::SenderInfo</text>
<polyline fill="none" stroke="black" points="298.5,-39 421.5,-39 "/>
<text text-anchor="middle" x="360" y="-27" font-family="Helvetica,sans-Serif" font-size="10.00"> </text>
<polyline fill="none" stroke="black" points="298.5,-20 421.5,-20 "/>
<text text-anchor="start" x="306.5" y="-8" font-family="Helvetica,sans-Serif" font-size="10.00">+ SenderInfo()</text>
</g>
<!-- Node2 -->
<g id="node2" class="node"><title>Node2</title>
<g id="a_node2"><a xlink:href="classimpala_1_1Status.html" target="_top" xlink:title="{impala::Status\n||+ Status()\l+ Status()\l+ Status()\l+ Status()\l+ Status()\l+ Status()\l+ Status()\l+ Status()\l+ Status()\l+ Status()\land 23 more...\l+ Expected()\l&#45; Status()\l}">
<polygon fill="white" stroke="black" points="100,-118.5 100,-307.5 180,-307.5 180,-118.5 100,-118.5"/>
<text text-anchor="middle" x="140" y="-295.5" font-family="Helvetica,sans-Serif" font-size="10.00">impala::Status</text>
<polyline fill="none" stroke="black" points="100,-288.5 180,-288.5 "/>
<text text-anchor="middle" x="140" y="-276.5" font-family="Helvetica,sans-Serif" font-size="10.00"> </text>
<polyline fill="none" stroke="black" points="100,-269.5 180,-269.5 "/>
<text text-anchor="start" x="108" y="-257.5" font-family="Helvetica,sans-Serif" font-size="10.00">+ Status()</text>
<text text-anchor="start" x="108" y="-246.5" font-family="Helvetica,sans-Serif" font-size="10.00">+ Status()</text>
<text text-anchor="start" x="108" y="-235.5" font-family="Helvetica,sans-Serif" font-size="10.00">+ Status()</text>
<text text-anchor="start" x="108" y="-224.5" font-family="Helvetica,sans-Serif" font-size="10.00">+ Status()</text>
<text text-anchor="start" x="108" y="-213.5" font-family="Helvetica,sans-Serif" font-size="10.00">+ Status()</text>
<text text-anchor="start" x="108" y="-202.5" font-family="Helvetica,sans-Serif" font-size="10.00">+ Status()</text>
<text text-anchor="start" x="108" y="-191.5" font-family="Helvetica,sans-Serif" font-size="10.00">+ Status()</text>
<text text-anchor="start" x="108" y="-180.5" font-family="Helvetica,sans-Serif" font-size="10.00">+ Status()</text>
<text text-anchor="start" x="108" y="-169.5" font-family="Helvetica,sans-Serif" font-size="10.00">+ Status()</text>
<text text-anchor="start" x="108" y="-158.5" font-family="Helvetica,sans-Serif" font-size="10.00">+ Status()</text>
<text text-anchor="start" x="108" y="-147.5" font-family="Helvetica,sans-Serif" font-size="10.00">and 23 more...</text>
<text text-anchor="start" x="108" y="-136.5" font-family="Helvetica,sans-Serif" font-size="10.00">+ Expected()</text>
<text text-anchor="start" x="108" y="-125.5" font-family="Helvetica,sans-Serif" font-size="10.00">&#45; Status()</text>
</a>
</g>
</g>
<!-- Node2&#45;&gt;Node1 -->
<g id="edge1" class="edge"><title>Node2&#45;&gt;Node1</title>
<path fill="none" stroke="#404040" d="M180.096,-179.924C216.314,-150.949 269.797,-108.163 309.037,-76.7707"/>
<polygon fill="none" stroke="#404040" points="309.316,-76.547 311.503,-69.6753 318.687,-69.0506 316.5,-75.9222 309.316,-76.547"/>
<text text-anchor="middle" x="313.5" y="-91.5" font-family="Helvetica,sans-Serif" font-size="10.00"> +status</text>
</g>
<!-- Node2&#45;&gt;Node2 -->
<g id="edge6" class="edge"><title>Node2&#45;&gt;Node2</title>
<path fill="none" stroke="#404040" d="M180.119,-234.86C190.332,-233.423 198,-226.137 198,-213 198,-205.405 195.437,-199.766 191.301,-196.082"/>
<polygon fill="none" stroke="#404040" points="191.095,-195.99 183.99,-197.224 180.119,-191.14 187.223,-189.906 191.095,-195.99"/>
<text text-anchor="middle" x="259" y="-227" font-family="Helvetica,sans-Serif" font-size="10.00"> +CANCELLED</text>
<text text-anchor="middle" x="259" y="-216" font-family="Helvetica,sans-Serif" font-size="10.00">+OK</text>
<text text-anchor="middle" x="259" y="-205" font-family="Helvetica,sans-Serif" font-size="10.00">+MEM_LIMIT_EXCEEDED</text>
<text text-anchor="middle" x="259" y="-194" font-family="Helvetica,sans-Serif" font-size="10.00">+DEPRECATED_RPC</text>
</g>
<!-- Node3 -->
<g id="node3" class="node"><title>Node3</title>
<g id="a_node3"><a xlink:href="classimpala_1_1ErrorMsg.html" target="_top" xlink:title="{impala::ErrorMsg\n||+ ErrorMsg()\l+ ErrorMsg()\l+ ErrorMsg()\l+ ErrorMsg()\l+ ErrorMsg()\l+ ErrorMsg()\l+ ErrorMsg()\l+ ErrorMsg()\l+ ErrorMsg()\l+ ErrorMsg()\land 9 more...\l+ Init()\l}">
<polygon fill="white" stroke="black" points="94.5,-357 94.5,-535 185.5,-535 185.5,-357 94.5,-357"/>
<text text-anchor="middle" x="140" y="-523" font-family="Helvetica,sans-Serif" font-size="10.00">impala::ErrorMsg</text>
<polyline fill="none" stroke="black" points="94.5,-516 185.5,-516 "/>
<text text-anchor="middle" x="140" y="-504" font-family="Helvetica,sans-Serif" font-size="10.00"> </text>
<polyline fill="none" stroke="black" points="94.5,-497 185.5,-497 "/>
<text text-anchor="start" x="102.5" y="-485" font-family="Helvetica,sans-Serif" font-size="10.00">+ ErrorMsg()</text>
<text text-anchor="start" x="102.5" y="-474" font-family="Helvetica,sans-Serif" font-size="10.00">+ ErrorMsg()</text>
<text text-anchor="start" x="102.5" y="-463" font-family="Helvetica,sans-Serif" font-size="10.00">+ ErrorMsg()</text>
<text text-anchor="start" x="102.5" y="-452" font-family="Helvetica,sans-Serif" font-size="10.00">+ ErrorMsg()</text>
<text text-anchor="start" x="102.5" y="-441" font-family="Helvetica,sans-Serif" font-size="10.00">+ ErrorMsg()</text>
<text text-anchor="start" x="102.5" y="-430" font-family="Helvetica,sans-Serif" font-size="10.00">+ ErrorMsg()</text>
<text text-anchor="start" x="102.5" y="-419" font-family="Helvetica,sans-Serif" font-size="10.00">+ ErrorMsg()</text>
<text text-anchor="start" x="102.5" y="-408" font-family="Helvetica,sans-Serif" font-size="10.00">+ ErrorMsg()</text>
<text text-anchor="start" x="102.5" y="-397" font-family="Helvetica,sans-Serif" font-size="10.00">+ ErrorMsg()</text>
<text text-anchor="start" x="102.5" y="-386" font-family="Helvetica,sans-Serif" font-size="10.00">+ ErrorMsg()</text>
<text text-anchor="start" x="102.5" y="-375" font-family="Helvetica,sans-Serif" font-size="10.00">and 9 more...</text>
<text text-anchor="start" x="102.5" y="-364" font-family="Helvetica,sans-Serif" font-size="10.00">+ Init()</text>
</a>
</g>
</g>
<!-- Node3&#45;&gt;Node2 -->
<g id="edge2" class="edge"><title>Node3&#45;&gt;Node2</title>
<path fill="none" stroke="#404040" d="M140,-356.68C140,-344.644 140,-332.19 140,-319.883"/>
<polygon fill="none" stroke="#404040" points="140,-319.646 136,-313.646 140,-307.646 144,-313.646 140,-319.646"/>
<text text-anchor="middle" x="155.5" y="-329.5" font-family="Helvetica,sans-Serif" font-size="10.00"> &#45;msg_</text>
</g>
<!-- Node4 -->
<g id="node4" class="node"><title>Node4</title>
<polygon fill="white" stroke="#bfbfbf" points="-0.5,-584.5 -0.5,-641.5 104.5,-641.5 104.5,-584.5 -0.5,-584.5"/>
<text text-anchor="middle" x="52" y="-629.5" font-family="Helvetica,sans-Serif" font-size="10.00">vector&lt; std::string &gt;</text>
<polyline fill="none" stroke="#bfbfbf" points="-0.5,-622.5 104.5,-622.5 "/>
<text text-anchor="middle" x="52" y="-610.5" font-family="Helvetica,sans-Serif" font-size="10.00"> </text>
<polyline fill="none" stroke="#bfbfbf" points="-0.5,-603.5 104.5,-603.5 "/>
<text text-anchor="middle" x="52" y="-591.5" font-family="Helvetica,sans-Serif" font-size="10.00"> </text>
</g>
<!-- Node4&#45;&gt;Node3 -->
<g id="edge3" class="edge"><title>Node4&#45;&gt;Node3</title>
<path fill="none" stroke="#404040" d="M66.7292,-584.383C72.95,-572.719 80.5995,-558.376 88.5844,-543.404"/>
<polygon fill="none" stroke="#404040" points="88.7952,-543.009 88.0894,-535.832 94.4423,-532.421 95.1482,-539.597 88.7952,-543.009"/>
<text text-anchor="middle" x="101" y="-557.5" font-family="Helvetica,sans-Serif" font-size="10.00"> &#45;details_</text>
</g>
<!-- Node5 -->
<g id="node5" class="node"><title>Node5</title>
<polygon fill="white" stroke="#bfbfbf" points="122.5,-584.5 122.5,-641.5 157.5,-641.5 157.5,-584.5 122.5,-584.5"/>
<text text-anchor="middle" x="140" y="-629.5" font-family="Helvetica,sans-Serif" font-size="10.00">type</text>
<polyline fill="none" stroke="#bfbfbf" points="122.5,-622.5 157.5,-622.5 "/>
<text text-anchor="middle" x="140" y="-610.5" font-family="Helvetica,sans-Serif" font-size="10.00"> </text>
<polyline fill="none" stroke="#bfbfbf" points="122.5,-603.5 157.5,-603.5 "/>
<text text-anchor="middle" x="140" y="-591.5" font-family="Helvetica,sans-Serif" font-size="10.00"> </text>
</g>
<!-- Node5&#45;&gt;Node3 -->
<g id="edge4" class="edge"><title>Node5&#45;&gt;Node3</title>
<path fill="none" stroke="#404040" d="M140,-584.383C140,-573.739 140,-560.866 140,-547.319"/>
<polygon fill="none" stroke="#404040" points="140,-547.28 136,-541.28 140,-535.28 144,-541.28 140,-547.28"/>
<text text-anchor="middle" x="155.5" y="-557.5" font-family="Helvetica,sans-Serif" font-size="10.00"> &#45;error_</text>
</g>
<!-- Node6 -->
<g id="node6" class="node"><title>Node6</title>
<polygon fill="white" stroke="#bfbfbf" points="175.5,-584.5 175.5,-641.5 216.5,-641.5 216.5,-584.5 175.5,-584.5"/>
<text text-anchor="middle" x="196" y="-629.5" font-family="Helvetica,sans-Serif" font-size="10.00">string</text>
<polyline fill="none" stroke="#bfbfbf" points="175.5,-622.5 216.5,-622.5 "/>
<text text-anchor="middle" x="196" y="-610.5" font-family="Helvetica,sans-Serif" font-size="10.00"> </text>
<polyline fill="none" stroke="#bfbfbf" points="175.5,-603.5 216.5,-603.5 "/>
<text text-anchor="middle" x="196" y="-591.5" font-family="Helvetica,sans-Serif" font-size="10.00"> </text>
</g>
<!-- Node6&#45;&gt;Node3 -->
<g id="edge5" class="edge"><title>Node6&#45;&gt;Node3</title>
<path fill="none" stroke="#404040" d="M186.627,-584.383C182.978,-573.632 178.557,-560.605 173.908,-546.908"/>
<polygon fill="none" stroke="#404040" points="173.818,-546.643 168.102,-542.247 169.962,-535.28 175.678,-539.676 173.818,-546.643"/>
<text text-anchor="middle" x="206" y="-557.5" font-family="Helvetica,sans-Serif" font-size="10.00"> &#45;message_</text>
</g>
<!-- Node7 -->
<g id="node7" class="node"><title>Node7</title>
<polygon fill="white" stroke="#bfbfbf" points="338,-184.5 338,-241.5 382,-241.5 382,-184.5 338,-184.5"/>
<text text-anchor="middle" x="360" y="-229.5" font-family="Helvetica,sans-Serif" font-size="10.00">thread</text>
<polyline fill="none" stroke="#bfbfbf" points="338,-222.5 382,-222.5 "/>
<text text-anchor="middle" x="360" y="-210.5" font-family="Helvetica,sans-Serif" font-size="10.00"> </text>
<polyline fill="none" stroke="#bfbfbf" points="338,-203.5 382,-203.5 "/>
<text text-anchor="middle" x="360" y="-191.5" font-family="Helvetica,sans-Serif" font-size="10.00"> </text>
</g>
<!-- Node7&#45;&gt;Node1 -->
<g id="edge7" class="edge"><title>Node7&#45;&gt;Node1</title>
<path fill="none" stroke="#404040" d="M360,-184.112C360,-156.559 360,-113.945 360,-81.4873"/>
<polygon fill="none" stroke="#404040" points="360,-81.1576 356,-75.1576 360,-69.1576 364,-75.1575 360,-81.1576"/>
<text text-anchor="middle" x="395" y="-91.5" font-family="Helvetica,sans-Serif" font-size="10.00"> +thread_handle</text>
</g>
<!-- Node8 -->
<g id="node8" class="node"><title>Node8</title>
<polygon fill="white" stroke="#bfbfbf" points="438.5,-184.5 438.5,-241.5 467.5,-241.5 467.5,-184.5 438.5,-184.5"/>
<text text-anchor="middle" x="453" y="-229.5" font-family="Helvetica,sans-Serif" font-size="10.00">int</text>
<polyline fill="none" stroke="#bfbfbf" points="438.5,-222.5 467.5,-222.5 "/>
<text text-anchor="middle" x="453" y="-210.5" font-family="Helvetica,sans-Serif" font-size="10.00"> </text>
<polyline fill="none" stroke="#bfbfbf" points="438.5,-203.5 467.5,-203.5 "/>
<text text-anchor="middle" x="453" y="-191.5" font-family="Helvetica,sans-Serif" font-size="10.00"> </text>
</g>
<!-- Node8&#45;&gt;Node1 -->
<g id="edge8" class="edge"><title>Node8&#45;&gt;Node1</title>
<path fill="none" stroke="#404040" d="M453.827,-184.288C453.365,-157.683 449.266,-117.321 431,-88 428.792,-84.456 426.247,-81.0761 423.461,-77.8656"/>
<polygon fill="none" stroke="#404040" points="423.445,-77.8492 416.39,-76.3571 415.054,-69.2708 422.109,-70.7629 423.445,-77.8492"/>
<text text-anchor="middle" x="478" y="-91.5" font-family="Helvetica,sans-Serif" font-size="10.00"> +num_bytes_sent</text>
</g>
</g>
</svg>
        <g id="navigator" transform="translate(0 0)" fill="#404254">
                <rect fill="#f2f5e9" fill-opacity="0.5" stroke="#606060" stroke-width=".5" x="0" y="0" width="60" height="60"/>
                <use id="zoomplus" xlink:href="#zoomPlus" x="17" y="9" onmousedown="handleZoom(evt,'in')"/>
                <use id="zoomminus" xlink:href="#zoomMin" x="42" y="9" onmousedown="handleZoom(evt,'out')"/>
                <use id="reset" xlink:href="#resetDef" x="30" y="36" onmousedown="handleReset()"/>
                <g id="arrowUp" xlink:href="#dirArrow" transform="translate(30 24)" onmousedown="handlePan(0,-1)">
                  <use xlink:href="#rim" fill="#404040">
                        <set attributeName="fill" to="#808080" begin="arrowUp.mouseover" end="arrowUp.mouseout"/>
                  </use>
                  <path fill="none" stroke="white" stroke-width="1.5" d="M0,-3.0v7 M-2.5,-0.5L0,-3.0L2.5,-0.5"/>
                </g>
                <g id="arrowRight" xlink:href="#dirArrow" transform="rotate(90) translate(36 -43)" onmousedown="handlePan(1,0)">
                  <use xlink:href="#rim" fill="#404040">
                        <set attributeName="fill" to="#808080" begin="arrowRight.mouseover" end="arrowRight.mouseout"/>
                  </use>
                  <path fill="none" stroke="white" stroke-width="1.5" d="M0,-3.0v7 M-2.5,-0.5L0,-3.0L2.5,-0.5"/>
                </g>
                <g id="arrowDown" xlink:href="#dirArrow" transform="rotate(180) translate(-30 -48)" onmousedown="handlePan(0,1)">
                  <use xlink:href="#rim" fill="#404040">
                        <set attributeName="fill" to="#808080" begin="arrowDown.mouseover" end="arrowDown.mouseout"/>
                  </use>
                  <path fill="none" stroke="white" stroke-width="1.5" d="M0,-3.0v7 M-2.5,-0.5L0,-3.0L2.5,-0.5"/>
                </g>
                <g id="arrowLeft" xlink:href="#dirArrow" transform="rotate(270) translate(-36 17)" onmousedown="handlePan(-1,0)">
                  <use xlink:href="#rim" fill="#404040">
                        <set attributeName="fill" to="#808080" begin="arrowLeft.mouseover" end="arrowLeft.mouseout"/>
                  </use>
                  <path fill="none" stroke="white" stroke-width="1.5" d="M0,-3.0v7 M-2.5,-0.5L0,-3.0L2.5,-0.5"/>
                </g>
        </g>
        <svg viewBox="0 0 15 15" width="100%" height="30px" preserveAspectRatio="xMaxYMin meet">
         <g id="arrow_out" transform="scale(0.3 0.3)">
          <a xlink:href="structimpala_1_1DataStreamTest_1_1SenderInfo__coll__graph_org.svg" target="_base">
           <rect id="button" ry="5" rx="5" y="6" x="6" height="38" width="38"
                fill="#f2f5e9" fill-opacity="0.5" stroke="#606060" stroke-width="1.0"/>
           <path id="arrow"
             d="M 11.500037,31.436501 C 11.940474,20.09759 22.043105,11.32322 32.158766,21.979434 L 37.068811,17.246167 C 37.068811,17.246167 37.088388,32 37.088388,32 L 22.160133,31.978069 C 22.160133,31.978069 26.997745,27.140456 26.997745,27.140456 C 18.528582,18.264221 13.291696,25.230495 11.500037,31.436501 z"
             style="fill:#404040;"/>
          </a>
         </g>
        </svg>
</svg>
