<?xml version="1.0" encoding="UTF-8" standalone="no"?>
<!DOCTYPE svg PUBLIC "-//W3C//DTD SVG 1.1//EN"
 "http://www.w3.org/Graphics/SVG/1.1/DTD/svg11.dtd">
<!-- Generated by graphviz version 2.36.0 (20140111.2315)
 -->
<!-- Title: impala::HdfsFileDesc Pages: 1 -->
<svg width="432pt" height="194pt"
 viewBox="0.00 0.00 432.00 194.00" xmlns="http://www.w3.org/2000/svg" xmlns:xlink="http://www.w3.org/1999/xlink">
<g id="graph0" class="graph" transform="scale(1 1) rotate(0) translate(4 190)">
<title>impala::HdfsFileDesc</title>
<polygon fill="white" stroke="none" points="-4,4 -4,-190 428,-190 428,4 -4,4"/>
<!-- Node1 -->
<g id="node1" class="node"><title>Node1</title>
<polygon fill="#bfbfbf" stroke="black" points="120.5,-0.5 120.5,-57.5 231.5,-57.5 231.5,-0.5 120.5,-0.5"/>
<text text-anchor="middle" x="176" y="-45.5" font-family="Helvetica,sans-Serif" font-size="10.00">impala::HdfsFileDesc</text>
<polyline fill="none" stroke="black" points="120.5,-38.5 231.5,-38.5 "/>
<text text-anchor="middle" x="176" y="-26.5" font-family="Helvetica,sans-Serif" font-size="10.00"> </text>
<polyline fill="none" stroke="black" points="120.5,-19.5 231.5,-19.5 "/>
<text text-anchor="start" x="128.5" y="-7.5" font-family="Helvetica,sans-Serif" font-size="10.00">+ HdfsFileDesc()</text>
</g>
<!-- Node2 -->
<g id="node2" class="node"><title>Node2</title>
<polygon fill="white" stroke="#bfbfbf" points="-0.5,-122.5 -0.5,-179.5 34.5,-179.5 34.5,-122.5 -0.5,-122.5"/>
<text text-anchor="middle" x="17" y="-167.5" font-family="Helvetica,sans-Serif" font-size="10.00">type</text>
<polyline fill="none" stroke="#bfbfbf" points="-0.5,-160.5 34.5,-160.5 "/>
<text text-anchor="middle" x="17" y="-148.5" font-family="Helvetica,sans-Serif" font-size="10.00"> </text>
<polyline fill="none" stroke="#bfbfbf" points="-0.5,-141.5 34.5,-141.5 "/>
<text text-anchor="middle" x="17" y="-129.5" font-family="Helvetica,sans-Serif" font-size="10.00"> </text>
</g>
<!-- Node2&#45;&gt;Node1 -->
<g id="edge1" class="edge"><title>Node2&#45;&gt;Node1</title>
<path fill="none" stroke="#404040" d="M26.0733,-122.254C32.3478,-106.839 42.0978,-88.3393 56,-76 70.9933,-62.6923 90.2445,-53.0595 108.918,-46.1612"/>
<polygon fill="none" stroke="#404040" points="109.076,-46.1068 113.453,-40.3756 120.426,-42.2111 116.05,-47.9423 109.076,-46.1068"/>
<text text-anchor="middle" x="97.5" y="-84.5" font-family="Helvetica,sans-Serif" font-size="10.00"> +file_compression</text>
</g>
<!-- Node3 -->
<g id="node3" class="node"><title>Node3</title>
<polygon fill="white" stroke="#bfbfbf" points="93,-122.5 93,-179.5 141,-179.5 141,-122.5 93,-122.5"/>
<text text-anchor="middle" x="117" y="-167.5" font-family="Helvetica,sans-Serif" font-size="10.00">hdfsFS</text>
<polyline fill="none" stroke="#bfbfbf" points="93,-160.5 141,-160.5 "/>
<text text-anchor="middle" x="117" y="-148.5" font-family="Helvetica,sans-Serif" font-size="10.00"> </text>
<polyline fill="none" stroke="#bfbfbf" points="93,-141.5 141,-141.5 "/>
<text text-anchor="middle" x="117" y="-129.5" font-family="Helvetica,sans-Serif" font-size="10.00"> </text>
</g>
<!-- Node3&#45;&gt;Node1 -->
<g id="edge2" class="edge"><title>Node3&#45;&gt;Node1</title>
<path fill="none" stroke="#404040" d="M130.536,-122.47C138.35,-106.576 148.303,-86.3332 156.903,-68.8416"/>
<polygon fill="none" stroke="#404040" points="157.028,-68.5867 156.086,-61.4374 162.323,-57.8179 163.265,-64.9672 157.028,-68.5867"/>
<text text-anchor="middle" x="161" y="-84.5" font-family="Helvetica,sans-Serif" font-size="10.00"> +fs</text>
</g>
<!-- Node4 -->
<g id="node4" class="node"><title>Node4</title>
<polygon fill="white" stroke="#bfbfbf" points="159,-122.5 159,-179.5 205,-179.5 205,-122.5 159,-122.5"/>
<text text-anchor="middle" x="182" y="-167.5" font-family="Helvetica,sans-Serif" font-size="10.00">int64_t</text>
<polyline fill="none" stroke="#bfbfbf" points="159,-160.5 205,-160.5 "/>
<text text-anchor="middle" x="182" y="-148.5" font-family="Helvetica,sans-Serif" font-size="10.00"> </text>
<polyline fill="none" stroke="#bfbfbf" points="159,-141.5 205,-141.5 "/>
<text text-anchor="middle" x="182" y="-129.5" font-family="Helvetica,sans-Serif" font-size="10.00"> </text>
</g>
<!-- Node4&#45;&gt;Node1 -->
<g id="edge3" class="edge"><title>Node4&#45;&gt;Node1</title>
<path fill="none" stroke="#404040" d="M178.91,-122.235C178.153,-114.408 177.436,-105.878 177,-98 176.498,-88.9226 176.207,-79.1539 176.046,-69.931"/>
<polygon fill="none" stroke="#404040" points="176.045,-69.808 171.973,-63.8568 175.9,-57.8088 179.972,-63.76 176.045,-69.808"/>
<text text-anchor="middle" x="204" y="-90" font-family="Helvetica,sans-Serif" font-size="10.00"> +file_length</text>
<text text-anchor="middle" x="204" y="-79" font-family="Helvetica,sans-Serif" font-size="10.00">+mtime</text>
</g>
<!-- Node5 -->
<g id="node5" class="node"><title>Node5</title>
<polygon fill="white" stroke="#bfbfbf" points="232.5,-122.5 232.5,-179.5 273.5,-179.5 273.5,-122.5 232.5,-122.5"/>
<text text-anchor="middle" x="253" y="-167.5" font-family="Helvetica,sans-Serif" font-size="10.00">string</text>
<polyline fill="none" stroke="#bfbfbf" points="232.5,-160.5 273.5,-160.5 "/>
<text text-anchor="middle" x="253" y="-148.5" font-family="Helvetica,sans-Serif" font-size="10.00"> </text>
<polyline fill="none" stroke="#bfbfbf" points="232.5,-141.5 273.5,-141.5 "/>
<text text-anchor="middle" x="253" y="-129.5" font-family="Helvetica,sans-Serif" font-size="10.00"> </text>
</g>
<!-- Node5&#45;&gt;Node1 -->
<g id="edge4" class="edge"><title>Node5&#45;&gt;Node1</title>
<path fill="none" stroke="#404040" d="M248.767,-122.343C245.577,-107.683 240.131,-89.8869 231,-76 228.812,-72.6716 226.311,-69.4566 223.61,-66.3785"/>
<polygon fill="none" stroke="#404040" points="223.403,-66.1661 216.349,-64.6668 215.02,-57.5792 222.074,-59.0785 223.403,-66.1661"/>
<text text-anchor="middle" x="265" y="-84.5" font-family="Helvetica,sans-Serif" font-size="10.00"> +filename</text>
</g>
<!-- Node6 -->
<g id="node6" class="node"><title>Node6</title>
<polygon fill="white" stroke="#bfbfbf" points="292,-117 292,-185 424,-185 424,-117 292,-117"/>
<text text-anchor="start" x="300" y="-173" font-family="Helvetica,sans-Serif" font-size="10.00">vector&lt; impala::DiskIoMgr</text>
<text text-anchor="middle" x="358" y="-162" font-family="Helvetica,sans-Serif" font-size="10.00">::ScanRange * &gt;</text>
<polyline fill="none" stroke="#bfbfbf" points="292,-155 424,-155 "/>
<text text-anchor="middle" x="358" y="-143" font-family="Helvetica,sans-Serif" font-size="10.00"> </text>
<polyline fill="none" stroke="#bfbfbf" points="292,-136 424,-136 "/>
<text text-anchor="middle" x="358" y="-124" font-family="Helvetica,sans-Serif" font-size="10.00"> </text>
</g>
<!-- Node6&#45;&gt;Node1 -->
<g id="edge5" class="edge"><title>Node6&#45;&gt;Node1</title>
<path fill="none" stroke="#404040" d="M334.151,-116.957C322.672,-102.868 307.944,-87.1438 292,-76 277.284,-65.7144 259.939,-57.2674 243.209,-50.5466"/>
<polygon fill="none" stroke="#404040" points="242.973,-50.4564 235.94,-52.0482 231.765,-46.1682 238.799,-44.5764 242.973,-50.4564"/>
<text text-anchor="middle" x="333.5" y="-84.5" font-family="Helvetica,sans-Serif" font-size="10.00"> +splits</text>
</g>
</g>
</svg>
