<?xml version="1.0" encoding="UTF-8" standalone="no"?>
<!DOCTYPE svg PUBLIC "-//W3C//DTD SVG 1.1//EN"
 "http://www.w3.org/Graphics/SVG/1.1/DTD/svg11.dtd">
<!-- Generated by graphviz version 2.36.0 (20140111.2315)
 -->
<!-- Title: impala::RpcEventHandler::MethodDescriptor Pages: 1 -->
<!--zoomable 606 -->
<svg id="main" version="1.1" xmlns="http://www.w3.org/2000/svg" xmlns:xlink="http://www.w3.org/1999/xlink" xml:space="preserve" onload="init(evt)">
<style type="text/css"><![CDATA[
.edge:hover path { stroke: red; }
.edge:hover polygon { stroke: red; fill: red; }
]]></style>
<script type="text/javascript"><![CDATA[
var edges = document.getElementsByTagName('g');
if (edges && edges.length) {
  for (var i=0;i<edges.length;i++) {
    if (edges[i].id.substr(0,4)=='edge') {
      edges[i].setAttribute('class','edge');
    }
  }
}
]]></script>
        <defs>
                <circle id="rim" cx="0" cy="0" r="7"/>
                <circle id="rim2" cx="0" cy="0" r="3.5"/>
                <g id="zoomPlus">
                        <use xlink:href="#rim" fill="#404040">
                                <set attributeName="fill" to="#808080" begin="zoomplus.mouseover" end="zoomplus.mouseout"/>
                        </use>
                        <path d="M-4,0h8M0,-4v8" fill="none" stroke="white" stroke-width="1.5" pointer-events="none"/>
                </g>
                <g id="zoomMin">
                        <use xlink:href="#rim" fill="#404040">
                                <set attributeName="fill" to="#808080" begin="zoomminus.mouseover" end="zoomminus.mouseout"/>
                        </use>
                        <path d="M-4,0h8" fill="none" stroke="white" stroke-width="1.5" pointer-events="none"/>
                </g>
                <g id="dirArrow">
                        <path fill="none" stroke="white" stroke-width="1.5" d="M0,-3.0v7 M-2.5,-0.5L0,-3.0L2.5,-0.5"/>
                </g>
               <g id="resetDef">
                       <use xlink:href="#rim2" fill="#404040">
                               <set attributeName="fill" to="#808080" begin="reset.mouseover" end="reset.mouseout"/>
                       </use>
               </g>
        </defs>

<script type="text/javascript">
var viewWidth = 650;
var viewHeight = 606;
var sectionId = 'dynsection-0';
</script>
<script xlink:href="svgpan.js"/>
<svg id="graph" class="graph">
<g id="viewport">
<title>impala::RpcEventHandler::MethodDescriptor</title>
<polygon fill="white" stroke="none" points="-4,4 -4,-602 646,-602 646,4 -4,4"/>
<!-- Node1 -->
<g id="node1" class="node"><title>Node1</title>
<polygon fill="#bfbfbf" stroke="black" points="70,-1 70,-69 198,-69 198,-1 70,-1"/>
<text text-anchor="start" x="78" y="-57" font-family="Helvetica,sans-Serif" font-size="10.00">impala::RpcEventHandler</text>
<text text-anchor="middle" x="134" y="-46" font-family="Helvetica,sans-Serif" font-size="10.00">::MethodDescriptor</text>
<polyline fill="none" stroke="black" points="70,-39 198,-39 "/>
<text text-anchor="middle" x="134" y="-27" font-family="Helvetica,sans-Serif" font-size="10.00"> </text>
<polyline fill="none" stroke="black" points="70,-20 198,-20 "/>
<text text-anchor="middle" x="134" y="-8" font-family="Helvetica,sans-Serif" font-size="10.00"> </text>
</g>
<!-- Node2 -->
<g id="node2" class="node"><title>Node2</title>
<g id="a_node2"><a xlink:href="classimpala_1_1AtomicInt.html" target="_top" xlink:title="{impala::AtomicInt\&lt;\l uint32_t \&gt;\n||+ AtomicInt()\l+ operator uint32_t()\l+ operator=()\l+ operator=()\l+ operator+=()\l+ operator&#45;=()\l+ operator\|=()\l+ operator&amp;=()\l+ operator++()\l+ operator++()\land 10 more...\l}">
<polygon fill="white" stroke="black" points="0,-119 0,-297 104,-297 104,-119 0,-119"/>
<text text-anchor="start" x="8" y="-285" font-family="Helvetica,sans-Serif" font-size="10.00">impala::AtomicInt&lt;</text>
<text text-anchor="middle" x="52" y="-274" font-family="Helvetica,sans-Serif" font-size="10.00"> uint32_t &gt;</text>
<polyline fill="none" stroke="black" points="0,-267 104,-267 "/>
<text text-anchor="middle" x="52" y="-255" font-family="Helvetica,sans-Serif" font-size="10.00"> </text>
<polyline fill="none" stroke="black" points="0,-248 104,-248 "/>
<text text-anchor="start" x="8" y="-236" font-family="Helvetica,sans-Serif" font-size="10.00">+ AtomicInt()</text>
<text text-anchor="start" x="8" y="-225" font-family="Helvetica,sans-Serif" font-size="10.00">+ operator uint32_t()</text>
<text text-anchor="start" x="8" y="-214" font-family="Helvetica,sans-Serif" font-size="10.00">+ operator=()</text>
<text text-anchor="start" x="8" y="-203" font-family="Helvetica,sans-Serif" font-size="10.00">+ operator=()</text>
<text text-anchor="start" x="8" y="-192" font-family="Helvetica,sans-Serif" font-size="10.00">+ operator+=()</text>
<text text-anchor="start" x="8" y="-181" font-family="Helvetica,sans-Serif" font-size="10.00">+ operator&#45;=()</text>
<text text-anchor="start" x="8" y="-170" font-family="Helvetica,sans-Serif" font-size="10.00">+ operator|=()</text>
<text text-anchor="start" x="8" y="-159" font-family="Helvetica,sans-Serif" font-size="10.00">+ operator&amp;=()</text>
<text text-anchor="start" x="8" y="-148" font-family="Helvetica,sans-Serif" font-size="10.00">+ operator++()</text>
<text text-anchor="start" x="8" y="-137" font-family="Helvetica,sans-Serif" font-size="10.00">+ operator++()</text>
<text text-anchor="start" x="8" y="-126" font-family="Helvetica,sans-Serif" font-size="10.00">and 10 more...</text>
</a>
</g>
</g>
<!-- Node2&#45;&gt;Node1 -->
<g id="edge1" class="edge"><title>Node2&#45;&gt;Node1</title>
<path fill="none" stroke="#404040" d="M42.9566,-118.965C44.6263,-108.103 47.7595,-97.4968 53,-88 55.2304,-83.9582 57.9226,-80.1831 60.9511,-76.6644"/>
<polygon fill="none" stroke="#404040" points="61.1849,-76.4303 62.596,-69.3586 69.6664,-67.9413 68.2553,-75.013 61.1849,-76.4303"/>
<text text-anchor="middle" x="86.5" y="-91.5" font-family="Helvetica,sans-Serif" font-size="10.00"> +num_in_flight</text>
</g>
<!-- Node3 -->
<g id="node3" class="node"><title>Node3</title>
<polygon fill="white" stroke="#bfbfbf" points="26.5,-385.5 26.5,-442.5 77.5,-442.5 77.5,-385.5 26.5,-385.5"/>
<text text-anchor="middle" x="52" y="-430.5" font-family="Helvetica,sans-Serif" font-size="10.00">uint32_t</text>
<polyline fill="none" stroke="#bfbfbf" points="26.5,-423.5 77.5,-423.5 "/>
<text text-anchor="middle" x="52" y="-411.5" font-family="Helvetica,sans-Serif" font-size="10.00"> </text>
<polyline fill="none" stroke="#bfbfbf" points="26.5,-404.5 77.5,-404.5 "/>
<text text-anchor="middle" x="52" y="-392.5" font-family="Helvetica,sans-Serif" font-size="10.00"> </text>
</g>
<!-- Node3&#45;&gt;Node2 -->
<g id="edge2" class="edge"><title>Node3&#45;&gt;Node2</title>
<path fill="none" stroke="#404040" d="M52,-385.488C52,-365.688 52,-337.654 52,-309.745"/>
<polygon fill="none" stroke="#404040" points="52.0001,-309.39 48,-303.391 52,-297.39 56,-303.39 52.0001,-309.39"/>
<text text-anchor="middle" x="69.5" y="-319.5" font-family="Helvetica,sans-Serif" font-size="10.00"> &#45;value_</text>
</g>
<!-- Node4 -->
<g id="node4" class="node"><title>Node4</title>
<polygon fill="white" stroke="#bfbfbf" points="142.5,-540.5 142.5,-597.5 183.5,-597.5 183.5,-540.5 142.5,-540.5"/>
<text text-anchor="middle" x="163" y="-585.5" font-family="Helvetica,sans-Serif" font-size="10.00">string</text>
<polyline fill="none" stroke="#bfbfbf" points="142.5,-578.5 183.5,-578.5 "/>
<text text-anchor="middle" x="163" y="-566.5" font-family="Helvetica,sans-Serif" font-size="10.00"> </text>
<polyline fill="none" stroke="#bfbfbf" points="142.5,-559.5 183.5,-559.5 "/>
<text text-anchor="middle" x="163" y="-547.5" font-family="Helvetica,sans-Serif" font-size="10.00"> </text>
</g>
<!-- Node4&#45;&gt;Node1 -->
<g id="edge3" class="edge"><title>Node4&#45;&gt;Node1</title>
<path fill="none" stroke="#404040" d="M159.24,-540.164C157.1,-523.352 154.545,-501.479 153,-482 141.393,-335.697 136.562,-161.795 134.833,-81.1801"/>
<polygon fill="none" stroke="#404040" points="134.83,-81.0589 130.706,-75.1432 134.581,-69.0615 138.705,-74.9772 134.83,-81.0589"/>
<text text-anchor="middle" x="161" y="-319.5" font-family="Helvetica,sans-Serif" font-size="10.00"> +name</text>
</g>
<!-- Node6 -->
<g id="node6" class="node"><title>Node6</title>
<g id="a_node6"><a xlink:href="classimpala_1_1Metric.html" target="_top" xlink:title="TODO: Add ToThrift() for conversion to an RPC&#45;friendly format. ">
<polygon fill="white" stroke="black" points="162,-347 162,-481 278,-481 278,-347 162,-347"/>
<text text-anchor="middle" x="220" y="-469" font-family="Helvetica,sans-Serif" font-size="10.00">impala::Metric</text>
<polyline fill="none" stroke="black" points="162,-462 278,-462 "/>
<text text-anchor="middle" x="220" y="-450" font-family="Helvetica,sans-Serif" font-size="10.00"> </text>
<polyline fill="none" stroke="black" points="162,-443 278,-443 "/>
<text text-anchor="start" x="170" y="-431" font-family="Helvetica,sans-Serif" font-size="10.00">+ ~Metric()</text>
<text text-anchor="start" x="170" y="-420" font-family="Helvetica,sans-Serif" font-size="10.00">+ ToJson()</text>
<text text-anchor="start" x="170" y="-409" font-family="Helvetica,sans-Serif" font-size="10.00">+ ToLegacyJson()</text>
<text text-anchor="start" x="170" y="-398" font-family="Helvetica,sans-Serif" font-size="10.00">+ ToHumanReadable()</text>
<text text-anchor="start" x="170" y="-387" font-family="Helvetica,sans-Serif" font-size="10.00">+ key()</text>
<text text-anchor="start" x="170" y="-376" font-family="Helvetica,sans-Serif" font-size="10.00">+ description()</text>
<text text-anchor="start" x="170" y="-365" font-family="Helvetica,sans-Serif" font-size="10.00"># Metric()</text>
<text text-anchor="start" x="170" y="-354" font-family="Helvetica,sans-Serif" font-size="10.00"># AddStandardFields()</text>
</a>
</g>
</g>
<!-- Node4&#45;&gt;Node6 -->
<g id="edge6" class="edge"><title>Node4&#45;&gt;Node6</title>
<path fill="none" stroke="#404040" d="M173.322,-540.293C178.327,-526.859 184.615,-509.98 190.94,-493.002"/>
<polygon fill="none" stroke="#404040" points="191.12,-492.519 189.467,-485.5 195.31,-481.274 196.963,-488.293 191.12,-492.519"/>
<text text-anchor="middle" x="219.5" y="-514" font-family="Helvetica,sans-Serif" font-size="10.00"> #description_</text>
<text text-anchor="middle" x="219.5" y="-503" font-family="Helvetica,sans-Serif" font-size="10.00">#key_</text>
</g>
<!-- Node5 -->
<g id="node5" class="node"><title>Node5</title>
<g id="a_node5"><a xlink:href="classimpala_1_1StatsMetric.html" target="_top" xlink:title="{impala::StatsMetric\l\&lt; double \&gt;\n||+ StatsMetric()\l+ Update()\l+ Reset()\l+ ToJson()\l+ ToLegacyJson()\l+ ToHumanReadable()\l}">
<polygon fill="white" stroke="black" points="290,-146.5 290,-269.5 406,-269.5 406,-146.5 290,-146.5"/>
<text text-anchor="start" x="298" y="-257.5" font-family="Helvetica,sans-Serif" font-size="10.00">impala::StatsMetric</text>
<text text-anchor="middle" x="348" y="-246.5" font-family="Helvetica,sans-Serif" font-size="10.00">&lt; double &gt;</text>
<polyline fill="none" stroke="black" points="290,-239.5 406,-239.5 "/>
<text text-anchor="middle" x="348" y="-227.5" font-family="Helvetica,sans-Serif" font-size="10.00"> </text>
<polyline fill="none" stroke="black" points="290,-220.5 406,-220.5 "/>
<text text-anchor="start" x="298" y="-208.5" font-family="Helvetica,sans-Serif" font-size="10.00">+ StatsMetric()</text>
<text text-anchor="start" x="298" y="-197.5" font-family="Helvetica,sans-Serif" font-size="10.00">+ Update()</text>
<text text-anchor="start" x="298" y="-186.5" font-family="Helvetica,sans-Serif" font-size="10.00">+ Reset()</text>
<text text-anchor="start" x="298" y="-175.5" font-family="Helvetica,sans-Serif" font-size="10.00">+ ToJson()</text>
<text text-anchor="start" x="298" y="-164.5" font-family="Helvetica,sans-Serif" font-size="10.00">+ ToLegacyJson()</text>
<text text-anchor="start" x="298" y="-153.5" font-family="Helvetica,sans-Serif" font-size="10.00">+ ToHumanReadable()</text>
</a>
</g>
</g>
<!-- Node5&#45;&gt;Node1 -->
<g id="edge4" class="edge"><title>Node5&#45;&gt;Node1</title>
<path fill="none" stroke="#404040" d="M289.806,-160.499C257.054,-134.328 216.537,-101.952 185.031,-76.7769"/>
<polygon fill="none" stroke="#404040" points="184.935,-76.7008 177.751,-76.0802 175.561,-69.2098 182.745,-69.8304 184.935,-76.7008"/>
<text text-anchor="middle" x="237.5" y="-91.5" font-family="Helvetica,sans-Serif" font-size="10.00"> +time_stats</text>
</g>
<!-- Node6&#45;&gt;Node5 -->
<g id="edge5" class="edge"><title>Node6&#45;&gt;Node5</title>
<path fill="none" stroke="midnightblue" d="M266.914,-338.231C281.058,-315.689 296.403,-291.233 309.9,-269.722"/>
<polygon fill="none" stroke="midnightblue" points="263.908,-336.436 261.558,-346.767 269.838,-340.157 263.908,-336.436"/>
</g>
<!-- Node7 -->
<g id="node7" class="node"><title>Node7</title>
<polygon fill="white" stroke="#bfbfbf" points="296.5,-385.5 296.5,-442.5 341.5,-442.5 341.5,-385.5 296.5,-385.5"/>
<text text-anchor="middle" x="319" y="-430.5" font-family="Helvetica,sans-Serif" font-size="10.00">double</text>
<polyline fill="none" stroke="#bfbfbf" points="296.5,-423.5 341.5,-423.5 "/>
<text text-anchor="middle" x="319" y="-411.5" font-family="Helvetica,sans-Serif" font-size="10.00"> </text>
<polyline fill="none" stroke="#bfbfbf" points="296.5,-404.5 341.5,-404.5 "/>
<text text-anchor="middle" x="319" y="-392.5" font-family="Helvetica,sans-Serif" font-size="10.00"> </text>
</g>
<!-- Node7&#45;&gt;Node5 -->
<g id="edge7" class="edge"><title>Node7&#45;&gt;Node5</title>
<path fill="none" stroke="#404040" d="M317.489,-385.276C316.865,-365.805 316.893,-339.202 320,-316 321.513,-304.7 323.831,-292.885 326.498,-281.403"/>
<polygon fill="none" stroke="#404040" points="326.536,-281.25 324.075,-274.472 329.385,-269.594 331.846,-276.372 326.536,-281.25"/>
<text text-anchor="middle" x="337.5" y="-319.5" font-family="Helvetica,sans-Serif" font-size="10.00"> &#45;value_</text>
</g>
<!-- Node8 -->
<g id="node8" class="node"><title>Node8</title>
<polygon fill="white" stroke="#bfbfbf" points="359.5,-385.5 359.5,-442.5 394.5,-442.5 394.5,-385.5 359.5,-385.5"/>
<text text-anchor="middle" x="377" y="-430.5" font-family="Helvetica,sans-Serif" font-size="10.00">type</text>
<polyline fill="none" stroke="#bfbfbf" points="359.5,-423.5 394.5,-423.5 "/>
<text text-anchor="middle" x="377" y="-411.5" font-family="Helvetica,sans-Serif" font-size="10.00"> </text>
<polyline fill="none" stroke="#bfbfbf" points="359.5,-404.5 394.5,-404.5 "/>
<text text-anchor="middle" x="377" y="-392.5" font-family="Helvetica,sans-Serif" font-size="10.00"> </text>
</g>
<!-- Node8&#45;&gt;Node5 -->
<g id="edge8" class="edge"><title>Node8&#45;&gt;Node5</title>
<path fill="none" stroke="#404040" d="M373.089,-385.488C369.325,-359.008 363.467,-317.802 358.358,-281.864"/>
<polygon fill="none" stroke="#404040" points="358.347,-281.787 353.543,-276.41 356.658,-269.907 361.463,-275.284 358.347,-281.787"/>
<text text-anchor="middle" x="379" y="-319.5" font-family="Helvetica,sans-Serif" font-size="10.00"> &#45;unit_</text>
</g>
<!-- Node9 -->
<g id="node9" class="node"><title>Node9</title>
<polygon fill="white" stroke="#bfbfbf" points="412.5,-347 412.5,-481 581.5,-481 581.5,-347 412.5,-347"/>
<text text-anchor="start" x="420.5" y="-469" font-family="Helvetica,sans-Serif" font-size="10.00">accumulator_set&lt; double,</text>
<text text-anchor="start" x="420.5" y="-458" font-family="Helvetica,sans-Serif" font-size="10.00"> boost::accumulators::</text>
<text text-anchor="start" x="420.5" y="-447" font-family="Helvetica,sans-Serif" font-size="10.00">features&lt; boost::accumulators</text>
<text text-anchor="start" x="420.5" y="-436" font-family="Helvetica,sans-Serif" font-size="10.00">::tag::mean, boost::accumulators</text>
<text text-anchor="start" x="420.5" y="-425" font-family="Helvetica,sans-Serif" font-size="10.00">::tag::count, boost::accumulators</text>
<text text-anchor="start" x="420.5" y="-414" font-family="Helvetica,sans-Serif" font-size="10.00">::tag::min, boost::accumulators::</text>
<text text-anchor="start" x="420.5" y="-403" font-family="Helvetica,sans-Serif" font-size="10.00">tag::max, boost::accumulators::tag</text>
<text text-anchor="middle" x="497" y="-392" font-family="Helvetica,sans-Serif" font-size="10.00">::variance &gt; &gt;</text>
<polyline fill="none" stroke="#bfbfbf" points="412.5,-385 581.5,-385 "/>
<text text-anchor="middle" x="497" y="-373" font-family="Helvetica,sans-Serif" font-size="10.00"> </text>
<polyline fill="none" stroke="#bfbfbf" points="412.5,-366 581.5,-366 "/>
<text text-anchor="middle" x="497" y="-354" font-family="Helvetica,sans-Serif" font-size="10.00"> </text>
</g>
<!-- Node9&#45;&gt;Node5 -->
<g id="edge9" class="edge"><title>Node9&#45;&gt;Node5</title>
<path fill="none" stroke="#404040" d="M448.624,-346.767C432.928,-325.278 415.461,-301.363 399.544,-279.57"/>
<polygon fill="none" stroke="#404040" points="399.429,-279.413 392.66,-276.927 392.351,-269.722 399.12,-272.208 399.429,-279.413"/>
<text text-anchor="middle" x="446" y="-319.5" font-family="Helvetica,sans-Serif" font-size="10.00"> &#45;acc_</text>
</g>
<!-- Node10 -->
<g id="node10" class="node"><title>Node10</title>
<polygon fill="white" stroke="#bfbfbf" points="599,-385.5 599,-442.5 643,-442.5 643,-385.5 599,-385.5"/>
<text text-anchor="middle" x="621" y="-430.5" font-family="Helvetica,sans-Serif" font-size="10.00">mutex</text>
<polyline fill="none" stroke="#bfbfbf" points="599,-423.5 643,-423.5 "/>
<text text-anchor="middle" x="621" y="-411.5" font-family="Helvetica,sans-Serif" font-size="10.00"> </text>
<polyline fill="none" stroke="#bfbfbf" points="599,-404.5 643,-404.5 "/>
<text text-anchor="middle" x="621" y="-392.5" font-family="Helvetica,sans-Serif" font-size="10.00"> </text>
</g>
<!-- Node10&#45;&gt;Node5 -->
<g id="edge10" class="edge"><title>Node10&#45;&gt;Node5</title>
<path fill="none" stroke="#404040" d="M612.621,-385.278C607.635,-372.226 600.248,-357.122 590,-346 542.302,-294.232 470.437,-256.993 417.405,-234.525"/>
<polygon fill="none" stroke="#404040" points="417.138,-234.414 410.063,-235.811 406.053,-229.818 413.127,-228.421 417.138,-234.414"/>
<text text-anchor="middle" x="584" y="-319.5" font-family="Helvetica,sans-Serif" font-size="10.00"> &#45;lock_</text>
</g>
</g>
</svg>
        <g id="navigator" transform="translate(0 0)" fill="#404254">
                <rect fill="#f2f5e9" fill-opacity="0.5" stroke="#606060" stroke-width=".5" x="0" y="0" width="60" height="60"/>
                <use id="zoomplus" xlink:href="#zoomPlus" x="17" y="9" onmousedown="handleZoom(evt,'in')"/>
                <use id="zoomminus" xlink:href="#zoomMin" x="42" y="9" onmousedown="handleZoom(evt,'out')"/>
                <use id="reset" xlink:href="#resetDef" x="30" y="36" onmousedown="handleReset()"/>
                <g id="arrowUp" xlink:href="#dirArrow" transform="translate(30 24)" onmousedown="handlePan(0,-1)">
                  <use xlink:href="#rim" fill="#404040">
                        <set attributeName="fill" to="#808080" begin="arrowUp.mouseover" end="arrowUp.mouseout"/>
                  </use>
                  <path fill="none" stroke="white" stroke-width="1.5" d="M0,-3.0v7 M-2.5,-0.5L0,-3.0L2.5,-0.5"/>
                </g>
                <g id="arrowRight" xlink:href="#dirArrow" transform="rotate(90) translate(36 -43)" onmousedown="handlePan(1,0)">
                  <use xlink:href="#rim" fill="#404040">
                        <set attributeName="fill" to="#808080" begin="arrowRight.mouseover" end="arrowRight.mouseout"/>
                  </use>
                  <path fill="none" stroke="white" stroke-width="1.5" d="M0,-3.0v7 M-2.5,-0.5L0,-3.0L2.5,-0.5"/>
                </g>
                <g id="arrowDown" xlink:href="#dirArrow" transform="rotate(180) translate(-30 -48)" onmousedown="handlePan(0,1)">
                  <use xlink:href="#rim" fill="#404040">
                        <set attributeName="fill" to="#808080" begin="arrowDown.mouseover" end="arrowDown.mouseout"/>
                  </use>
                  <path fill="none" stroke="white" stroke-width="1.5" d="M0,-3.0v7 M-2.5,-0.5L0,-3.0L2.5,-0.5"/>
                </g>
                <g id="arrowLeft" xlink:href="#dirArrow" transform="rotate(270) translate(-36 17)" onmousedown="handlePan(-1,0)">
                  <use xlink:href="#rim" fill="#404040">
                        <set attributeName="fill" to="#808080" begin="arrowLeft.mouseover" end="arrowLeft.mouseout"/>
                  </use>
                  <path fill="none" stroke="white" stroke-width="1.5" d="M0,-3.0v7 M-2.5,-0.5L0,-3.0L2.5,-0.5"/>
                </g>
        </g>
        <svg viewBox="0 0 15 15" width="100%" height="30px" preserveAspectRatio="xMaxYMin meet">
         <g id="arrow_out" transform="scale(0.3 0.3)">
          <a xlink:href="structimpala_1_1RpcEventHandler_1_1MethodDescriptor__coll__graph_org.svg" target="_base">
           <rect id="button" ry="5" rx="5" y="6" x="6" height="38" width="38"
                fill="#f2f5e9" fill-opacity="0.5" stroke="#606060" stroke-width="1.0"/>
           <path id="arrow"
             d="M 11.500037,31.436501 C 11.940474,20.09759 22.043105,11.32322 32.158766,21.979434 L 37.068811,17.246167 C 37.068811,17.246167 37.088388,32 37.088388,32 L 22.160133,31.978069 C 22.160133,31.978069 26.997745,27.140456 26.997745,27.140456 C 18.528582,18.264221 13.291696,25.230495 11.500037,31.436501 z"
             style="fill:#404040;"/>
          </a>
         </g>
        </svg>
</svg>
