<?xml version="1.0" encoding="UTF-8" standalone="no"?>
<!DOCTYPE svg PUBLIC "-//W3C//DTD SVG 1.1//EN"
 "http://www.w3.org/Graphics/SVG/1.1/DTD/svg11.dtd">
<!-- Generated by graphviz version 2.36.0 (20140111.2315)
 -->
<!-- Title: impala::LikePredicate::LikePredicateState Pages: 1 -->
<svg width="682pt" height="636pt"
 viewBox="0.00 0.00 682.00 636.00" xmlns="http://www.w3.org/2000/svg" xmlns:xlink="http://www.w3.org/1999/xlink">
<g id="graph0" class="graph" transform="scale(1 1) rotate(0) translate(4 632)">
<title>impala::LikePredicate::LikePredicateState</title>
<polygon fill="white" stroke="none" points="-4,4 -4,-632 678,-632 678,4 -4,4"/>
<!-- Node1 -->
<g id="node1" class="node"><title>Node1</title>
<polygon fill="#bfbfbf" stroke="black" points="214,-0.5 214,-79.5 328,-79.5 328,-0.5 214,-0.5"/>
<text text-anchor="start" x="222" y="-67.5" font-family="Helvetica,sans-Serif" font-size="10.00">impala::LikePredicate</text>
<text text-anchor="middle" x="271" y="-56.5" font-family="Helvetica,sans-Serif" font-size="10.00">::LikePredicateState</text>
<polyline fill="none" stroke="black" points="214,-49.5 328,-49.5 "/>
<text text-anchor="middle" x="271" y="-37.5" font-family="Helvetica,sans-Serif" font-size="10.00"> </text>
<polyline fill="none" stroke="black" points="214,-30.5 328,-30.5 "/>
<text text-anchor="start" x="222" y="-18.5" font-family="Helvetica,sans-Serif" font-size="10.00">+ LikePredicateState()</text>
<text text-anchor="start" x="222" y="-7.5" font-family="Helvetica,sans-Serif" font-size="10.00">+ SetSearchString()</text>
</g>
<!-- Node2 -->
<g id="node2" class="node"><title>Node2</title>
<polygon fill="white" stroke="#bfbfbf" points="0,-150.5 0,-207.5 122,-207.5 122,-150.5 0,-150.5"/>
<text text-anchor="middle" x="61" y="-195.5" font-family="Helvetica,sans-Serif" font-size="10.00">scoped_ptr&lt; re2::RE2 &gt;</text>
<polyline fill="none" stroke="#bfbfbf" points="0,-188.5 122,-188.5 "/>
<text text-anchor="middle" x="61" y="-176.5" font-family="Helvetica,sans-Serif" font-size="10.00"> </text>
<polyline fill="none" stroke="#bfbfbf" points="0,-169.5 122,-169.5 "/>
<text text-anchor="middle" x="61" y="-157.5" font-family="Helvetica,sans-Serif" font-size="10.00"> </text>
</g>
<!-- Node2&#45;&gt;Node1 -->
<g id="edge1" class="edge"><title>Node2&#45;&gt;Node1</title>
<path fill="none" stroke="#404040" d="M67.277,-150.491C72.5344,-133.242 81.7095,-111.746 97,-98 125.865,-72.0508 166.779,-57.8881 201.682,-50.1717"/>
<polygon fill="none" stroke="#404040" points="201.991,-50.1086 207.067,-44.9867 213.747,-47.7024 208.671,-52.8243 201.991,-50.1086"/>
<text text-anchor="middle" x="116.5" y="-101.5" font-family="Helvetica,sans-Serif" font-size="10.00"> +regex_</text>
</g>
<!-- Node3 -->
<g id="node3" class="node"><title>Node3</title>
<g id="a_node3"><a xlink:href="classimpala_1_1StringSearch.html" target="_top" xlink:title="{impala::StringSearch\n||+ StringSearch()\l+ StringSearch()\l+ Search()\l&#45; BloomAdd()\l&#45; BloomQuery()\l}">
<polygon fill="white" stroke="black" points="344.5,-128.5 344.5,-229.5 451.5,-229.5 451.5,-128.5 344.5,-128.5"/>
<text text-anchor="middle" x="398" y="-217.5" font-family="Helvetica,sans-Serif" font-size="10.00">impala::StringSearch</text>
<polyline fill="none" stroke="black" points="344.5,-210.5 451.5,-210.5 "/>
<text text-anchor="middle" x="398" y="-198.5" font-family="Helvetica,sans-Serif" font-size="10.00"> </text>
<polyline fill="none" stroke="black" points="344.5,-191.5 451.5,-191.5 "/>
<text text-anchor="start" x="352.5" y="-179.5" font-family="Helvetica,sans-Serif" font-size="10.00">+ StringSearch()</text>
<text text-anchor="start" x="352.5" y="-168.5" font-family="Helvetica,sans-Serif" font-size="10.00">+ StringSearch()</text>
<text text-anchor="start" x="352.5" y="-157.5" font-family="Helvetica,sans-Serif" font-size="10.00">+ Search()</text>
<text text-anchor="start" x="352.5" y="-146.5" font-family="Helvetica,sans-Serif" font-size="10.00">&#45; BloomAdd()</text>
<text text-anchor="start" x="352.5" y="-135.5" font-family="Helvetica,sans-Serif" font-size="10.00">&#45; BloomQuery()</text>
</a>
</g>
</g>
<!-- Node3&#45;&gt;Node1 -->
<g id="edge2" class="edge"><title>Node3&#45;&gt;Node1</title>
<path fill="none" stroke="#404040" d="M351.791,-128.152C339.92,-115.347 327.177,-101.6 315.4,-88.8959"/>
<polygon fill="none" stroke="#404040" points="315.18,-88.6583 308.167,-86.9775 307.022,-79.8579 314.034,-81.5388 315.18,-88.6583"/>
<text text-anchor="middle" x="380" y="-101.5" font-family="Helvetica,sans-Serif" font-size="10.00"> +substring_pattern_</text>
</g>
<!-- Node4 -->
<g id="node4" class="node"><title>Node4</title>
<g id="a_node4"><a xlink:href="structimpala_1_1StringValue.html" target="_top" xlink:title="{impala::StringValue\n||+ StringValue()\l+ StringValue()\l+ StringValue()\l+ StringValue()\l+ Compare()\l+ Eq()\l+ operator==()\l+ Ne()\l+ operator!=()\l+ Le()\land 12 more...\l+ FromStringVal()\l+ PadWithSpaces()\l+ UnpaddedCharLength()\l+ CharSlotToPtr()\l+ CharSlotToPtr()\l}">
<polygon fill="white" stroke="black" points="184,-289 184,-511 310,-511 310,-289 184,-289"/>
<text text-anchor="middle" x="247" y="-499" font-family="Helvetica,sans-Serif" font-size="10.00">impala::StringValue</text>
<polyline fill="none" stroke="black" points="184,-492 310,-492 "/>
<text text-anchor="middle" x="247" y="-480" font-family="Helvetica,sans-Serif" font-size="10.00"> </text>
<polyline fill="none" stroke="black" points="184,-473 310,-473 "/>
<text text-anchor="start" x="192" y="-461" font-family="Helvetica,sans-Serif" font-size="10.00">+ StringValue()</text>
<text text-anchor="start" x="192" y="-450" font-family="Helvetica,sans-Serif" font-size="10.00">+ StringValue()</text>
<text text-anchor="start" x="192" y="-439" font-family="Helvetica,sans-Serif" font-size="10.00">+ StringValue()</text>
<text text-anchor="start" x="192" y="-428" font-family="Helvetica,sans-Serif" font-size="10.00">+ StringValue()</text>
<text text-anchor="start" x="192" y="-417" font-family="Helvetica,sans-Serif" font-size="10.00">+ Compare()</text>
<text text-anchor="start" x="192" y="-406" font-family="Helvetica,sans-Serif" font-size="10.00">+ Eq()</text>
<text text-anchor="start" x="192" y="-395" font-family="Helvetica,sans-Serif" font-size="10.00">+ operator==()</text>
<text text-anchor="start" x="192" y="-384" font-family="Helvetica,sans-Serif" font-size="10.00">+ Ne()</text>
<text text-anchor="start" x="192" y="-373" font-family="Helvetica,sans-Serif" font-size="10.00">+ operator!=()</text>
<text text-anchor="start" x="192" y="-362" font-family="Helvetica,sans-Serif" font-size="10.00">+ Le()</text>
<text text-anchor="start" x="192" y="-351" font-family="Helvetica,sans-Serif" font-size="10.00">and 12 more...</text>
<text text-anchor="start" x="192" y="-340" font-family="Helvetica,sans-Serif" font-size="10.00">+ FromStringVal()</text>
<text text-anchor="start" x="192" y="-329" font-family="Helvetica,sans-Serif" font-size="10.00">+ PadWithSpaces()</text>
<text text-anchor="start" x="192" y="-318" font-family="Helvetica,sans-Serif" font-size="10.00">+ UnpaddedCharLength()</text>
<text text-anchor="start" x="192" y="-307" font-family="Helvetica,sans-Serif" font-size="10.00">+ CharSlotToPtr()</text>
<text text-anchor="start" x="192" y="-296" font-family="Helvetica,sans-Serif" font-size="10.00">+ CharSlotToPtr()</text>
</a>
</g>
</g>
<!-- Node4&#45;&gt;Node1 -->
<g id="edge8" class="edge"><title>Node4&#45;&gt;Node1</title>
<path fill="none" stroke="#404040" d="M239.462,-288.743C237.915,-239.356 238.602,-180.529 246,-128 247.693,-115.978 250.641,-103.29 253.932,-91.432"/>
<polygon fill="none" stroke="#404040" points="253.934,-91.4234 251.78,-84.5417 257.303,-79.9061 259.458,-86.7878 253.934,-91.4234"/>
<text text-anchor="middle" x="290.5" y="-176.5" font-family="Helvetica,sans-Serif" font-size="10.00"> +search_string_sv_</text>
</g>
<!-- Node4&#45;&gt;Node3 -->
<g id="edge3" class="edge"><title>Node4&#45;&gt;Node3</title>
<path fill="none" stroke="#404040" d="M270.571,-288.831C276.883,-274.102 284.878,-259.974 295,-248 306.293,-234.641 315.129,-239.21 330,-230 331.331,-229.175 332.67,-228.333 334.013,-227.474"/>
<polygon fill="none" stroke="#404040" points="334.337,-227.26 337.138,-220.615 344.349,-220.644 341.548,-227.289 334.337,-227.26"/>
<text text-anchor="middle" x="316" y="-256.5" font-family="Helvetica,sans-Serif" font-size="10.00"> &#45;pattern_</text>
</g>
<!-- Node5 -->
<g id="node5" class="node"><title>Node5</title>
<polygon fill="white" stroke="#bfbfbf" points="149.5,-570.5 149.5,-627.5 184.5,-627.5 184.5,-570.5 149.5,-570.5"/>
<text text-anchor="middle" x="167" y="-615.5" font-family="Helvetica,sans-Serif" font-size="10.00">char</text>
<polyline fill="none" stroke="#bfbfbf" points="149.5,-608.5 184.5,-608.5 "/>
<text text-anchor="middle" x="167" y="-596.5" font-family="Helvetica,sans-Serif" font-size="10.00"> </text>
<polyline fill="none" stroke="#bfbfbf" points="149.5,-589.5 184.5,-589.5 "/>
<text text-anchor="middle" x="167" y="-577.5" font-family="Helvetica,sans-Serif" font-size="10.00"> </text>
</g>
<!-- Node5&#45;&gt;Node1 -->
<g id="edge13" class="edge"><title>Node5&#45;&gt;Node1</title>
<path fill="none" stroke="#404040" d="M162.395,-570.255C153.416,-510.37 136.795,-364.962 165,-248 178.945,-190.171 211.949,-130.342 237.455,-89.9694"/>
<polygon fill="none" stroke="#404040" points="237.611,-89.7258 237.487,-82.5158 244.094,-79.6276 244.219,-86.8376 237.611,-89.7258"/>
<text text-anchor="middle" x="200" y="-256.5" font-family="Helvetica,sans-Serif" font-size="10.00"> +escape_char_</text>
</g>
<!-- Node5&#45;&gt;Node4 -->
<g id="edge4" class="edge"><title>Node5&#45;&gt;Node4</title>
<path fill="none" stroke="#404040" d="M172.503,-570.474C175.357,-557.943 179.248,-543.033 184,-530 184.919,-527.479 185.872,-524.942 186.855,-522.395"/>
<polygon fill="none" stroke="#404040" points="186.885,-522.32 185.399,-515.264 191.341,-511.178 192.827,-518.234 186.885,-522.32"/>
<text text-anchor="middle" x="238" y="-544" font-family="Helvetica,sans-Serif" font-size="10.00"> +LLVM_CLASS_NAME</text>
<text text-anchor="middle" x="238" y="-533" font-family="Helvetica,sans-Serif" font-size="10.00">+ptr</text>
</g>
<!-- Node6 -->
<g id="node6" class="node"><title>Node6</title>
<polygon fill="white" stroke="#bfbfbf" points="317.5,-570.5 317.5,-627.5 346.5,-627.5 346.5,-570.5 317.5,-570.5"/>
<text text-anchor="middle" x="332" y="-615.5" font-family="Helvetica,sans-Serif" font-size="10.00">int</text>
<polyline fill="none" stroke="#bfbfbf" points="317.5,-608.5 346.5,-608.5 "/>
<text text-anchor="middle" x="332" y="-596.5" font-family="Helvetica,sans-Serif" font-size="10.00"> </text>
<polyline fill="none" stroke="#bfbfbf" points="317.5,-589.5 346.5,-589.5 "/>
<text text-anchor="middle" x="332" y="-577.5" font-family="Helvetica,sans-Serif" font-size="10.00"> </text>
</g>
<!-- Node6&#45;&gt;Node3 -->
<g id="edge7" class="edge"><title>Node6&#45;&gt;Node3</title>
<path fill="none" stroke="#404040" d="M335.11,-570.28C335.759,-564.256 336.421,-557.916 337,-552 348.475,-434.783 335.147,-403.126 360,-288 363.359,-272.44 368.335,-256.046 373.588,-240.862"/>
<polygon fill="none" stroke="#404040" points="373.602,-240.823 371.853,-233.827 377.637,-229.521 379.387,-236.517 373.602,-240.823"/>
<text text-anchor="middle" x="400.5" y="-397.5" font-family="Helvetica,sans-Serif" font-size="10.00"> &#45;BLOOM_WIDTH</text>
</g>
<!-- Node6&#45;&gt;Node4 -->
<g id="edge5" class="edge"><title>Node6&#45;&gt;Node4</title>
<path fill="none" stroke="#404040" d="M320.002,-570.193C314.317,-557.018 307.094,-540.277 299.413,-522.476"/>
<polygon fill="none" stroke="#404040" points="299.336,-522.295 293.286,-518.371 294.582,-511.277 300.631,-515.202 299.336,-522.295"/>
<text text-anchor="middle" x="323" y="-538.5" font-family="Helvetica,sans-Serif" font-size="10.00"> +len</text>
</g>
<!-- Node7 -->
<g id="node7" class="node"><title>Node7</title>
<polygon fill="white" stroke="#bfbfbf" points="450,-371.5 450,-428.5 496,-428.5 496,-371.5 450,-371.5"/>
<text text-anchor="middle" x="473" y="-416.5" font-family="Helvetica,sans-Serif" font-size="10.00">int64_t</text>
<polyline fill="none" stroke="#bfbfbf" points="450,-409.5 496,-409.5 "/>
<text text-anchor="middle" x="473" y="-397.5" font-family="Helvetica,sans-Serif" font-size="10.00"> </text>
<polyline fill="none" stroke="#bfbfbf" points="450,-390.5 496,-390.5 "/>
<text text-anchor="middle" x="473" y="-378.5" font-family="Helvetica,sans-Serif" font-size="10.00"> </text>
</g>
<!-- Node7&#45;&gt;Node3 -->
<g id="edge6" class="edge"><title>Node7&#45;&gt;Node3</title>
<path fill="none" stroke="#404040" d="M463.852,-371.13C456.441,-348.655 445.677,-316.249 436,-288 430.79,-272.791 425.079,-256.411 419.703,-241.119"/>
<polygon fill="none" stroke="#404040" points="419.659,-240.993 413.893,-236.663 415.672,-229.675 421.438,-234.005 419.659,-240.993"/>
<text text-anchor="middle" x="445.5" y="-262" font-family="Helvetica,sans-Serif" font-size="10.00"> &#45;skip_</text>
<text text-anchor="middle" x="445.5" y="-251" font-family="Helvetica,sans-Serif" font-size="10.00">&#45;mask_</text>
</g>
<!-- Node8 -->
<g id="node8" class="node"><title>Node8</title>
<g id="a_node8"><a xlink:href="structimpala__udf_1_1BooleanVal.html" target="_top" xlink:title="{impala_udf::BooleanVal\n||+ BooleanVal()\l+ operator==()\l+ operator!=()\l+ null()\l}">
<polygon fill="white" stroke="black" points="471.5,-134 471.5,-224 590.5,-224 590.5,-134 471.5,-134"/>
<text text-anchor="middle" x="531" y="-212" font-family="Helvetica,sans-Serif" font-size="10.00">impala_udf::BooleanVal</text>
<polyline fill="none" stroke="black" points="471.5,-205 590.5,-205 "/>
<text text-anchor="middle" x="531" y="-193" font-family="Helvetica,sans-Serif" font-size="10.00"> </text>
<polyline fill="none" stroke="black" points="471.5,-186 590.5,-186 "/>
<text text-anchor="start" x="479.5" y="-174" font-family="Helvetica,sans-Serif" font-size="10.00">+ BooleanVal()</text>
<text text-anchor="start" x="479.5" y="-163" font-family="Helvetica,sans-Serif" font-size="10.00">+ operator==()</text>
<text text-anchor="start" x="479.5" y="-152" font-family="Helvetica,sans-Serif" font-size="10.00">+ operator!=()</text>
<text text-anchor="start" x="479.5" y="-141" font-family="Helvetica,sans-Serif" font-size="10.00">+ null()</text>
</a>
</g>
</g>
<!-- Node8&#45;&gt;Node1 -->
<g id="edge9" class="edge"><title>Node8&#45;&gt;Node1</title>
<path fill="none" stroke="#404040" d="M481.353,-133.918C465.381,-121.182 447.114,-108.029 429,-98 401.084,-82.5436 368.166,-69.8864 339.622,-60.4594"/>
<polygon fill="none" stroke="#404040" points="339.52,-60.4266 332.582,-62.3947 328.097,-56.748 335.035,-54.7799 339.52,-60.4266"/>
<text text-anchor="middle" x="472.5" y="-101.5" font-family="Helvetica,sans-Serif" font-size="10.00"> +function_</text>
</g>
<!-- Node9 -->
<g id="node9" class="node"><title>Node9</title>
<g id="a_node9"><a xlink:href="structimpala__udf_1_1AnyVal.html" target="_top" xlink:title="{impala_udf::AnyVal\n||+ AnyVal()\l}">
<polygon fill="white" stroke="black" points="572.5,-371.5 572.5,-428.5 673.5,-428.5 673.5,-371.5 572.5,-371.5"/>
<text text-anchor="middle" x="623" y="-416.5" font-family="Helvetica,sans-Serif" font-size="10.00">impala_udf::AnyVal</text>
<polyline fill="none" stroke="black" points="572.5,-409.5 673.5,-409.5 "/>
<text text-anchor="middle" x="623" y="-397.5" font-family="Helvetica,sans-Serif" font-size="10.00"> </text>
<polyline fill="none" stroke="black" points="572.5,-390.5 673.5,-390.5 "/>
<text text-anchor="start" x="580.5" y="-378.5" font-family="Helvetica,sans-Serif" font-size="10.00">+ AnyVal()</text>
</a>
</g>
</g>
<!-- Node9&#45;&gt;Node8 -->
<g id="edge10" class="edge"><title>Node9&#45;&gt;Node8</title>
<path fill="none" stroke="midnightblue" d="M607.282,-361.585C591.286,-323.508 566.499,-264.503 549.55,-224.157"/>
<polygon fill="none" stroke="midnightblue" points="604.248,-363.4 611.348,-371.263 610.702,-360.688 604.248,-363.4"/>
</g>
<!-- Node10 -->
<g id="node10" class="node"><title>Node10</title>
<g id="a_node10"><a xlink:href="classbool.html" target="_top" xlink:title="{bool\n||}">
<polygon fill="white" stroke="black" points="545.5,-570.5 545.5,-627.5 580.5,-627.5 580.5,-570.5 545.5,-570.5"/>
<text text-anchor="middle" x="563" y="-615.5" font-family="Helvetica,sans-Serif" font-size="10.00">bool</text>
<polyline fill="none" stroke="black" points="545.5,-608.5 580.5,-608.5 "/>
<text text-anchor="middle" x="563" y="-596.5" font-family="Helvetica,sans-Serif" font-size="10.00"> </text>
<polyline fill="none" stroke="black" points="545.5,-589.5 580.5,-589.5 "/>
<text text-anchor="middle" x="563" y="-577.5" font-family="Helvetica,sans-Serif" font-size="10.00"> </text>
</a>
</g>
</g>
<!-- Node10&#45;&gt;Node8 -->
<g id="edge12" class="edge"><title>Node10&#45;&gt;Node8</title>
<path fill="none" stroke="#404040" d="M554.294,-570.425C549.431,-553.705 543.801,-531.838 541,-512 527.423,-415.848 527.381,-302.537 528.942,-236.246"/>
<polygon fill="none" stroke="#404040" points="528.948,-236.028 525.105,-229.926 529.261,-224.032 533.103,-230.134 528.948,-236.028"/>
<text text-anchor="middle" x="552" y="-397.5" font-family="Helvetica,sans-Serif" font-size="10.00"> +val</text>
</g>
<!-- Node10&#45;&gt;Node9 -->
<g id="edge11" class="edge"><title>Node10&#45;&gt;Node9</title>
<path fill="none" stroke="#404040" d="M571.469,-570.193C581.81,-536.24 599.364,-478.603 611.07,-440.172"/>
<polygon fill="none" stroke="#404040" points="611.077,-440.145 608.999,-433.24 614.574,-428.666 616.652,-435.571 611.077,-440.145"/>
<text text-anchor="middle" x="601.5" y="-538.5" font-family="Helvetica,sans-Serif" font-size="10.00"> +is_null</text>
</g>
<!-- Node11 -->
<g id="node11" class="node"><title>Node11</title>
<polygon fill="white" stroke="#bfbfbf" points="608.5,-150.5 608.5,-207.5 649.5,-207.5 649.5,-150.5 608.5,-150.5"/>
<text text-anchor="middle" x="629" y="-195.5" font-family="Helvetica,sans-Serif" font-size="10.00">string</text>
<polyline fill="none" stroke="#bfbfbf" points="608.5,-188.5 649.5,-188.5 "/>
<text text-anchor="middle" x="629" y="-176.5" font-family="Helvetica,sans-Serif" font-size="10.00"> </text>
<polyline fill="none" stroke="#bfbfbf" points="608.5,-169.5 649.5,-169.5 "/>
<text text-anchor="middle" x="629" y="-157.5" font-family="Helvetica,sans-Serif" font-size="10.00"> </text>
</g>
<!-- Node11&#45;&gt;Node1 -->
<g id="edge14" class="edge"><title>Node11&#45;&gt;Node1</title>
<path fill="none" stroke="#404040" d="M617.169,-150.316C612.531,-142.161 606.496,-133.862 599,-128 523.656,-69.0743 411.951,-49.8978 340.311,-43.753"/>
<polygon fill="none" stroke="#404040" points="340.258,-43.749 333.964,-47.2684 328.295,-42.8123 334.589,-39.2928 340.258,-43.749"/>
<text text-anchor="middle" x="605.5" y="-101.5" font-family="Helvetica,sans-Serif" font-size="10.00"> +search_string_</text>
</g>
</g>
</svg>
