<?xml version="1.0" encoding="UTF-8" standalone="no"?>
<!DOCTYPE svg PUBLIC "-//W3C//DTD SVG 1.1//EN"
 "http://www.w3.org/Graphics/SVG/1.1/DTD/svg11.dtd">
<!-- Generated by graphviz version 2.36.0 (20140111.2315)
 -->
<!-- Title: impala::OutputPartition Pages: 1 -->
<svg width="989pt" height="778pt"
 viewBox="0.00 0.00 989.00 778.00" xmlns="http://www.w3.org/2000/svg" xmlns:xlink="http://www.w3.org/1999/xlink">
<g id="graph0" class="graph" transform="scale(1 1) rotate(0) translate(4 774)">
<title>impala::OutputPartition</title>
<polygon fill="white" stroke="none" points="-4,4 -4,-774 985,-774 985,4 -4,4"/>
<!-- Node1 -->
<g id="node1" class="node"><title>Node1</title>
<polygon fill="#bfbfbf" stroke="black" points="217,-0.5 217,-57.5 333,-57.5 333,-0.5 217,-0.5"/>
<text text-anchor="middle" x="275" y="-45.5" font-family="Helvetica,sans-Serif" font-size="10.00">impala::OutputPartition</text>
<polyline fill="none" stroke="black" points="217,-38.5 333,-38.5 "/>
<text text-anchor="middle" x="275" y="-26.5" font-family="Helvetica,sans-Serif" font-size="10.00"> </text>
<polyline fill="none" stroke="black" points="217,-19.5 333,-19.5 "/>
<text text-anchor="start" x="225" y="-7.5" font-family="Helvetica,sans-Serif" font-size="10.00">+ OutputPartition()</text>
</g>
<!-- Node2 -->
<g id="node2" class="node"><title>Node2</title>
<polygon fill="white" stroke="#bfbfbf" points="0,-178.5 0,-235.5 48,-235.5 48,-178.5 0,-178.5"/>
<text text-anchor="middle" x="24" y="-223.5" font-family="Helvetica,sans-Serif" font-size="10.00">hdfsFS</text>
<polyline fill="none" stroke="#bfbfbf" points="0,-216.5 48,-216.5 "/>
<text text-anchor="middle" x="24" y="-204.5" font-family="Helvetica,sans-Serif" font-size="10.00"> </text>
<polyline fill="none" stroke="#bfbfbf" points="0,-197.5 48,-197.5 "/>
<text text-anchor="middle" x="24" y="-185.5" font-family="Helvetica,sans-Serif" font-size="10.00"> </text>
</g>
<!-- Node2&#45;&gt;Node1 -->
<g id="edge1" class="edge"><title>Node2&#45;&gt;Node1</title>
<path fill="none" stroke="#404040" d="M15.0053,-178.419C7.44786,-149.454 1.27609,-104.266 25,-76 47.589,-49.0866 138.804,-37.8567 204.531,-33.2125"/>
<polygon fill="none" stroke="#404040" points="204.923,-33.1867 210.645,-28.7991 216.897,-32.3942 211.174,-36.7817 204.923,-33.1867"/>
<text text-anchor="middle" x="65.5" y="-79.5" font-family="Helvetica,sans-Serif" font-size="10.00"> +hdfs_connection</text>
</g>
<!-- Node3 -->
<g id="node3" class="node"><title>Node3</title>
<polygon fill="white" stroke="#bfbfbf" points="135,-411.5 135,-468.5 181,-468.5 181,-411.5 135,-411.5"/>
<text text-anchor="middle" x="158" y="-456.5" font-family="Helvetica,sans-Serif" font-size="10.00">int64_t</text>
<polyline fill="none" stroke="#bfbfbf" points="135,-449.5 181,-449.5 "/>
<text text-anchor="middle" x="158" y="-437.5" font-family="Helvetica,sans-Serif" font-size="10.00"> </text>
<polyline fill="none" stroke="#bfbfbf" points="135,-430.5 181,-430.5 "/>
<text text-anchor="middle" x="158" y="-418.5" font-family="Helvetica,sans-Serif" font-size="10.00"> </text>
</g>
<!-- Node3&#45;&gt;Node1 -->
<g id="edge2" class="edge"><title>Node3&#45;&gt;Node1</title>
<path fill="none" stroke="#404040" d="M145.224,-411.052C119.591,-350.448 69.2406,-204.479 129,-106 145.883,-78.1788 176.637,-60.0703 205.581,-48.5388"/>
<polygon fill="none" stroke="#404040" points="205.732,-48.4824 209.955,-42.6371 216.975,-44.2869 212.752,-50.1322 205.732,-48.4824"/>
<text text-anchor="middle" x="156.5" y="-204.5" font-family="Helvetica,sans-Serif" font-size="10.00"> +num_rows</text>
</g>
<!-- Node6 -->
<g id="node6" class="node"><title>Node6</title>
<g id="a_node6"><a xlink:href="classimpala_1_1HdfsPartitionDescriptor.html" target="_top" xlink:title="Metadata for a single partition inside an Hdfs table. ">
<polygon fill="white" stroke="black" points="389.5,-107 389.5,-307 542.5,-307 542.5,-107 389.5,-107"/>
<text text-anchor="middle" x="466" y="-295" font-family="Helvetica,sans-Serif" font-size="10.00">impala::HdfsPartitionDescriptor</text>
<polyline fill="none" stroke="black" points="389.5,-288 542.5,-288 "/>
<text text-anchor="middle" x="466" y="-276" font-family="Helvetica,sans-Serif" font-size="10.00"> </text>
<polyline fill="none" stroke="black" points="389.5,-269 542.5,-269 "/>
<text text-anchor="start" x="397.5" y="-257" font-family="Helvetica,sans-Serif" font-size="10.00">+ HdfsPartitionDescriptor()</text>
<text text-anchor="start" x="397.5" y="-246" font-family="Helvetica,sans-Serif" font-size="10.00">+ line_delim()</text>
<text text-anchor="start" x="397.5" y="-235" font-family="Helvetica,sans-Serif" font-size="10.00">+ field_delim()</text>
<text text-anchor="start" x="397.5" y="-224" font-family="Helvetica,sans-Serif" font-size="10.00">+ collection_delim()</text>
<text text-anchor="start" x="397.5" y="-213" font-family="Helvetica,sans-Serif" font-size="10.00">+ escape_char()</text>
<text text-anchor="start" x="397.5" y="-202" font-family="Helvetica,sans-Serif" font-size="10.00">+ file_format()</text>
<text text-anchor="start" x="397.5" y="-191" font-family="Helvetica,sans-Serif" font-size="10.00">+ partition_key_value_ctxs()</text>
<text text-anchor="start" x="397.5" y="-180" font-family="Helvetica,sans-Serif" font-size="10.00">+ block_size()</text>
<text text-anchor="start" x="397.5" y="-169" font-family="Helvetica,sans-Serif" font-size="10.00">+ location()</text>
<text text-anchor="start" x="397.5" y="-158" font-family="Helvetica,sans-Serif" font-size="10.00">+ id()</text>
<text text-anchor="start" x="397.5" y="-147" font-family="Helvetica,sans-Serif" font-size="10.00">+ PrepareExprs()</text>
<text text-anchor="start" x="397.5" y="-136" font-family="Helvetica,sans-Serif" font-size="10.00">+ OpenExprs()</text>
<text text-anchor="start" x="397.5" y="-125" font-family="Helvetica,sans-Serif" font-size="10.00">+ CloseExprs()</text>
<text text-anchor="start" x="397.5" y="-114" font-family="Helvetica,sans-Serif" font-size="10.00">+ DebugString()</text>
</a>
</g>
</g>
<!-- Node3&#45;&gt;Node6 -->
<g id="edge7" class="edge"><title>Node3&#45;&gt;Node6</title>
<path fill="none" stroke="#404040" d="M177.979,-411.402C198.655,-385.035 233.435,-346.38 273,-326 313.924,-304.92 334.681,-330.214 375,-308 376.388,-307.235 377.766,-306.442 379.133,-305.621"/>
<polygon fill="none" stroke="#404040" points="379.396,-305.447 382.196,-298.801 389.407,-298.83 386.607,-305.475 379.396,-305.447"/>
<text text-anchor="middle" x="282.5" y="-351.5" font-family="Helvetica,sans-Serif" font-size="10.00"> &#45;id_</text>
</g>
<!-- Node4 -->
<g id="node4" class="node"><title>Node4</title>
<polygon fill="white" stroke="#bfbfbf" points="193,-178.5 193,-235.5 239,-235.5 239,-178.5 193,-178.5"/>
<text text-anchor="middle" x="216" y="-223.5" font-family="Helvetica,sans-Serif" font-size="10.00">int32_t</text>
<polyline fill="none" stroke="#bfbfbf" points="193,-216.5 239,-216.5 "/>
<text text-anchor="middle" x="216" y="-204.5" font-family="Helvetica,sans-Serif" font-size="10.00"> </text>
<polyline fill="none" stroke="#bfbfbf" points="193,-197.5 239,-197.5 "/>
<text text-anchor="middle" x="216" y="-185.5" font-family="Helvetica,sans-Serif" font-size="10.00"> </text>
</g>
<!-- Node4&#45;&gt;Node1 -->
<g id="edge3" class="edge"><title>Node4&#45;&gt;Node1</title>
<path fill="none" stroke="#404040" d="M206.726,-178.392C199.184,-150.826 192.267,-108.059 209,-76 210.753,-72.6415 212.875,-69.4782 215.269,-66.5066"/>
<polygon fill="none" stroke="#404040" points="215.429,-66.3393 216.682,-59.2379 223.72,-57.6634 222.466,-64.7648 215.429,-66.3393"/>
<text text-anchor="middle" x="235" y="-79.5" font-family="Helvetica,sans-Serif" font-size="10.00"> +num_files</text>
</g>
<!-- Node5 -->
<g id="node5" class="node"><title>Node5</title>
<polygon fill="white" stroke="#bfbfbf" points="270.5,-411.5 270.5,-468.5 311.5,-468.5 311.5,-411.5 270.5,-411.5"/>
<text text-anchor="middle" x="291" y="-456.5" font-family="Helvetica,sans-Serif" font-size="10.00">string</text>
<polyline fill="none" stroke="#bfbfbf" points="270.5,-449.5 311.5,-449.5 "/>
<text text-anchor="middle" x="291" y="-437.5" font-family="Helvetica,sans-Serif" font-size="10.00"> </text>
<polyline fill="none" stroke="#bfbfbf" points="270.5,-430.5 311.5,-430.5 "/>
<text text-anchor="middle" x="291" y="-418.5" font-family="Helvetica,sans-Serif" font-size="10.00"> </text>
</g>
<!-- Node5&#45;&gt;Node1 -->
<g id="edge4" class="edge"><title>Node5&#45;&gt;Node1</title>
<path fill="none" stroke="#404040" d="M289.357,-411.407C287.818,-384.902 285.533,-343.725 284,-308 280.359,-223.138 277.473,-123.647 276.023,-69.6947"/>
<polygon fill="none" stroke="#404040" points="276.021,-69.6236 271.863,-63.732 275.702,-57.6279 279.86,-63.5194 276.021,-69.6236"/>
<text text-anchor="middle" x="332" y="-237.5" font-family="Helvetica,sans-Serif" font-size="10.00"> +partition_name</text>
<text text-anchor="start" x="284" y="-226.5" font-family="Helvetica,sans-Serif" font-size="10.00">+final_hdfs_file_name</text>
<text text-anchor="middle" x="332" y="-215.5" font-family="Helvetica,sans-Serif" font-size="10.00">_prefix</text>
<text text-anchor="start" x="284" y="-204.5" font-family="Helvetica,sans-Serif" font-size="10.00">+tmp_hdfs_file_name</text>
<text text-anchor="middle" x="332" y="-193.5" font-family="Helvetica,sans-Serif" font-size="10.00">_prefix</text>
<text text-anchor="middle" x="332" y="-182.5" font-family="Helvetica,sans-Serif" font-size="10.00">+tmp_hdfs_dir_name</text>
<text text-anchor="middle" x="332" y="-171.5" font-family="Helvetica,sans-Serif" font-size="10.00">+current_file_name</text>
</g>
<!-- Node5&#45;&gt;Node6 -->
<g id="edge16" class="edge"><title>Node5&#45;&gt;Node6</title>
<path fill="none" stroke="#404040" d="M291.231,-411.307C292.92,-385.989 299.318,-349.076 321,-326 338.323,-307.563 353.799,-321.803 375,-308 376.537,-306.999 378.065,-305.967 379.583,-304.905"/>
<polygon fill="none" stroke="#404040" points="379.848,-304.706 382.247,-297.905 389.447,-297.504 387.048,-304.305 379.848,-304.706"/>
<text text-anchor="middle" x="344" y="-351.5" font-family="Helvetica,sans-Serif" font-size="10.00"> &#45;location_</text>
</g>
<!-- Node6&#45;&gt;Node1 -->
<g id="edge5" class="edge"><title>Node6&#45;&gt;Node1</title>
<path fill="none" stroke="#404040" d="M389.306,-119.631C384.551,-114.934 379.762,-110.358 375,-106 359.414,-91.7353 341.302,-77.3817 324.808,-65.0498"/>
<polygon fill="none" stroke="#404040" points="324.439,-64.7777 317.236,-64.433 314.784,-57.6516 321.987,-57.9963 324.439,-64.7777"/>
<text text-anchor="middle" x="398" y="-79.5" font-family="Helvetica,sans-Serif" font-size="10.00"> +partition_descriptor</text>
</g>
<!-- Node7 -->
<g id="node7" class="node"><title>Node7</title>
<polygon fill="white" stroke="#bfbfbf" points="359.5,-411.5 359.5,-468.5 394.5,-468.5 394.5,-411.5 359.5,-411.5"/>
<text text-anchor="middle" x="377" y="-456.5" font-family="Helvetica,sans-Serif" font-size="10.00">char</text>
<polyline fill="none" stroke="#bfbfbf" points="359.5,-449.5 394.5,-449.5 "/>
<text text-anchor="middle" x="377" y="-437.5" font-family="Helvetica,sans-Serif" font-size="10.00"> </text>
<polyline fill="none" stroke="#bfbfbf" points="359.5,-430.5 394.5,-430.5 "/>
<text text-anchor="middle" x="377" y="-418.5" font-family="Helvetica,sans-Serif" font-size="10.00"> </text>
</g>
<!-- Node7&#45;&gt;Node6 -->
<g id="edge6" class="edge"><title>Node7&#45;&gt;Node6</title>
<path fill="none" stroke="#404040" d="M372.542,-411.268C369.879,-387.891 368.608,-353.889 378,-326 379.721,-320.889 381.756,-315.819 384.042,-310.818"/>
<polygon fill="none" stroke="#404040" points="384.082,-310.737 383.17,-303.584 389.422,-299.991 390.334,-307.144 384.082,-310.737"/>
<text text-anchor="middle" x="414.5" y="-373.5" font-family="Helvetica,sans-Serif" font-size="10.00"> &#45;line_delim_</text>
<text text-anchor="start" x="378" y="-362.5" font-family="Helvetica,sans-Serif" font-size="10.00">&#45;collection_delim</text>
<text text-anchor="middle" x="414.5" y="-351.5" font-family="Helvetica,sans-Serif" font-size="10.00">_</text>
<text text-anchor="middle" x="414.5" y="-340.5" font-family="Helvetica,sans-Serif" font-size="10.00">&#45;escape_char_</text>
<text text-anchor="middle" x="414.5" y="-329.5" font-family="Helvetica,sans-Serif" font-size="10.00">&#45;field_delim_</text>
</g>
<!-- Node8 -->
<g id="node8" class="node"><title>Node8</title>
<g id="a_node8"><a xlink:href="classimpala_1_1ObjectPool.html" target="_top" xlink:title="{impala::ObjectPool\n||+ ObjectPool()\l+ ~ObjectPool()\l+ Add()\l}">
<polygon fill="white" stroke="black" points="477.5,-400.5 477.5,-479.5 576.5,-479.5 576.5,-400.5 477.5,-400.5"/>
<text text-anchor="middle" x="527" y="-467.5" font-family="Helvetica,sans-Serif" font-size="10.00">impala::ObjectPool</text>
<polyline fill="none" stroke="black" points="477.5,-460.5 576.5,-460.5 "/>
<text text-anchor="middle" x="527" y="-448.5" font-family="Helvetica,sans-Serif" font-size="10.00"> </text>
<polyline fill="none" stroke="black" points="477.5,-441.5 576.5,-441.5 "/>
<text text-anchor="start" x="485.5" y="-429.5" font-family="Helvetica,sans-Serif" font-size="10.00">+ ObjectPool()</text>
<text text-anchor="start" x="485.5" y="-418.5" font-family="Helvetica,sans-Serif" font-size="10.00">+ ~ObjectPool()</text>
<text text-anchor="start" x="485.5" y="-407.5" font-family="Helvetica,sans-Serif" font-size="10.00">+ Add()</text>
</a>
</g>
</g>
<!-- Node8&#45;&gt;Node6 -->
<g id="edge8" class="edge"><title>Node8&#45;&gt;Node6</title>
<path fill="none" stroke="#404040" d="M516.79,-400.336C510.832,-377.772 502.982,-348.048 495.241,-318.734"/>
<polygon fill="none" stroke="#404040" points="495.233,-318.702 489.834,-313.922 492.169,-307.1 497.569,-311.88 495.233,-318.702"/>
<text text-anchor="middle" x="541.5" y="-351.5" font-family="Helvetica,sans-Serif" font-size="10.00"> &#45;object_pool_</text>
</g>
<!-- Node9 -->
<g id="node9" class="node"><title>Node9</title>
<g id="a_node9"><a xlink:href="classimpala_1_1SpinLock.html" target="_top" xlink:title="Lightweight spinlock. ">
<polygon fill="white" stroke="black" points="614.5,-551 614.5,-663 713.5,-663 713.5,-551 614.5,-551"/>
<text text-anchor="middle" x="664" y="-651" font-family="Helvetica,sans-Serif" font-size="10.00">impala::SpinLock</text>
<polyline fill="none" stroke="black" points="614.5,-644 713.5,-644 "/>
<text text-anchor="middle" x="664" y="-632" font-family="Helvetica,sans-Serif" font-size="10.00"> </text>
<polyline fill="none" stroke="black" points="614.5,-625 713.5,-625 "/>
<text text-anchor="start" x="622.5" y="-613" font-family="Helvetica,sans-Serif" font-size="10.00">+ SpinLock()</text>
<text text-anchor="start" x="622.5" y="-602" font-family="Helvetica,sans-Serif" font-size="10.00">+ lock()</text>
<text text-anchor="start" x="622.5" y="-591" font-family="Helvetica,sans-Serif" font-size="10.00">+ unlock()</text>
<text text-anchor="start" x="622.5" y="-580" font-family="Helvetica,sans-Serif" font-size="10.00">+ try_lock()</text>
<text text-anchor="start" x="622.5" y="-569" font-family="Helvetica,sans-Serif" font-size="10.00">+ DCheckLocked()</text>
<text text-anchor="start" x="622.5" y="-558" font-family="Helvetica,sans-Serif" font-size="10.00">&#45; SlowAcquire()</text>
</a>
</g>
</g>
<!-- Node9&#45;&gt;Node8 -->
<g id="edge9" class="edge"><title>Node9&#45;&gt;Node8</title>
<path fill="none" stroke="#404040" d="M618,-550.598C601.442,-530.656 582.91,-508.337 566.913,-489.071"/>
<polygon fill="none" stroke="#404040" points="566.71,-488.826 559.799,-486.765 559.044,-479.593 565.954,-481.654 566.71,-488.826"/>
<text text-anchor="middle" x="615" y="-512.5" font-family="Helvetica,sans-Serif" font-size="10.00"> &#45;lock_</text>
</g>
<!-- Node10 -->
<g id="node10" class="node"><title>Node10</title>
<polygon fill="white" stroke="#bfbfbf" points="456.5,-712.5 456.5,-769.5 485.5,-769.5 485.5,-712.5 456.5,-712.5"/>
<text text-anchor="middle" x="471" y="-757.5" font-family="Helvetica,sans-Serif" font-size="10.00">int</text>
<polyline fill="none" stroke="#bfbfbf" points="456.5,-750.5 485.5,-750.5 "/>
<text text-anchor="middle" x="471" y="-738.5" font-family="Helvetica,sans-Serif" font-size="10.00"> </text>
<polyline fill="none" stroke="#bfbfbf" points="456.5,-731.5 485.5,-731.5 "/>
<text text-anchor="middle" x="471" y="-719.5" font-family="Helvetica,sans-Serif" font-size="10.00"> </text>
</g>
<!-- Node10&#45;&gt;Node6 -->
<g id="edge14" class="edge"><title>Node10&#45;&gt;Node6</title>
<path fill="none" stroke="#404040" d="M460.93,-712.26C456.293,-698.039 451.315,-680.32 449,-664 439.93,-600.051 449.311,-432.566 457.319,-319.383"/>
<polygon fill="none" stroke="#404040" points="457.331,-319.205 453.769,-312.935 458.187,-307.235 461.749,-313.505 457.331,-319.205"/>
<text text-anchor="middle" x="477" y="-512.5" font-family="Helvetica,sans-Serif" font-size="10.00"> &#45;block_size_</text>
</g>
<!-- Node10&#45;&gt;Node9 -->
<g id="edge10" class="edge"><title>Node10&#45;&gt;Node9</title>
<path fill="none" stroke="#404040" d="M485.889,-731.824C514.434,-716.114 575.993,-682.063 604.288,-663.649"/>
<polygon fill="none" stroke="#404040" points="604.311,-663.633 606.975,-656.932 614.185,-656.814 611.522,-663.515 604.311,-663.633"/>
<text text-anchor="middle" x="626.5" y="-685.5" font-family="Helvetica,sans-Serif" font-size="10.00"> &#45;NUM_SPIN_CYCLES</text>
</g>
<!-- Node11 -->
<g id="node11" class="node"><title>Node11</title>
<g id="a_node11"><a xlink:href="classbool.html" target="_top" xlink:title="{bool\n||}">
<polygon fill="white" stroke="black" points="690.5,-712.5 690.5,-769.5 725.5,-769.5 725.5,-712.5 690.5,-712.5"/>
<text text-anchor="middle" x="708" y="-757.5" font-family="Helvetica,sans-Serif" font-size="10.00">bool</text>
<polyline fill="none" stroke="black" points="690.5,-750.5 725.5,-750.5 "/>
<text text-anchor="middle" x="708" y="-738.5" font-family="Helvetica,sans-Serif" font-size="10.00"> </text>
<polyline fill="none" stroke="black" points="690.5,-731.5 725.5,-731.5 "/>
<text text-anchor="middle" x="708" y="-719.5" font-family="Helvetica,sans-Serif" font-size="10.00"> </text>
</a>
</g>
</g>
<!-- Node11&#45;&gt;Node6 -->
<g id="edge15" class="edge"><title>Node11&#45;&gt;Node6</title>
<path fill="none" stroke="#404040" d="M722.165,-712.383C724.583,-706.463 726.723,-700.139 728,-694 735.656,-657.191 798.059,-786.2 722,-550 685.576,-436.884 658.058,-411.956 576,-326 568.392,-318.031 563.356,-317.243 552.257,-308.421"/>
<polygon fill="none" stroke="#404040" points="552.038,-308.23 544.885,-307.314 542.98,-300.359 550.133,-301.275 552.038,-308.23"/>
<text text-anchor="middle" x="754" y="-523.5" font-family="Helvetica,sans-Serif" font-size="10.00"> &#45;exprs_closed_</text>
<text text-anchor="middle" x="754" y="-512.5" font-family="Helvetica,sans-Serif" font-size="10.00">&#45;exprs_prepared_</text>
<text text-anchor="middle" x="754" y="-501.5" font-family="Helvetica,sans-Serif" font-size="10.00">&#45;exprs_opened_</text>
</g>
<!-- Node11&#45;&gt;Node9 -->
<g id="edge11" class="edge"><title>Node11&#45;&gt;Node9</title>
<path fill="none" stroke="#404040" d="M695.107,-712.027C692.597,-706.132 690.098,-699.909 688,-694 685.828,-687.883 683.725,-681.466 681.726,-675.011"/>
<polygon fill="none" stroke="#404040" points="681.693,-674.902 676.139,-670.303 678.247,-663.407 683.802,-668.006 681.693,-674.902"/>
<text text-anchor="middle" x="708" y="-685.5" font-family="Helvetica,sans-Serif" font-size="10.00"> &#45;locked_</text>
</g>
<!-- Node12 -->
<g id="node12" class="node"><title>Node12</title>
<polygon fill="white" stroke="#bfbfbf" points="458,-578.5 458,-635.5 596,-635.5 596,-578.5 458,-578.5"/>
<text text-anchor="middle" x="527" y="-623.5" font-family="Helvetica,sans-Serif" font-size="10.00">vector&lt; GenericElement * &gt;</text>
<polyline fill="none" stroke="#bfbfbf" points="458,-616.5 596,-616.5 "/>
<text text-anchor="middle" x="527" y="-604.5" font-family="Helvetica,sans-Serif" font-size="10.00"> </text>
<polyline fill="none" stroke="#bfbfbf" points="458,-597.5 596,-597.5 "/>
<text text-anchor="middle" x="527" y="-585.5" font-family="Helvetica,sans-Serif" font-size="10.00"> </text>
</g>
<!-- Node12&#45;&gt;Node8 -->
<g id="edge12" class="edge"><title>Node12&#45;&gt;Node8</title>
<path fill="none" stroke="#404040" d="M527,-578.383C527,-554.808 527,-520.29 527,-491.753"/>
<polygon fill="none" stroke="#404040" points="527,-491.531 523,-485.531 527,-479.531 531,-485.531 527,-491.531"/>
<text text-anchor="middle" x="548.5" y="-512.5" font-family="Helvetica,sans-Serif" font-size="10.00"> &#45;objects_</text>
</g>
<!-- Node13 -->
<g id="node13" class="node"><title>Node13</title>
<polygon fill="white" stroke="#bfbfbf" points="770.5,-411.5 770.5,-468.5 805.5,-468.5 805.5,-411.5 770.5,-411.5"/>
<text text-anchor="middle" x="788" y="-456.5" font-family="Helvetica,sans-Serif" font-size="10.00">type</text>
<polyline fill="none" stroke="#bfbfbf" points="770.5,-449.5 805.5,-449.5 "/>
<text text-anchor="middle" x="788" y="-437.5" font-family="Helvetica,sans-Serif" font-size="10.00"> </text>
<polyline fill="none" stroke="#bfbfbf" points="770.5,-430.5 805.5,-430.5 "/>
<text text-anchor="middle" x="788" y="-418.5" font-family="Helvetica,sans-Serif" font-size="10.00"> </text>
</g>
<!-- Node13&#45;&gt;Node6 -->
<g id="edge13" class="edge"><title>Node13&#45;&gt;Node6</title>
<path fill="none" stroke="#404040" d="M788.434,-411.028C787.193,-384.767 780.821,-346.536 756,-326 723.243,-298.898 609.323,-324.776 554.124,-307.831"/>
<polygon fill="none" stroke="#404040" points="553.796,-307.699 546.736,-309.164 542.668,-303.21 549.728,-301.745 553.796,-307.699"/>
<text text-anchor="middle" x="814" y="-351.5" font-family="Helvetica,sans-Serif" font-size="10.00"> &#45;file_format_</text>
</g>
<!-- Node14 -->
<g id="node14" class="node"><title>Node14</title>
<polygon fill="white" stroke="#bfbfbf" points="823,-411.5 823,-468.5 981,-468.5 981,-411.5 823,-411.5"/>
<text text-anchor="middle" x="902" y="-456.5" font-family="Helvetica,sans-Serif" font-size="10.00">vector&lt; impala::ExprContext * &gt;</text>
<polyline fill="none" stroke="#bfbfbf" points="823,-449.5 981,-449.5 "/>
<text text-anchor="middle" x="902" y="-437.5" font-family="Helvetica,sans-Serif" font-size="10.00"> </text>
<polyline fill="none" stroke="#bfbfbf" points="823,-430.5 981,-430.5 "/>
<text text-anchor="middle" x="902" y="-418.5" font-family="Helvetica,sans-Serif" font-size="10.00"> </text>
</g>
<!-- Node14&#45;&gt;Node6 -->
<g id="edge17" class="edge"><title>Node14&#45;&gt;Node6</title>
<path fill="none" stroke="#404040" d="M896.841,-411.431C890.251,-384.692 876.022,-345.401 847,-326 794.997,-291.235 628.129,-332.798 553.731,-307.9"/>
<polygon fill="none" stroke="#404040" points="553.708,-307.891 546.635,-309.299 542.616,-303.312 549.688,-301.904 553.708,-307.891"/>
<text text-anchor="start" x="886" y="-357" font-family="Helvetica,sans-Serif" font-size="10.00"> &#45;partition_key_value</text>
<text text-anchor="middle" x="931.5" y="-346" font-family="Helvetica,sans-Serif" font-size="10.00">_ctxs_</text>
</g>
<!-- Node15 -->
<g id="node15" class="node"><title>Node15</title>
<polygon fill="white" stroke="#bfbfbf" points="560.5,-178.5 560.5,-235.5 611.5,-235.5 611.5,-178.5 560.5,-178.5"/>
<text text-anchor="middle" x="586" y="-223.5" font-family="Helvetica,sans-Serif" font-size="10.00">hdfsFile</text>
<polyline fill="none" stroke="#bfbfbf" points="560.5,-216.5 611.5,-216.5 "/>
<text text-anchor="middle" x="586" y="-204.5" font-family="Helvetica,sans-Serif" font-size="10.00"> </text>
<polyline fill="none" stroke="#bfbfbf" points="560.5,-197.5 611.5,-197.5 "/>
<text text-anchor="middle" x="586" y="-185.5" font-family="Helvetica,sans-Serif" font-size="10.00"> </text>
</g>
<!-- Node15&#45;&gt;Node1 -->
<g id="edge18" class="edge"><title>Node15&#45;&gt;Node1</title>
<path fill="none" stroke="#404040" d="M583.191,-178.077C579.482,-155.639 570.889,-124.857 551,-106 495.463,-53.3448 406.879,-36.5368 345.098,-31.5027"/>
<polygon fill="none" stroke="#404040" points="345.086,-31.5019 338.816,-35.0636 333.117,-30.6457 339.387,-27.084 345.086,-31.5019"/>
<text text-anchor="middle" x="562" y="-79.5" font-family="Helvetica,sans-Serif" font-size="10.00"> +tmp_hdfs_file</text>
</g>
<!-- Node16 -->
<g id="node16" class="node"><title>Node16</title>
<polygon fill="white" stroke="#bfbfbf" points="629.5,-173 629.5,-241 732.5,-241 732.5,-173 629.5,-173"/>
<text text-anchor="start" x="637.5" y="-229" font-family="Helvetica,sans-Serif" font-size="10.00">scoped_ptr&lt; impala</text>
<text text-anchor="middle" x="681" y="-218" font-family="Helvetica,sans-Serif" font-size="10.00">::HdfsTableWriter &gt;</text>
<polyline fill="none" stroke="#bfbfbf" points="629.5,-211 732.5,-211 "/>
<text text-anchor="middle" x="681" y="-199" font-family="Helvetica,sans-Serif" font-size="10.00"> </text>
<polyline fill="none" stroke="#bfbfbf" points="629.5,-192 732.5,-192 "/>
<text text-anchor="middle" x="681" y="-180" font-family="Helvetica,sans-Serif" font-size="10.00"> </text>
</g>
<!-- Node16&#45;&gt;Node1 -->
<g id="edge19" class="edge"><title>Node16&#45;&gt;Node1</title>
<path fill="none" stroke="#404040" d="M669.996,-172.98C657.937,-142.373 635.447,-98.3076 600,-76 558.785,-50.0625 427.744,-38.2548 345.187,-33.271"/>
<polygon fill="none" stroke="#404040" points="345.104,-33.2663 338.882,-36.9117 333.124,-32.5704 339.346,-28.9251 345.104,-33.2663"/>
<text text-anchor="middle" x="631" y="-79.5" font-family="Helvetica,sans-Serif" font-size="10.00"> +writer</text>
</g>
</g>
</svg>
