<?xml version="1.0" encoding="UTF-8" standalone="no"?>
<!DOCTYPE svg PUBLIC "-//W3C//DTD SVG 1.1//EN"
 "http://www.w3.org/Graphics/SVG/1.1/DTD/svg11.dtd">
<!-- Generated by graphviz version 2.36.0 (20140111.2315)
 -->
<!-- Title: impala::OldHashTable::Bucket Pages: 1 -->
<svg width="196pt" height="302pt"
 viewBox="0.00 0.00 196.00 302.00" xmlns="http://www.w3.org/2000/svg" xmlns:xlink="http://www.w3.org/1999/xlink">
<g id="graph0" class="graph" transform="scale(1 1) rotate(0) translate(4 298)">
<title>impala::OldHashTable::Bucket</title>
<polygon fill="white" stroke="none" points="-4,4 -4,-298 192,-298 192,4 -4,4"/>
<!-- Node1 -->
<g id="node1" class="node"><title>Node1</title>
<polygon fill="#bfbfbf" stroke="black" points="29.5,-1 29.5,-69 142.5,-69 142.5,-1 29.5,-1"/>
<text text-anchor="start" x="37.5" y="-57" font-family="Helvetica,sans-Serif" font-size="10.00">impala::OldHashTable</text>
<text text-anchor="middle" x="86" y="-46" font-family="Helvetica,sans-Serif" font-size="10.00">::Bucket</text>
<polyline fill="none" stroke="black" points="29.5,-39 142.5,-39 "/>
<text text-anchor="middle" x="86" y="-27" font-family="Helvetica,sans-Serif" font-size="10.00"> </text>
<polyline fill="none" stroke="black" points="29.5,-20 142.5,-20 "/>
<text text-anchor="start" x="37.5" y="-8" font-family="Helvetica,sans-Serif" font-size="10.00">+ Bucket()</text>
</g>
<!-- Node2 -->
<g id="node2" class="node"><title>Node2</title>
<g id="a_node2"><a xlink:href="structimpala_1_1OldHashTable_1_1Node.html" target="_top" xlink:title="{impala::OldHashTable\l::Node\n||}">
<polygon fill="white" stroke="black" points="29.5,-119 29.5,-187 142.5,-187 142.5,-119 29.5,-119"/>
<text text-anchor="start" x="37.5" y="-175" font-family="Helvetica,sans-Serif" font-size="10.00">impala::OldHashTable</text>
<text text-anchor="middle" x="86" y="-164" font-family="Helvetica,sans-Serif" font-size="10.00">::Node</text>
<polyline fill="none" stroke="black" points="29.5,-157 142.5,-157 "/>
<text text-anchor="middle" x="86" y="-145" font-family="Helvetica,sans-Serif" font-size="10.00"> </text>
<polyline fill="none" stroke="black" points="29.5,-138 142.5,-138 "/>
<text text-anchor="middle" x="86" y="-126" font-family="Helvetica,sans-Serif" font-size="10.00"> </text>
</a>
</g>
</g>
<!-- Node2&#45;&gt;Node1 -->
<g id="edge1" class="edge"><title>Node2&#45;&gt;Node1</title>
<path fill="none" stroke="#404040" d="M86,-118.759C86,-107.11 86,-93.8205 86,-81.3509"/>
<polygon fill="none" stroke="#404040" points="86.0001,-81.2458 82,-75.2458 86,-69.2458 90,-75.2458 86.0001,-81.2458"/>
<text text-anchor="middle" x="101.5" y="-91.5" font-family="Helvetica,sans-Serif" font-size="10.00"> +node</text>
</g>
<!-- Node2&#45;&gt;Node2 -->
<g id="edge2" class="edge"><title>Node2&#45;&gt;Node2</title>
<path fill="none" stroke="#404040" d="M142.777,-163.237C152.917,-161.907 160,-158.494 160,-153 160,-150.081 158.001,-147.75 154.607,-146.006"/>
<polygon fill="none" stroke="#404040" points="154.35,-145.936 147.506,-148.207 142.777,-142.763 149.621,-140.492 154.35,-145.936"/>
<text text-anchor="middle" x="174" y="-150.5" font-family="Helvetica,sans-Serif" font-size="10.00"> +next</text>
</g>
<!-- Node3 -->
<g id="node3" class="node"><title>Node3</title>
<polygon fill="white" stroke="#bfbfbf" points="-0.5,-236.5 -0.5,-293.5 50.5,-293.5 50.5,-236.5 -0.5,-236.5"/>
<text text-anchor="middle" x="25" y="-281.5" font-family="Helvetica,sans-Serif" font-size="10.00">uint32_t</text>
<polyline fill="none" stroke="#bfbfbf" points="-0.5,-274.5 50.5,-274.5 "/>
<text text-anchor="middle" x="25" y="-262.5" font-family="Helvetica,sans-Serif" font-size="10.00"> </text>
<polyline fill="none" stroke="#bfbfbf" points="-0.5,-255.5 50.5,-255.5 "/>
<text text-anchor="middle" x="25" y="-243.5" font-family="Helvetica,sans-Serif" font-size="10.00"> </text>
</g>
<!-- Node3&#45;&gt;Node2 -->
<g id="edge3" class="edge"><title>Node3&#45;&gt;Node2</title>
<path fill="none" stroke="#404040" d="M36.2294,-236.383C40.5035,-226.608 45.6427,-215.647 51,-206 52.58,-203.155 54.2685,-200.265 56.0186,-197.379"/>
<polygon fill="none" stroke="#404040" points="56.1399,-197.187 55.9576,-189.978 62.5418,-187.037 62.7241,-194.246 56.1399,-197.187"/>
<text text-anchor="middle" x="66.5" y="-209.5" font-family="Helvetica,sans-Serif" font-size="10.00"> +hash</text>
</g>
<!-- Node4 -->
<g id="node4" class="node"><title>Node4</title>
<g id="a_node4"><a xlink:href="classbool.html" target="_top" xlink:title="{bool\n||}">
<polygon fill="white" stroke="black" points="68.5,-236.5 68.5,-293.5 103.5,-293.5 103.5,-236.5 68.5,-236.5"/>
<text text-anchor="middle" x="86" y="-281.5" font-family="Helvetica,sans-Serif" font-size="10.00">bool</text>
<polyline fill="none" stroke="black" points="68.5,-274.5 103.5,-274.5 "/>
<text text-anchor="middle" x="86" y="-262.5" font-family="Helvetica,sans-Serif" font-size="10.00"> </text>
<polyline fill="none" stroke="black" points="68.5,-255.5 103.5,-255.5 "/>
<text text-anchor="middle" x="86" y="-243.5" font-family="Helvetica,sans-Serif" font-size="10.00"> </text>
</a>
</g>
</g>
<!-- Node4&#45;&gt;Node2 -->
<g id="edge4" class="edge"><title>Node4&#45;&gt;Node2</title>
<path fill="none" stroke="#404040" d="M86,-236.242C86,-225.073 86,-211.897 86,-199.404"/>
<polygon fill="none" stroke="#404040" points="86.0001,-199.237 82,-193.237 86,-187.237 90,-193.237 86.0001,-199.237"/>
<text text-anchor="middle" x="109.5" y="-209.5" font-family="Helvetica,sans-Serif" font-size="10.00"> +matched</text>
</g>
<!-- Node5 -->
<g id="node5" class="node"><title>Node5</title>
<polygon fill="white" stroke="#bfbfbf" points="135.5,-236.5 135.5,-293.5 176.5,-293.5 176.5,-236.5 135.5,-236.5"/>
<text text-anchor="middle" x="156" y="-281.5" font-family="Helvetica,sans-Serif" font-size="10.00">void *</text>
<polyline fill="none" stroke="#bfbfbf" points="135.5,-274.5 176.5,-274.5 "/>
<text text-anchor="middle" x="156" y="-262.5" font-family="Helvetica,sans-Serif" font-size="10.00"> </text>
<polyline fill="none" stroke="#bfbfbf" points="135.5,-255.5 176.5,-255.5 "/>
<text text-anchor="middle" x="156" y="-243.5" font-family="Helvetica,sans-Serif" font-size="10.00"> </text>
</g>
<!-- Node5&#45;&gt;Node2 -->
<g id="edge5" class="edge"><title>Node5&#45;&gt;Node2</title>
<path fill="none" stroke="#404040" d="M147.968,-236.427C144.445,-226.447 139.779,-215.342 134,-206 132.059,-202.862 129.913,-199.745 127.636,-196.687"/>
<polygon fill="none" stroke="#404040" points="127.514,-196.534 120.641,-194.35 120.014,-187.167 126.886,-189.35 127.514,-196.534"/>
<text text-anchor="middle" x="154" y="-209.5" font-family="Helvetica,sans-Serif" font-size="10.00"> +data</text>
</g>
</g>
</svg>
