<?xml version="1.0" encoding="UTF-8" standalone="no"?>
<!DOCTYPE svg PUBLIC "-//W3C//DTD SVG 1.1//EN"
 "http://www.w3.org/Graphics/SVG/1.1/DTD/svg11.dtd">
<!-- Generated by graphviz version 2.36.0 (20140111.2315)
 -->
<!-- Title: impala::StatestoreSubscriber::Callbacks Pages: 1 -->
<!--zoomable 550 -->
<svg id="main" version="1.1" xmlns="http://www.w3.org/2000/svg" xmlns:xlink="http://www.w3.org/1999/xlink" xml:space="preserve" onload="init(evt)">
<style type="text/css"><![CDATA[
.edge:hover path { stroke: red; }
.edge:hover polygon { stroke: red; fill: red; }
]]></style>
<script type="text/javascript"><![CDATA[
var edges = document.getElementsByTagName('g');
if (edges && edges.length) {
  for (var i=0;i<edges.length;i++) {
    if (edges[i].id.substr(0,4)=='edge') {
      edges[i].setAttribute('class','edge');
    }
  }
}
]]></script>
        <defs>
                <circle id="rim" cx="0" cy="0" r="7"/>
                <circle id="rim2" cx="0" cy="0" r="3.5"/>
                <g id="zoomPlus">
                        <use xlink:href="#rim" fill="#404040">
                                <set attributeName="fill" to="#808080" begin="zoomplus.mouseover" end="zoomplus.mouseout"/>
                        </use>
                        <path d="M-4,0h8M0,-4v8" fill="none" stroke="white" stroke-width="1.5" pointer-events="none"/>
                </g>
                <g id="zoomMin">
                        <use xlink:href="#rim" fill="#404040">
                                <set attributeName="fill" to="#808080" begin="zoomminus.mouseover" end="zoomminus.mouseout"/>
                        </use>
                        <path d="M-4,0h8" fill="none" stroke="white" stroke-width="1.5" pointer-events="none"/>
                </g>
                <g id="dirArrow">
                        <path fill="none" stroke="white" stroke-width="1.5" d="M0,-3.0v7 M-2.5,-0.5L0,-3.0L2.5,-0.5"/>
                </g>
               <g id="resetDef">
                       <use xlink:href="#rim2" fill="#404040">
                               <set attributeName="fill" to="#808080" begin="reset.mouseover" end="reset.mouseout"/>
                       </use>
               </g>
        </defs>

<script type="text/javascript">
var viewWidth = 489;
var viewHeight = 550;
var sectionId = 'dynsection-0';
</script>
<script xlink:href="svgpan.js"/>
<svg id="graph" class="graph">
<g id="viewport">
<title>impala::StatestoreSubscriber::Callbacks</title>
<polygon fill="white" stroke="none" points="-4,4 -4,-546 485,-546 485,4 -4,4"/>
<!-- Node1 -->
<g id="node1" class="node"><title>Node1</title>
<polygon fill="#bfbfbf" stroke="black" points="55.5,-1 55.5,-69 198.5,-69 198.5,-1 55.5,-1"/>
<text text-anchor="start" x="63.5" y="-57" font-family="Helvetica,sans-Serif" font-size="10.00">impala::StatestoreSubscriber</text>
<text text-anchor="middle" x="127" y="-46" font-family="Helvetica,sans-Serif" font-size="10.00">::Callbacks</text>
<polyline fill="none" stroke="black" points="55.5,-39 198.5,-39 "/>
<text text-anchor="middle" x="127" y="-27" font-family="Helvetica,sans-Serif" font-size="10.00"> </text>
<polyline fill="none" stroke="black" points="55.5,-20 198.5,-20 "/>
<text text-anchor="middle" x="127" y="-8" font-family="Helvetica,sans-Serif" font-size="10.00"> </text>
</g>
<!-- Node2 -->
<g id="node2" class="node"><title>Node2</title>
<polygon fill="white" stroke="#bfbfbf" points="7.5,-151.5 7.5,-208.5 138.5,-208.5 138.5,-151.5 7.5,-151.5"/>
<text text-anchor="middle" x="73" y="-196.5" font-family="Helvetica,sans-Serif" font-size="10.00">vector&lt; UpdateCallback &gt;</text>
<polyline fill="none" stroke="#bfbfbf" points="7.5,-189.5 138.5,-189.5 "/>
<text text-anchor="middle" x="73" y="-177.5" font-family="Helvetica,sans-Serif" font-size="10.00"> </text>
<polyline fill="none" stroke="#bfbfbf" points="7.5,-170.5 138.5,-170.5 "/>
<text text-anchor="middle" x="73" y="-158.5" font-family="Helvetica,sans-Serif" font-size="10.00"> </text>
</g>
<!-- Node2&#45;&gt;Node1 -->
<g id="edge1" class="edge"><title>Node2&#45;&gt;Node1</title>
<path fill="none" stroke="#404040" d="M83.4117,-151.428C91.0151,-131.293 101.484,-103.571 110.256,-80.3403"/>
<polygon fill="none" stroke="#404040" points="110.296,-80.2354 108.673,-73.2091 114.535,-69.0091 116.157,-76.0353 110.296,-80.2354"/>
<text text-anchor="middle" x="132.5" y="-91.5" font-family="Helvetica,sans-Serif" font-size="10.00"> +callbacks</text>
</g>
<!-- Node3 -->
<g id="node3" class="node"><title>Node3</title>
<g id="a_node3"><a xlink:href="classimpala_1_1StatsMetric.html" target="_top" xlink:title="{impala::StatsMetric\l\&lt; double \&gt;\n||+ StatsMetric()\l+ Update()\l+ Reset()\l+ ToJson()\l+ ToLegacyJson()\l+ ToHumanReadable()\l}">
<polygon fill="white" stroke="black" points="157,-118.5 157,-241.5 273,-241.5 273,-118.5 157,-118.5"/>
<text text-anchor="start" x="165" y="-229.5" font-family="Helvetica,sans-Serif" font-size="10.00">impala::StatsMetric</text>
<text text-anchor="middle" x="215" y="-218.5" font-family="Helvetica,sans-Serif" font-size="10.00">&lt; double &gt;</text>
<polyline fill="none" stroke="black" points="157,-211.5 273,-211.5 "/>
<text text-anchor="middle" x="215" y="-199.5" font-family="Helvetica,sans-Serif" font-size="10.00"> </text>
<polyline fill="none" stroke="black" points="157,-192.5 273,-192.5 "/>
<text text-anchor="start" x="165" y="-180.5" font-family="Helvetica,sans-Serif" font-size="10.00">+ StatsMetric()</text>
<text text-anchor="start" x="165" y="-169.5" font-family="Helvetica,sans-Serif" font-size="10.00">+ Update()</text>
<text text-anchor="start" x="165" y="-158.5" font-family="Helvetica,sans-Serif" font-size="10.00">+ Reset()</text>
<text text-anchor="start" x="165" y="-147.5" font-family="Helvetica,sans-Serif" font-size="10.00">+ ToJson()</text>
<text text-anchor="start" x="165" y="-136.5" font-family="Helvetica,sans-Serif" font-size="10.00">+ ToLegacyJson()</text>
<text text-anchor="start" x="165" y="-125.5" font-family="Helvetica,sans-Serif" font-size="10.00">+ ToHumanReadable()</text>
</a>
</g>
</g>
<!-- Node3&#45;&gt;Node1 -->
<g id="edge2" class="edge"><title>Node3&#45;&gt;Node1</title>
<path fill="none" stroke="#404040" d="M177.68,-118.355C169.637,-105.285 161.288,-91.7187 153.744,-79.4596"/>
<polygon fill="none" stroke="#404040" points="153.639,-79.288 147.088,-76.2745 147.35,-69.0681 153.901,-72.0817 153.639,-79.288"/>
<text text-anchor="middle" x="222.5" y="-91.5" font-family="Helvetica,sans-Serif" font-size="10.00"> +processing_time_metric</text>
</g>
<!-- Node4 -->
<g id="node4" class="node"><title>Node4</title>
<g id="a_node4"><a xlink:href="classimpala_1_1Metric.html" target="_top" xlink:title="TODO: Add ToThrift() for conversion to an RPC&#45;friendly format. ">
<polygon fill="white" stroke="black" points="0,-291 0,-425 116,-425 116,-291 0,-291"/>
<text text-anchor="middle" x="58" y="-413" font-family="Helvetica,sans-Serif" font-size="10.00">impala::Metric</text>
<polyline fill="none" stroke="black" points="0,-406 116,-406 "/>
<text text-anchor="middle" x="58" y="-394" font-family="Helvetica,sans-Serif" font-size="10.00"> </text>
<polyline fill="none" stroke="black" points="0,-387 116,-387 "/>
<text text-anchor="start" x="8" y="-375" font-family="Helvetica,sans-Serif" font-size="10.00">+ ~Metric()</text>
<text text-anchor="start" x="8" y="-364" font-family="Helvetica,sans-Serif" font-size="10.00">+ ToJson()</text>
<text text-anchor="start" x="8" y="-353" font-family="Helvetica,sans-Serif" font-size="10.00">+ ToLegacyJson()</text>
<text text-anchor="start" x="8" y="-342" font-family="Helvetica,sans-Serif" font-size="10.00">+ ToHumanReadable()</text>
<text text-anchor="start" x="8" y="-331" font-family="Helvetica,sans-Serif" font-size="10.00">+ key()</text>
<text text-anchor="start" x="8" y="-320" font-family="Helvetica,sans-Serif" font-size="10.00">+ description()</text>
<text text-anchor="start" x="8" y="-309" font-family="Helvetica,sans-Serif" font-size="10.00"># Metric()</text>
<text text-anchor="start" x="8" y="-298" font-family="Helvetica,sans-Serif" font-size="10.00"># AddStandardFields()</text>
</a>
</g>
</g>
<!-- Node4&#45;&gt;Node3 -->
<g id="edge3" class="edge"><title>Node4&#45;&gt;Node3</title>
<path fill="none" stroke="midnightblue" d="M122.96,-284.178C135.567,-270.046 148.653,-255.376 160.866,-241.685"/>
<polygon fill="none" stroke="midnightblue" points="120.06,-282.172 116.015,-291.964 125.284,-286.832 120.06,-282.172"/>
</g>
<!-- Node5 -->
<g id="node5" class="node"><title>Node5</title>
<polygon fill="white" stroke="#bfbfbf" points="37.5,-484.5 37.5,-541.5 78.5,-541.5 78.5,-484.5 37.5,-484.5"/>
<text text-anchor="middle" x="58" y="-529.5" font-family="Helvetica,sans-Serif" font-size="10.00">string</text>
<polyline fill="none" stroke="#bfbfbf" points="37.5,-522.5 78.5,-522.5 "/>
<text text-anchor="middle" x="58" y="-510.5" font-family="Helvetica,sans-Serif" font-size="10.00"> </text>
<polyline fill="none" stroke="#bfbfbf" points="37.5,-503.5 78.5,-503.5 "/>
<text text-anchor="middle" x="58" y="-491.5" font-family="Helvetica,sans-Serif" font-size="10.00"> </text>
</g>
<!-- Node5&#45;&gt;Node4 -->
<g id="edge4" class="edge"><title>Node5&#45;&gt;Node4</title>
<path fill="none" stroke="#404040" d="M58,-484.293C58,-470.988 58,-454.304 58,-437.492"/>
<polygon fill="none" stroke="#404040" points="58.0001,-437.274 54,-431.274 58,-425.274 62,-431.274 58.0001,-437.274"/>
<text text-anchor="middle" x="88.5" y="-458" font-family="Helvetica,sans-Serif" font-size="10.00"> #description_</text>
<text text-anchor="middle" x="88.5" y="-447" font-family="Helvetica,sans-Serif" font-size="10.00">#key_</text>
</g>
<!-- Node6 -->
<g id="node6" class="node"><title>Node6</title>
<polygon fill="white" stroke="#bfbfbf" points="134.5,-329.5 134.5,-386.5 179.5,-386.5 179.5,-329.5 134.5,-329.5"/>
<text text-anchor="middle" x="157" y="-374.5" font-family="Helvetica,sans-Serif" font-size="10.00">double</text>
<polyline fill="none" stroke="#bfbfbf" points="134.5,-367.5 179.5,-367.5 "/>
<text text-anchor="middle" x="157" y="-355.5" font-family="Helvetica,sans-Serif" font-size="10.00"> </text>
<polyline fill="none" stroke="#bfbfbf" points="134.5,-348.5 179.5,-348.5 "/>
<text text-anchor="middle" x="157" y="-336.5" font-family="Helvetica,sans-Serif" font-size="10.00"> </text>
</g>
<!-- Node6&#45;&gt;Node3 -->
<g id="edge5" class="edge"><title>Node6&#45;&gt;Node3</title>
<path fill="none" stroke="#404040" d="M160.429,-329.319C163.345,-309.635 168.306,-282.759 176,-260 176.804,-257.623 177.664,-255.226 178.572,-252.821"/>
<polygon fill="none" stroke="#404040" points="178.626,-252.688 177.163,-245.627 183.118,-241.56 184.581,-248.622 178.626,-252.688"/>
<text text-anchor="middle" x="193.5" y="-263.5" font-family="Helvetica,sans-Serif" font-size="10.00"> &#45;value_</text>
</g>
<!-- Node7 -->
<g id="node7" class="node"><title>Node7</title>
<polygon fill="white" stroke="#bfbfbf" points="197.5,-329.5 197.5,-386.5 232.5,-386.5 232.5,-329.5 197.5,-329.5"/>
<text text-anchor="middle" x="215" y="-374.5" font-family="Helvetica,sans-Serif" font-size="10.00">type</text>
<polyline fill="none" stroke="#bfbfbf" points="197.5,-367.5 232.5,-367.5 "/>
<text text-anchor="middle" x="215" y="-355.5" font-family="Helvetica,sans-Serif" font-size="10.00"> </text>
<polyline fill="none" stroke="#bfbfbf" points="197.5,-348.5 232.5,-348.5 "/>
<text text-anchor="middle" x="215" y="-336.5" font-family="Helvetica,sans-Serif" font-size="10.00"> </text>
</g>
<!-- Node7&#45;&gt;Node3 -->
<g id="edge6" class="edge"><title>Node7&#45;&gt;Node3</title>
<path fill="none" stroke="#404040" d="M215,-329.112C215,-308.771 215,-280.221 215,-253.61"/>
<polygon fill="none" stroke="#404040" points="215,-253.556 211,-247.556 215,-241.556 219,-247.556 215,-253.556"/>
<text text-anchor="middle" x="229" y="-263.5" font-family="Helvetica,sans-Serif" font-size="10.00"> &#45;unit_</text>
</g>
<!-- Node8 -->
<g id="node8" class="node"><title>Node8</title>
<polygon fill="white" stroke="#bfbfbf" points="250.5,-291 250.5,-425 419.5,-425 419.5,-291 250.5,-291"/>
<text text-anchor="start" x="258.5" y="-413" font-family="Helvetica,sans-Serif" font-size="10.00">accumulator_set&lt; double,</text>
<text text-anchor="start" x="258.5" y="-402" font-family="Helvetica,sans-Serif" font-size="10.00"> boost::accumulators::</text>
<text text-anchor="start" x="258.5" y="-391" font-family="Helvetica,sans-Serif" font-size="10.00">features&lt; boost::accumulators</text>
<text text-anchor="start" x="258.5" y="-380" font-family="Helvetica,sans-Serif" font-size="10.00">::tag::mean, boost::accumulators</text>
<text text-anchor="start" x="258.5" y="-369" font-family="Helvetica,sans-Serif" font-size="10.00">::tag::count, boost::accumulators</text>
<text text-anchor="start" x="258.5" y="-358" font-family="Helvetica,sans-Serif" font-size="10.00">::tag::min, boost::accumulators::</text>
<text text-anchor="start" x="258.5" y="-347" font-family="Helvetica,sans-Serif" font-size="10.00">tag::max, boost::accumulators::tag</text>
<text text-anchor="middle" x="335" y="-336" font-family="Helvetica,sans-Serif" font-size="10.00">::variance &gt; &gt;</text>
<polyline fill="none" stroke="#bfbfbf" points="250.5,-329 419.5,-329 "/>
<text text-anchor="middle" x="335" y="-317" font-family="Helvetica,sans-Serif" font-size="10.00"> </text>
<polyline fill="none" stroke="#bfbfbf" points="250.5,-310 419.5,-310 "/>
<text text-anchor="middle" x="335" y="-298" font-family="Helvetica,sans-Serif" font-size="10.00"> </text>
</g>
<!-- Node8&#45;&gt;Node3 -->
<g id="edge7" class="edge"><title>Node8&#45;&gt;Node3</title>
<path fill="none" stroke="#404040" d="M289.975,-290.963C281.264,-278.187 272.103,-264.751 263.292,-251.829"/>
<polygon fill="none" stroke="#404040" points="263.077,-251.513 256.392,-248.809 256.317,-241.598 263.002,-244.302 263.077,-251.513"/>
<text text-anchor="middle" x="289" y="-263.5" font-family="Helvetica,sans-Serif" font-size="10.00"> &#45;acc_</text>
</g>
<!-- Node9 -->
<g id="node9" class="node"><title>Node9</title>
<polygon fill="white" stroke="#bfbfbf" points="437,-329.5 437,-386.5 481,-386.5 481,-329.5 437,-329.5"/>
<text text-anchor="middle" x="459" y="-374.5" font-family="Helvetica,sans-Serif" font-size="10.00">mutex</text>
<polyline fill="none" stroke="#bfbfbf" points="437,-367.5 481,-367.5 "/>
<text text-anchor="middle" x="459" y="-355.5" font-family="Helvetica,sans-Serif" font-size="10.00"> </text>
<polyline fill="none" stroke="#bfbfbf" points="437,-348.5 481,-348.5 "/>
<text text-anchor="middle" x="459" y="-336.5" font-family="Helvetica,sans-Serif" font-size="10.00"> </text>
</g>
<!-- Node9&#45;&gt;Node3 -->
<g id="edge8" class="edge"><title>Node9&#45;&gt;Node3</title>
<path fill="none" stroke="#404040" d="M450.948,-329.42C446.01,-316.247 438.569,-300.996 428,-290 388.461,-248.862 330.03,-220.489 284.364,-203.026"/>
<polygon fill="none" stroke="#404040" points="284.296,-203.001 277.278,-204.66 273.048,-198.821 280.065,-197.162 284.296,-203.001"/>
<text text-anchor="middle" x="419" y="-263.5" font-family="Helvetica,sans-Serif" font-size="10.00"> &#45;lock_</text>
</g>
</g>
</svg>
        <g id="navigator" transform="translate(0 0)" fill="#404254">
                <rect fill="#f2f5e9" fill-opacity="0.5" stroke="#606060" stroke-width=".5" x="0" y="0" width="60" height="60"/>
                <use id="zoomplus" xlink:href="#zoomPlus" x="17" y="9" onmousedown="handleZoom(evt,'in')"/>
                <use id="zoomminus" xlink:href="#zoomMin" x="42" y="9" onmousedown="handleZoom(evt,'out')"/>
                <use id="reset" xlink:href="#resetDef" x="30" y="36" onmousedown="handleReset()"/>
                <g id="arrowUp" xlink:href="#dirArrow" transform="translate(30 24)" onmousedown="handlePan(0,-1)">
                  <use xlink:href="#rim" fill="#404040">
                        <set attributeName="fill" to="#808080" begin="arrowUp.mouseover" end="arrowUp.mouseout"/>
                  </use>
                  <path fill="none" stroke="white" stroke-width="1.5" d="M0,-3.0v7 M-2.5,-0.5L0,-3.0L2.5,-0.5"/>
                </g>
                <g id="arrowRight" xlink:href="#dirArrow" transform="rotate(90) translate(36 -43)" onmousedown="handlePan(1,0)">
                  <use xlink:href="#rim" fill="#404040">
                        <set attributeName="fill" to="#808080" begin="arrowRight.mouseover" end="arrowRight.mouseout"/>
                  </use>
                  <path fill="none" stroke="white" stroke-width="1.5" d="M0,-3.0v7 M-2.5,-0.5L0,-3.0L2.5,-0.5"/>
                </g>
                <g id="arrowDown" xlink:href="#dirArrow" transform="rotate(180) translate(-30 -48)" onmousedown="handlePan(0,1)">
                  <use xlink:href="#rim" fill="#404040">
                        <set attributeName="fill" to="#808080" begin="arrowDown.mouseover" end="arrowDown.mouseout"/>
                  </use>
                  <path fill="none" stroke="white" stroke-width="1.5" d="M0,-3.0v7 M-2.5,-0.5L0,-3.0L2.5,-0.5"/>
                </g>
                <g id="arrowLeft" xlink:href="#dirArrow" transform="rotate(270) translate(-36 17)" onmousedown="handlePan(-1,0)">
                  <use xlink:href="#rim" fill="#404040">
                        <set attributeName="fill" to="#808080" begin="arrowLeft.mouseover" end="arrowLeft.mouseout"/>
                  </use>
                  <path fill="none" stroke="white" stroke-width="1.5" d="M0,-3.0v7 M-2.5,-0.5L0,-3.0L2.5,-0.5"/>
                </g>
        </g>
        <svg viewBox="0 0 15 15" width="100%" height="30px" preserveAspectRatio="xMaxYMin meet">
         <g id="arrow_out" transform="scale(0.3 0.3)">
          <a xlink:href="structimpala_1_1StatestoreSubscriber_1_1Callbacks__coll__graph_org.svg" target="_base">
           <rect id="button" ry="5" rx="5" y="6" x="6" height="38" width="38"
                fill="#f2f5e9" fill-opacity="0.5" stroke="#606060" stroke-width="1.0"/>
           <path id="arrow"
             d="M 11.500037,31.436501 C 11.940474,20.09759 22.043105,11.32322 32.158766,21.979434 L 37.068811,17.246167 C 37.068811,17.246167 37.088388,32 37.088388,32 L 22.160133,31.978069 C 22.160133,31.978069 26.997745,27.140456 26.997745,27.140456 C 18.528582,18.264221 13.291696,25.230495 11.500037,31.436501 z"
             style="fill:#404040;"/>
          </a>
         </g>
        </svg>
</svg>
