<?xml version="1.0" encoding="UTF-8" standalone="no"?>
<!DOCTYPE svg PUBLIC "-//W3C//DTD SVG 1.1//EN"
 "http://www.w3.org/Graphics/SVG/1.1/DTD/svg11.dtd">
<!-- Generated by graphviz version 2.36.0 (20140111.2315)
 -->
<!-- Title: impala::PeriodicCounterUpdater::RateCounterInfo Pages: 1 -->
<!--zoomable 618 -->
<svg id="main" version="1.1" xmlns="http://www.w3.org/2000/svg" xmlns:xlink="http://www.w3.org/1999/xlink" xml:space="preserve" onload="init(evt)">
<style type="text/css"><![CDATA[
.edge:hover path { stroke: red; }
.edge:hover polygon { stroke: red; fill: red; }
]]></style>
<script type="text/javascript"><![CDATA[
var edges = document.getElementsByTagName('g');
if (edges && edges.length) {
  for (var i=0;i<edges.length;i++) {
    if (edges[i].id.substr(0,4)=='edge') {
      edges[i].setAttribute('class','edge');
    }
  }
}
]]></script>
        <defs>
                <circle id="rim" cx="0" cy="0" r="7"/>
                <circle id="rim2" cx="0" cy="0" r="3.5"/>
                <g id="zoomPlus">
                        <use xlink:href="#rim" fill="#404040">
                                <set attributeName="fill" to="#808080" begin="zoomplus.mouseover" end="zoomplus.mouseout"/>
                        </use>
                        <path d="M-4,0h8M0,-4v8" fill="none" stroke="white" stroke-width="1.5" pointer-events="none"/>
                </g>
                <g id="zoomMin">
                        <use xlink:href="#rim" fill="#404040">
                                <set attributeName="fill" to="#808080" begin="zoomminus.mouseover" end="zoomminus.mouseout"/>
                        </use>
                        <path d="M-4,0h8" fill="none" stroke="white" stroke-width="1.5" pointer-events="none"/>
                </g>
                <g id="dirArrow">
                        <path fill="none" stroke="white" stroke-width="1.5" d="M0,-3.0v7 M-2.5,-0.5L0,-3.0L2.5,-0.5"/>
                </g>
               <g id="resetDef">
                       <use xlink:href="#rim2" fill="#404040">
                               <set attributeName="fill" to="#808080" begin="reset.mouseover" end="reset.mouseout"/>
                       </use>
               </g>
        </defs>

<script type="text/javascript">
var viewWidth = 282;
var viewHeight = 618;
var sectionId = 'dynsection-0';
</script>
<script xlink:href="svgpan.js"/>
<svg id="graph" class="graph">
<g id="viewport">
<title>impala::PeriodicCounterUpdater::RateCounterInfo</title>
<polygon fill="white" stroke="none" points="-4,4 -4,-614 277.546,-614 277.546,4 -4,4"/>
<!-- Node1 -->
<g id="node1" class="node"><title>Node1</title>
<polygon fill="#bfbfbf" stroke="black" points="19.0459,-1 19.0459,-69 174.046,-69 174.046,-1 19.0459,-1"/>
<text text-anchor="start" x="27.0459" y="-57" font-family="Helvetica,sans-Serif" font-size="10.00">impala::PeriodicCounterUpdater</text>
<text text-anchor="middle" x="96.5459" y="-46" font-family="Helvetica,sans-Serif" font-size="10.00">::RateCounterInfo</text>
<polyline fill="none" stroke="black" points="19.0459,-39 174.046,-39 "/>
<text text-anchor="middle" x="96.5459" y="-27" font-family="Helvetica,sans-Serif" font-size="10.00"> </text>
<polyline fill="none" stroke="black" points="19.0459,-20 174.046,-20 "/>
<text text-anchor="middle" x="96.5459" y="-8" font-family="Helvetica,sans-Serif" font-size="10.00"> </text>
</g>
<!-- Node2 -->
<g id="node2" class="node"><title>Node2</title>
<polygon fill="white" stroke="#bfbfbf" points="14.5459,-552.5 14.5459,-609.5 60.5459,-609.5 60.5459,-552.5 14.5459,-552.5"/>
<text text-anchor="middle" x="37.5459" y="-597.5" font-family="Helvetica,sans-Serif" font-size="10.00">int64_t</text>
<polyline fill="none" stroke="#bfbfbf" points="14.5459,-590.5 60.5459,-590.5 "/>
<text text-anchor="middle" x="37.5459" y="-578.5" font-family="Helvetica,sans-Serif" font-size="10.00"> </text>
<polyline fill="none" stroke="#bfbfbf" points="14.5459,-571.5 60.5459,-571.5 "/>
<text text-anchor="middle" x="37.5459" y="-559.5" font-family="Helvetica,sans-Serif" font-size="10.00"> </text>
</g>
<!-- Node2&#45;&gt;Node1 -->
<g id="edge1" class="edge"><title>Node2&#45;&gt;Node1</title>
<path fill="none" stroke="#404040" d="M30.3747,-552.308C12.7212,-478.764 -27.4209,-273.552 29.5459,-118 34.7838,-103.698 43.6491,-90.0639 53.2451,-78.1643"/>
<polygon fill="none" stroke="#404040" points="53.2597,-78.1471 54.1063,-70.9859 61.0423,-69.0131 60.1957,-76.1743 53.2597,-78.1471"/>
<text text-anchor="middle" x="31.5459" y="-297.5" font-family="Helvetica,sans-Serif" font-size="10.00"> +elapsed_ms</text>
</g>
<!-- Node5 -->
<g id="node5" class="node"><title>Node5</title>
<g id="a_node5"><a xlink:href="classimpala_1_1AtomicInt.html" target="_top" xlink:title="{impala::AtomicInt\&lt;\l int64_t \&gt;\n||+ AtomicInt()\l+ operator int64_t()\l+ operator=()\l+ operator=()\l+ operator+=()\l+ operator&#45;=()\l+ operator\|=()\l+ operator&amp;=()\l+ operator++()\l+ operator++()\land 10 more...\l}">
<polygon fill="white" stroke="black" points="39.0459,-325 39.0459,-503 138.046,-503 138.046,-325 39.0459,-325"/>
<text text-anchor="start" x="47.0459" y="-491" font-family="Helvetica,sans-Serif" font-size="10.00">impala::AtomicInt&lt;</text>
<text text-anchor="middle" x="88.5459" y="-480" font-family="Helvetica,sans-Serif" font-size="10.00"> int64_t &gt;</text>
<polyline fill="none" stroke="black" points="39.0459,-473 138.046,-473 "/>
<text text-anchor="middle" x="88.5459" y="-461" font-family="Helvetica,sans-Serif" font-size="10.00"> </text>
<polyline fill="none" stroke="black" points="39.0459,-454 138.046,-454 "/>
<text text-anchor="start" x="47.0459" y="-442" font-family="Helvetica,sans-Serif" font-size="10.00">+ AtomicInt()</text>
<text text-anchor="start" x="47.0459" y="-431" font-family="Helvetica,sans-Serif" font-size="10.00">+ operator int64_t()</text>
<text text-anchor="start" x="47.0459" y="-420" font-family="Helvetica,sans-Serif" font-size="10.00">+ operator=()</text>
<text text-anchor="start" x="47.0459" y="-409" font-family="Helvetica,sans-Serif" font-size="10.00">+ operator=()</text>
<text text-anchor="start" x="47.0459" y="-398" font-family="Helvetica,sans-Serif" font-size="10.00">+ operator+=()</text>
<text text-anchor="start" x="47.0459" y="-387" font-family="Helvetica,sans-Serif" font-size="10.00">+ operator&#45;=()</text>
<text text-anchor="start" x="47.0459" y="-376" font-family="Helvetica,sans-Serif" font-size="10.00">+ operator|=()</text>
<text text-anchor="start" x="47.0459" y="-365" font-family="Helvetica,sans-Serif" font-size="10.00">+ operator&amp;=()</text>
<text text-anchor="start" x="47.0459" y="-354" font-family="Helvetica,sans-Serif" font-size="10.00">+ operator++()</text>
<text text-anchor="start" x="47.0459" y="-343" font-family="Helvetica,sans-Serif" font-size="10.00">+ operator++()</text>
<text text-anchor="start" x="47.0459" y="-332" font-family="Helvetica,sans-Serif" font-size="10.00">and 10 more...</text>
</a>
</g>
</g>
<!-- Node2&#45;&gt;Node5 -->
<g id="edge5" class="edge"><title>Node2&#45;&gt;Node5</title>
<path fill="none" stroke="#404040" d="M46.0822,-552.383C49.4052,-541.632 53.4316,-528.605 57.6653,-514.908"/>
<polygon fill="none" stroke="#404040" points="57.7158,-514.744 55.6661,-507.831 61.2595,-503.28 63.3093,-510.193 57.7158,-514.744"/>
<text text-anchor="middle" x="72.0459" y="-525.5" font-family="Helvetica,sans-Serif" font-size="10.00"> &#45;value_</text>
</g>
<!-- Node3 -->
<g id="node3" class="node"><title>Node3</title>
<g id="a_node3"><a xlink:href="classimpala_1_1RuntimeProfile_1_1Counter.html" target="_top" xlink:title="{impala::RuntimeProfile\l::Counter\n||+ Counter()\l+ ~Counter()\l+ Add()\l+ BitOr()\l+ Set()\l+ Set()\l+ value()\l+ double_value()\l+ unit()\l}">
<polygon fill="white" stroke="black" points="38.5459,-119 38.5459,-275 154.546,-275 154.546,-119 38.5459,-119"/>
<text text-anchor="start" x="46.5459" y="-263" font-family="Helvetica,sans-Serif" font-size="10.00">impala::RuntimeProfile</text>
<text text-anchor="middle" x="96.5459" y="-252" font-family="Helvetica,sans-Serif" font-size="10.00">::Counter</text>
<polyline fill="none" stroke="black" points="38.5459,-245 154.546,-245 "/>
<text text-anchor="middle" x="96.5459" y="-233" font-family="Helvetica,sans-Serif" font-size="10.00"> </text>
<polyline fill="none" stroke="black" points="38.5459,-226 154.546,-226 "/>
<text text-anchor="start" x="46.5459" y="-214" font-family="Helvetica,sans-Serif" font-size="10.00">+ Counter()</text>
<text text-anchor="start" x="46.5459" y="-203" font-family="Helvetica,sans-Serif" font-size="10.00">+ ~Counter()</text>
<text text-anchor="start" x="46.5459" y="-192" font-family="Helvetica,sans-Serif" font-size="10.00">+ Add()</text>
<text text-anchor="start" x="46.5459" y="-181" font-family="Helvetica,sans-Serif" font-size="10.00">+ BitOr()</text>
<text text-anchor="start" x="46.5459" y="-170" font-family="Helvetica,sans-Serif" font-size="10.00">+ Set()</text>
<text text-anchor="start" x="46.5459" y="-159" font-family="Helvetica,sans-Serif" font-size="10.00">+ Set()</text>
<text text-anchor="start" x="46.5459" y="-148" font-family="Helvetica,sans-Serif" font-size="10.00">+ value()</text>
<text text-anchor="start" x="46.5459" y="-137" font-family="Helvetica,sans-Serif" font-size="10.00">+ double_value()</text>
<text text-anchor="start" x="46.5459" y="-126" font-family="Helvetica,sans-Serif" font-size="10.00">+ unit()</text>
</a>
</g>
</g>
<!-- Node3&#45;&gt;Node1 -->
<g id="edge2" class="edge"><title>Node3&#45;&gt;Node1</title>
<path fill="none" stroke="#404040" d="M96.5459,-118.812C96.5459,-106.019 96.5459,-93.1291 96.5459,-81.4545"/>
<polygon fill="none" stroke="#404040" points="96.546,-81.3252 92.546,-75.3252 96.5459,-69.3252 100.546,-75.3252 96.546,-81.3252"/>
<text text-anchor="middle" x="127.046" y="-91.5" font-family="Helvetica,sans-Serif" font-size="10.00"> +src_counter</text>
</g>
<!-- Node4 -->
<g id="node4" class="node"><title>Node4</title>
<polygon fill="white" stroke="#bfbfbf" points="156.046,-385.5 156.046,-442.5 191.046,-442.5 191.046,-385.5 156.046,-385.5"/>
<text text-anchor="middle" x="173.546" y="-430.5" font-family="Helvetica,sans-Serif" font-size="10.00">type</text>
<polyline fill="none" stroke="#bfbfbf" points="156.046,-423.5 191.046,-423.5 "/>
<text text-anchor="middle" x="173.546" y="-411.5" font-family="Helvetica,sans-Serif" font-size="10.00"> </text>
<polyline fill="none" stroke="#bfbfbf" points="156.046,-404.5 191.046,-404.5 "/>
<text text-anchor="middle" x="173.546" y="-392.5" font-family="Helvetica,sans-Serif" font-size="10.00"> </text>
</g>
<!-- Node4&#45;&gt;Node3 -->
<g id="edge3" class="edge"><title>Node4&#45;&gt;Node3</title>
<path fill="none" stroke="#404040" d="M165.742,-385.146C160.641,-367.504 153.63,-344.273 146.546,-324 142.296,-311.838 137.578,-299.116 132.785,-286.629"/>
<polygon fill="none" stroke="#404040" points="132.712,-286.439 126.814,-282.291 128.374,-275.251 134.273,-279.399 132.712,-286.439"/>
<text text-anchor="middle" x="154.546" y="-297.5" font-family="Helvetica,sans-Serif" font-size="10.00"> #unit_</text>
</g>
<!-- Node5&#45;&gt;Node3 -->
<g id="edge4" class="edge"><title>Node5&#45;&gt;Node3</title>
<path fill="none" stroke="#404040" d="M91.8229,-324.931C92.2825,-312.58 92.7552,-299.876 93.2157,-287.499"/>
<polygon fill="none" stroke="#404040" points="93.225,-287.249 89.4509,-281.104 93.6713,-275.257 97.4454,-281.401 93.225,-287.249"/>
<text text-anchor="middle" x="112.046" y="-297.5" font-family="Helvetica,sans-Serif" font-size="10.00"> #value_</text>
</g>
<!-- Node6 -->
<g id="node6" class="node"><title>Node6</title>
<polygon fill="white" stroke="#bfbfbf" points="173.046,-168.5 173.046,-225.5 274.046,-225.5 274.046,-168.5 173.046,-168.5"/>
<text text-anchor="middle" x="223.546" y="-213.5" font-family="Helvetica,sans-Serif" font-size="10.00">function&lt; int64_t()&gt;</text>
<polyline fill="none" stroke="#bfbfbf" points="173.046,-206.5 274.046,-206.5 "/>
<text text-anchor="middle" x="223.546" y="-194.5" font-family="Helvetica,sans-Serif" font-size="10.00"> </text>
<polyline fill="none" stroke="#bfbfbf" points="173.046,-187.5 274.046,-187.5 "/>
<text text-anchor="middle" x="223.546" y="-175.5" font-family="Helvetica,sans-Serif" font-size="10.00"> </text>
</g>
<!-- Node6&#45;&gt;Node1 -->
<g id="edge6" class="edge"><title>Node6&#45;&gt;Node1</title>
<path fill="none" stroke="#404040" d="M211.314,-168.45C200.309,-145.47 182.65,-112.623 161.546,-88 158.46,-84.3996 155.097,-80.8679 151.58,-77.4463"/>
<polygon fill="none" stroke="#404040" points="151.426,-77.3057 144.301,-76.196 142.585,-69.1921 149.71,-70.3018 151.426,-77.3057"/>
<text text-anchor="middle" x="198.046" y="-91.5" font-family="Helvetica,sans-Serif" font-size="10.00"> +sample_fn</text>
</g>
</g>
</svg>
        <g id="navigator" transform="translate(0 0)" fill="#404254">
                <rect fill="#f2f5e9" fill-opacity="0.5" stroke="#606060" stroke-width=".5" x="0" y="0" width="60" height="60"/>
                <use id="zoomplus" xlink:href="#zoomPlus" x="17" y="9" onmousedown="handleZoom(evt,'in')"/>
                <use id="zoomminus" xlink:href="#zoomMin" x="42" y="9" onmousedown="handleZoom(evt,'out')"/>
                <use id="reset" xlink:href="#resetDef" x="30" y="36" onmousedown="handleReset()"/>
                <g id="arrowUp" xlink:href="#dirArrow" transform="translate(30 24)" onmousedown="handlePan(0,-1)">
                  <use xlink:href="#rim" fill="#404040">
                        <set attributeName="fill" to="#808080" begin="arrowUp.mouseover" end="arrowUp.mouseout"/>
                  </use>
                  <path fill="none" stroke="white" stroke-width="1.5" d="M0,-3.0v7 M-2.5,-0.5L0,-3.0L2.5,-0.5"/>
                </g>
                <g id="arrowRight" xlink:href="#dirArrow" transform="rotate(90) translate(36 -43)" onmousedown="handlePan(1,0)">
                  <use xlink:href="#rim" fill="#404040">
                        <set attributeName="fill" to="#808080" begin="arrowRight.mouseover" end="arrowRight.mouseout"/>
                  </use>
                  <path fill="none" stroke="white" stroke-width="1.5" d="M0,-3.0v7 M-2.5,-0.5L0,-3.0L2.5,-0.5"/>
                </g>
                <g id="arrowDown" xlink:href="#dirArrow" transform="rotate(180) translate(-30 -48)" onmousedown="handlePan(0,1)">
                  <use xlink:href="#rim" fill="#404040">
                        <set attributeName="fill" to="#808080" begin="arrowDown.mouseover" end="arrowDown.mouseout"/>
                  </use>
                  <path fill="none" stroke="white" stroke-width="1.5" d="M0,-3.0v7 M-2.5,-0.5L0,-3.0L2.5,-0.5"/>
                </g>
                <g id="arrowLeft" xlink:href="#dirArrow" transform="rotate(270) translate(-36 17)" onmousedown="handlePan(-1,0)">
                  <use xlink:href="#rim" fill="#404040">
                        <set attributeName="fill" to="#808080" begin="arrowLeft.mouseover" end="arrowLeft.mouseout"/>
                  </use>
                  <path fill="none" stroke="white" stroke-width="1.5" d="M0,-3.0v7 M-2.5,-0.5L0,-3.0L2.5,-0.5"/>
                </g>
        </g>
        <svg viewBox="0 0 15 15" width="100%" height="30px" preserveAspectRatio="xMaxYMin meet">
         <g id="arrow_out" transform="scale(0.3 0.3)">
          <a xlink:href="structimpala_1_1PeriodicCounterUpdater_1_1RateCounterInfo__coll__graph_org.svg" target="_base">
           <rect id="button" ry="5" rx="5" y="6" x="6" height="38" width="38"
                fill="#f2f5e9" fill-opacity="0.5" stroke="#606060" stroke-width="1.0"/>
           <path id="arrow"
             d="M 11.500037,31.436501 C 11.940474,20.09759 22.043105,11.32322 32.158766,21.979434 L 37.068811,17.246167 C 37.068811,17.246167 37.088388,32 37.088388,32 L 22.160133,31.978069 C 22.160133,31.978069 26.997745,27.140456 26.997745,27.140456 C 18.528582,18.264221 13.291696,25.230495 11.500037,31.436501 z"
             style="fill:#404040;"/>
          </a>
         </g>
        </svg>
</svg>
