<?xml version="1.0" encoding="UTF-8" standalone="no"?>
<!DOCTYPE svg PUBLIC "-//W3C//DTD SVG 1.1//EN"
 "http://www.w3.org/Graphics/SVG/1.1/DTD/svg11.dtd">
<!-- Generated by graphviz version 2.36.0 (20140111.2315)
 -->
<!-- Title: impala::PartitioningThroughputTest::BufferBuffer Pages: 1 -->
<svg width="189pt" height="184pt"
 viewBox="0.00 0.00 189.00 184.00" xmlns="http://www.w3.org/2000/svg" xmlns:xlink="http://www.w3.org/1999/xlink">
<g id="graph0" class="graph" transform="scale(1 1) rotate(0) translate(4 180)">
<title>impala::PartitioningThroughputTest::BufferBuffer</title>
<polygon fill="white" stroke="none" points="-4,4 -4,-180 185,-180 185,4 -4,4"/>
<!-- Node1 -->
<g id="node1" class="node"><title>Node1</title>
<polygon fill="#bfbfbf" stroke="black" points="-0.5,-1 -0.5,-69 148.5,-69 148.5,-1 -0.5,-1"/>
<text text-anchor="start" x="7.5" y="-57" font-family="Helvetica,sans-Serif" font-size="10.00">impala::PartitioningThroughput</text>
<text text-anchor="middle" x="74" y="-46" font-family="Helvetica,sans-Serif" font-size="10.00">Test::BufferBuffer</text>
<polyline fill="none" stroke="black" points="-0.5,-39 148.5,-39 "/>
<text text-anchor="middle" x="74" y="-27" font-family="Helvetica,sans-Serif" font-size="10.00"> </text>
<polyline fill="none" stroke="black" points="-0.5,-20 148.5,-20 "/>
<text text-anchor="start" x="7.5" y="-8" font-family="Helvetica,sans-Serif" font-size="10.00">+ BufferBuffer()</text>
</g>
<!-- Node2 -->
<g id="node2" class="node"><title>Node2</title>
<polygon fill="white" stroke="#bfbfbf" points="2.5,-118.5 2.5,-175.5 31.5,-175.5 31.5,-118.5 2.5,-118.5"/>
<text text-anchor="middle" x="17" y="-163.5" font-family="Helvetica,sans-Serif" font-size="10.00">int</text>
<polyline fill="none" stroke="#bfbfbf" points="2.5,-156.5 31.5,-156.5 "/>
<text text-anchor="middle" x="17" y="-144.5" font-family="Helvetica,sans-Serif" font-size="10.00"> </text>
<polyline fill="none" stroke="#bfbfbf" points="2.5,-137.5 31.5,-137.5 "/>
<text text-anchor="middle" x="17" y="-125.5" font-family="Helvetica,sans-Serif" font-size="10.00"> </text>
</g>
<!-- Node2&#45;&gt;Node1 -->
<g id="edge1" class="edge"><title>Node2&#45;&gt;Node1</title>
<path fill="none" stroke="#404040" d="M24.0908,-118.433C27.1293,-108.56 31.1168,-97.5229 36,-88 37.4796,-85.1146 39.1116,-82.2157 40.8425,-79.3432"/>
<polygon fill="none" stroke="#404040" points="40.9312,-79.206 40.8306,-71.9956 47.4477,-69.1295 47.5483,-76.3399 40.9312,-79.206"/>
<text text-anchor="middle" x="53" y="-91.5" font-family="Helvetica,sans-Serif" font-size="10.00"> +count</text>
</g>
<!-- Node3 -->
<g id="node3" class="node"><title>Node3</title>
<polygon fill="white" stroke="#bfbfbf" points="51,-118.5 51,-175.5 97,-175.5 97,-118.5 51,-118.5"/>
<text text-anchor="middle" x="74" y="-163.5" font-family="Helvetica,sans-Serif" font-size="10.00">uint8_t</text>
<polyline fill="none" stroke="#bfbfbf" points="51,-156.5 97,-156.5 "/>
<text text-anchor="middle" x="74" y="-144.5" font-family="Helvetica,sans-Serif" font-size="10.00"> </text>
<polyline fill="none" stroke="#bfbfbf" points="51,-137.5 97,-137.5 "/>
<text text-anchor="middle" x="74" y="-125.5" font-family="Helvetica,sans-Serif" font-size="10.00"> </text>
</g>
<!-- Node3&#45;&gt;Node1 -->
<g id="edge2" class="edge"><title>Node3&#45;&gt;Node1</title>
<path fill="none" stroke="#404040" d="M74,-118.242C74,-107.073 74,-93.8972 74,-81.4036"/>
<polygon fill="none" stroke="#404040" points="74.0001,-81.2368 70,-75.2368 74,-69.2368 78,-75.2367 74.0001,-81.2368"/>
<text text-anchor="middle" x="95.5" y="-91.5" font-family="Helvetica,sans-Serif" font-size="10.00"> +padding</text>
</g>
<!-- Node4 -->
<g id="node4" class="node"><title>Node4</title>
<polygon fill="white" stroke="#bfbfbf" points="115,-118.5 115,-175.5 181,-175.5 181,-118.5 115,-118.5"/>
<text text-anchor="middle" x="148" y="-163.5" font-family="Helvetica,sans-Serif" font-size="10.00">ProbeTuple</text>
<polyline fill="none" stroke="#bfbfbf" points="115,-156.5 181,-156.5 "/>
<text text-anchor="middle" x="148" y="-144.5" font-family="Helvetica,sans-Serif" font-size="10.00"> </text>
<polyline fill="none" stroke="#bfbfbf" points="115,-137.5 181,-137.5 "/>
<text text-anchor="middle" x="148" y="-125.5" font-family="Helvetica,sans-Serif" font-size="10.00"> </text>
</g>
<!-- Node4&#45;&gt;Node1 -->
<g id="edge3" class="edge"><title>Node4&#45;&gt;Node1</title>
<path fill="none" stroke="#404040" d="M137.108,-118.244C132.708,-108.351 127.198,-97.3508 121,-88 118.948,-84.9047 116.718,-81.8085 114.381,-78.7555"/>
<polygon fill="none" stroke="#404040" points="114.197,-78.528 107.311,-76.386 106.64,-69.2061 113.526,-71.3482 114.197,-78.528"/>
<text text-anchor="middle" x="146" y="-91.5" font-family="Helvetica,sans-Serif" font-size="10.00"> +tuples</text>
</g>
</g>
</svg>
