<?xml version="1.0" encoding="UTF-8" standalone="no"?>
<!DOCTYPE svg PUBLIC "-//W3C//DTD SVG 1.1//EN"
 "http://www.w3.org/Graphics/SVG/1.1/DTD/svg11.dtd">
<!-- Generated by graphviz version 2.36.0 (20140111.2315)
 -->
<!-- Title: impala::ExprValue Pages: 1 -->
<svg width="1229pt" height="586pt"
 viewBox="0.00 0.00 1229.00 586.00" xmlns="http://www.w3.org/2000/svg" xmlns:xlink="http://www.w3.org/1999/xlink">
<g id="graph0" class="graph" transform="scale(1 1) rotate(0) translate(4 582)">
<title>impala::ExprValue</title>
<polygon fill="white" stroke="none" points="-4,4 -4,-582 1225,-582 1225,4 -4,4"/>
<!-- Node1 -->
<g id="node1" class="node"><title>Node1</title>
<polygon fill="#bfbfbf" stroke="black" points="634,-0.5 634,-189.5 730,-189.5 730,-0.5 634,-0.5"/>
<text text-anchor="middle" x="682" y="-177.5" font-family="Helvetica,sans-Serif" font-size="10.00">impala::ExprValue</text>
<polyline fill="none" stroke="black" points="634,-170.5 730,-170.5 "/>
<text text-anchor="middle" x="682" y="-158.5" font-family="Helvetica,sans-Serif" font-size="10.00"> </text>
<polyline fill="none" stroke="black" points="634,-151.5 730,-151.5 "/>
<text text-anchor="start" x="642" y="-139.5" font-family="Helvetica,sans-Serif" font-size="10.00">+ ExprValue()</text>
<text text-anchor="start" x="642" y="-128.5" font-family="Helvetica,sans-Serif" font-size="10.00">+ ExprValue()</text>
<text text-anchor="start" x="642" y="-117.5" font-family="Helvetica,sans-Serif" font-size="10.00">+ ExprValue()</text>
<text text-anchor="start" x="642" y="-106.5" font-family="Helvetica,sans-Serif" font-size="10.00">+ ExprValue()</text>
<text text-anchor="start" x="642" y="-95.5" font-family="Helvetica,sans-Serif" font-size="10.00">+ ExprValue()</text>
<text text-anchor="start" x="642" y="-84.5" font-family="Helvetica,sans-Serif" font-size="10.00">+ ExprValue()</text>
<text text-anchor="start" x="642" y="-73.5" font-family="Helvetica,sans-Serif" font-size="10.00">+ ExprValue()</text>
<text text-anchor="start" x="642" y="-62.5" font-family="Helvetica,sans-Serif" font-size="10.00">+ ExprValue()</text>
<text text-anchor="start" x="642" y="-51.5" font-family="Helvetica,sans-Serif" font-size="10.00">+ ExprValue()</text>
<text text-anchor="start" x="642" y="-40.5" font-family="Helvetica,sans-Serif" font-size="10.00">+ ExprValue()</text>
<text text-anchor="start" x="642" y="-29.5" font-family="Helvetica,sans-Serif" font-size="10.00">+ SetToZero()</text>
<text text-anchor="start" x="642" y="-18.5" font-family="Helvetica,sans-Serif" font-size="10.00">+ SetToMin()</text>
<text text-anchor="start" x="642" y="-7.5" font-family="Helvetica,sans-Serif" font-size="10.00">+ SetToMax()</text>
</g>
<!-- Node2 -->
<g id="node2" class="node"><title>Node2</title>
<polygon fill="white" stroke="#bfbfbf" points="-0.5,-321.5 -0.5,-378.5 40.5,-378.5 40.5,-321.5 -0.5,-321.5"/>
<text text-anchor="middle" x="20" y="-366.5" font-family="Helvetica,sans-Serif" font-size="10.00">int8_t</text>
<polyline fill="none" stroke="#bfbfbf" points="-0.5,-359.5 40.5,-359.5 "/>
<text text-anchor="middle" x="20" y="-347.5" font-family="Helvetica,sans-Serif" font-size="10.00"> </text>
<polyline fill="none" stroke="#bfbfbf" points="-0.5,-340.5 40.5,-340.5 "/>
<text text-anchor="middle" x="20" y="-328.5" font-family="Helvetica,sans-Serif" font-size="10.00"> </text>
</g>
<!-- Node2&#45;&gt;Node1 -->
<g id="edge1" class="edge"><title>Node2&#45;&gt;Node1</title>
<path fill="none" stroke="#404040" d="M19.7443,-321.395C21.0885,-288.654 28.8102,-235.112 63,-208 149.196,-139.648 483.074,-109.515 621.423,-99.7773"/>
<polygon fill="none" stroke="#404040" points="621.823,-99.7498 627.534,-95.3466 633.795,-98.9245 628.084,-103.328 621.823,-99.7498"/>
<text text-anchor="middle" x="90" y="-211.5" font-family="Helvetica,sans-Serif" font-size="10.00"> +tinyint_val</text>
</g>
<!-- Node3 -->
<g id="node3" class="node"><title>Node3</title>
<g id="a_node3"><a xlink:href="classimpala_1_1DecimalValue.html" target="_top" xlink:title="{impala::DecimalValue\l\&lt; int128_t \&gt;\n||+ DecimalValue()\l+ DecimalValue()\l+ operator=()\l+ operator==()\l+ operator!=()\l+ operator\&lt;=()\l+ operator\&lt;()\l+ operator\&gt;=()\l+ operator\&gt;()\l+ operator&#45;()\land 23 more...\l+ FromDouble()\l+ FromInt()\l&#45; AdjustToSameScale()\l}">
<polygon fill="white" stroke="black" points="59,-244.5 59,-455.5 177,-455.5 177,-244.5 59,-244.5"/>
<text text-anchor="start" x="67" y="-443.5" font-family="Helvetica,sans-Serif" font-size="10.00">impala::DecimalValue</text>
<text text-anchor="middle" x="118" y="-432.5" font-family="Helvetica,sans-Serif" font-size="10.00">&lt; int128_t &gt;</text>
<polyline fill="none" stroke="black" points="59,-425.5 177,-425.5 "/>
<text text-anchor="middle" x="118" y="-413.5" font-family="Helvetica,sans-Serif" font-size="10.00"> </text>
<polyline fill="none" stroke="black" points="59,-406.5 177,-406.5 "/>
<text text-anchor="start" x="67" y="-394.5" font-family="Helvetica,sans-Serif" font-size="10.00">+ DecimalValue()</text>
<text text-anchor="start" x="67" y="-383.5" font-family="Helvetica,sans-Serif" font-size="10.00">+ DecimalValue()</text>
<text text-anchor="start" x="67" y="-372.5" font-family="Helvetica,sans-Serif" font-size="10.00">+ operator=()</text>
<text text-anchor="start" x="67" y="-361.5" font-family="Helvetica,sans-Serif" font-size="10.00">+ operator==()</text>
<text text-anchor="start" x="67" y="-350.5" font-family="Helvetica,sans-Serif" font-size="10.00">+ operator!=()</text>
<text text-anchor="start" x="67" y="-339.5" font-family="Helvetica,sans-Serif" font-size="10.00">+ operator&lt;=()</text>
<text text-anchor="start" x="67" y="-328.5" font-family="Helvetica,sans-Serif" font-size="10.00">+ operator&lt;()</text>
<text text-anchor="start" x="67" y="-317.5" font-family="Helvetica,sans-Serif" font-size="10.00">+ operator&gt;=()</text>
<text text-anchor="start" x="67" y="-306.5" font-family="Helvetica,sans-Serif" font-size="10.00">+ operator&gt;()</text>
<text text-anchor="start" x="67" y="-295.5" font-family="Helvetica,sans-Serif" font-size="10.00">+ operator&#45;()</text>
<text text-anchor="start" x="67" y="-284.5" font-family="Helvetica,sans-Serif" font-size="10.00">and 23 more...</text>
<text text-anchor="start" x="67" y="-273.5" font-family="Helvetica,sans-Serif" font-size="10.00">+ FromDouble()</text>
<text text-anchor="start" x="67" y="-262.5" font-family="Helvetica,sans-Serif" font-size="10.00">+ FromInt()</text>
<text text-anchor="start" x="67" y="-251.5" font-family="Helvetica,sans-Serif" font-size="10.00">&#45; AdjustToSameScale()</text>
</a>
</g>
</g>
<!-- Node3&#45;&gt;Node1 -->
<g id="edge2" class="edge"><title>Node3&#45;&gt;Node1</title>
<path fill="none" stroke="#404040" d="M109.355,-244.237C112.454,-230.915 117.966,-218.348 127,-208 191.426,-134.203 491.975,-107.427 621.903,-99.187"/>
<polygon fill="none" stroke="#404040" points="621.953,-99.1841 627.696,-94.8229 633.93,-98.4466 628.188,-102.808 621.953,-99.1841"/>
<text text-anchor="middle" x="163" y="-211.5" font-family="Helvetica,sans-Serif" font-size="10.00"> +decimal16_val</text>
</g>
<!-- Node4 -->
<g id="node4" class="node"><title>Node4</title>
<polygon fill="white" stroke="#bfbfbf" points="87,-520.5 87,-577.5 149,-577.5 149,-520.5 87,-520.5"/>
<text text-anchor="middle" x="118" y="-565.5" font-family="Helvetica,sans-Serif" font-size="10.00">__int128_t</text>
<polyline fill="none" stroke="#bfbfbf" points="87,-558.5 149,-558.5 "/>
<text text-anchor="middle" x="118" y="-546.5" font-family="Helvetica,sans-Serif" font-size="10.00"> </text>
<polyline fill="none" stroke="#bfbfbf" points="87,-539.5 149,-539.5 "/>
<text text-anchor="middle" x="118" y="-527.5" font-family="Helvetica,sans-Serif" font-size="10.00"> </text>
</g>
<!-- Node4&#45;&gt;Node3 -->
<g id="edge3" class="edge"><title>Node4&#45;&gt;Node3</title>
<path fill="none" stroke="#404040" d="M118,-520.193C118,-505.876 118,-487.348 118,-467.825"/>
<polygon fill="none" stroke="#404040" points="118,-467.569 114,-461.569 118,-455.569 122,-461.569 118,-467.569"/>
<text text-anchor="middle" x="135.5" y="-488.5" font-family="Helvetica,sans-Serif" font-size="10.00"> &#45;value_</text>
</g>
<!-- Node5 -->
<g id="node5" class="node"><title>Node5</title>
<polygon fill="white" stroke="#bfbfbf" points="187.5,-520.5 187.5,-577.5 232.5,-577.5 232.5,-520.5 187.5,-520.5"/>
<text text-anchor="middle" x="210" y="-565.5" font-family="Helvetica,sans-Serif" font-size="10.00">double</text>
<polyline fill="none" stroke="#bfbfbf" points="187.5,-558.5 232.5,-558.5 "/>
<text text-anchor="middle" x="210" y="-546.5" font-family="Helvetica,sans-Serif" font-size="10.00"> </text>
<polyline fill="none" stroke="#bfbfbf" points="187.5,-539.5 232.5,-539.5 "/>
<text text-anchor="middle" x="210" y="-527.5" font-family="Helvetica,sans-Serif" font-size="10.00"> </text>
</g>
<!-- Node5&#45;&gt;Node1 -->
<g id="edge4" class="edge"><title>Node5&#45;&gt;Node1</title>
<path fill="none" stroke="#404040" d="M207.142,-520.217C200.784,-452.552 188.533,-281.566 222,-238 271.248,-173.889 508.742,-125.585 621.856,-105.807"/>
<polygon fill="none" stroke="#404040" points="621.886,-105.802 627.117,-100.839 633.71,-103.759 628.479,-108.722 621.886,-105.802"/>
<text text-anchor="middle" x="250" y="-347.5" font-family="Helvetica,sans-Serif" font-size="10.00"> +double_val</text>
</g>
<!-- Node13 -->
<g id="node13" class="node"><title>Node13</title>
<g id="a_node13"><a xlink:href="classimpala_1_1TimestampValue.html" target="_top" xlink:title="{impala::TimestampValue\n||+ TimestampValue()\l+ TimestampValue()\l+ TimestampValue()\l+ TimestampValue()\l+ TimestampValue()\l+ TimestampValue()\l+ TimestampValue()\l+ TimestampValue()\l+ TimestampValue()\l+ ToTimestampVal()\land 22 more...\l+ LocalTime()\l+ FromTimestampVal()\l+ Size()\l&#45; UnixTimeToPtime()\l}">
<polygon fill="white" stroke="black" points="484.5,-244.5 484.5,-455.5 609.5,-455.5 609.5,-244.5 484.5,-244.5"/>
<text text-anchor="middle" x="547" y="-443.5" font-family="Helvetica,sans-Serif" font-size="10.00">impala::TimestampValue</text>
<polyline fill="none" stroke="black" points="484.5,-436.5 609.5,-436.5 "/>
<text text-anchor="middle" x="547" y="-424.5" font-family="Helvetica,sans-Serif" font-size="10.00"> </text>
<polyline fill="none" stroke="black" points="484.5,-417.5 609.5,-417.5 "/>
<text text-anchor="start" x="492.5" y="-405.5" font-family="Helvetica,sans-Serif" font-size="10.00">+ TimestampValue()</text>
<text text-anchor="start" x="492.5" y="-394.5" font-family="Helvetica,sans-Serif" font-size="10.00">+ TimestampValue()</text>
<text text-anchor="start" x="492.5" y="-383.5" font-family="Helvetica,sans-Serif" font-size="10.00">+ TimestampValue()</text>
<text text-anchor="start" x="492.5" y="-372.5" font-family="Helvetica,sans-Serif" font-size="10.00">+ TimestampValue()</text>
<text text-anchor="start" x="492.5" y="-361.5" font-family="Helvetica,sans-Serif" font-size="10.00">+ TimestampValue()</text>
<text text-anchor="start" x="492.5" y="-350.5" font-family="Helvetica,sans-Serif" font-size="10.00">+ TimestampValue()</text>
<text text-anchor="start" x="492.5" y="-339.5" font-family="Helvetica,sans-Serif" font-size="10.00">+ TimestampValue()</text>
<text text-anchor="start" x="492.5" y="-328.5" font-family="Helvetica,sans-Serif" font-size="10.00">+ TimestampValue()</text>
<text text-anchor="start" x="492.5" y="-317.5" font-family="Helvetica,sans-Serif" font-size="10.00">+ TimestampValue()</text>
<text text-anchor="start" x="492.5" y="-306.5" font-family="Helvetica,sans-Serif" font-size="10.00">+ ToTimestampVal()</text>
<text text-anchor="start" x="492.5" y="-295.5" font-family="Helvetica,sans-Serif" font-size="10.00">and 22 more...</text>
<text text-anchor="start" x="492.5" y="-284.5" font-family="Helvetica,sans-Serif" font-size="10.00">+ LocalTime()</text>
<text text-anchor="start" x="492.5" y="-273.5" font-family="Helvetica,sans-Serif" font-size="10.00">+ FromTimestampVal()</text>
<text text-anchor="start" x="492.5" y="-262.5" font-family="Helvetica,sans-Serif" font-size="10.00">+ Size()</text>
<text text-anchor="start" x="492.5" y="-251.5" font-family="Helvetica,sans-Serif" font-size="10.00">&#45; UnixTimeToPtime()</text>
</a>
</g>
</g>
<!-- Node5&#45;&gt;Node13 -->
<g id="edge13" class="edge"><title>Node5&#45;&gt;Node13</title>
<path fill="none" stroke="#404040" d="M232.702,-526.045C235.403,-523.877 238.199,-521.812 241,-520 257.71,-509.191 265.33,-512.87 282,-502 294.121,-494.096 292.811,-485.953 306,-480 371.485,-450.439 407.059,-496.591 473.805,-461.531"/>
<polygon fill="none" stroke="#404040" points="473.939,-461.454 477.143,-454.994 484.339,-455.468 481.134,-461.928 473.939,-461.454"/>
<text text-anchor="middle" x="348.5" y="-488.5" font-family="Helvetica,sans-Serif" font-size="10.00"> &#45;ONE_BILLIONTH</text>
</g>
<!-- Node6 -->
<g id="node6" class="node"><title>Node6</title>
<g id="a_node6"><a xlink:href="structimpala_1_1StringValue.html" target="_top" xlink:title="{impala::StringValue\n||+ StringValue()\l+ StringValue()\l+ StringValue()\l+ StringValue()\l+ Compare()\l+ Eq()\l+ operator==()\l+ Ne()\l+ operator!=()\l+ Le()\land 12 more...\l+ FromStringVal()\l+ PadWithSpaces()\l+ UnpaddedCharLength()\l+ CharSlotToPtr()\l+ CharSlotToPtr()\l}">
<polygon fill="white" stroke="black" points="287,-239 287,-461 413,-461 413,-239 287,-239"/>
<text text-anchor="middle" x="350" y="-449" font-family="Helvetica,sans-Serif" font-size="10.00">impala::StringValue</text>
<polyline fill="none" stroke="black" points="287,-442 413,-442 "/>
<text text-anchor="middle" x="350" y="-430" font-family="Helvetica,sans-Serif" font-size="10.00"> </text>
<polyline fill="none" stroke="black" points="287,-423 413,-423 "/>
<text text-anchor="start" x="295" y="-411" font-family="Helvetica,sans-Serif" font-size="10.00">+ StringValue()</text>
<text text-anchor="start" x="295" y="-400" font-family="Helvetica,sans-Serif" font-size="10.00">+ StringValue()</text>
<text text-anchor="start" x="295" y="-389" font-family="Helvetica,sans-Serif" font-size="10.00">+ StringValue()</text>
<text text-anchor="start" x="295" y="-378" font-family="Helvetica,sans-Serif" font-size="10.00">+ StringValue()</text>
<text text-anchor="start" x="295" y="-367" font-family="Helvetica,sans-Serif" font-size="10.00">+ Compare()</text>
<text text-anchor="start" x="295" y="-356" font-family="Helvetica,sans-Serif" font-size="10.00">+ Eq()</text>
<text text-anchor="start" x="295" y="-345" font-family="Helvetica,sans-Serif" font-size="10.00">+ operator==()</text>
<text text-anchor="start" x="295" y="-334" font-family="Helvetica,sans-Serif" font-size="10.00">+ Ne()</text>
<text text-anchor="start" x="295" y="-323" font-family="Helvetica,sans-Serif" font-size="10.00">+ operator!=()</text>
<text text-anchor="start" x="295" y="-312" font-family="Helvetica,sans-Serif" font-size="10.00">+ Le()</text>
<text text-anchor="start" x="295" y="-301" font-family="Helvetica,sans-Serif" font-size="10.00">and 12 more...</text>
<text text-anchor="start" x="295" y="-290" font-family="Helvetica,sans-Serif" font-size="10.00">+ FromStringVal()</text>
<text text-anchor="start" x="295" y="-279" font-family="Helvetica,sans-Serif" font-size="10.00">+ PadWithSpaces()</text>
<text text-anchor="start" x="295" y="-268" font-family="Helvetica,sans-Serif" font-size="10.00">+ UnpaddedCharLength()</text>
<text text-anchor="start" x="295" y="-257" font-family="Helvetica,sans-Serif" font-size="10.00">+ CharSlotToPtr()</text>
<text text-anchor="start" x="295" y="-246" font-family="Helvetica,sans-Serif" font-size="10.00">+ CharSlotToPtr()</text>
</a>
</g>
</g>
<!-- Node6&#45;&gt;Node1 -->
<g id="edge5" class="edge"><title>Node6&#45;&gt;Node1</title>
<path fill="none" stroke="#404040" d="M407.933,-238.738C416.436,-227.569 425.807,-217.034 436,-208 490.198,-159.966 568.452,-129.143 622.061,-112.236"/>
<polygon fill="none" stroke="#404040" points="622.309,-112.16 626.87,-106.575 633.78,-108.638 629.219,-114.223 622.309,-112.16"/>
<text text-anchor="middle" x="462" y="-211.5" font-family="Helvetica,sans-Serif" font-size="10.00"> +string_val</text>
</g>
<!-- Node7 -->
<g id="node7" class="node"><title>Node7</title>
<polygon fill="white" stroke="#bfbfbf" points="459.5,-520.5 459.5,-577.5 494.5,-577.5 494.5,-520.5 459.5,-520.5"/>
<text text-anchor="middle" x="477" y="-565.5" font-family="Helvetica,sans-Serif" font-size="10.00">char</text>
<polyline fill="none" stroke="#bfbfbf" points="459.5,-558.5 494.5,-558.5 "/>
<text text-anchor="middle" x="477" y="-546.5" font-family="Helvetica,sans-Serif" font-size="10.00"> </text>
<polyline fill="none" stroke="#bfbfbf" points="459.5,-539.5 494.5,-539.5 "/>
<text text-anchor="middle" x="477" y="-527.5" font-family="Helvetica,sans-Serif" font-size="10.00"> </text>
</g>
<!-- Node7&#45;&gt;Node6 -->
<g id="edge6" class="edge"><title>Node7&#45;&gt;Node6</title>
<path fill="none" stroke="#404040" d="M459.446,-539.926C444.245,-532.139 422.615,-519.035 409,-502 401.686,-492.848 395.19,-482.68 389.441,-472.069"/>
<polygon fill="none" stroke="#404040" points="389.41,-472.01 383.114,-468.495 383.937,-461.331 390.233,-464.846 389.41,-472.01"/>
<text text-anchor="middle" x="463" y="-494" font-family="Helvetica,sans-Serif" font-size="10.00"> +LLVM_CLASS_NAME</text>
<text text-anchor="middle" x="463" y="-483" font-family="Helvetica,sans-Serif" font-size="10.00">+ptr</text>
</g>
<!-- Node7&#45;&gt;Node13 -->
<g id="edge14" class="edge"><title>Node7&#45;&gt;Node13</title>
<path fill="none" stroke="#404040" d="M494.667,-534.081C503.976,-525.772 514.733,-514.435 521,-502 526.489,-491.109 530.846,-479.276 534.3,-467.187"/>
<polygon fill="none" stroke="#404040" points="534.309,-467.152 531.956,-460.336 537.343,-455.542 539.696,-462.358 534.309,-467.152"/>
<text text-anchor="middle" x="584" y="-488.5" font-family="Helvetica,sans-Serif" font-size="10.00"> +LLVM_CLASS_NAME</text>
</g>
<!-- Node8 -->
<g id="node8" class="node"><title>Node8</title>
<polygon fill="white" stroke="#bfbfbf" points="250.5,-520.5 250.5,-577.5 279.5,-577.5 279.5,-520.5 250.5,-520.5"/>
<text text-anchor="middle" x="265" y="-565.5" font-family="Helvetica,sans-Serif" font-size="10.00">int</text>
<polyline fill="none" stroke="#bfbfbf" points="250.5,-558.5 279.5,-558.5 "/>
<text text-anchor="middle" x="265" y="-546.5" font-family="Helvetica,sans-Serif" font-size="10.00"> </text>
<polyline fill="none" stroke="#bfbfbf" points="250.5,-539.5 279.5,-539.5 "/>
<text text-anchor="middle" x="265" y="-527.5" font-family="Helvetica,sans-Serif" font-size="10.00"> </text>
</g>
<!-- Node8&#45;&gt;Node6 -->
<g id="edge7" class="edge"><title>Node8&#45;&gt;Node6</title>
<path fill="none" stroke="#404040" d="M258.259,-520.296C256.386,-507.729 255.848,-492.84 260,-480 263.036,-470.61 267.298,-470.055 273,-462 275.27,-458.794 277.572,-455.532 279.893,-452.235"/>
<polygon fill="none" stroke="#404040" points="280.001,-452.082 280.176,-444.873 286.898,-442.262 286.722,-449.471 280.001,-452.082"/>
<text text-anchor="middle" x="271" y="-488.5" font-family="Helvetica,sans-Serif" font-size="10.00"> +len</text>
</g>
<!-- Node9 -->
<g id="node9" class="node"><title>Node9</title>
<polygon fill="white" stroke="#bfbfbf" points="431.5,-321.5 431.5,-378.5 466.5,-378.5 466.5,-321.5 431.5,-321.5"/>
<text text-anchor="middle" x="449" y="-366.5" font-family="Helvetica,sans-Serif" font-size="10.00">float</text>
<polyline fill="none" stroke="#bfbfbf" points="431.5,-359.5 466.5,-359.5 "/>
<text text-anchor="middle" x="449" y="-347.5" font-family="Helvetica,sans-Serif" font-size="10.00"> </text>
<polyline fill="none" stroke="#bfbfbf" points="431.5,-340.5 466.5,-340.5 "/>
<text text-anchor="middle" x="449" y="-328.5" font-family="Helvetica,sans-Serif" font-size="10.00"> </text>
</g>
<!-- Node9&#45;&gt;Node1 -->
<g id="edge8" class="edge"><title>Node9&#45;&gt;Node1</title>
<path fill="none" stroke="#404040" d="M449.978,-321.222C452.036,-297.309 458.018,-262.833 475,-238 511.554,-184.548 575.41,-145.307 622.561,-121.788"/>
<polygon fill="none" stroke="#404040" points="622.767,-121.688 626.411,-115.465 633.556,-116.435 629.912,-122.658 622.767,-121.688"/>
<text text-anchor="middle" x="520" y="-211.5" font-family="Helvetica,sans-Serif" font-size="10.00"> +float_val</text>
</g>
<!-- Node10 -->
<g id="node10" class="node"><title>Node10</title>
<polygon fill="white" stroke="#bfbfbf" points="807,-520.5 807,-577.5 853,-577.5 853,-520.5 807,-520.5"/>
<text text-anchor="middle" x="830" y="-565.5" font-family="Helvetica,sans-Serif" font-size="10.00">int64_t</text>
<polyline fill="none" stroke="#bfbfbf" points="807,-558.5 853,-558.5 "/>
<text text-anchor="middle" x="830" y="-546.5" font-family="Helvetica,sans-Serif" font-size="10.00"> </text>
<polyline fill="none" stroke="#bfbfbf" points="807,-539.5 853,-539.5 "/>
<text text-anchor="middle" x="830" y="-527.5" font-family="Helvetica,sans-Serif" font-size="10.00"> </text>
</g>
<!-- Node10&#45;&gt;Node1 -->
<g id="edge9" class="edge"><title>Node10&#45;&gt;Node1</title>
<path fill="none" stroke="#404040" d="M835.811,-520.16C846.98,-459.651 866.002,-313.143 814,-208 797.921,-175.489 767.668,-148.741 740.178,-129.547"/>
<polygon fill="none" stroke="#404040" points="740.154,-129.531 732.943,-129.492 730.206,-122.821 737.417,-122.86 740.154,-129.531"/>
<text text-anchor="middle" x="874.5" y="-347.5" font-family="Helvetica,sans-Serif" font-size="10.00"> +bigint_val</text>
</g>
<!-- Node17 -->
<g id="node17" class="node"><title>Node17</title>
<g id="a_node17"><a xlink:href="classimpala_1_1DecimalValue.html" target="_top" xlink:title="{impala::DecimalValue\l\&lt; int64_t \&gt;\n||+ DecimalValue()\l+ DecimalValue()\l+ operator=()\l+ operator==()\l+ operator!=()\l+ operator\&lt;=()\l+ operator\&lt;()\l+ operator\&gt;=()\l+ operator\&gt;()\l+ operator&#45;()\land 23 more...\l+ FromDouble()\l+ FromInt()\l&#45; AdjustToSameScale()\l}">
<polygon fill="white" stroke="black" points="628,-244.5 628,-455.5 746,-455.5 746,-244.5 628,-244.5"/>
<text text-anchor="start" x="636" y="-443.5" font-family="Helvetica,sans-Serif" font-size="10.00">impala::DecimalValue</text>
<text text-anchor="middle" x="687" y="-432.5" font-family="Helvetica,sans-Serif" font-size="10.00">&lt; int64_t &gt;</text>
<polyline fill="none" stroke="black" points="628,-425.5 746,-425.5 "/>
<text text-anchor="middle" x="687" y="-413.5" font-family="Helvetica,sans-Serif" font-size="10.00"> </text>
<polyline fill="none" stroke="black" points="628,-406.5 746,-406.5 "/>
<text text-anchor="start" x="636" y="-394.5" font-family="Helvetica,sans-Serif" font-size="10.00">+ DecimalValue()</text>
<text text-anchor="start" x="636" y="-383.5" font-family="Helvetica,sans-Serif" font-size="10.00">+ DecimalValue()</text>
<text text-anchor="start" x="636" y="-372.5" font-family="Helvetica,sans-Serif" font-size="10.00">+ operator=()</text>
<text text-anchor="start" x="636" y="-361.5" font-family="Helvetica,sans-Serif" font-size="10.00">+ operator==()</text>
<text text-anchor="start" x="636" y="-350.5" font-family="Helvetica,sans-Serif" font-size="10.00">+ operator!=()</text>
<text text-anchor="start" x="636" y="-339.5" font-family="Helvetica,sans-Serif" font-size="10.00">+ operator&lt;=()</text>
<text text-anchor="start" x="636" y="-328.5" font-family="Helvetica,sans-Serif" font-size="10.00">+ operator&lt;()</text>
<text text-anchor="start" x="636" y="-317.5" font-family="Helvetica,sans-Serif" font-size="10.00">+ operator&gt;=()</text>
<text text-anchor="start" x="636" y="-306.5" font-family="Helvetica,sans-Serif" font-size="10.00">+ operator&gt;()</text>
<text text-anchor="start" x="636" y="-295.5" font-family="Helvetica,sans-Serif" font-size="10.00">+ operator&#45;()</text>
<text text-anchor="start" x="636" y="-284.5" font-family="Helvetica,sans-Serif" font-size="10.00">and 23 more...</text>
<text text-anchor="start" x="636" y="-273.5" font-family="Helvetica,sans-Serif" font-size="10.00">+ FromDouble()</text>
<text text-anchor="start" x="636" y="-262.5" font-family="Helvetica,sans-Serif" font-size="10.00">+ FromInt()</text>
<text text-anchor="start" x="636" y="-251.5" font-family="Helvetica,sans-Serif" font-size="10.00">&#45; AdjustToSameScale()</text>
</a>
</g>
</g>
<!-- Node10&#45;&gt;Node17 -->
<g id="edge19" class="edge"><title>Node10&#45;&gt;Node17</title>
<path fill="none" stroke="#404040" d="M806.702,-521.735C786.423,-498.8 759.573,-468.227 755,-462 754.342,-461.103 753.683,-460.2 753.026,-459.291"/>
<polygon fill="none" stroke="#404040" points="752.927,-459.151 746.198,-456.558 746.005,-449.349 752.733,-451.943 752.927,-459.151"/>
<text text-anchor="middle" x="806.5" y="-488.5" font-family="Helvetica,sans-Serif" font-size="10.00"> &#45;value_</text>
</g>
<!-- Node11 -->
<g id="node11" class="node"><title>Node11</title>
<polygon fill="white" stroke="#bfbfbf" points="1013,-520.5 1013,-577.5 1059,-577.5 1059,-520.5 1013,-520.5"/>
<text text-anchor="middle" x="1036" y="-565.5" font-family="Helvetica,sans-Serif" font-size="10.00">int32_t</text>
<polyline fill="none" stroke="#bfbfbf" points="1013,-558.5 1059,-558.5 "/>
<text text-anchor="middle" x="1036" y="-546.5" font-family="Helvetica,sans-Serif" font-size="10.00"> </text>
<polyline fill="none" stroke="#bfbfbf" points="1013,-539.5 1059,-539.5 "/>
<text text-anchor="middle" x="1036" y="-527.5" font-family="Helvetica,sans-Serif" font-size="10.00"> </text>
</g>
<!-- Node11&#45;&gt;Node1 -->
<g id="edge10" class="edge"><title>Node11&#45;&gt;Node1</title>
<path fill="none" stroke="#404040" d="M1019.04,-520.292C1009.72,-503.889 998.718,-482.389 992,-462 960.421,-366.164 996.993,-329.752 955,-238 917.405,-155.856 810.363,-120.274 742.023,-105.583"/>
<polygon fill="none" stroke="#404040" points="741.912,-105.56 735.232,-108.278 730.155,-103.157 736.834,-100.44 741.912,-105.56"/>
<text text-anchor="middle" x="1011" y="-347.5" font-family="Helvetica,sans-Serif" font-size="10.00"> +int_val</text>
</g>
<!-- Node19 -->
<g id="node19" class="node"><title>Node19</title>
<g id="a_node19"><a xlink:href="classimpala_1_1DecimalValue.html" target="_top" xlink:title="{impala::DecimalValue\l\&lt; int32_t \&gt;\n||+ DecimalValue()\l+ DecimalValue()\l+ operator=()\l+ operator==()\l+ operator!=()\l+ operator\&lt;=()\l+ operator\&lt;()\l+ operator\&gt;=()\l+ operator\&gt;()\l+ operator&#45;()\land 23 more...\l+ FromDouble()\l+ FromInt()\l&#45; AdjustToSameScale()\l}">
<polygon fill="white" stroke="black" points="1103,-244.5 1103,-455.5 1221,-455.5 1221,-244.5 1103,-244.5"/>
<text text-anchor="start" x="1111" y="-443.5" font-family="Helvetica,sans-Serif" font-size="10.00">impala::DecimalValue</text>
<text text-anchor="middle" x="1162" y="-432.5" font-family="Helvetica,sans-Serif" font-size="10.00">&lt; int32_t &gt;</text>
<polyline fill="none" stroke="black" points="1103,-425.5 1221,-425.5 "/>
<text text-anchor="middle" x="1162" y="-413.5" font-family="Helvetica,sans-Serif" font-size="10.00"> </text>
<polyline fill="none" stroke="black" points="1103,-406.5 1221,-406.5 "/>
<text text-anchor="start" x="1111" y="-394.5" font-family="Helvetica,sans-Serif" font-size="10.00">+ DecimalValue()</text>
<text text-anchor="start" x="1111" y="-383.5" font-family="Helvetica,sans-Serif" font-size="10.00">+ DecimalValue()</text>
<text text-anchor="start" x="1111" y="-372.5" font-family="Helvetica,sans-Serif" font-size="10.00">+ operator=()</text>
<text text-anchor="start" x="1111" y="-361.5" font-family="Helvetica,sans-Serif" font-size="10.00">+ operator==()</text>
<text text-anchor="start" x="1111" y="-350.5" font-family="Helvetica,sans-Serif" font-size="10.00">+ operator!=()</text>
<text text-anchor="start" x="1111" y="-339.5" font-family="Helvetica,sans-Serif" font-size="10.00">+ operator&lt;=()</text>
<text text-anchor="start" x="1111" y="-328.5" font-family="Helvetica,sans-Serif" font-size="10.00">+ operator&lt;()</text>
<text text-anchor="start" x="1111" y="-317.5" font-family="Helvetica,sans-Serif" font-size="10.00">+ operator&gt;=()</text>
<text text-anchor="start" x="1111" y="-306.5" font-family="Helvetica,sans-Serif" font-size="10.00">+ operator&gt;()</text>
<text text-anchor="start" x="1111" y="-295.5" font-family="Helvetica,sans-Serif" font-size="10.00">+ operator&#45;()</text>
<text text-anchor="start" x="1111" y="-284.5" font-family="Helvetica,sans-Serif" font-size="10.00">and 23 more...</text>
<text text-anchor="start" x="1111" y="-273.5" font-family="Helvetica,sans-Serif" font-size="10.00">+ FromDouble()</text>
<text text-anchor="start" x="1111" y="-262.5" font-family="Helvetica,sans-Serif" font-size="10.00">+ FromInt()</text>
<text text-anchor="start" x="1111" y="-251.5" font-family="Helvetica,sans-Serif" font-size="10.00">&#45; AdjustToSameScale()</text>
</a>
</g>
</g>
<!-- Node11&#45;&gt;Node19 -->
<g id="edge22" class="edge"><title>Node11&#45;&gt;Node19</title>
<path fill="none" stroke="#404040" d="M1055.12,-520.318C1066.58,-503.561 1081.34,-481.691 1094,-462 1094.73,-460.86 1095.47,-459.711 1096.21,-458.557"/>
<polygon fill="none" stroke="#404040" points="1096.47,-458.143 1096.31,-450.934 1102.91,-448.016 1103.07,-455.225 1096.47,-458.143"/>
<text text-anchor="middle" x="1099.5" y="-488.5" font-family="Helvetica,sans-Serif" font-size="10.00"> &#45;value_</text>
</g>
<!-- Node12 -->
<g id="node12" class="node"><title>Node12</title>
<polygon fill="white" stroke="#bfbfbf" points="764.5,-321.5 764.5,-378.5 805.5,-378.5 805.5,-321.5 764.5,-321.5"/>
<text text-anchor="middle" x="785" y="-366.5" font-family="Helvetica,sans-Serif" font-size="10.00">string</text>
<polyline fill="none" stroke="#bfbfbf" points="764.5,-359.5 805.5,-359.5 "/>
<text text-anchor="middle" x="785" y="-347.5" font-family="Helvetica,sans-Serif" font-size="10.00"> </text>
<polyline fill="none" stroke="#bfbfbf" points="764.5,-340.5 805.5,-340.5 "/>
<text text-anchor="middle" x="785" y="-328.5" font-family="Helvetica,sans-Serif" font-size="10.00"> </text>
</g>
<!-- Node12&#45;&gt;Node1 -->
<g id="edge11" class="edge"><title>Node12&#45;&gt;Node1</title>
<path fill="none" stroke="#404040" d="M780.708,-321.455C775.609,-292.452 765.752,-245.838 750,-208 745.966,-198.311 741.178,-188.477 736.038,-178.864"/>
<polygon fill="none" stroke="#404040" points="735.908,-178.629 729.506,-175.311 730.107,-168.125 736.509,-171.443 735.908,-178.629"/>
<text text-anchor="middle" x="782.5" y="-211.5" font-family="Helvetica,sans-Serif" font-size="10.00"> &#45;string_data</text>
</g>
<!-- Node13&#45;&gt;Node1 -->
<g id="edge12" class="edge"><title>Node13&#45;&gt;Node1</title>
<path fill="none" stroke="#404040" d="M588.027,-244.324C593.705,-231.906 599.746,-219.551 606,-208 612.404,-196.173 619.743,-184.036 627.279,-172.319"/>
<polygon fill="none" stroke="#404040" points="627.363,-172.19 627.301,-164.979 633.934,-162.149 633.996,-169.36 627.363,-172.19"/>
<text text-anchor="middle" x="642.5" y="-211.5" font-family="Helvetica,sans-Serif" font-size="10.00"> +timestamp_val</text>
</g>
<!-- Node14 -->
<g id="node14" class="node"><title>Node14</title>
<polygon fill="white" stroke="#bfbfbf" points="650.5,-520.5 650.5,-577.5 685.5,-577.5 685.5,-520.5 650.5,-520.5"/>
<text text-anchor="middle" x="668" y="-565.5" font-family="Helvetica,sans-Serif" font-size="10.00">date</text>
<polyline fill="none" stroke="#bfbfbf" points="650.5,-558.5 685.5,-558.5 "/>
<text text-anchor="middle" x="668" y="-546.5" font-family="Helvetica,sans-Serif" font-size="10.00"> </text>
<polyline fill="none" stroke="#bfbfbf" points="650.5,-539.5 685.5,-539.5 "/>
<text text-anchor="middle" x="668" y="-527.5" font-family="Helvetica,sans-Serif" font-size="10.00"> </text>
</g>
<!-- Node14&#45;&gt;Node13 -->
<g id="edge15" class="edge"><title>Node14&#45;&gt;Node13</title>
<path fill="none" stroke="#404040" d="M661.202,-520.483C657.075,-507.383 650.858,-491.998 642,-480 634.29,-469.557 627.763,-471.576 619,-462 618.503,-461.457 618.008,-460.911 617.513,-460.36"/>
<polygon fill="none" stroke="#404040" points="617.433,-460.266 610.49,-458.318 609.618,-451.159 616.561,-453.108 617.433,-460.266"/>
<text text-anchor="middle" x="669.5" y="-488.5" font-family="Helvetica,sans-Serif" font-size="10.00"> &#45;date_</text>
</g>
<!-- Node15 -->
<g id="node15" class="node"><title>Node15</title>
<polygon fill="white" stroke="#bfbfbf" points="703.5,-520.5 703.5,-577.5 778.5,-577.5 778.5,-520.5 703.5,-520.5"/>
<text text-anchor="middle" x="741" y="-565.5" font-family="Helvetica,sans-Serif" font-size="10.00">time_duration</text>
<polyline fill="none" stroke="#bfbfbf" points="703.5,-558.5 778.5,-558.5 "/>
<text text-anchor="middle" x="741" y="-546.5" font-family="Helvetica,sans-Serif" font-size="10.00"> </text>
<polyline fill="none" stroke="#bfbfbf" points="703.5,-539.5 778.5,-539.5 "/>
<text text-anchor="middle" x="741" y="-527.5" font-family="Helvetica,sans-Serif" font-size="10.00"> </text>
</g>
<!-- Node15&#45;&gt;Node13 -->
<g id="edge16" class="edge"><title>Node15&#45;&gt;Node13</title>
<path fill="none" stroke="#404040" d="M725.819,-520.18C716.842,-506.183 704.242,-490.091 689,-480 662.215,-462.266 645.078,-480.757 619,-462 618.898,-461.927 618.796,-461.853 618.694,-461.779"/>
<polygon fill="none" stroke="#404040" points="618.884,-461.932 611.702,-461.282 609.539,-454.403 616.721,-455.053 618.884,-461.932"/>
<text text-anchor="middle" x="727.5" y="-488.5" font-family="Helvetica,sans-Serif" font-size="10.00"> &#45;time_</text>
</g>
<!-- Node16 -->
<g id="node16" class="node"><title>Node16</title>
<g id="a_node16"><a xlink:href="classbool.html" target="_top" xlink:title="{bool\n||}">
<polygon fill="white" stroke="black" points="911.5,-321.5 911.5,-378.5 946.5,-378.5 946.5,-321.5 911.5,-321.5"/>
<text text-anchor="middle" x="929" y="-366.5" font-family="Helvetica,sans-Serif" font-size="10.00">bool</text>
<polyline fill="none" stroke="black" points="911.5,-359.5 946.5,-359.5 "/>
<text text-anchor="middle" x="929" y="-347.5" font-family="Helvetica,sans-Serif" font-size="10.00"> </text>
<polyline fill="none" stroke="black" points="911.5,-340.5 946.5,-340.5 "/>
<text text-anchor="middle" x="929" y="-328.5" font-family="Helvetica,sans-Serif" font-size="10.00"> </text>
</a>
</g>
</g>
<!-- Node16&#45;&gt;Node1 -->
<g id="edge17" class="edge"><title>Node16&#45;&gt;Node1</title>
<path fill="none" stroke="#404040" d="M926.092,-321.299C922.468,-297.435 914.461,-262.989 897,-238 858.373,-182.721 790.679,-143.304 741.549,-120.237"/>
<polygon fill="none" stroke="#404040" points="741.339,-120.141 734.218,-121.28 730.428,-115.145 737.549,-114.006 741.339,-120.141"/>
<text text-anchor="middle" x="903" y="-211.5" font-family="Helvetica,sans-Serif" font-size="10.00"> +bool_val</text>
</g>
<!-- Node17&#45;&gt;Node1 -->
<g id="edge18" class="edge"><title>Node17&#45;&gt;Node1</title>
<path fill="none" stroke="#404040" d="M683.555,-244.454C683.345,-236.181 683.155,-227.953 683,-220 682.886,-214.185 682.786,-208.216 682.696,-202.191"/>
<polygon fill="none" stroke="#404040" points="682.691,-201.775 678.61,-195.83 682.528,-189.776 686.609,-195.721 682.691,-201.775"/>
<text text-anchor="middle" x="716.5" y="-211.5" font-family="Helvetica,sans-Serif" font-size="10.00"> +decimal8_val</text>
</g>
<!-- Node18 -->
<g id="node18" class="node"><title>Node18</title>
<polygon fill="white" stroke="#bfbfbf" points="1039,-321.5 1039,-378.5 1085,-378.5 1085,-321.5 1039,-321.5"/>
<text text-anchor="middle" x="1062" y="-366.5" font-family="Helvetica,sans-Serif" font-size="10.00">int16_t</text>
<polyline fill="none" stroke="#bfbfbf" points="1039,-359.5 1085,-359.5 "/>
<text text-anchor="middle" x="1062" y="-347.5" font-family="Helvetica,sans-Serif" font-size="10.00"> </text>
<polyline fill="none" stroke="#bfbfbf" points="1039,-340.5 1085,-340.5 "/>
<text text-anchor="middle" x="1062" y="-328.5" font-family="Helvetica,sans-Serif" font-size="10.00"> </text>
</g>
<!-- Node18&#45;&gt;Node1 -->
<g id="edge20" class="edge"><title>Node18&#45;&gt;Node1</title>
<path fill="none" stroke="#404040" d="M1058.06,-321.345C1051.69,-288.023 1035.65,-233.363 997,-208 916.599,-155.238 808.321,-123.858 741.931,-108.283"/>
<polygon fill="none" stroke="#404040" points="741.735,-108.238 734.993,-110.796 730.038,-105.557 736.78,-102.999 741.735,-108.238"/>
<text text-anchor="middle" x="1040.5" y="-211.5" font-family="Helvetica,sans-Serif" font-size="10.00"> +smallint_val</text>
</g>
<!-- Node19&#45;&gt;Node1 -->
<g id="edge21" class="edge"><title>Node19&#45;&gt;Node1</title>
<path fill="none" stroke="#404040" d="M1110.35,-244.359C1100.14,-230.689 1088.36,-217.989 1075,-208 974.334,-132.748 824.791,-108.012 742.226,-99.9132"/>
<polygon fill="none" stroke="#404040" points="742.005,-99.8929 735.664,-103.326 730.056,-98.7929 736.397,-95.3598 742.005,-99.8929"/>
<text text-anchor="middle" x="1122.5" y="-211.5" font-family="Helvetica,sans-Serif" font-size="10.00"> +decimal4_val</text>
</g>
</g>
</svg>
