<?xml version="1.0" encoding="UTF-8" standalone="no"?>
<!DOCTYPE svg PUBLIC "-//W3C//DTD SVG 1.1//EN"
 "http://www.w3.org/Graphics/SVG/1.1/DTD/svg11.dtd">
<!-- Generated by graphviz version 2.36.0 (20140111.2315)
 -->
<!-- Title: impala::JniContext Pages: 1 -->
<svg width="529pt" height="310pt"
 viewBox="0.00 0.00 528.56 310.00" xmlns="http://www.w3.org/2000/svg" xmlns:xlink="http://www.w3.org/1999/xlink">
<g id="graph0" class="graph" transform="scale(1 1) rotate(0) translate(4 306)">
<title>impala::JniContext</title>
<polygon fill="white" stroke="none" points="-4,4 -4,-306 524.562,-306 524.562,4 -4,4"/>
<!-- Node1 -->
<g id="node1" class="node"><title>Node1</title>
<polygon fill="#bfbfbf" stroke="black" points="224.562,-0.5 224.562,-57.5 322.562,-57.5 322.562,-0.5 224.562,-0.5"/>
<text text-anchor="middle" x="273.562" y="-45.5" font-family="Helvetica,sans-Serif" font-size="10.00">impala::JniContext</text>
<polyline fill="none" stroke="black" points="224.562,-38.5 322.562,-38.5 "/>
<text text-anchor="middle" x="273.562" y="-26.5" font-family="Helvetica,sans-Serif" font-size="10.00"> </text>
<polyline fill="none" stroke="black" points="224.562,-19.5 322.562,-19.5 "/>
<text text-anchor="start" x="232.562" y="-7.5" font-family="Helvetica,sans-Serif" font-size="10.00">+ JniContext()</text>
</g>
<!-- Node2 -->
<g id="node2" class="node"><title>Node2</title>
<g id="a_node2"><a xlink:href="structimpala__udf_1_1AnyVal.html" target="_top" xlink:title="{impala_udf::AnyVal\n||+ AnyVal()\l}">
<polygon fill="white" stroke="black" points="96.0622,-138.5 96.0622,-195.5 197.062,-195.5 197.062,-138.5 96.0622,-138.5"/>
<text text-anchor="middle" x="146.562" y="-183.5" font-family="Helvetica,sans-Serif" font-size="10.00">impala_udf::AnyVal</text>
<polyline fill="none" stroke="black" points="96.0622,-176.5 197.062,-176.5 "/>
<text text-anchor="middle" x="146.562" y="-164.5" font-family="Helvetica,sans-Serif" font-size="10.00"> </text>
<polyline fill="none" stroke="black" points="96.0622,-157.5 197.062,-157.5 "/>
<text text-anchor="start" x="104.062" y="-145.5" font-family="Helvetica,sans-Serif" font-size="10.00">+ AnyVal()</text>
</a>
</g>
</g>
<!-- Node2&#45;&gt;Node1 -->
<g id="edge1" class="edge"><title>Node2&#45;&gt;Node1</title>
<path fill="none" stroke="#404040" d="M144.125,-138.418C143.887,-119.013 146.729,-93.4865 160.562,-76 173.573,-59.5521 193.423,-48.9462 212.876,-42.1236"/>
<polygon fill="none" stroke="#404040" points="213.106,-42.051 217.623,-36.4298 224.549,-38.4373 220.032,-44.0585 213.106,-42.051"/>
<text text-anchor="middle" x="195.562" y="-95.5" font-family="Helvetica,sans-Serif" font-size="10.00"> +output_anyval</text>
</g>
<!-- Node3 -->
<g id="node3" class="node"><title>Node3</title>
<g id="a_node3"><a xlink:href="classbool.html" target="_top" xlink:title="{bool\n||}">
<polygon fill="white" stroke="black" points="27.0622,-244.5 27.0622,-301.5 62.0622,-301.5 62.0622,-244.5 27.0622,-244.5"/>
<text text-anchor="middle" x="44.5622" y="-289.5" font-family="Helvetica,sans-Serif" font-size="10.00">bool</text>
<polyline fill="none" stroke="black" points="27.0622,-282.5 62.0622,-282.5 "/>
<text text-anchor="middle" x="44.5622" y="-270.5" font-family="Helvetica,sans-Serif" font-size="10.00"> </text>
<polyline fill="none" stroke="black" points="27.0622,-263.5 62.0622,-263.5 "/>
<text text-anchor="middle" x="44.5622" y="-251.5" font-family="Helvetica,sans-Serif" font-size="10.00"> </text>
</a>
</g>
</g>
<!-- Node3&#45;&gt;Node1 -->
<g id="edge4" class="edge"><title>Node3&#45;&gt;Node1</title>
<path fill="none" stroke="#404040" d="M27.0069,-246.964C9.48804,-218.592 -11.9655,-171.896 9.56216,-138 52.9949,-69.6147 148.727,-44.5271 212.179,-35.3259"/>
<polygon fill="none" stroke="#404040" points="212.52,-35.2804 217.937,-30.5202 224.414,-33.6894 218.997,-38.4496 212.52,-35.2804"/>
<text text-anchor="middle" x="48.0622" y="-164.5" font-family="Helvetica,sans-Serif" font-size="10.00"> +warning_logged</text>
</g>
<!-- Node3&#45;&gt;Node2 -->
<g id="edge2" class="edge"><title>Node3&#45;&gt;Node2</title>
<path fill="none" stroke="#404040" d="M62.3292,-253.885C75.6211,-240.332 94.2474,-221.341 110.606,-204.661"/>
<polygon fill="none" stroke="#404040" points="111.01,-204.25 112.355,-197.165 119.412,-195.682 118.067,-202.767 111.01,-204.25"/>
<text text-anchor="middle" x="118.062" y="-217.5" font-family="Helvetica,sans-Serif" font-size="10.00"> +is_null</text>
</g>
<!-- Node4 -->
<g id="node4" class="node"><title>Node4</title>
<polygon fill="white" stroke="#bfbfbf" points="216.062,-138.5 216.062,-195.5 261.062,-195.5 261.062,-138.5 216.062,-138.5"/>
<text text-anchor="middle" x="238.562" y="-183.5" font-family="Helvetica,sans-Serif" font-size="10.00">jobject</text>
<polyline fill="none" stroke="#bfbfbf" points="216.062,-176.5 261.062,-176.5 "/>
<text text-anchor="middle" x="238.562" y="-164.5" font-family="Helvetica,sans-Serif" font-size="10.00"> </text>
<polyline fill="none" stroke="#bfbfbf" points="216.062,-157.5 261.062,-157.5 "/>
<text text-anchor="middle" x="238.562" y="-145.5" font-family="Helvetica,sans-Serif" font-size="10.00"> </text>
</g>
<!-- Node4&#45;&gt;Node1 -->
<g id="edge3" class="edge"><title>Node4&#45;&gt;Node1</title>
<path fill="none" stroke="#404040" d="M234.558,-138.494C232.941,-120.288 232.8,-96.1469 239.562,-76 240.469,-73.2992 241.599,-70.626 242.891,-68.0082"/>
<polygon fill="none" stroke="#404040" points="242.903,-67.9882 242.479,-60.7896 248.961,-57.6295 249.385,-64.8281 242.903,-67.9882"/>
<text text-anchor="middle" x="263.062" y="-95.5" font-family="Helvetica,sans-Serif" font-size="10.00"> +executor</text>
</g>
<!-- Node5 -->
<g id="node5" class="node"><title>Node5</title>
<polygon fill="white" stroke="#bfbfbf" points="285.562,-138.5 285.562,-195.5 331.562,-195.5 331.562,-138.5 285.562,-138.5"/>
<text text-anchor="middle" x="308.562" y="-183.5" font-family="Helvetica,sans-Serif" font-size="10.00">uint8_t</text>
<polyline fill="none" stroke="#bfbfbf" points="285.562,-176.5 331.562,-176.5 "/>
<text text-anchor="middle" x="308.562" y="-164.5" font-family="Helvetica,sans-Serif" font-size="10.00"> </text>
<polyline fill="none" stroke="#bfbfbf" points="285.562,-157.5 331.562,-157.5 "/>
<text text-anchor="middle" x="308.562" y="-145.5" font-family="Helvetica,sans-Serif" font-size="10.00"> </text>
</g>
<!-- Node5&#45;&gt;Node1 -->
<g id="edge5" class="edge"><title>Node5&#45;&gt;Node1</title>
<path fill="none" stroke="#404040" d="M302.076,-138.363C297.823,-120.525 292.053,-96.8429 286.562,-76 286,-73.8658 285.414,-71.6786 284.816,-69.4725"/>
<polygon fill="none" stroke="#404040" points="284.755,-69.2531 279.302,-64.5352 281.559,-57.6866 287.013,-62.4044 284.755,-69.2531"/>
<text text-anchor="middle" x="343.562" y="-112" font-family="Helvetica,sans-Serif" font-size="10.00"> +output_null_value</text>
<text text-anchor="middle" x="343.562" y="-101" font-family="Helvetica,sans-Serif" font-size="10.00">+input_nulls_buffer</text>
<text text-anchor="middle" x="343.562" y="-90" font-family="Helvetica,sans-Serif" font-size="10.00">+output_value_buffer</text>
<text text-anchor="middle" x="343.562" y="-79" font-family="Helvetica,sans-Serif" font-size="10.00">+input_values_buffer</text>
</g>
<!-- Node6 -->
<g id="node6" class="node"><title>Node6</title>
<polygon fill="white" stroke="#bfbfbf" points="392.562,-138.5 392.562,-195.5 454.562,-195.5 454.562,-138.5 392.562,-138.5"/>
<text text-anchor="middle" x="423.562" y="-183.5" font-family="Helvetica,sans-Serif" font-size="10.00">jmethodID</text>
<polyline fill="none" stroke="#bfbfbf" points="392.562,-176.5 454.562,-176.5 "/>
<text text-anchor="middle" x="423.562" y="-164.5" font-family="Helvetica,sans-Serif" font-size="10.00"> </text>
<polyline fill="none" stroke="#bfbfbf" points="392.562,-157.5 454.562,-157.5 "/>
<text text-anchor="middle" x="423.562" y="-145.5" font-family="Helvetica,sans-Serif" font-size="10.00"> </text>
</g>
<!-- Node6&#45;&gt;Node1 -->
<g id="edge6" class="edge"><title>Node6&#45;&gt;Node1</title>
<path fill="none" stroke="#404040" d="M420.631,-138.407C417.191,-118.742 409.729,-92.8999 393.562,-76 377.751,-59.4722 355.359,-48.8049 334.194,-41.9549"/>
<polygon fill="none" stroke="#404040" points="334.118,-41.9325 327.23,-44.0665 322.61,-38.5291 329.499,-36.395 334.118,-41.9325"/>
<text text-anchor="middle" x="443.562" y="-101" font-family="Helvetica,sans-Serif" font-size="10.00"> +evalute_id</text>
<text text-anchor="middle" x="443.562" y="-90" font-family="Helvetica,sans-Serif" font-size="10.00">+close_id</text>
</g>
<!-- Node7 -->
<g id="node7" class="node"><title>Node7</title>
<polygon fill="white" stroke="#bfbfbf" points="479.562,-138.5 479.562,-195.5 521.562,-195.5 521.562,-138.5 479.562,-138.5"/>
<text text-anchor="middle" x="500.562" y="-183.5" font-family="Helvetica,sans-Serif" font-size="10.00">jclass</text>
<polyline fill="none" stroke="#bfbfbf" points="479.562,-176.5 521.562,-176.5 "/>
<text text-anchor="middle" x="500.562" y="-164.5" font-family="Helvetica,sans-Serif" font-size="10.00"> </text>
<polyline fill="none" stroke="#bfbfbf" points="479.562,-157.5 521.562,-157.5 "/>
<text text-anchor="middle" x="500.562" y="-145.5" font-family="Helvetica,sans-Serif" font-size="10.00"> </text>
</g>
<!-- Node7&#45;&gt;Node1 -->
<g id="edge7" class="edge"><title>Node7&#45;&gt;Node1</title>
<path fill="none" stroke="#404040" d="M499.716,-138.213C497.596,-118.187 491.464,-91.9765 474.562,-76 454.572,-57.1042 386.148,-44.3179 334.644,-37.1155"/>
<polygon fill="none" stroke="#404040" points="334.509,-37.0973 328.027,-40.258 322.617,-35.4907 329.098,-32.33 334.509,-37.0973"/>
<text text-anchor="middle" x="505.062" y="-95.5" font-family="Helvetica,sans-Serif" font-size="10.00"> +cl</text>
</g>
</g>
</svg>
