<?xml version="1.0" encoding="UTF-8" standalone="no"?>
<!DOCTYPE svg PUBLIC "-//W3C//DTD SVG 1.1//EN"
 "http://www.w3.org/Graphics/SVG/1.1/DTD/svg11.dtd">
<!-- Generated by graphviz version 2.36.0 (20140111.2315)
 -->
<!-- Title: impala::InternalQueue&lt; T &gt;::Node Pages: 1 -->
<svg width="383pt" height="476pt"
 viewBox="0.00 0.00 383.00 476.00" xmlns="http://www.w3.org/2000/svg" xmlns:xlink="http://www.w3.org/1999/xlink">
<g id="graph0" class="graph" transform="scale(1 1) rotate(0) translate(4 472)">
<title>impala::InternalQueue&lt; T &gt;::Node</title>
<polygon fill="white" stroke="none" points="-4,4 -4,-472 379,-472 379,4 -4,4"/>
<!-- Node1 -->
<g id="node1" class="node"><title>Node1</title>
<polygon fill="#bfbfbf" stroke="black" points="0,-254.5 0,-355.5 112,-355.5 112,-254.5 0,-254.5"/>
<text text-anchor="start" x="8" y="-343.5" font-family="Helvetica,sans-Serif" font-size="10.00">impala::InternalQueue</text>
<text text-anchor="middle" x="56" y="-332.5" font-family="Helvetica,sans-Serif" font-size="10.00">&lt; T &gt;::Node</text>
<polyline fill="none" stroke="black" points="0,-325.5 112,-325.5 "/>
<text text-anchor="middle" x="56" y="-313.5" font-family="Helvetica,sans-Serif" font-size="10.00"> </text>
<polyline fill="none" stroke="black" points="0,-306.5 112,-306.5 "/>
<text text-anchor="start" x="8" y="-294.5" font-family="Helvetica,sans-Serif" font-size="10.00">+ Node()</text>
<text text-anchor="start" x="8" y="-283.5" font-family="Helvetica,sans-Serif" font-size="10.00">+ ~Node()</text>
<text text-anchor="start" x="8" y="-272.5" font-family="Helvetica,sans-Serif" font-size="10.00">+ Next()</text>
<text text-anchor="start" x="8" y="-261.5" font-family="Helvetica,sans-Serif" font-size="10.00">+ Prev()</text>
</g>
<!-- Node1&#45;&gt;Node1 -->
<g id="edge1" class="edge"><title>Node1&#45;&gt;Node1</title>
<path fill="none" stroke="#404040" d="M112.01,-319.12C122.013,-317.285 129,-312.578 129,-305 129,-300.856 126.91,-297.57 123.381,-295.143"/>
<polygon fill="none" stroke="#404040" points="123.246,-295.093 116.224,-296.732 112.01,-290.88 119.032,-289.241 123.246,-295.093"/>
<text text-anchor="middle" x="141.5" y="-308" font-family="Helvetica,sans-Serif" font-size="10.00"> &#45;prev</text>
<text text-anchor="middle" x="141.5" y="-297" font-family="Helvetica,sans-Serif" font-size="10.00">&#45;next</text>
</g>
<!-- Node2 -->
<g id="node2" class="node"><title>Node2</title>
<g id="a_node2"><a xlink:href="classimpala_1_1InternalQueue.html" target="_top" xlink:title="T must be a subclass of InternalQueue::Node. ">
<polygon fill="white" stroke="black" points="83,-0.5 83,-189.5 219,-189.5 219,-0.5 83,-0.5"/>
<text text-anchor="middle" x="151" y="-177.5" font-family="Helvetica,sans-Serif" font-size="10.00">impala::InternalQueue&lt; T &gt;</text>
<polyline fill="none" stroke="black" points="83,-170.5 219,-170.5 "/>
<text text-anchor="middle" x="151" y="-158.5" font-family="Helvetica,sans-Serif" font-size="10.00"> </text>
<polyline fill="none" stroke="black" points="83,-151.5 219,-151.5 "/>
<text text-anchor="start" x="91" y="-139.5" font-family="Helvetica,sans-Serif" font-size="10.00">+ InternalQueue()</text>
<text text-anchor="start" x="91" y="-128.5" font-family="Helvetica,sans-Serif" font-size="10.00">+ head()</text>
<text text-anchor="start" x="91" y="-117.5" font-family="Helvetica,sans-Serif" font-size="10.00">+ tail()</text>
<text text-anchor="start" x="91" y="-106.5" font-family="Helvetica,sans-Serif" font-size="10.00">+ Enqueue()</text>
<text text-anchor="start" x="91" y="-95.5" font-family="Helvetica,sans-Serif" font-size="10.00">+ Dequeue()</text>
<text text-anchor="start" x="91" y="-84.5" font-family="Helvetica,sans-Serif" font-size="10.00">+ PopBack()</text>
<text text-anchor="start" x="91" y="-73.5" font-family="Helvetica,sans-Serif" font-size="10.00">+ Remove()</text>
<text text-anchor="start" x="91" y="-62.5" font-family="Helvetica,sans-Serif" font-size="10.00">+ Clear()</text>
<text text-anchor="start" x="91" y="-51.5" font-family="Helvetica,sans-Serif" font-size="10.00">+ size()</text>
<text text-anchor="start" x="91" y="-40.5" font-family="Helvetica,sans-Serif" font-size="10.00">+ empty()</text>
<text text-anchor="start" x="91" y="-29.5" font-family="Helvetica,sans-Serif" font-size="10.00">+ Contains()</text>
<text text-anchor="start" x="91" y="-18.5" font-family="Helvetica,sans-Serif" font-size="10.00">+ Validate()</text>
<text text-anchor="start" x="91" y="-7.5" font-family="Helvetica,sans-Serif" font-size="10.00">+ DebugString()</text>
</a>
</g>
</g>
<!-- Node1&#45;&gt;Node2 -->
<g id="edge6" class="edge"><title>Node1&#45;&gt;Node2</title>
<path fill="none" stroke="#404040" d="M51.4653,-254.459C51.6575,-239.155 53.545,-222.516 59,-208 63.293,-196.576 69.2615,-185.46 76.1165,-174.947"/>
<polygon fill="none" stroke="#404040" points="76.1218,-174.939 76.2354,-167.729 82.9347,-165.06 82.8211,-172.271 76.1218,-174.939"/>
<text text-anchor="middle" x="74" y="-222" font-family="Helvetica,sans-Serif" font-size="10.00"> &#45;tail_</text>
<text text-anchor="middle" x="74" y="-211" font-family="Helvetica,sans-Serif" font-size="10.00">&#45;head_</text>
</g>
<!-- Node2&#45;&gt;Node1 -->
<g id="edge2" class="edge"><title>Node2&#45;&gt;Node1</title>
<path fill="none" stroke="#404040" d="M108.248,-189.605C99.9492,-207.774 91.4555,-226.371 83.7933,-243.147"/>
<polygon fill="none" stroke="#404040" points="83.6196,-243.528 84.7654,-250.647 78.6342,-254.443 77.4884,-247.324 83.6196,-243.528"/>
<text text-anchor="middle" x="130.5" y="-216.5" font-family="Helvetica,sans-Serif" font-size="10.00"> &#45;parent_queue</text>
</g>
<!-- Node3 -->
<g id="node3" class="node"><title>Node3</title>
<g id="a_node3"><a xlink:href="classimpala_1_1SpinLock.html" target="_top" xlink:title="Lightweight spinlock. ">
<polygon fill="white" stroke="black" points="239.5,-249 239.5,-361 338.5,-361 338.5,-249 239.5,-249"/>
<text text-anchor="middle" x="289" y="-349" font-family="Helvetica,sans-Serif" font-size="10.00">impala::SpinLock</text>
<polyline fill="none" stroke="black" points="239.5,-342 338.5,-342 "/>
<text text-anchor="middle" x="289" y="-330" font-family="Helvetica,sans-Serif" font-size="10.00"> </text>
<polyline fill="none" stroke="black" points="239.5,-323 338.5,-323 "/>
<text text-anchor="start" x="247.5" y="-311" font-family="Helvetica,sans-Serif" font-size="10.00">+ SpinLock()</text>
<text text-anchor="start" x="247.5" y="-300" font-family="Helvetica,sans-Serif" font-size="10.00">+ lock()</text>
<text text-anchor="start" x="247.5" y="-289" font-family="Helvetica,sans-Serif" font-size="10.00">+ unlock()</text>
<text text-anchor="start" x="247.5" y="-278" font-family="Helvetica,sans-Serif" font-size="10.00">+ try_lock()</text>
<text text-anchor="start" x="247.5" y="-267" font-family="Helvetica,sans-Serif" font-size="10.00">+ DCheckLocked()</text>
<text text-anchor="start" x="247.5" y="-256" font-family="Helvetica,sans-Serif" font-size="10.00">&#45; SlowAcquire()</text>
</a>
</g>
</g>
<!-- Node3&#45;&gt;Node2 -->
<g id="edge3" class="edge"><title>Node3&#45;&gt;Node2</title>
<path fill="none" stroke="#404040" d="M252.381,-248.806C242.396,-233.756 231.241,-216.943 220.083,-200.125"/>
<polygon fill="none" stroke="#404040" points="219.78,-199.668 213.13,-196.88 213.146,-189.669 219.796,-192.457 219.78,-199.668"/>
<text text-anchor="middle" x="252" y="-216.5" font-family="Helvetica,sans-Serif" font-size="10.00"> &#45;lock_</text>
</g>
<!-- Node4 -->
<g id="node4" class="node"><title>Node4</title>
<polygon fill="white" stroke="#bfbfbf" points="192.5,-410.5 192.5,-467.5 221.5,-467.5 221.5,-410.5 192.5,-410.5"/>
<text text-anchor="middle" x="207" y="-455.5" font-family="Helvetica,sans-Serif" font-size="10.00">int</text>
<polyline fill="none" stroke="#bfbfbf" points="192.5,-448.5 221.5,-448.5 "/>
<text text-anchor="middle" x="207" y="-436.5" font-family="Helvetica,sans-Serif" font-size="10.00"> </text>
<polyline fill="none" stroke="#bfbfbf" points="192.5,-429.5 221.5,-429.5 "/>
<text text-anchor="middle" x="207" y="-417.5" font-family="Helvetica,sans-Serif" font-size="10.00"> </text>
</g>
<!-- Node4&#45;&gt;Node2 -->
<g id="edge7" class="edge"><title>Node4&#45;&gt;Node2</title>
<path fill="none" stroke="#404040" d="M202.465,-410.302C195.102,-365.338 180.175,-274.177 168.285,-201.559"/>
<polygon fill="none" stroke="#404040" points="168.268,-201.457 163.351,-196.183 166.329,-189.615 171.246,-194.89 168.268,-201.457"/>
<text text-anchor="middle" x="210" y="-302.5" font-family="Helvetica,sans-Serif" font-size="10.00"> &#45;size_</text>
</g>
<!-- Node4&#45;&gt;Node3 -->
<g id="edge4" class="edge"><title>Node4&#45;&gt;Node3</title>
<path fill="none" stroke="#404040" d="M210.705,-410.406C212.795,-400.424 216.027,-389.323 221,-380 224.131,-374.131 227.837,-368.369 231.878,-362.811"/>
<polygon fill="none" stroke="#404040" points="232.099,-362.527 232.622,-355.335 239.462,-353.052 238.939,-360.244 232.099,-362.527"/>
<text text-anchor="middle" x="273.5" y="-383.5" font-family="Helvetica,sans-Serif" font-size="10.00"> &#45;NUM_SPIN_CYCLES</text>
</g>
<!-- Node5 -->
<g id="node5" class="node"><title>Node5</title>
<g id="a_node5"><a xlink:href="classbool.html" target="_top" xlink:title="{bool\n||}">
<polygon fill="white" stroke="black" points="334.5,-410.5 334.5,-467.5 369.5,-467.5 369.5,-410.5 334.5,-410.5"/>
<text text-anchor="middle" x="352" y="-455.5" font-family="Helvetica,sans-Serif" font-size="10.00">bool</text>
<polyline fill="none" stroke="black" points="334.5,-448.5 369.5,-448.5 "/>
<text text-anchor="middle" x="352" y="-436.5" font-family="Helvetica,sans-Serif" font-size="10.00"> </text>
<polyline fill="none" stroke="black" points="334.5,-429.5 369.5,-429.5 "/>
<text text-anchor="middle" x="352" y="-417.5" font-family="Helvetica,sans-Serif" font-size="10.00"> </text>
</a>
</g>
</g>
<!-- Node5&#45;&gt;Node3 -->
<g id="edge5" class="edge"><title>Node5&#45;&gt;Node3</title>
<path fill="none" stroke="#404040" d="M342.387,-410.227C338.792,-400.538 334.486,-389.672 330,-380 328.801,-377.414 327.548,-374.795 326.256,-372.163"/>
<polygon fill="none" stroke="#404040" points="326.186,-372.024 319.907,-368.478 320.766,-361.318 327.045,-364.864 326.186,-372.024"/>
<text text-anchor="middle" x="355" y="-383.5" font-family="Helvetica,sans-Serif" font-size="10.00"> &#45;locked_</text>
</g>
</g>
</svg>
