<?xml version="1.0" encoding="UTF-8" standalone="no"?>
<!DOCTYPE svg PUBLIC "-//W3C//DTD SVG 1.1//EN"
 "http://www.w3.org/Graphics/SVG/1.1/DTD/svg11.dtd">
<!-- Generated by graphviz version 2.36.0 (20140111.2315)
 -->
<!-- Title: impala::MemPool::ChunkInfo Pages: 1 -->
<svg width="251pt" height="216pt"
 viewBox="0.00 0.00 251.00 216.00" xmlns="http://www.w3.org/2000/svg" xmlns:xlink="http://www.w3.org/1999/xlink">
<g id="graph0" class="graph" transform="scale(1 1) rotate(0) translate(4 212)">
<title>impala::MemPool::ChunkInfo</title>
<polygon fill="white" stroke="none" points="-4,4 -4,-212 247,-212 247,4 -4,4"/>
<!-- Node1 -->
<g id="node1" class="node"><title>Node1</title>
<polygon fill="#bfbfbf" stroke="black" points="66.5,-1 66.5,-69 209.5,-69 209.5,-1 66.5,-1"/>
<text text-anchor="middle" x="138" y="-57" font-family="Helvetica,sans-Serif" font-size="10.00">impala::MemPool::ChunkInfo</text>
<polyline fill="none" stroke="black" points="66.5,-50 209.5,-50 "/>
<text text-anchor="middle" x="138" y="-38" font-family="Helvetica,sans-Serif" font-size="10.00"> </text>
<polyline fill="none" stroke="black" points="66.5,-31 209.5,-31 "/>
<text text-anchor="start" x="74.5" y="-19" font-family="Helvetica,sans-Serif" font-size="10.00">+ ChunkInfo()</text>
<text text-anchor="start" x="74.5" y="-8" font-family="Helvetica,sans-Serif" font-size="10.00">+ ChunkInfo()</text>
</g>
<!-- Node2 -->
<g id="node2" class="node"><title>Node2</title>
<polygon fill="white" stroke="#bfbfbf" points="-0.5,-150.5 -0.5,-207.5 28.5,-207.5 28.5,-150.5 -0.5,-150.5"/>
<text text-anchor="middle" x="14" y="-195.5" font-family="Helvetica,sans-Serif" font-size="10.00">int</text>
<polyline fill="none" stroke="#bfbfbf" points="-0.5,-188.5 28.5,-188.5 "/>
<text text-anchor="middle" x="14" y="-176.5" font-family="Helvetica,sans-Serif" font-size="10.00"> </text>
<polyline fill="none" stroke="#bfbfbf" points="-0.5,-169.5 28.5,-169.5 "/>
<text text-anchor="middle" x="14" y="-157.5" font-family="Helvetica,sans-Serif" font-size="10.00"> </text>
</g>
<!-- Node2&#45;&gt;Node1 -->
<g id="edge1" class="edge"><title>Node2&#45;&gt;Node1</title>
<path fill="none" stroke="#404040" d="M13.7299,-150.193C14.903,-130.929 19.3011,-105.669 33,-88 39.3159,-79.8539 47.2453,-72.8953 55.902,-66.9732"/>
<polygon fill="none" stroke="#404040" points="56.1507,-66.8188 59.1378,-60.2555 66.3452,-60.4884 63.3581,-67.0518 56.1507,-66.8188"/>
<text text-anchor="start" x="33" y="-124" font-family="Helvetica,sans-Serif" font-size="10.00"> +cumulative_allocated</text>
<text text-anchor="middle" x="83.5" y="-113" font-family="Helvetica,sans-Serif" font-size="10.00">_bytes</text>
<text text-anchor="middle" x="83.5" y="-102" font-family="Helvetica,sans-Serif" font-size="10.00">+size</text>
<text text-anchor="middle" x="83.5" y="-91" font-family="Helvetica,sans-Serif" font-size="10.00">+allocated_bytes</text>
</g>
<!-- Node3 -->
<g id="node3" class="node"><title>Node3</title>
<polygon fill="white" stroke="#bfbfbf" points="115,-150.5 115,-207.5 161,-207.5 161,-150.5 115,-150.5"/>
<text text-anchor="middle" x="138" y="-195.5" font-family="Helvetica,sans-Serif" font-size="10.00">uint8_t</text>
<polyline fill="none" stroke="#bfbfbf" points="115,-188.5 161,-188.5 "/>
<text text-anchor="middle" x="138" y="-176.5" font-family="Helvetica,sans-Serif" font-size="10.00"> </text>
<polyline fill="none" stroke="#bfbfbf" points="115,-169.5 161,-169.5 "/>
<text text-anchor="middle" x="138" y="-157.5" font-family="Helvetica,sans-Serif" font-size="10.00"> </text>
</g>
<!-- Node3&#45;&gt;Node1 -->
<g id="edge2" class="edge"><title>Node3&#45;&gt;Node1</title>
<path fill="none" stroke="#404040" d="M138,-150.284C138,-130.671 138,-103.932 138,-81.2491"/>
<polygon fill="none" stroke="#404040" points="138,-81.1359 134,-75.1359 138,-69.1359 142,-75.1358 138,-81.1359"/>
<text text-anchor="middle" x="152" y="-107.5" font-family="Helvetica,sans-Serif" font-size="10.00"> +data</text>
</g>
<!-- Node4 -->
<g id="node4" class="node"><title>Node4</title>
<g id="a_node4"><a xlink:href="classbool.html" target="_top" xlink:title="{bool\n||}">
<polygon fill="white" stroke="black" points="179.5,-150.5 179.5,-207.5 214.5,-207.5 214.5,-150.5 179.5,-150.5"/>
<text text-anchor="middle" x="197" y="-195.5" font-family="Helvetica,sans-Serif" font-size="10.00">bool</text>
<polyline fill="none" stroke="black" points="179.5,-188.5 214.5,-188.5 "/>
<text text-anchor="middle" x="197" y="-176.5" font-family="Helvetica,sans-Serif" font-size="10.00"> </text>
<polyline fill="none" stroke="black" points="179.5,-169.5 214.5,-169.5 "/>
<text text-anchor="middle" x="197" y="-157.5" font-family="Helvetica,sans-Serif" font-size="10.00"> </text>
</a>
</g>
</g>
<!-- Node4&#45;&gt;Node1 -->
<g id="edge3" class="edge"><title>Node4&#45;&gt;Node1</title>
<path fill="none" stroke="#404040" d="M190.646,-150.155C186.027,-132.024 179.011,-108.095 170,-88 168.767,-85.2495 167.412,-82.4683 165.979,-79.6974"/>
<polygon fill="none" stroke="#404040" points="165.953,-79.6501 159.551,-76.3324 160.15,-69.1463 166.553,-72.464 165.953,-79.6501"/>
<text text-anchor="middle" x="214.5" y="-107.5" font-family="Helvetica,sans-Serif" font-size="10.00"> +owns_data</text>
</g>
</g>
</svg>
