<?xml version="1.0" encoding="UTF-8" standalone="no"?>
<!DOCTYPE svg PUBLIC "-//W3C//DTD SVG 1.1//EN"
 "http://www.w3.org/Graphics/SVG/1.1/DTD/svg11.dtd">
<!-- Generated by graphviz version 2.36.0 (20140111.2315)
 -->
<!-- Title: impala::ReservoirSample&lt; T &gt; Pages: 1 -->
<svg width="156pt" height="194pt"
 viewBox="0.00 0.00 156.00 194.00" xmlns="http://www.w3.org/2000/svg" xmlns:xlink="http://www.w3.org/1999/xlink">
<g id="graph0" class="graph" transform="scale(1 1) rotate(0) translate(4 190)">
<title>impala::ReservoirSample&lt; T &gt;</title>
<polygon fill="white" stroke="none" points="-4,4 -4,-190 152,-190 152,4 -4,4"/>
<!-- Node1 -->
<g id="node1" class="node"><title>Node1</title>
<polygon fill="#bfbfbf" stroke="black" points="-1,-0.5 -1,-79.5 149,-79.5 149,-0.5 -1,-0.5"/>
<text text-anchor="middle" x="74" y="-67.5" font-family="Helvetica,sans-Serif" font-size="10.00">impala::ReservoirSample&lt; T &gt;</text>
<polyline fill="none" stroke="black" points="-1,-60.5 149,-60.5 "/>
<text text-anchor="middle" x="74" y="-48.5" font-family="Helvetica,sans-Serif" font-size="10.00"> </text>
<polyline fill="none" stroke="black" points="-1,-41.5 149,-41.5 "/>
<text text-anchor="start" x="7" y="-29.5" font-family="Helvetica,sans-Serif" font-size="10.00">+ ReservoirSample()</text>
<text text-anchor="start" x="7" y="-18.5" font-family="Helvetica,sans-Serif" font-size="10.00">+ ReservoirSample()</text>
<text text-anchor="start" x="7" y="-7.5" font-family="Helvetica,sans-Serif" font-size="10.00">+ GetValue()</text>
</g>
<!-- Node2 -->
<g id="node2" class="node"><title>Node2</title>
<polygon fill="white" stroke="#bfbfbf" points="24.5,-128.5 24.5,-185.5 69.5,-185.5 69.5,-128.5 24.5,-128.5"/>
<text text-anchor="middle" x="47" y="-173.5" font-family="Helvetica,sans-Serif" font-size="10.00">double</text>
<polyline fill="none" stroke="#bfbfbf" points="24.5,-166.5 69.5,-166.5 "/>
<text text-anchor="middle" x="47" y="-154.5" font-family="Helvetica,sans-Serif" font-size="10.00"> </text>
<polyline fill="none" stroke="#bfbfbf" points="24.5,-147.5 69.5,-147.5 "/>
<text text-anchor="middle" x="47" y="-135.5" font-family="Helvetica,sans-Serif" font-size="10.00"> </text>
</g>
<!-- Node2&#45;&gt;Node1 -->
<g id="edge1" class="edge"><title>Node2&#45;&gt;Node1</title>
<path fill="none" stroke="#404040" d="M49.7541,-128.37C50.9968,-118.694 52.7116,-107.799 55,-98 55.5029,-95.8462 56.0529,-93.6582 56.6387,-91.4564"/>
<polygon fill="none" stroke="#404040" points="56.7147,-91.1933 54.5392,-84.3182 60.0487,-79.6657 62.2242,-86.5409 56.7147,-91.1933"/>
<text text-anchor="middle" x="67.5" y="-101.5" font-family="Helvetica,sans-Serif" font-size="10.00"> +key</text>
</g>
<!-- Node3 -->
<g id="node3" class="node"><title>Node3</title>
<polygon fill="white" stroke="#bfbfbf" points="87.5,-128.5 87.5,-185.5 116.5,-185.5 116.5,-128.5 87.5,-128.5"/>
<text text-anchor="middle" x="102" y="-173.5" font-family="Helvetica,sans-Serif" font-size="10.00">T</text>
<polyline fill="none" stroke="#bfbfbf" points="87.5,-166.5 116.5,-166.5 "/>
<text text-anchor="middle" x="102" y="-154.5" font-family="Helvetica,sans-Serif" font-size="10.00"> </text>
<polyline fill="none" stroke="#bfbfbf" points="87.5,-147.5 116.5,-147.5 "/>
<text text-anchor="middle" x="102" y="-135.5" font-family="Helvetica,sans-Serif" font-size="10.00"> </text>
</g>
<!-- Node3&#45;&gt;Node1 -->
<g id="edge2" class="edge"><title>Node3&#45;&gt;Node1</title>
<path fill="none" stroke="#404040" d="M95.2933,-128.455C92.596,-117.376 89.3976,-104.24 86.3104,-91.5604"/>
<polygon fill="none" stroke="#404040" points="86.2434,-91.2851 80.9375,-86.4017 83.4045,-79.6258 88.7104,-84.5092 86.2434,-91.2851"/>
<text text-anchor="middle" x="101" y="-101.5" font-family="Helvetica,sans-Serif" font-size="10.00"> +val</text>
</g>
</g>
</svg>
