<?xml version="1.0" encoding="UTF-8" standalone="no"?>
<!DOCTYPE svg PUBLIC "-//W3C//DTD SVG 1.1//EN"
 "http://www.w3.org/Graphics/SVG/1.1/DTD/svg11.dtd">
<!-- Generated by graphviz version 2.36.0 (20140111.2315)
 -->
<!-- Title: impala_udf::StringVal Pages: 1 -->
<svg width="118pt" height="226pt"
 viewBox="0.00 0.00 118.00 226.00" xmlns="http://www.w3.org/2000/svg" xmlns:xlink="http://www.w3.org/1999/xlink">
<g id="graph0" class="graph" transform="scale(1 1) rotate(0) translate(4 222)">
<title>impala_udf::StringVal</title>
<polygon fill="white" stroke="none" points="-4,4 -4,-222 114,-222 114,4 -4,4"/>
<!-- Node1 -->
<g id="node1" class="node"><title>Node1</title>
<polygon fill="#bfbfbf" stroke="black" points="0,-0.5 0,-123.5 110,-123.5 110,-0.5 0,-0.5"/>
<text text-anchor="middle" x="55" y="-111.5" font-family="Helvetica,sans-Serif" font-size="10.00">impala_udf::StringVal</text>
<polyline fill="none" stroke="black" points="0,-104.5 110,-104.5 "/>
<text text-anchor="start" x="8" y="-92.5" font-family="Helvetica,sans-Serif" font-size="10.00">+ len</text>
<text text-anchor="start" x="8" y="-81.5" font-family="Helvetica,sans-Serif" font-size="10.00">+ ptr</text>
<polyline fill="none" stroke="black" points="0,-74.5 110,-74.5 "/>
<text text-anchor="start" x="8" y="-62.5" font-family="Helvetica,sans-Serif" font-size="10.00">+ StringVal()</text>
<text text-anchor="start" x="8" y="-51.5" font-family="Helvetica,sans-Serif" font-size="10.00">+ StringVal()</text>
<text text-anchor="start" x="8" y="-40.5" font-family="Helvetica,sans-Serif" font-size="10.00">+ StringVal()</text>
<text text-anchor="start" x="8" y="-29.5" font-family="Helvetica,sans-Serif" font-size="10.00">+ operator==()</text>
<text text-anchor="start" x="8" y="-18.5" font-family="Helvetica,sans-Serif" font-size="10.00">+ operator!=()</text>
<text text-anchor="start" x="8" y="-7.5" font-family="Helvetica,sans-Serif" font-size="10.00">+ null()</text>
</g>
<!-- Node2 -->
<g id="node2" class="node"><title>Node2</title>
<g id="a_node2"><a xlink:href="structimpala__udf_1_1AnyVal.html" target="_top" xlink:title="{impala_udf::AnyVal\n|+ is_null\l|+ AnyVal()\l}">
<polygon fill="white" stroke="black" points="4.5,-160.5 4.5,-217.5 105.5,-217.5 105.5,-160.5 4.5,-160.5"/>
<text text-anchor="middle" x="55" y="-205.5" font-family="Helvetica,sans-Serif" font-size="10.00">impala_udf::AnyVal</text>
<polyline fill="none" stroke="black" points="4.5,-198.5 105.5,-198.5 "/>
<text text-anchor="start" x="12.5" y="-186.5" font-family="Helvetica,sans-Serif" font-size="10.00">+ is_null</text>
<polyline fill="none" stroke="black" points="4.5,-179.5 105.5,-179.5 "/>
<text text-anchor="start" x="12.5" y="-167.5" font-family="Helvetica,sans-Serif" font-size="10.00">+ AnyVal()</text>
</a>
</g>
</g>
<!-- Node2&#45;&gt;Node1 -->
<g id="edge1" class="edge"><title>Node2&#45;&gt;Node1</title>
<path fill="none" stroke="midnightblue" d="M55,-150.099C55,-141.739 55,-132.68 55,-123.672"/>
<polygon fill="none" stroke="midnightblue" points="51.5001,-150.258 55,-160.258 58.5001,-150.258 51.5001,-150.258"/>
</g>
</g>
</svg>
