<?xml version="1.0" encoding="UTF-8" standalone="no"?>
<!DOCTYPE svg PUBLIC "-//W3C//DTD SVG 1.1//EN"
 "http://www.w3.org/Graphics/SVG/1.1/DTD/svg11.dtd">
<!-- Generated by graphviz version 2.36.0 (20140111.2315)
 -->
<!-- Title: CachedExprResult Pages: 1 -->
<svg width="165pt" height="172pt"
 viewBox="0.00 0.00 165.00 172.00" xmlns="http://www.w3.org/2000/svg" xmlns:xlink="http://www.w3.org/1999/xlink">
<g id="graph0" class="graph" transform="scale(1 1) rotate(0) translate(4 168)">
<title>CachedExprResult</title>
<polygon fill="white" stroke="none" points="-4,4 -4,-168 161,-168 161,4 -4,4"/>
<!-- Node1 -->
<g id="node1" class="node"><title>Node1</title>
<polygon fill="#bfbfbf" stroke="black" points="18.5,-0.5 18.5,-57.5 117.5,-57.5 117.5,-0.5 18.5,-0.5"/>
<text text-anchor="middle" x="68" y="-45.5" font-family="Helvetica,sans-Serif" font-size="10.00">CachedExprResult</text>
<polyline fill="none" stroke="black" points="18.5,-38.5 117.5,-38.5 "/>
<text text-anchor="middle" x="68" y="-26.5" font-family="Helvetica,sans-Serif" font-size="10.00"> </text>
<polyline fill="none" stroke="black" points="18.5,-19.5 117.5,-19.5 "/>
<text text-anchor="middle" x="68" y="-7.5" font-family="Helvetica,sans-Serif" font-size="10.00"> </text>
</g>
<!-- Node2 -->
<g id="node2" class="node"><title>Node2</title>
<polygon fill="white" stroke="#bfbfbf" points="-0.5,-106.5 -0.5,-163.5 56.5,-163.5 56.5,-106.5 -0.5,-106.5"/>
<text text-anchor="middle" x="28" y="-151.5" font-family="Helvetica,sans-Serif" font-size="10.00">CallInst *</text>
<polyline fill="none" stroke="#bfbfbf" points="-0.5,-144.5 56.5,-144.5 "/>
<text text-anchor="middle" x="28" y="-132.5" font-family="Helvetica,sans-Serif" font-size="10.00"> </text>
<polyline fill="none" stroke="#bfbfbf" points="-0.5,-125.5 56.5,-125.5 "/>
<text text-anchor="middle" x="28" y="-113.5" font-family="Helvetica,sans-Serif" font-size="10.00"> </text>
</g>
<!-- Node2&#45;&gt;Node1 -->
<g id="edge1" class="edge"><title>Node2&#45;&gt;Node1</title>
<path fill="none" stroke="#404040" d="M38.6142,-106.403C42.9991,-95.0023 48.1624,-81.5777 52.9277,-69.1879"/>
<polygon fill="none" stroke="#404040" points="53.0283,-68.9262 51.4489,-61.8901 57.3362,-57.726 58.9156,-64.762 53.0283,-68.9262"/>
<text text-anchor="middle" x="67" y="-79.5" font-family="Helvetica,sans-Serif" font-size="10.00"> +result</text>
</g>
<!-- Node3 -->
<g id="node3" class="node"><title>Node3</title>
<polygon fill="white" stroke="#bfbfbf" points="74.5,-106.5 74.5,-163.5 143.5,-163.5 143.5,-106.5 74.5,-106.5"/>
<text text-anchor="middle" x="109" y="-151.5" font-family="Helvetica,sans-Serif" font-size="10.00">Instruction *</text>
<polyline fill="none" stroke="#bfbfbf" points="74.5,-144.5 143.5,-144.5 "/>
<text text-anchor="middle" x="109" y="-132.5" font-family="Helvetica,sans-Serif" font-size="10.00"> </text>
<polyline fill="none" stroke="#bfbfbf" points="74.5,-125.5 143.5,-125.5 "/>
<text text-anchor="middle" x="109" y="-113.5" font-family="Helvetica,sans-Serif" font-size="10.00"> </text>
</g>
<!-- Node3&#45;&gt;Node1 -->
<g id="edge2" class="edge"><title>Node3&#45;&gt;Node1</title>
<path fill="none" stroke="#404040" d="M98.7557,-106.498C95.1058,-96.8324 90.9262,-85.9126 87,-76 86.0802,-73.6779 85.126,-71.2936 84.1567,-68.891"/>
<polygon fill="none" stroke="#404040" points="84.1153,-68.7893 78.1461,-64.7434 79.5848,-57.6773 85.554,-61.7232 84.1153,-68.7893"/>
<text text-anchor="middle" x="124" y="-79.5" font-family="Helvetica,sans-Serif" font-size="10.00"> +is_null_value</text>
</g>
</g>
</svg>
