<?xml version="1.0" encoding="UTF-8" standalone="no"?>
<!DOCTYPE svg PUBLIC "-//W3C//DTD SVG 1.1//EN"
 "http://www.w3.org/Graphics/SVG/1.1/DTD/svg11.dtd">
<!-- Generated by graphviz version 2.36.0 (20140111.2315)
 -->
<!-- Title: be/src/util/summary&#45;util.h Pages: 1 -->
<svg width="528pt" height="108pt"
 viewBox="0.00 0.00 528.00 108.00" xmlns="http://www.w3.org/2000/svg" xmlns:xlink="http://www.w3.org/1999/xlink">
<g id="graph0" class="graph" transform="scale(1 1) rotate(0) translate(4 104)">
<title>be/src/util/summary&#45;util.h</title>
<polygon fill="white" stroke="none" points="-4,4 -4,-104 524,-104 524,4 -4,4"/>
<!-- Node1 -->
<g id="node1" class="node"><title>Node1</title>
<polygon fill="#bfbfbf" stroke="black" points="228.5,-69 228.5,-99 331.5,-99 331.5,-69 228.5,-69"/>
<text text-anchor="start" x="236.5" y="-87" font-family="Helvetica,sans-Serif" font-size="10.00">be/src/util/summary</text>
<text text-anchor="middle" x="280" y="-76" font-family="Helvetica,sans-Serif" font-size="10.00">&#45;util.h</text>
</g>
<!-- Node2 -->
<g id="node2" class="node"><title>Node2</title>
<g id="a_node2"><a xlink:href="coordinator_8cc.html" target="_top" xlink:title="be/src/runtime/coordinator.cc">
<polygon fill="white" stroke="black" points="-0.5,-6.5 -0.5,-25.5 142.5,-25.5 142.5,-6.5 -0.5,-6.5"/>
<text text-anchor="middle" x="71" y="-13.5" font-family="Helvetica,sans-Serif" font-size="10.00">be/src/runtime/coordinator.cc</text>
</a>
</g>
</g>
<!-- Node1&#45;&gt;Node2 -->
<g id="edge1" class="edge"><title>Node1&#45;&gt;Node2</title>
<path fill="none" stroke="midnightblue" d="M225.832,-65.8943C184.795,-52.9354 130.155,-35.6804 97.9602,-25.5138"/>
<polygon fill="midnightblue" stroke="midnightblue" points="224.831,-69.2485 235.421,-68.9223 226.939,-62.5734 224.831,-69.2485"/>
</g>
<!-- Node3 -->
<g id="node3" class="node"><title>Node3</title>
<g id="a_node3"><a xlink:href="impala-server-callbacks_8cc.html" target="_top" xlink:title="be/src/service/impala\l&#45;server&#45;callbacks.cc">
<polygon fill="white" stroke="black" points="161,-1 161,-31 271,-31 271,-1 161,-1"/>
<text text-anchor="start" x="169" y="-19" font-family="Helvetica,sans-Serif" font-size="10.00">be/src/service/impala</text>
<text text-anchor="middle" x="216" y="-8" font-family="Helvetica,sans-Serif" font-size="10.00">&#45;server&#45;callbacks.cc</text>
</a>
</g>
</g>
<!-- Node1&#45;&gt;Node3 -->
<g id="edge2" class="edge"><title>Node1&#45;&gt;Node3</title>
<path fill="none" stroke="midnightblue" d="M259.137,-61.4855C249.537,-51.5852 238.409,-40.1092 229.86,-31.2931"/>
<polygon fill="midnightblue" stroke="midnightblue" points="256.639,-63.9365 266.113,-68.679 261.664,-59.0634 256.639,-63.9365"/>
</g>
<!-- Node4 -->
<g id="node4" class="node"><title>Node4</title>
<g id="a_node4"><a xlink:href="impala-server_8cc.html" target="_top" xlink:title="be/src/service/impala\l&#45;server.cc">
<polygon fill="white" stroke="black" points="289,-1 289,-31 399,-31 399,-1 289,-1"/>
<text text-anchor="start" x="297" y="-19" font-family="Helvetica,sans-Serif" font-size="10.00">be/src/service/impala</text>
<text text-anchor="middle" x="344" y="-8" font-family="Helvetica,sans-Serif" font-size="10.00">&#45;server.cc</text>
</a>
</g>
</g>
<!-- Node1&#45;&gt;Node4 -->
<g id="edge3" class="edge"><title>Node1&#45;&gt;Node4</title>
<path fill="none" stroke="midnightblue" d="M300.863,-61.4855C310.463,-51.5852 321.591,-40.1092 330.14,-31.2931"/>
<polygon fill="midnightblue" stroke="midnightblue" points="298.336,-59.0634 293.887,-68.679 303.361,-63.9365 298.336,-59.0634"/>
</g>
<!-- Node5 -->
<g id="node5" class="node"><title>Node5</title>
<g id="a_node5"><a xlink:href="summary-util_8cc.html" target="_top" xlink:title="be/src/util/summary\l&#45;util.cc">
<polygon fill="white" stroke="black" points="417.5,-1 417.5,-31 520.5,-31 520.5,-1 417.5,-1"/>
<text text-anchor="start" x="425.5" y="-19" font-family="Helvetica,sans-Serif" font-size="10.00">be/src/util/summary</text>
<text text-anchor="middle" x="469" y="-8" font-family="Helvetica,sans-Serif" font-size="10.00">&#45;util.cc</text>
</a>
</g>
</g>
<!-- Node1&#45;&gt;Node5 -->
<g id="edge4" class="edge"><title>Node1&#45;&gt;Node5</title>
<path fill="none" stroke="midnightblue" d="M330.251,-65.4519C361.097,-54.6805 400.066,-41.0722 428.847,-31.0218"/>
<polygon fill="midnightblue" stroke="midnightblue" points="328.832,-62.2401 320.545,-68.8413 331.14,-68.8488 328.832,-62.2401"/>
</g>
</g>
</svg>
