<?xml version="1.0" encoding="UTF-8" standalone="no"?>
<!DOCTYPE svg PUBLIC "-//W3C//DTD SVG 1.1//EN"
 "http://www.w3.org/Graphics/SVG/1.1/DTD/svg11.dtd">
<!-- Generated by graphviz version 2.36.0 (20140111.2315)
 -->
<!-- Title: be/src/util/symbols&#45;util.h Pages: 1 -->
<svg width="498pt" height="108pt"
 viewBox="0.00 0.00 498.00 108.00" xmlns="http://www.w3.org/2000/svg" xmlns:xlink="http://www.w3.org/1999/xlink">
<g id="graph0" class="graph" transform="scale(1 1) rotate(0) translate(4 104)">
<title>be/src/util/symbols&#45;util.h</title>
<polygon fill="white" stroke="none" points="-4,4 -4,-104 494,-104 494,4 -4,4"/>
<!-- Node1 -->
<g id="node1" class="node"><title>Node1</title>
<polygon fill="#bfbfbf" stroke="black" points="205.5,-69 205.5,-99 304.5,-99 304.5,-69 205.5,-69"/>
<text text-anchor="start" x="213.5" y="-87" font-family="Helvetica,sans-Serif" font-size="10.00">be/src/util/symbols</text>
<text text-anchor="middle" x="255" y="-76" font-family="Helvetica,sans-Serif" font-size="10.00">&#45;util.h</text>
</g>
<!-- Node2 -->
<g id="node2" class="node"><title>Node2</title>
<g id="a_node2"><a xlink:href="scalar-fn-call_8cc.html" target="_top" xlink:title="be/src/exprs/scalar\l&#45;fn&#45;call.cc">
<polygon fill="white" stroke="black" points="0,-1 0,-31 100,-31 100,-1 0,-1"/>
<text text-anchor="start" x="8" y="-19" font-family="Helvetica,sans-Serif" font-size="10.00">be/src/exprs/scalar</text>
<text text-anchor="middle" x="50" y="-8" font-family="Helvetica,sans-Serif" font-size="10.00">&#45;fn&#45;call.cc</text>
</a>
</g>
</g>
<!-- Node1&#45;&gt;Node2 -->
<g id="edge1" class="edge"><title>Node1&#45;&gt;Node2</title>
<path fill="none" stroke="midnightblue" d="M201.615,-65.8127C168.024,-54.9979 125.216,-41.2157 93.659,-31.0561"/>
<polygon fill="midnightblue" stroke="midnightblue" points="200.682,-69.1892 211.274,-68.9223 202.828,-62.526 200.682,-69.1892"/>
</g>
<!-- Node3 -->
<g id="node3" class="node"><title>Node3</title>
<g id="a_node3"><a xlink:href="fe-support_8cc.html" target="_top" xlink:title="be/src/service/fe&#45;support.cc">
<polygon fill="white" stroke="black" points="118,-6.5 118,-25.5 256,-25.5 256,-6.5 118,-6.5"/>
<text text-anchor="middle" x="187" y="-13.5" font-family="Helvetica,sans-Serif" font-size="10.00">be/src/service/fe&#45;support.cc</text>
</a>
</g>
</g>
<!-- Node1&#45;&gt;Node3 -->
<g id="edge2" class="edge"><title>Node1&#45;&gt;Node3</title>
<path fill="none" stroke="midnightblue" d="M232.858,-61.5094C220.373,-49.3918 205.45,-34.9072 196.096,-25.8283"/>
<polygon fill="midnightblue" stroke="midnightblue" points="230.632,-64.2257 240.245,-68.679 235.507,-59.2027 230.632,-64.2257"/>
</g>
<!-- Node4 -->
<g id="node4" class="node"><title>Node4</title>
<g id="a_node4"><a xlink:href="symbols-util-test_8cc.html" target="_top" xlink:title="be/src/util/symbols\l&#45;util&#45;test.cc">
<polygon fill="white" stroke="black" points="274.5,-1 274.5,-31 373.5,-31 373.5,-1 274.5,-1"/>
<text text-anchor="start" x="282.5" y="-19" font-family="Helvetica,sans-Serif" font-size="10.00">be/src/util/symbols</text>
<text text-anchor="middle" x="324" y="-8" font-family="Helvetica,sans-Serif" font-size="10.00">&#45;util&#45;test.cc</text>
</a>
</g>
</g>
<!-- Node1&#45;&gt;Node4 -->
<g id="edge3" class="edge"><title>Node1&#45;&gt;Node4</title>
<path fill="none" stroke="midnightblue" d="M277.492,-61.4855C287.843,-51.5852 299.84,-40.1092 309.057,-31.2931"/>
<polygon fill="midnightblue" stroke="midnightblue" points="274.779,-59.2375 269.972,-68.679 279.618,-64.296 274.779,-59.2375"/>
</g>
<!-- Node5 -->
<g id="node5" class="node"><title>Node5</title>
<g id="a_node5"><a xlink:href="symbols-util_8cc.html" target="_top" xlink:title="be/src/util/symbols\l&#45;util.cc">
<polygon fill="white" stroke="black" points="391.5,-1 391.5,-31 490.5,-31 490.5,-1 391.5,-1"/>
<text text-anchor="start" x="399.5" y="-19" font-family="Helvetica,sans-Serif" font-size="10.00">be/src/util/symbols</text>
<text text-anchor="middle" x="441" y="-8" font-family="Helvetica,sans-Serif" font-size="10.00">&#45;util.cc</text>
</a>
</g>
</g>
<!-- Node1&#45;&gt;Node5 -->
<g id="edge4" class="edge"><title>Node1&#45;&gt;Node5</title>
<path fill="none" stroke="midnightblue" d="M304.454,-65.4519C334.81,-54.6805 373.16,-41.0722 401.484,-31.0218"/>
<polygon fill="midnightblue" stroke="midnightblue" points="303.155,-62.1987 294.902,-68.8413 305.496,-68.7957 303.155,-62.1987"/>
</g>
</g>
</svg>
