<?xml version="1.0" encoding="UTF-8" standalone="no"?>
<!DOCTYPE svg PUBLIC "-//W3C//DTD SVG 1.1//EN"
 "http://www.w3.org/Graphics/SVG/1.1/DTD/svg11.dtd">
<!-- Generated by graphviz version 2.36.0 (20140111.2315)
 -->
<!-- Title: be/src/util/table&#45;printer.h Pages: 1 -->
<svg width="255pt" height="96pt"
 viewBox="0.00 0.00 255.00 96.00" xmlns="http://www.w3.org/2000/svg" xmlns:xlink="http://www.w3.org/1999/xlink">
<g id="graph0" class="graph" transform="scale(1 1) rotate(0) translate(4 92)">
<title>be/src/util/table&#45;printer.h</title>
<polygon fill="white" stroke="none" points="-4,4 -4,-92 251,-92 251,4 -4,4"/>
<!-- Node1 -->
<g id="node1" class="node"><title>Node1</title>
<polygon fill="#bfbfbf" stroke="black" points="56,-68.5 56,-87.5 178,-87.5 178,-68.5 56,-68.5"/>
<text text-anchor="middle" x="117" y="-75.5" font-family="Helvetica,sans-Serif" font-size="10.00">be/src/util/table&#45;printer.h</text>
</g>
<!-- Node2 -->
<g id="node2" class="node"><title>Node2</title>
<g id="a_node2"><a xlink:href="summary-util_8cc.html" target="_top" xlink:title="be/src/util/summary\l&#45;util.cc">
<polygon fill="white" stroke="black" points="-0.5,-1 -0.5,-31 102.5,-31 102.5,-1 -0.5,-1"/>
<text text-anchor="start" x="7.5" y="-19" font-family="Helvetica,sans-Serif" font-size="10.00">be/src/util/summary</text>
<text text-anchor="middle" x="51" y="-8" font-family="Helvetica,sans-Serif" font-size="10.00">&#45;util.cc</text>
</a>
</g>
</g>
<!-- Node1&#45;&gt;Node2 -->
<g id="edge1" class="edge"><title>Node1&#45;&gt;Node2</title>
<path fill="none" stroke="midnightblue" d="M99.9686,-61.5169C89.6523,-52.1384 76.5925,-40.2659 66.5549,-31.1408"/>
<polygon fill="midnightblue" stroke="midnightblue" points="97.79,-64.2665 107.544,-68.4035 102.499,-59.0869 97.79,-64.2665"/>
</g>
<!-- Node3 -->
<g id="node3" class="node"><title>Node3</title>
<g id="a_node3"><a xlink:href="table-printer_8cc.html" target="_top" xlink:title="be/src/util/table&#45;printer.cc">
<polygon fill="white" stroke="black" points="120.5,-6.5 120.5,-25.5 247.5,-25.5 247.5,-6.5 120.5,-6.5"/>
<text text-anchor="middle" x="184" y="-13.5" font-family="Helvetica,sans-Serif" font-size="10.00">be/src/util/table&#45;printer.cc</text>
</a>
</g>
</g>
<!-- Node1&#45;&gt;Node3 -->
<g id="edge2" class="edge"><title>Node1&#45;&gt;Node3</title>
<path fill="none" stroke="midnightblue" d="M134.285,-61.5206C147.059,-50.0815 163.978,-34.9305 174.418,-25.5806"/>
<polygon fill="midnightblue" stroke="midnightblue" points="131.714,-59.1249 126.599,-68.4035 136.384,-64.3396 131.714,-59.1249"/>
</g>
</g>
</svg>
