<?xml version="1.0" encoding="UTF-8" standalone="no"?>
<!DOCTYPE svg PUBLIC "-//W3C//DTD SVG 1.1//EN"
 "http://www.w3.org/Graphics/SVG/1.1/DTD/svg11.dtd">
<!-- Generated by graphviz version 2.36.0 (20140111.2315)
 -->
<!-- Title: be/src/util/table&#45;printer.h Pages: 1 -->
<svg width="245pt" height="84pt"
 viewBox="0.00 0.00 245.00 84.00" xmlns="http://www.w3.org/2000/svg" xmlns:xlink="http://www.w3.org/1999/xlink">
<g id="graph0" class="graph" transform="scale(1 1) rotate(0) translate(4 80)">
<title>be/src/util/table&#45;printer.h</title>
<polygon fill="white" stroke="none" points="-4,4 -4,-80 241,-80 241,4 -4,4"/>
<!-- Node1 -->
<g id="node1" class="node"><title>Node1</title>
<polygon fill="#bfbfbf" stroke="black" points="53,-56.5 53,-75.5 175,-75.5 175,-56.5 53,-56.5"/>
<text text-anchor="middle" x="114" y="-63.5" font-family="Helvetica,sans-Serif" font-size="10.00">be/src/util/table&#45;printer.h</text>
</g>
<!-- Node2 -->
<g id="node2" class="node"><title>Node2</title>
<polygon fill="white" stroke="#bfbfbf" points="-0.5,-0.5 -0.5,-19.5 100.5,-19.5 100.5,-0.5 -0.5,-0.5"/>
<text text-anchor="middle" x="50" y="-7.5" font-family="Helvetica,sans-Serif" font-size="10.00">boost/uuid/uuid.hpp</text>
</g>
<!-- Node1&#45;&gt;Node2 -->
<g id="edge1" class="edge"><title>Node1&#45;&gt;Node2</title>
<path fill="none" stroke="midnightblue" d="M103.717,-56.324C94.1637,-48.2631 79.7203,-36.0765 68.2157,-26.3695"/>
<polygon fill="midnightblue" stroke="midnightblue" points="70.3698,-23.6076 60.4698,-19.8339 65.8557,-28.9577 70.3698,-23.6076"/>
</g>
<!-- Node3 -->
<g id="node3" class="node"><title>Node3</title>
<polygon fill="white" stroke="#bfbfbf" points="118.5,-0.5 118.5,-19.5 237.5,-19.5 237.5,-0.5 118.5,-0.5"/>
<text text-anchor="middle" x="178" y="-7.5" font-family="Helvetica,sans-Serif" font-size="10.00">gen&#45;cpp/Types_types.h</text>
</g>
<!-- Node1&#45;&gt;Node3 -->
<g id="edge2" class="edge"><title>Node1&#45;&gt;Node3</title>
<path fill="none" stroke="midnightblue" d="M124.283,-56.324C133.836,-48.2631 148.28,-36.0765 159.784,-26.3695"/>
<polygon fill="midnightblue" stroke="midnightblue" points="162.144,-28.9577 167.53,-19.8339 157.63,-23.6076 162.144,-28.9577"/>
</g>
</g>
</svg>
