<?xml version="1.0" encoding="UTF-8" standalone="no"?>
<!DOCTYPE svg PUBLIC "-//W3C//DTD SVG 1.1//EN"
 "http://www.w3.org/Graphics/SVG/1.1/DTD/svg11.dtd">
<!-- Generated by graphviz version 2.36.0 (20140111.2315)
 -->
<!-- Title: be/src/runtime/thread&#45;resource&#45;mgr.h Pages: 1 -->
<!--zoomable 232 -->
<svg id="main" version="1.1" xmlns="http://www.w3.org/2000/svg" xmlns:xlink="http://www.w3.org/1999/xlink" xml:space="preserve" onload="init(evt)">
<style type="text/css"><![CDATA[
.edge:hover path { stroke: red; }
.edge:hover polygon { stroke: red; fill: red; }
]]></style>
<script type="text/javascript"><![CDATA[
var edges = document.getElementsByTagName('g');
if (edges && edges.length) {
  for (var i=0;i<edges.length;i++) {
    if (edges[i].id.substr(0,4)=='edge') {
      edges[i].setAttribute('class','edge');
    }
  }
}
]]></script>
        <defs>
                <circle id="rim" cx="0" cy="0" r="7"/>
                <circle id="rim2" cx="0" cy="0" r="3.5"/>
                <g id="zoomPlus">
                        <use xlink:href="#rim" fill="#404040">
                                <set attributeName="fill" to="#808080" begin="zoomplus.mouseover" end="zoomplus.mouseout"/>
                        </use>
                        <path d="M-4,0h8M0,-4v8" fill="none" stroke="white" stroke-width="1.5" pointer-events="none"/>
                </g>
                <g id="zoomMin">
                        <use xlink:href="#rim" fill="#404040">
                                <set attributeName="fill" to="#808080" begin="zoomminus.mouseover" end="zoomminus.mouseout"/>
                        </use>
                        <path d="M-4,0h8" fill="none" stroke="white" stroke-width="1.5" pointer-events="none"/>
                </g>
                <g id="dirArrow">
                        <path fill="none" stroke="white" stroke-width="1.5" d="M0,-3.0v7 M-2.5,-0.5L0,-3.0L2.5,-0.5"/>
                </g>
               <g id="resetDef">
                       <use xlink:href="#rim2" fill="#404040">
                               <set attributeName="fill" to="#808080" begin="reset.mouseover" end="reset.mouseout"/>
                       </use>
               </g>
        </defs>

<script type="text/javascript">
var viewWidth = 1670;
var viewHeight = 232;
var sectionId = 'dynsection-0';
</script>
<script xlink:href="svgpan.js"/>
<svg id="graph" class="graph">
<g id="viewport">
<title>be/src/runtime/thread&#45;resource&#45;mgr.h</title>
<polygon fill="white" stroke="none" points="-4,4 -4,-228 1666,-228 1666,4 -4,4"/>
<!-- Node1 -->
<g id="node1" class="node"><title>Node1</title>
<polygon fill="#bfbfbf" stroke="black" points="375.5,-193 375.5,-223 484.5,-223 484.5,-193 375.5,-193"/>
<text text-anchor="start" x="383.5" y="-211" font-family="Helvetica,sans-Serif" font-size="10.00">be/src/runtime/thread</text>
<text text-anchor="middle" x="430" y="-200" font-family="Helvetica,sans-Serif" font-size="10.00">&#45;resource&#45;mgr.h</text>
</g>
<!-- Node2 -->
<g id="node2" class="node"><title>Node2</title>
<polygon fill="white" stroke="#bfbfbf" points="0,-136.5 0,-155.5 48,-155.5 48,-136.5 0,-136.5"/>
<text text-anchor="middle" x="24" y="-143.5" font-family="Helvetica,sans-Serif" font-size="10.00">stdlib.h</text>
</g>
<!-- Node1&#45;&gt;Node2 -->
<g id="edge1" class="edge"><title>Node1&#45;&gt;Node2</title>
<path fill="none" stroke="midnightblue" d="M375.265,-201.774C304.223,-194.493 176.311,-179.682 58.016,-155.973"/>
<polygon fill="midnightblue" stroke="midnightblue" points="58.56,-152.512 48.0635,-153.952 57.1671,-159.372 58.56,-152.512"/>
</g>
<!-- Node3 -->
<g id="node3" class="node"><title>Node3</title>
<polygon fill="white" stroke="#bfbfbf" points="66.5,-136.5 66.5,-155.5 163.5,-155.5 163.5,-136.5 66.5,-136.5"/>
<text text-anchor="middle" x="115" y="-143.5" font-family="Helvetica,sans-Serif" font-size="10.00">boost/function.hpp</text>
</g>
<!-- Node1&#45;&gt;Node3 -->
<g id="edge2" class="edge"><title>Node1&#45;&gt;Node3</title>
<path fill="none" stroke="midnightblue" d="M375.491,-196.617C317.849,-185.638 227.434,-168.416 169.715,-157.422"/>
<polygon fill="midnightblue" stroke="midnightblue" points="170.164,-153.945 159.686,-155.512 168.854,-160.821 170.164,-153.945"/>
</g>
<!-- Node4 -->
<g id="node4" class="node"><title>Node4</title>
<polygon fill="white" stroke="#bfbfbf" points="182,-136.5 182,-155.5 292,-155.5 292,-136.5 182,-136.5"/>
<text text-anchor="middle" x="237" y="-143.5" font-family="Helvetica,sans-Serif" font-size="10.00">boost/scoped_ptr.hpp</text>
</g>
<!-- Node1&#45;&gt;Node4 -->
<g id="edge3" class="edge"><title>Node1&#45;&gt;Node4</title>
<path fill="none" stroke="midnightblue" d="M384.75,-192.933C351.071,-182.462 305.658,-168.345 274.107,-158.536"/>
<polygon fill="midnightblue" stroke="midnightblue" points="274.971,-155.139 264.382,-155.513 272.893,-161.824 274.971,-155.139"/>
</g>
<!-- Node5 -->
<g id="node5" class="node"><title>Node5</title>
<polygon fill="white" stroke="#bfbfbf" points="310,-136.5 310,-155.5 418,-155.5 418,-136.5 310,-136.5"/>
<text text-anchor="middle" x="364" y="-143.5" font-family="Helvetica,sans-Serif" font-size="10.00">boost/shared_ptr.hpp</text>
</g>
<!-- Node1&#45;&gt;Node5 -->
<g id="edge4" class="edge"><title>Node1&#45;&gt;Node5</title>
<path fill="none" stroke="midnightblue" d="M414.359,-192.781C404.373,-183.703 391.422,-171.929 381.155,-162.595"/>
<polygon fill="midnightblue" stroke="midnightblue" points="383.357,-159.867 373.604,-155.731 378.649,-165.047 383.357,-159.867"/>
</g>
<!-- Node6 -->
<g id="node6" class="node"><title>Node6</title>
<polygon fill="white" stroke="#bfbfbf" points="436.5,-136.5 436.5,-155.5 555.5,-155.5 555.5,-136.5 436.5,-136.5"/>
<text text-anchor="middle" x="496" y="-143.5" font-family="Helvetica,sans-Serif" font-size="10.00">boost/thread/mutex.hpp</text>
</g>
<!-- Node1&#45;&gt;Node6 -->
<g id="edge5" class="edge"><title>Node1&#45;&gt;Node6</title>
<path fill="none" stroke="midnightblue" d="M445.641,-192.781C455.627,-183.703 468.578,-171.929 478.845,-162.595"/>
<polygon fill="midnightblue" stroke="midnightblue" points="481.351,-165.047 486.396,-155.731 476.643,-159.867 481.351,-165.047"/>
</g>
<!-- Node7 -->
<g id="node7" class="node"><title>Node7</title>
<polygon fill="white" stroke="#bfbfbf" points="573.5,-136.5 573.5,-155.5 692.5,-155.5 692.5,-136.5 573.5,-136.5"/>
<text text-anchor="middle" x="633" y="-143.5" font-family="Helvetica,sans-Serif" font-size="10.00">boost/thread/thread.hpp</text>
</g>
<!-- Node1&#45;&gt;Node7 -->
<g id="edge6" class="edge"><title>Node1&#45;&gt;Node7</title>
<path fill="none" stroke="midnightblue" d="M477.594,-192.933C513.172,-182.417 561.198,-168.222 594.401,-158.409"/>
<polygon fill="midnightblue" stroke="midnightblue" points="595.601,-161.704 604.199,-155.513 593.617,-154.991 595.601,-161.704"/>
</g>
<!-- Node8 -->
<g id="node8" class="node"><title>Node8</title>
<polygon fill="white" stroke="#bfbfbf" points="710.5,-136.5 710.5,-155.5 739.5,-155.5 739.5,-136.5 710.5,-136.5"/>
<text text-anchor="middle" x="725" y="-143.5" font-family="Helvetica,sans-Serif" font-size="10.00">list</text>
</g>
<!-- Node1&#45;&gt;Node8 -->
<g id="edge7" class="edge"><title>Node1&#45;&gt;Node8</title>
<path fill="none" stroke="midnightblue" d="M484.622,-199.557C537.654,-191.697 620.445,-177.752 700.645,-155.663"/>
<polygon fill="midnightblue" stroke="midnightblue" points="701.724,-158.995 710.41,-152.929 699.837,-152.255 701.724,-158.995"/>
</g>
<!-- Node9 -->
<g id="node9" class="node"><title>Node9</title>
<g id="a_node9"><a xlink:href="status_8h.html" target="_top" xlink:title="common/status.h">
<polygon fill="white" stroke="black" points="758,-136.5 758,-155.5 850,-155.5 850,-136.5 758,-136.5"/>
<text text-anchor="middle" x="804" y="-143.5" font-family="Helvetica,sans-Serif" font-size="10.00">common/status.h</text>
</a>
</g>
</g>
<!-- Node1&#45;&gt;Node9 -->
<g id="edge8" class="edge"><title>Node1&#45;&gt;Node9</title>
<path fill="none" stroke="midnightblue" d="M484.583,-198.252C545.886,-188.425 648.639,-171.95 747.948,-156.008"/>
<polygon fill="midnightblue" stroke="midnightblue" points="748.537,-159.458 757.855,-154.417 747.427,-152.547 748.537,-159.458"/>
</g>
<!-- Node10 -->
<g id="node10" class="node"><title>Node10</title>
<polygon fill="white" stroke="#bfbfbf" points="432.5,-6.5 432.5,-25.5 473.5,-25.5 473.5,-6.5 432.5,-6.5"/>
<text text-anchor="middle" x="453" y="-13.5" font-family="Helvetica,sans-Serif" font-size="10.00">string</text>
</g>
<!-- Node9&#45;&gt;Node10 -->
<g id="edge9" class="edge"><title>Node9&#45;&gt;Node10</title>
<path fill="none" stroke="midnightblue" d="M757.916,-137.451C718.637,-130.24 661.076,-117.82 613,-100 561.635,-80.9612 505.703,-49.15 475.467,-30.9365"/>
<polygon fill="midnightblue" stroke="midnightblue" points="476.954,-27.7439 466.592,-25.5342 473.314,-33.7233 476.954,-27.7439"/>
</g>
<!-- Node11 -->
<g id="node11" class="node"><title>Node11</title>
<polygon fill="white" stroke="#bfbfbf" points="492,-6.5 492,-25.5 536,-25.5 536,-6.5 492,-6.5"/>
<text text-anchor="middle" x="514" y="-13.5" font-family="Helvetica,sans-Serif" font-size="10.00">vector</text>
</g>
<!-- Node9&#45;&gt;Node11 -->
<g id="edge10" class="edge"><title>Node9&#45;&gt;Node11</title>
<path fill="none" stroke="midnightblue" d="M779.804,-136.456C755.781,-127.813 718.016,-113.795 686,-100 622.105,-72.4686 607.647,-62.2629 545,-32 543.654,-31.3498 542.275,-30.6836 540.883,-30.0106"/>
<polygon fill="midnightblue" stroke="midnightblue" points="542.229,-26.7739 531.703,-25.5709 539.182,-33.0756 542.229,-26.7739"/>
</g>
<!-- Node12 -->
<g id="node12" class="node"><title>Node12</title>
<polygon fill="white" stroke="#bfbfbf" points="554,-6.5 554,-25.5 668,-25.5 668,-6.5 554,-6.5"/>
<text text-anchor="middle" x="611" y="-13.5" font-family="Helvetica,sans-Serif" font-size="10.00">boost/lexical_cast.hpp</text>
</g>
<!-- Node9&#45;&gt;Node12 -->
<g id="edge11" class="edge"><title>Node9&#45;&gt;Node12</title>
<path fill="none" stroke="midnightblue" d="M791.037,-136.403C758.419,-114.77 672.679,-57.9065 632.436,-31.2166"/>
<polygon fill="midnightblue" stroke="midnightblue" points="634.175,-28.1701 623.907,-25.5598 630.306,-34.0037 634.175,-28.1701"/>
</g>
<!-- Node13 -->
<g id="node13" class="node"><title>Node13</title>
<g id="a_node13"><a xlink:href="logging_8h.html" target="_top" xlink:title="common/logging.h">
<polygon fill="white" stroke="black" points="860,-74.5 860,-93.5 956,-93.5 956,-74.5 860,-74.5"/>
<text text-anchor="middle" x="908" y="-81.5" font-family="Helvetica,sans-Serif" font-size="10.00">common/logging.h</text>
</a>
</g>
</g>
<!-- Node9&#45;&gt;Node13 -->
<g id="edge12" class="edge"><title>Node9&#45;&gt;Node13</title>
<path fill="none" stroke="midnightblue" d="M818.901,-136.403C835.968,-126.557 864.161,-110.291 884.262,-98.6949"/>
<polygon fill="midnightblue" stroke="midnightblue" points="886.214,-101.61 893.127,-93.5806 882.716,-95.5462 886.214,-101.61"/>
</g>
<!-- Node16 -->
<g id="node16" class="node"><title>Node16</title>
<g id="a_node16"><a xlink:href="compiler-util_8h.html" target="_top" xlink:title="common/compiler&#45;util.h">
<polygon fill="white" stroke="black" points="974,-74.5 974,-93.5 1092,-93.5 1092,-74.5 974,-74.5"/>
<text text-anchor="middle" x="1033" y="-81.5" font-family="Helvetica,sans-Serif" font-size="10.00">common/compiler&#45;util.h</text>
</a>
</g>
</g>
<!-- Node9&#45;&gt;Node16 -->
<g id="edge15" class="edge"><title>Node9&#45;&gt;Node16</title>
<path fill="none" stroke="midnightblue" d="M836.81,-136.403C877.197,-125.822 945.877,-107.827 990.329,-96.1802"/>
<polygon fill="midnightblue" stroke="midnightblue" points="991.464,-99.5009 1000.25,-93.5806 989.69,-92.7295 991.464,-99.5009"/>
</g>
<!-- Node17 -->
<g id="node17" class="node"><title>Node17</title>
<polygon fill="white" stroke="#bfbfbf" points="1110,-74.5 1110,-93.5 1230,-93.5 1230,-74.5 1110,-74.5"/>
<text text-anchor="middle" x="1170" y="-81.5" font-family="Helvetica,sans-Serif" font-size="10.00">gen&#45;cpp/Status_types.h</text>
</g>
<!-- Node9&#45;&gt;Node17 -->
<g id="edge16" class="edge"><title>Node9&#45;&gt;Node17</title>
<path fill="none" stroke="midnightblue" d="M850.197,-138.929C908.737,-131.023 1012.66,-116.278 1101,-100 1108.13,-98.6866 1115.64,-97.1797 1122.99,-95.6388"/>
<polygon fill="midnightblue" stroke="midnightblue" points="1123.8,-99.045 1132.85,-93.5315 1122.33,-92.1997 1123.8,-99.045"/>
</g>
<!-- Node18 -->
<g id="node18" class="node"><title>Node18</title>
<polygon fill="white" stroke="#bfbfbf" points="686,-1 686,-31 790,-31 790,-1 686,-1"/>
<text text-anchor="start" x="694" y="-19" font-family="Helvetica,sans-Serif" font-size="10.00">gen&#45;cpp/ErrorCodes</text>
<text text-anchor="middle" x="738" y="-8" font-family="Helvetica,sans-Serif" font-size="10.00">_types.h</text>
</g>
<!-- Node9&#45;&gt;Node18 -->
<g id="edge17" class="edge"><title>Node9&#45;&gt;Node18</title>
<path fill="none" stroke="midnightblue" d="M791.65,-136.468C780.849,-128.342 765.585,-115.131 757,-100 746.767,-81.9648 742.044,-58.7741 739.864,-41.4926"/>
<polygon fill="midnightblue" stroke="midnightblue" points="743.298,-40.6802 738.767,-31.1031 736.337,-41.4154 743.298,-40.6802"/>
</g>
<!-- Node19 -->
<g id="node19" class="node"><title>Node19</title>
<polygon fill="white" stroke="#bfbfbf" points="1248.5,-69 1248.5,-99 1357.5,-99 1357.5,-69 1248.5,-69"/>
<text text-anchor="start" x="1256.5" y="-87" font-family="Helvetica,sans-Serif" font-size="10.00">gen&#45;cpp/TCLIService</text>
<text text-anchor="middle" x="1303" y="-76" font-family="Helvetica,sans-Serif" font-size="10.00">_types.h</text>
</g>
<!-- Node9&#45;&gt;Node19 -->
<g id="edge18" class="edge"><title>Node9&#45;&gt;Node19</title>
<path fill="none" stroke="midnightblue" d="M850.18,-142.093C929.76,-136.664 1097.71,-123.369 1238,-100 1238.21,-99.9643 1238.43,-99.9284 1238.64,-99.8921"/>
<polygon fill="midnightblue" stroke="midnightblue" points="1239.27,-103.335 1248.48,-98.0955 1238.02,-96.449 1239.27,-103.335"/>
</g>
<!-- Node20 -->
<g id="node20" class="node"><title>Node20</title>
<g id="a_node20"><a xlink:href="error-util_8h.html" target="_top" xlink:title="util/error&#45;util.h">
<polygon fill="white" stroke="black" points="766,-74.5 766,-93.5 842,-93.5 842,-74.5 766,-74.5"/>
<text text-anchor="middle" x="804" y="-81.5" font-family="Helvetica,sans-Serif" font-size="10.00">util/error&#45;util.h</text>
</a>
</g>
</g>
<!-- Node9&#45;&gt;Node20 -->
<g id="edge19" class="edge"><title>Node9&#45;&gt;Node20</title>
<path fill="none" stroke="midnightblue" d="M804,-136.403C804,-127.938 804,-114.728 804,-103.82"/>
<polygon fill="midnightblue" stroke="midnightblue" points="807.5,-103.581 804,-93.5806 800.5,-103.581 807.5,-103.581"/>
</g>
<!-- Node14 -->
<g id="node14" class="node"><title>Node14</title>
<polygon fill="white" stroke="#bfbfbf" points="1585.5,-6.5 1585.5,-25.5 1662.5,-25.5 1662.5,-6.5 1585.5,-6.5"/>
<text text-anchor="middle" x="1624" y="-13.5" font-family="Helvetica,sans-Serif" font-size="10.00">glog/logging.h</text>
</g>
<!-- Node13&#45;&gt;Node14 -->
<g id="edge13" class="edge"><title>Node13&#45;&gt;Node14</title>
<path fill="none" stroke="midnightblue" d="M935.886,-74.4798C945.076,-71.9906 955.4,-69.5304 965,-68 1233.63,-25.1748 1308.41,-80.9332 1576,-32 1580.79,-31.1235 1585.78,-29.9161 1590.64,-28.5639"/>
<polygon fill="midnightblue" stroke="midnightblue" points="1591.79,-31.8737 1600.36,-25.6445 1589.78,-25.1697 1591.79,-31.8737"/>
</g>
<!-- Node15 -->
<g id="node15" class="node"><title>Node15</title>
<polygon fill="white" stroke="#bfbfbf" points="1487,-6.5 1487,-25.5 1567,-25.5 1567,-6.5 1487,-6.5"/>
<text text-anchor="middle" x="1527" y="-13.5" font-family="Helvetica,sans-Serif" font-size="10.00">gflags/gflags.h</text>
</g>
<!-- Node13&#45;&gt;Node15 -->
<g id="edge14" class="edge"><title>Node13&#45;&gt;Node15</title>
<path fill="none" stroke="midnightblue" d="M936.187,-74.4651C945.304,-72.0063 955.51,-69.5675 965,-68 1190.51,-30.7533 1253.28,-73.7199 1478,-32 1483.06,-31.0599 1488.34,-29.7779 1493.48,-28.3568"/>
<polygon fill="midnightblue" stroke="midnightblue" points="1494.5,-31.7045 1503.1,-25.5056 1492.51,-24.9934 1494.5,-31.7045"/>
</g>
<!-- Node20&#45;&gt;Node10 -->
<g id="edge20" class="edge"><title>Node20&#45;&gt;Node10</title>
<path fill="none" stroke="midnightblue" d="M765.568,-80.6972C704.438,-76.1967 581.86,-63.7333 483,-32 481.087,-31.386 479.145,-30.665 477.216,-29.8771"/>
<polygon fill="midnightblue" stroke="midnightblue" points="478.427,-26.5811 467.881,-25.5647 475.491,-32.9358 478.427,-26.5811"/>
</g>
<!-- Node20&#45;&gt;Node11 -->
<g id="edge21" class="edge"><title>Node20&#45;&gt;Node11</title>
<path fill="none" stroke="midnightblue" d="M765.904,-78.6055C714.698,-72.0023 621.282,-57.4944 545,-32 543.086,-31.3604 541.138,-30.6287 539.198,-29.8403"/>
<polygon fill="midnightblue" stroke="midnightblue" points="540.317,-26.5057 529.762,-25.5902 537.442,-32.8882 540.317,-26.5057"/>
</g>
<!-- Node20&#45;&gt;Node12 -->
<g id="edge23" class="edge"><title>Node20&#45;&gt;Node12</title>
<path fill="none" stroke="midnightblue" d="M778.769,-74.3717C744.721,-62.7283 683.929,-41.9394 645.626,-28.8411"/>
<polygon fill="midnightblue" stroke="midnightblue" points="646.526,-25.45 635.932,-25.5259 644.261,-32.0734 646.526,-25.45"/>
</g>
<!-- Node20&#45;&gt;Node18 -->
<g id="edge25" class="edge"><title>Node20&#45;&gt;Node18</title>
<path fill="none" stroke="midnightblue" d="M795.372,-74.3717C786.286,-65.2858 771.631,-50.6306 759.407,-38.4068"/>
<polygon fill="midnightblue" stroke="midnightblue" points="761.727,-35.7777 752.181,-31.1815 756.778,-40.7274 761.727,-35.7777"/>
</g>
<!-- Node21 -->
<g id="node21" class="node"><title>Node21</title>
<polygon fill="white" stroke="#bfbfbf" points="1115,-6.5 1115,-25.5 1207,-25.5 1207,-6.5 1115,-6.5"/>
<text text-anchor="middle" x="1161" y="-13.5" font-family="Helvetica,sans-Serif" font-size="10.00">boost/cstdint.hpp</text>
</g>
<!-- Node20&#45;&gt;Node21 -->
<g id="edge22" class="edge"><title>Node20&#45;&gt;Node21</title>
<path fill="none" stroke="midnightblue" d="M828.178,-74.4264C835.445,-72.083 843.485,-69.7188 851,-68 962.147,-42.5773 993.284,-54.7918 1105,-32 1110.49,-30.8808 1116.23,-29.5398 1121.86,-28.1263"/>
<polygon fill="midnightblue" stroke="midnightblue" points="1123.01,-31.4447 1131.8,-25.5356 1121.24,-24.671 1123.01,-31.4447"/>
</g>
<!-- Node22 -->
<g id="node22" class="node"><title>Node22</title>
<polygon fill="white" stroke="#bfbfbf" points="1225,-1 1225,-31 1347,-31 1347,-1 1225,-1"/>
<text text-anchor="start" x="1233" y="-19" font-family="Helvetica,sans-Serif" font-size="10.00">gen&#45;cpp/CatalogObjects</text>
<text text-anchor="middle" x="1286" y="-8" font-family="Helvetica,sans-Serif" font-size="10.00">_types.h</text>
</g>
<!-- Node20&#45;&gt;Node22 -->
<g id="edge24" class="edge"><title>Node20&#45;&gt;Node22</title>
<path fill="none" stroke="midnightblue" d="M827.651,-74.3812C835.042,-71.9789 843.283,-69.5935 851,-68 1007.37,-35.7127 1053.07,-56.235 1214.69,-32.074"/>
<polygon fill="midnightblue" stroke="midnightblue" points="1215.64,-35.4694 1224.99,-30.4968 1214.58,-28.55 1215.64,-35.4694"/>
</g>
<!-- Node23 -->
<g id="node23" class="node"><title>Node23</title>
<polygon fill="white" stroke="#bfbfbf" points="1365,-1 1365,-31 1469,-31 1469,-1 1365,-1"/>
<text text-anchor="start" x="1373" y="-19" font-family="Helvetica,sans-Serif" font-size="10.00">gen&#45;cpp/ErrorCodes</text>
<text text-anchor="middle" x="1417" y="-8" font-family="Helvetica,sans-Serif" font-size="10.00">_constants.h</text>
</g>
<!-- Node20&#45;&gt;Node23 -->
<g id="edge26" class="edge"><title>Node20&#45;&gt;Node23</title>
<path fill="none" stroke="midnightblue" d="M827.145,-74.4092C834.657,-71.9473 843.094,-69.5209 851,-68 1068.73,-26.116 1131.88,-65.7939 1354.83,-31.9921"/>
<polygon fill="midnightblue" stroke="midnightblue" points="1355.53,-35.425 1364.88,-30.4354 1354.46,-28.5075 1355.53,-35.425"/>
</g>
<!-- Node24 -->
<g id="node24" class="node"><title>Node24</title>
<polygon fill="white" stroke="#bfbfbf" points="808.5,-1 808.5,-31 957.5,-31 957.5,-1 808.5,-1"/>
<text text-anchor="start" x="816.5" y="-19" font-family="Helvetica,sans-Serif" font-size="10.00">gen&#45;cpp/ImpalaInternalService</text>
<text text-anchor="middle" x="883" y="-8" font-family="Helvetica,sans-Serif" font-size="10.00">_types.h</text>
</g>
<!-- Node20&#45;&gt;Node24 -->
<g id="edge27" class="edge"><title>Node20&#45;&gt;Node24</title>
<path fill="none" stroke="midnightblue" d="M814.328,-74.3717C825.409,-65.1143 843.409,-50.0756 858.202,-37.7175"/>
<polygon fill="midnightblue" stroke="midnightblue" points="860.595,-40.2789 866.025,-31.1815 856.107,-34.9069 860.595,-40.2789"/>
</g>
<!-- Node25 -->
<g id="node25" class="node"><title>Node25</title>
<polygon fill="white" stroke="#bfbfbf" points="975.5,-6.5 975.5,-25.5 1096.5,-25.5 1096.5,-6.5 975.5,-6.5"/>
<text text-anchor="middle" x="1036" y="-13.5" font-family="Helvetica,sans-Serif" font-size="10.00">gutil/strings/substitute.h</text>
</g>
<!-- Node20&#45;&gt;Node25 -->
<g id="edge28" class="edge"><title>Node20&#45;&gt;Node25</title>
<path fill="none" stroke="midnightblue" d="M830.292,-74.4049C837.026,-72.2596 844.268,-70.0014 851,-68 899.602,-53.5514 955.801,-38.2573 993.386,-28.2296"/>
<polygon fill="midnightblue" stroke="midnightblue" points="994.708,-31.4997 1003.47,-25.5459 992.908,-24.735 994.708,-31.4997"/>
</g>
</g>
</svg>
        <g id="navigator" transform="translate(0 0)" fill="#404254">
                <rect fill="#f2f5e9" fill-opacity="0.5" stroke="#606060" stroke-width=".5" x="0" y="0" width="60" height="60"/>
                <use id="zoomplus" xlink:href="#zoomPlus" x="17" y="9" onmousedown="handleZoom(evt,'in')"/>
                <use id="zoomminus" xlink:href="#zoomMin" x="42" y="9" onmousedown="handleZoom(evt,'out')"/>
                <use id="reset" xlink:href="#resetDef" x="30" y="36" onmousedown="handleReset()"/>
                <g id="arrowUp" xlink:href="#dirArrow" transform="translate(30 24)" onmousedown="handlePan(0,-1)">
                  <use xlink:href="#rim" fill="#404040">
                        <set attributeName="fill" to="#808080" begin="arrowUp.mouseover" end="arrowUp.mouseout"/>
                  </use>
                  <path fill="none" stroke="white" stroke-width="1.5" d="M0,-3.0v7 M-2.5,-0.5L0,-3.0L2.5,-0.5"/>
                </g>
                <g id="arrowRight" xlink:href="#dirArrow" transform="rotate(90) translate(36 -43)" onmousedown="handlePan(1,0)">
                  <use xlink:href="#rim" fill="#404040">
                        <set attributeName="fill" to="#808080" begin="arrowRight.mouseover" end="arrowRight.mouseout"/>
                  </use>
                  <path fill="none" stroke="white" stroke-width="1.5" d="M0,-3.0v7 M-2.5,-0.5L0,-3.0L2.5,-0.5"/>
                </g>
                <g id="arrowDown" xlink:href="#dirArrow" transform="rotate(180) translate(-30 -48)" onmousedown="handlePan(0,1)">
                  <use xlink:href="#rim" fill="#404040">
                        <set attributeName="fill" to="#808080" begin="arrowDown.mouseover" end="arrowDown.mouseout"/>
                  </use>
                  <path fill="none" stroke="white" stroke-width="1.5" d="M0,-3.0v7 M-2.5,-0.5L0,-3.0L2.5,-0.5"/>
                </g>
                <g id="arrowLeft" xlink:href="#dirArrow" transform="rotate(270) translate(-36 17)" onmousedown="handlePan(-1,0)">
                  <use xlink:href="#rim" fill="#404040">
                        <set attributeName="fill" to="#808080" begin="arrowLeft.mouseover" end="arrowLeft.mouseout"/>
                  </use>
                  <path fill="none" stroke="white" stroke-width="1.5" d="M0,-3.0v7 M-2.5,-0.5L0,-3.0L2.5,-0.5"/>
                </g>
        </g>
        <svg viewBox="0 0 15 15" width="100%" height="30px" preserveAspectRatio="xMaxYMin meet">
         <g id="arrow_out" transform="scale(0.3 0.3)">
          <a xlink:href="thread-resource-mgr_8h__incl_org.svg" target="_base">
           <rect id="button" ry="5" rx="5" y="6" x="6" height="38" width="38"
                fill="#f2f5e9" fill-opacity="0.5" stroke="#606060" stroke-width="1.0"/>
           <path id="arrow"
             d="M 11.500037,31.436501 C 11.940474,20.09759 22.043105,11.32322 32.158766,21.979434 L 37.068811,17.246167 C 37.068811,17.246167 37.088388,32 37.088388,32 L 22.160133,31.978069 C 22.160133,31.978069 26.997745,27.140456 26.997745,27.140456 C 18.528582,18.264221 13.291696,25.230495 11.500037,31.436501 z"
             style="fill:#404040;"/>
          </a>
         </g>
        </svg>
</svg>
