<?xml version="1.0" encoding="UTF-8" standalone="no"?>
<!DOCTYPE svg PUBLIC "-//W3C//DTD SVG 1.1//EN"
 "http://www.w3.org/Graphics/SVG/1.1/DTD/svg11.dtd">
<!-- Generated by graphviz version 2.36.0 (20140111.2315)
 -->
<!-- Title: be/src/rpc/thrift&#45;util.cc Pages: 1 -->
<svg width="2483pt" height="356pt"
 viewBox="0.00 0.00 2483.00 356.00" xmlns="http://www.w3.org/2000/svg" xmlns:xlink="http://www.w3.org/1999/xlink">
<g id="graph0" class="graph" transform="scale(1 1) rotate(0) translate(4 352)">
<title>be/src/rpc/thrift&#45;util.cc</title>
<polygon fill="white" stroke="none" points="-4,4 -4,-352 2479,-352 2479,4 -4,4"/>
<!-- Node1 -->
<g id="node1" class="node"><title>Node1</title>
<polygon fill="#bfbfbf" stroke="black" points="1497,-328.5 1497,-347.5 1609,-347.5 1609,-328.5 1497,-328.5"/>
<text text-anchor="middle" x="1553" y="-335.5" font-family="Helvetica,sans-Serif" font-size="10.00">be/src/rpc/thrift&#45;util.cc</text>
</g>
<!-- Node2 -->
<g id="node2" class="node"><title>Node2</title>
<g id="a_node2"><a xlink:href="thrift-util_8h.html" target="_top" xlink:title="rpc/thrift&#45;util.h">
<polygon fill="white" stroke="black" points="678.5,-266.5 678.5,-285.5 755.5,-285.5 755.5,-266.5 678.5,-266.5"/>
<text text-anchor="middle" x="717" y="-273.5" font-family="Helvetica,sans-Serif" font-size="10.00">rpc/thrift&#45;util.h</text>
</a>
</g>
</g>
<!-- Node1&#45;&gt;Node2 -->
<g id="edge1" class="edge"><title>Node1&#45;&gt;Node2</title>
<path fill="none" stroke="midnightblue" d="M1496.85,-332.97C1342.2,-321.871 911.882,-290.987 766.052,-280.521"/>
<polygon fill="midnightblue" stroke="midnightblue" points="765.872,-276.999 755.648,-279.774 765.371,-283.981 765.872,-276.999"/>
</g>
<!-- Node3 -->
<g id="node3" class="node"><title>Node3</title>
<polygon fill="white" stroke="#bfbfbf" points="813,-198.5 813,-217.5 921,-217.5 921,-198.5 813,-198.5"/>
<text text-anchor="middle" x="867" y="-205.5" font-family="Helvetica,sans-Serif" font-size="10.00">boost/shared_ptr.hpp</text>
</g>
<!-- Node1&#45;&gt;Node3 -->
<g id="edge26" class="edge"><title>Node1&#45;&gt;Node3</title>
<path fill="none" stroke="midnightblue" d="M1496.76,-331.809C1427.18,-324.924 1305.26,-311.344 1202,-292 1094.05,-271.777 968.945,-237.963 906.592,-220.388"/>
<polygon fill="midnightblue" stroke="midnightblue" points="907.351,-216.965 896.775,-217.608 905.444,-223.7 907.351,-216.965"/>
</g>
<!-- Node22 -->
<g id="node22" class="node"><title>Node22</title>
<polygon fill="white" stroke="#bfbfbf" points="1518.5,-74.5 1518.5,-93.5 1607.5,-93.5 1607.5,-74.5 1518.5,-74.5"/>
<text text-anchor="middle" x="1563" y="-81.5" font-family="Helvetica,sans-Serif" font-size="10.00">boost/thread.hpp</text>
</g>
<!-- Node1&#45;&gt;Node22 -->
<g id="edge27" class="edge"><title>Node1&#45;&gt;Node22</title>
<path fill="none" stroke="midnightblue" d="M1496.71,-333.645C1421.74,-327.234 1303.66,-309.17 1350,-260 1442.68,-161.664 1864.32,-322.336 1957,-224 2058.47,-116.329 1748.11,-91.9927 1617.77,-86.5483"/>
<polygon fill="midnightblue" stroke="midnightblue" points="1617.72,-83.0437 1607.59,-86.1463 1617.45,-90.0382 1617.72,-83.0437"/>
</g>
<!-- Node23 -->
<g id="node23" class="node"><title>Node23</title>
<g id="a_node23"><a xlink:href="hash-util_8h.html" target="_top" xlink:title="util/hash&#45;util.h">
<polygon fill="white" stroke="black" points="-0.5,-198.5 -0.5,-217.5 76.5,-217.5 76.5,-198.5 -0.5,-198.5"/>
<text text-anchor="middle" x="38" y="-205.5" font-family="Helvetica,sans-Serif" font-size="10.00">util/hash&#45;util.h</text>
</a>
</g>
</g>
<!-- Node1&#45;&gt;Node23 -->
<g id="edge28" class="edge"><title>Node1&#45;&gt;Node23</title>
<path fill="none" stroke="midnightblue" d="M1496.61,-336.732C1235.4,-335.306 153.099,-327.279 91,-292 66.1763,-277.897 51.1864,-246.877 43.7635,-227.01"/>
<polygon fill="midnightblue" stroke="midnightblue" points="47.0637,-225.845 40.4813,-217.543 40.4499,-228.137 47.0637,-225.845"/>
</g>
<!-- Node27 -->
<g id="node27" class="node"><title>Node27</title>
<g id="a_node27"><a xlink:href="time_8h.html" target="_top" xlink:title="util/time.h">
<polygon fill="white" stroke="black" points="497.5,-74.5 497.5,-93.5 556.5,-93.5 556.5,-74.5 497.5,-74.5"/>
<text text-anchor="middle" x="527" y="-81.5" font-family="Helvetica,sans-Serif" font-size="10.00">util/time.h</text>
</a>
</g>
</g>
<!-- Node1&#45;&gt;Node27 -->
<g id="edge37" class="edge"><title>Node1&#45;&gt;Node27</title>
<path fill="none" stroke="midnightblue" d="M1496.77,-337.043C1243.43,-336.651 216.346,-328.585 124,-224 114.586,-213.339 115.131,-203.118 124,-192 168.916,-135.699 212.272,-174.031 282,-156 356.251,-136.8 442.163,-111.085 489.979,-96.4559"/>
<polygon fill="midnightblue" stroke="midnightblue" points="491.053,-99.7877 499.587,-93.5089 489,-93.0955 491.053,-99.7877"/>
</g>
<!-- Node29 -->
<g id="node29" class="node"><title>Node29</title>
<g id="a_node29"><a xlink:href="thrift-server_8h.html" target="_top" xlink:title="rpc/thrift&#45;server.h">
<polygon fill="white" stroke="black" points="1211.5,-266.5 1211.5,-285.5 1302.5,-285.5 1302.5,-266.5 1211.5,-266.5"/>
<text text-anchor="middle" x="1257" y="-273.5" font-family="Helvetica,sans-Serif" font-size="10.00">rpc/thrift&#45;server.h</text>
</a>
</g>
</g>
<!-- Node1&#45;&gt;Node29 -->
<g id="edge40" class="edge"><title>Node1&#45;&gt;Node29</title>
<path fill="none" stroke="midnightblue" d="M1504.02,-328.495C1456.17,-319.99 1381.36,-306.169 1317,-292 1311.29,-290.743 1305.29,-289.342 1299.39,-287.915"/>
<polygon fill="midnightblue" stroke="midnightblue" points="1300.16,-284.501 1289.62,-285.511 1298.49,-291.298 1300.16,-284.501"/>
</g>
<!-- Node41 -->
<g id="node41" class="node"><title>Node41</title>
<polygon fill="white" stroke="#bfbfbf" points="1359.5,-266.5 1359.5,-285.5 1478.5,-285.5 1478.5,-266.5 1359.5,-266.5"/>
<text text-anchor="middle" x="1419" y="-273.5" font-family="Helvetica,sans-Serif" font-size="10.00">gen&#45;cpp/Types_types.h</text>
</g>
<!-- Node1&#45;&gt;Node41 -->
<g id="edge71" class="edge"><title>Node1&#45;&gt;Node41</title>
<path fill="none" stroke="midnightblue" d="M1533.8,-328.403C1511.21,-318.29 1473.5,-301.404 1447.5,-289.761"/>
<polygon fill="midnightblue" stroke="midnightblue" points="1448.72,-286.473 1438.16,-285.581 1445.86,-292.862 1448.72,-286.473"/>
</g>
<!-- Node42 -->
<g id="node42" class="node"><title>Node42</title>
<polygon fill="white" stroke="#bfbfbf" points="1496.5,-266.5 1496.5,-285.5 1609.5,-285.5 1609.5,-266.5 1496.5,-266.5"/>
<text text-anchor="middle" x="1553" y="-273.5" font-family="Helvetica,sans-Serif" font-size="10.00">gen&#45;cpp/Data_types.h</text>
</g>
<!-- Node1&#45;&gt;Node42 -->
<g id="edge72" class="edge"><title>Node1&#45;&gt;Node42</title>
<path fill="none" stroke="midnightblue" d="M1553,-328.403C1553,-319.938 1553,-306.728 1553,-295.82"/>
<polygon fill="midnightblue" stroke="midnightblue" points="1556.5,-295.581 1553,-285.581 1549.5,-295.581 1556.5,-295.581"/>
</g>
<!-- Node43 -->
<g id="node43" class="node"><title>Node43</title>
<polygon fill="white" stroke="#bfbfbf" points="1628,-266.5 1628,-285.5 1698,-285.5 1698,-266.5 1628,-266.5"/>
<text text-anchor="middle" x="1663" y="-273.5" font-family="Helvetica,sans-Serif" font-size="10.00">thrift/Thrift.h</text>
</g>
<!-- Node1&#45;&gt;Node43 -->
<g id="edge73" class="edge"><title>Node1&#45;&gt;Node43</title>
<path fill="none" stroke="midnightblue" d="M1568.76,-328.403C1586.98,-318.468 1617.17,-301.997 1638.47,-290.381"/>
<polygon fill="midnightblue" stroke="midnightblue" points="1640.17,-293.442 1647.27,-285.581 1636.81,-287.297 1640.17,-293.442"/>
</g>
<!-- Node44 -->
<g id="node44" class="node"><title>Node44</title>
<polygon fill="white" stroke="#bfbfbf" points="1716.5,-266.5 1716.5,-285.5 1841.5,-285.5 1841.5,-266.5 1716.5,-266.5"/>
<text text-anchor="middle" x="1779" y="-273.5" font-family="Helvetica,sans-Serif" font-size="10.00">thrift/transport/TSocket.h</text>
</g>
<!-- Node1&#45;&gt;Node44 -->
<g id="edge74" class="edge"><title>Node1&#45;&gt;Node44</title>
<path fill="none" stroke="midnightblue" d="M1585.38,-328.403C1625.24,-317.822 1693.02,-299.827 1736.89,-288.18"/>
<polygon fill="midnightblue" stroke="midnightblue" points="1737.91,-291.529 1746.68,-285.581 1736.12,-284.764 1737.91,-291.529"/>
</g>
<!-- Node45 -->
<g id="node45" class="node"><title>Node45</title>
<polygon fill="white" stroke="#bfbfbf" points="1859.5,-261 1859.5,-291 1974.5,-291 1974.5,-261 1859.5,-261"/>
<text text-anchor="start" x="1867.5" y="-279" font-family="Helvetica,sans-Serif" font-size="10.00">thrift/transport/TServer</text>
<text text-anchor="middle" x="1917" y="-268" font-family="Helvetica,sans-Serif" font-size="10.00">Socket.h</text>
</g>
<!-- Node1&#45;&gt;Node45 -->
<g id="edge75" class="edge"><title>Node1&#45;&gt;Node45</title>
<path fill="none" stroke="midnightblue" d="M1609.03,-329.7C1666.73,-321.915 1759.45,-308.664 1849.23,-292.065"/>
<polygon fill="midnightblue" stroke="midnightblue" points="1850.12,-295.459 1859.31,-290.184 1848.84,-288.578 1850.12,-295.459"/>
</g>
<!-- Node46 -->
<g id="node46" class="node"><title>Node46</title>
<polygon fill="white" stroke="#bfbfbf" points="1992.5,-261 1992.5,-291 2087.5,-291 2087.5,-261 1992.5,-261"/>
<text text-anchor="start" x="2000.5" y="-279" font-family="Helvetica,sans-Serif" font-size="10.00">thrift/concurrency</text>
<text text-anchor="middle" x="2040" y="-268" font-family="Helvetica,sans-Serif" font-size="10.00">/ThreadManager.h</text>
</g>
<!-- Node1&#45;&gt;Node46 -->
<g id="edge76" class="edge"><title>Node1&#45;&gt;Node46</title>
<path fill="none" stroke="midnightblue" d="M1609.05,-333.88C1689.57,-328.794 1842.7,-316.871 1982.21,-291.956"/>
<polygon fill="midnightblue" stroke="midnightblue" points="1983.01,-295.367 1992.23,-290.14 1981.76,-288.48 1983.01,-295.367"/>
</g>
<!-- Node47 -->
<g id="node47" class="node"><title>Node47</title>
<polygon fill="white" stroke="#bfbfbf" points="2106,-261 2106,-291 2222,-291 2222,-261 2106,-261"/>
<text text-anchor="start" x="2114" y="-279" font-family="Helvetica,sans-Serif" font-size="10.00">thrift/concurrency</text>
<text text-anchor="middle" x="2164" y="-268" font-family="Helvetica,sans-Serif" font-size="10.00">/PosixThreadFactory.h</text>
</g>
<!-- Node1&#45;&gt;Node47 -->
<g id="edge77" class="edge"><title>Node1&#45;&gt;Node47</title>
<path fill="none" stroke="midnightblue" d="M1609.18,-334.835C1706.27,-330.55 1911.85,-319.088 2095.73,-291.882"/>
<polygon fill="midnightblue" stroke="midnightblue" points="2096.49,-295.308 2105.86,-290.364 2095.45,-288.385 2096.49,-295.308"/>
</g>
<!-- Node48 -->
<g id="node48" class="node"><title>Node48</title>
<polygon fill="white" stroke="#bfbfbf" points="2240,-261 2240,-291 2362,-291 2362,-261 2240,-261"/>
<text text-anchor="start" x="2248" y="-279" font-family="Helvetica,sans-Serif" font-size="10.00">thrift/protocol/TCompact</text>
<text text-anchor="middle" x="2301" y="-268" font-family="Helvetica,sans-Serif" font-size="10.00">Protocol.h</text>
</g>
<!-- Node1&#45;&gt;Node48 -->
<g id="edge78" class="edge"><title>Node1&#45;&gt;Node48</title>
<path fill="none" stroke="midnightblue" d="M1609.44,-335.95C1725.95,-333.189 2001.3,-323.597 2230,-292 2230.1,-291.986 2230.2,-291.972 2230.3,-291.958"/>
<polygon fill="midnightblue" stroke="midnightblue" points="2230.55,-295.461 2239.91,-290.482 2229.49,-288.542 2230.55,-295.461"/>
</g>
<!-- Node49 -->
<g id="node49" class="node"><title>Node49</title>
<g id="a_node49"><a xlink:href="names_8h.html" target="_top" xlink:title="common/names.h">
<polygon fill="white" stroke="black" points="2380.5,-266.5 2380.5,-285.5 2475.5,-285.5 2475.5,-266.5 2380.5,-266.5"/>
<text text-anchor="middle" x="2428" y="-273.5" font-family="Helvetica,sans-Serif" font-size="10.00">common/names.h</text>
</a>
</g>
</g>
<!-- Node1&#45;&gt;Node49 -->
<g id="edge79" class="edge"><title>Node1&#45;&gt;Node49</title>
<path fill="none" stroke="midnightblue" d="M1609.45,-337.806C1742.82,-338.861 2087.54,-336.622 2371,-292 2377.3,-291.008 2383.91,-289.609 2390.31,-288.061"/>
<polygon fill="midnightblue" stroke="midnightblue" points="2391.3,-291.421 2400.12,-285.542 2389.56,-284.641 2391.3,-291.421"/>
</g>
<!-- Node2&#45;&gt;Node3 -->
<g id="edge2" class="edge"><title>Node2&#45;&gt;Node3</title>
<path fill="none" stroke="midnightblue" d="M736.61,-266.372C762.438,-255.007 808.066,-234.931 837.918,-221.796"/>
<polygon fill="midnightblue" stroke="midnightblue" points="839.642,-224.862 847.385,-217.63 836.823,-218.454 839.642,-224.862"/>
</g>
<!-- Node4 -->
<g id="node4" class="node"><title>Node4</title>
<polygon fill="white" stroke="#bfbfbf" points="264.5,-198.5 264.5,-217.5 419.5,-217.5 419.5,-198.5 264.5,-198.5"/>
<text text-anchor="middle" x="342" y="-205.5" font-family="Helvetica,sans-Serif" font-size="10.00">thrift/protocol/TBinaryProtocol.h</text>
</g>
<!-- Node2&#45;&gt;Node4 -->
<g id="edge3" class="edge"><title>Node2&#45;&gt;Node4</title>
<path fill="none" stroke="midnightblue" d="M678.281,-268.185C612.375,-256.586 478.023,-232.94 400.573,-219.309"/>
<polygon fill="midnightblue" stroke="midnightblue" points="400.952,-215.822 390.496,-217.535 399.738,-222.716 400.952,-215.822"/>
</g>
<!-- Node5 -->
<g id="node5" class="node"><title>Node5</title>
<polygon fill="white" stroke="#bfbfbf" points="551,-136.5 551,-155.5 603,-155.5 603,-136.5 551,-136.5"/>
<text text-anchor="middle" x="577" y="-143.5" font-family="Helvetica,sans-Serif" font-size="10.00">sstream</text>
</g>
<!-- Node2&#45;&gt;Node5 -->
<g id="edge4" class="edge"><title>Node2&#45;&gt;Node5</title>
<path fill="none" stroke="midnightblue" d="M678.269,-272.891C614.842,-268.539 493.232,-256.123 467,-224 458.004,-212.984 459.073,-203.808 467,-192 483.375,-167.608 515.563,-156.429 540.908,-151.31"/>
<polygon fill="midnightblue" stroke="midnightblue" points="541.705,-154.723 550.935,-149.521 540.475,-147.832 541.705,-154.723"/>
</g>
<!-- Node6 -->
<g id="node6" class="node"><title>Node6</title>
<polygon fill="white" stroke="#bfbfbf" points="1468,-6.5 1468,-25.5 1512,-25.5 1512,-6.5 1468,-6.5"/>
<text text-anchor="middle" x="1490" y="-13.5" font-family="Helvetica,sans-Serif" font-size="10.00">vector</text>
</g>
<!-- Node2&#45;&gt;Node6 -->
<g id="edge5" class="edge"><title>Node2&#45;&gt;Node6</title>
<path fill="none" stroke="midnightblue" d="M755.863,-273.991C872.14,-270.615 1215.83,-257.954 1322,-224 1348.57,-215.502 1350.89,-204.147 1376,-192 1478.84,-142.26 1551.27,-194.129 1616,-100 1643.04,-60.6695 1567.75,-35.2775 1522.1,-23.9081"/>
<polygon fill="midnightblue" stroke="midnightblue" points="1522.85,-20.4885 1512.31,-21.5691 1521.23,-27.2969 1522.85,-20.4885"/>
</g>
<!-- Node7 -->
<g id="node7" class="node"><title>Node7</title>
<polygon fill="white" stroke="#bfbfbf" points="476.5,-198.5 476.5,-217.5 621.5,-217.5 621.5,-198.5 476.5,-198.5"/>
<text text-anchor="middle" x="549" y="-205.5" font-family="Helvetica,sans-Serif" font-size="10.00">thrift/TApplicationException.h</text>
</g>
<!-- Node2&#45;&gt;Node7 -->
<g id="edge6" class="edge"><title>Node2&#45;&gt;Node7</title>
<path fill="none" stroke="midnightblue" d="M695.037,-266.372C665.778,-254.877 613.829,-234.469 580.427,-221.346"/>
<polygon fill="midnightblue" stroke="midnightblue" points="581.29,-217.925 570.702,-217.526 578.73,-224.44 581.29,-217.925"/>
</g>
<!-- Node8 -->
<g id="node8" class="node"><title>Node8</title>
<polygon fill="white" stroke="#bfbfbf" points="639.5,-198.5 639.5,-217.5 794.5,-217.5 794.5,-198.5 639.5,-198.5"/>
<text text-anchor="middle" x="717" y="-205.5" font-family="Helvetica,sans-Serif" font-size="10.00">thrift/protocol/TDebugProtocol.h</text>
</g>
<!-- Node2&#45;&gt;Node8 -->
<g id="edge7" class="edge"><title>Node2&#45;&gt;Node8</title>
<path fill="none" stroke="midnightblue" d="M717,-266.372C717,-256.643 717,-240.528 717,-227.85"/>
<polygon fill="midnightblue" stroke="midnightblue" points="720.5,-227.841 717,-217.841 713.5,-227.841 720.5,-227.841"/>
</g>
<!-- Node9 -->
<g id="node9" class="node"><title>Node9</title>
<polygon fill="white" stroke="#bfbfbf" points="133.5,-193 133.5,-223 246.5,-223 246.5,-193 133.5,-193"/>
<text text-anchor="start" x="141.5" y="-211" font-family="Helvetica,sans-Serif" font-size="10.00">thrift/transport/TBuffer</text>
<text text-anchor="middle" x="190" y="-200" font-family="Helvetica,sans-Serif" font-size="10.00">Transports.h</text>
</g>
<!-- Node2&#45;&gt;Node9 -->
<g id="edge8" class="edge"><title>Node2&#45;&gt;Node9</title>
<path fill="none" stroke="midnightblue" d="M678.457,-272.276C600.538,-266.441 418.591,-251.149 256.778,-224.19"/>
<polygon fill="midnightblue" stroke="midnightblue" points="257.084,-220.693 246.642,-222.482 255.921,-227.595 257.084,-220.693"/>
</g>
<!-- Node10 -->
<g id="node10" class="node"><title>Node10</title>
<g id="a_node10"><a xlink:href="status_8h.html" target="_top" xlink:title="common/status.h">
<polygon fill="white" stroke="black" points="1268,-136.5 1268,-155.5 1360,-155.5 1360,-136.5 1268,-136.5"/>
<text text-anchor="middle" x="1314" y="-143.5" font-family="Helvetica,sans-Serif" font-size="10.00">common/status.h</text>
</a>
</g>
</g>
<!-- Node2&#45;&gt;Node10 -->
<g id="edge9" class="edge"><title>Node2&#45;&gt;Node10</title>
<path fill="none" stroke="midnightblue" d="M755.684,-274.289C879.422,-271.653 1259.83,-260.616 1300,-224 1315.89,-209.516 1317.49,-183.515 1316.39,-165.771"/>
<polygon fill="midnightblue" stroke="midnightblue" points="1319.86,-165.358 1315.43,-155.736 1312.89,-166.024 1319.86,-165.358"/>
</g>
<!-- Node10&#45;&gt;Node6 -->
<g id="edge11" class="edge"><title>Node10&#45;&gt;Node6</title>
<path fill="none" stroke="midnightblue" d="M1360.07,-138.835C1388.49,-132.976 1424.14,-121.67 1449,-100 1468.65,-82.8752 1479.86,-54.1389 1485.43,-35.3747"/>
<polygon fill="midnightblue" stroke="midnightblue" points="1488.83,-36.2107 1488.09,-25.6422 1482.08,-34.3693 1488.83,-36.2107"/>
</g>
<!-- Node11 -->
<g id="node11" class="node"><title>Node11</title>
<polygon fill="white" stroke="#bfbfbf" points="957.5,-6.5 957.5,-25.5 998.5,-25.5 998.5,-6.5 957.5,-6.5"/>
<text text-anchor="middle" x="978" y="-13.5" font-family="Helvetica,sans-Serif" font-size="10.00">string</text>
</g>
<!-- Node10&#45;&gt;Node11 -->
<g id="edge10" class="edge"><title>Node10&#45;&gt;Node11</title>
<path fill="none" stroke="midnightblue" d="M1267.75,-137.43C1197.76,-125.869 1072.05,-104.661 1063,-100 1032.13,-84.1071 1005.1,-53.2259 990.215,-33.9406"/>
<polygon fill="midnightblue" stroke="midnightblue" points="992.883,-31.6634 984.088,-25.756 987.279,-35.8587 992.883,-31.6634"/>
</g>
<!-- Node12 -->
<g id="node12" class="node"><title>Node12</title>
<polygon fill="white" stroke="#bfbfbf" points="1268,-6.5 1268,-25.5 1382,-25.5 1382,-6.5 1268,-6.5"/>
<text text-anchor="middle" x="1325" y="-13.5" font-family="Helvetica,sans-Serif" font-size="10.00">boost/lexical_cast.hpp</text>
</g>
<!-- Node10&#45;&gt;Node12 -->
<g id="edge12" class="edge"><title>Node10&#45;&gt;Node12</title>
<path fill="none" stroke="midnightblue" d="M1360.16,-140.023C1385.89,-134.623 1415.89,-123.382 1432,-100 1440.07,-88.2879 1439.59,-80.0271 1432,-68 1419.67,-48.457 1397.56,-36.2458 1376.63,-28.6947"/>
<polygon fill="midnightblue" stroke="midnightblue" points="1377.73,-25.3721 1367.14,-25.5435 1375.53,-32.0156 1377.73,-25.3721"/>
</g>
<!-- Node13 -->
<g id="node13" class="node"><title>Node13</title>
<g id="a_node13"><a xlink:href="logging_8h.html" target="_top" xlink:title="common/logging.h">
<polygon fill="white" stroke="black" points="188,-74.5 188,-93.5 284,-93.5 284,-74.5 188,-74.5"/>
<text text-anchor="middle" x="236" y="-81.5" font-family="Helvetica,sans-Serif" font-size="10.00">common/logging.h</text>
</a>
</g>
</g>
<!-- Node10&#45;&gt;Node13 -->
<g id="edge13" class="edge"><title>Node10&#45;&gt;Node13</title>
<path fill="none" stroke="midnightblue" d="M1267.91,-137.171C1264.56,-136.732 1261.23,-136.334 1258,-136 917.221,-100.763 830.113,-118.179 488,-100 421.669,-96.4754 345.553,-91.8667 294.486,-88.6929"/>
<polygon fill="midnightblue" stroke="midnightblue" points="294.498,-85.1869 284.3,-88.0582 294.063,-92.1734 294.498,-85.1869"/>
</g>
<!-- Node16 -->
<g id="node16" class="node"><title>Node16</title>
<g id="a_node16"><a xlink:href="compiler-util_8h.html" target="_top" xlink:title="common/compiler&#45;util.h">
<polygon fill="white" stroke="black" points="607,-74.5 607,-93.5 725,-93.5 725,-74.5 607,-74.5"/>
<text text-anchor="middle" x="666" y="-81.5" font-family="Helvetica,sans-Serif" font-size="10.00">common/compiler&#45;util.h</text>
</a>
</g>
</g>
<!-- Node10&#45;&gt;Node16 -->
<g id="edge16" class="edge"><title>Node10&#45;&gt;Node16</title>
<path fill="none" stroke="midnightblue" d="M1267.89,-137.315C1264.55,-136.842 1261.23,-136.398 1258,-136 1069.61,-112.778 846.191,-96.5906 735.429,-89.3222"/>
<polygon fill="midnightblue" stroke="midnightblue" points="735.595,-85.8257 725.389,-88.6676 735.14,-92.8109 735.595,-85.8257"/>
</g>
<!-- Node17 -->
<g id="node17" class="node"><title>Node17</title>
<polygon fill="white" stroke="#bfbfbf" points="1082,-74.5 1082,-93.5 1202,-93.5 1202,-74.5 1082,-74.5"/>
<text text-anchor="middle" x="1142" y="-81.5" font-family="Helvetica,sans-Serif" font-size="10.00">gen&#45;cpp/Status_types.h</text>
</g>
<!-- Node10&#45;&gt;Node17 -->
<g id="edge17" class="edge"><title>Node10&#45;&gt;Node17</title>
<path fill="none" stroke="midnightblue" d="M1289.36,-136.403C1259.72,-126.067 1209.82,-108.656 1176.4,-96.9994"/>
<polygon fill="midnightblue" stroke="midnightblue" points="1177.19,-93.5697 1166.6,-93.5806 1174.89,-100.179 1177.19,-93.5697"/>
</g>
<!-- Node18 -->
<g id="node18" class="node"><title>Node18</title>
<polygon fill="white" stroke="#bfbfbf" points="1115,-1 1115,-31 1219,-31 1219,-1 1115,-1"/>
<text text-anchor="start" x="1123" y="-19" font-family="Helvetica,sans-Serif" font-size="10.00">gen&#45;cpp/ErrorCodes</text>
<text text-anchor="middle" x="1167" y="-8" font-family="Helvetica,sans-Serif" font-size="10.00">_types.h</text>
</g>
<!-- Node10&#45;&gt;Node18 -->
<g id="edge18" class="edge"><title>Node10&#45;&gt;Node18</title>
<path fill="none" stroke="midnightblue" d="M1267.99,-137.169C1198.93,-125.306 1076.12,-103.76 1073,-100 1063.91,-89.0593 1065.73,-80.2215 1073,-68 1081.49,-53.7304 1095.52,-43.2066 1110.19,-35.5529"/>
<polygon fill="midnightblue" stroke="midnightblue" points="1111.86,-38.6342 1119.36,-31.1504 1108.83,-32.324 1111.86,-38.6342"/>
</g>
<!-- Node19 -->
<g id="node19" class="node"><title>Node19</title>
<polygon fill="white" stroke="#bfbfbf" points="1314.5,-69 1314.5,-99 1423.5,-99 1423.5,-69 1314.5,-69"/>
<text text-anchor="start" x="1322.5" y="-87" font-family="Helvetica,sans-Serif" font-size="10.00">gen&#45;cpp/TCLIService</text>
<text text-anchor="middle" x="1369" y="-76" font-family="Helvetica,sans-Serif" font-size="10.00">_types.h</text>
</g>
<!-- Node10&#45;&gt;Node19 -->
<g id="edge19" class="edge"><title>Node10&#45;&gt;Node19</title>
<path fill="none" stroke="midnightblue" d="M1321.88,-136.403C1328.98,-128.657 1339.72,-116.938 1349.16,-106.645"/>
<polygon fill="midnightblue" stroke="midnightblue" points="1351.86,-108.877 1356.04,-99.1408 1346.7,-104.147 1351.86,-108.877"/>
</g>
<!-- Node20 -->
<g id="node20" class="node"><title>Node20</title>
<g id="a_node20"><a xlink:href="error-util_8h.html" target="_top" xlink:title="util/error&#45;util.h">
<polygon fill="white" stroke="red" points="1220,-74.5 1220,-93.5 1296,-93.5 1296,-74.5 1220,-74.5"/>
<text text-anchor="middle" x="1258" y="-81.5" font-family="Helvetica,sans-Serif" font-size="10.00">util/error&#45;util.h</text>
</a>
</g>
</g>
<!-- Node10&#45;&gt;Node20 -->
<g id="edge20" class="edge"><title>Node10&#45;&gt;Node20</title>
<path fill="none" stroke="midnightblue" d="M1305.98,-136.403C1297.41,-127.225 1283.64,-112.47 1273.04,-101.117"/>
<polygon fill="midnightblue" stroke="midnightblue" points="1275.39,-98.503 1266.01,-93.5806 1270.27,-103.279 1275.39,-98.503"/>
</g>
<!-- Node14 -->
<g id="node14" class="node"><title>Node14</title>
<polygon fill="white" stroke="#bfbfbf" points="279.5,-6.5 279.5,-25.5 356.5,-25.5 356.5,-6.5 279.5,-6.5"/>
<text text-anchor="middle" x="318" y="-13.5" font-family="Helvetica,sans-Serif" font-size="10.00">glog/logging.h</text>
</g>
<!-- Node13&#45;&gt;Node14 -->
<g id="edge14" class="edge"><title>Node13&#45;&gt;Node14</title>
<path fill="none" stroke="midnightblue" d="M246.72,-74.3717C260.103,-63.6004 283.209,-45.0021 299.48,-31.9065"/>
<polygon fill="midnightblue" stroke="midnightblue" points="301.682,-34.6271 307.277,-25.6305 297.293,-29.174 301.682,-34.6271"/>
</g>
<!-- Node15 -->
<g id="node15" class="node"><title>Node15</title>
<polygon fill="white" stroke="#bfbfbf" points="181,-6.5 181,-25.5 261,-25.5 261,-6.5 181,-6.5"/>
<text text-anchor="middle" x="221" y="-13.5" font-family="Helvetica,sans-Serif" font-size="10.00">gflags/gflags.h</text>
</g>
<!-- Node13&#45;&gt;Node15 -->
<g id="edge15" class="edge"><title>Node13&#45;&gt;Node15</title>
<path fill="none" stroke="midnightblue" d="M234.039,-74.3717C231.828,-64.6426 228.165,-48.528 225.284,-35.8504"/>
<polygon fill="midnightblue" stroke="midnightblue" points="228.639,-34.8167 223.009,-25.8411 221.813,-36.3682 228.639,-34.8167"/>
</g>
<!-- Node20&#45;&gt;Node6 -->
<g id="edge22" class="edge"><title>Node20&#45;&gt;Node6</title>
<path fill="none" stroke="midnightblue" d="M1284.29,-74.4049C1291.03,-72.2596 1298.27,-70.0014 1305,-68 1358.56,-52.0762 1421.36,-35.1254 1458.29,-25.3292"/>
<polygon fill="midnightblue" stroke="midnightblue" points="1459.22,-28.7037 1467.99,-22.7627 1457.43,-21.9365 1459.22,-28.7037"/>
</g>
<!-- Node20&#45;&gt;Node11 -->
<g id="edge21" class="edge"><title>Node20&#45;&gt;Node11</title>
<path fill="none" stroke="midnightblue" d="M1232.21,-74.4912C1225.05,-72.2529 1217.26,-69.9276 1210,-68 1138.42,-48.985 1053.08,-31.5485 1008.53,-22.8348"/>
<polygon fill="midnightblue" stroke="midnightblue" points="1009.11,-19.3826 998.626,-20.911 1007.78,-26.2541 1009.11,-19.3826"/>
</g>
<!-- Node20&#45;&gt;Node12 -->
<g id="edge24" class="edge"><title>Node20&#45;&gt;Node12</title>
<path fill="none" stroke="midnightblue" d="M1266.76,-74.3717C1277.33,-63.9547 1295.34,-46.2173 1308.54,-33.2162"/>
<polygon fill="midnightblue" stroke="midnightblue" points="1311.36,-35.3523 1316.02,-25.8411 1306.44,-30.3654 1311.36,-35.3523"/>
</g>
<!-- Node20&#45;&gt;Node18 -->
<g id="edge25" class="edge"><title>Node20&#45;&gt;Node18</title>
<path fill="none" stroke="midnightblue" d="M1246.1,-74.3717C1233.22,-65.0286 1212.22,-49.7966 1195.09,-37.375"/>
<polygon fill="midnightblue" stroke="midnightblue" points="1196.7,-34.2194 1186.55,-31.1815 1192.59,-39.8859 1196.7,-34.2194"/>
</g>
<!-- Node21 -->
<g id="node21" class="node"><title>Node21</title>
<polygon fill="white" stroke="#bfbfbf" points="386,-6.5 386,-25.5 478,-25.5 478,-6.5 386,-6.5"/>
<text text-anchor="middle" x="432" y="-13.5" font-family="Helvetica,sans-Serif" font-size="10.00">boost/cstdint.hpp</text>
</g>
<!-- Node20&#45;&gt;Node21 -->
<g id="edge23" class="edge"><title>Node20&#45;&gt;Node21</title>
<path fill="none" stroke="midnightblue" d="M1234.86,-74.471C1227.06,-71.9492 1218.25,-69.4719 1210,-68 895.89,-11.9683 808.69,-78.3057 493,-32 486.113,-30.9898 478.868,-29.5508 471.872,-27.9598"/>
<polygon fill="midnightblue" stroke="midnightblue" points="472.412,-24.4898 461.87,-25.552 470.773,-31.2954 472.412,-24.4898"/>
</g>
<!-- Node23&#45;&gt;Node13 -->
<g id="edge29" class="edge"><title>Node23&#45;&gt;Node13</title>
<path fill="none" stroke="midnightblue" d="M51.923,-198.421C85.7213,-177.596 172.35,-124.219 213.563,-98.8247"/>
<polygon fill="midnightblue" stroke="midnightblue" points="215.415,-101.795 222.092,-93.5693 211.743,-95.8354 215.415,-101.795"/>
</g>
<!-- Node23&#45;&gt;Node16 -->
<g id="edge30" class="edge"><title>Node23&#45;&gt;Node16</title>
<path fill="none" stroke="midnightblue" d="M76.8103,-199.46C184.624,-178.516 487.974,-119.585 612.066,-95.4777"/>
<polygon fill="midnightblue" stroke="midnightblue" points="612.949,-98.8716 622.098,-93.5287 611.614,-92 612.949,-98.8716"/>
</g>
<!-- Node24 -->
<g id="node24" class="node"><title>Node24</title>
<g id="a_node24"><a xlink:href="cpu-info_8h.html" target="_top" xlink:title="util/cpu&#45;info.h">
<polygon fill="white" stroke="black" points="198.5,-136.5 198.5,-155.5 273.5,-155.5 273.5,-136.5 198.5,-136.5"/>
<text text-anchor="middle" x="236" y="-143.5" font-family="Helvetica,sans-Serif" font-size="10.00">util/cpu&#45;info.h</text>
</a>
</g>
</g>
<!-- Node23&#45;&gt;Node24 -->
<g id="edge31" class="edge"><title>Node23&#45;&gt;Node24</title>
<path fill="none" stroke="midnightblue" d="M66.3686,-198.403C100.921,-187.933 159.424,-170.205 197.885,-158.55"/>
<polygon fill="midnightblue" stroke="midnightblue" points="199.129,-161.83 207.684,-155.581 197.099,-155.131 199.129,-161.83"/>
</g>
<!-- Node25 -->
<g id="node25" class="node"><title>Node25</title>
<g id="a_node25"><a xlink:href="sse-util_8h.html" target="_top" xlink:title="util/sse&#45;util.h">
<polygon fill="white" stroke="black" points="2,-136.5 2,-155.5 74,-155.5 74,-136.5 2,-136.5"/>
<text text-anchor="middle" x="38" y="-143.5" font-family="Helvetica,sans-Serif" font-size="10.00">util/sse&#45;util.h</text>
</a>
</g>
</g>
<!-- Node23&#45;&gt;Node25 -->
<g id="edge35" class="edge"><title>Node23&#45;&gt;Node25</title>
<path fill="none" stroke="midnightblue" d="M38,-198.403C38,-189.938 38,-176.728 38,-165.82"/>
<polygon fill="midnightblue" stroke="midnightblue" points="41.5001,-165.581 38,-155.581 34.5001,-165.581 41.5001,-165.581"/>
</g>
<!-- Node24&#45;&gt;Node11 -->
<g id="edge32" class="edge"><title>Node24&#45;&gt;Node11</title>
<path fill="none" stroke="midnightblue" d="M258.552,-136.494C302.181,-120.404 401.471,-85.5518 488,-68 659.321,-33.2489 869.417,-21.4789 947.17,-18.1456"/>
<polygon fill="midnightblue" stroke="midnightblue" points="947.398,-21.6392 957.245,-17.7297 947.109,-14.6452 947.398,-21.6392"/>
</g>
<!-- Node24&#45;&gt;Node13 -->
<g id="edge34" class="edge"><title>Node24&#45;&gt;Node13</title>
<path fill="none" stroke="midnightblue" d="M236,-136.403C236,-127.938 236,-114.728 236,-103.82"/>
<polygon fill="midnightblue" stroke="midnightblue" points="239.5,-103.581 236,-93.5806 232.5,-103.581 239.5,-103.581"/>
</g>
<!-- Node24&#45;&gt;Node21 -->
<g id="edge33" class="edge"><title>Node24&#45;&gt;Node21</title>
<path fill="none" stroke="midnightblue" d="M249.164,-136.403C282.36,-114.724 369.729,-57.6669 410.488,-31.0485"/>
<polygon fill="midnightblue" stroke="midnightblue" points="412.434,-33.9582 418.893,-25.5598 408.606,-28.0973 412.434,-33.9582"/>
</g>
<!-- Node26 -->
<g id="node26" class="node"><title>Node26</title>
<polygon fill="white" stroke="#bfbfbf" points="4,-74.5 4,-93.5 72,-93.5 72,-74.5 4,-74.5"/>
<text text-anchor="middle" x="38" y="-81.5" font-family="Helvetica,sans-Serif" font-size="10.00">emmintrin.h</text>
</g>
<!-- Node25&#45;&gt;Node26 -->
<g id="edge36" class="edge"><title>Node25&#45;&gt;Node26</title>
<path fill="none" stroke="midnightblue" d="M38,-136.403C38,-127.938 38,-114.728 38,-103.82"/>
<polygon fill="midnightblue" stroke="midnightblue" points="41.5001,-103.581 38,-93.5806 34.5001,-103.581 41.5001,-103.581"/>
</g>
<!-- Node27&#45;&gt;Node27 -->
<g id="edge39" class="edge"><title>Node27&#45;&gt;Node27</title>
<path fill="none" stroke="midnightblue" d="M543.378,-93.556C558.163,-98.2049 574,-95.0195 574,-84 574,-75.4771 564.526,-71.6406 553.393,-72.4906"/>
<polygon fill="midnightblue" stroke="midnightblue" points="552.523,-69.0943 543.378,-74.444 553.863,-75.9648 552.523,-69.0943"/>
</g>
<!-- Node28 -->
<g id="node28" class="node"><title>Node28</title>
<polygon fill="white" stroke="#bfbfbf" points="502.5,-6.5 502.5,-25.5 551.5,-25.5 551.5,-6.5 502.5,-6.5"/>
<text text-anchor="middle" x="527" y="-13.5" font-family="Helvetica,sans-Serif" font-size="10.00">stdint.h</text>
</g>
<!-- Node27&#45;&gt;Node28 -->
<g id="edge38" class="edge"><title>Node27&#45;&gt;Node28</title>
<path fill="none" stroke="midnightblue" d="M527,-74.3717C527,-64.6426 527,-48.528 527,-35.8504"/>
<polygon fill="midnightblue" stroke="midnightblue" points="530.5,-35.8411 527,-25.8411 523.5,-35.8412 530.5,-35.8411"/>
</g>
<!-- Node29&#45;&gt;Node3 -->
<g id="edge43" class="edge"><title>Node29&#45;&gt;Node3</title>
<path fill="none" stroke="midnightblue" d="M1211.31,-269.035C1147.91,-260.495 1029.79,-243.629 930,-224 923.702,-222.761 917.079,-221.329 910.59,-219.851"/>
<polygon fill="midnightblue" stroke="midnightblue" points="911.103,-216.376 900.569,-217.512 909.512,-223.193 911.103,-216.376"/>
</g>
<!-- Node29&#45;&gt;Node10 -->
<g id="edge48" class="edge"><title>Node29&#45;&gt;Node10</title>
<path fill="none" stroke="midnightblue" d="M1286.38,-266.489C1296.05,-264.001 1306.92,-261.538 1317,-260 1385.43,-249.559 1891.48,-274.345 1939,-224 1948.76,-213.657 1948.69,-202.411 1939,-192 1919.78,-171.342 1521.03,-154.606 1370.69,-149.008"/>
<polygon fill="midnightblue" stroke="midnightblue" points="1370.42,-145.496 1360.3,-148.624 1370.16,-152.491 1370.42,-145.496"/>
</g>
<!-- Node30 -->
<g id="node30" class="node"><title>Node30</title>
<polygon fill="white" stroke="#bfbfbf" points="788.5,-136.5 788.5,-155.5 907.5,-155.5 907.5,-136.5 788.5,-136.5"/>
<text text-anchor="middle" x="848" y="-143.5" font-family="Helvetica,sans-Serif" font-size="10.00">boost/thread/mutex.hpp</text>
</g>
<!-- Node29&#45;&gt;Node30 -->
<g id="edge41" class="edge"><title>Node29&#45;&gt;Node30</title>
<path fill="none" stroke="midnightblue" d="M1211.26,-270.144C1168.67,-264.119 1104.48,-251.111 1055,-224 1036.8,-214.029 1039.16,-202.036 1021,-192 989.244,-174.454 950.414,-163.549 917.593,-156.878"/>
<polygon fill="midnightblue" stroke="midnightblue" points="918.098,-153.411 907.615,-154.941 916.765,-160.283 918.098,-153.411"/>
</g>
<!-- Node31 -->
<g id="node31" class="node"><title>Node31</title>
<polygon fill="white" stroke="#bfbfbf" points="926,-136.5 926,-155.5 1036,-155.5 1036,-136.5 926,-136.5"/>
<text text-anchor="middle" x="981" y="-143.5" font-family="Helvetica,sans-Serif" font-size="10.00">boost/scoped_ptr.hpp</text>
</g>
<!-- Node29&#45;&gt;Node31 -->
<g id="edge42" class="edge"><title>Node29&#45;&gt;Node31</title>
<path fill="none" stroke="midnightblue" d="M1218.67,-266.486C1185.57,-258.262 1137.06,-244.089 1098,-224 1076.82,-213.103 1074.75,-205.314 1055,-192 1038.64,-180.97 1019.6,-169.422 1004.93,-160.786"/>
<polygon fill="midnightblue" stroke="midnightblue" points="1006.4,-157.588 995.998,-155.566 1002.87,-163.632 1006.4,-157.588"/>
</g>
<!-- Node32 -->
<g id="node32" class="node"><title>Node32</title>
<polygon fill="white" stroke="#bfbfbf" points="1385.5,-198.5 1385.5,-217.5 1514.5,-217.5 1514.5,-198.5 1385.5,-198.5"/>
<text text-anchor="middle" x="1450" y="-205.5" font-family="Helvetica,sans-Serif" font-size="10.00">boost/unordered_map.hpp</text>
</g>
<!-- Node29&#45;&gt;Node32 -->
<g id="edge44" class="edge"><title>Node29&#45;&gt;Node32</title>
<path fill="none" stroke="midnightblue" d="M1282.23,-266.372C1316.28,-254.728 1377.07,-233.939 1415.37,-220.841"/>
<polygon fill="midnightblue" stroke="midnightblue" points="1416.74,-224.073 1425.07,-217.526 1414.47,-217.45 1416.74,-224.073"/>
</g>
<!-- Node33 -->
<g id="node33" class="node"><title>Node33</title>
<polygon fill="white" stroke="#bfbfbf" points="1533,-198.5 1533,-217.5 1685,-217.5 1685,-198.5 1533,-198.5"/>
<text text-anchor="middle" x="1609" y="-205.5" font-family="Helvetica,sans-Serif" font-size="10.00">boost/uuid/uuid_generators.hpp</text>
</g>
<!-- Node29&#45;&gt;Node33 -->
<g id="edge45" class="edge"><title>Node29&#45;&gt;Node33</title>
<path fill="none" stroke="midnightblue" d="M1289.29,-266.475C1298.23,-264.237 1307.97,-261.915 1317,-260 1318.43,-259.697 1465.18,-234.088 1550.07,-219.279"/>
<polygon fill="midnightblue" stroke="midnightblue" points="1550.85,-222.696 1560.1,-217.529 1549.65,-215.8 1550.85,-222.696"/>
</g>
<!-- Node34 -->
<g id="node34" class="node"><title>Node34</title>
<polygon fill="white" stroke="#bfbfbf" points="1703,-198.5 1703,-217.5 1815,-217.5 1815,-198.5 1703,-198.5"/>
<text text-anchor="middle" x="1759" y="-205.5" font-family="Helvetica,sans-Serif" font-size="10.00">thrift/server/TServer.h</text>
</g>
<!-- Node29&#45;&gt;Node34 -->
<g id="edge46" class="edge"><title>Node29&#45;&gt;Node34</title>
<path fill="none" stroke="midnightblue" d="M1287.34,-266.478C1296.78,-264.08 1307.26,-261.672 1317,-260 1482.89,-231.509 1527.86,-250.982 1694,-224 1701.15,-222.838 1708.69,-221.349 1716,-219.761"/>
<polygon fill="midnightblue" stroke="midnightblue" points="1716.78,-223.172 1725.77,-217.556 1715.24,-216.344 1716.78,-223.172"/>
</g>
<!-- Node35 -->
<g id="node35" class="node"><title>Node35</title>
<polygon fill="white" stroke="#bfbfbf" points="1833,-198.5 1833,-217.5 1931,-217.5 1931,-198.5 1833,-198.5"/>
<text text-anchor="middle" x="1882" y="-205.5" font-family="Helvetica,sans-Serif" font-size="10.00">thrift/TProcessor.h</text>
</g>
<!-- Node29&#45;&gt;Node35 -->
<g id="edge47" class="edge"><title>Node29&#45;&gt;Node35</title>
<path fill="none" stroke="midnightblue" d="M1286.7,-266.49C1296.3,-264.032 1307.03,-261.588 1317,-260 1539.65,-224.525 1600.42,-259.918 1823,-224 1829.44,-222.961 1836.2,-221.552 1842.75,-220.012"/>
<polygon fill="midnightblue" stroke="midnightblue" points="1843.94,-223.322 1852.81,-217.517 1842.26,-216.528 1843.94,-223.322"/>
</g>
<!-- Node36 -->
<g id="node36" class="node"><title>Node36</title>
<g id="a_node36"><a xlink:href="auth-provider_8h.html" target="_top" xlink:title="rpc/auth&#45;provider.h">
<polygon fill="white" stroke="black" points="1107,-198.5 1107,-217.5 1205,-217.5 1205,-198.5 1107,-198.5"/>
<text text-anchor="middle" x="1156" y="-205.5" font-family="Helvetica,sans-Serif" font-size="10.00">rpc/auth&#45;provider.h</text>
</a>
</g>
</g>
<!-- Node29&#45;&gt;Node36 -->
<g id="edge49" class="edge"><title>Node29&#45;&gt;Node36</title>
<path fill="none" stroke="midnightblue" d="M1243.8,-266.372C1227.01,-255.403 1197.8,-236.317 1177.72,-223.191"/>
<polygon fill="midnightblue" stroke="midnightblue" points="1179.49,-220.171 1169.21,-217.63 1175.66,-226.031 1179.49,-220.171"/>
</g>
<!-- Node39 -->
<g id="node39" class="node"><title>Node39</title>
<g id="a_node39"><a xlink:href="metrics_8h.html" target="_top" xlink:title="util/metrics.h">
<polygon fill="white" stroke="red" points="939.5,-198.5 939.5,-217.5 1012.5,-217.5 1012.5,-198.5 939.5,-198.5"/>
<text text-anchor="middle" x="976" y="-205.5" font-family="Helvetica,sans-Serif" font-size="10.00">util/metrics.h</text>
</a>
</g>
</g>
<!-- Node29&#45;&gt;Node39 -->
<g id="edge59" class="edge"><title>Node29&#45;&gt;Node39</title>
<path fill="none" stroke="midnightblue" d="M1214.4,-266.458C1168.08,-256.958 1091.96,-240.733 1027,-224 1022.61,-222.869 1018.02,-221.619 1013.48,-220.338"/>
<polygon fill="midnightblue" stroke="midnightblue" points="1014.28,-216.925 1003.7,-217.518 1012.34,-223.651 1014.28,-216.925"/>
</g>
<!-- Node40 -->
<g id="node40" class="node"><title>Node40</title>
<g id="a_node40"><a xlink:href="thread_8h.html" target="_top" xlink:title="util/thread.h">
<polygon fill="white" stroke="red" points="1223,-198.5 1223,-217.5 1291,-217.5 1291,-198.5 1223,-198.5"/>
<text text-anchor="middle" x="1257" y="-205.5" font-family="Helvetica,sans-Serif" font-size="10.00">util/thread.h</text>
</a>
</g>
</g>
<!-- Node29&#45;&gt;Node40 -->
<g id="edge66" class="edge"><title>Node29&#45;&gt;Node40</title>
<path fill="none" stroke="midnightblue" d="M1257,-266.372C1257,-256.643 1257,-240.528 1257,-227.85"/>
<polygon fill="midnightblue" stroke="midnightblue" points="1260.5,-227.841 1257,-217.841 1253.5,-227.841 1260.5,-227.841"/>
</g>
<!-- Node36&#45;&gt;Node10 -->
<g id="edge54" class="edge"><title>Node36&#45;&gt;Node10</title>
<path fill="none" stroke="midnightblue" d="M1178.64,-198.403C1205.74,-188.111 1251.31,-170.806 1282,-159.15"/>
<polygon fill="midnightblue" stroke="midnightblue" points="1283.3,-162.403 1291.4,-155.581 1280.81,-155.859 1283.3,-162.403"/>
</g>
<!-- Node36&#45;&gt;Node11 -->
<g id="edge50" class="edge"><title>Node36&#45;&gt;Node11</title>
<path fill="none" stroke="midnightblue" d="M1140.2,-198.444C1112.09,-182.506 1053.06,-145.703 1018,-100 1002.6,-79.9254 990.96,-52.9721 984.313,-35.3037"/>
<polygon fill="midnightblue" stroke="midnightblue" points="987.515,-33.8665 980.83,-25.647 980.931,-36.2414 987.515,-33.8665"/>
</g>
<!-- Node36&#45;&gt;Node30 -->
<g id="edge52" class="edge"><title>Node36&#45;&gt;Node30</title>
<path fill="none" stroke="midnightblue" d="M1112.2,-198.467C1056.78,-187.671 961.373,-169.086 901.644,-157.45"/>
<polygon fill="midnightblue" stroke="midnightblue" points="902.135,-153.98 891.651,-155.503 900.797,-160.851 902.135,-153.98"/>
</g>
<!-- Node36&#45;&gt;Node31 -->
<g id="edge51" class="edge"><title>Node36&#45;&gt;Node31</title>
<path fill="none" stroke="midnightblue" d="M1130.93,-198.403C1100.65,-188.022 1049.56,-170.506 1015.56,-158.849"/>
<polygon fill="midnightblue" stroke="midnightblue" points="1016.62,-155.513 1006.03,-155.581 1014.35,-162.135 1016.62,-155.513"/>
</g>
<!-- Node37 -->
<g id="node37" class="node"><title>Node37</title>
<polygon fill="white" stroke="#bfbfbf" points="1092,-136.5 1092,-155.5 1156,-155.5 1156,-136.5 1092,-136.5"/>
<text text-anchor="middle" x="1124" y="-143.5" font-family="Helvetica,sans-Serif" font-size="10.00">sasl/sasl.h</text>
</g>
<!-- Node36&#45;&gt;Node37 -->
<g id="edge53" class="edge"><title>Node36&#45;&gt;Node37</title>
<path fill="none" stroke="midnightblue" d="M1151.42,-198.403C1146.71,-189.582 1139.26,-175.608 1133.31,-164.455"/>
<polygon fill="midnightblue" stroke="midnightblue" points="1136.37,-162.757 1128.58,-155.581 1130.19,-166.051 1136.37,-162.757"/>
</g>
<!-- Node38 -->
<g id="node38" class="node"><title>Node38</title>
<g id="a_node38"><a xlink:href="promise_8h.html" target="_top" xlink:title="util/promise.h">
<polygon fill="white" stroke="red" points="1174.5,-136.5 1174.5,-155.5 1249.5,-155.5 1249.5,-136.5 1174.5,-136.5"/>
<text text-anchor="middle" x="1212" y="-143.5" font-family="Helvetica,sans-Serif" font-size="10.00">util/promise.h</text>
</a>
</g>
</g>
<!-- Node36&#45;&gt;Node38 -->
<g id="edge55" class="edge"><title>Node36&#45;&gt;Node38</title>
<path fill="none" stroke="midnightblue" d="M1164.02,-198.403C1172.59,-189.225 1186.36,-174.47 1196.96,-163.117"/>
<polygon fill="midnightblue" stroke="midnightblue" points="1199.73,-165.279 1203.99,-155.581 1194.61,-160.503 1199.73,-165.279"/>
</g>
<!-- Node38&#45;&gt;Node13 -->
<g id="edge57" class="edge"><title>Node38&#45;&gt;Node13</title>
<path fill="none" stroke="midnightblue" d="M1174.36,-137.325C1171.2,-136.824 1168.05,-136.372 1165,-136 865.895,-99.5813 788.837,-116.952 488,-100 421.681,-96.263 345.562,-91.6934 294.492,-88.5868"/>
<polygon fill="midnightblue" stroke="midnightblue" points="294.499,-85.0808 284.305,-87.9663 294.074,-92.0679 294.499,-85.0808"/>
</g>
<!-- Node38&#45;&gt;Node22 -->
<g id="edge56" class="edge"><title>Node38&#45;&gt;Node22</title>
<path fill="none" stroke="midnightblue" d="M1249.7,-137.703C1252.84,-137.118 1255.97,-136.543 1259,-136 1346.01,-120.373 1447.31,-103.677 1508.23,-93.7996"/>
<polygon fill="midnightblue" stroke="midnightblue" points="1509.07,-97.2085 1518.39,-92.1552 1507.96,-90.2985 1509.07,-97.2085"/>
</g>
<!-- Node38&#45;&gt;Node27 -->
<g id="edge58" class="edge"><title>Node38&#45;&gt;Node27</title>
<path fill="none" stroke="midnightblue" d="M1174.36,-137.36C1171.2,-136.851 1168.05,-136.387 1165,-136 914.504,-104.192 848.182,-134.187 598,-100 587.702,-98.5928 576.668,-96.5348 566.441,-94.3915"/>
<polygon fill="midnightblue" stroke="midnightblue" points="567.056,-90.9435 556.541,-92.2408 565.57,-97.784 567.056,-90.9435"/>
</g>
<!-- Node39&#45;&gt;Node5 -->
<g id="edge61" class="edge"><title>Node39&#45;&gt;Node5</title>
<path fill="none" stroke="midnightblue" d="M952.363,-198.349C945.251,-196.003 937.376,-193.657 930,-192 816.087,-166.407 677.991,-154.077 613.492,-149.375"/>
<polygon fill="midnightblue" stroke="midnightblue" points="613.644,-145.877 603.421,-148.66 613.148,-152.86 613.644,-145.877"/>
</g>
<!-- Node39&#45;&gt;Node10 -->
<g id="edge65" class="edge"><title>Node39&#45;&gt;Node10</title>
<path fill="none" stroke="midnightblue" d="M1012.82,-200.465C1071.93,-189.971 1188.42,-169.293 1257.92,-156.955"/>
<polygon fill="midnightblue" stroke="midnightblue" points="1258.59,-160.391 1267.82,-155.197 1257.37,-153.499 1258.59,-160.391"/>
</g>
<!-- Node39&#45;&gt;Node11 -->
<g id="edge60" class="edge"><title>Node39&#45;&gt;Node11</title>
<path fill="none" stroke="midnightblue" d="M950.805,-198.376C944.079,-196.186 936.792,-193.914 930,-192 863.593,-173.29 821.755,-210.147 779,-156 726.446,-89.4431 879.478,-41.6339 947.359,-24.2244"/>
<polygon fill="midnightblue" stroke="midnightblue" points="948.626,-27.5153 957.478,-21.6931 946.928,-20.7246 948.626,-27.5153"/>
</g>
<!-- Node39&#45;&gt;Node13 -->
<g id="edge64" class="edge"><title>Node39&#45;&gt;Node13</title>
<path fill="none" stroke="midnightblue" d="M953.849,-198.455C946.382,-195.933 937.931,-193.459 930,-192 848.929,-177.09 245.855,-215.685 189,-156 172.48,-138.658 195.698,-114.827 214.97,-99.6681"/>
<polygon fill="midnightblue" stroke="midnightblue" points="217.222,-102.355 223.126,-93.557 213.024,-96.7528 217.222,-102.355"/>
</g>
<!-- Node39&#45;&gt;Node30 -->
<g id="edge63" class="edge"><title>Node39&#45;&gt;Node30</title>
<path fill="none" stroke="midnightblue" d="M957.661,-198.403C936.179,-188.334 900.378,-171.552 875.552,-159.915"/>
<polygon fill="midnightblue" stroke="midnightblue" points="876.845,-156.656 866.305,-155.581 873.874,-162.994 876.845,-156.656"/>
</g>
<!-- Node39&#45;&gt;Node31 -->
<g id="edge62" class="edge"><title>Node39&#45;&gt;Node31</title>
<path fill="none" stroke="midnightblue" d="M976.716,-198.403C977.422,-189.938 978.523,-176.728 979.432,-165.82"/>
<polygon fill="midnightblue" stroke="midnightblue" points="982.942,-165.837 980.285,-155.581 975.966,-165.255 982.942,-165.837"/>
</g>
<!-- Node40&#45;&gt;Node10 -->
<g id="edge69" class="edge"><title>Node40&#45;&gt;Node10</title>
<path fill="none" stroke="midnightblue" d="M1265.17,-198.403C1273.89,-189.225 1287.9,-174.47 1298.69,-163.117"/>
<polygon fill="midnightblue" stroke="midnightblue" points="1301.5,-165.241 1305.85,-155.581 1296.42,-160.42 1301.5,-165.241"/>
</g>
<!-- Node40&#45;&gt;Node22 -->
<g id="edge68" class="edge"><title>Node40&#45;&gt;Node22</title>
<path fill="none" stroke="midnightblue" d="M1278.52,-198.421C1331.74,-177.202 1469.72,-122.189 1531.86,-97.4147"/>
<polygon fill="midnightblue" stroke="midnightblue" points="1533.51,-100.524 1541.51,-93.5693 1530.92,-94.0217 1533.51,-100.524"/>
</g>
<!-- Node40&#45;&gt;Node31 -->
<g id="edge67" class="edge"><title>Node40&#45;&gt;Node31</title>
<path fill="none" stroke="midnightblue" d="M1233.89,-198.458C1227.21,-196.169 1219.86,-193.826 1213,-192 1157.41,-177.207 1093.12,-165.119 1046.33,-157.211"/>
<polygon fill="midnightblue" stroke="midnightblue" points="1046.77,-153.735 1036.33,-155.538 1045.61,-160.64 1046.77,-153.735"/>
</g>
<!-- Node40&#45;&gt;Node38 -->
<g id="edge70" class="edge"><title>Node40&#45;&gt;Node38</title>
<path fill="none" stroke="midnightblue" d="M1250.55,-198.403C1243.8,-189.403 1233.03,-175.041 1224.59,-163.782"/>
<polygon fill="midnightblue" stroke="midnightblue" points="1227.24,-161.481 1218.44,-155.581 1221.64,-165.681 1227.24,-161.481"/>
</g>
<!-- Node50 -->
<g id="node50" class="node"><title>Node50</title>
<polygon fill="white" stroke="#bfbfbf" points="2381,-198.5 2381,-217.5 2475,-217.5 2475,-198.5 2381,-198.5"/>
<text text-anchor="middle" x="2428" y="-205.5" font-family="Helvetica,sans-Serif" font-size="10.00">boost/version.hpp</text>
</g>
<!-- Node49&#45;&gt;Node50 -->
<g id="edge80" class="edge"><title>Node49&#45;&gt;Node50</title>
<path fill="none" stroke="midnightblue" d="M2428,-266.372C2428,-256.643 2428,-240.528 2428,-227.85"/>
<polygon fill="midnightblue" stroke="midnightblue" points="2431.5,-227.841 2428,-217.841 2424.5,-227.841 2431.5,-227.841"/>
</g>
</g>
</svg>
