<?xml version="1.0" encoding="UTF-8" standalone="no"?>
<!DOCTYPE svg PUBLIC "-//W3C//DTD SVG 1.1//EN"
 "http://www.w3.org/Graphics/SVG/1.1/DTD/svg11.dtd">
<!-- Generated by graphviz version 2.36.0 (20140111.2315)
 -->
<!-- Title: be/src/util/time.cc Pages: 1 -->
<svg width="153pt" height="140pt"
 viewBox="0.00 0.00 153.00 140.00" xmlns="http://www.w3.org/2000/svg" xmlns:xlink="http://www.w3.org/1999/xlink">
<g id="graph0" class="graph" transform="scale(1 1) rotate(0) translate(4 136)">
<title>be/src/util/time.cc</title>
<polygon fill="white" stroke="none" points="-4,4 -4,-136 149,-136 149,4 -4,4"/>
<!-- Node1 -->
<g id="node1" class="node"><title>Node1</title>
<polygon fill="#bfbfbf" stroke="black" points="13.5,-112.5 13.5,-131.5 108.5,-131.5 108.5,-112.5 13.5,-112.5"/>
<text text-anchor="middle" x="61" y="-119.5" font-family="Helvetica,sans-Serif" font-size="10.00">be/src/util/time.cc</text>
</g>
<!-- Node2 -->
<g id="node2" class="node"><title>Node2</title>
<polygon fill="white" stroke="#bfbfbf" points="-0.5,-56.5 -0.5,-75.5 50.5,-75.5 50.5,-56.5 -0.5,-56.5"/>
<text text-anchor="middle" x="25" y="-63.5" font-family="Helvetica,sans-Serif" font-size="10.00">unistd.h</text>
</g>
<!-- Node1&#45;&gt;Node2 -->
<g id="edge1" class="edge"><title>Node1&#45;&gt;Node2</title>
<path fill="none" stroke="midnightblue" d="M55.0553,-112.083C50.0227,-104.534 42.6632,-93.4948 36.4865,-84.2298"/>
<polygon fill="midnightblue" stroke="midnightblue" points="39.2933,-82.1301 30.8341,-75.7511 33.4689,-86.0131 39.2933,-82.1301"/>
</g>
<!-- Node3 -->
<g id="node3" class="node"><title>Node3</title>
<g id="a_node3"><a xlink:href="time_8h.html" target="_top" xlink:title="util/time.h">
<polygon fill="white" stroke="black" points="68.5,-56.5 68.5,-75.5 127.5,-75.5 127.5,-56.5 68.5,-56.5"/>
<text text-anchor="middle" x="98" y="-63.5" font-family="Helvetica,sans-Serif" font-size="10.00">util/time.h</text>
</a>
</g>
</g>
<!-- Node1&#45;&gt;Node3 -->
<g id="edge2" class="edge"><title>Node1&#45;&gt;Node3</title>
<path fill="none" stroke="midnightblue" d="M67.1098,-112.083C72.2822,-104.534 79.8461,-93.4948 86.1944,-84.2298"/>
<polygon fill="midnightblue" stroke="midnightblue" points="89.2388,-85.9787 92.0039,-75.7511 83.4643,-82.0221 89.2388,-85.9787"/>
</g>
<!-- Node3&#45;&gt;Node3 -->
<g id="edge4" class="edge"><title>Node3&#45;&gt;Node3</title>
<path fill="none" stroke="midnightblue" d="M118.29,-75.5746C131.825,-78.2697 145,-75.0781 145,-66 145,-59.2623 137.743,-55.7672 128.467,-55.5147"/>
<polygon fill="midnightblue" stroke="midnightblue" points="127.938,-52.048 118.29,-56.4254 128.562,-59.0201 127.938,-52.048"/>
</g>
<!-- Node4 -->
<g id="node4" class="node"><title>Node4</title>
<polygon fill="white" stroke="#bfbfbf" points="73.5,-0.5 73.5,-19.5 122.5,-19.5 122.5,-0.5 73.5,-0.5"/>
<text text-anchor="middle" x="98" y="-7.5" font-family="Helvetica,sans-Serif" font-size="10.00">stdint.h</text>
</g>
<!-- Node3&#45;&gt;Node4 -->
<g id="edge3" class="edge"><title>Node3&#45;&gt;Node4</title>
<path fill="none" stroke="midnightblue" d="M98,-56.083C98,-49.0059 98,-38.8611 98,-29.9865"/>
<polygon fill="midnightblue" stroke="midnightblue" points="101.5,-29.751 98,-19.7511 94.5001,-29.7511 101.5,-29.751"/>
</g>
</g>
</svg>
