<?xml version="1.0" encoding="UTF-8" standalone="no"?>
<!DOCTYPE svg PUBLIC "-//W3C//DTD SVG 1.1//EN"
 "http://www.w3.org/Graphics/SVG/1.1/DTD/svg11.dtd">
<!-- Generated by graphviz version 2.36.0 (20140111.2315)
 -->
<!-- Title: be/src/runtime/tmp&#45;file&#45;mgr.h Pages: 1 -->
<!--zoomable 516 -->
<svg id="main" version="1.1" xmlns="http://www.w3.org/2000/svg" xmlns:xlink="http://www.w3.org/1999/xlink" xml:space="preserve" onload="init(evt)">
<style type="text/css"><![CDATA[
.edge:hover path { stroke: red; }
.edge:hover polygon { stroke: red; fill: red; }
]]></style>
<script type="text/javascript"><![CDATA[
var edges = document.getElementsByTagName('g');
if (edges && edges.length) {
  for (var i=0;i<edges.length;i++) {
    if (edges[i].id.substr(0,4)=='edge') {
      edges[i].setAttribute('class','edge');
    }
  }
}
]]></script>
        <defs>
                <circle id="rim" cx="0" cy="0" r="7"/>
                <circle id="rim2" cx="0" cy="0" r="3.5"/>
                <g id="zoomPlus">
                        <use xlink:href="#rim" fill="#404040">
                                <set attributeName="fill" to="#808080" begin="zoomplus.mouseover" end="zoomplus.mouseout"/>
                        </use>
                        <path d="M-4,0h8M0,-4v8" fill="none" stroke="white" stroke-width="1.5" pointer-events="none"/>
                </g>
                <g id="zoomMin">
                        <use xlink:href="#rim" fill="#404040">
                                <set attributeName="fill" to="#808080" begin="zoomminus.mouseover" end="zoomminus.mouseout"/>
                        </use>
                        <path d="M-4,0h8" fill="none" stroke="white" stroke-width="1.5" pointer-events="none"/>
                </g>
                <g id="dirArrow">
                        <path fill="none" stroke="white" stroke-width="1.5" d="M0,-3.0v7 M-2.5,-0.5L0,-3.0L2.5,-0.5"/>
                </g>
               <g id="resetDef">
                       <use xlink:href="#rim2" fill="#404040">
                               <set attributeName="fill" to="#808080" begin="reset.mouseover" end="reset.mouseout"/>
                       </use>
               </g>
        </defs>

<script type="text/javascript">
var viewWidth = 2200;
var viewHeight = 516;
var sectionId = 'dynsection-1';
</script>
<script xlink:href="svgpan.js"/>
<svg id="graph" class="graph">
<g id="viewport">
<title>be/src/runtime/tmp&#45;file&#45;mgr.h</title>
<polygon fill="white" stroke="none" points="-4,4 -4,-512 2196,-512 2196,4 -4,4"/>
<!-- Node1 -->
<g id="node1" class="node"><title>Node1</title>
<polygon fill="#bfbfbf" stroke="black" points="1680,-477 1680,-507 1778,-507 1778,-477 1680,-477"/>
<text text-anchor="start" x="1688" y="-495" font-family="Helvetica,sans-Serif" font-size="10.00">be/src/runtime/tmp</text>
<text text-anchor="middle" x="1729" y="-484" font-family="Helvetica,sans-Serif" font-size="10.00">&#45;file&#45;mgr.h</text>
</g>
<!-- Node2 -->
<g id="node2" class="node"><title>Node2</title>
<g id="a_node2"><a xlink:href="buffered-block-mgr-test_8cc.html" target="_top" xlink:title="be/src/runtime/buffered\l&#45;block&#45;mgr&#45;test.cc">
<polygon fill="white" stroke="black" points="542.5,-341 542.5,-371 659.5,-371 659.5,-341 542.5,-341"/>
<text text-anchor="start" x="550.5" y="-359" font-family="Helvetica,sans-Serif" font-size="10.00">be/src/runtime/buffered</text>
<text text-anchor="middle" x="601" y="-348" font-family="Helvetica,sans-Serif" font-size="10.00">&#45;block&#45;mgr&#45;test.cc</text>
</a>
</g>
</g>
<!-- Node1&#45;&gt;Node2 -->
<g id="edge1" class="edge"><title>Node1&#45;&gt;Node2</title>
<path fill="none" stroke="midnightblue" d="M1669.73,-488.443C1552.4,-482.952 1282.39,-468.185 1057,-440 882.846,-418.222 840.128,-406.293 668,-372 665.311,-371.464 662.565,-370.904 659.793,-370.327"/>
<polygon fill="midnightblue" stroke="midnightblue" points="1669.78,-491.949 1679.93,-488.915 1670.1,-484.956 1669.78,-491.949"/>
</g>
<!-- Node3 -->
<g id="node3" class="node"><title>Node3</title>
<g id="a_node3"><a xlink:href="buffered-block-mgr_8cc.html" target="_top" xlink:title="be/src/runtime/buffered\l&#45;block&#45;mgr.cc">
<polygon fill="white" stroke="black" points="677.5,-341 677.5,-371 794.5,-371 794.5,-341 677.5,-341"/>
<text text-anchor="start" x="685.5" y="-359" font-family="Helvetica,sans-Serif" font-size="10.00">be/src/runtime/buffered</text>
<text text-anchor="middle" x="736" y="-348" font-family="Helvetica,sans-Serif" font-size="10.00">&#45;block&#45;mgr.cc</text>
</a>
</g>
</g>
<!-- Node1&#45;&gt;Node3 -->
<g id="edge2" class="edge"><title>Node1&#45;&gt;Node3</title>
<path fill="none" stroke="midnightblue" d="M1669.82,-484.883C1523.37,-469.41 1132.44,-426.071 809,-372 804.406,-371.232 799.66,-370.383 794.897,-369.492"/>
<polygon fill="midnightblue" stroke="midnightblue" points="1669.63,-488.382 1679.94,-485.948 1670.36,-481.42 1669.63,-488.382"/>
</g>
<!-- Node4 -->
<g id="node4" class="node"><title>Node4</title>
<g id="a_node4"><a xlink:href="buffered-block-mgr_8h.html" target="_top" xlink:title="be/src/runtime/buffered\l&#45;block&#45;mgr.h">
<polygon fill="white" stroke="black" points="1480.5,-409 1480.5,-439 1597.5,-439 1597.5,-409 1480.5,-409"/>
<text text-anchor="start" x="1488.5" y="-427" font-family="Helvetica,sans-Serif" font-size="10.00">be/src/runtime/buffered</text>
<text text-anchor="middle" x="1539" y="-416" font-family="Helvetica,sans-Serif" font-size="10.00">&#45;block&#45;mgr.h</text>
</a>
</g>
</g>
<!-- Node1&#45;&gt;Node4 -->
<g id="edge3" class="edge"><title>Node1&#45;&gt;Node4</title>
<path fill="none" stroke="midnightblue" d="M1678.48,-473.452C1647.47,-462.68 1608.3,-449.072 1579.37,-439.022"/>
<polygon fill="midnightblue" stroke="midnightblue" points="1677.65,-476.866 1688.24,-476.841 1679.94,-470.254 1677.65,-476.866"/>
</g>
<!-- Node29 -->
<g id="node29" class="node"><title>Node29</title>
<g id="a_node29"><a xlink:href="buffered-tuple-stream-test_8cc.html" target="_top" xlink:title="be/src/runtime/buffered\l&#45;tuple&#45;stream&#45;test.cc">
<polygon fill="white" stroke="black" points="1624.5,-205 1624.5,-235 1741.5,-235 1741.5,-205 1624.5,-205"/>
<text text-anchor="start" x="1632.5" y="-223" font-family="Helvetica,sans-Serif" font-size="10.00">be/src/runtime/buffered</text>
<text text-anchor="middle" x="1683" y="-212" font-family="Helvetica,sans-Serif" font-size="10.00">&#45;tuple&#45;stream&#45;test.cc</text>
</a>
</g>
</g>
<!-- Node1&#45;&gt;Node29 -->
<g id="edge59" class="edge"><title>Node1&#45;&gt;Node29</title>
<path fill="none" stroke="midnightblue" d="M1784.09,-473.4C1829.35,-455.684 1890.49,-423.5 1919,-372 1927.07,-357.43 1933.6,-291.061 1918,-272 1896.05,-245.185 1803.76,-231.702 1741.58,-225.536"/>
<polygon fill="midnightblue" stroke="midnightblue" points="1782.8,-470.145 1774.69,-476.962 1785.28,-476.691 1782.8,-470.145"/>
</g>
<!-- Node36 -->
<g id="node36" class="node"><title>Node36</title>
<g id="a_node36"><a xlink:href="tmp-file-mgr_8cc.html" target="_top" xlink:title="be/src/runtime/tmp\l&#45;file&#45;mgr.cc">
<polygon fill="white" stroke="black" points="1966,-409 1966,-439 2064,-439 2064,-409 1966,-409"/>
<text text-anchor="start" x="1974" y="-427" font-family="Helvetica,sans-Serif" font-size="10.00">be/src/runtime/tmp</text>
<text text-anchor="middle" x="2015" y="-416" font-family="Helvetica,sans-Serif" font-size="10.00">&#45;file&#45;mgr.cc</text>
</a>
</g>
</g>
<!-- Node1&#45;&gt;Node36 -->
<g id="edge60" class="edge"><title>Node1&#45;&gt;Node36</title>
<path fill="none" stroke="midnightblue" d="M1788.06,-477.643C1833.03,-467.437 1896.45,-452.965 1952,-440 1956.49,-438.952 1961.16,-437.855 1965.83,-436.752"/>
<polygon fill="midnightblue" stroke="midnightblue" points="1787.17,-474.257 1778.19,-479.883 1788.72,-481.084 1787.17,-474.257"/>
</g>
<!-- Node37 -->
<g id="node37" class="node"><title>Node37</title>
<g id="a_node37"><a xlink:href="impala-server_8cc.html" target="_top" xlink:title="be/src/service/impala\l&#45;server.cc">
<polygon fill="white" stroke="black" points="2082,-409 2082,-439 2192,-439 2192,-409 2082,-409"/>
<text text-anchor="start" x="2090" y="-427" font-family="Helvetica,sans-Serif" font-size="10.00">be/src/service/impala</text>
<text text-anchor="middle" x="2137" y="-416" font-family="Helvetica,sans-Serif" font-size="10.00">&#45;server.cc</text>
</a>
</g>
</g>
<!-- Node1&#45;&gt;Node37 -->
<g id="edge61" class="edge"><title>Node1&#45;&gt;Node37</title>
<path fill="none" stroke="midnightblue" d="M1788.23,-483.643C1856.79,-474.791 1972.98,-458.757 2072,-440 2075.19,-439.396 2078.45,-438.746 2081.74,-438.065"/>
<polygon fill="midnightblue" stroke="midnightblue" points="1787.53,-480.204 1778.05,-484.949 1788.42,-487.147 1787.53,-480.204"/>
</g>
<!-- Node4&#45;&gt;Node2 -->
<g id="edge35" class="edge"><title>Node4&#45;&gt;Node2</title>
<path fill="none" stroke="midnightblue" d="M1470.05,-422.741C1322.29,-421.359 964.459,-413.586 668,-372 665.285,-371.619 662.517,-371.186 659.728,-370.712"/>
<polygon fill="midnightblue" stroke="midnightblue" points="1470.29,-426.243 1480.32,-422.83 1470.35,-419.243 1470.29,-426.243"/>
</g>
<!-- Node4&#45;&gt;Node3 -->
<g id="edge36" class="edge"><title>Node4&#45;&gt;Node3</title>
<path fill="none" stroke="midnightblue" d="M1469.86,-421.229C1339.87,-417.224 1050.42,-405.088 809,-372 804.385,-371.368 799.625,-370.616 794.851,-369.792"/>
<polygon fill="midnightblue" stroke="midnightblue" points="1469.96,-424.734 1480.06,-421.537 1470.17,-417.737 1469.96,-424.734"/>
</g>
<!-- Node5 -->
<g id="node5" class="node"><title>Node5</title>
<g id="a_node5"><a xlink:href="analytic-eval-node_8h.html" target="_top" xlink:title="be/src/exec/analytic\l&#45;eval&#45;node.h">
<polygon fill="white" stroke="black" points="1502,-273 1502,-303 1606,-303 1606,-273 1502,-273"/>
<text text-anchor="start" x="1510" y="-291" font-family="Helvetica,sans-Serif" font-size="10.00">be/src/exec/analytic</text>
<text text-anchor="middle" x="1554" y="-280" font-family="Helvetica,sans-Serif" font-size="10.00">&#45;eval&#45;node.h</text>
</a>
</g>
</g>
<!-- Node4&#45;&gt;Node5 -->
<g id="edge4" class="edge"><title>Node4&#45;&gt;Node5</title>
<path fill="none" stroke="midnightblue" d="M1539.62,-398.405C1540.25,-381.846 1541.51,-359.546 1544,-340 1545.6,-327.47 1548.44,-313.392 1550.69,-303.206"/>
<polygon fill="midnightblue" stroke="midnightblue" points="1536.11,-398.738 1539.28,-408.848 1543.1,-398.968 1536.11,-398.738"/>
</g>
<!-- Node8 -->
<g id="node8" class="node"><title>Node8</title>
<g id="a_node8"><a xlink:href="hash-table_8cc.html" target="_top" xlink:title="be/src/exec/hash&#45;table.cc">
<polygon fill="white" stroke="black" points="-0.5,-74.5 -0.5,-93.5 128.5,-93.5 128.5,-74.5 -0.5,-74.5"/>
<text text-anchor="middle" x="64" y="-81.5" font-family="Helvetica,sans-Serif" font-size="10.00">be/src/exec/hash&#45;table.cc</text>
</a>
</g>
</g>
<!-- Node4&#45;&gt;Node8 -->
<g id="edge7" class="edge"><title>Node4&#45;&gt;Node8</title>
<path fill="none" stroke="midnightblue" d="M1469.93,-422.377C1357.08,-420.198 1126.67,-410.882 936,-372 758.364,-335.775 207.797,-137.28 87.4114,-93.5323"/>
<polygon fill="midnightblue" stroke="midnightblue" points="1470.08,-425.88 1480.14,-422.561 1470.21,-418.881 1470.08,-425.88"/>
</g>
<!-- Node9 -->
<g id="node9" class="node"><title>Node9</title>
<g id="a_node9"><a xlink:href="hash-table_8h.html" target="_top" xlink:title="be/src/exec/hash&#45;table.h">
<polygon fill="white" stroke="black" points="889,-210.5 889,-229.5 1013,-229.5 1013,-210.5 889,-210.5"/>
<text text-anchor="middle" x="951" y="-217.5" font-family="Helvetica,sans-Serif" font-size="10.00">be/src/exec/hash&#45;table.h</text>
</a>
</g>
</g>
<!-- Node4&#45;&gt;Node9 -->
<g id="edge8" class="edge"><title>Node4&#45;&gt;Node9</title>
<path fill="none" stroke="midnightblue" d="M1470.1,-420.139C1327.9,-412.585 1010.03,-386.626 948,-304 931.378,-281.86 941.377,-246.243 947.415,-229.818"/>
<polygon fill="midnightblue" stroke="midnightblue" points="1470.27,-423.652 1480.44,-420.672 1470.63,-416.661 1470.27,-423.652"/>
</g>
<!-- Node19 -->
<g id="node19" class="node"><title>Node19</title>
<g id="a_node19"><a xlink:href="partitioned-hash-join-node_8cc.html" target="_top" xlink:title="be/src/exec/partitioned\l&#45;hash&#45;join&#45;node.cc">
<polygon fill="white" stroke="black" points="1226,-1 1226,-31 1342,-31 1342,-1 1226,-1"/>
<text text-anchor="start" x="1234" y="-19" font-family="Helvetica,sans-Serif" font-size="10.00">be/src/exec/partitioned</text>
<text text-anchor="middle" x="1284" y="-8" font-family="Helvetica,sans-Serif" font-size="10.00">&#45;hash&#45;join&#45;node.cc</text>
</a>
</g>
</g>
<!-- Node4&#45;&gt;Node19 -->
<g id="edge30" class="edge"><title>Node4&#45;&gt;Node19</title>
<path fill="none" stroke="midnightblue" d="M1607.76,-421.347C1760.37,-415.814 2114,-391.892 2114,-289 2114,-289 2114,-289 2114,-151 2114,-72.6817 1530.61,-31.4984 1342.03,-20.232"/>
<polygon fill="midnightblue" stroke="midnightblue" points="1607.44,-417.856 1597.57,-421.7 1607.68,-424.852 1607.44,-417.856"/>
</g>
<!-- Node20 -->
<g id="node20" class="node"><title>Node20</title>
<g id="a_node20"><a xlink:href="partitioned-aggregation-node_8h.html" target="_top" xlink:title="be/src/exec/partitioned\l&#45;aggregation&#45;node.h">
<polygon fill="white" stroke="black" points="1156,-137 1156,-167 1272,-167 1272,-137 1156,-137"/>
<text text-anchor="start" x="1164" y="-155" font-family="Helvetica,sans-Serif" font-size="10.00">be/src/exec/partitioned</text>
<text text-anchor="middle" x="1214" y="-144" font-family="Helvetica,sans-Serif" font-size="10.00">&#45;aggregation&#45;node.h</text>
</a>
</g>
</g>
<!-- Node4&#45;&gt;Node20 -->
<g id="edge29" class="edge"><title>Node4&#45;&gt;Node20</title>
<path fill="none" stroke="midnightblue" d="M1546.82,-399.405C1553.28,-381.986 1563.56,-358.237 1577,-340 1580.36,-335.439 1648.15,-274.926 1653,-272 1692.38,-248.254 1723.74,-273.751 1750,-236 1758.12,-224.324 1759.57,-214.522 1750,-204 1718.32,-169.162 1404.44,-157.57 1272.23,-154.213"/>
<polygon fill="midnightblue" stroke="midnightblue" points="1543.52,-398.246 1543.47,-408.841 1550.12,-400.591 1543.52,-398.246"/>
</g>
<!-- Node21 -->
<g id="node21" class="node"><title>Node21</title>
<g id="a_node21"><a xlink:href="partitioned-hash-join-node_8h.html" target="_top" xlink:title="be/src/exec/partitioned\l&#45;hash&#45;join&#45;node.h">
<polygon fill="white" stroke="black" points="943,-137 943,-167 1059,-167 1059,-137 943,-137"/>
<text text-anchor="start" x="951" y="-155" font-family="Helvetica,sans-Serif" font-size="10.00">be/src/exec/partitioned</text>
<text text-anchor="middle" x="1001" y="-144" font-family="Helvetica,sans-Serif" font-size="10.00">&#45;hash&#45;join&#45;node.h</text>
</a>
</g>
</g>
<!-- Node4&#45;&gt;Node21 -->
<g id="edge31" class="edge"><title>Node4&#45;&gt;Node21</title>
<path fill="none" stroke="midnightblue" d="M1469.97,-419.37C1332.99,-411.755 1036.41,-393.066 995,-372 914.353,-330.969 829.963,-279.39 880,-204 888.73,-190.847 923.43,-176.998 953.445,-167.056"/>
<polygon fill="midnightblue" stroke="midnightblue" points="1470.17,-422.886 1480.34,-419.942 1470.55,-415.897 1470.17,-422.886"/>
</g>
<!-- Node23 -->
<g id="node23" class="node"><title>Node23</title>
<g id="a_node23"><a xlink:href="sort-node_8h.html" target="_top" xlink:title="be/src/exec/sort&#45;node.h">
<polygon fill="white" stroke="black" points="1966.5,-278.5 1966.5,-297.5 2085.5,-297.5 2085.5,-278.5 1966.5,-278.5"/>
<text text-anchor="middle" x="2026" y="-285.5" font-family="Helvetica,sans-Serif" font-size="10.00">be/src/exec/sort&#45;node.h</text>
</a>
</g>
</g>
<!-- Node4&#45;&gt;Node23 -->
<g id="edge32" class="edge"><title>Node4&#45;&gt;Node23</title>
<path fill="none" stroke="midnightblue" d="M1607.63,-414.188C1649.77,-406.886 1703.92,-394.017 1748,-372 1768.06,-361.981 1766.8,-349.726 1787,-340 1819.06,-324.564 1911.73,-307.459 1971.81,-297.5"/>
<polygon fill="midnightblue" stroke="midnightblue" points="1607.03,-410.74 1597.74,-415.839 1608.18,-417.645 1607.03,-410.74"/>
</g>
<!-- Node25 -->
<g id="node25" class="node"><title>Node25</title>
<g id="a_node25"><a xlink:href="buffered-tuple-stream_8h.html" target="_top" xlink:title="be/src/runtime/buffered\l&#45;tuple&#45;stream.h">
<polygon fill="white" stroke="black" points="1191.5,-341 1191.5,-371 1308.5,-371 1308.5,-341 1191.5,-341"/>
<text text-anchor="start" x="1199.5" y="-359" font-family="Helvetica,sans-Serif" font-size="10.00">be/src/runtime/buffered</text>
<text text-anchor="middle" x="1250" y="-348" font-family="Helvetica,sans-Serif" font-size="10.00">&#45;tuple&#45;stream.h</text>
</a>
</g>
</g>
<!-- Node4&#45;&gt;Node25 -->
<g id="edge37" class="edge"><title>Node4&#45;&gt;Node25</title>
<path fill="none" stroke="midnightblue" d="M1470.24,-407.298C1421.04,-396.062 1355.51,-381.096 1308.75,-370.417"/>
<polygon fill="midnightblue" stroke="midnightblue" points="1469.64,-410.75 1480.17,-409.564 1471.2,-403.926 1469.64,-410.75"/>
</g>
<!-- Node32 -->
<g id="node32" class="node"><title>Node32</title>
<g id="a_node32"><a xlink:href="runtime-state_8cc.html" target="_top" xlink:title="be/src/runtime/runtime\l&#45;state.cc">
<polygon fill="white" stroke="black" points="1796,-341 1796,-371 1910,-371 1910,-341 1796,-341"/>
<text text-anchor="start" x="1804" y="-359" font-family="Helvetica,sans-Serif" font-size="10.00">be/src/runtime/runtime</text>
<text text-anchor="middle" x="1853" y="-348" font-family="Helvetica,sans-Serif" font-size="10.00">&#45;state.cc</text>
</a>
</g>
</g>
<!-- Node4&#45;&gt;Node32 -->
<g id="edge53" class="edge"><title>Node4&#45;&gt;Node32</title>
<path fill="none" stroke="midnightblue" d="M1607.72,-408.603C1656.39,-398.401 1723.2,-384.382 1782,-372 1786.44,-371.065 1791.03,-370.097 1795.65,-369.123"/>
<polygon fill="midnightblue" stroke="midnightblue" points="1607,-405.178 1597.93,-410.655 1608.43,-412.029 1607,-405.178"/>
</g>
<!-- Node33 -->
<g id="node33" class="node"><title>Node33</title>
<g id="a_node33"><a xlink:href="sorter_8cc.html" target="_top" xlink:title="be/src/runtime/sorter.cc">
<polygon fill="white" stroke="black" points="1662,-278.5 1662,-297.5 1782,-297.5 1782,-278.5 1662,-278.5"/>
<text text-anchor="middle" x="1722" y="-285.5" font-family="Helvetica,sans-Serif" font-size="10.00">be/src/runtime/sorter.cc</text>
</a>
</g>
</g>
<!-- Node4&#45;&gt;Node33 -->
<g id="edge54" class="edge"><title>Node4&#45;&gt;Node33</title>
<path fill="none" stroke="midnightblue" d="M1555.56,-400.577C1569.79,-382.482 1591.65,-357.279 1615,-340 1640.81,-320.904 1674.89,-306.143 1697.59,-297.525"/>
<polygon fill="midnightblue" stroke="midnightblue" points="1552.54,-398.764 1549.22,-408.824 1558.09,-403.032 1552.54,-398.764"/>
</g>
<!-- Node34 -->
<g id="node34" class="node"><title>Node34</title>
<g id="a_node34"><a xlink:href="sorter_8h.html" target="_top" xlink:title="be/src/runtime/sorter.h">
<polygon fill="white" stroke="black" points="1624.5,-346.5 1624.5,-365.5 1739.5,-365.5 1739.5,-346.5 1624.5,-346.5"/>
<text text-anchor="middle" x="1682" y="-353.5" font-family="Helvetica,sans-Serif" font-size="10.00">be/src/runtime/sorter.h</text>
</a>
</g>
</g>
<!-- Node4&#45;&gt;Node34 -->
<g id="edge55" class="edge"><title>Node4&#45;&gt;Node34</title>
<path fill="none" stroke="midnightblue" d="M1579.06,-404.512C1606.59,-391.804 1641.9,-375.51 1663.19,-365.682"/>
<polygon fill="midnightblue" stroke="midnightblue" points="1577.29,-401.473 1569.68,-408.841 1580.22,-407.829 1577.29,-401.473"/>
</g>
<!-- Node6 -->
<g id="node6" class="node"><title>Node6</title>
<g id="a_node6"><a xlink:href="analytic-eval-node_8cc.html" target="_top" xlink:title="be/src/exec/analytic\l&#45;eval&#45;node.cc">
<polygon fill="white" stroke="black" points="1502,-205 1502,-235 1606,-235 1606,-205 1502,-205"/>
<text text-anchor="start" x="1510" y="-223" font-family="Helvetica,sans-Serif" font-size="10.00">be/src/exec/analytic</text>
<text text-anchor="middle" x="1554" y="-212" font-family="Helvetica,sans-Serif" font-size="10.00">&#45;eval&#45;node.cc</text>
</a>
</g>
</g>
<!-- Node5&#45;&gt;Node6 -->
<g id="edge5" class="edge"><title>Node5&#45;&gt;Node6</title>
<path fill="none" stroke="midnightblue" d="M1554,-262.532C1554,-253.361 1554,-243.245 1554,-235.293"/>
<polygon fill="midnightblue" stroke="midnightblue" points="1550.5,-262.679 1554,-272.679 1557.5,-262.679 1550.5,-262.679"/>
</g>
<!-- Node7 -->
<g id="node7" class="node"><title>Node7</title>
<g id="a_node7"><a xlink:href="exec-node_8cc.html" target="_top" xlink:title="be/src/exec/exec&#45;node.cc">
<polygon fill="white" stroke="black" points="1377.5,-74.5 1377.5,-93.5 1506.5,-93.5 1506.5,-74.5 1377.5,-74.5"/>
<text text-anchor="middle" x="1442" y="-81.5" font-family="Helvetica,sans-Serif" font-size="10.00">be/src/exec/exec&#45;node.cc</text>
</a>
</g>
</g>
<!-- Node5&#45;&gt;Node7 -->
<g id="edge6" class="edge"><title>Node5&#45;&gt;Node7</title>
<path fill="none" stroke="midnightblue" d="M1616.23,-274.759C1670.42,-263.472 1741.6,-246.868 1750,-236 1758.7,-224.748 1758.04,-215.73 1750,-204 1695.46,-124.455 1579.57,-98.0664 1506.53,-89.3219"/>
<polygon fill="midnightblue" stroke="midnightblue" points="1615.42,-271.353 1606.33,-276.802 1616.83,-278.209 1615.42,-271.353"/>
</g>
<!-- Node10 -->
<g id="node10" class="node"><title>Node10</title>
<g id="a_node10"><a xlink:href="hash-table_8inline_8h.html" target="_top" xlink:title="be/src/exec/hash&#45;table.inline.h">
<polygon fill="white" stroke="black" points="773.5,-142.5 773.5,-161.5 922.5,-161.5 922.5,-142.5 773.5,-142.5"/>
<text text-anchor="middle" x="848" y="-149.5" font-family="Helvetica,sans-Serif" font-size="10.00">be/src/exec/hash&#45;table.inline.h</text>
</a>
</g>
</g>
<!-- Node9&#45;&gt;Node10 -->
<g id="edge9" class="edge"><title>Node9&#45;&gt;Node10</title>
<path fill="none" stroke="midnightblue" d="M928.857,-204.811C908.374,-191.686 878.589,-172.6 861.469,-161.63"/>
<polygon fill="midnightblue" stroke="midnightblue" points="927.226,-207.923 937.535,-210.372 931.003,-202.03 927.226,-207.923"/>
</g>
<!-- Node9&#45;&gt;Node20 -->
<g id="edge20" class="edge"><title>Node9&#45;&gt;Node20</title>
<path fill="none" stroke="midnightblue" d="M994.814,-208.005C1039.54,-196.781 1109.13,-179.318 1157.86,-167.087"/>
<polygon fill="midnightblue" stroke="midnightblue" points="993.96,-204.61 985.113,-210.439 995.664,-211.4 993.96,-204.61"/>
</g>
<!-- Node9&#45;&gt;Node21 -->
<g id="edge24" class="edge"><title>Node9&#45;&gt;Node21</title>
<path fill="none" stroke="midnightblue" d="M963.763,-202.153C971.96,-191.333 982.488,-177.436 990.256,-167.181"/>
<polygon fill="midnightblue" stroke="midnightblue" points="960.785,-200.287 957.537,-210.372 966.365,-204.514 960.785,-200.287"/>
</g>
<!-- Node10&#45;&gt;Node8 -->
<g id="edge15" class="edge"><title>Node10&#45;&gt;Node8</title>
<path fill="none" stroke="midnightblue" d="M793.776,-140.79C782.637,-138.966 770.964,-137.25 760,-136 487.081,-104.874 415.615,-133.691 143,-100 130.115,-98.4076 116.166,-95.9926 103.626,-93.5628"/>
<polygon fill="midnightblue" stroke="midnightblue" points="793.377,-144.273 803.82,-142.487 794.542,-137.37 793.377,-144.273"/>
</g>
<!-- Node11 -->
<g id="node11" class="node"><title>Node11</title>
<g id="a_node11"><a xlink:href="hash-join-node_8cc_8BACKUP_832326_8cc.html" target="_top" xlink:title="be/src/exec/hash&#45;join\l&#45;node.cc.BACKUP.32326.cc">
<polygon fill="white" stroke="black" points="777,-69 777,-99 919,-99 919,-69 777,-69"/>
<text text-anchor="start" x="785" y="-87" font-family="Helvetica,sans-Serif" font-size="10.00">be/src/exec/hash&#45;join</text>
<text text-anchor="middle" x="848" y="-76" font-family="Helvetica,sans-Serif" font-size="10.00">&#45;node.cc.BACKUP.32326.cc</text>
</a>
</g>
</g>
<!-- Node10&#45;&gt;Node11 -->
<g id="edge10" class="edge"><title>Node10&#45;&gt;Node11</title>
<path fill="none" stroke="midnightblue" d="M848,-132.174C848,-121.678 848,-108.821 848,-99.1815"/>
<polygon fill="midnightblue" stroke="midnightblue" points="844.5,-132.372 848,-142.372 851.5,-132.372 844.5,-132.372"/>
</g>
<!-- Node12 -->
<g id="node12" class="node"><title>Node12</title>
<g id="a_node12"><a xlink:href="hash-join-node_8cc_8BASE_832326_8cc.html" target="_top" xlink:title="be/src/exec/hash&#45;join\l&#45;node.cc.BASE.32326.cc">
<polygon fill="white" stroke="black" points="185.5,-69 185.5,-99 312.5,-99 312.5,-69 185.5,-69"/>
<text text-anchor="start" x="193.5" y="-87" font-family="Helvetica,sans-Serif" font-size="10.00">be/src/exec/hash&#45;join</text>
<text text-anchor="middle" x="249" y="-76" font-family="Helvetica,sans-Serif" font-size="10.00">&#45;node.cc.BASE.32326.cc</text>
</a>
</g>
</g>
<!-- Node10&#45;&gt;Node12 -->
<g id="edge11" class="edge"><title>Node10&#45;&gt;Node12</title>
<path fill="none" stroke="midnightblue" d="M792.341,-140.761C781.633,-139.005 770.487,-137.322 760,-136 566.211,-111.567 515.348,-127.707 322,-100 318.926,-99.5595 315.787,-99.0698 312.622,-98.5439"/>
<polygon fill="midnightblue" stroke="midnightblue" points="791.996,-144.253 802.438,-142.459 793.157,-137.349 791.996,-144.253"/>
</g>
<!-- Node13 -->
<g id="node13" class="node"><title>Node13</title>
<g id="a_node13"><a xlink:href="hash-join-node_8cc_8LOCAL_832326_8cc.html" target="_top" xlink:title="be/src/exec/hash&#45;join\l&#45;node.cc.LOCAL.32326.cc">
<polygon fill="white" stroke="black" points="331,-69 331,-99 463,-99 463,-69 331,-69"/>
<text text-anchor="start" x="339" y="-87" font-family="Helvetica,sans-Serif" font-size="10.00">be/src/exec/hash&#45;join</text>
<text text-anchor="middle" x="397" y="-76" font-family="Helvetica,sans-Serif" font-size="10.00">&#45;node.cc.LOCAL.32326.cc</text>
</a>
</g>
</g>
<!-- Node10&#45;&gt;Node13 -->
<g id="edge12" class="edge"><title>Node10&#45;&gt;Node13</title>
<path fill="none" stroke="midnightblue" d="M790.19,-140.769C780.137,-139.098 769.774,-137.443 760,-136 632.387,-117.158 599.33,-120.663 472,-100 469.116,-99.5321 466.175,-99.0338 463.206,-98.5138"/>
<polygon fill="midnightblue" stroke="midnightblue" points="789.664,-144.23 800.106,-142.439 790.826,-137.327 789.664,-144.23"/>
</g>
<!-- Node14 -->
<g id="node14" class="node"><title>Node14</title>
<g id="a_node14"><a xlink:href="hash-join-node_8cc_8REMOTE_832326_8cc.html" target="_top" xlink:title="be/src/exec/hash&#45;join\l&#45;node.cc.REMOTE.32326.cc">
<polygon fill="white" stroke="black" points="481.5,-69 481.5,-99 624.5,-99 624.5,-69 481.5,-69"/>
<text text-anchor="start" x="489.5" y="-87" font-family="Helvetica,sans-Serif" font-size="10.00">be/src/exec/hash&#45;join</text>
<text text-anchor="middle" x="553" y="-76" font-family="Helvetica,sans-Serif" font-size="10.00">&#45;node.cc.REMOTE.32326.cc</text>
</a>
</g>
</g>
<!-- Node10&#45;&gt;Node14 -->
<g id="edge13" class="edge"><title>Node10&#45;&gt;Node14</title>
<path fill="none" stroke="midnightblue" d="M799.783,-140.213C749.571,-128.979 670.705,-111.334 615.686,-99.0247"/>
<polygon fill="midnightblue" stroke="midnightblue" points="799.213,-143.671 809.736,-142.439 800.742,-136.84 799.213,-143.671"/>
</g>
<!-- Node15 -->
<g id="node15" class="node"><title>Node15</title>
<g id="a_node15"><a xlink:href="hash-table-test_8cc.html" target="_top" xlink:title="be/src/exec/hash&#45;table\l&#45;test.cc">
<polygon fill="white" stroke="black" points="643,-69 643,-99 759,-99 759,-69 643,-69"/>
<text text-anchor="start" x="651" y="-87" font-family="Helvetica,sans-Serif" font-size="10.00">be/src/exec/hash&#45;table</text>
<text text-anchor="middle" x="701" y="-76" font-family="Helvetica,sans-Serif" font-size="10.00">&#45;test.cc</text>
</a>
</g>
</g>
<!-- Node10&#45;&gt;Node15 -->
<g id="edge14" class="edge"><title>Node10&#45;&gt;Node15</title>
<path fill="none" stroke="midnightblue" d="M819.465,-138.188C794.441,-126.953 758.123,-110.647 732.307,-99.0562"/>
<polygon fill="midnightblue" stroke="midnightblue" points="818.226,-141.469 828.782,-142.372 821.093,-135.083 818.226,-141.469"/>
</g>
<!-- Node16 -->
<g id="node16" class="node"><title>Node16</title>
<g id="a_node16"><a xlink:href="partitioned-aggregation-node-ir_8cc.html" target="_top" xlink:title="be/src/exec/partitioned\l&#45;aggregation&#45;node&#45;ir.cc">
<polygon fill="white" stroke="black" points="1243,-69 1243,-99 1359,-99 1359,-69 1243,-69"/>
<text text-anchor="start" x="1251" y="-87" font-family="Helvetica,sans-Serif" font-size="10.00">be/src/exec/partitioned</text>
<text text-anchor="middle" x="1301" y="-76" font-family="Helvetica,sans-Serif" font-size="10.00">&#45;aggregation&#45;node&#45;ir.cc</text>
</a>
</g>
</g>
<!-- Node10&#45;&gt;Node16 -->
<g id="edge16" class="edge"><title>Node10&#45;&gt;Node16</title>
<path fill="none" stroke="midnightblue" d="M904.448,-140.716C914.285,-139.049 924.43,-137.41 934,-136 1066.42,-116.494 1101.05,-122.443 1233,-100 1236.22,-99.4527 1239.51,-98.854 1242.83,-98.2208"/>
<polygon fill="midnightblue" stroke="midnightblue" points="903.607,-137.309 894.345,-142.454 904.794,-144.208 903.607,-137.309"/>
</g>
<!-- Node17 -->
<g id="node17" class="node"><title>Node17</title>
<g id="a_node17"><a xlink:href="partitioned-aggregation-node_8cc.html" target="_top" xlink:title="be/src/exec/partitioned\l&#45;aggregation&#45;node.cc">
<polygon fill="white" stroke="black" points="1109,-69 1109,-99 1225,-99 1225,-69 1109,-69"/>
<text text-anchor="start" x="1117" y="-87" font-family="Helvetica,sans-Serif" font-size="10.00">be/src/exec/partitioned</text>
<text text-anchor="middle" x="1167" y="-76" font-family="Helvetica,sans-Serif" font-size="10.00">&#45;aggregation&#45;node.cc</text>
</a>
</g>
</g>
<!-- Node10&#45;&gt;Node17 -->
<g id="edge17" class="edge"><title>Node10&#45;&gt;Node17</title>
<path fill="none" stroke="midnightblue" d="M901.225,-140.452C952.07,-130.314 1030.83,-114.443 1099,-100 1102.19,-99.3234 1105.47,-98.6227 1108.78,-97.9105"/>
<polygon fill="midnightblue" stroke="midnightblue" points="900.251,-137.078 891.127,-142.464 901.618,-143.943 900.251,-137.078"/>
</g>
<!-- Node18 -->
<g id="node18" class="node"><title>Node18</title>
<g id="a_node18"><a xlink:href="partitioned-hash-join-node-ir_8cc.html" target="_top" xlink:title="be/src/exec/partitioned\l&#45;hash&#45;join&#45;node&#45;ir.cc">
<polygon fill="white" stroke="black" points="721,-1 721,-31 837,-31 837,-1 721,-1"/>
<text text-anchor="start" x="729" y="-19" font-family="Helvetica,sans-Serif" font-size="10.00">be/src/exec/partitioned</text>
<text text-anchor="middle" x="779" y="-8" font-family="Helvetica,sans-Serif" font-size="10.00">&#45;hash&#45;join&#45;node&#45;ir.cc</text>
</a>
</g>
</g>
<!-- Node10&#45;&gt;Node18 -->
<g id="edge18" class="edge"><title>Node10&#45;&gt;Node18</title>
<path fill="none" stroke="midnightblue" d="M793.413,-140.76C782.383,-138.955 770.844,-137.255 760,-136 695.419,-128.527 220.534,-147.364 176,-100 99.9022,-19.0667 555.534,-15.0879 720.817,-16.2506"/>
<polygon fill="midnightblue" stroke="midnightblue" points="792.923,-144.226 803.365,-142.437 794.086,-137.324 792.923,-144.226"/>
</g>
<!-- Node10&#45;&gt;Node19 -->
<g id="edge19" class="edge"><title>Node10&#45;&gt;Node19</title>
<path fill="none" stroke="midnightblue" d="M871.672,-137.046C887.889,-127.214 909.693,-113.453 928,-100 945.792,-86.9258 945.925,-77.1934 966,-68 1050.77,-29.1784 1160.03,-19.2928 1225.91,-17.1185"/>
<polygon fill="midnightblue" stroke="midnightblue" points="869.61,-134.202 862.837,-142.349 873.213,-140.203 869.61,-134.202"/>
</g>
<!-- Node20&#45;&gt;Node7 -->
<g id="edge21" class="edge"><title>Node20&#45;&gt;Node7</title>
<path fill="none" stroke="midnightblue" d="M1272.24,-134.14C1317.1,-121.154 1377.25,-103.745 1412.59,-93.5138"/>
<polygon fill="midnightblue" stroke="midnightblue" points="1271.26,-130.78 1262.63,-136.922 1273.21,-137.504 1271.26,-130.78"/>
</g>
<!-- Node20&#45;&gt;Node16 -->
<g id="edge22" class="edge"><title>Node20&#45;&gt;Node16</title>
<path fill="none" stroke="midnightblue" d="M1240.89,-130.599C1254.37,-120.371 1270.36,-108.243 1282.46,-99.0663"/>
<polygon fill="midnightblue" stroke="midnightblue" points="1238.73,-127.847 1232.88,-136.679 1242.96,-133.424 1238.73,-127.847"/>
</g>
<!-- Node20&#45;&gt;Node17 -->
<g id="edge23" class="edge"><title>Node20&#45;&gt;Node17</title>
<path fill="none" stroke="midnightblue" d="M1197.84,-128.314C1190.99,-118.689 1183.21,-107.763 1177.18,-99.2931"/>
<polygon fill="midnightblue" stroke="midnightblue" points="1195.15,-130.564 1203.8,-136.679 1200.85,-126.503 1195.15,-130.564"/>
</g>
<!-- Node21&#45;&gt;Node7 -->
<g id="edge25" class="edge"><title>Node21&#45;&gt;Node7</title>
<path fill="none" stroke="midnightblue" d="M1069.24,-142.713C1142.89,-133.483 1263.54,-117.538 1367,-100 1378.26,-98.0914 1390.42,-95.7723 1401.6,-93.5339"/>
<polygon fill="midnightblue" stroke="midnightblue" points="1068.65,-139.258 1059.16,-143.97 1069.52,-146.205 1068.65,-139.258"/>
</g>
<!-- Node22 -->
<g id="node22" class="node"><title>Node22</title>
<g id="a_node22"><a xlink:href="partitioned-hash-join-node_8inline_8h.html" target="_top" xlink:title="be/src/exec/partitioned\l&#45;hash&#45;join&#45;node.inline.h">
<polygon fill="white" stroke="black" points="975,-69 975,-99 1091,-99 1091,-69 975,-69"/>
<text text-anchor="start" x="983" y="-87" font-family="Helvetica,sans-Serif" font-size="10.00">be/src/exec/partitioned</text>
<text text-anchor="middle" x="1033" y="-76" font-family="Helvetica,sans-Serif" font-size="10.00">&#45;hash&#45;join&#45;node.inline.h</text>
</a>
</g>
</g>
<!-- Node21&#45;&gt;Node22 -->
<g id="edge26" class="edge"><title>Node21&#45;&gt;Node22</title>
<path fill="none" stroke="midnightblue" d="M1012.43,-127.426C1016.99,-118.023 1022.09,-107.504 1026.07,-99.2931"/>
<polygon fill="midnightblue" stroke="midnightblue" points="1009.16,-126.154 1007.94,-136.679 1015.46,-129.208 1009.16,-126.154"/>
</g>
<!-- Node22&#45;&gt;Node18 -->
<g id="edge27" class="edge"><title>Node22&#45;&gt;Node18</title>
<path fill="none" stroke="midnightblue" d="M968.988,-66.367C927.059,-55.4721 872.865,-41.3902 833.095,-31.0561"/>
<polygon fill="midnightblue" stroke="midnightblue" points="968.263,-69.7948 978.822,-68.9223 970.024,-63.0198 968.263,-69.7948"/>
</g>
<!-- Node22&#45;&gt;Node19 -->
<g id="edge28" class="edge"><title>Node22&#45;&gt;Node19</title>
<path fill="none" stroke="midnightblue" d="M1096.26,-66.367C1137.69,-55.4721 1191.24,-41.3902 1230.54,-31.0561"/>
<polygon fill="midnightblue" stroke="midnightblue" points="1095.32,-62.9942 1086.54,-68.9223 1097.1,-69.7641 1095.32,-62.9942"/>
</g>
<!-- Node23&#45;&gt;Node7 -->
<g id="edge33" class="edge"><title>Node23&#45;&gt;Node7</title>
<path fill="none" stroke="midnightblue" d="M2002.48,-273.138C1951.15,-243.487 1824.52,-173.56 1710,-136 1642.27,-113.787 1561.55,-100.065 1506.52,-92.5278"/>
<polygon fill="midnightblue" stroke="midnightblue" points="2001.04,-276.348 2011.44,-278.349 2004.56,-270.296 2001.04,-276.348"/>
</g>
<!-- Node24 -->
<g id="node24" class="node"><title>Node24</title>
<g id="a_node24"><a xlink:href="sort-node_8cc.html" target="_top" xlink:title="be/src/exec/sort&#45;node.cc">
<polygon fill="white" stroke="black" points="1960.5,-210.5 1960.5,-229.5 2085.5,-229.5 2085.5,-210.5 1960.5,-210.5"/>
<text text-anchor="middle" x="2023" y="-217.5" font-family="Helvetica,sans-Serif" font-size="10.00">be/src/exec/sort&#45;node.cc</text>
</a>
</g>
</g>
<!-- Node23&#45;&gt;Node24 -->
<g id="edge34" class="edge"><title>Node23&#45;&gt;Node24</title>
<path fill="none" stroke="midnightblue" d="M2025.14,-268.041C2024.57,-255.472 2023.84,-239.563 2023.4,-229.841"/>
<polygon fill="midnightblue" stroke="midnightblue" points="2021.66,-268.541 2025.61,-278.372 2028.65,-268.223 2021.66,-268.541"/>
</g>
<!-- Node25&#45;&gt;Node5 -->
<g id="edge38" class="edge"><title>Node25&#45;&gt;Node5</title>
<path fill="none" stroke="midnightblue" d="M1318.85,-341.056C1367.35,-331.097 1433.75,-317.182 1492,-304 1495.24,-303.267 1498.57,-302.499 1501.93,-301.716"/>
<polygon fill="midnightblue" stroke="midnightblue" points="1317.88,-337.682 1308.79,-343.119 1319.29,-344.54 1317.88,-337.682"/>
</g>
<!-- Node25&#45;&gt;Node9 -->
<g id="edge39" class="edge"><title>Node25&#45;&gt;Node9</title>
<path fill="none" stroke="midnightblue" d="M1181.14,-351.241C1107.58,-345.765 997.568,-332.892 968,-304 947.591,-284.057 948.352,-246.675 949.917,-229.738"/>
<polygon fill="midnightblue" stroke="midnightblue" points="1181.04,-354.743 1191.26,-351.966 1181.54,-347.761 1181.04,-354.743"/>
</g>
<!-- Node25&#45;&gt;Node20 -->
<g id="edge40" class="edge"><title>Node25&#45;&gt;Node20</title>
<path fill="none" stroke="midnightblue" d="M1181.14,-350.449C1115.48,-344.504 1023.38,-331.423 1001,-304 992.009,-292.981 993.802,-284.266 1001,-272 1034.55,-214.825 1106.68,-183.082 1157.69,-167.045"/>
<polygon fill="midnightblue" stroke="midnightblue" points="1181.17,-353.965 1191.44,-351.343 1181.78,-346.991 1181.17,-353.965"/>
</g>
<!-- Node26 -->
<g id="node26" class="node"><title>Node26</title>
<g id="a_node26"><a xlink:href="buffered-tuple-stream_8cc.html" target="_top" xlink:title="be/src/runtime/buffered\l&#45;tuple&#45;stream.cc">
<polygon fill="white" stroke="black" points="1010.5,-273 1010.5,-303 1127.5,-303 1127.5,-273 1010.5,-273"/>
<text text-anchor="start" x="1018.5" y="-291" font-family="Helvetica,sans-Serif" font-size="10.00">be/src/runtime/buffered</text>
<text text-anchor="middle" x="1069" y="-280" font-family="Helvetica,sans-Serif" font-size="10.00">&#45;tuple&#45;stream.cc</text>
</a>
</g>
</g>
<!-- Node25&#45;&gt;Node26 -->
<g id="edge41" class="edge"><title>Node25&#45;&gt;Node26</title>
<path fill="none" stroke="midnightblue" d="M1201.49,-337.312C1172.01,-326.563 1134.9,-313.029 1107.45,-303.022"/>
<polygon fill="midnightblue" stroke="midnightblue" points="1200.58,-340.704 1211.17,-340.841 1202.98,-334.127 1200.58,-340.704"/>
</g>
<!-- Node27 -->
<g id="node27" class="node"><title>Node27</title>
<g id="a_node27"><a xlink:href="buffered-tuple-stream_8inline_8h.html" target="_top" xlink:title="be/src/runtime/buffered\l&#45;tuple&#45;stream.inline.h">
<polygon fill="white" stroke="black" points="1366.5,-273 1366.5,-303 1483.5,-303 1483.5,-273 1366.5,-273"/>
<text text-anchor="start" x="1374.5" y="-291" font-family="Helvetica,sans-Serif" font-size="10.00">be/src/runtime/buffered</text>
<text text-anchor="middle" x="1425" y="-280" font-family="Helvetica,sans-Serif" font-size="10.00">&#45;tuple&#45;stream.inline.h</text>
</a>
</g>
</g>
<!-- Node25&#45;&gt;Node27 -->
<g id="edge42" class="edge"><title>Node25&#45;&gt;Node27</title>
<path fill="none" stroke="midnightblue" d="M1296.9,-337.312C1325.4,-326.563 1361.29,-313.029 1387.82,-303.022"/>
<polygon fill="midnightblue" stroke="midnightblue" points="1295.66,-334.038 1287.54,-340.841 1298.13,-340.587 1295.66,-334.038"/>
</g>
<!-- Node30 -->
<g id="node30" class="node"><title>Node30</title>
<g id="a_node30"><a xlink:href="row-batch_8cc.html" target="_top" xlink:title="be/src/runtime/row\l&#45;batch.cc">
<polygon fill="white" stroke="black" points="1146,-273 1146,-303 1244,-303 1244,-273 1146,-273"/>
<text text-anchor="start" x="1154" y="-291" font-family="Helvetica,sans-Serif" font-size="10.00">be/src/runtime/row</text>
<text text-anchor="middle" x="1195" y="-280" font-family="Helvetica,sans-Serif" font-size="10.00">&#45;batch.cc</text>
</a>
</g>
</g>
<!-- Node25&#45;&gt;Node30 -->
<g id="edge51" class="edge"><title>Node25&#45;&gt;Node30</title>
<path fill="none" stroke="midnightblue" d="M1231.58,-332.901C1223.45,-323.136 1214.11,-311.936 1206.91,-303.293"/>
<polygon fill="midnightblue" stroke="midnightblue" points="1228.98,-335.237 1238.07,-340.679 1234.35,-330.756 1228.98,-335.237"/>
</g>
<!-- Node31 -->
<g id="node31" class="node"><title>Node31</title>
<g id="a_node31"><a xlink:href="static-asserts_8cc.html" target="_top" xlink:title="be/src/util/static\l&#45;asserts.cc">
<polygon fill="white" stroke="black" points="1262,-273 1262,-303 1348,-303 1348,-273 1262,-273"/>
<text text-anchor="start" x="1270" y="-291" font-family="Helvetica,sans-Serif" font-size="10.00">be/src/util/static</text>
<text text-anchor="middle" x="1305" y="-280" font-family="Helvetica,sans-Serif" font-size="10.00">&#45;asserts.cc</text>
</a>
</g>
</g>
<!-- Node25&#45;&gt;Node31 -->
<g id="edge52" class="edge"><title>Node25&#45;&gt;Node31</title>
<path fill="none" stroke="midnightblue" d="M1268.42,-332.901C1276.55,-323.136 1285.89,-311.936 1293.09,-303.293"/>
<polygon fill="midnightblue" stroke="midnightblue" points="1265.65,-330.756 1261.93,-340.679 1271.02,-335.237 1265.65,-330.756"/>
</g>
<!-- Node27&#45;&gt;Node6 -->
<g id="edge43" class="edge"><title>Node27&#45;&gt;Node6</title>
<path fill="none" stroke="midnightblue" d="M1461.75,-268.197C1482.31,-257.68 1507.51,-244.787 1526.37,-235.135"/>
<polygon fill="midnightblue" stroke="midnightblue" points="1459.98,-265.171 1452.67,-272.841 1463.17,-271.402 1459.98,-265.171"/>
</g>
<!-- Node27&#45;&gt;Node9 -->
<g id="edge44" class="edge"><title>Node27&#45;&gt;Node9</title>
<path fill="none" stroke="midnightblue" d="M1356.33,-272.163C1305.39,-264.793 1114.09,-241.106 1013.43,-228.689"/>
<polygon fill="midnightblue" stroke="midnightblue" points="1356.05,-275.66 1366.46,-273.728 1357.11,-268.742 1356.05,-275.66"/>
</g>
<!-- Node27&#45;&gt;Node16 -->
<g id="edge45" class="edge"><title>Node27&#45;&gt;Node16</title>
<path fill="none" stroke="midnightblue" d="M1361.34,-268.768C1345.16,-261.162 1329.42,-250.584 1319,-236 1288.91,-193.9 1294.35,-127.752 1298.54,-99.0581"/>
<polygon fill="midnightblue" stroke="midnightblue" points="1360.32,-272.138 1370.88,-272.91 1363.1,-265.717 1360.32,-272.138"/>
</g>
<!-- Node27&#45;&gt;Node17 -->
<g id="edge46" class="edge"><title>Node27&#45;&gt;Node17</title>
<path fill="none" stroke="midnightblue" d="M1365.59,-270.051C1291.62,-247.595 1171.91,-206.338 1147,-168 1133.11,-146.623 1146.91,-116.504 1157.47,-99.0398"/>
<polygon fill="midnightblue" stroke="midnightblue" points="1364.68,-273.432 1375.27,-272.96 1366.7,-266.729 1364.68,-273.432"/>
</g>
<!-- Node27&#45;&gt;Node19 -->
<g id="edge47" class="edge"><title>Node27&#45;&gt;Node19</title>
<path fill="none" stroke="midnightblue" d="M1439.93,-264.435C1471.62,-215.2 1540.69,-99.9793 1515,-68 1493.72,-41.5046 1403.41,-27.9519 1342.22,-21.6809"/>
<polygon fill="midnightblue" stroke="midnightblue" points="1436.99,-262.533 1434.48,-272.826 1442.86,-266.347 1436.99,-262.533"/>
</g>
<!-- Node27&#45;&gt;Node22 -->
<g id="edge48" class="edge"><title>Node27&#45;&gt;Node22</title>
<path fill="none" stroke="midnightblue" d="M1356.45,-271.985C1281.08,-257.058 1254.94,-269.954 1191,-236 1124.65,-200.766 1066.42,-129.705 1043.44,-99.3148"/>
<polygon fill="midnightblue" stroke="midnightblue" points="1355.89,-275.444 1366.4,-274.059 1357.32,-268.592 1355.89,-275.444"/>
</g>
<!-- Node28 -->
<g id="node28" class="node"><title>Node28</title>
<g id="a_node28"><a xlink:href="buffered-tuple-stream-ir_8cc.html" target="_top" xlink:title="be/src/runtime/buffered\l&#45;tuple&#45;stream&#45;ir.cc">
<polygon fill="white" stroke="black" points="1328.5,-205 1328.5,-235 1445.5,-235 1445.5,-205 1328.5,-205"/>
<text text-anchor="start" x="1336.5" y="-223" font-family="Helvetica,sans-Serif" font-size="10.00">be/src/runtime/buffered</text>
<text text-anchor="middle" x="1387" y="-212" font-family="Helvetica,sans-Serif" font-size="10.00">&#45;tuple&#45;stream&#45;ir.cc</text>
</a>
</g>
</g>
<!-- Node27&#45;&gt;Node28 -->
<g id="edge49" class="edge"><title>Node27&#45;&gt;Node28</title>
<path fill="none" stroke="midnightblue" d="M1411.6,-263.723C1406.14,-254.244 1400.01,-243.591 1395.23,-235.293"/>
<polygon fill="midnightblue" stroke="midnightblue" points="1408.73,-265.759 1416.75,-272.679 1414.8,-262.266 1408.73,-265.759"/>
</g>
<!-- Node27&#45;&gt;Node29 -->
<g id="edge50" class="edge"><title>Node27&#45;&gt;Node29</title>
<path fill="none" stroke="midnightblue" d="M1489.75,-270.436C1532.38,-259.532 1587.57,-245.412 1628.05,-235.056"/>
<polygon fill="midnightblue" stroke="midnightblue" points="1488.85,-267.053 1480.03,-272.922 1490.59,-273.835 1488.85,-267.053"/>
</g>
<!-- Node34&#45;&gt;Node23 -->
<g id="edge56" class="edge"><title>Node34&#45;&gt;Node23</title>
<path fill="none" stroke="midnightblue" d="M1732.18,-344.411C1739.5,-342.907 1746.94,-341.397 1754,-340 1832.71,-324.424 1924.48,-307.467 1978.77,-297.559"/>
<polygon fill="midnightblue" stroke="midnightblue" points="1731.42,-340.995 1722.34,-346.448 1732.84,-347.849 1731.42,-340.995"/>
</g>
<!-- Node34&#45;&gt;Node33 -->
<g id="edge58" class="edge"><title>Node34&#45;&gt;Node33</title>
<path fill="none" stroke="midnightblue" d="M1692.57,-337.563C1700.31,-324.781 1710.51,-307.96 1716.64,-297.841"/>
<polygon fill="midnightblue" stroke="midnightblue" points="1689.42,-336.006 1687.23,-346.372 1695.41,-339.634 1689.42,-336.006"/>
</g>
<!-- Node35 -->
<g id="node35" class="node"><title>Node35</title>
<g id="a_node35"><a xlink:href="sorted-run-merger_8cc.html" target="_top" xlink:title="be/src/runtime/sorted\l&#45;run&#45;merger.cc">
<polygon fill="white" stroke="black" points="1800.5,-273 1800.5,-303 1909.5,-303 1909.5,-273 1800.5,-273"/>
<text text-anchor="start" x="1808.5" y="-291" font-family="Helvetica,sans-Serif" font-size="10.00">be/src/runtime/sorted</text>
<text text-anchor="middle" x="1855" y="-280" font-family="Helvetica,sans-Serif" font-size="10.00">&#45;run&#45;merger.cc</text>
</a>
</g>
</g>
<!-- Node34&#45;&gt;Node35 -->
<g id="edge57" class="edge"><title>Node34&#45;&gt;Node35</title>
<path fill="none" stroke="midnightblue" d="M1714.03,-342.78C1743.52,-331.532 1787.24,-314.852 1818.16,-303.056"/>
<polygon fill="midnightblue" stroke="midnightblue" points="1712.71,-339.537 1704.62,-346.372 1715.21,-346.077 1712.71,-339.537"/>
</g>
</g>
</svg>
        <g id="navigator" transform="translate(0 0)" fill="#404254">
                <rect fill="#f2f5e9" fill-opacity="0.5" stroke="#606060" stroke-width=".5" x="0" y="0" width="60" height="60"/>
                <use id="zoomplus" xlink:href="#zoomPlus" x="17" y="9" onmousedown="handleZoom(evt,'in')"/>
                <use id="zoomminus" xlink:href="#zoomMin" x="42" y="9" onmousedown="handleZoom(evt,'out')"/>
                <use id="reset" xlink:href="#resetDef" x="30" y="36" onmousedown="handleReset()"/>
                <g id="arrowUp" xlink:href="#dirArrow" transform="translate(30 24)" onmousedown="handlePan(0,-1)">
                  <use xlink:href="#rim" fill="#404040">
                        <set attributeName="fill" to="#808080" begin="arrowUp.mouseover" end="arrowUp.mouseout"/>
                  </use>
                  <path fill="none" stroke="white" stroke-width="1.5" d="M0,-3.0v7 M-2.5,-0.5L0,-3.0L2.5,-0.5"/>
                </g>
                <g id="arrowRight" xlink:href="#dirArrow" transform="rotate(90) translate(36 -43)" onmousedown="handlePan(1,0)">
                  <use xlink:href="#rim" fill="#404040">
                        <set attributeName="fill" to="#808080" begin="arrowRight.mouseover" end="arrowRight.mouseout"/>
                  </use>
                  <path fill="none" stroke="white" stroke-width="1.5" d="M0,-3.0v7 M-2.5,-0.5L0,-3.0L2.5,-0.5"/>
                </g>
                <g id="arrowDown" xlink:href="#dirArrow" transform="rotate(180) translate(-30 -48)" onmousedown="handlePan(0,1)">
                  <use xlink:href="#rim" fill="#404040">
                        <set attributeName="fill" to="#808080" begin="arrowDown.mouseover" end="arrowDown.mouseout"/>
                  </use>
                  <path fill="none" stroke="white" stroke-width="1.5" d="M0,-3.0v7 M-2.5,-0.5L0,-3.0L2.5,-0.5"/>
                </g>
                <g id="arrowLeft" xlink:href="#dirArrow" transform="rotate(270) translate(-36 17)" onmousedown="handlePan(-1,0)">
                  <use xlink:href="#rim" fill="#404040">
                        <set attributeName="fill" to="#808080" begin="arrowLeft.mouseover" end="arrowLeft.mouseout"/>
                  </use>
                  <path fill="none" stroke="white" stroke-width="1.5" d="M0,-3.0v7 M-2.5,-0.5L0,-3.0L2.5,-0.5"/>
                </g>
        </g>
        <svg viewBox="0 0 15 15" width="100%" height="30px" preserveAspectRatio="xMaxYMin meet">
         <g id="arrow_out" transform="scale(0.3 0.3)">
          <a xlink:href="tmp-file-mgr_8h__dep__incl_org.svg" target="_base">
           <rect id="button" ry="5" rx="5" y="6" x="6" height="38" width="38"
                fill="#f2f5e9" fill-opacity="0.5" stroke="#606060" stroke-width="1.0"/>
           <path id="arrow"
             d="M 11.500037,31.436501 C 11.940474,20.09759 22.043105,11.32322 32.158766,21.979434 L 37.068811,17.246167 C 37.068811,17.246167 37.088388,32 37.088388,32 L 22.160133,31.978069 C 22.160133,31.978069 26.997745,27.140456 26.997745,27.140456 C 18.528582,18.264221 13.291696,25.230495 11.500037,31.436501 z"
             style="fill:#404040;"/>
          </a>
         </g>
        </svg>
</svg>
