<?xml version="1.0" encoding="UTF-8" standalone="no"?>
<!DOCTYPE svg PUBLIC "-//W3C//DTD SVG 1.1//EN"
 "http://www.w3.org/Graphics/SVG/1.1/DTD/svg11.dtd">
<!-- Generated by graphviz version 2.36.0 (20140111.2315)
 -->
<!-- Title: be/src/transport/TSasl.h Pages: 1 -->
<!--zoomable 96 -->
<svg id="main" version="1.1" xmlns="http://www.w3.org/2000/svg" xmlns:xlink="http://www.w3.org/1999/xlink" xml:space="preserve" onload="init(evt)">
<style type="text/css"><![CDATA[
.edge:hover path { stroke: red; }
.edge:hover polygon { stroke: red; fill: red; }
]]></style>
<script type="text/javascript"><![CDATA[
var edges = document.getElementsByTagName('g');
if (edges && edges.length) {
  for (var i=0;i<edges.length;i++) {
    if (edges[i].id.substr(0,4)=='edge') {
      edges[i].setAttribute('class','edge');
    }
  }
}
]]></script>
        <defs>
                <circle id="rim" cx="0" cy="0" r="7"/>
                <circle id="rim2" cx="0" cy="0" r="3.5"/>
                <g id="zoomPlus">
                        <use xlink:href="#rim" fill="#404040">
                                <set attributeName="fill" to="#808080" begin="zoomplus.mouseover" end="zoomplus.mouseout"/>
                        </use>
                        <path d="M-4,0h8M0,-4v8" fill="none" stroke="white" stroke-width="1.5" pointer-events="none"/>
                </g>
                <g id="zoomMin">
                        <use xlink:href="#rim" fill="#404040">
                                <set attributeName="fill" to="#808080" begin="zoomminus.mouseover" end="zoomminus.mouseout"/>
                        </use>
                        <path d="M-4,0h8" fill="none" stroke="white" stroke-width="1.5" pointer-events="none"/>
                </g>
                <g id="dirArrow">
                        <path fill="none" stroke="white" stroke-width="1.5" d="M0,-3.0v7 M-2.5,-0.5L0,-3.0L2.5,-0.5"/>
                </g>
               <g id="resetDef">
                       <use xlink:href="#rim2" fill="#404040">
                               <set attributeName="fill" to="#808080" begin="reset.mouseover" end="reset.mouseout"/>
                       </use>
               </g>
        </defs>

<script type="text/javascript">
var viewWidth = 670;
var viewHeight = 96;
var sectionId = 'dynsection-0';
</script>
<script xlink:href="svgpan.js"/>
<svg id="graph" class="graph">
<g id="viewport">
<title>be/src/transport/TSasl.h</title>
<polygon fill="white" stroke="none" points="-4,4 -4,-92 666,-92 666,4 -4,4"/>
<!-- Node1 -->
<g id="node1" class="node"><title>Node1</title>
<polygon fill="#bfbfbf" stroke="black" points="187,-68.5 187,-87.5 309,-87.5 309,-68.5 187,-68.5"/>
<text text-anchor="middle" x="248" y="-75.5" font-family="Helvetica,sans-Serif" font-size="10.00">be/src/transport/TSasl.h</text>
</g>
<!-- Node2 -->
<g id="node2" class="node"><title>Node2</title>
<polygon fill="white" stroke="#bfbfbf" points="-0.5,-6.5 -0.5,-25.5 40.5,-25.5 40.5,-6.5 -0.5,-6.5"/>
<text text-anchor="middle" x="20" y="-13.5" font-family="Helvetica,sans-Serif" font-size="10.00">string</text>
</g>
<!-- Node1&#45;&gt;Node2 -->
<g id="edge1" class="edge"><title>Node1&#45;&gt;Node2</title>
<path fill="none" stroke="midnightblue" d="M192.869,-68.4334C152.311,-61.2005 96.2506,-49.2407 49,-32 47.3526,-31.3989 45.6798,-30.724 44.0119,-30.002"/>
<polygon fill="midnightblue" stroke="midnightblue" points="45.2512,-26.7143 34.7221,-25.5359 42.2182,-33.0232 45.2512,-26.7143"/>
</g>
<!-- Node3 -->
<g id="node3" class="node"><title>Node3</title>
<polygon fill="white" stroke="#bfbfbf" points="58.5,-6.5 58.5,-25.5 93.5,-25.5 93.5,-6.5 58.5,-6.5"/>
<text text-anchor="middle" x="76" y="-13.5" font-family="Helvetica,sans-Serif" font-size="10.00">map</text>
</g>
<!-- Node1&#45;&gt;Node3 -->
<g id="edge2" class="edge"><title>Node1&#45;&gt;Node3</title>
<path fill="none" stroke="midnightblue" d="M212.694,-68.4997C182.62,-60.7016 138.592,-47.9532 102,-32 100.818,-31.4845 99.621,-30.9286 98.4237,-30.3447"/>
<polygon fill="midnightblue" stroke="midnightblue" points="99.9301,-27.181 89.4642,-25.5333 96.6183,-33.348 99.9301,-27.181"/>
</g>
<!-- Node4 -->
<g id="node4" class="node"><title>Node4</title>
<polygon fill="white" stroke="#bfbfbf" points="111.5,-6.5 111.5,-25.5 160.5,-25.5 160.5,-6.5 111.5,-6.5"/>
<text text-anchor="middle" x="136" y="-13.5" font-family="Helvetica,sans-Serif" font-size="10.00">stdint.h</text>
</g>
<!-- Node1&#45;&gt;Node4 -->
<g id="edge3" class="edge"><title>Node1&#45;&gt;Node4</title>
<path fill="none" stroke="midnightblue" d="M231.953,-68.4035C213.407,-58.4678 182.66,-41.9966 160.978,-30.3812"/>
<polygon fill="midnightblue" stroke="midnightblue" points="162.485,-27.2177 152.017,-25.5806 159.179,-33.388 162.485,-27.2177"/>
</g>
<!-- Node5 -->
<g id="node5" class="node"><title>Node5</title>
<polygon fill="white" stroke="#bfbfbf" points="178.5,-6.5 178.5,-25.5 237.5,-25.5 237.5,-6.5 178.5,-6.5"/>
<text text-anchor="middle" x="208" y="-13.5" font-family="Helvetica,sans-Serif" font-size="10.00">stdexcept</text>
</g>
<!-- Node1&#45;&gt;Node5 -->
<g id="edge4" class="edge"><title>Node1&#45;&gt;Node5</title>
<path fill="none" stroke="midnightblue" d="M242.269,-68.4035C236.328,-59.4925 226.883,-45.3247 219.412,-34.1177"/>
<polygon fill="midnightblue" stroke="midnightblue" points="222.18,-31.9596 213.72,-25.5806 216.355,-35.8426 222.18,-31.9596"/>
</g>
<!-- Node6 -->
<g id="node6" class="node"><title>Node6</title>
<polygon fill="white" stroke="#bfbfbf" points="256,-6.5 256,-25.5 320,-25.5 320,-6.5 256,-6.5"/>
<text text-anchor="middle" x="288" y="-13.5" font-family="Helvetica,sans-Serif" font-size="10.00">sasl/sasl.h</text>
</g>
<!-- Node1&#45;&gt;Node6 -->
<g id="edge5" class="edge"><title>Node1&#45;&gt;Node6</title>
<path fill="none" stroke="midnightblue" d="M253.731,-68.4035C259.672,-59.4925 269.117,-45.3247 276.588,-34.1177"/>
<polygon fill="midnightblue" stroke="midnightblue" points="279.645,-35.8426 282.28,-25.5806 273.82,-31.9596 279.645,-35.8426"/>
</g>
<!-- Node7 -->
<g id="node7" class="node"><title>Node7</title>
<polygon fill="white" stroke="#bfbfbf" points="338,-6.5 338,-25.5 420,-25.5 420,-6.5 338,-6.5"/>
<text text-anchor="middle" x="379" y="-13.5" font-family="Helvetica,sans-Serif" font-size="10.00">sasl/saslplug.h</text>
</g>
<!-- Node1&#45;&gt;Node7 -->
<g id="edge6" class="edge"><title>Node1&#45;&gt;Node7</title>
<path fill="none" stroke="midnightblue" d="M266.769,-68.4035C288.851,-58.2896 325.719,-41.4036 351.139,-29.761"/>
<polygon fill="midnightblue" stroke="midnightblue" points="352.631,-32.9269 360.266,-25.5806 349.716,-26.5627 352.631,-32.9269"/>
</g>
<!-- Node8 -->
<g id="node8" class="node"><title>Node8</title>
<polygon fill="white" stroke="#bfbfbf" points="438.5,-6.5 438.5,-25.5 515.5,-25.5 515.5,-6.5 438.5,-6.5"/>
<text text-anchor="middle" x="477" y="-13.5" font-family="Helvetica,sans-Serif" font-size="10.00">sasl/saslutil.h</text>
</g>
<!-- Node1&#45;&gt;Node8 -->
<g id="edge7" class="edge"><title>Node1&#45;&gt;Node8</title>
<path fill="none" stroke="midnightblue" d="M284.914,-68.4989C321.61,-59.8891 379.426,-45.8953 429,-32 432.862,-30.9175 436.883,-29.7406 440.883,-28.5378"/>
<polygon fill="midnightblue" stroke="midnightblue" points="442.142,-31.8128 450.676,-25.5343 440.089,-25.1205 442.142,-31.8128"/>
</g>
<!-- Node9 -->
<g id="node9" class="node"><title>Node9</title>
<polygon fill="white" stroke="#bfbfbf" points="534,-1 534,-31 662,-31 662,-1 534,-1"/>
<text text-anchor="start" x="542" y="-19" font-family="Helvetica,sans-Serif" font-size="10.00">thrift/transport/TTransport</text>
<text text-anchor="middle" x="598" y="-8" font-family="Helvetica,sans-Serif" font-size="10.00">Exception.h</text>
</g>
<!-- Node1&#45;&gt;Node9 -->
<g id="edge8" class="edge"><title>Node1&#45;&gt;Node9</title>
<path fill="none" stroke="midnightblue" d="M304.141,-68.4928C359.986,-59.8784 448.065,-45.8812 524,-32 524.101,-31.9816 524.202,-31.9631 524.302,-31.9447"/>
<polygon fill="midnightblue" stroke="midnightblue" points="524.667,-35.4372 533.854,-30.1593 523.381,-28.5564 524.667,-35.4372"/>
</g>
</g>
</svg>
        <g id="navigator" transform="translate(0 0)" fill="#404254">
                <rect fill="#f2f5e9" fill-opacity="0.5" stroke="#606060" stroke-width=".5" x="0" y="0" width="60" height="60"/>
                <use id="zoomplus" xlink:href="#zoomPlus" x="17" y="9" onmousedown="handleZoom(evt,'in')"/>
                <use id="zoomminus" xlink:href="#zoomMin" x="42" y="9" onmousedown="handleZoom(evt,'out')"/>
                <use id="reset" xlink:href="#resetDef" x="30" y="36" onmousedown="handleReset()"/>
                <g id="arrowUp" xlink:href="#dirArrow" transform="translate(30 24)" onmousedown="handlePan(0,-1)">
                  <use xlink:href="#rim" fill="#404040">
                        <set attributeName="fill" to="#808080" begin="arrowUp.mouseover" end="arrowUp.mouseout"/>
                  </use>
                  <path fill="none" stroke="white" stroke-width="1.5" d="M0,-3.0v7 M-2.5,-0.5L0,-3.0L2.5,-0.5"/>
                </g>
                <g id="arrowRight" xlink:href="#dirArrow" transform="rotate(90) translate(36 -43)" onmousedown="handlePan(1,0)">
                  <use xlink:href="#rim" fill="#404040">
                        <set attributeName="fill" to="#808080" begin="arrowRight.mouseover" end="arrowRight.mouseout"/>
                  </use>
                  <path fill="none" stroke="white" stroke-width="1.5" d="M0,-3.0v7 M-2.5,-0.5L0,-3.0L2.5,-0.5"/>
                </g>
                <g id="arrowDown" xlink:href="#dirArrow" transform="rotate(180) translate(-30 -48)" onmousedown="handlePan(0,1)">
                  <use xlink:href="#rim" fill="#404040">
                        <set attributeName="fill" to="#808080" begin="arrowDown.mouseover" end="arrowDown.mouseout"/>
                  </use>
                  <path fill="none" stroke="white" stroke-width="1.5" d="M0,-3.0v7 M-2.5,-0.5L0,-3.0L2.5,-0.5"/>
                </g>
                <g id="arrowLeft" xlink:href="#dirArrow" transform="rotate(270) translate(-36 17)" onmousedown="handlePan(-1,0)">
                  <use xlink:href="#rim" fill="#404040">
                        <set attributeName="fill" to="#808080" begin="arrowLeft.mouseover" end="arrowLeft.mouseout"/>
                  </use>
                  <path fill="none" stroke="white" stroke-width="1.5" d="M0,-3.0v7 M-2.5,-0.5L0,-3.0L2.5,-0.5"/>
                </g>
        </g>
        <svg viewBox="0 0 15 15" width="100%" height="30px" preserveAspectRatio="xMaxYMin meet">
         <g id="arrow_out" transform="scale(0.3 0.3)">
          <a xlink:href="TSasl_8h__incl_org.svg" target="_base">
           <rect id="button" ry="5" rx="5" y="6" x="6" height="38" width="38"
                fill="#f2f5e9" fill-opacity="0.5" stroke="#606060" stroke-width="1.0"/>
           <path id="arrow"
             d="M 11.500037,31.436501 C 11.940474,20.09759 22.043105,11.32322 32.158766,21.979434 L 37.068811,17.246167 C 37.068811,17.246167 37.088388,32 37.088388,32 L 22.160133,31.978069 C 22.160133,31.978069 26.997745,27.140456 26.997745,27.140456 C 18.528582,18.264221 13.291696,25.230495 11.500037,31.436501 z"
             style="fill:#404040;"/>
          </a>
         </g>
        </svg>
</svg>
