<?xml version="1.0" encoding="UTF-8" standalone="no"?>
<!DOCTYPE svg PUBLIC "-//W3C//DTD SVG 1.1//EN"
 "http://www.w3.org/Graphics/SVG/1.1/DTD/svg11.dtd">
<!-- Generated by graphviz version 2.36.0 (20140111.2315)
 -->
<!-- Title: be/src/transport/TSaslServerTransport.h Pages: 1 -->
<!--zoomable 232 -->
<svg id="main" version="1.1" xmlns="http://www.w3.org/2000/svg" xmlns:xlink="http://www.w3.org/1999/xlink" xml:space="preserve" onload="init(evt)">
<style type="text/css"><![CDATA[
.edge:hover path { stroke: red; }
.edge:hover polygon { stroke: red; fill: red; }
]]></style>
<script type="text/javascript"><![CDATA[
var edges = document.getElementsByTagName('g');
if (edges && edges.length) {
  for (var i=0;i<edges.length;i++) {
    if (edges[i].id.substr(0,4)=='edge') {
      edges[i].setAttribute('class','edge');
    }
  }
}
]]></script>
        <defs>
                <circle id="rim" cx="0" cy="0" r="7"/>
                <circle id="rim2" cx="0" cy="0" r="3.5"/>
                <g id="zoomPlus">
                        <use xlink:href="#rim" fill="#404040">
                                <set attributeName="fill" to="#808080" begin="zoomplus.mouseover" end="zoomplus.mouseout"/>
                        </use>
                        <path d="M-4,0h8M0,-4v8" fill="none" stroke="white" stroke-width="1.5" pointer-events="none"/>
                </g>
                <g id="zoomMin">
                        <use xlink:href="#rim" fill="#404040">
                                <set attributeName="fill" to="#808080" begin="zoomminus.mouseover" end="zoomminus.mouseout"/>
                        </use>
                        <path d="M-4,0h8" fill="none" stroke="white" stroke-width="1.5" pointer-events="none"/>
                </g>
                <g id="dirArrow">
                        <path fill="none" stroke="white" stroke-width="1.5" d="M0,-3.0v7 M-2.5,-0.5L0,-3.0L2.5,-0.5"/>
                </g>
               <g id="resetDef">
                       <use xlink:href="#rim2" fill="#404040">
                               <set attributeName="fill" to="#808080" begin="reset.mouseover" end="reset.mouseout"/>
                       </use>
               </g>
        </defs>

<script type="text/javascript">
var viewWidth = 1096;
var viewHeight = 232;
var sectionId = 'dynsection-0';
</script>
<script xlink:href="svgpan.js"/>
<svg id="graph" class="graph">
<g id="viewport">
<title>be/src/transport/TSaslServerTransport.h</title>
<polygon fill="white" stroke="none" points="-4,4 -4,-228 1092.43,-228 1092.43,4 -4,4"/>
<!-- Node1 -->
<g id="node1" class="node"><title>Node1</title>
<polygon fill="#bfbfbf" stroke="black" points="130.427,-193 130.427,-223 272.427,-223 272.427,-193 130.427,-193"/>
<text text-anchor="start" x="138.427" y="-211" font-family="Helvetica,sans-Serif" font-size="10.00">be/src/transport/TSaslServer</text>
<text text-anchor="middle" x="201.427" y="-200" font-family="Helvetica,sans-Serif" font-size="10.00">Transport.h</text>
</g>
<!-- Node2 -->
<g id="node2" class="node"><title>Node2</title>
<polygon fill="white" stroke="#bfbfbf" points="296.927,-6.5 296.927,-25.5 337.927,-25.5 337.927,-6.5 296.927,-6.5"/>
<text text-anchor="middle" x="317.427" y="-13.5" font-family="Helvetica,sans-Serif" font-size="10.00">string</text>
</g>
<!-- Node1&#45;&gt;Node2 -->
<g id="edge1" class="edge"><title>Node1&#45;&gt;Node2</title>
<path fill="none" stroke="midnightblue" d="M130.38,-196.218C85.0502,-187.722 32.2904,-174.255 18.4273,-156 -5.22672,-124.852 -6.7965,-97.8905 18.4273,-68 52.5177,-27.6024 217.024,-19.201 286.431,-17.4562"/>
<polygon fill="midnightblue" stroke="midnightblue" points="286.799,-20.949 296.72,-17.2294 286.645,-13.9507 286.799,-20.949"/>
</g>
<!-- Node3 -->
<g id="node3" class="node"><title>Node3</title>
<polygon fill="white" stroke="#bfbfbf" points="27.9273,-136.5 27.9273,-155.5 84.9273,-155.5 84.9273,-136.5 27.9273,-136.5"/>
<text text-anchor="middle" x="56.4273" y="-143.5" font-family="Helvetica,sans-Serif" font-size="10.00">pthread.h</text>
</g>
<!-- Node1&#45;&gt;Node3 -->
<g id="edge2" class="edge"><title>Node1&#45;&gt;Node3</title>
<path fill="none" stroke="midnightblue" d="M167.431,-192.933C142.968,-182.81 110.265,-169.278 86.7001,-159.527"/>
<polygon fill="midnightblue" stroke="midnightblue" points="87.7891,-156.19 77.2107,-155.6 85.1126,-162.658 87.7891,-156.19"/>
</g>
<!-- Node4 -->
<g id="node4" class="node"><title>Node4</title>
<polygon fill="white" stroke="#bfbfbf" points="27.4273,-74.5 27.4273,-93.5 135.427,-93.5 135.427,-74.5 27.4273,-74.5"/>
<text text-anchor="middle" x="81.4273" y="-81.5" font-family="Helvetica,sans-Serif" font-size="10.00">boost/shared_ptr.hpp</text>
</g>
<!-- Node1&#45;&gt;Node4 -->
<g id="edge3" class="edge"><title>Node1&#45;&gt;Node4</title>
<path fill="none" stroke="midnightblue" d="M178.902,-192.974C164.693,-183.517 146.445,-170.21 132.427,-156 116.165,-139.515 101.171,-117.459 91.7104,-102.329"/>
<polygon fill="midnightblue" stroke="midnightblue" points="94.5297,-100.23 86.3347,-93.5149 88.5534,-103.875 94.5297,-100.23"/>
</g>
<!-- Node5 -->
<g id="node5" class="node"><title>Node5</title>
<polygon fill="white" stroke="#bfbfbf" points="141.927,-136.5 141.927,-155.5 260.927,-155.5 260.927,-136.5 141.927,-136.5"/>
<text text-anchor="middle" x="201.427" y="-143.5" font-family="Helvetica,sans-Serif" font-size="10.00">boost/thread/mutex.hpp</text>
</g>
<!-- Node1&#45;&gt;Node5 -->
<g id="edge4" class="edge"><title>Node1&#45;&gt;Node5</title>
<path fill="none" stroke="midnightblue" d="M201.427,-192.781C201.427,-184.781 201.427,-174.689 201.427,-166.017"/>
<polygon fill="midnightblue" stroke="midnightblue" points="204.927,-165.73 201.427,-155.731 197.927,-165.731 204.927,-165.73"/>
</g>
<!-- Node6 -->
<g id="node6" class="node"><title>Node6</title>
<polygon fill="white" stroke="#bfbfbf" points="153.427,-74.5 153.427,-93.5 289.427,-93.5 289.427,-74.5 153.427,-74.5"/>
<text text-anchor="middle" x="221.427" y="-81.5" font-family="Helvetica,sans-Serif" font-size="10.00">thrift/transport/TTransport.h</text>
</g>
<!-- Node1&#45;&gt;Node6 -->
<g id="edge5" class="edge"><title>Node1&#45;&gt;Node6</title>
<path fill="none" stroke="midnightblue" d="M231.198,-192.944C245.555,-184.44 261.376,-172.103 269.427,-156 279.778,-135.3 259.829,-113.542 242.58,-99.655"/>
<polygon fill="midnightblue" stroke="midnightblue" points="244.557,-96.7617 234.474,-93.5088 240.328,-102.34 244.557,-96.7617"/>
</g>
<!-- Node7 -->
<g id="node7" class="node"><title>Node7</title>
<g id="a_node7"><a xlink:href="TSasl_8h.html" target="_top" xlink:title="transport/TSasl.h">
<polygon fill="white" stroke="black" points="737.427,-74.5 737.427,-93.5 829.427,-93.5 829.427,-74.5 737.427,-74.5"/>
<text text-anchor="middle" x="783.427" y="-81.5" font-family="Helvetica,sans-Serif" font-size="10.00">transport/TSasl.h</text>
</a>
</g>
</g>
<!-- Node1&#45;&gt;Node7 -->
<g id="edge6" class="edge"><title>Node1&#45;&gt;Node7</title>
<path fill="none" stroke="midnightblue" d="M272.829,-194.175C374.332,-175.558 565.957,-138.989 727.427,-100 732.435,-98.7907 737.68,-97.4653 742.865,-96.1186"/>
<polygon fill="midnightblue" stroke="midnightblue" points="743.912,-99.4624 752.688,-93.5274 742.126,-92.6939 743.912,-99.4624"/>
</g>
<!-- Node15 -->
<g id="node15" class="node"><title>Node15</title>
<g id="a_node15"><a xlink:href="TSaslTransport_8h.html" target="_top" xlink:title="transport/TSaslTransport.h">
<polygon fill="white" stroke="black" points="325.927,-136.5 325.927,-155.5 458.927,-155.5 458.927,-136.5 325.927,-136.5"/>
<text text-anchor="middle" x="392.427" y="-143.5" font-family="Helvetica,sans-Serif" font-size="10.00">transport/TSaslTransport.h</text>
</a>
</g>
</g>
<!-- Node1&#45;&gt;Node15 -->
<g id="edge15" class="edge"><title>Node1&#45;&gt;Node15</title>
<path fill="none" stroke="midnightblue" d="M246.208,-192.933C279.539,-182.462 324.48,-168.345 355.705,-158.536"/>
<polygon fill="midnightblue" stroke="midnightblue" points="356.837,-161.849 365.329,-155.513 354.739,-155.171 356.837,-161.849"/>
</g>
<!-- Node7&#45;&gt;Node2 -->
<g id="edge7" class="edge"><title>Node7&#45;&gt;Node2</title>
<path fill="none" stroke="midnightblue" d="M754.54,-74.4469C745.879,-72.1041 736.318,-69.7351 727.427,-68 654.418,-53.7518 430.584,-29.1143 348.243,-20.2747"/>
<polygon fill="midnightblue" stroke="midnightblue" points="348.571,-16.79 338.255,-19.2056 347.826,-23.7502 348.571,-16.79"/>
</g>
<!-- Node8 -->
<g id="node8" class="node"><title>Node8</title>
<polygon fill="white" stroke="#bfbfbf" points="986.927,-6.5 986.927,-25.5 1021.93,-25.5 1021.93,-6.5 986.927,-6.5"/>
<text text-anchor="middle" x="1004.43" y="-13.5" font-family="Helvetica,sans-Serif" font-size="10.00">map</text>
</g>
<!-- Node7&#45;&gt;Node8 -->
<g id="edge8" class="edge"><title>Node7&#45;&gt;Node8</title>
<path fill="none" stroke="midnightblue" d="M828.753,-74.442C868.738,-66.1094 928.149,-51.8016 977.427,-32 978.796,-31.4502 980.181,-30.8454 981.565,-30.2038"/>
<polygon fill="midnightblue" stroke="midnightblue" points="983.17,-33.3142 990.462,-25.628 979.969,-27.0893 983.17,-33.3142"/>
</g>
<!-- Node9 -->
<g id="node9" class="node"><title>Node9</title>
<polygon fill="white" stroke="#bfbfbf" points="1039.93,-6.5 1039.93,-25.5 1088.93,-25.5 1088.93,-6.5 1039.93,-6.5"/>
<text text-anchor="middle" x="1064.43" y="-13.5" font-family="Helvetica,sans-Serif" font-size="10.00">stdint.h</text>
</g>
<!-- Node7&#45;&gt;Node9 -->
<g id="edge9" class="edge"><title>Node7&#45;&gt;Node9</title>
<path fill="none" stroke="midnightblue" d="M829.699,-76.4499C879.898,-68.6536 962.031,-53.8757 1030.43,-32 1032.85,-31.2261 1035.33,-30.3354 1037.79,-29.3822"/>
<polygon fill="midnightblue" stroke="midnightblue" points="1039.18,-32.5956 1047.06,-25.5105 1036.48,-26.1368 1039.18,-32.5956"/>
</g>
<!-- Node10 -->
<g id="node10" class="node"><title>Node10</title>
<polygon fill="white" stroke="#bfbfbf" points="484.927,-6.5 484.927,-25.5 543.927,-25.5 543.927,-6.5 484.927,-6.5"/>
<text text-anchor="middle" x="514.427" y="-13.5" font-family="Helvetica,sans-Serif" font-size="10.00">stdexcept</text>
</g>
<!-- Node7&#45;&gt;Node10 -->
<g id="edge10" class="edge"><title>Node7&#45;&gt;Node10</title>
<path fill="none" stroke="midnightblue" d="M752.699,-74.4273C744.511,-72.2367 735.654,-69.951 727.427,-68 650.588,-49.7761 629.2,-54.2485 553.427,-32 550.46,-31.1288 547.4,-30.1319 544.36,-29.0753"/>
<polygon fill="midnightblue" stroke="midnightblue" points="545.45,-25.747 534.857,-25.5775 543.032,-32.3162 545.45,-25.747"/>
</g>
<!-- Node11 -->
<g id="node11" class="node"><title>Node11</title>
<polygon fill="white" stroke="#bfbfbf" points="562.427,-6.5 562.427,-25.5 626.427,-25.5 626.427,-6.5 562.427,-6.5"/>
<text text-anchor="middle" x="594.427" y="-13.5" font-family="Helvetica,sans-Serif" font-size="10.00">sasl/sasl.h</text>
</g>
<!-- Node7&#45;&gt;Node11 -->
<g id="edge11" class="edge"><title>Node7&#45;&gt;Node11</title>
<path fill="none" stroke="midnightblue" d="M758.237,-74.4813C728.745,-64.4701 678.452,-47.2818 635.427,-32 632.838,-31.0804 630.16,-30.1204 627.471,-29.15"/>
<polygon fill="midnightblue" stroke="midnightblue" points="628.41,-25.7676 617.816,-25.6432 626.02,-32.347 628.41,-25.7676"/>
</g>
<!-- Node12 -->
<g id="node12" class="node"><title>Node12</title>
<polygon fill="white" stroke="#bfbfbf" points="644.427,-6.5 644.427,-25.5 726.427,-25.5 726.427,-6.5 644.427,-6.5"/>
<text text-anchor="middle" x="685.427" y="-13.5" font-family="Helvetica,sans-Serif" font-size="10.00">sasl/saslplug.h</text>
</g>
<!-- Node7&#45;&gt;Node12 -->
<g id="edge12" class="edge"><title>Node7&#45;&gt;Node12</title>
<path fill="none" stroke="midnightblue" d="M770.615,-74.3717C754.402,-63.4521 726.244,-44.4888 706.763,-31.369"/>
<polygon fill="midnightblue" stroke="midnightblue" points="708.492,-28.3135 698.242,-25.6305 704.581,-34.1195 708.492,-28.3135"/>
</g>
<!-- Node13 -->
<g id="node13" class="node"><title>Node13</title>
<polygon fill="white" stroke="#bfbfbf" points="744.927,-6.5 744.927,-25.5 821.927,-25.5 821.927,-6.5 744.927,-6.5"/>
<text text-anchor="middle" x="783.427" y="-13.5" font-family="Helvetica,sans-Serif" font-size="10.00">sasl/saslutil.h</text>
</g>
<!-- Node7&#45;&gt;Node13 -->
<g id="edge13" class="edge"><title>Node7&#45;&gt;Node13</title>
<path fill="none" stroke="midnightblue" d="M783.427,-74.3717C783.427,-64.6426 783.427,-48.528 783.427,-35.8504"/>
<polygon fill="midnightblue" stroke="midnightblue" points="786.927,-35.8411 783.427,-25.8411 779.927,-35.8412 786.927,-35.8411"/>
</g>
<!-- Node14 -->
<g id="node14" class="node"><title>Node14</title>
<polygon fill="white" stroke="#bfbfbf" points="840.427,-1 840.427,-31 968.427,-31 968.427,-1 840.427,-1"/>
<text text-anchor="start" x="848.427" y="-19" font-family="Helvetica,sans-Serif" font-size="10.00">thrift/transport/TTransport</text>
<text text-anchor="middle" x="904.427" y="-8" font-family="Helvetica,sans-Serif" font-size="10.00">Exception.h</text>
</g>
<!-- Node7&#45;&gt;Node14 -->
<g id="edge14" class="edge"><title>Node7&#45;&gt;Node14</title>
<path fill="none" stroke="midnightblue" d="M799.246,-74.3717C817.003,-64.6857 846.364,-48.6708 869.559,-36.0192"/>
<polygon fill="midnightblue" stroke="midnightblue" points="871.325,-39.0427 878.428,-31.1815 867.973,-32.8974 871.325,-39.0427"/>
</g>
<!-- Node15&#45;&gt;Node2 -->
<g id="edge16" class="edge"><title>Node15&#45;&gt;Node2</title>
<path fill="none" stroke="midnightblue" d="M376.682,-136.399C363.876,-128.58 346.356,-115.856 336.427,-100 324.135,-80.37 319.772,-53.6781 318.237,-35.9215"/>
<polygon fill="midnightblue" stroke="midnightblue" points="321.715,-35.4626 317.582,-25.7072 314.729,-35.9108 321.715,-35.4626"/>
</g>
<!-- Node15&#45;&gt;Node4 -->
<g id="edge17" class="edge"><title>Node15&#45;&gt;Node4</title>
<path fill="none" stroke="midnightblue" d="M340.494,-136.42C290.206,-127.914 211.881,-114.139 144.427,-100 138.289,-98.7134 131.835,-97.2752 125.493,-95.8128"/>
<polygon fill="midnightblue" stroke="midnightblue" points="126.218,-92.3878 115.683,-93.5128 124.62,-99.203 126.218,-92.3878"/>
</g>
<!-- Node15&#45;&gt;Node6 -->
<g id="edge19" class="edge"><title>Node15&#45;&gt;Node6</title>
<path fill="none" stroke="midnightblue" d="M367.927,-136.403C338.468,-126.067 288.848,-108.656 255.626,-96.9994"/>
<polygon fill="midnightblue" stroke="midnightblue" points="256.477,-93.5889 245.882,-93.5806 254.159,-100.194 256.477,-93.5889"/>
</g>
<!-- Node15&#45;&gt;Node7 -->
<g id="edge22" class="edge"><title>Node15&#45;&gt;Node7</title>
<path fill="none" stroke="midnightblue" d="M458.948,-138.605C526.846,-131.485 635.076,-118.492 727.427,-100 732.917,-98.9008 738.665,-97.5711 744.3,-96.1629"/>
<polygon fill="midnightblue" stroke="midnightblue" points="745.444,-99.4819 754.24,-93.5763 743.681,-92.7075 745.444,-99.4819"/>
</g>
<!-- Node16 -->
<g id="node16" class="node"><title>Node16</title>
<polygon fill="white" stroke="#bfbfbf" points="345.427,-74.5 345.427,-93.5 455.427,-93.5 455.427,-74.5 345.427,-74.5"/>
<text text-anchor="middle" x="400.427" y="-81.5" font-family="Helvetica,sans-Serif" font-size="10.00">boost/scoped_ptr.hpp</text>
</g>
<!-- Node15&#45;&gt;Node16 -->
<g id="edge18" class="edge"><title>Node15&#45;&gt;Node16</title>
<path fill="none" stroke="midnightblue" d="M393.573,-136.403C394.702,-127.938 396.464,-114.728 397.918,-103.82"/>
<polygon fill="midnightblue" stroke="midnightblue" points="401.431,-103.955 399.283,-93.5806 394.492,-103.03 401.431,-103.955"/>
</g>
<!-- Node17 -->
<g id="node17" class="node"><title>Node17</title>
<polygon fill="white" stroke="#bfbfbf" points="473.427,-69 473.427,-99 587.427,-99 587.427,-69 473.427,-69"/>
<text text-anchor="start" x="481.427" y="-87" font-family="Helvetica,sans-Serif" font-size="10.00">thrift/transport/TVirtual</text>
<text text-anchor="middle" x="530.427" y="-76" font-family="Helvetica,sans-Serif" font-size="10.00">Transport.h</text>
</g>
<!-- Node15&#45;&gt;Node17 -->
<g id="edge20" class="edge"><title>Node15&#45;&gt;Node17</title>
<path fill="none" stroke="midnightblue" d="M412.199,-136.403C432.091,-127.755 463.372,-114.155 488.762,-103.115"/>
<polygon fill="midnightblue" stroke="midnightblue" points="490.394,-106.222 498.169,-99.0253 487.603,-99.8029 490.394,-106.222"/>
</g>
<!-- Node18 -->
<g id="node18" class="node"><title>Node18</title>
<polygon fill="white" stroke="#bfbfbf" points="605.927,-69 605.927,-99 718.927,-99 718.927,-69 605.927,-69"/>
<text text-anchor="start" x="613.927" y="-87" font-family="Helvetica,sans-Serif" font-size="10.00">thrift/transport/TBuffer</text>
<text text-anchor="middle" x="662.427" y="-76" font-family="Helvetica,sans-Serif" font-size="10.00">Transports.h</text>
</g>
<!-- Node15&#45;&gt;Node18 -->
<g id="edge21" class="edge"><title>Node15&#45;&gt;Node18</title>
<path fill="none" stroke="midnightblue" d="M431.552,-136.447C470.624,-127.888 532.663,-114.252 596.125,-100.06"/>
<polygon fill="midnightblue" stroke="midnightblue" points="596.913,-103.47 605.907,-97.8704 595.384,-96.6392 596.913,-103.47"/>
</g>
</g>
</svg>
        <g id="navigator" transform="translate(0 0)" fill="#404254">
                <rect fill="#f2f5e9" fill-opacity="0.5" stroke="#606060" stroke-width=".5" x="0" y="0" width="60" height="60"/>
                <use id="zoomplus" xlink:href="#zoomPlus" x="17" y="9" onmousedown="handleZoom(evt,'in')"/>
                <use id="zoomminus" xlink:href="#zoomMin" x="42" y="9" onmousedown="handleZoom(evt,'out')"/>
                <use id="reset" xlink:href="#resetDef" x="30" y="36" onmousedown="handleReset()"/>
                <g id="arrowUp" xlink:href="#dirArrow" transform="translate(30 24)" onmousedown="handlePan(0,-1)">
                  <use xlink:href="#rim" fill="#404040">
                        <set attributeName="fill" to="#808080" begin="arrowUp.mouseover" end="arrowUp.mouseout"/>
                  </use>
                  <path fill="none" stroke="white" stroke-width="1.5" d="M0,-3.0v7 M-2.5,-0.5L0,-3.0L2.5,-0.5"/>
                </g>
                <g id="arrowRight" xlink:href="#dirArrow" transform="rotate(90) translate(36 -43)" onmousedown="handlePan(1,0)">
                  <use xlink:href="#rim" fill="#404040">
                        <set attributeName="fill" to="#808080" begin="arrowRight.mouseover" end="arrowRight.mouseout"/>
                  </use>
                  <path fill="none" stroke="white" stroke-width="1.5" d="M0,-3.0v7 M-2.5,-0.5L0,-3.0L2.5,-0.5"/>
                </g>
                <g id="arrowDown" xlink:href="#dirArrow" transform="rotate(180) translate(-30 -48)" onmousedown="handlePan(0,1)">
                  <use xlink:href="#rim" fill="#404040">
                        <set attributeName="fill" to="#808080" begin="arrowDown.mouseover" end="arrowDown.mouseout"/>
                  </use>
                  <path fill="none" stroke="white" stroke-width="1.5" d="M0,-3.0v7 M-2.5,-0.5L0,-3.0L2.5,-0.5"/>
                </g>
                <g id="arrowLeft" xlink:href="#dirArrow" transform="rotate(270) translate(-36 17)" onmousedown="handlePan(-1,0)">
                  <use xlink:href="#rim" fill="#404040">
                        <set attributeName="fill" to="#808080" begin="arrowLeft.mouseover" end="arrowLeft.mouseout"/>
                  </use>
                  <path fill="none" stroke="white" stroke-width="1.5" d="M0,-3.0v7 M-2.5,-0.5L0,-3.0L2.5,-0.5"/>
                </g>
        </g>
        <svg viewBox="0 0 15 15" width="100%" height="30px" preserveAspectRatio="xMaxYMin meet">
         <g id="arrow_out" transform="scale(0.3 0.3)">
          <a xlink:href="TSaslServerTransport_8h__incl_org.svg" target="_base">
           <rect id="button" ry="5" rx="5" y="6" x="6" height="38" width="38"
                fill="#f2f5e9" fill-opacity="0.5" stroke="#606060" stroke-width="1.0"/>
           <path id="arrow"
             d="M 11.500037,31.436501 C 11.940474,20.09759 22.043105,11.32322 32.158766,21.979434 L 37.068811,17.246167 C 37.068811,17.246167 37.088388,32 37.088388,32 L 22.160133,31.978069 C 22.160133,31.978069 26.997745,27.140456 26.997745,27.140456 C 18.528582,18.264221 13.291696,25.230495 11.500037,31.436501 z"
             style="fill:#404040;"/>
          </a>
         </g>
        </svg>
</svg>
