<?xml version="1.0" encoding="UTF-8" standalone="no"?>
<!DOCTYPE svg PUBLIC "-//W3C//DTD SVG 1.1//EN"
 "http://www.w3.org/Graphics/SVG/1.1/DTD/svg11.dtd">
<!-- Generated by graphviz version 2.36.0 (20140111.2315)
 -->
<!-- Title: be/src/transport/TSaslClientTransport.h Pages: 1 -->
<!--zoomable 232 -->
<svg id="main" version="1.1" xmlns="http://www.w3.org/2000/svg" xmlns:xlink="http://www.w3.org/1999/xlink" xml:space="preserve" onload="init(evt)">
<style type="text/css"><![CDATA[
.edge:hover path { stroke: red; }
.edge:hover polygon { stroke: red; fill: red; }
]]></style>
<script type="text/javascript"><![CDATA[
var edges = document.getElementsByTagName('g');
if (edges && edges.length) {
  for (var i=0;i<edges.length;i++) {
    if (edges[i].id.substr(0,4)=='edge') {
      edges[i].setAttribute('class','edge');
    }
  }
}
]]></script>
        <defs>
                <circle id="rim" cx="0" cy="0" r="7"/>
                <circle id="rim2" cx="0" cy="0" r="3.5"/>
                <g id="zoomPlus">
                        <use xlink:href="#rim" fill="#404040">
                                <set attributeName="fill" to="#808080" begin="zoomplus.mouseover" end="zoomplus.mouseout"/>
                        </use>
                        <path d="M-4,0h8M0,-4v8" fill="none" stroke="white" stroke-width="1.5" pointer-events="none"/>
                </g>
                <g id="zoomMin">
                        <use xlink:href="#rim" fill="#404040">
                                <set attributeName="fill" to="#808080" begin="zoomminus.mouseover" end="zoomminus.mouseout"/>
                        </use>
                        <path d="M-4,0h8" fill="none" stroke="white" stroke-width="1.5" pointer-events="none"/>
                </g>
                <g id="dirArrow">
                        <path fill="none" stroke="white" stroke-width="1.5" d="M0,-3.0v7 M-2.5,-0.5L0,-3.0L2.5,-0.5"/>
                </g>
               <g id="resetDef">
                       <use xlink:href="#rim2" fill="#404040">
                               <set attributeName="fill" to="#808080" begin="reset.mouseover" end="reset.mouseout"/>
                       </use>
               </g>
        </defs>

<script type="text/javascript">
var viewWidth = 833;
var viewHeight = 232;
var sectionId = 'dynsection-0';
</script>
<script xlink:href="svgpan.js"/>
<svg id="graph" class="graph">
<g id="viewport">
<title>be/src/transport/TSaslClientTransport.h</title>
<polygon fill="white" stroke="none" points="-4,4 -4,-228 829,-228 829,4 -4,4"/>
<!-- Node1 -->
<g id="node1" class="node"><title>Node1</title>
<polygon fill="#bfbfbf" stroke="black" points="226.5,-193 226.5,-223 365.5,-223 365.5,-193 226.5,-193"/>
<text text-anchor="start" x="234.5" y="-211" font-family="Helvetica,sans-Serif" font-size="10.00">be/src/transport/TSaslClient</text>
<text text-anchor="middle" x="296" y="-200" font-family="Helvetica,sans-Serif" font-size="10.00">Transport.h</text>
</g>
<!-- Node2 -->
<g id="node2" class="node"><title>Node2</title>
<polygon fill="white" stroke="#bfbfbf" points="-0.5,-6.5 -0.5,-25.5 40.5,-25.5 40.5,-6.5 -0.5,-6.5"/>
<text text-anchor="middle" x="20" y="-13.5" font-family="Helvetica,sans-Serif" font-size="10.00">string</text>
</g>
<!-- Node1&#45;&gt;Node2 -->
<g id="edge1" class="edge"><title>Node1&#45;&gt;Node2</title>
<path fill="none" stroke="midnightblue" d="M226.221,-202.153C159.234,-193.36 61.4397,-168.74 14,-100 0.829264,-80.9156 6.53182,-53.1364 12.6193,-35.0664"/>
<polygon fill="midnightblue" stroke="midnightblue" points="15.9018,-36.281 16.1083,-25.6881 9.34111,-33.8402 15.9018,-36.281"/>
</g>
<!-- Node3 -->
<g id="node3" class="node"><title>Node3</title>
<polygon fill="white" stroke="#bfbfbf" points="23,-74.5 23,-93.5 131,-93.5 131,-74.5 23,-74.5"/>
<text text-anchor="middle" x="77" y="-81.5" font-family="Helvetica,sans-Serif" font-size="10.00">boost/shared_ptr.hpp</text>
</g>
<!-- Node1&#45;&gt;Node3 -->
<g id="edge2" class="edge"><title>Node1&#45;&gt;Node3</title>
<path fill="none" stroke="midnightblue" d="M270.449,-192.766C227.845,-169.033 142.869,-121.694 101.188,-98.4747"/>
<polygon fill="midnightblue" stroke="midnightblue" points="102.716,-95.3193 92.2766,-93.5103 99.3092,-101.434 102.716,-95.3193"/>
</g>
<!-- Node4 -->
<g id="node4" class="node"><title>Node4</title>
<polygon fill="white" stroke="#bfbfbf" points="557,-74.5 557,-93.5 693,-93.5 693,-74.5 557,-74.5"/>
<text text-anchor="middle" x="625" y="-81.5" font-family="Helvetica,sans-Serif" font-size="10.00">thrift/transport/TTransport.h</text>
</g>
<!-- Node1&#45;&gt;Node4 -->
<g id="edge3" class="edge"><title>Node1&#45;&gt;Node4</title>
<path fill="none" stroke="midnightblue" d="M334.062,-192.886C399.274,-168.704 531.242,-119.767 592.455,-97.0684"/>
<polygon fill="midnightblue" stroke="midnightblue" points="593.837,-100.289 601.997,-93.5301 591.404,-93.7254 593.837,-100.289"/>
</g>
<!-- Node5 -->
<g id="node5" class="node"><title>Node5</title>
<polygon fill="white" stroke="#bfbfbf" points="711,-69 711,-99 825,-99 825,-69 711,-69"/>
<text text-anchor="start" x="719" y="-87" font-family="Helvetica,sans-Serif" font-size="10.00">thrift/transport/TVirtual</text>
<text text-anchor="middle" x="768" y="-76" font-family="Helvetica,sans-Serif" font-size="10.00">Transport.h</text>
</g>
<!-- Node1&#45;&gt;Node5 -->
<g id="edge4" class="edge"><title>Node1&#45;&gt;Node5</title>
<path fill="none" stroke="midnightblue" d="M350.605,-192.886C438.289,-170.222 610.096,-125.814 703.619,-101.641"/>
<polygon fill="midnightblue" stroke="midnightblue" points="704.716,-104.972 713.522,-99.0812 702.964,-98.1951 704.716,-104.972"/>
</g>
<!-- Node6 -->
<g id="node6" class="node"><title>Node6</title>
<g id="a_node6"><a xlink:href="TSaslTransport_8h.html" target="_top" xlink:title="transport/TSaslTransport.h">
<polygon fill="white" stroke="black" points="280.5,-136.5 280.5,-155.5 413.5,-155.5 413.5,-136.5 280.5,-136.5"/>
<text text-anchor="middle" x="347" y="-143.5" font-family="Helvetica,sans-Serif" font-size="10.00">transport/TSaslTransport.h</text>
</a>
</g>
</g>
<!-- Node1&#45;&gt;Node6 -->
<g id="edge5" class="edge"><title>Node1&#45;&gt;Node6</title>
<path fill="none" stroke="midnightblue" d="M308.086,-192.781C315.574,-183.972 325.218,-172.626 333.032,-163.433"/>
<polygon fill="midnightblue" stroke="midnightblue" points="335.769,-165.617 339.579,-155.731 330.436,-161.083 335.769,-165.617"/>
</g>
<!-- Node9 -->
<g id="node9" class="node"><title>Node9</title>
<g id="a_node9"><a xlink:href="TSasl_8h.html" target="_top" xlink:title="transport/TSasl.h">
<polygon fill="white" stroke="black" points="187,-74.5 187,-93.5 279,-93.5 279,-74.5 187,-74.5"/>
<text text-anchor="middle" x="233" y="-81.5" font-family="Helvetica,sans-Serif" font-size="10.00">transport/TSasl.h</text>
</a>
</g>
</g>
<!-- Node1&#45;&gt;Node9 -->
<g id="edge21" class="edge"><title>Node1&#45;&gt;Node9</title>
<path fill="none" stroke="midnightblue" d="M288.526,-192.526C276.947,-170.103 254.704,-127.031 242.171,-102.759"/>
<polygon fill="midnightblue" stroke="midnightblue" points="245.151,-100.902 237.453,-93.6228 238.931,-104.114 245.151,-100.902"/>
</g>
<!-- Node6&#45;&gt;Node2 -->
<g id="edge6" class="edge"><title>Node6&#45;&gt;Node2</title>
<path fill="none" stroke="midnightblue" d="M290.704,-136.43C256.706,-129.722 213.279,-118.37 178,-100 158.416,-89.8029 158.957,-79.3197 140,-68 102.657,-45.7014 88.5885,-50.0139 49,-32 47.6457,-31.3837 46.2642,-30.7362 44.8753,-30.0701"/>
<polygon fill="midnightblue" stroke="midnightblue" points="46.3232,-26.881 35.813,-25.5443 43.1956,-33.1435 46.3232,-26.881"/>
</g>
<!-- Node6&#45;&gt;Node3 -->
<g id="edge7" class="edge"><title>Node6&#45;&gt;Node3</title>
<path fill="none" stroke="midnightblue" d="M308.602,-136.467C260.421,-125.76 177.765,-107.392 125.33,-95.74"/>
<polygon fill="midnightblue" stroke="midnightblue" points="125.786,-92.2561 115.265,-93.5034 124.268,-99.0894 125.786,-92.2561"/>
</g>
<!-- Node6&#45;&gt;Node4 -->
<g id="edge9" class="edge"><title>Node6&#45;&gt;Node4</title>
<path fill="none" stroke="midnightblue" d="M386.535,-136.467C436.248,-125.738 521.604,-107.316 575.575,-95.6673"/>
<polygon fill="midnightblue" stroke="midnightblue" points="576.564,-99.0344 585.601,-93.5034 575.088,-92.1919 576.564,-99.0344"/>
</g>
<!-- Node6&#45;&gt;Node5 -->
<g id="edge10" class="edge"><title>Node6&#45;&gt;Node5</title>
<path fill="none" stroke="midnightblue" d="M413.701,-138.504C483.101,-131.304 595.092,-118.445 700.938,-100.086"/>
<polygon fill="midnightblue" stroke="midnightblue" points="701.587,-103.526 710.832,-98.351 700.377,-96.6314 701.587,-103.526"/>
</g>
<!-- Node7 -->
<g id="node7" class="node"><title>Node7</title>
<polygon fill="white" stroke="#bfbfbf" points="429,-74.5 429,-93.5 539,-93.5 539,-74.5 429,-74.5"/>
<text text-anchor="middle" x="484" y="-81.5" font-family="Helvetica,sans-Serif" font-size="10.00">boost/scoped_ptr.hpp</text>
</g>
<!-- Node6&#45;&gt;Node7 -->
<g id="edge8" class="edge"><title>Node6&#45;&gt;Node7</title>
<path fill="none" stroke="midnightblue" d="M366.629,-136.403C389.824,-126.245 428.619,-109.255 455.213,-97.6074"/>
<polygon fill="midnightblue" stroke="midnightblue" points="456.652,-100.798 464.408,-93.5806 453.843,-94.3863 456.652,-100.798"/>
</g>
<!-- Node8 -->
<g id="node8" class="node"><title>Node8</title>
<polygon fill="white" stroke="#bfbfbf" points="297.5,-69 297.5,-99 410.5,-99 410.5,-69 297.5,-69"/>
<text text-anchor="start" x="305.5" y="-87" font-family="Helvetica,sans-Serif" font-size="10.00">thrift/transport/TBuffer</text>
<text text-anchor="middle" x="354" y="-76" font-family="Helvetica,sans-Serif" font-size="10.00">Transports.h</text>
</g>
<!-- Node6&#45;&gt;Node8 -->
<g id="edge11" class="edge"><title>Node6&#45;&gt;Node8</title>
<path fill="none" stroke="midnightblue" d="M348.003,-136.403C348.836,-129.265 350.062,-118.752 351.189,-109.09"/>
<polygon fill="midnightblue" stroke="midnightblue" points="354.668,-109.479 352.35,-99.1408 347.715,-108.668 354.668,-109.479"/>
</g>
<!-- Node6&#45;&gt;Node9 -->
<g id="edge12" class="edge"><title>Node6&#45;&gt;Node9</title>
<path fill="none" stroke="midnightblue" d="M330.667,-136.403C311.789,-126.468 280.493,-109.997 258.424,-98.3812"/>
<polygon fill="midnightblue" stroke="midnightblue" points="259.782,-95.1409 249.303,-93.5806 256.522,-101.335 259.782,-95.1409"/>
</g>
<!-- Node9&#45;&gt;Node2 -->
<g id="edge13" class="edge"><title>Node9&#45;&gt;Node2</title>
<path fill="none" stroke="midnightblue" d="M199.05,-74.4883C153.815,-62.9929 76.3102,-42.7143 49,-32 47.4038,-31.3738 45.7799,-30.6861 44.1571,-29.9602"/>
<polygon fill="midnightblue" stroke="midnightblue" points="45.6002,-26.7702 35.0762,-25.5475 42.5407,-33.0662 45.6002,-26.7702"/>
</g>
<!-- Node10 -->
<g id="node10" class="node"><title>Node10</title>
<polygon fill="white" stroke="#bfbfbf" points="58.5,-6.5 58.5,-25.5 93.5,-25.5 93.5,-6.5 58.5,-6.5"/>
<text text-anchor="middle" x="76" y="-13.5" font-family="Helvetica,sans-Serif" font-size="10.00">map</text>
</g>
<!-- Node9&#45;&gt;Node10 -->
<g id="edge14" class="edge"><title>Node9&#45;&gt;Node10</title>
<path fill="none" stroke="midnightblue" d="M207.403,-74.3379C180.638,-64.9809 137.648,-49.1001 102,-32 101.013,-31.5267 100.014,-31.0301 99.0094,-30.5172"/>
<polygon fill="midnightblue" stroke="midnightblue" points="100.549,-27.3699 90.0941,-25.6509 97.1948,-33.5142 100.549,-27.3699"/>
</g>
<!-- Node11 -->
<g id="node11" class="node"><title>Node11</title>
<polygon fill="white" stroke="#bfbfbf" points="111.5,-6.5 111.5,-25.5 160.5,-25.5 160.5,-6.5 111.5,-6.5"/>
<text text-anchor="middle" x="136" y="-13.5" font-family="Helvetica,sans-Serif" font-size="10.00">stdint.h</text>
</g>
<!-- Node9&#45;&gt;Node11 -->
<g id="edge15" class="edge"><title>Node9&#45;&gt;Node11</title>
<path fill="none" stroke="midnightblue" d="M220.319,-74.3717C204.271,-63.4521 176.4,-44.4888 157.118,-31.369"/>
<polygon fill="midnightblue" stroke="midnightblue" points="158.921,-28.3622 148.684,-25.6305 154.983,-34.1496 158.921,-28.3622"/>
</g>
<!-- Node12 -->
<g id="node12" class="node"><title>Node12</title>
<polygon fill="white" stroke="#bfbfbf" points="178.5,-6.5 178.5,-25.5 237.5,-25.5 237.5,-6.5 178.5,-6.5"/>
<text text-anchor="middle" x="208" y="-13.5" font-family="Helvetica,sans-Serif" font-size="10.00">stdexcept</text>
</g>
<!-- Node9&#45;&gt;Node12 -->
<g id="edge16" class="edge"><title>Node9&#45;&gt;Node12</title>
<path fill="none" stroke="midnightblue" d="M229.732,-74.3717C226.009,-64.5443 219.819,-48.2018 214.995,-35.4673"/>
<polygon fill="midnightblue" stroke="midnightblue" points="218.164,-33.9529 211.349,-25.8411 211.618,-36.4325 218.164,-33.9529"/>
</g>
<!-- Node13 -->
<g id="node13" class="node"><title>Node13</title>
<polygon fill="white" stroke="#bfbfbf" points="256,-6.5 256,-25.5 320,-25.5 320,-6.5 256,-6.5"/>
<text text-anchor="middle" x="288" y="-13.5" font-family="Helvetica,sans-Serif" font-size="10.00">sasl/sasl.h</text>
</g>
<!-- Node9&#45;&gt;Node13 -->
<g id="edge17" class="edge"><title>Node9&#45;&gt;Node13</title>
<path fill="none" stroke="midnightblue" d="M240.19,-74.3717C248.789,-64.053 263.374,-46.5513 274.179,-33.5854"/>
<polygon fill="midnightblue" stroke="midnightblue" points="276.919,-35.764 280.632,-25.8411 271.542,-31.2827 276.919,-35.764"/>
</g>
<!-- Node14 -->
<g id="node14" class="node"><title>Node14</title>
<polygon fill="white" stroke="#bfbfbf" points="338,-6.5 338,-25.5 420,-25.5 420,-6.5 338,-6.5"/>
<text text-anchor="middle" x="379" y="-13.5" font-family="Helvetica,sans-Serif" font-size="10.00">sasl/saslplug.h</text>
</g>
<!-- Node9&#45;&gt;Node14 -->
<g id="edge18" class="edge"><title>Node9&#45;&gt;Node14</title>
<path fill="none" stroke="midnightblue" d="M252.087,-74.3717C277.226,-63.0075 321.638,-42.9309 350.693,-29.7961"/>
<polygon fill="midnightblue" stroke="midnightblue" points="352.238,-32.939 359.908,-25.6305 349.354,-26.5605 352.238,-32.939"/>
</g>
<!-- Node15 -->
<g id="node15" class="node"><title>Node15</title>
<polygon fill="white" stroke="#bfbfbf" points="438.5,-6.5 438.5,-25.5 515.5,-25.5 515.5,-6.5 438.5,-6.5"/>
<text text-anchor="middle" x="477" y="-13.5" font-family="Helvetica,sans-Serif" font-size="10.00">sasl/saslutil.h</text>
</g>
<!-- Node9&#45;&gt;Node15 -->
<g id="edge19" class="edge"><title>Node9&#45;&gt;Node15</title>
<path fill="none" stroke="midnightblue" d="M264.099,-74.4236C271.896,-72.2995 280.249,-70.0464 288,-68 350.534,-51.4906 366.778,-49.6519 429,-32 432.858,-30.9054 436.878,-29.7206 440.876,-28.5133"/>
<polygon fill="midnightblue" stroke="midnightblue" points="442.137,-31.7875 450.667,-25.5042 440.08,-25.0963 442.137,-31.7875"/>
</g>
<!-- Node16 -->
<g id="node16" class="node"><title>Node16</title>
<polygon fill="white" stroke="#bfbfbf" points="534,-1 534,-31 662,-31 662,-1 534,-1"/>
<text text-anchor="start" x="542" y="-19" font-family="Helvetica,sans-Serif" font-size="10.00">thrift/transport/TTransport</text>
<text text-anchor="middle" x="598" y="-8" font-family="Helvetica,sans-Serif" font-size="10.00">Exception.h</text>
</g>
<!-- Node9&#45;&gt;Node16 -->
<g id="edge20" class="edge"><title>Node9&#45;&gt;Node16</title>
<path fill="none" stroke="midnightblue" d="M261.963,-74.4315C270.318,-72.1422 279.48,-69.8055 288,-68 391.797,-46.0051 419.531,-50.5447 524,-32 524.101,-31.9821 524.202,-31.9642 524.303,-31.9462"/>
<polygon fill="midnightblue" stroke="midnightblue" points="524.653,-35.4402 533.861,-30.1997 523.395,-28.5542 524.653,-35.4402"/>
</g>
</g>
</svg>
        <g id="navigator" transform="translate(0 0)" fill="#404254">
                <rect fill="#f2f5e9" fill-opacity="0.5" stroke="#606060" stroke-width=".5" x="0" y="0" width="60" height="60"/>
                <use id="zoomplus" xlink:href="#zoomPlus" x="17" y="9" onmousedown="handleZoom(evt,'in')"/>
                <use id="zoomminus" xlink:href="#zoomMin" x="42" y="9" onmousedown="handleZoom(evt,'out')"/>
                <use id="reset" xlink:href="#resetDef" x="30" y="36" onmousedown="handleReset()"/>
                <g id="arrowUp" xlink:href="#dirArrow" transform="translate(30 24)" onmousedown="handlePan(0,-1)">
                  <use xlink:href="#rim" fill="#404040">
                        <set attributeName="fill" to="#808080" begin="arrowUp.mouseover" end="arrowUp.mouseout"/>
                  </use>
                  <path fill="none" stroke="white" stroke-width="1.5" d="M0,-3.0v7 M-2.5,-0.5L0,-3.0L2.5,-0.5"/>
                </g>
                <g id="arrowRight" xlink:href="#dirArrow" transform="rotate(90) translate(36 -43)" onmousedown="handlePan(1,0)">
                  <use xlink:href="#rim" fill="#404040">
                        <set attributeName="fill" to="#808080" begin="arrowRight.mouseover" end="arrowRight.mouseout"/>
                  </use>
                  <path fill="none" stroke="white" stroke-width="1.5" d="M0,-3.0v7 M-2.5,-0.5L0,-3.0L2.5,-0.5"/>
                </g>
                <g id="arrowDown" xlink:href="#dirArrow" transform="rotate(180) translate(-30 -48)" onmousedown="handlePan(0,1)">
                  <use xlink:href="#rim" fill="#404040">
                        <set attributeName="fill" to="#808080" begin="arrowDown.mouseover" end="arrowDown.mouseout"/>
                  </use>
                  <path fill="none" stroke="white" stroke-width="1.5" d="M0,-3.0v7 M-2.5,-0.5L0,-3.0L2.5,-0.5"/>
                </g>
                <g id="arrowLeft" xlink:href="#dirArrow" transform="rotate(270) translate(-36 17)" onmousedown="handlePan(-1,0)">
                  <use xlink:href="#rim" fill="#404040">
                        <set attributeName="fill" to="#808080" begin="arrowLeft.mouseover" end="arrowLeft.mouseout"/>
                  </use>
                  <path fill="none" stroke="white" stroke-width="1.5" d="M0,-3.0v7 M-2.5,-0.5L0,-3.0L2.5,-0.5"/>
                </g>
        </g>
        <svg viewBox="0 0 15 15" width="100%" height="30px" preserveAspectRatio="xMaxYMin meet">
         <g id="arrow_out" transform="scale(0.3 0.3)">
          <a xlink:href="TSaslClientTransport_8h__incl_org.svg" target="_base">
           <rect id="button" ry="5" rx="5" y="6" x="6" height="38" width="38"
                fill="#f2f5e9" fill-opacity="0.5" stroke="#606060" stroke-width="1.0"/>
           <path id="arrow"
             d="M 11.500037,31.436501 C 11.940474,20.09759 22.043105,11.32322 32.158766,21.979434 L 37.068811,17.246167 C 37.068811,17.246167 37.088388,32 37.088388,32 L 22.160133,31.978069 C 22.160133,31.978069 26.997745,27.140456 26.997745,27.140456 C 18.528582,18.264221 13.291696,25.230495 11.500037,31.436501 z"
             style="fill:#404040;"/>
          </a>
         </g>
        </svg>
</svg>
