<?xml version="1.0" encoding="UTF-8" standalone="no"?>
<!DOCTYPE svg PUBLIC "-//W3C//DTD SVG 1.1//EN"
 "http://www.w3.org/Graphics/SVG/1.1/DTD/svg11.dtd">
<!-- Generated by graphviz version 2.36.0 (20140111.2315)
 -->
<!-- Title: be/src/exprs/tuple&#45;is&#45;null&#45;predicate.h Pages: 1 -->
<svg width="233pt" height="108pt"
 viewBox="0.00 0.00 233.00 108.00" xmlns="http://www.w3.org/2000/svg" xmlns:xlink="http://www.w3.org/1999/xlink">
<g id="graph0" class="graph" transform="scale(1 1) rotate(0) translate(4 104)">
<title>be/src/exprs/tuple&#45;is&#45;null&#45;predicate.h</title>
<polygon fill="white" stroke="none" points="-4,4 -4,-104 229,-104 229,4 -4,4"/>
<!-- Node1 -->
<g id="node1" class="node"><title>Node1</title>
<polygon fill="#bfbfbf" stroke="black" points="66,-69 66,-99 162,-99 162,-69 66,-69"/>
<text text-anchor="start" x="74" y="-87" font-family="Helvetica,sans-Serif" font-size="10.00">be/src/exprs/tuple</text>
<text text-anchor="middle" x="114" y="-76" font-family="Helvetica,sans-Serif" font-size="10.00">&#45;is&#45;null&#45;predicate.h</text>
</g>
<!-- Node2 -->
<g id="node2" class="node"><title>Node2</title>
<g id="a_node2"><a xlink:href="expr_8cc.html" target="_top" xlink:title="be/src/exprs/expr.cc">
<polygon fill="white" stroke="black" points="0,-6.5 0,-25.5 106,-25.5 106,-6.5 0,-6.5"/>
<text text-anchor="middle" x="53" y="-13.5" font-family="Helvetica,sans-Serif" font-size="10.00">be/src/exprs/expr.cc</text>
</a>
</g>
</g>
<!-- Node1&#45;&gt;Node2 -->
<g id="edge1" class="edge"><title>Node1&#45;&gt;Node2</title>
<path fill="none" stroke="midnightblue" d="M93.8199,-61.1658C82.6857,-49.119 69.4715,-34.8216 61.1595,-25.8283"/>
<polygon fill="midnightblue" stroke="midnightblue" points="91.4061,-63.7108 100.764,-68.679 96.5468,-58.9596 91.4061,-63.7108"/>
</g>
<!-- Node3 -->
<g id="node3" class="node"><title>Node3</title>
<g id="a_node3"><a xlink:href="tuple-is-null-predicate_8cc.html" target="_top" xlink:title="be/src/exprs/tuple\l&#45;is&#45;null&#45;predicate.cc">
<polygon fill="white" stroke="black" points="124.5,-1 124.5,-31 225.5,-31 225.5,-1 124.5,-1"/>
<text text-anchor="start" x="132.5" y="-19" font-family="Helvetica,sans-Serif" font-size="10.00">be/src/exprs/tuple</text>
<text text-anchor="middle" x="175" y="-8" font-family="Helvetica,sans-Serif" font-size="10.00">&#45;is&#45;null&#45;predicate.cc</text>
</a>
</g>
</g>
<!-- Node1&#45;&gt;Node3 -->
<g id="edge2" class="edge"><title>Node1&#45;&gt;Node3</title>
<path fill="none" stroke="midnightblue" d="M134.154,-61.1939C143.243,-51.3605 153.721,-40.0228 161.79,-31.2931"/>
<polygon fill="midnightblue" stroke="midnightblue" points="131.453,-58.9596 127.236,-68.679 136.594,-63.7108 131.453,-58.9596"/>
</g>
</g>
</svg>
