<?xml version="1.0" encoding="UTF-8" standalone="no"?>
<!DOCTYPE svg PUBLIC "-//W3C//DTD SVG 1.1//EN"
 "http://www.w3.org/Graphics/SVG/1.1/DTD/svg11.dtd">
<!-- Generated by graphviz version 2.36.0 (20140111.2315)
 -->
<!-- Title: be/src/runtime/types.cc Pages: 1 -->
<svg width="601pt" height="220pt"
 viewBox="0.00 0.00 601.00 220.00" xmlns="http://www.w3.org/2000/svg" xmlns:xlink="http://www.w3.org/1999/xlink">
<g id="graph0" class="graph" transform="scale(1 1) rotate(0) translate(4 216)">
<title>be/src/runtime/types.cc</title>
<polygon fill="white" stroke="none" points="-4,4 -4,-216 597,-216 597,4 -4,4"/>
<!-- Node1 -->
<g id="node1" class="node"><title>Node1</title>
<polygon fill="#bfbfbf" stroke="black" points="267.5,-192.5 267.5,-211.5 386.5,-211.5 386.5,-192.5 267.5,-192.5"/>
<text text-anchor="middle" x="327" y="-199.5" font-family="Helvetica,sans-Serif" font-size="10.00">be/src/runtime/types.cc</text>
</g>
<!-- Node2 -->
<g id="node2" class="node"><title>Node2</title>
<g id="a_node2"><a xlink:href="types_8h.html" target="_top" xlink:title="runtime/types.h">
<polygon fill="white" stroke="black" points="129,-130.5 129,-149.5 213,-149.5 213,-130.5 129,-130.5"/>
<text text-anchor="middle" x="171" y="-137.5" font-family="Helvetica,sans-Serif" font-size="10.00">runtime/types.h</text>
</a>
</g>
</g>
<!-- Node1&#45;&gt;Node2 -->
<g id="edge1" class="edge"><title>Node1&#45;&gt;Node2</title>
<path fill="none" stroke="midnightblue" d="M304.649,-192.403C278.005,-182.156 233.286,-164.956 202.986,-153.302"/>
<polygon fill="midnightblue" stroke="midnightblue" points="203.899,-149.904 193.31,-149.581 201.387,-156.437 203.899,-149.904"/>
</g>
<!-- Node9 -->
<g id="node9" class="node"><title>Node9</title>
<polygon fill="white" stroke="#bfbfbf" points="231,-130.5 231,-149.5 283,-149.5 283,-130.5 231,-130.5"/>
<text text-anchor="middle" x="257" y="-137.5" font-family="Helvetica,sans-Serif" font-size="10.00">ostream</text>
</g>
<!-- Node1&#45;&gt;Node9 -->
<g id="edge8" class="edge"><title>Node1&#45;&gt;Node9</title>
<path fill="none" stroke="midnightblue" d="M316.971,-192.403C305.951,-182.958 288.04,-167.606 274.657,-156.134"/>
<polygon fill="midnightblue" stroke="midnightblue" points="276.881,-153.431 267.011,-149.581 272.325,-158.746 276.881,-153.431"/>
</g>
<!-- Node10 -->
<g id="node10" class="node"><title>Node10</title>
<polygon fill="white" stroke="#bfbfbf" points="301,-130.5 301,-149.5 353,-149.5 353,-130.5 301,-130.5"/>
<text text-anchor="middle" x="327" y="-137.5" font-family="Helvetica,sans-Serif" font-size="10.00">sstream</text>
</g>
<!-- Node1&#45;&gt;Node10 -->
<g id="edge9" class="edge"><title>Node1&#45;&gt;Node10</title>
<path fill="none" stroke="midnightblue" d="M327,-192.403C327,-183.938 327,-170.728 327,-159.82"/>
<polygon fill="midnightblue" stroke="midnightblue" points="330.5,-159.581 327,-149.581 323.5,-159.581 330.5,-159.581"/>
</g>
<!-- Node11 -->
<g id="node11" class="node"><title>Node11</title>
<polygon fill="white" stroke="#bfbfbf" points="371.5,-125 371.5,-155 480.5,-155 480.5,-125 371.5,-125"/>
<text text-anchor="start" x="379.5" y="-143" font-family="Helvetica,sans-Serif" font-size="10.00">gen&#45;cpp/TCLIService</text>
<text text-anchor="middle" x="426" y="-132" font-family="Helvetica,sans-Serif" font-size="10.00">_constants.h</text>
</g>
<!-- Node1&#45;&gt;Node11 -->
<g id="edge10" class="edge"><title>Node1&#45;&gt;Node11</title>
<path fill="none" stroke="midnightblue" d="M341.184,-192.403C354.843,-184.125 375.987,-171.311 393.747,-160.547"/>
<polygon fill="midnightblue" stroke="midnightblue" points="395.93,-163.317 402.668,-155.141 392.302,-157.331 395.93,-163.317"/>
</g>
<!-- Node12 -->
<g id="node12" class="node"><title>Node12</title>
<g id="a_node12"><a xlink:href="names_8h.html" target="_top" xlink:title="common/names.h">
<polygon fill="white" stroke="black" points="498.5,-130.5 498.5,-149.5 593.5,-149.5 593.5,-130.5 498.5,-130.5"/>
<text text-anchor="middle" x="546" y="-137.5" font-family="Helvetica,sans-Serif" font-size="10.00">common/names.h</text>
</a>
</g>
</g>
<!-- Node1&#45;&gt;Node12 -->
<g id="edge11" class="edge"><title>Node1&#45;&gt;Node12</title>
<path fill="none" stroke="midnightblue" d="M358.377,-192.403C396.919,-181.844 462.405,-163.903 504.924,-152.254"/>
<polygon fill="midnightblue" stroke="midnightblue" points="505.961,-155.599 514.681,-149.581 504.111,-148.847 505.961,-155.599"/>
</g>
<!-- Node3 -->
<g id="node3" class="node"><title>Node3</title>
<polygon fill="white" stroke="#bfbfbf" points="-0.5,-62.5 -0.5,-81.5 40.5,-81.5 40.5,-62.5 -0.5,-62.5"/>
<text text-anchor="middle" x="20" y="-69.5" font-family="Helvetica,sans-Serif" font-size="10.00">string</text>
</g>
<!-- Node2&#45;&gt;Node3 -->
<g id="edge2" class="edge"><title>Node2&#45;&gt;Node3</title>
<path fill="none" stroke="midnightblue" d="M149.397,-130.387C125.049,-120.567 84.3774,-103.819 50,-88 48.6445,-87.3762 47.2597,-86.7271 45.8652,-86.0638"/>
<polygon fill="midnightblue" stroke="midnightblue" points="47.2479,-82.8441 36.7261,-81.6026 44.1772,-89.1346 47.2479,-82.8441"/>
</g>
<!-- Node4 -->
<g id="node4" class="node"><title>Node4</title>
<g id="a_node4"><a xlink:href="logging_8h.html" target="_top" xlink:title="common/logging.h">
<polygon fill="white" stroke="black" points="59,-62.5 59,-81.5 155,-81.5 155,-62.5 59,-62.5"/>
<text text-anchor="middle" x="107" y="-69.5" font-family="Helvetica,sans-Serif" font-size="10.00">common/logging.h</text>
</a>
</g>
</g>
<!-- Node2&#45;&gt;Node4 -->
<g id="edge3" class="edge"><title>Node2&#45;&gt;Node4</title>
<path fill="none" stroke="midnightblue" d="M162.633,-130.372C152.532,-119.955 135.332,-102.217 122.725,-89.2162"/>
<polygon fill="midnightblue" stroke="midnightblue" points="125.047,-86.5836 115.573,-81.8411 120.022,-91.4567 125.047,-86.5836"/>
</g>
<!-- Node7 -->
<g id="node7" class="node"><title>Node7</title>
<polygon fill="white" stroke="#bfbfbf" points="173.5,-62.5 173.5,-81.5 292.5,-81.5 292.5,-62.5 173.5,-62.5"/>
<text text-anchor="middle" x="233" y="-69.5" font-family="Helvetica,sans-Serif" font-size="10.00">gen&#45;cpp/Types_types.h</text>
</g>
<!-- Node2&#45;&gt;Node7 -->
<g id="edge6" class="edge"><title>Node2&#45;&gt;Node7</title>
<path fill="none" stroke="midnightblue" d="M179.105,-130.372C188.891,-119.955 205.553,-102.217 217.767,-89.2162"/>
<polygon fill="midnightblue" stroke="midnightblue" points="220.399,-91.526 224.695,-81.8411 215.297,-86.7333 220.399,-91.526"/>
</g>
<!-- Node8 -->
<g id="node8" class="node"><title>Node8</title>
<polygon fill="white" stroke="#bfbfbf" points="310.5,-57 310.5,-87 419.5,-87 419.5,-57 310.5,-57"/>
<text text-anchor="start" x="318.5" y="-75" font-family="Helvetica,sans-Serif" font-size="10.00">gen&#45;cpp/TCLIService</text>
<text text-anchor="middle" x="365" y="-64" font-family="Helvetica,sans-Serif" font-size="10.00">_types.h</text>
</g>
<!-- Node2&#45;&gt;Node8 -->
<g id="edge7" class="edge"><title>Node2&#45;&gt;Node8</title>
<path fill="none" stroke="midnightblue" d="M196.362,-130.372C226.061,-120.268 276.003,-103.277 313.85,-90.4016"/>
<polygon fill="midnightblue" stroke="midnightblue" points="315.343,-93.5906 323.683,-87.0562 313.089,-86.9636 315.343,-93.5906"/>
</g>
<!-- Node5 -->
<g id="node5" class="node"><title>Node5</title>
<polygon fill="white" stroke="#bfbfbf" points="20.5,-0.5 20.5,-19.5 97.5,-19.5 97.5,-0.5 20.5,-0.5"/>
<text text-anchor="middle" x="59" y="-7.5" font-family="Helvetica,sans-Serif" font-size="10.00">glog/logging.h</text>
</g>
<!-- Node4&#45;&gt;Node5 -->
<g id="edge4" class="edge"><title>Node4&#45;&gt;Node5</title>
<path fill="none" stroke="midnightblue" d="M100.123,-62.4035C92.8514,-53.3143 81.2047,-38.7559 72.1591,-27.4489"/>
<polygon fill="midnightblue" stroke="midnightblue" points="74.8445,-25.2029 65.8645,-19.5806 69.3784,-29.5757 74.8445,-25.2029"/>
</g>
<!-- Node6 -->
<g id="node6" class="node"><title>Node6</title>
<polygon fill="white" stroke="#bfbfbf" points="116,-0.5 116,-19.5 196,-19.5 196,-0.5 116,-0.5"/>
<text text-anchor="middle" x="156" y="-7.5" font-family="Helvetica,sans-Serif" font-size="10.00">gflags/gflags.h</text>
</g>
<!-- Node4&#45;&gt;Node6 -->
<g id="edge5" class="edge"><title>Node4&#45;&gt;Node6</title>
<path fill="none" stroke="midnightblue" d="M114.021,-62.4035C121.443,-53.3143 133.333,-38.7559 142.567,-27.4489"/>
<polygon fill="midnightblue" stroke="midnightblue" points="145.378,-29.5398 148.993,-19.5806 139.956,-25.1121 145.378,-29.5398"/>
</g>
<!-- Node13 -->
<g id="node13" class="node"><title>Node13</title>
<polygon fill="white" stroke="#bfbfbf" points="499,-62.5 499,-81.5 593,-81.5 593,-62.5 499,-62.5"/>
<text text-anchor="middle" x="546" y="-69.5" font-family="Helvetica,sans-Serif" font-size="10.00">boost/version.hpp</text>
</g>
<!-- Node12&#45;&gt;Node13 -->
<g id="edge12" class="edge"><title>Node12&#45;&gt;Node13</title>
<path fill="none" stroke="midnightblue" d="M546,-130.372C546,-120.643 546,-104.528 546,-91.8504"/>
<polygon fill="midnightblue" stroke="midnightblue" points="549.5,-91.8411 546,-81.8411 542.5,-91.8412 549.5,-91.8411"/>
</g>
</g>
</svg>
