<?xml version="1.0" encoding="UTF-8" standalone="no"?>
<!DOCTYPE svg PUBLIC "-//W3C//DTD SVG 1.1//EN"
 "http://www.w3.org/Graphics/SVG/1.1/DTD/svg11.dtd">
<!-- Generated by graphviz version 2.36.0 (20140111.2315)
 -->
<!-- Title: be/src/runtime/types.h Pages: 1 -->
<svg width="427pt" height="152pt"
 viewBox="0.00 0.00 427.00 152.00" xmlns="http://www.w3.org/2000/svg" xmlns:xlink="http://www.w3.org/1999/xlink">
<g id="graph0" class="graph" transform="scale(1 1) rotate(0) translate(4 148)">
<title>be/src/runtime/types.h</title>
<polygon fill="white" stroke="none" points="-4,4 -4,-148 423,-148 423,4 -4,4"/>
<!-- Node1 -->
<g id="node1" class="node"><title>Node1</title>
<polygon fill="#bfbfbf" stroke="black" points="113,-124.5 113,-143.5 227,-143.5 227,-124.5 113,-124.5"/>
<text text-anchor="middle" x="170" y="-131.5" font-family="Helvetica,sans-Serif" font-size="10.00">be/src/runtime/types.h</text>
</g>
<!-- Node2 -->
<g id="node2" class="node"><title>Node2</title>
<polygon fill="white" stroke="#bfbfbf" points="-0.5,-62.5 -0.5,-81.5 40.5,-81.5 40.5,-62.5 -0.5,-62.5"/>
<text text-anchor="middle" x="20" y="-69.5" font-family="Helvetica,sans-Serif" font-size="10.00">string</text>
</g>
<!-- Node1&#45;&gt;Node2 -->
<g id="edge1" class="edge"><title>Node1&#45;&gt;Node2</title>
<path fill="none" stroke="midnightblue" d="M144.875,-124.443C120.382,-115.9 82.2244,-102.052 50,-88 48.5989,-87.389 47.1696,-86.7456 45.7328,-86.0829"/>
<polygon fill="midnightblue" stroke="midnightblue" points="46.886,-82.7535 36.3578,-81.5671 43.8482,-89.06 46.886,-82.7535"/>
</g>
<!-- Node3 -->
<g id="node3" class="node"><title>Node3</title>
<g id="a_node3"><a xlink:href="logging_8h.html" target="_top" xlink:title="common/logging.h">
<polygon fill="white" stroke="black" points="59,-62.5 59,-81.5 155,-81.5 155,-62.5 59,-62.5"/>
<text text-anchor="middle" x="107" y="-69.5" font-family="Helvetica,sans-Serif" font-size="10.00">common/logging.h</text>
</a>
</g>
</g>
<!-- Node1&#45;&gt;Node3 -->
<g id="edge2" class="edge"><title>Node1&#45;&gt;Node3</title>
<path fill="none" stroke="midnightblue" d="M160.974,-124.403C151.243,-115.136 135.542,-100.183 123.577,-88.7876"/>
<polygon fill="midnightblue" stroke="midnightblue" points="125.665,-85.9427 116.01,-81.5806 120.837,-91.0117 125.665,-85.9427"/>
</g>
<!-- Node6 -->
<g id="node6" class="node"><title>Node6</title>
<polygon fill="white" stroke="#bfbfbf" points="173.5,-62.5 173.5,-81.5 292.5,-81.5 292.5,-62.5 173.5,-62.5"/>
<text text-anchor="middle" x="233" y="-69.5" font-family="Helvetica,sans-Serif" font-size="10.00">gen&#45;cpp/Types_types.h</text>
</g>
<!-- Node1&#45;&gt;Node6 -->
<g id="edge5" class="edge"><title>Node1&#45;&gt;Node6</title>
<path fill="none" stroke="midnightblue" d="M179.026,-124.403C188.757,-115.136 204.458,-100.183 216.423,-88.7876"/>
<polygon fill="midnightblue" stroke="midnightblue" points="219.163,-91.0117 223.99,-81.5806 214.335,-85.9427 219.163,-91.0117"/>
</g>
<!-- Node7 -->
<g id="node7" class="node"><title>Node7</title>
<polygon fill="white" stroke="#bfbfbf" points="310.5,-57 310.5,-87 419.5,-87 419.5,-57 310.5,-57"/>
<text text-anchor="start" x="318.5" y="-75" font-family="Helvetica,sans-Serif" font-size="10.00">gen&#45;cpp/TCLIService</text>
<text text-anchor="middle" x="365" y="-64" font-family="Helvetica,sans-Serif" font-size="10.00">_types.h</text>
</g>
<!-- Node1&#45;&gt;Node7 -->
<g id="edge6" class="edge"><title>Node1&#45;&gt;Node7</title>
<path fill="none" stroke="midnightblue" d="M197.939,-124.403C226.913,-115.488 272.989,-101.311 309.42,-90.1014"/>
<polygon fill="midnightblue" stroke="midnightblue" points="310.889,-93.3115 319.418,-87.0253 308.831,-86.621 310.889,-93.3115"/>
</g>
<!-- Node4 -->
<g id="node4" class="node"><title>Node4</title>
<polygon fill="white" stroke="#bfbfbf" points="20.5,-0.5 20.5,-19.5 97.5,-19.5 97.5,-0.5 20.5,-0.5"/>
<text text-anchor="middle" x="59" y="-7.5" font-family="Helvetica,sans-Serif" font-size="10.00">glog/logging.h</text>
</g>
<!-- Node3&#45;&gt;Node4 -->
<g id="edge3" class="edge"><title>Node3&#45;&gt;Node4</title>
<path fill="none" stroke="midnightblue" d="M100.123,-62.4035C92.8514,-53.3143 81.2047,-38.7559 72.1591,-27.4489"/>
<polygon fill="midnightblue" stroke="midnightblue" points="74.8445,-25.2029 65.8645,-19.5806 69.3784,-29.5757 74.8445,-25.2029"/>
</g>
<!-- Node5 -->
<g id="node5" class="node"><title>Node5</title>
<polygon fill="white" stroke="#bfbfbf" points="116,-0.5 116,-19.5 196,-19.5 196,-0.5 116,-0.5"/>
<text text-anchor="middle" x="156" y="-7.5" font-family="Helvetica,sans-Serif" font-size="10.00">gflags/gflags.h</text>
</g>
<!-- Node3&#45;&gt;Node5 -->
<g id="edge4" class="edge"><title>Node3&#45;&gt;Node5</title>
<path fill="none" stroke="midnightblue" d="M114.021,-62.4035C121.443,-53.3143 133.333,-38.7559 142.567,-27.4489"/>
<polygon fill="midnightblue" stroke="midnightblue" points="145.378,-29.5398 148.993,-19.5806 139.956,-25.1121 145.378,-29.5398"/>
</g>
</g>
</svg>
