<?xml version="1.0" encoding="UTF-8" standalone="no"?>
<!DOCTYPE svg PUBLIC "-//W3C//DTD SVG 1.1//EN"
 "http://www.w3.org/Graphics/SVG/1.1/DTD/svg11.dtd">
<!-- Generated by graphviz version 2.36.0 (20140111.2315)
 -->
<!-- Title: be/src/udf/udf&#45;internal.h Pages: 1 -->
<!--zoomable 232 -->
<svg id="main" version="1.1" xmlns="http://www.w3.org/2000/svg" xmlns:xlink="http://www.w3.org/1999/xlink" xml:space="preserve" onload="init(evt)">
<style type="text/css"><![CDATA[
.edge:hover path { stroke: red; }
.edge:hover polygon { stroke: red; fill: red; }
]]></style>
<script type="text/javascript"><![CDATA[
var edges = document.getElementsByTagName('g');
if (edges && edges.length) {
  for (var i=0;i<edges.length;i++) {
    if (edges[i].id.substr(0,4)=='edge') {
      edges[i].setAttribute('class','edge');
    }
  }
}
]]></script>
        <defs>
                <circle id="rim" cx="0" cy="0" r="7"/>
                <circle id="rim2" cx="0" cy="0" r="3.5"/>
                <g id="zoomPlus">
                        <use xlink:href="#rim" fill="#404040">
                                <set attributeName="fill" to="#808080" begin="zoomplus.mouseover" end="zoomplus.mouseout"/>
                        </use>
                        <path d="M-4,0h8M0,-4v8" fill="none" stroke="white" stroke-width="1.5" pointer-events="none"/>
                </g>
                <g id="zoomMin">
                        <use xlink:href="#rim" fill="#404040">
                                <set attributeName="fill" to="#808080" begin="zoomminus.mouseover" end="zoomminus.mouseout"/>
                        </use>
                        <path d="M-4,0h8" fill="none" stroke="white" stroke-width="1.5" pointer-events="none"/>
                </g>
                <g id="dirArrow">
                        <path fill="none" stroke="white" stroke-width="1.5" d="M0,-3.0v7 M-2.5,-0.5L0,-3.0L2.5,-0.5"/>
                </g>
               <g id="resetDef">
                       <use xlink:href="#rim2" fill="#404040">
                               <set attributeName="fill" to="#808080" begin="reset.mouseover" end="reset.mouseout"/>
                       </use>
               </g>
        </defs>

<script type="text/javascript">
var viewWidth = 3050;
var viewHeight = 232;
var sectionId = 'dynsection-1';
</script>
<script xlink:href="svgpan.js"/>
<svg id="graph" class="graph">
<g id="viewport">
<title>be/src/udf/udf&#45;internal.h</title>
<polygon fill="white" stroke="none" points="-4,4 -4,-228 3046,-228 3046,4 -4,4"/>
<!-- Node1 -->
<g id="node1" class="node"><title>Node1</title>
<polygon fill="#bfbfbf" stroke="black" points="1548.5,-204.5 1548.5,-223.5 1667.5,-223.5 1667.5,-204.5 1548.5,-204.5"/>
<text text-anchor="middle" x="1608" y="-211.5" font-family="Helvetica,sans-Serif" font-size="10.00">be/src/udf/udf&#45;internal.h</text>
</g>
<!-- Node2 -->
<g id="node2" class="node"><title>Node2</title>
<g id="a_node2"><a xlink:href="aggregation-node_8cc.html" target="_top" xlink:title="be/src/exec/aggregation\l&#45;node.cc">
<polygon fill="white" stroke="black" points="-0.5,-69 -0.5,-99 120.5,-99 120.5,-69 -0.5,-69"/>
<text text-anchor="start" x="7.5" y="-87" font-family="Helvetica,sans-Serif" font-size="10.00">be/src/exec/aggregation</text>
<text text-anchor="middle" x="60" y="-76" font-family="Helvetica,sans-Serif" font-size="10.00">&#45;node.cc</text>
</a>
</g>
</g>
<!-- Node1&#45;&gt;Node2 -->
<g id="edge1" class="edge"><title>Node1&#45;&gt;Node2</title>
<path fill="none" stroke="midnightblue" d="M1538.01,-212.571C1273.85,-210.699 345.93,-201.762 218,-168 164.373,-153.847 108.493,-118.907 79.7288,-99.1686"/>
<polygon fill="midnightblue" stroke="midnightblue" points="1538.21,-216.072 1548.24,-212.642 1538.26,-209.072 1538.21,-216.072"/>
</g>
<!-- Node3 -->
<g id="node3" class="node"><title>Node3</title>
<g id="a_node3"><a xlink:href="analytic-eval-node_8cc.html" target="_top" xlink:title="be/src/exec/analytic\l&#45;eval&#45;node.cc">
<polygon fill="white" stroke="black" points="139,-69 139,-99 243,-99 243,-69 139,-69"/>
<text text-anchor="start" x="147" y="-87" font-family="Helvetica,sans-Serif" font-size="10.00">be/src/exec/analytic</text>
<text text-anchor="middle" x="191" y="-76" font-family="Helvetica,sans-Serif" font-size="10.00">&#45;eval&#45;node.cc</text>
</a>
</g>
</g>
<!-- Node1&#45;&gt;Node3 -->
<g id="edge2" class="edge"><title>Node1&#45;&gt;Node3</title>
<path fill="none" stroke="midnightblue" d="M1538.16,-212.266C1269.77,-209.238 316.722,-196.518 259,-168 229.105,-153.23 207.771,-118.536 197.641,-99.0011"/>
<polygon fill="midnightblue" stroke="midnightblue" points="1538.14,-215.766 1548.17,-212.378 1538.21,-208.766 1538.14,-215.766"/>
</g>
<!-- Node4 -->
<g id="node4" class="node"><title>Node4</title>
<g id="a_node4"><a xlink:href="partitioned-aggregation-node_8cc.html" target="_top" xlink:title="be/src/exec/partitioned\l&#45;aggregation&#45;node.cc">
<polygon fill="white" stroke="black" points="261,-69 261,-99 377,-99 377,-69 261,-69"/>
<text text-anchor="start" x="269" y="-87" font-family="Helvetica,sans-Serif" font-size="10.00">be/src/exec/partitioned</text>
<text text-anchor="middle" x="319" y="-76" font-family="Helvetica,sans-Serif" font-size="10.00">&#45;aggregation&#45;node.cc</text>
</a>
</g>
</g>
<!-- Node1&#45;&gt;Node4 -->
<g id="edge3" class="edge"><title>Node1&#45;&gt;Node4</title>
<path fill="none" stroke="midnightblue" d="M1538.27,-211.849C1343.65,-208.315 797.226,-196.108 620,-168 524.434,-152.843 415.798,-118.47 358.781,-99.0475"/>
<polygon fill="midnightblue" stroke="midnightblue" points="1538.31,-215.35 1548.38,-212.031 1538.44,-208.352 1538.31,-215.35"/>
</g>
<!-- Node5 -->
<g id="node5" class="node"><title>Node5</title>
<g id="a_node5"><a xlink:href="agg-fn-evaluator_8cc.html" target="_top" xlink:title="be/src/exprs/agg&#45;fn\l&#45;evaluator.cc">
<polygon fill="white" stroke="black" points="395.5,-69 395.5,-99 496.5,-99 496.5,-69 395.5,-69"/>
<text text-anchor="start" x="403.5" y="-87" font-family="Helvetica,sans-Serif" font-size="10.00">be/src/exprs/agg&#45;fn</text>
<text text-anchor="middle" x="446" y="-76" font-family="Helvetica,sans-Serif" font-size="10.00">&#45;evaluator.cc</text>
</a>
</g>
</g>
<!-- Node1&#45;&gt;Node5 -->
<g id="edge4" class="edge"><title>Node1&#45;&gt;Node5</title>
<path fill="none" stroke="midnightblue" d="M1538.34,-211.1C1364.07,-206.054 912.558,-191.104 764,-168 663.643,-152.392 549.105,-118.362 488.625,-99.0735"/>
<polygon fill="midnightblue" stroke="midnightblue" points="1538.33,-214.601 1548.42,-211.389 1538.53,-207.603 1538.33,-214.601"/>
</g>
<!-- Node6 -->
<g id="node6" class="node"><title>Node6</title>
<g id="a_node6"><a xlink:href="agg-fn-evaluator_8h.html" target="_top" xlink:title="be/src/exprs/agg&#45;fn\l&#45;evaluator.h">
<polygon fill="white" stroke="black" points="268.5,-137 268.5,-167 369.5,-167 369.5,-137 268.5,-137"/>
<text text-anchor="start" x="276.5" y="-155" font-family="Helvetica,sans-Serif" font-size="10.00">be/src/exprs/agg&#45;fn</text>
<text text-anchor="middle" x="319" y="-144" font-family="Helvetica,sans-Serif" font-size="10.00">&#45;evaluator.h</text>
</a>
</g>
</g>
<!-- Node1&#45;&gt;Node6 -->
<g id="edge5" class="edge"><title>Node1&#45;&gt;Node6</title>
<path fill="none" stroke="midnightblue" d="M1538.04,-212.02C1313.66,-208.624 613.709,-196.007 389,-168 382.71,-167.216 376.148,-166.149 369.672,-164.943"/>
<polygon fill="midnightblue" stroke="midnightblue" points="1538.31,-215.524 1548.36,-212.175 1538.41,-208.525 1538.31,-215.524"/>
</g>
<!-- Node7 -->
<g id="node7" class="node"><title>Node7</title>
<g id="a_node7"><a xlink:href="aggregate-functions_8h.html" target="_top" xlink:title="be/src/exprs/aggregate\l&#45;functions.h">
<polygon fill="white" stroke="black" points="773,-137 773,-167 889,-167 889,-137 773,-137"/>
<text text-anchor="start" x="781" y="-155" font-family="Helvetica,sans-Serif" font-size="10.00">be/src/exprs/aggregate</text>
<text text-anchor="middle" x="831" y="-144" font-family="Helvetica,sans-Serif" font-size="10.00">&#45;functions.h</text>
</a>
</g>
</g>
<!-- Node1&#45;&gt;Node7 -->
<g id="edge10" class="edge"><title>Node1&#45;&gt;Node7</title>
<path fill="none" stroke="midnightblue" d="M1538.2,-207.61C1386.54,-195.899 1029.33,-168.315 889.027,-157.481"/>
<polygon fill="midnightblue" stroke="midnightblue" points="1538.08,-211.111 1548.32,-208.392 1538.62,-204.132 1538.08,-211.111"/>
</g>
<!-- Node12 -->
<g id="node12" class="node"><title>Node12</title>
<g id="a_node12"><a xlink:href="expr_8cc.html" target="_top" xlink:title="be/src/exprs/expr.cc">
<polygon fill="white" stroke="black" points="907,-74.5 907,-93.5 1013,-93.5 1013,-74.5 907,-74.5"/>
<text text-anchor="middle" x="960" y="-81.5" font-family="Helvetica,sans-Serif" font-size="10.00">be/src/exprs/expr.cc</text>
</a>
</g>
</g>
<!-- Node1&#45;&gt;Node12 -->
<g id="edge37" class="edge"><title>Node1&#45;&gt;Node12</title>
<path fill="none" stroke="midnightblue" d="M1549.47,-202.652C1443.81,-183.763 1214.3,-141.778 1022,-100 1012.91,-98.025 1003.11,-95.7311 994.044,-93.5402"/>
<polygon fill="midnightblue" stroke="midnightblue" points="1549.15,-206.15 1559.61,-204.461 1550.38,-199.259 1549.15,-206.15"/>
</g>
<!-- Node13 -->
<g id="node13" class="node"><title>Node13</title>
<g id="a_node13"><a xlink:href="anyval-util_8h.html" target="_top" xlink:title="be/src/exprs/anyval\l&#45;util.h">
<polygon fill="white" stroke="black" points="1557,-137 1557,-167 1659,-167 1659,-137 1557,-137"/>
<text text-anchor="start" x="1565" y="-155" font-family="Helvetica,sans-Serif" font-size="10.00">be/src/exprs/anyval</text>
<text text-anchor="middle" x="1608" y="-144" font-family="Helvetica,sans-Serif" font-size="10.00">&#45;util.h</text>
</a>
</g>
</g>
<!-- Node1&#45;&gt;Node13 -->
<g id="edge17" class="edge"><title>Node1&#45;&gt;Node13</title>
<path fill="none" stroke="midnightblue" d="M1608,-194.371C1608,-185.585 1608,-175.272 1608,-167.141"/>
<polygon fill="midnightblue" stroke="midnightblue" points="1604.5,-194.403 1608,-204.403 1611.5,-194.403 1604.5,-194.403"/>
</g>
<!-- Node25 -->
<g id="node25" class="node"><title>Node25</title>
<g id="a_node25"><a xlink:href="scalar-fn-call_8cc.html" target="_top" xlink:title="be/src/exprs/scalar\l&#45;fn&#45;call.cc">
<polygon fill="white" stroke="black" points="2690,-69 2690,-99 2790,-99 2790,-69 2690,-69"/>
<text text-anchor="start" x="2698" y="-87" font-family="Helvetica,sans-Serif" font-size="10.00">be/src/exprs/scalar</text>
<text text-anchor="middle" x="2740" y="-76" font-family="Helvetica,sans-Serif" font-size="10.00">&#45;fn&#45;call.cc</text>
</a>
</g>
</g>
<!-- Node1&#45;&gt;Node25 -->
<g id="edge38" class="edge"><title>Node1&#45;&gt;Node25</title>
<path fill="none" stroke="midnightblue" d="M1627.73,-198.017C1656.96,-175.859 1708.59,-136.851 1711,-136 1914.18,-64.233 2466.66,-130.294 2680,-100 2683.19,-99.5471 2686.45,-98.9944 2689.74,-98.3715"/>
<polygon fill="midnightblue" stroke="midnightblue" points="1625.31,-195.46 1619.46,-204.292 1629.54,-201.037 1625.31,-195.46"/>
</g>
<!-- Node27 -->
<g id="node27" class="node"><title>Node27</title>
<g id="a_node27"><a xlink:href="timestamp-functions_8cc.html" target="_top" xlink:title="be/src/exprs/timestamp\l&#45;functions.cc">
<polygon fill="white" stroke="black" points="2808.5,-69 2808.5,-99 2927.5,-99 2927.5,-69 2808.5,-69"/>
<text text-anchor="start" x="2816.5" y="-87" font-family="Helvetica,sans-Serif" font-size="10.00">be/src/exprs/timestamp</text>
<text text-anchor="middle" x="2868" y="-76" font-family="Helvetica,sans-Serif" font-size="10.00">&#45;functions.cc</text>
</a>
</g>
</g>
<!-- Node1&#45;&gt;Node27 -->
<g id="edge39" class="edge"><title>Node1&#45;&gt;Node27</title>
<path fill="none" stroke="midnightblue" d="M1638.72,-200.57C1658.19,-192.252 1683.64,-180.558 1705,-168 1725.84,-155.743 1726.14,-143.871 1749,-136 1859.38,-98.0034 2683.16,-114.457 2799,-100 2802.04,-99.6204 2805.15,-99.172 2808.27,-98.6716"/>
<polygon fill="midnightblue" stroke="midnightblue" points="1637.27,-197.382 1629.41,-204.485 1639.99,-203.835 1637.27,-197.382"/>
</g>
<!-- Node28 -->
<g id="node28" class="node"><title>Node28</title>
<g id="a_node28"><a xlink:href="utility-functions_8cc.html" target="_top" xlink:title="be/src/exprs/utility\l&#45;functions.cc">
<polygon fill="white" stroke="black" points="2945.5,-69 2945.5,-99 3042.5,-99 3042.5,-69 2945.5,-69"/>
<text text-anchor="start" x="2953.5" y="-87" font-family="Helvetica,sans-Serif" font-size="10.00">be/src/exprs/utility</text>
<text text-anchor="middle" x="2994" y="-76" font-family="Helvetica,sans-Serif" font-size="10.00">&#45;functions.cc</text>
</a>
</g>
</g>
<!-- Node1&#45;&gt;Node28 -->
<g id="edge40" class="edge"><title>Node1&#45;&gt;Node28</title>
<path fill="none" stroke="midnightblue" d="M1652.94,-201.744C1679.44,-194.154 1713.14,-182.815 1741,-168 1761.72,-156.983 1760.89,-143.851 1783,-136 1903.79,-93.1175 2809.12,-118.158 2936,-100 2939.09,-99.558 2942.25,-99.0135 2945.42,-98.3968"/>
<polygon fill="midnightblue" stroke="midnightblue" points="1651.85,-198.413 1643.16,-204.469 1653.73,-205.156 1651.85,-198.413"/>
</g>
<!-- Node29 -->
<g id="node29" class="node"><title>Node29</title>
<g id="a_node29"><a xlink:href="expr-context_8cc.html" target="_top" xlink:title="be/src/exprs/expr&#45;context.cc">
<polygon fill="white" stroke="black" points="1791.5,-142.5 1791.5,-161.5 1932.5,-161.5 1932.5,-142.5 1791.5,-142.5"/>
<text text-anchor="middle" x="1862" y="-149.5" font-family="Helvetica,sans-Serif" font-size="10.00">be/src/exprs/expr&#45;context.cc</text>
</a>
</g>
</g>
<!-- Node1&#45;&gt;Node29 -->
<g id="edge36" class="edge"><title>Node1&#45;&gt;Node29</title>
<path fill="none" stroke="midnightblue" d="M1653.91,-202.155C1703.31,-190.487 1780.83,-172.174 1826,-161.503"/>
<polygon fill="midnightblue" stroke="midnightblue" points="1653.05,-198.762 1644.12,-204.467 1654.66,-205.574 1653.05,-198.762"/>
</g>
<!-- Node30 -->
<g id="node30" class="node"><title>Node30</title>
<g id="a_node30"><a xlink:href="udf-ir_8cc.html" target="_top" xlink:title="be/src/udf/udf&#45;ir.cc">
<polygon fill="white" stroke="black" points="1951,-142.5 1951,-161.5 2049,-161.5 2049,-142.5 1951,-142.5"/>
<text text-anchor="middle" x="2000" y="-149.5" font-family="Helvetica,sans-Serif" font-size="10.00">be/src/udf/udf&#45;ir.cc</text>
</a>
</g>
</g>
<!-- Node1&#45;&gt;Node30 -->
<g id="edge41" class="edge"><title>Node1&#45;&gt;Node30</title>
<path fill="none" stroke="midnightblue" d="M1677.7,-205.935C1745.33,-198.526 1850.71,-185.518 1941,-168 1950.23,-166.208 1960.18,-163.85 1969.22,-161.534"/>
<polygon fill="midnightblue" stroke="midnightblue" points="1677.15,-202.474 1667.59,-207.032 1677.9,-209.433 1677.15,-202.474"/>
</g>
<!-- Node31 -->
<g id="node31" class="node"><title>Node31</title>
<g id="a_node31"><a xlink:href="udf-test-harness_8cc.html" target="_top" xlink:title="be/src/udf/udf&#45;test\l&#45;harness.cc">
<polygon fill="white" stroke="black" points="2067,-137 2067,-167 2163,-167 2163,-137 2067,-137"/>
<text text-anchor="start" x="2075" y="-155" font-family="Helvetica,sans-Serif" font-size="10.00">be/src/udf/udf&#45;test</text>
<text text-anchor="middle" x="2115" y="-144" font-family="Helvetica,sans-Serif" font-size="10.00">&#45;harness.cc</text>
</a>
</g>
</g>
<!-- Node1&#45;&gt;Node31 -->
<g id="edge42" class="edge"><title>Node1&#45;&gt;Node31</title>
<path fill="none" stroke="midnightblue" d="M1677.8,-209.326C1766.49,-203.899 1924.02,-191.716 2057,-168 2060.17,-167.434 2063.43,-166.785 2066.7,-166.082"/>
<polygon fill="midnightblue" stroke="midnightblue" points="1677.37,-205.846 1667.6,-209.939 1677.79,-212.833 1677.37,-205.846"/>
</g>
<!-- Node32 -->
<g id="node32" class="node"><title>Node32</title>
<g id="a_node32"><a xlink:href="udf_8cc.html" target="_top" xlink:title="be/src/udf/udf.cc">
<polygon fill="white" stroke="black" points="2181,-142.5 2181,-161.5 2271,-161.5 2271,-142.5 2181,-142.5"/>
<text text-anchor="middle" x="2226" y="-149.5" font-family="Helvetica,sans-Serif" font-size="10.00">be/src/udf/udf.cc</text>
</a>
</g>
</g>
<!-- Node1&#45;&gt;Node32 -->
<g id="edge43" class="edge"><title>Node1&#45;&gt;Node32</title>
<path fill="none" stroke="midnightblue" d="M1677.79,-211.715C1784.88,-208.781 1995.84,-199.197 2172,-168 2181.01,-166.405 2190.68,-163.959 2199.31,-161.502"/>
<polygon fill="midnightblue" stroke="midnightblue" points="1677.66,-208.217 1667.75,-211.978 1677.84,-215.214 1677.66,-208.217"/>
</g>
<!-- Node6&#45;&gt;Node2 -->
<g id="edge6" class="edge"><title>Node6&#45;&gt;Node2</title>
<path fill="none" stroke="midnightblue" d="M258.611,-135.611C215.32,-124.58 157.456,-109.834 115.357,-99.1065"/>
<polygon fill="midnightblue" stroke="midnightblue" points="257.893,-139.04 268.447,-138.118 259.621,-132.257 257.893,-139.04"/>
</g>
<!-- Node6&#45;&gt;Node3 -->
<g id="edge7" class="edge"><title>Node6&#45;&gt;Node3</title>
<path fill="none" stroke="midnightblue" d="M282.533,-132.197C262.137,-121.68 237.132,-108.787 218.414,-99.1352"/>
<polygon fill="midnightblue" stroke="midnightblue" points="281.049,-135.369 291.541,-136.841 284.257,-129.148 281.049,-135.369"/>
</g>
<!-- Node6&#45;&gt;Node4 -->
<g id="edge8" class="edge"><title>Node6&#45;&gt;Node4</title>
<path fill="none" stroke="midnightblue" d="M319,-126.532C319,-117.361 319,-107.245 319,-99.2931"/>
<polygon fill="midnightblue" stroke="midnightblue" points="315.5,-126.679 319,-136.679 322.5,-126.679 315.5,-126.679"/>
</g>
<!-- Node6&#45;&gt;Node5 -->
<g id="edge9" class="edge"><title>Node6&#45;&gt;Node5</title>
<path fill="none" stroke="midnightblue" d="M355.182,-132.197C375.418,-121.68 400.228,-108.787 418.8,-99.1352"/>
<polygon fill="midnightblue" stroke="midnightblue" points="353.504,-129.124 346.245,-136.841 356.732,-135.336 353.504,-129.124"/>
</g>
<!-- Node7&#45;&gt;Node5 -->
<g id="edge13" class="edge"><title>Node7&#45;&gt;Node5</title>
<path fill="none" stroke="midnightblue" d="M762.697,-142.214C696.505,-133.253 593.428,-118.116 505,-100 502.308,-99.4485 499.554,-98.8543 496.779,-98.2317"/>
<polygon fill="midnightblue" stroke="midnightblue" points="762.619,-145.735 772.996,-143.599 763.551,-138.797 762.619,-145.735"/>
</g>
<!-- Node8 -->
<g id="node8" class="node"><title>Node8</title>
<g id="a_node8"><a xlink:href="incr-stats-util-test_8cc.html" target="_top" xlink:title="be/src/exec/incr&#45;stats\l&#45;util&#45;test.cc">
<polygon fill="white" stroke="black" points="514.5,-69 514.5,-99 625.5,-99 625.5,-69 514.5,-69"/>
<text text-anchor="start" x="522.5" y="-87" font-family="Helvetica,sans-Serif" font-size="10.00">be/src/exec/incr&#45;stats</text>
<text text-anchor="middle" x="570" y="-76" font-family="Helvetica,sans-Serif" font-size="10.00">&#45;util&#45;test.cc</text>
</a>
</g>
</g>
<!-- Node7&#45;&gt;Node8 -->
<g id="edge11" class="edge"><title>Node7&#45;&gt;Node8</title>
<path fill="none" stroke="midnightblue" d="M765.497,-134.436C722.375,-123.532 666.538,-109.412 625.585,-99.0561"/>
<polygon fill="midnightblue" stroke="midnightblue" points="764.776,-137.864 775.329,-136.922 766.492,-131.077 764.776,-137.864"/>
</g>
<!-- Node9 -->
<g id="node9" class="node"><title>Node9</title>
<g id="a_node9"><a xlink:href="incr-stats-util_8cc.html" target="_top" xlink:title="be/src/exec/incr&#45;stats\l&#45;util.cc">
<polygon fill="white" stroke="black" points="643.5,-69 643.5,-99 754.5,-99 754.5,-69 643.5,-69"/>
<text text-anchor="start" x="651.5" y="-87" font-family="Helvetica,sans-Serif" font-size="10.00">be/src/exec/incr&#45;stats</text>
<text text-anchor="middle" x="699" y="-76" font-family="Helvetica,sans-Serif" font-size="10.00">&#45;util.cc</text>
</a>
</g>
</g>
<!-- Node7&#45;&gt;Node9 -->
<g id="edge12" class="edge"><title>Node7&#45;&gt;Node9</title>
<path fill="none" stroke="midnightblue" d="M793.678,-132.339C772.593,-121.796 746.661,-108.83 727.27,-99.1352"/>
<polygon fill="midnightblue" stroke="midnightblue" points="792.173,-135.5 802.683,-136.841 795.304,-129.239 792.173,-135.5"/>
</g>
<!-- Node10 -->
<g id="node10" class="node"><title>Node10</title>
<g id="a_node10"><a xlink:href="aggregate-functions-test_8cc.html" target="_top" xlink:title="be/src/exprs/aggregate\l&#45;functions&#45;test.cc">
<polygon fill="white" stroke="black" points="773,-69 773,-99 889,-99 889,-69 773,-69"/>
<text text-anchor="start" x="781" y="-87" font-family="Helvetica,sans-Serif" font-size="10.00">be/src/exprs/aggregate</text>
<text text-anchor="middle" x="831" y="-76" font-family="Helvetica,sans-Serif" font-size="10.00">&#45;functions&#45;test.cc</text>
</a>
</g>
</g>
<!-- Node7&#45;&gt;Node10 -->
<g id="edge14" class="edge"><title>Node7&#45;&gt;Node10</title>
<path fill="none" stroke="midnightblue" d="M831,-126.532C831,-117.361 831,-107.245 831,-99.2931"/>
<polygon fill="midnightblue" stroke="midnightblue" points="827.5,-126.679 831,-136.679 834.5,-126.679 827.5,-126.679"/>
</g>
<!-- Node11 -->
<g id="node11" class="node"><title>Node11</title>
<g id="a_node11"><a xlink:href="aggregate-functions_8cc.html" target="_top" xlink:title="be/src/exprs/aggregate\l&#45;functions.cc">
<polygon fill="white" stroke="black" points="1031,-69 1031,-99 1147,-99 1147,-69 1031,-69"/>
<text text-anchor="start" x="1039" y="-87" font-family="Helvetica,sans-Serif" font-size="10.00">be/src/exprs/aggregate</text>
<text text-anchor="middle" x="1089" y="-76" font-family="Helvetica,sans-Serif" font-size="10.00">&#45;functions.cc</text>
</a>
</g>
</g>
<!-- Node7&#45;&gt;Node11 -->
<g id="edge15" class="edge"><title>Node7&#45;&gt;Node11</title>
<path fill="none" stroke="midnightblue" d="M895.75,-134.436C938.377,-123.532 993.571,-109.412 1034.05,-99.0561"/>
<polygon fill="midnightblue" stroke="midnightblue" points="894.852,-131.053 886.031,-136.922 896.586,-137.835 894.852,-131.053"/>
</g>
<!-- Node7&#45;&gt;Node12 -->
<g id="edge16" class="edge"><title>Node7&#45;&gt;Node12</title>
<path fill="none" stroke="midnightblue" d="M867.788,-132.178C892.53,-119.52 923.99,-103.424 943.031,-93.6819"/>
<polygon fill="midnightblue" stroke="midnightblue" points="865.982,-129.171 858.674,-136.841 869.17,-135.402 865.982,-129.171"/>
</g>
<!-- Node13&#45;&gt;Node5 -->
<g id="edge18" class="edge"><title>Node13&#45;&gt;Node5</title>
<path fill="none" stroke="midnightblue" d="M1546.87,-149.806C1346.16,-145.628 708.496,-130.253 505,-100 502.282,-99.5959 499.507,-99.1192 496.716,-98.5888"/>
<polygon fill="midnightblue" stroke="midnightblue" points="1546.87,-153.306 1556.94,-150.013 1547.02,-146.308 1546.87,-153.306"/>
</g>
<!-- Node13&#45;&gt;Node11 -->
<g id="edge19" class="edge"><title>Node13&#45;&gt;Node11</title>
<path fill="none" stroke="midnightblue" d="M1546.93,-146.216C1459.8,-138.912 1294.97,-123.326 1156,-100 1153.06,-99.5067 1150.06,-98.9667 1147.03,-98.3938"/>
<polygon fill="midnightblue" stroke="midnightblue" points="1546.66,-149.704 1556.91,-147.044 1547.24,-142.728 1546.66,-149.704"/>
</g>
<!-- Node13&#45;&gt;Node12 -->
<g id="edge26" class="edge"><title>Node13&#45;&gt;Node12</title>
<path fill="none" stroke="midnightblue" d="M1546.43,-148.692C1439.25,-143.997 1211.7,-131.022 1022,-100 1011.95,-98.3557 1001.11,-95.956 991.354,-93.5562"/>
<polygon fill="midnightblue" stroke="midnightblue" points="1546.59,-152.202 1556.73,-149.134 1546.89,-145.209 1546.59,-152.202"/>
</g>
<!-- Node14 -->
<g id="node14" class="node"><title>Node14</title>
<g id="a_node14"><a xlink:href="anyval-util_8cc.html" target="_top" xlink:title="be/src/exprs/anyval\l&#45;util.cc">
<polygon fill="white" stroke="black" points="2254,-69 2254,-99 2356,-99 2356,-69 2254,-69"/>
<text text-anchor="start" x="2262" y="-87" font-family="Helvetica,sans-Serif" font-size="10.00">be/src/exprs/anyval</text>
<text text-anchor="middle" x="2305" y="-76" font-family="Helvetica,sans-Serif" font-size="10.00">&#45;util.cc</text>
</a>
</g>
</g>
<!-- Node13&#45;&gt;Node14 -->
<g id="edge20" class="edge"><title>Node13&#45;&gt;Node14</title>
<path fill="none" stroke="midnightblue" d="M1669.2,-136.584C1670.47,-136.379 1671.74,-136.183 1673,-136 1924.62,-99.2881 1992.65,-138.512 2244,-100 2247.23,-99.5045 2250.55,-98.9191 2253.88,-98.2717"/>
<polygon fill="midnightblue" stroke="midnightblue" points="1668.53,-133.148 1659.3,-138.344 1669.76,-140.039 1668.53,-133.148"/>
</g>
<!-- Node15 -->
<g id="node15" class="node"><title>Node15</title>
<g id="a_node15"><a xlink:href="case-expr_8cc.html" target="_top" xlink:title="be/src/exprs/case&#45;expr.cc">
<polygon fill="white" stroke="black" points="2374,-74.5 2374,-93.5 2504,-93.5 2504,-74.5 2374,-74.5"/>
<text text-anchor="middle" x="2439" y="-81.5" font-family="Helvetica,sans-Serif" font-size="10.00">be/src/exprs/case&#45;expr.cc</text>
</a>
</g>
</g>
<!-- Node13&#45;&gt;Node15 -->
<g id="edge21" class="edge"><title>Node13&#45;&gt;Node15</title>
<path fill="none" stroke="midnightblue" d="M1669.19,-136.565C1670.47,-136.365 1671.74,-136.177 1673,-136 1977.54,-93.2617 2058.86,-138.257 2364,-100 2376.39,-98.4472 2389.79,-96.0124 2401.79,-93.5526"/>
<polygon fill="midnightblue" stroke="midnightblue" points="1668.54,-133.126 1659.29,-138.291 1669.74,-140.022 1668.54,-133.126"/>
</g>
<!-- Node16 -->
<g id="node16" class="node"><title>Node16</title>
<g id="a_node16"><a xlink:href="cast-functions_8cc.html" target="_top" xlink:title="be/src/exprs/cast&#45;functions.cc">
<polygon fill="white" stroke="black" points="2522.5,-74.5 2522.5,-93.5 2671.5,-93.5 2671.5,-74.5 2522.5,-74.5"/>
<text text-anchor="middle" x="2597" y="-81.5" font-family="Helvetica,sans-Serif" font-size="10.00">be/src/exprs/cast&#45;functions.cc</text>
</a>
</g>
</g>
<!-- Node13&#45;&gt;Node16 -->
<g id="edge22" class="edge"><title>Node13&#45;&gt;Node16</title>
<path fill="none" stroke="midnightblue" d="M1669.19,-136.55C1670.47,-136.354 1671.74,-136.171 1673,-136 2043.29,-85.7754 2141.57,-140.936 2513,-100 2526.99,-98.4583 2542.16,-95.9951 2555.72,-93.5068"/>
<polygon fill="midnightblue" stroke="midnightblue" points="1668.55,-133.108 1659.29,-138.247 1669.73,-140.008 1668.55,-133.108"/>
</g>
<!-- Node17 -->
<g id="node17" class="node"><title>Node17</title>
<g id="a_node17"><a xlink:href="conditional-functions-ir_8cc.html" target="_top" xlink:title="be/src/exprs/conditional\l&#45;functions&#45;ir.cc">
<polygon fill="white" stroke="black" points="1165,-69 1165,-99 1285,-99 1285,-69 1165,-69"/>
<text text-anchor="start" x="1173" y="-87" font-family="Helvetica,sans-Serif" font-size="10.00">be/src/exprs/conditional</text>
<text text-anchor="middle" x="1225" y="-76" font-family="Helvetica,sans-Serif" font-size="10.00">&#45;functions&#45;ir.cc</text>
</a>
</g>
</g>
<!-- Node13&#45;&gt;Node17 -->
<g id="edge23" class="edge"><title>Node13&#45;&gt;Node17</title>
<path fill="none" stroke="midnightblue" d="M1546.5,-141.998C1483.07,-132.482 1381.38,-116.581 1294,-100 1291.11,-99.4515 1288.15,-98.8739 1285.17,-98.2777"/>
<polygon fill="midnightblue" stroke="midnightblue" points="1546.32,-145.51 1556.73,-143.527 1547.36,-138.587 1546.32,-145.51"/>
</g>
<!-- Node18 -->
<g id="node18" class="node"><title>Node18</title>
<g id="a_node18"><a xlink:href="decimal-functions_8cc.html" target="_top" xlink:title="be/src/exprs/decimal\l&#45;functions.cc">
<polygon fill="white" stroke="black" points="1303.5,-69 1303.5,-99 1410.5,-99 1410.5,-69 1303.5,-69"/>
<text text-anchor="start" x="1311.5" y="-87" font-family="Helvetica,sans-Serif" font-size="10.00">be/src/exprs/decimal</text>
<text text-anchor="middle" x="1357" y="-76" font-family="Helvetica,sans-Serif" font-size="10.00">&#45;functions.cc</text>
</a>
</g>
</g>
<!-- Node13&#45;&gt;Node18 -->
<g id="edge24" class="edge"><title>Node13&#45;&gt;Node18</title>
<path fill="none" stroke="midnightblue" d="M1547.14,-134.998C1505.45,-124.036 1450.67,-109.631 1410.63,-99.1006"/>
<polygon fill="midnightblue" stroke="midnightblue" points="1546.34,-138.406 1556.9,-137.564 1548.12,-131.636 1546.34,-138.406"/>
</g>
<!-- Node19 -->
<g id="node19" class="node"><title>Node19</title>
<g id="a_node19"><a xlink:href="decimal-operators_8cc.html" target="_top" xlink:title="be/src/exprs/decimal\l&#45;operators.cc">
<polygon fill="white" stroke="black" points="1428.5,-69 1428.5,-99 1535.5,-99 1535.5,-69 1428.5,-69"/>
<text text-anchor="start" x="1436.5" y="-87" font-family="Helvetica,sans-Serif" font-size="10.00">be/src/exprs/decimal</text>
<text text-anchor="middle" x="1482" y="-76" font-family="Helvetica,sans-Serif" font-size="10.00">&#45;operators.cc</text>
</a>
</g>
</g>
<!-- Node13&#45;&gt;Node19 -->
<g id="edge25" class="edge"><title>Node13&#45;&gt;Node19</title>
<path fill="none" stroke="midnightblue" d="M1572.1,-132.197C1552.03,-121.68 1527.41,-108.787 1508.99,-99.1352"/>
<polygon fill="midnightblue" stroke="midnightblue" points="1570.49,-135.302 1580.97,-136.841 1573.74,-129.101 1570.49,-135.302"/>
</g>
<!-- Node20 -->
<g id="node20" class="node"><title>Node20</title>
<g id="a_node20"><a xlink:href="hive-udf-call_8cc.html" target="_top" xlink:title="be/src/exprs/hive&#45;udf\l&#45;call.cc">
<polygon fill="white" stroke="black" points="1554,-69 1554,-99 1662,-99 1662,-69 1554,-69"/>
<text text-anchor="start" x="1562" y="-87" font-family="Helvetica,sans-Serif" font-size="10.00">be/src/exprs/hive&#45;udf</text>
<text text-anchor="middle" x="1608" y="-76" font-family="Helvetica,sans-Serif" font-size="10.00">&#45;call.cc</text>
</a>
</g>
</g>
<!-- Node13&#45;&gt;Node20 -->
<g id="edge27" class="edge"><title>Node13&#45;&gt;Node20</title>
<path fill="none" stroke="midnightblue" d="M1608,-126.532C1608,-117.361 1608,-107.245 1608,-99.2931"/>
<polygon fill="midnightblue" stroke="midnightblue" points="1604.5,-126.679 1608,-136.679 1611.5,-126.679 1604.5,-126.679"/>
</g>
<!-- Node21 -->
<g id="node21" class="node"><title>Node21</title>
<g id="a_node21"><a xlink:href="in-predicate-ir_8cc.html" target="_top" xlink:title="be/src/exprs/in&#45;predicate\l&#45;ir.cc">
<polygon fill="white" stroke="black" points="1680,-69 1680,-99 1804,-99 1804,-69 1680,-69"/>
<text text-anchor="start" x="1688" y="-87" font-family="Helvetica,sans-Serif" font-size="10.00">be/src/exprs/in&#45;predicate</text>
<text text-anchor="middle" x="1742" y="-76" font-family="Helvetica,sans-Serif" font-size="10.00">&#45;ir.cc</text>
</a>
</g>
</g>
<!-- Node13&#45;&gt;Node21 -->
<g id="edge28" class="edge"><title>Node13&#45;&gt;Node21</title>
<path fill="none" stroke="midnightblue" d="M1645.89,-132.339C1667.29,-121.796 1693.62,-108.83 1713.3,-99.1352"/>
<polygon fill="midnightblue" stroke="midnightblue" points="1644.17,-129.283 1636.75,-136.841 1647.26,-135.563 1644.17,-129.283"/>
</g>
<!-- Node23 -->
<g id="node23" class="node"><title>Node23</title>
<g id="a_node23"><a xlink:href="math-functions_8cc.html" target="_top" xlink:title="be/src/exprs/math&#45;functions.cc">
<polygon fill="white" stroke="black" points="1822,-74.5 1822,-93.5 1974,-93.5 1974,-74.5 1822,-74.5"/>
<text text-anchor="middle" x="1898" y="-81.5" font-family="Helvetica,sans-Serif" font-size="10.00">be/src/exprs/math&#45;functions.cc</text>
</a>
</g>
</g>
<!-- Node13&#45;&gt;Node23 -->
<g id="edge30" class="edge"><title>Node13&#45;&gt;Node23</title>
<path fill="none" stroke="midnightblue" d="M1669.15,-136.881C1670.45,-136.584 1671.73,-136.29 1673,-136 1738.79,-120.952 1815.45,-103.619 1860.17,-93.5275"/>
<polygon fill="midnightblue" stroke="midnightblue" points="1668.05,-133.542 1659.09,-139.19 1669.62,-140.364 1668.05,-133.542"/>
</g>
<!-- Node24 -->
<g id="node24" class="node"><title>Node24</title>
<g id="a_node24"><a xlink:href="operators_8cc.html" target="_top" xlink:title="be/src/exprs/operators.cc">
<polygon fill="white" stroke="black" points="1992,-74.5 1992,-93.5 2120,-93.5 2120,-74.5 1992,-74.5"/>
<text text-anchor="middle" x="2056" y="-81.5" font-family="Helvetica,sans-Serif" font-size="10.00">be/src/exprs/operators.cc</text>
</a>
</g>
</g>
<!-- Node13&#45;&gt;Node24 -->
<g id="edge31" class="edge"><title>Node13&#45;&gt;Node24</title>
<path fill="none" stroke="midnightblue" d="M1669.21,-136.675C1670.48,-136.442 1671.75,-136.216 1673,-136 1809.68,-112.369 1846.05,-121.98 1983,-100 1994.24,-98.1958 2006.38,-95.8595 2017.47,-93.5701"/>
<polygon fill="midnightblue" stroke="midnightblue" points="1668.49,-133.25 1659.34,-138.597 1669.82,-140.121 1668.49,-133.25"/>
</g>
<!-- Node13&#45;&gt;Node25 -->
<g id="edge32" class="edge"><title>Node13&#45;&gt;Node25</title>
<path fill="none" stroke="midnightblue" d="M1669.19,-136.537C1670.47,-136.346 1671.74,-136.166 1673,-136 2116.99,-77.382 2236.56,-162.651 2680,-100 2683.19,-99.5494 2686.46,-98.9984 2689.74,-98.3767"/>
<polygon fill="midnightblue" stroke="midnightblue" points="1668.56,-133.094 1659.28,-138.213 1669.73,-139.996 1668.56,-133.094"/>
</g>
<!-- Node26 -->
<g id="node26" class="node"><title>Node26</title>
<g id="a_node26"><a xlink:href="string-functions_8cc.html" target="_top" xlink:title="be/src/exprs/string\l&#45;functions.cc">
<polygon fill="white" stroke="black" points="2138,-69 2138,-99 2236,-99 2236,-69 2138,-69"/>
<text text-anchor="start" x="2146" y="-87" font-family="Helvetica,sans-Serif" font-size="10.00">be/src/exprs/string</text>
<text text-anchor="middle" x="2187" y="-76" font-family="Helvetica,sans-Serif" font-size="10.00">&#45;functions.cc</text>
</a>
</g>
</g>
<!-- Node13&#45;&gt;Node26 -->
<g id="edge33" class="edge"><title>Node13&#45;&gt;Node26</title>
<path fill="none" stroke="midnightblue" d="M1669.2,-136.612C1670.48,-136.398 1671.74,-136.193 1673,-136 1873.93,-105.059 1928.49,-133.578 2129,-100 2131.87,-99.519 2134.81,-98.9638 2137.76,-98.3563"/>
<polygon fill="midnightblue" stroke="midnightblue" points="1668.52,-133.178 1659.31,-138.42 1669.78,-140.064 1668.52,-133.178"/>
</g>
<!-- Node13&#45;&gt;Node27 -->
<g id="edge34" class="edge"><title>Node13&#45;&gt;Node27</title>
<path fill="none" stroke="midnightblue" d="M1669.46,-140.904C1683.11,-138.983 1697.52,-137.201 1711,-136 2192.91,-93.0714 2318.87,-159.633 2799,-100 2802.04,-99.6223 2805.15,-99.1752 2808.27,-98.6761"/>
<polygon fill="midnightblue" stroke="midnightblue" points="1668.6,-137.492 1659.21,-142.393 1669.61,-144.42 1668.6,-137.492"/>
</g>
<!-- Node13&#45;&gt;Node28 -->
<g id="edge35" class="edge"><title>Node13&#45;&gt;Node28</title>
<path fill="none" stroke="midnightblue" d="M1669.13,-143.477C1693.89,-140.697 1722.77,-137.79 1749,-136 2275.57,-100.057 2413.49,-174.538 2936,-100 2939.09,-99.5594 2942.25,-99.016 2945.43,-98.4"/>
<polygon fill="midnightblue" stroke="midnightblue" points="1668.69,-140.005 1659.15,-144.616 1669.49,-146.96 1668.69,-140.005"/>
</g>
<!-- Node22 -->
<g id="node22" class="node"><title>Node22</title>
<g id="a_node22"><a xlink:href="in-predicate-benchmark_8cc.html" target="_top" xlink:title="be/src/exprs/in&#45;predicate\l&#45;benchmark.cc">
<polygon fill="white" stroke="black" points="1680,-1 1680,-31 1804,-31 1804,-1 1680,-1"/>
<text text-anchor="start" x="1688" y="-19" font-family="Helvetica,sans-Serif" font-size="10.00">be/src/exprs/in&#45;predicate</text>
<text text-anchor="middle" x="1742" y="-8" font-family="Helvetica,sans-Serif" font-size="10.00">&#45;benchmark.cc</text>
</a>
</g>
</g>
<!-- Node21&#45;&gt;Node22 -->
<g id="edge29" class="edge"><title>Node21&#45;&gt;Node22</title>
<path fill="none" stroke="midnightblue" d="M1742,-58.5322C1742,-49.3606 1742,-39.2449 1742,-31.2931"/>
<polygon fill="midnightblue" stroke="midnightblue" points="1738.5,-58.6789 1742,-68.679 1745.5,-58.679 1738.5,-58.6789"/>
</g>
</g>
</svg>
        <g id="navigator" transform="translate(0 0)" fill="#404254">
                <rect fill="#f2f5e9" fill-opacity="0.5" stroke="#606060" stroke-width=".5" x="0" y="0" width="60" height="60"/>
                <use id="zoomplus" xlink:href="#zoomPlus" x="17" y="9" onmousedown="handleZoom(evt,'in')"/>
                <use id="zoomminus" xlink:href="#zoomMin" x="42" y="9" onmousedown="handleZoom(evt,'out')"/>
                <use id="reset" xlink:href="#resetDef" x="30" y="36" onmousedown="handleReset()"/>
                <g id="arrowUp" xlink:href="#dirArrow" transform="translate(30 24)" onmousedown="handlePan(0,-1)">
                  <use xlink:href="#rim" fill="#404040">
                        <set attributeName="fill" to="#808080" begin="arrowUp.mouseover" end="arrowUp.mouseout"/>
                  </use>
                  <path fill="none" stroke="white" stroke-width="1.5" d="M0,-3.0v7 M-2.5,-0.5L0,-3.0L2.5,-0.5"/>
                </g>
                <g id="arrowRight" xlink:href="#dirArrow" transform="rotate(90) translate(36 -43)" onmousedown="handlePan(1,0)">
                  <use xlink:href="#rim" fill="#404040">
                        <set attributeName="fill" to="#808080" begin="arrowRight.mouseover" end="arrowRight.mouseout"/>
                  </use>
                  <path fill="none" stroke="white" stroke-width="1.5" d="M0,-3.0v7 M-2.5,-0.5L0,-3.0L2.5,-0.5"/>
                </g>
                <g id="arrowDown" xlink:href="#dirArrow" transform="rotate(180) translate(-30 -48)" onmousedown="handlePan(0,1)">
                  <use xlink:href="#rim" fill="#404040">
                        <set attributeName="fill" to="#808080" begin="arrowDown.mouseover" end="arrowDown.mouseout"/>
                  </use>
                  <path fill="none" stroke="white" stroke-width="1.5" d="M0,-3.0v7 M-2.5,-0.5L0,-3.0L2.5,-0.5"/>
                </g>
                <g id="arrowLeft" xlink:href="#dirArrow" transform="rotate(270) translate(-36 17)" onmousedown="handlePan(-1,0)">
                  <use xlink:href="#rim" fill="#404040">
                        <set attributeName="fill" to="#808080" begin="arrowLeft.mouseover" end="arrowLeft.mouseout"/>
                  </use>
                  <path fill="none" stroke="white" stroke-width="1.5" d="M0,-3.0v7 M-2.5,-0.5L0,-3.0L2.5,-0.5"/>
                </g>
        </g>
        <svg viewBox="0 0 15 15" width="100%" height="30px" preserveAspectRatio="xMaxYMin meet">
         <g id="arrow_out" transform="scale(0.3 0.3)">
          <a xlink:href="udf-internal_8h__dep__incl_org.svg" target="_base">
           <rect id="button" ry="5" rx="5" y="6" x="6" height="38" width="38"
                fill="#f2f5e9" fill-opacity="0.5" stroke="#606060" stroke-width="1.0"/>
           <path id="arrow"
             d="M 11.500037,31.436501 C 11.940474,20.09759 22.043105,11.32322 32.158766,21.979434 L 37.068811,17.246167 C 37.068811,17.246167 37.088388,32 37.088388,32 L 22.160133,31.978069 C 22.160133,31.978069 26.997745,27.140456 26.997745,27.140456 C 18.528582,18.264221 13.291696,25.230495 11.500037,31.436501 z"
             style="fill:#404040;"/>
          </a>
         </g>
        </svg>
</svg>
