<?xml version="1.0" encoding="UTF-8" standalone="no"?>
<!DOCTYPE svg PUBLIC "-//W3C//DTD SVG 1.1//EN"
 "http://www.w3.org/Graphics/SVG/1.1/DTD/svg11.dtd">
<!-- Generated by graphviz version 2.36.0 (20140111.2315)
 -->
<!-- Title: be/src/udf_samples/udf&#45;sample.h Pages: 1 -->
<svg width="230pt" height="108pt"
 viewBox="0.00 0.00 230.00 108.00" xmlns="http://www.w3.org/2000/svg" xmlns:xlink="http://www.w3.org/1999/xlink">
<g id="graph0" class="graph" transform="scale(1 1) rotate(0) translate(4 104)">
<title>be/src/udf_samples/udf&#45;sample.h</title>
<polygon fill="white" stroke="none" points="-4,4 -4,-104 226,-104 226,4 -4,4"/>
<!-- Node1 -->
<g id="node1" class="node"><title>Node1</title>
<polygon fill="#bfbfbf" stroke="black" points="60,-69 60,-99 162,-99 162,-69 60,-69"/>
<text text-anchor="start" x="68" y="-87" font-family="Helvetica,sans-Serif" font-size="10.00">be/src/udf_samples</text>
<text text-anchor="middle" x="111" y="-76" font-family="Helvetica,sans-Serif" font-size="10.00">/udf&#45;sample.h</text>
</g>
<!-- Node2 -->
<g id="node2" class="node"><title>Node2</title>
<g id="a_node2"><a xlink:href="udf-sample-test_8cc.html" target="_top" xlink:title="be/src/udf_samples\l/udf&#45;sample&#45;test.cc">
<polygon fill="white" stroke="black" points="0,-1 0,-31 102,-31 102,-1 0,-1"/>
<text text-anchor="start" x="8" y="-19" font-family="Helvetica,sans-Serif" font-size="10.00">be/src/udf_samples</text>
<text text-anchor="middle" x="51" y="-8" font-family="Helvetica,sans-Serif" font-size="10.00">/udf&#45;sample&#45;test.cc</text>
</a>
</g>
</g>
<!-- Node1&#45;&gt;Node2 -->
<g id="edge1" class="edge"><title>Node1&#45;&gt;Node2</title>
<path fill="none" stroke="midnightblue" d="M91.1762,-61.1939C82.2368,-51.3605 71.9298,-40.0228 63.9937,-31.2931"/>
<polygon fill="midnightblue" stroke="midnightblue" points="88.6643,-63.6339 97.9809,-68.679 93.8439,-58.9252 88.6643,-63.6339"/>
</g>
<!-- Node3 -->
<g id="node3" class="node"><title>Node3</title>
<g id="a_node3"><a xlink:href="udf-sample_8cc.html" target="_top" xlink:title="be/src/udf_samples\l/udf&#45;sample.cc">
<polygon fill="white" stroke="black" points="120,-1 120,-31 222,-31 222,-1 120,-1"/>
<text text-anchor="start" x="128" y="-19" font-family="Helvetica,sans-Serif" font-size="10.00">be/src/udf_samples</text>
<text text-anchor="middle" x="171" y="-8" font-family="Helvetica,sans-Serif" font-size="10.00">/udf&#45;sample.cc</text>
</a>
</g>
</g>
<!-- Node1&#45;&gt;Node3 -->
<g id="edge2" class="edge"><title>Node1&#45;&gt;Node3</title>
<path fill="none" stroke="midnightblue" d="M130.824,-61.1939C139.763,-51.3605 150.07,-40.0228 158.006,-31.2931"/>
<polygon fill="midnightblue" stroke="midnightblue" points="128.156,-58.9252 124.019,-68.679 133.336,-63.6339 128.156,-58.9252"/>
</g>
</g>
</svg>
