<?xml version="1.0" encoding="UTF-8" standalone="no"?>
<!DOCTYPE svg PUBLIC "-//W3C//DTD SVG 1.1//EN"
 "http://www.w3.org/Graphics/SVG/1.1/DTD/svg11.dtd">
<!-- Generated by graphviz version 2.36.0 (20140111.2315)
 -->
<!-- Title: impala::HashTable::HtData Pages: 1 -->
<!--zoomable 500 -->
<svg id="main" version="1.1" xmlns="http://www.w3.org/2000/svg" xmlns:xlink="http://www.w3.org/1999/xlink" xml:space="preserve" onload="init(evt)">
<style type="text/css"><![CDATA[
.edge:hover path { stroke: red; }
.edge:hover polygon { stroke: red; fill: red; }
]]></style>
<script type="text/javascript"><![CDATA[
var edges = document.getElementsByTagName('g');
if (edges && edges.length) {
  for (var i=0;i<edges.length;i++) {
    if (edges[i].id.substr(0,4)=='edge') {
      edges[i].setAttribute('class','edge');
    }
  }
}
]]></script>
        <defs>
                <circle id="rim" cx="0" cy="0" r="7"/>
                <circle id="rim2" cx="0" cy="0" r="3.5"/>
                <g id="zoomPlus">
                        <use xlink:href="#rim" fill="#404040">
                                <set attributeName="fill" to="#808080" begin="zoomplus.mouseover" end="zoomplus.mouseout"/>
                        </use>
                        <path d="M-4,0h8M0,-4v8" fill="none" stroke="white" stroke-width="1.5" pointer-events="none"/>
                </g>
                <g id="zoomMin">
                        <use xlink:href="#rim" fill="#404040">
                                <set attributeName="fill" to="#808080" begin="zoomminus.mouseover" end="zoomminus.mouseout"/>
                        </use>
                        <path d="M-4,0h8" fill="none" stroke="white" stroke-width="1.5" pointer-events="none"/>
                </g>
                <g id="dirArrow">
                        <path fill="none" stroke="white" stroke-width="1.5" d="M0,-3.0v7 M-2.5,-0.5L0,-3.0L2.5,-0.5"/>
                </g>
               <g id="resetDef">
                       <use xlink:href="#rim2" fill="#404040">
                               <set attributeName="fill" to="#808080" begin="reset.mouseover" end="reset.mouseout"/>
                       </use>
               </g>
        </defs>

<script type="text/javascript">
var viewWidth = 369;
var viewHeight = 500;
var sectionId = 'dynsection-0';
</script>
<script xlink:href="svgpan.js"/>
<svg id="graph" class="graph">
<g id="viewport">
<title>impala::HashTable::HtData</title>
<polygon fill="white" stroke="none" points="-4,4 -4,-496 365,-496 365,4 -4,4"/>
<!-- Node1 -->
<g id="node1" class="node"><title>Node1</title>
<polygon fill="#bfbfbf" stroke="black" points="126,-1 126,-69 230,-69 230,-1 126,-1"/>
<text text-anchor="start" x="134" y="-57" font-family="Helvetica,sans-Serif" font-size="10.00">impala::HashTable::</text>
<text text-anchor="middle" x="178" y="-46" font-family="Helvetica,sans-Serif" font-size="10.00">HtData</text>
<polyline fill="none" stroke="black" points="126,-39 230,-39 "/>
<text text-anchor="middle" x="178" y="-27" font-family="Helvetica,sans-Serif" font-size="10.00"> </text>
<polyline fill="none" stroke="black" points="126,-20 230,-20 "/>
<text text-anchor="middle" x="178" y="-8" font-family="Helvetica,sans-Serif" font-size="10.00"> </text>
</g>
<!-- Node2 -->
<g id="node2" class="node"><title>Node2</title>
<g id="a_node2"><a xlink:href="structimpala_1_1BufferedTupleStream_1_1RowIdx.html" target="_top" xlink:title="{impala::BufferedTupleStream\l::RowIdx\n||+ block()\l+ offset()\l+ idx()\l+ set()\l+ DebugString()\l}">
<polygon fill="white" stroke="black" points="-0.5,-163 -0.5,-275 142.5,-275 142.5,-163 -0.5,-163"/>
<text text-anchor="start" x="7.5" y="-263" font-family="Helvetica,sans-Serif" font-size="10.00">impala::BufferedTupleStream</text>
<text text-anchor="middle" x="71" y="-252" font-family="Helvetica,sans-Serif" font-size="10.00">::RowIdx</text>
<polyline fill="none" stroke="black" points="-0.5,-245 142.5,-245 "/>
<text text-anchor="middle" x="71" y="-233" font-family="Helvetica,sans-Serif" font-size="10.00"> </text>
<polyline fill="none" stroke="black" points="-0.5,-226 142.5,-226 "/>
<text text-anchor="start" x="7.5" y="-214" font-family="Helvetica,sans-Serif" font-size="10.00">+ block()</text>
<text text-anchor="start" x="7.5" y="-203" font-family="Helvetica,sans-Serif" font-size="10.00">+ offset()</text>
<text text-anchor="start" x="7.5" y="-192" font-family="Helvetica,sans-Serif" font-size="10.00">+ idx()</text>
<text text-anchor="start" x="7.5" y="-181" font-family="Helvetica,sans-Serif" font-size="10.00">+ set()</text>
<text text-anchor="start" x="7.5" y="-170" font-family="Helvetica,sans-Serif" font-size="10.00">+ DebugString()</text>
</a>
</g>
</g>
<!-- Node2&#45;&gt;Node1 -->
<g id="edge1" class="edge"><title>Node2&#45;&gt;Node1</title>
<path fill="none" stroke="#404040" d="M103.394,-162.9C119.039,-136.288 137.553,-104.798 152.223,-79.8443"/>
<polygon fill="none" stroke="#404040" points="152.38,-79.5774 151.973,-72.3778 158.462,-69.2328 158.869,-76.4324 152.38,-79.5774"/>
<text text-anchor="middle" x="158" y="-91.5" font-family="Helvetica,sans-Serif" font-size="10.00"> +idx</text>
</g>
<!-- Node3 -->
<g id="node3" class="node"><title>Node3</title>
<g id="a_node3"><a xlink:href="classuint64__t.html" target="_top" xlink:title="{uint64_t\n||}">
<polygon fill="white" stroke="black" points="45.5,-434.5 45.5,-491.5 96.5,-491.5 96.5,-434.5 45.5,-434.5"/>
<text text-anchor="middle" x="71" y="-479.5" font-family="Helvetica,sans-Serif" font-size="10.00">uint64_t</text>
<polyline fill="none" stroke="black" points="45.5,-472.5 96.5,-472.5 "/>
<text text-anchor="middle" x="71" y="-460.5" font-family="Helvetica,sans-Serif" font-size="10.00"> </text>
<polyline fill="none" stroke="black" points="45.5,-453.5 96.5,-453.5 "/>
<text text-anchor="middle" x="71" y="-441.5" font-family="Helvetica,sans-Serif" font-size="10.00"> </text>
</a>
</g>
</g>
<!-- Node3&#45;&gt;Node2 -->
<g id="edge2" class="edge"><title>Node3&#45;&gt;Node2</title>
<path fill="none" stroke="#404040" d="M71,-434.24C71,-398.72 71,-336.003 71,-287.573"/>
<polygon fill="none" stroke="#404040" points="71.0001,-287.278 67,-281.278 71,-275.278 75,-281.278 71.0001,-287.278"/>
<text text-anchor="middle" x="111" y="-407.5" font-family="Helvetica,sans-Serif" font-size="10.00"> +data</text>
<text text-anchor="middle" x="111" y="-396.5" font-family="Helvetica,sans-Serif" font-size="10.00">+OFFSET_SHIFT</text>
<text text-anchor="middle" x="111" y="-385.5" font-family="Helvetica,sans-Serif" font-size="10.00">+IDX_MASK</text>
<text text-anchor="middle" x="111" y="-374.5" font-family="Helvetica,sans-Serif" font-size="10.00">+BLOCK_MASK</text>
<text text-anchor="middle" x="111" y="-363.5" font-family="Helvetica,sans-Serif" font-size="10.00">+BLOCK_SHIFT</text>
<text text-anchor="middle" x="111" y="-352.5" font-family="Helvetica,sans-Serif" font-size="10.00">+OFFSET_MASK</text>
<text text-anchor="middle" x="111" y="-341.5" font-family="Helvetica,sans-Serif" font-size="10.00">+IDX_SHIFT</text>
</g>
<!-- Node4 -->
<g id="node4" class="node"><title>Node4</title>
<g id="a_node4"><a xlink:href="classimpala_1_1Tuple.html" target="_top" xlink:title="A tuple with 0 materialised slots is represented as NULL. ">
<polygon fill="white" stroke="black" points="160.5,-119 160.5,-319 345.5,-319 345.5,-119 160.5,-119"/>
<text text-anchor="middle" x="253" y="-307" font-family="Helvetica,sans-Serif" font-size="10.00">impala::Tuple</text>
<polyline fill="none" stroke="black" points="160.5,-300 345.5,-300 "/>
<text text-anchor="middle" x="253" y="-288" font-family="Helvetica,sans-Serif" font-size="10.00"> </text>
<polyline fill="none" stroke="black" points="160.5,-281 345.5,-281 "/>
<text text-anchor="start" x="168.5" y="-269" font-family="Helvetica,sans-Serif" font-size="10.00">+ Init()</text>
<text text-anchor="start" x="168.5" y="-258" font-family="Helvetica,sans-Serif" font-size="10.00">+ DeepCopy()</text>
<text text-anchor="start" x="168.5" y="-247" font-family="Helvetica,sans-Serif" font-size="10.00">+ DeepCopy()</text>
<text text-anchor="start" x="168.5" y="-236" font-family="Helvetica,sans-Serif" font-size="10.00">+ DeepCopy()</text>
<text text-anchor="start" x="168.5" y="-225" font-family="Helvetica,sans-Serif" font-size="10.00">+ MaterializeExprs()</text>
<text text-anchor="start" x="168.5" y="-214" font-family="Helvetica,sans-Serif" font-size="10.00">+ SetNull()</text>
<text text-anchor="start" x="168.5" y="-203" font-family="Helvetica,sans-Serif" font-size="10.00">+ SetNotNull()</text>
<text text-anchor="start" x="168.5" y="-192" font-family="Helvetica,sans-Serif" font-size="10.00">+ IsNull()</text>
<text text-anchor="start" x="168.5" y="-181" font-family="Helvetica,sans-Serif" font-size="10.00">+ GetSlot()</text>
<text text-anchor="start" x="168.5" y="-170" font-family="Helvetica,sans-Serif" font-size="10.00">+ GetSlot()</text>
<text text-anchor="start" x="168.5" y="-159" font-family="Helvetica,sans-Serif" font-size="10.00">+ GetStringSlot()</text>
<text text-anchor="start" x="168.5" y="-148" font-family="Helvetica,sans-Serif" font-size="10.00">+ MaterializeExprs()</text>
<text text-anchor="start" x="168.5" y="-137" font-family="Helvetica,sans-Serif" font-size="10.00">+ Create()</text>
<text text-anchor="start" x="168.5" y="-126" font-family="Helvetica,sans-Serif" font-size="10.00">&#45; DISALLOW_COPY_AND_ASSIGN()</text>
</a>
</g>
</g>
<!-- Node4&#45;&gt;Node1 -->
<g id="edge3" class="edge"><title>Node4&#45;&gt;Node1</title>
<path fill="none" stroke="#404040" d="M212.098,-118.745C206.597,-105.395 201.194,-92.2834 196.368,-80.5729"/>
<polygon fill="none" stroke="#404040" points="196.325,-80.4674 190.34,-76.444 191.752,-69.3725 197.737,-73.3959 196.325,-80.4674"/>
<text text-anchor="middle" x="217.5" y="-91.5" font-family="Helvetica,sans-Serif" font-size="10.00"> +tuple</text>
</g>
<!-- Node5 -->
<g id="node5" class="node"><title>Node5</title>
<polygon fill="white" stroke="#bfbfbf" points="235.5,-434.5 235.5,-491.5 270.5,-491.5 270.5,-434.5 235.5,-434.5"/>
<text text-anchor="middle" x="253" y="-479.5" font-family="Helvetica,sans-Serif" font-size="10.00">char</text>
<polyline fill="none" stroke="#bfbfbf" points="235.5,-472.5 270.5,-472.5 "/>
<text text-anchor="middle" x="253" y="-460.5" font-family="Helvetica,sans-Serif" font-size="10.00"> </text>
<polyline fill="none" stroke="#bfbfbf" points="235.5,-453.5 270.5,-453.5 "/>
<text text-anchor="middle" x="253" y="-441.5" font-family="Helvetica,sans-Serif" font-size="10.00"> </text>
</g>
<!-- Node5&#45;&gt;Node4 -->
<g id="edge4" class="edge"><title>Node5&#45;&gt;Node4</title>
<path fill="none" stroke="#404040" d="M253,-434.24C253,-408.809 253,-369.437 253,-331.349"/>
<polygon fill="none" stroke="#404040" points="253,-331.047 249,-325.047 253,-319.047 257,-325.047 253,-331.047"/>
<text text-anchor="middle" x="307" y="-374.5" font-family="Helvetica,sans-Serif" font-size="10.00"> +LLVM_CLASS_NAME</text>
</g>
</g>
</svg>
        <g id="navigator" transform="translate(0 0)" fill="#404254">
                <rect fill="#f2f5e9" fill-opacity="0.5" stroke="#606060" stroke-width=".5" x="0" y="0" width="60" height="60"/>
                <use id="zoomplus" xlink:href="#zoomPlus" x="17" y="9" onmousedown="handleZoom(evt,'in')"/>
                <use id="zoomminus" xlink:href="#zoomMin" x="42" y="9" onmousedown="handleZoom(evt,'out')"/>
                <use id="reset" xlink:href="#resetDef" x="30" y="36" onmousedown="handleReset()"/>
                <g id="arrowUp" xlink:href="#dirArrow" transform="translate(30 24)" onmousedown="handlePan(0,-1)">
                  <use xlink:href="#rim" fill="#404040">
                        <set attributeName="fill" to="#808080" begin="arrowUp.mouseover" end="arrowUp.mouseout"/>
                  </use>
                  <path fill="none" stroke="white" stroke-width="1.5" d="M0,-3.0v7 M-2.5,-0.5L0,-3.0L2.5,-0.5"/>
                </g>
                <g id="arrowRight" xlink:href="#dirArrow" transform="rotate(90) translate(36 -43)" onmousedown="handlePan(1,0)">
                  <use xlink:href="#rim" fill="#404040">
                        <set attributeName="fill" to="#808080" begin="arrowRight.mouseover" end="arrowRight.mouseout"/>
                  </use>
                  <path fill="none" stroke="white" stroke-width="1.5" d="M0,-3.0v7 M-2.5,-0.5L0,-3.0L2.5,-0.5"/>
                </g>
                <g id="arrowDown" xlink:href="#dirArrow" transform="rotate(180) translate(-30 -48)" onmousedown="handlePan(0,1)">
                  <use xlink:href="#rim" fill="#404040">
                        <set attributeName="fill" to="#808080" begin="arrowDown.mouseover" end="arrowDown.mouseout"/>
                  </use>
                  <path fill="none" stroke="white" stroke-width="1.5" d="M0,-3.0v7 M-2.5,-0.5L0,-3.0L2.5,-0.5"/>
                </g>
                <g id="arrowLeft" xlink:href="#dirArrow" transform="rotate(270) translate(-36 17)" onmousedown="handlePan(-1,0)">
                  <use xlink:href="#rim" fill="#404040">
                        <set attributeName="fill" to="#808080" begin="arrowLeft.mouseover" end="arrowLeft.mouseout"/>
                  </use>
                  <path fill="none" stroke="white" stroke-width="1.5" d="M0,-3.0v7 M-2.5,-0.5L0,-3.0L2.5,-0.5"/>
                </g>
        </g>
        <svg viewBox="0 0 15 15" width="100%" height="30px" preserveAspectRatio="xMaxYMin meet">
         <g id="arrow_out" transform="scale(0.3 0.3)">
          <a xlink:href="unionimpala_1_1HashTable_1_1HtData__coll__graph_org.svg" target="_base">
           <rect id="button" ry="5" rx="5" y="6" x="6" height="38" width="38"
                fill="#f2f5e9" fill-opacity="0.5" stroke="#606060" stroke-width="1.0"/>
           <path id="arrow"
             d="M 11.500037,31.436501 C 11.940474,20.09759 22.043105,11.32322 32.158766,21.979434 L 37.068811,17.246167 C 37.068811,17.246167 37.088388,32 37.088388,32 L 22.160133,31.978069 C 22.160133,31.978069 26.997745,27.140456 26.997745,27.140456 C 18.528582,18.264221 13.291696,25.230495 11.500037,31.436501 z"
             style="fill:#404040;"/>
          </a>
         </g>
        </svg>
</svg>
