<?xml version="1.0" encoding="UTF-8" standalone="no"?>
<!DOCTYPE svg PUBLIC "-//W3C//DTD SVG 1.1//EN"
 "http://www.w3.org/Graphics/SVG/1.1/DTD/svg11.dtd">
<!-- Generated by graphviz version 2.36.0 (20140111.2315)
 -->
<!-- Title: be/src/util/url&#45;parser.h Pages: 1 -->
<svg width="240pt" height="96pt"
 viewBox="0.00 0.00 240.00 96.00" xmlns="http://www.w3.org/2000/svg" xmlns:xlink="http://www.w3.org/1999/xlink">
<g id="graph0" class="graph" transform="scale(1 1) rotate(0) translate(4 92)">
<title>be/src/util/url&#45;parser.h</title>
<polygon fill="white" stroke="none" points="-4,4 -4,-92 236,-92 236,4 -4,4"/>
<!-- Node1 -->
<g id="node1" class="node"><title>Node1</title>
<polygon fill="#bfbfbf" stroke="black" points="55.5,-68.5 55.5,-87.5 166.5,-87.5 166.5,-68.5 55.5,-68.5"/>
<text text-anchor="middle" x="111" y="-75.5" font-family="Helvetica,sans-Serif" font-size="10.00">be/src/util/url&#45;parser.h</text>
</g>
<!-- Node2 -->
<g id="node2" class="node"><title>Node2</title>
<g id="a_node2"><a xlink:href="string-functions_8cc.html" target="_top" xlink:title="be/src/exprs/string\l&#45;functions.cc">
<polygon fill="white" stroke="black" points="0,-1 0,-31 98,-31 98,-1 0,-1"/>
<text text-anchor="start" x="8" y="-19" font-family="Helvetica,sans-Serif" font-size="10.00">be/src/exprs/string</text>
<text text-anchor="middle" x="49" y="-8" font-family="Helvetica,sans-Serif" font-size="10.00">&#45;functions.cc</text>
</a>
</g>
</g>
<!-- Node1&#45;&gt;Node2 -->
<g id="edge1" class="edge"><title>Node1&#45;&gt;Node2</title>
<path fill="none" stroke="midnightblue" d="M94.7122,-61.2376C85.067,-51.9036 72.9481,-40.1755 63.6122,-31.1408"/>
<polygon fill="midnightblue" stroke="midnightblue" points="92.4969,-63.9643 102.117,-68.4035 97.3648,-58.9341 92.4969,-63.9643"/>
</g>
<!-- Node3 -->
<g id="node3" class="node"><title>Node3</title>
<g id="a_node3"><a xlink:href="url-parser_8cc.html" target="_top" xlink:title="be/src/util/url&#45;parser.cc">
<polygon fill="white" stroke="black" points="116,-6.5 116,-25.5 232,-25.5 232,-6.5 116,-6.5"/>
<text text-anchor="middle" x="174" y="-13.5" font-family="Helvetica,sans-Serif" font-size="10.00">be/src/util/url&#45;parser.cc</text>
</a>
</g>
</g>
<!-- Node1&#45;&gt;Node3 -->
<g id="edge2" class="edge"><title>Node1&#45;&gt;Node3</title>
<path fill="none" stroke="midnightblue" d="M127.598,-61.1928C139.567,-49.7935 155.266,-34.8414 164.99,-25.5806"/>
<polygon fill="midnightblue" stroke="midnightblue" points="124.854,-58.9724 120.026,-68.4035 129.682,-64.0414 124.854,-58.9724"/>
</g>
</g>
</svg>
