<?xml version="1.0" encoding="UTF-8" standalone="no"?>
<!DOCTYPE svg PUBLIC "-//W3C//DTD SVG 1.1//EN"
 "http://www.w3.org/Graphics/SVG/1.1/DTD/svg11.dtd">
<!-- Generated by graphviz version 2.36.0 (20140111.2315)
 -->
<!-- Title: be/src/common/version.h Pages: 1 -->
<svg width="927pt" height="96pt"
 viewBox="0.00 0.00 927.00 96.00" xmlns="http://www.w3.org/2000/svg" xmlns:xlink="http://www.w3.org/1999/xlink">
<g id="graph0" class="graph" transform="scale(1 1) rotate(0) translate(4 92)">
<title>be/src/common/version.h</title>
<polygon fill="white" stroke="none" points="-4,4 -4,-92 923,-92 923,4 -4,4"/>
<!-- Node1 -->
<g id="node1" class="node"><title>Node1</title>
<polygon fill="#bfbfbf" stroke="black" points="408.5,-68.5 408.5,-87.5 535.5,-87.5 535.5,-68.5 408.5,-68.5"/>
<text text-anchor="middle" x="472" y="-75.5" font-family="Helvetica,sans-Serif" font-size="10.00">be/src/common/version.h</text>
</g>
<!-- Node2 -->
<g id="node2" class="node"><title>Node2</title>
<g id="a_node2"><a xlink:href="version_8cc.html" target="_top" xlink:title="be/src/common/version.cc">
<polygon fill="white" stroke="black" points="0,-6.5 0,-25.5 132,-25.5 132,-6.5 0,-6.5"/>
<text text-anchor="middle" x="66" y="-13.5" font-family="Helvetica,sans-Serif" font-size="10.00">be/src/common/version.cc</text>
</a>
</g>
</g>
<!-- Node1&#45;&gt;Node2 -->
<g id="edge1" class="edge"><title>Node1&#45;&gt;Node2</title>
<path fill="none" stroke="midnightblue" d="M398.298,-68.3149C331.088,-60.0781 229.13,-46.789 141,-32 129.738,-30.1101 117.578,-27.7972 106.395,-25.5587"/>
<polygon fill="midnightblue" stroke="midnightblue" points="398.017,-71.8065 408.367,-69.5429 398.865,-64.858 398.017,-71.8065"/>
</g>
<!-- Node3 -->
<g id="node3" class="node"><title>Node3</title>
<g id="a_node3"><a xlink:href="hdfs-lzo-text-scanner_8cc.html" target="_top" xlink:title="be/src/exec/hdfs&#45;lzo\l&#45;text&#45;scanner.cc">
<polygon fill="white" stroke="black" points="150.5,-1 150.5,-31 255.5,-31 255.5,-1 150.5,-1"/>
<text text-anchor="start" x="158.5" y="-19" font-family="Helvetica,sans-Serif" font-size="10.00">be/src/exec/hdfs&#45;lzo</text>
<text text-anchor="middle" x="203" y="-8" font-family="Helvetica,sans-Serif" font-size="10.00">&#45;text&#45;scanner.cc</text>
</a>
</g>
</g>
<!-- Node1&#45;&gt;Node3 -->
<g id="edge2" class="edge"><title>Node1&#45;&gt;Node3</title>
<path fill="none" stroke="midnightblue" d="M420.857,-66.3532C378.699,-57.4764 317.376,-44.3339 264,-32 261.237,-31.3616 258.407,-30.6982 255.55,-30.0213"/>
<polygon fill="midnightblue" stroke="midnightblue" points="420.373,-69.8278 430.88,-68.459 421.813,-62.9774 420.373,-69.8278"/>
</g>
<!-- Node4 -->
<g id="node4" class="node"><title>Node4</title>
<g id="a_node4"><a xlink:href="hdfs-parquet-table-writer_8cc.html" target="_top" xlink:title="be/src/exec/hdfs&#45;parquet\l&#45;table&#45;writer.cc">
<polygon fill="white" stroke="black" points="273.5,-1 273.5,-31 398.5,-31 398.5,-1 273.5,-1"/>
<text text-anchor="start" x="281.5" y="-19" font-family="Helvetica,sans-Serif" font-size="10.00">be/src/exec/hdfs&#45;parquet</text>
<text text-anchor="middle" x="336" y="-8" font-family="Helvetica,sans-Serif" font-size="10.00">&#45;table&#45;writer.cc</text>
</a>
</g>
</g>
<!-- Node1&#45;&gt;Node4 -->
<g id="edge3" class="edge"><title>Node1&#45;&gt;Node4</title>
<path fill="none" stroke="midnightblue" d="M443.306,-64.3408C421.195,-54.5862 390.642,-41.1068 367.791,-31.0253"/>
<polygon fill="midnightblue" stroke="midnightblue" points="441.953,-67.5692 452.515,-68.4035 444.778,-61.1648 441.953,-67.5692"/>
</g>
<!-- Node5 -->
<g id="node5" class="node"><title>Node5</title>
<g id="a_node5"><a xlink:href="impala-beeswax-server_8cc.html" target="_top" xlink:title="be/src/service/impala\l&#45;beeswax&#45;server.cc">
<polygon fill="white" stroke="black" points="417,-1 417,-31 527,-31 527,-1 417,-1"/>
<text text-anchor="start" x="425" y="-19" font-family="Helvetica,sans-Serif" font-size="10.00">be/src/service/impala</text>
<text text-anchor="middle" x="472" y="-8" font-family="Helvetica,sans-Serif" font-size="10.00">&#45;beeswax&#45;server.cc</text>
</a>
</g>
</g>
<!-- Node1&#45;&gt;Node5 -->
<g id="edge4" class="edge"><title>Node1&#45;&gt;Node5</title>
<path fill="none" stroke="midnightblue" d="M472,-58.3707C472,-49.5849 472,-39.2721 472,-31.1408"/>
<polygon fill="midnightblue" stroke="midnightblue" points="468.5,-58.4034 472,-68.4035 475.5,-58.4035 468.5,-58.4034"/>
</g>
<!-- Node6 -->
<g id="node6" class="node"><title>Node6</title>
<g id="a_node6"><a xlink:href="impala-hs2-server_8cc.html" target="_top" xlink:title="be/src/service/impala\l&#45;hs2&#45;server.cc">
<polygon fill="white" stroke="black" points="545,-1 545,-31 655,-31 655,-1 545,-1"/>
<text text-anchor="start" x="553" y="-19" font-family="Helvetica,sans-Serif" font-size="10.00">be/src/service/impala</text>
<text text-anchor="middle" x="600" y="-8" font-family="Helvetica,sans-Serif" font-size="10.00">&#45;hs2&#45;server.cc</text>
</a>
</g>
</g>
<!-- Node1&#45;&gt;Node6 -->
<g id="edge5" class="edge"><title>Node1&#45;&gt;Node6</title>
<path fill="none" stroke="midnightblue" d="M499.535,-64.0928C520.222,-54.3962 548.535,-41.1242 569.833,-31.1408"/>
<polygon fill="midnightblue" stroke="midnightblue" points="497.908,-60.99 490.339,-68.4035 500.879,-67.3282 497.908,-60.99"/>
</g>
<!-- Node7 -->
<g id="node7" class="node"><title>Node7</title>
<g id="a_node7"><a xlink:href="impala-server_8cc.html" target="_top" xlink:title="be/src/service/impala\l&#45;server.cc">
<polygon fill="white" stroke="black" points="673,-1 673,-31 783,-31 783,-1 673,-1"/>
<text text-anchor="start" x="681" y="-19" font-family="Helvetica,sans-Serif" font-size="10.00">be/src/service/impala</text>
<text text-anchor="middle" x="728" y="-8" font-family="Helvetica,sans-Serif" font-size="10.00">&#45;server.cc</text>
</a>
</g>
</g>
<!-- Node1&#45;&gt;Node7 -->
<g id="edge6" class="edge"><title>Node1&#45;&gt;Node7</title>
<path fill="none" stroke="midnightblue" d="M518.147,-66.1843C561.599,-56.0001 626.731,-40.7349 672.892,-29.916"/>
<polygon fill="midnightblue" stroke="midnightblue" points="517.344,-62.7775 508.407,-68.4672 518.942,-69.5929 517.344,-62.7775"/>
</g>
<!-- Node8 -->
<g id="node8" class="node"><title>Node8</title>
<g id="a_node8"><a xlink:href="debug-util_8cc.html" target="_top" xlink:title="be/src/util/debug&#45;util.cc">
<polygon fill="white" stroke="black" points="801,-6.5 801,-25.5 919,-25.5 919,-6.5 801,-6.5"/>
<text text-anchor="middle" x="860" y="-13.5" font-family="Helvetica,sans-Serif" font-size="10.00">be/src/util/debug&#45;util.cc</text>
</a>
</g>
</g>
<!-- Node1&#45;&gt;Node8 -->
<g id="edge7" class="edge"><title>Node1&#45;&gt;Node8</title>
<path fill="none" stroke="midnightblue" d="M545.832,-68.2647C610.858,-60.1794 708.016,-47.1446 792,-32 802.351,-30.1335 813.52,-27.8032 823.756,-25.5399"/>
<polygon fill="midnightblue" stroke="midnightblue" points="545.174,-64.8193 535.679,-69.5194 546.033,-71.7665 545.174,-64.8193"/>
</g>
</g>
</svg>
