<?xml version="1.0" encoding="UTF-8" standalone="no"?>
<!DOCTYPE svg PUBLIC "-//W3C//DTD SVG 1.1//EN"
 "http://www.w3.org/Graphics/SVG/1.1/DTD/svg11.dtd">
<!-- Generated by graphviz version 2.36.0 (20140111.2315)
 -->
<!-- Title: be/src/exec/write&#45;stream.h Pages: 1 -->
<svg width="446pt" height="164pt"
 viewBox="0.00 0.00 446.00 164.00" xmlns="http://www.w3.org/2000/svg" xmlns:xlink="http://www.w3.org/1999/xlink">
<g id="graph0" class="graph" transform="scale(1 1) rotate(0) translate(4 160)">
<title>be/src/exec/write&#45;stream.h</title>
<polygon fill="white" stroke="none" points="-4,4 -4,-160 442,-160 442,4 -4,4"/>
<!-- Node1 -->
<g id="node1" class="node"><title>Node1</title>
<polygon fill="#bfbfbf" stroke="black" points="140.5,-136.5 140.5,-155.5 273.5,-155.5 273.5,-136.5 140.5,-136.5"/>
<text text-anchor="middle" x="207" y="-143.5" font-family="Helvetica,sans-Serif" font-size="10.00">be/src/exec/write&#45;stream.h</text>
</g>
<!-- Node2 -->
<g id="node2" class="node"><title>Node2</title>
<g id="a_node2"><a xlink:href="write-stream_8inline_8h.html" target="_top" xlink:title="be/src/exec/write&#45;stream.inline.h">
<polygon fill="white" stroke="black" points="128,-74.5 128,-93.5 286,-93.5 286,-74.5 128,-74.5"/>
<text text-anchor="middle" x="207" y="-81.5" font-family="Helvetica,sans-Serif" font-size="10.00">be/src/exec/write&#45;stream.inline.h</text>
</a>
</g>
</g>
<!-- Node1&#45;&gt;Node2 -->
<g id="edge1" class="edge"><title>Node1&#45;&gt;Node2</title>
<path fill="none" stroke="midnightblue" d="M207,-126.16C207,-115.248 207,-102.04 207,-93.5806"/>
<polygon fill="midnightblue" stroke="midnightblue" points="203.5,-126.403 207,-136.403 210.5,-126.403 203.5,-126.403"/>
</g>
<!-- Node5 -->
<g id="node5" class="node"><title>Node5</title>
<g id="a_node5"><a xlink:href="hdfs-avro-table-writer_8h.html" target="_top" xlink:title="be/src/exec/hdfs&#45;avro\l&#45;table&#45;writer.h">
<polygon fill="white" stroke="black" points="-0.5,-69 -0.5,-99 110.5,-99 110.5,-69 -0.5,-69"/>
<text text-anchor="start" x="7.5" y="-87" font-family="Helvetica,sans-Serif" font-size="10.00">be/src/exec/hdfs&#45;avro</text>
<text text-anchor="middle" x="55" y="-76" font-family="Helvetica,sans-Serif" font-size="10.00">&#45;table&#45;writer.h</text>
</a>
</g>
</g>
<!-- Node1&#45;&gt;Node5 -->
<g id="edge4" class="edge"><title>Node1&#45;&gt;Node5</title>
<path fill="none" stroke="midnightblue" d="M175.593,-132.602C150.832,-122.828 116.3,-109.197 90.5308,-99.0253"/>
<polygon fill="midnightblue" stroke="midnightblue" points="174.635,-135.987 185.222,-136.403 177.206,-129.476 174.635,-135.987"/>
</g>
<!-- Node7 -->
<g id="node7" class="node"><title>Node7</title>
<g id="a_node7"><a xlink:href="hdfs-sequence-table-writer_8h.html" target="_top" xlink:title="be/src/exec/hdfs&#45;sequence\l&#45;table&#45;writer.h">
<polygon fill="white" stroke="black" points="304,-69 304,-99 438,-99 438,-69 304,-69"/>
<text text-anchor="start" x="312" y="-87" font-family="Helvetica,sans-Serif" font-size="10.00">be/src/exec/hdfs&#45;sequence</text>
<text text-anchor="middle" x="371" y="-76" font-family="Helvetica,sans-Serif" font-size="10.00">&#45;table&#45;writer.h</text>
</a>
</g>
</g>
<!-- Node1&#45;&gt;Node7 -->
<g id="edge7" class="edge"><title>Node1&#45;&gt;Node7</title>
<path fill="none" stroke="midnightblue" d="M240.177,-132.862C266.94,-123.071 304.614,-109.288 332.664,-99.0253"/>
<polygon fill="midnightblue" stroke="midnightblue" points="238.686,-129.681 230.497,-136.403 241.091,-136.255 238.686,-129.681"/>
</g>
<!-- Node3 -->
<g id="node3" class="node"><title>Node3</title>
<g id="a_node3"><a xlink:href="hdfs-avro-table-writer_8cc.html" target="_top" xlink:title="be/src/exec/hdfs&#45;avro\l&#45;table&#45;writer.cc">
<polygon fill="white" stroke="black" points="4.5,-1 4.5,-31 115.5,-31 115.5,-1 4.5,-1"/>
<text text-anchor="start" x="12.5" y="-19" font-family="Helvetica,sans-Serif" font-size="10.00">be/src/exec/hdfs&#45;avro</text>
<text text-anchor="middle" x="60" y="-8" font-family="Helvetica,sans-Serif" font-size="10.00">&#45;table&#45;writer.cc</text>
</a>
</g>
</g>
<!-- Node2&#45;&gt;Node3 -->
<g id="edge2" class="edge"><title>Node2&#45;&gt;Node3</title>
<path fill="none" stroke="midnightblue" d="M178.465,-70.1883C153.441,-58.953 117.123,-42.6472 91.307,-31.0562"/>
<polygon fill="midnightblue" stroke="midnightblue" points="177.226,-73.4686 187.782,-74.3717 180.093,-67.0827 177.226,-73.4686"/>
</g>
<!-- Node4 -->
<g id="node4" class="node"><title>Node4</title>
<g id="a_node4"><a xlink:href="hdfs-sequence-table-writer_8cc.html" target="_top" xlink:title="be/src/exec/hdfs&#45;sequence\l&#45;table&#45;writer.cc">
<polygon fill="white" stroke="black" points="298,-1 298,-31 432,-31 432,-1 298,-1"/>
<text text-anchor="start" x="306" y="-19" font-family="Helvetica,sans-Serif" font-size="10.00">be/src/exec/hdfs&#45;sequence</text>
<text text-anchor="middle" x="365" y="-8" font-family="Helvetica,sans-Serif" font-size="10.00">&#45;table&#45;writer.cc</text>
</a>
</g>
</g>
<!-- Node2&#45;&gt;Node4 -->
<g id="edge3" class="edge"><title>Node2&#45;&gt;Node4</title>
<path fill="none" stroke="midnightblue" d="M236.959,-70.4854C263.875,-59.242 303.357,-42.7498 331.35,-31.0562"/>
<polygon fill="midnightblue" stroke="midnightblue" points="235.534,-67.2876 227.656,-74.3717 238.232,-73.7467 235.534,-67.2876"/>
</g>
<!-- Node5&#45;&gt;Node3 -->
<g id="edge5" class="edge"><title>Node5&#45;&gt;Node3</title>
<path fill="none" stroke="midnightblue" d="M56.8536,-58.5322C57.5484,-49.3606 58.3148,-39.2449 58.9172,-31.2931"/>
<polygon fill="midnightblue" stroke="midnightblue" points="53.3504,-58.4431 56.0849,-68.679 60.3304,-58.972 53.3504,-58.4431"/>
</g>
<!-- Node6 -->
<g id="node6" class="node"><title>Node6</title>
<g id="a_node6"><a xlink:href="hdfs-table-sink_8cc.html" target="_top" xlink:title="be/src/exec/hdfs&#45;table\l&#45;sink.cc">
<polygon fill="white" stroke="black" points="144.5,-1 144.5,-31 257.5,-31 257.5,-1 144.5,-1"/>
<text text-anchor="start" x="152.5" y="-19" font-family="Helvetica,sans-Serif" font-size="10.00">be/src/exec/hdfs&#45;table</text>
<text text-anchor="middle" x="201" y="-8" font-family="Helvetica,sans-Serif" font-size="10.00">&#45;sink.cc</text>
</a>
</g>
</g>
<!-- Node5&#45;&gt;Node6 -->
<g id="edge6" class="edge"><title>Node5&#45;&gt;Node6</title>
<path fill="none" stroke="midnightblue" d="M95.6877,-64.6069C119.205,-53.976 148.327,-40.8112 169.982,-31.0218"/>
<polygon fill="midnightblue" stroke="midnightblue" points="93.9911,-61.5328 86.3207,-68.8413 96.8746,-67.9113 93.9911,-61.5328"/>
</g>
<!-- Node7&#45;&gt;Node4 -->
<g id="edge8" class="edge"><title>Node7&#45;&gt;Node4</title>
<path fill="none" stroke="midnightblue" d="M368.776,-58.5322C367.942,-49.3606 367.022,-39.2449 366.299,-31.2931"/>
<polygon fill="midnightblue" stroke="midnightblue" points="365.307,-59.037 369.698,-68.679 372.278,-58.4031 365.307,-59.037"/>
</g>
<!-- Node7&#45;&gt;Node6 -->
<g id="edge9" class="edge"><title>Node7&#45;&gt;Node6</title>
<path fill="none" stroke="midnightblue" d="M325.078,-65.1715C297.45,-54.4451 262.78,-40.9852 237.117,-31.0218"/>
<polygon fill="midnightblue" stroke="midnightblue" points="323.942,-68.4849 334.531,-68.8413 326.475,-61.9594 323.942,-68.4849"/>
</g>
</g>
</svg>
